<svg xmlns="http://www.w3.org/2000/svg" viewBox="0 0 512 512"><!--! Font Awesome Pro 6.1.1 by @fontawesome - https://fontawesome.com License - https://fontawesome.com/license (Commercial License) Copyright 2022 Fonticons, Inc. --><path d="M32 24C32 10.75 42.75 0 56 0H456C469.3 0 480 10.75 480 24C480 37.25 469.3 48 456 48H56C42.75 48 32 37.25 32 24V24zM224 352C224 338.7 238.3 328 256 328C273.7 328 288 338.7 288 352C288 365.3 273.7 376 256 376C238.3 376 224 365.3 224 352zM464 160C477.8 160 490.9 165.9 499.1 176.2C509.1 186.6 513.3 200.3 511.6 213.1L479.6 469.1C476.6 493.1 456.2 512 432 512H80C55.79 512 35.37 493.1 32.37 469.1L.3709 213.1C-1.337 200.3 2.904 186.6 12.02 176.2C21.13 165.9 34.23 160 48 160L464 160zM256 208C154.4 208 72 268.9 72 344C72 419.1 154.4 480 256 480C357.6 480 440 419.1 440 344C440 268.9 357.6 208 256 208zM472 80C485.3 80 496 90.75 496 104C496 117.3 485.3 128 472 128H40C26.75 128 16 117.3 16 104C16 90.75 26.75 80 40 80H472z"/></svg>