<svg xmlns="http://www.w3.org/2000/svg" viewBox="0 0 512 512"><!--! Font Awesome Pro 6.0.0-beta3 by @fontawesome - https://fontawesome.com License - https://fontawesome.com/license (Commercial License) Copyright 2021 Fonticons, Inc. --><path d="M192 384c-8.836 0-16 7.164-16 16S183.2 416 192 416s16-7.164 16-16S200.8 384 192 384zM256 384c-8.836 0-16 7.164-16 16S247.2 416 256 416s16-7.164 16-16S264.8 384 256 384zM160 368c8.836 0 16-7.164 16-16S168.8 336 160 336S144 343.2 144 352S151.2 368 160 368zM128 320c8.836 0 16-7.164 16-16S136.8 288 128 288S112 295.2 112 304S119.2 320 128 320zM464 96h-52.35C389.5 69.16 325.8 0 256 0S122.5 69.16 100.3 96H48C21.49 96 0 117.5 0 144v320C0 490.5 21.49 512 48 512h416c26.51 0 48-21.49 48-48v-320C512 117.5 490.5 96 464 96zM416 152c13.25 0 24 10.75 24 24S429.3 200 416 200s-24-10.75-24-24S402.7 152 416 152zM256 48c30.41 0 64.14 24.03 89.71 48H166.2C191.7 72.03 225.5 48 256 48zM344 176c0 13.25-10.75 24-24 24s-24-10.75-24-24S306.7 152 320 152S344 162.7 344 176zM216 176c0 13.25-10.75 24-24 24S168 189.3 168 176S178.7 152 192 152S216 162.7 216 176zM96 152c13.25 0 24 10.75 24 24S109.3 200 96 200S72 189.3 72 176S82.75 152 96 152zM448 448H64V256h384V448zM320 384c-8.836 0-16 7.164-16 16S311.2 416 320 416s16-7.164 16-16S328.8 384 320 384zM128 416c8.836 0 16-7.164 16-16S136.8 384 128 384s-16 7.164-16 16S119.2 416 128 416zM384 384c-8.836 0-16 7.164-16 16S375.2 416 384 416s16-7.164 16-16S392.8 384 384 384zM192 320c8.836 0 16-7.164 16-16S200.8 288 192 288S176 295.2 176 304S183.2 320 192 320zM256 320c8.836 0 16-7.164 16-16S264.8 288 256 288S240 295.2 240 304S247.2 320 256 320zM224 368c8.836 0 16-7.164 16-16S232.8 336 224 336S208 343.2 208 352S215.2 368 224 368zM288 368c8.836 0 16-7.164 16-16s-7.164-16-16-16s-16 7.164-16 16S279.2 368 288 368zM384 320c8.836 0 16-7.164 16-16S392.8 288 384 288s-16 7.164-16 16S375.2 320 384 320zM352 368c8.836 0 16-7.164 16-16s-7.164-16-16-16s-16 7.164-16 16S343.2 368 352 368zM320 320c8.836 0 16-7.164 16-16S328.8 288 320 288s-16 7.164-16 16S311.2 320 320 320z"/></svg>