<svg xmlns="http://www.w3.org/2000/svg" viewBox="0 0 448 512"><!--! Font Awesome Pro 6.1.1 by @fontawesome - https://fontawesome.com License - https://fontawesome.com/license (Commercial License) Copyright 2022 Fonticons, Inc. --><path d="M312.6 384h49.13c-7.244-37.39-20.83-72.46-39.39-104.3l-41.1 24.66C295.4 328.9 306.1 355.6 312.6 384zM263.6 277.6l41.31-24.79c-21.5-29.97-47.75-56.22-77.72-77.72L202.4 216.4C225.8 233.6 246.4 254.2 263.6 277.6zM416 416H64V63.1C64 46.33 49.67 32 32 32S0 46.33 0 63.1V448c0 17.67 14.33 32 32 32h384C433.7 480 448 465.7 448 448S433.7 416 416 416zM200.3 157.7C168.5 139.1 133.4 125.5 96 118.3v49.13c28.39 6.477 55.15 17.16 79.68 31.36L200.3 157.7z"/></svg>