<svg xmlns="http://www.w3.org/2000/svg" viewBox="0 0 448 512"><!--! Font Awesome Pro 6.0.0-beta3 by @fontawesome - https://fontawesome.com License - https://fontawesome.com/license (Commercial License) Copyright 2021 Fonticons, Inc. --><path d="M312.6 384h49.13c-7.205-37.18-20.67-72.07-39.07-103.8L282.3 306.1C295.1 330.1 306.3 356.3 312.6 384zM213.7 224.8c19.39 15.81 36.51 34.21 51.23 54.48l40.42-25.98c-19.56-27.38-43.12-51.61-69.83-72.03L213.7 224.8zM416 416H83.78l168.8-337.7c7.906-15.81 1.5-35.03-14.31-42.94c-15.81-7.891-35-1.5-42.94 14.31l-192 384c-4.969 9.922-4.438 21.7 1.406 31.14C10.63 474.3 20.91 480 32 480h384c17.69 0 32-14.33 32-32S433.7 416 416 416z"/></svg>