<svg xmlns="http://www.w3.org/2000/svg" viewBox="0 0 384 512"><!--! Font Awesome Pro 6.1.1 by @fontawesome - https://fontawesome.com License - https://fontawesome.com/license (Commercial License) Copyright 2022 Fonticons, Inc. --><path d="M288 32V0h-32c-44.18 0-80 35.82-80 80v32h32C252.2 112 288 76.18 288 32zM287.1 304c0-62.93 33.13-117.1 82.79-149.1c-16.88-16.54-38.72-26.93-66.68-26.93c-32 0-80.11 16.06-112.1 32.06c-32.01-16-79.1-32.02-111.1-32.03C51.94 128 29.96 138.3 13.06 154.8C62.81 185.9 95.1 241 95.1 304c0 60.11-30.18 113.1-76.16 144.9C47.32 486.2 84.35 512 128 512c32 0 48-16 64-16c16 0 32 16 64 16c43.76 0 80.84-25.65 108.3-63.01C318.2 417.3 287.1 364.2 287.1 304z"/></svg>