<svg xmlns="http://www.w3.org/2000/svg" viewBox="0 0 448 512"><!--! Font Awesome Pro 6.0.0-beta3 by @fontawesome - https://fontawesome.com License - https://fontawesome.com/license (Commercial License) Copyright 2021 Fonticons, Inc. --><path d="M18.38 183.3C31.97 195.8 52.17 193.8 63.6 181.3L96 145.9v302C96 465.7 110.3 480 128 480s32-14.33 32-32.03V145.9L192.4 181.3c11.95 13.01 32.2 13.92 45.22 1.973c13.03-11.95 13.9-32.22 1.969-45.27L151.6 41.95c-12.12-13.26-35.06-13.26-47.19 0l-87.1 96.09C4.473 151.1 5.348 171.4 18.38 183.3zM210.4 328.7c-13.03 11.95-13.9 32.22-1.969 45.27l87.1 96.09c12.12 13.26 35.06 13.26 47.19 0l87.1-96.09c11.94-13.05 11.06-33.31-1.969-45.27c-13.59-12.46-33.8-10.48-45.22 1.969L352 366.1V64.03C352 46.33 337.7 32 320 32s-32 14.33-32 32.03v302l-32.4-35.4C243.6 317.7 223.4 316.8 210.4 328.7z"/></svg>