<svg xmlns="http://www.w3.org/2000/svg" viewBox="0 0 448 512"><!--! Font Awesome Pro 6.1.1 by @fontawesome - https://fontawesome.com License - https://fontawesome.com/license (Commercial License) Copyright 2022 Fonticons, Inc. --><path d="M32 224C14.33 224 0 238.3 0 256s14.33 32 32 32s32-14.33 32-32S49.67 224 32 224zM160 256c0-17.67-14.33-32-32-32S96 238.3 96 256s14.33 32 32 32S160 273.7 160 256zM192 256c0 17.67 14.33 32 32 32s32-14.33 32-32s-14.33-32-32-32S192 238.3 192 256zM416 224c-17.67 0-32 14.33-32 32s14.33 32 32 32s32-14.33 32-32S433.7 224 416 224zM320 224c-17.67 0-32 14.33-32 32s14.33 32 32 32s32-14.33 32-32S337.7 224 320 224zM201.4 182.6C207.6 188.9 215.8 192 224 192s16.38-3.125 22.62-9.375l64-64C316.9 112.4 320 104.2 320 96c0-17.05-13.73-32-32-32c-8.188 0-16.38 3.125-22.62 9.375L256 82.75V32c0-17.69-14.31-32-32-32S192 14.31 192 32v50.75L182.6 73.38C176.4 67.13 168.2 64 160 64C141.7 64 128 78.95 128 96c0 8.188 3.125 16.38 9.375 22.62L201.4 182.6zM246.6 329.4C240.4 323.1 232.2 320 224 320s-16.38 3.115-22.62 9.365l-64 64C131.1 399.6 128 407.8 128 416c0 17.05 13.73 32 32 32c8.188 0 16.38-3.125 22.62-9.375L192 429.3V480c0 17.69 14.31 32 32 32s32-14.31 32-32v-50.75l9.375 9.375C271.6 444.9 279.8 448 288 448c18.28 0 32-14.95 32-32c0-8.188-3.125-16.38-9.375-22.62L246.6 329.4z"/></svg>