<svg xmlns="http://www.w3.org/2000/svg" viewBox="0 0 448 512"><!--! Font Awesome Pro 6.1.1 by @fontawesome - https://fontawesome.com License - https://fontawesome.com/license (Commercial License) Copyright 2022 Fonticons, Inc. --><path d="M182.6 361.4L109.3 288H288c17.69 0 32-14.31 32-32s-14.31-32-32-32H109.3l73.38-73.38C188.9 144.4 192 136.2 192 128S188.9 111.6 182.6 105.4c-12.5-12.5-32.75-12.5-45.25 0l-128 128c-12.5 12.5-12.5 32.75 0 45.25l128 128c12.5 12.5 32.75 12.5 45.25 0S195.1 373.9 182.6 361.4zM384 96v320c0 17.69 14.31 32 32 32s32-14.31 32-32V96c0-17.69-14.31-32-32-32S384 78.31 384 96z"/></svg>