<svg xmlns="http://www.w3.org/2000/svg" viewBox="0 0 512 512"><!--! Font Awesome Pro 6.0.0-beta3 by @fontawesome - https://fontawesome.com License - https://fontawesome.com/license (Commercial License) Copyright 2021 Fonticons, Inc. --><path d="M480 256h-160c-17.67 0-32 14.33-32 32v160c0 17.67 14.33 32 32 32h160c17.67 0 32-14.33 32-32V288C512 270.3 497.7 256 480 256zM320 192h96c17.6 0 32-14.4 32-32V64c0-17.6-14.4-32-32-32h-96c-17.6 0-32 14.4-32 32v96C288 177.6 302.4 192 320 192zM151.6 41.95c-12.12-13.26-35.06-13.26-47.19 0l-87.1 96.09C4.473 151.1 5.348 171.4 18.38 183.3c13.02 11.95 33.27 11.04 45.22-1.973L96 145.9v302C96 465.7 110.3 480 128 480s32-14.33 32-32.03V145.9L192.4 181.3c6.312 6.883 14.94 10.39 23.61 10.39c7.719 0 15.47-2.785 21.61-8.414c13.03-11.95 13.9-32.22 1.969-45.27L151.6 41.95z"/></svg>