<svg xmlns="http://www.w3.org/2000/svg" viewBox="0 0 512 512"><!--! Font Awesome Pro 6.1.1 by @fontawesome - https://fontawesome.com License - https://fontawesome.com/license (Commercial License) Copyright 2022 Fonticons, Inc. --><path d="M320 224h128c17.67 0 32-14.33 32-32V64c0-17.67-14.33-32-32-32h-128c-17.67 0-31.1 14.33-31.1 32v128C288 209.7 302.3 224 320 224zM492.1 438.9l-83.13-137.1c-11.12-18.38-38.75-18.38-49.88 0l-83.25 137.1c-11 18.25 2.75 41.13 25 41.13h166.3C489.4 480 503.1 457.1 492.1 438.9zM192.4 330.7L160 366.1V64.03c0-17.7-14.33-32.03-32-32.03S96 46.33 96 64.03v302L63.6 330.7c-11.42-12.45-31.63-14.43-45.22-1.969c-13.03 11.95-13.9 32.22-1.969 45.27l87.1 96.09c12.12 13.26 35.06 13.26 47.19 0l87.1-96.09c11.94-13.05 11.06-33.31-1.969-45.27C224.6 316.8 204.4 317.7 192.4 330.7z"/></svg>