<svg xmlns="http://www.w3.org/2000/svg" viewBox="0 0 640 512"><!--! Font Awesome Pro 6.1.1 by @fontawesome - https://fontawesome.com License - https://fontawesome.com/license (Commercial License) Copyright 2022 Fonticons, Inc. --><path d="M640 416C640 433.7 625.7 448 608 448C590.3 448 576 433.7 576 416V96C576 78.33 590.3 64 608 64C625.7 64 640 78.33 640 96V416zM329.4 406.6C316.9 394.1 316.9 373.9 329.4 361.4L402.7 288H32C14.31 288 0 273.7 0 256C0 238.3 14.31 224 32 224H402.7L329.4 150.6C316.9 138.1 316.9 117.9 329.4 105.4C341.9 92.88 362.1 92.88 374.6 105.4L502.6 233.4C515.1 245.9 515.1 266.1 502.6 278.6L374.6 406.6C362.1 419.1 341.9 419.1 329.4 406.6z"/></svg>