<svg xmlns="http://www.w3.org/2000/svg" viewBox="0 0 384 512"><!--! Font Awesome Pro 6.1.1 by @fontawesome - https://fontawesome.com License - https://fontawesome.com/license (Commercial License) Copyright 2022 Fonticons, Inc. --><path d="M297.4 169.4L224 242.8V64c0-17.69-14.31-32-32-32S160 46.31 160 64v178.8L86.63 169.4C80.38 163.1 72.19 160 64 160S47.63 163.1 41.38 169.4c-12.5 12.5-12.5 32.75 0 45.25l128 128c12.5 12.5 32.75 12.5 45.25 0l128-128c12.5-12.5 12.5-32.75 0-45.25S309.9 156.9 297.4 169.4zM352 416H32c-17.69 0-32 14.31-32 32s14.31 32 32 32h320c17.69 0 32-14.31 32-32S369.7 416 352 416z"/></svg>