<svg xmlns="http://www.w3.org/2000/svg" viewBox="0 0 512 512"><!--! Font Awesome Pro 6.0.0-beta3 by @fontawesome - https://fontawesome.com License - https://fontawesome.com/license (Commercial License) Copyright 2021 Fonticons, Inc. --><path d="M333.3 336c12.5-12.5 12.5-32.77 0-45.26L109.3 63.99H192c17.67 0 31.99-14.33 31.99-31.1C223.1 14.32 209.7 0 192 0H32C23.16 0 15.16 3.578 9.371 9.367C3.578 15.16 0 23.16 0 31.1V192c0 17.67 14.32 31.1 31.99 31.1S63.99 209.7 63.99 192V109.2L288 336C300.5 348.5 320.8 348.5 333.3 336zM325.3 67.09C307.8 64 291.4 75.91 288.4 93.38c-2.906 17.44 8.844 33.91 26.28 36.84C391.9 143.2 448 209.5 448 288c0 88.22-71.78 160-160 160c-78.47 0-144.8-56.06-157.8-133.3C127.3 297.3 111.1 285.3 93.34 288.4c-17.41 2.938-29.19 19.44-26.25 36.88C85.25 433.5 178.2 512 288 512c123.5 0 224-100.5 224-224C512 178.1 433.5 85.22 325.3 67.09z"/></svg>