<svg xmlns="http://www.w3.org/2000/svg" viewBox="0 0 512 512"><!--! Font Awesome Pro 6.0.0-beta3 by @fontawesome - https://fontawesome.com License - https://fontawesome.com/license (Commercial License) Copyright 2021 Fonticons, Inc. --><path d="M167.8 159.7c8.895 0 17.63-3.71 23.76-10.39L224 113.9V320c0 17.7 14.33 32.02 32 32.02S288 337.7 288 320V113.9l32.4 35.39c6.32 6.879 14.96 10.38 23.63 10.38c17.64 0 31.97-14.29 31.97-32.01c0-7.734-2.78-15.51-8.409-21.66l-87.1-96.09C273.5 3.312 264.8-.0002 256-.0002S238.5 3.312 232.4 9.945l-87.1 96.09c-5.629 6.152-8.409 13.93-8.409 21.66C135.1 145.4 150.3 159.7 167.8 159.7zM448 96h-32v63.92L448 160v288H64V160l32-.0824V96H64C28.72 96 0 124.7 0 160v288c0 35.28 28.72 64 64 64h384c35.28 0 64-28.72 64-64V160C512 124.7 483.3 96 448 96z"/></svg>