<svg xmlns="http://www.w3.org/2000/svg" viewBox="0 0 512 512"><!--! Font Awesome Pro 6.0.0-beta3 by @fontawesome - https://fontawesome.com License - https://fontawesome.com/license (Commercial License) Copyright 2021 Fonticons, Inc. --><path d="M151.6 41.95c-12.12-13.26-35.06-13.26-47.19 0l-87.1 96.09C4.473 151.1 5.348 171.4 18.38 183.3c13.02 11.95 33.27 11.04 45.22-1.973L96 145.9v302C96 465.7 110.3 480 128 480s32-14.33 32-32.03V145.9L192.4 181.3c11.42 12.45 31.63 14.43 45.22 1.973c13.03-11.95 13.9-32.22 1.969-45.27L151.6 41.95zM448 288h-128c-17.67 0-31.1 14.33-31.1 32V448c0 17.67 14.33 32 31.1 32h128c17.67 0 32-14.33 32-32v-127.1C480 302.3 465.7 288 448 288zM492.1 182.9l-83.13-137.1c-11.12-18.38-38.75-18.38-49.88 0l-83.25 137.1c-11 18.25 2.75 41.12 25 41.12h166.3C489.4 224 503.1 201.1 492.1 182.9z"/></svg>