<svg xmlns="http://www.w3.org/2000/svg" viewBox="0 0 448 512"><!--! Font Awesome Pro 6.0.0-beta3 by @fontawesome - https://fontawesome.com License - https://fontawesome.com/license (Commercial License) Copyright 2021 Fonticons, Inc. --><path d="M400.9 256c47.5 76.38 66.25 155.1 22.25 199.1C381.8 496.5 307.3 484.4 224 432.5c-83.63 52-157.9 63.88-199.1 22.63c-44-44-25.25-122.8 22.25-199.1c-47.5-76.38-66.25-155.1-22.25-199.1S147.6 31.61 224 79.12c76.25-47.5 155.1-66.25 199.1-22.25S448.4 179.6 400.9 256zM167.4 391.8c-26.13-21.5-50.38-44-79.13-78.88c-24.88 47.25-30.5 84.63-18.13 97.01C82.49 422.3 119.1 416.6 167.4 391.8zM88.24 199.1c23.63-28.88 50.13-55.38 79.13-79.13c-57.58-30.42-87.94-27.19-97.26-17.88C57.74 114.5 63.37 151.9 88.24 199.1zM323 256C294.6 218.5 261.4 184.1 224 156.6C186.6 184.1 153.4 218.5 125.1 256C150.1 290 179.1 320.8 224 355C258 329 288.8 300.9 323 256zM255.1 255.1c0 17.63-14.38 32-32 32s-32-14.37-32-32c0-17.63 14.38-32.03 32-32.03S255.1 238.3 255.1 255.1zM377.9 102.1c-9.361-9.361-39.92-12.41-97.26 17.88c29 23.75 55.5 50.25 79.13 79.13C384.6 151.9 390.3 114.5 377.9 102.1zM359.8 312.9c-28.88 35-53.13 57.38-79.13 78.88c47.38 24.88 84.88 30.5 97.26 18.13C390.3 397.5 384.6 360.1 359.8 312.9z"/></svg>