<svg xmlns="http://www.w3.org/2000/svg" viewBox="0 0 384 512"><!--! Font Awesome Pro 6.0.0-beta3 by @fontawesome - https://fontawesome.com License - https://fontawesome.com/license (Commercial License) Copyright 2021 Fonticons, Inc. --><path d="M263.5 363.9c-3.582 0-7.26-.1875-10.94-.3926c-2.496-.1406-4.998-.2969-7.445-.2969c-1.658 0-2.525 .084-2.701 .084c-.0273 0-.0078 .0059 0 0c-1.607 .6133-5.67 3.275-8.361 5.045C224 374.1 210.3 384 192 384c-18.29 0-32.03-9.049-42.07-15.66c-2.727-1.795-6.848-4.508-8.031-4.969c-.084-.0176-.877-.168-3.055-.168c-2.445 0-4.943 .1562-7.439 .2949c-3.676 .2031-7.344 .3906-10.92 .3906c-5.848 0-13.8-.5117-22.23-3.264l-27.51 132.1c-2.727 13.09 10.86 23.55 22.82 17.57L192 461.1l98.44 49.22c11.96 5.98 25.54-4.48 22.82-17.57l-27.51-132.1C277.3 363.4 269.4 363.9 263.5 363.9zM368 176c0-15.13-15.83-27.97-19.56-41.92c-3.855-14.43 3.316-33.45-3.996-46.09c-7.412-12.81-27.54-16.07-37.93-26.47c-10.41-10.4-13.65-30.53-26.47-37.95c-12.64-7.314-31.66-.1465-46.09-4.006C219.1 15.83 207.1 0 192 0C176.9 0 164 15.83 150.1 19.56C135.6 23.42 116.6 16.24 103.1 23.55C91.17 30.97 87.92 51.09 77.52 61.49c-10.4 10.4-30.53 13.65-37.95 26.47C32.26 100.6 39.43 119.6 35.57 134C31.83 148 16 160.9 16 176c0 15.13 15.83 27.97 19.56 41.92C39.42 232.4 32.24 251.4 39.55 264c7.418 12.82 27.54 16.07 37.94 26.47c10.41 10.4 13.65 30.53 26.47 37.95c12.64 7.312 31.66 .1445 46.09 4.004C164 336.2 176.9 352 192 352c15.12 0 27.98-15.83 41.93-19.56c14.43-3.857 33.45 3.316 46.09-3.996c12.82-7.414 16.07-27.54 26.47-37.94c10.41-10.4 30.53-13.65 37.95-26.47c7.316-12.64 .1465-31.66 4.004-46.09C352.2 203.1 368 191.1 368 176zM192 256C147.8 256 112 220.2 112 176C112 131.7 147.8 96 192 96s80 35.73 80 80C272 220.2 236.2 256 192 256z"/></svg>