<svg xmlns="http://www.w3.org/2000/svg" viewBox="0 0 640 512"><!--! Font Awesome Pro 6.0.0-beta3 by @fontawesome - https://fontawesome.com License - https://fontawesome.com/license (Commercial License) Copyright 2021 Fonticons, Inc. --><path d="M208 96C93.13 96 0 189.1 0 304S93.13 512 208 512S416 418.9 416 304S322.9 96 208 96zM80 288C71.16 288 64 280.8 64 272C64 263.2 71.16 256 80 256S96 263.2 96 272C96 280.8 88.84 288 80 288zM112 416C103.2 416 96 408.8 96 400C96 391.2 103.2 384 112 384S128 391.2 128 400C128 408.8 120.8 416 112 416zM144 224C135.2 224 128 216.8 128 208C128 199.2 135.2 192 144 192S160 199.2 160 208C160 216.8 152.8 224 144 224zM240 448C231.2 448 224 440.8 224 432C224 423.2 231.2 416 240 416S256 423.2 256 432C256 440.8 248.8 448 240 448zM208 352C181.5 352 160 330.5 160 304S181.5 256 208 256S256 277.5 256 304S234.5 352 208 352zM304 416C295.2 416 288 408.8 288 400C288 391.2 295.2 384 304 384s16 7.162 16 16C320 408.8 312.8 416 304 416zM304 256C295.2 256 288 248.8 288 240C288 231.2 295.2 224 304 224S320 231.2 320 240C320 248.8 312.8 256 304 256zM432 0c-63.48 0-120.2 28.5-158.4 73.33c17.19 4.9 33.68 11.47 49.07 19.88c2.9-5.742 6.178-11.06 11.27-14.62c13.42-9.377 34.64-5.072 50.77-10.1C400.3 63.63 414.8 48 431.1 48s31.68 15.63 47.25 20.5c16.11 5.039 37.34 .7187 50.75 10.1c13.55 9.473 15.79 30.24 25.66 43.23c9.777 12.89 29.73 21.28 35.01 36.72C595.7 173.5 584.9 191.5 584.9 208c0 16.51 10.8 34.51 5.76 49.44c-5.279 15.47-25.23 23.86-35.01 36.72c-9.871 13.01-12.11 33.78-25.66 43.25c-13.41 9.359-34.67 5.055-50.75 10.1c-13.25 4.135-25.75 15.5-39.76 18.98c-4.631 17.12-10.93 33.54-19.04 48.93C424.3 415.6 428.1 416 432 416c114.9 0 208-93.13 208-208S546.9 0 432 0zM495.1 208c0-35.3-28.69-64-64-64c-13.37 0-25.75 4.126-36.02 11.16c25.91 32.66 43.36 72.19 49.42 115.4C474.3 264.4 495.1 238.7 495.1 208z"/></svg>