<svg xmlns="http://www.w3.org/2000/svg" viewBox="0 0 576 512"><!--! Font Awesome Pro 6.0.0-beta3 by @fontawesome - https://fontawesome.com License - https://fontawesome.com/license (Commercial License) Copyright 2021 Fonticons, Inc. --><path d="M464 0h-224C231.1 0 224 7.125 224 16V128H64V16C64 7.125 56.88 0 48 0h-32C7.125 0 0 7.125 0 16v480C0 504.9 7.125 512 16 512h32C56.88 512 64 504.9 64 496V448h448v48c0 8.875 7.125 16 16 16h32c8.875 0 16-7.125 16-16v-384C576 50.12 525.9 0 464 0zM512 267.3C497 259.9 480.6 256.1 464 256h-224C231.1 256 224 263.1 224 272V384H64V192h448V267.3zM144 352C170.5 352 192 330.5 192 304S170.5 256 144 256S96 277.5 96 304S117.5 352 144 352zM144 96C170.5 96 192 74.5 192 48S170.5 0 144 0S96 21.5 96 48S117.5 96 144 96z"/></svg>