<svg xmlns="http://www.w3.org/2000/svg" viewBox="0 0 640 512"><!--! Font Awesome Pro 6.1.1 by @fontawesome - https://fontawesome.com License - https://fontawesome.com/license (Commercial License) Copyright 2022 Fonticons, Inc. --><path d="M118.5 67.6C156.6 26.05 211.2 0 271.1 0C386.9 0 480 93.12 480 208C480 250.7 467.1 290.5 445 323.5L496.5 363.8C504.9 356.5 515.9 352 528 352C554.5 352 576 373.5 576 400C576 407.9 574.1 415.4 570.7 421.1L630.8 469.1C641.2 477.3 643.1 492.4 634.9 502.8C626.7 513.2 611.6 515.1 601.2 506.9L9.196 42.89C-1.236 34.71-3.065 19.63 5.112 9.196C13.29-1.236 28.37-3.065 38.81 5.112L118.5 67.6zM220 147.2L246.1 167.6C253.6 162.8 262.5 160 271.1 160C298.5 160 319.1 181.5 319.1 208C319.1 213.4 319.1 218.6 317.4 223.5L343.5 243.9C348.9 233.1 352 220.9 352 208C352 163.8 316.2 128 271.1 128C252.2 128 234 135.2 220 147.2V147.2zM63.1 208C63.1 188.7 66.62 170.1 71.53 152.4L372.1 389.9C343.1 406.5 308.7 416 271.1 416C157.1 416 63.1 322.9 63.1 207.1V208zM271.1 448C319 448 362.9 434.5 399.9 411.1L416 423.8V464H456C459.4 464 462.6 463.7 465.8 462.1L508.3 496.5C493.3 506.3 475.3 512 456 512H175.1C149.5 512 127.1 490.5 127.1 464V400C168.1 430.1 217.1 448 271.1 448V448z"/></svg>