<svg xmlns="http://www.w3.org/2000/svg" viewBox="0 0 640 512"><!--! Font Awesome Pro 6.0.0-beta3 by @fontawesome - https://fontawesome.com License - https://fontawesome.com/license (Commercial License) Copyright 2021 Fonticons, Inc. --><path d="M192 64c0-35.3-28.72-64-64-64H64C28.72 0 0 28.7 0 64v96c0 35.3 28.72 64 64 64h64c35.28 0 64-28.7 64-64V64zM64 160V64h64l.0313 96H64zM128 448h-16v-128c0-9.703-4.406-18.89-11.97-24.97C92.45 288.1 82.51 286.7 73.07 288.8l-48 10.67c-17.25 3.828-28.12 20.92-24.31 38.17c3.875 17.28 21 28.16 38.19 24.3l9.062-2.016V448h-16c-17.69 0-32 14.33-32 32s14.31 32 32 32h96c17.69 0 32-14.33 32-32S145.7 448 128 448zM607.1 320L608 272c0-44.11-35.88-80-80-80s-80 35.89-80 80v47.1c-17.68 0-32 14.33-32 32.01v127.1C416 497.7 430.3 512 448 512h159.1C625.7 512 640 497.7 640 479.1v-127.1C640 334.3 625.7 320 607.1 320zM560 320h-64V272c0-17.64 14.34-31.1 32-31.1s32 14.36 32 31.1V320zM352 160h-16V32c0-9.703-4.406-18.89-11.97-24.97C316.4 .9687 306.5-1.312 297.1 .7656l-48 10.67C231.8 15.27 220.9 32.36 224.8 49.61C228.6 66.89 245.8 77.77 262.9 73.91L272 71.89V160H256C238.3 160 224 174.3 224 192s14.31 32 32 32h96c17.69 0 32-14.33 32-32S369.7 160 352 160zM320 288H256c-35.28 0-64 28.7-64 64v96c0 35.3 28.72 64 64 64h64c35.28 0 64-28.7 64-64v-96C384 316.7 355.3 288 320 288zM256 448v-96h64l.0313 96H256z"/></svg>