<svg xmlns="http://www.w3.org/2000/svg" viewBox="0 0 640 512"><!--! Font Awesome Pro 6.0.0-beta3 by @fontawesome - https://fontawesome.com License - https://fontawesome.com/license (Commercial License) Copyright 2021 Fonticons, Inc. --><path d="M256 448h-16v-128c0-9.703-4.406-18.89-11.97-24.97C220.4 288.1 210.5 286.7 201.1 288.8l-48 10.67c-17.25 3.828-28.12 20.92-24.31 38.17c3.875 17.28 21 28.16 38.19 24.3l9.062-2.016V448h-16c-17.69 0-32 14.33-32 32s14.31 32 32 32h96c17.69 0 32-14.33 32-32S273.7 448 256 448zM384 160c-17.69 0-32 14.33-32 32s14.31 32 32 32h96c17.69 0 32-14.33 32-32s-14.31-32-32-32h-16V32c0-9.703-4.406-18.89-11.97-24.97c-7.594-6.062-17.56-8.344-26.97-6.266l-48 10.67c-17.25 3.828-28.12 20.92-24.31 38.17c3.875 17.28 21.03 28.16 38.19 24.3L400 71.89V160H384zM448 447.8L384 448v-50.34l-63.58-49.83C320.3 349.2 320 350.6 320 352v96c0 35.3 28.72 64 64 64h64c20.46 0 38.5-9.824 50.22-24.81L448 447.8zM630.8 469.1L512 375.1V352c0-35.3-28.72-64-64-64l-48.22 .0247l-101.1-79.94C311.3 196.3 320 179.3 320 160V64c0-35.3-28.72-64-64-64H192C156.7 0 128 28.7 128 64v11.01L38.82 5.111C34.41 1.673 29.19 .0004 24.04 .0004C10.19 .0004 0 11.3 0 24c0 7.121 3.154 14.16 9.192 18.89l591.1 463.1c4.416 3.451 9.639 5.117 14.81 5.117C629.8 512 640 500.7 640 487.1C640 480.9 636.8 473.8 630.8 469.1zM236.5 160L192 125.2V64h64l.0313 96L236.5 160z"/></svg>