<svg xmlns="http://www.w3.org/2000/svg" viewBox="0 0 448 512"><!--! Font Awesome Pro 6.0.0-beta3 by @fontawesome - https://fontawesome.com License - https://fontawesome.com/license (Commercial License) Copyright 2021 Fonticons, Inc. --><path d="M448 432v32c0 8.75-7.25 16-16 16H128c-70.75 0-128-57.25-128-128V128c0-52.88 43.13-96 96-96h256c52.88 0 96 43.13 96 96c0 0-.125 181.5-.375 184.4C443.4 354 405.1 384 363.3 384H128c-17.75 0-32-14.25-32-32s14.25-32 32-32h240c8.75 0 16-7.25 16-16S376.8 288 368 288H128c-35.25 0-64 28.75-64 64s28.75 64 64 64h304C440.8 416 448 423.3 448 432z"/></svg>