<svg xmlns="http://www.w3.org/2000/svg" viewBox="0 0 640 512"><!--! Font Awesome Pro 6.0.0-beta3 by @fontawesome - https://fontawesome.com License - https://fontawesome.com/license (Commercial License) Copyright 2021 Fonticons, Inc. --><path d="M616 273.2c-15.04-28.48-35.84-58.46-60.48-81.15C549.8 186.9 541.1 186.9 535.4 192c-9.598 8.768-18.56 19.62-26.24 29.5c-17.28-20.77-35.84-39.97-55.68-57.73C448 158.8 439.4 158.8 433.9 163.7c-33.28 29.7-61.44 63.42-81.6 95.78C332.8 291.5 320 323.7 320 350.1C320 437.9 390.4 512 480 512c88.64 0 160-74.11 160-161.9C640 329.9 630.4 301.2 616 273.2zM529.9 432.1C514.9 443 498.9 448 480.1 448C435.8 448 400 419 400 369.1c0-24 15.04-44.99 45.12-81.98c3.84 4.992 61.76 79.01 61.76 79.01l36.16-42.02c2.883 4 4.801 8 7.039 12C568 369.1 560 412 529.9 432.1zM325.1 242.7c21.76-35.17 51.84-71.23 87.36-102.8C422.4 130.9 435.5 127 448 128.2V96c0-53.02-42.88-96-96-96H96C42.88 0 0 42.98 0 96v224c0 70.69 57.28 128 128 128h186.2c-11.2-19.52-19.2-41.15-23.36-64H128c-35.2 0-64-28.64-64-64s28.8-64 64-64h189.4C320 251.5 322.6 247.1 325.1 242.7zM96 320c0 17.66 14.4 32 32 32h160v-1.92C288 329.9 293.4 308.8 301.8 288H128C110.4 288 96 302.3 96 320z"/></svg>