<svg xmlns="http://www.w3.org/2000/svg" viewBox="0 0 512 512"><!--! Font Awesome Pro 6.0.0-beta3 by @fontawesome - https://fontawesome.com License - https://fontawesome.com/license (Commercial License) Copyright 2021 Fonticons, Inc. --><path d="M96 226.1V160H16L0 256h67.02C71.77 242.4 82.38 231.7 96 226.1zM157 288C150.4 307.1 132.2 320 112 320S73.62 307.1 67 288H16L0 384h512l-16-96H157zM16 416L0 512h512l-16-96H16zM512 48l-.0026-32c0-8.875-7.125-16-16-16H16c-8.875 0-15.1 7.125-15.1 16L0 48c0 6.75 4.375 12.88 10.88 15L0 128h96V64h32v64h384l-10.88-65C507.6 60.88 512 54.75 512 48zM128 160v66.98C141.6 231.7 152.2 242.4 157 256H512l-16-96H128z"/></svg>