<svg xmlns="http://www.w3.org/2000/svg" viewBox="0 0 512 512"><!--! Font Awesome Pro 6.0.0-beta3 by @fontawesome - https://fontawesome.com License - https://fontawesome.com/license (Commercial License) Copyright 2021 Fonticons, Inc. --><path d="M16 159.8L0 223.8l96 .0234V159.8H16zM512 47.99l-.0026-31.99C511.1 7.124 504.9 0 495.1 0H16c-8.875 0-15.1 7.124-15.1 15.99L0 47.99c0 8.871 7.113 16 15.99 16L0 127.8h96v-63.85h32v63.85h384l-15.99-63.85C504.9 63.99 512 56.86 512 47.99zM496 159.8L128 159.9L128 223.8l384-.0234L496 159.8zM96 223.8v194.9c-22 7.746-35.25 30.25-31.25 53.24C68.62 495.1 88.62 512 112 512s43.38-16.88 47.25-39.99c4-22.99-9.249-45.48-31.25-53.23L128 223.8H96z"/></svg>