<svg xmlns="http://www.w3.org/2000/svg" viewBox="0 0 448 512"><!--! Font Awesome Pro 6.1.1 by @fontawesome - https://fontawesome.com License - https://fontawesome.com/license (Commercial License) Copyright 2022 Fonticons, Inc. --><path d="M96 32H352V112H96V32zM0 112V96C0 60.65 28.65 32 64 32V112H0zM208 144V240H0V144H208zM0 368V272H64V368H0zM208 400V480H64C28.65 480 0 451.3 0 416V400H208zM448 400V416C448 451.3 419.3 480 384 480H240V400H448zM384 368V272H448V368H384zM96 368V272H352V368H96zM448 144V240H240V144H448zM384 112V32C419.3 32 448 60.65 448 96V112H384z"/></svg>