<svg xmlns="http://www.w3.org/2000/svg" viewBox="0 0 640 512"><!--! Font Awesome Pro 6.0.0-beta3 by @fontawesome - https://fontawesome.com License - https://fontawesome.com/license (Commercial License) Copyright 2021 Fonticons, Inc. --><path d="M630.8 469.1l-182.4-142.1L501.1 280.1c10.03-8.781 13.59-22.86 8.904-35.33C505.3 232.3 493.3 224 479.1 224l-111.5 .0078l76.88-179.4c5.906-13.73 1.5-29.72-10.59-38.5c-12.06-8.781-28.62-8.091-39.87 1.799L228.4 153.7L38.81 5.109C34.41 1.672 29.19 0 24.03 0C16.91 0 9.846 3.156 5.127 9.188C-3.061 19.62-1.248 34.72 9.189 42.89l591.1 463.1c10.5 8.203 25.56 6.328 33.69-4.078C643.1 492.4 641.2 477.3 630.8 469.1zM194.6 467.4c-5.906 13.73-1.5 29.72 10.59 38.5C210.8 509.1 217.4 512 224 512c7.531 0 15.06-2.656 21.06-7.922l129.8-113.6L264.6 304.1L194.6 467.4zM154.8 218L138.9 231.9C128.9 240.7 125.4 254.8 130 267.3C134.7 279.7 146.7 288 160 288l84.1 .0063L154.8 218z"/></svg>