<svg xmlns="http://www.w3.org/2000/svg" viewBox="0 0 640 512"><!--! Font Awesome Pro 6.1.1 by @fontawesome - https://fontawesome.com License - https://fontawesome.com/license (Commercial License) Copyright 2022 Fonticons, Inc. --><path d="M544 32.01c0-19.62-17.5-34.63-36.89-31.62L336 26.86v384l208-46.23V32.01zM304 26.86L132.9 .3828C113.5-2.617 96 12.38 96 32.01v332.6l208 46.23V26.86zM600.2 32.97L576 39.03v325.6c0 14.1-10.42 27.98-25.06 31.24L320 447.2L89.06 395.9C74.42 392.6 64 379.7 64 364.7V39.03L39.76 32.97C19.56 27.92 0 43.19 0 64.01v351.1c0 15 10.42 27.98 25.06 31.24l288 63.1c4.572 1.016 9.311 1.016 13.88 0l288-63.1C629.6 443.1 640 431 640 416V64.01C640 43.19 620.4 27.92 600.2 32.97z"/></svg>