<svg xmlns="http://www.w3.org/2000/svg" viewBox="0 0 576 512"><!--! Font Awesome Pro 6.1.1 by @fontawesome - https://fontawesome.com License - https://fontawesome.com/license (Commercial License) Copyright 2022 Fonticons, Inc. --><path d="M224 480c0 17.62 14.38 32 32 32h64C337.6 512 351.1 497.6 352 480V416H224L224 480zM160 0H96C78.38 0 64 14.38 64 32v64h128L192 32C192 14.38 177.6 0 160 0zM79.1 352h31.1c8.836 0 16-7.164 16-16L127.1 288h47.1c8.836 0 16-7.165 16-16v-32c0-8.836-7.165-15.1-16-15.1H127.1l.0006-47.1c0-8.836-7.165-15.1-16-15.1H79.1c-8.836 0-15.1 7.163-15.1 15.1L63.1 224H16c-8.836 0-16 7.163-16 15.1v32c0 8.836 7.164 16 16 16h47.1L63.1 336C63.1 344.8 71.16 352 79.1 352zM64 480c0 17.62 14.38 32 32 32h64c17.62 0 32-14.38 32-32l-.0008-64H64V480zM459 23.64c-4.568-16.98-22.15-27.1-39.16-22.55l-61.78 16.52c-3.072 .8203-5.619 2.484-8.197 4.07C345.6 9.156 333.1 0 320 0h-64C238.4 0 224 14.38 224 32L224 96h122l6.004 22.37l123.5-33.05L459 23.64zM574.9 455.3l-16.48-61.67l-123.6 33.05l16.55 61.66c4.559 16.98 22.15 27.12 39.17 22.57l61.85-16.52C569.4 489.8 579.5 472.3 574.9 455.3zM224 384H352V128H224V384zM483.9 116.2l-123.6 33.04l66.21 246.7l123.7-33.04L483.9 116.2z"/></svg>