<svg xmlns="http://www.w3.org/2000/svg" viewBox="0 0 576 512"><!--! Font Awesome Pro 6.0.0-beta3 by @fontawesome - https://fontawesome.com License - https://fontawesome.com/license (Commercial License) Copyright 2021 Fonticons, Inc. --><path d="M576 240v-192C576 21.49 554.5 0 528 0H288C234.1 0 192 42.98 192 96v224c0 53.02 42.98 96 96 96h256c17.67 0 32-14.33 32-32c0-11.72-6.607-21.52-16-27.1V275.5C569.8 266.8 576 254.2 576 240zM512 352h-224c-17.67 0-32-14.33-32-32c0-17.67 14.33-32 32-32h224V352zM352 448H97.38c-15.48 0-29.78-10.35-32.74-25.55C60.63 401.9 76.22 384 96 384h81.8C166.8 365.1 160 343.4 160 320V96H96C42.98 96 0 138.1 0 192v224c0 53.02 42.98 96 96 96h256C369.7 512 384 497.7 384 480S369.7 448 352 448z"/></svg>