<svg xmlns="http://www.w3.org/2000/svg" viewBox="0 0 512 512"><!--! Font Awesome Pro 6.1.1 by @fontawesome - https://fontawesome.com License - https://fontawesome.com/license (Commercial License) Copyright 2022 Fonticons, Inc. --><path d="M160 384l127.1 .0001V128L160 128V384zM96 .0028H31.1C14.37 .0028 0 14.38 0 32v63.1l128-.0008l.0008-63.1C128 14.38 113.6 .0028 96 .0028zM160 479.1c0 17.62 14.37 31.1 32 31.1h63.1c17.62 0 31.98-14.36 31.1-31.98l0-64.02h-127.1L160 479.1zM0 479.1c0 17.62 14.37 31.1 31.1 31.1h64c17.62 0 31.1-14.37 31.1-31.1L128 416H0V479.1zM0 384l128-.0001V128L0 128V384zM419.9 116.2l-123.6 33.04l66.21 246.7l123.7-33.04L419.9 116.2zM510.9 455.3l-16.48-61.67l-123.6 33.05l16.55 61.66c4.559 16.98 22.15 27.12 39.17 22.57l61.85-16.52C505.4 489.8 515.5 472.3 510.9 455.3zM395 23.64c-4.568-16.98-22.15-27.1-39.16-22.55l-61.78 16.52c-3.072 .8203-5.619 2.484-8.197 4.07c-4.348-12.52-15.93-21.68-29.9-21.68h-63.1c-17.63 0-32 14.37-32 31.1L160 96l122 .0014l6.004 22.37l123.5-33.05L395 23.64z"/></svg>