<svg xmlns="http://www.w3.org/2000/svg" viewBox="0 0 640 512"><!--! Font Awesome Pro 6.0.0-beta3 by @fontawesome - https://fontawesome.com License - https://fontawesome.com/license (Commercial License) Copyright 2021 Fonticons, Inc. --><path d="M464 256C419.9 256 384 291.9 384 336s35.88 80 80 80s80-35.88 80-80S508.1 256 464 256zM176 256C131.9 256 96 291.9 96 336S131.9 416 176 416S256 380.1 256 336S220.1 256 176 256zM608 162.1V56C608 25.12 582.9 0 552 0H88C57.12 0 32 25.12 32 56v106.1C12.88 169.6 0 187.8 0 208v256C0 490.5 21.5 512 48 512h544c26.5 0 48-21.5 48-48v-256C640 187.8 627.1 169.6 608 162.1zM176 448C114.1 448 64 397.9 64 336S114.1 224 176 224S288 274.1 288 336S237.9 448 176 448zM336 128h-32C295.1 128 288 135.1 288 144V160H256V144C256 135.1 248.9 128 240 128h-32C199.1 128 192 135.1 192 144V160H80V56c0-4.375 3.625-8 8-8h464c4.375 0 8 3.625 8 8V160H448V144C448 135.1 440.9 128 432 128h-32C391.1 128 384 135.1 384 144V160h-32V144C352 135.1 344.9 128 336 128zM464 448c-61.88 0-112-50.13-112-112S402.1 224 464 224S576 274.1 576 336S525.9 448 464 448z"/></svg>