<svg xmlns="http://www.w3.org/2000/svg" viewBox="0 0 512 512"><!--! Font Awesome Pro 6.0.0-beta3 by @fontawesome - https://fontawesome.com License - https://fontawesome.com/license (Commercial License) Copyright 2021 Fonticons, Inc. --><path d="M145.7 286.9l45.25-45.14L100.5 151.3C128.2 136.1 159.5 128 191.1 128c31.1 0 62.88 7.749 90.38 22.5l46.63-46.62c-40.62-25.87-87.76-39.87-137-39.87c-49.75 0-97.26 14.25-138.1 40.62l-3.875-3.873C46.83 97.63 42.7 96.06 38.57 96.06c-4.108 0-8.209 1.558-11.33 4.675l-22.54 22.51C1.586 126.4 .023 130.5 .023 134.6c0 4.113 1.565 8.226 4.692 11.35L145.7 286.9zM408.1 182.4l-46.63 46.62c14.75 27.49 22.5 58.24 22.5 90.36c0 32.49-8.126 63.74-23.25 91.48l-90.5-90.61l-45.25 45.24l141.8 141.8c3.125 3.124 7.22 4.687 11.31 4.687s8.188-1.563 11.31-4.687l22.62-22.62c3.125-3.124 4.688-7.249 4.688-11.37c0-4.124-1.563-8.249-4.688-11.37l-4.625-4.498c26.37-40.87 40.63-88.36 40.63-138.1C447.1 269.1 433.1 222.1 408.1 182.4zM512 15.64c0-8.634-7.093-15.64-15.72-15.64c-1.004 0-2.015 .0896-3.053 .29l-128.6 25.75c-7.885 1.609-12.61 8.447-12.61 15.47c0 3.89 1.449 7.831 4.612 10.99l34.5 34.5L140.5 337.6l-49.75-16.7c-2.104-.6776-4.349-1.006-6.497-1.006c-5.38 0-10.57 2.076-14.5 6.006l-63.75 63.82C1.901 393.8 0 399 0 404.1c0 8.377 5.1 16.6 14.1 19.62l55.62 18.5L88.22 497.9c3.027 9.001 11.24 14.12 19.65 14.12c5.134 0 10.35-1.923 14.47-5.997l63.62-63.74c3.93-3.93 6.011-9.191 6.011-14.57c0-2.148-.3325-4.323-1.01-6.427L174.4 371.4l250.6-250.5l34.5 34.47c3.162 3.161 7.11 4.639 11.01 4.639c7.037 0 13.88-4.755 15.49-12.64l25.72-128.6C511.9 17.75 512 16.65 512 15.64z"/></svg>