<svg xmlns="http://www.w3.org/2000/svg" viewBox="0 0 512 512"><!--! Font Awesome Pro 6.0.0-beta3 by @fontawesome - https://fontawesome.com License - https://fontawesome.com/license (Commercial License) Copyright 2021 Fonticons, Inc. --><path d="M14.71 127.1c1.84 0-26.02 4.596 477.2-80.24C504.1 45.63 512 35.29 512 24.08c0-14.41-11.93-24.01-23.98-24.01c-3.727 0 27.4-6.23-476.3 98.77C4.854 100.3 0 106.4 0 113.2C0 122.1 7.361 127.1 14.71 127.1zM479.1 223.1H32c-17.62 0-32 14.39-32 32.19c0 95.69 51.5 179 127.1 223.8c0 17.67 14.33 32 32 32h191.1c17.67 0 32-14.33 32-32c76.5-44.81 127.1-128.1 127.1-223.8C511.1 238.4 497.6 223.1 479.1 223.1zM487.6 128.8L15.74 143.5C6.969 143.8 0 150.1 0 159.8C0 168.7 7.275 176 16.25 176h472.1C501.4 176 512 165.4 512 152.4C512 139 500.1 128.3 487.6 128.8z"/></svg>