<svg xmlns="http://www.w3.org/2000/svg" viewBox="0 0 448 512"><!--! Font Awesome Pro 6.1.1 by @fontawesome - https://fontawesome.com License - https://fontawesome.com/license (Commercial License) Copyright 2022 Fonticons, Inc. --><path d="M359.8 88.24C395.8 124.2 416 173.1 416 224H32C32 173.1 52.23 124.2 88.24 88.24C124.2 52.23 173.1 32 224 32C274.9 32 323.8 52.23 359.8 88.24zM394.5 375.5C365.2 401.6 327.3 416 288 416H256L331.3 484.7C333.6 486.9 335.1 489.8 335.7 492.9C336.3 495.1 336 499.2 334.8 502.1C333.6 505.1 331.5 507.6 328.9 509.3C326.3 511.1 323.2 512 320 512H128C124.8 512 121.7 511.1 119.1 509.3C116.5 507.5 114.4 505 113.2 502.1C112 499.2 111.7 495.1 112.3 492.9C112.9 489.8 114.5 486.9 116.7 484.7L192 416H160C120.7 416 82.8 401.6 53.45 375.5C24.11 349.4 5.39 313.4 .865 274.4C.5559 272.1 .738 269.8 1.399 267.6C2.06 265.4 3.185 263.3 4.699 261.6C6.213 259.9 8.08 258.5 10.18 257.5C12.28 256.5 14.56 256 16.87 256H431C433.4 256 435.6 256.5 437.7 257.5C439.8 258.5 441.7 259.9 443.2 261.6C444.7 263.3 445.8 265.4 446.5 267.6C447.2 269.8 447.4 272.1 447 274.4C442.5 313.4 423.8 349.4 394.5 375.5H394.5z"/></svg>