<svg xmlns="http://www.w3.org/2000/svg" viewBox="0 0 448 512"><!--! Font Awesome Pro 6.0.0-beta3 by @fontawesome - https://fontawesome.com License - https://fontawesome.com/license (Commercial License) Copyright 2021 Fonticons, Inc. --><path d="M50.73 58.53C58.86 42.27 75.48 32 93.67 32H192L160 160H0L50.73 58.53zM288 160L256 32H354.3C372.5 32 389.1 42.27 397.3 58.53L448 160H288zM160 256C160 273.7 174.3 288 192 288H256C273.7 288 288 273.7 288 256V192H448V416C448 451.3 419.3 480 384 480H64C28.65 480 0 451.3 0 416V192H160V256z"/></svg>