<svg xmlns="http://www.w3.org/2000/svg" viewBox="0 0 512 512"><!--! Font Awesome Pro 6.0.0-beta3 by @fontawesome - https://fontawesome.com License - https://fontawesome.com/license (Commercial License) Copyright 2021 Fonticons, Inc. --><path d="M437.7 162.7C444.2 152.7 448 140.8 448 128c0-35.35-28.65-64-64-64c-12.8 0-24.67 3.85-34.67 10.33C339.5 31.79 301.5 0 256 0S172.5 31.79 162.7 74.33C152.7 67.85 140.8 64 128 64C92.65 64 64 92.65 64 128c0 12.8 3.85 24.67 10.33 34.67C31.79 172.5 0 210.5 0 256c0 53.02 42.98 96 96 96h320c53.02 0 96-42.98 96-96C512 210.5 480.2 172.5 437.7 162.7zM256 431.2C248.2 413.5 239.8 397.8 231.6 384H134.7c10.9 13.4 40.52 53.05 58.59 106.8C197.6 503.6 209.8 512 223.3 512h65.34c13.49 0 25.76-8.422 30.06-21.21C336.8 437 366.4 397.4 377.3 384h-96.9C272.2 397.8 263.8 413.5 256 431.2z"/></svg>