<svg xmlns="http://www.w3.org/2000/svg" viewBox="0 0 640 512"><!--! Font Awesome Pro 6.1.1 by @fontawesome - https://fontawesome.com License - https://fontawesome.com/license (Commercial License) Copyright 2022 Fonticons, Inc. --><path d="M576 96c0-17.67-14.33-32-32-32h-32v224h64V96zM480 64H96C78.33 64 64 78.33 64 96v192h416V64zM608 320H32c-17.67 0-32 14.33-32 32c0 17.67 14.33 32 32 32v32c0 17.67 14.33 32 32 32h512c17.67 0 32-14.33 32-32v-32c17.67 0 32-14.33 32-32C640 334.3 625.7 320 608 320z"/></svg>