<svg xmlns="http://www.w3.org/2000/svg" viewBox="0 0 448 512"><!--! Font Awesome Pro 6.1.1 by @fontawesome - https://fontawesome.com License - https://fontawesome.com/license (Commercial License) Copyright 2022 Fonticons, Inc. --><path d="M0 464C0 490.4 21.6 512 48 512h352c26.4 0 48-21.6 48-48v-192H0V464zM128 368C128 359.1 135.1 352 144 352h160c8.875 0 16 7.125 16 16v40c0 4.375-3.625 8-8 8h-16C291.6 416 288 412.4 288 408V384H160v24C160 412.4 156.4 416 152 416h-16C131.6 416 128 412.4 128 408V368zM400 0h-352C21.6 0 0 21.6 0 48v192h448v-192C448 21.6 426.4 0 400 0zM320 152C320 156.4 316.4 160 312 160h-16C291.6 160 288 156.4 288 152V128H160v24C160 156.4 156.4 160 152 160h-16C131.6 160 128 156.4 128 152V112C128 103.1 135.1 96 144 96h160C312.9 96 320 103.1 320 112V152z"/></svg>