<svg xmlns="http://www.w3.org/2000/svg" viewBox="0 0 448 512"><!--! Font Awesome Pro 6.0.0-beta3 by @fontawesome - https://fontawesome.com License - https://fontawesome.com/license (Commercial License) Copyright 2021 Fonticons, Inc. --><path d="M224 112c-53.04 0-96 42.96-96 96c0 53.04 42.96 96 96 96s96-42.96 96-96C320 154.1 277 112 224 112zM384 0h-320c-35.38 0-64 28.62-64 64v288c0 35.38 28.62 64 64 64h72.75L76.5 450.9C69.63 455.1 64 465.3 64 473.4v12C64 500 76 512 90.75 512h266.6C372.1 512 384 500 384 485.4V473.5c0-8.25-5.625-18.38-12.62-22.62L311.3 416h72.75c35.38 0 64-28.62 64-64V64C448 28.62 419.4 0 384 0zM224 336c-70.78 0-127.1-57.33-127.1-128c0-70.67 57.33-128 127.1-128s128 57.33 128 128C352 278.7 294.7 336 224 336z"/></svg>