<svg xmlns="http://www.w3.org/2000/svg" viewBox="0 0 576 512"><!--! Font Awesome Pro 6.0.0-beta3 by @fontawesome - https://fontawesome.com License - https://fontawesome.com/license (Commercial License) Copyright 2021 Fonticons, Inc. --><path d="M534.5 104C545.3 104 552.1 114.6 547.1 123.6C543.5 129.1 539.3 134.1 534.5 138.5C530.3 142.4 525.7 145.9 520.7 148.9C518.8 149.1 516.9 151 514.9 152C504.4 157.1 492.5 160 480 160C450.9 160 425.5 144.5 411.5 121.3C408.2 115.8 402.5 112 396.2 112H179.8C173.5 112 167.8 115.8 164.5 121.3C150.5 144.5 125.1 160 96 160C83.48 160 71.64 157.1 61.09 152C59.1 151 57.16 149.1 55.27 148.9C50.29 145.9 45.66 142.4 41.46 138.5C36.71 134.1 32.5 129.1 28.94 123.6C23.04 114.6 30.65 104 41.46 104H72L72.51 103.1C73.24 103.1 73.95 103.9 74.66 103.9C86.66 102.5 96 92.36 96 80C96 67.64 86.66 57.47 74.66 56.15C73.95 56.07 73.24 56.02 72.51 56.01L72 56H41.46C30.65 56 23.04 45.4 28.94 36.35C32.5 30.9 36.71 25.9 41.46 21.47C45.66 17.55 50.29 14.08 55.27 11.13C57.16 10.01 59.1 8.965 61.09 8C71.64 2.875 83.48 0 96 0C125.1 0 150.5 15.51 164.5 38.71C167.8 44.15 173.5 48 179.8 48H396.2C402.5 48 408.2 44.15 411.5 38.71C425.5 15.51 450.9 0 480 0C492.5 0 504.4 2.875 514.9 8C516.9 8.965 518.8 10.01 520.7 11.13C525.7 14.08 530.3 17.55 534.5 21.47C539.3 25.9 543.5 30.9 547.1 36.35C552.1 45.4 545.3 56 534.5 56H504L503.5 56.01C502.8 56.02 502 56.07 501.3 56.15C489.3 57.47 480 67.64 480 80C480 92.36 489.3 102.5 501.3 103.9C502 103.9 502.8 103.1 503.5 103.1L504 104H534.5zM217.8 160H358.2C391.1 160 422.1 181.3 433.5 213.1L461.8 292.4C481.9 300.9 496 320.8 496 344V480C496 497.7 481.7 512 464 512H448C430.3 512 416 497.7 416 480V448H160V480C160 497.7 145.7 512 128 512H112C94.33 512 80 497.7 80 480V344C80 320.8 94.08 300.9 114.2 292.4L142.5 213.1C153.9 181.3 184 160 217.8 160V160zM217.8 224C211.1 224 205 228.3 202.8 234.6L183.7 288H392.3L373.2 234.6C370.1 228.3 364.9 224 358.2 224H217.8zM160 392C173.3 392 184 381.3 184 368C184 354.7 173.3 344 160 344C146.7 344 136 354.7 136 368C136 381.3 146.7 392 160 392zM416 344C402.7 344 392 354.7 392 368C392 381.3 402.7 392 416 392C429.3 392 440 381.3 440 368C440 354.7 429.3 344 416 344z"/></svg>