<svg xmlns="http://www.w3.org/2000/svg" viewBox="0 0 640 512"><!--! Font Awesome Pro 6.1.1 by @fontawesome - https://fontawesome.com License - https://fontawesome.com/license (Commercial License) Copyright 2022 Fonticons, Inc. --><path d="M220.7 7.468C247.3-7.906 281.4 1.218 296.8 27.85L463.8 317.1C479.1 343.8 470 377.8 443.4 393.2L250.5 504.5C223.9 519.9 189.9 510.8 174.5 484.2L7.468 194.9C-7.906 168.2 1.218 134.2 27.85 118.8L220.7 7.468zM491.5 301.1L354.7 64.25C356.5 64.08 358.2 63.1 360 63.1H584C614.9 63.1 640 89.07 640 119.1V456C640 486.9 614.9 512 584 512H360C346.4 512 333.8 507.1 324.1 498.1L459.4 420.9C501.3 396.7 515.7 343.1 491.5 301.1L491.5 301.1z"/></svg>