<svg xmlns="http://www.w3.org/2000/svg" viewBox="0 0 384 512"><!--! Font Awesome Pro 6.0.0-beta3 by @fontawesome - https://fontawesome.com License - https://fontawesome.com/license (Commercial License) Copyright 2021 Fonticons, Inc. --><path d="M320 0C355.3 0 384 28.65 384 64V448C384 483.3 355.3 512 320 512H64C28.65 512 0 483.3 0 448V64C0 28.65 28.65 0 64 0H320zM88.4 224.4C66.53 246.3 66.53 281.7 88.4 303.6C110.3 325.5 145.7 325.5 167.6 303.6L175 296.2C175.3 295.8 175.7 295.5 175.1 295.2V335.1H159.1C151.2 335.1 143.1 343.2 143.1 351.1C143.1 360.8 151.2 367.1 159.1 367.1H223.1C232.8 367.1 239.1 360.8 239.1 351.1C239.1 343.2 232.8 335.1 223.1 335.1H207.1V295.2C208.3 295.5 208.7 295.8 208.1 296.2L216.4 303.6C238.3 325.5 273.7 325.5 295.6 303.6C317.5 281.7 317.5 246.3 295.6 224.4L208.1 137.8C199.6 128.4 184.4 128.4 175 137.8L88.4 224.4z"/></svg>