<svg xmlns="http://www.w3.org/2000/svg" viewBox="0 0 576 512"><!--! Font Awesome Pro 6.0.0-beta3 by @fontawesome - https://fontawesome.com License - https://fontawesome.com/license (Commercial License) Copyright 2021 Fonticons, Inc. --><path d="M416 384l32 96H128l32-96H416zM576 96v336c0 26.51-21.49 48-48 48h-46.27l-35.37-106.1C442 360.8 429.8 352 416 352H159.1c-13.77 0-26 8.813-30.36 21.88L94.27 480H48C21.49 480 0 458.5 0 432V96c0-35.35 28.65-64 64-64h448C547.3 32 576 60.65 576 96zM176 224c0-17.62-14.38-32-32-32s-32 14.38-32 32s14.38 32 32 32S176 241.6 176 224zM336 224c0-11.28 2.305-21.95 5.879-32H234.1C237.7 202.1 240 212.7 240 224S237.7 245.9 234.1 256h107.8C338.3 245.9 336 235.3 336 224zM464 224c0-17.62-14.38-32-32-32s-32 14.38-32 32s14.38 32 32 32S464 241.6 464 224z"/></svg>