<svg xmlns="http://www.w3.org/2000/svg" viewBox="0 0 512 512"><!--! Font Awesome Pro 6.1.1 by @fontawesome - https://fontawesome.com License - https://fontawesome.com/license (Commercial License) Copyright 2022 Fonticons, Inc. --><path d="M368 336c-26.5 0-48-21.5-48-47.1L0 288v159.1C0 465.6 14.38 480 32 480h448c17.62 0 32-14.38 32-31.1V288l-96-.0049C416 314.5 394.5 336 368 336zM176 432c-26.5 0-48-21.5-48-47.1s21.5-47.1 48-47.1S224 357.5 224 384S202.5 432 176 432zM299.9 32.01c-7.75-.25-15.25 2.25-21.12 6.999L217 87.01c12.62 20.87 7.625 47.75-11.5 62.75C186.2 164.8 158.9 162.9 141.9 145.5L0 255.1l512-.0124C512 136.1 417.1 38.26 299.9 32.01z"/></svg>