<svg xmlns="http://www.w3.org/2000/svg" viewBox="0 0 256 512"><!--! Font Awesome Pro 6.0.0-beta3 by @fontawesome - https://fontawesome.com License - https://fontawesome.com/license (Commercial License) Copyright 2021 Fonticons, Inc. --><path d="M64 288.1h14.88C76.88 320.5 71.88 352.6 64 384.1h128c-7.875-31.5-12.88-63.58-14.88-95.96H192c8.875 0 16-7.118 16-15.99V256.1c0-8.875-7.125-16.03-16-16.03h-16.48c20.87-15.35 32.48-39.51 32.48-64.43c0-59.94-53.85-80.02-80.01-80.02c-26.22 0-80.01 20.6-80.01 80.02c0 24.92 11.61 49.08 32.48 64.43H64c-8.875 0-16 7.159-16 16.03v15.99C48 280.1 55.12 288.1 64 288.1zM247.1 459.6L224 448V432c0-8.875-7.125-16-16-16h-160C39.12 416 32 423.1 32 432v16.03l-23.12 11.62C3.375 462.3 0 467.9 0 473.9v22.13C0 504.9 7.125 512 16 512h224c8.875 0 16-7.111 16-15.99v-22.13C256 467.9 252.6 462.3 247.1 459.6z"/></svg>