<svg xmlns="http://www.w3.org/2000/svg" viewBox="0 0 448 512"><!--! Font Awesome Pro 6.0.0-beta3 by @fontawesome - https://fontawesome.com License - https://fontawesome.com/license (Commercial License) Copyright 2021 Fonticons, Inc. --><path d="M77.25 256l169.4-169.4c12.5-12.5 12.5-32.75 0-45.25s-32.75-12.5-45.25 0l-192 192c-12.5 12.5-12.5 32.75 0 45.25l192 192C207.6 476.9 215.8 480 224 480s16.38-3.125 22.62-9.375c12.5-12.5 12.5-32.75 0-45.25L77.25 256zM269.3 256l169.4-169.4c12.5-12.5 12.5-32.75 0-45.25s-32.75-12.5-45.25 0l-192 192c-12.5 12.5-12.5 32.75 0 45.25l192 192C399.6 476.9 407.8 480 416 480s16.38-3.125 22.62-9.375c12.5-12.5 12.5-32.75 0-45.25L269.3 256z"/></svg>