<svg xmlns="http://www.w3.org/2000/svg" viewBox="0 0 512 512"><!--! Font Awesome Pro 6.0.0-beta3 by @fontawesome - https://fontawesome.com License - https://fontawesome.com/license (Commercial License) Copyright 2021 Fonticons, Inc. --><path d="M256 0C114.6 0 0 114.6 0 256s114.6 256 256 256s256-114.6 256-256S397.4 0 256 0zM240 352c-11.81-6.959-50.92-25.71-101.4-3.734C133.6 350.4 128 346.9 128 341.9V185.5c0-5.455 3.379-10.54 8.752-12.74c21.22-8.676 41.57-13.11 59.14-12.79C215 160.3 230.1 164.9 240 168.1V352zM384 341.9c0 5.047-5.643 8.545-10.56 6.405C322.9 326.3 283.8 345 272 351.1V168.1c9.902-4.061 24.99-8.614 44.1-8.935c17.5-.1543 37.91 4.137 59.14 12.79C380.6 174.1 384 180.1 384 185.6V341.9z"/></svg>