<svg xmlns="http://www.w3.org/2000/svg" viewBox="0 0 512 512"><!--! Font Awesome Pro 6.1.1 by @fontawesome - https://fontawesome.com License - https://fontawesome.com/license (Commercial License) Copyright 2022 Fonticons, Inc. --><path d="M256 176C229.5 176 208 197.5 208 224S229.5 272 256 272c21.06 0 40-14.09 46.03-34.28C303.3 233.3 304 228.7 304 224C304 197.5 282.5 176 256 176zM256 0C114.6 0 0 114.6 0 256s114.6 256 256 256s256-114.6 256-256S397.4 0 256 0zM311.7 308.4l-79.94 69.69C227.2 382.1 221.6 384 216 384c-6.688 0-13.34-2.781-18.09-8.219c-8.719-10-7.656-25.16 2.312-33.88l29.76-25.94C189.7 304.5 160 267.9 160 224c0-52.94 43.06-96 96-96s96 43.06 96 96C352 265.3 324.5 297.3 311.7 308.4z"/></svg>