<svg xmlns="http://www.w3.org/2000/svg" viewBox="0 0 512 512"><!--! Font Awesome Pro 6.1.1 by @fontawesome - https://fontawesome.com License - https://fontawesome.com/license (Commercial License) Copyright 2022 Fonticons, Inc. --><path d="M248 224h16C277.2 224 288 213.2 288 200S277.2 176 264 176h-16C234.8 176 224 186.8 224 200S234.8 224 248 224zM272 272h-32c-17.66 0-32 14.34-32 32s14.34 32 32 32h32c17.66 0 32-14.34 32-32S289.7 272 272 272zM256 0C114.6 0 0 114.6 0 256s114.6 256 256 256s256-114.6 256-256S397.4 0 256 0zM272 384h-32C195.9 384 160 348.1 160 304c0-25.06 11.81-47.19 29.9-61.87C181.3 230.3 176 215.8 176 200C176 160.3 208.3 128 248 128h16c39.69 0 72 32.31 72 72c0 15.77-5.254 30.26-13.9 42.13C340.2 256.8 352 278.9 352 304C352 348.1 316.1 384 272 384z"/></svg>