<svg xmlns="http://www.w3.org/2000/svg" viewBox="0 0 512 512"><!--! Font Awesome Pro 6.1.1 by @fontawesome - https://fontawesome.com License - https://fontawesome.com/license (Commercial License) Copyright 2022 Fonticons, Inc. --><path d="M256 176C229.5 176 208 197.5 208 224v64c0 26.47 21.53 48 48 48s48-21.53 48-48V224C304 197.5 282.5 176 256 176zM256 0C114.6 0 0 114.6 0 256s114.6 256 256 256s256-114.6 256-256S397.4 0 256 0zM352 288c0 52.94-43.06 96-96 96s-96-43.06-96-96V224c0-52.94 43.06-96 96-96s96 43.06 96 96V288z"/></svg>