<svg xmlns="http://www.w3.org/2000/svg" viewBox="0 0 512 512"><!--! Font Awesome Pro 6.0.0-beta3 by @fontawesome - https://fontawesome.com License - https://fontawesome.com/license (Commercial License) Copyright 2021 Fonticons, Inc. --><path d="M256 0C114.6 0 0 114.6 0 256s114.6 256 256 256s256-114.6 256-256S397.4 0 256 0zM398.9 175.1l-64 208C331.8 393.1 322.5 400 312 400h-.4219c-10.7-.1875-19.97-7.438-22.75-17.77L256 260.3l-32.83 121.9C220.4 392.6 211.1 399.8 200.4 400c-10.73-.0156-20.22-6.734-23.36-16.94l-64-208c-3.906-12.67 3.203-26.11 15.88-30c12.66-3.859 26.09 3.203 30 15.88L198.5 289.4l34.36-127.6C235.6 151.3 245.1 144 256 144s20.36 7.281 23.17 17.77l34.36 127.6l39.53-128.5c3.891-12.67 17.34-19.7 30-15.88C395.7 148.1 402.8 162.4 398.9 175.1z"/></svg>