<svg xmlns="http://www.w3.org/2000/svg" viewBox="0 0 512 512"><!--! Font Awesome Pro 6.1.1 by @fontawesome - https://fontawesome.com License - https://fontawesome.com/license (Commercial License) Copyright 2022 Fonticons, Inc. --><path d="M256 0C114.6 0 0 114.6 0 256s114.6 256 256 256s256-114.6 256-256S397.4 0 256 0zM378.2 183.6L280 298.2V376c0 13.25-10.75 24-24 24s-24-10.75-24-24V298.2L133.8 183.6C125.2 173.6 126.3 158.4 136.4 149.8c10.08-8.625 25.22-7.438 33.84 2.594L256 252.5l85.78-100.1c8.641-10.05 23.77-11.27 33.84-2.594C385.7 158.4 386.8 173.6 378.2 183.6z"/></svg>