<svg xmlns="http://www.w3.org/2000/svg" viewBox="0 0 512 512"><!--! Font Awesome Pro 6.0.0-beta3 by @fontawesome - https://fontawesome.com License - https://fontawesome.com/license (Commercial License) Copyright 2021 Fonticons, Inc. --><path d="M256 0C114.6 0 0 114.6 0 256s114.6 256 256 256s256-114.6 256-256S397.4 0 256 0zM362.3 268.3l-153.6 128C205.7 398.8 202.1 400 198.4 400c-3.406 0-6.812-1.094-9.687-3.25c-5.938-4.5-7.969-12.53-4.906-19.31l47.44-105.4H159.1c-6.752 0-12.75-4.219-15.03-10.56C142.7 255.1 144.6 248 149.7 243.7l153.6-128c5.719-4.781 13.97-4.938 19.94-.4687c5.938 4.5 7.969 12.53 4.906 19.31l-47.44 105.4h71.25c6.752 0 12.75 4.221 15.03 10.56C369.3 256.9 367.4 263.1 362.3 268.3z"/></svg>