<svg xmlns="http://www.w3.org/2000/svg" viewBox="0 0 512 512"><!--! Font Awesome Pro 6.0.0-beta3 by @fontawesome - https://fontawesome.com License - https://fontawesome.com/license (Commercial License) Copyright 2021 Fonticons, Inc. --><path d="M256 0C114.6 0 0 114.6 0 256s114.6 256 256 256s256-114.6 256-256S397.4 0 256 0zM362.5 346.5c0 8.836-7.162 16-15.1 16H188.1c-6.475 0-12.31-3.891-14.78-9.875c-2.484-5.98-1.104-12.86 3.471-17.44l45.25-45.25L154.1 222C141.6 209.5 141.7 189.3 154.2 176.8l22.63-22.63c12.5-12.5 32.72-12.54 45.21-.041l67.92 67.92l45.25-45.25c4.574-4.578 11.46-5.957 17.44-3.469c5.988 2.473 9.877 8.305 9.877 14.78V346.5z"/></svg>