<svg xmlns="http://www.w3.org/2000/svg" viewBox="0 0 512 512"><!--! Font Awesome Pro 6.1.1 by @fontawesome - https://fontawesome.com License - https://fontawesome.com/license (Commercial License) Copyright 2022 Fonticons, Inc. --><path d="M0 256C0 114.6 114.6 0 256 0C397.4 0 512 114.6 512 256C512 397.4 397.4 512 256 512C114.6 512 0 397.4 0 256zM160 128C151.2 128 144 135.2 144 144C144 152.8 151.2 160 160 160H352C360.8 160 368 152.8 368 144C368 135.2 360.8 128 352 128H310.6L299.3 116.7C296.3 113.7 292.2 112 288 112H224C219.8 112 215.7 113.7 212.7 116.7L201.4 128H160zM160 192L173.6 354.7C174.9 371.2 188.8 384 205.4 384H306.6C323.2 384 337.1 371.2 338.4 354.7L352 192H160z"/></svg>