<svg xmlns="http://www.w3.org/2000/svg" viewBox="0 0 512 512"><!--! Font Awesome Pro 6.1.1 by @fontawesome - https://fontawesome.com License - https://fontawesome.com/license (Commercial License) Copyright 2022 Fonticons, Inc. --><path d="M256 0c-141.4 0-256 114.6-256 256s114.6 256 256 256s256-114.6 256-256S397.4 0 256 0zM419.1 256.1L392.5 299.9c-3.988 6.396-11.99 9.015-19.06 6.253l-54.82-21.92c-6.441-2.596-10.41-9.16-9.717-16.06l3.446-34.61C275.9 221.1 236.1 221.1 199.6 233.6l3.447 34.61c.7402 6.885-3.243 13.5-9.717 16.06L138.5 306.2c-7.037 2.797-15.1 .1003-19.06-6.253L92.05 256.1C88.16 249.9 89.06 241.9 94.25 236.7c89.18-89.18 234.3-89.2 323.5 .0002C422.9 241.9 423.8 249.9 419.1 256.1z"/></svg>