<svg xmlns="http://www.w3.org/2000/svg" viewBox="0 0 512 512"><!--! Font Awesome Pro 6.0.0-beta3 by @fontawesome - https://fontawesome.com License - https://fontawesome.com/license (Commercial License) Copyright 2021 Fonticons, Inc. --><path d="M197.3 192h117.3L256.1 133.5L197.3 192zM256 0c-141.4 0-256 114.6-256 256s114.6 256 256 256c141.4 0 256-114.6 256-256S397.4 0 256 0zM360.6 319.4l-91.53 91.25C265.6 414 260.9 416 256 416s-9.5-1.1-13-5.375L151.4 319.4C139.9 307.9 148 288 164.5 288h182.9C363.9 288 372.1 307.9 360.6 319.4zM347.5 223.1h-183c-16.5 0-24.62-19.88-13.12-31.38L243 101.4C246.5 98 251.1 95.1 256 95.1s9.625 2 13.12 5.375l91.5 91.25C372.1 204.1 364 223.1 347.5 223.1z"/></svg>