<svg xmlns="http://www.w3.org/2000/svg" viewBox="0 0 512 512"><!--! Font Awesome Pro 6.0.0-beta3 by @fontawesome - https://fontawesome.com License - https://fontawesome.com/license (Commercial License) Copyright 2021 Fonticons, Inc. --><path d="M256 0C114.6 0 0 114.6 0 256s114.6 256 256 256s256-114.6 256-256S397.4 0 256 0zM384 360c0 13.25-10.75 24-24 24s-24-10.75-24-24V226.2l-60.55 83.83c-9.031 12.5-29.88 12.5-38.91 0L176 226.2V360C176 373.3 165.3 384 152 384S128 373.3 128 360v-208c0-10.41 6.719-19.64 16.61-22.83c9.859-3.25 20.75 .3125 26.84 8.781L256 255l84.55-117.1c6.094-8.469 16.89-12.03 26.84-8.781C377.3 132.4 384 141.6 384 152V360z"/></svg>