<svg xmlns="http://www.w3.org/2000/svg" viewBox="0 0 512 512"><!--! Font Awesome Pro 6.1.1 by @fontawesome - https://fontawesome.com License - https://fontawesome.com/license (Commercial License) Copyright 2022 Fonticons, Inc. --><path d="M0 256C0 114.6 114.6 0 256 0C397.4 0 512 114.6 512 256C512 397.4 397.4 512 256 512C114.6 512 0 397.4 0 256zM233.5 384.2C239.7 390.5 247.9 393.6 256 393.6C264.1 393.6 272.3 390.5 278.5 384.2L380.1 280.1C409.5 251.2 409.5 202.8 380.1 173C350.8 143.2 303.1 143.2 273.7 173L256 191L238.3 173C208.9 143.2 161.2 143.2 131.9 173C102.5 202.8 102.5 251.2 131.9 280.1L233.5 384.2z"/></svg>