<svg xmlns="http://www.w3.org/2000/svg" viewBox="0 0 512 512"><!--! Font Awesome Pro 6.0.0-beta3 by @fontawesome - https://fontawesome.com License - https://fontawesome.com/license (Commercial License) Copyright 2021 Fonticons, Inc. --><path d="M109.5 132.2L64.2 86.84C27.68 128.2 4.441 181.4 .8086 240h64C68.21 199.1 84.43 161.8 109.5 132.2zM425.2 64.21C383.8 27.69 330.6 4.441 272 .8086v64c40.93 3.4 78.22 19.62 107.9 44.72L425.2 64.21zM64.81 272h-64c3.633 58.61 26.87 111.8 63.39 153.2l45.32-45.32C84.43 350.2 68.21 312.9 64.81 272zM447.2 240h64c-3.633-58.61-26.87-111.8-63.39-153.2l-45.32 45.32C427.6 161.8 443.8 199.1 447.2 240zM272 447.2v64c58.62-3.633 111.8-26.88 153.2-63.41l-45.32-45.32C350.2 427.6 312.9 443.8 272 447.2zM86.83 447.8C128.2 484.3 181.4 507.6 240 511.2v-64c-40.93-3.4-78.22-19.62-107.9-44.72L86.83 447.8zM402.5 379.8l45.32 45.32C484.3 383.8 507.6 330.6 511.2 272h-64C443.8 312.9 427.6 350.2 402.5 379.8zM132.1 109.5C161.8 84.43 199.1 68.21 240 64.81v-64C181.4 4.441 128.2 27.69 86.83 64.21L132.1 109.5z"/></svg>