<svg xmlns="http://www.w3.org/2000/svg" viewBox="0 0 512 512"><!--! Font Awesome Pro 6.1.1 by @fontawesome - https://fontawesome.com License - https://fontawesome.com/license (Commercial License) Copyright 2022 Fonticons, Inc. --><path d="M134.1 32H64C28.65 32 0 60.65 0 96v64h6.062L134.1 32zM326.1 160l127.4-127.4C451.7 32.39 449.9 32 448 32h-86.06l-128 128H326.1zM166.1 160l128-128H201.9l-128 128H166.1zM0 416c0 35.35 28.65 64 64 64h384c35.35 0 64-28.65 64-64V192H0V416zM208 267c0-4.01 2.104-7.705 5.5-9.656c3.375-1.918 7.562-1.832 10.81 .3027l106.7 68.97C334.1 328.7 336 332.2 336 335.1s-1.896 7.338-5.021 9.354l-106.7 68.97C222.6 415.4 220.6 416 218.7 416c-1.77 0-3.559-.4648-5.163-1.379C210.1 412.7 208 408.1 208 404.1V267zM497.7 56.19L393.9 160H512V96C512 80.87 506.5 67.15 497.7 56.19z"/></svg>