<svg xmlns="http://www.w3.org/2000/svg" viewBox="0 0 512 512"><!--! Font Awesome Pro 6.1.1 by @fontawesome - https://fontawesome.com License - https://fontawesome.com/license (Commercial License) Copyright 2022 Fonticons, Inc. --><path d="M256 512C114.6 512 0 397.4 0 256C0 114.6 114.6 0 256 0C397.4 0 512 114.6 512 256C512 397.4 397.4 512 256 512zM232 256C232 269.3 242.7 280 256 280H360C373.3 280 384 269.3 384 256C384 242.7 373.3 232 360 232H280V120C280 106.7 269.3 96 256 96C242.7 96 232 106.7 232 120V256z"/></svg>