<svg xmlns="http://www.w3.org/2000/svg" viewBox="0 0 576 512"><!--! Font Awesome Pro 6.1.1 by @fontawesome - https://fontawesome.com License - https://fontawesome.com/license (Commercial License) Copyright 2022 Fonticons, Inc. --><path d="M350.6 225.5C343.7 188.3 311.3 160 272.1 160C259.8 160 248.2 163 237.8 168C220.3 143.9 192.2 128 160 128C107 128 64.02 171 64.02 224c0 .5 .25 1.125 .25 1.625C27.63 232.9 0 265.3 0 304c0 38.93 27.7 71.22 64.5 78.44c.4609-13.03 5.756-25.72 15.9-34.56L208.3 235.9C217.1 228.2 228.3 224 239.1 224C250.2 224 259.9 227.2 268.2 233.2c18.23 13.27 24.76 36.1 15.89 57.71l-19.33 45.09h7.195c19.88 0 37.94 12.51 44.92 31.11C318.1 372.6 319.7 378.3 319.7 384h16.32c44.26 0 80.02-35.74 80.02-79.99C416.1 264.8 387.9 232.3 350.6 225.5zM567.9 223.8C497.6 237.1 432.9 183.5 432.9 113c0-40.63 21.88-78 57.5-98.13c5.502-3.125 4.125-11.38-2.125-12.5C479.7 .75 470.8 0 461.8 0c-77.88 0-141 61.25-144.4 137.9c26.75 11.88 48.26 33.88 58.88 61.75c37.13 14.25 64.01 47.38 70.26 86.75c5.125 .5 10 1.5 15.26 1.5c44.63 0 85.5-20.12 112.5-53.25C578.6 229.8 574.2 222.6 567.9 223.8zM272 368H216.3l38.45-89.7c2.938-6.859 .7187-14.84-5.312-19.23c-6.096-4.422-14.35-4.031-19.94 .8906l-128 111.1c-5.033 4.391-6.783 11.44-4.439 17.67c2.346 6.25 8.314 10.38 14.97 10.38H167.7l-38.45 89.7c-2.938 6.859-.7187 14.84 5.312 19.23C137.4 510.1 140.7 512 143.1 512c3.781 0 7.531-1.328 10.53-3.953l128-111.1c5.033-4.391 6.783-11.44 4.439-17.67C284.6 372.1 278.7 368 272 368z"/></svg>