<svg xmlns="http://www.w3.org/2000/svg" viewBox="0 0 640 512"><!--! Font Awesome Pro 6.1.1 by @fontawesome - https://fontawesome.com License - https://fontawesome.com/license (Commercial License) Copyright 2022 Fonticons, Inc. --><path d="M96.2 200.1C96.07 197.4 96 194.7 96 192C96 103.6 167.6 32 256 32C315.3 32 367 64.25 394.7 112.2C409.9 101.1 428.3 96 448 96C501 96 544 138.1 544 192C544 204.2 541.7 215.8 537.6 226.6C596 238.4 640 290.1 640 352C640 422.7 582.7 480 512 480H144C64.47 480 0 415.5 0 336C0 273.2 40.17 219.8 96.2 200.1zM512 368C512 359.2 504.8 352 496 352H304C295.2 352 288 359.2 288 368C288 376.8 295.2 384 304 384H496C504.8 384 512 376.8 512 368zM144 352C135.2 352 128 359.2 128 368C128 376.8 135.2 384 144 384H240C248.8 384 256 376.8 256 368C256 359.2 248.8 352 240 352H144zM144 320H336C344.8 320 352 312.8 352 304C352 295.2 344.8 288 336 288H144C135.2 288 128 295.2 128 304C128 312.8 135.2 320 144 320zM400 288C391.2 288 384 295.2 384 304C384 312.8 391.2 320 400 320H496C504.8 320 512 312.8 512 304C512 295.2 504.8 288 496 288H400z"/></svg>