<svg xmlns="http://www.w3.org/2000/svg" viewBox="0 0 640 512"><!--! Font Awesome Pro 6.1.1 by @fontawesome - https://fontawesome.com License - https://fontawesome.com/license (Commercial License) Copyright 2022 Fonticons, Inc. --><path d="M144 480C64.47 480 0 415.5 0 336C0 273.2 40.17 219.8 96.2 200.1C96.07 197.4 96 194.7 96 192C96 103.6 167.6 32 256 32C315.3 32 367 64.25 394.7 112.2C409.9 101.1 428.3 96 448 96C501 96 544 138.1 544 192C544 204.2 541.7 215.8 537.6 226.6C596 238.4 640 290.1 640 352C640 422.7 582.7 480 512 480H144zM239 240.1L286.1 287.1L239 335C229.7 344.4 229.7 359.6 239 368.1C248.4 378.3 263.6 378.3 272.1 368.1L319.1 321.9L367 368.1C376.4 378.3 391.6 378.3 400.1 368.1C410.3 359.6 410.3 344.4 400.1 335L353.9 287.1L400.1 240.1C410.3 231.6 410.3 216.4 400.1 207C391.6 197.7 376.4 197.7 367 207L319.1 254.1L272.1 207C263.6 197.7 248.4 197.7 239 207C229.7 216.4 229.7 231.6 239 240.1V240.1z"/></svg>