<svg xmlns="http://www.w3.org/2000/svg" viewBox="0 0 512 512"><!--! Font Awesome Pro 6.1.1 by @fontawesome - https://fontawesome.com License - https://fontawesome.com/license (Commercial License) Copyright 2022 Fonticons, Inc. --><path d="M323.1 75.05c-2.188-2.188-6.5-2.656-9.75-2.656c-27.47 .125-87.44 32.58-148.5 94.34c-80.31 81.3-101.6 148-89.97 159.6c2.188 2.188 6.469 2.656 9.75 2.656c27.47-.125 87.41-32.58 148.5-94.34C313.4 153.3 334.7 86.56 323.1 75.05zM436.9 66.84l-40.03-39.76C339.2-30.23 209.7 6.4 107.7 108.9s-137.9 232.1-80.17 289.4l40.03 39.76c99.72 99.04 260.9 98.56 360-1.076l10.34-10.39C537.1 326.9 536.6 165.9 436.9 66.84zM84.94 360.1c-16.78 0-27.12-6.484-32.63-11.94C15.03 311.1 69.27 217.1 142.1 144.2c62.19-62.89 129.3-103.7 170.9-103.8c16.78 0 27.12 6.484 32.63 11.94C382.1 89.39 328.7 183.4 255.8 257.1C193.7 320 126.6 360.8 84.94 360.1zM259.3 451.3C256.2 454.4 252.1 456 248 456s-8.188-1.562-11.31-4.688l-32-32c-6.25-6.25-6.25-16.38 0-22.62s16.38-6.25 22.62 0l32 32C265.6 434.9 265.6 445.1 259.3 451.3zM395.3 395.3C392.2 398.4 388.1 400 384 400s-8.188-1.562-11.31-4.688l-32-32c-6.25-6.25-6.25-16.38 0-22.62s16.38-6.25 22.62 0l32 32C401.6 378.9 401.6 389.1 395.3 395.3zM440 264c-4.094 0-8.188-1.562-11.31-4.688l-32-32c-6.25-6.25-6.25-16.38 0-22.62s16.38-6.25 22.62 0l32 32c6.25 6.25 6.25 16.38 0 22.62C448.2 262.4 444.1 264 440 264z"/></svg>