<svg xmlns="http://www.w3.org/2000/svg" viewBox="0 0 448 512"><!--! Font Awesome Pro 6.0.0-beta3 by @fontawesome - https://fontawesome.com License - https://fontawesome.com/license (Commercial License) Copyright 2021 Fonticons, Inc. --><path d="M448 80C448 35.82 412.2 0 368 0S288 35.82 288 80c0 32.79 19.77 60.89 48 73.25V192c0 17.66-14.34 32-32 32h-160c-17.66 0-32-14.34-32-32V153.2C140.2 140.9 160 112.8 160 80C160 35.82 124.2 0 80 0S0 35.82 0 80c0 32.79 19.77 60.89 48 73.25V192c0 52.94 43.06 96 96 96H192v70.75C163.8 371.1 144 399.2 144 432c0 44.18 35.82 80 80 80s80-35.82 80-80c0-32.79-19.77-60.89-48-73.25V288h48c52.94 0 96-43.06 96-96V153.2C428.2 140.9 448 112.8 448 80zM80 56c13.23 0 24 10.77 24 24S93.23 104 80 104S56 93.23 56 80S66.77 56 80 56zM224 456c-13.23 0-24-10.77-24-24s10.77-24 24-24s24 10.77 24 24S237.2 456 224 456zM368 56c13.23 0 24 10.77 24 24s-10.77 24-24 24s-24-10.77-24-24S354.8 56 368 56z"/></svg>