<svg xmlns="http://www.w3.org/2000/svg" viewBox="0 0 448 512"><!--! Font Awesome Pro 6.1.1 by @fontawesome - https://fontawesome.com License - https://fontawesome.com/license (Commercial License) Copyright 2022 Fonticons, Inc. --><path d="M112 358.7C140.3 371 160 399.2 160 432C160 476.2 124.2 512 80 512C35.82 512 0 476.2 0 432C0 399.2 19.75 371 48 358.7V153.3C19.75 140.1 0 112.8 0 80C0 35.82 35.82 0 80 0C124.2 0 160 35.82 160 80C160 112.8 140.3 140.1 112 153.3V358.7zM80 56C66.75 56 56 66.75 56 80C56 93.25 66.75 104 80 104C93.25 104 104 93.25 104 80C104 66.75 93.25 56 80 56zM80 408C66.75 408 56 418.7 56 432C56 445.3 66.75 456 80 456C93.25 456 104 445.3 104 432C104 418.7 93.25 408 80 408zM288 432C288 387.8 323.8 352 368 352C412.2 352 448 387.8 448 432C448 476.2 412.2 512 368 512C323.8 512 288 476.2 288 432zM368 456C381.3 456 392 445.3 392 432C392 418.7 381.3 408 368 408C354.7 408 344 418.7 344 432C344 445.3 354.7 456 368 456zM416 80C416 106.5 394.5 128 368 128C341.5 128 320 106.5 320 80C320 53.49 341.5 32 368 32C394.5 32 416 53.49 416 80zM320 240C320 213.5 341.5 192 368 192C394.5 192 416 213.5 416 240C416 266.5 394.5 288 368 288C341.5 288 320 266.5 320 240z"/></svg>