<svg xmlns="http://www.w3.org/2000/svg" viewBox="0 0 512 512"><!--! Font Awesome Pro 6.1.1 by @fontawesome - https://fontawesome.com License - https://fontawesome.com/license (Commercial License) Copyright 2022 Fonticons, Inc. --><path d="M256 64C397.4 64 512 128.5 512 208C512 287.5 397.4 352 256 352C114.6 352 0 287.5 0 208C0 128.5 114.6 64 256 64zM0 290.1C13.21 305.8 29.72 319.5 48 330.1V394.6C17.79 373.6 0 347.9 0 320V290.1zM80 412.1V348.3C108.4 361.4 140.9 371.3 176 377.3V441.6C139.8 435.7 107.1 425.8 80 412.1zM208 381.6C223.7 383.2 239.7 384 256 384C272.3 384 288.3 383.2 304 381.6V445.8C288.5 447.2 272.4 448 256 448C239.6 448 223.5 447.2 208 445.8V381.6zM336 441.6V377.3C371.1 371.3 403.6 361.4 432 348.3V412.1C404.9 425.8 372.2 435.7 336 441.6zM464 330.1C482.3 319.5 498.8 305.8 512 290.1V320C512 347.9 494.2 373.6 464 394.6V330.1z"/></svg>