<svg xmlns="http://www.w3.org/2000/svg" viewBox="0 0 512 512"><!--! Font Awesome Pro 6.1.1 by @fontawesome - https://fontawesome.com License - https://fontawesome.com/license (Commercial License) Copyright 2022 Fonticons, Inc. --><path d="M256 32C114.6 32 .0273 125.1 .0273 240c0 49.63 21.35 94.98 56.97 130.7C44.5 421.1 2.729 466 2.229 466.5c-2.25 2.25-2.875 5.734-1.5 8.734C1.979 478.2 4.75 480 8 480c66.25 0 115.1-31.76 140.6-51.39C181.2 440.9 217.6 448 256 448C397.4 448 512 354.9 512 240S397.4 32 256 32zM160 128c17.67 0 32 14.33 32 32S177.7 192 160 192S128 177.7 128 160S142.3 128 160 128zM414.3 311.2c-2.719 5.398-8.246 8.803-14.29 8.803h-288c-6.277 0-11.98-3.672-14.57-9.389S95.82 298.2 99.96 293.5l56-64c3.039-3.473 7.428-5.465 12.04-5.465s9.004 1.992 12.04 5.465l22.71 25.95l77.73-104.9c3.018-4.074 7.787-6.477 12.86-6.477c5.068 0 9.838 2.402 12.86 6.477l106.7 144C416.5 299.3 417 305.8 414.3 311.2z"/></svg>