<svg xmlns="http://www.w3.org/2000/svg" viewBox="0 0 640 512"><!--! Font Awesome Pro 6.0.0-beta3 by @fontawesome - https://fontawesome.com License - https://fontawesome.com/license (Commercial License) Copyright 2021 Fonticons, Inc. --><path d="M599.6 443.7C624.8 413.9 640 376.6 640 336C640 238.8 554 160 448 160c-.3145 0-.6191 .041-.9336 .043C447.5 165.3 448 170.6 448 176c0 98.62-79.68 181.2-186.1 202.5C282.7 455.1 357.1 512 448 512c33.69 0 65.32-8.008 92.85-21.98C565.2 502 596.1 512 632.3 512c3.059 0 5.76-1.725 7.02-4.605c1.229-2.879 .6582-6.148-1.441-8.354C637.6 498.7 615.9 475.3 599.6 443.7zM416 176C416 78.8 322.9 0 208 0S0 78.8 0 176c0 39.57 15.62 75.96 41.67 105.4c-16.39 32.76-39.23 57.32-39.59 57.68c-2.1 2.205-2.67 5.475-1.441 8.354C1.9 350.3 4.602 352 7.66 352c38.35 0 70.76-11.12 95.74-24.04C134.2 343.1 169.8 352 208 352C322.9 352 416 273.2 416 176zM208.5 288C194.7 288 184 277.3 184 263.5c0-13.77 10.71-24.47 24.47-24.47c13.77 0 24.47 10.71 24.47 24.47C232.9 277.3 222.2 288 208.5 288zM261.1 171.4L226.8 192.8v1.529c0 9.941-8.412 18.35-18.35 18.35S190.1 204.3 190.1 194.4V182.1c0-6.117 3.059-12.23 9.176-16.06l43.59-26C248.2 137 251.3 131.6 251.3 125.5c0-9.178-7.648-16.82-16.82-16.82H194.7c-9.178 0-16.82 7.646-16.82 16.82c0 9.941-8.412 18.35-18.35 18.35c-9.941 0-18.35-8.412-18.35-18.35C141.2 95.71 164.9 72 194.7 72h39.76C264.3 72 288 95.71 288 125.5C288 143.9 278.1 161.5 261.1 171.4z"/></svg>