<svg xmlns="http://www.w3.org/2000/svg" viewBox="0 0 512 512"><!--! Font Awesome Pro 6.0.0-beta3 by @fontawesome - https://fontawesome.com License - https://fontawesome.com/license (Commercial License) Copyright 2021 Fonticons, Inc. --><path d="M256 31.1c-141.4 0-255.1 93.09-255.1 208c0 49.59 21.38 94.1 56.97 130.7c-12.5 50.39-54.31 95.3-54.81 95.8c-2.187 2.297-2.781 5.703-1.5 8.703c1.312 3 4.125 4.797 7.312 4.797c66.31 0 116-31.8 140.6-51.41c32.72 12.31 69.01 19.41 107.4 19.41c141.4 0 255.1-93.09 255.1-207.1S397.4 31.1 256 31.1zM215.1 336.9c-1.957 1.957-4.445 3.285-7.156 3.828l-55.55 11.11c-4.898 .9805-9.215-3.34-8.234-8.234l11.11-55.54c.543-2.711 1.875-5.203 3.832-7.156l97.61-97.61l56 56.01L215.1 336.9zM359.8 192.2l-24.48 24.48l-56-56.01l24.48-24.48c10.94-10.93 28.66-10.93 39.6 0l16.41 16.41C370.7 163.6 370.7 181.3 359.8 192.2z"/></svg>