<svg xmlns="http://www.w3.org/2000/svg" viewBox="0 0 512 512"><!--! Font Awesome Pro 6.0.0-beta3 by @fontawesome - https://fontawesome.com License - https://fontawesome.com/license (Commercial License) Copyright 2021 Fonticons, Inc. --><path d="M256 31.1c-141.4 0-255.1 93.13-255.1 208c0 49.63 21.35 94.98 56.97 130.7C44.5 421.1 2.729 465.1 2.229 466.5c-2.25 2.25-2.875 5.734-1.5 8.734C1.978 478.2 4.75 479.1 8 479.1c66.25 0 115.1-31.76 140.6-51.39c32.63 12.25 69.02 19.39 107.4 19.39c141.4 0 255.1-93.13 255.1-208S397.4 31.1 256 31.1zM336.1 287c9.375 9.375 9.375 24.56 0 33.94c-9.381 9.379-24.56 9.371-33.94 0l-47.03-47.03l-47.03 47.03c-9.381 9.379-24.56 9.371-33.94 0c-9.375-9.375-9.375-24.56 0-33.94L222.1 240L175 192.1c-9.375-9.375-9.375-24.56 0-33.94s24.56-9.375 33.94 0l47.03 47.03l47.03-47.03c9.375-9.375 24.56-9.375 33.94 0s9.375 24.56 0 33.94L289.9 240L336.1 287z"/></svg>