<svg xmlns="http://www.w3.org/2000/svg" viewBox="0 0 640 512"><!--! Font Awesome Pro 6.0.0-beta3 by @fontawesome - https://fontawesome.com License - https://fontawesome.com/license (Commercial License) Copyright 2021 Fonticons, Inc. --><path d="M160 256h320c17.6 0 32-14.4 32-32l0-192c0-17.6-14.4-32-32-32H384v128l-64-32L256 128V0H159.1C142.4 0 127.1 14.4 127.1 32L128 224C128 241.6 142.4 256 160 256zM544 320h-448c-53 0-96 43-96 96s43 96 96 96h448c53 0 96-43 96-96S597 320 544 320zM128 448c-17.75 0-32-14.25-32-32s14.25-32 32-32s31.1 14.25 31.1 32S145.8 448 128 448zM319.1 448c-17.75 0-32-14.25-32-32s14.25-32 32-32s32 14.25 32 32S337.8 448 319.1 448zM512 448c-17.75 0-32-14.25-32-32S494.2 384 512 384c17.75 0 32 14.25 32 32S529.8 448 512 448z"/></svg>