<svg xmlns="http://www.w3.org/2000/svg" viewBox="0 0 640 512"><!--! Font Awesome Pro 6.1.1 by @fontawesome - https://fontawesome.com License - https://fontawesome.com/license (Commercial License) Copyright 2022 Fonticons, Inc. --><path d="M96 256h192c17.6 0 32-14.4 32-32V32c0-17.6-14.4-32-32-32H96C78.4 0 64 14.4 64 32v192C64 241.6 78.4 256 96 256zM416 256h128c17.6 0 32-14.4 32-32V96c0-17.6-14.4-32-32-32h-128c-17.6 0-32 14.4-32 32v128C384 241.6 398.4 256 416 256zM544 320H96c-53 0-96 43-96 96s43 96 96 96h448c53 0 96-43 96-96S597 320 544 320zM128 448c-17.75 0-32-14.25-32-32s14.25-32 32-32s32 14.25 32 32S145.8 448 128 448zM320 448c-17.75 0-32-14.25-32-32s14.25-32 32-32s32 14.25 32 32S337.8 448 320 448zM512 448c-17.75 0-32-14.25-32-32s14.25-32 32-32c17.75 0 32 14.25 32 32S529.8 448 512 448z"/></svg>