<svg xmlns="http://www.w3.org/2000/svg" viewBox="0 0 512 512"><!--! Font Awesome Pro 6.1.1 by @fontawesome - https://fontawesome.com License - https://fontawesome.com/license (Commercial License) Copyright 2022 Fonticons, Inc. --><path d="M417.5 251.7C421.7 258.1 425.5 264.9 428.5 272h31.72l28.62-14.31c7.938-3.922 17.5-.7656 21.47 7.156c3.938 7.906 .75 17.52-7.156 21.47l-32 16C468.9 303.4 466.5 304 464 304h-27.07c.9277 6.297 1.928 12.58 1.928 19.14c0 2.91-.9961 5.617-1.668 8.4l15.88 5.291c2.344 .7813 4.5 2.109 6.25 3.859l32 32c6.25 6.25 6.25 16.38 0 22.62C488.2 398.4 484.1 400 480 400s-8.188-1.562-11.31-4.688l-29.34-29.33l-21.14-7.049l-30.71 30.71l33.56 11.19c2.344 .7813 4.5 2.109 6.25 3.859l32 32c6.25 6.25 6.25 16.38 0 22.62C456.2 462.4 452.1 464 448 464s-8.188-1.562-11.31-4.688l-29.34-29.33l-45.13-15.05l-16.84 16.84l30.85 18.51C381.1 453.2 384 458.4 384 464v32c0 8.844-7.156 16-16 16S352 504.8 352 496v-22.94L310.2 448H201.8L160 473.1V496C160 504.8 152.8 512 144 512S128 504.8 128 496v-32c0-5.625 2.938-10.83 7.781-13.72l30.85-18.51l-16.84-16.84l-45.14 15.05l-29.34 29.33C72.19 462.4 68.09 464 64 464s-8.188-1.562-11.31-4.688c-6.25-6.25-6.25-16.38 0-22.62l32-32c1.75-1.75 3.906-3.078 6.25-3.859l33.56-11.19l-30.71-30.71l-21.14 7.049l-29.34 29.33C40.19 398.4 36.09 400 32 400s-8.188-1.562-11.31-4.688c-6.25-6.25-6.25-16.38 0-22.62l32-32c1.75-1.75 3.906-3.078 6.25-3.859l15.88-5.291c-.6719-2.783-1.649-5.49-1.649-8.4c0-6.555 .9807-12.84 1.908-19.14H48c-2.469 0-4.938-.5781-7.156-1.688l-32-16C.9375 282.4-2.25 272.8 1.688 264.8c3.969-7.922 13.56-11.05 21.47-7.156L51.78 272H83.5c3.027-7.143 6.825-13.86 11.02-20.29L13.79 213.7C5.379 209.8 .0039 201.3 .0039 192V128c0-70.69 57.3-128 127.1-128h63.1l-63.1 64h63.1c0 35.35-28.65 64-63.1 64h-79.1v48.77l81.87 38.53C147.8 202.9 169.1 195.3 192 193.2L192 144C192 135.2 199.2 128 208 128S224 135.2 224 144L224.1 192H288V144C288 135.2 295.2 128 304 128S320 135.2 320 144l-.001 49.17c22.89 2.162 44.19 9.723 62.13 22.13l81.87-38.53V128h-79.1C348.7 128 319.1 99.35 319.1 64h63.1l-63.1-64h63.1c70.69 0 127.1 57.31 127.1 128v64c0 9.297-5.375 17.75-13.78 21.72L417.5 251.7z"/></svg>