<svg xmlns="http://www.w3.org/2000/svg" viewBox="0 0 512 512"><!--! Font Awesome Pro 6.1.1 by @fontawesome - https://fontawesome.com License - https://fontawesome.com/license (Commercial License) Copyright 2022 Fonticons, Inc. --><path d="M407.9 257.1c5.395-5.395 8.092-12.46 8.092-19.54c0-7.07-2.697-14.14-8.092-19.54l-34.35-34.35l129.1-129.1c6.25-6.25 9.374-14.44 9.374-22.62C511.1 13.72 497.1 0 480 0c-8.188 0-16.38 3.124-22.62 9.374l-129.1 129.1l-34.35-34.35c-5.395-5.393-12.46-8.09-19.54-8.09S260.3 98.69 254.9 104.1L224 134.1l.0002 153l153-.0059L407.9 257.1zM191.1 166.1l-182.4 182.4c-5.861 5.863-9.592 13.8-9.592 22.02c0 102.8 108.9 140.6 140.6 140.6c8.217 0 16.16-3.731 22.03-9.594l182.4-182.4l-153 .002V166.1zM431.1 352c-44.25 0-80 35.75-80 79.1c0 44.25 35.75 79.1 80 79.1s80-35.75 80-79.1C511.1 387.8 476.2 352 431.1 352z"/></svg>