<svg xmlns="http://www.w3.org/2000/svg" viewBox="0 0 640 512"><!--! Font Awesome Pro 6.0.0-beta3 by @fontawesome - https://fontawesome.com License - https://fontawesome.com/license (Commercial License) Copyright 2021 Fonticons, Inc. --><path d="M438.6 393.4c-7.879 3.619-16.01 6.738-24.58 8.758l-46.44 10.72l94.49 94.49C465.2 510.4 469.3 512 473.4 512c4.094 0 8.188-1.562 11.31-4.687l22.63-22.62c3.125-3.125 4.687-7.219 4.687-11.31c0-4.094-1.563-8.187-4.688-11.31L438.6 393.4zM196.7 352.7l15.45-15.45l10.71-46.64L100.9 168.7L168.7 100.9l85.84 85.83c5.047-8.039 10.74-15.7 17.51-22.53l25.29-25.25L213.1 55.61l.5874-.5855c6.28-6.28 9.418-14.54 9.418-22.79C223.1 6.953 200.9 0 191.8 0C183.5 0 175.3 3.149 168.1 9.442L9.429 168.1C3.144 175.3 .0001 183.5 .0001 191.7c0 8.208 3.121 16.42 9.366 22.7c6.293 6.326 14.62 9.553 22.89 9.553c8.238 0 16.48-3.142 22.76-9.428l.5742-.5734l131.2 131.3C189.8 348.2 193.4 350.2 196.7 352.7zM222.9 290.7L222.9 290.7L222.9 290.7zM639.1 191.7c0-8.239-3.144-16.48-9.428-22.76l-159.6-159.5C464.7 3.149 456.5 0 448.2 0c-9.229 0-32.21 7.172-32.21 32.23c0 8.255 3.138 16.51 9.418 22.79l159.6 159.5c6.287 6.286 14.53 9.428 22.76 9.428c8.268 0 16.53-3.165 22.83-9.49C636.8 208.2 639.1 199.1 639.1 191.7zM462.4 245.4l-67.88-67.87l55.13-55.12l-45.25-45.25L294.7 186.8C282.1 199.6 273.2 215.6 269.1 233.2l-27.75 120.2L132.7 462.1c-3.125 3.125-4.688 7.219-4.688 11.31c0 4.094 1.564 8.187 4.689 11.31l22.63 22.62C158.4 510.4 162.5 512 166.6 512c4.094 0 8.188-1.562 11.31-4.687l108.6-108.6l120.3-27.75c17.5-4.125 33.63-12.1 46.38-25.62l109.6-109.7L517.6 190.3L462.4 245.4zM407.9 300.1c-4.25 4.125-9.625 7.125-15.5 8.5l-79.25 18.25l18.25-79.25c1.375-5.875 4.375-11.25 8.5-15.5l9.375-9.25l67.88 67.87L407.9 300.1z"/></svg>