<svg xmlns="http://www.w3.org/2000/svg" viewBox="0 0 576 512"><!--! Font Awesome Pro 6.0.0-beta3 by @fontawesome - https://fontawesome.com License - https://fontawesome.com/license (Commercial License) Copyright 2021 Fonticons, Inc. --><path d="M544 96c-17.75 0-32 14.25-32 32c0 1.125 .4873 1.984 .6123 2.984l-83.86-23.48l11.12-5.624c12.38-6.125 23-15.63 30.75-27.13l18.12-27.12c2.5-3.75 1.552-8.646-2.198-11.15l-13.27-8.875c-3.75-2.5-8.656-1.479-11.16 2.146l-18 27.25C439.5 64 433.1 69.64 425.6 73.26L383 94.63l-33.75-9.5l8.266-10.39C364.3 66.23 368 55.75 368 44.75l0-36.75c0-4.375-3.625-8-8-8L344 0c-4.375 0-8 3.625-8 8v36.75c0 3.625-1.25 7.124-3.5 9.999l-16.75 21l-16.12-4.498c-6.875-2-11.76-8.252-11.76-15.5l.0417-47.75c0-4.375-3.625-8-8-8L263.9 0c-4.375 0-8 3.625-8 8v47.75c0 21.5 14.38 40.5 35 46.25l78.88 22.25L336 192H96C60.75 192 32 220.8 32 256L31.1 319.1L64 298.8v48.81l-11.88 31.75c-4.625 12.25-5.375 25.38-2.25 38l24.88 82.56C76.63 507 83 512 90.25 512l63.87-.0003c10.38 0 18-9.75 15.5-19.87l-26.38-88.38L162.8 352H320v144c0 8.75 7.25 15.1 15.1 15.1L400 512c8.75 0 16-7.25 16-16V288l32-64h64c17.75 0 32-14.25 32-32v-27.87c0-1.5-.4355-2.88-.6855-4.255C543.6 159.9 543.8 160 544 160c17.75 0 32-14.25 32-32S561.8 96 544 96zM447.1 175.1c-8.75 0-16-7.25-16-16s7.25-16 16-16s16 7.25 16 16S456.7 175.1 447.1 175.1z"/></svg>