<svg xmlns="http://www.w3.org/2000/svg" viewBox="0 0 512 512"><!--! Font Awesome Pro 6.0.0-beta3 by @fontawesome - https://fontawesome.com License - https://fontawesome.com/license (Commercial License) Copyright 2021 Fonticons, Inc. --><path d="M488.8 133.2l-92-25.75l11.12-5.624c12.37-6.125 23-15.63 30.75-27.13l18.12-27.13c2.5-3.75 1.552-8.646-2.198-11.15l-13.27-8.875c-3.75-2.5-8.656-1.479-11.16 2.146l-18 27.25C407.5 64 401.1 69.64 393.6 73.26L351 94.63l-33.75-9.5l8.266-10.39C332.3 66.23 336 55.75 336 44.75l0-36.75c0-4.375-3.625-8-8-8L312 0c-4.375 0-8 3.625-8 8v36.75c0 3.625-1.25 7.125-3.5 9.1l-16.75 21l-16.12-4.498c-6.875-2-11.76-8.252-11.76-15.5l.0417-47.75c0-4.375-3.625-8-8-8L231.9 0c-4.375 0-8 3.625-8 8v47.75c0 21.5 14.38 40.5 35 46.25l78.88 22.25L304 192H64C28.75 192 0 220.8 0 256L0 319.1L32 298.8v48.81l-11.88 31.75c-4.625 12.25-5.375 25.38-2.25 38l24.88 82.56C44.62 507 51 512 58.25 512l63.87-.0003c10.38 0 18-9.75 15.5-19.87L111.2 403.8L130.8 352H288v144c0 8.75 7.25 15.1 15.1 15.1L368 512c8.75 0 16-7.25 16-16V288l32-64h64c17.75 0 32-14.25 32-32V164.1C512 149.7 502.4 137.2 488.8 133.2zM415.1 175.1c-8.75 0-16-7.25-16-16s7.25-16 16-16s16 7.25 16 16S424.8 175.1 415.1 175.1z"/></svg>