<svg xmlns="http://www.w3.org/2000/svg" viewBox="0 0 576 512"><!--! Font Awesome Pro 6.0.0-beta3 by @fontawesome - https://fontawesome.com License - https://fontawesome.com/license (Commercial License) Copyright 2021 Fonticons, Inc. --><path d="M0 128v256c0 35.38 28.62 64 64 64h306.8C387.8 448 404 441.3 416 429.3l150.6-150.6c12.5-12.5 12.5-32.75 0-45.25L416 82.75C404 70.75 387.8 64 370.8 64H64C28.63 64 0 92.63 0 128zM190.1 255.1L143 208.1c-9.375-9.375-9.375-24.56 0-33.94s24.56-9.375 33.94 0L224 222.1l47.03-47.03c9.375-9.375 24.56-9.375 33.94 0s9.375 24.56 0 33.94L257.9 255.1l47.03 47.03c9.375 9.375 9.375 24.56 0 33.94c-9.373 9.373-24.56 9.381-33.94 0L224 289.9l-47.03 47.03c-9.373 9.373-24.56 9.381-33.94 0c-9.375-9.375-9.375-24.56 0-33.94L190.1 255.1z"/></svg>