<svg xmlns="http://www.w3.org/2000/svg" viewBox="0 0 576 512"><!--! Font Awesome Pro 6.1.1 by @fontawesome - https://fontawesome.com License - https://fontawesome.com/license (Commercial License) Copyright 2022 Fonticons, Inc. --><path d="M0 128C0 92.65 28.65 64 64 64H370.7C387.7 64 403.1 70.74 416 82.75L566.6 233.4C572.6 239.4 576 247.5 576 256C576 264.5 572.6 272.6 566.6 278.6L416 429.3C403.1 441.3 387.7 448 370.7 448H64C28.65 448 0 419.3 0 384V128zM143 208.1L190.1 255.1L143 303C133.7 312.4 133.7 327.6 143 336.1C152.4 346.3 167.6 346.3 176.1 336.1L223.1 289.9L271 336.1C280.4 346.3 295.6 346.3 304.1 336.1C314.3 327.6 314.3 312.4 304.1 303L257.9 255.1L304.1 208.1C314.3 199.6 314.3 184.4 304.1 175C295.6 165.7 280.4 165.7 271 175L223.1 222.1L176.1 175C167.6 165.7 152.4 165.7 143 175C133.7 184.4 133.7 199.6 143 208.1V208.1z"/></svg>