<svg xmlns="http://www.w3.org/2000/svg" viewBox="0 0 576 512"><!--! Font Awesome Pro 6.0.0-beta3 by @fontawesome - https://fontawesome.com License - https://fontawesome.com/license (Commercial License) Copyright 2021 Fonticons, Inc. --><path d="M294.4 44.8C300.4 36.74 309.9 32 320 32H544C561.7 32 576 46.33 576 64C576 81.67 561.7 96 544 96H336L249.6 211.2C243.6 219.3 234.1 224 224 224H32C14.33 224 0 209.7 0 192C0 174.3 14.33 160 32 160H208L294.4 44.8zM141.9 320H32C14.33 320 0 305.7 0 288C0 270.3 14.33 256 32 256H544C561.7 256 576 270.3 576 288C576 305.7 561.7 320 544 320H216.5L274.1 416H544C561.7 416 576 430.3 576 448C576 465.7 561.7 480 544 480H256C244.8 480 234.3 474.1 228.6 464.5L141.9 320z"/></svg>