<svg xmlns="http://www.w3.org/2000/svg" viewBox="0 0 640 512"><!--! Font Awesome Pro 6.0.0-beta3 by @fontawesome - https://fontawesome.com License - https://fontawesome.com/license (Commercial License) Copyright 2021 Fonticons, Inc. --><path d="M320 458.4C290.9 472.3 258.4 480 224 480C100.3 480 0 379.7 0 256C0 132.3 100.3 32 224 32C258.4 32 290.9 39.73 320 53.56C349.1 39.73 381.6 32 416 32C539.7 32 640 132.3 640 256C640 379.7 539.7 480 416 480C381.6 480 349.1 472.3 320 458.4zM192 256C192 194.1 216.4 139.6 256 99.21C245.7 97.1 234.1 96 224 96C135.6 96 64 167.6 64 256C64 344.4 135.6 416 224 416C234.1 416 245.7 414.9 256 412.8C216.4 372.4 192 317 192 256V256zM269.3 192C262.8 206.9 258.5 223.1 256.8 240H383.2C381.5 223.1 377.2 206.9 370.7 192H269.3zM370.7 320C377.2 305.1 381.5 288.9 383.2 272H256.8C258.5 288.9 262.8 305.1 269.3 320H370.7zM287.1 352C297.1 364.1 307.9 374.9 320 384C332.1 374.9 342.9 364.1 352 352H287.1zM352 160C342.9 147.9 332.1 137.1 320 127.1C307.9 137.1 297.1 147.9 287.1 160H352z"/></svg>