<svg xmlns="http://www.w3.org/2000/svg" viewBox="0 0 576 512"><!--! Font Awesome Pro 6.0.0-beta3 by @fontawesome - https://fontawesome.com License - https://fontawesome.com/license (Commercial License) Copyright 2021 Fonticons, Inc. --><path d="M288 64c17.67 0 32-14.33 32-32s-14.33-32-32-32c-17.67 0-32 14.33-32 32S270.3 64 288 64zM32 256c-17.67 0-32 14.33-32 32c0 17.67 14.33 32 32 32s32-14.33 32-32C64 270.3 49.67 256 32 256zM544 256c-17.67 0-32 14.33-32 32c0 17.67 14.33 32 32 32s32-14.33 32-32C576 270.3 561.7 256 544 256zM446.4 84.35c-12.5 12.5-12.5 32.76 0 45.25c12.5 12.5 32.76 12.5 45.26 0c12.5-12.5 12.5-32.76 0-45.25S458.9 71.86 446.4 84.35zM84.35 446.4c-12.5 12.5-12.5 32.76 0 45.26c12.5 12.5 32.76 12.5 45.26 0c12.5-12.5 12.5-32.76 0-45.26C117.1 433.9 96.85 433.9 84.35 446.4zM446.4 446.4c-12.5 12.5-12.5 32.76 0 45.26c12.5 12.5 32.76 12.5 45.26 0c12.5-12.5 12.5-32.76 0-45.26C479.2 433.9 458.9 433.9 446.4 446.4zM129.6 129.6c12.5-12.5 12.5-32.76 0-45.25c-12.5-12.5-32.76-12.5-45.26 0s-12.5 32.76 0 45.25C96.85 142.1 117.1 142.1 129.6 129.6zM288 127.1c-88.37 0-160 71.63-160 160c0 38.4 14.09 73.17 36.63 100.7l112.1-112.1c6.25-6.25 16.38-6.25 22.63 0s6.25 16.38 0 22.63l-112.1 112.1C214.8 433.9 249.6 448 288 448c88.37 0 160-71.63 160-160C448 199.6 376.4 127.1 288 127.1z"/></svg>