<svg xmlns="http://www.w3.org/2000/svg" viewBox="0 0 512 512"><!--! Font Awesome Pro 6.0.0-beta3 by @fontawesome - https://fontawesome.com License - https://fontawesome.com/license (Commercial License) Copyright 2021 Fonticons, Inc. --><path d="M150.9 262.1l88.19 61.47v179.5c0 5.293-4.144 8.87-8.507 8.87c-1.897 0-3.836-.6764-5.493-2.182L2.907 307.6C.9169 305.8 .0006 303.4 .0006 300.1c0-3.952 2.508-7.81 6.812-8.706L150.9 262.1zM9.326 255.5c-4.839 0-8.385-4.309-8.385-8.914c0-1.941 .6301-3.935 2.059-5.68l191.8-233.9c1.799-2.2 4.072-3.146 6.297-3.146c4.402 0 8.618 3.702 8.618 8.716c0 .9458-.15 1.938-.4771 2.961L141.5 228L11.09 255.3C10.49 255.4 9.898 255.5 9.326 255.5zM337.4 236.1l-81.44 56.72L174.6 236.1l73.41-230.1C249.3 2.016 252.6 0 256 0s6.74 2.016 8.021 6.047L337.4 236.1zM512 300.1c0 2.389-.9163 4.813-2.906 6.638l-222.2 202.2C285.3 511.3 283.3 512 281.4 512c-4.362 0-8.504-3.592-8.504-8.884v-179.5l88.19-61.47l144.1 30.13C509.5 293.2 512 297 512 300.1zM302.7 15.52c-.3206-1.014-.4678-1.997-.4678-2.935c0-5.027 4.228-8.742 8.639-8.742c2.226 0 4.498 .9458 6.297 3.146l191.8 233.9c1.429 1.745 2.059 3.739 2.059 5.681c0 4.615-3.56 8.938-8.414 8.938c-.5633 0-1.144-.0582-1.739-.1809l-130.4-27.25L302.7 15.52z"/></svg>