<svg xmlns="http://www.w3.org/2000/svg" viewBox="0 0 512 512"><!--! Font Awesome Pro 6.1.1 by @fontawesome - https://fontawesome.com License - https://fontawesome.com/license (Commercial License) Copyright 2022 Fonticons, Inc. --><path d="M113.1 328.5l55.01 172l-85.87-42.95c-10.53-5.281-23.38-18.09-28.62-28.62L6.75 333.5C2.313 324.6 0 314.8 0 304.9V214.6L113.1 328.5zM131.2 300.5L7.531 176.9l51.44-102.8L240 139.3v106.9L131.2 300.5zM256 111L89.72 51.13l88.77-44.37C187.4 2.313 197.2 0 207.1 0h97.78c8.344 0 21.17 3.031 28.61 6.75l88.78 44.37L256 111zM364.6 328.2L305.8 512H206.2l-58.81-183.8L256 273.9L364.6 328.2zM272 139.3l181-65.19l51.44 102.8l-123.6 123.6L272 246.1V139.3zM512 214.6V304.9c0 8.344-3.031 21.16-6.75 28.62l-47.73 95.38c-5.25 10.53-18.09 23.38-28.62 28.62l-85.87 42.95l55.01-172L512 214.6z"/></svg>