<svg xmlns="http://www.w3.org/2000/svg" viewBox="0 0 640 512"><!--! Font Awesome Pro 6.0.0-beta3 by @fontawesome - https://fontawesome.com License - https://fontawesome.com/license (Commercial License) Copyright 2021 Fonticons, Inc. --><path d="M455.1 464h-72l-16-48h39.99l-81.65-64H95.1L95.1 171.5L31.1 121.3V368c0 26.5 21.5 48 47.1 48h191.1l-16 48H183.1c-13.25 0-24 10.75-24 24s10.75 24 24 24h271.1c13.25 0 24-10.75 24-24S469.2 464 455.1 464zM630.8 469.1l-68.1-53.38c25.21-1.434 45.29-22.16 45.29-47.73v-320c0-26.5-21.5-48-48-48l-479.1 0c-12.3 0-23.41 4.77-31.9 12.38L38.81 5.113C34.41 1.676 29.19 0 24.03 0c-7.125 0-14.19 3.16-18.91 9.191c-8.187 10.44-6.37 25.53 4.068 33.7L601.2 506.9c10.5 8.203 25.57 6.328 33.69-4.078C643.1 492.4 641.2 477.3 630.8 469.1zM543.1 352h-62.59l-367.5-288h430L543.1 352z"/></svg>