<svg xmlns="http://www.w3.org/2000/svg" viewBox="0 0 576 512"><!--! Font Awesome Pro 6.0.0-beta3 by @fontawesome - https://fontawesome.com License - https://fontawesome.com/license (Commercial License) Copyright 2021 Fonticons, Inc. --><path d="M528 0h-480C21.5 0 0 21.5 0 48v320C0 394.5 21.5 416 48 416h192L224 464H152C138.8 464 128 474.8 128 488S138.8 512 152 512h272c13.25 0 24-10.75 24-24s-10.75-24-24-24H352L336 416h192c26.5 0 48-21.5 48-48v-320C576 21.5 554.5 0 528 0zM512 352H64V64h448V352zM208 239.1H256v48C256 296.8 263.2 304 272 304h32c8.801 0 16-7.202 16-16v-48h48C376.8 239.1 384 232.8 384 224V191.1C384 183.2 376.8 176 368 176H320V128c0-8.801-7.199-16-16-16h-32C263.2 112 256 119.2 256 128v48H208C199.2 176 192 183.2 192 191.1V224C192 232.8 199.2 239.1 208 239.1z"/></svg>