<svg xmlns="http://www.w3.org/2000/svg" viewBox="0 0 384 512"><!--! Font Awesome Pro 6.0.0-beta3 by @fontawesome - https://fontawesome.com License - https://fontawesome.com/license (Commercial License) Copyright 2021 Fonticons, Inc. --><path d="M25.37 134.6l45.26-45.25c12.5-12.5 32.76-12.5 45.25 0l129.6 129.6l67.88-67.88c9.148-9.148 22.92-11.89 34.87-6.938C360.2 149.1 368 160.8 368 173.7l.0001 226.3c0 8.836-3.58 16.84-9.369 22.63C352.8 428.4 344.8 432 336 432H109.7c-12.95 0-24.61-7.789-29.57-19.75c-4.949-11.95-2.209-25.72 6.939-34.87l67.88-67.88L25.37 179.9C12.87 167.4 12.88 147.1 25.37 134.6z"/></svg>