<svg xmlns="http://www.w3.org/2000/svg" viewBox="0 0 512 512"><!--! Font Awesome Pro 6.0.0-beta3 by @fontawesome - https://fontawesome.com License - https://fontawesome.com/license (Commercial License) Copyright 2021 Fonticons, Inc. --><path d="M511.1 169.2c0 43.27-16.51 86.6-49.49 119.6c-35.49 35.5-78.45 63.12-142.4 63.12L234.2 351.1l-40.48 40.58c-6.102 6.103-8.917 13.98-8.917 22.14c0 13.69 7.243 18.23 7.243 37.02c0 33.68-27.44 60.3-60.36 60.3c-15.58 0-31.04-6.024-42.7-17.69c-11.49-11.58-16.81-26.41-16.81-41.42c0-4.914 .5723-9.865 1.682-14.71c-4.84 1.11-9.793 1.683-14.72 1.683c-42.25 0-59.13-36.72-59.13-59.58c0-11.46 3.27-22.98 9.99-33.09c11.42-17.41 30.52-27.19 50.32-27.19c18.99 0 23.06 7.244 37.06 7.244c8.182 0 16.09-2.815 22.11-8.918l40.56-40.48l.0502-85.9c0-63.1 27.61-107 63.1-142.4c33.06-33.06 76.3-49.57 119.6-49.57s86.62 16.53 119.6 49.59C495.5 82.6 511.1 125.9 511.1 169.2z"/></svg>