<svg xmlns="http://www.w3.org/2000/svg" viewBox="0 0 384 512"><!--! Font Awesome Pro 6.0.0-beta3 by @fontawesome - https://fontawesome.com License - https://fontawesome.com/license (Commercial License) Copyright 2021 Fonticons, Inc. --><path d="M192 0C86 0 0 86 0 192v176C0 447.5 64.5 512 144 512s144-64.5 144-144v-9.875C345.4 324.9 384 263 384 192C384 86 298 0 192 0zM280 208C266.8 208 256 197.2 256 184C256 153.1 230.9 128 200 128h-16C153.1 128 128 153.1 128 184v31.72l13.92 5.576c18.73 7.477 31.67 23.86 34.6 43.82c2.955 19.92-4.672 39.33-20.4 51.92l-37.15 29.71C114.6 350.2 109.5 352 104.2 352c-7.287 0-14.35-3.367-18.92-9.035C77 332.6 78.68 317.5 89 309.2l37.12-29.69c3.24-2.592 3.119-6.051 2.916-7.418C128.8 270.7 127.1 267.4 124.1 265.8L95.12 254.3C85.93 250.6 80 241.9 80 231.1V184c0-57.35 46.65-104 104-104h16c57.35 0 104 46.65 104 104C304 197.2 293.2 208 280 208z"/></svg>