<svg xmlns="http://www.w3.org/2000/svg" viewBox="0 0 512 512"><!--! Font Awesome Pro 6.0.0-beta3 by @fontawesome - https://fontawesome.com License - https://fontawesome.com/license (Commercial License) Copyright 2021 Fonticons, Inc. --><path d="M483.9 28.12c-37.47-37.5-98.25-37.5-135.7 0l-77.13 77.1l-13.09-13.09C248.5 82.66 233.3 82.81 224 92.13L183 133.1c-9.375 9.344-9.375 24.56 0 33.94l161.9 161.9c9.438 9.438 24.66 9.312 33.94 0L419.9 288c9.375-9.375 9.375-24.56 0-33.94l-13.09-13.09l77.1-77.13C521.4 126.3 521.4 65.62 483.9 28.12zM139.2 421.7C137.7 423.1 135.6 424 133.5 424H88v-45.5c0-2.1 .8555-4.16 2.348-5.652L216.1 246.2L177.4 206.6l-126.6 126.6C38.75 345.3 32 361.5 32 378.5V424L0 480l32 32l56-32h45.5c16.97 0 33.25-6.75 45.25-18.75l126.6-126.6L265.8 295L139.2 421.7z"/></svg>