<svg xmlns="http://www.w3.org/2000/svg" viewBox="0 0 640 512"><!--! Font Awesome Pro 6.0.0-beta3 by @fontawesome - https://fontawesome.com License - https://fontawesome.com/license (Commercial License) Copyright 2021 Fonticons, Inc. --><path d="M630.8 469.1l-103.6-81.21c31.37-31.96 57.89-70.65 77.32-114.9c1.906-4.43 3.469-12.07 3.469-17.02c0-4.976-1.562-12.6-3.469-17.03C550.3 115.5 442.9 32 320 32c-62.69 0-121.2 21.96-170.8 59.64L38.81 5.116C34.41 1.679 29.19 0 24.03 0C16.91 0 9.839 3.158 5.121 9.189c-8.187 10.44-6.37 25.53 4.068 33.7l591.1 463.1c10.5 8.203 25.57 6.333 33.69-4.073C643.1 492.4 641.2 477.3 630.8 469.1zM463.1 256c0 24.85-6.695 48.01-17.94 68.3l-38.55-30.22c5.238-11.69 8.492-24.42 8.492-38.08c0-52.1-43-96-95.1-96c-2.301 .0313-5.574 .4443-8.461 .7685C316.8 170 320 180.6 320 192c0 10.17-2.578 19.64-6.836 28.13L223.7 150C249.2 126.6 282.7 112 320 112C399.5 112 463.1 176.5 463.1 256zM36.85 236.1l307.5 242.8c13.9-1.262 27.55-3.609 40.91-6.941L50.88 207.9C45.92 217.1 41.18 226.4 36.85 236.1zM292.1 478.4L37.55 277.4C88.16 389 182.5 466.1 292.1 478.4zM67.41 180.2l354.3 279.7c10.62-4.277 21.02-9.117 31.12-14.66L85.2 155C78.95 163.1 73.08 171.5 67.41 180.2z"/></svg>