<svg xmlns="http://www.w3.org/2000/svg" viewBox="0 0 512 512"><!--! Font Awesome Pro 6.1.1 by @fontawesome - https://fontawesome.com License - https://fontawesome.com/license (Commercial License) Copyright 2022 Fonticons, Inc. --><path d="M320 196.5C320 204.3 322.5 211.9 327 218C312.5 211.4 295.5 212.4 281.8 221L264.5 231.8C259.3 235.1 252.7 235.1 247.5 231.8L230.2 221C216.5 212.4 199.5 211.4 184.1 218C189.5 211.9 191.1 204.3 191.1 196.5V192C191.1 174.3 177.7 160 159.1 160H119.1C89.07 160 63.1 134.9 63.1 104C63.1 73.07 89.07 48 119.1 48C128.9 48 137.3 50.08 144.8 53.78C149.7 23.29 176.1 0 207.1 0C227.1 0 244.3 8.38 255.1 21.67C267.7 8.38 284.9 0 304 0C335.9 0 362.3 23.29 367.2 53.78C374.7 50.08 383.1 48 392 48C422.9 48 448 73.07 448 104C448 134.9 422.9 160 392 160H352C334.3 160 320 174.3 320 192V196.5zM298.1 248C304 244.1 310.4 244.1 315.4 248C315.5 248.1 315.6 248.1 315.7 248.2L332.1 258.1C348.5 268.7 368.3 268.7 383.8 258.1L401.1 248.2C406.3 244.9 412.9 244.9 418.1 248.2L438.8 261.1C451.6 269.1 467.4 270.6 481.4 265.2L511.1 253.5C511.1 254.3 512 255.2 512 256C512 397.4 397.4 512 256 512C114.6 512 0 397.4 0 256C0 255.2 .0042 254.3 .0125 253.5L30.55 265.2C44.63 270.6 60.43 269.1 73.22 261.1L93.92 248.2C99.11 244.9 105.7 244.9 110.9 248.2L128.2 258.1C143.7 268.7 163.5 268.7 179 258.1L196.3 248.2C196.4 248.1 196.5 248.1 196.6 248C201.6 244.1 207.1 244.1 213 248C213.1 248.1 213.2 248.1 213.3 248.2L230.6 258.1C246.1 268.7 265.9 268.7 281.4 258.1L298.7 248.2C298.8 248.1 298.9 248.1 298.1 248L298.1 248zM176.4 304C158.7 304 144.4 318.3 144.4 336C144.4 353.7 158.7 368 176.4 368C194 368 208.4 353.7 208.4 336C208.4 318.3 194 304 176.4 304zM336.4 368C354 368 368.4 353.7 368.4 336C368.4 318.3 354 304 336.4 304C318.7 304 304.4 318.3 304.4 336C304.4 353.7 318.7 368 336.4 368zM202.7 448H309.3C315.2 448 320 443.2 320 437.3C320 407.9 296.1 384 266.7 384H245.3C215.9 384 191.1 407.9 191.1 437.3C191.1 443.2 196.8 448 202.7 448H202.7z"/></svg>