<svg xmlns="http://www.w3.org/2000/svg" viewBox="0 0 512 512"><!--! Font Awesome Pro 6.1.1 by @fontawesome - https://fontawesome.com License - https://fontawesome.com/license (Commercial License) Copyright 2022 Fonticons, Inc. --><path d="M0 256C0 114.6 114.6 0 256 0C397.4 0 512 114.6 512 256C512 397.4 397.4 512 256 512C114.6 512 0 397.4 0 256zM118.8 212.8L154.8 256L118.8 299.2C116.1 301.4 116 304.1 116 306.9C116 315.8 125.6 321.6 133.5 317.3L223.4 269.4C234.1 263.7 234.1 248.3 223.4 242.6L133.5 194.7C125.6 190.4 116 196.2 116 205.1C116 207.9 116.1 210.6 118.8 212.8V212.8zM288.6 242.6C277.9 248.3 277.9 263.7 288.6 269.4L378.5 317.3C386.4 321.6 396 315.8 396 306.9C396 304.1 395 301.4 393.2 299.2L357.2 256L393.2 212.8C395 210.6 396 207.9 396 205.1C396 196.2 386.4 190.4 378.5 194.7L288.6 242.6zM216.9 354.7C211.5 351.1 204.5 351.1 199.1 354.7L158.9 381.5L135.2 369.7C127.3 365.7 117.6 368.9 113.7 376.8C109.7 384.7 112.9 394.4 120.8 398.3L152.8 414.3C157.1 416.9 164.1 416.5 168.9 413.3L208 387.2L247.1 413.3C252.5 416.9 259.5 416.9 264.9 413.3L304 387.2L343.1 413.3C347.9 416.5 354 416.9 359.2 414.3L391.2 398.3C399.1 394.4 402.3 384.7 398.3 376.8C394.4 368.9 384.7 365.7 376.8 369.7L353.1 381.5L312.9 354.7C307.5 351.1 300.5 351.1 295.1 354.7L256 380.8L216.9 354.7z"/></svg>