<svg xmlns="http://www.w3.org/2000/svg" viewBox="0 0 512 512"><!--! Font Awesome Pro 6.0.0-beta3 by @fontawesome - https://fontawesome.com License - https://fontawesome.com/license (Commercial License) Copyright 2021 Fonticons, Inc. --><path d="M385.9 449.9C404.1 431.8 404.7 402.8 387.8 384C404.7 365.2 404.1 336.2 385.9 318.1C384.9 317 383.8 316 382.7 315.1C386.4 299.4 382.2 282.3 369.9 270.1C358.6 258.7 342.9 254.2 328.1 256.6C310.5 236.6 284.7 223.1 256 223.1C217.8 223.1 184.8 246.3 169.3 278.7C167.6 278.5 165.8 278.4 164 278.4C135.3 278.4 112 301.7 112 330.4V416.8C112 438.7 117.5 459.3 127.3 477.4C51.17 432.1 0 350.5 0 256C0 114.6 114.6 0 256 0C397.4 0 512 114.6 512 256C512 369.1 438.7 465.1 336.9 498.9L385.9 449.9zM182 99.51L102 163.5C95.1 169 93.99 179.1 99.51 185.1C105 192.9 115.1 194 121.1 188.5L201.1 124.5C208.9 118.1 210 108.9 204.5 102C198.1 95.1 188.9 93.99 182 99.51V99.51zM390 188.5C396.9 194 406.1 192.9 412.5 185.1C418 179.1 416.9 169 409.1 163.5L329.1 99.51C323.1 93.99 313 95.1 307.5 102C301.1 108.9 303.1 118.1 310 124.5L390 188.5zM299.3 276.7C305.6 282.9 305.6 293.1 299.3 299.3L248 350.6C245.4 353.2 245.4 357.4 248 360C250.6 362.6 254.8 362.6 257.4 360L324.7 292.7C330.9 286.4 341.1 286.4 347.3 292.7C353.6 298.9 353.6 309.1 347.3 315.3L280 382.6C277.4 385.2 277.4 389.4 280 392C282.6 394.6 286.8 394.6 289.4 392L340.7 340.7C346.9 334.4 357.1 334.4 363.3 340.7C369.6 346.9 369.6 357.1 363.3 363.3L312 414.6C309.4 417.2 309.4 421.4 312 424C314.6 426.6 318.8 426.6 321.4 424L340.7 404.7C346.9 398.4 357.1 398.4 363.3 404.7C369.6 410.9 369.6 421.1 363.3 427.3L306.5 484.1C288.7 501.1 264.4 512 239.2 512C186.6 512 144 469.4 144 416.8V330.4C144 319.4 152.1 310.4 164 310.4C175 310.4 184 319.4 184 330.4V350.1C184 357.2 192.6 360.8 197.7 355.7L276.7 276.7C282.9 270.4 293.1 270.4 299.3 276.7L299.3 276.7z"/></svg>