<svg xmlns="http://www.w3.org/2000/svg" viewBox="0 0 512 512"><!--! Font Awesome Pro 6.1.1 by @fontawesome - https://fontawesome.com License - https://fontawesome.com/license (Commercial License) Copyright 2022 Fonticons, Inc. --><path d="M35.23 126.3C14.94 120.8 0 102.7 0 81.01C0 61.02 28.55 20.65 41.6 3.281C44.8-1.094 51.2-1.094 54.4 3.281C63.94 15.86 81.49 40.51 90.43 60.74C90.75 61.46 91.06 62.17 91.35 62.87C94.22 69.74 95.1 76.01 95.1 81.01C95.1 107 74.46 128 47.1 128C43.58 128 39.3 127.4 35.23 126.3L35.23 126.3zM512 256C512 397.4 397.4 512 256 512C114.6 512 0 397.4 0 256C0 220.2 7.341 186.1 20.6 155.2C29.19 158.3 38.43 160 48 160C91.45 160 128 125.4 128 81.01C128 69.58 124.2 58.57 120.9 50.53C119.6 47.43 118.1 44.32 116.6 41.23C156.7 15.15 204.6 .0008 256 .0008C397.4 .0008 512 114.6 512 256V256zM256 384C284.5 384 304.4 397.7 316.1 410.7C322 417.3 332.1 417.8 338.7 411.9C345.3 405.1 345.8 395.9 339.9 389.3C323.8 371.4 295.7 352 255.1 352C216.3 352 188.2 371.4 172.1 389.3C166.2 395.9 166.7 405.1 173.3 411.9C179.9 417.8 189.1 417.3 195.9 410.7C207.6 397.7 227.5 384 255.1 384H256zM112 288H208C216.8 288 224 280.8 224 272C224 263.2 216.8 256 208 256H112C103.2 256 96 263.2 96 272C96 280.8 103.2 288 112 288zM304 256C295.2 256 288 263.2 288 272C288 280.8 295.2 288 304 288H400C408.8 288 416 280.8 416 272C416 263.2 408.8 256 400 256H304z"/></svg>