<svg xmlns="http://www.w3.org/2000/svg" viewBox="0 0 512 512"><!--! Font Awesome Pro 6.0.0-beta3 by @fontawesome - https://fontawesome.com License - https://fontawesome.com/license (Commercial License) Copyright 2021 Fonticons, Inc. --><path d="M489.7 312.1L424.3 274.3C423 273.6 421.6 272.9 420.1 272.5C411.6 270.3 402.8 275.3 400.5 283.9C382.5 351.5 324.1 400 255.1 400C187.9 400 129.5 351.5 111.5 283.9C109.2 275.3 100.4 270.3 91.87 272.5C83.33 274.8 78.26 283.6 80.54 292.1C101.1 372.3 171.9 432 256 432C287.1 432 316.3 423.8 341.8 409.4L409.9 449.9C412.6 451.5 415.4 452.9 418.1 454.1C373.1 490.3 317.5 512 256 512C114.6 512 0 397.4 0 256C0 114.6 114.6 0 256 0C397.4 0 512 114.6 512 256C512 278.8 509 300.1 503.4 322C499.3 318.3 494.7 314.1 489.7 312.1L489.7 312.1zM226.5 231.6C229.8 230.5 232 227.4 232 223.1C232 206.1 225.3 188.4 215.4 175.2C205.6 162.2 191.5 151.1 176 151.1C160.5 151.1 146.4 162.2 136.6 175.2C126.7 188.4 120 206.1 120 223.1C120 227.4 122.2 230.5 125.5 231.6C128.7 232.7 132.3 231.6 134.4 228.8L134.4 228.8L134.6 228.5C134.8 228.3 134.1 228 135.3 227.6C135.1 226.8 136.9 225.7 138.1 224.3C140.6 221.4 144.1 217.7 148.3 213.1C157.1 206.2 167.2 200 176 200C184.8 200 194.9 206.2 203.7 213.1C207.9 217.7 211.4 221.4 213.9 224.3C215.1 225.7 216 226.8 216.7 227.6C217 228 217.2 228.3 217.4 228.5L217.6 228.8L217.6 228.8C219.7 231.6 223.3 232.7 226.5 231.6V231.6zM377.6 228.8C379.7 231.6 383.3 232.7 386.5 231.6C389.8 230.5 392 227.4 392 223.1C392 206.1 385.3 188.4 375.4 175.2C365.6 162.2 351.5 151.1 336 151.1C320.5 151.1 306.4 162.2 296.6 175.2C286.7 188.4 280 206.1 280 223.1C280 227.4 282.2 230.5 285.5 231.6C288.7 232.7 292.3 231.6 294.4 228.8L294.4 228.8L294.6 228.5C294.8 228.3 294.1 228 295.3 227.6C295.1 226.8 296.9 225.7 298.1 224.3C300.6 221.4 304.1 217.7 308.3 213.1C317.1 206.2 327.2 200 336 200C344.8 200 354.9 206.2 363.7 213.1C367.9 217.7 371.4 221.4 373.9 224.3C375.1 225.7 376 226.8 376.7 227.6C377 228 377.2 228.3 377.4 228.5L377.6 228.8L377.6 228.8zM425.1 311.7L473.7 339.8C496.7 353.1 504.5 382.4 491.3 405.4C478.1 428.1 448.9 435.8 426.3 422.4L370.6 389.3C394.6 368.8 413.5 342.2 425.1 311.7V311.7z"/></svg>