<svg xmlns="http://www.w3.org/2000/svg" viewBox="0 0 512 512"><!--! Font Awesome Pro 6.1.1 by @fontawesome - https://fontawesome.com License - https://fontawesome.com/license (Commercial License) Copyright 2022 Fonticons, Inc. --><path d="M512 256C512 264.3 511.6 272.6 510.8 280.7C510.8 281.2 510.8 281.8 510.7 282.3L495.9 482.4C494.7 499.1 480.8 512 464 512C447.2 512 433.3 499.1 432.1 482.4L429.3 444.4C424.3 449 419.1 453.5 413.7 457.7L402.2 490.6C397.7 503.4 385.6 512 372 512C360.5 512 350.1 505.9 344.5 496.3C316.9 506.5 287.1 512 256 512C186.6 512 123.7 484.4 77.6 439.6C71.87 444.9 64.26 448 56 448C40.36 448 27.01 436.7 24.44 421.3L6.455 313.4C2.231 294.9 0 275.7 0 256C0 114.6 114.6 0 256 0C397.4 0 512 114.6 512 256H512zM56 416L76.05 295.7C78.12 283.3 68.56 272 56 272C43.44 272 33.88 283.3 35.95 295.7L56 416zM372 480L400 400V360H344V400L372 480zM352 304H344V344H399.3C395.5 321.3 375.8 304 352 304zM328 344V304H264V344H328zM328 400V360H264V400L296 448L328 400zM184 304V344H248V304H184zM184 360V400H248V360H184zM168 344V304H160C136.2 304 116.5 321.3 112.7 344H168zM168 400V360H112.7C116.5 382.7 136.2 400 160 400H168zM176.4 176C158.7 176 144.4 190.3 144.4 208C144.4 225.7 158.7 240 176.4 240C194 240 208.4 225.7 208.4 208C208.4 190.3 194 176 176.4 176zM336.4 240C354 240 368.4 225.7 368.4 208C368.4 190.3 354 176 336.4 176C318.7 176 304.4 190.3 304.4 208C304.4 225.7 318.7 240 336.4 240zM464 480L485.8 247.9C486.1 235.1 476.9 224 464 224C451.1 224 441 235.1 442.2 247.9L464 480z"/></svg>