<svg xmlns="http://www.w3.org/2000/svg" viewBox="0 0 640 512"><!--! Font Awesome Pro 6.1.1 by @fontawesome - https://fontawesome.com License - https://fontawesome.com/license (Commercial License) Copyright 2022 Fonticons, Inc. --><path d="M485.2 170.5L447.2 143.5C436.4 135.7 422.1 134.1 411.2 138.1C405 136.7 398.6 136 392 136C343.4 136 304 175.4 304 224C304 264.3 331.1 298.3 368.1 308.7C368 309.8 368 310.9 368 311.1C368 334.1 385.9 352 408 352H416C416 352.3 416 352.6 416 352.9C416 374.1 433.9 392.9 456 392.9H520.8C526.3 392.9 531.7 392.5 537.1 391.8C491.8 463.1 411.5 512 319.1 512C210.4 512 116.1 443.2 80.43 346.4C92.79 350.7 105.9 352.9 119.2 352.9H183.1C206.1 352.9 223.1 334.1 223.1 312.9C223.1 312.6 223.1 312.3 223.1 312H232C254.1 312 272 294.1 272 272C272 269.4 271.8 266.9 271.3 264.5C281.4 257.3 288 245.4 288 231.1C288 218.6 281.4 206.7 271.3 199.5C271.8 197.1 272 194.6 272 192C272 169.9 254.1 152 232 152H156.8L158.2 150.5C175.4 133.4 175.4 105.5 158.2 88.32C152.3 82.35 144.1 78.45 137.3 76.63C183.8 29.34 248.5 0 319.1 0C417.5 0 502.2 54.49 545.5 134.7C529.6 128.2 510.7 131.4 497.8 144.3C490.4 151.7 486.2 160.1 485.2 170.5V170.5zM319.1 448C355.3 448 384 426.5 384 400C384 373.5 355.3 352 319.1 352C284.7 352 255.1 373.5 255.1 400C255.1 426.5 284.7 448 319.1 448zM374.5 240C370.7 235.8 368.4 230.1 368.4 224C368.4 210.7 379.1 200 392.4 200C405.6 200 416.4 210.7 416.4 224C416.4 230.1 414.1 235.8 410.3 240H374.5zM248 192C248 200.8 240.8 208 232 208H169.6C167.4 208 165.6 209.8 165.6 212C165.6 214.2 167.4 216 169.6 216H248C256.8 216 264 223.2 264 232C264 240.8 256.8 248 248 248H169.6C167.4 248 165.6 249.8 165.6 252C165.6 254.2 167.4 256 169.6 256H232C240.8 256 248 263.2 248 272C248 280.8 240.8 288 232 288H170C167.6 288 165.6 289.1 165.6 292.5C165.6 294.9 167.6 296.9 170 296.9H183.1C192.8 296.9 199.1 304.1 199.1 312.9C199.1 321.7 192.8 328.9 183.1 328.9H119.2C93.95 328.9 69.73 318.9 51.88 301C14.98 264.1 14.71 204.4 51.08 167.2L51.88 166.4L112.1 105.3C120.8 97.48 133.5 97.48 141.3 105.3C149.1 113.1 149.1 125.8 141.3 133.6L112.5 162.3C107.5 167.4 111 176 118.2 176H232C240.8 176 248 183.2 248 192L248 192zM433.3 162.1L515.1 221.4C517.3 223 520.1 223.7 522.9 223.4C532.2 222.3 536.1 210.1 529.5 204.4L514.7 189.6C506.9 181.8 506.9 169.1 514.7 161.3C522.5 153.5 535.2 153.5 543 161.3L588.1 206.4L588.9 207.2C625.3 244.4 625 304.1 588.1 341C570.3 358.9 546.1 368.9 520.8 368.9H456C447.2 368.9 440 361.7 440 352.9C440 344.1 447.2 336.9 456 336.9H475.5C478 336.9 480 334.9 480 332.5C480 329.1 478 328 475.5 328H408C399.2 328 392 320.8 392 311.1C392 303.2 399.2 295.1 408 295.1H476C478.2 295.1 480 294.2 480 291.1C480 289.8 478.2 287.1 476 287.1H392C383.2 287.1 376 280.8 376 271.1C376 263.2 383.2 255.1 392 255.1H466.6C473.1 255.1 480 249.1 480 242.6C480 238.2 477.9 234.2 474.4 231.6L414.7 189C407.5 183.9 405.8 173.9 410.1 166.7C416.1 159.5 426.1 157.8 433.3 162.1H433.3z"/></svg>