<svg xmlns="http://www.w3.org/2000/svg" viewBox="0 0 512 512"><!--! Font Awesome Pro 6.1.1 by @fontawesome - https://fontawesome.com License - https://fontawesome.com/license (Commercial License) Copyright 2022 Fonticons, Inc. --><path d="M384 128c35.38 0 64-28.62 64-64s-28.62-64-64-64s-64 28.62-64 64S348.6 128 384 128zM128 128c35.38 0 64-28.62 64-64S163.4 0 128 0S64 28.62 64 64S92.63 128 128 128zM176 407.4C156.9 396.3 144 375.6 144 352V304c0-34.31 21.72-63.65 52.13-74.99C183.6 214.9 176 196.3 176 176c0-4.447 .6133-8.734 1.314-12.99C172.2 161.1 166.7 160 160.1 160H95C73.57 160 54.74 174.2 48.85 194.8l-42.4 148.4C.6119 363.7 15.96 384 37.22 384H64v96c0 17.67 14.33 32 32 32h64c8.014 0 15.12-3.229 20.73-8.096C177.7 496.5 176 488.5 176 480V407.4zM505.5 343.2l-42.4-148.4C457.3 174.2 438.4 160 416.1 160h-65.99c-5.713 0-11.17 1.143-16.32 3.014C335.4 167.3 336 171.6 336 176c0 20.31-7.609 38.88-20.13 53.01C346.3 240.3 368 269.7 368 304V352c0 23.64-12.88 44.33-32 55.41V480c0 8.461-1.736 16.5-4.732 23.9C336.9 508.8 343.1 512 352 512h64c17.67 0 32-14.33 32-32v-96h26.78C496 384 511.4 363.7 505.5 343.2zM336 304C336 277.5 314.5 256 288 256H224C197.5 256 176 277.5 176 304V352c0 17.67 14.33 32 32 32v96c0 17.67 14.33 32 32 32h32c17.67 0 32-14.33 32-32v-96c17.67 0 32-14.33 32-32V304zM256 224c26.53 0 48-21.47 48-48S282.5 128 256 128S208 149.5 208 176S229.5 224 256 224z"/></svg>