<svg xmlns="http://www.w3.org/2000/svg" viewBox="0 0 448 512"><!--! Font Awesome Pro 6.1.1 by @fontawesome - https://fontawesome.com License - https://fontawesome.com/license (Commercial License) Copyright 2022 Fonticons, Inc. --><path d="M96 128c35.38 0 64-28.62 64-64S131.4 0 96 0S32 28.62 32 64S60.63 128 96 128zM144 407.4C124.9 396.3 112 375.6 112 352V304c0-34.31 21.72-63.65 52.13-74.99C151.6 214.9 144 196.3 144 176c0-4.561 .6107-8.965 1.347-13.32C139.8 161.1 134.1 160 128 160H64C28.65 160 0 188.7 0 224v96c0 17.67 14.33 32 32 32v128c0 17.67 14.33 32 32 32h64c8.014 0 15.12-3.229 20.73-8.096C145.7 496.5 144 488.5 144 480V407.4zM352 128c35.38 0 64-28.62 64-64s-28.62-64-64-64s-64 28.62-64 64S316.6 128 352 128zM384 160h-64c-6.055 0-11.8 1.111-17.35 2.682C303.4 167 304 171.4 304 176c0 20.31-7.609 38.88-20.13 53.01C314.3 240.3 336 269.7 336 304V352c0 23.64-12.88 44.33-32 55.41V480c0 8.461-1.736 16.5-4.732 23.9C304.9 508.8 311.1 512 320 512h64c17.67 0 32-14.33 32-32v-128c17.67 0 32-14.33 32-32V224C448 188.7 419.3 160 384 160zM224 224c26.53 0 48-21.47 48-48S250.5 128 224 128S176 149.5 176 176S197.5 224 224 224zM304 304C304 277.5 282.5 256 256 256H192C165.5 256 144 277.5 144 304V352c0 17.67 14.33 32 32 32v96c0 17.67 14.33 32 32 32h32c17.67 0 32-14.33 32-32v-96c17.67 0 32-14.33 32-32V304z"/></svg>