<svg xmlns="http://www.w3.org/2000/svg" viewBox="0 0 384 512"><!--! Font Awesome Pro 6.1.1 by @fontawesome - https://fontawesome.com License - https://fontawesome.com/license (Commercial License) Copyright 2022 Fonticons, Inc. --><path d="M296 368h-48V416h48V368zM256 0v128h128L256 0zM296 288h-48v48h48V288zM216 288h-48v48h48V288zM216 368h-48V416h48V368zM136 368h-48V416h48V368zM224 128L224 0H48C21.49 0 0 21.49 0 48v416C0 490.5 21.49 512 48 512h288c26.51 0 48-21.49 48-48V160h-127.1C238.3 160 224 145.7 224 128zM328 240v192c0 8.875-7.125 16-16 16h-240c-8.875 0-16-7.125-16-16v-192c0-8.875 7.125-16 16-16h240C320.9 224 328 231.1 328 240zM136 288h-48v48h48V288z"/></svg>