<svg xmlns="http://www.w3.org/2000/svg" viewBox="0 0 384 512"><!--! Font Awesome Pro 6.0.0-beta3 by @fontawesome - https://fontawesome.com License - https://fontawesome.com/license (Commercial License) Copyright 2021 Fonticons, Inc. --><path d="M224 128L224 0H48C21.49 0 0 21.49 0 48v416C0 490.5 21.49 512 48 512h288c26.51 0 48-21.49 48-48V160h-127.1C238.3 160 224 145.7 224 128zM151.1 432.9c-1.955 1.957-4.443 3.285-7.152 3.828L88.42 447.9c-4.896 .9805-9.259-3.382-8.281-8.276l11.11-55.5c.543-2.711 1.875-5.203 3.83-7.156l97.61-97.61l56.01 56.01L151.1 432.9zM279.4 232.2l16.41 16.41c10.94 10.93 10.93 28.66-.002 39.6l-24.48 24.48l-56.01-56.01l24.48-24.48C250.7 221.3 268.5 221.3 279.4 232.2zM256 0v128h128L256 0z"/></svg>