<svg xmlns="http://www.w3.org/2000/svg" viewBox="0 0 384 512"><!--! Font Awesome Pro 6.1.1 by @fontawesome - https://fontawesome.com License - https://fontawesome.com/license (Commercial License) Copyright 2022 Fonticons, Inc. --><path d="M224 128L224 0H48C21.49 0 0 21.49 0 48v416C0 490.5 21.49 512 48 512h288c26.51 0 48-21.49 48-48V160h-127.1C238.3 160 224 145.7 224 128zM312.1 407c9.375 9.375 9.375 24.56 0 33.94C308.3 445.7 302.2 448 296 448s-12.28-2.344-16.97-7.031l-48.67-48.67C214.5 402.1 195.1 408 176 408c-57.44 0-104-46.56-104-104S118.6 200 176 200s104 46.56 104 104c0 20-5.922 38.5-15.71 54.36L312.1 407zM256 0v128h128L256 0zM176 248c-30.88 0-56 25.12-56 56c0 30.88 25.12 56 56 56c30.88 0 56-25.12 56-56C232 273.1 206.9 248 176 248z"/></svg>