<svg xmlns="http://www.w3.org/2000/svg" viewBox="0 0 448 512"><!--! Font Awesome Pro 6.1.1 by @fontawesome - https://fontawesome.com License - https://fontawesome.com/license (Commercial License) Copyright 2022 Fonticons, Inc. --><path d="M352 0v96h96L352 0zM320 96V0H144C117.5 0 96 21.49 96 48v320C96 394.5 117.5 416 144 416h256c26.51 0 48-21.49 48-48V128h-96C334.4 128 320 113.6 320 96zM328 512h-208C53.83 512 0 458.2 0 392v-272C0 106.8 10.75 96 24 96S48 106.8 48 120v272c0 39.7 32.3 72 72 72h208c13.25 0 24 10.75 24 24S341.3 512 328 512z"/></svg>