<svg xmlns="http://www.w3.org/2000/svg" viewBox="0 0 576 512"><!--! Font Awesome Pro 6.0.0-beta3 by @fontawesome - https://fontawesome.com License - https://fontawesome.com/license (Commercial License) Copyright 2021 Fonticons, Inc. --><path d="M382.8 199.1l121.9-146.1C521.1 31.28 506.8 0 479.3 0H32.7C5.213 0-9.965 31.28 7.375 52.19L192 274.8V368c0 7.828 3.812 15.17 10.25 19.66l66.88 46.8C260.7 413.9 256 391.5 256 368C256 288.1 309.6 220.5 382.8 199.1zM432 224C352.5 224 288 288.5 288 368s64.47 144 144 144s144-64.47 144-144S511.5 224 432 224zM488.5 401.9c6.242 6.242 6.252 16.37 .0098 22.62c-6.24 6.242-16.37 6.231-22.62-.0113l-33.91-33.91l-33.91 33.91c-6.242 6.242-16.37 6.253-22.62 .0106s-6.232-16.37 .0098-22.62l33.91-33.91l-33.91-33.91c-6.242-6.242-6.251-16.37-.009-22.62s16.37-6.232 22.62 .0106l33.91 33.91l33.91-33.91c6.242-6.242 16.37-6.254 22.61-.0113s6.233 16.37-.009 22.62l-33.91 33.91L488.5 401.9z"/></svg>