<svg xmlns="http://www.w3.org/2000/svg" viewBox="0 0 384 512"><!--! Font Awesome Pro 6.0.0-beta3 by @fontawesome - https://fontawesome.com License - https://fontawesome.com/license (Commercial License) Copyright 2021 Fonticons, Inc. --><path d="M336 272H320v-64H64v64H48C39.16 272 32 279.2 32 288v96c0 8.836 7.164 16 16 16H64v64H48C39.16 464 32 471.2 32 480v16C32 504.8 39.16 512 48 512h288c8.836 0 16-7.164 16-16V480c0-8.838-7.164-16-16-16H320v-64h16c8.836 0 16-7.164 16-16V288C352 279.2 344.8 272 336 272zM192 400c-35.35 0-64-28.65-64-64c0-35.35 28.65-64 64-64s64 28.65 64 64C256 371.3 227.3 400 192 400zM56 176h272C341.3 176 352 165.3 352 152C352 138.7 341.3 128 328 128h-12.53C303.9 83.17 268.8 48.13 224 36.53V32c0-17.69-14.31-32-32-32S160 14.31 160 32v4.525C115.2 48.13 80.13 83.17 68.53 128H56C42.75 128 32 138.7 32 152C32 165.3 42.75 176 56 176z"/></svg>