<svg xmlns="http://www.w3.org/2000/svg" viewBox="0 0 576 512"><!--! Font Awesome Pro 6.1.1 by @fontawesome - https://fontawesome.com License - https://fontawesome.com/license (Commercial License) Copyright 2022 Fonticons, Inc. --><path d="M576 256c0 29.08-55.17 111.3-135.6 157.8c-10.78 6.22-24.36-1.27-24.36-13.67l.0001-120.1h-40v71.96c0 13.25-10.75 23.99-24 23.99s-24-10.74-24-23.99V279.1h-48v71.96c0 13.25-10.75 23.99-24 23.99s-24-10.74-24-23.99V279.1h-48v71.96c0 13.25-10.75 23.99-24 23.99s-24-10.74-24-23.99V279.1L96.01 279.1v54.78c0 9.003-3.793 17.59-10.45 23.65L27.45 411.3c-12.04 11.92-30.15-.8124-27.11-19.09L28.8 256L.338 119.7c-3.037-18.28 15.08-31.01 27.23-18.96L85.54 153.5c6.664 6.064 10.46 14.66 10.46 23.67v54.85l40 .0126V160.1c0-13.25 10.75-23.99 24-23.99s24 10.74 24 23.99v71.96h48V160.1c0-13.25 10.75-23.99 24-23.99s24 10.74 24 23.99v71.96h48V160.1c0-13.25 10.75-23.99 24-23.99s24 10.74 24 23.99v71.96h40L416 111.9c0-12.4 13.59-19.89 24.36-13.67C520.8 144.7 576 226.9 576 256z"/></svg>