<svg xmlns="http://www.w3.org/2000/svg" viewBox="0 0 512 512"><!--! Font Awesome Pro 6.1.1 by @fontawesome - https://fontawesome.com License - https://fontawesome.com/license (Commercial License) Copyright 2022 Fonticons, Inc. --><path d="M240 216c-30.88 0-56 25.12-56 56c0 30.88 25.12 56 56 56c30.88 0 56-25.12 56-56C296 241.1 270.9 216 240 216zM464 96h-192l-64-64h-160C21.5 32 0 53.5 0 80v352C0 458.5 21.5 480 48 480h416c26.5 0 48-21.5 48-48v-288C512 117.5 490.5 96 464 96zM376.1 408.1C372.3 413.7 366.2 416 360 416s-12.28-2.344-16.97-7.031l-48.67-48.67C278.5 370.1 259.1 376 240 376c-57.44 0-104-46.56-104-104S182.6 168 240 168s104 46.56 104 104c0 20-5.922 38.5-15.71 54.36l48.67 48.67C386.3 384.4 386.3 399.6 376.1 408.1z"/></svg>