<svg xmlns="http://www.w3.org/2000/svg" viewBox="0 0 448 512"><!--! Font Awesome Pro 6.1.1 by @fontawesome - https://fontawesome.com License - https://fontawesome.com/license (Commercial License) Copyright 2022 Fonticons, Inc. --><path d="M224 336h80V256h-80V336zM224 176h-80V256h80V176zM384 32h-320c-35.2 0-64 28.8-64 64v320c0 35.2 28.8 64 64 64h320c35.2 0 64-28.8 64-64V96C448 60.8 419.2 32 384 32zM384 176h-80V256h80v80h-80V416h-80v-80h-80V416H64l0-80h80V256H64l0-80h80V96h80v80h80V96h80L384 176z"/></svg>