<svg xmlns="http://www.w3.org/2000/svg" viewBox="0 0 640 512"><!--! Font Awesome Pro 6.0.0-beta3 by @fontawesome - https://fontawesome.com License - https://fontawesome.com/license (Commercial License) Copyright 2021 Fonticons, Inc. --><path d="M40.23 111.9L308.1 4.753C315.7 1.702 324.3 1.702 331.9 4.753L599.8 111.9C624.1 121.6 640 145.2 640 171.3V488C640 501.3 629.3 512 616 512H568C554.7 512 544 501.3 544 488V223.1C544 206.3 529.7 191.1 512 191.1H128C110.3 191.1 96 206.3 96 223.1V488C96 501.3 85.25 512 72 512H24C10.75 512 0 501.3 0 488V171.3C0 145.2 15.93 121.6 40.23 111.9zM244.1 319.1L242.2 328H397.8L395 319.1H445.9L451.1 334.1C468.3 344.5 480 362.9 480 384V480C480 497.7 465.7 512 448 512C430.3 512 416 497.7 416 480V464H224V480C224 497.7 209.7 512 192 512C174.3 512 160 497.7 160 480V384C160 362.9 171.7 344.5 188.9 334.1L194.1 319.1H244.1zM240 424C253.3 424 264 413.3 264 400C264 386.7 253.3 376 240 376C226.7 376 216 386.7 216 400C216 413.3 226.7 424 240 424zM400 376C386.7 376 376 386.7 376 400C376 413.3 386.7 424 400 424C413.3 424 424 413.3 424 400C424 386.7 413.3 376 400 376zM512 287.1H128V223.1H512V287.1z"/></svg>