<svg xmlns="http://www.w3.org/2000/svg" viewBox="0 0 512 512"><!--! Font Awesome Pro 6.0.0-beta3 by @fontawesome - https://fontawesome.com License - https://fontawesome.com/license (Commercial License) Copyright 2021 Fonticons, Inc. --><path d="M200 488C200 501.3 210.8 512 224 512s24-10.75 24-24V448h-48V488zM264 488c0 13.25 10.75 24 24 24s24-10.75 24-24V448h-48V488zM64 306.9c0-55.59 17.16-84.8 33.78-113c10.6-18.05 20.69-35.61 26.1-60.65L48.8 191.7C17.79 215.9 0 251.4 0 288.1c0 62.77 49.45 114.6 113.1 124.8C84.23 390 64 354.4 64 306.9zM136 488C136 501.3 146.8 512 160 512s24-10.75 24-24V448l-48-.0391V488zM463.2 191.7l-85.23-66.48C361.5 112.4 352 93.53 352 73.52V44.57C352 19.99 330.5 0 304 0H288v92.64c0 48.88 18.19 73.63 37.44 99.83C345.4 219.6 368 250.4 368 306.9c0 49.17-21.83 85.49-53.34 109.1L376 415.9C451.1 415.5 512 358.8 512 288.1C512 251.4 494.2 215.9 463.2 191.7zM328 488c0 13.25 10.75 24 24 24s24-10.75 24-24v-40.04L328 448V488zM299.7 211.4C279.2 183.6 256 152 256 92.64V0H208C181.5 0 160 19.99 160 44.57v48.07c0 58.48-18.41 89.78-34.66 117.4C110.3 235.7 96 259.1 96 306.9C96 381.8 158.2 416 215.1 416C273.8 416 336 381.8 336 306.9C336 260.9 319.2 237.1 299.7 211.4z"/></svg>