<svg xmlns="http://www.w3.org/2000/svg" viewBox="0 0 576 512"><!--! Font Awesome Pro 6.0.0-beta3 by @fontawesome - https://fontawesome.com License - https://fontawesome.com/license (Commercial License) Copyright 2021 Fonticons, Inc. --><path d="M.0003 320C.0003 160.9 128.9 32 288 32C447.1 32 576 160.9 576 320C576 370 563.2 417.1 540.8 458.1C533.1 472.1 517.9 480 501.9 480H74.13C58.11 480 42.9 472.1 35.21 458.1C12.76 417.1 0 370 0 320H.0003zM343.4 416C348.3 407.7 351.3 398.2 351.9 388L487.6 342.8C500.2 338.6 506.1 324.1 502.8 312.4C498.6 299.8 484.1 293 472.4 297.2L336.7 342.5C324.1 328.7 307.5 320 288 320C252.7 320 224 348.7 224 384C224 395.7 227.1 406.6 232.6 416H343.4z"/></svg>