<svg xmlns="http://www.w3.org/2000/svg" viewBox="0 0 512 512"><!--! Font Awesome Pro 6.0.0-beta3 by @fontawesome - https://fontawesome.com License - https://fontawesome.com/license (Commercial License) Copyright 2021 Fonticons, Inc. --><path d="M499.5 332c0-5.66-3.112-11.13-8.203-14.07l-46.61-26.91C446.8 279.6 448 267.1 448 256s-1.242-23.65-3.34-35.02l46.61-26.91c5.092-2.941 8.203-8.411 8.203-14.07c0-14.1-41.98-99.04-63.86-99.04c-2.832 0-5.688 .7266-8.246 2.203l-46.72 26.98C362.9 94.98 342.4 83.1 320 75.16V21.28c0-7.523-5.162-14.28-12.53-15.82C290.8 1.977 273.7 0 256 0s-34.85 1.977-51.48 5.461C197.2 7.004 192 13.76 192 21.28v53.88C169.6 83.1 149.1 94.98 131.4 110.1L84.63 83.16C82.08 81.68 79.22 80.95 76.39 80.95c-19.72 0-63.86 81.95-63.86 99.04c0 5.66 3.112 11.13 8.203 14.07l46.61 26.91C65.24 232.4 64 244 64 256s1.242 23.65 3.34 35.02l-46.61 26.91c-5.092 2.941-8.203 8.411-8.203 14.07c0 14.1 41.98 99.04 63.86 99.04c2.832 0 5.688-.7266 8.246-2.203l46.72-26.98C149.1 417 169.6 428.9 192 436.8v53.88c0 7.523 5.162 14.28 12.53 15.82C221.2 510 238.3 512 255.1 512s34.85-1.977 51.48-5.461C314.8 504.1 320 498.2 320 490.7v-53.88c22.42-7.938 42.93-19.82 60.65-34.97l46.72 26.98c2.557 1.477 5.416 2.203 8.246 2.203C455.3 431 499.5 349.1 499.5 332zM256 336c-44.11 0-80-35.89-80-80S211.9 176 256 176s80 35.89 80 80S300.1 336 256 336z"/></svg>