<svg xmlns="http://www.w3.org/2000/svg" viewBox="0 0 576 512"><!--! Font Awesome Pro 6.1.1 by @fontawesome - https://fontawesome.com License - https://fontawesome.com/license (Commercial License) Copyright 2022 Fonticons, Inc. --><path d="M389.8 0H392C440.6 0 480 39.4 480 88C480 102.4 476.5 115.1 470.4 128H512C547.3 128 576 156.7 576 192V448C576 483.3 547.3 512 512 512H64C28.65 512 0 483.3 0 448V192C0 156.7 28.65 128 64 128H105.6C99.46 115.1 96 102.4 96 88C96 39.4 135.4 0 184 0H186.2C218.1 0 247.7 16.91 263.9 44.45L288 85.46L312.1 44.45C328.3 16.91 357.9 0 389.8 0zM318.7 128H392C414.1 128 432 110.1 432 88C432 65.91 414.1 48 392 48H389.8C374.9 48 361.1 55.91 353.5 68.78L318.7 128zM186.2 48H184C161.9 48 144 65.91 144 88C144 110.1 161.9 128 184 128H257.3L222.5 68.78C214.9 55.91 201.1 48 186.2 48V48zM64 384V448H512V384H64zM512 320V192H345.9L386.4 240.6C394.9 250.8 393.5 265.1 383.4 274.4C373.2 282.9 358 281.5 349.6 271.4L288 197.5L226.4 271.4C217.1 281.5 202.8 282.9 192.6 274.4C182.5 265.1 181.1 250.8 189.6 240.6L230.1 192H64V320H512z"/></svg>