<svg xmlns="http://www.w3.org/2000/svg" viewBox="0 0 384 512"><!--! Font Awesome Pro 6.1.1 by @fontawesome - https://fontawesome.com License - https://fontawesome.com/license (Commercial License) Copyright 2022 Fonticons, Inc. --><path d="M69.5 317.1c62.88-43.13 161.9-94.5 238.6-73.88c11.75 3.125 19.88 13.75 19.88 25.88c0 19.25-15.62 34.75-34.75 34.75H184c-13.25 0-24 10.75-24 24L160 351.9l133.3 .0009c45.63 0 82.75-37 82.75-82.75c0-33.88-22.75-63.5-55.38-72.25c-77.5-20.75-137.6-116-169.7-183.3C141.3-6.527 111.8-3.656 106 17.72L32.88 290.1C27 312.6 51.38 329.5 69.5 317.1zM368 447.1l-16 .0006l0-32c0-17.63-14.38-32-32-32H64c-17.62 0-32 14.37-32 32l0 32l-15.1-.0006c-8.875 0-16 7.125-16 16l0 32c0 8.875 7.125 16 16 16h352c8.875 0 16-7.125 16-16l.0001-32C384 455.1 376.9 447.1 368 447.1z"/></svg>