<svg xmlns="http://www.w3.org/2000/svg" viewBox="0 0 512 512"><!--! Font Awesome Pro 6.1.1 by @fontawesome - https://fontawesome.com License - https://fontawesome.com/license (Commercial License) Copyright 2022 Fonticons, Inc. --><path d="M511.2 39.56c-3.624-19.25-18.62-34.41-37.87-38.29c-22.87-4.25-22.75-.4579-106.6 53.66c-9.124 5.875-14.75 15.1-14.75 26.1L351.1 115.1L243.7 223.3C236.1 211.9 234.8 197.3 240.6 184.8l17.25-37.12c3.875-8.25 1.25-18.12-6.249-23.37C244.1 119.1 233.1 120 227.5 126.4L189.1 164.8c-8.124 8.125-14.37 17.1-18.12 28.75c-7.124 19.62-21.62 35.62-40.62 44.37L53.99 273.3c-57.24 22.87-72.37 96.74-28.87 140.2l73.37 73.37c43.62 43.5 117.5 28.37 140.4-28.75l35.37-76.37c8.874-18.1 24.87-33.62 44.49-40.5c10.75-3.875 20.62-10.12 28.87-18.25l21.5-21.5c6.499-6.5 7.749-16.62 2.1-24.5c-4.874-7.875-14.37-11.37-23.12-8.499L325.2 276c-12.62 3.875-26.37 1.249-36.74-7.125l173.1-172.9c.7499 0 1.5 .3749 2.375 .3749c14.25 0 27.87-6.333 36.99-17.33S513.8 53.68 511.2 39.56zM181.6 394.4l-11.25 11.25c-3.125 3.125-8.249 3.125-11.37 0l-52.62-52.62c-1.5-1.5-2.375-3.5-2.375-5.625s.8754-4.25 2.375-5.75l11.25-11.25c1.5-1.5 3.499-2.375 5.624-2.375c2.125 0 4.25 .8747 5.749 2.375l52.62 52.62c1.5 1.5 2.375 3.5 2.375 5.625S183.1 392.9 181.6 394.4zM245.6 330.4l-11.25 11.25c-3.125 3.125-8.249 3.125-11.37 0L170.4 289c-1.5-1.5-2.375-3.5-2.375-5.625c0-2.125 .875-4.25 2.375-5.75l11.25-11.25c1.5-1.5 3.5-2.375 5.624-2.375c2.125 0 4.25 .8749 5.75 2.375l52.62 52.62c1.5 1.5 2.374 3.5 2.374 5.625S247.1 328.9 245.6 330.4z"/></svg>