<svg xmlns="http://www.w3.org/2000/svg" viewBox="0 0 448 512"><!--! Font Awesome Pro 6.1.1 by @fontawesome - https://fontawesome.com License - https://fontawesome.com/license (Commercial License) Copyright 2022 Fonticons, Inc. --><path d="M224 244.4V160c0-17.67-14.31-32-32-32S160 142.3 160 160v80h40C208.5 240 216.5 241.7 224 244.4zM144 112v-64C144 39.16 136.8 32 128 32c0-17.67-14.31-32-32-32S64 14.33 64 32H15.99C9.523 32 3.68 35.89 1.211 41.88S.1172 54.73 4.68 59.31L25.37 80L4.68 100.7C.1172 105.3-1.258 112.1 1.211 118.1S9.523 128 15.99 128H128C136.8 128 144 120.8 144 112zM288 288c17.69 0 32-14.33 32-32V192c0-17.67-14.31-32-32-32s-32 14.33-32 32v64C256 273.7 270.3 288 288 288zM323.8 309C313.6 315.1 301.3 320 288 320c-5.766 0-11.24-1.08-16.55-2.51C268.6 354.6 237.9 384 200 384H128c-8.836 0-16-7.164-16-16C112 359.2 119.2 352 128 352h69.72C213.2 352 240 340.7 240 312c0-22.09-17.91-40-40-40h-128C49.91 272 32 289.9 32 312v63.41c0 33.13 16 64.56 42.81 84.13l36.41 26.45C134.5 502.9 162.5 512 191.3 512H280c75.11 0 136-60.89 136-136v-32.88C406.6 348.6 395.7 352 384 352C356.1 352 332.6 333.1 323.8 309zM384 192c-17.69 0-32 14.33-32 32v64c0 17.67 14.31 32 32 32s32-14.33 32-32V224C416 206.3 401.7 192 384 192zM72 240H128V160H64v80.81C66.66 240.5 69.26 240 72 240z"/></svg>