<svg xmlns="http://www.w3.org/2000/svg" viewBox="0 0 576 512"><!--! Font Awesome Pro 6.0.0-beta3 by @fontawesome - https://fontawesome.com License - https://fontawesome.com/license (Commercial License) Copyright 2021 Fonticons, Inc. --><path d="M568.2 336.3c-13.12-17.81-38.14-21.66-55.93-8.469l-119.7 88.17h-120.6c-8.748 0-15.1-7.25-15.1-15.99c0-8.75 7.25-16 15.1-16h78.25c15.1 0 30.75-10.88 33.37-26.62c3.25-20-12.12-37.38-31.62-37.38H191.1c-26.1 0-53.12 9.25-74.12 26.25l-46.5 37.74L15.1 383.1C7.251 383.1 0 391.3 0 400v95.98C0 504.8 7.251 512 15.1 512h346.1c22.03 0 43.92-7.188 61.7-20.27l135.1-99.52C577.5 379.1 581.3 354.1 568.2 336.3zM213.1 237.3l-5.5 25.88C205.9 275.8 213.1 288 224.1 288h126c11.13 0 19.13-12.25 16.5-24.88l-5.501-25.88c41.76-22.38 70-62.75 70-109.3C432 57.25 367.5 0 288 0C208.5 0 143.1 57.25 143.1 127.1C143.1 174.5 172.2 214.9 213.1 237.3zM344 112c17.63 0 32 14.38 32 32c0 17.62-14.38 32-32 32c-17.63 0-32.01-14.38-32.01-32C312 126.4 326.4 112 344 112zM231.1 112c17.63 0 32 14.38 32 32c0 17.62-14.38 32-32 32c-17.63 0-32.01-14.38-32.01-32C199.1 126.4 214.4 112 231.1 112z"/></svg>