<svg xmlns="http://www.w3.org/2000/svg" viewBox="0 0 640 512"><!--! Font Awesome Pro 6.1.1 by @fontawesome - https://fontawesome.com License - https://fontawesome.com/license (Commercial License) Copyright 2022 Fonticons, Inc. --><path d="M436 17.56C405.3-9.194 359.2-4.341 331.1 25.28L319.1 36.94L308.9 25.31C280.7-4.316 234.7-9.194 203.1 17.56C168.7 48.18 166.7 103.1 198.3 136.3l108.9 114.2c7 7.375 18.5 7.375 25.5 0l108.1-114.2C473.2 103.1 471.4 48.18 436 17.56zM216.1 235.1C205.1 222.2 185.8 219.1 172 230.1c-13.81 11.06-16.05 31.19-5 45l18.86 30.56c8.9 11.13 8.01 27.17-2.066 37.24c-11.79 11.79-31.2 10.71-41.61-2.305L80 256.8V103.1c0-22.09-17.91-40-40-40S0 81.91 0 103.1v204.7c0 14.54 4.949 28.65 14.03 40l120.1 151.2c6.066 7.586 15.25 12.01 24.96 12.01H256c17.67 0 32.03-14.37 32.03-32.04L288 358.4c0-21.79-7.414-42.93-21.02-59.94L216.1 235.1zM600 63.1c-22.09 0-40 17.91-40 40v152.8l-62.2 84.73c-10.41 13.02-29.83 14.09-41.61 2.305c-10.08-10.07-10.97-26.11-2.066-37.24l18.86-30.56c11.05-13.81 8.812-33.94-5-45c-13.77-11.03-33.94-8.75-44.97 5l-49.99 62.5C359.4 315.5 352 336.6 352 358.4l-.0313 121.5c0 17.67 14.36 32.04 32.03 32.04h96.02c9.713 0 18.9-4.424 24.96-12.01l120.1-151.2C635.1 337.4 640 323.3 640 308.7V103.1C640 81.91 622.1 63.1 600 63.1z"/></svg>