<svg xmlns="http://www.w3.org/2000/svg" viewBox="0 0 512 512"><!--! Font Awesome Pro 6.1.1 by @fontawesome - https://fontawesome.com License - https://fontawesome.com/license (Commercial License) Copyright 2022 Fonticons, Inc. --><path d="M108.5 66.56C121.5 45.1 144.9 32 169.1 32H342C367.1 32 390.5 45.1 403.5 66.56L496 218.6C510 241.6 510 270.4 496 293.4L403.5 445.4C390.5 466.9 367.1 480 342 480H169.1C144.9 480 121.5 466.9 108.5 445.4L15.96 293.4C1.962 270.4 1.962 241.6 15.96 218.6L108.5 66.56zM255.1 192C273.7 192 288 177.7 288 160C288 142.3 273.7 128 255.1 128C238.3 128 223.1 142.3 223.1 160C223.1 177.7 238.3 192 255.1 192zM167.1 232C154.7 232 143.1 242.7 143.1 256C143.1 269.3 154.7 280 167.1 280H344C357.3 280 368 269.3 368 256C368 242.7 357.3 232 344 232H167.1zM255.1 320C238.3 320 223.1 334.3 223.1 352C223.1 369.7 238.3 384 255.1 384C273.7 384 288 369.7 288 352C288 334.3 273.7 320 255.1 320z"/></svg>