<svg xmlns="http://www.w3.org/2000/svg" viewBox="0 0 640 512"><!--! Font Awesome Pro 6.1.1 by @fontawesome - https://fontawesome.com License - https://fontawesome.com/license (Commercial License) Copyright 2022 Fonticons, Inc. --><path d="M201.8 59.55L257.5 42.85C263.1 41.16 269.2 42.71 273.4 46.87C277.5 51.03 279.1 57.13 277.4 62.77L260.7 118.5L296 137.5L231.3 197.3C236.9 186.4 240 174 240 160.9C240 116.7 204.2 80.88 160 80.88C115.8 80.88 80.01 116.7 80.01 160.9C80.01 205.1 115.8 240.1 160 240.1C170.8 240.1 181.1 238.8 190.5 234.9L133.1 287.1L118.4 260.8L62.76 277.5C57.12 279.2 51.01 277.6 46.85 273.5C42.69 269.3 41.15 263.2 42.84 257.6L59.52 201.8L8.342 174.3C3.164 171.5 0 165.9 0 160C0 154.1 3.164 148.9 8.342 146.1L59.52 118.5L42.84 62.77C41.15 57.13 42.69 51.03 46.85 46.87C51.01 42.71 57.12 41.17 62.76 42.85L118.4 59.55L146 8.347C148.8 3.166 154.1 0 160 0C165.9 0 171.4 3.166 174.2 8.347L201.8 59.55zM208 160C208 186.5 186.5 208 160 208C133.5 208 112 186.5 112 160C112 133.5 133.5 112 160 112C186.5 112 208 133.5 208 160zM629.7 296.5C636.4 302.7 639.1 311.2 640 320C640 337.3 625.5 352 608 352H576V464C576 490.5 554.5 512 528 512H272C245.5 512 224 490.5 224 464V352H192C174.6 352 159.1 337.3 160 320C160 311.2 163.6 302.7 170.3 296.5L378.3 104.5C390.6 93.17 409.4 93.17 421.7 104.5L629.7 296.5zM352 368C352 376.8 359.2 384 368 384H432C440.8 384 448 376.8 448 368V304C448 295.2 440.8 288 432 288H368C359.2 288 352 295.2 352 304V368z"/></svg>