<svg xmlns="http://www.w3.org/2000/svg" viewBox="0 0 640 512"><!--! Font Awesome Pro 6.1.1 by @fontawesome - https://fontawesome.com License - https://fontawesome.com/license (Commercial License) Copyright 2022 Fonticons, Inc. --><path d="M631.2 457.4l-50.07-50.13c-6.137-6.125-11.01-13.37-14.15-21.5l-20.78-51.5c-8.766 11.88 7.908-6.627-47.44 53.75l13.52 33.75c3.256 8.002 8.008 15.38 14.15 21.5l59.59 59.38c12.52 11.88 32.29 11.5 44.56-.75C642.9 489.7 643.1 469.9 631.2 457.4zM531.5 262.5l-15.27-60.75l26.91 10.88c7.139 2.875 13.02 8.375 16.4 15.38l6.76 13.63c3.631 7.502 10.26 13.25 18.28 16c8.016 2.625 16.65 1.1 24.29-1.75c15.65-8 22.04-27.13 14.15-42.88l-6.634-13.63c-10.39-20.88-28.16-37.38-49.82-46.13c-37.44-15.13-57.32-25.38-93.39-25.25c-46.59 .125-87.62 31.25-102.4 75.88l-9.639 29.38l-23.41 11.88C322 253.2 315.7 272.3 323.4 288.2c3.756 7.5 10.26 13.25 18.28 16c8.014 2.625 16.77 1.1 24.29-1.75l23.28-11.75c15.15-7.75 26.54-21 31.8-37l5.508-16.5l17.15 68.63l-45.44 49.75c-7.264 7.75-12.39 17.38-14.9 27.63l-22.28 89.01c-4.258 17.13 6.128 34.5 23.41 38.88c17.16 4.25 34.55-6.25 38.81-23.38l18.28-73.26c2.631-10.38 7.758-19.88 14.9-27.75l60.09-65.38C531.1 305.4 536.6 283.4 531.5 262.5zM432.2 96.02c26.55 0 48.18-21.49 48.18-47.1c0-26.5-21.63-48.01-48.18-48.01s-48.05 21.5-48.05 48C384.2 74.52 405.7 96.02 432.2 96.02zM375.2 333.4c-7.459 2.943-15.36 4.415-23.41 4.415c-6.801 0-13.52-1.074-20.41-3.334c-15.97-5.484-28.94-16.79-36.64-32.18c-15.3-31.32-2.547-69.78 28.53-85.67l11.62-5.818l5.521-16.88c9.232-27.9 26.53-51.1 48.33-68.1L261.7 8.486c-12.26-11.32-31.15-11.32-43.41 0L10.29 200.5c-9.688 8.938-12.89 22.88-8.094 35.16C6.996 247.9 18.82 255.1 31.1 255.1h31.1l-.0098 112c0 26.4 21.6 48 48 48l230.3 .0099l10.12-40.52c3.836-15.71 11.68-30.15 22.37-41.56L375.2 333.4zM224.1 272c0 8.875-7.133 16-16.01 16H144.1c-8.875 0-16.01-7.125-16.01-16V208c0-8.875 7.133-16 16.01-16h64.03c8.875 0 16.01 7.125 16.01 16V272z"/></svg>