<svg xmlns="http://www.w3.org/2000/svg" viewBox="0 0 576 512"><!--! Font Awesome Pro 6.1.1 by @fontawesome - https://fontawesome.com License - https://fontawesome.com/license (Commercial License) Copyright 2022 Fonticons, Inc. --><path d="M528 64h-480C21.49 64 0 85.49 0 112v288C0 426.5 21.49 448 48 448h480c26.51 0 48-21.49 48-48v-288C576 85.49 554.5 64 528 64zM175.1 160c17.68 0 32 14.33 32 32s-14.32 32-32 32c-17.67 0-32-14.33-32-32S158.3 160 175.1 160zM446.1 375.6C443.3 380.8 437.9 384 432 384h-288c-6.023 0-11.53-3.379-14.26-8.75c-2.73-5.367-2.215-11.81 1.332-16.68l70-96C204.1 258.4 208.9 256 213.1 256c5.11 0 9.914 2.441 12.93 6.574l22.35 30.66l62.74-94.11C314.1 194.7 319.1 192 325.3 192c5.348 0 10.34 2.672 13.31 7.125l106.7 160C448.6 364 448.9 370.3 446.1 375.6z"/></svg>