<svg xmlns="http://www.w3.org/2000/svg" viewBox="0 0 512 512"><!--! Font Awesome Pro 6.0.0-beta3 by @fontawesome - https://fontawesome.com License - https://fontawesome.com/license (Commercial License) Copyright 2021 Fonticons, Inc. --><path d="M480 352h-96L352 416H160l-32-64H32c-17.67 0-32 14.33-32 32v80C0 490.5 21.49 512 48 512h416c26.51 0 48-21.49 48-48V384C512 366.3 497.7 352 480 352zM507.7 180.9l-61.99-160.8C440.8 7.969 429.1 0 416 0H96c-13.09 0-24.84 7.969-29.72 20.12L4.287 180.9C1.453 188.2 0 196 0 203.9V271.1c0 26.51 21.49 48 48 48h416c26.51 0 48-21.49 48-48V203.9C512 196 510.5 188.2 507.7 180.9zM384 160l-32 64H160L128 160H79.27l38.39-96h276.7l38.39 96H384z"/></svg>