<svg xmlns="http://www.w3.org/2000/svg" viewBox="0 0 448 512"><!--! Font Awesome Pro 6.0.0-beta3 by @fontawesome - https://fontawesome.com License - https://fontawesome.com/license (Commercial License) Copyright 2021 Fonticons, Inc. --><path d="M447.1 167.1c.125-30.25-18.75-57.27-47.13-67.64c-28.38-10.37-60.12-1.82-79.5 21.31l-10.37-12.89C308.1 104.1 306.1 100.6 305.2 96H142.7C141.9 100.6 139.9 105 136.1 108.8l-76.93 96.16C41.93 227.5 31.1 255.8 31.1 284.9l-.0003 163.1c0 35.38 28.75 64 64 64h256c35.38 0 64-28.63 64-64l.0002-163.1c-.125-17.5-3.875-34.88-11.13-51C431.1 222.4 447.1 196.6 447.1 167.1zM351.1 383.1c0 17.62-14.38 32-32 32h-192c-17.62 0-32-14.38-32-32v-64c0-17.62 14.38-32 32-32h192c17.62 0 32 14.38 32 32V383.1zM377.4 191.7l-24.13-30.13c2.875-10.12 11.75-17.63 22.75-17.63c12.88 0 23.5 10.25 23.88 23.25C400.2 180.1 390.2 190.1 377.4 191.7zM151.1 64h144c6.375 0 12.5-2.5 17-7s7-10.62 7-17v-16c0-6.375-2.5-12.5-7-17s-10.62-7-17-7h-144c-6.375 0-12.5 2.5-17 7s-7 10.62-7 17v16c0 6.375 2.5 12.5 7 17S145.6 64 151.1 64z"/></svg>