<svg xmlns="http://www.w3.org/2000/svg" viewBox="0 0 640 512"><!--! Font Awesome Pro 6.1.1 by @fontawesome - https://fontawesome.com License - https://fontawesome.com/license (Commercial License) Copyright 2022 Fonticons, Inc. --><path d="M198.6 217.4C211.1 229.9 211.1 250.1 198.6 262.6C186.1 275.1 165.9 275.1 153.4 262.6L89.37 198.6C76.88 186.1 76.88 165.9 89.37 153.4C101.9 140.9 122.1 140.9 134.6 153.4L198.6 217.4zM288 96C288 78.33 302.3 64 320 64C337.7 64 352 78.33 352 96V192C352 209.7 337.7 224 320 224C302.3 224 288 209.7 288 192V96zM505.4 153.4C517.9 140.9 538.1 140.9 550.6 153.4C563.1 165.9 563.1 186.1 550.6 198.6L486.6 262.6C474.1 275.1 453.9 275.1 441.4 262.6C428.9 250.1 428.9 229.9 441.4 217.4L505.4 153.4zM0 384C0 366.3 14.33 352 32 352H96C113.7 352 128 366.3 128 384C128 401.7 113.7 416 96 416H32C14.33 416 0 401.7 0 384zM416 352C433.7 352 448 366.3 448 384C448 401.7 433.7 416 416 416H224C206.3 416 192 401.7 192 384C192 366.3 206.3 352 224 352H416zM608 352C625.7 352 640 366.3 640 384C640 401.7 625.7 416 608 416H544C526.3 416 512 401.7 512 384C512 366.3 526.3 352 544 352H608z"/></svg>