<svg xmlns="http://www.w3.org/2000/svg" viewBox="0 0 512 512"><!--! Font Awesome Pro 6.0.0-beta3 by @fontawesome - https://fontawesome.com License - https://fontawesome.com/license (Commercial License) Copyright 2021 Fonticons, Inc. --><path d="M32 352c-17.69 0-32 14.33-32 32s14.31 32 32 32s32-14.33 32-32S49.69 352 32 352zM480 352c-17.69 0-32 14.33-32 32s14.31 32 32 32s32-14.33 32-32S497.7 352 480 352zM118.6 201.4c-12.51-12.51-32.76-12.5-45.25 0c-12.5 12.5-12.51 32.75 0 45.26c12.51 12.51 32.76 12.5 45.25 0S131.1 213.9 118.6 201.4zM256 192c17.67 0 32-14.31 32-32s-14.33-32-32-32S224 142.3 224 160S238.3 192 256 192zM438.6 201.4c-12.49-12.5-32.75-12.51-45.25 0c-12.51 12.51-12.5 32.76 0 45.26s32.75 12.51 45.25 0C451.1 234.1 451.1 213.9 438.6 201.4zM352 352H160c-17.67 0-32 14.33-32 32c0 17.67 14.33 32 32 32h192c17.67 0 32-14.33 32-32C384 366.3 369.7 352 352 352z"/></svg>