<svg xmlns="http://www.w3.org/2000/svg" viewBox="0 0 640 512"><!--! Font Awesome Pro 6.0.0-beta3 by @fontawesome - https://fontawesome.com License - https://fontawesome.com/license (Commercial License) Copyright 2021 Fonticons, Inc. --><path d="M528 352c-44.18 0-79.1 35.82-79.1 80c0 44.18 35.82 80 79.1 80C572.2 512 608 476.2 608 432C608 387.8 572.2 352 528 352zM608 184.7C608 110.5 537.1 0 435.1 0c-95.81 0-87.21 84.52-165.7 145.6L263.2 150.4C253.2 158.2 214.5 189.1 214.5 252.8c0 17.93 4.149 35.08 11.42 50.62l-182.5 152C35.77 461.8 32 470.8 32 480C32 501.4 50.39 512 64.01 512c7.219 0 14.48-2.438 20.47-7.406l183.3-152.8c18.97 12.69 41.69 21.11 71.89 21.11c26.7 0 53.6-8.506 76.28-26.14l6.237-4.873c27.08-21.04 61.41-36.49 107.1-48.63C567.9 283.5 608 248.8 608 184.7zM382.8 291.5L376.7 296.3c-12.13 9.432-24.06 12.42-36.89 12.42c-52.47 0-61.31-41.46-61.31-55.5c0-6.43 .3562-33.87 23.88-52.16l6.402-4.955C400.1 124.3 383.1 64 435.1 64c51.54 0 108.9 63.86 108.9 121.1C543.1 254.5 480.2 215.9 382.8 291.5z"/></svg>