<svg xmlns="http://www.w3.org/2000/svg" viewBox="0 0 448 512"><!--! Font Awesome Pro 6.0.0-beta3 by @fontawesome - https://fontawesome.com License - https://fontawesome.com/license (Commercial License) Copyright 2021 Fonticons, Inc. --><path d="M445.5 211.4L367.1 19.38C363.2 7.625 352.4 0 340.4 0H120.6C109.2 0 98.72 6.75 93.6 17.75l-90.38 192C-6.782 230.1 7.718 256 30.22 256h387.6C439.5 256 454.1 232.5 445.5 211.4zM160 288c-37.25 37.25-64.03 98.75-64.03 140.8c0 28.5 11.5 54.37 30.5 74.37C132.2 509.1 140.3 512 148.7 512h150.5c8.375 0 16.5-2.875 22.25-8.875c19-20.12 30.5-45.88 30.5-74.37c0-42-26.72-103.5-63.97-140.8H160z"/></svg>