<svg xmlns="http://www.w3.org/2000/svg" viewBox="0 0 512 512"><!--! Font Awesome Pro 6.0.0-beta3 by @fontawesome - https://fontawesome.com License - https://fontawesome.com/license (Commercial License) Copyright 2021 Fonticons, Inc. --><path d="M499.6 236.3l-233-105.5c-6.75-3.125-14.5-3.125-21.25 0l-233 105.5c-16.5 7.5-16.5 32.5 0 40l233 105.6c6.75 3.125 14.5 3.125 21.25 0l233-105.6C516.1 268.8 516.1 243.8 499.6 236.3zM499.6 364.1l-58.13-26.38L279.9 411c-7.625 3.5-15.63 5.164-23.88 5.164S239.8 414.5 232.1 411L70.5 337.8l-58.13 26.38c-16.5 7.5-16.5 32.5 0 40l233 105.6c6.75 3 14.5 3 21.25 0l233-105.6C516.1 396.6 516.1 371.6 499.6 364.1zM488 56h-32V23.1C456 10.75 445.3 0 432 0s-24 10.75-24 23.1V56h-32C362.7 56 352 66.75 352 79.1S362.7 104 375.1 104L408 104v31.1C408 149.3 418.7 160 432 160s24-10.75 24-23.1V104h32c13.25 0 24-10.75 24-23.1S501.3 56 488 56z"/></svg>