<svg xmlns="http://www.w3.org/2000/svg" viewBox="0 0 512 512"><!--! Font Awesome Pro 6.0.0-beta3 by @fontawesome - https://fontawesome.com License - https://fontawesome.com/license (Commercial License) Copyright 2021 Fonticons, Inc. --><path d="M503.6 166.5l-37.36-22.32l9.904-89.02c.6289-5.594-1.428-10.71-5.023-14.29C467.5 37.31 462.4 35.25 456.8 35.88l-89.02 9.902l-22.31-37.36c-3.322-5.516-8.996-8.336-14.7-8.414c-5.705-.0782-11.44 2.586-14.89 8.039L226 149.3L242.7 84.27c2.758-12.66-8.648-23.82-21.19-20.69L195.7 77.5L150.2 25.97c-6.893-8.652-20.18-8.652-27.08 0L77.56 77.5L51.86 63.58c-12.54-3.133-24.07 8.023-21.19 20.69l33.1 160.6L26.53 260.9c-14.04 6.016-14.04 25.83 0 31.97l109.2 49.48l-128.7 128.7C2.344 475.7 0 481.9 0 487.1c0 6.141 2.344 12.28 7.031 16.97C11.72 509.7 17.84 511.1 24 511.1s12.28-2.344 16.97-7.031l128.7-128.7l49.47 109.2c6.143 14.04 25.95 14.04 31.97 0l16.05-37.24l160.6 33.1c12.66 2.883 23.82-8.648 20.69-21.19l-13.92-25.7l51.53-45.51c8.65-6.898 8.65-20.19 0-27.08l-51.53-45.51l13.92-25.83c3.133-12.54-8.025-23.95-20.69-21.19l-65.07 16.67l141.3-89.89c5.453-3.449 8.117-9.186 8.039-14.89C511.9 175.5 509.1 169.8 503.6 166.5zM315.3 219.3l-96 96C216.2 318.4 212.1 319.1 208 319.1S199.8 318.4 196.7 315.3c-6.25-6.25-6.25-16.37 0-22.62l96-96c6.25-6.25 16.38-6.25 22.62 0C321.6 202.9 321.6 213.1 315.3 219.3z"/></svg>