<svg xmlns="http://www.w3.org/2000/svg" viewBox="0 0 640 512"><!--! Font Awesome Pro 6.1.1 by @fontawesome - https://fontawesome.com License - https://fontawesome.com/license (Commercial License) Copyright 2022 Fonticons, Inc. --><path d="M240.1 454.3c0 6.297 1.875 12.43 5.344 17.68l17.14 25.69c5.25 7.875 17.17 14.28 26.64 14.28h61.66c9.437 0 21.36-6.401 26.61-14.28l17.08-25.68c2.937-4.437 5.348-12.37 5.348-17.7l.1196-38.36H239.1L240.1 454.3zM148.2 212.9c6.379 29.75 19.96 56.83 39.32 78.91c16.53 18.84 42.34 58.23 52.22 91.45c.0313 .25 .0625 .5156 .0938 .7812l126.7-.0026L148.2 212.9zM630.8 469.1l-196.2-153.8c6.32-9.328 12.56-17.59 17.82-23.59c27.12-30.94 43.54-71.4 43.54-115.8c0-97.38-79.07-176.3-176.5-175.1c-73 .2266-131.1 42.72-158.4 100.9L38.81 5.118C34.41 1.68 29.19 .0008 24.03 .0008c-7.125 0-14.2 3.159-18.92 9.19c-8.187 10.44-6.365 25.53 4.073 33.7l591.1 463.1c10.5 8.203 25.57 6.333 33.7-4.073C643.1 492.4 641.2 477.3 630.8 469.1zM319.1 96.01c-39.94 0-72.83 29.48-78.76 67.76L213.9 142.3c14.27-45.3 56.15-78.33 106.1-78.33c8.844 0 15.99 7.159 15.99 16S328.8 96.01 319.1 96.01z"/></svg>