<svg xmlns="http://www.w3.org/2000/svg" viewBox="0 0 640 512"><!--! Font Awesome Pro 6.0.0-beta3 by @fontawesome - https://fontawesome.com License - https://fontawesome.com/license (Commercial License) Copyright 2021 Fonticons, Inc. --><path d="M634.8 79.57c-9.152-14.4-27.86-19.94-42.8-11.8C516.1 109.1 420.8 131.6 320 131.6s-196.1-22.45-271.1-63.81C33.09 59.63 14.38 65.17 5.23 79.57c-10.58 16.66-4.508 38.66 12.83 47.95c34.56 18.52 72.57 33.46 112.7 44.92L110.4 229.2c-26.04 1.156-49.53 16.7-62.68 53.05c-18.51 51.13 14.68 132.6 28.47 137.7c13.79 5.008 91.28-35.84 109.8-87.1c13.28-36.22 5.107-63.33-14.04-81.18L195.1 187.3c29.1 5.398 60.89 8.734 92.43 10.15v64.74c-24.13 10.02-40.85 32.63-40.85 71.42c0 54.24 58.18 118.1 73.29 119.5c15.11-.5352 73.29-65.26 73.29-119.5c0-38.79-16.72-61.4-40.85-71.42V197.5c31.53-1.414 62.43-4.75 92.43-10.15l23.24 64.36c-19.15 17.85-27.32 44.96-14.04 81.18c18.51 51.26 96 92.11 109.8 87.1c13.79-5.141 46.98-86.59 28.47-137.7c-13.15-36.35-36.64-51.9-62.68-53.05l-20.43-56.77c40.16-11.46 78.17-26.4 112.7-44.92C639.3 118.2 645.4 96.23 634.8 79.57zM141.9 310.4c-4.979 13.48-26.94 38.15-43.4 47.79c-6.51-17.98-7.531-51.13-2.809-64.61c4.213-11.69 18-17.34 30.64-12.72C138.1 285.5 146.1 298.8 141.9 310.4zM320 387.5C319.1 387.5 320 387.5 320 387.5C319.1 387.5 320 387.5 320 387.5C307.9 372.8 295.5 342 295.5 327.6c0-12.33 10.99-22.35 24.52-22.35c.0039 0-.0039 0 0 0s-.0039 0 0 0c13.53 0 24.52 10.02 24.52 22.35C344.5 342 332.1 372.8 320 387.5zM513.7 280.9c12.64-4.621 26.43 1.031 30.64 12.72c4.723 13.48 3.703 46.63-2.809 64.62c-16.47-9.637-38.43-34.3-43.4-47.79C493.9 298.8 501 285.5 513.7 280.9z"/></svg>