<svg xmlns="http://www.w3.org/2000/svg" viewBox="0 0 640 512"><!--! Font Awesome Pro 6.0.0-beta3 by @fontawesome - https://fontawesome.com License - https://fontawesome.com/license (Commercial License) Copyright 2021 Fonticons, Inc. --><path d="M480 96h-96c-17.69 0-32 14.33-32 32s14.31 32 32 32h96c52.94 0 96 43.06 96 96s-43.06 96-96 96h-96c-17.69 0-32 14.33-32 32s14.31 32 32 32h96c88.22 0 160-71.78 160-160S568.2 96 480 96zM256 352H160c-52.94 0-96-43.06-96-96s43.06-96 96-96h96c17.69 0 32-14.33 32-32S273.7 96 256 96H160C71.78 96 0 167.8 0 256s71.78 160 160 160h96c17.69 0 32-14.33 32-32S273.7 352 256 352zM192 256c0 17.67 14.31 32 32 32h192c17.69 0 32-14.33 32-32s-14.31-32-32-32H224C206.3 224 192 238.3 192 256z"/></svg>