<svg xmlns="http://www.w3.org/2000/svg" viewBox="0 0 384 512"><!--! Font Awesome Pro 6.0.0-beta3 by @fontawesome - https://fontawesome.com License - https://fontawesome.com/license (Commercial License) Copyright 2021 Fonticons, Inc. --><path d="M168.3 499.2C116.1 435 0 279.4 0 192C0 85.96 85.96 0 192 0C298 0 384 85.96 384 192C384 279.4 267 435 215.7 499.2C203.4 514.5 180.6 514.5 168.3 499.2H168.3zM116.1 150.1L158.1 191.1L116.1 233.9C106.7 243.3 106.7 258.5 116.1 267.9C125.5 277.3 140.7 277.3 150.1 267.9L191.1 225.9L233.9 267.9C243.3 277.3 258.5 277.3 267.9 267.9C277.3 258.5 277.3 243.3 267.9 233.9L225.9 191.1L267.9 150.1C277.3 140.7 277.3 125.5 267.9 116.1C258.5 106.7 243.3 106.7 233.9 116.1L191.1 158.1L150.1 116.1C140.7 106.7 125.5 106.7 116.1 116.1C106.7 125.5 106.7 140.7 116.1 150.1z"/></svg>