<svg xmlns="http://www.w3.org/2000/svg" viewBox="0 0 384 512"><!--! Font Awesome Pro 6.1.1 by @fontawesome - https://fontawesome.com License - https://fontawesome.com/license (Commercial License) Copyright 2022 Fonticons, Inc. --><path d="M168.3 499.2C116.1 435 0 279.4 0 192C0 85.96 85.96 0 192 0C298 0 384 85.96 384 192C384 279.4 267 435 215.7 499.2C203.4 514.5 180.6 514.5 168.3 499.2H168.3zM276.8 107C262.1 92.31 238.2 92.31 223.5 107L208.6 121.1L261.9 175.3L276.8 160.4C291.5 145.6 291.5 121.8 276.8 107V107zM105.6 231.4L96.48 268C95.12 273.5 96.71 279.3 100.7 283.2C104.7 287.2 110.4 288.8 115.9 287.4L152.5 278.3C158.1 276.9 163.3 273.1 167.4 269.9L239.3 197.9L185.1 144.6L114.1 216.5C109.1 220.6 107 225.8 105.6 231.4H105.6z"/></svg>