<svg xmlns="http://www.w3.org/2000/svg" viewBox="0 0 512 512"><!--! Font Awesome Pro 6.0.0-beta3 by @fontawesome - https://fontawesome.com License - https://fontawesome.com/license (Commercial License) Copyright 2021 Fonticons, Inc. --><path d="M464 224C437.5 224 416 245.5 416 272V352H96V272C96 245.5 74.51 224 48 224S0 245.5 0 272v192C0 472.8 7.164 480 16 480h64C88.84 480 96 472.8 96 464V448h320v16c0 8.836 7.164 16 16 16h64c8.836 0 16-7.164 16-16v-192C512 245.5 490.5 224 464 224zM128 272V320h256V272c0-38.63 27.53-70.95 64-78.38V160c0-70.69-57.31-128-128-128H192C121.3 32 64 89.31 64 160v33.62C100.5 201.1 128 233.4 128 272z"/></svg>