<svg xmlns="http://www.w3.org/2000/svg" viewBox="0 0 448 512"><!--! Font Awesome Pro 6.0.0-beta3 by @fontawesome - https://fontawesome.com License - https://fontawesome.com/license (Commercial License) Copyright 2021 Fonticons, Inc. --><path d="M262.8 320C255.9 305.3 244.3 286.6 224 266.8C203.8 286.6 192.1 305.3 185.3 320H262.8zM128 384c0 17.62 14.38 32 32 32h128c17.62 0 32-14.38 32-32s-14.38-32-32-32H160C142.4 352 128 366.4 128 384zM192 245.2C192 215.9 170.5 192 144 192H96v10.75C96 232.1 117.5 256 144 256H192V245.2zM256 245.2L256 256c.3125 .375 .1406 .1875 0 0H304C330.5 256 352 232.1 352 202.8V192h-48C277.5 192 256 215.9 256 245.2zM224 0C100.3 0 0 100.3 0 224v96c0 106 85.96 192 192 192h64c106 0 192-85.96 192-192V224C448 100.3 347.7 0 224 0zM384 202.8C384 249.8 348.3 288 304 288h-22.5c7.375 12.25 12.5 23.38 15.75 32.88c31 4.625 54.63 31 54.63 63.13c0 35.5-29.38 64-64.88 64H160.9C125.4 448 96 419.5 96 384c0-32.13 23.75-58.5 54.63-63.13C153.9 311.5 159 300.3 166.4 288H144C99.75 288 64 249.8 64 202.8V172C64 165.4 69.38 160 76 160l67.97 .0417c37.22 0 67.86 27.13 76.73 63.96h6.477c9-36.83 39.75-64 76.85-64H372C378.6 160 384 165.4 384 172V202.8z"/></svg>