<svg xmlns="http://www.w3.org/2000/svg" viewBox="0 0 512 512"><!--! Font Awesome Pro 6.1.1 by @fontawesome - https://fontawesome.com License - https://fontawesome.com/license (Commercial License) Copyright 2022 Fonticons, Inc. --><path d="M507.3 50.66l-46-46c-5.25-5.249-13.38-6.126-19.76-2.252l-64 40.11c-7 4.374-12 11.12-14 19.12l-14.5 56.1L274.5 192.2C90.38 190.6 46.01 240.1 30.76 256.2c-46.88 46.87-39.5 150.4 17.5 207.5c57.13 57.12 160.6 64.37 207.5 17.5c15.25-15.25 65.64-59.64 64.01-243.7l74.5-74.49l56.12-14.49c7.875-1.1 14.75-7.125 19.12-13.1l40.01-63.99C513.5 64.15 512.6 56.03 507.3 50.66zM208 351.1c-26.5 0-48-21.5-48-47.99c0-26.5 21.5-47.99 48-47.99c26.5 0 48 21.5 48 47.99C256 330.5 234.5 351.1 208 351.1z"/></svg>