<svg xmlns="http://www.w3.org/2000/svg" viewBox="0 0 512 512"><!--! Font Awesome Pro 6.1.1 by @fontawesome - https://fontawesome.com License - https://fontawesome.com/license (Commercial License) Copyright 2022 Fonticons, Inc. --><path d="M0 96C0 78.33 14.33 64 32 64H144.6C164.1 64 182.4 72.84 194.6 88.02L303.4 224H384V176C384 166.3 389.8 157.5 398.8 153.8C407.8 150.1 418.1 152.2 424.1 159L504.1 239C514.3 248.4 514.3 263.6 504.1 272.1L424.1 352.1C418.1 359.8 407.8 361.9 398.8 358.2C389.8 354.5 384 345.7 384 336V288H303.4L194.6 423.1C182.5 439.2 164.1 448 144.6 448H32C14.33 448 0 433.7 0 416C0 398.3 14.33 384 32 384H144.6L247 256L144.6 128H32C14.33 128 0 113.7 0 96V96z"/></svg>