<svg xmlns="http://www.w3.org/2000/svg" viewBox="0 0 512 512"><!--! Font Awesome Pro 6.0.0-beta3 by @fontawesome - https://fontawesome.com License - https://fontawesome.com/license (Commercial License) Copyright 2021 Fonticons, Inc. --><path d="M447.1 .0041h-384c-35.25 0-64 28.75-64 63.1v287.1c0 35.25 28.75 63.1 64 63.1h96v83.98c0 9.75 11.25 15.45 19.12 9.7l124.9-93.68h144c35.25 0 64-28.75 64-63.1V63.1C511.1 28.75 483.2 .0041 447.1 .0041zM239.1 232c0 39.7-32.3 71.1-71.1 71.1C154.7 303.1 144 293.3 144 280S154.8 256 168 256C181.2 256 192 245.2 192 232V223.2C189.4 223.6 186.7 224 183.1 224c-30.93 0-56-25.07-56-55.1s25.07-55.1 56-55.1S239.1 137.1 239.1 168L239.1 232zM383.1 232c0 39.7-32.3 71.1-72 71.1C298.7 303.1 288 293.3 288 280S298.8 256 312 256c13.23 0 24-10.77 24-24V223.2c-2.635 .3809-5.269 .8071-8.01 .8071c-30.93 0-56-25.07-56-55.1s25.07-55.1 56-55.1s56 25.07 56 55.1L383.1 232z"/></svg>