<svg xmlns="http://www.w3.org/2000/svg" viewBox="0 0 512 512"><!--! Font Awesome Pro 6.1.1 by @fontawesome - https://fontawesome.com License - https://fontawesome.com/license (Commercial License) Copyright 2022 Fonticons, Inc. --><path d="M447.1 .0041h-384c-35.25 0-64 28.75-64 63.1v287.1c0 35.25 28.75 63.1 64 63.1h96v83.98c0 9.75 11.25 15.45 19.12 9.7l124.9-93.68h144c35.25 0 64-28.75 64-63.1V63.1C511.1 28.75 483.2 .0041 447.1 .0041zM128 96c17.67 0 32 14.33 32 32S145.7 160 128 160S96 145.7 96 128S110.3 96 128 96zM414.1 311.6c-2.785 5.203-8.211 8.442-14.11 8.442h-288c-6.021 0-11.53-3.371-14.26-8.742c-2.73-5.367-2.215-11.81 1.334-16.68l70-96C172.1 194.4 176.9 192 182 192s9.916 2.441 12.93 6.574l22.36 30.66l62.74-94.11C283 130.7 287.1 128 293.3 128s10.35 2.672 13.31 7.125l106.7 160C416.6 300 416.9 306.3 414.1 311.6z"/></svg>