<svg xmlns="http://www.w3.org/2000/svg" viewBox="0 0 512 512"><!--! Font Awesome Pro 6.1.1 by @fontawesome - https://fontawesome.com License - https://fontawesome.com/license (Commercial License) Copyright 2022 Fonticons, Inc. --><path d="M448 0H64C28.75 0 0 28.75 0 63.1v287.1c0 35.25 28.75 63.1 64 63.1h96V499.1c0 9.748 11.25 15.45 19.12 9.699L304 415.1H448c35.25 0 64-28.75 64-63.1V63.1C512 28.75 483.3 0 448 0zM216.1 262.2c9.844 8.875 10.64 24.03 1.781 33.91C213.1 301.3 206.6 304 200 304c-5.734 0-11.47-2.031-16.06-6.156l-80-72C98.89 221.3 96 214.8 96 208s2.891-13.28 7.938-17.84l80-72c9.875-8.844 25.03-8.031 33.91 1.781c8.859 9.875 8.062 25.03-1.781 33.91L155.9 208L216.1 262.2zM408.1 225.8l-80 72C323.5 301.1 317.7 304 312 304c-6.562 0-13.09-2.688-17.84-7.938c-8.859-9.875-8.062-25.03 1.781-33.91L356.1 208l-60.19-54.16c-9.844-8.875-10.64-24.03-1.781-33.91c8.875-9.844 24.05-10.62 33.91-1.781l80 72C413.1 194.7 416 201.2 416 208S413.1 221.3 408.1 225.8z"/></svg>