<svg xmlns="http://www.w3.org/2000/svg" viewBox="0 0 640 512"><!--! Font Awesome Pro 6.1.1 by @fontawesome - https://fontawesome.com License - https://fontawesome.com/license (Commercial License) Copyright 2022 Fonticons, Inc. --><path d="M434.7 416c-20.84 0-39.86-12.91-47.3-32.13c-7.688-19.69-1.906-42.22 14.42-55.94l109.4-87.71C503 106.2 392.1 0 256 0C114.6 0 0 114.6 0 256c0 141.4 114.6 256 256 256c72.1 0 137.1-29.91 183.7-77.88L448.5 416H434.7zM192 208C192 216.8 184.8 224 176 224h-32C135.2 224 128 216.8 128 208v-64C128 135.2 135.2 128 144 128h32C184.8 128 192 135.2 192 144V208zM288 208C288 216.8 280.8 224 272 224h-32C231.2 224 224 216.8 224 208v-64C224 135.2 231.2 128 240 128h32C280.8 128 288 135.2 288 144V208zM384 208C384 216.8 376.8 224 368 224h-32C327.2 224 320 216.8 320 208v-64C320 135.2 327.2 128 336 128h32C376.8 128 384 135.2 384 144V208zM638.8 363.7C636.1 356.6 629.1 352 621.3 352h-65.01l50.17-102.9c3.426-7.715 .8379-16.7-6.199-21.64c-7.111-4.977-16.74-4.539-23.26 1l-154.7 123.1c-5.873 4.941-7.914 12.87-5.18 19.88C419.9 379.4 426.9 384 434.7 384h65.01l-50.17 102.9c-3.426 7.719-.8379 16.7 6.199 21.64C458.1 510.9 462.8 512 466.7 512c4.412 0 8.787-1.492 12.29-4.445l154.7-124C639.5 378.6 641.5 370.7 638.8 363.7z"/></svg>