<svg xmlns="http://www.w3.org/2000/svg" viewBox="0 0 512 512"><!--! Font Awesome Pro 6.1.1 by @fontawesome - https://fontawesome.com License - https://fontawesome.com/license (Commercial License) Copyright 2022 Fonticons, Inc. --><path d="M310.6 246.6c12.5-12.5 12.5-32.76 0-45.25C304.4 195.1 296.2 191.1 288 191.1s-16.38 3.123-22.63 9.373c-12.5 12.5-12.5 32.76 0 45.25c6.248 6.248 14.44 9.373 22.63 9.373S304.4 252.9 310.6 246.6zM287.1 448h-224V64H224V0H47.1c-26.5 0-48 21.5-48 48v416c0 26.5 21.5 48 48 48h255.1c26.5 0 48-21.5 48-48l.002-176h-64L287.1 448zM144 384C135.2 384 128 391.2 128 400S135.2 416 144 416h64C216.8 416 224 408.8 224 400S216.8 384 208 384H144zM444.1 67.95C400.2 24.14 341.1 0 280 0c-13.26 0-24.03 10.74-24.03 23.1c0 13.26 10.74 23.1 23.1 23.1c49.14 0 95.36 19.15 130.1 53.89c34.75 34.75 53.89 80.96 53.89 130.1c0 13.26 10.74 23.1 23.1 23.1C501.3 255.1 512 245.3 512 231.1C512 170 487.9 111.8 444.1 67.95zM279.1 96c-13.26 0-24 10.74-24 23.1s10.74 23.1 23.1 23.1c48.53 0 88.01 39.49 88.01 88.01c0 13.26 10.74 23.1 23.1 23.1S416 245.3 416 232c0-37.5-15.25-71.5-39.88-96.13S317.5 96 279.1 96z"/></svg>