<svg xmlns="http://www.w3.org/2000/svg" viewBox="0 0 640 512"><!--! Font Awesome Pro 6.1.1 by @fontawesome - https://fontawesome.com License - https://fontawesome.com/license (Commercial License) Copyright 2022 Fonticons, Inc. --><path d="M64 160C64 177.7 49.67 192 32 192C14.33 192 0 177.7 0 160V96C0 42.98 42.98 0 96 0H544C597 0 640 42.98 640 96V160C640 177.7 625.7 192 608 192C590.3 192 576 177.7 576 160V96C576 78.33 561.7 64 544 64H96C78.33 64 64 78.33 64 96V160zM128 96H512V448C512 483.3 483.3 512 448 512H192C156.7 512 128 483.3 128 448V96zM256 448C256 412.7 227.3 384 192 384V448H256zM448 384C412.7 384 384 412.7 384 448H448V384zM416 272C416 227.8 373 192 320 192C266.1 192 224 227.8 224 272C224 316.2 266.1 352 320 352C373 352 416 316.2 416 272z"/></svg>