<svg xmlns="http://www.w3.org/2000/svg" viewBox="0 0 640 512"><!--! Font Awesome Pro 6.0.0-beta3 by @fontawesome - https://fontawesome.com License - https://fontawesome.com/license (Commercial License) Copyright 2021 Fonticons, Inc. --><path d="M512 64C547.3 64 576 92.65 576 128V192.6C560.8 194.6 546.2 201.4 534.6 213.1L353.3 394.3C345.1 402.5 339.3 412.8 336.5 424.1L330.5 448H64C28.65 448 0 419.3 0 384V128C0 92.65 28.65 64 64 64H512zM112 288C103.2 288 96 295.2 96 304C96 312.8 103.2 320 112 320H336C344.8 320 352 312.8 352 304C352 295.2 344.8 288 336 288H112zM112 224H432C440.8 224 448 216.8 448 208C448 199.2 440.8 192 432 192H112C103.2 192 96 199.2 96 208C96 216.8 103.2 224 112 224zM628.1 250.1C643.8 265.7 643.8 291 628.1 306.7L598.7 336.1L527.8 265.1L557.2 235.7C572.8 220.1 598.1 220.1 613.8 235.7L628.1 250.1zM375.9 416.1L505.1 287.8L576.1 358.7L446.9 487.9C442.8 492 437.6 494.9 432 496.3L371.9 511.4C366.4 512.7 360.7 511.1 356.7 507.2C352.7 503.2 351.1 497.4 352.5 491.1L367.5 431.8C368.9 426.2 371.8 421.1 375.9 416.1V416.1z"/></svg>