<svg xmlns="http://www.w3.org/2000/svg" viewBox="0 0 640 512"><!--! Font Awesome Pro 6.0.0-beta3 by @fontawesome - https://fontawesome.com License - https://fontawesome.com/license (Commercial License) Copyright 2021 Fonticons, Inc. --><path d="M624 280c8.875 0 16-7.125 16-16v-16c0-8.875-7.125-16-16-16h-280V192H416c17.62 0 32-14.38 32-32V32c0-17.62-14.38-32-32-32H224C206.4 0 192 14.38 192 32v128c0 17.62 14.38 32 32 32h72v40H16C7.125 232 0 239.1 0 248v16c0 8.875 7.125 16 16 16h88V320H32c-17.62 0-32 14.38-32 32v128c0 17.62 14.38 32 32 32h192c17.62 0 32-14.38 32-32v-128c0-17.62-14.38-32-32-32H152V280h336V320H416c-17.62 0-32 14.38-32 32v128c0 17.62 14.38 32 32 32h192c17.62 0 32-14.38 32-32v-128c0-17.62-14.38-32-32-32h-72V280H624zM192 384v64H64v-64H192zM256 128V64h128v64H256zM576 384v64h-128v-64H576z"/></svg>