<svg xmlns="http://www.w3.org/2000/svg" viewBox="0 0 512 512"><!--! Font Awesome Pro 6.1.1 by @fontawesome - https://fontawesome.com License - https://fontawesome.com/license (Commercial License) Copyright 2022 Fonticons, Inc. --><path d="M24 512C10.75 512 0 501.3 0 488C0 474.7 10.75 464 24 464H488C501.3 464 512 474.7 512 488C512 501.3 501.3 512 488 512H24zM64 48C64 21.49 85.49 0 112 0H176C202.5 0 224 21.49 224 48V336C224 362.5 202.5 384 176 384H112C85.49 384 64 362.5 64 336V48zM288 176C288 149.5 309.5 128 336 128H400C426.5 128 448 149.5 448 176V336C448 362.5 426.5 384 400 384H336C309.5 384 288 362.5 288 336V176z"/></svg>