<svg xmlns="http://www.w3.org/2000/svg" viewBox="0 0 512 512"><!--! Font Awesome Pro 6.1.1 by @fontawesome - https://fontawesome.com License - https://fontawesome.com/license (Commercial License) Copyright 2022 Fonticons, Inc. --><path d="M140.6 21.15C154.1 7.648 172.4 .0625 191.5 .0625H320.5C339.6 .0625 357.9 7.648 371.4 21.15L490.8 140.6C504.3 154.1 511.9 172.4 511.9 191.5V320.5C511.9 339.6 504.3 357.9 490.8 371.4L371.4 490.8C357.9 504.3 339.6 511.9 320.5 511.9H191.5C172.4 511.9 154.1 504.3 140.6 490.8L21.15 371.4C7.652 357.9 .0666 339.6 .0666 320.5V191.5C.0666 172.4 7.652 154.1 21.15 140.6L140.6 21.15zM256 367.1C269.3 367.1 280 357.3 280 343.1V279.1H344C357.3 279.1 368 269.3 368 255.1C368 242.7 357.3 231.1 344 231.1H280V167.1C280 154.7 269.3 143.1 256 143.1C242.7 143.1 232 154.7 232 167.1V231.1H168C154.7 231.1 144 242.7 144 255.1C144 269.3 154.7 279.1 168 279.1H232V343.1C232 357.3 242.7 367.1 256 367.1z"/></svg>