<svg xmlns="http://www.w3.org/2000/svg" viewBox="0 0 448 512"><!--! Font Awesome Pro 6.0.0-beta3 by @fontawesome - https://fontawesome.com License - https://fontawesome.com/license (Commercial License) Copyright 2021 Fonticons, Inc. --><path d="M224 288C210.8 288 200 298.8 200 312v24h48V312C248 298.8 237.2 288 224 288zM160 192C151.2 192 144 199.2 144 208V256c0 8.836 7.164 16 16 16c8.838 0 16-7.164 16-16V208C176 199.2 168.8 192 160 192zM288 192c-8.836 0-16 7.164-16 16V256c0 8.836 7.164 16 16 16c8.838 0 16-7.164 16-16V208C304 199.2 296.8 192 288 192zM384 31.1H64c-35.35 0-64 28.65-64 63.1v320c0 35.35 28.65 64 64 64h320c35.35 0 64-28.65 64-64v-320C448 60.65 419.3 31.1 384 31.1zM332.5 378.6c-3.646 3.5-8.543 5.4-13.65 5.4H129.1c-5.105 0-10-1.9-13.65-5.4C83.79 347.4 64 304.1 64 255.1c0-48.1 19.79-91.4 51.46-122.6C119.1 129.9 124 127.9 129.1 128h189.8c5.104-.0996 10 1.9 13.65 5.4C364.2 164.6 384 207.9 384 255.1C384 304.1 364.2 347.4 332.5 378.6z"/></svg>