<svg xmlns="http://www.w3.org/2000/svg" viewBox="0 0 512 512"><!--! Font Awesome Pro 6.0.0-beta3 by @fontawesome - https://fontawesome.com License - https://fontawesome.com/license (Commercial License) Copyright 2021 Fonticons, Inc. --><path d="M416 128V32c0-17.66-14.34-32-32-32H32C14.34 0 0 14.34 0 32v96c0 17.66 14.34 32 32 32h352C401.7 160 416 145.7 416 128zM448 64v128c0 17.66-14.34 32-32 32h-160C220.7 224 192 252.7 192 288v32c-17.66 0-32 14.34-32 32v128c0 17.66 14.34 32 32 32h64c17.66 0 32-14.34 32-32v-128c0-17.66-14.34-32-32-32V288h160c53.03 0 96-42.97 96-96V128C512 92.66 483.3 64 448 64z"/></svg>