<svg xmlns="http://www.w3.org/2000/svg" viewBox="0 0 640 512"><!--! Font Awesome Pro 6.0.0-beta3 by @fontawesome - https://fontawesome.com License - https://fontawesome.com/license (Commercial License) Copyright 2021 Fonticons, Inc. --><path d="M128 288l-64 208l97.63-104.3C160.9 389.3 160 386.8 160 384c0-17.62 14.38-32 32-32s32 14.38 32 32s-14.38 32-32 32c-2.75 0-5.25-.875-7.75-1.625L80 512L288 448l37.08-96.53l-119.2-93.4L128 288zM630.8 469.1L393.9 283.5l153.6-140.1c84.88-75-39.75-198.5-114.3-114.1l-152.7 166.2L38.81 5.109C34.41 1.672 29.19 0 24.03 0c-7.125 0-14.19 3.156-18.91 9.187c-8.188 10.44-6.375 25.53 4.062 33.7l591.1 463.1c10.5 8.203 25.56 6.328 33.69-4.078C643.1 492.4 641.2 477.3 630.8 469.1z"/></svg>