<svg xmlns="http://www.w3.org/2000/svg" viewBox="0 0 512 512"><!--! Font Awesome Pro 6.0.0-beta3 by @fontawesome - https://fontawesome.com License - https://fontawesome.com/license (Commercial License) Copyright 2021 Fonticons, Inc. --><path d="M136.6 138.8c-20.37 5.749-36.62 21.25-43.37 41.37L0 460l14.75 14.75l149.1-150.1c-2.1-6.249-4.749-13.25-4.749-20.62c0-26.5 21.5-47.99 47.99-47.99s47.99 21.5 47.99 47.99s-21.5 47.99-47.99 47.99c-7.374 0-14.37-1.75-20.62-4.749l-150.1 149.1L51.99 512l279.8-93.24c20.12-6.749 35.62-22.1 41.37-43.37l42.75-151.4l-127.1-127.1L136.6 138.8zM497.9 74.19l-60.13-60.13c-18.75-18.75-49.24-18.74-67.98 .0065l-56.49 56.61l127.1 127.1l56.61-56.49C516.7 123.4 516.7 92.94 497.9 74.19z"/></svg>