<svg xmlns="http://www.w3.org/2000/svg" viewBox="0 0 640 512"><!--! Font Awesome Pro 6.0.0-beta3 by @fontawesome - https://fontawesome.com License - https://fontawesome.com/license (Commercial License) Copyright 2021 Fonticons, Inc. --><path d="M244.6 158.1C232.8 139.3 212.5 128 190.3 128h-60.5C107.5 128 87.22 139.3 75.47 158.1L4.873 271C-4.502 286 .0605 305.8 15.03 315.1c15 9.375 34.75 4.812 44.1-10.19L88 258.8L87.1 480c0 17.67 14.33 32 31.1 32S152 497.7 152 480v-144h16V480c0 17.67 14.32 32 31.1 32S232 497.7 232 480V258.8l28.88 46.2C266.9 314.7 277.4 320 288 320c5.781 0 11.66-1.562 16.94-4.859c14.97-9.375 19.53-29.11 10.16-44.09L244.6 158.1zM159.1 96c26.5 0 47.1-21.5 47.1-48S186.5 0 160 0S111.1 21.5 111.1 48S133.5 96 159.1 96zM479.1 96c26.5 0 48-21.5 48-48S506.5 0 479.1 0S431.1 21.5 431.1 48S453.5 96 479.1 96zM635.1 271l-61.19-97.95C556.3 144.9 525.8 128 492.5 128h-25.06c-33.28 0-63.72 16.86-81.41 45.13l-61.19 97.92c-9.375 14.98-4.812 34.72 10.16 44.09c15.03 9.375 34.75 4.812 44.1-10.19l32.62-52.19L367.1 384H408v96c0 17.67 14.33 32 31.1 32S472 497.7 472 480v-96h16v96c0 17.67 14.33 32 31.1 32s32-14.33 32-32v-96h39.1l-43.75-131.3l32.63 52.22C586.9 314.7 597.4 320 608 320c5.781 0 11.66-1.562 16.94-4.859C639.9 305.8 644.5 286 635.1 271z"/></svg>