<svg xmlns="http://www.w3.org/2000/svg" viewBox="0 0 448 512"><!--! Font Awesome Pro 6.0.0-beta3 by @fontawesome - https://fontawesome.com License - https://fontawesome.com/license (Commercial License) Copyright 2021 Fonticons, Inc. --><path d="M128 160H64C28.65 160 0 188.7 0 224v96c0 17.67 14.33 32 32 32v128c0 17.67 14.33 32 32 32h64c17.67 0 32-14.33 32-32v-128c17.67 0 32-14.33 32-32V224C192 188.7 163.3 160 128 160zM96 128c35.38 0 64-28.62 64-64S131.4 0 96 0S32 28.62 32 64S60.63 128 96 128zM352 128c35.38 0 64-28.62 64-64s-28.62-64-64-64s-64 28.62-64 64S316.6 128 352 128zM384 160h-64c-35.35 0-64 28.65-64 64v96c0 17.67 14.33 32 32 32v128c0 17.67 14.33 32 32 32h64c17.67 0 32-14.33 32-32v-128c17.67 0 32-14.33 32-32V224C448 188.7 419.3 160 384 160z"/></svg>