<svg xmlns="http://www.w3.org/2000/svg" viewBox="0 0 512 512"><!--! Font Awesome Pro 6.0.0-beta3 by @fontawesome - https://fontawesome.com License - https://fontawesome.com/license (Commercial License) Copyright 2021 Fonticons, Inc. --><path d="M493.1 351.2L384.6 304.7c-12.78-5.531-27.8-1.812-36.48 8.969l-44.05 53.81c-69.25-34-125.5-90.28-159.5-159.5l53.83-44.09c10.75-8.781 14.42-23.66 8.984-36.44L160.8 18.93C154.7 5.027 139.7-2.598 124.1 .8079L24.22 24.06C9.969 27.31 0 39.84 0 54.5C0 306.8 205.2 512 457.5 512c14.67 0 27.2-9.969 30.47-24.22l23.25-100.8C514.6 372.4 507 357.2 493.1 351.2zM348.1 62.06l33.94 33.94L348.1 129.9c-9.373 9.373-9.38 24.56 .0005 33.94c9.375 9.375 24.56 9.377 33.94 .0005l33.94-33.94l33.94 33.94c9.377 9.377 24.57 9.375 33.94 .0005c9.375-9.375 9.377-24.56-.0005-33.94l-33.94-33.94l33.94-33.94c9.376-9.376 9.374-24.57-.0004-33.94s-24.56-9.377-33.94-.0005L415.1 62.06l-33.94-33.94c-9.377-9.377-24.57-9.375-33.94-.0005C338.7 37.49 338.7 52.67 348.1 62.06z"/></svg>