<svg xmlns="http://www.w3.org/2000/svg" viewBox="0 0 448 512"><!--! Font Awesome Pro 6.0.0-beta3 by @fontawesome - https://fontawesome.com License - https://fontawesome.com/license (Commercial License) Copyright 2021 Fonticons, Inc. --><path d="M438.6 361.4c12.5 12.5 12.5 32.75 0 45.25l-18.75 18.75c-14.41 14.38-34.31 22.62-54.63 22.62C322.7 448 288 413.4 288 370.8v-242.7H160v152.4c0 51.75-12.23 103.6-35.38 149.9c-5.609 11.22-16.91 17.69-28.66 17.69c-4.797 0-9.688-1.094-14.28-3.375c-15.81-7.906-22.22-27.12-14.31-42.94C86.11 364.3 96 322.3 96 280.5V128H32c-17.67 0-32-14.31-32-32s14.33-32 32-32h384c17.67 0 32 14.31 32 32s-14.33 32-32 32h-64v242.7c.0156 10.78 14.94 17.06 22.64 9.344l18.73-18.72C405.9 348.9 426.1 348.9 438.6 361.4z"/></svg>