<svg xmlns="http://www.w3.org/2000/svg" viewBox="0 0 576 512"><!--! Font Awesome Pro 6.1.1 by @fontawesome - https://fontawesome.com License - https://fontawesome.com/license (Commercial License) Copyright 2022 Fonticons, Inc. --><path d="M482.3 320H365.7L328.5 385.1C342 388.9 352 401.3 352 416C352 433.7 337.7 448 320 448H292.6L265.2 495.9C259.5 505.8 248.9 512 237.4 512H181.2C170.6 512 162.9 501.8 165.8 491.6L214.9 320H112L68.8 377.6C65.78 381.6 61.04 384 56 384H14.03C6.284 384 .0003 377.7 .0003 369.1C.0003 368.7 .1821 367.4 .5402 366.1L23.21 286.8C9.809 282.1 0 270.6 0 256C0 241.4 9.809 229 23.21 225.2L.5402 145.9C.1821 144.6 .0003 143.3 .0003 142C.0003 134.3 6.284 128 14.03 128H56C61.04 128 65.78 130.4 68.8 134.4L112 192H214.9L165.8 20.4C162.9 10.17 170.6 0 181.2 0H237.4C248.9 0 259.5 6.153 265.2 16.12L292.6 64H320C337.7 64 352 78.33 352 96C352 110.7 342 123.1 328.5 126.9L365.7 192H482.3C516.5 192 576 221 576 256C576 292 516.5 320 482.3 320H482.3z"/></svg>