<svg xmlns="http://www.w3.org/2000/svg" viewBox="0 0 512 512"><!--! Font Awesome Pro 6.0.0-beta3 by @fontawesome - https://fontawesome.com License - https://fontawesome.com/license (Commercial License) Copyright 2021 Fonticons, Inc. --><path d="M52.51 71.41C31.88 54.28 0 68.66 0 96.03v319.9c0 27.37 31.88 41.74 52.51 24.62l192-159.1c15.25-12.87 15.25-36.37 0-49.24L52.51 71.41zM352 64c-17.67 0-32.03 14.33-32.03 32v320c0 17.67 14.33 32 32 32C369.6 448 384 433.7 384 416V96C384 78.33 369.7 64 352 64zM480 64c-17.67 0-32.03 14.33-32.03 32v320c0 17.67 14.33 32 32 32C497.6 448 512 433.7 512 416V96C512 78.33 497.7 64 480 64z"/></svg>