<svg xmlns="http://www.w3.org/2000/svg" viewBox="0 0 640 512"><!--! Font Awesome Pro 6.0.0-beta3 by @fontawesome - https://fontawesome.com License - https://fontawesome.com/license (Commercial License) Copyright 2021 Fonticons, Inc. --><path d="M448 447.8L192 448v-96h133.8L122.4 192.6C89.7 195.5 64 222.6 64 256v96c0 17.67 14.33 32 32 32h32v96c0 17.67 14.33 32 32 32h320c12.25 0 22.54-7.119 27.92-17.23L448 447.8zM630.8 469.1L522.2 384H544c17.67 0 32-14.33 32-32V256c0-35.35-28.65-64-64-64H277.3L192 125.2V64h229.5L448 90.51V160h64V77.25c0-8.484-3.375-16.62-9.375-22.62l-45.25-45.25C451.4 3.375 443.2 0 434.8 0H160C142.3 0 128 14.33 128 32v43.01L38.81 5.111C34.41 1.673 29.19 0 24.03 0c-7.125 0-14.19 3.158-18.91 9.189c-8.188 10.44-6.37 25.53 4.068 33.7l591.1 463.1c10.5 8.203 25.57 6.328 33.69-4.078C643.1 492.4 641.2 477.3 630.8 469.1zM496 296c-13.25 0-24-10.75-24-24c0-13.27 10.75-24 24-24s24 10.73 24 24C520 285.3 509.3 296 496 296z"/></svg>