<svg xmlns="http://www.w3.org/2000/svg" viewBox="0 0 640 512"><!--! Font Awesome Pro 6.1.1 by @fontawesome - https://fontawesome.com License - https://fontawesome.com/license (Commercial License) Copyright 2022 Fonticons, Inc. --><path d="M416 128c13.25 0 24-10.75 24-24v-80C440 10.75 429.3 0 416 0s-24 10.75-24 24v80C392 117.3 402.8 128 416 128zM512 136c6.156 0 12.28-2.344 16.97-7.031l56-56c9.375-9.375 9.375-24.56 0-33.94s-24.56-9.375-33.94 0l-56 56c-9.375 9.375-9.375 24.56 0 33.94C499.7 133.7 505.8 136 512 136zM303 128.1C307.7 133.7 313.8 136 320 136s12.28-2.344 16.97-7.031c9.375-9.375 9.375-24.56 0-33.94l-56-56c-9.375-9.375-24.56-9.375-33.94 0s-9.375 24.56 0 33.94L303 128.1zM592 192h-80.88C484.5 172.2 451.8 160 416 160s-68.47 12.16-95.12 32H48C21.5 192 0 213.5 0 240v160C0 426.5 21.5 448 48 448H64l13 51.88C78.75 507 85.13 512 92.5 512h39c7.375 0 13.75-5 15.5-12.12L160 448h160.9C347.5 467.8 380.2 480 416 480c24.44 0 47.34-5.912 68.05-15.71l8.945 35.58C494.8 507 501.1 512 508.5 512h39c7.375 0 13.75-5 15.5-12.12L576 448h16c26.5 0 48-21.5 48-48v-160C640 213.5 618.5 192 592 192zM96 352c-17.62 0-32-14.38-32-32s14.38-32 32-32s32 14.38 32 32S113.6 352 96 352zM192 352c-17.62 0-32-14.38-32-32s14.38-32 32-32s32 14.38 32 32S209.6 352 192 352zM416 416c-53.02 0-96-42.98-96-96s42.98-96 96-96s96 42.98 96 96S469 416 416 416z"/></svg>