<svg xmlns="http://www.w3.org/2000/svg" viewBox="0 0 576 512"><!--! Font Awesome Pro 6.1.1 by @fontawesome - https://fontawesome.com License - https://fontawesome.com/license (Commercial License) Copyright 2022 Fonticons, Inc. --><path d="M352 106.6L352 35.73c0-6-3.375-11.5-8.876-14.25l-39.63-19.75c-2.284-1.177-4.722-1.731-7.127-1.731c-6.282 0-12.34 3.778-14.87 10.11L245.5 100.2C258.6 97.61 272.6 95.98 288 95.98C312.3 95.98 333.3 99.98 352 106.6zM576 319.1c0-64.18-50.9-191.5-150.5-191.5c-10.01 0-20.05 1.271-29.77 3.789c18.82 16.9 18.62 19.65 25.38 31.88c-31.75-23.63-75.64-36.11-133.1-36.11S186.6 140.5 154.9 164.1c6.821-12.34 6.584-15 25.38-31.88C170.5 129.7 160.5 128.4 150.5 128.4c-99.46 0-150.5 126-150.5 191.5c0 64.45 51.25 191.9 151.5 191.9c24.97 0 49.96-7.938 69.41-23.8c17.75 15.38 39.89 23.86 67.14 23.86s49.37-8.484 67.25-23.86c19.38 15.86 44.34 23.8 69.3 23.8C524.7 511.9 576 385.9 576 319.1z"/></svg>