<svg xmlns="http://www.w3.org/2000/svg" viewBox="0 0 640 512"><!--! Font Awesome Pro 6.0.0-beta3 by @fontawesome - https://fontawesome.com License - https://fontawesome.com/license (Commercial License) Copyright 2021 Fonticons, Inc. --><path d="M336 64C336 28.65 364.7 0 400 0C435.3 0 464 28.65 464 64V65.33C469.2 64.45 474.5 64 480 64C485.5 64 490.8 64.45 496 65.33V64C496 28.65 524.7 0 560 0C595.3 0 624 28.65 624 64V72C624 85.25 613.3 96 600 96C586.7 96 576 85.25 576 72V64C576 55.16 568.8 48 560 48C551.2 48 544 55.16 544 64V88.44C550.8 94.55 556.8 101.6 561.6 109.4L609.5 129.9C621.6 135.2 627.3 149.3 622.1 161.5C616.8 173.6 602.7 179.3 590.5 174.1L576 167.8V240C576 284.2 540.2 320 496 320H464C419.8 320 384 284.2 384 240V167.8L369.5 174.1C357.3 179.3 343.2 173.6 337.9 161.5C332.7 149.3 338.4 135.2 350.5 129.9L398.4 109.4C403.2 101.6 409.2 94.55 416 88.45V64C416 55.16 408.8 48 400 48C391.2 48 384 55.16 384 64V72C384 85.25 373.3 96 360 96C346.7 96 336 85.25 336 72L336 64zM464 192C472.8 192 480 184.8 480 176C480 167.2 472.8 160 464 160C455.2 160 448 167.2 448 176C448 184.8 455.2 192 464 192zM528 160C519.2 160 512 167.2 512 176C512 184.8 519.2 192 528 192C536.8 192 544 184.8 544 176C544 167.2 536.8 160 528 160zM352 207.4V240C352 301.9 402.1 352 464 352H475.3C465.9 375.5 442.9 392 416 392C415.5 392 414.1 391.1 414.5 391.1L396.9 485.9C394.1 501 380.8 512 365.4 512H336C318.3 512 303.1 497.7 303.1 480V426.3C292.3 439.6 275.1 448 255.1 448C236.9 448 219.7 439.6 207.1 426.3V480C207.1 497.7 193.7 512 175.1 512H146.6C131.2 512 117.9 501 115.1 485.9L97.5 391.1C96.1 391.1 96.5 392 96 392C60.65 392 32 363.3 32 328C32 322.7 32.66 317.5 33.89 312.5C13.72 301.7 0 280.5 0 256C0 231.5 13.72 210.3 33.89 199.5C32.66 194.5 32 189.3 32 184C32 148.7 60.65 120 96 120C99.34 120 102.6 120.3 105.8 120.8C112.7 92.77 137.9 72 168 72C183 72 196.9 77.19 207.8 85.88C219.5 72.47 236.8 64 256 64C286.7 64 312.3 85.56 318.5 114.3C304.3 130.1 299.6 153.3 308.5 174.1C316.5 192.7 333.3 204.7 352 207.4L352 207.4z"/></svg>