<svg xmlns="http://www.w3.org/2000/svg" viewBox="0 0 448 512"><!--! Font Awesome Pro 6.0.0-beta3 by @fontawesome - https://fontawesome.com License - https://fontawesome.com/license (Commercial License) Copyright 2021 Fonticons, Inc. --><path d="M384 272H64v32h320V272zM64 176h320v-32H64V176zM32 64h32v48h320V64h32c17.67 0 32-14.33 32-32c0-17.67-14.33-32-32-32H32C14.33 0 0 14.33 0 32C0 49.67 14.33 64 32 64zM432 208H64v32h368C440.8 240 448 232.8 448 224C448 215.2 440.8 208 432 208zM416 448h-32v-48H64V448H32c-17.67 0-32 14.33-32 32c0 17.67 14.33 32 32 32h384c17.67 0 32-14.33 32-32C448 462.3 433.7 448 416 448zM64 368h320v-32H64V368z"/></svg>