<svg xmlns="http://www.w3.org/2000/svg" viewBox="0 0 448 512"><!--! Font Awesome Pro 6.0.0-beta3 by @fontawesome - https://fontawesome.com License - https://fontawesome.com/license (Commercial License) Copyright 2021 Fonticons, Inc. --><path d="M32 64C14.33 64 0 78.33 0 95.1V416C0 433.7 14.33 448 31.1 448S64 433.7 64 416V95.1C64 78.33 49.67 64 32 64zM440.8 238.5l-144.1-136c-6.975-6.578-17.2-8.375-26-4.594C261.9 101.8 256.2 110.4 256.2 120V192H128.1C110.4 192 96.05 206.3 96.05 224v64c0 17.67 14.35 32 32.04 32h128.1v72c0 9.578 5.708 18.25 14.51 22.05c8.805 3.781 19.03 1.984 26-4.594l144.1-136C450.4 264.4 450.4 247.6 440.8 238.5z"/></svg>