<svg xmlns="http://www.w3.org/2000/svg" viewBox="0 0 576 512"><!--! Font Awesome Pro 6.1.1 by @fontawesome - https://fontawesome.com License - https://fontawesome.com/license (Commercial License) Copyright 2022 Fonticons, Inc. --><path d="M304 32C330.5 32 352 53.49 352 80V208C352 234.5 330.5 256 304 256H261.2L144.3 454.6C130.9 477.5 101.5 485.1 78.63 471.7L25.22 440.2C2.431 426.8-5.225 397.5 8.098 374.7L80.03 251.4C33.75 237.6 0 194.7 0 144C0 82.14 50.14 32 112 32H304zM552 32C565.3 32 576 42.75 576 56V72C576 85.25 565.3 96 552 96H440C426.7 96 416 85.25 416 72V56C416 42.75 426.7 32 440 32H552zM416 216C416 202.7 426.7 192 440 192H552C565.3 192 576 202.7 576 216V232C576 245.3 565.3 256 552 256H440C426.7 256 416 245.3 416 232V216zM552 416C565.3 416 576 426.7 576 440V456C576 469.3 565.3 480 552 480H440C426.7 480 416 469.3 416 456V440C416 426.7 426.7 416 440 416H552zM416 144C416 135.2 423.2 128 432 128H560C568.8 128 576 135.2 576 144C576 152.8 568.8 160 560 160H432C423.2 160 416 152.8 416 144zM560 288C568.8 288 576 295.2 576 304C576 312.8 568.8 320 560 320H432C423.2 320 416 312.8 416 304C416 295.2 423.2 288 432 288H560zM416 368C416 359.2 423.2 352 432 352H560C568.8 352 576 359.2 576 368C576 376.8 568.8 384 560 384H432C423.2 384 416 376.8 416 368z"/></svg>