<svg xmlns="http://www.w3.org/2000/svg" viewBox="0 0 576 512"><!--! Font Awesome Pro 6.0.0-beta3 by @fontawesome - https://fontawesome.com License - https://fontawesome.com/license (Commercial License) Copyright 2021 Fonticons, Inc. --><path d="M560 352H416l-32 32l-31.1-32h-64l.0006 32c0 52.88-43 96-96 96h272C525.6 480 575.6 430.3 576 368.7C576.1 359.6 569.1 352 560 352zM48 32c-26.5 0-48 21.5-48 48l-.001 64c0 8.875 7.125 16 15.1 16H96V80C96 53.5 74.5 32 48 32zM256 380.6V320h223.1L480 287.1l-4.342-4.343c-.1445-.125-.2539-.1289-.4062-.2813L448 256l31.1-31.1v-32L448 160l31.1-32c0 0 .1263-2.75-.2487-7.25C476 71.13 434.5 32 384 32H111.6C121.8 45.38 128 61.88 128 80L128 192l4.345 4.344c.1445 .125 .2539 .1289 .4062 .2813L160 224l-32 32l.0003 128c0 38.88 34.63 69.63 74.75 63.13C234.3 442 256 412.5 256 380.6z"/></svg>