<svg xmlns="http://www.w3.org/2000/svg" viewBox="0 0 640 512"><!--! Font Awesome Pro 6.1.1 by @fontawesome - https://fontawesome.com License - https://fontawesome.com/license (Commercial License) Copyright 2022 Fonticons, Inc. --><path d="M549.8 0l-210.1 0C191.1 0 63.1 63.1 0 191.1L509.1 192L549.8 0zM632.6 11.62c-6-7.375-15.12-11.62-24.62-11.62l-25.5 0l-59.75 288h-106.7c-17.67 0-31.99 14.33-31.99 32s14.32 32 31.99 32h93.49l-29.25 141c-.875 4.75 .375 9.5 3.5 13.25C486.7 509.9 491.2 512 495.1 512h31.5c7.623 0 14.25-5.5 15.62-13L639.5 38C641.2 28.62 638.7 18.1 632.6 11.62z"/></svg>