<svg xmlns="http://www.w3.org/2000/svg" viewBox="0 0 512 512"><!--! Font Awesome Pro 6.0.0-beta3 by @fontawesome - https://fontawesome.com License - https://fontawesome.com/license (Commercial License) Copyright 2021 Fonticons, Inc. --><path d="M493.6 222.1L448 176.5V112C448 85.49 426.5 64 400 64h-64.47l-45.59-45.59c-18.75-18.75-49.14-18.75-67.88 0L176.5 64H112C85.49 64 64 85.49 64 112v64.47L18.41 222.1c-18.75 18.74-18.75 49.14 0 67.88L64 335.5V400C64 426.5 85.49 448 112 448h64.47l45.59 45.59c18.75 18.74 49.14 18.74 67.88 0L335.5 448H400c26.51 0 48-21.49 48-48v-64.47l45.59-45.59C512.3 271.2 512.3 240.8 493.6 222.1zM248 400c-18 0-32-14-32-32s13.1-32 32-32c17.1 0 32 14 32 32S265.1 400 248 400zM317.1 258L272 286V288c0 13-11 24-24 24S224 301 224 288V272C224 264 228 256 236 251l57-34C300 213 304 206 304 198c0-12-10-22-22-22h-52C217.1 176 208 186 208 198c0 13-11 24-24 24S160 211 160 198C160 159 191 128 229.1 128h52C321 128 352 159 352 198C352 222 339 245 317.1 258z"/></svg>