<svg xmlns="http://www.w3.org/2000/svg" viewBox="0 0 640 512"><!--! Font Awesome Pro 6.1.1 by @fontawesome - https://fontawesome.com License - https://fontawesome.com/license (Commercial License) Copyright 2022 Fonticons, Inc. --><path d="M192 0C227.3 0 256 28.65 256 64V192C256 227.3 227.3 256 192 256H64C28.65 256 0 227.3 0 192V64C0 28.65 28.65 0 64 0H192zM192 64H64V192H192V64zM576 256C611.3 256 640 284.7 640 320V448C640 483.3 611.3 512 576 512H448C412.7 512 384 483.3 384 448V320C384 284.7 412.7 256 448 256H576zM576 320H448V448H576V320zM192 288C245 288 288 245 288 192V96H416C451.3 96 480 124.7 480 160V224H448C394.1 224 352 266.1 352 320V416H224C188.7 416 160 387.3 160 352V288H192z"/></svg>