<svg xmlns="http://www.w3.org/2000/svg" viewBox="0 0 640 512"><!--! Font Awesome Pro 6.1.1 by @fontawesome - https://fontawesome.com License - https://fontawesome.com/license (Commercial License) Copyright 2022 Fonticons, Inc. --><path d="M633.1 403.4l-140.9-244.1c-19.62-34.13-68.88-34.13-88.5 0l-140.9 244.1C243.2 437.4 267.9 480 307.1 480h281.7C628.1 480 652.7 437.4 633.1 403.4zM447.1 432c-13.25 0-24-10.75-24-24S434.7 384 447.1 384s23.1 10.75 23.1 24S461.2 432 447.1 432zM472 336c0 13.25-10.75 24-24 24s-24-10.75-24-24V256c0-13.25 10.75-24 24-24S472 242.8 472 256V336zM235.2 387.4l140.7-244.1c14.75-25.88 42.25-41.75 71.1-41.63L447.1 96c0-35.38-28.62-64-63.1-64H63.1C28.62 32-.0035 60.63-.0035 96v320c0 35.38 28.63 64 63.1 64h178.5c-2.5-3.125-5.249-6-7.249-9.5C220.2 444.8 220.1 413 235.2 387.4zM95.1 272c0 8.875-7.125 16-16 16S63.1 280.9 63.1 272v-160c0-8.875 7.125-16 15.1-16s15.1 7.125 15.1 16L95.1 272zM159.1 272c0 8.875-7.126 16-16 16S127.1 280.9 127.1 272l-.001-160c0-8.875 7.125-16 15.1-16s15.1 7.125 15.1 16L159.1 272zM207.1 288C199.1 288 191.1 280.9 191.1 272l-.0014-160c0-8.875 7.125-16 15.1-16s15.1 7.125 15.1 16l.0015 160C223.1 280.9 216.9 288 207.1 288z"/></svg>