<svg xmlns="http://www.w3.org/2000/svg" viewBox="0 0 640 512"><!--! Font Awesome Pro 6.0.0-beta3 by @fontawesome - https://fontawesome.com License - https://fontawesome.com/license (Commercial License) Copyright 2021 Fonticons, Inc. --><path d="M288.9 315.4c0-60.1 53.75-153.4 130.6-224.5c5.875-5.5 13.75-8.625 21.88-8.625c2.25 0 4.375 .75 6.625 1.25C441.1 53.5 415.6 32 385.1 32H64.05C28.68 32 0 60.62 0 96v320c0 35.38 28.68 64 64.05 64h312.5C321.6 443.2 288.8 381.5 288.9 315.4zM96.19 272c0 8.875-7.062 16-15.94 16c-8.875 0-16.12-7.125-16.12-16v-160c0-8.875 7.25-16 16.12-16c8.875 0 16 7.125 16 16L96.19 272zM160.5 272c0 8.875-7.25 16-16.12 16c-8.875 0-16-7.125-16-16v-160c0-8.875 7.125-16 16-16C153.2 96 160.5 103.1 160.5 112V272zM224.6 272c0 8.875-7.125 16-16 16C199.8 288 192.5 280.9 192.5 272v-160c0-8.875 7.25-16 16.12-16c8.875 0 16 7.125 16 16V272zM551.1 150.9C536.8 164.2 523.4 178.5 511 193.8C489.1 165 466.1 138.4 440 114.2C369.8 179.4 320 264.2 320 315.4C320 406.4 391.6 480 480 480s160-73.63 160-164.6C640 277.4 602.9 198.9 551.1 150.9zM540 397.9C523.1 409.8 502.9 416 482.1 416C428 416 384 380.2 384 322.1C384 293.1 402.2 267.6 438.6 224c5.125 6 74.13 94 74.13 94l44-50.13c3.125 5.125 5.875 10.13 8.375 15C585.6 322 577 372 540 397.9z"/></svg>