<svg xmlns="http://www.w3.org/2000/svg" viewBox="0 0 448 512"><!--! Font Awesome Pro 6.0.0-beta3 by @fontawesome - https://fontawesome.com License - https://fontawesome.com/license (Commercial License) Copyright 2021 Fonticons, Inc. --><path d="M384 32H64C28.62 32 0 60.62 0 96v320c0 35.38 28.62 64 64 64h320c35.38 0 64-28.62 64-64V96C448 60.62 419.4 32 384 32zM96 272C96 280.9 88.88 288 80 288S64 280.9 64 272v-160C64 103.1 71.13 96 80 96S96 103.1 96 112V272zM160 272C160 280.9 152.9 288 144 288S128 280.9 128 272v-160C128 103.1 135.1 96 144 96S160 103.1 160 112V272zM224 272C224 280.9 216.9 288 208 288S192 280.9 192 272v-160C192 103.1 199.1 96 208 96S224 103.1 224 112V272z"/></svg>