<svg xmlns="http://www.w3.org/2000/svg" viewBox="0 0 384 512"><!--! Font Awesome Pro 6.0.0-beta3 by @fontawesome - https://fontawesome.com License - https://fontawesome.com/license (Commercial License) Copyright 2021 Fonticons, Inc. --><path d="M368 192H352c0-77.4-54.97-141.9-128-156.8v-19.22c0-8.838-7.164-15.1-16-15.1h-32c-8.836 0-16 7.162-16 15.1v19.22C86.97 50.05 32 114.6 32 192H16C7.164 192 0 199.2 0 207.1v32c0 8.836 7.164 16 16 16h352c8.836 0 16-7.164 16-16V208C384 199.2 376.8 192 368 192zM69.26 290.9c-2.375-3.703-8.148-3.703-10.52 0C54.28 297.8 32 333.3 32 349.8c0 18.95 14.35 34.31 31.1 34.31S96 368.7 96 349.8C96 333.3 73.72 297.8 69.26 290.9zM314.7 290.9C310.3 297.8 288 333.3 288 349.8c0 18.95 14.35 34.31 31.1 34.31S352 368.7 352 349.8c0-16.5-22.28-51.92-26.74-58.88C322.9 287.2 317.1 287.2 314.7 290.9zM122.7 418.8C118.3 425.7 96 461.1 96 477.7C96 496.6 110.3 512 127.1 512S160 496.6 160 477.7c0-16.5-22.28-51.93-26.74-58.88C130.9 415.1 125.1 415.1 122.7 418.8zM197.3 290.9c-2.375-3.703-8.148-3.703-10.52 0C182.3 297.8 160 333.3 160 349.8c0 18.95 14.35 34.31 31.1 34.31S224 368.7 224 349.8C224 333.3 201.7 297.8 197.3 290.9zM250.7 418.8C246.3 425.7 224 461.1 224 477.7C224 496.6 238.4 512 256 512S288 496.6 288 477.7c0-16.5-22.28-51.93-26.74-58.88C258.9 415.1 253.1 415.1 250.7 418.8z"/></svg>