<svg xmlns="http://www.w3.org/2000/svg" viewBox="0 0 640 512"><!--! Font Awesome Pro 6.1.1 by @fontawesome - https://fontawesome.com License - https://fontawesome.com/license (Commercial License) Copyright 2022 Fonticons, Inc. --><path d="M138.9 83.55C154.9 52.91 187 32 224 32C277 32 320 74.98 320 128V135.8C320 156.6 318.8 177.4 316.4 198.1L438.8 161.4C450.2 157.9 462.6 161.1 470.1 169.7C479.3 178.3 482.1 190.8 478.4 202.1L460.4 256H544C561.7 256 576 270.3 576 288C576 305.7 561.7 320 544 320H440.6L501.8 368H616C629.3 368 640 378.7 640 392C640 405.3 629.3 416 616 416H563L630.8 469.1C641.2 477.3 643.1 492.4 634.9 502.8C626.7 513.2 611.6 515.1 601.2 506.9L9.196 42.89C-1.236 34.71-3.065 19.63 5.112 9.196C13.29-1.236 28.37-3.065 38.81 5.112L138.9 83.55zM192.1 125.3L254.5 174.1C255.5 161.4 256 148.6 256 135.8V128C256 110.3 241.7 96 224 96C207.2 96 193.5 108.9 192.1 125.3V125.3zM355.3 253.2L385.9 277.1L398.2 240.4L355.3 253.2zM164.4 243.7L181.1 238.7L288.4 323.3C277.2 356.5 262.8 388.6 245.3 419.2L231.4 443.5C218.5 466.1 194.5 480 168.5 480C128.5 480 96 447.5 96 407.5V335.6C96 293.2 123.8 255.8 164.4 243.7V243.7zM231.8 290.3L182.8 304.1C169.3 309 160 321.5 160 335.6V407.5C160 412.2 163.8 416 168.5 416C171.5 416 174.4 414.4 175.9 411.7L189.8 387.4C207.3 356.6 221.4 324.1 231.8 290.3V290.3zM24 368H64V407.5C64 410.4 64.12 413.2 64.34 416H24C10.75 416 .0013 405.3 .0013 392C.0013 378.7 10.75 368 24 368V368z"/></svg>