<svg xmlns="http://www.w3.org/2000/svg" viewBox="0 0 640 512"><!--! Font Awesome Pro 6.0.0-beta3 by @fontawesome - https://fontawesome.com License - https://fontawesome.com/license (Commercial License) Copyright 2021 Fonticons, Inc. --><path d="M192 287.1c-17.67 0-32 14.32-32 31.1v159.1c0 17.67 14.33 32 32 32c17.67 0 32-14.33 32-32v-159.1C224 302.3 209.7 287.1 192 287.1zM64 383.1c-17.67 0-32 14.32-32 31.1v63.1c0 17.67 14.33 32 32 32c17.67 0 32-14.33 32-32v-63.1C96 398.3 81.67 383.1 64 383.1zM288 480c0 17.67 14.33 32 32 32s32-14.33 32-32v-107.4l-64-50.16V480zM630.8 469.1L607.1 451.2V32c0-17.67-14.33-32-31.1-32S543.1 14.33 543.1 32v369.1L480 350.9V128c0-17.67-14.33-32-32-32s-32 14.33-32 32v172.7l-64-50.16V224c0-17.67-14.33-32-32-32C309.3 192 300.4 197.5 294.6 205.6L38.81 5.111C34.41 1.673 29.19 0 24.03 0C16.91 0 9.84 3.158 5.121 9.189c-8.188 10.44-6.37 25.53 4.068 33.7l591.1 463.1c10.5 8.203 25.57 6.328 33.69-4.078C643.1 492.4 641.2 477.3 630.8 469.1zM416 480c0 17.67 14.33 32 32 32s32-14.33 32-32v-7.102l-64-50.16V480z"/></svg>