<svg xmlns="http://www.w3.org/2000/svg" viewBox="0 0 640 512"><!--! Font Awesome Pro 6.1.1 by @fontawesome - https://fontawesome.com License - https://fontawesome.com/license (Commercial License) Copyright 2022 Fonticons, Inc. --><path d="M192.4 247.5L150 214.3c-12.1 49.99-2.779 106.2 31.83 145.6C186.6 365.3 193.2 368 199.9 368c5.615 0 11.28-1.969 15.84-5.969c9.963-8.75 10.95-23.91 2.191-33.88C198.6 306.1 190.3 276.4 192.4 247.5zM96 256c0-25.75 4.246-50.72 12.51-74.26L56.21 140.8C40.45 176.9 32 216.2 32 256c0 65.28 22.44 129.2 63.19 180C101.5 443.9 110.8 448 120.2 448c7.031 0 14.09-2.312 20-7.031c13.8-11.06 16-31.22 4.953-45C112.1 355.9 96 307.5 96 256zM630.8 469.1l-70.19-55.01C591.3 367.4 608 312.2 608 256c0-65.29-22.44-129.2-63.19-180c-11.09-13.78-31.23-15.97-44.98-4.938c-13.8 11.06-16 31.22-4.953 45C527 156.1 544 204.5 544 256c0 42.57-12.22 82.73-34.4 118.1l-39.48-30.94c37.48-57.45 33.8-138.9-11.97-191c-8.727-9.965-23.9-10.93-33.9-2.188c-9.963 8.75-10.95 23.91-2.191 33.88c31.01 35.27 34.38 90.09 10.41 129.8l-58.21-45.63C375.1 264.1 376 260.2 376 256c0-30.88-25.12-56-56-56c-8.889 0-16.92 2.68-24.38 6.389L38.81 5.113C28.34-3.059 13.31-1.246 5.109 9.191c-8.172 10.44-6.344 25.53 4.078 33.7L601.2 506.9C605.6 510.3 610.8 512 615.1 512c7.125 0 14.17-3.156 18.91-9.187C643.1 492.4 641.2 477.3 630.8 469.1z"/></svg>