<svg xmlns="http://www.w3.org/2000/svg" viewBox="0 0 640 512"><!--! Font Awesome Pro 6.1.1 by @fontawesome - https://fontawesome.com License - https://fontawesome.com/license (Commercial License) Copyright 2022 Fonticons, Inc. --><path d="M96 160C96 177.7 81.67 192 64 192C46.33 192 32 177.7 32 160V128C32 74.98 74.98 32 128 32C181 32 224 74.98 224 128V135.8C224 156.6 222.8 177.4 220.4 198.1L342.8 161.3C354.2 157.9 366.6 161.1 374.1 169.7C383.3 178.3 386.1 190.8 382.4 202.1L364.4 255.1H417.1C416.4 261.2 416 266.6 416 271.1V296.6C406.3 302.2 398.2 310.3 392.6 319.1H320C309.7 319.1 300.1 315.1 294 306.7C288 298.4 286.4 287.6 289.6 277.9L302.1 240.4L207.7 268.7C195.9 321.5 176.2 372.2 149.3 419.2L135.4 443.5C122.5 466.1 98.51 480 72.5 480C32.46 480 0 447.5 0 407.5V335.6C0 293.2 27.81 255.8 68.41 243.7L152.9 218.3C157.6 191.1 160 163.5 160 135.8V128C160 110.3 145.7 96 128 96C110.3 96 96 110.3 96 128V160zM64 335.6V407.5C64 412.2 67.8 416 72.5 416C75.55 416 78.36 414.4 79.88 411.7L93.76 387.4C111.3 356.6 125.4 324.1 135.8 290.3L86.8 304.1C73.27 309 64 321.5 64 335.6V335.6zM209.9 368H384V416H187.5C195.7 400.3 203.2 384.3 209.9 368V368zM528 192C572.2 192 608 227.8 608 272V320C625.7 320 640 334.3 640 352V480C640 497.7 625.7 512 608 512H448C430.3 512 416 497.7 416 480V352C416 334.3 430.3 320 448 320V272C448 227.8 483.8 192 528 192zM528 240C510.3 240 496 254.3 496 272V320H560V272C560 254.3 545.7 240 528 240z"/></svg>