<svg xmlns="http://www.w3.org/2000/svg" viewBox="0 0 512 512"><!--! Font Awesome Pro 6.0.0-beta3 by @fontawesome - https://fontawesome.com License - https://fontawesome.com/license (Commercial License) Copyright 2021 Fonticons, Inc. --><path d="M191.8 115.6l25.06-83.4L115.2 32.12c-15.25 0-28.39 10.77-31.38 25.72L40.54 274.3C112.1 249.4 168.1 191.8 191.8 115.6zM480 448v-74.33c0-13.08-7.967-24.85-20.12-29.71l-139.7-55.89L272 288.1c-8.836 0-16-7.16-16-15.99c0-8.834 7.164-15.99 16-15.99l56-.0654l8.084-32.33l9.01-31.66L288 192.2c-8.836 0-16-7.162-16-15.99c0-8.834 7.164-15.99 16-15.99l66.2-.0898l36.92-129.7c.6232-2.191 .895-4.31 .895-6.48c0-7.694-6.011-23.99-24.02-23.99c-10.47 0-20.12 7.131-23.12 17.66l-4.116 14.58L250.3 32.24l-27.82 92.58C194.7 217.3 122.7 285.6 33.38 310.1l-32.74 163.6c-.4275 2.136-.6324 4.258-.6324 6.342C.0004 497.3 13.1 512 32.01 512H480c17.67 0 32-14.33 32-31.99C512 462.3 497.7 448 480 448z"/></svg>