<svg xmlns="http://www.w3.org/2000/svg" viewBox="0 0 512 512"><!--! Font Awesome Pro 6.1.1 by @fontawesome - https://fontawesome.com License - https://fontawesome.com/license (Commercial License) Copyright 2022 Fonticons, Inc. --><path d="M352 96C387.3 96 416 124.7 416 160V224H480C497.7 224 512 238.3 512 256C512 273.7 497.7 288 480 288H416V352C416 387.3 387.3 416 352 416H320C284.7 416 256 387.3 256 352V160C256 124.7 284.7 96 320 96H352zM352 160H320V352H352V160zM32 224H224V288H32C14.33 288 0 273.7 0 256C0 238.3 14.33 224 32 224z"/></svg>