<svg xmlns="http://www.w3.org/2000/svg" viewBox="0 0 512 512"><!--! Font Awesome Pro 6.1.1 by @fontawesome - https://fontawesome.com License - https://fontawesome.com/license (Commercial License) Copyright 2022 Fonticons, Inc. --><path d="M504.1 382.1c9.387 9.387 9.387 24.61 0 33.99l-80 79.98c-15.13 15.12-40.99 4.406-40.99-16.98V432H320c-9.125 0-17.84-3.906-23.91-10.75L177.6 288H32C14.31 288 0 273.7 0 256s14.31-32 32-32h145.6l118.5-133.3C302.2 83.91 310.9 80 320 80h63.97V32.06c0-21.39 25.86-32.11 40.99-16.98l80 79.98c9.387 9.383 9.387 24.6 0 33.99l-79.99 79.97c-15.13 15.12-40.1 4.406-40.1-16.98V144h-49.59L234.8 256l99.58 112h49.59V319.1c0-21.39 25.87-32.11 40.1-16.98L504.1 382.1z"/></svg>