<svg xmlns="http://www.w3.org/2000/svg" viewBox="0 0 448 512"><!--! Font Awesome Pro 6.0.0-beta3 by @fontawesome - https://fontawesome.com License - https://fontawesome.com/license (Commercial License) Copyright 2021 Fonticons, Inc. --><path d="M384 32H64C28.65 32 0 60.66 0 96v320c0 35.34 28.65 64 64 64h320c35.35 0 64-28.66 64-64V96C448 60.66 419.3 32 384 32zM184.1 310.2c9.844 8.875 10.64 24.03 1.781 33.91C181.1 349.3 174.6 352 168 352c-5.734 0-11.47-2.031-16.06-6.156l-80-72C66.89 269.3 64 262.8 64 256s2.891-13.28 7.938-17.84l80-72c9.875-8.844 25.03-8.031 33.91 1.781c8.859 9.875 8.062 25.03-1.781 33.91L123.9 256L184.1 310.2zM376.1 273.8l-80 72C291.5 349.1 285.7 352 280 352c-6.562 0-13.09-2.688-17.84-7.938c-8.859-9.875-8.062-25.03 1.781-33.91L324.1 256l-60.19-54.16c-9.844-8.875-10.64-24.03-1.781-33.91c8.875-9.844 24.05-10.62 33.91-1.781l80 72C381.1 242.7 384 249.2 384 256S381.1 269.3 376.1 273.8z"/></svg>