<svg xmlns="http://www.w3.org/2000/svg" viewBox="0 0 448 512"><!--! Font Awesome Pro 6.0.0-beta3 by @fontawesome - https://fontawesome.com License - https://fontawesome.com/license (Commercial License) Copyright 2021 Fonticons, Inc. --><path d="M384 32C419.3 32 448 60.65 448 96V416C448 451.3 419.3 480 384 480H64C28.65 480 0 451.3 0 416V96C0 60.65 28.65 32 64 32H384zM80 384C71.16 384 64 391.2 64 400C64 408.8 71.16 416 80 416H368C376.8 416 384 408.8 384 400C384 391.2 376.8 384 368 384H80zM288 192V304C288 312.8 295.2 320 304 320H336C344.8 320 352 312.8 352 304V192H374.6C384.2 192 392 184.2 392 174.6C392 170.4 390.4 166.2 387.6 163.1L333.3 101.1C329.9 98.18 325.1 96 320 96C314.9 96 310.1 98.18 306.7 101.1L252.4 163.1C249.6 166.2 248 170.4 248 174.6C248 184.2 255.8 192 265.4 192H288zM96 192V304C96 312.8 103.2 320 112 320H144C152.8 320 160 312.8 160 304V192H182.6C192.2 192 200 184.2 200 174.6C200 170.4 198.4 166.2 195.6 163.1L141.3 101.1C137.9 98.18 133.1 96 128 96C122.9 96 118.1 98.18 114.7 101.1L60.39 163.1C57.56 166.2 56 170.4 56 174.6C56 184.2 63.79 192 73.39 192H96z"/></svg>