<svg xmlns="http://www.w3.org/2000/svg" viewBox="0 0 448 512"><!--! Font Awesome Pro 6.0.0-beta3 by @fontawesome - https://fontawesome.com License - https://fontawesome.com/license (Commercial License) Copyright 2021 Fonticons, Inc. --><path d="M384 32H64C28.65 32 0 60.65 0 96v320c0 35.35 28.65 64 64 64h320c35.35 0 64-28.65 64-64V96C448 60.65 419.3 32 384 32zM296 384h-144c-8.938 0-17.12-4.953-21.25-12.86c-4.156-7.906-3.562-17.47 1.531-24.8L250.2 176H152C138.8 176 128 165.3 128 152S138.8 128 152 128h144c8.938 0 17.12 4.953 21.25 12.86c4.156 7.906 3.562 17.47-1.531 24.8L197.8 336H296c13.25 0 24 10.75 24 24S309.3 384 296 384z"/></svg>