<svg xmlns="http://www.w3.org/2000/svg" viewBox="0 0 448 512"><!--! Font Awesome Pro 6.1.1 by @fontawesome - https://fontawesome.com License - https://fontawesome.com/license (Commercial License) Copyright 2022 Fonticons, Inc. --><path d="M384 32C419.3 32 448 60.65 448 96V416C448 451.3 419.3 480 384 480H64C28.65 480 0 451.3 0 416V96C0 60.65 28.65 32 64 32H384zM261.8 131.6L125.8 243.6C120.6 247.9 118.7 255 120.9 261.4C123.2 267.8 129.2 271.1 136 271.1H199.7L161.3 361.7C158.4 368.5 160.5 376.4 166.4 380.8C172.3 385.2 180.5 385 186.2 380.4L322.2 268.4C327.4 264.1 329.3 256.1 327.1 250.6C324.8 244.2 318.8 240 312 240H248.3L286.7 150.3C289.6 143.5 287.5 135.6 281.6 131.2C275.7 126.8 267.5 126.1 261.8 131.6V131.6z"/></svg>