<svg xmlns="http://www.w3.org/2000/svg" viewBox="0 0 448 512"><!--! Font Awesome Pro 6.1.1 by @fontawesome - https://fontawesome.com License - https://fontawesome.com/license (Commercial License) Copyright 2022 Fonticons, Inc. --><path d="M384 32H64C28.65 32 0 60.65 0 96v320c0 35.35 28.65 64 64 64h320c35.35 0 64-28.65 64-64V96C448 60.65 419.3 32 384 32zM330.3 344.5c8.562 10.11 7.297 25.27-2.828 33.83C323 382.1 317.5 384 312 384c-6.812 0-13.59-2.891-18.34-8.5L224 293.2L154.3 375.5C149.6 381.1 142.8 384 135.1 384C130.5 384 125 382.1 120.5 378.3c-10.12-8.562-11.39-23.72-2.828-33.83L192.6 256L117.7 167.5C109.1 157.4 110.4 142.2 120.5 133.7C130.6 125.1 145.8 126.4 154.3 136.5L224 218.8l69.67-82.34c8.547-10.12 23.72-11.41 33.83-2.828c10.12 8.562 11.39 23.72 2.828 33.83L255.4 256L330.3 344.5z"/></svg>