<svg xmlns="http://www.w3.org/2000/svg" viewBox="0 0 448 512"><!--! Font Awesome Pro 6.0.0-beta3 by @fontawesome - https://fontawesome.com License - https://fontawesome.com/license (Commercial License) Copyright 2021 Fonticons, Inc. --><path d="M384 32C419.3 32 448 60.65 448 96V416C448 451.3 419.3 480 384 480H64C28.65 480 0 451.3 0 416V96C0 60.65 28.65 32 64 32H384zM128 208C128 255.6 162.6 295.1 208 302.7V384H160C151.2 384 144 391.2 144 400C144 408.8 151.2 416 160 416H288C296.8 416 304 408.8 304 400C304 391.2 296.8 384 288 384H240V302.7C285.4 295.1 320 255.6 320 208V118.3C320 105.1 310 96 297.7 96H240L272 160L224 192L256 256L176 192L208 160L176 96H150.3C137.1 96 128 105.1 128 118.3V208z"/></svg>