<svg xmlns="http://www.w3.org/2000/svg" viewBox="0 0 448 512"><!--! Font Awesome Pro 6.1.1 by @fontawesome - https://fontawesome.com License - https://fontawesome.com/license (Commercial License) Copyright 2022 Fonticons, Inc. --><path d="M384 32H64C28.65 32 0 60.65 0 96v320c0 35.35 28.65 64 64 64h320c35.35 0 64-28.65 64-64V96C448 60.65 419.3 32 384 32zM224 400c-18 0-32-14-32-32s13.1-32 32-32c17.1 0 32 14 32 32S241.1 400 224 400zM293.1 258L248 286V288c0 13-11 24-24 24S200 301 200 288V272c0-8 4-16 12-21l57-34C276 213 280 206 280 198c0-12-10-22-22-22h-52C193.1 176 184 186 184 198c0 13-11 24-24 24s-24-11-24-24C136 159 167 128 205.1 128h52C297 128 328 159 328 198C328 222 315 245 293.1 258z"/></svg>