<svg xmlns="http://www.w3.org/2000/svg" viewBox="0 0 448 512"><!--! Font Awesome Pro 6.1.1 by @fontawesome - https://fontawesome.com License - https://fontawesome.com/license (Commercial License) Copyright 2022 Fonticons, Inc. --><path d="M384 32H64C28.65 32 0 60.65 0 96v320c0 35.35 28.65 64 64 64h320c35.35 0 64-28.65 64-64V96C448 60.65 419.3 32 384 32zM304 290.7C304 342.1 260.9 384 208 384s-96-41.86-96-93.33V280C112 266.8 122.8 256 136 256S160 266.8 160 280v10.67C160 315.7 181.5 336 208 336S256 315.7 256 290.7V152C256 138.8 266.8 128 280 128s24 10.75 24 24V290.7z"/></svg>