<svg xmlns="http://www.w3.org/2000/svg" viewBox="0 0 448 512"><!--! Font Awesome Pro 6.1.1 by @fontawesome - https://fontawesome.com License - https://fontawesome.com/license (Commercial License) Copyright 2022 Fonticons, Inc. --><path d="M384 32C419.3 32 448 60.65 448 96V416C448 451.3 419.3 480 384 480H64C28.65 480 0 451.3 0 416V96C0 60.65 28.65 32 64 32H384zM224 192C241.7 192 256 177.7 256 160C256 142.3 241.7 128 224 128C206.3 128 192 142.3 192 160C192 177.7 206.3 192 224 192zM136 232C122.7 232 112 242.7 112 256C112 269.3 122.7 280 136 280H312C325.3 280 336 269.3 336 256C336 242.7 325.3 232 312 232H136zM224 320C206.3 320 192 334.3 192 352C192 369.7 206.3 384 224 384C241.7 384 256 369.7 256 352C256 334.3 241.7 320 224 320z"/></svg>