<svg xmlns="http://www.w3.org/2000/svg" viewBox="0 0 448 512"><!--! Font Awesome Pro 6.1.1 by @fontawesome - https://fontawesome.com License - https://fontawesome.com/license (Commercial License) Copyright 2022 Fonticons, Inc. --><path d="M384 32H64C28.65 32 0 60.65 0 96v320c0 35.35 28.65 64 64 64h320c35.35 0 64-28.65 64-64V96C448 60.65 419.3 32 384 32zM366.9 159.1l-64 208C299.8 377.1 290.5 384 280 384h-.4219c-10.7-.1875-19.97-7.438-22.75-17.77L224 244.3l-32.83 121.9C188.4 376.6 179.1 383.8 168.4 384c-10.73-.0156-20.22-6.734-23.36-16.94l-64-208c-3.906-12.67 3.203-26.11 15.88-30c12.66-3.859 26.09 3.203 30 15.88L166.5 273.4l34.36-127.6C203.6 135.3 213.1 128 224 128s20.36 7.281 23.17 17.77l34.36 127.6l39.53-128.5c3.891-12.67 17.34-19.7 30-15.88C363.7 132.1 370.8 146.4 366.9 159.1z"/></svg>