<svg xmlns="http://www.w3.org/2000/svg" viewBox="0 0 448 512"><!--! Font Awesome Pro 6.0.0-beta3 by @fontawesome - https://fontawesome.com License - https://fontawesome.com/license (Commercial License) Copyright 2021 Fonticons, Inc. --><path d="M272 204c0-15.44-12.56-28-28-28H176v56h68C259.4 232 272 219.4 272 204zM384 32H64C28.65 32 0 60.65 0 96v320c0 35.35 28.65 64 64 64h320c35.35 0 64-28.65 64-64V96C448 60.65 419.3 32 384 32zM260 384H152C138.8 384 128 373.3 128 360v-208C128 138.8 138.8 128 152 128h92C285.9 128 320 162.1 320 204c0 16.35-5.301 31.41-14.12 43.82C324.1 261.7 336 283.4 336 308C336 349.9 301.9 384 260 384zM260 280H176v56h84C275.4 336 288 323.4 288 308S275.4 280 260 280z"/></svg>