<svg xmlns="http://www.w3.org/2000/svg" viewBox="0 0 448 512"><!--! Font Awesome Pro 6.1.1 by @fontawesome - https://fontawesome.com License - https://fontawesome.com/license (Commercial License) Copyright 2022 Fonticons, Inc. --><path d="M384 32H64C28.66 32 0 60.66 0 96v320c0 35.34 28.66 64 64 64h320c35.34 0 64-28.66 64-64V96C448 60.66 419.3 32 384 32zM334.6 190.6L213.3 312H280c17.69 0 32 14.31 32 32s-14.31 32-32 32h-144c-17.69 0-32-14.31-32-32v-144c0-17.69 14.31-32 32-32s32 14.31 32 32v66.75l121.4-121.4c12.5-12.5 32.75-12.5 45.25 0S347.1 178.1 334.6 190.6z"/></svg>