<svg xmlns="http://www.w3.org/2000/svg" viewBox="0 0 448 512"><!--! Font Awesome Pro 6.1.1 by @fontawesome - https://fontawesome.com License - https://fontawesome.com/license (Commercial License) Copyright 2022 Fonticons, Inc. --><path d="M384 32C419.3 32 448 60.65 448 96V416C448 451.3 419.3 480 384 480H64C28.65 480 0 451.3 0 416V96C0 60.65 28.65 32 64 32H384zM244.8 133.6C244.8 121.7 235.1 112 223.2 112C211.3 112 201.6 121.7 201.6 133.6V149.7C195.5 151.1 189.6 152.1 184.1 155.4C166.1 163.1 149.1 177.6 145.1 199.4C140.9 222.5 150.9 243.3 170.4 255.8C184.6 264.9 203.4 270.2 218.5 274.5C220.7 275.1 222.1 275.7 225.3 276.4C237.2 279.6 249.7 282.1 259.8 289.9C271.5 297.9 265.9 312.1 253.9 316.1C244.1 320.6 231.4 322.1 214.4 319.6C202.8 317.8 191.2 313.8 179.9 310C177.4 309.2 174.9 308.3 172.4 307.5C161.1 303.7 148.8 309.9 145.1 321.2C141.3 332.5 147.5 344.8 158.8 348.5C172.9 353.1 187.1 357.8 201.6 361L201.6 378.4C201.6 390.3 211.3 400 223.2 400C235.1 400 244.8 390.3 244.8 378.4L244.8 363.2C253.7 362.2 262.2 360.2 270 357C288.8 349.5 304.3 334.8 308.5 312.4C312.7 289.2 303.6 267.5 284.2 254.2C269.3 244 249.4 238.4 233.8 233.9C231.5 233.3 229.1 232.6 226.8 231.1C215.4 228.9 203.5 225.7 193.6 219.4C181.1 211.4 190.2 199.8 201.2 195C213.6 189.7 228.9 188.5 242.1 191C249.2 192.4 256.2 194.4 263.2 196.3C264.7 196.8 266.3 197.2 267.8 197.6C279.3 200.8 291.2 194.1 294.4 182.6C297.6 171.1 290.8 159.2 279.3 155.1C277.5 155.5 275.6 154.9 273.8 154.4C264.2 151.7 254.5 149 244.8 147.8L244.8 133.6z"/></svg>