<svg xmlns="http://www.w3.org/2000/svg" viewBox="0 0 512 512"><!--! Font Awesome Pro 6.0.0-beta3 by @fontawesome - https://fontawesome.com License - https://fontawesome.com/license (Commercial License) Copyright 2021 Fonticons, Inc. --><path d="M119 152.1C123.7 157.7 129.8 160 136 160s12.28-2.344 16.97-7.031c9.375-9.375 9.375-24.56 0-33.94l-48-48c-9.375-9.375-24.56-9.375-33.94 0s-9.375 24.56 0 33.94L119 152.1zM376 160c6.156 0 12.28-2.344 16.97-7.031l48-48c9.375-9.375 9.375-24.56 0-33.94s-24.56-9.375-33.94 0l-48 48c-9.375 9.375-9.375 24.56 0 33.94C363.7 157.7 369.8 160 376 160zM392.1 359C388.3 354.3 382.2 352 376 352s-12.28 2.344-16.97 7.031c-9.375 9.375-9.375 24.56 0 33.94l48 48c9.375 9.375 24.56 9.375 33.94 0s9.375-24.56 0-33.94L392.1 359zM136 352c-6.156 0-12.28 2.344-16.97 7.031l-48 48c-9.375 9.375-9.375 24.56 0 33.94s24.56 9.375 33.94 0l48-48c9.375-9.375 9.375-24.56 0-33.94C148.3 354.3 142.2 352 136 352zM493.6 232.4l-171.2-42.78l-42.78-171.2C276.8 7.406 267.3 0 256 0s-20.84 7.406-23.62 18.47L189.6 189.6L18.44 232.4C7.406 235.2 0 244.6 0 255.1c0 11.34 7.406 20.86 18.47 23.64l171.1 42.78l42.66 171.2C235 504.6 244.5 512 255.9 512s20.84-7.406 23.62-18.47l42.78-171.1l171.3-42.78C504.6 276.8 512 267.3 512 255.1C512 244.6 504.6 235.2 493.6 232.4z"/></svg>