<svg xmlns="http://www.w3.org/2000/svg" viewBox="0 0 576 512"><!--! Font Awesome Pro 6.0.0-beta3 by @fontawesome - https://fontawesome.com License - https://fontawesome.com/license (Commercial License) Copyright 2021 Fonticons, Inc. --><path d="M528.5 171.5l-146.4-21.29l-65.43-132.4C310.9 5.971 299.4 0 287.9 0C276.5 0 265.1 5.898 259.3 17.8l-65.43 132.4L47.47 171.5C21.2 175.3 10.68 207.6 29.72 226.1l105.9 102.1l-25.04 145.5C107 495.3 123.6 512 142.2 512c4.932 0 10.01-1.172 14.88-3.75L288 439.6l130.9 68.7c4.865 2.553 9.926 3.713 14.85 3.713c18.61 0 35.21-16.61 31.65-37.41l-25.05-145.5l105.9-102.1C565.3 207.6 554.8 175.3 528.5 171.5zM264 168c0-13.25 10.73-23.1 23.98-23.1S312 154.8 312 168v96C312 277.3 301.3 288 288 288S264 277.3 264 264V168zM288 384c-17.67 0-32-14.33-32-32C256 334.3 270.3 320 288 320s32 14.33 32 31.1C320 369.7 305.7 384 288 384z"/></svg>