<svg xmlns="http://www.w3.org/2000/svg" viewBox="0 0 640 512"><!--! Font Awesome Pro 6.0.0-beta3 by @fontawesome - https://fontawesome.com License - https://fontawesome.com/license (Commercial License) Copyright 2021 Fonticons, Inc. --><path d="M480 256C480 273.7 465.7 288 448 288C430.3 288 416 273.7 416 256C416 238.3 430.3 224 448 224C465.7 224 480 238.3 480 256zM256 256C256 149.1 341.1 64 448 64C554 64 640 149.1 640 256C640 362 554 448 448 448C341.1 448 256 362 256 256zM448 320C483.3 320 512 291.3 512 256C512 220.7 483.3 192 448 192C412.7 192 384 220.7 384 256C384 291.3 412.7 320 448 320zM188.9 205.4L231.9 196.8C226.8 215.7 224 235.5 224 256C224 276.5 226.8 296.3 231.9 315.2L188.9 306.6L137 352H208C225.7 352 240 366.3 240 384C240 401.7 225.7 416 208 416H32C14.33 416 0 401.7 0 384C0 366.3 14.33 352 32 352H64.13L129.6 294.7L127.4 294.3C109.1 290.6 96 274.6 96 256C96 237.4 109.1 221.4 127.4 217.7L129.6 217.3L64.13 159.1H32C14.33 159.1 0 145.7 0 127.1C0 110.3 14.33 95.1 32 95.1H208C225.7 95.1 240 110.3 240 127.1C240 145.7 225.7 159.1 208 159.1H137L188.9 205.4z"/></svg>