<svg xmlns="http://www.w3.org/2000/svg" viewBox="0 0 512 512"><!--! Font Awesome Pro 6.0.0-beta3 by @fontawesome - https://fontawesome.com License - https://fontawesome.com/license (Commercial License) Copyright 2021 Fonticons, Inc. --><path d="M309.4 389.4l79.1-80.01L93.38 13.39L15.26 .1367c-8.875-1.25-16.37 6.251-15.12 15.13l13.25 78.13L309.4 389.4zM507.2 462.1l-59.25-59.26l31.62-59.01c3.375-6.251 2.25-13.88-2.75-18.88L459.2 307.4c-6.25-6.251-16.37-6.251-22.62 0L307.3 436.8c-6.25 6.251-6.25 16.42 0 22.54l17.58 17.63c4.1 5.001 12.62 6.125 18.87 2.75l58.1-31.63l59.25 59.26c6.25 6.251 16.5 6.251 22.75 0l22.5-22.5C513.5 478.6 513.5 468.3 507.2 462.1zM498.6 93.4l13.25-78.13c1.25-8.876-6.25-16.38-15.12-15.13l-78.12 13.25l-139.1 140l79.1 80.01L498.6 93.4zM153.4 278.7L100 332L75.3 307.3c-6.25-6.251-16.42-6.251-22.54 0l-17.62 17.58c-4.1 5.001-6.125 12.63-2.75 18.88l31.62 59.01L4.768 462.1c-6.25 6.251-6.25 16.5 0 22.75l22.5 22.5c6.25 6.251 16.5 6.251 22.75 0l59.25-59.26l58.1 31.63c6.25 3.375 13.87 2.25 18.87-2.75l17.5-17.63c6.25-6.251 6.25-16.42 0-22.54l-24.63-24.71l53.37-53.38L153.4 278.7z"/></svg>