<svg xmlns="http://www.w3.org/2000/svg" viewBox="0 0 448 512"><!--! Font Awesome Pro 6.1.1 by @fontawesome - https://fontawesome.com License - https://fontawesome.com/license (Commercial License) Copyright 2022 Fonticons, Inc. --><path d="M384 .0001H64c-35.35 0-64 28.65-64 64v384c0 35.35 28.65 63.1 64 63.1h320c35.35 0 64-28.65 64-63.1v-384C448 28.65 419.3 .0001 384 .0001zM288 448c0 8.837-7.163 16-15.1 16H175.1c-8.837 0-15.1-7.163-15.1-16s7.163-16 15.1-16h96C280.8 432 288 439.2 288 448zM384 384H64v-320h320V384z"/></svg>