<svg xmlns="http://www.w3.org/2000/svg" viewBox="0 0 512 512"><!--! Font Awesome Pro 6.0.0-beta3 by @fontawesome - https://fontawesome.com License - https://fontawesome.com/license (Commercial License) Copyright 2021 Fonticons, Inc. --><path d="M224 240C224 231.2 231.2 224 240 224H400C408.8 224 416 231.2 416 240V272C416 280.8 408.8 288 400 288H240C231.2 288 224 280.8 224 272V240zM400 320C408.8 320 416 327.2 416 336V368C416 376.8 408.8 384 400 384H304C295.2 384 288 376.8 288 368V336C288 327.2 295.2 320 304 320H400zM448 32C483.3 32 512 60.65 512 96V416C512 451.3 483.3 480 448 480H64C28.65 480 0 451.3 0 416V96C0 60.65 28.65 32 64 32H448zM448 160H128V224C128 232.8 135.2 240 144 240H176C184.8 240 192 247.2 192 256C192 264.8 184.8 272 176 272H144C138.4 272 133 271 128 269.3V320C128 328.8 135.2 336 144 336H240C248.8 336 256 343.2 256 352C256 360.8 248.8 368 240 368H144C117.5 368 96 346.5 96 320V160H64V416H448V160z"/></svg>