<svg xmlns="http://www.w3.org/2000/svg" viewBox="0 0 576 512"><!--! Font Awesome Pro 6.1.1 by @fontawesome - https://fontawesome.com License - https://fontawesome.com/license (Commercial License) Copyright 2022 Fonticons, Inc. --><path d="M544 278.5V112c0-61.87-50.13-112-111.1-112s-111.1 50.13-111.1 112v166.5c-19.75 24.62-31.1 55.5-31.1 89.5c0 79.5 64.5 143.1 143.1 143.1C511.5 512 576 447.5 576 368C576 334 563.7 303.1 544 278.5zM432 448c-44.12 0-79.99-35.87-79.99-79.1c0-25.5 12.25-48.88 31.1-63.75v-192.2c0-26.5 21.5-48 47.1-48c26.5 0 47.1 21.5 47.1 48v192.2c19.75 14.75 31.1 38.25 31.1 63.75C512 412.1 476.1 448 432 448zM448 322.9V304c0-8.75-7.251-16-16-16c-8.748 0-15.1 7.25-15.1 16v18.88c-18.62 6.625-32 24.25-32 45.13c0 26.5 21.5 48 47.1 48c26.5 0 48-21.5 48-48C480 347.1 466.6 329.5 448 322.9zM268.3 305.4C273.4 292.3 279.7 279.7 288 267.9l.0072-6.397L223.1 223.1l64.88-37.46l-.0029-55.35L199.1 182.4V124.3l30.14-30.13c7.812-7.812 7.812-20.5 0-28.31s-20.47-7.812-28.28 0L199.1 67.71V56c0-13.25-10.75-24-24-24s-24 10.75-24 24v11.71L149.3 65.84c-7.812-7.812-20.47-7.812-28.28 0s-7.812 20.5 0 28.31l30.14 30.13v58.15L100.8 153.4L89.75 112.2C86.89 101.5 75.97 95.19 65.27 98.03c-10.67 2.844-17 13.81-14.14 24.5l.6855 2.559L41.64 119.2C30.2 112.6 15.47 116.5 8.859 128C2.234 139.5 6.156 154.2 17.64 160.8l10.18 5.875L25.25 167.3c-10.66 2.844-16.98 13.81-14.12 24.5c2.391 8.938 10.47 14.81 19.3 14.81c1.719 0 3.469-.2187 5.203-.6875L76.78 194.9L127.1 223.1L78.51 252.1L37.36 241C26.8 238.2 15.72 244.5 12.86 255.2C10 265.8 16.33 276.8 26.98 279.7l2.566 .6875L19.38 286.2C7.891 292.8 3.969 307.5 10.59 319c4.438 7.688 12.52 12 20.8 12c4.078 0 8.203-1.031 11.98-3.219l10.17-5.871l-.6855 2.559C50 335.2 56.33 346.1 67 348.1c1.734 .4687 3.469 .6875 5.188 .6875c8.828 0 16.91-5.875 19.3-14.81l11.04-41.21l48.62-28.07v50.15L121 345.8c-7.812 7.812-7.812 20.5 0 28.31s20.47 7.812 28.28 0l1.859-1.861V392c0 13.25 10.75 24 24 24s24-10.75 24-24v-19.71L201 374.2C204.9 378.1 210 380 215.1 380s10.23-1.938 14.14-5.844c7.812-7.812 7.812-20.5 0-28.31L199.1 315.7V265.6L268.3 305.4z"/></svg>