<svg xmlns="http://www.w3.org/2000/svg" viewBox="0 0 512 512"><!--! Font Awesome Pro 6.0.0-beta3 by @fontawesome - https://fontawesome.com License - https://fontawesome.com/license (Commercial License) Copyright 2021 Fonticons, Inc. --><path d="M363.1 319.8c-48.7 34.11-74.45 88.51-74.45 143.8c0 15.11 1.922 30.29 5.823 45.15c110.6-16.7 197.9-104 214.4-214.7c-14.72-3.875-29.85-6.031-45.1-6.031C428.9 288.1 393.7 298.4 363.1 319.8zM49.59 223.3c110.6 0 173.8-93.19 173.8-174.1c0-15.12-1.924-30.31-5.828-45.17c-110.4 16.67-197.5 103.7-214.3 214.1C18.35 221.3 33.95 223.3 49.59 223.3zM255.1-.0031c-1.928 0-3.793 .244-5.711 .287C253.1 15.98 255.8 31.95 255.8 47.85c0 97.43-76.7 208.1-207.5 208.1c-16.18 0-32.29-1.914-48-5.613c-.041 1.902-.285 3.756-.285 5.67c0 141.4 114.6 256 256 256c1.932 0 3.797-.2482 5.719-.2912c-3.677-15.69-5.488-31.65-5.488-47.55c0-96.97 76.25-207.9 207.1-207.9c16.3 0 32.55 1.901 48.39 5.631c.0449-1.977 .299-3.896 .299-5.881C511.1 114.6 397.4-.0031 255.1-.0031z"/></svg>