<svg xmlns="http://www.w3.org/2000/svg" viewBox="0 0 640 512"><!--! Font Awesome Pro 6.0.0-beta3 by @fontawesome - https://fontawesome.com License - https://fontawesome.com/license (Commercial License) Copyright 2021 Fonticons, Inc. --><path d="M256 416H224v-320h96v32c0 17.69 14.33 32 32 32s32-14.31 32-32v-64c0-17.69-14.33-32-32-32H32c-17.67 0-32 14.31-32 32v64c0 17.69 14.33 32 32 32s32-14.31 32-32v-32h96v320H128c-17.67 0-32 14.31-32 32s14.33 32 32 32h128c17.67 0 32-14.31 32-32S273.7 416 256 416zM608 224h-256c-17.67 0-32 14.31-32 31.1v32c0 17.69 14.33 32 32 32s32-14.31 32-32h64v128h-16c-17.67 0-32 14.31-32 32s14.33 32 32 32h96c17.67 0 32-14.31 32-32s-14.33-32-32-32H512v-128h64c0 17.69 14.33 32 32 32s32-14.31 32-32v-32C640 238.3 625.7 224 608 224z"/></svg>