<svg xmlns="http://www.w3.org/2000/svg" viewBox="0 0 512 512"><!--! Font Awesome Pro 6.0.0-beta3 by @fontawesome - https://fontawesome.com License - https://fontawesome.com/license (Commercial License) Copyright 2021 Fonticons, Inc. --><path d="M416 384c53 0 96-85.1 96-192c0-105.1-43-192-96-192s-96 86-96 192C320 298 363 384 416 384zM416 128c17.62 0 31.1 28.62 31.1 64S433.6 256 416 256s-32-28.62-32-64S398.4 128 416 128zM287.1 192c0-83.6 23.68-153.5 60.44-192H96C43 0 0 86 0 192c0 106 43 192 96 192h252.4C311.7 345.5 287.1 275.6 287.1 192zM47.97 224c-8.875 0-16-7.125-16-16S39.11 192 47.99 192s15.99 7.125 15.99 16S56.85 224 47.97 224zM111.1 223.1c-8.875 0-16-7.125-16-16S103.1 192 111.1 192s16 7.124 16 15.1S120.9 223.1 111.1 223.1zM175.1 223.1c-8.875 0-15.99-7.12-15.99-15.99S167.1 192 175.1 192s15.1 7.121 15.1 15.1S184.9 223.1 175.1 223.1zM239.1 224C231.1 224 223.1 216.9 223.1 208s7.122-15.1 15.1-15.1s15.1 7.122 15.1 15.1S248.9 224 239.1 224zM422.1 415.7L128 416v64c0 17.67 14.33 32 32 32h320c17.67 0 32-14.33 32-32v-137C490.3 385.5 459.1 412.6 422.1 415.7z"/></svg>