<svg xmlns="http://www.w3.org/2000/svg" viewBox="0 0 576 512"><!--! Font Awesome Pro 6.1.1 by @fontawesome - https://fontawesome.com License - https://fontawesome.com/license (Commercial License) Copyright 2022 Fonticons, Inc. --><path d="M127.1 0C74.98 0 31.98 86 31.98 192v172.1c0 41.12-9.751 62.75-31.13 126.9C-2.65 501.2 5.101 512 15.98 512h280.9c13.88 0 26-8.75 30.38-21.88c12.88-38.5 24.75-72.37 24.75-126L351.1 192c0-83.62 23.62-153.5 60.5-192H127.1zM479.1 0c-53 0-96 86.06-96 192.1C383.1 298.1 426.1 384 479.1 384S576 298 576 192C576 86 532.1 0 479.1 0zM479.1 256c-17.63 0-32-28.62-32-64s14.38-64 32-64c17.63 0 32 28.62 32 64S497.6 256 479.1 256z"/></svg>