<svg xmlns="http://www.w3.org/2000/svg" viewBox="0 0 512 512"><!--! Font Awesome Pro 6.0.0-beta3 by @fontawesome - https://fontawesome.com License - https://fontawesome.com/license (Commercial License) Copyright 2021 Fonticons, Inc. --><path d="M441.1 157.5c-5.789 9.805-14.96 17.03-26.12 20.04c2.351 30.66-28.95 56.2-62.12 42.72l-97.73-43.1L157.3 220.7c-31.05 12.53-63.72-11.59-61.18-43.25C85.12 174.4 75.96 167.2 70.18 157.3C29.21 185.4 0 233.7 0 303.6C0 455.3 145.1 512 236.3 512h39.42C365.7 512 512 454.1 512 303.6C512 233.9 482.9 185.6 441.1 157.5zM108.3 147c1.924 0-.4141 .3047 41.58-7.441L128.9 176.6C124.9 185.8 135.1 195.1 145.3 190.1l110.7-48.79l110.6 48.79c10.28 4.148 20.46-5.221 16.45-14.37l-20.96-36.98c42.08 7.836 39.77 7.535 41.71 7.535c10.95 0 16.45-12.07 8.709-19.11c-1.986-1.803-46.59-40.5-133.4-46.78c-2.006-30.05-16.59-58.32-40.8-76.48c-10.62-8-25.69-5.797-33.63 4.812C196.8 20.21 199 35.26 209.6 43.21c12.23 9.164 19.79 23.13 21.62 38.16C145.5 87.98 101.6 126.1 99.62 127.9C91.86 134.1 97.41 147 108.3 147z"/></svg>