<svg xmlns="http://www.w3.org/2000/svg" viewBox="0 0 320 512"><!--! Font Awesome Pro 6.0.0-beta3 by @fontawesome - https://fontawesome.com License - https://fontawesome.com/license (Commercial License) Copyright 2021 Fonticons, Inc. --><path d="M136 368C136 354.7 146.7 344 160 344C173.3 344 184 354.7 184 368C184 381.3 173.3 392 160 392C146.7 392 136 381.3 136 368zM184 240C184 253.3 173.3 264 160 264C146.7 264 136 253.3 136 240C136 226.7 146.7 216 160 216C173.3 216 184 226.7 184 240zM256 0C291.3 0 320 28.65 320 64V352C320 440.4 248.4 512 160 512C71.63 512 0 440.4 0 352V64C0 28.65 28.65 0 64 0H256zM160 416C186.5 416 208 394.5 208 368C208 341.5 186.5 320 160 320C133.5 320 112 341.5 112 368C112 394.5 133.5 416 160 416zM160 192C133.5 192 112 213.5 112 240C112 266.5 133.5 288 160 288C186.5 288 208 266.5 208 240C208 213.5 186.5 192 160 192zM160 64C133.5 64 112 85.49 112 112C112 138.5 133.5 160 160 160C186.5 160 208 138.5 208 112C208 85.49 186.5 64 160 64z"/></svg>