<svg xmlns="http://www.w3.org/2000/svg" viewBox="0 0 576 512"><!--! Font Awesome Pro 6.0.0-beta3 by @fontawesome - https://fontawesome.com License - https://fontawesome.com/license (Commercial License) Copyright 2021 Fonticons, Inc. --><path d="M448 80v-32C448 39.16 440.8 32 432 32H320l-11.58-23.16C305.7 3.424 300.2 0 294.1 0H153.9C147.8 0 142.3 3.424 139.6 8.844L128 32H16C7.164 32 0 39.16 0 48v32C0 88.84 7.164 96 16 96h416C440.8 96 448 88.84 448 80zM432 224C352.4 224 288 288.4 288 368s64.38 144 144 144s144-64.38 144-144S511.6 224 432 224zM480 384h-54.25C420.4 384 416 379.6 416 374.3V304C416 295.2 423.2 288 432 288C440.8 288 448 295.2 448 304V352h32c8.838 0 16 7.162 16 16C496 376.8 488.8 384 480 384zM256 368c0-90.25 68.3-164.8 155.9-174.8L416 128H32l21.21 339C54.77 491.8 76.23 512 101.1 512h229.9C285.7 480.1 256 427.5 256 368z"/></svg>