<svg xmlns="http://www.w3.org/2000/svg" viewBox="0 0 576 512"><!--! Font Awesome Pro 6.1.1 by @fontawesome - https://fontawesome.com License - https://fontawesome.com/license (Commercial License) Copyright 2022 Fonticons, Inc. --><path d="M135.2 17.69C140.6 6.848 151.7 0 163.8 0H284.2C296.3 0 307.4 6.848 312.8 17.69L320 32H416C433.7 32 448 46.33 448 64C448 81.67 433.7 96 416 96H32C14.33 96 0 81.67 0 64C0 46.33 14.33 32 32 32H128L135.2 17.69zM411.9 193.1C324.2 203.1 255.1 277.6 255.1 368C255.1 427.5 285.6 480.1 330.8 512H101.1C75.75 512 54.77 492.3 53.19 466.1L31.1 128H416L411.9 193.1zM576 368C576 447.5 511.5 512 432 512C352.5 512 287.1 447.5 287.1 368C287.1 288.5 352.5 224 432 224C511.5 224 576 288.5 576 368zM415.1 304V368C415.1 376.8 423.2 384 431.1 384H480C488.8 384 496 376.8 496 368C496 359.2 488.8 352 480 352H447.1V304C447.1 295.2 440.8 288 431.1 288C423.2 288 415.1 295.2 415.1 304V304z"/></svg>