<svg xmlns="http://www.w3.org/2000/svg" viewBox="0 0 448 512"><!--! Font Awesome Pro 6.0.0-beta3 by @fontawesome - https://fontawesome.com License - https://fontawesome.com/license (Commercial License) Copyright 2021 Fonticons, Inc. --><path d="M432 32H320l-11.58-23.16C305.7 3.424 300.2 0 294.1 0H153.9C147.8 0 142.3 3.424 139.6 8.844L128 32H16C7.164 32 0 39.16 0 48v32C0 88.84 7.164 96 16 96h416C440.8 96 448 88.84 448 80v-32C448 39.16 440.8 32 432 32zM53.21 467C54.77 491.8 76.23 512 101.1 512h245.8c24.88 0 46.33-20.16 47.9-45L416 128H32L53.21 467zM143.1 280H200V223.1C200 210.7 210.7 200 224 200s23.1 10.74 23.1 23.1V280h56C317.3 280 328 290.7 328 304s-10.74 23.1-23.1 23.1h-56v56C247.1 397.3 237.3 408 224 408c-13.27 0-23.1-10.74-23.1-23.1V327.1H143.1C130.7 327.1 120 317.3 120 304C120 290.7 130.7 280 143.1 280z"/></svg>