<svg xmlns="http://www.w3.org/2000/svg" viewBox="0 0 448 512"><!--! Font Awesome Pro 6.1.1 by @fontawesome - https://fontawesome.com License - https://fontawesome.com/license (Commercial License) Copyright 2022 Fonticons, Inc. --><path d="M284.2 0C296.3 0 307.4 6.848 312.8 17.69L320 32H416C433.7 32 448 46.33 448 64C448 81.67 433.7 96 416 96H32C14.33 96 0 81.67 0 64C0 46.33 14.33 32 32 32H128L135.2 17.69C140.6 6.848 151.7 0 163.8 0H284.2zM31.1 128H416V448C416 483.3 387.3 512 352 512H95.1C60.65 512 31.1 483.3 31.1 448V128zM339.8 275.8C350.7 264.9 350.7 247.1 339.8 236.2C328.9 225.3 311.1 225.3 300.2 236.2L192 344.4L147.8 300.2C136.9 289.3 119.1 289.3 108.2 300.2C97.27 311.1 97.27 328.9 108.2 339.8L172.2 403.8C183.1 414.7 200.9 414.7 211.8 403.8L339.8 275.8z"/></svg>