<svg xmlns="http://www.w3.org/2000/svg" viewBox="0 0 448 512"><!--! Font Awesome Pro 6.0.0-beta3 by @fontawesome - https://fontawesome.com License - https://fontawesome.com/license (Commercial License) Copyright 2021 Fonticons, Inc. --><path d="M432 32h-120l-9.375-18.75C298.5 5.125 290.3 0 281.1 0H166.8c-9 0-17.38 5.125-21.38 13.25L136 32H16C7.125 32 0 39.13 0 48v32C0 88.88 7.125 96 16 96h416C440.9 96 448 88.88 448 80v-32C448 39.13 440.9 32 432 32zM32 464C32 490.5 53.5 512 80 512h288c26.5 0 48-21.5 48-48V128H32V464zM103 271l72-72c9.375-9.375 24.56-9.375 33.94 0s9.375 24.56 0 33.94L177.9 264H240c48.53 0 88 39.47 88 88v40c0 13.25-10.75 24-24 24s-24-10.75-24-24V352c0-22.06-17.94-40-40-40H177.9l31.03 31.03c9.375 9.375 9.375 24.56 0 33.94C204.3 381.7 198.1 384 192 384s-12.28-2.344-16.97-7.031l-72-72C93.66 295.6 93.66 280.4 103 271z"/></svg>