<svg xmlns="http://www.w3.org/2000/svg" viewBox="0 0 512 512"><!--! Font Awesome Pro 6.0.0-beta3 by @fontawesome - https://fontawesome.com License - https://fontawesome.com/license (Commercial License) Copyright 2021 Fonticons, Inc. --><path d="M471.6 455.6l-89.87-103.6h35.1c25.62 0 39.5-29.25 23.25-48.5l-134.8-160.1l-13.46 26.79C285.7 183.3 271.6 192 255.1 192c-15.64 0-29.72-8.684-36.74-22.66L204.8 140.5L71.04 303.5c-16.25 19.25-2.375 48.5 23.25 48.5h35.1l-89.87 103.6C21.42 477.5 36.67 512 65.17 512h381.6C475.4 512 490.5 477.4 471.6 455.6zM192 312C178.8 312 168 301.3 168 288s10.75-24 23.1-24c13.25 0 23.1 10.75 23.1 24S205.2 312 192 312zM319.1 440c-13.25 0-23.1-10.75-23.1-24s10.75-24 23.1-24s23.1 10.75 23.1 24S333.2 440 319.1 440zM181 88.15l44.48 22.35l22.35 44.48C249.5 158.3 252.8 160 255.1 160s6.465-1.677 8.149-5.027L286.5 110.5l44.48-22.35c6.699-3.365 6.699-12.93 0-16.3L286.5 49.51l-22.35-44.48c-3.367-6.701-12.93-6.701-16.3 0L225.5 49.51L181 71.85C174.3 75.22 174.3 84.78 181 88.15z"/></svg>