<svg xmlns="http://www.w3.org/2000/svg" viewBox="0 0 640 512"><!--! Font Awesome Pro 6.0.0-beta3 by @fontawesome - https://fontawesome.com License - https://fontawesome.com/license (Commercial License) Copyright 2021 Fonticons, Inc. --><path d="M640 463.9c0-8.814-2.424-18.05-7.845-26.36l-271.1-417.1c-8.858-13.6-24.51-20.4-40.17-20.4c-15.65 0-31.31 6.799-40.17 20.4l-271.1 417.1c-5.429 8.331-7.848 17.56-7.848 26.37C-.0001 488.1 19.89 512 48.02 512h543.1C620.2 512 640 488.9 640 463.9zM292 159.1c15.5 0 27.1 12.5 27.1 28s-12.5 28-27.1 28c-15.5 0-27.1-12.5-27.1-28S276.5 159.1 292 159.1zM288 431.1c0 8.875-7.126 16-15.1 16c-8.873 0-15.1-7.125-15.1-16v-32.75l-46.25-30l-18.25 67c-1.1 6.875-8.25 11.75-15.5 11.75c-12.16 0-16.04-10.8-16.04-16.08c0-1.376 .1743-2.776 .5386-4.173l29.75-109l83.12 53.63c9.123 5.875 14.62 16 14.62 26.88V431.1zM336 447.1l12.01-30.01c2.375-6 8.25-10 14.87-10h35.62l-94.93-58.38c0 0 .125 0 0 0l-103.9-64c-1.438-.8818-7.616-5.075-7.616-13.51c0-3.504 1.081-6.893 3.241-9.741l11.5-15.5c9.209-12.25 23.5-19.17 38.36-19.17c3.491 0 7.016 .3821 10.51 1.167l24.62 7.25C297.7 239.1 312 254.7 315.8 273.2l10.62 52.75l87.62 54l21.12-42.5c2.656-5.186 7.938-8.783 14.5-8.783c5.379 0 10.43 2.81 13.37 7.283l71.75 112L336 447.1z"/></svg>