<svg xmlns="http://www.w3.org/2000/svg" viewBox="0 0 640 512"><!--! Font Awesome Pro 6.0.0-beta3 by @fontawesome - https://fontawesome.com License - https://fontawesome.com/license (Commercial License) Copyright 2021 Fonticons, Inc. --><path d="M528 512C467 512 417.5 463.3 416 402.7L48.41 502.9C31.36 507.5 13.77 497.5 9.126 480.4C4.48 463.4 14.54 445.8 31.59 441.1L352 353.8V64C352 28.65 380.7 0 416 0H640V400C640 461.9 589.9 512 528 512L528 512zM528 448C554.5 448 576 426.5 576 400C576 373.5 554.5 352 528 352C501.5 352 480 373.5 480 400C480 426.5 501.5 448 528 448z"/></svg>