<svg xmlns="http://www.w3.org/2000/svg" viewBox="0 0 640 512"><!--! Font Awesome Pro 6.1.1 by @fontawesome - https://fontawesome.com License - https://fontawesome.com/license (Commercial License) Copyright 2022 Fonticons, Inc. --><path d="M368 0C394.5 0 416 21.49 416 48V96H466.7C483.7 96 499.1 102.7 512 114.7L589.3 192C601.3 204 608 220.3 608 237.3V352C625.7 352 640 366.3 640 384C640 401.7 625.7 416 608 416H576C576 469 533 512 480 512C426.1 512 384 469 384 416H256C256 469 213 512 160 512C106.1 512 64 469 64 416H48C21.49 416 0 394.5 0 368V48C0 21.49 21.49 0 48 0H368zM416 160V256H544V237.3L466.7 160H416zM160 368C133.5 368 112 389.5 112 416C112 442.5 133.5 464 160 464C186.5 464 208 442.5 208 416C208 389.5 186.5 368 160 368zM480 464C506.5 464 528 442.5 528 416C528 389.5 506.5 368 480 368C453.5 368 432 389.5 432 416C432 442.5 453.5 464 480 464zM270.3 87.16C273.6 80.52 271.9 72.47 266.3 67.72C260.6 62.96 252.3 62.75 246.4 67.2L118.4 163.2C112.9 167.3 110.6 174.5 112.8 181.1C114.1 187.6 121.1 192 128 192H182.1L145.7 264.8C142.4 271.5 144.1 279.5 149.7 284.3C155.4 289 163.7 289.3 169.6 284.8L297.6 188.8C303.1 184.7 305.4 177.5 303.2 170.9C301 164.4 294.9 160 287.1 160H233.9L270.3 87.16z"/></svg>