<svg xmlns="http://www.w3.org/2000/svg" viewBox="0 0 640 512"><!--! Font Awesome Pro 6.0.0-beta3 by @fontawesome - https://fontawesome.com License - https://fontawesome.com/license (Commercial License) Copyright 2021 Fonticons, Inc. --><path d="M144 288h113.5l51.91-133.4L240.8 16H158.3c-30.28 0-58.2 16.36-73 42.78L14.28 185.6C4.918 202.3 0 221.2 0 240.3V384c0 17.67 14.33 32 32 32h32c17.67 0 32-14.33 32-32V240.3L98.03 232.5L144 150.4V288zM423.9 405.4c5.438 8.156 8.041 17.39 8.041 26.54C431.1 458.6 410.4 480 384 480c-16.05 0-30.97-7.975-39.94-21.38L320 422.5L295.9 458.7C286.1 472 272.1 480 256 480c-26.42 0-47.98-21.38-47.98-48.08c0-9.144 2.603-18.38 8.042-26.54L230.3 384H144v64c0 35.35 28.65 64 64 64h224c35.35 0 64-28.65 64-64v-64h-86.31L423.9 405.4zM144 352h146.1l-47.42 71.13c-1.819 2.729-2.628 5.891-2.628 8.937C240.1 440.1 247.2 448 256 448c5.156 0 10.22-2.5 13.31-7.125L320 364.8l50.69 76.03C373.8 445.5 378.8 448 384 448c8.776 0 15.94-7.023 15.94-15.94c0-3.047-.809-6.209-2.628-8.937L349.9 352H496v-32h-352V352zM625.7 185.6l-70.95-126.6C539.9 32.41 511.9 16 481.5 16h-82.31L291.8 288H496V150.4l45.94 81.99L544 240.3V384c0 17.67 14.33 32 32 32h32c17.67 0 32-14.33 32-32V240.3C640 221.1 635.1 202.3 625.7 185.6z"/></svg>