<svg xmlns="http://www.w3.org/2000/svg" viewBox="0 0 448 512"><!--! Font Awesome Pro 6.0.0-beta3 by @fontawesome - https://fontawesome.com License - https://fontawesome.com/license (Commercial License) Copyright 2021 Fonticons, Inc. --><path d="M377.4 183.5C384 190.5 385.8 200.7 382 209.5C378.2 218.3 369.6 224 360 224H288V352C288 369.7 273.7 384 256 384H192C174.3 384 160 369.7 160 352V224H88C78.42 224 69.75 218.3 65.96 209.5C62.17 200.7 63.97 190.5 70.55 183.5L206.6 39.52C211.1 34.72 217.4 32 224 32C230.6 32 236.9 34.72 241.4 39.52L377.4 183.5zM0 448C0 430.3 14.33 416 32 416C49.67 416 64 430.3 64 448C64 465.7 49.67 480 32 480C14.33 480 0 465.7 0 448zM160 448C160 465.7 145.7 480 128 480C110.3 480 96 465.7 96 448C96 430.3 110.3 416 128 416C145.7 416 160 430.3 160 448zM192 448C192 430.3 206.3 416 224 416C241.7 416 256 430.3 256 448C256 465.7 241.7 480 224 480C206.3 480 192 465.7 192 448zM352 448C352 465.7 337.7 480 320 480C302.3 480 288 465.7 288 448C288 430.3 302.3 416 320 416C337.7 416 352 430.3 352 448zM384 448C384 430.3 398.3 416 416 416C433.7 416 448 430.3 448 448C448 465.7 433.7 480 416 480C398.3 480 384 465.7 384 448z"/></svg>