<svg xmlns="http://www.w3.org/2000/svg" viewBox="0 0 384 512"><!--! Font Awesome Pro 6.1.1 by @fontawesome - https://fontawesome.com License - https://fontawesome.com/license (Commercial License) Copyright 2022 Fonticons, Inc. --><path d="M358.6 377.4l-45.26 45.25c-12.5 12.5-32.76 12.5-45.25 0L138.5 293l-67.88 67.88c-9.148 9.148-22.92 11.89-34.87 6.938C23.79 362.9 16 351.2 16 338.3l0-226.3c0-8.836 3.58-16.84 9.369-22.63C31.16 83.58 39.16 80 47.1 80h226.3c12.95 0 24.61 7.789 29.57 19.75c4.949 11.95 2.209 25.72-6.939 34.87l-67.88 67.88l129.6 129.6C371.1 344.6 371.1 364.9 358.6 377.4z"/></svg>