<svg xmlns="http://www.w3.org/2000/svg" viewBox="0 0 448 512"><!--! Font Awesome Pro 6.1.1 by @fontawesome - https://fontawesome.com License - https://fontawesome.com/license (Commercial License) Copyright 2022 Fonticons, Inc. --><path d="M97.97 172.4C96.98 178.9 96 185.3 96 192c0 70.69 57.3 128 127.1 128s127.1-57.31 127.1-128c0-6.705-.9401-13.15-1.934-19.57C311.2 185.2 268.4 192 224 192C179.6 192 136.8 185.2 97.97 172.4zM78.54 102.4v28.04C119.1 148.9 169.4 160 224 160s104.9-11.08 145.5-29.55V102.4l21.96-22.3c4.564-4.635 7.129-10.93 7.129-17.48c0-11.35-7.602-21.24-18.44-23.99l-148.3-37.67c-5.096-1.295-10.43-1.295-15.52 0l-148.3 37.67C57.06 41.39 49.46 51.28 49.46 62.62c0 6.555 2.564 12.85 7.129 17.48L78.54 102.4zM161.7 72.84c3.969-7.875 13.56-11.09 21.47-7.156L224 86.13l40.84-20.44c7.938-3.969 17.5-.75 21.47 7.156c3.938 7.906 .75 17.5-7.156 21.47l-48 24C228.9 119.4 226.4 120 224 120S219.1 119.4 216.8 118.3l-48-24C160.9 90.34 157.8 80.75 161.7 72.84zM319.7 352.5l-66.63 111L240 408l32-56h-96l32 56l-13.07 55.55l-66.63-111C57.05 355.2 0 413.4 0 485.3C0 500.1 11.94 512 26.66 512H421.3C436.1 512 448 500.1 448 485.3C448 413.4 390.1 355.2 319.7 352.5zM368 448h-32c-8.836 0-16-7.164-16-16c0-8.838 7.164-16 16-16h32c8.836 0 16 7.162 16 16C384 440.8 376.8 448 368 448z"/></svg>