<svg xmlns="http://www.w3.org/2000/svg" viewBox="0 0 448 512"><!--! Font Awesome Pro 6.0.0-beta3 by @fontawesome - https://fontawesome.com License - https://fontawesome.com/license (Commercial License) Copyright 2021 Fonticons, Inc. --><path d="M116 320h216c19.88 0 36-16.12 36-36V109C368 84.13 347.9 64 323 64H240V16C240 7.162 232.8 0 224 0S208 7.162 208 16V64H125C100.1 64 80 84.13 80 109V284C80 303.9 96.13 320 116 320zM304 272h-32v-32h32V272zM288 128c17.62 0 32 14.38 32 32s-14.38 32-32 32s-32-14.38-32-32S270.4 128 288 128zM176 272h-32v-32h32V272zM208 240h32v32h-32V240zM160 128c17.62 0 32 14.38 32 32S177.6 192 160 192S128 177.6 128 160S142.4 128 160 128zM442.8 133.3C439.4 129.9 434.8 128 429.1 128H400v128h29.1c4.75 0 9.375-1.875 12.75-5.25S448 242.8 448 238v-92C448 141.3 446.1 136.6 442.8 133.3zM272 448c-8.875 0-16 7.125-16 16s7.125 16 16 16s16-7.125 16-16S280.9 448 272 448zM352 352H96c-53 0-96 43-96 96v32c0 17.62 14.38 32 32 32h96v-64c0-17.62 14.38-32 32-32h128c17.62 0 32 14.38 32 32v64h96c17.62 0 32-14.38 32-32v-32C448 395 405 352 352 352zM176 448C167.1 448 160 455.1 160 464V512h32v-48C192 455.1 184.9 448 176 448zM17.1 256H48V128H17.1C13.25 128 8.625 129.9 5.25 133.3S0 141.3 0 146v92c0 4.75 1.875 9.375 5.25 12.75S13.25 256 17.1 256z"/></svg>