<svg xmlns="http://www.w3.org/2000/svg" viewBox="0 0 448 512"><!--! Font Awesome Pro 6.1.1 by @fontawesome - https://fontawesome.com License - https://fontawesome.com/license (Commercial License) Copyright 2022 Fonticons, Inc. --><path d="M95.1 128C95.1 57.31 153.3 0 223.1 0C294.7 0 352 57.31 352 128V138.1C352 172.9 365.5 205.5 389.5 229.5L393.4 233.4C397.6 237.6 400 243.4 400 249.4C400 261.9 389.9 272 377.4 272H70.63C58.13 272 47.1 261.9 47.1 249.4C47.1 243.4 50.38 237.6 54.63 233.4L58.51 229.5C82.51 205.5 95.1 172.9 95.1 138.1L95.1 128zM297.3 96H295.1C275.5 96 257.3 86.4 245.6 71.46C231.9 95.67 205.8 112 175.1 112H145.6C144.6 117.2 143.1 122.5 143.1 128V144C143.1 188.2 179.8 224 223.1 224C268.2 224 303.1 188.2 303.1 144V128C303.1 116.6 301.6 105.8 297.3 96zM287.1 362C260.4 369.1 239.1 394.2 239.1 424V448C239.1 452.2 241.7 456.3 244.7 459.3L260.7 475.3C266.9 481.6 277.1 481.6 283.3 475.3C289.6 469.1 289.6 458.9 283.3 452.7L271.1 441.4V424C271.1 406.3 286.3 392 303.1 392C321.7 392 336 406.3 336 424V441.4L324.7 452.7C318.4 458.9 318.4 469.1 324.7 475.3C330.9 481.6 341.1 481.6 347.3 475.3L363.3 459.3C366.3 456.3 368 452.2 368 448V424C368 394.2 347.6 369.1 320 362V323.4C393.1 338.8 448 403.6 448 481.3C448 498.2 434.2 512 417.3 512H30.72C13.75 512 0 498.2 0 481.3C0 403.6 54.89 338.8 128 323.4V370.3C104.9 377.2 88 398.6 88 424C88 454.9 113.1 480 144 480C174.9 480 200 454.9 200 424C200 398.6 183.1 377.2 160 370.3V320L161.3 320H286.7L288 320L287.1 362zM167.1 424C167.1 437.3 157.3 448 143.1 448C130.7 448 119.1 437.3 119.1 424C119.1 410.7 130.7 400 143.1 400C157.3 400 167.1 410.7 167.1 424z"/></svg>