<svg xmlns="http://www.w3.org/2000/svg" viewBox="0 0 448 512"><!--! Font Awesome Pro 6.0.0-beta3 by @fontawesome - https://fontawesome.com License - https://fontawesome.com/license (Commercial License) Copyright 2021 Fonticons, Inc. --><path d="M96 127.1V70.17C96 56.83 104.3 44.89 116.8 40.21L212.8 4.209C220 1.493 227.1 1.493 235.2 4.209L331.2 40.21C343.7 44.89 352 56.83 352 70.17V127.1H351.7C351.9 130.6 352 133.3 352 135.1V170.1C352 204.9 365.5 237.5 389.5 261.5L393.4 265.4C397.6 269.6 400 275.4 400 281.4C400 293.9 389.9 303.1 377.4 303.1H70.63C58.13 303.1 48 293.9 48 281.4C48 275.4 50.38 269.6 54.63 265.4L58.51 261.5C82.51 237.5 96 204.9 96 170.1V135.1C96 133.3 96.09 130.6 96.28 127.1H96zM245.6 135.5C231.9 159.7 205.8 175.1 176 175.1H144C144 220.2 179.8 255.1 224 255.1C268.2 255.1 304 220.2 304 175.1V159.1H296C275.5 159.1 257.3 150.4 245.6 135.5zM213.3 53.33H200C195.6 53.33 192 56.91 192 61.33V66.67C192 71.08 195.6 74.67 200 74.67H213.3V87.1C213.3 92.42 216.9 95.1 221.3 95.1H226.7C231.1 95.1 234.7 92.42 234.7 87.1V74.67H248C252.4 74.67 256 71.08 256 66.67V61.33C256 56.91 252.4 53.33 248 53.33H234.7V39.1C234.7 35.58 231.1 31.1 226.7 31.1H221.3C216.9 31.1 213.3 35.58 213.3 39.1V53.33zM141.3 336.1L224 423.1L306.7 336.1C385.3 339.6 448 404.4 448 483.8C448 499.4 435.4 511.1 419.8 511.1H28.16C12.61 511.1 0 499.4 0 483.8C0 404.4 62.69 339.6 141.3 336.1V336.1z"/></svg>