<svg xmlns="http://www.w3.org/2000/svg" viewBox="0 0 512 512"><!--! Font Awesome Pro 6.0.0-beta3 by @fontawesome - https://fontawesome.com License - https://fontawesome.com/license (Commercial License) Copyright 2021 Fonticons, Inc. --><path d="M488 32c-13.25 0-24 10.75-24 23.1V64h-32V55.1C432 42.75 421.3 32 408 32S384 42.75 384 55.1V64h-96V16C288 7.163 280.8 0 272 0h-32C231.2 0 224 7.163 224 16V64H128V55.1C128 42.75 117.3 32 104 32S80 42.75 80 55.1V64h-32V55.1C48 42.75 37.25 32 24 32S0 42.75 0 55.1V96c0 17.67 14.33 32 32 32h51.16L224 221.9V256H128V247.1C128 234.7 117.3 224 104 224S80 234.7 80 247.1V256h-32V247.1C48 234.7 37.25 224 24 224S0 234.7 0 247.1V288c0 17.67 14.33 32 32 32h51.16L224 413.9V512h64v-98.1L428.8 320H480c17.67 0 32-14.33 32-32V247.1C512 234.7 501.3 224 488 224S464 234.7 464 247.1V256h-32V247.1C432 234.7 421.3 224 408 224S384 234.7 384 247.1V256h-96V221.9L428.8 128H480c17.67 0 32-14.33 32-32V55.1C512 42.75 501.3 32 488 32zM140.8 320H224v55.44L140.8 320zM371.2 320L288 375.4V320H371.2zM140.8 128H224v55.44L140.8 128zM288 128h83.16L288 183.4V128z"/></svg>