<svg xmlns="http://www.w3.org/2000/svg" viewBox="0 0 448 512"><!--! Font Awesome Pro 6.0.0-beta3 by @fontawesome - https://fontawesome.com License - https://fontawesome.com/license (Commercial License) Copyright 2021 Fonticons, Inc. --><path d="M448 128V64c0-17.67-14.33-32-32-32h-64c-17.67 0-32 14.33-32 32H128c0-17.67-14.33-32-32-32H32C14.33 32 0 46.33 0 64v64c0 17.67 14.33 32 32 32v192c-17.67 0-32 14.33-32 32v64c0 17.67 14.33 32 32 32h64c17.67 0 32-14.33 32-32h192c0 17.67 14.33 32 32 32h64c17.67 0 32-14.33 32-32v-64c0-17.67-14.33-32-32-32V160C433.7 160 448 145.7 448 128zM368 80h32v32h-32V80zM48 80h32v32h-32V80zM80 432h-32v-32h32V432zM400 432h-32v-32h32V432zM352 352c-17.67 0-32 14.33-32 32H128c0-17.67-14.33-32-32-32V160c17.67 0 32-14.33 32-32h192c0 17.67 14.33 32 32 32V352z"/></svg>