<svg xmlns="http://www.w3.org/2000/svg" viewBox="0 0 640 512"><!--! Font Awesome Pro 6.0.0-beta3 by @fontawesome - https://fontawesome.com License - https://fontawesome.com/license (Commercial License) Copyright 2021 Fonticons, Inc. --><path d="M176 272h288C472.8 272 480 264.8 480 256s-7.168-16-16-16h-288C167.2 240 160 247.2 160 256S167.2 272 176 272zM176 208h288C472.8 208 480 200.8 480 192s-7.168-16-16-16h-288C167.2 176 160 183.2 160 192S167.2 208 176 208zM608 160h-32V128c0-35.36-28.64-64-64-64H128C92.64 64 64 92.64 64 128v32H32C14.34 160 0 174.3 0 192v128c0 17.66 14.34 32 32 32h32v32c0 35.36 28.64 64 64 64h384c35.36 0 64-28.64 64-64v-32h32c17.66 0 32-14.34 32-32V192C640 174.3 625.7 160 608 160zM512 384H128V128h384V384zM176 336h288c8.832 0 16-7.168 16-16s-7.168-16-16-16h-288C167.2 304 160 311.2 160 320S167.2 336 176 336z"/></svg>