<svg xmlns="http://www.w3.org/2000/svg" viewBox="0 0 448 512"><!--! Font Awesome Pro 6.1.1 by @fontawesome - https://fontawesome.com License - https://fontawesome.com/license (Commercial License) Copyright 2022 Fonticons, Inc. --><path d="M128.1 223.1L63.04 487.8C58.76 504.9 41.38 515.3 24.24 511C7.093 506.8-3.331 489.4 .9552 472.2L100.8 72.72C111.5 29.98 149.9 0 193.1 0H320C373 0 416 42.98 416 96V392.6C435.1 403.6 448 424.3 448 448C448 483.3 419.3 512 384 512C348.7 512 320 483.3 320 448C320 424.3 332.9 403.6 352 392.6V224L128.1 223.1zM193.1 63.1C179.3 63.1 166.5 73.99 162.9 88.24L144.1 159.1H352V95.1C352 78.33 337.7 63.1 320 63.1H193.1zM384 464C392.8 464 400 456.8 400 448C400 439.2 392.8 432 384 432C375.2 432 368 439.2 368 448C368 456.8 375.2 464 384 464z"/></svg>