<svg xmlns="http://www.w3.org/2000/svg" viewBox="0 0 384 512"><!--! Font Awesome Pro 6.0.0-beta3 by @fontawesome - https://fontawesome.com License - https://fontawesome.com/license (Commercial License) Copyright 2021 Fonticons, Inc. --><path d="M64 48C64 21.49 85.49 0 112 0H272C298.5 0 320 21.49 320 48H64zM304 80C348.2 80 384 115.8 384 160V352C384 396.2 348.2 432 304 432H80C35.82 432 0 396.2 0 352V160C0 115.8 35.82 80 80 80H304zM216 160C216 146.7 205.3 136 192 136C178.7 136 168 146.7 168 160V256C168 262.4 170.5 268.5 175 272.1L223 320.1C232.4 330.3 247.6 330.3 256.1 320.1C266.3 311.6 266.3 296.4 256.1 287L216 246.1V160zM112 512C85.49 512 64 490.5 64 464H320C320 490.5 298.5 512 272 512H112z"/></svg>