<svg xmlns="http://www.w3.org/2000/svg" viewBox="0 0 384 512"><!--! Font Awesome Pro 6.0.0-beta3 by @fontawesome - https://fontawesome.com License - https://fontawesome.com/license (Commercial License) Copyright 2021 Fonticons, Inc. --><path d="M64 48C64 21.49 85.49 0 112 0H272C298.5 0 320 21.49 320 48H64zM304 80C348.2 80 384 115.8 384 160V352C384 396.2 348.2 432 304 432H80C35.82 432 0 396.2 0 352V160C0 115.8 35.82 80 80 80H304zM80 144C71.16 144 64 151.2 64 160V192C64 200.8 71.16 208 80 208H304C312.8 208 320 200.8 320 192V160C320 151.2 312.8 144 304 144H80zM88 296C101.3 296 112 285.3 112 272C112 258.7 101.3 248 88 248C74.75 248 64 258.7 64 272C64 285.3 74.75 296 88 296zM192 248C178.7 248 168 258.7 168 272C168 285.3 178.7 296 192 296C205.3 296 216 285.3 216 272C216 258.7 205.3 248 192 248zM296 296C309.3 296 320 285.3 320 272C320 258.7 309.3 248 296 248C282.7 248 272 258.7 272 272C272 285.3 282.7 296 296 296zM88 336C74.75 336 64 346.7 64 360C64 373.3 74.75 384 88 384C101.3 384 112 373.3 112 360C112 346.7 101.3 336 88 336zM192 384C205.3 384 216 373.3 216 360C216 346.7 205.3 336 192 336C178.7 336 168 346.7 168 360C168 373.3 178.7 384 192 384zM296 336C282.7 336 272 346.7 272 360C272 373.3 282.7 384 296 384C309.3 384 320 373.3 320 360C320 346.7 309.3 336 296 336zM112 512C85.49 512 64 490.5 64 464H320C320 490.5 298.5 512 272 512H112z"/></svg>