<svg xmlns="http://www.w3.org/2000/svg" viewBox="0 0 640 512"><!--! Font Awesome Pro 6.1.1 by @fontawesome - https://fontawesome.com License - https://fontawesome.com/license (Commercial License) Copyright 2022 Fonticons, Inc. --><path d="M480 128c-91.09 0-176.7 35.47-241.1 99.87l-85.66 82.69c-6.312 6.094-14.62 9.437-23.41 9.437C111.2 320 96 304.8 96 286.2c0-31.56 12.28-61.2 34.58-83.52l9.811-9.811l56.75 13.61C207.6 208.6 218.4 205.3 226 197.7l57.28-57.28c9.016-9.016 4.332-24.48-8.221-26.96L191.3 96.7L174.5 12.9C172 .3524 156.6-4.333 147.6 4.682L90.28 61.96C82.68 69.56 79.41 80.43 81.53 90.86l13.61 56.74L49.13 193.6C17.44 225.3 0 267.4 0 312.3c0 92.5 75.25 167.7 167.8 167.7H544c52.94 0 96-43.06 96-95.1V288C640 199.8 568.2 128 480 128zM384 312c-13.25 0-24-10.75-24-24c0-13.26 10.75-24 24-24s24 10.74 24 24C408 301.3 397.3 312 384 312z"/></svg>