<svg xmlns="http://www.w3.org/2000/svg" viewBox="0 0 640 512"><!--! Font Awesome Pro 6.1.1 by @fontawesome - https://fontawesome.com License - https://fontawesome.com/license (Commercial License) Copyright 2022 Fonticons, Inc. --><path d="M630.8 469.1l-179.4-140.6c3.633-3.59 7.158-7.281 10.49-11.08c-16.1-19.38-50.37-50.62-89.62-51.87c-.3496 0-.6602 .1328-1.008 .1387l-8.764-6.867l32.02-32.02C417.2 249.5 444.9 266.9 473.9 267.9c33.25-1.25 65.75-24.88 89.75-52.25c-12.75-14.62-34.63-35.87-61.37-46.12c-42.88 10.3-72.32 5.803-97.12 4.125c-.9512-6.76-11.35-52.07 1-101.6c-12.87-31.87-40.1-55.37-45.75-58.99c-27.87 24.37-50.87 55.99-51.1 89.49c1.125 28.5 18.62 56.49 40.87 78.99l-37.5 37.5L308.8 216.7c.8555-4.023 1.898-8.002 2.062-12.21C310.7 157.8 264.7 119.5 258.5 114.9c-12.5 10.93-23.79 23.39-32.72 36.75L38.81 5.109C34.41 1.672 29.19 0 24.03 0C16.91 0 9.845 3.156 5.127 9.187c-8.188 10.44-6.375 25.53 4.062 33.7l591.1 463.1c10.5 8.203 25.56 6.328 33.69-4.078C643.1 492.4 641.2 477.3 630.8 469.1zM545.7 113.5c25.38-27.38 32.37-71.1 29.75-112.1c-29-1.875-80.25-.25-112.6 29.87c-37.12 37.37-30.1 104.4-29.75 112.1C474.7 146.3 518.1 139.3 545.7 113.5zM270.5 367.3c-6.625 0-13 1.125-19.25 2.75l42.83-42.83L243.3 287.4l-37.35 37.34c1.625-5.996 2.75-11.1 3-18.37C208.9 276.5 190.2 250.3 175.1 233.9L154.1 218.2c-27.11 24.17-49.13 55.15-50.24 87.97c1 28.5 18.62 56.37 40.88 78.99l-72.25 72.24c-12.5 12.5-12.5 32.75 0 45.25c12.51 12.51 32.74 12.51 45.25 0l72.25-72.25c22.75 22.75 50.37 40.12 79.37 41.12c33.25-1.25 65.75-24.87 89.75-52.24C342.1 399.8 309.7 368.6 270.5 367.3z"/></svg>