<svg xmlns="http://www.w3.org/2000/svg" viewBox="0 0 512 512"><!--! Font Awesome Pro 6.1.1 by @fontawesome - https://fontawesome.com License - https://fontawesome.com/license (Commercial License) Copyright 2022 Fonticons, Inc. --><path d="M252.1 345.4l45.25 45.38c12.5 12.5 32.88 12.5 45.38 0l45.25-45.38c12.5-12.5 12.5-32.75 0-45.25l-45.25-45.38c-12.5-12.5-32.88-12.5-45.38 0L252.1 300.1C239.6 312.6 239.6 332.9 252.1 345.4zM479.1 32H32.04C12.55 32-2.324 49.25 .3008 68.51L56.29 425.1C60.79 456.6 87.78 480 119.8 480h272.9c31.74 0 58.86-23.38 63.36-54.89l55.61-356.6C514.3 49.25 499.5 32 479.1 32zM416.5 284.8c18.56 25.04 16.73 60.52-5.928 83.18l-45.28 45.41c-12.09 12.09-28.18 18.75-45.31 18.75s-33.22-6.656-45.35-18.78L229.4 368c0 0 .002 .0039 0 0L159.9 368c-35.29 0-64-28.71-64-64V287.7L64.02 96h383.1L416.5 284.8zM159.9 336.1L212.2 336c-1-4.25-1.5-8.75-1.5-13.25c0-17.12 6.75-33.25 18.75-45.38L255.9 251V240c0-17.75-14.25-32-32-32h-64c-17.75 0-32 14.25-32 32v64C127.9 321.8 142.1 336.1 159.9 336.1z"/></svg>