<?xml version="1.0" ?><!DOCTYPE svg  PUBLIC '-//W3C//DTD SVG 1.1//EN'  'http://www.w3.org/Graphics/SVG/1.1/DTD/svg11.dtd'><svg enable-background="new 0 0 96 96" height="96px" id="bell" version="1.1" viewBox="0 0 96 96" width="96px" xml:space="preserve" xmlns="http://www.w3.org/2000/svg" xmlns:xlink="http://www.w3.org/1999/xlink"><path d="M96,76c-8-8-12-20-16-40C76.534,18.673,65.67,4,48,4S19.465,18.673,16,36C12,56,8,68,0,76h36.697  C36.254,77.253,36,78.596,36,80c0,6.627,5.373,12,12,12c6.627,0,12-5.373,12-12c0-1.404-0.254-2.747-0.697-4H96z M23.845,37.568  C25.044,31.57,30.332,12,48,12c17.668,0,22.956,19.571,24.155,25.569C74.635,49.968,77.185,59.911,80.979,68H15.021  C18.815,59.911,21.365,49.967,23.845,37.568z M52,80c0,2.206-1.794,4-4,4c-2.206,0-4-1.794-4-4s1.794-4,4-4  C50.206,76,52,77.794,52,80z"/></svg>