<svg xmlns="http://www.w3.org/2000/svg" viewBox="0 0 384 512"><!--! Font Awesome Pro 6.1.1 by @fontawesome - https://fontawesome.com License - https://fontawesome.com/license (Commercial License) Copyright 2022 Fonticons, Inc. --><path d="M384 328c0 13.25-10.75 24-24 24l-39.1 .001L320 456c0 13.25-10.75 24-24 24s-24-10.75-24-24V352H24c-8.422 0-16.22-4.406-20.56-11.62c-4.344-7.203-4.594-16.17-.6406-23.61l144-272C153 33.08 167.6 28.62 179.2 34.8c11.7 6.188 16.17 20.72 9.969 32.44L63.86 304H272V152C272 138.8 282.8 128 296 128S320 138.8 320 152V304h40C373.3 304 384 314.8 384 328z"/></svg>