<svg xmlns="http://www.w3.org/2000/svg" viewBox="0 0 640 512"><!--! Font Awesome Pro 6.1.1 by @fontawesome - https://fontawesome.com License - https://fontawesome.com/license (Commercial License) Copyright 2022 Fonticons, Inc. --><path d="M480 96c0-8.875-7.124-16-16-16c-8.877 0-15.92 7.125-15.92 16s7.125 16 16 16S480 104.9 480 96zM632 48h-86.41l-2.258-2.75c15.99-5.371 29.11-18.73 32.62-35.59C577 4.688 573.1 0 567.1 0h-135.9c-68.39 0-125.9 48-140.4 112H265.8c-39.02 0-78.06-13.54-104.8-41.95C157.1 65.87 152.1 64 147.2 64C137.4 64 128 71.63 128 83c0 86.13 59.76 162.8 140 183.3c10.13 2.625 20-5.125 20-15.62V234.3c0-6.91-4.403-13.24-11.06-15.11C239.6 208.7 207.9 181.4 190.5 145.8C213.9 155.1 239.4 160 265.8 160h70.26V144c0-53.02 42.99-96 96.02-96h51.39l44.63 54.25v65.38c0 4.744-3.014 8.961-7.502 10.5l-31.01 10.62c-1.5 .5-9.75 3-16.5-3.75L448.1 160h-32.01l-.0049 80c0 26.12-12.62 49-32 63.63l-.0277 160.4L336.1 464V320L196.2 288.9L167.5 369L191.5 464H150l-21.13-87.88C127.6 370.8 127.8 365.3 129.3 360l22.75-76.75C128.5 273.8 112 250.9 112 224c0-15 5.124-28.62 13.75-39.5c-8.877-14.25-15.63-29.75-20.63-46.13C97.27 144.9 89.89 152 84.01 160.4C37.38 162.5 0 200.9 0 248v48C0 309.3 10.75 320 24 320s24-10.75 24-24l-.0037-48c0-13.25 6.876-24.37 16.75-31.62c-.125 2.5-.7524 5-.7524 7.625c0 30.12 11.88 58.12 32.14 78.62l-12.88 43.75c-3.999 13.25-4.374 27.38-1.125 40.88L106.3 487.5C109.8 501.9 122.6 512 137.4 512h74.76c20.85 0 36.13-19.62 31.02-39.84l-25.52-100.8L227 345l61.01 13.5L288.1 480c0 17.6 14.4 32 32 32h80.01c17.6 0 32.01-14.4 32.01-32v-155.6c20-22.5 31.26-51.13 32.01-81.63V234.4c21 7 38.38 .75 41.01-.125l30.1-10.62c23.94-8.203 40.01-30.71 40.01-56V102.5c0-5.104-1.03-10.08-2.579-14.86l62.87-25C643 58.25 639.9 48 632 48z"/></svg>