<svg xmlns="http://www.w3.org/2000/svg" viewBox="0 0 640 512"><!--! Font Awesome Pro 6.1.1 by @fontawesome - https://fontawesome.com License - https://fontawesome.com/license (Commercial License) Copyright 2022 Fonticons, Inc. --><path d="M368 80C368 115.9 344.3 146.3 311.7 156.4C311.9 157.6 312 158.8 312 160V192H360C373.3 192 384 202.7 384 216C384 229.3 373.3 240 360 240H312V464H336C340.1 464 344.1 463.8 348.1 463.5C358.4 479.3 371.1 493.4 385.7 505.2C369.9 509.6 353.2 512 336 512H240C139.8 512 58.25 431.8 56.05 332.1L39.62 346.2C29.56 354.8 14.4 353.7 5.778 343.6C-2.848 333.6-1.682 318.4 8.382 309.8L64.38 261.8C73.37 254.1 86.63 254.1 95.62 261.8L151.6 309.8C161.7 318.4 162.8 333.6 154.2 343.6C145.6 353.7 130.4 354.8 120.4 346.2L104.1 332.2C106.3 405.4 166.3 464 240 464H264V240H216C202.7 240 192 229.3 192 216C192 202.7 202.7 192 216 192H264V160C264 158.8 264.1 157.6 264.3 156.4C231.7 146.3 208 115.9 208 80C208 35.82 243.8 0 288 0C332.2 0 368 35.82 368 80H368zM288 112C305.7 112 320 97.67 320 80C320 62.33 305.7 48 288 48C270.3 48 256 62.33 256 80C256 97.67 270.3 112 288 112zM352 368C352 288.5 416.5 224 496 224C575.5 224 640 288.5 640 368C640 447.5 575.5 512 496 512C416.5 512 352 447.5 352 368zM496 464C509.3 464 520 453.3 520 440C520 426.7 509.3 416 496 416C482.7 416 472 426.7 472 440C472 453.3 482.7 464 496 464zM479.1 288V368C479.1 376.8 487.2 384 495.1 384C504.8 384 511.1 376.8 511.1 368V288C511.1 279.2 504.8 272 495.1 272C487.2 272 479.1 279.2 479.1 288z"/></svg>