<svg xmlns="http://www.w3.org/2000/svg" viewBox="0 0 448 512"><!--! Font Awesome Pro 6.0.0-beta3 by @fontawesome - https://fontawesome.com License - https://fontawesome.com/license (Commercial License) Copyright 2021 Fonticons, Inc. --><path d="M238.1 115.1L359.8 252l-121.6 136c-4.094 4.563-6.125 10.28-6.125 16c0 6.594 2.687 13.16 7.1 17.88c9.874 8.844 25.06 8 33.87-1.875l135.1-152c8.187-9.125 8.187-22.88 0-32l-135.1-152c-8.812-9.875-23.1-10.72-33.87-1.875C230.1 90.93 229.3 106.2 238.1 115.1zM217.9 268c8.187-9.125 8.187-22.88 0-32L81.88 83.99C73.07 74.12 57.88 73.28 48 82.12C38.1 90.93 37.29 106.2 46.13 115.1L167.8 252l-121.6 136c-4.094 4.563-6.125 10.28-6.125 16c0 6.594 2.687 13.16 7.1 17.88c9.874 8.844 25.06 8 33.87-1.875L217.9 268z"/></svg>