<svg xmlns="http://www.w3.org/2000/svg" viewBox="0 0 576 512"><!--! Font Awesome Pro 6.1.1 by @fontawesome - https://fontawesome.com License - https://fontawesome.com/license (Commercial License) Copyright 2022 Fonticons, Inc. --><path d="M320 336C311.2 336 304 328.8 304 320V288C304 279.2 311.2 272 320 272H352C360.8 272 368 279.2 368 288V320C368 328.8 360.8 336 352 336H320zM496 416C496 424.8 488.8 432 480 432H448C439.2 432 432 424.8 432 416V384C432 375.2 439.2 368 448 368H480C488.8 368 496 375.2 496 384V416zM96 336C87.16 336 80 328.8 80 320V288C80 279.2 87.16 272 96 272H128C136.8 272 144 279.2 144 288V320C144 328.8 136.8 336 128 336H96zM144 416C144 424.8 136.8 432 128 432H96C87.16 432 80 424.8 80 416V384C80 375.2 87.16 368 96 368H128C136.8 368 144 375.2 144 384V416zM224 336C215.2 336 208 328.8 208 320V288C208 279.2 215.2 272 224 272H256C264.8 272 272 279.2 272 288V320C272 328.8 264.8 336 256 336H224zM368 128C368 136.8 360.8 144 352 144H320C311.2 144 304 136.8 304 128V96C304 87.16 311.2 80 320 80H352C360.8 80 368 87.16 368 96V128zM256 80C264.8 80 272 87.16 272 96V128C272 136.8 264.8 144 256 144H224C215.2 144 208 136.8 208 128V96C208 87.16 215.2 80 224 80H256zM368 224C368 232.8 360.8 240 352 240H320C311.2 240 304 232.8 304 224V192C304 183.2 311.2 176 320 176H352C360.8 176 368 183.2 368 192V224zM448 336C439.2 336 432 328.8 432 320V288C432 279.2 439.2 272 448 272H480C488.8 272 496 279.2 496 288V320C496 328.8 488.8 336 480 336H448zM144 224C144 232.8 136.8 240 128 240H96C87.16 240 80 232.8 80 224V192C80 183.2 87.16 176 96 176H128C136.8 176 144 183.2 144 192V224zM224 240C215.2 240 208 232.8 208 224V192C208 183.2 215.2 176 224 176H256C264.8 176 272 183.2 272 192V224C272 232.8 264.8 240 256 240H224zM64 512C28.65 512 0 483.3 0 448V160C0 124.7 28.65 96 64 96H128V64C128 28.65 156.7 0 192 0H384C419.3 0 448 28.65 448 64V192H512C547.3 192 576 220.7 576 256V448C576 483.3 547.3 512 512 512H64zM176 144H64C55.16 144 48 151.2 48 160V448C48 456.8 55.16 464 64 464H256V416C256 398.3 270.3 384 288 384C305.7 384 320 398.3 320 416V464H512C520.8 464 528 456.8 528 448V256C528 247.2 520.8 240 512 240H400V64C400 55.16 392.8 48 384 48H192C183.2 48 176 55.16 176 64V144z"/></svg>