<svg xmlns="http://www.w3.org/2000/svg" viewBox="0 0 448 512"><!--! Font Awesome Pro 6.1.1 by @fontawesome - https://fontawesome.com License - https://fontawesome.com/license (Commercial License) Copyright 2022 Fonticons, Inc. --><path d="M415.3 177.6c-18.5-26.5-44.01-43.12-73.64-48.25c-34.51-6-86.14 9.125-117.6 23.75C192.5 138.5 140.1 123.4 106.4 129.4C76.73 134.5 51.35 151.1 32.72 177.6C4.841 217.5-6.536 280.1 3.716 337.1C18.97 421.8 69.98 512 167.2 512c13.38 0 27.63-4 42.26-12c9.001-4.875 20-4.875 29 0C253.1 508 267.4 512 280.8 512c97.27 0 148.3-90.25 163.5-174.9C454.5 280.1 443.2 217.5 415.3 177.6zM397 328.6C393 351.2 368.3 464 280.8 464c-5.251 0-11.88-2.125-19.25-6.125c-11.63-6.25-24.5-9.5-37.51-9.5s-25.88 3.25-37.51 9.5C179.1 461.9 172.5 464 167.2 464c-87.51 0-112.3-112.8-116.3-135.4C42.97 284.2 51.47 234.6 72.1 205.1c11.13-16 25.38-25.5 42.38-28.5c12.63-2.125 53.88 0 109.5 30.75c55.63-30.75 97.02-32.88 109.5-30.75c17 3 31.25 12.5 42.38 28.5C396.5 234.6 405 284.2 397 328.6zM222.4 112c18.75 0 52.13-3.25 73.26-24.38c30.5-30.62 23.75-86.1 23.75-86.1S313.9 0 305.6 0c-18.75 0-52.13 3.25-73.26 24.38c-30.5 30.62-23.75 87-23.75 87S213.1 112 222.4 112z"/></svg>