<svg xmlns="http://www.w3.org/2000/svg" viewBox="0 0 512 512"><!--! Font Awesome Pro 6.1.1 by @fontawesome - https://fontawesome.com License - https://fontawesome.com/license (Commercial License) Copyright 2022 Fonticons, Inc. --><path d="M257.1 87.53C245.8 87.53 234.7 88.66 223.1 90.8V42.06C234.8 40.39 245.9 39.53 257.1 39.53C313.1 39.53 364.1 60.83 402.5 95.77L437.6 60.69C447.7 50.61 464.9 57.75 464.9 72V177.4C464.9 186.2 457.7 193.4 448.9 193.4H343.5C329.3 193.4 322.1 176.1 332.2 166.1L368.5 129.8C338.9 103.5 299.9 87.53 257.1 87.53V87.53zM89.14 255.5C89.14 266.6 90.22 277.5 92.27 288H43.56C41.96 277.4 41.14 266.6 41.14 255.5C41.14 200.4 61.82 150 95.85 111.9L60.69 76.69C50.61 66.61 57.74 49.38 71.1 49.38H177.4C186.2 49.38 193.4 56.54 193.4 65.38V170.7C193.4 185 176.1 192.1 166.1 182.1L129.9 145.9C104.5 175.3 89.14 213.6 89.14 255.5L89.14 255.5zM182.1 348.2L147.5 382.8C176.9 408.2 215.2 423.5 257.1 423.5C267.7 423.5 277.1 422.6 288 420.7V469.3C277.9 470.8 267.6 471.5 257.1 471.5C201.1 471.5 151.6 450.9 113.5 416.8L76.69 453.6C66.61 463.7 49.37 456.5 49.37 442.3V336.9C49.37 328.1 56.54 320.9 65.37 320.9H170.7C184.1 320.9 192.1 338.1 182.1 348.2V348.2zM348.2 332.2L382.9 366.9C409.2 337.3 425.1 298.3 425.1 255.5C425.1 244.8 424.1 234.2 422.2 224H470.9C472.4 234.3 473.1 244.8 473.1 255.5C473.1 311.5 451.8 362.5 416.9 400.9L453.6 437.6C463.7 447.7 456.5 464.9 442.3 464.9H336.9C328.1 464.9 320.9 457.7 320.9 448.9V343.5C320.9 329.3 338.1 322.1 348.2 332.2V332.2z"/></svg>