<svg xmlns="http://www.w3.org/2000/svg" viewBox="0 0 576 512"><!--! Font Awesome Pro 6.1.1 by @fontawesome - https://fontawesome.com License - https://fontawesome.com/license (Commercial License) Copyright 2022 Fonticons, Inc. --><path d="M352 120C352 106.7 362.7 96 376 96H552C565.3 96 576 106.7 576 120V296C576 309.3 565.3 320 552 320C538.7 320 528 309.3 528 296V177.9L336.1 368.1C327.6 378.3 312.4 378.3 303 368.1L192 257.9L40.97 408.1C31.6 418.3 16.4 418.3 7.029 408.1C-2.343 399.6-2.343 384.4 7.029 375L175 207C184.4 197.7 199.6 197.7 208.1 207L320 318.1L494.1 144H376C362.7 144 352 133.3 352 120V120z"/></svg>