<svg xmlns="http://www.w3.org/2000/svg" viewBox="0 0 512 512"><!--! Font Awesome Pro 6.1.1 by @fontawesome - https://fontawesome.com License - https://fontawesome.com/license (Commercial License) Copyright 2022 Fonticons, Inc. --><path d="M464 256C464 141.1 370.9 48 255.1 48C242.7 48 231.1 37.25 231.1 24C231.1 10.75 242.7 0 255.1 0C397.4 0 512 114.6 512 256C512 397.4 397.4 512 255.1 512C242.7 512 231.1 501.3 231.1 488C231.1 474.7 242.7 464 255.1 464C370.9 464 464 370.9 464 256zM344.3 238.4C349.2 242.1 352 249.3 352 256C352 262.7 349.2 269 344.3 273.6L232.3 377.6C222.6 386.6 207.4 386 198.4 376.3C189.4 366.6 189.1 351.4 199.7 342.4L266.9 279.1H24C10.75 279.1 0 269.3 0 255.1C0 242.7 10.75 231.1 24 231.1H266.9L199.7 169.6C189.1 160.6 189.4 145.4 198.4 135.7C207.4 125.1 222.6 125.4 232.3 134.4L344.3 238.4z"/></svg>