<svg xmlns="http://www.w3.org/2000/svg" viewBox="0 0 448 512"><!--! Font Awesome Pro 6.0.0-beta3 by @fontawesome - https://fontawesome.com License - https://fontawesome.com/license (Commercial License) Copyright 2021 Fonticons, Inc. --><path d="M424 32h-143.1C266.8 32 256 42.75 256 56s10.75 24 24 24h86.06L7.031 439c-9.375 9.375-9.375 24.56 0 33.94s24.56 9.375 33.94 0L400 113.9V200C400 213.3 410.8 224 424 224S448 213.2 448 199.1V56C448 42.84 437.2 32 424 32zM167.4 233.4l33.94-33.94L40.97 39.03c-9.375-9.375-24.56-9.375-33.94 0s-9.375 24.56 0 33.94L167.4 233.4zM424 288c-13.25 0-24 10.75-24 24v86.06l-119.4-119.4l-33.94 33.94L366.1 432H280c-13.25 0-24 10.75-24 24S266.8 480 280 480H424c13.16 0 24-10.81 24-24V312C448 298.8 437.3 288 424 288z"/></svg>