<svg xmlns="http://www.w3.org/2000/svg" viewBox="0 0 512 512"><!--! Font Awesome Pro 6.1.1 by @fontawesome - https://fontawesome.com License - https://fontawesome.com/license (Commercial License) Copyright 2022 Fonticons, Inc. --><path d="M464 256C464 242.7 474.7 232 488 232C501.3 232 512 242.7 512 256C512 397.4 397.4 512 256 512C114.6 512 0 397.4 0 256C0 242.7 10.75 232 24 232C37.25 232 48 242.7 48 256C48 370.9 141.1 464 256 464C370.9 464 464 370.9 464 256zM238.4 7.669C242.1 2.779 249.3 0 255.1 0C262.7 0 269 2.779 273.6 7.669L377.6 119.7C386.6 129.4 386 144.6 376.3 153.6C366.6 162.6 351.4 162 342.4 152.3L280 85.12V328C280 341.3 269.3 352 255.1 352C242.7 352 231.1 341.3 231.1 328V85.12L169.6 152.3C160.6 162 145.4 162.6 135.7 153.6C125.1 144.6 125.4 129.4 134.4 119.7L238.4 7.669z"/></svg>