<svg xmlns="http://www.w3.org/2000/svg" viewBox="0 0 576 512"><!--! Font Awesome Pro 6.1.1 by @fontawesome - https://fontawesome.com License - https://fontawesome.com/license (Commercial License) Copyright 2022 Fonticons, Inc. --><path d="M263.1 328V81.94L224.1 120.1C215.6 130.3 200.4 130.3 191 120.1C181.7 111.6 181.7 96.4 191 87.03L271 7.029C280.4-2.343 295.6-2.343 304.1 7.029L384.1 87.03C394.3 96.4 394.3 111.6 384.1 120.1C375.6 130.3 360.4 130.3 351 120.1L312 81.94V328C312 341.3 301.3 352 287.1 352C274.7 352 263.1 341.3 263.1 328V328zM79.1 430.1C89.09 421.1 102.8 421.1 111.9 430.1C133.5 448.7 163.1 464 191.1 464C220.8 464 250.5 448.7 272 430.1C281.1 421.9 294.8 421.1 303.1 430.1C325.5 448.7 355.1 464 383.1 464C412.8 464 442.5 448.7 464 430.1C473.1 421.1 486.8 421.1 495.9 430.1C512.9 445.1 535.2 456.9 557.2 461.8C570.1 464.7 578.3 477.5 575.4 490.5C572.5 503.4 559.6 511.5 546.7 508.6C518 502.2 494.4 488.2 479.1 478.2C451.9 497.7 418.6 512 383.1 512C349.4 512 316.1 497.7 287.1 478.2C259.9 497.7 226.6 512 191.1 512C157.4 512 124.1 497.7 95.98 478.2C81.61 488.2 57.99 502.2 29.3 508.6C16.37 511.5 3.534 503.4 .633 490.5C-2.268 477.5 5.864 464.7 18.8 461.8C41 456.8 62.76 444.1 79.1 430.1L79.1 430.1zM191.1 239.1H63.1C55.16 239.1 47.1 247.2 47.1 255.1V404.6C38.69 410.9 27.94 415.7 17.49 418.1C11.19 419.6 5.326 421.9 0 425V255.1C0 220.7 28.65 191.1 64 191.1H192L191.1 239.1zM576 255.1V424.1C570.7 421.9 564.8 419.6 558.5 418.1C548.1 415.7 537.3 410.9 528 404.6V255.1C528 247.2 520.8 239.1 512 239.1H384V191.1H512C547.3 191.1 576 220.7 576 255.1V255.1z"/></svg>