<svg xmlns="http://www.w3.org/2000/svg" viewBox="0 0 640 512"><!--! Font Awesome Pro 6.0.0-beta3 by @fontawesome - https://fontawesome.com License - https://fontawesome.com/license (Commercial License) Copyright 2021 Fonticons, Inc. --><path d="M640 424C640 437.3 629.3 448 616 448C602.7 448 592 437.3 592 424V88C592 74.75 602.7 64 616 64C629.3 64 640 74.75 640 88V424zM351 375L446.1 280H24C10.75 280 0 269.2 0 256C0 242.8 10.75 232 24 232H446.1L351 136.1C341.7 127.6 341.7 112.4 351 103C360.4 93.66 375.6 93.66 384.1 103L520.1 239C530.3 248.4 530.3 263.6 520.1 272.1L384.1 408.1C375.6 418.3 360.4 418.3 351 408.1C346.3 404.3 344 398.2 344 392C344 385.8 346.3 379.7 351 375V375z"/></svg>