<svg xmlns="http://www.w3.org/2000/svg" viewBox="0 0 640 512"><!--! Font Awesome Pro 6.1.1 by @fontawesome - https://fontawesome.com License - https://fontawesome.com/license (Commercial License) Copyright 2022 Fonticons, Inc. --><path d="M111 504.1L15.03 408.1C5.657 399.6 5.657 384.4 15.03 375C24.4 365.7 39.6 365.7 48.97 375L104 430.1V280H24C10.75 280 0 269.3 0 256C0 242.7 10.75 232 24 232H296V81.94L240.1 136.1C231.6 146.3 216.4 146.3 207 136.1C197.7 127.6 197.7 112.4 207 103L303 7.029C307.5 2.529 313.6 0 320 0C326.4 0 332.5 2.529 336.1 7.029L432.1 103C442.3 112.4 442.3 127.6 432.1 136.1C423.6 146.3 408.4 146.3 399 136.1L344 81.94V232H423.4C418.6 244.4 416 257.9 416 272V280H152V430.1L207 375C216.4 365.7 231.6 365.7 240.1 375C250.3 384.4 250.3 399.6 240.1 408.1L144.1 504.1C135.6 514.3 120.4 514.3 111 504.1H111zM104 192V56C104 42.75 114.7 32 128 32C141.3 32 152 42.75 152 56V192H104zM344 320V456C344 469.3 333.3 480 320 480C306.7 480 296 469.3 296 456V320H344zM528 192C572.2 192 608 227.8 608 272V320C625.7 320 640 334.3 640 352V480C640 497.7 625.7 512 608 512H448C430.3 512 416 497.7 416 480V352C416 334.3 430.3 320 448 320V272C448 227.8 483.8 192 528 192zM528 240C510.3 240 496 254.3 496 272V320H560V272C560 254.3 545.7 240 528 240z"/></svg>