<svg xmlns="http://www.w3.org/2000/svg" viewBox="0 0 512 512"><!--! Font Awesome Pro 6.0.0-beta3 by @fontawesome - https://fontawesome.com License - https://fontawesome.com/license (Commercial License) Copyright 2021 Fonticons, Inc. --><path d="M200 32C186.8 32 176 42.75 176 56v86.06L56.97 23.03c-9.375-9.375-24.56-9.375-33.94 0s-9.375 24.56 0 33.94L142.1 176H56C42.75 176 32 186.8 32 200s10.8 24.06 24.05 24.06L200 224c3.135 0 6.248-.6406 9.182-1.855c5.861-2.434 10.53-7.109 12.96-12.97C223.4 206.2 224 203.1 224 200l.0549-143.9C224.1 42.81 213.3 32 200 32zM302.8 222.1C305.8 223.4 308.9 224 312 224l143.9 .0576C469.2 224.1 480 213.3 480 200S469.3 176 456 176h-86.06l119-119c9.375-9.375 9.375-24.56 0-33.94s-24.56-9.375-33.94 0L336 142.1V56C336 42.75 325.3 32 312 32s-24.05 10.81-24.05 24.06L288 200c0 3.133 .6406 6.25 1.855 9.18C292.3 215 296.1 219.7 302.8 222.1zM369.9 336H456c13.25 0 24-10.75 24-24s-10.81-24.06-24.06-24.06L312 288c-3.135 0-6.248 .6406-9.182 1.855c-5.861 2.434-10.53 7.109-12.96 12.97C288.6 305.8 288 308.9 288 312l-.0567 143.9C287.9 469.2 298.8 480 312 480s24-10.75 24-24v-86.06l119 119c9.375 9.375 24.56 9.375 33.94 0s9.375-24.56 0-33.94L369.9 336zM209.2 289.9C206.2 288.6 203.1 288 200 288L56.06 287.9C42.81 287.9 32 298.8 32 312s10.75 24 24 24h86.06l-119 119c-9.375 9.375-9.375 24.56 0 33.94s24.56 9.375 33.94 0L176 369.9V456C176 469.3 186.8 480 200 480s24.06-10.81 24.06-24.06L224 312c0-3.133-.6406-6.25-1.855-9.18C219.7 296.1 215 292.3 209.2 289.9z"/></svg>