<svg xmlns="http://www.w3.org/2000/svg" viewBox="0 0 512 512"><!--! Font Awesome Pro 6.1.1 by @fontawesome - https://fontawesome.com License - https://fontawesome.com/license (Commercial License) Copyright 2022 Fonticons, Inc. --><path d="M240.1 136.1C231.6 146.3 216.4 146.3 207 136.1C197.7 127.6 197.7 112.4 207 103L303 7.029C312.4-2.343 327.6-2.343 336.1 7.029L432.1 103C442.3 112.4 442.3 127.6 432.1 136.1C423.6 146.3 408.4 146.3 399 136.1L344 81.94V392C344 431.8 376.2 464 416 464H488C501.3 464 512 474.7 512 488C512 501.3 501.3 512 488 512H416C349.7 512 296 458.3 296 392V384C296 344.2 263.8 312 224 312H81.94L136.1 367C146.3 376.4 146.3 391.6 136.1 400.1C127.6 410.3 112.4 410.3 103 400.1L7.029 304.1C2.529 300.5 0 294.4 0 288C0 281.6 2.529 275.5 7.029 271L103 175C112.4 165.7 127.6 165.7 136.1 175C146.3 184.4 146.3 199.6 136.1 208.1L81.94 264H224C251 264 275.9 272.9 296 287.1V81.94L240.1 136.1z"/></svg>