<svg xmlns="http://www.w3.org/2000/svg" viewBox="0 0 640 512"><!--! Font Awesome Pro 6.1.1 by @fontawesome - https://fontawesome.com License - https://fontawesome.com/license (Commercial License) Copyright 2022 Fonticons, Inc. --><path d="M24 64C37.25 64 48 74.75 48 88V424C48 437.3 37.25 448 24 448C10.75 448 0 437.3 0 424V88C0 74.75 10.75 64 24 64zM240.1 135C250.3 144.4 250.3 159.6 240.1 168.1L177.9 232H462.1L399 168.1C389.7 159.6 389.7 144.4 399 135C408.4 125.7 423.6 125.7 432.1 135L536.1 239C546.3 248.4 546.3 263.6 536.1 272.1L432.1 376.1C423.6 386.3 408.4 386.3 399 376.1C389.7 367.6 389.7 352.4 399 343L462.1 280H177.9L240.1 343C250.3 352.4 250.3 367.6 240.1 376.1C231.6 386.3 216.4 386.3 207 376.1L103 272.1C93.66 263.6 93.66 248.4 103 239L207 135C216.4 125.7 231.6 125.7 240.1 135H240.1zM640 424C640 437.3 629.3 448 616 448C602.7 448 592 437.3 592 424V88C592 74.75 602.7 64 616 64C629.3 64 640 74.75 640 88V424z"/></svg>