<svg xmlns="http://www.w3.org/2000/svg" viewBox="0 0 448 512"><!--! Font Awesome Pro 6.1.1 by @fontawesome - https://fontawesome.com License - https://fontawesome.com/license (Commercial License) Copyright 2022 Fonticons, Inc. --><path d="M399.1 88v336c0 13.25 10.76 24 24.02 24C437.2 448 448 437.3 448 424V88C448 74.75 437.2 64 423.1 64C410.7 64 399.1 74.75 399.1 88zM175.7 145.5l91.98 86.53h-243.6C10.76 232 0 242.8 0 256s10.76 24 24.02 24h243.6l-91.98 86.53C170.6 371.3 168.1 377.6 168.1 384c0 5.906 2.158 11.81 6.536 16.44c9.069 9.656 24.27 10.12 33.93 1.031l136.1-128c9.694-9.062 9.694-25.87 0-34.94l-136.1-128C198.9 101.4 183.7 101.9 174.6 111.6C165.5 121.2 165.1 136.4 175.7 145.5z"/></svg>