<svg xmlns="http://www.w3.org/2000/svg" viewBox="0 0 384 512"><!--! Font Awesome Pro 6.1.1 by @fontawesome - https://fontawesome.com License - https://fontawesome.com/license (Commercial License) Copyright 2022 Fonticons, Inc. --><path d="M24 80.03h336c13.25 0 24-10.76 24-24.02S373.3 32 360 32h-336c-13.25 0-24 10.76-24 24.02S10.75 80.03 24 80.03zM302.5 303.7L216 395.7V152.1c0-13.26-10.75-24.05-24-24.05S168 138.8 168 152.1v243.6l-86.53-91.97C76.75 298.7 70.38 296.2 64 296.2c-5.906 0-11.81 2.158-16.44 6.536c-9.656 9.069-10.12 24.27-1.031 33.93l127.1 136.1c9.062 9.694 25.88 9.694 34.94 0l128-136.1c9.094-9.663 8.625-24.86-1.031-33.93C326.8 293.6 311.6 294 302.5 303.7z"/></svg>