<svg xmlns="http://www.w3.org/2000/svg" viewBox="0 0 512 512"><!--! Font Awesome Pro 6.1.1 by @fontawesome - https://fontawesome.com License - https://fontawesome.com/license (Commercial License) Copyright 2022 Fonticons, Inc. --><path d="M206.4 335.1L152 394.9V56.02C152 42.76 141.3 32 128 32S104 42.76 104 56.02v338.9l-54.37-58.95c-4.719-5.125-11.16-7.719-17.62-7.719c-5.812 0-11.66 2.094-16.28 6.375c-9.75 8.977-10.34 24.18-1.344 33.94l95.1 104.1c9.062 9.82 26.19 9.82 35.25 0l95.1-104.1c9-9.758 8.406-24.96-1.344-33.94C230.5 325.5 215.3 326.2 206.4 335.1zM432 432H416V312c0-8.656-4.656-16.62-12.19-20.88c-7.531-4.312-16.78-4.094-24.16 .2813l-40 24c-11.38 6.844-15.06 21.56-8.25 32.94c6.812 11.34 21.5 15.06 32.94 8.25l3.656-2.219V432h-16c-13.25 0-24 10.75-24 24S338.8 480 352 480H432c13.25 0 24-10.75 24-24S445.3 432 432 432zM372.1 205.8l-15.54 19c-8.406 10.25-6.906 25.38 3.375 33.75C365.3 262.2 370.6 264 376 264c6.938 0 13.84-3 18.56-8.812C465.1 168.1 480 158.5 480 120c0-48.6-39.4-88-88-88s-88 39.4-88 88C303.1 162.1 333.5 197.1 372.1 205.8zM392 80c22.06 0 40 17.95 40 40c0 10.4-4.223 19.7-10.75 26.82l-1.443 1.762C412.6 155.6 402.8 160 392 160c-22.06 0-40-17.95-40-40S369.9 80 392 80z"/></svg>