<svg xmlns="http://www.w3.org/2000/svg" viewBox="0 0 384 512"><!--! Font Awesome Pro 6.1.1 by @fontawesome - https://fontawesome.com License - https://fontawesome.com/license (Commercial License) Copyright 2022 Fonticons, Inc. --><path d="M360 431.1H24c-13.25 0-24 10.76-24 24.02C0 469.2 10.75 480 24 480h336c13.25 0 24-10.76 24-24.02C384 442.7 373.3 431.1 360 431.1zM302.5 207.7L216 299.7v-243.6C216 42.76 205.3 32 192 32S168 42.76 168 56.02v243.6L81.47 207.7C76.75 202.6 70.38 200.1 64 200.1c-5.906 0-11.81 2.158-16.44 6.536c-9.656 9.069-10.12 24.27-1.031 33.93l128 136.1c9.062 9.694 25.88 9.694 34.94 0l128-136.1c9.094-9.663 8.625-24.86-1.031-33.93C326.8 197.5 311.6 197.1 302.5 207.7z"/></svg>