<svg xmlns="http://www.w3.org/2000/svg" viewBox="0 0 256 512"><!--! Font Awesome Pro 6.0.0-beta3 by @fontawesome - https://fontawesome.com License - https://fontawesome.com/license (Commercial License) Copyright 2021 Fonticons, Inc. --><path d="M127.1 511.1c-6.688 0-13.09-2.812-17.62-7.719l-96-104c-4.281-4.625-6.375-10.47-6.375-16.28c0-6.469 2.594-12.91 7.719-17.62c9.75-9 24.94-8.406 33.91 1.344l54.38 58.91V85.37L49.62 144.3C40.65 154 25.47 154.6 15.72 145.6C10.59 140.9 7.998 134.5 7.998 127.1c0-5.812 2.094-11.66 6.375-16.28l96-104c4.531-4.906 10.94-7.719 17.62-7.719s13.09 2.812 17.62 7.719l96 104c9.031 9.781 8.375 24.97-1.344 33.91c-9.75 9-24.94 8.406-33.91-1.344l-54.38-58.91v341.3l54.38-58.91c8.969-9.75 24.16-10.34 33.91-1.344c9.719 8.969 10.38 24.12 1.344 33.91l-96 104C141.1 509.2 134.7 511.1 127.1 511.1z"/></svg>