<svg xmlns="http://www.w3.org/2000/svg" viewBox="0 0 448 512"><!--! Font Awesome Pro 6.0.0-beta3 by @fontawesome - https://fontawesome.com License - https://fontawesome.com/license (Commercial License) Copyright 2021 Fonticons, Inc. --><path d="M417.1 368c-4.437 7.688-12.5 12-20.81 12c-4.062 0-8.188-1.031-11.97-3.219L248 297.6V456c0 13.25-10.75 24-23.1 24S200 469.3 200 456V297.6l-137.2 79.22C59 378.1 54.88 380 50.81 380c-8.312 0-16.37-4.312-20.81-12c-6.625-11.47-2.687-26.16 8.781-32.78L176 256l-137.2-79.22C27.31 170.2 23.38 155.5 29.1 144C36.59 132.6 51.28 128.5 62.78 135.2L200 214.4V56C200 42.75 210.8 32 224 32S248 42.75 248 56v158.4l137.2-79.22C396.8 128.5 411.4 132.6 417.1 144c6.625 11.47 2.688 26.16-8.781 32.78L271.1 256l137.2 79.22C420.7 341.8 424.6 356.5 417.1 368z"/></svg>