<svg xmlns="http://www.w3.org/2000/svg" viewBox="0 0 512 512"><!--! Font Awesome Pro 6.0.0-beta3 by @fontawesome - https://fontawesome.com License - https://fontawesome.com/license (Commercial License) Copyright 2021 Fonticons, Inc. --><path d="M138.9 22.92L256 192H400V152C400 121.1 425.1 96 456 96H488C501.3 96 512 106.7 512 120C512 133.3 501.3 144 488 144H456C451.6 144 448 147.6 448 152V224C448 251.1 441.9 279.6 430.3 305.1C418.6 330.7 401.7 353.6 380.7 372.7C359.8 391.7 335.1 406.6 308.3 416.7C281.4 426.8 252.8 432 224 432C195.2 432 166.6 426.8 139.7 416.7C112.9 406.6 88.24 391.7 67.26 372.7C46.28 353.6 29.36 330.7 17.72 305.1C6.07 279.6 0 251.1 0 224V192H.1405C2.742 117.9 41.34 52.95 98.99 14.1C112.2 5.175 129.8 9.784 138.9 22.92V22.92zM61.4 285.2C70.24 304.6 83.21 322.3 99.55 337.1C115.9 351.1 135.3 363.8 156.6 371.8C178 379.9 200.9 384 224 384C247.1 384 270 379.9 291.4 371.8C312.7 363.8 332.1 351.1 348.5 337.1C364.8 322.3 377.8 304.6 386.6 285.2C388.6 280.9 390.3 276.5 391.9 272C395.5 261.6 397.9 250.9 399.1 240H48.88C50.08 250.9 52.5 261.6 56.11 272C57.65 276.5 59.42 280.9 61.4 285.2H61.4zM32 464C32 437.5 53.49 416 80 416C106.5 416 128 437.5 128 464C128 490.5 106.5 512 80 512C53.49 512 32 490.5 32 464zM416 464C416 490.5 394.5 512 368 512C341.5 512 320 490.5 320 464C320 437.5 341.5 416 368 416C394.5 416 416 437.5 416 464z"/></svg>