<svg xmlns="http://www.w3.org/2000/svg" viewBox="0 0 640 512"><!--! Font Awesome Pro 6.1.1 by @fontawesome - https://fontawesome.com License - https://fontawesome.com/license (Commercial License) Copyright 2022 Fonticons, Inc. --><path d="M521.6 428.9C572.4 388.1 640 299.8 640 232.8C640 139.7 568.2 64 480 64c-54.09 0-101.8 28.63-130.8 72.11C350.9 146.8 352 157.7 352 168.8c0 30.95-11.31 63.97-27.87 95.5C326.8 275.1 330.8 286.3 336 297.9c19.9 44.04 64.79 100.1 102.4 131.1l-25.01 47.9c-3.875 7.438-3.594 16.34 .75 23.53S426.3 512 434.7 512h90.69c8.406 0 16.19-4.375 20.53-11.56s4.625-16.09 .75-23.53L521.6 428.9zM480 400.5c-19.31-11.69-74.5-65.31-100.3-122.4C371.9 260.9 368 245.6 368 232.8C368 166.2 418.3 112 480 112s112 54.19 112 120.8C592 294.6 506.7 384.6 480 400.5zM480 152c-39.69 0-72 32.31-72 72c0 13.25 10.75 24 24 24S456 237.3 456 224c0-13.22 10.78-24 24-24c13.25 0 24-10.75 24-24S493.3 152 480 152zM160 88C120.3 88 88 120.3 88 160c0 13.25 10.75 24 24 24S136 173.3 136 160c0-13.22 10.78-24 24-24c13.25 0 24-10.75 24-24S173.3 88 160 88zM320 168.8C320 75.72 248.2 0 160 0S0 75.72 0 168.8c0 67.03 67.64 156.1 118.4 196.1l-25.04 47.96c-3.875 7.438-3.594 16.34 .75 23.53S106.3 448 114.7 448h90.69c8.406 0 16.19-4.375 20.53-11.56s4.625-16.09 .75-23.53l-25.04-47.96C252.4 324.1 320 235.8 320 168.8zM160 336.5c-26.66-15.84-112-105.9-112-167.7C48 102.2 98.25 48 160 48s112 54.19 112 120.8C272 230.7 186.7 320.7 160 336.5z"/></svg>