<svg xmlns="http://www.w3.org/2000/svg" viewBox="0 0 512 512"><!--! Font Awesome Pro 6.0.0-beta3 by @fontawesome - https://fontawesome.com License - https://fontawesome.com/license (Commercial License) Copyright 2021 Fonticons, Inc. --><path d="M168 265.9L222.1 320H216V360C216 373.3 205.3 384 192 384C178.7 384 168 373.3 168 360V265.9zM0 256C0 114.6 114.6 0 256 0C397.4 0 512 114.6 512 256C512 397.4 397.4 512 256 512C114.6 512 0 397.4 0 256zM256 464C304.8 464 349.7 447.2 385.1 419.1L92.93 126.9C64.8 162.3 48 207.2 48 256C48 370.9 141.1 464 256 464zM335.1 302L419.1 385.1C447.2 349.7 464 304.8 464 256C464 141.1 370.9 48 255.1 48C207.2 48 162.3 64.8 126.9 92.93L174.5 140.6C180.4 132.9 189.6 128 199.1 128H280C333 128 376 170.1 376 224C376 256.1 360.2 284.6 335.1 302H335.1zM301.1 267.1C317 259.3 328 242.9 328 224C328 197.5 306.5 176 280 176H216V182.1L301.1 267.1z"/></svg>