<svg xmlns="http://www.w3.org/2000/svg" viewBox="0 0 512 512"><!--! Font Awesome Pro 6.1.1 by @fontawesome - https://fontawesome.com License - https://fontawesome.com/license (Commercial License) Copyright 2022 Fonticons, Inc. --><path d="M140.9 272.3L174.1 265.5L275.2 365.7C269 367.2 262.6 368 255.1 368C236.2 368 218.1 360.8 204.2 348.1L176.2 365.7C168.7 370.3 158.8 367.8 154.3 360.2C149.7 352.7 152.2 342.8 159.8 338.3L184.3 323.6C180.4 315.6 177.7 306.1 176.6 297.8L147.1 303.7C138.5 305.4 130 299.8 128.3 291.1C126.6 282.5 132.2 274 140.9 272.3L140.9 272.3zM0 256C0 114.6 114.6 0 256 0C397.4 0 512 114.6 512 256C512 397.4 397.4 512 256 512C114.6 512 0 397.4 0 256zM256 464C304.8 464 349.7 447.2 385.1 419.1L92.93 126.9C64.8 162.3 48 207.2 48 256C48 370.9 141.1 464 256 464zM334.9 301L419.1 385.1C447.2 349.7 464 304.8 464 256C464 141.1 370.9 48 256 48C207.2 48 162.3 64.8 126.9 92.93L200.4 166.5C214.8 152.6 234.4 144 255.1 144C275.8 144 293.9 151.2 307.8 163L335.8 146.3C343.3 141.7 353.2 144.2 357.7 151.8C362.3 159.3 359.8 169.2 352.2 173.7L327.7 188.4C331.6 196.4 334.3 205.1 335.4 214.2L364.9 208.3C373.5 206.6 381.1 212.2 383.7 220.9C385.4 229.5 379.8 237.1 371.1 239.7L336 246.7V265.3L371.1 272.3C379.8 274 385.4 282.5 383.7 291.1C381.1 299.8 373.5 305.4 364.9 303.7L335.4 297.8C335.3 298.9 335.1 299.9 334.9 301V301z"/></svg>