<svg xmlns="http://www.w3.org/2000/svg" viewBox="0 0 576 512"><!--! Font Awesome Pro 6.1.1 by @fontawesome - https://fontawesome.com License - https://fontawesome.com/license (Commercial License) Copyright 2022 Fonticons, Inc. --><path d="M293.3 146.4c0 51.19-12.77 69.4-12.77 80.76c0 13.15 10.75 23.91 24.04 23.91c10.1 0 19.46-6.406 22.78-16.51c4.207-12.82 13.98-43.75 13.98-88.14c0-51.31-13.34-83.79-13.34-88.68c0-5.878 5.104-9.955 8.524-9.955c4.266 0 71.47 60.86 71.47 167.2c0 18.26-1.852 28.59-1.852 32.08c0 4.617 3.758 23.9 24.03 23.9c26.98 0 25.83-31.53 25.83-56.07C456 106.2 387.9 0 336.5 0C307.6 0 280.1 24.25 280.1 57.97C280.1 78 293.3 95.45 293.3 146.4zM575.1 390.5c0-3.695-.8637-7.445-2.687-10.96l-15.12-29.17c-21.05-40.62-63.08-64.65-106.9-64.65c-13.43 0-27.02 2.257-40.22 6.984l-84.84 30.34L297.6 294.6C274.4 271.4 243.7 259.5 212.8 259.5c-23.72 0-47.57 6.985-68.29 21.25L106.3 307.1C99.61 311.7 95.1 319.2 95.1 326.8c0 14.96 12.7 23.92 24.04 23.92c4.695 0 9.443-1.379 13.61-4.269l38.13-26.29c12.43-8.543 26.71-12.72 40.91-12.72c10.64 0 21.24 2.344 30.97 6.949c-50.62 62.37-128.3 100.1-211.4 100.1C14.42 414.4 0 428.8 0 446.5v31.45c0 17.72 14.66 32.09 32.46 32.09l28.98 .0009c68.41 0 286.5 25.73 363.9-171.6c9.021-3.227 17.95-4.722 26.53-4.722c27.65 0 51.7 15.53 63.7 38.63l15.12 29.17c3.484 6.737 11.74 13.01 21.41 13.01C564.1 414.5 575.1 404.6 575.1 390.5z"/></svg>