<svg xmlns="http://www.w3.org/2000/svg" viewBox="0 0 640 512"><!--! Font Awesome Pro 6.1.1 by @fontawesome - https://fontawesome.com License - https://fontawesome.com/license (Commercial License) Copyright 2022 Fonticons, Inc. --><path d="M560 96C604.2 96 640 131.8 640 176V336C640 380.2 604.2 416 560 416H80C35.82 416 0 380.2 0 336V176C0 131.8 35.82 96 80 96H560zM448 368H560C577.7 368 592 353.7 592 336V176C592 158.3 577.7 144 560 144H448V368zM192 144H80C62.33 144 48 158.3 48 176V336C48 353.7 62.33 368 80 368H192V144zM272 232C285.3 232 296 221.3 296 208C296 194.7 285.3 184 272 184C258.7 184 248 194.7 248 208C248 221.3 258.7 232 272 232zM368 184C354.7 184 344 194.7 344 208C344 221.3 354.7 232 368 232C381.3 232 392 221.3 392 208C392 194.7 381.3 184 368 184zM272 328C285.3 328 296 317.3 296 304C296 290.7 285.3 280 272 280C258.7 280 248 290.7 248 304C248 317.3 258.7 328 272 328zM368 280C354.7 280 344 290.7 344 304C344 317.3 354.7 328 368 328C381.3 328 392 317.3 392 304C392 290.7 381.3 280 368 280z"/></svg>