<svg xmlns="http://www.w3.org/2000/svg" viewBox="0 0 640 512"><!--! Font Awesome Pro 6.1.1 by @fontawesome - https://fontawesome.com License - https://fontawesome.com/license (Commercial License) Copyright 2022 Fonticons, Inc. --><path d="M112 55.1V191.1H64V55.1C64 42.74 74.75 31.1 88 31.1C101.3 31.1 112 42.74 112 55.1V55.1zM64 455.1V319.1H112V455.1C112 469.3 101.3 479.1 88 479.1C74.75 479.1 64 469.3 64 455.1zM160 463.1V319.1H192V463.1C192 472.8 184.8 479.1 176 479.1C167.2 479.1 160 472.8 160 463.1zM224 455.1V319.1H272V455.1C272 469.3 261.3 479.1 248 479.1C234.7 479.1 224 469.3 224 455.1zM248 31.1C261.3 31.1 272 42.74 272 55.1V191.1H224V55.1C224 42.74 234.7 31.1 248 31.1V31.1zM336 455.1V319.1H384V455.1C384 469.3 373.3 479.1 360 479.1C346.7 479.1 336 469.3 336 455.1zM360 31.1C373.3 31.1 384 42.74 384 55.1V191.1H336V55.1C336 42.74 346.7 31.1 360 31.1V31.1zM464 463.1V319.1H496V463.1C496 472.8 488.8 479.1 480 479.1C471.2 479.1 464 472.8 464 463.1zM480 31.1C488.8 31.1 496 39.16 496 47.1V191.1H464V47.1C464 39.16 471.2 31.1 480 31.1V31.1zM528 455.1V319.1H576V455.1C576 469.3 565.3 479.1 552 479.1C538.7 479.1 528 469.3 528 455.1zM552 31.1C565.3 31.1 576 42.74 576 55.1V191.1H528V55.1C528 42.74 538.7 31.1 552 31.1V31.1zM160 47.1C160 39.16 167.2 31.1 176 31.1C184.8 31.1 192 39.16 192 47.1V191.1H160V47.1zM24 231.1H616C629.3 231.1 640 242.7 640 255.1C640 269.3 629.3 279.1 616 279.1H24C10.75 279.1 0 269.3 0 255.1C0 242.7 10.75 231.1 24 231.1V231.1z"/></svg>