<svg xmlns="http://www.w3.org/2000/svg" viewBox="0 0 640 512"><!--! Font Awesome Pro 6.1.1 by @fontawesome - https://fontawesome.com License - https://fontawesome.com/license (Commercial License) Copyright 2022 Fonticons, Inc. --><path d="M154.8 96H496C540.2 96 576 131.8 576 176V192C593.7 192 608 206.3 608 224V288C608 305.7 593.7 320 576 320V336C576 362.5 563.1 385.1 543.3 400.5L630.8 469.1C641.2 477.3 643.1 492.4 634.9 502.8C626.7 513.2 611.6 515.1 601.2 506.9L9.196 42.89C-1.236 34.71-3.065 19.63 5.112 9.196C13.29-1.236 28.37-3.065 38.81 5.112L154.8 96zM216 144L501.3 367.6C516.4 365.1 528 351.9 528 336V176C528 158.3 513.7 144 496 144H216zM345.2 368L406.2 416H112C67.82 416 32 380.2 32 336V176C32 159.6 36.92 144.4 45.35 131.7L83.37 161.7C81.21 165.1 80 170.9 80 176V336C80 353.7 94.33 368 112 368H345.2z"/></svg>