<svg xmlns="http://www.w3.org/2000/svg" viewBox="0 0 640 512"><!--! Font Awesome Pro 6.0.0-beta3 by @fontawesome - https://fontawesome.com License - https://fontawesome.com/license (Commercial License) Copyright 2021 Fonticons, Inc. --><path d="M630.8 469.1l-82.38-64.58C565.1 392.1 576 373.8 576 352l.0247-31.1c17.67 0 31.1-14.33 31.1-32V224c0-17.67-14.33-32-31.1-32L576 160c0-35.35-28.65-64-64-64H154.8L38.81 5.12C34.41 1.682 29.19 .0105 24.03 .0105c-7.125 0-14.19 3.156-18.91 9.187c-8.188 10.44-6.375 25.53 4.062 33.7l591.1 463.1c10.5 8.203 25.56 6.328 33.69-4.078C643.1 492.4 641.2 477.3 630.8 469.1zM528 352c0 8.822-7.178 16-16 16h-10.18l-285.8-224H512c8.822 0 16 7.178 16 16V352zM96 368c-8.822 0-16-7.178-16-16V160c0-.1875 .1016-.3398 .1074-.5254l-39.5-30.97c-5.318 9.332-8.583 19.99-8.583 31.5v192c0 35.35 28.65 64 63.1 64L407.4 416l-61.25-48H96z"/></svg>