<svg xmlns="http://www.w3.org/2000/svg" viewBox="0 0 640 512"><!--! Font Awesome Pro 6.1.1 by @fontawesome - https://fontawesome.com License - https://fontawesome.com/license (Commercial License) Copyright 2022 Fonticons, Inc. --><path d="M216 95.98h121.8l41.19 75.51C383.1 179.2 391.2 184 400 184L400.7 184c9.031-.2813 17.14-5.587 21-13.78l49.45-105.1l23.86 23.85C499.5 93.45 505.6 95.98 512 95.98h104c13.25 0 24-10.74 24-23.99s-10.75-24.02-24-24.02h-94.06l-40.97-40.98c-5.516-5.532-13.38-7.908-21.09-6.689c-7.703 1.344-14.27 6.405-17.59 13.47l-43.86 93.21l-25.36-46.51C368.9 52.79 360.8 47.98 352 47.98H216c-13.25 0-24 10.76-24 24.02S202.8 95.98 216 95.98zM168 336C216.5 336 256 296.5 256 248S216.5 160 168 160S80 199.5 80 248S119.5 336 168 336zM168 208c21.1 0 40 18 40 40S189.1 288 168 288C145.1 288 128 270 128 248S145.1 208 168 208zM528 160h-40c-13.25 0-24 10.74-24 24c0 13.25 10.75 24 24 24h40c35.2 0 64 28.8 64 64v96h-256V184C336 170.7 325.3 160 312 160S288 170.7 288 184v184H48V88C48 74.74 37.25 64 24 64S0 74.74 0 88v400C0 501.3 10.75 512 24 512s24-10.75 24-24V416h544v72c0 13.25 10.75 24 24 24S640 501.3 640 488V272C640 210.1 589.9 160 528 160z"/></svg>