<svg xmlns="http://www.w3.org/2000/svg" viewBox="0 0 576 512"><!--! Font Awesome Pro 6.1.1 by @fontawesome - https://fontawesome.com License - https://fontawesome.com/license (Commercial License) Copyright 2022 Fonticons, Inc. --><path d="M448 95.1c-27.73 0-55.34 9.451-80.73 22.73C367.5 116.4 368 114.3 368 111.1c0-20.4-7.832-38.84-20.4-52.97l31.71-31.71c6.25-6.25 6.25-16.38 0-22.62s-16.38-6.25-22.62 0l-34.99 34.99C311.4 34.88 300.1 31.1 288 31.1S264.6 34.88 254.3 39.68L219.3 4.688c-6.25-6.25-16.38-6.25-22.62 0s-6.25 16.38 0 22.62L228.4 58.99C215.8 73.12 208 91.6 208 111.1c0 2.342 .4805 4.438 .6777 6.727C183.3 105.4 155.7 95.1 128 95.1C57.34 95.1 0 146.1 0 207.1C0 269.8 57.28 320 127.1 320C134.8 320 141.8 319.2 148.7 318.2C162.5 417.7 288 512 288 512s125.5-94.34 139.3-193.8C434.2 319.2 441.1 320 448 320c70.66 0 128-50.13 128-111.1C576 146.2 518.7 95.99 448 95.1zM195.6 304h184.8c-.4375 10.4-3.008 21.14-7.146 32H202.7C198.6 325.1 196 314.4 195.6 304zM207.2 256c4.152-7.475 8.984-14.61 15.2-20.82C239.9 217.7 263.2 208 287.9 208s48.18 9.652 65.7 27.18C359.9 241.4 364.7 248.5 368.8 256H207.2zM151.2 268.6C143.4 270.6 135.6 272 127.1 272C83.87 272 48 243.3 48 207.1C48 172.7 83.87 144 127.1 144c29.16 0 61.19 16.16 89.06 35.83C184.3 199 160.1 230.7 151.2 268.6zM288 449.1C269.4 431.9 247.4 408.9 229.5 384h116.9C328.6 408.9 306.6 431.9 288 449.1zM448 272c-7.586 0-15.38-1.363-23.23-3.367c-8.891-37.93-33.12-69.59-65.79-88.8C386.9 160.2 418.8 144 448 144c44.08 0 80 28.69 80 64.04C528 243.3 492.1 272 448 272z"/></svg>