<svg xmlns="http://www.w3.org/2000/svg" viewBox="0 0 448 512"><!--! Font Awesome Pro 6.1.1 by @fontawesome - https://fontawesome.com License - https://fontawesome.com/license (Commercial License) Copyright 2022 Fonticons, Inc. --><path d="M256 320C256 337.7 241.7 352 224 352C206.3 352 192 337.7 192 320C192 302.3 206.3 288 224 288C241.7 288 256 302.3 256 320zM248 232C248 245.3 237.3 256 224 256C210.7 256 200 245.3 200 232V152C200 138.7 210.7 128 224 128C237.3 128 248 138.7 248 152V232zM256 32V49.88C328.5 61.39 384 124.2 384 200V233.4C384 278.8 399.5 322.9 427.8 358.4L442.7 377C448.5 384.2 449.6 394.1 445.6 402.4C441.6 410.7 433.2 416 424 416H24C14.77 416 6.365 410.7 2.369 402.4C-1.628 394.1-.504 384.2 5.26 377L20.17 358.4C48.54 322.9 64 278.8 64 233.4V200C64 124.2 119.5 61.39 192 49.88V32C192 14.33 206.3 0 224 0C241.7 0 256 14.33 256 32V32zM216 96C158.6 96 112 142.6 112 200V233.4C112 281.3 98.12 328 72.31 368H375.7C349.9 328 336 281.3 336 233.4V200C336 142.6 289.4 96 232 96H216zM288 448C288 464.1 281.3 481.3 269.3 493.3C257.3 505.3 240.1 512 224 512C207 512 190.7 505.3 178.7 493.3C166.7 481.3 160 464.1 160 448H288z"/></svg>