<svg xmlns="http://www.w3.org/2000/svg" viewBox="0 0 512 512"><!--! Font Awesome Pro 6.1.1 by @fontawesome - https://fontawesome.com License - https://fontawesome.com/license (Commercial License) Copyright 2022 Fonticons, Inc. --><path d="M312 120C312 106.7 322.7 96 336 96C349.3 96 360 106.7 360 120C360 133.3 349.3 144 336 144C322.7 144 312 133.3 312 120zM28.44 160H192C209.7 160 224 145.7 224 128V112C224 50.14 274.1 0 336 0C385.7 0 427.9 32.4 442.5 77.24L504.2 114.3C509.1 117.2 512 122.4 512 128C512 133.6 509.1 138.8 504.2 141.7L448 175.5V192C448 285.9 390.3 366.3 308.3 399.6L349.2 476.8C355.4 488.5 350.9 503 339.2 509.2C327.5 515.4 312.1 510.9 306.8 499.2L261.1 412.9C249 414.1 236.6 416 224 416C223 416 222 415.1 221 415.1L253.2 476.8C259.4 488.5 254.9 503 243.2 509.2C231.5 515.4 216.1 510.9 210.8 499.2L162.1 407.4C68.52 380.5 0 294.3 0 192V188.4C0 172.7 12.74 160 28.44 160L28.44 160zM48.72 208C56.8 297.7 132.2 368 224 368C321.2 368 400 289.2 400 192V112C400 76.65 371.3 48 336 48C300.7 48 272 76.65 272 112V128C272 172.2 236.2 208 192 208H48.72z"/></svg>