<svg xmlns="http://www.w3.org/2000/svg" viewBox="0 0 448 512"><!--! Font Awesome Pro 6.0.0-beta3 by @fontawesome - https://fontawesome.com License - https://fontawesome.com/license (Commercial License) Copyright 2021 Fonticons, Inc. --><path d="M448 120C448 71.47 408.5 32 360 32h-272C39.47 32 0 71.47 0 120v248C0 429.8 50.25 480 112 480h312c13.25 0 24-10.75 24-24s-10.75-24-24-24H112c-35.3 0-64-28.72-64-64s28.7-64 64-64h268c11.03 0 20 8.969 20 20s-8.969 20-20 20H120C106.8 344 96 354.8 96 368s10.75 24 24 24h260c37.5 0 68-30.5 68-68c0-.9121-.2344-1.762-.2695-2.666C447.8 320.9 448 320.5 448 320V120zM380 256H112c-23.82 0-45.83 7.604-64 20.33V120c0-22.06 17.94-40 40-40h272c22.06 0 40 17.94 40 40v139.3C393.6 257.4 387 256 380 256z"/></svg>