<svg xmlns="http://www.w3.org/2000/svg" viewBox="0 0 640 512"><!--! Font Awesome Pro 6.1.1 by @fontawesome - https://fontawesome.com License - https://fontawesome.com/license (Commercial License) Copyright 2022 Fonticons, Inc. --><path d="M96 328C96 341.2 106.9 352 120 352H288v-1.92C288 335.1 290.9 319.5 296 304h-176C106.9 304 96 314.8 96 328zM325.1 242.7c7.039-11.55 15.04-23.17 24-34.72H120c-26.88 0-51.84 8.928-72 24v-144c0-22.08 17.92-40 40-40h272c22.08 0 40 17.92 40 40v63.39c4.16-3.904 8.32-7.744 12.48-11.52C422.4 130.9 435.5 127 448 128.2V88C448 39.39 408.6 0 360 0h-272C39.36 0 0 39.39 0 88v240C0 394.3 53.76 448 120 448h194.2c-8.637-14.91-15.36-31.04-19.84-48H120c-39.68 0-72-32.22-72-72S80.32 256 120 256h197.4C320 251.5 322.6 247.1 325.1 242.7zM616 273.2c-15.04-28.48-35.84-58.46-60.48-81.15C549.8 186.9 541.1 186.9 535.4 192c-9.598 8.768-18.56 19.62-26.24 29.5c-17.28-20.77-35.84-39.97-55.68-57.73C448 158.8 439.4 158.8 433.9 163.7c-33.28 29.7-61.44 63.42-81.6 95.78C332.8 291.5 320 323.7 320 350.1C320 437.9 390.4 512 480 512c88.64 0 160-74.11 160-161.9C640 329.9 630.4 301.2 616 273.2zM529.9 432.1C514.9 443 498.9 448 480.1 448C435.8 448 400 419 400 369.1c0-24 15.04-44.99 45.12-81.98c3.84 4.992 61.76 79.01 61.76 79.01l36.16-42.02c2.883 4 4.801 8 7.039 12C568 369.1 560 412 529.9 432.1z"/></svg>