<svg xmlns="http://www.w3.org/2000/svg" viewBox="0 0 512 512"><!--! Font Awesome Pro 6.0.0-beta3 by @fontawesome - https://fontawesome.com License - https://fontawesome.com/license (Commercial License) Copyright 2021 Fonticons, Inc. --><path d="M488 464H24C10.75 464 0 474.8 0 488S10.75 512 24 512h464c13.25 0 24-10.75 24-24S501.3 464 488 464zM488 160H224v48h264C501.3 208 512 197.3 512 184S501.3 160 488 160zM24 160C10.75 160 0 170.8 0 184S10.75 208 24 208H144v32c0 1.471 .584 2.75 .8379 4.148C116.5 253.8 96 280.4 96 312C96 351.8 128.2 384 168 384S240 351.8 240 312c0-31.61-20.51-58.17-48.84-67.85C191.4 242.8 192 241.5 192 240v-192h296C501.3 48 512 37.25 512 24S501.3 0 488 0H24C10.75 0 0 10.75 0 24S10.75 48 24 48H144V160H24zM168 288C181.2 288 192 298.8 192 312S181.2 336 168 336S144 325.2 144 312S154.8 288 168 288zM488 320h-216.8c-1.359 17.58-6.773 33.96-15.79 48H488c13.25 0 24-10.75 24-24S501.3 320 488 320zM24 368h56.6C71.58 353.1 66.17 337.6 64.81 320H24C10.75 320 0 330.8 0 344S10.75 368 24 368z"/></svg>