<svg xmlns="http://www.w3.org/2000/svg" viewBox="0 0 448 512"><!--! Font Awesome Pro 6.0.0-beta3 by @fontawesome - https://fontawesome.com License - https://fontawesome.com/license (Commercial License) Copyright 2021 Fonticons, Inc. --><path d="M424 72C437.3 72 448 82.75 448 96C448 109.3 437.3 120 424 120H24C10.75 120 0 109.3 0 96C0 82.75 10.75 72 24 72H424zM424 232C437.3 232 448 242.7 448 256C448 269.3 437.3 280 424 280H152C138.7 280 128 269.3 128 256C128 242.7 138.7 232 152 232H424zM128 416C128 402.7 138.7 392 152 392H424C437.3 392 448 402.7 448 416C448 429.3 437.3 440 424 440H152C138.7 440 128 429.3 128 416zM0 248C0 234.7 10.75 224 24 224C37.25 224 48 234.7 48 248V424C48 437.3 37.25 448 24 448C10.75 448 0 437.3 0 424V248z"/></svg>