<svg xmlns="http://www.w3.org/2000/svg" viewBox="0 0 448 512"><!--! Font Awesome Pro 6.1.1 by @fontawesome - https://fontawesome.com License - https://fontawesome.com/license (Commercial License) Copyright 2022 Fonticons, Inc. --><path d="M200 176C191.2 176 184 183.2 184 192V200C184 213.3 173.3 224 160 224C146.7 224 136 213.3 136 200V192C136 156.7 164.7 128 200 128H258C296.7 128 328 159.3 328 197.1C328 222.5 315.1 245.3 294 257.1L248 285.6V288C248 301.3 237.3 312 224 312C210.7 312 200 301.3 200 288V272C200 263.6 204.4 255.8 211.7 251.4L269.3 216.8C275.1 212.8 280 205.7 280 197.1C280 185.8 270.2 176 258 176L200 176zM192 368C192 350.3 206.3 336 224 336C241.7 336 256 350.3 256 368C256 385.7 241.7 400 224 400C206.3 400 192 385.7 192 368zM112 120C112 133.3 101.3 144 88 144C74.75 144 64 133.3 64 120C64 106.7 74.75 96 88 96C101.3 96 112 106.7 112 120zM336 120C336 106.7 346.7 96 360 96C373.3 96 384 106.7 384 120C384 133.3 373.3 144 360 144C346.7 144 336 133.3 336 120zM112 392C112 405.3 101.3 416 88 416C74.75 416 64 405.3 64 392C64 378.7 74.75 368 88 368C101.3 368 112 378.7 112 392zM336 392C336 378.7 346.7 368 360 368C373.3 368 384 378.7 384 392C384 405.3 373.3 416 360 416C346.7 416 336 405.3 336 392zM384 32C419.3 32 448 60.65 448 96V416C448 451.3 419.3 480 384 480H64C28.65 480 0 451.3 0 416V96C0 60.65 28.65 32 64 32H384zM384 80H64C55.16 80 48 87.16 48 96V416C48 424.8 55.16 432 64 432H384C392.8 432 400 424.8 400 416V96C400 87.16 392.8 80 384 80z"/></svg>