<svg xmlns="http://www.w3.org/2000/svg" viewBox="0 0 448 512"><!--! Font Awesome Pro 6.0.0-beta3 by @fontawesome - https://fontawesome.com License - https://fontawesome.com/license (Commercial License) Copyright 2021 Fonticons, Inc. --><path d="M448 352V48C448 21.53 426.5 0 400 0h-320C35.82 0 0 35.82 0 80v352C0 476.2 35.82 512 80 512h72c13.25 0 24-10.75 24-24c0-13.26-10.75-24-24-24H80c-17.64 0-32-14.34-32-32s14.36-32 32-32h72c13.25 0 24-10.75 24-24C176 362.7 165.3 352 152 352H80c-11.38 0-22.2 2.375-32 6.688V80c0-17.67 14.33-32 32-32h320V352h-72c-13.25 0-24 10.74-24 24c0 13.25 10.75 24 24 24h40v64h-40c-13.25 0-24 10.74-24 24c0 13.25 10.75 24 24 24h96c13.25 0 24-10.75 24-24s-10.75-24-24-24H416v-66.95C434.6 390.4 448 372.8 448 352zM336.1 248.1c9.375-9.375 9.375-24.56 0-33.94l-80-80c-9.375-9.375-24.56-9.375-33.94 0l-80 80c-9.375 9.375-9.375 24.56 0 33.94s24.56 9.375 33.94 0L216 209.9V488c0 13.25 10.75 24 24 24s24-10.75 24-24V209.9l39.03 39.03C307.7 253.7 313.8 256 320 256S332.3 253.7 336.1 248.1z"/></svg>