<svg xmlns="http://www.w3.org/2000/svg" viewBox="0 0 448 512"><!--! Font Awesome Pro 6.0.0-beta3 by @fontawesome - https://fontawesome.com License - https://fontawesome.com/license (Commercial License) Copyright 2021 Fonticons, Inc. --><path d="M448 352V48C448 21.53 426.5 0 400 0h-320C35.89 0 0 35.88 0 80v352C0 476.1 35.89 512 80 512h344c13.25 0 24-10.75 24-24s-10.75-24-24-24H416v-66.95C434.6 390.4 448 372.8 448 352zM368 464h-288c-17.64 0-32-14.34-32-32s14.36-32 32-32h288V464zM400 352h-320c-11.38 0-22.2 2.375-32 6.688V80c0-17.66 14.36-32 32-32h320V352zM191.1 194.9L191.1 208c0 8.875 7.11 16 15.98 16h64c8.875 0 16-7.125 16-16V194.9c19.38-11.62 32.02-30 32.02-50.88c0-35.38-35.88-64-80-64s-80 28.62-80 64C159.1 164.9 172.6 183.3 191.1 194.9zM271.1 128c8.875 0 16.02 7.125 16.02 16S280.8 160 271.1 160s-16-7.125-16-16S263.1 128 271.1 128zM207.1 128c8.875 0 16 7.125 16 16s-7.125 16-16 16s-16-7.125-16-16S199.1 128 207.1 128zM128.8 309.1C131.1 315.8 137.3 320 144 320c1.672 0 3.375-.25 5.062-.8125L240 288.9l90.94 30.31C332.6 319.8 334.3 320 336 320c6.703 0 12.94-4.25 15.17-10.94c2.797-8.375-1.734-17.44-10.11-20.25L290.6 272l50.44-16.81c8.375-2.812 12.91-11.88 10.11-20.25C348.4 226.6 339.4 222 330.9 224.8L240 255.1L149.1 224.8C140.6 222 131.6 226.6 128.8 234.9c-2.797 8.375 1.734 17.44 10.11 20.25L189.4 272L138.9 288.8C130.6 291.6 126 300.7 128.8 309.1z"/></svg>