<svg xmlns="http://www.w3.org/2000/svg" viewBox="0 0 512 512"><!--! Font Awesome Pro 6.0.0-beta3 by @fontawesome - https://fontawesome.com License - https://fontawesome.com/license (Commercial License) Copyright 2021 Fonticons, Inc. --><path d="M414.1 263.7L352 248V144c17.75 0 32-14.25 32-32v-64C384 21.49 362.5 0 336 0h-288C21.49 0 0 21.49 0 48v418.7c0 8.373 3.418 16.55 9.322 22.49L32 512h64l32-32l32 32h64l32-32l32 32h64l32-32l32 32h64l22.63-22.67C508.6 483.3 512 475.2 512 466.7V388C512 329.2 472 278 414.1 263.7zM48 48h288V96h-288V48zM464 416h-416V144h256V192h-64C231.2 192 224 199.2 224 207.1S231.2 224 240 224h64v32h-64C231.2 256 224 263.2 224 272S231.2 288 239.1 288h74.13l89.25 22.25C439.1 319.2 464 351.1 464 387.9V416z"/></svg>