<svg xmlns="http://www.w3.org/2000/svg" viewBox="0 0 448 512"><!--! Font Awesome Pro 6.0.0-beta3 by @fontawesome - https://fontawesome.com License - https://fontawesome.com/license (Commercial License) Copyright 2021 Fonticons, Inc. --><path d="M384 448C384 430.3 398.3 416 416 416C433.7 416 448 430.3 448 448C448 465.7 433.7 480 416 480C398.3 480 384 465.7 384 448zM384 352C384 334.3 398.3 320 416 320C433.7 320 448 334.3 448 352C448 369.7 433.7 384 416 384C398.3 384 384 369.7 384 352zM0 352C0 334.3 14.33 320 32 320C49.67 320 64 334.3 64 352C64 369.7 49.67 384 32 384C14.33 384 0 369.7 0 352zM448 160C448 177.7 433.7 192 416 192C398.3 192 384 177.7 384 160C384 142.3 398.3 128 416 128C433.7 128 448 142.3 448 160zM0 160C0 142.3 14.33 128 32 128C49.67 128 64 142.3 64 160C64 177.7 49.67 192 32 192C14.33 192 0 177.7 0 160zM448 64C448 81.67 433.7 96 416 96C398.3 96 384 81.67 384 64C384 46.33 398.3 32 416 32C433.7 32 448 46.33 448 64zM64 64C64 81.67 49.67 96 32 96C14.33 96 0 81.67 0 64C0 46.33 14.33 32 32 32C49.67 32 64 46.33 64 64zM0 448C0 430.3 14.33 416 32 416C49.67 416 64 430.3 64 448C64 465.7 49.67 480 32 480C14.33 480 0 465.7 0 448zM352 64C352 81.67 337.7 96 320 96C302.3 96 288 81.67 288 64C288 46.33 302.3 32 320 32C337.7 32 352 46.33 352 64zM288 448C288 430.3 302.3 416 320 416C337.7 416 352 430.3 352 448C352 465.7 337.7 480 320 480C302.3 480 288 465.7 288 448zM160 64C160 81.67 145.7 96 128 96C110.3 96 96 81.67 96 64C96 46.33 110.3 32 128 32C145.7 32 160 46.33 160 64zM96 448C96 430.3 110.3 416 128 416C145.7 416 160 430.3 160 448C160 465.7 145.7 480 128 480C110.3 480 96 465.7 96 448zM224 480C210.7 480 200 469.3 200 456V280H24C10.75 280 0 269.3 0 256C0 242.7 10.75 232 24 232H200V56C200 42.75 210.7 32 224 32C237.3 32 248 42.75 248 56V232H424C437.3 232 448 242.7 448 256C448 269.3 437.3 280 424 280H248V456C248 469.3 237.3 480 224 480z"/></svg>