<svg xmlns="http://www.w3.org/2000/svg" viewBox="0 0 512 512"><!--! Font Awesome Pro 6.0.0-beta3 by @fontawesome - https://fontawesome.com License - https://fontawesome.com/license (Commercial License) Copyright 2021 Fonticons, Inc. --><path d="M145.7 286.9l34.01-34.08L80.11 153.4c33.88-24.5 74.38-37.88 116.9-37.88c34 0 66.75 8.5 95.75 24.38l35-34.88c-38.88-24.25-83.75-37.5-130.8-37.5c-55.38 0-107.9 18.25-151.1 51.63L38.6 111.9c-3.125-3.125-7.219-4.688-11.31-4.688s-8.188 1.563-11.31 4.688L4.708 123.3c-3.123 3.123-4.685 7.227-4.685 11.33c0 4.112 1.565 8.225 4.692 11.35L145.7 286.9zM512 15.64c0-8.961-7.497-15.64-15.72-15.64c-.9825 0-2.065 .0972-3.053 .29l-128.6 25.75c-7.885 1.529-12.61 8.417-12.61 15.47c0 3.907 1.449 7.875 4.612 10.99l34.5 34.5L140.5 337.2l-49.76-16.26C89.84 320.6 87.5 319.9 84.23 319.9c-4.147 0-9.677 1.181-14.5 6.006l-63.75 63.39C1.902 393.4 0 398.6 0 403.7c0 8.368 5.1 16.57 14.1 19.52l55.63 18.63l18.5 55.5c3 9 11.25 14.13 19.63 14.13c5.125 0 10.38-2 14.38-6L185.1 441.8c3.93-3.931 6.01-9.201 6.01-14.58c0-2.149-.3317-4.315-1.01-6.42L174.4 371.4l250.6-250.5l34.5 34.47c3.161 3.205 7.113 4.639 11.01 4.639c7.039 0 13.88-4.751 15.49-12.64l25.72-128.6C511.9 17.66 512 16.71 512 15.64zM116.2 454.9l-14.88-44.75l-44.88-14.88l33-32.88l44.75 14.88l15 44.75L116.2 454.9zM455.6 94.92l-38.63-38.63l48.25-9.625L455.6 94.92zM407.1 183.9l-35 34.88C388.2 248.1 396.1 280.9 396.1 315.3c0 42.5-13.38 82.88-37.88 116.6l-100.3-100L224.1 365.8l141.7 141.5c3.125 3.125 7.22 4.687 11.31 4.687s8.188-1.562 11.31-4.687l11.26-11.25c3.125-3.125 4.688-7.219 4.688-11.31s-1.563-8.188-4.688-11.31l-7.25-7.25c33.38-43.13 51.63-95.5 51.63-150.9C444.1 268.1 431.6 222.9 407.1 183.9z"/></svg>