<svg xmlns="http://www.w3.org/2000/svg" viewBox="0 0 576 512"><!--! Font Awesome Pro 6.1.1 by @fontawesome - https://fontawesome.com License - https://fontawesome.com/license (Commercial License) Copyright 2022 Fonticons, Inc. --><path d="M122.7 224C107.9 224 96 235.9 96 250.7C96 265.5 107.9 277.3 122.7 277.3c14.75 0 26.67-11.88 26.67-26.67C149.3 235.9 137.4 224 122.7 224zM197.3 266.7c-14.75 0-26.67 11.88-26.67 26.67S182.6 320 197.3 320C212.1 320 224 308.1 224 293.3S212.1 266.7 197.3 266.7zM197.3 178.7c-14.75 0-26.67 11.88-26.67 26.67S182.6 232 197.3 232C212.1 232 224 220.1 224 205.3S212.1 178.7 197.3 178.7zM529.3 186c0-18.47 20-43.1 20-90.99c0-62.29-42.89-94.96-85.26-95.05c-42.36 0-85.4 32.65-85.4 95.05c0 46.97 20 72.66 20 90.99c0 8.293-1.801 17.1-4.25 26.12C360.5 143.4 289.9 96 208 96C93.13 96 0 189.1 0 304S93.13 512 208 512c64.5 0 122.1-29.36 160.3-75.45C383.7 477.3 398.1 512 439.7 512h48.76C560.8 512 576 372.3 576 354C576 290.5 529.3 232.6 529.3 186zM208 464c-88.22 0-160-71.78-160-160s71.78-160 160-160s160 71.78 160 160S296.2 464 208 464zM463.9 47.86c18.71 0 37.46 15.8 37.46 47.19c0 26.54-8.686 41.75-15.62 64.98h-43.44c-6.928-23.22-15.62-38.44-15.62-64.98C426.7 63.52 445.3 47.86 463.9 47.86zM497.7 457.8C495.8 461.7 492.3 464 488.4 464h-48.76c-3.922 0-7.395-2.293-9.814-7.195c-10.66-21.57-22.98-47.63-27.62-78.84C410.1 354.1 416 330.1 416 304c0-3.875-.3711-7.652-.5801-11.47c12.08-30.12 24.35-55.83 29.21-84.5h38.73C492.2 260.2 528 308.8 528 354C528 396.2 511.6 429.6 497.7 457.8z"/></svg>