<svg xmlns="http://www.w3.org/2000/svg" viewBox="0 0 512 512"><!--! Font Awesome Pro 6.0.0-beta3 by @fontawesome - https://fontawesome.com License - https://fontawesome.com/license (Commercial License) Copyright 2021 Fonticons, Inc. --><path d="M480 192H32c-17.62 0-32 14.37-32 31.1c0 94.75 51.5 177.1 128 221.5v34.5c0 17.62 14.38 31.1 32 31.1h192c17.62 0 32-14.37 32-31.1v-34.5c76.5-44.38 128-126.7 128-221.5C512 206.4 497.6 192 480 192zM336 417.8v46.25h-160v-46.25c-67.5-39.13-120.3-87-127.4-177.8h414.8C456.4 328.9 405.4 377.6 336 417.8zM171.9 100.7C184.3 107.1 192 121.4 192 136c0 13.25 10.75 23.89 24 23.89S240 148.1 240 135.7c0-31.34-16.81-60.64-43.91-76.45C183.7 52.03 176 38.63 176 24.28c0-13.25-10.75-24.14-24-24.14S128 11.03 128 24.28C128 55.63 144.8 84.92 171.9 100.7zM283.9 100.7C296.3 107.1 304 121.4 304 136c0 13.25 10.75 23.86 24 23.86S352 148.1 352 135.7c0-31.34-16.81-60.64-43.91-76.45C295.7 52.03 288 38.63 288 24.28c0-13.25-10.75-24.18-24-24.18S240 11.03 240 24.28C240 55.63 256.8 84.92 283.9 100.7z"/></svg>