<svg xmlns="http://www.w3.org/2000/svg" viewBox="0 0 512 512"><!--! Font Awesome Pro 6.0.0-beta3 by @fontawesome - https://fontawesome.com License - https://fontawesome.com/license (Commercial License) Copyright 2021 Fonticons, Inc. --><path d="M240 176c-17.67 0-32 14.33-32 32s14.33 32 32 32s32-14.33 32-32S257.7 176 240 176zM144 144c-17.67 0-32 14.33-32 32s14.33 32 32 32s32-14.33 32-32S161.7 144 144 144zM240 80c-17.67 0-32.05 14.33-32.05 32s14.37 32 32.05 32s31.95-14.33 31.95-32S257.7 80 240 80zM256 0C114.6 0 0 114.6 0 256s114.6 256 256 256s256-114.6 256-256S397.4 0 256 0zM256 464c-114.7 0-208-93.31-208-208S141.3 48 256 48s208 93.31 208 208S370.7 464 256 464z"/></svg>