<svg xmlns="http://www.w3.org/2000/svg" viewBox="0 0 512 512"><!--! Font Awesome Pro 6.0.0-beta3 by @fontawesome - https://fontawesome.com License - https://fontawesome.com/license (Commercial License) Copyright 2021 Fonticons, Inc. --><path d="M480 192H32C14.38 192 0 206.4 0 224c0 94.75 51.5 177.1 128 221.5V480c0 17.62 14.38 32 32 32h192c17.62 0 32-14.38 32-32v-34.5C460.5 401.1 512 318.8 512 224C512 206.4 497.6 192 480 192zM359.9 403.1C345.1 412.6 336 428.4 336 445.5V464h-160v-18.5c0-17.12-9.111-32.93-23.92-41.52C92.55 369.4 53.93 307.6 48.63 240h414.7C458.1 307.6 419.4 369.4 359.9 403.1zM52.84 159.8c12.94 1.67 25.19-7.562 26.94-20.81C81.9 122.8 97.03 110.6 112.8 110.5c1.031 .1575 2.844 .2836 4.156 .3151c10.81 0 20.31-7.31 23.16-17.86C145.6 72.76 171.9 61.51 192.6 73.18c11.5 6.396 25.75 2.458 32.34-8.822c12.5-21.33 49.56-21.33 62.06 0c6.594 11.28 20.84 15.2 32.34 8.822c20.78-11.7 47.1-.4411 52.5 19.74c2.844 10.55 13.78 17.68 24.63 17.68c17.94 .1103 33.56 12.02 35.72 28.39C433.8 151.1 444.1 160 455.1 160c1.062 0 2.125-.063 3.188-.2048c13.13-1.764 22.38-13.93 20.63-27.17c-4.563-34.78-31.88-62.15-68-68.72c-17.34-32.89-58.35-51.66-96.5-40.96c-31-30.59-87.56-30.59-118.6 0C158.8 12.41 117.9 30.82 100.5 63.43C65.09 69.45 36.84 97.19 32.21 132.6C30.46 145.9 39.71 158 52.84 159.8z"/></svg>