<svg xmlns="http://www.w3.org/2000/svg" viewBox="0 0 512 512"><!--! Font Awesome Pro 6.0.0-beta3 by @fontawesome - https://fontawesome.com License - https://fontawesome.com/license (Commercial License) Copyright 2021 Fonticons, Inc. --><path d="M479.1 223.1H32c-17.62 0-32 14.39-32 32.19c0 95.69 51.5 179 127.1 223.8c0 17.67 14.33 32 32 32h191.1c17.67 0 32-14.33 32-32c76.5-44.81 127.1-128.1 127.1-223.8C511.1 238.4 497.6 223.1 479.1 223.1zM359.7 438.6c-9.928 5.816-17.27 14.89-20.99 25.42H173.3c-3.723-10.53-11.07-19.6-20.99-25.42c-59.76-35-98.48-97.83-103.7-166.6h414.8C458.2 340.8 419.5 403.6 359.7 438.6zM127 192c59.13 0 87.19-30.67 94.64-72H488C501.3 120 512 109.3 512 96s-10.75-24-24-24H221.7C214.2 30.67 186.2 0 127 0C56.88 0 0 42.98 0 96S56.88 192 127 192zM127 48C162.7 48 176 61.01 176 96S162.7 144 127 144C81.8 144 48 118.7 48 96S81.8 48 127 48z"/></svg>