<svg xmlns="http://www.w3.org/2000/svg" viewBox="0 0 256 512"><!--! Font Awesome Pro 6.1.1 by @fontawesome - https://fontawesome.com License - https://fontawesome.com/license (Commercial License) Copyright 2022 Fonticons, Inc. --><path d="M200 32H120C89.07 32 64 57.07 64 88v77.5c0 10.56-4.197 20.7-11.67 28.17L7 239C2.5 243.5 0 249.6 0 256c0 6.375 2.5 12.5 7 17l45.33 45.33C59.8 325.8 64 335.9 64 346.5V424C64 454.9 89.07 480 120 480h80C213.3 480 224 469.3 224 456S213.3 432 200 432H120c-4.4 0-8-3.6-8-8v-77.5c0-23.44-9.337-45.91-25.95-62.45L57.88 256l28.18-28.05C102.7 211.4 112 188.9 112 165.5V88c0-4.4 3.6-8 8-8h80C213.3 80 224 69.25 224 56S213.3 32 200 32z"/></svg>