<svg xmlns="http://www.w3.org/2000/svg" viewBox="0 0 640 512"><!--! Font Awesome Pro 6.1.1 by @fontawesome - https://fontawesome.com License - https://fontawesome.com/license (Commercial License) Copyright 2022 Fonticons, Inc. --><path d="M128 96C128 131.3 99.35 160 64 160C28.65 160 0 131.3 0 96C0 60.65 28.65 32 64 32C99.35 32 128 60.65 128 96zM160 256C160 220.7 188.7 192 224 192C259.3 192 288 220.7 288 256C288 291.3 259.3 320 224 320C188.7 320 160 291.3 160 256zM224 280C237.3 280 248 269.3 248 256C248 242.7 237.3 232 224 232C210.7 232 200 242.7 200 256C200 269.3 210.7 280 224 280zM128 416C128 451.3 99.35 480 64 480C28.65 480 0 451.3 0 416C0 380.7 28.65 352 64 352C99.35 352 128 380.7 128 416zM64 392C50.75 392 40 402.7 40 416C40 429.3 50.75 440 64 440C77.25 440 88 429.3 88 416C88 402.7 77.25 392 64 392zM288 416C288 451.3 259.3 480 224 480C188.7 480 160 451.3 160 416C160 380.7 188.7 352 224 352C259.3 352 288 380.7 288 416zM224 392C210.7 392 200 402.7 200 416C200 429.3 210.7 440 224 440C237.3 440 248 429.3 248 416C248 402.7 237.3 392 224 392zM0 256C0 220.7 28.65 192 64 192C99.35 192 128 220.7 128 256C128 291.3 99.35 320 64 320C28.65 320 0 291.3 0 256zM160 96C160 60.65 188.7 32 224 32C259.3 32 288 60.65 288 96C288 131.3 259.3 160 224 160C188.7 160 160 131.3 160 96zM480 96C480 131.3 451.3 160 416 160C380.7 160 352 131.3 352 96C352 60.65 380.7 32 416 32C451.3 32 480 60.65 480 96zM640 96C640 131.3 611.3 160 576 160C540.7 160 512 131.3 512 96C512 60.65 540.7 32 576 32C611.3 32 640 60.65 640 96zM576 72C562.7 72 552 82.75 552 96C552 109.3 562.7 120 576 120C589.3 120 600 109.3 600 96C600 82.75 589.3 72 576 72zM512 256C512 220.7 540.7 192 576 192C611.3 192 640 220.7 640 256C640 291.3 611.3 320 576 320C540.7 320 512 291.3 512 256zM576 280C589.3 280 600 269.3 600 256C600 242.7 589.3 232 576 232C562.7 232 552 242.7 552 256C552 269.3 562.7 280 576 280zM640 416C640 451.3 611.3 480 576 480C540.7 480 512 451.3 512 416C512 380.7 540.7 352 576 352C611.3 352 640 380.7 640 416zM576 392C562.7 392 552 402.7 552 416C552 429.3 562.7 440 576 440C589.3 440 600 429.3 600 416C600 402.7 589.3 392 576 392zM352 256C352 220.7 380.7 192 416 192C451.3 192 480 220.7 480 256C480 291.3 451.3 320 416 320C380.7 320 352 291.3 352 256zM416 280C429.3 280 440 269.3 440 256C440 242.7 429.3 232 416 232C402.7 232 392 242.7 392 256C392 269.3 402.7 280 416 280zM480 416C480 451.3 451.3 480 416 480C380.7 480 352 451.3 352 416C352 380.7 380.7 352 416 352C451.3 352 480 380.7 480 416zM416 392C402.7 392 392 402.7 392 416C392 429.3 402.7 440 416 440C429.3 440 440 429.3 440 416C440 402.7 429.3 392 416 392z"/></svg>