<svg xmlns="http://www.w3.org/2000/svg" viewBox="0 0 640 512"><!--! Font Awesome Pro 6.1.1 by @fontawesome - https://fontawesome.com License - https://fontawesome.com/license (Commercial License) Copyright 2022 Fonticons, Inc. --><path d="M576 32C589.3 32 600 42.75 600 56C600 69.25 589.3 80 576 80H536V144H584C597.3 144 608 154.7 608 168C608 181.3 597.3 192 584 192H56C42.75 192 32 181.3 32 168C32 154.7 42.75 144 56 144H104V80H56C42.75 80 32 69.25 32 56C32 42.75 42.75 32 56 32H576zM488 80H408V144H488V80zM280 80V144H360V80H280zM232 80H152V144H232V80zM336 288H304C273.1 288 248 313.1 248 344V440C248 462.1 230.1 480 208 480H144C121.9 480 104 462.1 104 440V336C104 309.5 82.51 288 56 288C42.75 288 32 277.3 32 264C32 250.7 42.75 240 56 240C109 240 152 282.1 152 336V432H200V344C200 286.6 246.6 240 304 240H336C347.8 240 359 241.9 369.6 245.5C357.4 258.1 347.2 272.4 339.1 288.1C338.1 288 337.1 287.1 336 287.1V288zM640 368C640 447.5 575.5 512 496 512C416.5 512 352 447.5 352 368C352 288.5 416.5 224 496 224C575.5 224 640 288.5 640 368zM480 385.4L451.3 356.7C445.1 350.4 434.9 350.4 428.7 356.7C422.4 362.9 422.4 373.1 428.7 379.3L468.7 419.3C474.9 425.6 485.1 425.6 491.3 419.3L563.3 347.3C569.6 341.1 569.6 330.9 563.3 324.7C557.1 318.4 546.9 318.4 540.7 324.7L480 385.4z"/></svg>