<svg xmlns="http://www.w3.org/2000/svg" viewBox="0 0 512 512"><!--! Font Awesome Pro 6.0.0-beta3 by @fontawesome - https://fontawesome.com License - https://fontawesome.com/license (Commercial License) Copyright 2021 Fonticons, Inc. --><path d="M488 232h-64c-13.25 0-24 10.74-24 24c0 13.25 10.75 24 24 24h64C501.3 280 512 269.3 512 256C512 242.7 501.3 232 488 232zM112 256c0-13.26-10.75-24-24-24h-64C10.75 232 0 242.7 0 256c0 13.25 10.75 24 24 24h64C101.3 280 112 269.3 112 256zM391.8 357.8c-9.371-9.371-24.57-9.371-33.94 .0023s-9.368 24.57 .0047 33.94l45.25 45.26c9.371 9.371 24.57 9.37 33.95-.0016c9.373-9.373 9.366-24.57-.0047-33.94L391.8 357.8zM120.2 154.2c9.371 9.373 24.57 9.371 33.94-.0016c9.375-9.373 9.368-24.57-.0047-33.94L108.9 74.98C99.55 65.61 84.35 65.61 74.98 74.98C65.6 84.35 65.61 99.55 74.98 108.9L120.2 154.2zM120.2 357.8l-45.26 45.26c-9.371 9.371-9.376 24.57-.0047 33.94c9.373 9.373 24.57 9.373 33.95 .0016l45.25-45.26c9.373-9.371 9.38-24.57 .0047-33.94C144.8 348.5 129.6 348.5 120.2 357.8zM391.8 154.2l45.26-45.25c9.371-9.373 9.378-24.57 .0047-33.94s-24.58-9.375-33.95-.0016l-45.25 45.25c-9.373 9.373-9.378 24.57-.0047 33.94C367.2 163.5 382.4 163.5 391.8 154.2zM256 400c-13.25 0-24 10.75-24 24v64C232 501.3 242.7 512 256 512c13.26 0 24-10.75 24-24v-64C280 410.7 269.3 400 256 400zM256 112c13.26 0 24-10.75 24-24v-64C280 10.75 269.3 0 256 0C242.7 0 232 10.75 232 24v64C232 101.3 242.7 112 256 112zM256 160C202.1 160 160 202.1 160 256c0 53.02 42.98 96 96 96s96-42.98 96-96C352 202.1 309 160 256 160zM256 304C229.5 304 208 282.5 208 256S229.5 208 256 208s48 21.53 48 48S282.5 304 256 304z"/></svg>