<svg xmlns="http://www.w3.org/2000/svg" viewBox="0 0 448 512"><!--! Font Awesome Pro 6.0.0-beta3 by @fontawesome - https://fontawesome.com License - https://fontawesome.com/license (Commercial License) Copyright 2021 Fonticons, Inc. --><path d="M329.4 361.4c-12.5 12.5-12.51 32.75 0 45.26c12.51 12.51 32.76 12.5 45.25 0s12.51-32.75 0-45.26C362.1 348.9 341.9 348.9 329.4 361.4zM224 112c17.67 0 32-14.31 32-32s-14.33-32-32-32s-32 14.31-32 32S206.3 112 224 112zM374.6 150.6c12.51-12.51 12.5-32.76 0-45.25s-32.75-12.51-45.25 0c-12.51 12.51-12.5 32.76 0 45.25C341.9 163.1 362.1 163.1 374.6 150.6zM80 256c0-17.67-14.31-32-32-32s-32 14.33-32 32s14.31 32 32 32S80 273.7 80 256zM118.6 150.6c12.5-12.5 12.51-32.75 0-45.25c-12.51-12.51-32.76-12.5-45.25 0s-12.51 32.75 0 45.25C85.88 163.1 106.1 163.1 118.6 150.6zM400 224c-17.69 0-32 14.33-32 32s14.31 32 32 32s32-14.33 32-32S417.7 224 400 224zM73.37 361.4c-12.51 12.51-12.5 32.76 0 45.26s32.75 12.51 45.25 0c12.51-12.51 12.5-32.76 0-45.26C106.1 348.9 85.88 348.9 73.37 361.4zM224 400c-17.67 0-32 14.31-32 32s14.33 32 32 32s32-14.31 32-32S241.7 400 224 400zM224 160C170.1 160 128 202.1 128 256c0 53.02 42.98 96 96 96s96-42.98 96-96C320 202.1 277 160 224 160zM224 304C197.5 304 176 282.5 176 256S197.5 208 224 208s48 21.53 48 48S250.5 304 224 304z"/></svg>