<svg xmlns="http://www.w3.org/2000/svg" viewBox="0 0 512 512"><!--! Font Awesome Pro 6.1.1 by @fontawesome - https://fontawesome.com License - https://fontawesome.com/license (Commercial License) Copyright 2022 Fonticons, Inc. --><path d="M232 24C232 10.75 242.7 0 256 0C269.3 0 280 10.75 280 24V88C280 101.3 269.3 112 256 112C242.7 112 232 101.3 232 88V24zM160 256C160 202.1 202.1 160 256 160C309 160 352 202.1 352 256C352 309 309 352 256 352C202.1 352 160 309 160 256zM256 304C282.5 304 304 282.5 304 256C304 229.5 282.5 208 256 208C229.5 208 208 229.5 208 256C208 282.5 229.5 304 256 304zM0 256C0 242.7 10.75 232 24 232H88C101.3 232 112 242.7 112 256C112 269.3 101.3 280 88 280H24C10.75 280 0 269.3 0 256zM488 232C501.3 232 512 242.7 512 256C512 269.3 501.3 280 488 280H424C410.7 280 400 269.3 400 256C400 242.7 410.7 232 424 232H488zM256 512C242.7 512 232 501.3 232 488V424C232 410.7 242.7 400 256 400C269.3 400 280 410.7 280 424V488C280 501.3 269.3 512 256 512zM74.98 74.98C84.35 65.61 99.55 65.61 108.9 74.98L154.2 120.2C163.5 129.6 163.5 144.8 154.2 154.2C144.8 163.5 129.6 163.5 120.2 154.2L74.98 108.9C65.61 99.55 65.61 84.35 74.98 74.98V74.98zM437 403.1C446.4 412.4 446.4 427.6 437 437C427.6 446.4 412.4 446.4 403.1 437L357.8 391.8C348.5 382.4 348.5 367.2 357.8 357.8C367.2 348.5 382.4 348.5 391.8 357.8L437 403.1zM74.98 437C65.61 427.6 65.61 412.5 74.98 403.1L120.2 357.8C129.6 348.5 144.8 348.5 154.2 357.8C163.5 367.2 163.5 382.4 154.2 391.8L108.9 437C99.55 446.4 84.35 446.4 74.98 437zM403.1 74.98C412.4 65.61 427.6 65.61 437 74.98C446.4 84.35 446.4 99.55 437 108.9L391.8 154.2C382.4 163.6 367.2 163.6 357.8 154.2C348.5 144.8 348.5 129.6 357.8 120.2L403.1 74.98z"/></svg>