<svg xmlns="http://www.w3.org/2000/svg" viewBox="0 0 640 512"><!--! Font Awesome Pro 6.0.0-beta3 by @fontawesome - https://fontawesome.com License - https://fontawesome.com/license (Commercial License) Copyright 2021 Fonticons, Inc. --><path d="M480 352V160c0-35.35-28.65-64-64-64H224C188.7 96 160 124.7 160 160v192c0 35.35 28.65 64 64 64h192C451.3 416 480 387.3 480 352zM48 48h160V64H256V48C256 21.6 234.4 0 208 0h-160C21.6 0 0 21.6 0 48v160C0 234.4 21.6 256 48 256H128V208H48V48zM592 256H512v48h80v160h-160V448H384v16c0 26.4 21.6 48 48 48h160c26.4 0 48-21.6 48-48v-160C640 277.6 618.4 256 592 256z"/></svg>