<svg xmlns="http://www.w3.org/2000/svg" viewBox="0 0 640 512"><!--! Font Awesome Pro 6.0.0-beta3 by @fontawesome - https://fontawesome.com License - https://fontawesome.com/license (Commercial License) Copyright 2021 Fonticons, Inc. --><path d="M512 319.8c-52.86 0-95.98 42.1-95.98 95.75s43.12 95.75 95.98 95.75c52.87 0 95.98-42.1 95.98-95.75S564.9 319.8 512 319.8zM512 463.5c-26.49 0-47.99-21.5-47.99-47.87c0-26.37 21.5-47.87 47.99-47.87c26.49 0 47.99 21.5 47.99 47.87C560 442 538.4 463.5 512 463.5zM640 23.1C640 11.22 629.7 0 615.1 0c-5.162 0-10.36 1.666-14.74 5.115L368.1 187.3l-39.39-49.48c-2.424-2.984-5.899-4.484-9.381-4.484c-3.517 0-7.04 1.531-9.49 4.609l-57.61 73.12C221.1 211.8 148.2 217.6 100.2 255.8C38.24 305 0 511.3 0 511.3C3.767 511.4 18.84 512 40.27 512c64.59 0 186.1-5.08 231.9-40.74c47.62-37.1 69.99-107.5 77.73-137.6l84.23-39.5c4.446-2.144 6.925-6.557 6.925-11.03c0-2.569-.8177-5.157-2.55-7.346l-40.57-50.96l232.8-181.9C636.8 38.2 640 31.13 640 23.1zM59.49 463.9c4.748-19.12 10.12-38.12 15.75-56.37l45.37-35.1c1.599-1.24 2.291-2.901 2.291-4.547c0-3.133-2.504-6.209-6.017-6.209c-.411 0-.8357 .0421-1.272 .1311l-26.12 5.5C110.1 312.1 123.9 267.1 239.8 259.5l59.86 74.1C269.4 435.3 238.1 461.2 59.49 463.9zM369.1 267.7c0 2.224-1.212 4.42-3.418 5.523l-35.49 16.5L290.4 239.9l24.25-30.75c1.2-1.515 2.973-2.297 4.74-2.297c1.732 0 3.458 .7505 4.633 2.297L367.8 264C368.7 265.1 369.1 266.4 369.1 267.7z"/></svg>