<svg xmlns="http://www.w3.org/2000/svg" viewBox="0 0 640 512"><!--! Font Awesome Pro 6.0.0-beta3 by @fontawesome - https://fontawesome.com License - https://fontawesome.com/license (Commercial License) Copyright 2021 Fonticons, Inc. --><path d="M634.9 9.24c-8.172-10.44-23.25-12.34-33.69-4.125L368.1 187.3l-39.39-49.48C323.8 131.8 314.7 131.8 309.8 137.9l-57.61 73.12C221.1 211.8 148.2 217.6 100.2 255.8C38.24 305 0 511.3 0 511.3c15.12 .75 212.3 7.5 272.2-39.1c47.62-37.1 69.99-107.5 77.73-137.6l84.23-39.5c6.1-3.375 9.123-12.37 4.375-18.37l-40.57-50.96l232.8-181.9C641.2 34.77 643.1 19.68 634.9 9.24zM242.2 433.8c-16.5 13.12-74.23 28.5-182.7 30.12c4.748-19.12 10.12-38.12 15.75-56.37l45.37-35.1c4.1-3.875 1.125-11.87-4.998-10.62l-26.12 5.5c13.37-35.25 27.74-62.1 40.74-73.37c26.99-21.5 71.24-30.1 109.6-33.5l59.86 74.1C290.3 365.8 271.7 410.4 242.2 433.8zM365.7 273.3l-35.49 16.5L290.4 239.9l24.25-30.75c2.375-2.1 6.998-3.125 9.373 0L367.8 264C370.2 267 369.2 271.5 365.7 273.3z"/></svg>