<svg xmlns="http://www.w3.org/2000/svg" viewBox="0 0 384 512"><!--! Font Awesome Pro 6.1.1 by @fontawesome - https://fontawesome.com License - https://fontawesome.com/license (Commercial License) Copyright 2022 Fonticons, Inc. --><path d="M0 64C0 28.65 28.65 0 64 0H320C355.3 0 384 28.65 384 64V320C384 355.3 355.3 384 320 384H256V448C256 483.3 227.3 512 192 512C156.7 512 128 483.3 128 448V384H64C28.65 384 0 355.3 0 320V64zM336 288V64C336 55.16 328.8 48 320 48H224V112C224 120.8 216.8 128 208 128C199.2 128 192 120.8 192 112V48H128V144C128 152.8 120.8 160 112 160C103.2 160 96 152.8 96 144V48H64C55.16 48 48 55.16 48 64V288H336zM192 464C200.8 464 208 456.8 208 448C208 439.2 200.8 432 192 432C183.2 432 176 439.2 176 448C176 456.8 183.2 464 192 464z"/></svg>