<svg xmlns="http://www.w3.org/2000/svg" viewBox="0 0 640 512"><!--! Font Awesome Pro 6.1.1 by @fontawesome - https://fontawesome.com License - https://fontawesome.com/license (Commercial License) Copyright 2022 Fonticons, Inc. --><path d="M239.1 162.8C247.7 160.1 255.7 160 264 160H376C396 160 414.7 165.7 430.6 175.5L503 103C512.4 93.66 527.6 93.66 536.1 103C546.3 112.4 546.3 127.6 536.1 136.1L464.5 209.4C474.3 225.3 480 243.1 480 264H552C565.3 264 576 274.7 576 288C576 301.3 565.3 312 552 312H480V320C480 329.9 479.1 339.5 477.4 348.9L630.8 469.1C641.2 477.3 643.1 492.4 634.9 502.8C626.7 513.2 611.6 515.1 601.2 506.9L9.196 42.89C-1.236 34.71-3.065 19.63 5.112 9.196C13.29-1.236 28.37-3.065 38.81 5.112L239.1 162.8zM297.7 208L432 313.3V264C432 233.1 406.9 208 376 208H297.7zM416 96V99.56C416 115.3 403.3 128 387.6 128H252.4C236.7 128 224 115.3 224 99.56V96C224 42.98 266.1 .001 320 .001C373 .001 416 42.98 416 96V96zM160 264C160 251.1 162.4 238.7 166.7 227.3L208.1 259.1C208 261.3 208 262.7 208 264V320C208 373.6 245.7 418.4 296 429.4V329.2L344 367V429.4C362.3 425.4 378.8 417 392.6 405.3L430.8 435.4C402.1 463 363 480 320 480C276.3 480 236.7 462.5 207.8 434.1L136.1 504.1C127.6 514.3 112.4 514.3 103 504.1C93.66 495.6 93.66 480.4 103 471L178.8 395.3C166.8 372.8 160 347.2 160 320V312H88C74.75 312 64 301.3 64 288C64 274.7 74.75 264 88 264H160z"/></svg>