<svg xmlns="http://www.w3.org/2000/svg" viewBox="0 0 576 512"><!--! Font Awesome Pro 6.1.1 by @fontawesome - https://fontawesome.com License - https://fontawesome.com/license (Commercial License) Copyright 2022 Fonticons, Inc. --><path d="M47.1 64V448C47.1 456.8 55.16 464 63.1 464H143.1V400C143.1 373.5 165.5 352 191.1 352C218.5 352 239.1 373.5 239.1 400V464H310.7C321.7 478.4 334.8 492.1 350.2 504.4C341.2 509.3 330.9 512 320 512H64C28.65 512 0 483.3 0 448V64C0 28.65 28.65 0 64 0H320C355.3 0 384 28.65 384 64V207L336 226.2V64C336 55.16 328.8 48 320 48H64C55.16 48 48 55.16 48 64H47.1zM296 232V242.2L291.2 244.2C269.1 252.6 256.1 273.2 256 295.1H231.1C223.2 295.1 215.1 288.8 215.1 279.1V231.1C215.1 223.2 223.2 215.1 231.1 215.1H279.1C288.8 215.1 296 223.2 296 231.1V232zM87.1 104C87.1 95.16 95.16 88 103.1 88H151.1C160.8 88 167.1 95.16 167.1 104V152C167.1 160.8 160.8 168 151.1 168H103.1C95.16 168 87.1 160.8 87.1 152V104zM279.1 88C288.8 88 296 95.16 296 104V152C296 160.8 288.8 168 279.1 168H231.1C223.2 168 215.1 160.8 215.1 152V104C215.1 95.16 223.2 88 231.1 88H279.1zM87.1 232C87.1 223.2 95.16 216 103.1 216H151.1C160.8 216 167.1 223.2 167.1 232V280C167.1 288.8 160.8 296 151.1 296H103.1C95.16 296 87.1 288.8 87.1 280V232zM423.1 225.7C428.8 223.4 435.2 223.4 440.9 225.7L560.9 273.7C570 277.4 576 286.2 576 296C576 359.3 550.1 464.8 441.2 510.2C435.3 512.6 428.7 512.6 422.8 510.2C313.9 464.8 288 359.3 288 296C288 286.2 293.1 277.4 303.1 273.7L423.1 225.7zM432 273.8V461.7C500.2 428.7 523.4 362.7 527.4 311.1L432 273.8z"/></svg>