<svg xmlns="http://www.w3.org/2000/svg" viewBox="0 0 640 512"><!--! Font Awesome Pro 6.1.1 by @fontawesome - https://fontawesome.com License - https://fontawesome.com/license (Commercial License) Copyright 2022 Fonticons, Inc. --><path d="M48 64V448C48 456.8 55.16 464 64 464H144V400C144 373.5 165.5 352 192 352C218.5 352 240 373.5 240 400V464H320C328.8 464 336 456.8 336 448V441.4C344.2 459.3 355.3 475.5 368.7 489.5C356.1 503.3 339.5 512 320 512H64C28.65 512 0 483.3 0 448V64C0 28.65 28.65 0 64 0H320C355.3 0 384 28.65 384 64V232.2C363.7 249 347.1 270.3 336 294.6V64C336 55.16 328.8 48 320 48H64C55.16 48 48 55.16 48 64zM88 104C88 95.16 95.16 88 104 88H152C160.8 88 168 95.16 168 104V152C168 160.8 160.8 168 152 168H104C95.16 168 88 160.8 88 152V104zM280 88C288.8 88 296 95.16 296 104V152C296 160.8 288.8 168 280 168H232C223.2 168 216 160.8 216 152V104C216 95.16 223.2 88 232 88H280zM88 232C88 223.2 95.16 216 104 216H152C160.8 216 168 223.2 168 232V280C168 288.8 160.8 296 152 296H104C95.16 296 88 288.8 88 280V232zM280 216C288.8 216 296 223.2 296 232V280C296 288.8 288.8 296 280 296H232C223.2 296 216 288.8 216 280V232C216 223.2 223.2 216 232 216H280zM352 368C352 288.5 416.5 224 496 224C575.5 224 640 288.5 640 368C640 447.5 575.5 512 496 512C416.5 512 352 447.5 352 368zM555.3 331.3C561.6 325.1 561.6 314.9 555.3 308.7C549.1 302.4 538.9 302.4 532.7 308.7L496 345.4L459.3 308.7C453.1 302.4 442.9 302.4 436.7 308.7C430.4 314.9 430.4 325.1 436.7 331.3L473.4 368L436.7 404.7C430.4 410.9 430.4 421.1 436.7 427.3C442.9 433.6 453.1 433.6 459.3 427.3L496 390.6L532.7 427.3C538.9 433.6 549.1 433.6 555.3 427.3C561.6 421.1 561.6 410.9 555.3 404.7L518.6 368L555.3 331.3z"/></svg>