<svg xmlns="http://www.w3.org/2000/svg" viewBox="0 0 640 512"><!--! Font Awesome Pro 6.1.1 by @fontawesome - https://fontawesome.com License - https://fontawesome.com/license (Commercial License) Copyright 2022 Fonticons, Inc. --><path d="M238.3 464C244.2 482.2 254.6 498.7 268.4 512H96C87.89 512 80.07 508.1 74.13 503.4C68.19 497.9 64.57 490.3 64 482.2L33.6 176H24C17.63 176 11.53 173.5 7.029 168.1C2.529 164.5 0 158.4 0 152C0 145.6 2.529 139.5 7.029 135C11.53 130.5 17.63 128 24 128H157.2L181.8 30.24C183.9 21.6 188.9 13.93 195.9 8.452C202.1 2.972 211.6-.0026 220.5 0H264C270.4 0 276.5 2.529 280.1 7.029C285.5 11.53 288 17.63 288 24C288 30.37 285.5 36.47 280.1 40.97C276.5 45.47 270.4 48 264 48H226.8L206.8 128H328.1C334.5 128 340.6 130.5 345.1 135C349.6 139.5 352.1 145.6 352.1 152C352.1 158.4 349.6 164.5 345.1 168.1C340.6 173.5 334.5 176 328.1 176H81.7L110.5 464H238.3zM516.7 275.3C513.7 272.3 512 268.2 512 264C512 260.8 512.9 257.7 514.7 255.1C516.5 252.5 518.1 250.4 521.9 249.2C524.8 248 528 247.7 531.1 248.3C534.2 248.9 537.1 250.4 539.3 252.7C541.6 254.9 543.1 257.8 543.7 260.9C544.3 263.1 543.1 267.2 542.8 270.1C541.6 273 539.5 275.5 536.9 277.3C534.3 279.1 531.2 280 528 280C523.8 280 519.7 278.3 516.7 275.3H516.7zM436.7 259.3C433.7 256.3 432 252.2 432 248C432 244.8 432.9 241.7 434.7 239.1C436.5 236.5 438.1 234.4 441.9 233.2C444.8 232 448 231.7 451.1 232.3C454.2 232.9 457.1 234.4 459.3 236.7C461.6 238.9 463.1 241.8 463.7 244.9C464.3 247.1 463.1 251.2 462.8 254.1C461.6 257 459.5 259.5 456.9 261.3C454.3 263.1 451.2 264 448 264C443.8 264 439.7 262.3 436.7 259.3zM356.7 275.3C353.7 272.3 352 268.2 352 264C352 260.8 352.9 257.7 354.7 255.1C356.5 252.5 358.1 250.4 361.9 249.2C364.8 248 368 247.7 371.1 248.3C374.2 248.9 377.1 250.4 379.3 252.7C381.6 254.9 383.1 257.8 383.7 260.9C384.3 263.1 383.1 267.2 382.8 270.1C381.6 273 379.5 275.5 376.9 277.3C374.3 279.1 371.2 280 368 280C363.8 280 359.7 278.3 356.7 275.3zM636.7 391.8C634.5 396.7 631.3 401.2 627.4 404.9C630.4 412.2 631.1 420.1 632 428C631.1 450.3 623.1 471.6 607.4 487.4C591.6 503.1 570.3 511.1 548 512H348C325.8 511.9 304.4 503.1 288.7 487.3C272.1 471.6 264.2 450.2 264.2 428C264.2 420.1 265.8 412.2 268.8 404.9C264.5 400.1 261.2 396.2 259 390.9C256.8 385.5 255.8 379.8 256.1 374C256.4 368.3 258 362.7 260.8 357.6C263.5 352.5 267.3 348.1 271.1 344.7C265.1 333.1 263.3 319.1 264.2 306.9C265.1 293.8 269.6 281.2 277.1 270.5C297.6 245.1 323.7 224.8 353.4 211.2C382.1 197.6 415.4 191 448 192C480.6 190.1 513 197.6 542.7 211.2C572.3 224.8 598.4 245.1 618.9 270.5C626.4 281.2 630.9 293.8 631.8 306.9C632.7 319.1 630 333.1 624 344.7C628.9 348.4 632.9 353.1 635.7 358.5C638.4 363.9 639.9 369.9 640 376C640 381.4 638.9 386.8 636.7 391.8H636.7zM316.4 297.1C313.8 301.6 312.3 305.8 311.1 310.2C311.7 314.6 312.6 319 314.6 322.1C316.6 326.9 319.7 330.2 323.5 332.5C327.2 334.8 331.6 336 336 336H559.9C564.3 336 568.6 334.8 572.4 332.5C576.2 330.2 579.3 326.9 581.3 323C583.3 319.1 584.2 314.7 583.9 310.3C583.6 305.9 582.2 301.6 579.6 297.1C563.6 278.9 543.4 263.8 520.5 253.7C497.7 243.7 472.9 238.1 448 240C423.1 238.1 398.3 243.7 375.5 253.7C352.7 263.8 332.5 278.9 316.5 297.1H316.4zM573.5 453.5C580.2 446.7 584 437.5 584 428C584 424.8 582.7 421.8 580.5 419.5C578.2 417.3 575.2 416 572 416H324C320.8 416 317.8 417.3 315.5 419.5C313.3 421.8 312 424.8 312 428C312 437.5 315.8 446.7 322.5 453.5C329.3 460.2 338.5 464 348 464H548C557.5 464 566.7 460.2 573.5 453.5z"/></svg>