<svg xmlns="http://www.w3.org/2000/svg" viewBox="0 0 512 512"><!--! Font Awesome Pro 6.0.0-beta3 by @fontawesome - https://fontawesome.com License - https://fontawesome.com/license (Commercial License) Copyright 2021 Fonticons, Inc. --><path d="M511.1 123c0-32.5-21.25-61.13-52.25-70.76c-6.25-20.38-21.05-37-40.55-45.75c-19.5-8.75-41.75-8.625-61.13 .25c-40.75-17.88-88.22 .7671-105.1 41.52L33.94 266.6c-45.25 45.25-45.25 118.8 0 164l47.5 47.5c45.25 45.25 118.7 45.25 163.9-.0011l218.3-218.1c40.75-17.75 59.39-65.26 41.52-106C509.7 144.3 511.1 133.7 511.1 123zM163.4 464.1c-18 0-35.38-7.125-48-19.88l-47.63-47.63c-8.125-8.25-14-18.38-17-29.63c19.75 6 40.38 9 61.13 9.125c92.13 0 170.8-58.13 201.8-139.5c32.88-7.5 67.13-5 98.63 6.875l-200.8 200.8C198.8 456.9 181.6 464.1 163.4 464.1zM268.3 99.92c7.625 19.13 11.5 39.5 11.63 60.13c0 92.63-75.38 168-168 168c-19.25-.125-38.38-3.5-56.5-10.13c3.25-6.375 7.375-12.38 12.38-17.5L268.3 99.92z"/></svg>