<svg xmlns="http://www.w3.org/2000/svg" viewBox="0 0 512 512"><!--! Font Awesome Pro 6.1.1 by @fontawesome - https://fontawesome.com License - https://fontawesome.com/license (Commercial License) Copyright 2022 Fonticons, Inc. --><path d="M256 32C256 14.33 270.3 0 288 0C305.7 0 320 14.33 320 32C320 49.67 305.7 64 288 64C270.3 64 256 49.67 256 32zM224 56C224 73.67 209.7 88 192 88C174.3 88 160 73.67 160 56C160 38.33 174.3 24 192 24C209.7 24 224 38.33 224 56zM232 224V157.5L28.86 199.5C15.88 202.2 3.183 193.8 .4976 180.9C-2.188 167.9 6.157 155.2 19.14 152.5L483.1 56.5C496.1 53.81 508.8 62.16 511.5 75.14C514.2 88.12 505.8 100.8 492.9 103.5L280 147.5V224H416C451.3 224 480 252.7 480 288V448C480 483.3 451.3 512 416 512H96C60.65 512 32 483.3 32 448V288C32 252.7 60.65 224 96 224L232 224zM432 288C432 279.2 424.8 272 416 272H352V352H432V288zM432 400H80V448C80 456.8 87.16 464 96 464H416C424.8 464 432 456.8 432 448V400zM80 352H160V272H96C87.16 272 80 279.2 80 288V352zM208 272V352H304V272H208z"/></svg>