<svg xmlns="http://www.w3.org/2000/svg" viewBox="0 0 512 512"><!--! Font Awesome Pro 6.1.1 by @fontawesome - https://fontawesome.com License - https://fontawesome.com/license (Commercial License) Copyright 2022 Fonticons, Inc. --><path d="M240 130c-8.875 0-16 7.125-16 16c0 8.75 7.125 16 16 16s16-7.25 16-16C256 137.1 248.9 130 240 130zM272 354c-8.875 0-16 7.125-16 16c0 8.75 7.125 16 16 16s16-7.25 16-16C288 361.1 280.9 354 272 354zM464 224c-26.5 0-48 21.5-48 47.1v63.1c0 8.875-7.125 15.1-16 15.1H352V101.4c0-52-38.88-98.5-90.88-101.2C259.4 .0047 257.8 0 256.1 0C203.1 0 160 43 160 96v127.1L112 224c-8.875 0-16-7.125-16-15.1V144c0-26.5-21.5-47.1-48-47.1S0 117.5 0 144v63.1c0 61.88 50.12 111.1 112 111.1H160v159.1C160 497.6 174.4 512 192 512h128c17.62 0 32-14.37 32-31.1v-31.1h48c61.88 0 112-50.12 112-111.1V272C512 245.5 490.5 224 464 224zM304 464h-96V96c0-26.5 21.5-48 48-48l2.625 .125C283.6 49.38 304 73.38 304 101.4V464z"/></svg>