<svg xmlns="http://www.w3.org/2000/svg" viewBox="0 0 512 512"><!--! Font Awesome Pro 6.1.1 by @fontawesome - https://fontawesome.com License - https://fontawesome.com/license (Commercial License) Copyright 2022 Fonticons, Inc. --><path d="M450.6 101.7C490 143.4 512 198.6 512 256V416C511.9 432.1 505.2 449.2 493.2 461.2C481.2 473.2 464.1 479.1 448 480H64C47.04 479.1 30.79 473.2 18.8 461.2C6.81 449.2 .0506 432.1 0 416V271.6C.0064 266.8 1.122 261.1 3.262 257.6C5.403 253.2 8.511 249.4 12.35 246.4L278.8 39.01C284.7 34.22 292.2 31.74 299.9 32C357.2 35.12 411.1 60.07 450.6 101.7zM464 384H48V416C48 420.2 49.69 424.3 52.69 427.3C55.69 430.3 59.76 432 64 432H448C452.2 432 456.3 430.3 459.3 427.3C462.3 424.3 464 420.2 464 416V384zM464 304H48V352H464V304z"/></svg>