<svg xmlns="http://www.w3.org/2000/svg" viewBox="0 0 576 512"><!--! Font Awesome Pro 6.1.1 by @fontawesome - https://fontawesome.com License - https://fontawesome.com/license (Commercial License) Copyright 2022 Fonticons, Inc. --><path d="M127.1 0C141.3 0 151.1 10.75 151.1 24V64H296V24C296 10.75 306.7 0 320 0C333.3 0 344 10.75 344 24V64H384C419.3 64 448 92.65 448 128V192H47.1V448C47.1 456.8 55.16 464 63.1 464H284.5C296.7 482.8 312.5 499.1 330.8 512H64C28.65 512 0 483.3 0 448V128C0 92.65 28.65 64 64 64H104V24C104 10.75 114.7 0 128 0H127.1zM576 368C576 447.5 511.5 512 432 512C352.5 512 287.1 447.5 287.1 368C287.1 288.5 352.5 224 432 224C511.5 224 576 288.5 576 368zM415.1 304V368C415.1 376.8 423.2 384 431.1 384H480C488.8 384 496 376.8 496 368C496 359.2 488.8 352 480 352H447.1V304C447.1 295.2 440.8 288 431.1 288C423.2 288 415.1 295.2 415.1 304V304z"/></svg>