<svg xmlns="http://www.w3.org/2000/svg" viewBox="0 0 512 512"><!--! Font Awesome Pro 6.0.0-beta3 by @fontawesome - https://fontawesome.com License - https://fontawesome.com/license (Commercial License) Copyright 2021 Fonticons, Inc. --><path d="M224 0C237.3 0 248 10.75 248 24V64H360V24C360 10.75 370.7 0 384 0C397.3 0 408 10.75 408 24V64H448C483.3 64 512 92.65 512 128V352C512 387.3 483.3 416 448 416H160C124.7 416 96 387.3 96 352V128C96 92.65 124.7 64 160 64H200V24C200 10.75 210.7 0 224 0zM144 352C144 360.8 151.2 368 160 368H448C456.8 368 464 360.8 464 352V192H144V352zM48 392C48 431.8 80.24 464 120 464H392C405.3 464 416 474.7 416 488C416 501.3 405.3 512 392 512H120C53.73 512 0 458.3 0 392V184C0 170.7 10.75 160 24 160C37.25 160 48 170.7 48 184V392z"/></svg>