<svg xmlns="http://www.w3.org/2000/svg" viewBox="0 0 576 512"><!--! Font Awesome Pro 6.1.1 by @fontawesome - https://fontawesome.com License - https://fontawesome.com/license (Commercial License) Copyright 2022 Fonticons, Inc. --><path d="M312 240H104C90.75 240 80 250.8 80 264S90.75 288 104 288h208c13.25 0 24-10.75 24-24S325.3 240 312 240zM557.6 182.3c-11.53-7.406-25.88-8.391-38.28-2.688L416 227V224c0-35.35-28.65-64-64-64L96 159.1V120C96 97.94 113.9 80 136 80h160C309.3 80 320 69.25 320 56S309.3 32 296 32h-160C87.47 32 48 71.47 48 120l.0003 42.26C20.44 169.4 .0002 194.2 .0002 223.1l-.0001 191.1c0 35.35 28.65 63.1 64 63.1L352 480c35.35 0 64-28.65 64-64v-3.016l103.3 47.36c5.344 2.453 11.03 3.672 16.69 3.672c7.531 0 15.02-2.141 21.59-6.359C569.1 450.3 576 437.7 576 423.1V216C576 202.3 569.1 189.8 557.6 182.3zM368 416c0 8.822-7.178 16-16 16H64c-8.822 0-16-7.178-16-16V224c0-8.822 7.178-16 16-16h288c8.822 0 16 7.178 16 16V416zM528 411.5l-112-51.33V279.8l112-51.33V411.5z"/></svg>