<svg xmlns="http://www.w3.org/2000/svg" viewBox="0 0 512 512"><!--! Font Awesome Pro 6.0.0-beta3 by @fontawesome - https://fontawesome.com License - https://fontawesome.com/license (Commercial License) Copyright 2021 Fonticons, Inc. --><path d="M448 96h-72l-8.457-22.51C358.2 48.51 334.3 32 307.6 32H204.4C177.7 32 153.9 48.51 144.5 73.45L136 96H64C28.65 96 0 124.7 0 160v256c0 35.35 28.65 64 64 64h384c35.35 0 64-28.65 64-64V160C512 124.7 483.3 96 448 96zM464 416c0 8.822-7.178 16-16 16H64c-8.822 0-16-7.178-16-16V160c0-8.822 7.178-16 16-16h105.2l20.19-53.64C191.7 84.16 197.8 80 204.4 80h103.3c6.631 0 12.65 4.172 14.98 10.38L342.7 144H448c8.822 0 16 7.178 16 16V416zM346.9 187.7l-14.76 14.77C311.2 183.8 284.6 173 256 173c-35.64 0-68.69 16.12-90.64 44.22C157.2 227.7 159 242.8 169.5 250.9C179.9 259.1 195 257.2 203.2 246.8c22.5-28.79 67.17-32.26 95.08-10.48l-14.61 14.62C275.9 258.6 281.3 271.7 292.1 272h67.36C364.2 271.9 368 268 368 263.3V196.4C368 185.4 354.7 179.9 346.9 187.7zM308.8 329.2c-22.5 28.79-67.17 32.26-95.08 10.48l14.61-14.62C236.1 317.4 230.7 304.3 219.9 304H152.6C147.8 304.1 144 307.1 144 312.7v66.87c0 11.02 13.33 16.54 21.12 8.74l14.76-14.77C200.8 392.2 227.4 403 256 403c35.64 0 68.69-16.12 90.64-44.22c8.172-10.45 6.312-25.53-4.125-33.69C332.1 316.9 317 318.8 308.8 329.2z"/></svg>