<svg xmlns="http://www.w3.org/2000/svg" viewBox="0 0 512 512"><!--! Font Awesome Pro 6.1.1 by @fontawesome - https://fontawesome.com License - https://fontawesome.com/license (Commercial License) Copyright 2022 Fonticons, Inc. --><path d="M0 24C0 10.75 10.75 0 24 0H136C149.3 0 160 10.75 160 24C160 37.25 149.3 48 136 48H48V136C48 149.3 37.25 160 24 160C10.75 160 0 149.3 0 136V24zM200 256C200 225.1 225.1 200 256 200C286.9 200 312 225.1 312 256C312 286.9 286.9 312 256 312C225.1 312 200 286.9 200 256zM301.4 96C317.4 96 331.9 105.5 338.2 120.2L341.5 128H352C387.3 128 416 156.7 416 192V320C416 355.3 387.3 384 352 384H160C124.7 384 96 355.3 96 320V192C96 156.7 124.7 128 160 128H170.5L173.8 120.2C180.1 105.5 194.5 96 210.6 96H301.4zM202.1 176H160C151.2 176 144 183.2 144 192V320C144 328.8 151.2 336 160 336H352C360.8 336 368 328.8 368 320V192C368 183.2 360.8 176 352 176H309.9L296.2 144H215.8L202.1 176zM488 0C501.3 0 512 10.75 512 24V136C512 149.3 501.3 160 488 160C474.7 160 464 149.3 464 136V48H376C362.7 48 352 37.25 352 24C352 10.75 362.7 0 376 0H488zM0 376C0 362.7 10.75 352 24 352C37.25 352 48 362.7 48 376V464H136C149.3 464 160 474.7 160 488C160 501.3 149.3 512 136 512H24C10.75 512 0 501.3 0 488V376zM376 512C362.7 512 352 501.3 352 488C352 474.7 362.7 464 376 464H464V376C464 362.7 474.7 352 488 352C501.3 352 512 362.7 512 376V488C512 501.3 501.3 512 488 512H376z"/></svg>