<svg xmlns="http://www.w3.org/2000/svg" viewBox="0 0 640 512"><!--! Font Awesome Pro 6.0.0-beta3 by @fontawesome - https://fontawesome.com License - https://fontawesome.com/license (Commercial License) Copyright 2021 Fonticons, Inc. --><path d="M630.8 469.1l-145.7-114.2C516.8 317.4 536 268.1 536 216c0-119.3-96.71-215.1-216-215.1c-71.71 0-134.8 35.3-174 89.09l-107.1-83.97C28.35-3.058 13.33-1.246 5.122 9.191c-8.172 10.44-6.354 25.53 4.068 33.7l591.1 463.1C605.6 510.3 610.8 512 615.1 512c7.125 0 14.16-3.161 18.9-9.193C643.1 492.4 641.2 477.3 630.8 469.1zM371.7 265.1L259.2 177.8C271.9 157.6 294.3 143.1 319.9 143.1C359.6 143.1 392 176.3 392 216C392 235.4 384.2 253.1 371.7 265.1zM409.5 295.6C428.4 274.5 440 246.7 440 216c0-66.28-53.73-120-120-120c-41.05 0-76.86 20.89-98.45 52.34L184 118.9C214.3 76.16 263.7 48 320 48c92.64 0 168 75.36 168 168c0 41.77-15.62 79.7-40.99 109L409.5 295.6zM201.4 464l37.61-47.84C264 426.3 291.3 432 320 432c30.47 0 59.43-6.383 85.72-17.77l-45.48-35.65c-12.96 3.215-26.3 5.412-40.24 5.412C227.4 383.1 152 308.6 152 216c0-.2012 .0586-.3848 .0586-.5859L107.2 180.3C105.3 191.9 104 203.8 104 216c0 73.22 36.52 137.8 92.25 176.9l-63.13 80.29c-5.656 7.219-6.719 17.05-2.719 25.31C134.4 506.8 142.8 512 152 512h378.5l-61.24-48H201.4z"/></svg>