<svg xmlns="http://www.w3.org/2000/svg" viewBox="0 0 448 512"><!--! Font Awesome Pro 6.1.1 by @fontawesome - https://fontawesome.com License - https://fontawesome.com/license (Commercial License) Copyright 2022 Fonticons, Inc. --><path d="M372 368.1c-23.54 1.27-44.8 16.06-57.18 36.13C300.9 426.8 302.3 446.7 308.4 464H272v-192C272 245.6 250.4 224 224 224H96C69.6 224 48 245.6 48 272v192H24C10.75 464 0 474.7 0 488C0 501.3 10.75 512 24 512h348.7c34.79 0 67.07-23.22 73.8-57.35C455.9 407.1 418.4 365.6 372 368.1zM224 464H96v-192h32v56C128 341.3 138.8 352 152 352s24-10.75 24-24V272H224V464zM376 464c-13.25 0-24-10.75-24-24S362.8 416 376 416s24 10.75 24 24S389.3 464 376 464zM160 191.1c45.88 0 77.1-32.62 77.1-79.25C237.1 82.75 205.4 37.88 160 0C114.4 38 81.1 82.88 81.1 112.8C81.1 159.4 114.1 191.1 160 191.1zM160 66.13C180 88.25 189.8 106.1 189.1 112.8C190.4 124.4 186.1 144 160 144S129.1 124.4 129.1 113C130.5 106.3 140 88.25 160 66.13z"/></svg>