<svg xmlns="http://www.w3.org/2000/svg" viewBox="0 0 640 512"><!--! Font Awesome Pro 6.0.0-beta3 by @fontawesome - https://fontawesome.com License - https://fontawesome.com/license (Commercial License) Copyright 2021 Fonticons, Inc. --><path d="M627.4 162.9C639.1 169.2 643.4 183.8 637.1 195.4C630.8 207.1 616.2 211.4 604.6 205.1L319.1 51.28L35.41 205.1C23.75 211.4 9.19 207.1 2.887 195.4C-3.416 183.8 .9271 169.2 12.59 162.9L308.6 2.887C315.7-.9623 324.3-.9623 331.4 2.887L627.4 162.9zM200 360C200 346.7 210.7 336 224 336C237.3 336 248 346.7 248 360C248 373.3 237.3 384 224 384C210.7 384 200 373.3 200 360zM440 360C440 373.3 429.3 384 416 384C402.7 384 392 373.3 392 360C392 346.7 402.7 336 416 336C429.3 336 440 346.7 440 360zM182 207.8C192.3 179.1 219.4 160 249.8 160H390.2C420.6 160 447.7 179.1 457.1 207.8L486.6 287.9C486.8 288.4 486.9 288.9 487.1 289.3C511.8 306.7 528 335.5 528 368V488C528 501.3 517.3 512 504 512C490.7 512 480 501.3 480 488V448H160V488C160 501.3 149.3 512 136 512C122.7 512 112 501.3 112 488V368C112 335.5 128.2 306.7 152.9 289.3C153.1 288.9 153.2 288.4 153.4 287.9L182 207.8zM249.8 208C239.7 208 230.6 214.4 227.2 223.9L210.1 272H429.9L412.8 223.9C409.4 214.4 400.3 208 390.2 208H249.8zM432 320H208C181.5 320 160 341.5 160 368V400H480V368C480 341.5 458.5 320 432 320z"/></svg>