<svg xmlns="http://www.w3.org/2000/svg" viewBox="0 0 384 512"><!--! Font Awesome Pro 6.1.1 by @fontawesome - https://fontawesome.com License - https://fontawesome.com/license (Commercial License) Copyright 2022 Fonticons, Inc. --><path d="M180.7 148.7C186.9 142.4 197.1 142.4 203.3 148.7L299.3 244.7C305.6 250.9 305.6 261.1 299.3 267.3L203.3 363.3C197.1 369.6 186.9 369.6 180.7 363.3L84.69 267.3C78.44 261.1 78.44 250.9 84.69 244.7L180.7 148.7zM0 64C0 28.65 28.65 0 64 0H320C355.3 0 384 28.65 384 64V448C384 483.3 355.3 512 320 512H64C28.65 512 0 483.3 0 448V64zM48 64V448C48 456.8 55.16 464 64 464H320C328.8 464 336 456.8 336 448V64C336 55.16 328.8 48 320 48H64C55.16 48 48 55.16 48 64z"/></svg>