<svg xmlns="http://www.w3.org/2000/svg" viewBox="0 0 640 512"><!--! Font Awesome Pro 6.0.0-beta3 by @fontawesome - https://fontawesome.com License - https://fontawesome.com/license (Commercial License) Copyright 2021 Fonticons, Inc. --><path d="M256 352h288c35.2 0 64-28.8 64-64V160c0-35.2-28.8-64-64-64h-48V64c0-35.35-28.65-64-64-64h-64c-35.35 0-64 28.65-64 64v32H256C220.8 96 192 124.8 192 160v128C192 323.2 220.8 352 256 352zM512 144h32c8.836 0 16 7.162 16 16v128c0 8.836-7.164 16-16 16h-32V144zM352 64c0-8.838 7.164-16 16-16h64C440.8 48 448 55.16 448 64v32h-96V64zM336 144h128v160h-128V144zM240 160c0-8.838 7.164-16 16-16h32v160H256C247.2 304 240 296.8 240 288V160zM616 399.1H144V64c0-35.2-28.8-64-64-64H24C10.8 0 0 10.8 0 24C0 37.2 10.8 48 24 48h48C85.25 48 96 58.74 96 72v343.1c0 17.6 14.4 32 32 32l34.9 .0026C161.1 453 160 458.4 160 464C160 490.5 181.5 512 208 512S256 490.5 256 464c0-5.643-1.114-10.97-2.903-16h197.9C449.2 453 448.1 458.4 448.1 464c0 26.51 21.48 48 47.99 48s48.01-21.49 48.01-48c0-5.643-1.1-10.97-2.889-16L616 447.1c13.2 0 24-10.8 24-23.1C640 410.8 629.2 399.1 616 399.1z"/></svg>