<svg xmlns="http://www.w3.org/2000/svg" viewBox="0 0 640 512"><!--! Font Awesome Pro 6.1.1 by @fontawesome - https://fontawesome.com License - https://fontawesome.com/license (Commercial License) Copyright 2022 Fonticons, Inc. --><path d="M616 399.1H144V64c0-35.2-28.8-64-64-64H24C10.8 0 0 10.8 0 24C0 37.2 10.8 48 24 48h48C85.25 48 96 58.74 96 72v343.1c0 17.6 14.4 32 32 32l34.92 .0026C161.1 453 160 458.4 160 464C160 490.5 181.5 512 208 512S256 490.5 256 464c0-5.643-1.128-10.97-2.917-16h197.9c-1.789 5.029-2.928 10.36-2.928 16c0 26.51 21.48 48 47.99 48c26.51 0 48.01-21.49 48.01-48c0-5.643-1.118-10.97-2.907-16L616 447.1c13.2 0 24-10.8 24-23.1C640 410.8 629.2 399.1 616 399.1z"/></svg>