<svg xmlns="http://www.w3.org/2000/svg" viewBox="0 0 512 512"><!--! Font Awesome Pro 6.1.1 by @fontawesome - https://fontawesome.com License - https://fontawesome.com/license (Commercial License) Copyright 2022 Fonticons, Inc. --><path d="M136 256C136 269.3 125.3 280 112 280C98.75 280 88 269.3 88 256C88 242.7 98.75 232 112 232C125.3 232 136 242.7 136 256zM184 256C184 242.7 194.7 232 208 232C221.3 232 232 242.7 232 256C232 269.3 221.3 280 208 280C194.7 280 184 269.3 184 256zM184 336C184 349.3 173.3 360 160 360C146.7 360 136 349.3 136 336C136 322.7 146.7 312 160 312C173.3 312 184 322.7 184 336zM280 256C280 242.7 290.7 232 304 232C317.3 232 328 242.7 328 256C328 269.3 317.3 280 304 280C290.7 280 280 269.3 280 256zM280 336C280 349.3 269.3 360 256 360C242.7 360 232 349.3 232 336C232 322.7 242.7 312 256 312C269.3 312 280 322.7 280 336zM376 256C376 242.7 386.7 232 400 232C413.3 232 424 242.7 424 256C424 269.3 413.3 280 400 280C386.7 280 376 269.3 376 256zM376 336C376 349.3 365.3 360 352 360C338.7 360 328 349.3 328 336C328 322.7 338.7 312 352 312C365.3 312 376 322.7 376 336zM288 0C305.7 0 320 14.33 320 32V96C320 113.7 305.7 128 288 128H208V160H424.5C456.3 160 483.3 183.4 487.8 214.9L511.4 379.5C511.8 382.5 512 385.5 512 388.5V448C512 483.3 483.3 512 448 512H64C28.65 512 0 483.3 0 448V388.5C0 385.5 .215 382.5 .6432 379.5L24.15 214.9C28.65 183.4 55.66 160 87.51 160H144V128H64C46.33 128 32 113.7 32 96V32C32 14.33 46.33 0 64 0L288 0zM96 48C87.16 48 80 55.16 80 64C80 72.84 87.16 80 96 80H256C264.8 80 272 72.84 272 64C272 55.16 264.8 48 256 48H96zM64 464H448C456.8 464 464 456.8 464 448V432H48V448C48 456.8 55.16 464 64 464zM424.5 208H87.51C79.54 208 72.79 213.9 71.67 221.7L48.49 384H463.5L440.3 221.7C439.2 213.9 432.5 208 424.5 208V208z"/></svg>