<svg xmlns="http://www.w3.org/2000/svg" viewBox="0 0 320 512"><!--! Font Awesome Pro 6.1.1 by @fontawesome - https://fontawesome.com License - https://fontawesome.com/license (Commercial License) Copyright 2022 Fonticons, Inc. --><path d="M184 0C197.3 0 208 10.75 208 24V72.47C245.9 75.04 280.1 87.97 309.9 108.4C320.7 116.1 323.2 131 315.6 141.9C307.9 152.7 292.1 155.2 282.1 147.6C261.2 132.8 235.8 123.1 208 120.6V391.4C235.8 388.9 261.2 379.2 282.1 364.4C292.1 356.8 307.9 359.3 315.6 370.1C323.2 380.1 320.7 395.9 309.9 403.6C280.1 424 245.9 436.1 208 439.5V488C208 501.3 197.3 512 184 512C170.7 512 160 501.3 160 488V437.2C69.99 422 0 347.7 0 256C0 164.3 69.99 89.99 160 74.83V24C160 10.75 170.7 0 184 0V0zM160 388.3V123.7C94.96 138.1 48 192.8 48 256C48 319.2 94.96 373.9 160 388.3z"/></svg>