<svg xmlns="http://www.w3.org/2000/svg" viewBox="0 0 448 512"><!--! Font Awesome Pro 6.0.0-beta3 by @fontawesome - https://fontawesome.com License - https://fontawesome.com/license (Commercial License) Copyright 2021 Fonticons, Inc. --><path d="M445.1 326.2l-10.63-32c-7.375-22-27.5-36.75-50.5-37.87L383.1 128c0-70.69-57.31-128-128-128H191.1C121.3 0 63.98 57.31 63.98 128L63.95 256.4c-23 1.125-43.13 15.87-50.5 37.87l-10.63 32c-5.625 17.13-2.75 36 7.75 50.5c5.5 7.75 13 13.62 21.38 17.62v93.63C31.95 501.3 42.72 512 55.97 512s23.98-10.75 23.98-23.1V400h288v88C367.1 501.3 378.7 512 391.1 512s23.98-10.75 23.98-23.1v-93.63c8.375-4 15.88-9.875 21.5-17.62C447.1 362.2 450.8 343.4 445.1 326.2zM295.1 59.13C319.7 73 335.1 98.5 335.1 128l-.0094 128h-40L295.1 59.13zM199.1 48h48L247.1 256H199.1L199.1 48zM151.1 59.13L151.1 256H111.1l.009-128C111.1 98.5 128.2 73 151.1 59.13zM48.32 341.5l10.75-32C60.07 306.1 63.2 304 66.57 304h314.8c3.375 0 6.5 2.25 7.625 5.5l10.62 32C401.3 346.8 397.3 352 391.9 352h-336C50.57 352 46.57 346.8 48.32 341.5z"/></svg>