<svg xmlns="http://www.w3.org/2000/svg" viewBox="0 0 512 512"><!--! Font Awesome Pro 6.0.0-beta3 by @fontawesome - https://fontawesome.com License - https://fontawesome.com/license (Commercial License) Copyright 2021 Fonticons, Inc. --><path d="M330.4 281.4C347.4 285.9 360 301.5 360 320C360 342.1 342.1 360 320 360C304.1 360 290.3 350.7 283.9 337.3L186.7 317.8C179.6 324.1 170.2 328 160 328C137.9 328 120 310.1 120 288C120 265.9 137.9 248 160 248L217.6 171.2C216.6 167.7 216 163.9 216 160C216 137.9 233.9 120 256 120C278.1 120 296 137.9 296 160C296 167.6 293.9 174.7 290.2 180.8L330.4 281.4zM202 271.9L281.3 287.8L249.6 208.6L202 271.9zM109.1 59.9C120 42.63 138.5 32 158.4 32H353.6C373.5 32 391.1 42.63 402 59.9L499.4 227.9C509.5 245.3 509.5 266.7 499.4 284.1L402 452.1C391.1 469.4 373.5 480 353.6 480H158.4C138.5 480 120 469.4 109.1 452.1L12.55 284.1C2.474 266.7 2.474 245.3 12.55 227.9L109.1 59.9zM158.4 80C155.6 80 152.9 81.52 151.5 83.99L54.07 251.1C52.63 254.5 52.63 257.5 54.07 260L151.5 428C152.9 430.5 155.6 432 158.4 432H353.6C356.4 432 359.1 430.5 360.5 428L457.9 260C459.4 257.5 459.4 254.5 457.9 251.1L360.5 83.99C359.1 81.52 356.4 80 353.6 80H158.4z"/></svg>