<svg xmlns="http://www.w3.org/2000/svg" viewBox="0 0 512 512"><!--! Font Awesome Pro 6.0.0-beta3 by @fontawesome - https://fontawesome.com License - https://fontawesome.com/license (Commercial License) Copyright 2021 Fonticons, Inc. --><path d="M48 408C48 421.3 58.75 432 72 432H488C501.3 432 512 442.7 512 456C512 469.3 501.3 480 488 480H72C32.24 480 0 447.8 0 408V56C0 42.75 10.75 32 24 32C37.25 32 48 42.75 48 56V408zM320 296C320 282.7 330.7 272 344 272H398.1L304 177.9L224.1 256.1C215.6 266.3 200.4 266.3 191 256.1L111 176.1C101.7 167.6 101.7 152.4 111 143C120.4 133.7 135.6 133.7 144.1 143L207.1 206.1L287 127C296.4 117.7 311.6 117.7 320.1 127L432 238.1V184C432 170.7 442.7 160 456 160C469.3 160 480 170.7 480 184V296C480 309.3 469.3 320 456 320H344C330.7 320 320 309.3 320 296V296z"/></svg>