<svg xmlns="http://www.w3.org/2000/svg" viewBox="0 0 512 512"><!--! Font Awesome Pro 6.1.1 by @fontawesome - https://fontawesome.com License - https://fontawesome.com/license (Commercial License) Copyright 2022 Fonticons, Inc. --><path d="M48 408C48 421.3 58.75 432 72 432H488C501.3 432 512 442.7 512 456C512 469.3 501.3 480 488 480H72C32.24 480 0 447.8 0 408V56C0 42.75 10.75 32 24 32C37.25 32 48 42.75 48 56V408zM359.6 152.4C372.7 139.3 394.4 140.1 406.5 154.2L468.4 226.5C475.9 235.2 480 246.3 480 257.8V352C480 369.7 465.7 384 448 384H128C110.3 384 96 369.7 96 352V243.9C96 231.2 101.1 218.9 110.1 209.9L201.4 118.6C213.9 106.1 234.1 106.1 246.6 118.6L320 192L359.6 152.4zM224 163.9L144 243.9V336H432V257.8L381.3 198.6L353.9 225.9C344.9 234.9 332.7 240 320 240C307.3 240 295.1 234.9 286.1 225.9L224 163.9z"/></svg>