<svg xmlns="http://www.w3.org/2000/svg" viewBox="0 0 448 512"><!--! Font Awesome Pro 6.1.1 by @fontawesome - https://fontawesome.com License - https://fontawesome.com/license (Commercial License) Copyright 2022 Fonticons, Inc. --><path d="M176.1 240.1C167.6 250.3 152.4 250.3 143 240.1L63.03 160.1C53.66 151.6 53.66 136.4 63.03 127C72.4 117.7 87.6 117.7 96.97 127L160 190.1L303 47.03C312.4 37.66 327.6 37.66 336.1 47.03C346.3 56.4 346.3 71.6 336.1 80.97L176.1 240.1zM176.1 464.1C167.6 474.3 152.4 474.3 143 464.1L7.029 328.1C-2.343 319.6-2.343 304.4 7.029 295C16.4 285.7 31.6 285.7 40.97 295L160 414.1L407 167C416.4 157.7 431.6 157.7 440.1 167C450.3 176.4 450.3 191.6 440.1 200.1L176.1 464.1z"/></svg>