<svg xmlns="http://www.w3.org/2000/svg" viewBox="0 0 576 512"><!--! Font Awesome Pro 6.1.1 by @fontawesome - https://fontawesome.com License - https://fontawesome.com/license (Commercial License) Copyright 2022 Fonticons, Inc. --><path d="M341.1 137.2L268.6 229.5L231.6 197.8C221.6 189.2 206.4 190.3 197.8 200.4C189.2 210.4 190.3 225.6 200.4 234.2l56 48C260.8 285.1 266.2 287.1 271.1 287.1c.7813 0 1.606-.0187 2.388-.1125c6.531-.625 12.5-3.906 16.53-9.062l88-112c8.188-10.41 6.375-25.5-4.062-33.69C364.4 124.1 349.3 126.8 341.1 137.2zM96 408h384c13.25 0 24-10.75 24-24c0-13.26-10.75-24-24-24V96c0-35.35-28.65-64-64-64H160C124.7 32 96 60.65 96 96v264c-13.25 0-24 10.74-24 24C72 397.3 82.75 408 96 408zM144 96c0-8.836 7.164-16 16-16h256c8.836 0 16 7.164 16 16v264h-288V96zM524.6 288c-13.25 0-24 10.75-24 24s10.75 24 24 24C526.5 336 528 337.5 528 339.4V424c0 4.406-3.594 8-8 8H56c-4.406 0-8-3.594-8-8v-84.58C48 337.5 49.53 336 51.41 336c13.25 0 24-10.75 24-24S64.66 288 51.41 288C23.06 288 0 311.1 0 339.4V424C0 454.9 25.13 480 56 480h464c30.88 0 56-25.12 56-56v-84.58C576 311.1 552.9 288 524.6 288z"/></svg>