<svg xmlns="http://www.w3.org/2000/svg" viewBox="0 0 256 512"><!--! Font Awesome Pro 6.1.1 by @fontawesome - https://fontawesome.com License - https://fontawesome.com/license (Commercial License) Copyright 2022 Fonticons, Inc. --><path d="M249.6 435.2L224 416v-24c0-12.12-9.125-21.62-20.75-23.38C201.4 352.5 200.2 336.2 200 320h8c8.875 0 16-7.125 16-16V288c-.125-7.875-5.875-14.5-13.62-15.5C224 261.6 232 243.4 232 211.4c0-41.63-25.88-100.6-58-132.6C184.2 76 192 67 192 56C192 42.75 181.2 32 168 32h-80C74.75 32 64 42.75 64 56c0 11 7.75 20 17.1 22.75C49.88 110.8 24 169.8 24 211.4c0 32 8 50.25 21.62 61.12C37.88 273.5 32.12 280.1 32 288v16C32 312.9 39.12 320 48 320h8c-.25 16.25-1.375 32.5-3.25 48.63C41.12 370.2 32 379.9 32 392V416l-25.62 19.25C2.375 438.2 0 443 0 448v48C0 504.9 7.125 512 16 512h224c8.875 0 16-7.125 16-16V448C256 443 253.6 438.2 249.6 435.2zM115.2 110.4C118.2 106.5 123 104.2 128 104.2c8.129 0 13.59 3.458 30.62 32.38L121 174.2C119.5 175.8 118.6 177.9 118.6 180S119.5 184.1 121 185.6L134.5 199C136 200.5 137.1 201.4 140.1 201.4c2.125 0 4.125-.875 5.625-2.375l28.62-28.62C180.2 185.6 184 200.2 184 211.4v.5C183.9 225.1 178.5 237.8 169 247L160 256v16H96V256L87 247C77.5 237.8 72.13 225.1 72 211.9V211.2C72 185.6 89.75 142.4 115.2 110.4zM154.9 368H101.1C102.6 352 103.9 336 104 320h48C152.1 336 153.4 352 154.9 368zM48 464l32-24V416h96v24l32 24H48z"/></svg>