<svg xmlns="http://www.w3.org/2000/svg" viewBox="0 0 448 512"><!--! Font Awesome Pro 6.1.1 by @fontawesome - https://fontawesome.com License - https://fontawesome.com/license (Commercial License) Copyright 2022 Fonticons, Inc. --><path d="M64 96v64h64V96H64zM256 96H192v64h64V96zM192 416h64v-64H192V416zM64 416h64v-64H64V416zM64 224v64h64V224H64zM384 288V224h-64v64H384zM384 416v-64h-64v64H384zM320 160h64V96h-64V160zM256 224h64V160h-64V224zM384 32H64C28.8 32 0 60.8 0 96v320c0 35.2 28.8 64 64 64h320c35.2 0 64-28.8 64-64V96C448 60.8 419.2 32 384 32zM400 416c0 8.674-7.326 16-16 16H64c-8.672 0-16-7.326-16-16V96c0-8.674 7.328-16 16-16h320c8.674 0 16 7.326 16 16V416zM192 160H128v64h64V160zM192 288h64V224H192V288zM128 288v64h64V288H128zM256 352h64V288h-64V352z"/></svg>