<svg xmlns="http://www.w3.org/2000/svg" viewBox="0 0 640 512"><!--! Font Awesome Pro 6.0.0-beta3 by @fontawesome - https://fontawesome.com License - https://fontawesome.com/license (Commercial License) Copyright 2021 Fonticons, Inc. --><path d="M544 112L544 104c0-13.25-10.74-24-24-24h-112C394.7 80 384 90.75 384 104V112H200l.1662-32H232C245.3 80 256 69.25 256 56S245.3 32 232 32h-112C106.7 32 96 42.75 96 56S106.7 80 120 80h32.17L152 112H96c-53.02 0-96 42.98-96 96V384c0 53.02 42.98 96 96 96h448c53.02 0 96-42.98 96-96V207.1C640 154.1 597 112 544 112zM592 384c0 26.51-21.49 48-48 48H96c-26.51 0-48-21.49-48-48V208C48 181.5 69.49 160 96 160h448c26.51 0 48 21.49 48 48V384zM200 192C142.6 192 96 238.6 96 296s46.56 104 104 104S304 353.4 304 296S257.4 192 200 192zM216 288c0 8.844-7.156 16-16 16S184 296.8 184 288V240c0-8.844 7.156-16 16-16s16 7.156 16 16V288zM440 191.1c-59.49 0-104 48.64-104 103.1c0 55.64 44.81 103.1 104 103.1c59.49 0 104-48.62 104-103.1C544 240.4 499.3 191.1 440 191.1zM495.6 256.4c0 4.093-1.563 8.187-4.69 11.31l-33.94 33.94c-3.127 3.127-7.22 4.69-11.31 4.69c-8.552 0-16-6.904-16-16c0-4.093 1.563-8.187 4.69-11.31l33.94-33.94c3.126-3.127 7.219-4.69 11.31-4.69C488.7 240.4 495.6 247.9 495.6 256.4z"/></svg>