<svg xmlns="http://www.w3.org/2000/svg" viewBox="0 0 512 512"><!--! Font Awesome Pro 6.1.1 by @fontawesome - https://fontawesome.com License - https://fontawesome.com/license (Commercial License) Copyright 2022 Fonticons, Inc. --><path d="M207.1 64C207.1 99.35 179.3 128 143.1 128C108.7 128 79.1 99.35 79.1 64C79.1 28.65 108.7 .0003 143.1 .0003C179.3 .0003 207.1 28.65 207.1 64zM143.1 48C135.2 48 127.1 55.16 127.1 64C127.1 72.84 135.2 80 143.1 80C152.8 80 159.1 72.84 159.1 64C159.1 55.16 152.8 48 143.1 48zM104 512C90.75 512 80 501.3 80 488V264.8L52.31 308.8C45.25 320 30.44 323.4 19.22 316.3C8 309.3 4.631 294.4 11.69 283.2L60.08 206.3C78.24 177.5 109.9 160 144 160C178.1 160 209.8 177.5 227.9 206.3L276.3 283.2C283.4 294.4 280 309.3 268.8 316.3C257.6 323.4 242.8 320 235.7 308.8L208 264.8V488C208 501.3 197.3 512 184 512C170.7 512 160 501.3 160 488V384H128V488C128 501.3 117.3 512 104 512H104zM144 208C138.5 208 133.1 208.9 128 210.6V336H160V210.6C154.9 208.9 149.5 208 144 208zM416 .0003C424.8 .0003 432 7.164 432 16V132.3C441.6 137.8 448 148.2 448 160V269.3L464 264V208C464 199.2 471.2 192 480 192H496C504.8 192 512 199.2 512 208V292.5C512 299.4 507.6 305.5 501.1 307.6L448 325.3V352H496C504.8 352 512 359.2 512 368V384C512 392.8 504.8 400 496 400H452L475 492.1C477.6 502.2 469.9 512 459.5 512H400C391.2 512 384 504.8 384 496V384H352C334.3 384 320 369.7 320 352V224C320 206.3 334.3 192 352 192H368V160C368 148.2 374.4 137.8 384 132.3V32C375.2 32 368 24.84 368 16C368 7.164 375.2 0 384 0L416 .0003zM400 240H368V336H400V240z"/></svg>