<svg xmlns="http://www.w3.org/2000/svg" viewBox="0 0 640 512"><!--! Font Awesome Pro 6.1.1 by @fontawesome - https://fontawesome.com License - https://fontawesome.com/license (Commercial License) Copyright 2022 Fonticons, Inc. --><path d="M344 48H376C389.3 48 400 58.75 400 72C400 85.25 389.3 96 376 96H344V122.9L447.1 189.7C467.6 202.9 480 225.7 480 250.1V464H568C581.3 464 592 453.3 592 440V370.1C592 361.1 587.9 354.4 581 349.1L512 305.3V248.1L607.1 309.7C627.6 322.9 640 345.7 640 370.1V440C640 479.8 607.8 512 568 512L72 512C32.24 512 0 479.8 0 440V370.1C0 345.7 12.38 322.9 32.89 309.7L128 248.1V305.3L58.96 349.1C52.13 354.4 48 361.1 48 370.1V440C48 453.3 58.75 464 72 464H160V250.1C160 225.7 172.4 202.9 192.9 189.7L296 122.9V96H264C250.7 96 240 85.25 240 72C240 58.75 250.7 48 264 48H296V24C296 10.75 306.7 0 320 0C333.3 0 344 10.75 344 24V48zM320 164.6L218.1 229.1C212.1 234.4 208 241.1 208 250.1V464H272V368C272 341.5 293.5 320 320 320C346.5 320 368 341.5 368 368V464H432V250.1C432 241.1 427.9 234.4 421 229.1L320 164.6z"/></svg>