<svg xmlns="http://www.w3.org/2000/svg" viewBox="0 0 512 512"><!--! Font Awesome Pro 6.1.1 by @fontawesome - https://fontawesome.com License - https://fontawesome.com/license (Commercial License) Copyright 2022 Fonticons, Inc. --><path d="M232 128C218.8 128 208 138.8 208 152v208C208 373.2 218.8 384 232 384S256 373.2 256 360v-208C256 138.8 245.2 128 232 128zM152 192C138.8 192 128 202.8 128 216v80C128 309.2 138.8 320 152 320S176 309.2 176 296v-80C176 202.8 165.2 192 152 192zM392 216c-13.22 0-24 10.78-24 24v32c0 13.22 10.78 24 24 24S416 285.2 416 272v-32C416 226.8 405.2 216 392 216zM312 176C298.8 176 288 186.8 288 200v112c0 13.22 10.78 24 24 24s24-10.78 24-24v-112C336 186.8 325.2 176 312 176zM256 0C114.6 0 0 114.6 0 256s114.6 256 256 256s256-114.6 256-256S397.4 0 256 0zM256 464c-114.7 0-208-93.31-208-208S141.3 48 256 48s208 93.31 208 208S370.7 464 256 464z"/></svg>