<svg xmlns="http://www.w3.org/2000/svg" viewBox="0 0 512 512"><!--! Font Awesome Pro 6.0.0-beta3 by @fontawesome - https://fontawesome.com License - https://fontawesome.com/license (Commercial License) Copyright 2021 Fonticons, Inc. --><path d="M256 0C114.6 0 0 114.6 0 256s114.6 256 256 256s256-114.6 256-256S397.4 0 256 0zM256 464c-114.7 0-208-93.31-208-208S141.3 48 256 48s208 93.31 208 208S370.7 464 256 464zM310.1 199.4c9.359 9.438 24.55 9.445 33.94 .1328c9.422-9.344 9.484-24.53 .1562-33.94c-48.05-48.47-131.9-48.47-179.9 0c-49.44 49.88-49.44 131 0 180.9C189.2 370.7 221.1 384 255.1 384c.0156 0 0 0 0 0c33.98 0 65.95-13.34 89.96-37.56c9.328-9.438 9.266-24.62-.1562-33.94c-9.391-9.375-24.61-9.25-33.94 .125C296 327.7 276.2 336 255.1 336c-21.09 0-40.92-8.312-55.84-23.38c-30.97-31.22-30.97-82.03 0-113.3C229.1 169.3 281.1 169.2 310.1 199.4z"/></svg>