<svg xmlns="http://www.w3.org/2000/svg" viewBox="0 0 512 512"><!--! Font Awesome Pro 6.1.1 by @fontawesome - https://fontawesome.com License - https://fontawesome.com/license (Commercial License) Copyright 2022 Fonticons, Inc. --><path d="M256 0C114.6 0 0 114.6 0 256s114.6 256 256 256s256-114.6 256-256S397.4 0 256 0zM256 464c-114.7 0-208-93.31-208-208S141.3 48 256 48s208 93.31 208 208S370.7 464 256 464zM345.1 135.2c-9.266-9.422-24.48-9.547-33.94-.25L208 236.5V152C208 138.8 197.3 128 184 128S160 138.8 160 152v208C160 373.3 170.8 384 184 384s24-10.75 24-24V303.9l30.89-30.42l69.38 100.2C312.9 380.4 320.4 384 328 384c4.719 0 9.484-1.375 13.64-4.266c10.91-7.547 13.62-22.5 6.078-33.39l-72-104c-.7324-1.057-1.805-1.662-2.666-2.564l71.78-70.69C354.3 159.8 354.4 144.6 345.1 135.2z"/></svg>