<svg xmlns="http://www.w3.org/2000/svg" viewBox="0 0 512 512"><!--! Font Awesome Pro 6.1.1 by @fontawesome - https://fontawesome.com License - https://fontawesome.com/license (Commercial License) Copyright 2022 Fonticons, Inc. --><path d="M256 0C114.6 0 0 114.6 0 256s114.6 256 256 256s256-114.6 256-256S397.4 0 256 0zM256 464c-114.7 0-208-93.31-208-208S141.3 48 256 48s208 93.31 208 208S370.7 464 256 464zM370.7 146.5c-11.86-5.891-26.27-1.125-32.2 10.73L256 322.3L173.5 157.3C167.5 145.4 153.2 140.6 141.3 146.5C129.4 152.5 124.6 166.9 130.5 178.7l104 208C238.6 394.9 246.9 400 256 400s17.41-5.141 21.47-13.27l104-208C387.4 166.9 382.6 152.5 370.7 146.5z"/></svg>