<svg xmlns="http://www.w3.org/2000/svg" viewBox="0 0 512 512"><!--! Font Awesome Pro 6.0.0-beta3 by @fontawesome - https://fontawesome.com License - https://fontawesome.com/license (Commercial License) Copyright 2021 Fonticons, Inc. --><path d="M256 0C114.6 0 0 114.6 0 256s114.6 256 256 256s256-114.6 256-256S397.4 0 256 0zM256 464c-114.7 0-208-93.31-208-208S141.3 48 256 48s208 93.31 208 208S370.7 464 256 464zM277.2 216.5l51.06-46.81c7.297-6.688 9.734-17.16 6.156-26.38C330.8 134.1 321.9 128 312 128h-128C170.8 128 160 138.8 160 152S170.8 176 184 176h66.3L199.8 222.3C192.5 229 190 239.5 193.6 248.7C197.2 257.9 206.1 264 216 264h52c19.84 0 36 16.16 36 36S287.8 336 268 336H223.4c-7.547 0-14.2-4.812-16.59-11.97C202.6 311.5 189 304.8 176.4 308.8c-12.58 4.188-19.38 17.78-15.19 30.38C170.2 366 195.1 384 223.4 384H268C314.3 384 352 346.3 352 300C352 256.8 319.2 221.1 277.2 216.5z"/></svg>