<svg xmlns="http://www.w3.org/2000/svg" viewBox="0 0 512 512"><!--! Font Awesome Pro 6.1.1 by @fontawesome - https://fontawesome.com License - https://fontawesome.com/license (Commercial License) Copyright 2022 Fonticons, Inc. --><path d="M344 144H188.7c-13.25 0-24 10.75-24 24S175.5 192 188.7 192h97.36l-135 135c-9.375 9.375-9.375 24.56 0 33.94C155.7 365.7 161.9 368 168 368s12.28-2.344 16.97-7.031L320 225.9v97.34c0 13.25 10.75 24 24 24s24-10.75 24-24V168C368 154.8 357.3 144 344 144zM256 0C114.6 0 0 114.6 0 256s114.6 256 256 256s256-114.6 256-256S397.4 0 256 0zM256 464c-114.7 0-208-93.31-208-208S141.3 48 256 48s208 93.31 208 208S370.7 464 256 464z"/></svg>