<svg xmlns="http://www.w3.org/2000/svg" viewBox="0 0 512 512"><!--! Font Awesome Pro 6.0.0-beta3 by @fontawesome - https://fontawesome.com License - https://fontawesome.com/license (Commercial License) Copyright 2021 Fonticons, Inc. --><path d="M280 320H216V360C216 373.3 205.3 384 192 384C178.7 384 168 373.3 168 360V160C168 142.3 182.3 128 200 128H280C333 128 376 170.1 376 224C376 277 333 320 280 320zM280 272C306.5 272 328 250.5 328 224C328 197.5 306.5 176 280 176H216V272H280zM512 256C512 397.4 397.4 512 256 512C114.6 512 0 397.4 0 256C0 114.6 114.6 0 256 0C397.4 0 512 114.6 512 256zM256 48C141.1 48 48 141.1 48 256C48 370.9 141.1 464 256 464C370.9 464 464 370.9 464 256C464 141.1 370.9 48 256 48z"/></svg>