<svg xmlns="http://www.w3.org/2000/svg" viewBox="0 0 512 512"><!--! Font Awesome Pro 6.0.0-beta3 by @fontawesome - https://fontawesome.com License - https://fontawesome.com/license (Commercial License) Copyright 2021 Fonticons, Inc. --><path d="M352 160h-36l-6.188-16.44C306.3 134.2 297.4 128 287.4 128H224.6c-10 0-19 6.188-22.5 15.56L196 160H160C142.3 160 128 174.3 128 192v128c0 17.67 14.33 32 32 32h192c17.67 0 32-14.33 32-32V192C384 174.3 369.7 160 352 160zM256 304C229.5 304 208 282.5 208 256S229.5 208 256 208s48 21.5 48 48S282.5 304 256 304zM256 0C114.6 0 0 114.6 0 256s114.6 256 256 256s256-114.6 256-256S397.4 0 256 0zM256 464c-114.7 0-208-93.31-208-208S141.3 48 256 48s208 93.31 208 208S370.7 464 256 464z"/></svg>