<svg xmlns="http://www.w3.org/2000/svg" viewBox="0 0 512 512"><!--! Font Awesome Pro 6.0.0-beta3 by @fontawesome - https://fontawesome.com License - https://fontawesome.com/license (Commercial License) Copyright 2021 Fonticons, Inc. --><path d="M328 160h-128C190.3 160 181.5 165.8 177.8 174.8S176.2 194.1 183 200.1l41.37 41.38L159.8 306.9c-9.369 9.371-9.369 24.57 0 33.94l11.31 11.31c9.369 9.371 24.57 9.371 33.94 0l64.57-64.57l41.37 41.38C315.6 333.6 321.8 336 328 336c3.094 0 6.219-.5938 9.188-1.812C346.2 330.5 352 321.7 352 312v-128C352 170.8 341.3 160 328 160zM256 0C114.6 0 0 114.6 0 256s114.6 256 256 256s256-114.6 256-256S397.4 0 256 0zM256 464c-114.7 0-208-93.31-208-208S141.3 48 256 48s208 93.31 208 208S370.7 464 256 464z"/></svg>