<svg xmlns="http://www.w3.org/2000/svg" viewBox="0 0 512 512"><!--! Font Awesome Pro 6.1.1 by @fontawesome - https://fontawesome.com License - https://fontawesome.com/license (Commercial License) Copyright 2022 Fonticons, Inc. --><path d="M256 0C114.6 0 0 114.6 0 256s114.6 256 256 256s256-114.6 256-256S397.4 0 256 0zM256 464c-114.7 0-208-93.31-208-208S141.3 48 256 48s208 93.31 208 208S370.7 464 256 464zM282.2 226.4L220.4 219.2L228.6 176H312c13.25 0 24-10.75 24-24S325.3 128 312 128H208.7C197.2 128 187.3 136.2 185.2 147.5l-16.73 88C167.2 242.1 168.7 248.8 172.6 254.2c3.953 5.375 9.938 8.875 16.56 9.656l87.39 10.28C292.2 275.9 304 289.2 304 304.9C304 322.1 290.1 336 272.1 336H223.4c-7.547 0-14.2-4.812-16.59-11.97C202.6 311.5 188.1 304.8 176.4 308.8c-12.58 4.188-19.38 17.78-15.19 30.38C170.2 366 195.1 384 223.4 384h49.59C316.5 384 352 348.5 352 304.9C352 264.8 321.1 231.1 282.2 226.4z"/></svg>