<svg xmlns="http://www.w3.org/2000/svg" viewBox="0 0 512 512"><!--! Font Awesome Pro 6.0.0-beta3 by @fontawesome - https://fontawesome.com License - https://fontawesome.com/license (Commercial License) Copyright 2021 Fonticons, Inc. --><path d="M284 176h-120C152.1 176 144 184.1 144 196v120c0 11.04 8.955 20 20 20h120c11.04 0 20-8.955 20-20v-120C304 184.1 295 176 284 176zM379.8 194.3L336 224.5v62.96l43.84 30.2C388.3 323.5 400 317.6 400 307.4V204.6C400 194.4 388.4 188.4 379.8 194.3zM256 0C114.6 0 0 114.6 0 256s114.6 256 256 256s256-114.6 256-256S397.4 0 256 0zM256 464c-114.7 0-208-93.31-208-208S141.3 48 256 48s208 93.31 208 208S370.7 464 256 464z"/></svg>