<svg xmlns="http://www.w3.org/2000/svg" viewBox="0 0 512 512"><!--! Font Awesome Pro 6.1.1 by @fontawesome - https://fontawesome.com License - https://fontawesome.com/license (Commercial License) Copyright 2022 Fonticons, Inc. --><path d="M256 0C114.6 0 0 114.6 0 256s114.6 256 256 256s256-114.6 256-256S397.4 0 256 0zM256 464c-114.7 0-208-93.31-208-208S141.3 48 256 48s208 93.31 208 208S370.7 464 256 464zM320 336h-40V152c0-8.844-4.875-16.97-12.67-21.16c-7.781-4.188-17.25-3.75-24.64 1.188l-52 34.66C179.7 174 176.7 188.9 184 199.1c7.328 11 22.23 13.97 33.28 6.656L232 196.8V336H192c-13.25 0-24 10.75-24 24S178.8 384 192 384h128c13.25 0 24-10.75 24-24S333.3 336 320 336z"/></svg>