<svg xmlns="http://www.w3.org/2000/svg" viewBox="0 0 512 512"><!--! Font Awesome Pro 6.0.0-beta3 by @fontawesome - https://fontawesome.com License - https://fontawesome.com/license (Commercial License) Copyright 2021 Fonticons, Inc. --><path d="M327 151L192 286.1V188.7c0-13.25-10.75-24-24-24s-24 10.75-24 24V344c0 13.25 10.75 24 24 24h155.3c13.25 0 24-10.75 24-24s-10.75-24-24-24H225.9l135-135c9.375-9.375 9.375-24.56 0-33.94S336.4 141.7 327 151zM256 0C114.6 0 0 114.6 0 256s114.6 256 256 256s256-114.6 256-256S397.4 0 256 0zM256 464c-114.7 0-208-93.31-208-208S141.3 48 256 48s208 93.31 208 208S370.7 464 256 464z"/></svg>