<svg xmlns="http://www.w3.org/2000/svg" viewBox="0 0 512 512"><!--! Font Awesome Pro 6.0.0-beta3 by @fontawesome - https://fontawesome.com License - https://fontawesome.com/license (Commercial License) Copyright 2021 Fonticons, Inc. --><path d="M391.3 200.5l-82.33-11.98L272.2 114C268.9 107.4 262.4 103.1 255.1 104c-6.41 0-12.82 3.318-16.13 10.02L203 188.5L120.7 200.5C105.9 202.6 100 220.8 110.7 231.2l59.57 57.93l-14.09 81.83C154.2 382.6 163.5 392 173.1 392c2.773 0 5.629-.6602 8.371-2.109L256 351.2l73.65 38.64c2.736 1.436 5.582 2.088 8.352 2.088c10.46 0 19.8-9.34 17.8-21.04l-14.09-81.83l59.57-57.93C411.1 220.8 406.1 202.6 391.3 200.5zM298.2 319.2l-34.75-18.23c-4.654-2.443-10.21-2.443-14.87 0L213.8 319.2l6.637-38.55c.8945-5.201-.832-10.51-4.613-14.19L187.8 239.2l38.74-5.639C231.8 232.8 236.3 229.5 238.6 224.8L256 189.6l17.39 35.18c2.33 4.717 6.832 7.986 12.04 8.744l38.75 5.639l-28.01 27.24c-3.781 3.678-5.508 8.984-4.613 14.19L298.2 319.2zM256 0C114.6 0 0 114.6 0 256s114.6 256 256 256s256-114.6 256-256S397.4 0 256 0zM256 464c-114.7 0-208-93.31-208-208S141.3 48 256 48s208 93.31 208 208S370.7 464 256 464z"/></svg>