<svg xmlns="http://www.w3.org/2000/svg" viewBox="0 0 512 512"><!--! Font Awesome Pro 6.0.0-beta3 by @fontawesome - https://fontawesome.com License - https://fontawesome.com/license (Commercial License) Copyright 2021 Fonticons, Inc. --><path d="M256 0C114.6 0 0 114.6 0 256s114.6 256 256 256s256-114.6 256-256S397.4 0 256 0zM256 464c-114.7 0-208-93.31-208-208S141.3 48 256 48s208 93.31 208 208S370.7 464 256 464zM312 128C298.8 128 288 138.8 288 152v138.7C288 315.7 266.5 336 240 336S192 315.7 192 290.7V280C192 266.8 181.3 256 168 256S144 266.8 144 280v10.67C144 342.1 187.1 384 240 384s96-41.86 96-93.33V152C336 138.8 325.3 128 312 128z"/></svg>