<svg xmlns="http://www.w3.org/2000/svg" viewBox="0 0 512 512"><!--! Font Awesome Pro 6.0.0-beta3 by @fontawesome - https://fontawesome.com License - https://fontawesome.com/license (Commercial License) Copyright 2021 Fonticons, Inc. --><path d="M374.5 303.6l-54.24-23.25c-6.391-2.766-13.9-.9062-18.24 4.484l-22.02 26.91c-34.63-17-62.77-45.14-79.77-79.75L227.2 209.1c5.375-4.391 7.211-11.83 4.492-18.22L208.4 137.5C205.4 130.5 197.8 126.7 190.5 128.4L140.1 140C132.1 141.7 127.1 147.9 127.1 155.2c0 126.1 102.6 228.8 228.7 228.8c7.336 0 13.6-4.984 15.24-12.11l11.62-50.39C385.3 314.2 381.5 306.6 374.5 303.6zM256 0c-141.4 0-256 114.6-256 256c0 141.4 114.6 256 256 256s256-114.6 256-256C512 114.6 397.4 0 256 0zM256 464c-114.7 0-208-93.31-208-208S141.3 48 256 48s208 93.31 208 208S370.7 464 256 464z"/></svg>