<svg xmlns="http://www.w3.org/2000/svg" viewBox="0 0 512 512"><!--! Font Awesome Pro 6.0.0-beta3 by @fontawesome - https://fontawesome.com License - https://fontawesome.com/license (Commercial License) Copyright 2021 Fonticons, Inc. --><path d="M342.4 247.7L280 314.9V144c0-13.25-10.75-24-24-24S232 130.8 232 144v170.9L169.6 247.7C160.5 237.9 145.4 237.4 135.7 246.4C125.1 255.4 125.4 270.6 134.4 280.3l104 112C242.1 397.2 249.3 400 256 400s13.03-2.781 17.59-7.656l104-112c9-9.719 8.438-24.91-1.25-33.94C366.6 237.4 351.5 237.9 342.4 247.7zM256 0C114.6 0 0 114.6 0 256s114.6 256 256 256s256-114.6 256-256S397.4 0 256 0zM256 464c-114.7 0-208-93.31-208-208S141.3 48 256 48s208 93.31 208 208S370.7 464 256 464z"/></svg>