<svg xmlns="http://www.w3.org/2000/svg" viewBox="0 0 512 512"><!--! Font Awesome Pro 6.1.1 by @fontawesome - https://fontawesome.com License - https://fontawesome.com/license (Commercial License) Copyright 2022 Fonticons, Inc. --><path d="M256 0C114.6 0 0 114.6 0 256s114.6 256 256 256s256-114.6 256-256S397.4 0 256 0zM256 464c-114.7 0-208-93.31-208-208S141.3 48 256 48s208 93.31 208 208S370.7 464 256 464zM277.8 124.8c-7.842-17.08-35.75-17.08-43.59 0l-95.99 208.1c-5.547 12.09-.2966 26.43 11.73 31.99c12.09 5.588 26.28 .3125 31.86-11.77l12.03-26.18h124.3l12.03 26.18c4.061 8.822 12.73 14 21.81 14c3.359 0 6.781-.7228 10.05-2.229c12.03-5.559 17.28-19.91 11.73-31.99L277.8 124.8zM215.1 279.6L256 192.5l40.02 87.14H215.1z"/></svg>