<svg xmlns="http://www.w3.org/2000/svg" viewBox="0 0 512 512"><!--! Font Awesome Pro 6.1.1 by @fontawesome - https://fontawesome.com License - https://fontawesome.com/license (Commercial License) Copyright 2022 Fonticons, Inc. --><path d="M201.4 128L212.7 116.7C215.7 113.7 219.8 112 223.1 112H288C292.2 112 296.3 113.7 299.3 116.7L310.6 128H352C360.8 128 368 135.2 368 144C368 152.8 360.8 160 352 160H159.1C151.2 160 143.1 152.8 143.1 144C143.1 135.2 151.2 128 159.1 128H201.4zM352 192L338.4 354.7C337.1 371.2 323.2 384 306.6 384H205.4C188.8 384 174.9 371.2 173.6 354.7L160 192H352zM512 256C512 397.4 397.4 512 256 512C114.6 512 0 397.4 0 256C0 114.6 114.6 0 256 0C397.4 0 512 114.6 512 256zM256 48C141.1 48 48 141.1 48 256C48 370.9 141.1 464 256 464C370.9 464 464 370.9 464 256C464 141.1 370.9 48 256 48z"/></svg>