<svg xmlns="http://www.w3.org/2000/svg" viewBox="0 0 512 512"><!--! Font Awesome Pro 6.0.0-beta3 by @fontawesome - https://fontawesome.com License - https://fontawesome.com/license (Commercial License) Copyright 2021 Fonticons, Inc. --><path d="M256 0C114.6 0 0 114.6 0 256s114.6 256 256 256s256-114.6 256-256S397.4 0 256 0zM256 464c-114.7 0-208-93.31-208-208S141.3 48 256 48s208 93.31 208 208S370.7 464 256 464zM328 176C341.3 176 352 165.3 352 152S341.3 128 328 128h-144C170.8 128 160 138.8 160 152v208C160 373.3 170.8 384 184 384h144c13.25 0 24-10.75 24-24s-10.75-24-24-24H208V280h88C309.3 280 320 269.3 320 256s-10.75-24-24-24H208V176H328z"/></svg>