<svg xmlns="http://www.w3.org/2000/svg" viewBox="0 0 512 512"><!--! Font Awesome Pro 6.0.0-beta3 by @fontawesome - https://fontawesome.com License - https://fontawesome.com/license (Commercial License) Copyright 2021 Fonticons, Inc. --><path d="M272.1 159C268.3 154.3 262.2 152 256 152S243.7 154.3 239 159l-112 112c-9.375 9.375-9.375 24.56 0 33.94s24.56 9.375 33.94 0L256 209.9l95.03 95.03c9.375 9.375 24.56 9.375 33.94 0s9.375-24.56 0-33.94L272.1 159zM256 0C114.6 0 0 114.6 0 256s114.6 256 256 256s256-114.6 256-256S397.4 0 256 0zM256 464c-114.7 0-208-93.31-208-208S141.3 48 256 48s208 93.31 208 208S370.7 464 256 464z"/></svg>