<svg xmlns="http://www.w3.org/2000/svg" viewBox="0 0 640 512"><!--! Font Awesome Pro 6.1.1 by @fontawesome - https://fontawesome.com License - https://fontawesome.com/license (Commercial License) Copyright 2022 Fonticons, Inc. --><path d="M272 231.1c-13.25 0-24 10.75-24 23.1c0 13.25 10.75 23.1 24 23.1S296 269.2 296 255.1C296 242.7 285.3 231.1 272 231.1zM368 231.1c-13.25 0-24 10.75-24 23.1c0 13.25 10.75 23.1 24 23.1s24-10.75 24-23.1C392 242.7 381.3 231.1 368 231.1zM616 111.1c-4.75 0-9.375 1.375-13.25 3.1l-66 43.1L480 159.1V127.1h16c8.8 0 16-7.2 16-15.1S504.8 96 496 96h-256C231.2 96 224 103.2 224 111.1s7.2 15.1 16 15.1H256v31.1l-149.6-.0013c-6.891 0-13.74 1.113-20.27 3.295L21.82 184.8C8.754 189.1 0 201.3 0 215.1v81.82c0 13.77 8.81 26 21.87 30.37l64.25 21.45c6.536 2.182 13.38 3.295 20.27 3.295l430.4 0l66 43.1c7.375 4.875 16.75 5.375 24.62 1.125C635.1 392.1 640 384.9 640 375.1V135.1C640 122.7 629.3 111.1 616 111.1zM384 127.1h64v31.1l-64 .0002V127.1zM288 127.1h64v31.1L288 159.1V127.1zM592 331.1l-40.75-27.12H103.8L48 285.4V226.6l55.75-18.62h447.5L592 180.9V331.1zM464 231.1c-13.25 0-24 10.75-24 23.1c0 13.25 10.75 23.1 24 23.1s24-10.75 24-23.1C488 242.7 477.3 231.1 464 231.1z"/></svg>