<svg xmlns="http://www.w3.org/2000/svg" viewBox="0 0 512 512"><!--! Font Awesome Pro 6.1.1 by @fontawesome - https://fontawesome.com License - https://fontawesome.com/license (Commercial License) Copyright 2022 Fonticons, Inc. --><path d="M7.057 224.5C6.317 224.2 5.59 223.1 4.903 223.1c-2.714 0-4.83 2.446-4.83 5.048c0 1.194 .4459 2.422 1.485 3.46l85.12 85.12c5.1 5.1 9.375 14.13 9.375 22.62l-.0129 43.75l43.76-.0033c8.499 0 16.62 3.375 22.62 9.375l117.1 117.1c1.039 1.039 2.272 1.485 3.453 1.485c2.563 0 5.016-2.121 5.016-4.82C288 502.6 208.7 320.2 7.057 224.5zM246.7 29.63c5.1 5.1 9.333 14.13 9.333 22.62l-.0009 43.75l43.75-.005c8.499 0 16.62 3.375 22.62 9.375l52.25 52.25c5.1 5.1 9.375 14.13 9.375 22.62l.0005 43.75l43.75-.0042c8.499 0 16.62 3.375 22.62 9.375l53.12 53.12c1.039 1.039 2.266 1.485 3.46 1.485c2.602 0 5.048-2.116 5.048-4.83c0-.6879-.1571-1.414-.5085-2.154c-92.97-196.1-276.6-281-282.6-281c-2.714 0-4.83 2.446-4.83 5.048c0 1.194 .4459 2.422 1.485 3.46L246.7 29.63zM511.1 479.1c0-4.538-.9699-9.128-2.984-13.47l-1.5-2.1C363.3 155.2 67.57 .0614 32.08 .0614C21.05 .0614 0 8.603 0 32.6c0 7.778 2.739 15.19 7.772 20.15l144.4 179.7v63.5h61.1l65.87 65.1v61.1h64.5l114.1 80.5C465.1 509.3 472.4 512 479.1 512c6.375 0 12.75-1.1 18.37-5.875C507.2 499.9 511.1 490.1 511.1 479.1zM359.6 376h-31.62v-33.1L234 248H200.1V215.5L92.89 82.13c184.1 106.7 289.9 253.2 342.1 347.2L359.6 376z"/></svg>