<svg xmlns="http://www.w3.org/2000/svg" viewBox="0 0 384 512"><!--! Font Awesome Pro 6.1.1 by @fontawesome - https://fontawesome.com License - https://fontawesome.com/license (Commercial License) Copyright 2022 Fonticons, Inc. --><path d="M320 64h-49.61C262.1 27.48 230.7 0 192 0S121 27.48 113.6 64H64C28.65 64 0 92.66 0 128v320c0 35.34 28.65 64 64 64h256c35.35 0 64-28.66 64-64V128C384 92.66 355.3 64 320 64zM192 48c13.23 0 24 10.77 24 24S205.2 96 192 96S168 85.23 168 72S178.8 48 192 48zM336 448c0 8.82-7.178 16-16 16H64c-8.822 0-16-7.18-16-16V128c0-8.82 7.178-16 16-16h18.26C80.93 117.1 80 122.4 80 128v16C80 152.8 87.16 160 96 160h192c8.836 0 16-7.164 16-16V128c0-5.559-.9316-10.86-2.264-16H320c8.822 0 16 7.18 16 16V448zM272 288H224V240C224 231.2 216.8 224 208 224h-32C167.2 224 160 231.2 160 240V288H112C103.2 288 96 295.2 96 304v32C96 344.8 103.2 352 112 352H160v48C160 408.8 167.2 416 176 416h32c8.801 0 16-7.203 16-16V352h48c8.801 0 16-7.203 16-16v-32C288 295.2 280.8 288 272 288z"/></svg>