<svg xmlns="http://www.w3.org/2000/svg" viewBox="0 0 384 512"><!--! Font Awesome Pro 6.0.0-beta3 by @fontawesome - https://fontawesome.com License - https://fontawesome.com/license (Commercial License) Copyright 2021 Fonticons, Inc. --><path d="M320 64h-49.61C262.1 27.48 230.7 0 192 0S121 27.48 113.6 64H64C28.65 64 0 92.66 0 128v320c0 35.34 28.65 64 64 64h256c35.35 0 64-28.66 64-64V128C384 92.66 355.3 64 320 64zM192 48c13.23 0 24 10.77 24 24S205.2 96 192 96S168 85.23 168 72S178.8 48 192 48zM336 448c0 8.82-7.178 16-16 16H64c-8.822 0-16-7.18-16-16V128c0-8.82 7.178-16 16-16h18.26C80.93 117.1 80 122.4 80 128v16C80 152.8 87.16 160 96 160h192c8.836 0 16-7.164 16-16V128c0-5.559-.9316-10.86-2.264-16H320c8.822 0 16 7.18 16 16V448zM294.2 321.8c-7.812-7.812-20.5-7.812-28.31 0L240 347.7l-32.72-32.72C224.4 304.4 236 285.6 236 264c0-33.09-26.91-60-60-60H104C92.97 204 84 212.1 84 224v144c0 11.03 8.969 20 20 20s20-8.969 20-20v-44h35.69l52 52l-25.84 25.84c-7.781 7.812-7.781 20.5 0 28.31C189.8 434.1 194.9 436 200 436s10.25-1.938 14.16-5.844L240 404.3l25.84 25.84C269.8 434.1 274.9 436 280 436s10.25-1.938 14.16-5.844c7.781-7.812 7.781-20.5 0-28.31L268.3 376l25.84-25.84C301.9 342.3 301.9 329.7 294.2 321.8zM176 284H124v-40H176c11.03 0 20 8.969 20 20S187 284 176 284z"/></svg>