<svg xmlns="http://www.w3.org/2000/svg" viewBox="0 0 512 512"><!--! Font Awesome Pro 6.1.1 by @fontawesome - https://fontawesome.com License - https://fontawesome.com/license (Commercial License) Copyright 2022 Fonticons, Inc. --><path d="M280 392C280 405.3 269.3 416 256 416C242.7 416 232 405.3 232 392V280H152C138.7 280 128 269.3 128 256C128 242.7 138.7 232 152 232H256C269.3 232 280 242.7 280 256V392zM256 512C114.6 512 0 397.4 0 256C0 114.6 114.6 0 256 0C397.4 0 512 114.6 512 256C512 397.4 397.4 512 256 512zM464 256C464 141.1 370.9 48 256 48C141.1 48 48 141.1 48 256C48 370.9 141.1 464 256 464C370.9 464 464 370.9 464 256z"/></svg>