<svg xmlns="http://www.w3.org/2000/svg" viewBox="0 0 512 512"><!--! Font Awesome Pro 6.1.1 by @fontawesome - https://fontawesome.com License - https://fontawesome.com/license (Commercial License) Copyright 2022 Fonticons, Inc. --><path d="M232 335.3L211.1 365.3C204.6 376.3 189.7 379.3 178.7 371.1C167.7 364.6 164.7 349.7 172 338.7L236 242.7C241.9 233.9 252.8 229.1 262.1 233C273.1 236.1 280 245.4 280 256V392C280 405.3 269.3 416 256 416C242.7 416 232 405.3 232 392L232 335.3zM0 256C0 114.6 114.6 0 256 0C397.4 0 512 114.6 512 256C512 397.4 397.4 512 256 512C114.6 512 0 397.4 0 256zM256 464C370.9 464 464 370.9 464 256C464 141.1 370.9 48 256 48C141.1 48 48 141.1 48 256C48 370.9 141.1 464 256 464z"/></svg>