<svg xmlns="http://www.w3.org/2000/svg" viewBox="0 0 512 512"><!--! Font Awesome Pro 6.1.1 by @fontawesome - https://fontawesome.com License - https://fontawesome.com/license (Commercial License) Copyright 2022 Fonticons, Inc. --><path d="M232 120C232 106.7 242.7 96 256 96C269.3 96 280 106.7 280 120V256C280 264.9 275.1 272.1 267.3 277.2C259.5 281.3 250.1 280.9 242.7 275.1L146.7 211.1C135.7 204.6 132.7 189.7 140 178.7C147.4 167.7 162.3 164.7 173.3 172L231.1 211.2L232 120zM256 0C397.4 0 512 114.6 512 256C512 397.4 397.4 512 256 512C114.6 512 0 397.4 0 256C0 114.6 114.6 0 256 0zM48 256C48 370.9 141.1 464 256 464C370.9 464 464 370.9 464 256C464 141.1 370.9 48 256 48C141.1 48 48 141.1 48 256z"/></svg>