<svg xmlns="http://www.w3.org/2000/svg" viewBox="0 0 512 512"><!--! Font Awesome Pro 6.0.0-beta3 by @fontawesome - https://fontawesome.com License - https://fontawesome.com/license (Commercial License) Copyright 2021 Fonticons, Inc. --><path d="M448 0H224C188.7 0 160 28.65 160 64v224c0 35.35 28.65 64 64 64h224c35.35 0 64-28.65 64-64V64C512 28.65 483.3 0 448 0zM464 288c0 8.822-7.178 16-16 16H224C215.2 304 208 296.8 208 288V64c0-8.822 7.178-16 16-16h224c8.822 0 16 7.178 16 16V288zM304 448c0 8.822-7.178 16-16 16H64c-8.822 0-16-7.178-16-16V224c0-8.822 7.178-16 16-16h64V160H64C28.65 160 0 188.7 0 224v224c0 35.35 28.65 64 64 64h224c35.35 0 64-28.65 64-64v-64h-48V448z"/></svg>