<svg xmlns="http://www.w3.org/2000/svg" viewBox="0 0 640 512"><!--! Font Awesome Pro 6.0.0-beta3 by @fontawesome - https://fontawesome.com License - https://fontawesome.com/license (Commercial License) Copyright 2021 Fonticons, Inc. --><path d="M208 352h-32C167.2 352 160 359.2 160 368C160 376.8 167.2 384 176 384h32C216.8 384 224 376.8 224 368C224 359.2 216.8 352 208 352zM368 352h-96C263.2 352 256 359.2 256 368C256 376.8 263.2 384 272 384h96c8.836 0 16-7.164 16-16C384 359.2 376.8 352 368 352zM288 304C288 295.2 280.8 288 272 288h-128C135.2 288 128 295.2 128 304C128 312.8 135.2 320 144 320h128C280.8 320 288 312.8 288 304zM464 352h-32c-8.836 0-16 7.162-16 16c0 8.836 7.164 16 16 16h32c8.836 0 16-7.164 16-16C480 359.2 472.8 352 464 352zM496 287.1h-160c-8.836 0-16 7.164-16 16c0 8.838 7.164 16 16 16h160c8.836 0 16-7.162 16-16C512 295.2 504.8 287.1 496 287.1zM543.4 214.5C543.5 212.3 544 210.2 544 208C544 146.1 493.9 96 432 96c-11.38 0-22.19 2.203-32.56 5.375C368.9 59.52 319.8 32 264 32C170.8 32 95.44 107.9 96.09 200.8C40.22 220.6 0 273.4 0 336C0 415.5 64.5 480 144 480h360c75.13 0 136-60.89 136-136C640 282.7 599.1 231.4 543.4 214.5zM504 432H144c-52.94 0-96-43.08-96-96c0-40.19 25.75-76.34 64.13-89.98l32.19-11.42C144 196 144.1 201.5 144 197.4C145.4 132.5 198.7 80 264 80c38.41 0 73.63 18.11 96.69 49.66l20.12 27.62l32.66-9.984c48.88-14.95 84.22 25.56 81.97 64.42l-2.219 37.72l36.16 10.98C566.8 271.8 592 305.4 592 344C592 392.5 552.5 432 504 432z"/></svg>