<svg xmlns="http://www.w3.org/2000/svg" viewBox="0 0 576 512"><!--! Font Awesome Pro 6.1.1 by @fontawesome - https://fontawesome.com License - https://fontawesome.com/license (Commercial License) Copyright 2022 Fonticons, Inc. --><path d="M331.1 36.87C340.1 33.72 349.9 32 360 32C395.2 32 425.6 52.68 439.6 82.55C480.2 85.86 512 119.8 512 161.1C512 204.7 476.7 239.1 433.1 239.1H142.9C99.31 239.1 64 204.7 64 161.1C64 118.6 97.76 83.85 139.1 82.34C152.1 34.87 196.4 0 248 0C280.1 0 310.6 14.25 331.1 36.87H331.1zM182.7 130.3H142.9C125.8 130.3 112 144.1 112 161.1C112 178.2 125.8 191.1 142.9 191.1H433.1C450.2 191.1 464 178.2 464 161.1C464 144.1 450.2 130.3 433.1 130.3H403.2L399.1 111.4C395.2 93.44 379.1 80 360 80C351.6 80 343.8 82.58 337.4 87.01L316.2 101.6L303.1 79.46C291.9 60.57 271.4 48 248 48C214.1 48 186.3 74.43 184.1 107.8L182.7 130.3zM84.58 388.3C77.76 399.7 63.02 403.4 51.65 396.6C40.29 389.8 36.6 375 43.42 363.7L91.42 283.7C98.24 272.3 112.1 268.6 124.3 275.4C135.7 282.2 139.4 296.1 132.6 308.3L84.58 388.3zM460.3 275.4C471.7 282.2 475.4 296.1 468.6 308.3L420.6 388.3C413.8 399.7 399 403.4 387.7 396.6C376.3 389.8 372.6 375 379.4 363.7L427.4 283.7C434.2 272.3 448.1 268.6 460.3 275.4zM196.6 388.3C189.8 399.7 175 403.4 163.7 396.6C152.3 389.8 148.6 375 155.4 363.7L203.4 283.7C210.2 272.3 224.1 268.6 236.3 275.4C247.7 282.2 251.4 296.1 244.6 308.3L196.6 388.3zM348.3 275.4C359.7 282.2 363.4 296.1 356.6 308.3L308.6 388.3C301.8 399.7 287 403.4 275.7 396.6C264.3 389.8 260.6 375 267.4 363.7L315.4 283.7C322.2 272.3 336.1 268.6 348.3 275.4zM191.1 464C220.8 464 250.5 448.7 272 430.1C281.1 421.1 294.9 421.1 303.1 430.1C325.5 448.7 355.1 464 383.1 464C412.8 464 442.5 448.7 464 430.1C473.1 421.1 486.8 421.1 495.9 430.1C512.9 445.1 535.2 456.9 557.2 461.8C570.1 464.7 578.3 477.5 575.4 490.5C572.5 503.4 559.6 511.5 546.7 508.6C518 502.2 494.4 488.2 479.1 478.2C451.9 497.7 418.6 512 383.1 512C349.4 512 316.1 497.7 287.1 478.2C259.9 497.7 226.6 512 191.1 512C157.4 512 124.1 497.7 95.98 478.2C81.61 488.2 57.99 502.2 29.31 508.6C16.37 511.5 3.535 503.4 .6339 490.5C-2.267 477.5 5.865 464.7 18.8 461.8C41 456.8 62.76 444.1 79.1 430.1C89.09 421.1 102.8 421.1 111.9 430.1C133.5 448.7 163.1 464 191.1 464L191.1 464z"/></svg>