<svg xmlns="http://www.w3.org/2000/svg" viewBox="0 0 640 512"><!--! Font Awesome Pro 6.1.1 by @fontawesome - https://fontawesome.com License - https://fontawesome.com/license (Commercial License) Copyright 2022 Fonticons, Inc. --><path d="M95.1 208c.0156-61.85 50.15-111.1 111.1-111.1c36.89 0 69.35 18.08 89.76 45.61c7.939-7.496 16.5-14.34 26.21-19.67c3.967-6.971 8.594-13.37 13.52-19.49l-20.26-3.668L301.2 10.21c-1.605-8.883-11.86-13.13-19.27-7.983l-73.94 51.31l-73.94-51.32C126.6-2.922 116.4 1.324 114.8 10.21l-16.01 88.58L10.21 114.8C1.326 116.4-2.922 126.6 2.223 134.1l51.3 73.94l-51.3 73.94c-5.145 7.414-.8982 17.67 7.983 19.27l88.57 15.99l16.01 88.58c1.354 7.488 8.797 11.3 15.56 9.348C129.2 407.5 128 399.9 128 392c0-31.74 9.822-61.36 26.8-86.03C119.9 286.1 96.01 250.5 95.1 208zM127.1 208c.0137 32.79 19.79 60.88 48.03 73.23C187.1 270.9 199.7 262 213.9 255.3C225.5 235.7 241.1 218.8 259.1 205.5c3.357-13.62 9.428-26.13 16.73-37.84C262.8 144 237.4 128 207.1 128C163.8 128 128 163.8 127.1 208zM640 236.8c0-50.75-38.5-92.88-87.75-98.5C532 103.4 494.4 80 452 80c-46 0-85.88 26.38-104.5 66C315.8 159.8 293.1 189.6 288.9 225C266.6 237.8 248.3 256.8 236.8 280.3C191.4 297.6 160 341.1 160 392C160 458.3 213.8 512 280 512h240c66.25 0 120-53.75 120-120c0-32-12.75-60.75-33.25-82.25C626.8 291.6 640 266 640 236.8zM520 464h-240c-39.75 0-72-32.25-72-72c0-37.63 28.88-68 65.5-71.25C280.8 283.9 313 256 352 256c23.88 0 45.13 10.75 59.75 27.25C422.1 276.3 434.6 272 448 272c30.25 0 55.25 20.88 61.1 49C513.3 320.5 516.5 320 520 320c39.75 0 72 32.25 72 72S559.8 464 520 464zM565.6 281.3c-7.875-3.125-15.88-6-24.5-7.5C520.8 243.3 486.4 224 448 224c-9.625 0-19.25 1.25-28.25 3.625C399.5 214.9 376.1 208 352 208c-2.25 0-4.25 .375-6.375 .5c8.75-12.88 22.75-21.88 39.38-22.62c4.875-32.63 32.88-57.75 67-57.75c35.75 0 64.75 27.75 67.5 62.88c6.5-3.125 13.62-5.25 21.25-5.25C569.1 185.8 592 208.6 592 236.9C592 256 581.3 272.6 565.6 281.3z"/></svg>