<svg xmlns="http://www.w3.org/2000/svg" viewBox="0 0 512 512"><!--! Font Awesome Pro 6.1.1 by @fontawesome - https://fontawesome.com License - https://fontawesome.com/license (Commercial License) Copyright 2022 Fonticons, Inc. --><path d="M108 320h296C463.6 320 512 271.5 512 212c0-57.25-44.88-104.3-101.3-107.8C397.3 61.75 357.1 32 312 32c-13.5 0-26.75 2.625-39.25 7.75C250.3 14.5 218.4 0 184 0c-64 0-116.4 50.25-119.8 113.4C25.63 130.4 0 168.5 0 212C0 271.5 48.38 320 108 320zM94.38 153.8l20.75-4.875L112.4 124C112.3 122.8 112 121.4 112 120c0-39.75 32.25-72 72-72c25.25 0 48.25 13.12 61.38 35.13l13.38 22.12l21-15C289.4 83.63 300.5 80 312 80c28.62 0 52.38 21.75 55.25 50.38L369.5 152H404c33.13 0 60 26.88 60 60S437.1 272 404 272h-296C74.88 272 48 245.1 48 212C48 184 67.13 160 94.38 153.8zM104 392h-16v-16C88 362.8 77.25 352 64 352s-24 10.75-24 24v16h-16C10.75 392 0 402.8 0 416s10.75 24 24 24h16v16C40 469.3 50.75 480 64 480s24-10.75 24-24v-16h16C117.3 440 128 429.3 128 416S117.3 392 104 392zM488 392h-16v-16c0-13.25-10.75-24-24-24s-24 10.75-24 24v16h-16C394.8 392 384 402.8 384 416s10.75 24 24 24h16v16c0 13.25 10.75 24 24 24s24-10.75 24-24v-16h16c13.25 0 24-10.75 24-24S501.3 392 488 392zM296 424h-16v-16c0-13.25-10.75-24-24-24s-24 10.75-24 24v16h-16C202.8 424 192 434.8 192 448s10.75 24 24 24h16v16C232 501.3 242.8 512 256 512s24-10.75 24-24v-16h16c13.25 0 24-10.75 24-24S309.3 424 296 424z"/></svg>