<svg xmlns="http://www.w3.org/2000/svg" viewBox="0 0 640 512"><!--! Font Awesome Pro 6.0.0-beta3 by @fontawesome - https://fontawesome.com License - https://fontawesome.com/license (Commercial License) Copyright 2021 Fonticons, Inc. --><path d="M200 464H87.1C74.8 464 64 474.8 64 487.1S74.8 512 87.1 512H200C213.2 512 224 501.2 224 488S213.2 464 200 464zM616 464H295.1C282.8 464 272 474.8 272 487.1S282.8 512 295.1 512H616c13.2 0 24-10.8 24-23.1S629.2 464 616 464zM576 400C576 386.8 565.2 376 552 376h-528C10.8 376 0 386.8 0 399.1C0 413.2 10.8 424 23.1 424h528C565.2 424 576 413.2 576 400zM172 320h296C527.6 320 576 271.5 576 212c0-57.25-44.88-104.2-101.2-107.8C461.2 61.75 421.1 32 376 32c-13.5 0-26.75 2.625-39.25 7.75C314.2 14.5 282.4 0 248 0c-64 0-116.4 50.25-119.8 113.4C89.62 130.4 64 168.5 64 212C64 271.5 112.4 320 172 320zM158.4 153.8L179.2 148.9L176.4 124C176.2 122.8 176 121.4 176 120c0-39.75 32.25-72 72-72c25.25 0 48.25 13.12 61.38 35.12l13.38 22.12l21-15C353.4 83.62 364.5 80 376 80c28.62 0 52.38 21.75 55.25 50.38L433.5 152H468c33.13 0 60 26.88 60 60S501.1 272 468 272h-296C138.9 272 112 245.1 112 212C112 184 131.1 160 158.4 153.8z"/></svg>