<svg xmlns="http://www.w3.org/2000/svg" viewBox="0 0 640 512"><!--! Font Awesome Pro 6.0.0-beta3 by @fontawesome - https://fontawesome.com License - https://fontawesome.com/license (Commercial License) Copyright 2021 Fonticons, Inc. --><path d="M148 176c.0098 18.99 9.012 35.72 22.79 46.71c13.54-32.94 39.09-60.06 72.66-74.8c2.424-4.523 5.293-8.709 8.109-12.93C240.6 123.4 225.2 116 208 116C174.9 116 148 142.9 148 176zM162.5 250.1C137.1 235.5 120 207.9 120 176C120 127.4 159.4 88.01 208 88.01c23.74 0 45.2 9.502 61.03 24.79c10.82-11.24 23.32-20.62 36.88-28.22L300.4 83.59L286.9 8.637c-1.357-7.516-10.04-11.11-16.31-6.754L208 45.31L145.4 1.883C139.2-2.473 130.5 1.121 129.1 8.637L115.6 83.59l-74.94 13.55C33.12 98.5 29.53 107.2 33.88 113.4L77.28 176L33.88 238.6C29.53 244.8 33.12 253.5 40.64 254.9l74.94 13.55l13.54 74.96c1.357 7.516 10.04 11.11 16.31 6.754l26.59-18.46C164.5 314.5 160 295.8 160 276C160 267.5 161 259.1 162.5 250.1zM555.4 183.4C543.4 146.6 508.8 120 468 120c-3.125 0-6.125 .25-9.125 .5C437.3 104.8 411.3 96 384 96c-52.38 0-97.63 31.25-117.3 77.25C223.4 187.3 192 228 192 276c0 47.52 30.93 87.45 73.6 101.9c-3.434-16.45 1.475-33.93 14.14-45.41C256.5 324.2 240 302 240 276c0-33.13 26.88-60 60-60c1.625 0 3.25 .375 4.75 .5C308.6 175.9 342.4 144 384 144c25.25 0 47.38 11.88 62.13 30.12C452.6 170.3 460 168 468 168C492.3 168 512 187.8 512 212c0 1.75-.25 3.375-.5 5.25C539.1 222.6 560 246.8 560 276c0 26.27-17.02 48.38-40.54 56.49c5.658 4.988 10.51 10.93 13.32 18.2c3.387 8.775 3.84 18.18 1.979 27.08C577.2 363.2 608 323.4 608 276C608 237.3 587.3 202.4 555.4 183.4zM488 352h-64.09l43.69-105.9c2.844-6.906 .5156-14.88-5.609-19.19c-6.094-4.281-14.39-3.75-19.95 1.25l-140.8 128c-4.891 4.438-6.547 11.44-4.156 17.62C299.5 379.9 305.4 384 312 384h64.09l-43.69 105.9c-2.844 6.906-.5156 14.88 5.609 19.19C340.8 511 344 512 347.2 512c3.875 0 7.734-1.406 10.77-4.156l140.8-128c4.891-4.438 6.547-11.44 4.156-17.62C500.5 356.1 494.6 352 488 352z"/></svg>