<svg xmlns="http://www.w3.org/2000/svg" viewBox="0 0 576 512"><!--! Font Awesome Pro 6.0.0-beta3 by @fontawesome - https://fontawesome.com License - https://fontawesome.com/license (Commercial License) Copyright 2021 Fonticons, Inc. --><path d="M566.5 261.1C484 276.6 408.2 214.1 408.2 131.8c0-47.39 25.68-90.97 67.44-114.5c6.436-3.609 4.816-13.25-2.492-14.58C464.7 1.25 450.7 0 442.1 0C348.2 0 272 75.14 272 168c0 .5703 .1641 1.094 .1699 1.662c3.479 2.164 7.135 4.008 10.46 6.432C284.4 176 286.2 176 288 176c61.69 0 115.7 42.47 131.3 100.1c20.34 14.92 36.18 34.78 46.64 57.19c42.93-5.99 81.37-27.71 108.2-60.36C578.9 268.1 573.8 259.7 566.5 261.1zM390.8 296.4C383.3 246.4 340 208 288 208c-5.125 0-10.25 .375-15.25 1.125C248.5 188 217.3 176 184 176c-64 0-118.3 45.25-132.4 105.3C19.63 305.1 0 343 0 384c0 70.63 57.38 128 128 128h204c64 0 116-52 116-116C448 354.3 425.3 316.8 390.8 296.4zM332 464H128c-44.25 0-80-35.75-80-80c0-32.75 19.75-61 48.13-73.25C96.75 262.8 135.8 224 184 224c31.25 0 58.38 16.25 74.13 40.75c8.625-5.5 18.87-8.75 29.87-8.75C318.9 255.1 344 281.1 344 312c0 5.875-1.25 11.5-2.875 16.88C374.3 333.4 400 361.5 400 396C400 433.6 369.5 464 332 464z"/></svg>