<svg xmlns="http://www.w3.org/2000/svg" viewBox="0 0 512 512"><!--! Font Awesome Pro 6.1.1 by @fontawesome - https://fontawesome.com License - https://fontawesome.com/license (Commercial License) Copyright 2022 Fonticons, Inc. --><path d="M410.8 104.3C397.3 61.75 358 32 312 32c-13.5 0-26.75 2.625-39.25 7.75C250.3 14.5 218.4 0 184 0c-64 0-116.4 50.25-119.8 113.4C25.63 130.4 0 168.5 0 212C0 271.5 48.38 320 108 320h296C463.6 320 512 271.5 512 212C512 154.8 467.1 107.8 410.8 104.3zM404 272h-296C74.88 272 48 245.1 48 212C48 184 67.13 160 94.38 153.8l20.88-4.875L112.4 124C112.3 122.8 112 121.4 112 120c0-39.75 32.25-72 72-72c25.25 0 48.25 13.12 61.38 35.13l13.38 22.12l21-15C289.4 83.63 300.5 80 312 80c28.62 0 52.38 21.75 55.25 50.38L369.5 152H404c33.13 0 60 26.88 60 60S437.1 272 404 272zM200 384c-13.25 0-24 10.75-24 24v80C176 501.3 186.8 512 200 512S224 501.3 224 488v-80C224 394.8 213.3 384 200 384zM104 352c-13.25 0-24 10.75-24 24v80C80 469.3 90.75 480 104 480S128 469.3 128 456v-80C128 362.8 117.3 352 104 352zM296 352c-13.25 0-24 10.75-24 24v80c0 13.25 10.75 24 24 24S320 469.3 320 456v-80C320 362.8 309.3 352 296 352zM392 384c-13.25 0-24 10.75-24 24v80c0 13.25 10.75 24 24 24S416 501.3 416 488v-80C416 394.8 405.3 384 392 384z"/></svg>