<svg xmlns="http://www.w3.org/2000/svg" viewBox="0 0 512 512"><!--! Font Awesome Pro 6.1.1 by @fontawesome - https://fontawesome.com License - https://fontawesome.com/license (Commercial License) Copyright 2022 Fonticons, Inc. --><path d="M32 448c-17.75 0-32 14.25-32 32s14.25 32 32 32s32-14.25 32-32S49.75 448 32 448zM410.8 104.3C397.3 61.75 357.1 32 312 32c-13.5 0-26.75 2.625-39.25 7.75C250.3 14.5 218.4 0 184 0c-64 0-116.4 50.25-119.8 113.4C25.63 130.4 0 168.5 0 212C0 271.5 48.38 320 108 320h296C463.6 320 512 271.5 512 212C512 154.8 467.1 107.8 410.8 104.3zM404 272h-296C74.88 272 48 245.1 48 212C48 184 67.13 160 94.38 153.8l20.88-4.875L112.4 124C112.3 122.8 112 121.4 112 120c0-39.75 32.25-72 72-72c25.25 0 48.25 13.12 61.38 35.13l13.38 22.12l21-15C289.4 83.63 300.5 80 312 80c28.62 0 52.38 21.75 55.25 50.38L369.5 152H404c33.13 0 60 26.88 60 60S437.1 272 404 272zM256 448c-17.75 0-32 14.25-32 32s14.25 32 32 32s32-14.25 32-32S273.8 448 256 448zM198.8 353.9c-12.17-5.219-26.3 .4062-31.52 12.59l-48 112c-5.219 12.19 .4219 26.31 12.61 31.53C134.1 511.4 138.2 512 141.3 512c9.312 0 18.17-5.438 22.08-14.53l48-112C216.6 373.3 210.1 359.2 198.8 353.9zM81.45 353.9c-12.19-5.219-26.3 .4062-31.52 12.59l-8 18.66c-5.219 12.19 .4219 26.31 12.61 31.53c3.078 1.312 6.281 1.938 9.438 1.938c9.312 0 18.17-5.438 22.08-14.53l8-18.66C99.28 373.3 93.64 359.2 81.45 353.9zM305.5 353.9c-12.19-5.219-26.3 .4062-31.52 12.59l-8 18.66c-5.219 12.19 .4219 26.31 12.61 31.53c3.078 1.312 6.281 1.938 9.438 1.938c9.312 0 18.17-5.438 22.08-14.53l8-18.66C323.3 373.3 317.6 359.2 305.5 353.9zM433.5 353.9c-12.16-5.219-26.28 .4062-31.52 12.59l-48 112c-5.219 12.19 .4219 26.31 12.61 31.53C369.6 511.4 372.8 512 375.1 512c9.312 0 18.17-5.438 22.08-14.53l48-112C451.3 373.3 445.6 359.2 433.5 353.9z"/></svg>