<svg xmlns="http://www.w3.org/2000/svg" viewBox="0 0 576 512"><!--! Font Awesome Pro 6.1.1 by @fontawesome - https://fontawesome.com License - https://fontawesome.com/license (Commercial License) Copyright 2022 Fonticons, Inc. --><path d="M384.5 375.6l-16.75-8.748l5.75-17.1c6.125-19.12-7.501-35.87-25.25-35.87c-6 0-8.5 1.25-27.12 7.124l-8.75-16.75c-10.75-20.62-38.13-20.62-48.75 0l-8.75 16.75C237.2 314.4 234.1 312.9 227.8 312.9c-17.75 0-31.38 16.75-25.25 35.87l5.75 17.1l-16.75 8.748c-20.5 10.62-20.75 37.99 0 48.74l16.75 8.748l-5.75 17.1c-6.25 19.87 8.625 36.37 26.12 36.37c3.625 0 12.5-3.249 26.25-7.624l8.75 16.75c10.75 20.62 38.13 20.62 48.75 0l8.75-16.75c13.88 4.374 22.63 7.624 26.25 7.624c17.62 0 32.38-16.37 26.12-36.37l-5.75-17.1l16.75-8.748C405.2 413.5 405.1 386.2 384.5 375.6zM576 255.1c0-59.24-41.5-110.1-97.63-123.7c-9.5-56.86-59-100.2-118.4-100.2c-12.75 0-25.62 2.247-38 6.496C293.6 13.5 257.1 0 220 0C137.8 0 70.12 64.11 64.38 144.1C24.75 167.6 0 209.6 0 255.1c0 70.61 57.38 127.1 128 127.1h18.5c3.75-13.12 12-24.75 23.75-32.74c-1-5.124-1.125-10.25-.875-15.25H128c-44.12 0-80-35.87-80-79.99c0-32.49 19.38-61.49 49.62-73.86L113.2 175.7L112.4 158.7C112.2 157.3 112.2 155.1 112 155.1c0-59.49 48.38-107.1 108-107.1c30.12 0 58.25 12.37 79.13 34.99l12.25 13.25l16.25-8.124c49-24.87 103.5 12.62 104.4 62.49L429.2 174.7l24.88 1.875C495.6 179.7 528 214.6 528 255.8c0 44.12-35.88 79.99-80 79.99h-41.38c.25 4.999 .125 10.12-.75 15.25c11.75 7.999 19.88 19.62 23.75 32.74H448C518.6 383.9 576 326.6 576 255.1zM64 415.9c-17.75 0-32 14.25-32 31.99c0 17.75 14.25 31.99 32 31.99s32-14.25 32-31.99C96 430.2 81.75 415.9 64 415.9zM512 415.9c-17.75 0-32 14.25-32 31.99c0 17.75 14.25 31.99 32 31.99s32-14.25 32-31.99C544 430.2 529.8 415.9 512 415.9z"/></svg>