<svg xmlns="http://www.w3.org/2000/svg" viewBox="0 0 512 512"><!--! Font Awesome Pro 6.1.1 by @fontawesome - https://fontawesome.com License - https://fontawesome.com/license (Commercial License) Copyright 2022 Fonticons, Inc. --><path d="M368 432C340.1 432 314.1 424.1 291.1 410.3C287.8 407.8 283.8 404.1 280 401.1V464H328C341.3 464 352 474.7 352 488C352 501.3 341.3 512 328 512H184C170.7 512 160 501.3 160 488C160 474.7 170.7 464 184 464H232V401.1C228.2 404.1 224.2 407.8 220 410.3C197.9 424.1 171.9 432 144 432C64.47 432 0 367.5 0 288C0 219.5 47.89 162.1 112 147.6C112 146.4 112 145.2 112 144C112 64.47 176.5 0 256 0C335.5 0 400 64.47 400 144C400 145.2 399.1 146.4 399.1 147.6C464.1 162.1 512 219.5 512 288C512 367.5 447.5 432 368 432V432zM352 144C352 90.98 309 48 256 48C202.1 48 160 90.98 160 144C160 144.8 160 145.6 160 146.4C160.6 169.2 144.9 189.3 122.7 194.4C79.89 204.1 48 242.4 48 288C48 341 90.98 384 144 384C174.1 384 201 370.2 218.7 348.3C227.8 337.1 241.5 330.5 256 330.5C270.5 330.5 284.2 337.1 293.3 348.3C310.1 370.2 337.9 384 368 384C421 384 464 341 464 288C464 242.4 432.1 204.1 389.4 194.4C367.1 189.3 351.4 169.2 351.1 146.4C351.1 145.6 352 144.8 352 144L352 144z"/></svg>