<svg xmlns="http://www.w3.org/2000/svg" viewBox="0 0 576 512"><!--! Font Awesome Pro 6.0.0-beta3 by @fontawesome - https://fontawesome.com License - https://fontawesome.com/license (Commercial License) Copyright 2021 Fonticons, Inc. --><path d="M208.1 71.03c-9.375-9.375-24.56-9.375-33.94 0l-168 168c-9.375 9.375-9.375 24.56 0 33.94l168 168C179.7 445.7 185.9 448 192 448s12.28-2.344 16.97-7.031c9.375-9.375 9.375-24.56 0-33.94L57.94 256l151-151C218.3 95.59 218.3 80.41 208.1 71.03zM568.1 239l-168-168c-9.375-9.375-24.56-9.375-33.94 0s-9.375 24.56 0 33.94L518.1 256l-151 151c-9.375 9.375-9.375 24.56 0 33.94C371.7 445.7 377.9 448 384 448s12.28-2.344 16.97-7.031l168-168C578.3 263.6 578.3 248.4 568.1 239z"/></svg>