<svg xmlns="http://www.w3.org/2000/svg" viewBox="0 0 512 512"><!--! Font Awesome Pro 6.0.0-beta3 by @fontawesome - https://fontawesome.com License - https://fontawesome.com/license (Commercial License) Copyright 2021 Fonticons, Inc. --><path d="M192 96c0-44.19-35.82-80-80-80C67.82 16 32 51.81 32 96c0 35.77 23.62 65.68 56 75.93v168.1C55.63 350.3 32 380.2 32 416c0 44.18 35.82 80 80 80C156.2 496 192 460.2 192 416c0-35.77-23.62-65.69-56-75.93V171.9C168.4 161.7 192 131.8 192 96zM144 416c0 17.64-14.36 32-32 32s-32-14.36-32-32c0-17.65 14.36-32 32-32S144 398.4 144 416zM112 127.1c-17.64 0-32-14.35-32-32c0-17.64 14.36-32 32-32s32 14.36 32 32C144 113.6 129.6 127.1 112 127.1zM424 340.1V248C424 234.8 413.3 224 400 224s-24 10.75-24 24v92.09C343.7 350.4 320 380.3 320 416c0 44.11 35.89 80 80 80c44.11 0 80-35.89 80-80C480 380.3 456.3 350.4 424 340.1zM400 448c-17.64 0-32-14.36-32-32s14.36-32 32-32s32 14.36 32 32S417.6 448 400 448zM433.9 112l39.03-39.03c9.375-9.375 9.375-24.56 0-33.94s-24.56-9.375-33.94 0L400 78.06l-39.03-39.03c-9.375-9.375-24.56-9.375-33.94 0s-9.375 24.56 0 33.94L366.1 112l-39.03 39.03c-9.375 9.375-9.375 24.56 0 33.94C331.7 189.7 337.8 192 344 192s12.28-2.344 16.97-7.031L400 145.9l39.03 39.03C443.7 189.7 449.8 192 456 192s12.28-2.344 16.97-7.031c9.375-9.375 9.375-24.56 0-33.94L433.9 112z"/></svg>