<svg xmlns="http://www.w3.org/2000/svg" viewBox="0 0 640 512"><!--! Font Awesome Pro 6.0.0-beta3 by @fontawesome - https://fontawesome.com License - https://fontawesome.com/license (Commercial License) Copyright 2021 Fonticons, Inc. --><path d="M616 232h-138.4C465.9 155.1 400.1 96 320 96S174.1 155.1 162.4 232H24C10.75 232 0 242.8 0 256s10.75 24 24 24h138.4C174.1 356.9 239.9 416 320 416s145.9-59.11 157.6-136H616C629.3 280 640 269.3 640 256S629.3 232 616 232zM320 368c-61.76 0-112-50.24-112-112S258.2 144 320 144s112 50.24 112 112S381.8 368 320 368z"/></svg>