<svg xmlns="http://www.w3.org/2000/svg" viewBox="0 0 512 512"><!--! Font Awesome Pro 6.0.0-beta3 by @fontawesome - https://fontawesome.com License - https://fontawesome.com/license (Commercial License) Copyright 2021 Fonticons, Inc. --><path d="M428 175L480 32H88C39.4 32 0 71.4 0 120v80C0 213.3 10.75 224 23.1 224S48 213.3 48 200V120c0-22.09 17.91-40 40-40h25.5l34.75 95.5C96.88 215.2 64 276.1 64 344.6c0 51.5 18.62 84.74 49.62 117.7C124.5 473.6 139.5 480 155.1 480l265.8 0c15.53 0 30.66-6.274 41.32-17.57C493.3 429.5 512 396.2 512 344.6C512 276.9 480 215.1 428 175zM411.5 80L382.4 160H193.6L164.5 80H411.5zM114.1 320C121.2 273.8 148.2 234.1 186.2 208h205.9c37.25 26.12 63 66.25 69.75 112H114.1z"/></svg>