<svg xmlns="http://www.w3.org/2000/svg" viewBox="0 0 448 512"><!--! Font Awesome Pro 6.0.0-beta3 by @fontawesome - https://fontawesome.com License - https://fontawesome.com/license (Commercial License) Copyright 2021 Fonticons, Inc. --><path d="M435.8 130.5c-9.9-23.33-65.71-77.27-82.65-84.81C332.1 36.3 309.9 32 287.2 32C219.8 32 148.4 69.66 93.44 124.7c-72.35 72.44-116.1 174.8-81.27 256.8c9.9 23.33 65.7 77.27 82.65 84.81C115.9 475.7 138.1 480 160.9 480c67.34 0 138.7-37.67 193.6-92.7C426.9 314.9 470.6 212.5 435.8 130.5zM127.5 158.6C176.6 109.4 236.3 80 287.1 80c16.24 0 31.5 3.027 45.37 8.998c5.111 3.217 13.72 10.62 22.84 19.31c-23.39 75.84-69.77 121.2-138.7 134.2c-74.55 14.06-129.5 56.87-159.4 121.7c-.2422-.4121-.7031-.9941-.8945-1.365C29 298.3 72.36 213.8 127.5 158.6zM320.5 353.4C271.4 402.6 211.7 432 160.9 432c-16.24 0-31.5-3.027-45.37-9c-5.086-3.199-13.63-10.55-22.7-19.18c20.95-62.9 65.34-101.5 132.7-114.2c78.09-14.67 134.6-63.12 166.1-140.5c.0078 .0156-.0078-.0156 0 0C418.1 213.7 375.6 298.2 320.5 353.4z"/></svg>