<svg xmlns="http://www.w3.org/2000/svg" viewBox="0 0 512 512"><!--! Font Awesome Pro 6.0.0-beta3 by @fontawesome - https://fontawesome.com License - https://fontawesome.com/license (Commercial License) Copyright 2021 Fonticons, Inc. --><path d="M280 328C280 341.3 269.3 352 256 352C242.7 352 232 341.3 232 328V184C232 170.7 242.7 160 256 160C269.3 160 280 170.7 280 184V328zM80 256C80 158.8 158.8 80 256 80C353.2 80 432 158.8 432 256C432 353.2 353.2 432 256 432C158.8 432 80 353.2 80 256zM256 384C326.7 384 384 326.7 384 256C384 185.3 326.7 128 256 128C185.3 128 128 185.3 128 256C128 326.7 185.3 384 256 384zM0 256C0 114.6 114.6 0 256 0C397.4 0 512 114.6 512 256C512 397.4 397.4 512 256 512C114.6 512 0 397.4 0 256zM256 464C370.9 464 464 370.9 464 256C464 141.1 370.9 48 256 48C141.1 48 48 141.1 48 256C48 370.9 141.1 464 256 464z"/></svg>