<svg xmlns="http://www.w3.org/2000/svg" viewBox="0 0 384 512"><!--! Font Awesome Pro 6.0.0-beta3 by @fontawesome - https://fontawesome.com License - https://fontawesome.com/license (Commercial License) Copyright 2021 Fonticons, Inc. --><path d="M181.9 101.6C189.9 112.3 196.1 126.2 200.8 141.3C210.4 171.7 216 212.3 216 256C216 299.7 210.4 340.3 200.8 370.7C196.1 385.8 189.9 399.7 181.9 410.4C174.3 420.7 161.7 432 144 432C126.3 432 113.7 420.7 106.1 410.4C98.1 399.7 91.93 385.8 87.17 370.7C77.56 340.3 72 299.7 72 256C72 212.3 77.56 171.7 87.17 141.3C91.93 126.2 98.1 112.3 106.1 101.6C113.7 91.33 126.3 80 144 80C161.7 80 174.3 91.33 181.9 101.6V101.6zM132.9 356.3C136.7 368 140.6 376.1 144 380.9C147.4 376.1 151.3 368 155.1 356.3C162.8 331.7 168 296.2 168 256C168 215.8 162.8 180.3 155.1 155.7C151.3 143.1 147.4 135.9 144 131.1C140.6 135.9 136.7 143.1 132.9 155.7C125.2 180.3 120 215.8 120 256C120 296.2 125.2 331.7 132.9 356.3V356.3zM144 0H256C326.7 0 384 114.6 384 256C384 397.4 326.7 512 256 512H144C64.47 512 0 397.4 0 256C0 114.6 64.47 0 144 0zM203.1 413.5C225.3 375.6 240 320 240 256C240 191.1 225.3 136.4 203.1 98.51C181.8 59.11 158.7 48 144 48C129.3 48 106.2 59.11 84.01 98.51C62.7 136.4 48 191.1 48 256C48 320 62.7 375.6 84.01 413.5C106.2 452.9 129.3 464 144 464C158.7 464 181.8 452.9 203.1 413.5zM334.3 296C335.4 283.1 336 269.7 336 256C336 242.3 335.4 228.9 334.3 216H286.3C287.4 229 288 242.4 288 256C288 269.6 287.4 282.1 286.3 296H334.3zM282.2 328C278.5 350.8 272.1 372.3 266 392H313.7C320.7 373.3 326.4 351.7 330.3 328H282.2zM256 464C262.8 464 280.2 457.8 299.1 424H252.7C245.3 438.1 237 452.4 227.1 464H256zM313.7 120H266C272.1 139.7 278.5 161.2 282.2 184H330.3C326.4 160.3 320.7 138.7 313.7 120zM299.1 88C280.2 54.21 262.8 48 256 48H227.1C237 59.6 245.3 73.04 252.7 88H299.1zM147.2 127.3C147.3 127.3 147.4 127.2 147.4 127.2L147.2 127.3zM140.6 127.2C140.6 127.2 140.7 127.3 140.8 127.3L140.6 127.2zM140.8 384.7C140.7 384.7 140.6 384.8 140.6 384.8L140.8 384.7zM147.4 384.8C147.4 384.8 147.3 384.7 147.2 384.7z"/></svg>