<svg xmlns="http://www.w3.org/2000/svg" viewBox="0 0 512 512"><!--! Font Awesome Pro 6.0.0-beta3 by @fontawesome - https://fontawesome.com License - https://fontawesome.com/license (Commercial License) Copyright 2021 Fonticons, Inc. --><path d="M308.4 263.1l-61.01-9l-27.38-55.5c-2.25-4.625-7.001-7.5-12-7.5c-5.125 0-9.751 2.875-12 7.5l-27.38 55.5l-61.13 9C102.3 264.6 98.22 268.2 96.59 273.1C95.09 277.8 96.34 283.2 100.1 286.7l44.25 43.25l-10.5 61c-.8751 5 1.125 10.12 5.25 13.12s9.626 3.375 14.13 1l54.75-29.02l54.64 29.02c4.5 2.375 10 2 14.13-1c4.125-3 6.126-8.125 5.375-13.12l-10.5-61l44.25-43.25c3.625-3.5 5-8.875 3.375-13.75C317.6 268.2 313.5 264.6 308.4 263.1zM502.4 9.722c-8.626-8.75-21.38-11.88-33.13-8.25c-28.38 8.5-95.01 29.12-153.3 52.25c-4-10.25-12.13-18.38-22.38-22.25s-21.75-3.125-31.5 1.1c-42.25 22-146.3 79.13-203.5 136.3c-78.13 78.13-78.13 205.4 0 283.5c78.38 78.38 205.3 78.38 283.7 0c57.01-57 114.4-161.2 136.4-203.4c5.125-9.75 5.75-21.12 1.875-31.5c-3.875-10.25-12-18.38-22.38-22.38c23.25-58.5 43.88-124.9 52.38-153.1C514.1 31.1 511 18.35 502.4 9.722zM430.7 237.7c-23.88 44.75-74.01 133.1-122.5 181.5c-28.5 28.63-67.38 44.75-107.8 44.75c-40.5 0-79.26-16.12-107.9-44.75c-59.38-59.37-59.38-156.1 0-215.6c49.13-49.12 141.8-101.1 181.6-122.4c2.5 8 4.375 14.38 11 37.38l25-10.62c47.5-20.5 107.4-40.25 146.3-52.5c-12.25 38.88-31.88 98.5-52.38 146.4l-10.75 24.88C421.6 235.1 424.7 236.1 430.7 237.7z"/></svg>