<svg xmlns="http://www.w3.org/2000/svg" viewBox="0 0 512 512"><!--! Font Awesome Pro 6.1.1 by @fontawesome - https://fontawesome.com License - https://fontawesome.com/license (Commercial License) Copyright 2022 Fonticons, Inc. --><path d="M323.2 103.5l-48.89-93.39C270.8 3.361 263.4 0 256 0S241.2 3.361 237.7 10.08l-48.89 93.39C80.08 127.5 0 208 0 304c0 114.9 114.6 208 256 208s256-93.09 256-208C512 208 431.9 127.5 323.2 103.5zM256 464c-114.7 0-208-71.78-208-160c0-70.83 62.17-134 151.2-153.7L221 145.5L256 78.67l35 66.86l21.82 4.814C401.8 169.1 464 233.2 464 304C464 392.2 370.7 464 256 464z"/></svg>