<svg xmlns="http://www.w3.org/2000/svg" viewBox="0 0 640 512"><!--! Font Awesome Pro 6.1.1 by @fontawesome - https://fontawesome.com License - https://fontawesome.com/license (Commercial License) Copyright 2022 Fonticons, Inc. --><path d="M207.1 158.1L212.7 159.5C231.8 164.1 267.4 175.2 260.1 212.3C257.9 230.2 244.3 241.1 225.1 246.1V254.9C225.1 264.3 217.5 272 208 272C198.5 272 190.9 264.3 190.9 254.9V245.6C183.4 243.1 176 241.6 169.4 239.2L165.7 237.9C156.8 234.7 152.1 224.9 155.3 216C158.4 207.1 168.2 202.5 177.1 205.5L180.1 206.9L181 206.1C187.7 209.4 195.3 212.1 201.2 212.1C212.1 214.8 226 213.1 227.2 206.4C227.1 202.1 228.4 199.7 203.3 192.5L198.3 191C183.4 186.7 148.7 176.4 155 139.7C158.1 121.8 171.6 109.8 190.9 105.7V97.14C190.9 87.69 198.5 79.1 208 79.1C217.5 79.1 225.1 87.69 225.1 97.14V106.3C229.8 107.3 234.9 108.6 241.1 110.8C250 113.9 254.7 123.7 251.6 132.6C248.5 141.5 238.7 146.3 229.8 143.2C224.8 141.4 219.5 139.8 214.7 139C203 137.2 189.1 138.9 188.8 145.6C188.1 149.4 187.7 152.2 207.1 158.1V158.1zM208 352C189.3 352 171.2 349.7 153.9 345.8C123.3 364.8 79.13 384 24.95 384C14.97 384 5.93 378.1 2.018 368.9C-1.896 359.7-.0074 349.1 6.739 341.9C7.26 341.5 29.38 317.4 45.73 285.9C17.18 255.8 0 217.6 0 176C0 78.8 93.13 0 208 0C322.9 0 416 78.8 416 176C416 273.2 322.9 352 208 352zM368 176C368 105.4 296.2 48 208 48C119.8 48 48 105.4 48 176C48 211.2 65.71 237.2 80.57 252.9L104.1 277.8L88.31 308.1C84.74 314.1 80.73 321.9 76.55 328.5C94.26 323.4 111.7 315.5 128.7 304.1L145.4 294.6L164.6 298.1C179.2 302.3 193.8 304 207.1 304C296.2 304 368 246.6 368 176H368zM448 176.6L448 176C448 159.5 445.8 143.5 441.6 128.2C552 132.4 640 209.5 640 304C640 345.6 622.8 383.8 594.3 413.9C610.6 445.4 632.7 469.5 633.3 469.9C640 477.1 641.9 487.7 637.1 496.9C634.1 506.1 625 512 615 512C560.9 512 516.7 492.8 486.1 473.8C468.8 477.7 450.7 480 432 480C350 480 279.1 439.8 245.2 381.5C262.5 379.2 279.1 375.3 294.9 369.9C322.9 407.1 373.9 432 432 432C446.2 432 460.8 430.3 475.4 426.1L494.6 422.6L511.3 432.1C528.3 443.5 545.7 451.4 563.5 456.5C559.3 449.9 555.3 442.1 551.7 436.1L535.9 405.8L559.4 380.9C574.3 365.3 592 339.2 592 304C592 237.7 528.7 183.1 447.1 176.6H448z"/></svg>