<svg xmlns="http://www.w3.org/2000/svg" viewBox="0 0 512 512"><!--! Font Awesome Pro 6.0.0-beta3 by @fontawesome - https://fontawesome.com License - https://fontawesome.com/license (Commercial License) Copyright 2021 Fonticons, Inc. --><path d="M324.2 149.3c-7.031-7.031-18.45-7.031-25.47 0l-18.23 18.23l48.01 48.01l18.24-18.24c7.029-7.035 7.029-18.44 0-25.47L324.2 149.3zM172.9 275.1C171.2 276.7 170.1 278.9 169.6 281.2l-9.521 47.61c-.8379 4.195 2.861 7.898 7.059 7.059l47.61-9.52c2.322-.4687 4.455-1.609 6.131-3.281l90.58-90.57L263.5 184.5L172.9 275.1zM256 31.1c-141.4 0-255.1 93.13-255.1 208c0 47.62 19.91 91.25 52.91 126.3c-14.87 39.5-45.87 72.88-46.37 73.25c-6.623 7-8.373 17.25-4.623 26C5.816 474.3 14.38 480 24 480c61.49 0 109.1-25.75 139.1-46.25c28.87 9 60.16 14.25 92.9 14.25c141.4 0 255.1-93.13 255.1-207.1S397.4 31.1 256 31.1zM256 400c-26.75 0-53.12-4.125-78.36-12.12l-22.75-7.125L135.4 394.5c-14.25 10.12-33.87 21.38-57.49 29c7.373-12.12 14.37-25.75 19.87-40.25l10.62-28l-20.62-21.88C69.81 314.1 48.06 282.3 48.06 240c0-88.25 93.24-160 207.1-160c114.7 0 207.1 71.75 207.1 160S370.8 400 256 400z"/></svg>