<svg xmlns="http://www.w3.org/2000/svg" viewBox="0 0 512 512"><!--! Font Awesome Pro 6.0.0-beta3 by @fontawesome - https://fontawesome.com License - https://fontawesome.com/license (Commercial License) Copyright 2021 Fonticons, Inc. --><path d="M272.1 143c-9.375-9.375-24.56-9.375-33.94 0l-80 80c-9.375 9.375-9.375 24.56 0 33.94s24.56 9.375 33.94 0L232 217.9V320c0 13.25 10.75 24 24 24s24-10.75 24-24V217.9l39.03 39.03C323.7 261.7 329.8 264 336 264s12.28-2.344 16.97-7.031c9.375-9.375 9.375-24.56 0-33.94L272.1 143zM256 32C114.7 32 .0273 125.1 .0273 240c0 47.63 19.91 91.25 52.91 126.3c-14.87 39.5-45.87 72.88-46.37 73.25c-6.623 7-8.373 17.25-4.623 26C5.816 474.3 14.38 480 24 480c61.49 0 109.1-25.75 139.1-46.25C191.1 442.8 223.3 448 256 448C397.4 448 512 354.9 512 240S397.4 32 256 32zM256 400c-26.75 0-53.12-4.125-78.36-12.12l-22.75-7.125L135.4 394.5c-14.25 10.12-33.87 21.38-57.49 29c7.373-12.12 14.37-25.75 19.87-40.25l10.62-28l-20.62-21.88C69.81 314.1 48.06 282.3 48.06 240c0-88.25 93.24-160 207.1-160c114.7 0 207.1 71.75 207.1 160S370.8 400 256 400z"/></svg>