<svg xmlns="http://www.w3.org/2000/svg" viewBox="0 0 640 512"><!--! Font Awesome Pro 6.1.1 by @fontawesome - https://fontawesome.com License - https://fontawesome.com/license (Commercial License) Copyright 2022 Fonticons, Inc. --><path d="M630.8 469.1l-118.1-92.59C552 340 576 292.4 576 240c0-114.9-114.6-207.1-255.1-207.1c-67.74 0-129.1 21.53-174.9 56.47L38.81 5.117c-10.47-8.172-25.49-6.365-33.7 4.073C-3.057 19.63-1.234 34.72 9.188 42.89l591.1 463.1C605.6 510.3 610.8 512 615.1 512c7.125 0 14.17-3.159 18.9-9.191C643.1 492.4 641.2 477.3 630.8 469.1zM474.6 346.6l-290.3-227.5C220.8 94.85 268.1 80 320.1 80c114.8 0 208 71.75 208 160C528.1 281 507.7 318.3 474.6 346.6zM320.1 400c-26.75 0-53.13-4.125-78.38-12.12L218.9 380.8L199.4 394.5c-14.25 10.12-33.88 21.38-57.5 29c7.375-12.12 14.38-25.75 19.88-40.25l10.62-28l-20.62-21.88C133.8 314.1 112.1 282.3 112.1 240c0-16.84 3.438-33.05 9.727-48.3L83.13 161.4C70.92 185.7 64.03 212.2 64.03 239.1c0 47.63 19.91 91.25 52.91 126.3c-14.88 39.5-45.87 72.88-46.37 73.25c-6.625 7-8.374 17.25-4.624 26C69.82 474.3 78.38 480 88 480c61.5 0 109.1-25.75 139.1-46.25c28.88 9 60.15 14.25 92.9 14.25c37.51 0 73.08-6.715 105.2-18.5l-46.13-36.15C360.4 397.6 340.6 400 320.1 400z"/></svg>