<svg xmlns="http://www.w3.org/2000/svg" viewBox="0 0 512 512"><!--! Font Awesome Pro 6.0.0-beta3 by @fontawesome - https://fontawesome.com License - https://fontawesome.com/license (Commercial License) Copyright 2021 Fonticons, Inc. --><path d="M312 144h-112C186.8 144 176 154.8 176 168S186.8 192 200 192h54.06L167 279c-9.375 9.375-9.375 24.56 0 33.94c9.373 9.375 24.56 9.381 33.94 0L288 225.9V280c0 13.25 10.75 24 24 24s24-10.75 24-24v-112C336 154.8 325.3 144 312 144zM256 32C114.6 32 .0273 125.1 .0273 240c0 47.63 19.91 91.25 52.91 126.3c-14.88 39.5-45.87 72.88-46.37 73.25c-6.625 7-8.374 17.25-4.624 26C5.818 474.3 14.38 480 24 480c61.5 0 109.1-25.75 139.1-46.25C191.1 442.8 223.3 448 256 448c141.4 0 255.1-93.13 255.1-208S397.4 32 256 32zM256.1 400c-26.75 0-53.13-4.125-78.38-12.12L154.9 380.8L135.4 394.5c-14.25 10.12-33.88 21.38-57.5 29c7.375-12.12 14.38-25.75 19.88-40.25l10.62-28l-20.62-21.88C69.82 314.1 48.07 282.3 48.07 240c0-88.25 93.25-160 208-160s208 71.75 208 160S370.8 400 256.1 400z"/></svg>