<svg xmlns="http://www.w3.org/2000/svg" viewBox="0 0 512 512"><!--! Font Awesome Pro 6.1.1 by @fontawesome - https://fontawesome.com License - https://fontawesome.com/license (Commercial License) Copyright 2022 Fonticons, Inc. --><path d="M227.5 131.2c8.609-1.953 14.03-10.52 12.08-19.14c-1.953-8.609-10.55-13.95-19.14-12.08c-59.7 13.5-107 60.81-120.5 120.5C97.1 229.1 103.4 237.7 112 239.6C113.2 239.9 114.4 240 115.6 240c7.312 0 13.91-5.047 15.59-12.47C141.1 179.8 179.8 141.1 227.5 131.2zM256 159.1c-53.08 0-96 42.92-96 96c0 53.08 42.92 95.1 96 95.1s96-42.92 96-95.1C352 202.9 309.1 159.1 256 159.1zM256 280C242.8 280 232 269.3 232 256S242.8 232 256 232S280 242.8 280 256S269.3 280 256 280zM256 0C114.6 0 0 114.6 0 256s114.6 256 256 256s256-114.6 256-256S397.4 0 256 0zM256 464c-114.7 0-208-93.31-208-208S141.3 48 256 48s208 93.31 208 208S370.7 464 256 464z"/></svg>