<svg xmlns="http://www.w3.org/2000/svg" viewBox="0 0 640 512"><!--! Font Awesome Pro 6.0.0-beta3 by @fontawesome - https://fontawesome.com License - https://fontawesome.com/license (Commercial License) Copyright 2021 Fonticons, Inc. --><path d="M576 32h-192c-35.35 0-64 28.65-64 64v320c0 35.35 28.65 64 64 64h192c35.35 0 64-28.65 64-64V96C640 60.65 611.3 32 576 32zM592 416c0 8.822-7.178 16-16 16h-192c-8.822 0-16-7.178-16-16V96c0-8.822 7.178-16 16-16h192c8.822 0 16 7.178 16 16V416zM0 96v224c0 35.35 28.65 64 64 64h224v-48H64c-8.822 0-16-7.178-16-16V96c0-8.822 7.178-16 16-16h225.6C292.7 61.67 301 45.24 312.1 32H64C28.65 32 0 60.65 0 96zM120 432C106.7 432 96 442.7 96 456C96 469.3 106.7 480 120 480h192.1c-11.94-13.24-20.25-29.67-23.35-48H120zM479.1 240c-44.18 0-80 35.82-80 80c0 44.18 35.82 80 80 80c44.18 0 79.1-35.82 79.1-80C559.1 275.8 524.2 240 479.1 240zM479.1 352c-17.64 0-32-14.36-32-32s14.36-32 32-32s32 14.36 32 32S497.6 352 479.1 352zM480 176c17.67 0 32-14.33 32-32s-14.33-32-32-32C462.3 112 448 126.3 448 144S462.3 176 480 176z"/></svg>