<svg xmlns="http://www.w3.org/2000/svg" viewBox="0 0 512 512"><!--! Font Awesome Pro 6.1.1 by @fontawesome - https://fontawesome.com License - https://fontawesome.com/license (Commercial License) Copyright 2022 Fonticons, Inc. --><path d="M284.4 187.7C275.4 190.5 265.9 191.1 256 191.1C246.1 191.1 236.6 190.5 227.6 187.7L158.1 306.4C187.9 320.3 221 328 256 328C341.8 328 416.8 281.4 456.1 211.1C463.6 200.5 478.3 196.6 489.8 203.2C501.2 209.9 505.2 224.5 498.5 236C450.2 319.6 359.7 376 256 376C212.2 376 170.7 365.9 133.8 347.1L44.71 500.1C38.02 511.6 23.32 515.4 11.88 508.7C.4368 502-3.408 487.3 3.288 475.9L92.56 323.4C60.41 300.2 33.38 270.4 13.47 236C6.836 224.5 10.76 209.9 22.23 203.2C33.7 196.6 48.39 200.5 55.02 211.1C70.78 239.2 91.9 262.9 116.9 281.7L186.7 162.5C170.2 145.2 160 121.8 160 96C160 42.98 202.1 0 256 0C309 0 352 42.98 352 96C352 121.8 341.8 145.2 325.3 162.5L378.8 253.9C366.2 263.7 352.4 272 337.6 278.6L284.4 187.7zM256 47.1C229.5 47.1 208 69.49 208 95.1C208 122.5 229.5 143.1 256 143.1C282.5 143.1 304 122.5 304 95.1C304 69.49 282.5 47.1 256 47.1zM500.1 508.7C488.7 515.4 473.1 511.6 467.3 500.1L394.4 375.7C408.9 368.5 422.6 360.3 435.7 351.1L508.7 475.9C515.4 487.3 511.6 502 500.1 508.7V508.7z"/></svg>