<svg xmlns="http://www.w3.org/2000/svg" viewBox="0 0 640 512"><!--! Font Awesome Pro 6.0.0-beta3 by @fontawesome - https://fontawesome.com License - https://fontawesome.com/license (Commercial License) Copyright 2021 Fonticons, Inc. --><path d="M616 432H608v-352h8C629.3 80 640 69.25 640 56S629.3 32 616 32H24C10.75 32 0 42.75 0 56S10.75 80 24 80H32v352H24C10.75 432 0 442.8 0 456S10.75 480 24 480h592c13.25 0 24-10.75 24-24S629.3 432 616 432zM560 432h-480v-352h480V432zM192 400c13.25 0 24-10.75 24-24v-240C216 122.8 205.3 112 192 112S168 122.8 168 136v240C168 389.3 178.8 400 192 400zM320 400c13.25 0 24-10.75 24-24v-240c0-13.25-10.75-24-24-24S296 122.8 296 136v240C296 389.3 306.8 400 320 400zM448 400c13.25 0 24-10.75 24-24v-240c0-13.25-10.75-24-24-24s-24 10.75-24 24v240C424 389.3 434.8 400 448 400z"/></svg>