<svg xmlns="http://www.w3.org/2000/svg" viewBox="0 0 512 512"><!--! Font Awesome Pro 6.1.1 by @fontawesome - https://fontawesome.com License - https://fontawesome.com/license (Commercial License) Copyright 2022 Fonticons, Inc. --><path d="M352 320c-17.62 0-32 14.38-32 32s14.38 32 32 32s32-14.38 32-32S369.6 320 352 320zM192 192c0-17.62-14.38-32-32-32s-32 14.38-32 32s14.38 32 32 32S192 209.6 192 192zM192 320c-17.62 0-32 14.38-32 32s14.38 32 32 32c17.62 0 32-14.38 32-32S209.6 320 192 320zM288 224c-17.62 0-32 14.38-32 32s14.38 32 32 32s32-14.38 32-32S305.6 224 288 224zM510.5 255.9C440.5 255 384 198.1 384 128c-70.13 0-127-56.5-127.8-126.5C249.6 .5 242.9 0 236.3 0c-20.62 0-41.13 4.875-59.75 14.38L107.4 49.5c-24.88 12.75-45.13 33-57.88 57.88l-35 68.87C1.752 201.2-2.748 229.5 1.627 257.2l12.13 76.25c4.375 27.62 17.37 53.13 37.12 72.88l54.75 54.87c19.75 19.63 45.13 32.63 72.75 37l76.63 12.13C261.9 511.5 268.9 512 275.8 512c20.62 0 41.25-4.875 59.87-14.38l69.13-35.25c24.87-12.62 45.12-32.88 57.75-57.75l35.13-68.87C510.1 311.1 514.6 283.1 510.5 255.9zM454.9 313.9l-35.12 68.88c-8.125 16-20.88 28.75-36.88 36.87l-69.12 35.25C302 460.9 288.9 464 275.8 464c-4.375 0-8.875-.375-13.13-1l-76.75-12.12C168.3 448 152.3 439.9 139.6 427.2L84.75 372.5c-12.63-12.75-20.88-28.75-23.63-46.5L49 249.8c-2.75-17.88 0-35.63 8.25-51.75l35.13-68.88C100.5 113.2 113.3 100.5 129.1 92.38l69.13-35.25c5.5-2.875 11.38-5 17.38-6.5c17.88 58.88 65.88 104.9 125.8 120.1c15.12 59.75 61.13 107.7 120.1 125.6C459.9 302.5 457.8 308.4 454.9 313.9z"/></svg>