<svg xmlns="http://www.w3.org/2000/svg" viewBox="0 0 512 512"><!--! Font Awesome Pro 6.0.0-beta3 by @fontawesome - https://fontawesome.com License - https://fontawesome.com/license (Commercial License) Copyright 2021 Fonticons, Inc. --><path d="M441.8 .3613c-1.1-.25-4.5-.375-6.1-.375c-12.12 0-23.75 2.875-34.12 8c-3.5-.5-7.125-.7501-10.75-.7501c-7.25 0-14.5 1-21.5 3.125c-9.249 2.625-17.87 7-25.5 12.75c-9.124 .5-18.12 2.5-26.62 6.125c-8.874 4-16.75 9.376-23.37 15.88c-9.124 1.5-17.1 4.75-25.1 9.501c-7.625 4.375-14.37 10-19.87 16.63C238.3 73.62 230 77.49 222.5 82.87C217.5 86.37 213.8 91.12 209.8 95.62C205 89.99 200.3 84.24 194.8 78.87L173.9 57.96C155.8 39.9 124.9 49.25 119.9 74.3L98.54 180.7L37.04 242.1C-10.21 289.4-12.08 364.4 30.54 413.6l60.75 62c27.27 27.27 65.2 40.28 104.9 35.31c29.42-3.678 56.23-18.87 77.21-39.81l57.87-57.75l106.4-21.35c25.05-5.024 34.4-35.94 16.33-54.01l-20.9-20.9c-5.375-5.375-10.87-10.25-16.62-15c3.625-3.375 7.625-6.375 10.5-10.5c5.375-7.375 9.249-15.5 11.5-24c6.1-5.875 12.1-12.88 17.5-20.75c4.5-7.75 7.625-16.25 9.125-25c6.5-6.5 11.87-14.13 15.62-22.5c3.1-8.875 6.125-18.13 6.625-27.5c5.75-7.375 10.12-15.75 12.87-24.63c3.125-10.25 3.1-21.13 2.625-31.75c5.375-10.13 8.5-21.38 8.1-32.88V80.62C514.3 39.49 483.5 3.987 441.8 .3613zM64.41 379.8c-24.12-30.63-21.75-75.5 6.5-103.8l71.75-71.75l18.37-91.63c45.87 46 62.25 102.1 48.87 155.3c-33.75 12-65.5 31.88-92.74 59.25L64.41 379.8zM307.6 369.3L235.9 441c-30.66 30.66-80.83 30.66-111.5-.0001l-26.75-26.75l53.37-53.38c37.87-37.88 85.99-58.38 133.5-58.38c41.12 0 81.87 15.5 114.7 48.5L307.6 369.3zM448 105.4c6.375 7.125 9.374 17.5 6.375 27.63c-2.1 9.626-10.62 16.75-19.5 19.5c4.1 7.875 6.125 18 1.1 27.13c-4.125 9.251-12.37 15-21.62 16.5c4.25 8.375 3.1 18.38-1.125 27c-4.75 8.5-13.5 13.5-22.75 14.25c3.25 8.5 2.375 18.38-3.375 26.38c-4.125 5.75-10.12 8.75-16.37 10.5c-27.12-12.75-56.75-19.63-87.12-19.63c-7.1 0-15.87 .5-23.62 1.375c4.75-39-2.375-78.63-21.37-115.6c1.375-7.25 4.75-14 10.1-18.38c9.499-6.875 19.1-6 26.62-3.5c.7499-9 5.75-17.75 14.25-22.5c13.62-8.125 26.5-1.375 26.87-1.125c1.625-9 7.625-17.25 16.87-21.38c11.5-5 21.75-1.25 27.12 2.25c2.75-9.251 9.999-16.5 19.75-19.25c2.5-.8751 15.1-4.375 27.5 6.875C432.9 18.61 495 81.24 448 105.4z"/></svg>