<svg xmlns="http://www.w3.org/2000/svg" viewBox="0 0 448 512"><!--! Font Awesome Pro 6.0.0-beta3 by @fontawesome - https://fontawesome.com License - https://fontawesome.com/license (Commercial License) Copyright 2021 Fonticons, Inc. --><path d="M386.6 135.5C382.5 112.6 362.6 96 339.4 96h-18.76V48c0-26.51-21.49-48-48-48h-96.5C149.6 0 128.1 21.49 128.1 48L128.1 96H108.6C85.41 96 65.51 112.6 61.41 135.5L.4947 474.4C-2.835 493.3 11.5 512 32.12 512h383.8c20.65 0 34.95-18.69 31.63-37.63L386.6 135.5zM176 48h96V96h-96V48zM51.14 464l57.5-320h230.8l57.5 320H51.14z"/></svg>