<svg xmlns="http://www.w3.org/2000/svg" viewBox="0 0 512 512"><!--! Font Awesome Pro 6.1.1 by @fontawesome - https://fontawesome.com License - https://fontawesome.com/license (Commercial License) Copyright 2022 Fonticons, Inc. --><path d="M128 376C128 380.4 131.6 384 136 384H352V432H136C105.1 432 80 406.9 80 376V128H24C10.75 128 0 117.3 0 104C0 90.75 10.75 80 24 80H80V24C80 10.75 90.75 0 104 0C117.3 0 128 10.75 128 24V376zM384 136C384 131.6 380.4 128 376 128H160V80H376C406.9 80 432 105.1 432 136V384H488C501.3 384 512 394.7 512 408C512 421.3 501.3 432 488 432H432V488C432 501.3 421.3 512 408 512C394.7 512 384 501.3 384 488V136z"/></svg>