<svg xmlns="http://www.w3.org/2000/svg" viewBox="0 0 512 512"><!--! Font Awesome Pro 6.0.0-beta3 by @fontawesome - https://fontawesome.com License - https://fontawesome.com/license (Commercial License) Copyright 2021 Fonticons, Inc. --><path d="M511.1 408c0 13.25-10.75 24-23.1 24H432v56c0 13.25-10.75 24-24 24S384 501.3 384 488V161.9L161.9 384H352v48H120c-22.06 0-40-17.94-40-40V128H24C10.75 128 0 117.3 0 104S10.75 80 24 80H80V24C80 10.75 90.75 0 103.1 0S128 10.75 128 24v326.1L350.1 128H160V80h238.1l72.97-72.97c9.375-9.375 24.56-9.375 33.94 0s9.375 24.56 0 33.94L432 113.9V384h56C501.3 384 511.1 394.8 511.1 408z"/></svg>