<svg xmlns="http://www.w3.org/2000/svg" viewBox="0 0 576 512"><!--! Font Awesome Pro 6.0.0-beta3 by @fontawesome - https://fontawesome.com License - https://fontawesome.com/license (Commercial License) Copyright 2021 Fonticons, Inc. --><path d="M536 96c-22.09 0-40 17.91-40 40c0 8.998 3.521 16.89 8.537 23.57l-89.63 71.7c-5.955 4.764-12.99 7.019-19.94 7.019c-11.61 0-22.98-6.298-28.68-17.7l-57.6-115.2C320 98.34 327.1 86.34 327.1 72C327.1 49.91 310.1 32 288 32S247.1 49.91 247.1 72c0 14.34 7.963 26.34 19.3 33.4L209.7 220.6C204 231.1 192.6 238.3 181 238.3c-6.945 0-13.98-2.255-19.94-7.019l-89.63-71.7C76.48 152.9 79.1 144.1 79.1 136c0-22.09-17.91-40-40-40s-40 17.91-40 40s17.91 40 40 40c.248 0 .457-.1164 .7051-.1203l50.52 277.8C93.99 468.9 107.2 480 122.7 480h330.6c15.46 0 28.72-11.06 31.48-26.27l50.52-277.9C535.5 175.9 535.8 176 536 176C558.1 176 576 158.1 576 136S558.1 96 536 96zM439.9 432H136.1l-33.89-186.4l28.94 23.15c14.14 11.31 31.87 17.54 49.92 17.54c30.53 0 57.97-16.95 71.61-44.23L288 171.3l35.37 70.73c13.64 27.28 41.08 44.23 71.61 44.23c18.06 0 35.79-6.229 49.92-17.54l28.94-23.15L439.9 432z"/></svg>