<svg xmlns="http://www.w3.org/2000/svg" viewBox="0 0 640 512"><!--! Font Awesome Pro 6.1.1 by @fontawesome - https://fontawesome.com License - https://fontawesome.com/license (Commercial License) Copyright 2022 Fonticons, Inc. --><path d="M456.5 262.8l-79.13-79.13l71.38-71.38l-33.88-33.88l-121.1 121c-11.75 11.62-19.88 26.38-23.5 42.38l-28.38 122.5l-106.8 106.7C130.3 475.7 128 481.9 128 488C128 494.9 133.4 512 152 512c6.156 0 12.28-2.344 16.97-7.031l106.9-106.8l122.5-28.25c16-3.625 30.75-11.88 42.38-23.5l121.2-121L528 191.4L456.5 262.8zM406.8 312.6c-5.25 5.25-11.88 9-19.25 10.62l-91.75 21.25L317 252.7c1.625-7.375 5.375-14 10.75-19.25l15.75-15.88l79.13 79.25L406.8 312.6zM640 200C640 206.9 634.6 224 616 224c-6.156 0-12.28-2.344-16.97-7.031l-123.5-123.5c-.0391-.0391 .0391 .0391 0 0l-52.49-52.5C418.3 36.28 416 30.14 416 24C416 10.29 427.2 0 440 0c6.141 0 12.28 2.344 16.97 7.031l123.5 123.5c.0391 .0391-.0391-.0391 0 0l52.49 52.5C637.7 187.7 640 193.9 640 200zM55.26 202.7L40.97 216.1C36.28 221.7 30.16 224 24 224C5.205 224 0 206.8 0 200c0-6.141 2.344-12.28 7.031-16.97l52.49-52.5c.0391-.0391-.0391 .0391 0 0l123.5-123.5C187.7 2.344 193.9 0 200 0C213.7 0 224 11.21 224 24c0 6.141-2.344 12.28-7.031 16.97L202.3 55.62l95.05 94.98L271.1 176.8c-2.609 2.582-4.879 5.447-7.225 8.248L168.4 89.5L164.5 93.46c-.0391 .0391 .0391-.0391 0 0l-75.22 75.22l134.1 133.9l-10.54 45.52l-4.84 4.834c-2.869-2.234-6.098-3.969-8.68-6.551L55.26 202.7zM504.1 471C509.7 475.7 512 481.9 512 488c0 6.861-5.368 24-24 24c-6.156 0-12.28-2.344-16.97-7.031l-96.75-96.63l31.28-7.215c7.553-1.711 14.79-4.422 21.83-7.57L504.1 471z"/></svg>