<svg xmlns="http://www.w3.org/2000/svg" viewBox="0 0 384 512"><!--! Font Awesome Pro 6.1.1 by @fontawesome - https://fontawesome.com License - https://fontawesome.com/license (Commercial License) Copyright 2022 Fonticons, Inc. --><path d="M160 419.6V247.1C160 234.7 170.7 223.1 184 223.1C194.1 223.1 204.2 231.3 207.1 241.4C218.8 235.4 232.1 231.1 246.2 231.1C269.1 231.1 291 241.1 307.2 257.3L312.1 263C322.3 272.4 322.3 287.6 312.1 296.1C303.6 306.3 288.4 306.3 279 296.1L273.3 291.2C266.1 284 256.4 279.1 246.2 279.1C225.1 279.1 208 297.1 208 318.2V424C208 426.5 207.6 428.8 206.1 431C213.1 431.7 219.3 432 225.6 432C271.2 432 312.6 415 344.1 387.1C353.1 378.3 369.1 379.2 377.9 389.1C386.7 399 385.8 414.2 375.9 423C336 458.5 283.3 480 225.6 480C101.2 480 0 379.9 0 256C0 132.1 101.2 32 225.6 32C283.3 32 336 53.55 375.9 88.98C385.8 97.78 386.7 112.9 377.9 122.9C369.1 132.8 353.1 133.7 344.1 124.9C312.6 96.97 271.2 80 225.6 80C127.3 80 48 158.1 48 256C48 330.1 94.31 393.7 160 419.6V419.6z"/></svg>