<svg xmlns="http://www.w3.org/2000/svg" viewBox="0 0 448 512"><!--! Font Awesome Pro 6.0.0-beta3 by @fontawesome - https://fontawesome.com License - https://fontawesome.com/license (Commercial License) Copyright 2021 Fonticons, Inc. --><path d="M363.2 398.6C414.7 358.4 448 294.2 448 223.9C448 99.63 347.7 0 223.1 0C100.3 0 0 98.72 0 222.1c0 70.34 33.25 134.5 84.76 174.7l-46.35 62.09c-4.426 6.221-6.424 13.03-6.424 19.68C31.99 496.5 45.07 512 64.04 512h320c18.97 0 32.05-15.55 32.05-32.22c0-6.512-1.998-13.14-6.424-19.09L363.2 398.6zM296.9 383.5H151.1c-60.73-27.91-103.1-89.32-103.1-160.6c0-97.34 79.01-176.6 176-176.6s176 79.28 176 176.6C400.1 294.2 357.6 355.6 296.9 383.5zM364.4 217.4l-49.66-20.87l-20.73-50.08c-1.002-2.082-3.69-3.72-5.973-3.72c-2.315 0-4.909 1.639-5.911 3.72l-20.61 49.76l-.4063 .3783L211.6 217.4c-2.002 1.009-3.596 3.848-3.596 6.055c0 2.27 1.656 4.982 3.659 5.992l49.66 20.87l20.73 50.14c1.002 2.017 3.596 2.775 5.911 2.838c2.284 0 4.971-1.703 5.973-3.722l20.73-50.07l49.66-20.94c2.033-.1882 3.69-2.901 3.69-6.055C368.1 221.1 366.4 218.4 364.4 217.4zM205.8 139.1L175.8 126.6L163.2 96.72C162.6 95.53 162.8 94.52 160.5 94.52c-2.334 0-3.028 1.004-3.627 2.195L144.3 126.6L114.3 139.1C113 139.7 112 141.3 112 142.7s1.01 2.948 2.241 3.575L144.3 158.7l12.53 29.92c.631 1.254 3.123 2.258 3.627 2.258c.5059 0 2.114-1.004 3.598-3.136l12.56-29.92l29.19-11.54C207 145.6 208 144 208 142.7C208 141.3 207 139.7 205.8 139.1z"/></svg>