<svg xmlns="http://www.w3.org/2000/svg" viewBox="0 0 512 512"><!--! Font Awesome Pro 6.1.1 by @fontawesome - https://fontawesome.com License - https://fontawesome.com/license (Commercial License) Copyright 2022 Fonticons, Inc. --><path d="M236.1 5.865C248.9 1.011 263.1 1.011 275.9 5.865L475.9 81.73C497.6 89.98 512 110.8 512 134.1V377.9C512 401.2 497.6 422 475.9 430.3L275.9 506.1C263.1 510.1 248.9 510.1 236.1 506.1L36.14 430.3C14.39 422 0 401.2 0 377.9V134.1C0 110.8 14.39 89.98 36.14 81.73L236.1 5.865zM258.8 50.74C257 50.05 254.1 50.05 253.2 50.74L63.62 122.6L256 198.2L448.4 122.6L258.8 50.74zM53.16 385.4L232 453.2V240.4L48 168.1V377.9C48 381.2 50.06 384.2 53.16 385.4zM280 453.2L458.8 385.4C461.9 384.2 464 381.2 464 377.9V168.1L280 240.4V453.2z"/></svg>