<svg xmlns="http://www.w3.org/2000/svg" viewBox="0 0 576 512"><!--! Font Awesome Pro 6.0.0-beta3 by @fontawesome - https://fontawesome.com License - https://fontawesome.com/license (Commercial License) Copyright 2021 Fonticons, Inc. --><path d="M448 92.99V207.5L539.9 242.4C561.6 250.6 576 271.5 576 294.7V413.9C576 436.1 562.9 456.2 542.5 465.1L446.2 507.5C432.2 513.7 416.3 513.8 402.2 507.1L288 460.7L173.8 507.1C159.7 513.8 143.8 513.7 129.8 507.5L33.46 465.1C13.13 456.2 0 436.1 0 413.9V294.7C0 271.5 14.39 250.6 36.15 242.4L128 207.5V92.99C128 69.32 142.9 48.2 165.2 40.24L269.2 3.134C281.4-1.209 294.6-1.209 306.8 3.134L410.8 40.24C433.1 48.2 448 69.32 448 92.99V92.99zM290.7 48.34C288.1 47.72 287.1 47.72 285.3 48.34L204.1 77.32L288 109.5L371.9 77.32L290.7 48.34zM264 238.6V151.7L176 117.9V207.2L264 238.6zM312 238.6L400 207.2V117.9L312 151.7V238.6zM176 353.9V455.1L264 418.7V320.2L176 353.9zM52.78 421.2L128 454.3V353.9L48 323.2V413.9C48 417.1 49.88 419.9 52.78 421.2zM400 353.9L312 320.2V418.7L400 455.1V353.9zM448 454.3L523.2 421.2C526.1 419.9 528 417.1 528 413.9V323.2L448 353.9V454.3zM155 250.7C153.2 250 151.3 250.1 149.5 250.7L70.81 280.6L152 311.7L235.9 279.5L155 250.7zM340.1 279.5L424 311.7L505.2 280.6L426.5 250.7C424.7 250.1 422.8 250 420.1 250.7L340.1 279.5z"/></svg>