<svg xmlns="http://www.w3.org/2000/svg" viewBox="0 0 512 512"><!--! Font Awesome Pro 6.0.0-beta3 by @fontawesome - https://fontawesome.com License - https://fontawesome.com/license (Commercial License) Copyright 2021 Fonticons, Inc. --><path d="M474.7 37.48C449.7 12.49 416.9 0 384.2 0s-65.56 12.49-90.54 37.48L169.2 161.8C166.3 160.9 163.3 159.1 160.1 159.1c-17.68 0-32.01 14.33-32.01 32c0 3.242 .9476 6.191 1.844 9.141L37.51 293.5c-50.02 50-50.02 131 0 181C62.49 499.5 95.29 512 128.1 512c31.01 0 61.83-11.59 86.24-33.98c3.132 1.023 6.321 1.977 9.797 1.977c17.68 0 32.01-14.33 32.01-32c0-3.242-.9476-6.191-1.844-9.141l184.8-184.7c2.95 .8965 5.899 1.846 9.142 1.846c17.68 0 32.01-14.33 32.01-32c0-3.475-.9535-6.662-1.977-9.795C524.3 163.1 523.4 86.13 474.7 37.48zM440.7 184.6l-63.16 63.14c-4.385-4.689-10.51-7.713-17.43-7.713c-13.24 0-24.01 10.76-24.01 24c0 6.912 3.025 13.04 7.716 17.42l-159.2 159.2C169.5 455.7 149.4 464 128.1 464s-41.48-8.316-56.58-23.43c-31.21-31.2-31.21-81.96 0-113.2l256.1-256C342.7 56.31 362.8 48 384.2 48c21.39 0 41.48 8.312 56.58 23.42C471.9 102.6 471.9 153.4 440.7 184.6zM160.1 295.1c-13.24 0-24.01 10.76-24.01 24c0 13.24 10.77 24 24.01 24c13.24 0 24.01-10.76 24.01-24C184.1 306.8 173.3 295.1 160.1 295.1zM352.1 103.1c-13.24 0-24.01 10.76-24.01 24c0 13.24 10.77 24 24.01 24c13.24 0 24.01-10.76 24.01-24C376.2 114.8 365.4 103.1 352.1 103.1z"/></svg>