<svg xmlns="http://www.w3.org/2000/svg" viewBox="0 0 448 512"><!--! Font Awesome Pro 6.1.1 by @fontawesome - https://fontawesome.com License - https://fontawesome.com/license (Commercial License) Copyright 2022 Fonticons, Inc. --><path d="M431.9 178C442.8 193.7 448.4 212.4 447.1 231.5C447.5 250.6 441 269 429.4 284.2C417.8 299.3 401.7 310.4 383.4 315.8L356.4 485.2C355.2 492.7 351.4 499.5 345.6 504.4C339.8 509.3 332.5 511.1 324.9 512H300.1L324.1 320H291.9L267.9 512H180.1L156.1 320H123.9L147.9 512H123.1C115.6 512 108.2 509.3 102.5 504.5C96.7 499.6 92.83 492.9 91.55 485.4L64.61 315.8C46.3 310.4 30.18 299.3 18.57 284.2C6.963 269 .4654 250.6 .0171 231.5C-.4315 212.4 5.192 193.7 16.08 178C26.96 162.4 42.54 150.5 60.58 144.3L80.64 133.9C83.09 114.6 92.51 96.85 107.1 83.97C121.7 71.1 140.5 64 160 64H197.5C201.8 64.06 205.9 62.82 209.5 60.45C213 58.08 215.8 54.68 217.3 50.72C219 46.81 219.5 42.47 218.6 38.3C217.8 34.12 215.7 30.29 212.7 27.33C210.4 25.09 208.9 22.24 208.3 19.13C207.7 16.02 207.1 12.8 209.2 9.873C210.4 6.946 212.5 4.445 215.1 2.687C217.7 .9296 220.8-.0057 223.1 0C260.5 .0403 295.6 13.9 322.2 38.77C348.9 63.65 365.1 97.71 367.6 134.1L387.4 144.3C405.5 150.5 421 162.4 431.9 178H431.9zM385.1 261.9C392.8 255.4 397.9 246.4 399.5 236.4C401.1 226.5 399.2 216.3 393.9 207.7C388.7 199 380.6 192.6 371 189.4C369.5 188.9 367.9 188.2 366.5 187.5L337.3 172.4C332.1 169.8 327.7 165.7 324.7 160.7C321.6 155.6 319.1 149.9 320 144C319.1 125.9 314.9 108.1 305.2 92.8C295.5 77.47 281.7 65.19 265.4 57.38C264.5 61.38 263.3 65.3 261.7 69.09C256.5 81.81 247.6 92.68 236.1 100.3C224.7 107.1 211.3 112 197.5 112H160C151.5 112 143.4 115.4 137.4 121.4C131.4 127.4 128 135.5 128 144C128 149.9 126.4 155.6 123.3 160.7C120.3 165.7 115.9 169.8 110.7 172.4L81.54 187.5C80.06 188.2 78.55 188.9 76.99 189.4C67.42 192.6 59.3 199 54.07 207.7C48.85 216.3 46.86 226.5 48.48 236.4C50.09 246.4 55.2 255.4 62.88 261.9C70.57 268.5 80.32 272 90.4 272H357.6C367.7 272 377.4 268.5 385.1 261.9z"/></svg>