<svg xmlns="http://www.w3.org/2000/svg" viewBox="0 0 576 512"><!--! Font Awesome Pro 6.1.1 by @fontawesome - https://fontawesome.com License - https://fontawesome.com/license (Commercial License) Copyright 2022 Fonticons, Inc. --><path d="M480 224c0-35.35-28.65-64-64-64H224V120C224 97.94 241.9 80 264 80h128C405.3 80 416 69.25 416 56S405.3 32 392 32h-128C215.5 32 176 71.47 176 120L175.1 160H160C124.7 160 95.1 188.7 95.1 224c-53.02 0-96 42.98-96 96v64c0 53.02 42.98 96 96 96h384c53.02 0 96-42.98 96-96v-64C576 266.1 533 224 480 224zM96 272h384c26.47 0 48 21.53 48 48v8h-480V320C48 293.5 69.53 272 96 272zM480 432H96c-26.47 0-48-21.53-48-48v-8h480V384C528 410.5 506.5 432 480 432z"/></svg>