<svg xmlns="http://www.w3.org/2000/svg" viewBox="0 0 640 512"><!--! Font Awesome Pro 6.0.0-beta3 by @fontawesome - https://fontawesome.com License - https://fontawesome.com/license (Commercial License) Copyright 2021 Fonticons, Inc. --><path d="M320 458.4C290.9 472.3 258.4 480 224 480C100.3 480 0 379.7 0 256C0 132.3 100.3 32 224 32C258.4 32 290.9 39.73 320 53.56C349.1 39.73 381.6 32 416 32C539.7 32 640 132.3 640 256C640 379.7 539.7 480 416 480C381.6 480 349.1 472.3 320 458.4zM192 256C192 188 222.3 127.2 270 86.08C255.4 82.12 239.9 80 224 80C126.8 80 48 158.8 48 256C48 353.2 126.8 432 224 432C239.9 432 255.4 429.9 270 425.9C222.3 384.8 192 323.1 192 256V256zM388 320C393.9 304.9 397.8 288.8 399.3 272H240.7C242.2 288.8 246.1 304.9 251.1 320H388zM268.5 352C281.9 372.6 299.4 390.1 320 403.5C340.6 390.1 358.1 372.6 371.5 352H268.5zM251.1 192C246.1 207.1 242.2 223.2 240.7 240H399.3C397.8 223.2 393.9 207.1 388 192H251.1zM371.5 160C358.1 139.4 340.6 121.9 320 108.5C299.4 121.9 281.9 139.4 268.5 160H371.5z"/></svg>