<svg xmlns="http://www.w3.org/2000/svg" viewBox="0 0 448 512"><!--! Font Awesome Pro 6.0.0-beta3 by @fontawesome - https://fontawesome.com License - https://fontawesome.com/license (Commercial License) Copyright 2021 Fonticons, Inc. --><path d="M144 32C170.5 32 192 53.49 192 80V176C192 202.5 170.5 224 144 224H120V320C120 342.1 137.9 360 160 360H256V336C256 309.5 277.5 288 304 288H400C426.5 288 448 309.5 448 336V432C448 458.5 426.5 480 400 480H304C277.5 480 256 458.5 256 432V408H160C111.4 408 72 368.6 72 320V224H48C21.49 224 0 202.5 0 176V80C0 53.49 21.49 32 48 32H144zM144 80H48V176H144V80zM400 336H304V432H400V336z"/></svg>