<svg xmlns="http://www.w3.org/2000/svg" viewBox="0 0 576 512"><!--! Font Awesome Pro 6.1.1 by @fontawesome - https://fontawesome.com License - https://fontawesome.com/license (Commercial License) Copyright 2022 Fonticons, Inc. --><path d="M256 32C256 14.33 270.3 0 288 0C305.7 0 320 14.33 320 32C320 49.67 305.7 64 288 64C270.3 64 256 49.67 256 32zM128 288C128 199.6 199.6 128 288 128C376.4 128 448 199.6 448 288C448 376.4 376.4 448 288 448C199.6 448 128 376.4 128 288zM288 264C301.3 264 312 274.7 312 288V397.4C362.3 386.4 400 341.6 400 288C400 226.1 349.9 176 288 176C226.1 176 176 226.1 176 288C176 341.6 213.7 386.4 264 397.4V288C264 274.7 274.7 264 288 264zM576 288C576 305.7 561.7 320 544 320C526.3 320 512 305.7 512 288C512 270.3 526.3 256 544 256C561.7 256 576 270.3 576 288zM0 288C0 270.3 14.33 256 32 256C49.67 256 64 270.3 64 288C64 305.7 49.67 320 32 320C14.33 320 0 305.7 0 288zM128 96C128 113.7 113.7 128 96 128C78.33 128 64 113.7 64 96C64 78.33 78.33 64 96 64C113.7 64 128 78.33 128 96zM448 96C448 78.33 462.3 64 480 64C497.7 64 512 78.33 512 96C512 113.7 497.7 128 480 128C462.3 128 448 113.7 448 96zM128 480C128 497.7 113.7 512 96 512C78.33 512 64 497.7 64 480C64 462.3 78.33 448 96 448C113.7 448 128 462.3 128 480zM448 480C448 462.3 462.3 448 480 448C497.7 448 512 462.3 512 480C512 497.7 497.7 512 480 512C462.3 512 448 497.7 448 480z"/></svg>