<svg xmlns="http://www.w3.org/2000/svg" viewBox="0 0 576 512"><!--! Font Awesome Pro 6.0.0-beta3 by @fontawesome - https://fontawesome.com License - https://fontawesome.com/license (Commercial License) Copyright 2021 Fonticons, Inc. --><path d="M32 256C14.33 256 0 270.3 0 288c0 17.67 14.33 32 32 32s32-14.33 32-32C64 270.3 49.67 256 32 256zM84.35 446.4c-12.5 12.5-12.5 32.76 0 45.26c12.5 12.5 32.76 12.5 45.26 0c12.5-12.5 12.5-32.76 0-45.26C117.1 433.9 96.85 433.9 84.35 446.4zM129.6 129.6c12.5-12.5 12.5-32.76 0-45.25c-12.5-12.5-32.76-12.5-45.26 0c-12.5 12.5-12.5 32.76 0 45.25C96.85 142.1 117.1 142.1 129.6 129.6zM288 64c17.67 0 32-14.33 32-32c0-17.67-14.33-32-32-32C270.3 0 256 14.33 256 32C256 49.67 270.3 64 288 64zM446.4 446.4c-12.5 12.5-12.5 32.76 0 45.26c12.5 12.5 32.76 12.5 45.26 0c12.5-12.5 12.5-32.76 0-45.26S458.9 433.9 446.4 446.4zM544 256c-17.67 0-32 14.33-32 32c0 17.67 14.33 32 32 32s32-14.33 32-32C576 270.3 561.7 256 544 256zM446.4 84.35c-12.5 12.5-12.5 32.76 0 45.25c12.5 12.5 32.76 12.5 45.26 0c12.5-12.5 12.5-32.76 0-45.25C479.2 71.86 458.9 71.86 446.4 84.35zM174.9 401.1c62.48 62.48 163.8 62.48 226.3-.002s62.48-163.8 0-226.3c-62.48-62.49-163.8-62.49-226.3-.002S112.4 338.7 174.9 401.1zM208.8 208.8c37.83-37.83 96.17-42.76 139.5-15.04L271 271c-9.369 9.369-9.369 24.57 0 33.94s24.57 9.369 33.94 0l77.26-77.26c27.72 43.32 22.79 101.7-15.04 139.5c-43.67 43.67-114.7 43.67-158.4 .002C165.1 323.5 165.1 252.5 208.8 208.8z"/></svg>