<svg xmlns="http://www.w3.org/2000/svg" viewBox="0 0 512 512"><!--! Font Awesome Pro 6.1.1 by @fontawesome - https://fontawesome.com License - https://fontawesome.com/license (Commercial License) Copyright 2022 Fonticons, Inc. --><path d="M508.6 185.2l-55.87-111.7c-3.125-6.125-8.125-11.12-14.25-14.25l-111.7-55.87C322.4 1.125 317.4 0 312.5 0h-113C194.6 0 189.6 1.125 185.2 3.375L73.5 59.25C67.38 62.38 62.38 67.38 59.25 73.5L3.375 185.2C1.125 189.6 0 194.6 0 199.5v113c0 4.875 1.125 9.75 3.375 14.25l55.87 111.7c3.125 6.125 8.125 11.12 14.25 14.25l111.7 55.87C189.6 510.9 194.6 512 199.5 512h113c4.875 0 9.75-1.125 14.25-3.375l111.7-55.87c6.125-3.125 11.12-8.125 14.25-14.25l55.87-111.7C510.9 322.2 512 317.4 512 312.5v-113C512 194.6 510.9 189.8 508.6 185.2zM455 185.4l-78.13 104.2L280 241.1v-93.5l140.8-28.12l-1-4.625L455 185.4zM300.5 464h-89l-53-132.4L256 282.9l97.5 48.75L300.5 464zM203.4 48h105.3L373 80.12L256 103.5L139 80.12L203.4 48zM92.25 114.9l-1 4.625L232 147.6v93.5L135.1 289.6L57 185.4L92.25 114.9zM48 308.6v-55.25l58.88 78.5l42 104.9L99.75 412.2L48 308.6zM412.2 412.2l-49.12 24.5l42-104.9L464 253.4v55.25L412.2 412.2z"/></svg>