<svg xmlns="http://www.w3.org/2000/svg" viewBox="0 0 512 512"><!--! Font Awesome Pro 6.0.0-beta3 by @fontawesome - https://fontawesome.com License - https://fontawesome.com/license (Commercial License) Copyright 2021 Fonticons, Inc. --><path d="M256 112C176.5 112 112 176.5 112 256s64.5 144 144 144s144-64.5 144-144S335.5 112 256 112zM256 288C238.4 288 224 273.6 224 256s14.38-32 32-32c17.62 0 32 14.38 32 32S273.6 288 256 288zM488 432H480V96c0-35.35-28.65-64-64-64H96C60.65 32 32 60.65 32 96v336H23.1C10.75 432 0 442.7 0 455.1S10.75 480 23.1 480H488c13.25 0 24-10.75 24-23.1S501.3 432 488 432zM432 432h-352V96c0-8.875 7.125-16 16-16h320c8.875 0 16 7.125 16 16V432z"/></svg>