<svg xmlns="http://www.w3.org/2000/svg" viewBox="0 0 640 512"><!--! Font Awesome Pro 6.1.1 by @fontawesome - https://fontawesome.com License - https://fontawesome.com/license (Commercial License) Copyright 2022 Fonticons, Inc. --><path d="M630.8 469.1l-70.69-55.41C587.6 406.5 608 381.7 608 352V64c0-35.35-28.65-64-64-64H96C79.54 0 64.69 6.334 53.41 16.55L38.81 5.113c-10.47-8.172-25.49-6.359-33.69 4.078C-3.051 19.63-1.234 34.72 9.188 42.89L601.2 506.9C605.6 510.3 610.8 512 615.1 512c7.125 0 14.17-3.159 18.9-9.19C643.1 492.4 641.2 477.3 630.8 469.1zM560 352c0 8.822-7.178 16-16 16h-42.19L94.04 48.4C94.71 48.31 95.3 48 96 48h448c8.822 0 16 7.178 16 16V352zM455.1 464h-50.73L395.7 416h12.31l-61.25-48H96c-8.822 0-16-7.178-16-16V158.9l-48-37.63L32 352c0 35.35 28.65 64 64 64h148.3l-9.6 48H183.1c-13.25 0-24 10.75-24 24s10.75 24 24 24h271.1c13.25 0 24-10.75 24-24S469.2 464 455.1 464zM283.7 464L293.3 416h53.46l9.6 48H283.7z"/></svg>