<svg xmlns="http://www.w3.org/2000/svg" viewBox="0 0 576 512"><!--! Font Awesome Pro 6.1.1 by @fontawesome - https://fontawesome.com License - https://fontawesome.com/license (Commercial License) Copyright 2022 Fonticons, Inc. --><path d="M368 176H320V128c0-8.801-7.199-16-16-16h-32C263.2 112 256 119.2 256 128v48H208C199.2 176 192 183.2 192 191.1V224c0 8.797 7.199 15.1 16 15.1H256v48C256 296.8 263.2 304 272 304h32c8.801 0 16-7.2 16-16v-48h48C376.8 239.1 384 232.8 384 224V191.1C384 183.2 376.8 176 368 176zM512 0H64C28.65 0 0 28.65 0 64v288c0 35.35 28.65 64 64 64h148.3l-9.6 48H152C138.8 464 128 474.8 128 488S138.8 512 152 512h272c13.25 0 24-10.75 24-24s-10.75-24-24-24h-50.73L363.7 416H512c35.35 0 64-28.65 64-64V64C576 28.65 547.3 0 512 0zM251.7 464L261.3 416h53.46l9.6 48H251.7zM528 352c0 8.822-7.178 16-16 16H64c-8.822 0-16-7.178-16-16V64c0-8.822 7.178-16 16-16h448c8.822 0 16 7.178 16 16V352z"/></svg>