<svg xmlns="http://www.w3.org/2000/svg" viewBox="0 0 576 512"><!--! Font Awesome Pro 6.1.1 by @fontawesome - https://fontawesome.com License - https://fontawesome.com/license (Commercial License) Copyright 2022 Fonticons, Inc. --><path d="M191 167c-9.375 9.375-9.375 24.56 0 33.94l80 80c9.375 9.375 24.56 9.375 33.94 0l80-80c9.375-9.375 9.375-24.56 0-33.94s-24.56-9.375-33.94 0L312 206.1V24C312 10.75 301.3 0 288 0S264 10.75 264 24v182.1L224.1 167C220.3 162.3 214.2 160 208 160S195.7 162.3 191 167zM512 0h-160v48h160c8.822 0 16 7.178 16 16v288c0 8.822-7.178 16-16 16H64c-8.822 0-16-7.178-16-16V64c0-8.822 7.178-16 16-16h160V0H64C28.65 0 0 28.65 0 64v288c0 35.35 28.65 64 64 64h148.3l-9.6 48H152C138.8 464 128 474.8 128 488S138.8 512 152 512h272c13.25 0 24-10.75 24-24s-10.75-24-24-24h-50.73L363.7 416H512c35.35 0 64-28.65 64-64V64C576 28.65 547.3 0 512 0zM251.7 464L261.3 416h53.46l9.6 48H251.7z"/></svg>