<svg xmlns="http://www.w3.org/2000/svg" viewBox="0 0 576 512"><!--! Font Awesome Pro 6.1.1 by @fontawesome - https://fontawesome.com License - https://fontawesome.com/license (Commercial License) Copyright 2022 Fonticons, Inc. --><path d="M448 112C448 120.8 440.8 128 432 128C423.2 128 416 120.8 416 112C416 103.2 423.2 96 432 96C440.8 96 448 103.2 448 112zM64.23 220.2C63.13 219.8 62.05 219.5 60.97 219.1C33.58 209.5 11.94 186.7 4.597 157.3L.7168 141.8C-2.498 128.1 5.32 115.9 18.18 112.7C31.04 109.5 44.07 117.3 47.28 130.2L51.16 145.7C55.62 163.5 71.62 176 89.97 176H290.7L317.5 14.89C318.1 6.296 326.4 0 335.1 0C340.7 0 345.1 2.64 349.3 7.126L368 32H444.1C456.8 32 469.1 37.06 478.1 46.06L496 64H528C554.5 64 576 85.49 576 112V144C576 197 533 240 480 240H434.7L432 255.1V448C432 483.3 403.3 512 368 512H352C316.7 512 288 483.3 288 448V379.6C277.6 381.9 266.9 383.4 256 383.8C253.3 383.9 250.7 384 248 384C245.3 384 242.7 383.9 240 383.8C229.1 383.4 218.4 381.9 208 379.6V448C208 483.3 179.3 512 144 512H128C92.65 512 64 483.3 64 448V224C64 222.7 64.08 221.4 64.23 220.2H64.23zM336 319.8V448C336 456.8 343.2 464 352 464H368C376.8 464 384 456.8 384 448V274.3L302.2 224H112.1L112 224.9V448C112 456.8 119.2 464 128 464H144C152.8 464 160 456.8 160 448V319.8L218.4 332.8C227.9 334.9 237.8 336 248 336C258.2 336 268.1 334.9 277.6 332.8L336 319.8zM337.1 189.1L389.1 221.1L394 192H480C506.5 192 528 170.5 528 144V112H476.1L444.1 80H355.3L337.1 189.1z"/></svg>