<svg xmlns="http://www.w3.org/2000/svg" viewBox="0 0 576 512"><!--! Font Awesome Pro 6.1.1 by @fontawesome - https://fontawesome.com License - https://fontawesome.com/license (Commercial License) Copyright 2022 Fonticons, Inc. --><path d="M574.6 304c-4.391-12.5-18.11-19.06-30.59-14.69l-208.3 73.2C318.5 336.9 289.2 320 256 320c-2.023 0-3.917 .4727-5.909 .5957L150.8 16.55C147.6 6.672 138.4 0 127.1 0H24C10.75 0 0 10.75 0 24S10.75 48 24 48h86.59l93.8 287.3C177.8 352.3 160 382 160 416c0 53.02 42.98 96 96 96s96-42.98 96-96c0-2.744-.584-5.326-.8105-8.012l208.8-73.35C572.5 330.2 579 316.5 574.6 304zM256 464c-26.47 0-48-21.53-48-48s21.53-48 48-48s48 21.53 48 48S282.5 464 256 464z"/></svg>