<svg xmlns="http://www.w3.org/2000/svg" viewBox="0 0 512 512"><!--! Font Awesome Pro 6.0.0-beta3 by @fontawesome - https://fontawesome.com License - https://fontawesome.com/license (Commercial License) Copyright 2021 Fonticons, Inc. --><path d="M434.1 138.8L429.4 134.8c9.318-19.63 23.7-42.8 42.81-68.99c10.8-14.93 10.46-33.99-.8613-48.59C462.7 6.119 450.2 0 435.1 0c-2.523 0-5.094 .1973-7.699 .6016c-41.18 6.473-80.86 18.58-118 36.01C278.4 14.77 249.2 1.166 206.1 .3203c-85.27 1.752-157.3 60.3-171.6 139.2C30.16 163 31.19 186.7 37.46 210.1l-12.67 8.445C4.256 232.2-4.727 257.2 2.438 280.7c7.197 23.84 28.17 39.26 53.42 39.26h336.1c13.24 0 24.01-10.77 24.01-24c0-13.23-10.77-24-24.01-24H55.85c-4.912 0-6.768-2.783-7.459-5.117C47.78 264.9 47.37 261.2 51.42 258.5C95.79 228.9 88.16 234 95.31 229.3C85.27 203.5 75.53 181.9 81.67 148.1c10.03-55.26 63.49-98.16 124.4-99.79c28.89 .666 45.37 4.709 99.84 44.16c36.65-18.77 68.93-33.29 118.6-42.54c-40.29 57.64-48.2 87.63-52.41 98.97c51.64 44.19 91.88 71.78 91.88 147.1c0 71.84-60.29 103.1-120 103.1h-50.98l-28.8-44.41c-9.254-12.42-23.91-19.58-39.51-19.58H163.9c-13.96 0-26.4 7.514-32.45 19.61c-5.746 11.49-4.494 25.03 3.268 35.33l24.78 33.06l-24.76 33.02c-7.756 10.38-8.986 23.94-3.215 35.4C137.6 504.5 149.1 512 163.9 512h60.74c15.84 0 30.36-7.303 39.84-20.04L292.1 448h50.96C441.3 448 512 384.1 512 296C512 204.2 459.4 160 434.1 138.8zM225.1 464.6l-35.72-.4121L219.5 424l-29.98-39.1h35.15c.2969 .0527 .6064 .0596 .7451 .0596c.0977 0-.0352 .0254 0 0L251.3 424L225.1 464.6zM135.9 160c0 13.26 10.75 24 24.01 24S183.9 173.3 183.9 160s-10.75-24-24.01-24S135.9 146.7 135.9 160z"/></svg>