<svg xmlns="http://www.w3.org/2000/svg" viewBox="0 0 576 512"><!--! Font Awesome Pro 6.0.0-beta3 by @fontawesome - https://fontawesome.com License - https://fontawesome.com/license (Commercial License) Copyright 2021 Fonticons, Inc. --><path d="M224 288c13.25 0 24-14.37 24-31.1S237.3 224 224 224S200 238.4 200 256S210.8 288 224 288zM288 0C285.5 0 282.9 .382 280.3 1.007l-192 49.75C73.1 54.51 64 67.76 64 82.88V464H24C10.75 464 0 474.7 0 488C0 501.3 10.75 512 24 512H288c17.67 0 32-14.33 32-32V33.13C320 14.38 305.3 0 288 0zM272 464h-160V94.13l160-41.38V464zM552 464H512V128c0-35.35-28.65-64-64-64l-96 .0061V112h96c8.836 0 16 7.162 16 16v352c0 17.67 14.33 32 32 32h56c13.25 0 24-10.75 24-24C576 474.7 565.3 464 552 464z"/></svg>