<svg xmlns="http://www.w3.org/2000/svg" viewBox="0 0 512 512"><!--! Font Awesome Pro 6.1.1 by @fontawesome - https://fontawesome.com License - https://fontawesome.com/license (Commercial License) Copyright 2022 Fonticons, Inc. --><path d="M488.1 23.03c-9.375-9.375-24.56-9.375-33.94 0l-81.38 81.38l-47.03-47.03c-6.127-6.117-14.3-9.35-22.63-9.35c-4.117 0-8.275 .7918-12.24 2.413c-11.97 4.953-19.75 16.63-19.75 29.56v135.1c0 13.25 10.74 23.1 24 23.1h136c12.94 0 24.63-7.797 29.56-19.75c4.969-11.97 2.219-25.72-6.938-34.87l-47.04-47.03l81.38-81.38C498.3 47.59 498.3 32.41 488.1 23.03zM215.1 272h-136c-12.94 0-24.63 7.797-29.56 19.75C45.47 303.7 48.22 317.5 57.37 326.6l47.04 47.03l-81.38 81.38c-9.375 9.375-9.375 24.56 0 33.94s24.56 9.375 33.94 0l81.38-81.38l47.03 47.03c6.127 6.117 14.29 9.367 22.63 9.367c4.117 0 8.279-.8086 12.25-2.43c11.97-4.953 19.75-16.63 19.75-29.56V296C239.1 282.7 229.3 272 215.1 272z"/></svg>