<svg xmlns="http://www.w3.org/2000/svg" viewBox="0 0 448 512"><!--! Font Awesome Pro 6.1.1 by @fontawesome - https://fontawesome.com License - https://fontawesome.com/license (Commercial License) Copyright 2022 Fonticons, Inc. --><path d="M374.1 352.8C377.3 352.3 380.6 352 384 352C419.3 352 448 380.7 448 416C448 451.3 419.3 480 384 480C357.1 480 334.1 463.5 324.7 440H123.3C113.9 463.5 90.86 480 64 480C28.65 480 0 451.3 0 416C0 389.1 16.55 366.1 40 356.7V155.3C16.55 145.9 0 122.9 0 96C0 60.65 28.65 32 64 32C90.86 32 113.9 48.55 123.3 72H324.7C334.1 48.55 357.1 32 384 32C419.3 32 448 60.65 448 96C448 131.3 419.3 160 384 160C380.6 160 377.3 159.7 374.1 159.2L339.1 217.5C347.2 228.2 352 241.5 352 256C352 270.5 347.2 283.8 339.1 294.5L374.1 352.8zM64 80C55.16 80 48 87.16 48 96C48 104.8 55.16 112 64 112C72.84 112 80 104.8 80 96C80 87.16 72.84 80 64 80zM88 356.7C104 363.1 116.9 375.1 123.3 392H324.7C326.8 386.8 329.5 381.9 332.9 377.5L297.9 319.2C294.7 319.7 291.4 320 288 320C252.7 320 224 291.3 224 256C224 220.7 252.7 192 288 192C291.4 192 294.7 192.3 297.9 192.8L332.9 134.5C329.5 130.1 326.8 125.2 324.7 120H123.3C116.9 136 104 148.9 88 155.3V356.7zM384 80C375.2 80 368 87.16 368 96C368 104.8 375.2 112 384 112C392.8 112 400 104.8 400 96C400 87.16 392.8 80 384 80zM64 432C72.84 432 80 424.8 80 416C80 407.2 72.84 400 64 400C55.16 400 48 407.2 48 416C48 424.8 55.16 432 64 432zM384 400C375.2 400 368 407.2 368 416C368 424.8 375.2 432 384 432C392.8 432 400 424.8 400 416C400 407.2 392.8 400 384 400zM288 272C296.8 272 304 264.8 304 256C304 247.2 296.8 240 288 240C279.2 240 272 247.2 272 256C272 264.8 279.2 272 288 272z"/></svg>