<svg xmlns="http://www.w3.org/2000/svg" viewBox="0 0 448 512"><!--! Font Awesome Pro 6.0.0-beta3 by @fontawesome - https://fontawesome.com License - https://fontawesome.com/license (Commercial License) Copyright 2021 Fonticons, Inc. --><path d="M384 352c-3.375 0-6.625 .5-9.75 1L339 294.2C347 283.6 352 270.4 352 256c0-14.38-5-27.62-13-38.25l35.25-58.75C377.4 159.5 380.6 160 384 160c35.38 0 64-28.62 64-64s-28.62-64-64-64c-26.88 0-49.75 16.5-59.25 40H123.2C113.8 48.5 90.88 32 64 32C28.62 32 0 60.62 0 96c0 26.88 16.5 49.75 40 59.25v201.5C16.5 366.2 0 389.1 0 416c0 35.38 28.62 64 64 64c26.88 0 49.75-16.5 59.25-40h201.5C334.2 463.5 357.1 480 384 480c35.38 0 64-28.62 64-64S419.4 352 384 352zM88 356.8V155.2C104 148.8 116.8 136 123.2 120h201.5c2.125 5.25 5 9.875 8.25 14.38L297.8 193C294.6 192.5 291.4 192 288 192c-35.38 0-64 28.62-64 64s28.62 64 64 64c3.375 0 6.625-.5 9.75-1l35.25 58.63c-3.25 4.5-6.125 9.25-8.25 14.38H123.2C116.8 376 104 363.2 88 356.8zM288 240c8.875 0 16 7.125 16 16c0 8.875-7.125 16-16 16S272 264.9 272 256C272 247.1 279.1 240 288 240zM384 80c8.875 0 16 7.125 16 16S392.9 112 384 112S368 104.9 368 96S375.1 80 384 80zM64 80c8.875 0 16 7.125 16 16S72.88 112 64 112S48 104.9 48 96S55.12 80 64 80zM64 432c-8.875 0-16-7.125-16-16s7.125-16 16-16s16 7.125 16 16S72.88 432 64 432zM384 432c-8.875 0-16-7.125-16-16s7.125-16 16-16s16 7.125 16 16S392.9 432 384 432z"/></svg>