<svg xmlns="http://www.w3.org/2000/svg" viewBox="0 0 448 512"><!--! Font Awesome Pro 6.1.1 by @fontawesome - https://fontawesome.com License - https://fontawesome.com/license (Commercial License) Copyright 2022 Fonticons, Inc. --><path d="M448 56C448 42.29 436.8 32 424 32c-6.141 0-12.28 2.344-16.97 7.031l-112.3 112.3l-77.52-77.63c-6.5-6.5-15.18-9.737-23.68-9.737c-8.625 0-17.15 3.237-23.65 9.737L19.62 223.1C6.999 236.5 0 253.5 0 271.3v141.9C0 450.1 29.87 480 66.87 480h141.9c17.62 0 34.63-7.002 47.26-19.63l150.2-150.1c6.5-6.562 9.813-15.13 9.813-23.69c0-8.564-3.313-17.13-9.813-23.69l-77.57-77.57l112.3-112.3C445.7 68.28 448 62.14 448 56zM222.1 426.5C218.5 430.1 213.8 432 208.8 432H66.88C56.5 432 48 423.5 48 413.1V271.3c0-5 1.1-9.75 5.5-13.25l53.25-53.25l168.5 168.5L222.1 426.5zM309.3 339.3l-168.5-168.5l52.63-52.63l168.6 168.5L309.3 339.3z"/></svg>