<svg xmlns="http://www.w3.org/2000/svg" viewBox="0 0 640 512"><!--! Font Awesome Pro 6.0.0-beta3 by @fontawesome - https://fontawesome.com License - https://fontawesome.com/license (Commercial License) Copyright 2021 Fonticons, Inc. --><path d="M630.8 469.1l-137.1-107.5c1.426-9.035 2.305-18.31 2.305-27.76c0-111.8-99.75-153.2-146.8-311.7C345.3 7.503 332.6 0 319.1 0c-12.38 0-24.74 7.253-29.24 22.13C274.3 77.58 251.3 118.7 228.4 153.7L38.81 5.11C34.41 1.672 29.19 .0002 24.03 .0002c-7.125 0-14.19 3.156-18.91 9.187c-8.188 10.44-6.375 25.53 4.062 33.7l591.1 463.1c10.5 8.203 25.56 6.328 33.69-4.078C643.1 492.4 641.2 477.3 630.8 469.1zM266.3 183.4C284.6 155.7 303.8 123.6 320 83.63c23.12 56.88 52 98.13 76.25 132.8c29.03 41.51 48.7 70.11 51.24 109L266.3 183.4zM320 464c-70.63 0-128-58.38-128-130.1c0-26.34 7.729-47.64 20.8-70.4l-38.03-29.81C156.6 263.9 144 294.6 144 333.9C144 432.4 222.8 512 320 512c52.81 0 100-23.6 132.3-60.83l-38.12-29.87C390.8 447.4 357.4 464 320 464zM336 432c8.875 0 16-7.125 16-16s-7.125-16-16-16C291.9 400 256 364.1 256 320c0-8.875-7.125-16-16-16S224 311.1 224 320C224 381.8 274.3 432 336 432z"/></svg>