<svg xmlns="http://www.w3.org/2000/svg" viewBox="0 0 576 512"><!--! Font Awesome Pro 6.1.1 by @fontawesome - https://fontawesome.com License - https://fontawesome.com/license (Commercial License) Copyright 2022 Fonticons, Inc. --><path d="M288 32C129 32 0 89.25 0 160v192c0 70.75 129 128 288 128s288-57.25 288-128V160C576 89.25 447 32 288 32zM288 80c24.25 0 47.75 1.25 69.88 3.5l-11.5 44.62C341.9 145.8 315.6 160 288 160S234.1 145.8 229.6 128.1L218.1 83.5C240.2 81.25 263.8 80 288 80zM229.6 175.5C245.1 185.9 266.6 192 288 192c21 0 41.5-5.875 57.63-16c2.875 21.75 11.5 42 24.75 59C344.6 238.2 317 240 288 240c-29.38 0-57.25-1.875-83.25-5C217.9 217.6 226.8 197.4 229.6 175.5zM174.5 89.5l13 46.12C197.4 170.4 184.1 206.1 157.2 227C91.5 212.8 48 188.1 48 160C48 129.5 99.25 103 174.5 89.5zM528 352c0 27.5-93.5 80-240 80S48 379.5 48 352V230.8C99.62 265.2 187.8 288 288 288s188.4-22.75 240-57.25V352zM418.1 227.1C409.8 221 402.5 213.2 396.9 204.2c-11.75-18.87-15.5-41.13-10.38-62.75l12.12-52.5C475.5 102.4 528 129.1 528 160C528 188.1 484.3 212.9 418.1 227.1z"/></svg>