<svg xmlns="http://www.w3.org/2000/svg" viewBox="0 0 640 512"><!--! Font Awesome Pro 6.1.1 by @fontawesome - https://fontawesome.com License - https://fontawesome.com/license (Commercial License) Copyright 2022 Fonticons, Inc. --><path d="M496 240C557.9 240 608 189.9 608 128h-65.62c-.375-3.375-.5-6.625-1.25-10c-9.25-40.5-41.1-73.63-82.62-83C449.5 33 440.6 32 432 32c-61.87 0-111.1 50.13-111.1 112L319.1 232H260.2c-24.11 0-61.15-10.66-74.64-24.84c-10.97-11.62-27.61-15.31-42.37-9.375C128.4 203.6 118.9 217.6 118.9 233.3C118.9 323.7 192.7 400 279.9 400c13.25 0 23.1-10.75 23.1-24S293.1 352 279.9 352C225.6 352 178.7 309.2 168.9 254.7C195.3 271.2 232.6 280 260.2 280h83.8c13.25 0 23.1-10.75 23.1-24l.043-112c0-35.25 28.75-64 63.1-64c5.25 0 10.5 .625 15.75 1.875c22.75 5.125 41.37 24 46.5 46.75c7.875 35-11.87 61.88-34.87 72.88l-27.37 13L431.1 294.9c22.68 16.17 34.49 42.11 31.55 69.41C459.4 401.6 425.4 432 387.6 432H258.4c-93.18 0-171.6-71.53-178.5-162.8c-.1-13.22-12.45-22.56-25.75-22.12C40.91 248 31 259.6 32 272.8C40.78 388.1 140.2 480 258.4 480h129.3c62.5 0 116.8-48.5 123.6-110.5c3.853-35.71-7.74-69.77-31.22-95.54V240H496zM448 144c0-8.875-7.122-15.1-15.1-15.1S416 135.1 416 144S423.1 160 432 160S448 152.9 448 144z"/></svg>