<svg xmlns="http://www.w3.org/2000/svg" viewBox="0 0 640 512"><!--! Font Awesome Pro 6.0.0-beta3 by @fontawesome - https://fontawesome.com License - https://fontawesome.com/license (Commercial License) Copyright 2021 Fonticons, Inc. --><path d="M418.8 104.2L404.6 32H304.1L304 159.1h60.77C381.1 140.7 399.1 121.8 418.8 104.2zM461.3 104.2c18.25 16.25 35.51 33.62 51.14 51.49c5.751-5.623 11.38-11.12 17.38-16.37l21.26-18.98l21.25 18.98c1.125 .9997 2.125 2.124 3.126 3.124c-.125-.7498 .2501-1.5 0-2.249l-24-95.97c-1.625-7.123-8.127-12.12-15.38-12.12H437.2l12.25 61.5L461.3 104.2zM272.1 32.12H171.5L145.9 160.1h126.1L272.1 32.12zM106.4 400L86.39 240.1h225.4c7.876-15.75 17.45-31.89 28.83-48.01L32.01 192.1l4.001 31.99L24 224.1C10.8 224.1 0 234.9 0 248.1s10.8 23.99 24 23.99h18l22 175.9l.0033 8C64.01 469.2 74.81 480 88.02 480s24-10.8 24-23.99v-7.998l224.8-.0025c-12.75-14.25-23.47-30.36-31.47-47.98H106.4zM16 160.1l97.26-.0223l25.64-127.9h-98.89c-7.251 0-13.75 4.999-15.5 12.12L.5001 140.2C-2 150.3 5.626 160.1 16 160.1zM551.2 163.3c-14.88 13.25-28.38 27.12-40.26 41.12c-19.5-25.74-43.63-51.99-71.01-76.36c-70.14 62.73-120 144.2-120 193.6C319.1 409.1 391.6 480 479.1 480s160-70.87 160-158.3C640.1 285 602.1 209.4 551.2 163.3zM480.1 432c-61.76 0-112-49.49-112-110.3c0-22.62 24.88-74.73 72.26-126.3c22.38 23.62 30.51 35.62 68.51 85.98c40.51-47.74 39.01-45.99 41.01-48.36c26.51 35.37 42.26 73.98 42.26 88.85C592.1 382.5 541.9 432 480.1 432z"/></svg>