<svg xmlns="http://www.w3.org/2000/svg" viewBox="0 0 512 512"><!--! Font Awesome Pro 6.1.1 by @fontawesome - https://fontawesome.com License - https://fontawesome.com/license (Commercial License) Copyright 2022 Fonticons, Inc. --><path d="M64 512C28.65 512 0 483.3 0 448V408C0 396.3 3.116 385.4 8.562 376C3.117 366.6 0 355.7 0 344V303.1C0 292.3 3.125 281.4 8.584 271.1C2.774 261.8-.2701 249.7 .743 236.4C2.918 207.8 9.809 180.4 20.65 155.1C26.78 140.9 36.85 130.7 48.64 124.5C49.22 111.2 54.15 97.78 64.39 86.22C81.19 67.28 100.8 50.84 122.5 37.54C135.7 29.44 149.8 26.95 163 28.73C171.2 18.19 183 10.08 198.1 6.582C216.8 2.269 236.1 0 256 0C275.9 0 295.2 2.269 313.9 6.582C328.1 10.08 340.8 18.19 348.1 28.73C362.2 26.95 376.3 29.44 389.5 37.54C411.2 50.84 430.8 67.28 447.6 86.22C457.8 97.78 462.8 111.2 463.4 124.5C475.2 130.7 485.2 140.9 491.4 155.1C502.2 180.4 509.1 207.8 511.3 236.4C512.3 249.7 509.2 261.8 503.4 271.1C508.9 281.4 512 292.3 512 303.1V344C512 355.7 508.9 366.6 503.4 376C508.9 385.4 512 396.3 512 408V448C512 483.3 483.3 512 448 512H64zM276.4 129.4L276.6 129.5C284.4 130.5 292.2 126.5 295.1 119.2L313.2 73.84C316.3 66.22 313.1 57.68 306 54.36C305.1 53.93 304.1 53.59 303.1 53.35C287.9 49.85 272.2 47.1 256 47.1C239.8 47.1 224.1 49.85 208.9 53.35C207.9 53.59 206.9 53.93 205.1 54.36C198.9 57.68 195.7 66.22 198.8 73.84L216.9 119.2C219.8 126.5 227.6 130.5 235.4 129.5L235.6 129.4C242.3 128.5 249.1 127.1 256 127.1C262.9 127.1 269.7 128.5 276.4 129.4H276.4zM408.3 140.6C415.1 136.1 417.3 127.3 413.5 120.6C413 119.7 412.4 118.9 411.7 118.1C398 102.7 382.1 89.28 364.4 78.47C363.5 77.92 362.6 77.48 361.7 77.14C354.4 74.58 346.2 78.32 342.1 85.73L342.8 86.19L325.5 129.3C325.3 129.9 325.1 130.5 324.9 131.1C322.1 138.2 326.3 145.9 332.6 150.1L332.9 150.2C339.1 154.2 344.1 158.5 350.5 163.3L350.7 163.5C356.6 168.5 365 169.4 371.4 165.2L408.3 140.6zM396.8 241.9C396.9 242.2 396.1 242.5 397.1 242.8C399.1 250.3 405.6 256 413.4 256H448C456.2 256 463 249.8 463.4 241.9C463.4 241.3 463.4 240.6 463.4 240C461.6 216.8 456 194.6 447.2 174.1C446.8 173.1 446.3 172.2 445.7 171.4C441.4 165.2 432.9 163.5 426.1 167.2C425.7 167.5 425.3 167.7 424.9 167.9L392.3 189.7C391.2 190.4 390.3 191.3 389.4 192.2C384.8 197.2 383.8 204.7 386.6 211.2L386.8 211.6C391.2 221.2 394.6 231.3 396.8 241.9V241.9zM400 344C400 344.7 400 345.3 400.1 345.1C401.1 353.9 407.8 360 416 360H448C456.2 360 462.9 353.9 463.9 345.1C463.1 345.3 464 344.7 464 344V303.1C464 303.3 463.1 302.6 463.9 301.1C462.9 294.1 456.1 287.1 448 287.1H416C415.1 287.1 414.3 288.1 413.4 288.2C406.3 289.4 400.7 295.3 400.1 302.6C400 303.1 400 303.5 400 303.1V344zM400 448C400 456.8 407.2 464 416 464H448C456.8 464 464 456.8 464 448V408C464 407.3 463.1 406.7 463.9 406C462.9 398.1 456.2 392 448 392H416C407.8 392 401.1 398.1 400.1 406C400 406.7 400 407.3 400 408V448zM100.3 118.1C99.59 118.9 98.99 119.7 98.49 120.6C94.72 127.3 96.94 136.1 103.7 140.6L140.6 165.2C146.1 169.4 155.4 168.5 161.3 163.5L161.5 163.3C167 158.5 172.9 154.2 179.1 150.2L179.4 150.1C185.7 145.9 189 138.2 187.1 131.1C186.9 130.5 186.7 129.9 186.5 129.3L169.2 86.19L169 85.73C165.8 78.32 157.6 74.58 150.3 77.14C149.4 77.48 148.5 77.92 147.6 78.47C129.9 89.28 113.1 102.7 100.3 118.1L100.3 118.1zM48.61 240C48.56 240.6 48.55 241.3 48.58 241.9C48.97 249.8 55.79 255.1 64 255.1H98.55C106.4 255.1 112.9 250.3 114.9 242.8C115 242.5 115.1 242.2 115.2 241.9C117.4 231.3 120.8 221.2 125.2 211.6L125.4 211.2C128.2 204.7 127.2 197.2 122.6 192.2C121.7 191.3 120.8 190.4 119.7 189.7L87.08 167.9C86.7 167.7 86.3 167.5 85.91 167.2C79.09 163.5 70.6 165.2 66.26 171.4C65.68 172.2 65.18 173.1 64.76 174.1C55.97 194.6 50.37 216.8 48.61 240H48.61zM48 344C48 344.7 48.04 345.3 48.12 345.1C49.1 353.9 55.84 360 64 360H96C104.2 360 110.9 353.9 111.9 345.1C111.1 345.3 112 344.7 112 344V303.1C112 303.5 111.1 303.1 111.9 302.6C111.3 295.3 105.7 289.4 98.55 288.2C97.72 288.1 96.87 287.1 96 287.1H64C55.86 287.1 49.13 294.1 48.13 301.1C48.04 302.6 48 303.3 48 303.1V344zM48 448C48 456.8 55.16 464 64 464H96C104.8 464 112 456.8 112 448V408C112 407.3 111.1 406.7 111.9 406C110.9 398.1 104.2 392 96 392H64C55.84 392 49.1 398.1 48.12 406C48.04 406.7 48 407.3 48 408V448zM272 191.1C272 183.2 264.8 175.1 256 175.1C247.2 175.1 240 183.2 240 191.1V448C240 456.8 247.2 464 256 464C264.8 464 272 456.8 272 448V191.1zM208 223.1C208 215.2 200.8 207.1 192 207.1C183.2 207.1 176 215.2 176 223.1V448C176 456.8 183.2 464 192 464C200.8 464 208 456.8 208 448V223.1zM336 223.1C336 215.2 328.8 207.1 320 207.1C311.2 207.1 304 215.2 304 223.1V448C304 456.8 311.2 464 320 464C328.8 464 336 456.8 336 448V223.1z"/></svg>