<svg xmlns="http://www.w3.org/2000/svg" viewBox="0 0 512 512"><!--! Font Awesome Pro 6.0.0-beta3 by @fontawesome - https://fontawesome.com License - https://fontawesome.com/license (Commercial License) Copyright 2021 Fonticons, Inc. --><path d="M208.6 357.3L169.6 343.8C163.1 341.6 156 341.5 149.5 343.6L134.1 348.4C115.7 354.3 95.67 346.1 86.65 328.9L83.37 322.7C72.8 302.6 81.08 277.7 101.6 267.9L136.9 251.1C139.2 250 141.3 248.4 142.8 246.3L148.1 239.3C155.3 229.7 166.7 224 178.7 224C190.7 224 202.1 229.7 209.3 239.3L213.8 245.4C215.8 247.1 218.7 249.8 221.9 250.5C229.7 252.1 237.7 248.1 242.4 242.6L252.8 228.4C254.8 225.6 258 224 261.5 224C265.9 224 269.9 226.7 271.5 230.8L281.6 256.7C284.4 263.1 288.3 270.7 293.1 276.9L311 299.8C316.8 307.2 320 316.4 320 325.8C320 335.2 316.8 344.4 311 351.8L298.1 367.2C290.7 377.8 278 384 264.6 384C256.2 384 247.1 381.6 240.9 377L215.5 360.6C213.4 359.2 211 358.1 208.6 357.3H208.6zM296 164.7C306.1 174.8 298.9 192 284.7 192H254.8C249.2 192 243.7 190.8 238.5 188.6L195.7 169.5C181.5 163.2 183.8 142.3 199.1 139.2L237.6 131.5C250.8 128.9 264.3 132.1 273.8 142.5L296 164.7zM248 416C248 407.2 255.2 400 264 400H280C288.8 400 296 407.2 296 416C296 424.8 288.8 432 280 432H264C255.2 432 248 424.8 248 416zM431.2 314.9C433.1 323.3 429.4 332.4 421.1 335.2C412.7 337.1 403.6 333.4 400.8 325.1L392.8 301.1C390 292.7 394.6 283.6 402.9 280.8C411.3 278 420.4 282.6 423.2 290.9L431.2 314.9zM371.3 403.3C365.1 409.6 354.9 409.6 348.7 403.3C342.4 397.1 342.4 386.9 348.7 380.7L380.7 348.7C386.9 342.4 397.1 342.4 403.3 348.7C409.6 354.9 409.6 365.1 403.3 371.3L371.3 403.3zM512 256C512 397.4 397.4 512 256 512C114.6 512 0 397.4 0 256C0 114.6 114.6 0 256 0C397.4 0 512 114.6 512 256zM256 48C141.1 48 48 141.1 48 256C48 370.9 141.1 464 256 464C370.9 464 464 370.9 464 256C464 141.1 370.9 48 256 48z"/></svg>