<svg xmlns="http://www.w3.org/2000/svg" viewBox="0 0 512 512"><!--! Font Awesome Pro 6.1.1 by @fontawesome - https://fontawesome.com License - https://fontawesome.com/license (Commercial License) Copyright 2022 Fonticons, Inc. --><path d="M195.9 344.5C204.5 346.6 209.7 355.3 207.5 363.9C205.4 372.5 196.7 377.7 188.1 375.5L156.1 367.5C147.5 365.4 142.3 356.7 144.5 348.1C146.6 339.5 155.3 334.3 163.9 336.5L195.9 344.5zM248.1 347.5C239.5 345.4 234.3 336.7 236.5 328.1L244.5 296.1C246.6 287.5 255.3 282.3 263.9 284.5C272.5 286.6 277.7 295.3 275.5 303.9L267.5 335.9C265.4 344.5 256.7 349.7 248.1 347.5zM334.3 167.2C330.4 175.1 320.7 178.3 312.8 174.3C304.9 170.4 301.7 160.7 305.7 152.8L321.7 120.8C325.6 112.9 335.3 109.7 343.2 113.7C351.1 117.6 354.3 127.3 350.3 135.2L334.3 167.2zM512 256C512 397.4 397.4 512 256 512C114.6 512 0 397.4 0 256C0 114.6 114.6 0 256 0C397.4 0 512 114.6 512 256zM324.9 59.69L308.6 100.6C305.7 107.8 299.6 113.1 292.1 114.1L275.1 119.2C258.4 123.4 251.4 143.2 261.7 156.9L277.8 178.4C283.9 186.6 284.2 197.7 278.6 206.1L267.9 222.2C260.5 233.3 247.1 239.1 234.6 239.1H232.3C216.2 239.1 204.6 255.5 209.3 270.9L215.2 290.8C219.6 305.4 208.7 319.1 193.5 319.1C182.8 319.1 172.1 313.9 168.2 304.3L158.9 285.8C151.6 271.1 132 267.1 120.5 279.5L105.1 294.9C99.41 300.6 91.27 303.1 83.41 301.5L51.68 295.1C69.98 391.3 154.5 464 256 464C304.1 464 348.3 447.7 383.5 420.3L377.6 416L358.1 422.9C339.2 430.3 317.1 421 308.5 401.8L302.1 389.4C294.5 370.5 301.9 348.2 319.1 338.1L356.2 317.1C358.5 316.7 360.4 314.8 361.8 312.6L367.9 303.1C373.1 293.7 384.4 287.1 395.5 287.1C406.7 287.1 417.1 293.7 423.1 303.1L425.1 306.2C428.8 312 435.9 314.7 442.6 312.9L457.2 308.8C461.7 291.9 464 274.2 464 255.1C464 165.3 405.9 88.13 324.9 59.69L324.9 59.69z"/></svg>