<svg xmlns="http://www.w3.org/2000/svg" viewBox="0 0 640 512"><!--! Font Awesome Pro 6.0.0-beta3 by @fontawesome - https://fontawesome.com License - https://fontawesome.com/license (Commercial License) Copyright 2021 Fonticons, Inc. --><path d="M528 128c-8.875 0-16 7.124-16 15.1c0 8.75 7.125 15.99 16 15.99S544 152.8 544 144C544 135.2 536.9 128 528 128zM512 32.05l-61.13-.0591c-3.625-3.75-7.5-7.375-11.75-10.75c-26-19.88-59.37-26.13-91.88-17.38c-18 4.875-33.87 14.88-46.37 28.13L192 32.06c-106 0-192 85.85-192 191.1v111.1c0 8.875 7.125 15.1 16 15.1L32 352v127.1C32 497.6 46.38 512 64 512h80c17.62 0 32-14.38 32-32V407.1c18.5 5.125 66.5 17 128 0v72.88C304 497.6 318.4 512 336 512H416c17.62 0 32-14.37 32-32V288l144-.0276v88c0 13.25-10.75 24-24 24S544 389.2 544 375.1v-7.929c0-8.875-7.125-16.07-16-16.07L512 351.1c-8.875 0-16 7.125-16 16v4.75c0 37.63 27.38 71.25 64.75 74.88C603.8 451.9 640 418.1 640 375.1v-215.1C640 89.28 582.8 32.05 512 32.05zM400 463.1L352 463.1v-119.9c-120.6 33.25-111.1 31.13-224 0v119.9H80V303.1h-32V223.1c0-79.63 64.5-144 144-144h83.25C269.1 106.9 272.8 134.1 286.8 157.4C298.2 176.6 315.8 191.5 336 199.1c0 40.13 27.12 73.75 64 84.25V463.1zM592 207.1c0 17.63-14.38 32-32 32h-136c-22 0-40-18-40-40V162.7c-22.62-4.625-41.88-6.375-56-30c-16.5-27.5-7.5-71.88 31.88-82.63c29.12-7.875 55.5 6.375 66.63 29.88H512c44.13 0 80 35.88 80 80V207.1z"/></svg>