<svg xmlns="http://www.w3.org/2000/svg" viewBox="0 0 128 512"><!--! Font Awesome Pro 6.0.0-beta3 by @fontawesome - https://fontawesome.com License - https://fontawesome.com/license (Commercial License) Copyright 2021 Fonticons, Inc. --><path d="M64 368C90.51 368 112 389.5 112 416C112 442.5 90.51 464 64 464C37.49 464 16 442.5 16 416C16 389.5 37.49 368 64 368zM64 208C90.51 208 112 229.5 112 256C112 282.5 90.51 304 64 304C37.49 304 16 282.5 16 256C16 229.5 37.49 208 64 208zM64 144C37.49 144 16 122.5 16 96C16 69.49 37.49 48 64 48C90.51 48 112 69.49 112 96C112 122.5 90.51 144 64 144z"/></svg>