<svg xmlns="http://www.w3.org/2000/svg" viewBox="0 0 192 512"><!--! Font Awesome Pro 6.1.1 by @fontawesome - https://fontawesome.com License - https://fontawesome.com/license (Commercial License) Copyright 2022 Fonticons, Inc. --><path d="M96 480C60.65 480 32 451.3 32 416C32 380.7 60.65 352 96 352C131.3 352 160 380.7 160 416C160 451.3 131.3 480 96 480zM120 416C120 402.7 109.3 392 96 392C82.75 392 72 402.7 72 416C72 429.3 82.75 440 96 440C109.3 440 120 429.3 120 416zM96 320C60.65 320 32 291.3 32 256C32 220.7 60.65 192 96 192C131.3 192 160 220.7 160 256C160 291.3 131.3 320 96 320zM120 256C120 242.7 109.3 232 96 232C82.75 232 72 242.7 72 256C72 269.3 82.75 280 96 280C109.3 280 120 269.3 120 256zM96 32C131.3 32 160 60.65 160 96C160 131.3 131.3 160 96 160C60.65 160 32 131.3 32 96C32 60.65 60.65 32 96 32zM72 96C72 109.3 82.75 120 96 120C109.3 120 120 109.3 120 96C120 82.75 109.3 72 96 72C82.75 72 72 82.75 72 96z"/></svg>