<svg xmlns="http://www.w3.org/2000/svg" viewBox="0 0 640 512"><!--! Font Awesome Pro 6.0.0-beta3 by @fontawesome - https://fontawesome.com License - https://fontawesome.com/license (Commercial License) Copyright 2021 Fonticons, Inc. --><path d="M544 32H192C156.7 32 128 60.65 128 96v224c0 35.35 28.65 64 64 64h352c35.35 0 64-28.65 64-64V96C608 60.65 579.3 32 544 32zM560 320c0 8.822-7.178 16-16 16H192c-8.822 0-16-7.178-16-16V161.9l120.1 100.1C316.3 278.8 341.8 288 368 288s51.75-9.25 71.97-26.05L560 161.9V320zM560 99.42l-150.8 125.6c-23.19 19.28-59.34 19.27-82.47 .0156L176 99.42V96c0-8.822 7.178-16 16-16h352c8.822 0 16 7.178 16 16V99.42zM488 480H152C85.83 480 32 426.2 32 360v-240C32 106.8 42.75 96 56 96S80 106.8 80 120v240c0 39.7 32.3 72 72 72h336c13.25 0 24 10.75 24 24S501.3 480 488 480z"/></svg>