<svg xmlns="http://www.w3.org/2000/svg" viewBox="0 0 512 512"><!--! Font Awesome Pro 6.0.0-beta3 by @fontawesome - https://fontawesome.com License - https://fontawesome.com/license (Commercial License) Copyright 2021 Fonticons, Inc. --><path d="M497.9 273.1c9.312-9.375 13.97-21.69 13.97-34c0-12.31-4.656-24.63-13.97-34l-159.1-160C328.6 36.66 316.3 32 303.1 32c-12.31 0-24.62 4.656-33.1 13.97L13.97 301.1C4.655 311.4 0 323.7 0 335.1c0 12.31 4.655 24.63 13.97 34l95.1 96c8.963 8.963 21.17 13.1 33.85 14l344.2 .0136C501.3 479.1 512 469.3 512 455.1c0-13.25-10.74-23.1-23.1-24l-148.2-.0269L497.9 273.1zM143.1 431.1l-96-96l119-119l160 160l-55 55H143.1z"/></svg>