<svg xmlns="http://www.w3.org/2000/svg" viewBox="0 0 640 512"><!--! Font Awesome Pro 6.0.0-beta3 by @fontawesome - https://fontawesome.com License - https://fontawesome.com/license (Commercial License) Copyright 2021 Fonticons, Inc. --><path d="M544 96h-96c-23.25 0-45.72 8.438-63.22 23.75L303.9 190.6C303.1 155.9 274.9 128 240 128c-35.35 0-64 28.65-64 64v110.4L155.9 320H96c-53.03 0-96 42.98-96 96s42.97 96 96 96h96c23.25 0 45.72-8.438 63.22-23.75L484.1 288H544c53.03 0 96-42.98 96-96S597 96 544 96zM544 240h-77.97L223.6 452.1C214.9 459.8 203.6 464 192 464H96c-26.47 0-48-21.53-48-48s21.53-48 48-48h77.97l242.4-212.1C425.1 148.2 436.4 144 448 144h96c26.47 0 48 21.53 48 48S570.5 240 544 240zM240 96C266.5 95.9 288 74.46 288 48C288 21.54 266.5 .0996 240 0C213.5 .0996 192 21.54 192 48C192 74.46 213.5 95.9 240 96z"/></svg>