<svg xmlns="http://www.w3.org/2000/svg" viewBox="0 0 448 512"><!--! Font Awesome Pro 6.1.1 by @fontawesome - https://fontawesome.com License - https://fontawesome.com/license (Commercial License) Copyright 2022 Fonticons, Inc. --><path d="M136 32h-112C10.75 32 0 42.75 0 56v112C0 181.3 10.75 192 24 192C37.26 192 48 181.3 48 168V80h88C149.3 80 160 69.25 160 56S149.3 32 136 32zM424 32h-112C298.7 32 288 42.75 288 56c0 13.26 10.75 24 24 24h88v88C400 181.3 410.7 192 424 192S448 181.3 448 168v-112C448 42.75 437.3 32 424 32zM136 432H48v-88C48 330.7 37.25 320 24 320S0 330.7 0 344v112C0 469.3 10.75 480 24 480h112C149.3 480 160 469.3 160 456C160 442.7 149.3 432 136 432zM424 320c-13.26 0-24 10.75-24 24v88h-88c-13.26 0-24 10.75-24 24S298.7 480 312 480h112c13.25 0 24-10.75 24-24v-112C448 330.7 437.3 320 424 320z"/></svg>