<svg xmlns="http://www.w3.org/2000/svg" viewBox="0 0 512 512"><!--! Font Awesome Pro 6.1.1 by @fontawesome - https://fontawesome.com License - https://fontawesome.com/license (Commercial License) Copyright 2022 Fonticons, Inc. --><path d="M136 400H48V312C48 298.7 37.25 288 24 288S0 298.7 0 312v112C0 437.3 10.75 448 24 448h112C149.3 448 160 437.3 160 424C160 410.7 149.3 400 136 400zM136 64h-112C10.75 64 0 74.75 0 88v112C0 213.3 10.75 224 24 224C37.26 224 48 213.3 48 200V112h88C149.3 112 160 101.3 160 88S149.3 64 136 64zM488 64h-112C362.7 64 352 74.75 352 88c0 13.26 10.75 24 24 24h88v88C464 213.3 474.7 224 488 224S512 213.3 512 200v-112C512 74.75 501.3 64 488 64zM488 288c-13.26 0-24 10.75-24 24v88h-88c-13.26 0-24 10.75-24 24S362.7 448 376 448h112c13.25 0 24-10.75 24-24v-112C512 298.7 501.3 288 488 288z"/></svg>