<svg xmlns="http://www.w3.org/2000/svg" viewBox="0 0 512 512"><!--! Font Awesome Pro 6.1.1 by @fontawesome - https://fontawesome.com License - https://fontawesome.com/license (Commercial License) Copyright 2022 Fonticons, Inc. --><path d="M191 160.1C181.7 151.6 181.7 136.4 191 127C200.4 117.7 215.6 117.7 224.1 127L232.1 135L338.2 29.82C357.3 10.73 383.2 0 410.2 0C466.4 0 512 45.59 512 101.8C512 128.8 501.3 154.7 482.2 173.8L376.1 279L384.1 287C394.3 296.4 394.3 311.6 384.1 320.1C375.6 330.3 360.4 330.3 351 320.1L191 160.1zM464 101.8C464 72.1 439.9 48 410.2 48C395.9 48 382.2 53.67 372.1 63.76L266.9 168.1L343 245.1L448.2 139.9C458.3 129.8 464 116.1 464 101.8V101.8zM53.09 328.1L183.4 198.6L313.4 328.6L183 458.9C169.5 472.4 151.2 480 132.1 480H79.27L37.31 507.1C27.79 514.3 15.12 513.1 7.03 504.1C-1.06 496.9-2.315 484.2 4.031 474.7L32 432.7V379.9C32 360.8 39.59 342.5 53.09 328.1H53.09z"/></svg>