<svg xmlns="http://www.w3.org/2000/svg" viewBox="0 0 576 512"><!--! Font Awesome Pro 6.0.0-beta3 by @fontawesome - https://fontawesome.com License - https://fontawesome.com/license (Commercial License) Copyright 2021 Fonticons, Inc. --><path d="M572.5 238.1C518.3 115.5 410.9 32 288 32S57.69 115.6 3.469 238.1C1.563 243.4 0 251 0 256c0 4.977 1.562 12.6 3.469 17.03C57.72 396.5 165.1 480 288 480s230.3-83.58 284.5-206.1C574.4 268.6 576 260.1 576 256C576 251 574.4 243.4 572.5 238.1zM288 432c-99.48 0-191.2-67.5-239.6-175.1C97.01 147.4 188.6 80 288 80c99.48 0 191.2 67.5 239.6 175.1C478.1 364.6 387.4 432 288 432zM288 128C217.3 128 160 185.3 160 256s57.33 128 128 128c70.64 0 128-57.32 128-127.9C416 185.4 358.7 128 288 128zM288 336c-44.11 0-80-35.89-80-80c0-.748 .1992-1.441 .2207-2.184C213.3 255.1 218.5 256 224 256c35.35 0 64-28.65 64-64c0-5.48-.875-10.72-2.184-15.78C286.6 176.2 287.3 176 288 176c44.11 0 80 35.89 80 80.05C368 300.1 332.1 336 288 336z"/></svg>