<svg xmlns="http://www.w3.org/2000/svg" viewBox="0 0 640 512"><!--! Font Awesome Pro 6.1.1 by @fontawesome - https://fontawesome.com License - https://fontawesome.com/license (Commercial License) Copyright 2022 Fonticons, Inc. --><path d="M468 32c-62.9 0-117.9 44.34-147.9 110.1c-10.8-23.89-24.89-45.37-42.23-62.99C247.5 48.31 210.9 32 172 32C77.16 32 0 132.5 0 256s77.16 224 172 224c62.1 0 118-44.48 148-110.4C349.1 435.5 405 480 468 480C562.8 480 640 379.5 640 256S562.8 32 468 32zM172 432c-45.95 0-86.05-35.75-107.5-88.59C73.86 348.7 84.5 352 96 352c35.35 0 64-28.65 64-64S131.3 224 96 224C76.98 224 60.09 232.5 48.37 245.6C52.19 153.4 106.1 80 172 80c25.75 0 50.53 11.34 71.72 32.84C276.4 146.1 296 199.6 296 256C296 353 240.4 432 172 432zM468 432c-44.59 0-83.64-33.7-105.5-83.97C369.3 350.4 376.4 352 384 352c35.35 0 64-28.65 64-64s-28.65-64-64-64c-14.91 0-28.46 5.312-39.34 13.87C351.1 149.3 403.9 80 468 80C536.4 80 592 158.1 592 256S536.4 432 468 432z"/></svg>