<svg xmlns="http://www.w3.org/2000/svg" viewBox="0 0 576 512"><!--! Font Awesome Pro 6.1.1 by @fontawesome - https://fontawesome.com License - https://fontawesome.com/license (Commercial License) Copyright 2022 Fonticons, Inc. --><path d="M288 464C333.3 464 375.1 449.5 409.3 424.1L416.1 427.3C419.6 441.7 426.1 454.5 437.5 463.8C395.4 494.1 343.8 512 288 512C146.6 512 32 397.4 32 256C32 114.6 146.6 0 288 0C429.4 0 544 114.6 544 256C544 258.8 543.1 261.6 543.9 264.5C541.2 264.2 538.5 264 535.8 264C520.6 264 506.6 268.7 494.1 276.7C495.7 269.9 496 262.1 496 256C496 141.1 402.9 48 288 48C173.1 48 80 141.1 80 256C80 370.9 173.1 464 288 464H288zM248 384C248 361.9 265.9 344 288 344C310.1 344 328 361.9 328 384C328 406.1 310.1 424 288 424C265.9 424 248 406.1 248 384zM409 242.3C416.6 234.3 429.2 233.9 437.3 241.4C445.4 248.1 445.8 261.6 438.2 269.7C423.7 285.2 402.1 291.1 383.6 291.1C364.3 291.1 343.6 285.2 329 269.7C321.5 261.6 321.9 248.1 329.9 241.4C338 233.9 350.7 234.3 358.2 242.3C363.7 248.2 372.1 251.1 383.6 251.1C394.3 251.1 403.6 248.2 409 242.3V242.3zM166.2 242.3C171.7 248.2 180.1 251.1 191.6 251.1C202.3 251.1 211.6 248.2 217 242.3C224.6 234.3 237.2 233.9 245.3 241.4C253.4 248.1 253.8 261.6 246.2 269.7C231.7 285.2 210.1 291.1 191.6 291.1C172.3 291.1 151.6 285.2 137 269.7C129.5 261.6 129.9 248.1 137.1 241.4C146 233.9 158.7 234.3 166.2 242.3V242.3zM608 383.1C608 405.1 594.4 423.1 575.4 429.5C575.4 430.3 575.5 431.2 575.5 432C575.5 454.1 557.6 472 535.5 472C521.4 472 508.9 464.6 501.8 453.5C497.5 455.1 492.8 456 487.8 456C465.8 456 447.9 438.1 447.9 416C447.9 413.3 448.1 410.7 448.6 408.2L368 384L447.9 360C447.9 337.9 465.8 319.1 487.8 319.1C491.5 319.1 494.1 320.5 498.3 321.4C504.2 306.5 518.6 295.1 535.5 295.1C557.6 295.1 575.5 313.9 575.5 336C575.5 336.8 575.4 337.7 575.4 338.5C594.4 344.9 608 362.9 608 383.1L608 383.1z"/></svg>