<svg xmlns="http://www.w3.org/2000/svg" viewBox="0 0 512 512"><!--! Font Awesome Pro 6.1.1 by @fontawesome - https://fontawesome.com License - https://fontawesome.com/license (Commercial License) Copyright 2022 Fonticons, Inc. --><path d="M336 400C336 408.8 328.8 416 320 416H192C183.2 416 176 408.8 176 400C176 355.8 211.8 320 256 320C300.2 320 336 355.8 336 400zM184.4 224C184.4 237.3 173.6 248 160.4 248C147.1 248 136.4 237.3 136.4 224C136.4 210.7 147.1 200 160.4 200C173.6 200 184.4 210.7 184.4 224zM80 224C80 179.8 115.8 144 160 144C204.2 144 240 179.8 240 224C240 268.2 204.2 304 160 304C115.8 304 80 268.2 80 224zM160 176C133.5 176 112 197.5 112 224C112 250.5 133.5 272 160 272C186.5 272 208 250.5 208 224C208 197.5 186.5 176 160 176zM328.4 224C328.4 210.7 339.1 200 352.4 200C365.6 200 376.4 210.7 376.4 224C376.4 237.3 365.6 248 352.4 248C339.1 248 328.4 237.3 328.4 224zM432 224C432 268.2 396.2 304 352 304C307.8 304 272 268.2 272 224C272 179.8 307.8 144 352 144C396.2 144 432 179.8 432 224zM352 272C378.5 272 400 250.5 400 224C400 197.5 378.5 176 352 176C325.5 176 304 197.5 304 224C304 250.5 325.5 272 352 272zM512 256C512 397.4 397.4 512 256 512C114.6 512 0 397.4 0 256C0 114.6 114.6 0 256 0C397.4 0 512 114.6 512 256zM427.8 138.8L427.7 138.9C421.7 145.4 411.5 145.7 405.1 139.7C389.6 125.2 370.2 115.7 349 112.9C344.8 112.3 340.4 112 336 112C327.2 112 320 104.8 320 96C320 87.16 327.2 80 336 80C341.8 80 347.6 80.38 353.2 81.13C361.2 82.18 368.9 83.95 376.4 86.37C342.4 62.21 300.9 47.1 256 47.1C211.1 47.1 169.6 62.21 135.6 86.37C143.1 83.95 150.8 82.18 158.8 81.13C164.4 80.38 170.2 80 176 80C184.8 80 192 87.16 192 96C192 104.8 184.8 112 176 112C171.6 112 167.2 112.3 162.1 112.9C141.8 115.7 122.4 125.2 106.9 139.7C100.5 145.7 90.34 145.4 84.31 138.9L84.16 138.8C61.34 172.1 48 212.5 48 256C48 370.9 141.1 464 256 464C370.9 464 464 370.9 464 256C464 212.5 450.7 172.1 427.8 138.8z"/></svg>