<svg xmlns="http://www.w3.org/2000/svg" viewBox="0 0 640 512"><!--! Font Awesome Pro 6.0.0-beta3 by @fontawesome - https://fontawesome.com License - https://fontawesome.com/license (Commercial License) Copyright 2021 Fonticons, Inc. --><path d="M392.4 409.5C382.7 418.6 367.5 418.1 358.5 408.4C351.1 400.5 338.4 392 320 392C301.6 392 288.9 400.5 281.5 408.4C272.5 418.1 257.3 418.6 247.6 409.5C237.9 400.5 237.4 385.3 246.5 375.6C260.7 360.3 285.4 344 320 344C354.6 344 379.3 360.3 393.5 375.6C402.6 385.3 402.1 400.5 392.4 409.5zM208.4 256C208.4 247.2 211.9 239.2 217.7 233.4L186.9 223.2C178.6 220.4 174 211.3 176.8 202.9C179.6 194.6 188.7 190 197.1 192.8L293.1 224.8C301.4 227.6 305.1 236.7 303.2 245.1C300.4 253.4 291.3 257.1 282.9 255.2L272.1 251.6C272.3 253 272.4 254.5 272.4 256C272.4 273.7 258 288 240.4 288C222.7 288 208.4 273.7 208.4 256H208.4zM432.4 256C432.4 273.7 418 288 400.4 288C382.7 288 368.4 273.7 368.4 256C368.4 254.4 368.5 252.8 368.7 251.3L357.1 255.2C348.7 257.1 339.6 253.4 336.8 245.1C334 236.7 338.6 227.6 346.9 224.8L442.9 192.8C451.3 190 460.4 194.6 463.2 202.9C465.1 211.3 461.4 220.4 453.1 223.2L422.9 233.2C428.7 239 432.4 247.1 432.4 256H432.4zM64 256C64 231.4 67.47 207.6 73.94 185.1C29.61 125.8 6.506 50.11 .3109 19.14C-.9582 12.79 1.72 6.307 7.097 2.706C12.47-.8952 19.49-.9025 24.88 2.687C44.17 15.55 73.41 26.86 103.3 35.78C126.5 42.74 149.2 47.99 166.2 51.3C209.1 19.09 262.3 .0002 320 .0002C377.7 .0002 430.9 19.09 473.8 51.3C490.8 47.99 513.5 42.74 536.7 35.78C566.6 26.86 595.8 15.55 615.1 2.687C620.5-.9025 627.5-.8952 632.9 2.706C638.3 6.307 640.1 12.79 639.7 19.14C633.5 50.11 610.4 125.8 566.1 185.1C572.5 207.6 576 231.4 576 256C576 397.4 461.4 512 320 512C178.6 512 64 397.4 64 256V256zM320 464C434.9 464 528 370.9 528 256C528 141.1 434.9 48 320 48C205.1 48 112 141.1 112 256C112 370.9 205.1 464 320 464z"/></svg>