<svg xmlns="http://www.w3.org/2000/svg" viewBox="0 0 512 512"><!--! Font Awesome Pro 6.1.1 by @fontawesome - https://fontawesome.com License - https://fontawesome.com/license (Commercial License) Copyright 2022 Fonticons, Inc. --><path d="M256 464C370.9 464 464 370.9 464 256C464 141.1 370.9 48 256 48C141.1 48 48 141.1 48 256C48 264.7 48.54 273.3 49.58 281.7L8.11 288.7C6.109 288.1 4.15 289.4 2.241 290C.7642 278.9 .0016 267.5 .0016 256C.0016 114.6 114.6 0 256 0C397.4 0 512 114.6 512 256C512 397.4 397.4 512 256 512C244.5 512 233.1 511.2 221.1 509.8C222.6 507.9 223 505.9 223.3 503.9L230.3 462.4C238.7 463.5 247.3 464 256 464V464zM251.7 333.8L256 337.3L281 317.3C289.2 310.7 300.6 310.2 309.3 316L340.9 337.1L351 327C360.4 317.7 375.6 317.7 384.1 327C394.3 336.4 394.3 351.6 384.1 360.1L360.1 384.1C352.9 393.1 340.2 394.3 330.7 387.1L297.3 365.7L270.1 386.7C262.8 393.3 251.3 393.7 242.7 387.1L251.7 333.8zM116 141.1C116 132.2 125.6 126.4 133.5 130.7L223.4 178.6C234.1 184.3 234.1 199.7 223.4 205.4L133.5 253.3C125.6 257.6 116 251.8 116 242.9C116 240.1 116.1 237.4 118.8 235.2L154.8 192L118.8 148.8C116.1 146.6 116 143.9 116 141.1V141.1zM378.5 130.7C386.4 126.4 396 132.2 396 141.1C396 143.9 395 146.6 393.2 148.8L357.2 192L393.2 235.2C395 237.4 396 240.1 396 242.9C396 251.8 386.4 257.6 378.5 253.3L288.6 205.4C277.9 199.7 277.9 184.3 288.6 178.6L378.5 130.7zM219.3 292.7C222.1 296.3 224.6 301.5 223.8 306.6L191.8 498.6C190.7 505.3 185.5 510.6 178.8 511.8C172.2 512.9 165.5 509.8 162.1 503.9L136.1 458.5L51.88 479.5C46.43 480.9 40.66 479.3 36.69 475.3C32.71 471.3 31.12 465.6 32.48 460.1L53.54 375.9L8.063 349.9C2.187 346.5-.9405 339.8 .2509 333.2C1.442 326.5 6.696 321.3 13.37 320.2L205.4 288.2C210.5 287.4 215.7 289 219.3 292.7L219.3 292.7z"/></svg>