<svg xmlns="http://www.w3.org/2000/svg" viewBox="0 0 576 512"><!--! Font Awesome Pro 6.1.1 by @fontawesome - https://fontawesome.com License - https://fontawesome.com/license (Commercial License) Copyright 2022 Fonticons, Inc. --><path d="M136.6 210.4C126.5 201.1 125.1 186.8 133.6 176.6C146.6 161 181.6 136 231.1 136C245.3 136 255.1 146.7 255.1 160C255.1 173.3 245.3 184 231.1 184C197.1 184 175.2 201.6 170.4 207.4C161.1 217.5 146.8 218.9 136.6 210.4L136.6 210.4zM320 160C320 146.7 330.7 136 344 136C392.9 136 427.5 156.2 440.1 169.7C450.3 179.1 450.3 194.3 440.1 203.6C431.6 213 416.4 213 407 203.6C402.7 199.3 380.4 184 344 184C330.7 184 320 173.3 320 160V160zM287.1 .0003C413.2 .0003 517.4 89.86 539.6 208.6C546.7 206.6 554.5 209.7 558.1 216.5C562.3 224.3 559.3 233.1 551.5 238.1L543.6 242.3C543.9 246.9 544 251.4 544 256C544 397.4 429.4 512 288 512C146.6 512 32 397.4 32 256C32 251.4 32.12 246.9 32.36 242.3L24.47 238.1C16.67 233.1 13.72 224.3 17.88 216.5C21.49 209.7 29.28 206.6 36.38 208.6C58.6 89.86 162.8 0 288 0L287.1 .0003zM127.1 388.9V312C127.1 305.1 128.8 300.1 130.4 294.6L80.34 267.9C82.93 313.8 100.4 355.7 127.1 388.9zM146.5 266.1C158.1 255.2 174.2 248 191.1 248H384C401.8 248 417.9 255.2 429.5 266.1L494.7 232.2C482.8 128.5 394.8 48 287.1 48C181.2 48 93.16 128.5 81.35 232.2L146.5 266.1zM495.7 267.9L445.6 294.6C447.2 300.1 448 305.1 448 312V388.9C475.6 355.7 493.1 313.8 495.7 267.9zM175.1 320H400V312C400 303.2 392.8 296 384 296H191.1C183.2 296 175.1 303.2 175.1 312V320zM175.1 384H400V352H175.1V384zM199.1 440H376C389.3 440 400 429.3 400 416H175.1C175.1 429.3 186.7 440 199.1 440z"/></svg>