<svg xmlns="http://www.w3.org/2000/svg" viewBox="0 0 512 512"><!--! Font Awesome Pro 6.0.0-beta3 by @fontawesome - https://fontawesome.com License - https://fontawesome.com/license (Commercial License) Copyright 2021 Fonticons, Inc. --><path d="M128 240C145.7 240 160 225.7 160 208C177.7 208 192 222.3 192 240C192 257.7 177.7 272 160 272C142.3 272 128 257.7 128 240zM240 304C240 312.8 232.8 320 224 320C215.2 320 208 312.8 208 304C194.6 314 178 320 160 320C148.6 320 137.8 317.6 128 313.3V320C128 328.8 120.8 336 112 336C103.2 336 96 328.8 96 320V288C85.95 274.6 80 258 80 240C80 221.1 85.95 205.4 95.99 192C88.04 192 81.14 186.1 80.12 177.1C79.03 169.2 85.25 161.2 94.02 160.1L105.5 158.7C130.1 155.5 152.1 137.4 159.1 112.8L160.6 107.6C163 99.11 171.9 94.19 180.4 96.62C188.9 99.04 193.8 107.9 191.4 116.4L189.9 121.5C185.7 136.3 178.1 149.6 168 160.4C208.5 164.4 240 198.5 240 240V304zM160 192C133.5 192 112 213.5 112 240C112 266.5 133.5 288 160 288C186.5 288 208 266.5 208 240C208 213.5 186.5 192 160 192zM384 240C384 257.7 369.7 272 352 272C334.3 272 320 257.7 320 240C337.7 240 352 225.7 352 208C369.7 208 384 222.3 384 240zM416 320C416 328.8 408.8 336 400 336C391.2 336 384 328.8 384 320V313.3C374.2 317.6 363.4 320 352 320C307.8 320 272 284.2 272 240C272 198.5 303.5 164.4 343.1 160.4C333.9 149.6 326.3 136.3 322.1 121.5L320.6 116.4C318.2 107.9 323.1 99.04 331.6 96.62C340.1 94.19 348.1 99.11 351.4 107.6L352.9 112.8C359.9 137.4 381 155.5 406.5 158.7L417.1 160.1C426.8 161.2 432.1 169.2 431.9 177.1C430.9 186.1 423.1 192 416 192C426 205.4 432 221.1 432 240C432 258 426 274.6 416 288V320zM352 288C378.5 288 400 266.5 400 240C400 213.5 378.5 192 352 192C325.5 192 304 213.5 304 240C304 266.5 325.5 288 352 288zM310.4 362.5C319.3 352.8 334.5 352.2 344.3 361.1C354 370.1 354.6 385.3 345.6 395.1C328.3 413.8 298.3 434 256 434C213.7 434 183.7 413.8 166.4 395.1C157.4 385.3 157.1 370.1 167.7 361.1C177.5 352.2 192.7 352.8 201.6 362.5C212.1 373.9 230.1 386 256 386C281.9 386 299.9 373.9 310.4 362.5V362.5zM512 256C512 397.4 397.4 512 256 512C114.6 512 0 397.4 0 256C0 114.6 114.6 0 256 0C397.4 0 512 114.6 512 256zM256 48C141.1 48 48 141.1 48 256C48 370.9 141.1 464 256 464C370.9 464 464 370.9 464 256C464 141.1 370.9 48 256 48z"/></svg>