<svg xmlns="http://www.w3.org/2000/svg" viewBox="0 0 512 512"><!--! Font Awesome Pro 6.1.1 by @fontawesome - https://fontawesome.com License - https://fontawesome.com/license (Commercial License) Copyright 2022 Fonticons, Inc. --><path d="M35.23 126.3C14.94 120.8 0 102.7 0 81.01C0 61.02 28.55 20.65 41.6 3.281C44.8-1.094 51.2-1.094 54.4 3.281C63.94 15.86 81.49 40.51 90.43 60.74C90.75 61.46 91.06 62.17 91.35 62.87C94.22 69.74 95.1 76.01 95.1 81.01C95.1 107 74.46 128 47.1 128C43.58 128 39.3 127.4 35.23 126.3L35.23 126.3zM116.6 41.23C156.7 15.15 204.6 .0005 256 .0005C397.4 .0005 512 114.6 512 256C512 397.4 397.4 512 256 512C114.6 512 0 397.4 0 256C0 220.2 7.341 186.1 20.6 155.2C29.19 158.3 38.43 160 48 160C56.93 160 65.58 158.5 73.67 155.8C57.31 185.5 48 219.7 48 256C48 370.9 141.1 464 256 464C370.9 464 464 370.9 464 256C464 141.1 370.9 48 256 48C207.3 48 162.6 64.72 127.1 92.72C127.7 88.91 128 84.1 128 81.01C128 69.58 124.2 58.57 120.9 50.53C119.6 47.43 118.1 44.32 116.6 41.23V41.23zM96 272C96 263.2 103.2 256 112 256H208C216.8 256 224 263.2 224 272C224 280.8 216.8 288 208 288H112C103.2 288 96 280.8 96 272zM400 256C408.8 256 416 263.2 416 272C416 280.8 408.8 288 400 288H304C295.2 288 288 280.8 288 272C288 263.2 295.2 256 304 256H400zM182.5 375.6C196.7 360.3 221.4 344 256 344C290.6 344 315.3 360.3 329.5 375.6C338.6 385.3 338.1 400.5 328.4 409.5C318.7 418.6 303.5 418.1 294.5 408.4C287.1 400.5 274.4 392 256 392C237.6 392 224.9 400.5 217.5 408.4C208.5 418.1 193.3 418.6 183.6 409.5C173.9 400.5 173.4 385.3 182.5 375.6V375.6z"/></svg>