<svg xmlns="http://www.w3.org/2000/svg" viewBox="0 0 512 512"><!--! Font Awesome Pro 6.1.1 by @fontawesome - https://fontawesome.com License - https://fontawesome.com/license (Commercial License) Copyright 2022 Fonticons, Inc. --><path d="M192 129.8C196.6 130.7 200.7 131.6 204.1 132.5C212.7 134.8 217.7 143.6 215.5 152.1C213.2 160.7 204.4 165.7 195.9 163.5C187.6 161.3 177.1 159.4 168.9 160.3C164.9 160.7 162.8 161.7 161.8 162.4C159.2 164.3 159.2 167.1 161.6 169.6C168.4 174.4 176.6 176.6 184.9 178.7C193.2 180.9 201.6 183.2 208.7 188.1C213.5 191.5 218.2 196.1 221.1 202.7C224.1 209.4 224.6 216.6 223.4 223.9C221.4 235.4 215.5 244.3 206.4 249.8C201.8 252.6 196.8 254.2 192 255.1V263.1C192 272.8 184.8 279.1 176 279.1C167.2 279.1 160 272.8 160 263.1V253.2C151.6 251.3 144 248.9 138.1 247.2C130.6 244.4 126 235.3 128.8 226.9C131.6 218.6 140.7 214 149.1 216.8C158.5 219.1 170.9 223.8 181.1 223.9C186 223.1 188.7 223.1 189.8 222.4L189.9 222.4C192.6 220.8 193 216.2 190.4 214.4C186.1 211.1 181.2 210.1 171.6 207.4L170.5 207.1C162.6 204.8 151.6 201.7 143.3 195.9C138.5 192.5 133.8 187.9 130.9 181.3C127.9 174.6 127.4 167.4 128.6 160.1C130.4 149.1 135.5 141.9 143 136.5C148.4 132.6 154.3 130.5 160 129.3V119.1C160 111.2 167.2 103.1 176 103.1C184.8 103.1 192 111.2 192 119.1L192 129.8zM336 104C344.8 104 352 111.2 352 120V129.8C356.6 130.7 360.7 131.6 364.1 132.5C372.7 134.8 377.7 143.6 375.5 152.1C373.2 160.7 364.4 165.7 355.9 163.5C347.6 161.3 337.1 159.4 328.9 160.3C324.9 160.7 322.8 161.7 321.8 162.4C319.2 164.3 319.2 167.1 321.6 169.6C328.4 174.4 336.6 176.6 344.9 178.7C353.2 180.9 361.6 183.2 368.7 188.1C373.5 191.5 378.2 196.1 381.1 202.7C384.1 209.4 384.6 216.6 383.4 223.9C381.4 235.4 375.5 244.3 366.4 249.8C361.8 252.6 356.8 254.2 352 255.1V263.1C352 272.8 344.8 279.1 336 279.1C327.2 279.1 320 272.8 320 263.1V253.2C311.6 251.3 304 248.9 298.1 247.2C290.6 244.4 286 235.3 288.8 226.9C291.6 218.6 300.7 214 309.1 216.8C318.5 219.1 330.9 223.8 341.1 223.9C346 223.1 348.7 223.1 349.8 222.4L349.9 222.4C352.6 220.8 353 216.2 350.4 214.4C346.1 211.1 341.2 210.1 331.6 207.4L330.5 207.1C322.6 204.8 311.6 201.7 303.3 195.9C298.5 192.5 293.8 187.9 290.9 181.3C287.9 174.6 287.4 167.4 288.6 160.1C290.4 149.1 295.5 141.9 303 136.5C308.4 132.6 314.3 130.5 320 129.3V119.1C320 111.2 327.2 103.1 336 103.1L336 104zM267.2 362.8C270.6 363.4 273.7 364.1 276.3 364.8C282.7 366.4 286.5 372.8 284.8 378.1C283.1 385.2 276.5 388.9 270.1 387.2C263.9 385.6 255.1 384.3 249.9 384.9C246.9 385.3 245.3 385.1 244.5 386.5C242.6 387.8 242.6 390.5 244.4 391.7C249.5 395.2 255.7 396.8 261.8 398.4C268.1 399.1 274.4 401.6 279.8 405.2C283.3 407.6 286.9 411 289 415.8C291.3 420.6 291.7 425.9 290.7 431.2C289.2 439.6 284.8 446.1 277.1 450.1C274.5 452.1 270.8 453.2 267.2 453.9V460.4C267.2 466.8 261.8 472 255.2 472C248.6 472 243.2 466.8 243.2 460.4V452.5C236.9 451.2 231.2 449.4 227.4 448.1C221.1 446.1 217.7 439.5 219.8 433.4C221.9 427.3 228.7 424 234.1 426.1C242.1 428.3 251.4 431.1 258.1 431.2C262.7 431.3 264.7 430.6 265.6 430.1C267.7 428.9 267.1 425.6 266 424.3C263.4 422.5 259.1 421.2 251.9 419.2L251.1 418.1C245.2 417.3 236.9 415 230.7 410.8C227.1 408.4 223.5 404.1 221.4 400.2C219.1 395.4 218.7 390.1 219.7 384.8C221 377.4 224.8 371.6 230.5 367.6C234.5 364.8 238.9 363.3 243.2 362.4V355.6C243.2 349.2 248.6 344 255.2 344C261.8 344 267.2 349.2 267.2 355.6L267.2 362.8zM0 256C0 114.6 114.6 0 256 0C397.4 0 512 114.6 512 256C512 397.4 397.4 512 256 512C114.6 512 0 397.4 0 256zM348.3 442.4C416.9 408.4 464 337.7 464 256C464 141.1 370.9 48 256 48C141.1 48 48 141.1 48 256C48 337.7 95.13 408.4 163.7 442.4C161.5 434.7 160.2 426.6 160 418.2C129.6 397 106.9 366.1 96.76 330.1C92.92 316.4 104.2 304 118.4 304H393.6C407.8 304 419.1 316.4 415.2 330.1C405.2 366.1 382.4 397 351.1 418.2C351.8 426.6 350.5 434.7 348.3 442.4H348.3zM303.9 458.5C309.4 452.2 313.7 444.9 316.5 436.9C318.8 430.4 320 423.3 320 416V336H192V416C192 423.3 193.2 430.3 195.5 436.9C198.3 444.9 202.6 452.2 208.1 458.5C219.8 471.7 236.9 480 256 480C275.1 480 292.2 471.7 303.9 458.5V458.5z"/></svg>