<svg xmlns="http://www.w3.org/2000/svg" viewBox="0 0 576 512"><!--! Font Awesome Pro 6.0.0-beta3 by @fontawesome - https://fontawesome.com License - https://fontawesome.com/license (Commercial License) Copyright 2021 Fonticons, Inc. --><path d="M224 216C224 229.3 213.3 240 200 240C186.7 240 176 229.3 176 216C176 202.7 186.7 192 200 192C213.3 192 224 202.7 224 216zM352 216C352 202.7 362.7 192 376 192C389.3 192 400 202.7 400 216C400 229.3 389.3 240 376 240C362.7 240 352 229.3 352 216zM544 192C544 196.7 541.1 200.1 538.7 203.9C542.2 220.7 544 238.1 544 256C544 397.4 429.4 512 288 512C146.6 512 32 397.4 32 256C32 238.1 33.83 220.7 37.31 203.9C34.05 200.1 32 196.7 32 192C32 184.3 37.41 177.9 44.63 176.4C78.12 73.97 174.4 0 288 0C401.6 0 497.9 73.97 531.4 176.4C538.6 177.9 544 184.3 544 192zM490.4 208H472C472 258.1 433.6 299.2 384.7 303.6C394.3 311.5 400 323.3 400 336C400 351.9 391 366.4 376.9 373.5L396.5 398C402 404.9 400.9 414.1 393.1 420.5C387.1 426 377 424.9 371.5 417.1L347.6 388.1L340.3 391.7L350.9 418.1C354.1 426.3 350.1 435.6 341.9 438.9C333.7 442.1 324.4 438.1 321.1 429.9L311.2 405C308.8 405.7 306.4 406.3 304 406.8V432C304 440.8 296.8 448 288 448C279.2 448 272 440.8 272 432V406.8C269.6 406.3 267.2 405.7 264.8 405L254.9 429.9C251.6 438.1 242.3 442.1 234.1 438.9C225.9 435.6 221.9 426.3 225.1 418.1L235.7 391.7L228.4 388.1L204.5 417.1C198.1 424.9 188.9 426 182 420.5C175.1 414.1 173.1 404.9 179.5 398L199.1 373.5C184.1 366.4 176 351.9 176 336C176 323.3 181.7 311.5 191.3 303.6C142.4 299.2 104 258.1 104 208H85.57C81.93 223.4 80 239.5 80 256C80 370.9 173.1 464 288 464C402.9 464 496 370.9 496 256C496 239.5 494.1 223.4 490.4 208H490.4zM263.6 215.3C263.9 212.9 264 210.5 264 208C264 172.7 235.3 144 200 144C164.7 144 136 172.7 136 208C136 243.3 164.7 272 200 272C209.3 272 218.1 270 226.1 266.5C226.7 266.2 227.6 265.7 228.7 265.1L250 229.5C253.5 223.7 258.2 218.9 263.6 215.3zM312 208C312 210.5 312.1 212.9 312.4 215.3C317.8 218.9 322.5 223.7 325.1 229.5L347.3 265.1C348.4 265.7 349.3 266.2 349.9 266.5C357.9 270 366.7 272 376 272C411.3 272 440 243.3 440 208C440 172.7 411.3 144 376 144C340.7 144 312 172.7 312 208zM95.94 176H109.5C112.9 166.4 117.8 157.4 123.9 149.5L122.5 146.7C120.3 142.4 119.6 137.6 120.2 133.1C110.5 146.3 102.3 160.7 95.94 176H95.94zM455.8 133.1C456.4 137.6 455.7 142.4 453.5 146.7L452.1 149.5C458.2 157.4 463.1 166.4 466.5 176H480.1C473.7 160.7 465.5 146.3 455.8 133.1H455.8zM136.9 113.1C145.9 110.3 155.6 113 161.8 119.9C163.8 119 165.9 118.2 168 117.5V112C168 98.75 178.7 88 192 88C205.3 88 216 98.75 216 112V113.3C217.5 113.6 218.9 113.9 220.4 114.2C227.1 104.6 239.1 101.2 250.7 106.5C261.5 111.9 266.5 124.3 262.8 135.4C273.6 144.7 282.2 156.4 287.1 169.6C293.8 156.4 302.4 144.7 313.2 135.4C309.5 124.3 314.5 111.9 325.3 106.5C336 101.2 348.9 104.6 355.6 114.2C357.1 113.9 358.5 113.6 360 113.3V112C360 98.75 370.7 88 384 88C397.3 88 408 98.75 408 112V117.5C410.1 118.2 412.2 119 414.2 119.9C420.4 113 430.1 110.3 439.1 113.1C401.2 73 347.5 48 287.1 48C228.5 48 174.8 73 136.9 113.1H136.9zM288 240C283.7 240 279.7 242.3 277.5 245.1L235.3 316.2L213.5 327.2C210.1 328.8 208 332.3 208 336C208 339.7 210.1 343.2 213.5 344.8L266.5 371.4C280 378.1 295.1 378.1 309.5 371.4L362.5 344.8C365.9 343.2 368 339.7 368 336C368 332.3 365.9 328.8 362.5 327.2L340.7 316.2L298.5 245.1C296.3 242.3 292.3 240 288 240V240z"/></svg>