<svg xmlns="http://www.w3.org/2000/svg" viewBox="0 0 576 512"><!--! Font Awesome Pro 6.1.1 by @fontawesome - https://fontawesome.com License - https://fontawesome.com/license (Commercial License) Copyright 2022 Fonticons, Inc. --><path d="M288 48C173.1 48 80 141.1 80 256C80 261.7 80.23 267.4 80.68 272.1L80.01 272.1C68.39 256.5 48.28 252.2 32.02 259.3C32.01 258.2 32 257.1 32 256C32 114.6 146.6 0 288 0C429.4 0 544 114.6 544 256C544 397.4 429.4 512 288 512C213.5 512 146.4 480.2 99.62 429.3C112.6 418.5 122.1 403.7 126 386.5C144.9 409.8 168.6 429 195.7 442.4C193.3 434 192 425.2 192 416V400.7C181.8 393.5 176 385 176 376C176 349.5 226.1 328 288 328C349.9 328 400 349.5 400 376C400 385 394.2 393.5 384 400.7V416C384 425.2 382.7 434 380.3 442.4C448.9 408.4 496 337.7 496 256C496 141.1 402.9 48 288 48L288 48zM352 416V394.6C352 379.9 340.1 368 325.4 368H323.4C312.1 368 302.3 375.9 299.8 386.9C296.1 399.5 279 399.5 276.2 386.9C273.7 375.9 263.9 368 252.6 368H250.6C235.9 368 224 379.9 224 394.6V416C224 451.3 252.7 480 288 480C323.3 480 352 451.3 352 416zM96 369C96 383.2 89.58 395.9 79.45 404.5C71.02 411.7 60.02 416 48 416C21.54 416 0 395 0 369C0 351.7 21.44 319.1 35.66 299.4C37.84 296.3 39.86 293.6 41.6 291.3C44.8 286.9 51.2 286.9 54.4 291.3C67.57 308.6 95.1 349 95.1 369H96zM367.6 240C385.3 240 399.6 254.3 399.6 272C399.6 289.7 385.3 304 367.6 304C349.1 304 335.6 289.7 335.6 272C335.6 254.3 349.1 240 367.6 240zM207.6 304C189.1 304 175.6 289.7 175.6 272C175.6 254.3 189.1 240 207.6 240C225.3 240 239.6 254.3 239.6 272C239.6 289.7 225.3 304 207.6 304zM227.3 148.7C233.6 154.9 233.6 165.1 227.3 171.3L219.9 178.7C196.4 202.3 166 217.9 133.1 223.4L130.6 223.8C121.9 225.2 113.7 219.3 112.2 210.6C110.8 201.9 116.7 193.7 125.4 192.2L127.9 191.8C154.2 187.4 178.5 174.9 197.3 156.1L204.7 148.7C210.9 142.4 221.1 142.4 227.3 148.7zM348.7 171.3C342.4 165.1 342.4 154.9 348.7 148.7C354.9 142.4 365.1 142.4 371.3 148.7L378.7 156.1C397.5 174.9 421.8 187.4 448.2 191.8L450.6 192.2C459.3 193.7 465.2 201.9 463.8 210.6C462.3 219.3 454.1 225.2 445.4 223.8L442.9 223.4C409.1 217.9 379.6 202.3 356.1 178.7L348.7 171.3z"/></svg>