<svg xmlns="http://www.w3.org/2000/svg" viewBox="0 0 512 512"><!--! Font Awesome Pro 6.1.1 by @fontawesome - https://fontawesome.com License - https://fontawesome.com/license (Commercial License) Copyright 2022 Fonticons, Inc. --><path d="M336 400C336 408.8 328.8 416 320 416H192C183.2 416 176 408.8 176 400C176 355.8 211.8 320 256 320C300.2 320 336 355.8 336 400zM208.4 224C208.4 241.7 194 256 176.4 256C158.7 256 144.4 241.7 144.4 224C144.4 206.3 158.7 192 176.4 192C194 192 208.4 206.3 208.4 224zM304.4 224C304.4 206.3 318.7 192 336.4 192C354 192 368.4 206.3 368.4 224C368.4 241.7 354 256 336.4 256C318.7 256 304.4 241.7 304.4 224zM192 144C187.6 144 183.2 144.3 178.1 144.9C157.8 147.7 138.4 157.2 122.9 171.7C116.5 177.7 106.3 177.4 100.3 170.9C94.28 164.5 94.62 154.3 101.1 148.3C121.1 129.6 146.6 116.9 174.8 113.1C180.4 112.4 186.2 112 192 112C200.8 112 208 119.2 208 128C208 136.8 200.8 144 192 144zM333 144.9C328.8 144.3 324.4 144 320 144C311.2 144 304 136.8 304 128C304 119.2 311.2 112 320 112C325.8 112 331.6 112.4 337.2 113.1C365.4 116.9 390.9 129.6 410.9 148.3C417.4 154.3 417.7 164.5 411.7 170.9C405.7 177.4 395.5 177.7 389.1 171.7C373.6 157.2 354.2 147.7 333 144.9zM512 256C512 397.4 397.4 512 256 512C114.6 512 0 397.4 0 256C0 114.6 114.6 0 256 0C397.4 0 512 114.6 512 256zM256 48C141.1 48 48 141.1 48 256C48 370.9 141.1 464 256 464C370.9 464 464 370.9 464 256C464 141.1 370.9 48 256 48z"/></svg>