<svg xmlns="http://www.w3.org/2000/svg" viewBox="0 0 448 512"><!--! Font Awesome Pro 6.0.0-beta3 by @fontawesome - https://fontawesome.com License - https://fontawesome.com/license (Commercial License) Copyright 2021 Fonticons, Inc. --><path d="M224 224c26.53 0 48-21.47 48-48S250.5 128 224 128S176 149.5 176 176S197.5 224 224 224zM256 256H192C165.5 256 144 277.5 144 304V384c0 17.67 14.33 32 32 32v64c0 17.67 14.33 32 32 32h32c17.67 0 32-14.33 32-32v-64c17.67 0 32-14.33 32-32V304C304 277.5 282.5 256 256 256zM256 368H192v-64h64V368zM96 128c35.38 0 64-28.62 64-64S131.4 0 96 0S32 28.62 32 64S60.63 128 96 128zM48 224c0-8.822 7.178-16 16-16h87.12C146.7 198.2 144 187.5 144 176c0-4.561 .6107-8.963 1.347-13.32C139.8 161.1 134.1 160 128 160H64C28.65 160 0 188.7 0 224v96c0 17.67 14.33 32 32 32v136C32 501.3 42.75 512 56 512s24-10.75 24-24V352h32V304h-64V224zM352 128c35.38 0 64-28.62 64-64s-28.62-64-64-64s-64 28.62-64 64S316.6 128 352 128zM384 160h-64c-6.055 0-11.8 1.111-17.35 2.682C303.4 167 304 171.4 304 176c0 11.46-2.699 22.19-7.121 32H384c8.822 0 16 7.178 16 16v80h-64V352h32v136c0 13.25 10.75 24 24 24S416 501.3 416 488V352c17.67 0 32-14.33 32-32V224C448 188.7 419.3 160 384 160z"/></svg>