<svg xmlns="http://www.w3.org/2000/svg" viewBox="0 0 512 512"><!--! Font Awesome Pro 6.1.1 by @fontawesome - https://fontawesome.com License - https://fontawesome.com/license (Commercial License) Copyright 2022 Fonticons, Inc. --><path d="M256 224c26.53 0 48-21.47 48-48S282.5 128 256 128S208 149.5 208 176S229.5 224 256 224zM288 256H224C197.5 256 176 277.5 176 304V384c0 17.67 14.33 32 32 32v64c0 17.67 14.33 32 32 32h32c17.67 0 32-14.33 32-32v-64c17.67 0 32-14.33 32-32V304C336 277.5 314.5 256 288 256zM288 368H224v-64h64V368zM384 128c35.38 0 64-28.62 64-64s-28.62-64-64-64s-64 28.62-64 64S348.6 128 384 128zM505.5 343.2l-39.08-136.8C458.6 178.9 433.5 160 404.9 160h-41.86c-10.08 0-19.34 3.043-27.95 7.299C335.4 170.2 336 173 336 176c0 11.46-2.699 22.19-7.121 32h76.05c7.145 0 13.42 4.734 15.38 11.6L453.6 336H368V384h32v104c0 13.25 10.75 24 24 24S448 501.3 448 488V384h26.78C496 384 511.4 363.7 505.5 343.2zM128 128c35.38 0 64-28.62 64-64S163.4 0 128 0S64 28.62 64 64S92.63 128 128 128zM91.69 219.6C93.65 212.7 99.93 208 107.1 208h76.05C178.7 198.2 176 187.5 176 176c0-2.98 .5605-5.805 .8789-8.701C168.3 163 159 160 148.9 160H107.1C78.5 160 53.39 178.9 45.54 206.4l-39.08 136.8C.6105 363.7 15.96 384 37.22 384H64v104C64 501.3 74.75 512 88 512s24-10.75 24-24V384h32v-48H58.43L91.69 219.6z"/></svg>