<svg xmlns="http://www.w3.org/2000/svg" viewBox="0 0 448 512"><!--! Font Awesome Pro 6.1.1 by @fontawesome - https://fontawesome.com License - https://fontawesome.com/license (Commercial License) Copyright 2022 Fonticons, Inc. --><path d="M353.1 266.3c5.125 .875 10.25-.5 14.25-3.875c3.875-3.25 6.125-8.125 6.125-13.38c.125-34.13-19.75-65.13-50.75-79.5S256.1 160 229.1 182.1L195.6 90.25c-2.625-6.875-13-15.88-25.12-9C150.4 92.88 135.6 112 129.6 134.5C120.8 167.6 132 220.5 185 239.4L122.4 315.5c-8.75 10.62-1.75 22.5 4.75 26.25c42 24.25 95.63 9.875 119.8-32.13c10.38-18 13.88-39.13 10-59.5L353.1 266.3zM224 240C215.1 240 208 232.9 208 224S215.1 208 224 208s16 7.125 16 16S232.9 240 224 240zM360 464h-112v-17.38C360.4 434.8 448 339.6 448 224c0-123.8-100.3-224-224-224S0 100.3 0 224c0 115.6 87.63 210.8 200 222.6V464h-112C74.75 464 64 474.7 64 488C64 501.3 74.75 512 88 512h272c13.25 0 24-10.75 24-24C384 474.7 373.3 464 360 464zM48 224c0-97 79-176 176-176s176 79 176 176s-79 176-176 176S48 321 48 224z"/></svg>