<svg xmlns="http://www.w3.org/2000/svg" viewBox="0 0 384 512"><!--! Font Awesome Pro 6.0.0-beta3 by @fontawesome - https://fontawesome.com License - https://fontawesome.com/license (Commercial License) Copyright 2021 Fonticons, Inc. --><path d="M365.3 93.38l-74.63-74.64C278.6 6.742 262.3 0 245.4 0H64C28.65 0 0 28.65 0 64l.0065 384c0 35.34 28.65 64 64 64H320c35.2 0 64-28.8 64-64V138.6C384 121.7 377.3 105.4 365.3 93.38zM336 448c0 8.836-7.164 16-16 16H64.02c-8.838 0-16-7.164-16-16L48 64.13c0-8.836 7.164-16 16-16h160L224 128c0 17.67 14.33 32 32 32h79.1V448zM199.3 264.5l-7.391 7.664l-7.389-7.664c-18.74-19.37-49.27-22.55-69.83-5.031C91.11 279.6 89.83 315.6 110.9 337.5l72.62 74.86c4.713 4.816 12.21 4.816 16.92 0l72.62-74.86c21.1-21.89 19.81-57.9-3.859-78.04C248.8 241.1 218.1 245.1 199.3 264.5z"/></svg>