<svg xmlns="http://www.w3.org/2000/svg" viewBox="0 0 384 512"><!--! Font Awesome Pro 6.1.1 by @fontawesome - https://fontawesome.com License - https://fontawesome.com/license (Commercial License) Copyright 2022 Fonticons, Inc. --><path d="M365.3 93.38l-74.63-74.64C278.6 6.742 262.3 0 245.4 0H64C28.66 0 0 28.65 0 64l.0065 384c0 35.34 28.65 64 64 64H320c35.2 0 64-28.8 64-64V138.6C384 121.7 377.3 105.4 365.3 93.38zM336 448c0 8.836-7.164 16-16 16H64.02c-8.836 0-16-7.164-16-16L48 64.13c0-8.836 7.164-16 16-16h160L224 128c0 17.67 14.33 32 32 32H336V448zM216 223.1C216 210.7 205.3 200 192 200S168 210.7 168 223.1V280H112c-13.26 0-24 10.74-24 23.1c0 13.26 10.73 23.1 24 23.1h56v56C168 397.3 178.7 408 192 408c13.26 0 24-10.74 24-23.1V327.1h56c13.26 0 24-10.74 24-23.1s-10.74-23.1-24-23.1h-56V223.1z"/></svg>