<svg xmlns="http://www.w3.org/2000/svg" viewBox="0 0 448 512"><!--! Font Awesome Pro 6.0.0-beta3 by @fontawesome - https://fontawesome.com License - https://fontawesome.com/license (Commercial License) Copyright 2021 Fonticons, Inc. --><path d="M298.7 189.3C298.7 182 292.7 176 285.3 176h-26.67c-7.334 0-13.33 6-13.33 13.33v40h-40C197.1 229.3 192 235.3 192 242.7v26.67c0 7.332 5.1 13.33 13.33 13.33h40v40c0 7.332 5.998 13.34 13.33 13.34h26.67c7.334 0 13.33-6.004 13.33-13.34v-40h40C345.1 282.7 352 276.7 352 269.3V242.7c0-7.332-6-13.33-13.33-13.33h-40V189.3zM429.3 93.38l-74.63-74.64C342.6 6.742 326.3 0 309.4 0H160C124.7 0 96 28.65 96 64l.0098 288c0 35.34 28.65 64 64 64h224C419.2 416 448 387.2 448 352V138.6C448 121.7 441.3 105.4 429.3 93.38zM400 352c0 8.836-7.164 16-16 16H160c-8.838 0-16-7.164-16-16L144 64.13c0-8.836 7.164-16 16-16h128V128c0 17.67 14.33 32 32 32h79.99V352zM328 512h-208C53.83 512 0 458.2 0 392v-272C0 106.8 10.75 96 24 96S48 106.8 48 120v272c0 39.7 32.3 72 72 72h208c13.25 0 24 10.75 24 24S341.3 512 328 512z"/></svg>