<svg xmlns="http://www.w3.org/2000/svg" viewBox="0 0 384 512"><!--! Font Awesome Pro 6.1.1 by @fontawesome - https://fontawesome.com License - https://fontawesome.com/license (Commercial License) Copyright 2022 Fonticons, Inc. --><path d="M365.3 93.38l-74.63-74.64C278.6 6.742 262.3 0 245.4 0H64C28.65 0 0 28.65 0 64l.0065 384c0 35.34 28.65 64 64 64H320c35.2 0 64-28.8 64-64V138.6C384 121.7 377.3 105.4 365.3 93.38zM336 448c0 8.836-7.164 16-16 16H64.02c-8.838 0-16-7.164-16-16L48 64.13c0-8.836 7.164-16 16-16h160L224 128c0 17.67 14.33 32 32 32h79.1V448zM216 264C216 277.3 226.8 288 240 288v80c-13.25 0-24 10.75-24 24S226.8 416 240 416H288c13.25 0 24-10.75 24-24S301.3 368 288 368V264c0-13.25-10.75-24-24-24H240C226.8 240 216 250.8 216 264zM144 240H128c-30.88 0-56 25.12-56 56v64C72 390.9 97.13 416 128 416h16c30.88 0 56-25.12 56-56v-64C200 265.1 174.9 240 144 240zM152 360c0 4.406-3.594 8-8 8H128c-4.406 0-8-3.594-8-8v-64C120 291.6 123.6 288 128 288h16c4.406 0 8 3.594 8 8V360z"/></svg>