<svg xmlns="http://www.w3.org/2000/svg" viewBox="0 0 576 512"><!--! Font Awesome Pro 6.1.1 by @fontawesome - https://fontawesome.com License - https://fontawesome.com/license (Commercial License) Copyright 2022 Fonticons, Inc. --><path d="M39.03 7.029C48.4-2.343 63.6-2.343 72.97 7.029L162.3 96.4L221.1 37.66C249.2 9.539 294.8 9.539 322.9 37.66L474.3 189.1C502.5 217.2 502.5 262.8 474.3 290.9L283.9 481.4C246.4 518.9 185.6 518.9 148.1 481.4L30.63 363.9C-6.863 326.4-6.863 265.6 30.63 228.1L128.4 130.3L39.03 40.97C29.66 31.6 29.66 16.4 39.03 7.029V7.029zM231 232.1L162.3 164.3L64.57 262.1C57.24 269.4 52.77 278.5 51.18 288H409.4L440.4 256.1C449.8 247.6 449.8 232.4 440.4 223L288.1 71.6C279.6 62.23 264.4 62.23 255 71.6L196.3 130.3L264.1 199C274.3 208.4 274.3 223.6 264.1 232.1C255.6 242.3 240.4 242.3 231 232.1H231zM448 448C448 422.8 480.6 368.4 499.2 339.3C505.3 329.9 518.7 329.9 524.8 339.3C543.4 368.4 576 422.8 576 448C576 483.3 547.3 512 512 512C476.7 512 448 483.3 448 448H448z"/></svg>