<svg xmlns="http://www.w3.org/2000/svg" viewBox="0 0 576 512"><!--! Font Awesome Pro 6.1.1 by @fontawesome - https://fontawesome.com License - https://fontawesome.com/license (Commercial License) Copyright 2022 Fonticons, Inc. --><path d="M544 128h-224V80h8C341.3 80 352 69.25 352 56C352 42.74 341.3 32 328 32H256V16C256 7.162 248.8 0 240 0h-128C103.2 0 96 7.162 96 16V32H24C10.75 32 0 42.74 0 56C0 69.25 10.75 80 24 80H32v384H24C10.75 464 0 474.7 0 488C0 501.3 10.75 512 24 512h304c13.25 0 24-10.75 24-24c0-13.26-10.75-24-24-24H320V416h160c17.62 0 32-14.38 32-32v-32c0-17.62 14.38-32 32-32s32-14.38 32-32V160C576 142.4 561.6 128 544 128zM272 464h-192v-384h192V464zM440 360c0 8.875-7.125 16-16 16h-16c-8.875 0-16-7.125-16-16v-16c0-8.875 7.125-16 16-16h16c8.875 0 16 7.125 16 16V360zM440 200c0 8.875-7.125 16-16 16h-16c-8.875 0-16-7.125-16-16v-16c0-8.875 7.125-16 16-16h16c8.875 0 16 7.125 16 16V200zM536 200c0 8.875-7.125 16-16 16h-16c-8.875 0-16-7.125-16-16v-16c0-8.875 7.125-16 16-16h16c8.875 0 16 7.125 16 16V200z"/></svg>