<svg xmlns="http://www.w3.org/2000/svg" viewBox="0 0 640 512"><!--! Font Awesome Pro 6.0.0-beta3 by @fontawesome - https://fontawesome.com License - https://fontawesome.com/license (Commercial License) Copyright 2021 Fonticons, Inc. --><path d="M630.8 469.1l-220-172.4l154.7-190c11.26-13.46 13.7-31.89 6.225-47.92C564 42.23 547.8 32 529.3 32H110.7C100.7 32 91.58 35.16 83.92 40.46L38.81 5.11c-4.406-3.438-9.625-5.109-14.78-5.109c-7.125 0-14.19 3.156-18.91 9.188c-8.188 10.44-6.375 25.53 4.062 33.7l591.1 463.1c10.5 8.203 25.56 6.328 33.69-4.078C643.1 492.4 641.2 477.3 630.8 469.1zM134.4 80.04h390.8l-152.2 186.1L134.4 80.04zM351.1 422.1l-64-49.39v-50.31L183.5 240.5l56.49 69.39v67.71c0 12.55 6.178 24.3 16.52 31.45l82.32 63.55C345.1 477.6 353.6 480 361.4 480c21.28 0 38.59-17.19 38.59-38.33v-31.47l-48-37.62V422.1z"/></svg>