<svg xmlns="http://www.w3.org/2000/svg" viewBox="0 0 640 512"><!--! Font Awesome Pro 6.1.1 by @fontawesome - https://fontawesome.com License - https://fontawesome.com/license (Commercial License) Copyright 2022 Fonticons, Inc. --><path d="M598.2 32C621.3 32 640 50.74 640 73.85C640 83.2 636.9 92.27 631.1 99.64L496 272.3V415.5C496 442.2 465.2 457.2 444.2 440.7L351.3 367.7C341.6 360.1 336 348.5 336 336.2V272.3L200.9 99.64C195.1 92.27 192 83.2 192 73.85C192 50.74 210.7 32 233.8 32H598.2zM384 264V332.3L448 382.6V264C448 258.6 449.8 253.4 453.1 249.2L585.5 80H246.5L378.9 249.2C382.2 253.4 384 258.6 384 264V264zM175.7 119.4L194.1 144H54.48L186.9 313.2C190.2 317.4 192 322.6 192 328V364.3L256 414.6V328C256 322.6 257.8 317.4 261.1 313.2L294.3 270.8L304 283.3V447.5C304 474.2 273.2 489.2 252.2 472.7L159.3 399.7C149.6 392.1 144 380.5 144 368.2V336.3L8.892 163.6C3.131 156.3 0 147.2 0 137.8C0 114.7 18.74 96 41.85 96H163.4C166 104.4 170.2 112.3 175.7 119.4V119.4z"/></svg>