<svg xmlns="http://www.w3.org/2000/svg" viewBox="0 0 576 512"><!--! Font Awesome Pro 6.0.0-beta3 by @fontawesome - https://fontawesome.com License - https://fontawesome.com/license (Commercial License) Copyright 2021 Fonticons, Inc. --><path d="M432 224C352.5 224 288 288.5 288 368s64.47 144 144 144s144-64.47 144-144S511.5 224 432 224zM488.5 401.9c6.242 6.242 6.252 16.37 .0098 22.62c-6.24 6.242-16.37 6.231-22.62-.0113l-33.91-33.91l-33.91 33.91c-6.242 6.242-16.37 6.253-22.62 .0106s-6.232-16.37 .0098-22.62l33.91-33.91l-33.91-33.91c-6.242-6.242-6.251-16.37-.009-22.62s16.37-6.232 22.62 .0106l33.91 33.91l33.91-33.91c6.242-6.242 16.37-6.254 22.61-.0113s6.233 16.37-.009 22.62l-33.91 33.91L488.5 401.9zM223.1 340.7V272.2c0-7.369-2.539-14.51-7.191-20.22L50.77 48.04h410.4l-85.57 105.1c-7.77 9.545-7.061 23.42 1.643 32.13c10.06 10.06 26.62 9.219 35.6-1.812l88.61-108.8c11.26-13.46 13.7-31.89 6.225-47.92C500 10.23 483.8 0 465.3 0H46.65C28.21 0 11.97 10.23 4.283 26.71C-3.195 42.73-.7578 61.16 10.64 74.79l165.4 203.1v67.71c0 12.55 6.178 24.3 16.52 31.45l24.81 19.15C233.1 408.4 256 397.2 256 377.2c0-7.439-3.449-14.46-9.34-19L223.1 340.7z"/></svg>