<svg xmlns="http://www.w3.org/2000/svg" viewBox="0 0 512 512"><!--! Font Awesome Pro 6.0.0-beta3 by @fontawesome - https://fontawesome.com License - https://fontawesome.com/license (Commercial License) Copyright 2021 Fonticons, Inc. --><path d="M440 120h48c13.25 0 24-10.75 24-23.1S501.3 72 488 72h-48C426.8 72 416 82.75 416 95.1S426.8 120 440 120zM488 232h-144C330.8 232 320 242.8 320 256s10.75 24 24 24h144C501.3 280 512 269.3 512 256S501.3 232 488 232zM329.5 64H22.48c-18.9 0-29.33 21.5-17.41 35.88L112 225.8V368c0 7.828 3.812 15.17 10.25 19.66l79.1 55.98C206.5 446.6 211.3 448 215.9 448C228.3 448 240 438.2 240 423.1V225.8l106.9-125.9C358.8 85.5 348.4 64 329.5 64zM203.4 194.7L192 208.2v169.7l-32-22.39V208.2L78.34 112h195.3L203.4 194.7zM488 392h-144C330.8 392 320 402.8 320 416s10.75 24 24 24h144c13.25 0 24-10.75 24-24S501.3 392 488 392z"/></svg>