<svg xmlns="http://www.w3.org/2000/svg" viewBox="0 0 640 512"><!--! Font Awesome Pro 6.1.1 by @fontawesome - https://fontawesome.com License - https://fontawesome.com/license (Commercial License) Copyright 2022 Fonticons, Inc. --><path d="M82.15 39.08C88.75 34.61 96.71 32 105.3 32H534.3C557.3 32 576 50.67 576 73.7C576 83.3 572.7 92.6 566.6 100L408.1 294.6L630.8 469.1C641.2 477.3 643.1 492.4 634.9 502.8C626.7 513.2 611.6 515.1 601.2 506.9L9.196 42.89C-1.236 34.71-3.065 19.63 5.112 9.196C13.29-1.236 28.37-3.065 38.81 5.112L82.15 39.08zM134.4 80L370.3 264.1L521 80H134.4zM352 415.2V373.3L400 411.2V447.7C400 465.5 385.5 480 367.7 480C360.4 480 353.3 477.5 347.6 472.1L255.1 399.6C245.6 392 240 380.5 240 368.3V285.1L288 322.9V364.4L352 415.2z"/></svg>