<svg xmlns="http://www.w3.org/2000/svg" viewBox="0 0 640 512"><!--! Font Awesome Pro 6.1.1 by @fontawesome - https://fontawesome.com License - https://fontawesome.com/license (Commercial License) Copyright 2022 Fonticons, Inc. --><path d="M352 200c0 0-70.25-71.75-75.38-77.88C240.4 167 222.3 193.3 222.3 223.3c0 11.38 2 21.5 5 31.25C254.1 235 286.5 224 320 224c32.38 0 63.75 10.5 90.13 28.75C416 229.9 413.9 204.8 402.9 182.8c-2.5-5-5.488-10.01-8.613-15.38L352 200zM152 240c15.75 0 30.88 2.625 45.38 7.25C194.3 236.3 192 224.9 192 213c0-29.75 31.5-89.75 84.25-146.1C290.8 82 304.1 97.63 315.8 113l36 47.88c0 0 43-50.63 45.25-53.13C428.9 148.8 448 195.6 448 213c0 11.88-2.25 23.25-5.375 34.25C457.1 242.6 472.3 240 488 240c1.875 0 3.75 .5 5.625 .625c1.5-9 2.312-18.37 2.312-27.75c0-40.25-40.75-123.3-97.75-174.2c-16.38 14.62-31.12 29.94-44.25 45.44C332.6 55.63 306.1 26.88 276 0C198.8 68.88 144 158.8 144 213c0 9.375 1 18.62 2.375 27.62C148.3 240.5 150.1 240 152 240zM486.4 282c-24.36 0-47.94 8.125-67.25 22.62C395.5 274.3 359.3 255.1 320 255.1S244.5 274.3 220.8 304.6C201.5 290.1 177.1 282 153.6 282C90.95 282 40 333.6 40 397S90.95 512 153.6 512h332.8C549 512 600 460.4 600 397S549 282 486.4 282zM486.4 464H153.6C117.4 464 88 433.9 88 397s29.42-67 65.59-67c20.88 0 40.06 10.03 52.63 27.47c5.078 7.062 13.62 10.69 22.2 9.844c8.641-1 16.06-6.562 19.42-14.59C260.2 323.1 288.5 304 320 304s59.78 19.12 72.16 48.72c3.359 8.031 10.78 13.59 19.42 14.59c8.641 .9687 17.12-2.781 22.2-9.844c12.56-17.44 31.75-27.47 52.63-27.47c36.17 0 65.59 30.06 65.59 67S522.6 464 486.4 464z"/></svg>