<svg xmlns="http://www.w3.org/2000/svg" viewBox="0 0 448 512"><!--! Font Awesome Pro 6.0.0-beta3 by @fontawesome - https://fontawesome.com License - https://fontawesome.com/license (Commercial License) Copyright 2021 Fonticons, Inc. --><path d="M323.5 51.25C302.8 70.5 284 90.75 267.4 111.1C240.1 73.62 206.2 35.5 168 0C69.75 91.12 0 210 0 281.6C0 408.9 100.2 512 224 512s224-103.1 224-230.4C448 228.4 396 118.5 323.5 51.25zM224 464c-97 0-176-81.88-176-182.4c0-45.38 44.25-133.2 120.1-214.1C190.5 90.88 211 115.2 228.5 139.4l36.63 50.38l39.38-48.25c5.875-7.125 11.88-14.12 18-21C368.9 178 400 250.4 400 281.6C400 382.1 321 464 224 464zM313.5 243.1l-51.38 58.5c0 0-80.37-102.6-86.37-109.6C133.2 242.9 112 272.6 112 306.4C112 374.3 163.4 416 226.5 416c25.25 0 48.63-7.875 67.63-21.12c43-30.12 53.12-88.63 29.25-134.3C320.4 255 317.1 249.1 313.5 243.1z"/></svg>