<svg xmlns="http://www.w3.org/2000/svg" viewBox="0 0 512 512"><!--! Font Awesome Pro 6.0.0-beta3 by @fontawesome - https://fontawesome.com License - https://fontawesome.com/license (Commercial License) Copyright 2021 Fonticons, Inc. --><path d="M503.4 5.56c-5.453-4.531-12.61-6.406-19.67-5.188l-175.1 32c-11.41 2.094-19.7 12.03-19.7 23.63L200 56v-32C200 10.75 189.3 0 176 0S152 10.75 152 24v32h-32C53.84 56 0 109.8 0 176c0 13.25 10.75 24 24 24S48 189.3 48 176c0-39.69 32.31-72 72-72h32v26.72C101.7 141.7 64 186.4 64 240L64 480c0 17.67 14.33 32 31.1 32H256c17.67 0 31.1-14.33 31.1-32l0-240c0-53.6-37.71-98.27-87.1-109.3V104l87.1-.002c0 11.59 8.297 21.53 19.7 23.62l175.1 31.1c1.438 .25 2.875 .375 4.297 .375c5.578 0 11.03-1.938 15.37-5.562c5.469-4.562 8.625-11.31 8.625-18.44V23.1C511.1 16.87 508.8 10.12 503.4 5.56zM240 464h-128v-32h128V464zM240 240V384h-128V240c0-35.29 28.71-64 64-64C211.3 176 240 204.7 240 240z"/></svg>