<svg xmlns="http://www.w3.org/2000/svg" viewBox="0 0 576 512"><!--! Font Awesome Pro 6.0.0-beta3 by @fontawesome - https://fontawesome.com License - https://fontawesome.com/license (Commercial License) Copyright 2021 Fonticons, Inc. --><path d="M508.3 0c-6.365 0-13.04 1.35-19.37 4.232c-45.69 20.86-79.56 27.94-107.8 27.94c-59.96 0-94.8-31.86-163.9-31.87c-34.63 0-77.87 8.002-137.2 32.04V24C80 10.75 69.26 0 56 0C42.75 0 32 10.75 32 24v464C32 501.3 42.75 512 56 512c13.26 0 24-10.75 24-24v-104c53.59-23.86 96.02-31.81 132.8-31.81c73.63 0 124.9 31.78 198.6 31.78c31.91 0 68.02-5.973 111.1-23.09C536.1 355.8 544 344.4 544 332.1V30.74C544 12.01 527.3 0 508.3 0zM184 32c8.836 0 16 7.164 16 16S192.8 64 184 64s-16-7.164-16-16S175.2 32 184 32zM184 88c8.836 0 16 7.164 16 16s-7.164 16-16 16s-16-7.164-16-16S175.2 88 184 88zM120 48c8.836 0 16 7.164 16 16s-7.164 16-16 16S104 72.84 104 64S111.2 48 120 48zM120 112c8.836 0 16 7.164 16 16s-7.164 16-16 16S104 136.8 104 128S111.2 112 120 112zM496 319.8c-30.31 10.82-58.08 16.1-84.6 16.1c-30.8 0-58.31-7-87.44-14.41c-32.01-8.141-68.29-17.37-111.1-17.37c-42.35 0-85.99 9.09-132.8 27.73V283.8l18.03-7.301C145.4 257.3 184.4 248 217.2 248c28.24 .0039 49.13 6.711 73.31 14.48c25.38 8.148 54.13 17.39 90.58 17.39c35.43 0 72.24-8.496 114.9-26.61V319.8zM496 201.6c-2.371 .6562-4.75 1.289-7.072 2.344c-45.69 20.86-79.56 27.94-107.8 27.94c-59.96 0-94.8-31.86-163.9-31.87C182.6 200 139.3 208 80 232.1V187.8l18.03-7.301C145.4 161.3 184.4 152 217.2 152c28.24 .0039 49.13 6.711 73.31 14.48c25.38 8.148 54.13 17.39 90.58 17.39c35.43 0 72.24-8.496 114.9-26.61V201.6zM496 105.6c-2.371 .6562-4.75 1.289-7.072 2.344c-45.69 20.86-79.56 27.94-107.8 27.94c-52.97 0-86.42-24.78-141.1-30.59V49.96c17.7 2.422 33.32 7.297 50.52 12.82c25.38 8.148 54.13 17.39 90.58 17.39c35.43 0 72.24-8.496 114.9-26.61V105.6z"/></svg>