<svg xmlns="http://www.w3.org/2000/svg" viewBox="0 0 576 512"><!--! Font Awesome Pro 6.0.0-beta3 by @fontawesome - https://fontawesome.com License - https://fontawesome.com/license (Commercial License) Copyright 2021 Fonticons, Inc. --><path d="M48 416V96c0-8.838 7.164-16 16-16h16v104c0 13.25 10.75 24 24 24h192C309.3 208 320 197.3 320 184V83.88l78.25 78.25C399.4 163.2 400 164.8 400 166.3v116.4l48-48V163.9c0-12.68-5.076-24.94-14.04-33.9l-83.9-83.9C341.1 37.06 328.8 32 316.1 32H64C28.65 32 0 60.65 0 96v320c0 35.35 28.65 64 64 64h195.8l9.594-48H64C55.16 432 48 424.8 48 416zM128 80h144V160H128V80zM307.4 420.6c-2.514 2.512-4.227 5.715-4.924 9.203l-14.28 71.41c-1.258 6.289 4.293 11.84 10.59 10.59l71.42-14.29c3.482-.6992 6.682-2.406 9.195-4.922l125.3-125.3l-72.01-72.01L307.4 420.6zM224 256c-35.2 0-64 28.8-64 64c0 35.2 28.8 64 64 64c35.2 0 64-28.8 64-64C288 284.8 259.2 256 224 256zM565.5 255.7l-21.1-21.11c-14.06-14.06-36.85-14.06-50.91 0l-38.13 38.13l72.01 72.01l38.13-38.13C579.5 292.5 579.5 269.7 565.5 255.7z"/></svg>