<svg xmlns="http://www.w3.org/2000/svg" viewBox="0 0 512 512"><!--! Font Awesome Pro 6.1.1 by @fontawesome - https://fontawesome.com License - https://fontawesome.com/license (Commercial License) Copyright 2022 Fonticons, Inc. --><path d="M497.9 97.94l-83.88-83.88C405.1 5.061 392.9 0 380.1 0H160C124.7 0 96 28.65 96 64v288c0 35.35 28.65 64 64 64h288c35.35 0 64-28.65 64-64V131.9C512 119.1 506.9 106.9 497.9 97.94zM224 48h112V96H224V48zM464 352c0 8.836-7.164 16-16 16H160c-8.836 0-16-7.164-16-16V64c0-8.838 7.164-16 16-16h16v72c0 13.25 10.75 24 24 24h160C373.3 144 384 133.3 384 120V51.88l78.23 78.23C463.4 131.2 464 132.8 464 134.4V352zM304 192c-35.2 0-64 28.8-64 64c0 35.2 28.8 64 64 64c35.2 0 64-28.8 64-64C368 220.8 339.2 192 304 192zM392 512h-272C53.83 512 0 458.2 0 392v-272C0 106.8 10.75 96 24 96S48 106.8 48 120v272c0 39.7 32.3 72 72 72h272c13.25 0 24 10.75 24 24S405.3 512 392 512z"/></svg>