<svg xmlns="http://www.w3.org/2000/svg" viewBox="0 0 512 512"><!--! Font Awesome Pro 6.1.1 by @fontawesome - https://fontawesome.com License - https://fontawesome.com/license (Commercial License) Copyright 2022 Fonticons, Inc. --><path d="M495.9 288h-47.26c-67.51 0-127.5 30-168.7 77v-82c37.38 12.88 78.76 0 102.3-31.88C405.8 219.2 405.9 175.9 382.5 144c11.38-15.5 17.5-34.12 17.5-53.38C400 40.62 359.4 0 309.4 0C290.1 0 271.5 6.125 256 17.5C240.5 6.125 221.9 0 202.6 0C152.6 0 111.1 40.62 111.1 90.62c0 19.25 6.126 37.88 17.5 53.38C118.1 159.5 111.1 178.1 111.1 197.4c0 29.25 14 56.75 37.88 73.75S204.4 292.6 231.1 283v82C190.9 318 130.9 288 63.35 288H16.09C6.962 288-.9142 296.9 .0859 307.7C9.962 422.1 106.4 512 223.9 512h64.26c117.5 0 213.9-89.88 223.8-204.4C512.9 297 505 288 495.9 288zM223.9 464c-79.51 0-148.8-54.13-169.9-128c75.26 0 128.6 32.25 160.9 85.88L240.1 464H223.9zM236.7 222.6C226.9 236.1 209.1 242.5 193.6 239C177.2 235.5 164.5 222.8 160.1 206.4C157.5 190 163.9 173.1 177.4 163.2L203.2 144L177.4 124.8c-10.88-8-17.38-20.63-17.38-34.13C159.1 67.12 179.1 48 202.6 48c13.5 0 26.13 6.5 34.13 17.38L256 91.25l19.25-25.87C283.1 54.5 295.9 48 309.4 48c23.5 0 42.63 19.12 42.63 42.62c0 13.5-6.501 26.13-17.38 34.13L308.8 144l25.88 19.25c10.88 8 17.38 20.63 17.38 34.13c0 23.5-19.13 42.62-42.63 42.62c-13.5 0-26.13-6.5-34.13-17.38L256 196.8L236.7 222.6zM288 464h-16.13l25.25-42.13C329.3 368.5 382.5 336 458.2 336C436.9 409.9 367.8 464 288 464zM288 144c0-17.62-14.38-32-32-32s-32 14.38-32 32S238.4 176 256 176S288 161.6 288 144z"/></svg>