<svg xmlns="http://www.w3.org/2000/svg" viewBox="0 0 640 512"><!--! Font Awesome Pro 6.0.0-beta3 by @fontawesome - https://fontawesome.com License - https://fontawesome.com/license (Commercial License) Copyright 2021 Fonticons, Inc. --><path d="M320 232C306.8 232 296 242.8 296 256S306.8 280 320 280S344 269.3 344 256S333.3 232 320 232zM576 160H64C28.65 160 0 188.7 0 224v64c0 35.35 28.65 64 64 64h512c35.35 0 64-28.65 64-64V224C640 188.7 611.3 160 576 160zM96 304H64C55.16 304 48 296.8 48 288V224c0-8.838 7.164-16 16-16h32V304zM592 288c0 8.836-7.164 16-16 16H144v-96H576c8.836 0 16 7.162 16 16V288zM512 232c-13.25 0-24 10.75-24 24S498.8 280 512 280S536 269.3 536 256S525.3 232 512 232zM416 232c-13.25 0-24 10.75-24 24S402.8 280 416 280S440 269.3 440 256S429.3 232 416 232z"/></svg>