<svg xmlns="http://www.w3.org/2000/svg" viewBox="0 0 512 512"><!--! Font Awesome Pro 6.1.1 by @fontawesome - https://fontawesome.com License - https://fontawesome.com/license (Commercial License) Copyright 2022 Fonticons, Inc. --><path d="M448 96h-172.1L226.7 50.75C214.7 38.74 198.5 32 181.5 32H64C28.65 32 0 60.66 0 96v320c0 35.34 28.65 64 64 64h384c35.35 0 64-28.66 64-64V160C512 124.7 483.3 96 448 96zM464 416c0 8.824-7.178 16-16 16H64c-8.822 0-16-7.176-16-16V96c0-8.824 7.178-16 16-16h117.5c4.273 0 8.293 1.664 11.31 4.688L256 144h192c8.822 0 16 7.176 16 16V416zM336 256H288V208C288 199.2 280.8 192 272 192h-32C231.2 192 224 199.2 224 208V256H176C167.2 256 160 263.2 160 271.1V304c0 8.797 7.199 15.1 16 15.1L224 319.1v47.1C224 376.8 231.2 384 240 384h32c8.801 0 16-7.201 16-16V319.1l48-.0012c8.801 0 16-7.201 16-15.1V271.1C352 263.2 344.8 256 336 256z"/></svg>