<svg xmlns="http://www.w3.org/2000/svg" viewBox="0 0 512 512"><!--! Font Awesome Pro 6.1.1 by @fontawesome - https://fontawesome.com License - https://fontawesome.com/license (Commercial License) Copyright 2022 Fonticons, Inc. --><path d="M448 96h-172.1L226.7 50.75C214.7 38.74 198.5 32 181.5 32H64C28.65 32 0 60.66 0 96v320c0 35.34 28.65 64 64 64h384c35.35 0 64-28.66 64-64V160C512 124.7 483.3 96 448 96zM464 416c0 8.824-7.178 16-16 16h-65.61C374.7 386.6 335.5 352 288 352H224c-47.54 0-86.73 34.64-94.39 80H64c-8.822 0-16-7.176-16-16V96c0-8.824 7.178-16 16-16h117.5c4.273 0 8.293 1.664 11.31 4.688L256 144h192c8.822 0 16 7.176 16 16V416zM256 192C220.7 192 192 220.7 192 256c0 35.34 28.65 64 64 64s64-28.66 64-64C320 220.7 291.3 192 256 192z"/></svg>