<svg xmlns="http://www.w3.org/2000/svg" viewBox="0 0 512 512"><!--! Font Awesome Pro 6.0.0-beta3 by @fontawesome - https://fontawesome.com License - https://fontawesome.com/license (Commercial License) Copyright 2021 Fonticons, Inc. --><path d="M448 96h-172.1L226.7 50.75C214.7 38.74 198.5 32 181.5 32H64C28.66 32 0 60.66 0 96v320c0 35.34 28.66 64 64 64h384c35.34 0 64-28.66 64-64V160C512 124.7 483.3 96 448 96zM464 416c0 8.824-7.18 16-16 16H64c-8.82 0-16-7.176-16-16V96c0-8.824 7.18-16 16-16h117.5c4.273 0 8.289 1.664 11.31 4.688L256 144h192c8.82 0 16 7.176 16 16V416zM336.1 207c-9.375-9.375-24.56-9.375-33.94 0L256 254.1L208.1 207c-9.375-9.375-24.56-9.375-33.94 0s-9.375 24.56 0 33.94L222.1 288l-47.03 47.03c-9.375 9.375-9.375 24.56 0 33.94c9.375 9.371 24.55 9.379 33.94 0L256 321.9l47.03 47.03c9.375 9.371 24.55 9.379 33.94 0c9.375-9.375 9.375-24.56 0-33.94L289.9 288l47.03-47.03C346.3 231.6 346.3 216.4 336.1 207z"/></svg>