<svg xmlns="http://www.w3.org/2000/svg" viewBox="0 0 512 512"><!--! Font Awesome Pro 6.1.1 by @fontawesome - https://fontawesome.com License - https://fontawesome.com/license (Commercial License) Copyright 2022 Fonticons, Inc. --><path d="M448 96h-172.1L226.7 50.75C214.7 38.74 198.5 32 181.5 32H64C28.65 32 0 60.66 0 96v320c0 35.34 28.65 64 64 64h384c35.35 0 64-28.66 64-64V160C512 124.7 483.3 96 448 96zM464 416c0 8.824-7.178 16-16 16H64c-8.822 0-16-7.176-16-16V96c0-8.824 7.178-16 16-16h117.5c4.273 0 8.293 1.664 11.31 4.688L256 144h192c8.822 0 16 7.176 16 16V416zM127.1 240c17.67 0 32-14.33 32-32s-14.33-32-32-32s-32 14.33-32 32S110.3 240 127.1 240zM306.6 215.1C303.7 210.7 298.7 208 293.3 208s-10.35 2.672-13.31 7.125l-62.74 94.11L194.9 278.6C191.9 274.4 187.1 272 181.1 272c-5.111 0-9.916 2.441-12.93 6.574l-70 96c-3.549 4.863-4.064 11.31-1.334 16.68C100.5 396.6 105.1 400 112 400h288c5.9 0 11.32-3.246 14.11-8.449c2.783-5.203 2.479-11.52-.7949-16.43L306.6 215.1z"/></svg>