<svg xmlns="http://www.w3.org/2000/svg" viewBox="0 0 640 512"><!--! Font Awesome Pro 6.0.0-beta3 by @fontawesome - https://fontawesome.com License - https://fontawesome.com/license (Commercial License) Copyright 2021 Fonticons, Inc. --><path d="M198.4 47.47c-7.094-18.62-37.78-18.62-44.88 0l-152 400c-4.703 12.41 1.516 26.25 13.91 30.97c12.44 4.75 26.28-1.531 30.97-13.91L83.12 368h185.8l36.68 96.53C309.2 474.1 318.3 480 328 480c2.844 0 5.719-.5 8.531-1.562c12.39-4.719 18.61-18.56 13.91-30.97L198.4 47.47zM101.4 320L176 123.6L250.6 320H101.4zM616 160c-13.25 0-24 10.75-24 24v4.889c-21.99-17.79-49.58-28.88-80-28.88c-70.58 0-128 57.41-128 128l.0007 63.93c0 70.59 57.42 128.1 127.1 128.1c30.42 0 58.01-11.11 79.1-28.9V456c0 13.25 10.75 24 24 24S640 469.3 640 456v-272C640 170.8 629.3 160 616 160zM592 352c0 44.13-35.89 80-80 80s-80-35.88-80-80V288c0-44.13 35.89-80 80-80s80 35.88 80 80V352z"/></svg>