<svg xmlns="http://www.w3.org/2000/svg" viewBox="0 0 320 512"><!--! Font Awesome Pro 6.0.0-beta3 by @fontawesome - https://fontawesome.com License - https://fontawesome.com/license (Commercial License) Copyright 2021 Fonticons, Inc. --><path d="M264 64c-13.25 0-24 10.75-24 24v105.8L66.59 69.97C61.07 66 54.55 64 48 64c-5.012 0-10.04 1.172-14.66 3.529c-10.66 5.5-17.34 16.48-17.34 28.48v319.1c0 12 6.687 22.98 17.34 28.48C37.97 446.8 43 448 48 448c6.562 0 13.06-2 18.59-5.969L240 318.2V424c0 13.25 10.75 24 24 24S288 437.3 288 424V88C288 74.75 277.3 64 264 64zM240 259.2L64 384.9V127.1l176 125.7V259.2z"/></svg>