<svg xmlns="http://www.w3.org/2000/svg" viewBox="0 0 512 512"><!--! Font Awesome Pro 6.1.1 by @fontawesome - https://fontawesome.com License - https://fontawesome.com/license (Commercial License) Copyright 2022 Fonticons, Inc. --><path d="M0 96.03v319.9C0 435.2 15.71 448 32.21 448c7.002 0 14.14-2.307 20.29-7.406L224 285.2v130.7C224 435.2 239.7 448 256.2 448c7.002 0 14.14-2.307 20.29-7.406L448 285.2v138.7c0 13.26 10.74 24 24 24c13.25 0 24-10.74 24-24V88.03c0-13.25-10.74-23.1-23.1-23.1c-13.26 0-24 10.75-24 24v139.8l-171.5-156.5C270.4 66.31 263.2 64 256.2 64C239.7 64 224 76.81 224 96.03v131.9L52.5 71.41C46.36 66.31 39.21 64 32.21 64C15.71 64 0 76.81 0 96.03zM272 132.3l136.2 124.3L272 379.9V132.3zM48 132.3l136.2 124.3L48 379.9V132.3z"/></svg>