<svg xmlns="http://www.w3.org/2000/svg" viewBox="0 0 448 512"><!--! Font Awesome Pro 6.1.1 by @fontawesome - https://fontawesome.com License - https://fontawesome.com/license (Commercial License) Copyright 2022 Fonticons, Inc. --><path d="M424 144H384V368H424C437.3 368 448 378.7 448 392C448 405.3 437.3 416 424 416H384V456C384 469.3 373.3 480 360 480C346.7 480 336 469.3 336 456V416H112V456C112 469.3 101.3 480 88 480C74.75 480 64 469.3 64 456V416H24C10.75 416 0 405.3 0 392C0 378.7 10.75 368 24 368H64V144H24C10.75 144 0 133.3 0 120C0 106.7 10.75 96 24 96H64V56C64 42.75 74.75 32 88 32C101.3 32 112 42.75 112 56V96H336V56C336 42.75 346.7 32 360 32C373.3 32 384 42.75 384 56V96H424C437.3 96 448 106.7 448 120C448 133.3 437.3 144 424 144zM112 368H336V144H112V368z"/></svg>