<svg xmlns="http://www.w3.org/2000/svg" viewBox="0 0 320 512"><!--! Font Awesome Pro 6.0.0-beta3 by @fontawesome - https://fontawesome.com License - https://fontawesome.com/license (Commercial License) Copyright 2021 Fonticons, Inc. --><path d="M296 32C309.3 32 320 42.75 320 56C320 69.25 309.3 80 296 80H96V192H264C277.3 192 288 202.7 288 216C288 229.3 277.3 240 264 240H96V320H200C213.3 320 224 330.7 224 344C224 357.3 213.3 368 200 368H96V456C96 469.3 85.25 480 72 480C58.75 480 48 469.3 48 456V368H24C10.75 368 0 357.3 0 344C0 330.7 10.75 320 24 320H48V56C48 42.75 58.75 32 72 32H296z"/></svg>