<svg xmlns="http://www.w3.org/2000/svg" viewBox="0 0 448 512"><!--! Font Awesome Pro 6.0.0-beta3 by @fontawesome - https://fontawesome.com License - https://fontawesome.com/license (Commercial License) Copyright 2021 Fonticons, Inc. --><path d="M222.1 480c-132.2 0-222.1-106.7-222.1-223.3c0-124.4 100.4-224.7 223.1-224.7c96.07 0 165.4 62.38 165.4 82.79c0 18.86-17.21 24.04-24.01 24.04c-24.5 0-48.42-58.82-141.4-58.82c-96.33 0-175.1 78.13-175.1 176.6c0 37.36 28.91 175.6 175 175.6c53.38 0 161.5-34.97 175.5-151.4h-150.6C234.7 280.9 224 270.1 224 256.8s10.75-24.03 23.1-24.03h175.1c13.25 0 23.1 10.76 23.1 24.03C447.1 399.1 330.2 479.1 222.1 480z"/></svg>