<svg xmlns="http://www.w3.org/2000/svg" viewBox="0 0 512 512"><!--! Font Awesome Pro 6.1.1 by @fontawesome - https://fontawesome.com License - https://fontawesome.com/license (Commercial License) Copyright 2022 Fonticons, Inc. --><path d="M506.5 266.9c-17.25-73.12-78.37-132.1-151.9-146.8c-20-4.125-40.63-5.125-60.87-3c11.5-20.5 29.25-36.5 50.75-45.88c15.62-6.375 24.62-22.63 21.88-39.26c-2.375-16.62-15.88-29.5-32.62-31c-22.38-2.25-45-.6196-66.88 4.505c-73.13 17.38-132.1 78.38-146.8 151.9c-4.125 20.12-5 40.62-2.875 60.87c-20.5-11.37-36.62-29.25-46-50.75c-6.5-15.5-22.75-24.51-39.25-21.88c-16.62 2.375-29.5 15.88-31 32.63c-2.25 22.38-.625 45 4.625 66.88c17.25 73.12 78.25 132.1 151.8 146.9c20 4 40.5 5 60.87 2.875c-11.5 20.5-29.25 36.5-50.75 45.88c-15.5 6.5-24.38 22.74-21.88 39.24c2.5 16.62 15.88 29.38 32.63 31c6.5 .625 13.13 1.005 19.75 1.005c15.88 0 31.62-1.875 47.12-5.5c73.13-17.38 132.1-78.38 146.8-151.9c4.125-20.12 5-40.63 2.875-60.87c20.5 11.37 36.62 29.25 46 50.75c6.5 15.38 22.75 24.37 39.25 21.87c16.62-2.5 29.25-15.87 31-32.49C513.2 311.4 511.7 288.7 506.5 266.9zM365.1 233.9c-8.375-1.25-16.62 2-22 8.375c-5.375 6.5-7 15.25-4.25 23.13c8.75 25.75 10.62 53.25 5.125 79.75c-11.38 56.75-58.25 106-121 116.6c29.25-24.25 48.5-58.25 54.25-95.75c1.25-8.25-2-16.62-8.375-22c-6.5-5.375-15.25-7-23.13-4.25c-25.75 8.75-53.25 10.5-79.75 5.125c-57-11.38-106.3-58.75-116.6-120.9c24.25 29.12 58.25 48.38 95.75 54.13c8.375 1.25 16.62-2 22-8.375c5.375-6.5 7-15.25 4.25-23.13c-8.75-25.62-10.62-53.25-5.125-79.75c11.38-56.75 58.25-106 121-116.6c-29.25 24.25-48.5 58.25-54.25 95.75c-1.25 8.375 2 16.62 8.375 22c6.5 5.375 15.25 7 23.13 4.25c25.62-8.75 53.25-10.62 79.75-5.125c56.88 11.38 106.2 58.63 116.6 121C437.5 258.9 403.5 239.6 365.1 233.9zM255.1 215.1c-22.12 0-40 17.88-40 40c0 22.13 17.88 40 40 40s40-17.88 40-40C295.1 233.9 278.1 215.1 255.1 215.1z"/></svg>