<svg xmlns="http://www.w3.org/2000/svg" viewBox="0 0 448 512"><!--! Font Awesome Pro 6.0.0-beta3 by @fontawesome - https://fontawesome.com License - https://fontawesome.com/license (Commercial License) Copyright 2021 Fonticons, Inc. --><path d="M224 400h144V256h-143.1L224 400zM384 32h-320C28.8 32 0 60.8 0 96v320c0 35.2 28.8 64 64 64h320c35.2 0 64-28.8 64-64V96C448 60.8 419.2 32 384 32zM400 416c0 8.674-7.326 16-16 16H64c-8.672 0-16-7.326-16-16V96c0-8.674 7.328-16 16-16h320c8.674 0 16 7.326 16 16V416zM80 112V256h144L224 112H80z"/></svg>