<svg xmlns="http://www.w3.org/2000/svg" viewBox="0 0 640 512"><!--! Font Awesome Pro 6.0.0-beta3 by @fontawesome - https://fontawesome.com License - https://fontawesome.com/license (Commercial License) Copyright 2021 Fonticons, Inc. --><path d="M323 51.12C321.1 50.34 318.9 50.34 316.1 51.12L62.98 154.1C53.93 157.8 48 166.6 48 176.3V488C48 501.3 37.25 512 24 512C10.75 512 0 501.3 0 488V176.3C0 147 17.78 120.6 44.95 109.6L298.1 6.634C312.5 1.164 327.5 1.164 341 6.634L595 109.6C622.2 120.6 640 147 640 176.3V488C640 501.3 629.3 512 616 512C602.7 512 592 501.3 592 488V176.3C592 166.6 586.1 157.8 577 154.1L323 51.12zM143.1 320V488C143.1 501.3 133.3 512 119.1 512C106.7 512 95.1 501.3 95.1 488V232C95.1 209.9 113.9 192 135.1 192H504C526.1 192 544 209.9 544 232V488C544 501.3 533.3 512 520 512C506.7 512 496 501.3 496 488V320H143.1zM496 272V240H143.1V272H496zM207.1 512C194.7 512 183.1 501.3 183.1 488V416C183.1 380.7 212.7 352 247.1 352H392C427.3 352 456 380.7 456 416V488C456 501.3 445.3 512 432 512C418.7 512 408 501.3 408 488V480H231.1V488C231.1 501.3 221.3 512 207.1 512zM247.1 400C239.2 400 231.1 407.2 231.1 416V432H408V416C408 407.2 400.8 400 392 400H247.1z"/></svg>