<svg xmlns="http://www.w3.org/2000/svg" viewBox="0 0 512 512"><!--! Font Awesome Pro 6.1.1 by @fontawesome - https://fontawesome.com License - https://fontawesome.com/license (Commercial License) Copyright 2022 Fonticons, Inc. --><path d="M288 112C288 129.7 273.7 144 256 144C238.3 144 224 129.7 224 112C224 94.33 238.3 80 256 80C273.7 80 288 94.33 288 112zM200 352C200 349 200.2 346.1 200.7 343.2L90.45 267.8C79.51 260.3 76.71 245.4 84.19 234.4C91.68 223.5 106.6 220.7 117.6 228.2L227.8 303.6C236.1 298.8 245.7 296 256 296C286.9 296 312 321.1 312 352C312 382.9 286.9 408 256 408C225.1 408 200 382.9 200 352V352zM192 160C192 177.7 177.7 192 160 192C142.3 192 128 177.7 128 160C128 142.3 142.3 128 160 128C177.7 128 192 142.3 192 160zM368 256C368 238.3 382.3 224 400 224C417.7 224 432 238.3 432 256C432 273.7 417.7 288 400 288C382.3 288 368 273.7 368 256zM384 160C384 177.7 369.7 192 352 192C334.3 192 320 177.7 320 160C320 142.3 334.3 128 352 128C369.7 128 384 142.3 384 160zM0 256C0 114.6 114.6 0 256 0C397.4 0 512 114.6 512 256C512 397.4 397.4 512 256 512C114.6 512 0 397.4 0 256zM256 464C370.9 464 464 370.9 464 256C464 141.1 370.9 48 256 48C141.1 48 48 141.1 48 256C48 370.9 141.1 464 256 464z"/></svg>