<svg xmlns="http://www.w3.org/2000/svg" viewBox="0 0 512 512"><!--! Font Awesome Pro 6.1.1 by @fontawesome - https://fontawesome.com License - https://fontawesome.com/license (Commercial License) Copyright 2022 Fonticons, Inc. --><path d="M256 80C273.7 80 288 94.33 288 112C288 129.7 273.7 144 256 144C238.3 144 224 129.7 224 112C224 94.33 238.3 80 256 80zM256 408C225.1 408 200 382.9 200 352C200 321.1 225.1 296 256 296C266.3 296 275.9 298.8 284.2 303.6L394.4 228.2C405.4 220.7 420.3 223.5 427.8 234.4C435.3 245.4 432.5 260.3 421.6 267.8L311.3 343.2C311.8 346.1 312 349 312 352C312 382.9 286.9 408 256 408V408zM352 128C369.7 128 384 142.3 384 160C384 177.7 369.7 192 352 192C334.3 192 320 177.7 320 160C320 142.3 334.3 128 352 128zM112 288C94.33 288 80 273.7 80 256C80 238.3 94.33 224 112 224C129.7 224 144 238.3 144 256C144 273.7 129.7 288 112 288zM160 128C177.7 128 192 142.3 192 160C192 177.7 177.7 192 160 192C142.3 192 128 177.7 128 160C128 142.3 142.3 128 160 128zM256 512C114.6 512 0 397.4 0 256C0 114.6 114.6 0 256 0C397.4 0 512 114.6 512 256C512 397.4 397.4 512 256 512zM464 256C464 141.1 370.9 48 256 48C141.1 48 48 141.1 48 256C48 370.9 141.1 464 256 464C370.9 464 464 370.9 464 256z"/></svg>