<svg xmlns="http://www.w3.org/2000/svg" viewBox="0 0 512 512"><!--! Font Awesome Pro 6.1.1 by @fontawesome - https://fontawesome.com License - https://fontawesome.com/license (Commercial License) Copyright 2022 Fonticons, Inc. --><path d="M256 80C273.7 80 288 94.33 288 112C288 129.7 273.7 144 256 144C238.3 144 224 129.7 224 112C224 94.33 238.3 80 256 80zM256 408C225.1 408 200 382.9 200 352C200 337.1 205.1 325.2 213.7 315.4L146 161.7C140.7 149.5 146.2 135.4 158.3 130C170.5 124.7 184.6 130.2 189.1 142.3L257.6 296C287.8 296.9 312 321.6 312 352C312 382.9 286.9 408 256 408V408zM352 128C369.7 128 384 142.3 384 160C384 177.7 369.7 192 352 192C334.3 192 320 177.7 320 160C320 142.3 334.3 128 352 128zM400 288C382.3 288 368 273.7 368 256C368 238.3 382.3 224 400 224C417.7 224 432 238.3 432 256C432 273.7 417.7 288 400 288zM112 224C129.7 224 144 238.3 144 256C144 273.7 129.7 288 112 288C94.33 288 80 273.7 80 256C80 238.3 94.33 224 112 224zM256 512C114.6 512 0 397.4 0 256C0 114.6 114.6 0 256 0C397.4 0 512 114.6 512 256C512 397.4 397.4 512 256 512zM464 256C464 141.1 370.9 48 256 48C141.1 48 48 141.1 48 256C48 370.9 141.1 464 256 464C370.9 464 464 370.9 464 256z"/></svg>