<svg xmlns="http://www.w3.org/2000/svg" viewBox="0 0 576 512"><!--! Font Awesome Pro 6.0.0-beta3 by @fontawesome - https://fontawesome.com License - https://fontawesome.com/license (Commercial License) Copyright 2021 Fonticons, Inc. --><path d="M288 192C270.3 192 256 177.7 256 160C256 142.3 270.3 128 288 128C305.7 128 320 142.3 320 160C320 177.7 305.7 192 288 192zM128 288C145.7 288 160 302.3 160 320C160 337.7 145.7 352 128 352C110.3 352 96 337.7 96 320C96 302.3 110.3 288 128 288zM176 240C158.3 240 144 225.7 144 208C144 190.3 158.3 176 176 176C193.7 176 208 190.3 208 208C208 225.7 193.7 240 176 240zM400 176C417.7 176 432 190.3 432 208C432 225.7 417.7 240 400 240C382.3 240 368 225.7 368 208C368 190.3 382.3 176 400 176zM35.21 458.1C12.76 417.1 0 370 0 320C0 160.9 128.9 32 288 32C447.1 32 576 160.9 576 320C576 370 563.2 417.1 540.8 458.1C533.1 472.1 517.9 480 501.9 480H74.13C58.11 480 42.9 472.1 35.21 458.1H35.21zM209.6 432C203.5 420 200 406.4 200 392C200 343.4 239.4 304 288 304C314.3 304 337.1 315.6 354.1 333.9L445.7 290.3C457.6 284.6 471.1 289.7 477.7 301.7C483.4 313.6 478.3 327.1 466.3 333.7L374.8 377.3C375.6 382.1 376 386.1 376 392C376 406.4 372.5 420 366.4 432H500.3C517.1 398.6 528 360.5 528 320C528 187.5 420.5 80 288 80C155.5 80 48 187.5 48 320C48 360.5 58.02 398.6 75.67 432H209.6zM248 392C248 414.1 265.9 432 288 432C310.1 432 328 414.1 328 392C328 369.9 310.1 352 288 352C265.9 352 248 369.9 248 392z"/></svg>