<svg xmlns="http://www.w3.org/2000/svg" viewBox="0 0 576 512"><!--! Font Awesome Pro 6.0.0-beta3 by @fontawesome - https://fontawesome.com License - https://fontawesome.com/license (Commercial License) Copyright 2021 Fonticons, Inc. --><path d="M35.21 458.1C12.76 417.1 0 370 0 320C0 160.9 128.9 32 288 32C447.1 32 576 160.9 576 320C576 370 563.2 417.1 540.8 458.1C533.1 472.1 517.9 480 501.9 480H74.13C58.11 480 42.9 472.1 35.21 458.1H35.21zM209.6 432C203.5 420 200 406.4 200 392C200 343.4 239.4 304 288 304C295.7 304 303.2 304.1 310.3 306.8L387.8 186.1C395 175.8 409.9 172.6 421 179.9C432.2 187.1 435.4 201.9 428.2 213L351.7 331.2C366.7 347 376 368.4 376 392C376 406.4 372.5 420 366.4 432H500.3C517.1 398.6 528 360.5 528 320C528 187.5 420.6 80 288 80C155.5 80 48 187.5 48 320C48 360.5 58.02 398.6 75.67 432H209.6zM248 392C248 414.1 265.9 432 288 432C310.1 432 328 414.1 328 392C328 369.9 310.1 352 288 352C265.9 352 248 369.9 248 392z"/></svg>