<svg xmlns="http://www.w3.org/2000/svg" viewBox="0 0 576 512"><!--! Font Awesome Pro 6.1.1 by @fontawesome - https://fontawesome.com License - https://fontawesome.com/license (Commercial License) Copyright 2022 Fonticons, Inc. --><path d="M512 32H64C28.65 32 0 60.65 0 96v320c0 35.35 28.65 64 64 64h448c35.35 0 64-28.65 64-64V96C576 60.65 547.3 32 512 32zM528 416c0 8.822-7.178 16-16 16H64c-8.822 0-16-7.178-16-16V96c0-8.822 7.178-16 16-16h448c8.822 0 16 7.178 16 16V416zM464 164h-88c-11.05 0-20 8.953-20 20v144c0 11.05 8.953 20 20 20s20-8.953 20-20V276H448c11.05 0 20-8.953 20-20S459 236 448 236h-52v-32H464c11.05 0 20-8.953 20-20S475 164 464 164zM304 164c-11.05 0-20 8.953-20 20v144c0 11.05 8.953 20 20 20s20-8.953 20-20v-144C324 172.1 315 164 304 164zM240 244H182.8c-11.05 0-20 8.953-20 20s8.953 20 20 20H220v13.73c-20.47 14.67-55.2 12.61-72.77-4.969C137.4 282.9 132 269.9 132 256s5.406-26.94 15.23-36.77c19.66-19.67 52.7-19.67 72.36 0c7.797 7.812 20.45 7.812 28.28 0c7.812-7.797 7.812-20.47 0-28.28c-34.75-34.75-94.17-34.78-128.9 0C101.6 208.3 92 231.4 92 256s9.578 47.67 26.95 65.05C136.1 338.2 160.7 348 186.5 348c25.83 0 50.47-9.828 67.59-26.95C257.9 317.3 260 312.2 260 306.9V264C260 252.1 251 244 240 244z"/></svg>