<svg xmlns="http://www.w3.org/2000/svg" viewBox="0 0 448 512"><!--! Font Awesome Pro 6.0.0-beta3 by @fontawesome - https://fontawesome.com License - https://fontawesome.com/license (Commercial License) Copyright 2021 Fonticons, Inc. --><path d="M192 95.1c-8.748 0-15.98 7.253-15.98 16S183.3 128 192 128s15.1-7.25 15.1-16S200.8 95.1 192 95.1zM224 335.1c-8.748 0-15.1 7.251-15.1 16s7.252 15.1 15.1 15.1s16-7.249 16-15.1S232.8 335.1 224 335.1zM446.7 226.6c-7.624-46.75-48.49-81-97.98-82.5c.8748-5.875 1.25-12 1.25-18.12c0-33.75-13.12-65.25-36.87-89.13C289.3 13.12 257.8 0 224 0s-65.23 13.12-89.1 36.88C111.2 60.75 98.05 92.25 98.05 126c0 6.124 .3749 12.12 1.25 18.12c-49.37 1.5-90.36 35.75-97.98 82.5C-3.434 255.8 4.815 285.4 23.81 307.8c11.37 13.37 25.75 23.25 41.74 29.12l-6.999 8.5c-17.1 21.62-26.62 50.25-23.62 78.5c2.874 27 15.87 50.88 36.74 67.13C89.05 504.5 110.8 512 133 512c29.74 0 57.74-13.12 76.74-36l14.25-17l14.25 17C257.3 498.9 285.3 512 315 512c22.25 0 43.99-7.5 61.49-21.12c20.75-16.12 33.74-40 36.74-67.12c2.999-28.25-5.624-56.88-23.62-78.5l-6.999-8.5c15.1-5.875 30.24-15.75 41.62-29C443.2 285.4 451.4 255.8 446.7 226.6zM347.1 295h-31.24c-8.124 0-14.75 6.625-14.75 14.75c0 3.5 1.25 6.875 3.374 9.5L352.7 376c18.87 22.75 17.5 58.75-5.874 77c-25.5 19.88-56.86 10.25-71.86-7.75L244 408c-5.249-6.25-12.62-9.375-19.1-9.375S209.3 401.8 204 408L172.9 445.2c-14.1 18.13-46.37 27.63-71.86 7.75C77.8 434.8 76.3 398.8 95.3 376L142.5 319.2c2.25-2.625 3.374-6 3.374-9.5c0-8.125-6.624-14.75-14.75-14.75H100C33.18 295 28.06 192 102.8 192H163.3c5.749 0 8.498-7.875 4.499-12.12c-13.5-14-21.75-33-21.75-53.87C146 82.88 180.9 48 224 48s77.99 34.88 77.99 78c0 20.87-8.248 39.87-21.75 53.87C276.3 184.1 278.9 192 284.8 192h60.49C419.1 192 414.1 295 347.1 295zM224 271.1c-8.748 0-15.1 7.252-15.1 16s7.252 15.1 15.1 15.1s16-7.249 16-15.1S232.8 271.1 224 271.1zM256 95.1c-8.748 0-15.99 7.253-15.99 16S247.3 128 256 128s15.1-7.25 15.1-16S264.8 95.1 256 95.1zM224 207.1c-8.748 0-15.1 7.251-15.1 16s7.252 15.1 15.1 15.1s16-7.249 16-15.1S232.8 207.1 224 207.1z"/></svg>