<svg xmlns="http://www.w3.org/2000/svg" viewBox="0 0 384 512"><!--! Font Awesome Pro 6.1.1 by @fontawesome - https://fontawesome.com License - https://fontawesome.com/license (Commercial License) Copyright 2022 Fonticons, Inc. --><path d="M32.07 .0003H351.9C370.5 .0003 385.1 15.58 383.9 33.1L357.7 451.1C355.6 485.7 327.5 512 293.5 512H96.76C63.18 512 35.25 486.3 32.66 452.9L.0982 34.47C-1.347 15.88 13.34 0 32.07 0L32.07 .0003zM293.5 464C302.1 464 309.3 457.4 309.8 448.1L326.1 189.4L324.5 190.3C291.3 208.7 250.2 205.3 220.5 181.6C203.8 168.2 180.2 168.2 163.5 181.6C134.1 205.1 93.47 208.7 60.41 190.8L80.51 449.2C81.16 457.5 88.29 464 96.76 464H293.5zM82.81 148.3C99 157.3 119 155.6 133.5 144.1C167.7 116.7 216.3 116.7 250.5 144.1C264.1 155.6 284.1 157.3 301.2 148.3L329.7 132.5L334.1 48H49.3L55.94 133.4L82.81 148.3z"/></svg>