<svg xmlns="http://www.w3.org/2000/svg" viewBox="0 0 448 512"><!--! Font Awesome Pro 6.0.0-beta3 by @fontawesome - https://fontawesome.com License - https://fontawesome.com/license (Commercial License) Copyright 2021 Fonticons, Inc. --><path d="M232 80C218.8 80 208 90.75 208 104S218.8 128 232 128S256 117.2 256 104S245.3 80 232 80zM104 160C90.75 160 80 170.8 80 184S90.75 208 104 208S128 197.2 128 184S117.2 160 104 160zM328 144c-13.25 0-24 10.75-24 24S314.8 192 328 192S352 181.2 352 168S341.2 144 328 144zM363.2 399c51.5-40.1 84.75-104 84.75-174.1c0-123.8-100.3-223.1-224-223.1S.0001 100.2 .0001 224c0 70.1 33.25 134 84.75 174.1l-46.38 61.75C22.62 481.9 37.63 512 64 512h320c26.38 0 41.38-30.12 25.62-51.25L363.2 399zM296.9 384l-40.87-.0001L256 336h57.88c14.25 0 22-15 12.88-24.88L276 256h15.28c10.75 0 16.5-11.25 9.75-18.75l-67.38-73.12c-5-5.5-14.38-5.5-19.38 0L146.9 237.3C140.2 244.8 145.9 256 156.7 256H172L121.2 311.1C112.2 321 120 336 134.2 336H192l.0001 47.1L151.1 384C90.38 356.2 48 295 48 224c0-97 79-176 176-176s176 79 176 176C400 295 357.6 356.2 296.9 384z"/></svg>