<svg xmlns="http://www.w3.org/2000/svg" viewBox="0 0 448 512"><!--! Font Awesome Pro 6.0.0-beta3 by @fontawesome - https://fontawesome.com License - https://fontawesome.com/license (Commercial License) Copyright 2021 Fonticons, Inc. --><path d="M384 32H64C28.65 32 0 60.65 0 96v320c0 35.35 28.65 64 64 64h320c35.35 0 64-28.65 64-64V96C448 60.65 419.3 32 384 32zM400 96v136h-56V80H384C392.8 80 400 87.18 400 96zM200 280v152h-48V280H200zM152 232V80h48v152H152zM248 280h48v152h-48V280zM248 232V80h48v152H248zM64 80h40v152H48V96C48 87.18 55.18 80 64 80zM48 416V280h56v152H64C55.18 432 48 424.8 48 416zM384 432h-40V280h56V416C400 424.8 392.8 432 384 432z"/></svg>