<svg xmlns="http://www.w3.org/2000/svg" viewBox="0 0 576 512"><!--! Font Awesome Pro 6.1.1 by @fontawesome - https://fontawesome.com License - https://fontawesome.com/license (Commercial License) Copyright 2022 Fonticons, Inc. --><path d="M560 128H544c0-35.35-28.65-64-64-64H128V56C128 42.74 117.3 32 104 32S80 42.74 80 56v9.613C34.64 73.27 0 112.5 0 160c0 47.94 35.24 87.33 81.16 94.5l-47.91 184.7C27.41 459.6 42.76 480 64.02 480h103.8c14.29 0 26.84-9.469 30.77-23.21L220.6 376H272v16c0 13.25 10.75 24 24 24S320 405.3 320 392v-80C320 298.7 309.3 288 296 288S272 298.7 272 312v16H233.6L253.2 256H480c35.35 0 64-28.65 64-64h16C568.8 192 576 184.8 576 176v-32C576 135.2 568.8 128 560 128zM155.6 432H84.71L130.4 256h73.11L155.6 432zM496 192c0 8.824-7.178 16-16 16H96C69.53 208 48 186.5 48 160S69.53 112 96 112h384c8.822 0 16 7.176 16 16V192zM448 144H96C87.16 144 80 151.2 80 160S87.16 176 96 176h352c8.844 0 16-7.156 16-16S456.8 144 448 144z"/></svg>