<svg xmlns="http://www.w3.org/2000/svg" viewBox="0 0 576 512"><!--! Font Awesome Pro 6.1.1 by @fontawesome - https://fontawesome.com License - https://fontawesome.com/license (Commercial License) Copyright 2022 Fonticons, Inc. --><path d="M576 192c0-44.11-35.89-80-80-80c-2.389 0-4.637 .5-6.973 .7051C502.1 100.1 512 83.6 512 64c0-35.29-28.71-64-64-64s-64 28.71-64 64s28.71 64 64 64c.1934 0 .3691-.0547 .5625-.0566C428.9 142.5 416 165.7 416 192c0 10.25 2.111 19.98 5.641 29h-35.44c-.6253-2.649-1.894-7.336-4.48-12.92l12.42-39.31c6.088-19.27 3.279-40.05-7.703-57.02c-8.379-12.94-20.77-22.46-35.13-27.29c-1.703-4.568-3.914-8.986-6.625-13.17c-8.377-12.94-20.76-22.46-35.13-27.28c-1.705-4.568-3.916-8.986-6.625-13.17C291.9 13.87 274.1 2.793 253.9 .4453C251.3 .1465 248.8 0 246.2 0C232.2 0 219 4.33 208 11.94c-3.738-1.109-7.602-1.904-11.55-2.365c-2.572-.2988-5.129-.4453-7.66-.4453c-29.56 0-55.51 19.25-64.56 47.89l-19.15 60.61C103.6 117.5 102.1 117.5 100.6 117.4C63.06 117.4 32.49 147.4 32 184.2L32 276.4c.459 28.92 9.332 56.27 24.43 79.53C23.87 366.1 0 396.1 0 432C0 476.1 35.89 512 80 512c31.25 0 58.09-18.19 71.25-44.38C177.7 494.9 214.6 512 255.5 512h169c20.21 0 39.18-8.938 52.05-24.52c9.82-11.89 15.16-26.57 15.44-41.72c13.81-10.78 25.58-28.89 26-52c3.842-3 7.385-6.438 10.56-10.28c12.87-15.58 18.05-35.96 14.21-55.91c-3.146-16.37-12.21-30.41-24.77-40.15c-.1703-10.73-2.475-16.23-2.98-17.95C549.9 260.9 576 229.5 576 192zM448 80c-8.836 0-16-7.164-16-16s7.164-16 16-16c8.838 0 16 7.164 16 16S456.8 80 448 80zM310.1 143.3c8.132-25.72 45.2-13.62 37.41 11.05l-5.838 18.48c-6.963-2.395-14.36-3.781-22.06-3.781c-6.262 0-12.46 1.018-18.51 2.734L310.1 143.3zM306.6 113.9L286.9 176.2L241.3 190.3C241.5 189.9 241.9 189.7 242 189.3l27.18-86.47C277.3 77.09 314.4 89.19 306.6 113.9zM80 184.8c.1426-10.8 9.443-19.39 20.16-19.39C110.9 165.5 119.7 174.3 119.6 185.1l1.693 40.66l48.73-154.3c8.12-25.72 45.2-13.62 37.41 11.05L176.1 181.7C175 185.1 176.9 188.8 180.4 189.9c.6523 .2051 1.312 .3047 1.961 .3047c2.76 0 5.32-1.773 6.195-4.545l38.94-123.3c8.121-25.72 45.2-13.62 37.41 11.05L229.6 185.4c-.9668 3.061 .6777 6.057 3.438 7.48L213.1 199c-62.06 20.69-103.1 77.4-103.1 141.5v5.66C91.76 328.1 80.43 303.6 80 276.4V184.8zM80 464c-17.67 0-32-14.33-32-32c0-17.67 14.33-32 32-32c17.67 0 32 14.33 32 32C112 449.7 97.67 464 80 464zM476.5 360h-130c-3.59 0-6.5 2.91-6.5 6.5s2.91 6.5 6.5 6.5h103.3c9.432 0 18.08 6.373 19.86 15.63C472 401.1 462.5 412 450.5 412h-104c-3.59 0-6.5 2.91-6.5 6.5s2.91 6.5 6.5 6.5h77.27c9.432 0 18.08 6.373 19.86 15.63C446 453.1 436.5 464 424.5 464h-169c-53.85 0-97.5-43.65-97.5-97.5v-26.03c0-43.37 27.65-81.73 69.22-95.6l87.52-27.02c1.912-.5762 3.84-.8516 5.734-.8516c8.367 0 16.06 5.359 18.67 13.72c3.174 10.31-2.59 21.23-12.87 24.4L288 269h161.8c9.432 0 18.08 6.373 19.86 15.63C472 297.1 462.5 308 450.5 308h-104c-3.59 0-6.5 2.91-6.5 6.5s2.91 6.5 6.5 6.5h129.3c9.432 0 18.08 6.373 19.86 15.63C498 349.1 488.5 360 476.5 360zM496 224c-17.67 0-32-14.33-32-32s14.33-32 32-32c17.67 0 32 14.33 32 32S513.7 224 496 224z"/></svg>