<svg xmlns="http://www.w3.org/2000/svg" viewBox="0 0 640 512"><!--! Font Awesome Pro 6.0.0-beta3 by @fontawesome - https://fontawesome.com License - https://fontawesome.com/license (Commercial License) Copyright 2021 Fonticons, Inc. --><path d="M346.8 395.1c-2.25 2.75-5.5 4.498-9 4.873s-7-.75-9-2.375l-36.88-31.49l-15.62 19.12c-13.88 17.12-39.13 19.74-55.25 6.623L123.8 303.9L24 304C10.75 304 0 314.7 0 328C0 341.3 10.75 352 24 352l81-.1582l84.63 76.35c30.88 25.12 73.75 25.74 105.6 3.875c12.5 10.75 26 15.87 41 15.87c18.25 0 35.38-7.373 48.88-23.99c11.23 4.377 23.44 4.91 34.84 1.898l-59.9-46.95L346.8 395.1zM616 352c13.25 0 24-10.75 24-24c0-13.26-10.75-24-24-24h-195.8l-83.7-65.6l40.42-37.01c6.5-5.998 7-16.12 1-22.62L367 167c-6-6.498-16.12-6.873-22.62-1l-46.17 42.39L260.2 178.6l60.97-55.95c7.4-6.791 17.07-10.57 27.12-10.6l58.1-.1738c16.47-.0488 32.32 6.25 44.26 17.59l48.65 46.19L616 176C629.3 176 640 165.3 640 152C640 138.7 629.3 128 616 128l-96.75-.3359l-26.45-26.37c-23.99-23.92-56.49-37.36-90.38-37.36H234.9c-30.26 0-59.06 11.22-82.04 30.54L38.81 5.109C34.41 1.672 29.19 0 24.03 0c-7.125 0-14.19 3.156-18.91 9.187C-3.06 19.62-1.247 34.72 9.19 42.89L601.2 506.9c10.5 8.203 25.56 6.328 33.69-4.078c8.188-10.44 6.375-25.53-4.062-33.7l-145.6-114.1c.2988-1.059 .8203-2.051 1.064-3.123L616 352zM222.1 148.7L190.2 123.8C200.9 116.2 213.7 111.1 226.1 111.1l35.05-.0449L223.3 147.4C222.8 147.8 222.5 148.3 222.1 148.7zM24 176l77-.1523L39.93 127.1L24 128C10.75 128 0 138.7 0 152C0 165.3 10.75 176 24 176z"/></svg>