<svg xmlns="http://www.w3.org/2000/svg" viewBox="0 0 576 512"><!--! Font Awesome Pro 6.1.1 by @fontawesome - https://fontawesome.com License - https://fontawesome.com/license (Commercial License) Copyright 2022 Fonticons, Inc. --><path d="M551.1 312.1c-31.13-26.36-69.26-16.12-88.39-1.75l-60.38 45.47h-3.375C399.7 317.9 369.3 288 330.7 288H186.7C158.3 288 130.3 297.4 108.1 314.4l-28.38 21.74H24C10.8 336.1 0 346.9 0 360.1c0 13.19 10.8 23.99 24 23.99l72-.0596l41.26-31.42c14-10.74 31.5-16.49 49.51-16.49h144c27.88 0 29 40.23-1.125 40.23H269.8c-7.5 0-13.75 6.123-13.75 13.74c0 7.619 6.252 13.87 13.75 13.87h134.6c9.711 0 19.16-3.158 26.92-8.996l61.26-46.1c8.252-6.121 20.5-6.621 28.38 0c10.12 8.496 9.375 23.11-.877 30.73l-100.6 75.46c-7.75 5.746-17.13 8.994-26.88 8.994H24C10.8 464 0 474.8 0 488C0 501.2 10.8 512 24 512h368.8c20 0 39.38-6.496 55.26-18.49l100.8-75.83c16.63-12.49 26.5-31.48 27.13-51.97C576.7 345.2 567.8 325.6 551.1 312.1zM224 208c53 0 95.99-43 95.99-96c0 0-31.99 32-95.99 32c-17.75 0-32-17.5-32-32L192 96c0-17.62 14.38-32 32-32h128c17.62 0 32 14.38 32 32L384 112c0 34.25-17.5 66.5-42.13 90.75L288 256l17.75-1C382.9 250.6 447.4 189.8 448 113.5L447.1 96c0-53-42.1-96-95.1-96H223.1c-53 0-95.1 43-95.1 96L128 112C128 163.1 172.9 208 224 208z"/></svg>