<svg xmlns="http://www.w3.org/2000/svg" viewBox="0 0 448 512"><!--! Font Awesome Pro 6.0.0-beta3 by @fontawesome - https://fontawesome.com License - https://fontawesome.com/license (Commercial License) Copyright 2021 Fonticons, Inc. --><path d="M344 64c-6.352 0-12.62 .8711-18.74 2.6C312.4 45.39 289.5 32 264 32c-6.352 0-12.62 .8711-18.74 2.6C232.4 13.39 209.5 0 184 0S135.6 13.39 122.7 34.6C116.6 32.87 110.4 32 104 32C64.3 32 32 64.3 32 104v64c0 6.389 1.289 12.42 2.871 18.31C13.82 202.4 0 227.5 0 256v88.42c0 27.31 12.38 52.61 33.97 69.41L64 437.2V488C64 501.3 74.75 512 88 512s24-10.75 24-24v-63.28c0-14.86-12.35-21.16-14.94-22.64l-33.63-26.14C53.63 368.3 48 356.8 48 344.4V256c0-22.06 17.94-40 40-40h84c15.44 0 28 12.56 28 28S187.4 272 172 272H120C106.8 272 96 282.8 96 296S106.8 320 120 320h52c33.23 0 61.25-21.58 71.54-51.36C250 270.7 256.9 272 264 272c14.45 0 28.25-4.258 40-12.19C315.8 267.7 329.5 272 344 272c8.457 0 16.46-1.734 24-4.424V312c0 38.45-19.72 73.81-52.78 94.58C308.3 410.1 304 418.7 304 426.9V488c0 13.25 10.75 24 24 24S352 501.3 352 488v-48.48c40.31-30.23 64-76.97 64-127.5v-176C416 96.3 383.7 64 344 64zM160 72C160 58.77 170.8 48 184 48S208 58.77 208 72v96c0 3.029-.7012 5.875-1.73 8.545C195.9 171.3 184.4 168 172 168H160V72zM80 168v-64c0-13.23 10.78-24 24-24S128 90.77 128 104v64H88c-2.686 0-5.217 .5566-7.84 .793C80.15 168.5 80 168.3 80 168zM288 200C288 213.2 277.2 224 264 224S240 213.2 240 200v-96c0-13.23 10.78-24 24-24S288 90.77 288 104V200zM344 224C330.8 224 320 213.2 320 200v-64c0-13.23 10.78-24 24-24s24 10.77 24 24v64C368 213.2 357.2 224 344 224z"/></svg>