<svg xmlns="http://www.w3.org/2000/svg" viewBox="0 0 512 512"><!--! Font Awesome Pro 6.1.1 by @fontawesome - https://fontawesome.com License - https://fontawesome.com/license (Commercial License) Copyright 2022 Fonticons, Inc. --><path d="M173.1 63.1H126.1c-32.1 0-61.65 17.1-77.12 44.63L17.65 164.5C6.103 185.1 0 208.4 0 231.8v107.9c0 77.37 64.6 140.3 144 140.3H236c39.92 0 72.56-31.19 73.95-70.04c17.5-13.63 28.05-34.63 28.05-56.74v-13.53c0-3.557-.273-7.102-.814-10.61C346.8 316.6 352 301.4 352 285.5V271.1h87.1C479.7 271.1 512 239.7 512 199.1s-32.3-72-72-72h-169.7L241 95.43C224.5 75.46 199.8 63.1 173.1 63.1zM173.1 111.1c12.31 0 23.77 5.281 31.39 14.5L220.2 143.1L176 143.1c-8.844 0-16 7.162-16 16.01s7.156 16 16 16L439.1 175.1c13.23 0 24 10.78 24 24s-10.77 24-24 24h-142c-9.578 0-16.04 7.941-16.04 16.15c0 6.433 4.017 12.31 10.17 14.73C293.2 255.3 304 260.3 304 271.1v13.53c0 20.97-19.58 17.92-19.58 34.27c0 8.211 5.583 9.847 5.583 19.88v13.53c0 25.55-28.23 18.27-28.23 38.66c0 .1566 .0027 .3126 .0081 .4679l.2183 15.03c0 13.59-11.66 24.62-25.1 24.62H143.1c-52.94 0-95.1-41.41-95.1-92.31V231.8c0-15.25 3.984-30.41 11.52-43.88l31.34-55.78c6.984-12.44 20.5-20.16 35.27-20.16H173.1z"/></svg>