<svg xmlns="http://www.w3.org/2000/svg" viewBox="0 0 640 512"><!--! Font Awesome Pro 6.0.0-beta3 by @fontawesome - https://fontawesome.com License - https://fontawesome.com/license (Commercial License) Copyright 2021 Fonticons, Inc. --><path d="M575.5 96.4C532.5 91.91 496 125.8 496 167.9l-.25 76c-11.62-7.75-25.62-12-39.75-12c-22.38 0-43.25 10.25-57 28l-71.75 93.25c-2.75 3.5-5 7.5-7.25 11.25c-2.25-3.75-4.5-7.75-7.25-11.25L241 259.9c-13.75-17.75-34.63-28-57-28c-14.12 0-28.12 4.25-39.75 12L144 167.9c0-42.11-36.47-76.01-79.49-71.52C26.98 100.3 0 134.8 0 172.6v189.1c0 25.51 8.635 50.28 24.5 70.26l54.12 70.95C86.75 513.1 101.5 515 112 507.2c10.9-8.174 12.88-23.74 4.365-34.38l-54.37-70.87C52.94 390.6 48 376.5 48 362V168.8c0-11.62 7.75-22.25 19.25-24.38C82.5 141.4 96 153.2 96 167.9c0 0 .25 101 .25 132.6c0 7.625 2.875 14.75 7.875 20.62l76.5 92.5c4.375 5.375 10.62 8 17 8c5.75 0 11.62-2.25 16.12-7c7.5-7.875 7.25-20.38 .75-29.12l-49.5-67c-8.125-10.5-6.125-25.62 4.375-33.75c4.375-3.375 9.5-5 14.62-5c7.25 0 14.25 3.25 19.12 9.375l71.85 93.55c8.527 11.1 13.15 24.71 13.15 38.7l-.0938 58.54c0 17.55 14.43 31.86 31.97 31.94c17.54-.0742 31.97-14.38 31.97-31.94l-.0938-58.54c0-13.1 4.621-27.6 13.15-38.7l71.85-93.55C441.8 283 448.8 279.8 456 279.8c5.125 0 10.25 1.625 14.62 5c10.5 8.125 12.5 23.25 4.375 33.75l-49.5 67c-6.5 8.75-6.75 21.25 .75 29.12c4.5 4.75 10.38 7 16.12 7c6.375 0 12.62-2.625 17-8l76.5-92.5c5-5.875 7.875-13 7.875-20.62C543.8 268.9 544 167.9 544 167.9c0-14.75 13.5-26.5 28.75-23.5C584.3 146.5 592 157.2 592 168.8v193.2c0 14.51-4.938 28.58-14 39.91l-54.36 70.87C515.1 483.4 517.1 498.1 528 507.2c10.46 7.842 25.25 5.936 33.38-4.301l54.12-70.95C631.4 411.9 640 387.2 640 361.7V172.6C640 134.8 613 100.3 575.5 96.4zM307.2 250.5c7 7.375 18.5 7.375 25.5 0l108.1-114.2c31.5-33.13 29.69-88.08-5.684-118.7c-30.88-26.75-76.77-21.9-104.9 7.727L319.1 36.94L308.9 25.31C280.7-4.314 234.7-9.193 203.1 17.56c-35.25 30.62-37.25 85.58-5.629 118.7L307.2 250.5z"/></svg>