<svg xmlns="http://www.w3.org/2000/svg" viewBox="0 0 576 512"><!--! Font Awesome Pro 6.0.0-beta3 by @fontawesome - https://fontawesome.com License - https://fontawesome.com/license (Commercial License) Copyright 2021 Fonticons, Inc. --><path d="M551.1 312c-31.13-26.38-69.26-16.12-88.39-1.75l-60.38 45.5h-3.375c-.125-38-30.5-67.88-69.13-67.88H186.7c-28.38 0-56.38 9.375-78.51 26.38L79.76 336H24C10.8 336 0 346.8 0 360C0 373.2 10.8 384 24 384l72-.0244l41.26-31.48C151.3 341.8 168.8 336 186.8 336h144c27.88 0 29 40.25-1.125 40.25H269.8c-7.5 0-13.75 6.125-13.75 13.75s6.252 13.88 13.75 13.88h134.6c9.711 0 19.16-3.16 26.92-9l61.26-46.13c8.252-6.125 20.5-6.625 28.38 0c10.12 8.5 9.375 23.12-.877 30.75l-100.6 75.5C411.7 460.8 402.3 464 392.6 464H24C10.8 464 0 474.8 0 488C0 501.2 10.8 512 24 512h368.8c20 0 39.38-6.5 55.26-18.5l100.8-75.88c16.63-12.5 26.5-31.5 27.13-52C576.7 345.1 567.8 325.5 551.1 312zM287.1 256c53 0 95.1-42.12 95.1-93.1c0-40-57.12-120.8-83.25-155.6C297.6 2.125 292.7 0 287.1 0S278.4 2.125 275.2 6.375C249.1 41.25 191.1 122 191.1 162C191.1 213.9 234.1 256 287.1 256zM288 70.88C321.1 120.8 335.5 152 336 162C336 187.4 314.5 208 288 208S240 187.4 240 162.3C240.5 152.1 253.1 120.8 288 70.88z"/></svg>