<svg xmlns="http://www.w3.org/2000/svg" viewBox="0 0 576 512"><!--! Font Awesome Pro 6.0.0-beta3 by @fontawesome - https://fontawesome.com License - https://fontawesome.com/license (Commercial License) Copyright 2021 Fonticons, Inc. --><path d="M575.1 365.7c-.6251 20.49-10.5 39.48-27.13 51.97l-100.8 75.83C432.2 505.5 412.8 512 392.8 512H24C10.8 512 0 501.2 0 488s10.8-23.99 24-23.99h368.6c9.751 0 19.13-3.248 26.88-8.995l100.6-75.46c10.25-7.621 11-22.24 .8751-30.73c-7.876-6.621-20.13-6.122-28.38 0l-61.26 46.1c-7.757 5.838-17.2 8.995-26.92 8.995H269.8c-7.501 0-13.75-6.122-13.75-13.74c0-7.621 6.251-13.87 13.75-13.87h59.88c30.13 0 29-40.23 1.125-40.23H186.8c-18 0-35.51 5.747-49.51 16.49l-41.26 31.42l-72 .0601C10.8 384.1 0 373.3 0 360.1s10.8-23.99 24-23.99h55.76l28.38-21.74C130.3 297.4 158.3 288 186.7 288h144c38.63 0 69.01 29.86 69.13 67.84h3.375l60.38-45.47c19.13-14.37 57.26-24.61 88.39 1.749C567.8 325.6 576.7 345.2 575.1 365.7z"/></svg>