<svg xmlns="http://www.w3.org/2000/svg" viewBox="0 0 512 512"><!--! Font Awesome Pro 6.0.0-beta3 by @fontawesome - https://fontawesome.com License - https://fontawesome.com/license (Commercial License) Copyright 2021 Fonticons, Inc. --><path d="M306.4 303.1c-10.48 0-21.05 4.401-28.9 12.64l-5.543 5.799l-5.543-5.799c-7.839-8.238-18.4-12.64-28.89-12.64c-21.88 0-37.57 18.85-37.57 39.78c0 10.27 3.732 20.53 11.19 28.37l54.42 57.08c1.758 1.846 4.065 2.769 6.372 2.769s4.614-.9229 6.372-2.769l54.42-57.08c7.481-7.841 11.22-18.11 11.22-28.39C344 322.8 328.3 303.1 306.4 303.1zM408 80c-3.994 0-7.91 .3262-11.73 .9551c-9.586-28.51-36.57-49.11-68.27-49.11c-6.457 0-12.72 .8555-18.68 2.457C296.6 13.73 273.9 0 248 0C222.1 0 199.3 13.79 186.6 34.44C180.7 32.85 174.5 32 168.1 32C128.4 32 96.01 64.3 96.01 104v121.6C90.77 224.6 85.41 224 80.01 224c-.0026 0 .0026 0 0 0c-43.58 0-80.01 35.15-80.01 80.07c0 20.29 7.558 39.52 21.45 54.45l81.25 87.24C141.9 487.9 197.4 512 254.9 512h33.08C393.9 512 480 425.9 480 320V152C480 112.3 447.7 80 408 80zM432 320c0 79.41-64.59 144-143.1 144H254.9c-44.41 0-86.83-18.46-117.1-50.96l-79.76-85.63C51.87 320.7 48.66 312 48.66 303.4c0-22.11 18.46-31.4 31.35-31.4c8.561 0 17.1 3.416 23.42 10.18l26.72 28.69c1.65 1.771 3.738 2.564 5.79 2.564c4.106 0 8.065-3.172 8.065-8.017V104c0-13.25 10.75-24 23.1-24s24 10.75 24 24V256c0 8.836 7.164 16 16 16S224 264.8 224 256l.0018-184c0-13.25 10.75-24 24-24s24 10.75 24 24V256c0 8.836 7.162 16 15.1 16c8.838 0 15.99-7.164 15.99-16l.0073-152.2c0-13.25 10.75-24 24-24s24 10.75 24 24V256c0 8.836 7.164 16 16 16s16-7.164 16-16V152c0-13.25 10.75-24 24-24C421.3 128 432 138.8 432 152V320z"/></svg>