<svg xmlns="http://www.w3.org/2000/svg" viewBox="0 0 512 512"><!--! Font Awesome Pro 6.0.0-beta3 by @fontawesome - https://fontawesome.com License - https://fontawesome.com/license (Commercial License) Copyright 2021 Fonticons, Inc. --><path d="M412 160c-8.322 0-16.3 1.514-23.67 4.268C367.1 142.8 341 144 340 144c-10.98 0-23.57 4.461-23.8 4.547l21.93-48.56c4.244-9.414 6.252-19.28 6.252-28.1c0-20.09-15.82-71.01-70.77-71.01c-26.71 0-52.68 15.25-64.61 41.72L148.6 175.4L105.6 80.27c-1.366-3.038-2.012-6.223-2.012-9.36c0-6.322 4.956-22.87 22.83-22.87c8.714 0 17 4.992 20.81 13.41L156.1 81.07l23.73-52.54c.3594-.7988 .9121-1.463 1.291-2.25C167.5 9.645 147.2 .0928 126.1 .0928c-54.75 0-70.45 50.54-70.45 70.91c0 9.718 2.008 19.59 6.25 29L120.6 231.1c-8.428 1.311-16.34 2.555-17.27 2.76c-32.05 7.023-55.32 36.51-55.32 70.11v80c0 22.06 10.4 43.32 27.83 56.86l45.95 35.74c29.35 22.83 65.98 35.41 103.2 35.41l78.81 .0352c97.19 0 176.3-79.06 176.3-176.3V228.3C480 210.5 465.2 160 412 160zM320 212.3c0-11.17 8.982-20.25 20-20.25c10.1 0 19.98 9.071 19.98 20.24l.0195 55.51c0 11.17-8.98 20.25-20 20.25c-11.02 0-20-9.078-20-20.25V212.3zM252.8 61.45c3.805-8.465 12.2-13.44 20.83-13.44c17.75 0 22.81 16.32 22.81 22.89c0 3.133-.6466 6.314-2.012 9.346L232.7 216.8C229.8 216.4 226.9 216 223.9 216c0 0 .002 0 0 0c-4.475 0-8.967 .4199-13.38 1.254L181.1 221.8L252.8 61.45zM303.8 464l-78.81-.0352c-26.56 0-52.72-8.984-73.69-25.3L105.3 402.9c-5.812-4.516-9.281-11.61-9.281-18.95v-80c0-11.23 7.969-21.11 17.59-23.22l105.3-16.23C220.6 264.2 222.3 264 223.9 264c11.91 0 24.09 9.521 24.09 24.06c0 11.04-7.513 20.95-17.17 23.09L172.8 319c-12.03 1.633-20.78 11.92-20.78 23.75c0 20.21 18.82 24.08 23.7 24.08c2.645 0 64.61-8.619 65.54-8.826c23.55-5.227 41.51-22.23 49.73-43.64c12.34 13.18 29.61 21.64 49.03 21.64c8.326 0 16.31-1.51 23.69-4.27c12.33 12.51 29.44 20.27 48.31 20.27c.1992 0 10.08-.4453 18.65-2.92C423.9 413.5 369.9 464 303.8 464zM432 283.8c0 11.17-8.98 20.25-20 20.25c-11.02 0-20-9.078-20-20.25v-55.5c0-11.17 8.982-20.25 20-20.25C423 208 432 217.1 432 228.3L432 283.8z"/></svg>