<svg xmlns="http://www.w3.org/2000/svg" viewBox="0 0 512 512"><!--! Font Awesome Pro 6.1.1 by @fontawesome - https://fontawesome.com License - https://fontawesome.com/license (Commercial License) Copyright 2022 Fonticons, Inc. --><path d="M307.9 199.5L283.1 187.1l-12.42-24.84c-1.477-2.949-5.68-2.949-7.156 0L251.1 187.1L226.2 199.5c-2.949 1.477-2.949 5.68 0 7.156L251.1 219.1l12.42 24.84c1.477 2.949 5.68 2.949 7.156 0L283.1 219.1l24.84-12.42C310.8 205.2 310.8 200.1 307.9 199.5zM496 448h-480C7.164 448 0 455.2 0 464C0 490.5 21.49 512 48 512h416c26.51 0 48-21.49 48-48C512 455.2 504.8 448 496 448zM203.2 187.3c8.062-18.34 21.62-33.38 39.22-43.41L361.1 76l-32.03 96.22c-6.562 19.53-5.688 40.56 2.312 58.91L408.6 416h52.04L375.5 212.3c-3.375-7.75-3.719-16.56-.9375-24.81l51.91-155.9c3.125-9.438 .125-19.84-7.562-26.16c-7.719-6.281-18.44-7.219-27.12-2.281l-173.2 99C192 117.3 171.5 140.1 159.5 167.4L43.87 416h52.92L203.2 187.3zM248 328L231.6 278.8c-2.434-7.289-12.75-7.289-15.18 0L200 328l-49.23 16.41c-7.289 2.434-7.289 12.75 0 15.18L200 376L208 416h32l8-40l49.23-16.41c7.289-2.434 7.289-12.75 0-15.18L248 328z"/></svg>