<svg xmlns="http://www.w3.org/2000/svg" viewBox="0 0 512 512"><!--! Font Awesome Pro 6.1.1 by @fontawesome - https://fontawesome.com License - https://fontawesome.com/license (Commercial License) Copyright 2022 Fonticons, Inc. --><path d="M195.3 105.2c-5.5 10-4.462 22.79 4.163 31.41c5.25 5.125 11.96 7.713 18.84 7.713c4.5 0 8.625-1.5 12.5-3.625C234.1 151.8 243.9 160 256 160s21.88-8.25 25.25-19.25c4 2.125 8.125 3.625 12.5 3.625c6.75 0 13.54-2.663 18.91-7.788c8.625-8.625 9.587-21.34 4.087-31.34C327.8 101.9 336 92.13 336 80s-8.25-21.87-19.25-25.25c5.5-10 4.487-22.76-4.138-31.39s-21.36-9.613-31.36-4.113C277.9 8.25 268.1 0 256 0S234.1 8.25 230.8 19.25c-10-5.5-22.76-4.494-31.38 4.131C190.7 32.01 189.8 44.75 195.3 54.75C184.3 58.13 176 67.88 176 80S184.3 101.9 195.3 105.2zM480 416H32c-17.75 0-32 14.25-32 32v32c0 17.75 14.25 32 32 32h448c17.75 0 32-14.25 32-32v-32C512 430.3 497.8 416 480 416zM85.88 335.9L128 314.8l64 32l64-32l64 32l64-32l42.13 21.12C431.6 362.3 432 381.5 432 384H480c0-2-2.25-165.5-131.9-244.9c-2.875 7.25-7.062 14.12-12.94 20.12c-6.625 6.5-14.69 11.13-23.31 14c46.88 24.5 75.25 61.75 92.63 98.13L384 261.3l-64 32l-64-32l-64 32l-64-32L107.4 271.5C124.8 235.1 153.3 197.9 200 173.3C191.4 170.5 183.4 165.9 176.8 159.2C170.9 153.4 166.8 146.6 163.9 139.3C34.25 218.5 32 382 32 384h48C80 381.5 80.38 362.3 85.88 335.9z"/></svg>