<svg xmlns="http://www.w3.org/2000/svg" viewBox="0 0 512 512"><!--! Font Awesome Pro 6.0.0-beta3 by @fontawesome - https://fontawesome.com License - https://fontawesome.com/license (Commercial License) Copyright 2021 Fonticons, Inc. --><path d="M313.6 192c21.12 0 38.38-16.5 38.38-36.75c0-20.38-17.25-36.88-38.38-36.88h-2.625c-5.25-15.25-19.62-25.5-35.75-25.62c-7.125 0-13.38 2.5-19.12 5.875C249.4 87.63 237.8 80 224 80S198.6 87.63 191.9 98.63c-5.75-3.375-12-5.875-19.12-5.875c-21.12 0-38.38 17.25-38.38 38.5c-21.12 0-38.38 17.12-38.38 38.38c0 16.88 11 30.75 26.12 35.88C122 206.4 121.6 207.1 121.6 208c0 21.25 17.12 38.38 38.38 38.38c4.375-.125 8.75-1 12.75-2.5v50.5C172.8 308.5 184.2 320 198.4 320s25.62-11.47 25.62-25.62v-50.5c4.125 1.5 8.375 2.375 12.75 2.5c21.25 0 38.5-17.12 38.5-38.38c-.125-5.5-1.375-11-3.75-16H313.6zM509.2 275c-21-47.13-48.5-151.8-73.12-186.8C397.6 33.62 334.5 0 266.1 0H200.1c-104.5 0-195.9 80.13-199.9 184.5C-2.111 244.4 23.13 298.1 64 334.9L64.01 488c0 13.26 10.75 24 24 24c13.25 0 23.1-10.74 23.1-23.1V313.4l-15.1-14.25C49.13 257 33.01 187.4 63.88 126.6C89.26 76.75 143.1 48 198.1 48h67.12c51.1 0 100.9 25.38 130.7 67.88c11.25 15.88 27.1 65.63 40.37 102C443.7 237.3 450.1 255.8 456.2 272h-56.25V384c0 8.836-7.164 16-16 16h-79.99v88c0 13.26 10.74 24 24 24c13.25 0 23.1-10.74 23.1-23.1V448h32.01c35.34 0 63.1-28.65 63.1-63.1V320h31.1C503.1 320 518.6 296.1 509.2 275z"/></svg>