<svg xmlns="http://www.w3.org/2000/svg" viewBox="0 0 512 512"><!--! Font Awesome Pro 6.0.0-beta3 by @fontawesome - https://fontawesome.com License - https://fontawesome.com/license (Commercial License) Copyright 2021 Fonticons, Inc. --><path d="M505.8 233.4l-105.4-179.2C392.3 40.52 377.5 32 361.4 32H150.6C134.5 32 119.7 40.52 111.6 54.17l-105.4 179.2c-8.234 14-8.234 31.27 0 45.27l105.4 179.2C119.7 471.5 134.5 480 150.6 480h210.8c16.12 0 30.94-8.518 39.05-22.17l105.4-179.2C514.1 264.6 514.1 247.4 505.8 233.4zM359.9 432H152.1L48.55 256L152.1 80h207.9l103.5 175.1L359.9 432zM279.1 232V160c0-13.26-10.74-24-23.1-24S231.1 146.7 231.1 160v72H159.1C146.7 232 135.1 242.7 135.1 256c0 13.25 10.75 24 24 24h71.1V352c0 13.25 10.75 24 24 24s23.1-10.75 23.1-24V280h72c13.25 0 23.1-10.75 23.1-24c0-13.26-10.74-24-23.1-24H279.1z"/></svg>