<svg xmlns="http://www.w3.org/2000/svg" viewBox="0 0 512 512"><!--! Font Awesome Pro 6.1.1 by @fontawesome - https://fontawesome.com License - https://fontawesome.com/license (Commercial License) Copyright 2022 Fonticons, Inc. --><path d="M445.8 105.9C468.1 118.8 481.8 142.6 481.8 168.3V344.9C481.8 370.6 468.1 394.4 445.8 407.2L292.9 495.5C270.6 508.4 243.2 508.4 220.9 495.5L68 407.2C45.72 394.4 32 370.6 32 344.9V168.3C32 142.6 45.72 118.8 68 105.9L220.9 17.65C243.2 4.785 270.6 4.785 292.9 17.65L445.8 105.9zM91.1 147.5C84.57 151.8 79.1 159.7 79.1 168.3V344.9C79.1 353.4 84.57 361.4 91.1 365.6L244.9 453.9C252.3 458.2 261.5 458.2 268.9 453.9L421.8 365.6C429.3 361.4 433.8 353.4 433.8 344.9V168.3C433.8 159.7 429.3 151.8 421.8 147.5L268.9 59.22C261.5 54.93 252.3 54.93 244.9 59.22L91.1 147.5zM295.9 109.6C300.9 112.4 304 117.7 304 123.5C304 135.8 290.7 143.5 280.1 137.4L255.8 123.6V240.6H287.8C296.7 240.6 303.8 247.7 303.8 256.6C303.8 265.4 296.7 272.6 287.8 272.6H255.8V400.6C255.8 409.4 248.7 416.6 239.8 416.6C231 416.6 223.8 409.4 223.8 400.6V96.34C223.8 94.77 224 93.18 224.5 91.63C224.1 89.71 225.9 87.94 227 86.4C228.2 84.9 229.5 83.64 231 82.65C233.6 80.97 236.6 80 239.8 80H239.9C240.4 80 240.9 80.03 241.4 80.07C243.8 80.3 246.1 81.09 248.1 82.31L295.9 109.6zM328.1 164.8C323.1 161.9 320 156.6 320 150.9C320 138.6 333.3 130.9 343.9 137L415.9 178.1C423.6 182.5 426.3 192.3 421.9 199.9C417.5 207.6 407.7 210.3 400.1 205.9L383.8 196.6V352.6C383.8 361.4 376.7 368.6 367.8 368.6C359 368.6 351.8 361.4 351.8 352.6V178.4L328.1 164.8zM191.8 368.6C191.8 376.4 186.2 383.1 178.4 384.4C170.7 385.6 163.1 381.1 160.7 373.6L127.8 275.2V336.6C127.8 345.4 120.7 352.6 111.8 352.6C103 352.6 95.85 345.4 95.85 336.6V176.6C95.85 168.7 101.5 162 109.3 160.8C117 159.5 124.5 164.1 127 171.5L159.8 269.1V144.6C159.8 135.7 167 128.6 175.8 128.6C184.7 128.6 191.8 135.7 191.8 144.6V368.6z"/></svg>