<svg xmlns="http://www.w3.org/2000/svg" viewBox="0 0 512 512"><!--! Font Awesome Pro 6.0.0-beta3 by @fontawesome - https://fontawesome.com License - https://fontawesome.com/license (Commercial License) Copyright 2021 Fonticons, Inc. --><path d="M159.1 232C146.7 232 135.1 242.7 135.1 256c0 13.25 10.75 24 24 24h192c13.25 0 23.1-10.75 23.1-24c0-13.26-10.74-24-23.1-24H159.1zM505.8 233.4l-105.4-179.2C392.3 40.52 377.5 32 361.4 32H150.6C134.5 32 119.7 40.52 111.6 54.17L6.176 233.4c-8.234 14-8.234 31.27 0 45.27l105.4 179.2C119.7 471.5 134.5 480 150.6 480h210.8c16.12 0 30.94-8.518 39.05-22.17l105.4-179.2C514.1 264.6 514.1 247.4 505.8 233.4zM359.9 432H152.1L48.55 256L152.1 80h207.9l103.5 175.1L359.9 432zM256 192c17.67 0 32-14.33 32-32c0-17.67-14.33-32-32-32S224 142.3 224 160C224 177.7 238.3 192 256 192zM256 320c-17.67 0-32 14.33-32 32c0 17.67 14.33 32 32 32s32-14.33 32-32C288 334.3 273.7 320 256 320z"/></svg>