<svg xmlns="http://www.w3.org/2000/svg" viewBox="0 0 576 512"><!--! Font Awesome Pro 6.1.1 by @fontawesome - https://fontawesome.com License - https://fontawesome.com/license (Commercial License) Copyright 2022 Fonticons, Inc. --><path d="M512 32H64C28.65 32 0 60.65 0 96v320c0 35.35 28.65 64 64 64h448c35.35 0 64-28.65 64-64V96C576 60.65 547.3 32 512 32zM528 416c0 8.822-7.178 16-16 16H64c-8.822 0-16-7.178-16-16V96c0-8.822 7.178-16 16-16h448c8.822 0 16 7.178 16 16V416zM248 160C234.8 160 224 170.8 224 184v48H160v-48C160 170.8 149.3 160 136 160S112 170.8 112 184v144C112 341.3 122.8 352 136 352S160 341.3 160 328v-48h64v48C224 341.3 234.8 352 248 352s24-10.75 24-24v-144C272 170.8 261.3 160 248 160zM384 160h-56c-13.25 0-24 10.75-24 24v144c0 13.25 10.75 24 24 24H384c52.94 0 96-43.06 96-96S436.9 160 384 160zM384 304h-32v-96h32c26.47 0 48 21.53 48 48S410.5 304 384 304z"/></svg>