<svg xmlns="http://www.w3.org/2000/svg" viewBox="0 0 640 512"><!--! Font Awesome Pro 6.1.1 by @fontawesome - https://fontawesome.com License - https://fontawesome.com/license (Commercial License) Copyright 2022 Fonticons, Inc. --><path d="M583.1 391.1C552.8 421.4 505.9 425 471.7 401.9L161.4 91.58C160.5 87.87 159.1 83.99 159.1 80C159.1 53.49 181.5 32 207.1 32C229.9 32 248.3 46.62 254.1 66.62C268.5 45.7 292.7 32 319.1 32C364.2 32 400 67.82 400 112C400 119.4 398.1 126.6 397.1 133.5C426.9 145.1 448 174.1 448 208C448 236.4 433.2 261.3 410.9 275.5L492.6 357.2C508.2 372.8 533.6 372.8 549.2 357.2C564.8 341.6 564.8 316.2 549.2 300.6C533.6 284.1 508.2 284.1 492.6 300.6L458.7 266.7C493 232.3 548.8 232.3 583.1 266.7C617.5 301 617.5 356.8 583.1 391.1V391.1zM448 64C448 46.33 462.3 32 480 32C497.7 32 512 46.33 512 64C512 81.67 497.7 96 480 96C462.3 96 448 81.67 448 64zM544 160C544 177.7 529.7 192 512 192C494.3 192 480 177.7 480 160C480 142.3 494.3 128 512 128C529.7 128 544 142.3 544 160zM445.7 443.7C470.9 468.9 453 512 417.4 512H104C64.24 512 32 479.8 32 440V126.6C32 90.99 75.09 73.14 100.3 98.34L445.7 443.7zM103.1 464H398.1L79.1 145.9V440C79.1 453.3 90.74 464 103.1 464z"/></svg>