<svg xmlns="http://www.w3.org/2000/svg" viewBox="0 0 576 512"><!--! Font Awesome Pro 6.1.1 by @fontawesome - https://fontawesome.com License - https://fontawesome.com/license (Commercial License) Copyright 2022 Fonticons, Inc. --><path d="M192 64C192 81.67 177.7 96 160 96C142.3 96 128 81.67 128 64C128 46.33 142.3 32 160 32C177.7 32 192 46.33 192 64zM252.4 135.8C249.7 130.1 249.7 125 252.4 120.2L279.4 72.16C282.2 67.12 287.6 64 293.4 64H346.6C352.4 64 357.8 67.12 360.6 72.16L387.6 120.2C390.3 125 390.3 130.1 387.6 135.8L360.6 183.8C357.8 188.9 352.4 192 346.6 192H293.4C287.6 192 282.2 188.9 279.4 183.8L252.4 135.8zM0 126.6C0 90.99 43.09 73.14 68.28 98.34L413.7 443.7C438.9 468.9 421 512 385.4 512H72C32.24 512 0 479.8 0 440V126.6zM48 145.9V440C48 453.3 58.75 464 72 464H366.1L48 145.9zM456.2 376.6C451.1 373.8 448 368.4 448 362.6V309.4C448 303.6 451.1 298.2 456.2 295.4L504.2 268.4C509 265.7 514.1 265.7 519.8 268.4L567.8 295.4C572.9 298.2 576 303.6 576 309.4V362.6C576 368.4 572.9 373.8 567.8 376.6L519.8 403.6C514.1 406.3 509 406.3 504.2 403.6L456.2 376.6zM320 288C320 270.3 334.3 256 352 256C369.7 256 384 270.3 384 288C384 305.7 369.7 320 352 320C334.3 320 320 305.7 320 288z"/></svg>