<svg xmlns="http://www.w3.org/2000/svg" viewBox="0 0 640 512"><!--! Font Awesome Pro 6.1.1 by @fontawesome - https://fontawesome.com License - https://fontawesome.com/license (Commercial License) Copyright 2022 Fonticons, Inc. --><path d="M592 384h-160c-26.51 0-48 21.49-48 48v32c0 26.51 21.49 48 48 48h160c26.51 0 48-21.49 48-48v-32C640 405.5 618.5 384 592 384zM592 464h-160v-32h160V464zM512 24.04c0-14-11.49-24.04-23.98-24.04c-8.674 0-17.06 4.74-21.33 12.99l-158.1 307.3c-1.203-.1875-2.453-.2813-3.719-.2813H56c-30.88 0-56 25.12-56 55.1v79.1C0 486.9 25.12 512 56 512h153c33.05 0 63-18.22 78.16-47.56l222.1-429.4C511.1 31.52 512 27.75 512 24.04zM96 464H56c-4.406 0-8-3.594-8-8v-79.1c0-4.406 3.594-7.998 8-7.998L96 368V464zM244.6 442.4C237.7 455.7 224.1 464 209 464H128v-95.1h155L244.6 442.4z"/></svg>