<svg xmlns="http://www.w3.org/2000/svg" viewBox="0 0 512 512"><!--! Font Awesome Pro 6.0.0-beta3 by @fontawesome - https://fontawesome.com License - https://fontawesome.com/license (Commercial License) Copyright 2021 Fonticons, Inc. --><path d="M256 64C128.6 64 0 96.27 0 177.8v137.2C0 402.3 128.7 448 256 448s256-45.69 256-132.9V184C512 102.4 383.4 64 256 64zM464 315.1C464 361.1 368.7 400 256 400s-208-38.89-208-84.92V258.9c39.56 26.11 105.8 45.07 207.1 45.07S424.4 285 464 258.9V315.1zM256 256C141.1 256 48 223.8 48 184C48 150.1 131.6 112 256 112s208 38.12 208 72C464 223.8 370.9 256 256 256z"/></svg>