<svg xmlns="http://www.w3.org/2000/svg" viewBox="0 0 512 512"><!--! Font Awesome Pro 6.1.1 by @fontawesome - https://fontawesome.com License - https://fontawesome.com/license (Commercial License) Copyright 2022 Fonticons, Inc. --><path d="M506.9 268.6c-.75-1.875-71.38-140.4-103.9-166c6.125-18.88 6.75-39.88 1-61.38c-8.25-31.5-42-48.88-72.38-38L166.8 65.12C19 118.2 0 256.1 0 371.1v76C0 483.2 28.75 512 64 512h232c19.88 0 38.5-10.75 48.38-27.88c10-17.25 10.13-38.63 .25-55.88l-.5-1l-39.63-63c2.25-1 .25-.4999 3.875-1.625l5.5 7.375c14.13 18.75 36.63 30 60 30h27.38c18.75 0 36.5-7 50.25-19.75c42.75-35.38 36.75-30.25 38.75-32.25C511.1 327.2 517.6 295.1 506.9 268.6zM456.4 313.1l-36.75 30.25c-4.875 5-11.5 7.625-18.38 7.625h-27.38c-8.5 0-16.63-4-21.63-10.75l-33.75-45.5c-18.63 18.63-37.5 32.38-67.75 32.38c-34.5 0-66-20.63-80-52.63c-2.5-5.75-8.375-9.5-14.63-9.5c-4.25 0-8.25 1.75-11.38 4.75L132.8 282.7c-5 5-6.25 12.38-3.125 18.5c23.38 46.13 69.75 74.75 121.1 74.75c1.375 0 2.625-.25 4-.375l48 76.38c3 5.25-.7509 12-6.875 12H64c-8.75 0-16-7.25-16-16v-76c0-129.9 29.25-223.8 135.6-262l164.3-61.63c5.5-2 9.125 2.625 9.75 5c9.875 37.75-13.13 58.38-27.75 66.88c34.63 6.75 60.5 36 75.5 64.5l56.88 101.5C466 295.7 463.8 306.7 456.4 313.1zM296 175.1c-13.25 0-24 10.75-24 24c0 13.25 10.75 24 24 24c13.25 0 24-10.75 24-24C320 186.7 309.3 175.1 296 175.1z"/></svg>