<svg xmlns="http://www.w3.org/2000/svg" viewBox="0 0 576 512"><!--! Font Awesome Pro 6.0.0-beta3 by @fontawesome - https://fontawesome.com License - https://fontawesome.com/license (Commercial License) Copyright 2021 Fonticons, Inc. --><path d="M320 192C284.6 192 256 220.6 256 256s28.64 64 64 64s64-28.64 64-64S355.4 192 320 192zM592 352H576V256c0-141.4-114.6-256-256-256C178.6 0 64 114.6 64 256s114.6 256 256 256c54.37 0 104.8-16.96 146.3-45.89c10.88-7.584 13.54-22.56 5.951-33.44c-7.584-10.85-22.53-13.54-33.41-5.951C405.2 450.2 364.2 464 320 464c-114.9 0-208-93.12-208-208S205.1 48 320 48c114.9 0 208 93.12 208 208v96H512c-13.25 0-24 10.75-24 24S498.8 400 512 400h2.271l11.46 80.16C517.1 481.2 512 487.9 512 496c0 8.832 7.168 16 16 16H576c8.832 0 16-7.168 16-16c0-8.064-5.984-14.75-13.73-15.84L589.7 400H592c13.25 0 24-10.75 24-24S605.2 352 592 352zM320 96C231.6 96 160 167.6 160 256s71.65 160 160 160s160-71.65 160-160S408.4 96 320 96zM320 368c-61.86 0-112-50.14-112-112S258.1 144 320 144s112 50.14 112 112S381.9 368 320 368z"/></svg>