<svg xmlns="http://www.w3.org/2000/svg" viewBox="0 0 448 512"><!--! Font Awesome Pro 6.0.0-beta3 by @fontawesome - https://fontawesome.com License - https://fontawesome.com/license (Commercial License) Copyright 2021 Fonticons, Inc. --><path d="M416 384H32c-13.25 0-24 10.75-24 24S18.75 432 32 432h384c13.25 0 24-10.75 24-24S429.2 384 416 384zM416 304H32c-13.25 0-24 10.75-24 24S18.75 352 32 352h384c13.25 0 24-10.75 24-24S429.2 304 416 304zM416 464H32c-13.25 0-24 10.75-24 24S18.75 512 32 512h384c13.25 0 24-10.75 24-24S429.2 464 416 464zM416 224H124C86.43 224 56 193.6 56 156S86.43 88 124 88H256v-48H124c-64.06 0-116 51.94-116 116S59.94 272 124 272H416c13.25 0 24-10.75 24-24S429.2 224 416 224zM432 24c-8.064 0-14.75 5.984-15.84 13.73L336 26.27V24C336 10.75 325.2 0 312 0S288 10.75 288 24v80C288 117.2 298.8 128 312 128s24-10.75 24-24V101.7l80.16-11.46C417.2 98.02 423.9 104 432 104c8.832 0 16-7.168 16-16v-48C448 31.17 440.8 24 432 24z"/></svg>