<svg xmlns="http://www.w3.org/2000/svg" viewBox="0 0 576 512"><!--! Font Awesome Pro 6.0.0-beta3 by @fontawesome - https://fontawesome.com License - https://fontawesome.com/license (Commercial License) Copyright 2021 Fonticons, Inc. --><path d="M304 64V70.66C294.2 66.38 283.4 64 272 64H256C256 28.65 284.7 0 320 0H480C515.3 0 544 28.65 544 64V448C544 483.3 515.3 512 480 512H336C346 498.6 352 482 352 464H480C488.8 464 496 456.8 496 448V400H352V352H496V304H352V256H496V64C496 55.16 488.8 48 480 48H320C311.2 48 304 55.16 304 64zM384 96C384 87.16 391.2 80 400 80H416C424.8 80 432 87.16 432 96V120H456C464.8 120 472 127.2 472 136V152C472 160.8 464.8 168 456 168H432V192C432 200.8 424.8 208 416 208H400C391.2 208 384 200.8 384 192V168H360C351.2 168 344 160.8 344 152V136C344 127.2 351.2 120 360 120H384V96zM184 176C192.8 176 200 183.2 200 192V216H224C232.8 216 240 223.2 240 232V248C240 256.8 232.8 264 224 264H200V288C200 296.8 192.8 304 184 304H168C159.2 304 152 296.8 152 288V264H128C119.2 264 112 256.8 112 248V232C112 223.2 119.2 216 128 216H152V192C152 183.2 159.2 176 168 176H184zM32 160C32 124.7 60.65 96 96 96H256C291.3 96 320 124.7 320 160V448C320 483.3 291.3 512 256 512H96C60.65 512 32 483.3 32 448V160zM80 160V352H272V160C272 151.2 264.8 144 256 144H96C87.16 144 80 151.2 80 160zM80 448C80 456.8 87.16 464 96 464H256C264.8 464 272 456.8 272 448V400H80V448z"/></svg>