<svg xmlns="http://www.w3.org/2000/svg" viewBox="0 0 512 512"><!--! Font Awesome Pro 6.0.0-beta3 by @fontawesome - https://fontawesome.com License - https://fontawesome.com/license (Commercial License) Copyright 2021 Fonticons, Inc. --><path d="M320.9 177.6C321.9 185.9 328.4 192 336.1 192h15.99c9.375 0 16.88-8.625 15.75-18.38c-4.25-39.13-22-74.5-49.25-97.13c-17.12-14.12-28.38-36.75-31.5-62.13C286.1 6.125 279.5 0 271.6 0H255.9C246.5 0 238.1 8.5 240.1 18.38c4.25 39.13 22 74.5 49.25 97.13C306.5 129.6 317.7 152.3 320.9 177.6zM416.9 177.6C417.9 185.9 424.5 192 432.2 192h15.88c9.375 0 16.88-8.625 15.75-18.38c-4.25-39.13-22-74.5-49.25-97.13c-17.12-14.12-28.38-36.75-31.5-62.13C382.1 6.125 375.5 0 367.6 0h-15.75c-9.375 0-16.88 8.5-15.75 18.38c4.25 39.13 22 74.5 49.25 97.13C402.5 129.6 413.7 152.3 416.9 177.6zM480 256h-218.6L150.5 172.8C139.4 164.5 125.9 160 112 160H64C28.63 160 0 188.6 0 224v224c0 35.38 28.62 64 64 64h384c35.38 0 64-28.62 64-64V288C512 270.4 497.6 256 480 256zM48 224c0-8.875 7.125-16 16-16h48c3.5 0 6.875 1.125 9.625 3.25L181.4 256H48V224zM112 464H64c-8.875 0-16-7.125-16-16V304h64V464zM232 464H160v-160h72V464zM352 464h-72v-160H352V464zM464 448c0 8.875-7.125 16-16 16h-48v-160h64V448zM64 128c35.35 0 64-28.65 64-64c0-35.35-28.65-64-64-64S0 28.65 0 64C0 99.35 28.65 128 64 128z"/></svg>