<svg xmlns="http://www.w3.org/2000/svg" viewBox="0 0 512 512"><!--! Font Awesome Pro 6.0.0-beta3 by @fontawesome - https://fontawesome.com License - https://fontawesome.com/license (Commercial License) Copyright 2021 Fonticons, Inc. --><path d="M176 96C184.8 96 192 103.2 192 112V144C192 152.8 184.8 160 176 160H144C135.2 160 128 152.8 128 144V112C128 103.2 135.2 96 144 96H176zM224 112C224 103.2 231.2 96 240 96H272C280.8 96 288 103.2 288 112V144C288 152.8 280.8 160 272 160H240C231.2 160 224 152.8 224 144V112zM368 96C376.8 96 384 103.2 384 112V144C384 152.8 376.8 160 368 160H336C327.2 160 320 152.8 320 144V112C320 103.2 327.2 96 336 96H368zM128 208C128 199.2 135.2 192 144 192H176C184.8 192 192 199.2 192 208V240C192 248.8 184.8 256 176 256H144C135.2 256 128 248.8 128 240V208zM272 192C280.8 192 288 199.2 288 208V240C288 248.8 280.8 256 272 256H240C231.2 256 224 248.8 224 240V208C224 199.2 231.2 192 240 192H272zM320 208C320 199.2 327.2 192 336 192H368C376.8 192 384 199.2 384 208V240C384 248.8 376.8 256 368 256H336C327.2 256 320 248.8 320 240V208zM488 0C501.3 0 512 10.75 512 24C512 37.25 501.3 48 488 48H480V464H488C501.3 464 512 474.7 512 488C512 501.3 501.3 512 488 512H24C10.75 512 0 501.3 0 488C0 474.7 10.75 464 24 464H32V48H24C10.75 48 0 37.25 0 24C0 10.75 10.75 0 24 0H488zM80 48V464H208V384H176C167.2 384 159.9 376.8 161.3 368.1C168.9 322.6 208.4 288 256 288C303.6 288 343.1 322.6 350.7 368.1C352.1 376.8 344.8 384 336 384H304V464H432V48H80z"/></svg>