<svg xmlns="http://www.w3.org/2000/svg" viewBox="0 0 640 512"><!--! Font Awesome Pro 6.1.1 by @fontawesome - https://fontawesome.com License - https://fontawesome.com/license (Commercial License) Copyright 2022 Fonticons, Inc. --><path d="M88 88C88 136.6 127.4 176 176 176C179 176 182 175.8 184.1 175.6C192.6 174.8 198.8 183.2 193.5 188.8C173.1 210.5 144.1 224 112 224C50.14 224 0 173.9 0 112C0 50.14 50.14 0 112 0C115.7 0 119.4 .1805 123 .5334C130.6 1.275 131.5 11.71 125.2 16.12C102.7 32.06 88 58.31 88 88L88 88zM352 312C352 298.7 362.7 288 376 288H424C437.3 288 448 298.7 448 312V360C448 373.3 437.3 384 424 384H376C362.7 384 352 373.3 352 360V312zM631.2 277.4C641.4 285.8 642.1 300.9 634.6 311.2C626.2 321.4 611.1 322.1 600.8 314.6L576 294.4V456C576 486.9 550.9 512 520 512H280C249.1 512 224 486.9 224 456V294.4L199.2 314.6C188.9 322.1 173.8 321.4 165.4 311.2C157 300.9 158.6 285.8 168.8 277.4L384.8 101.4C393.7 94.2 406.3 94.2 415.2 101.4L631.2 277.4zM528 255.3L400 150.1L272 255.3V456C272 460.4 275.6 464 280 464H520C524.4 464 528 460.4 528 456V255.3zM248.5 12.28C251.1 5.312 260.9 5.312 263.5 12.28L275.4 44.55L307.7 56.5C314.7 59.07 314.7 68.93 307.7 71.5L275.4 83.45L263.5 115.7C260.9 122.7 251.1 122.7 248.5 115.7L236.6 83.45L204.3 71.5C197.3 68.93 197.3 59.07 204.3 56.5L236.6 44.55L248.5 12.28zM115.4 364.6L147.7 376.5C154.7 379.1 154.7 388.9 147.7 391.5L115.4 403.4L103.5 435.7C100.9 442.7 91.07 442.7 88.5 435.7L76.55 403.4L44.28 391.5C37.31 388.9 37.31 379.1 44.28 376.5L76.55 364.6L88.5 332.3C91.07 325.3 100.9 325.3 103.5 332.3L115.4 364.6z"/></svg>