<svg xmlns="http://www.w3.org/2000/svg" viewBox="0 0 576 512"><!--! Font Awesome Pro 6.0.0-beta3 by @fontawesome - https://fontawesome.com License - https://fontawesome.com/license (Commercial License) Copyright 2021 Fonticons, Inc. --><path d="M567.5 229.7C577.6 238.3 578.9 253.4 570.3 263.5C561.7 273.6 546.6 274.9 536.5 266.3L512 245.5V432C512 476.2 476.2 512 432 512H144C99.82 512 64 476.2 64 432V245.5L39.53 266.3C29.42 274.9 14.28 273.6 5.7 263.5C-2.875 253.4-1.634 238.3 8.473 229.7L272.5 5.7C281.4-1.9 294.6-1.9 303.5 5.7L567.5 229.7zM144 464H229.9L199.6 415.9C195.3 409 196.8 399.1 203.2 394.9L288 327.6L229.9 251.5C218.6 236.7 237.3 217.8 252.2 228.1L367.4 315.2C375.8 321.5 375.1 334 367.7 340.5L288 403.8L325.9 464H432C449.7 464 464 449.7 464 432V204.8L288 55.48L112 204.8V432C112 449.7 126.3 464 144 464V464z"/></svg>