<svg xmlns="http://www.w3.org/2000/svg" viewBox="0 0 576 512"><!--! Font Awesome Pro 6.1.1 by @fontawesome - https://fontawesome.com License - https://fontawesome.com/license (Commercial License) Copyright 2022 Fonticons, Inc. --><path d="M320.8 5.394C329.7-1.798 342.3-1.798 351.2 5.394L567.2 181.4C577.4 189.8 578.1 204.9 570.6 215.2C562.2 225.4 547.1 226.1 536.8 218.6L512 198.4V360C512 390.9 486.9 416 456 416H296.4C292.4 399.4 286.9 383.3 279.9 368H456C460.4 368 464 364.4 464 360V159.3L336 54.96L208 159.3V272.6C193.3 260.1 177.2 249.1 160 239.9V198.4L135.2 218.6C131.7 221.5 127.6 223.2 123.4 223.8C116.9 221.4 110.3 219.4 103.6 217.5C102.8 216.8 102.1 216 101.4 215.2C93.02 204.9 94.57 189.8 104.8 181.4L320.8 5.394zM360 192C373.3 192 384 202.7 384 216V264C384 277.3 373.3 288 360 288H312C298.7 288 288 277.3 288 264V216C288 202.7 298.7 192 312 192H360zM256 488C256 501.3 245.3 512 232 512C218.7 512 208 501.3 208 488C208 386.4 125.6 304 24 304C10.75 304 0 293.3 0 280C0 266.7 10.75 256 24 256C152.1 256 256 359.9 256 488zM0 480C0 462.3 14.33 448 32 448C49.67 448 64 462.3 64 480C64 497.7 49.67 512 32 512C14.33 512 0 497.7 0 480zM0 376C0 362.7 10.75 352 24 352C99.11 352 160 412.9 160 488C160 501.3 149.3 512 136 512C122.7 512 112 501.3 112 488C112 439.4 72.6 400 24 400C10.75 400 0 389.3 0 376z"/></svg>