<svg xmlns="http://www.w3.org/2000/svg" viewBox="0 0 576 512"><!--! Font Awesome Pro 6.0.0-beta3 by @fontawesome - https://fontawesome.com License - https://fontawesome.com/license (Commercial License) Copyright 2021 Fonticons, Inc. --><path d="M208 216C208 193.9 225.9 176 248 176H328C350.1 176 368 193.9 368 216V296C368 318.1 350.1 336 328 336H248C225.9 336 208 318.1 208 296V216zM320 288V224H256V288H320zM567.5 229.7C577.6 238.3 578.9 253.4 570.3 263.5C561.7 273.6 546.6 274.9 536.5 266.3L512 245.5V432C512 476.2 476.2 512 432 512H144C99.82 512 64 476.2 64 432V245.5L39.53 266.3C29.42 274.9 14.28 273.6 5.7 263.5C-2.876 253.4-1.634 238.3 8.473 229.7L272.5 5.7C281.4-1.9 294.6-1.9 303.5 5.7L567.5 229.7zM144 464H432C449.7 464 464 449.7 464 432V204.8L288 55.47L112 204.8V432C112 449.7 126.3 464 144 464z"/></svg>