<svg xmlns="http://www.w3.org/2000/svg" viewBox="0 0 640 512"><!--! Font Awesome Pro 6.1.1 by @fontawesome - https://fontawesome.com License - https://fontawesome.com/license (Commercial License) Copyright 2022 Fonticons, Inc. --><path d="M272.5 5.7C281.4-1.9 294.6-1.9 303.5 5.7L526.1 194.6C516.3 192.9 506.3 192 496 192C481.8 192 467.9 193.7 454.7 196.9L288 55.47L112 204.8V432C112 449.7 126.3 464 144 464H192V312C192 289.9 209.9 272 232 272H344C345.5 272 346.9 272.1 348.3 272.2C338.8 286.8 331.5 302.9 326.6 320H240V464H348.5C360.7 482.8 376.5 499.1 394.8 512H144C99.82 512 64 476.2 64 432V245.5L39.53 266.3C29.42 274.9 14.28 273.6 5.7 263.5C-2.875 253.4-1.634 238.3 8.473 229.7L272.5 5.7zM640 368C640 447.5 575.5 512 496 512C416.5 512 352 447.5 352 368C352 288.5 416.5 224 496 224C575.5 224 640 288.5 640 368zM540.7 324.7L480 385.4L451.3 356.7C445.1 350.4 434.9 350.4 428.7 356.7C422.4 362.9 422.4 373.1 428.7 379.3L468.7 419.3C474.9 425.6 485.1 425.6 491.3 419.3L563.3 347.3C569.6 341.1 569.6 330.9 563.3 324.7C557.1 318.4 546.9 318.4 540.7 324.7H540.7z"/></svg>