<svg xmlns="http://www.w3.org/2000/svg" viewBox="0 0 576 512"><!--! Font Awesome Pro 6.1.1 by @fontawesome - https://fontawesome.com License - https://fontawesome.com/license (Commercial License) Copyright 2022 Fonticons, Inc. --><path d="M24.02 271.1c5.492 0 11.01-1.871 15.52-5.684L64 245.5v106.5c0 13.25 10.75 24 24 24s24-10.75 24-24V207.1c0-.9629-.4375-1.783-.5488-2.717L288 55.46l175.1 149.4v147.2c0 13.25 10.75 24 24 24s24-10.75 24-24V245.5l24.47 20.77c4.531 3.812 10.03 5.688 15.53 5.688c10.13 0 23.1-7.988 23.1-23.98c0-6.809-2.877-13.57-8.467-18.33l-263.1-224c-4.469-3.781-9.999-5.67-15.53-5.67c-5.531 0-11.07 1.889-15.53 5.67L8.473 229.7c-5.592 4.76-8.469 11.52-8.469 18.33C.0039 264.1 13.87 271.1 24.02 271.1zM556.2 464.2c-47.49-8.484-53.88-40.21-76.2-40.21c-22.92 0-33.77 39.83-95.1 39.83c-62.23 0-73.08-39.83-96-39.83c-22.92 0-33.77 39.83-95.1 39.83c-69.59 0-81.1-39.83-103.1-39.83c-21.95 0-30.18 33.43-68.2 40.21c-11.62 2.066-19.8 12.22-19.8 23.67c0 12.26 9.656 24.12 23.94 24.12c7.637 0 35.43-4.889 65.27-31.81c28 19.74 66.33 31.69 103.1 31.69c34.89 0 68.48-11.41 95.67-32.06c27.19 20.65 61.6 30.98 96.01 30.98c34.32 0 68.63-10.27 95.78-30.82c30.6 24.3 63.21 32.03 72.23 32.03c11.94 0 23.97-9.596 23.97-24.12C575.1 476.4 567.8 466.3 556.2 464.2zM248 175.1c-22.06 0-39.1 17.94-39.1 40v80c0 22.06 17.94 40 39.1 40h80c22.06 0 40-17.94 40-40v-80c0-22.06-17.94-40-40-40H248zM320 287.1H256v-64h64V287.1z"/></svg>