<svg xmlns="http://www.w3.org/2000/svg" viewBox="0 0 640 512"><!--! Font Awesome Pro 6.1.1 by @fontawesome - https://fontawesome.com License - https://fontawesome.com/license (Commercial License) Copyright 2022 Fonticons, Inc. --><path d="M472 0C485.3 0 496 10.75 496 24V32H624C632.8 32 640 39.16 640 48V176C640 184.8 632.8 192 624 192H496V512H448V24C448 10.75 458.7 0 472 0zM416 192.7L272 85.88L112 204.6V432C112 449.7 126.3 464 144 464H192V344C192 321.9 209.9 304 232 304H312C334.1 304 352 321.9 352 344V464H400C405.8 464 411.3 462.4 416 459.7V510.4C410.8 511.4 405.5 512 400 512H144C99.82 512 64 476.2 64 432V240.2L38.3 259.3C27.66 267.2 12.63 264.9 4.727 254.3C-3.171 243.7-.9438 228.6 9.701 220.7L257.7 36.73C266.2 30.42 277.8 30.42 286.3 36.73L416 132.1L416 192.7zM240 352V464H304V352H240z"/></svg>