<svg xmlns="http://www.w3.org/2000/svg" viewBox="0 0 640 512"><!--! Font Awesome Pro 6.0.0-beta3 by @fontawesome - https://fontawesome.com License - https://fontawesome.com/license (Commercial License) Copyright 2021 Fonticons, Inc. --><path d="M112 169.9l128-113.8l116.2 103.3c8.783-13.73 19.76-25.62 32.54-35.29L255.9 6.047c-9.062-8.062-22.81-8.062-31.88 0l-216 192c-9.906 8.812-10.81 23.97-2 33.88c8.844 9.969 24.03 10.75 33.88 2L64 212.5v163.5c0 22.06 17.94 40 40 40L335.5 416l5.762-25.05c1.795-8.006 4.873-15.56 8.256-22.96H112V169.9zM175.1 191.1c-8.836 0-16 7.166-16 16v64c0 8.836 7.164 16 16 16h64c8.838 0 16-7.164 16-16v-64c0-8.836-7.162-16-16-16H175.1zM432.2 96.02C458.7 96.02 480 74.51 480 48s-21.27-47.99-47.78-47.99s-48.05 21.49-48.05 48S405.7 96.02 432.2 96.02zM524.6 260.9l-19.74-79.25c11.24 3.625 22.61 8.375 44.22 17.12c9.994 4 18.12 11.38 22.86 21l13.99 30.37c14 29.29 56.8 7.625 43.47-20.25l-14.37-31.12c-9.994-20.38-27.11-36.25-48.22-44.75C524.2 136.8 506 128 471.2 128c-45.22 0-85.45 28.1-99.69 71.1l-12.87 38.75c-.5 1.25-1.125 2.375-2 3.25l-29.36 28.88c-22.37 23.62 12.06 55.29 33.86 34.62l29.36-28.1c6.246-6.25 10.87-13.88 13.74-22.25c14.37-42.75 14.49-45.75 21.86-55.37l26.11 104.7l-53.72 49.62c-12.99 12-22.11 27.62-25.98 44.87l-19.49 84.75c-2.998 12.88 4.996 25.75 17.86 28.75c9.316 1.695 24.33-1.848 28.73-18l19.49-84.75c1.748-7.875 5.871-15 11.74-20.5l78.95-72.1C524.4 299.6 529.4 279.7 524.6 260.9zM632.1 470.1l-58.43-58.7c-4.004-3.762-7.006-8.402-9.008-13.54l-27.65-67.48c-1.627 1.881-26.88 26.77-36.16 35.37l19.52 50.04c4.379 11.16 11.01 21.2 19.39 29.6L599.1 504.9c9.385 9.406 24.52 9.406 33.91 0C642.3 495.5 642.3 480.4 632.1 470.1z"/></svg>