<svg xmlns="http://www.w3.org/2000/svg" viewBox="0 0 576 512"><!--! Font Awesome Pro 6.0.0-beta3 by @fontawesome - https://fontawesome.com License - https://fontawesome.com/license (Commercial License) Copyright 2021 Fonticons, Inc. --><path d="M400 296C400 304.8 392.8 312 384 312H328V368C328 376.8 320.8 384 312 384H264C255.2 384 248 376.8 248 368V312H192C183.2 312 176 304.8 176 296V248C176 239.2 183.2 232 192 232H248V176C248 167.2 255.2 160 264 160H312C320.8 160 328 167.2 328 176V232H384C392.8 232 400 239.2 400 248V296zM464 141.9V56C464 42.75 474.7 31.1 488 31.1C501.3 31.1 512 42.75 512 56V182.6L567.5 229.7C577.6 238.3 578.9 253.4 570.3 263.5C561.7 273.6 546.6 274.9 536.5 266.3L512 245.5V432C512 476.2 476.2 512 432 512H144C99.82 512 64 476.2 64 432V245.5L39.53 266.3C29.42 274.9 14.28 273.6 5.7 263.5C-2.875 253.4-1.634 238.3 8.473 229.7L272.5 5.7C281.4-1.9 294.6-1.9 303.5 5.7L464 141.9zM144 464H432C449.7 464 464 449.7 464 432V204.8L288 55.47L112 204.8V432C112 449.7 126.3 464 144 464V464z"/></svg>