<svg xmlns="http://www.w3.org/2000/svg" viewBox="0 0 384 512"><!--! Font Awesome Pro 6.1.1 by @fontawesome - https://fontawesome.com License - https://fontawesome.com/license (Commercial License) Copyright 2022 Fonticons, Inc. --><path d="M102.1 106.7C92.64 115 77.54 113.3 69.26 102.1C60.98 92.64 62.66 77.54 73.01 69.26L75.7 67.11C104.1 44.38 139.4 32 175.8 32H227C287.2 32 336 80.8 336 141C336 159.1 331.5 176.6 323.3 192H360C373.3 192 384 202.7 384 216C384 229.3 373.3 240 360 240H272.1L183 288H360C373.3 288 384 298.7 384 312C384 325.3 373.3 336 360 336H107C99.98 346.1 96 358.2 96 371C96 404.7 123.3 432 157 432H208.2C233.7 432 258.4 423.3 278.3 407.4L281 405.3C291.4 396.1 306.5 398.7 314.7 409C323 419.4 321.3 434.5 310.1 442.7L308.3 444.9C279.9 467.6 244.6 480 208.2 480H157C96.8 480 48 431.2 48 371C48 358.9 50 347.1 53.77 336H24C10.75 336 0 325.3 0 312C0 298.7 10.75 288 24 288H86.34C92.23 282.1 98.71 278.6 105.7 274.8L171 240H24C10.75 240 0 229.3 0 216C0 202.7 10.75 192 24 192H260.5C277.5 180.8 288 161.7 288 141C288 107.3 260.7 80 227 80H175.8C150.3 80 125.6 88.67 105.7 104.6L102.1 106.7z"/></svg>