<svg xmlns="http://www.w3.org/2000/svg" viewBox="0 0 448 512"><!--! Font Awesome Pro 6.0.0-beta3 by @fontawesome - https://fontawesome.com License - https://fontawesome.com/license (Commercial License) Copyright 2021 Fonticons, Inc. --><path d="M0 64C0 50.75 10.75 40 24 40H424C437.3 40 448 50.75 448 64C448 77.25 437.3 88 424 88H24C10.75 88 0 77.25 0 64zM192 192C192 178.7 202.7 168 216 168H424C437.3 168 448 178.7 448 192C448 205.3 437.3 216 424 216H216C202.7 216 192 205.3 192 192zM424 296C437.3 296 448 306.7 448 320C448 333.3 437.3 344 424 344H216C202.7 344 192 333.3 192 320C192 306.7 202.7 296 216 296H424zM0 448C0 434.7 10.75 424 24 424H424C437.3 424 448 434.7 448 448C448 461.3 437.3 472 424 472H24C10.75 472 0 461.3 0 448zM26.17 346.4C15.73 355 0 347.6 0 334.1V177.9C0 164.4 15.73 156.1 26.17 165.6L121 243.6C128.8 250 128.8 261.1 121 268.4L26.17 346.4z"/></svg>