<svg xmlns="http://www.w3.org/2000/svg" viewBox="0 0 320 512"><!--! Font Awesome Pro 6.1.1 by @fontawesome - https://fontawesome.com License - https://fontawesome.com/license (Commercial License) Copyright 2022 Fonticons, Inc. --><path d="M288 76c0 13.25-10.75 24-24 24s-24-10.75-24-24c0-15.44-12.56-28-28-28S184 60.56 184 76v360C184 477.9 149.9 512 108 512S32 477.9 32 436c0-13.25 10.75-24 24-24s24 10.75 24 24c0 15.44 12.56 28 28 28s28-12.56 28-28V76C136 34.09 170.1 0 212 0S288 34.09 288 76z"/></svg>