<svg xmlns="http://www.w3.org/2000/svg" viewBox="0 0 640 512"><!--! Font Awesome Pro 6.0.0-beta3 by @fontawesome - https://fontawesome.com License - https://fontawesome.com/license (Commercial License) Copyright 2021 Fonticons, Inc. --><path d="M512 0c-62.47 0-114.3 44.8-125.6 104H184C170.8 104 160 114.8 160 128v72C160 213.3 170.8 224 184 224S208 213.3 208 200v-48H256v48C256 213.3 266.8 224 280 224S304 213.3 304 200v-48h82.42C397.7 211.2 449.5 256 512 256c70.69 0 128-57.31 128-128C640 57.31 582.7 0 512 0zM512 208c-44.11 0-80-35.89-80-80s35.89-80 80-80s80 35.89 80 80S556.1 208 512 208zM456 288c-13.25 0-24 10.75-24 24v48H384v-48C384 298.8 373.3 288 360 288S336 298.8 336 312v48H253.6C242.3 300.8 190.5 256 128 256c-70.69 0-128 57.31-128 128c0 70.69 57.31 128 128 128c62.47 0 114.3-44.8 125.6-104H456c13.25 0 24-10.75 24-24V312C480 298.8 469.3 288 456 288zM128 464c-44.11 0-80-35.89-80-80S83.89 304 128 304s80 35.89 80 80S172.1 464 128 464z"/></svg>