<svg xmlns="http://www.w3.org/2000/svg" viewBox="0 0 448 512"><!--! Font Awesome Pro 6.1.1 by @fontawesome - https://fontawesome.com License - https://fontawesome.com/license (Commercial License) Copyright 2022 Fonticons, Inc. --><path d="M220.6 261.4L121.9 360L168.1 407C178.3 416.4 178.3 431.6 168.1 440.1C159.6 450.3 144.4 450.3 135 440.1L88 393.9L57.94 424L104.1 471C114.3 480.4 114.3 495.6 104.1 504.1C95.6 514.3 80.4 514.3 71.03 504.1L7.029 440.1C-2.343 431.6-2.343 416.4 7.029 407L186.6 227.4C169.9 203.9 160 175.1 160 144C160 64.47 224.5 0 304 0C383.5 0 448 64.47 448 144C448 223.5 383.5 288 304 288C272.9 288 244.1 278.1 220.6 261.4zM304 240C357 240 400 197 400 144C400 90.98 357 48 304 48C250.1 48 208 90.98 208 144C208 197 250.1 240 304 240z"/></svg>