<svg xmlns="http://www.w3.org/2000/svg" viewBox="0 0 512 512"><!--! Font Awesome Pro 6.1.1 by @fontawesome - https://fontawesome.com License - https://fontawesome.com/license (Commercial License) Copyright 2022 Fonticons, Inc. --><path d="M336 144C336 126.3 350.3 112 368 112C385.7 112 400 126.3 400 144C400 161.7 385.7 176 368 176C350.3 176 336 161.7 336 144zM336 352C326.5 352 317.2 351.3 308.1 349.8L280.1 376.1C276.5 381.5 270.4 384 264 384H224V424C224 437.3 213.3 448 200 448H160V488C160 501.3 149.3 512 136 512H24C10.75 512 0 501.3 0 488V376C0 369.6 2.529 363.5 7.029 359L162.2 203.9C160.8 194.8 160 185.5 160 176C160 78.8 238.8 0 336 0C433.2 0 512 78.8 512 176C512 273.2 433.2 352 336 352zM336 304C406.7 304 464 246.7 464 176C464 105.3 406.7 48 336 48C265.3 48 208 105.3 208 176C208 182.9 208.5 189.7 209.6 196.3L213.4 220.5L47.1 385.9V464H111.1V400H175.1V336H254.1L291.5 298.6L315.7 302.4C322.3 303.5 329.1 304 336 304z"/></svg>