<svg xmlns="http://www.w3.org/2000/svg" viewBox="0 0 448 512"><!--! Font Awesome Pro 6.0.0-beta3 by @fontawesome - https://fontawesome.com License - https://fontawesome.com/license (Commercial License) Copyright 2021 Fonticons, Inc. --><path d="M224 32C100.3 32 0 96.47 0 176V256c0 123.7 100.3 224 224 224s224-100.3 224-224V176C448 96.47 347.7 32 224 32zM384 176C384 184.8 376.8 192 368 192h-32C327.2 192 320 184.8 320 176S327.2 160 336 160h32C376.8 160 384 167.2 384 176zM292.7 108.7l16-16c6.25-6.25 16.38-6.25 22.62 0s6.25 16.38 0 22.62l-16 16C312.2 134.4 308.1 136 304 136s-8.188-1.562-11.31-4.688C286.4 125.1 286.4 114.9 292.7 108.7zM292.7 220.7c6.25-6.25 16.38-6.25 22.62 0l16 16c6.25 6.25 6.25 16.38 0 22.62C328.2 262.4 324.1 264 320 264s-8.188-1.562-11.31-4.688l-16-16C286.4 237.1 286.4 226.9 292.7 220.7zM208 80C208 71.16 215.2 64 224 64s16 7.156 16 16v24c0 8.844-7.156 16-16 16s-16-7.156-16-16V80zM224 149c30.93 0 56 12.09 56 27S254.9 203 224 203S168 190.9 168 176S193.1 149 224 149zM240 248V272C240 280.8 232.8 288 224 288S208 280.8 208 272V248c0-8.844 7.156-16 16-16S240 239.2 240 248zM116.7 92.69c6.25-6.25 16.38-6.25 22.62 0l16 16c6.25 6.25 6.25 16.38 0 22.62C152.2 134.4 148.1 136 144 136S135.8 134.4 132.7 131.3l-16-16C110.4 109.1 110.4 98.94 116.7 92.69zM155.3 243.3l-16 16C136.2 262.4 132.1 264 128 264S119.8 262.4 116.7 259.3c-6.25-6.25-6.25-16.38 0-22.62l16-16c6.25-6.25 16.38-6.25 22.62 0S161.6 237.1 155.3 243.3zM80 160h32C120.8 160 128 167.2 128 176S120.8 192 112 192h-32C71.16 192 64 184.8 64 176S71.16 160 80 160zM224 432c-93.91 0-170.7-73.99-175.5-166.7C89.5 298.6 152.8 320 224 320s134.5-21.42 175.5-54.71C394.7 358 317.9 432 224 432z"/></svg>