<svg xmlns="http://www.w3.org/2000/svg" viewBox="0 0 576 512"><!--! Font Awesome Pro 6.0.0-beta3 by @fontawesome - https://fontawesome.com License - https://fontawesome.com/license (Commercial License) Copyright 2021 Fonticons, Inc. --><path d="M424 224C424 210.7 434.7 200 448 200C461.3 200 472 210.7 472 224C472 237.3 461.3 248 448 248C434.7 248 424 237.3 424 224zM392.3 352C355.9 352 322.4 369.6 291.2 388.4C280.2 395.1 268.4 400.7 256 405.1V456C256 469.3 245.3 480 232 480C218.7 480 208 469.3 208 456V415.3C202.7 415.8 197.4 416 192 416C175.4 416 159.3 413.9 144 409.1V456C144 469.3 133.3 480 120 480C106.7 480 96 469.3 96 456V390.3C38.61 357.1 0 295.1 0 224C0 117.1 85.96 32 192 32C228.3 32 262.3 42.08 291.2 59.6C322.4 78.44 355.9 96 392.3 96H448C518.7 96 576 153.3 576 224V464C576 471.3 571.1 477.7 564 479.5C556.1 481.3 549.6 478.1 546 471.8L477.6 348.6C468.1 350.8 458.2 352 448 352H392.3zM392.3 304H448C492.2 304 528 268.2 528 224C528 179.8 492.2 144 448 144H392.3C341.3 144 297.6 119.6 266.4 100.7C244.7 87.56 219.3 80 191.1 80C112.5 80 47.1 144.5 47.1 224C47.1 303.5 112.5 368 191.1 368C219.3 368 244.7 360.4 266.4 347.3C297.6 328.4 341.3 304 392.3 304z"/></svg>