<svg xmlns="http://www.w3.org/2000/svg" viewBox="0 0 576 512"><!--! Font Awesome Pro 6.0.0-beta3 by @fontawesome - https://fontawesome.com License - https://fontawesome.com/license (Commercial License) Copyright 2021 Fonticons, Inc. --><path d="M566.3 43.24l-35.12-33.88c-12.92-12.46-34.07-12.46-46.1-.0007l-180.3 173.9c-6.521 6.289-6.525 16.74-.0059 23.03l89.9 86.79c5.809 5.607 14.88 6.01 21.16 .9395l23.38-18.87c6.25-6 9.75-14.12 9.75-22.62V207.1l118.2-119.4C579.3 76.11 579.3 55.74 566.3 43.24zM443.3 155.3c-6.256 6.25-16.36 6.25-22.62 0s-6.256-16.37 0-22.62s16.36-6.25 22.62 0S449.6 149.1 443.3 155.3zM507.3 91.3c-6.256 6.25-16.36 6.25-22.62 0c-6.256-6.25-6.256-16.37 0-22.62c6.256-6.25 16.36-6.25 22.62 0C513.6 74.93 513.6 85.18 507.3 91.3zM390.4 335c-9.297-8.955-24.05-8.98-33.34-.0117l-54.8 52.92c-50.84 49.05-118.6 76.06-190.8 76.06c-9.965 0-19.89-.5293-29.74-1.574l202.4-195.3c9.77-9.439 9.758-25.1-.0273-34.53C274.9 223.7 260.2 223.7 250.9 232.7L4.888 469.9C-3.862 478.2-.3621 492.5 11.39 496.4C44.2 506.9 77.99 512 111.5 512c82.74 0 163.7-31.23 224.1-89.51l54.83-52.93C400.3 360.1 400.3 344.5 390.4 335z"/></svg>