<svg xmlns="http://www.w3.org/2000/svg" viewBox="0 0 640 512"><!--! Font Awesome Pro 6.1.1 by @fontawesome - https://fontawesome.com License - https://fontawesome.com/license (Commercial License) Copyright 2022 Fonticons, Inc. --><path d="M528 352c-44.18 0-79.1 35.82-79.1 80c0 44.18 35.82 80 79.1 80C572.2 512 608 476.2 608 432C608 387.8 572.2 352 528 352zM528 464c-17.64 0-32-14.36-32-32s14.36-32 32-32s32 14.36 32 32S545.6 464 528 464zM608 184.7C608 110.5 537.1 0 435.1 0c-95.81 0-87.21 84.52-165.7 145.6L263.2 150.4C253.3 158.1 214.5 189.9 214.5 252.8c0 20.8 5.585 40.58 15.23 57.94l-189.2 158.9C34.91 474.4 32 481.2 32 488C32 504.1 45.73 512 56.02 512c5.438 0 10.92-1.844 15.42-5.625l189.6-159.3c26.17 20.27 53.79 25.87 78.62 25.87c26.7 0 53.6-8.506 76.28-26.14l6.237-4.873c27.08-21.04 61.41-36.49 107.1-48.63C567.9 283.5 608 248.8 608 184.7zM392.6 304.1l-6.148 4.805c-13.51 10.51-29.69 16.06-46.8 16.06c-68.71 0-77.22-59.5-77.22-71.69c0-.1383-.0111-.5529-.0111-1.211c0-6.97 1.244-41.25 30.1-63.69l6.365-4.928C387.5 114.5 371.9 48 435.1 48c59.05 0 124.9 69.66 124.9 136.9C559.9 268.4 486.4 231.3 392.6 304.1z"/></svg>