<svg xmlns="http://www.w3.org/2000/svg" viewBox="0 0 448 512"><!--! Font Awesome Pro 6.1.1 by @fontawesome - https://fontawesome.com License - https://fontawesome.com/license (Commercial License) Copyright 2022 Fonticons, Inc. --><path d="M447.1 456c0 13.25-10.75 24-23.1 24H359.1c-8.812 0-16.94-4.844-21.12-12.59L171.8 158l-125.6 307C42.41 474.4 33.44 480 24 480c-3.031 0-6.125-.5625-9.094-1.781c-12.25-5.031-18.12-19.03-13.12-31.31L142.3 103.4L129.7 80h-105.7c-13.25 0-23.1-10.75-23.1-24S10.75 32 24 32h119.1c8.812 0 16.94 4.844 21.12 12.59L374.3 432h49.69C437.2 432 447.1 442.8 447.1 456z"/></svg>