<svg xmlns="http://www.w3.org/2000/svg" viewBox="0 0 576 512"><!--! Font Awesome Pro 6.1.1 by @fontawesome - https://fontawesome.com License - https://fontawesome.com/license (Commercial License) Copyright 2022 Fonticons, Inc. --><path d="M311.1 168C311.1 181.3 301.3 192 287.1 192C274.7 192 263.1 181.3 263.1 168V24C263.1 10.75 274.7 0 287.1 0C301.3 0 311.1 10.75 311.1 24V168zM159.1 336C159.1 309.5 181.5 288 207.1 288H367.1C394.5 288 415.1 309.5 415.1 336V352H447.5C467.1 352 484.8 363.9 492.1 382.2L526.4 468.1C534.9 489.1 519.4 512 496.7 512H79.26C56.62 512 41.14 489.1 49.55 468.1L83.93 382.2C91.22 363.9 108.9 352 128.5 352H159.1L159.1 336zM473.1 464L447.5 400H128.5L102.9 464H473.1zM4.266 138.3C11.81 127.4 26.76 124.7 37.66 132.3L141.7 204.3C152.6 211.8 155.3 226.8 147.7 237.7C140.2 248.6 125.2 251.3 114.3 243.7L10.34 171.7C-.5607 164.2-3.279 149.2 4.266 138.3V138.3zM538.3 132.3C549.2 124.7 564.2 127.4 571.7 138.3C579.3 149.2 576.6 164.2 565.7 171.7L461.7 243.7C450.8 251.3 435.8 248.6 428.3 237.7C420.7 226.8 423.4 211.8 434.3 204.3L538.3 132.3z"/></svg>