<svg xmlns="http://www.w3.org/2000/svg" viewBox="0 0 512 512"><!--! Font Awesome Pro 6.1.1 by @fontawesome - https://fontawesome.com License - https://fontawesome.com/license (Commercial License) Copyright 2022 Fonticons, Inc. --><path d="M494.4 128.1C505.3 134.1 512 145.5 512 157.9C512 176.8 496.8 192 477.9 192H34.06C15.25 192 0 176.8 0 157.9C0 145.5 6.745 134.1 17.61 128.1L244.4 2.986C251.6-.9954 260.4-.9954 267.6 2.986L494.4 128.1zM88.18 144H423.8L256 51.41L88.18 144zM112 384H176V224H224V384H288V224H336V384H400V224H448V384H456C469.3 384 480 394.7 480 408C480 421.3 469.3 432 456 432H56C42.75 432 32 421.3 32 408C32 394.7 42.75 384 56 384H64V224H112V384zM0 488C0 474.7 10.75 464 24 464H488C501.3 464 512 474.7 512 488C512 501.3 501.3 512 488 512H24C10.75 512 0 501.3 0 488z"/></svg>