<svg xmlns="http://www.w3.org/2000/svg" viewBox="0 0 640 512"><!--! Font Awesome Pro 6.0.0-beta3 by @fontawesome - https://fontawesome.com License - https://fontawesome.com/license (Commercial License) Copyright 2021 Fonticons, Inc. --><path d="M112 64c0-8.822 7.178-16 16-16h320c8.822 0 16 7.178 16 16v32H512V64c0-35.35-28.65-64-64-64H128C92.65 0 64 28.65 64 64v256H16C7.164 320 0 327.2 0 336C0 362.5 21.49 384 48 384H352v-64H112V64zM576 128h-128c-35.35 0-64 28.65-64 64v256c0 35.35 28.65 64 64 64h128c35.35 0 64-28.65 64-64V192C640 156.7 611.3 128 576 128zM592 448c0 8.822-7.178 16-16 16h-128c-8.822 0-16-7.178-16-16V192c0-8.822 7.178-16 16-16h128c8.822 0 16 7.178 16 16V448z"/></svg>