<svg xmlns="http://www.w3.org/2000/svg" viewBox="0 0 576 512"><!--! Font Awesome Pro 6.1.1 by @fontawesome - https://fontawesome.com License - https://fontawesome.com/license (Commercial License) Copyright 2022 Fonticons, Inc. --><path d="M281.4 25.36L255.3 34.98C246.4 38.28 238.9 44.04 233.5 51.31C127.2 64.47 48 115.3 48 176C48 246.7 155.5 304 288 304C420.5 304 528 246.7 528 176C528 138.1 497.1 104 447.1 80.59L448 80C448 59.92 435.5 41.95 416.7 34.98L390.6 25.36L385 10.24C496.4 34.58 576 99.61 576 176C576 273.2 447.1 352 288 352C273.1 352 258.4 351.3 244.1 349.1C251.8 365.3 256 382.4 256 400.2C256 461.9 205.9 512 144.2 512H56C42.75 512 32 501.3 32 488C32 474.7 42.75 464 56 464H144.2C179.4 464 208 435.4 208 400.2C208 375.3 193.5 352.7 170.9 342.2L126.6 321.8C50.2 290.1 0 236.6 0 176C0 78.8 128.9 0 288 0L290.7 .0077L281.4 25.36zM365.7 50.26L405.6 64.99C411.8 67.32 416 73.31 416 80C416 86.7 411.8 92.68 405.6 95.01L365.7 109.7L351 149.6C348.7 155.8 342.7 160 336 160C329.3 160 323.3 155.8 320.1 149.6L306.3 109.7L266.4 95.01C260.2 92.68 256 86.7 256 80C256 73.31 260.2 67.32 266.4 64.99L306.3 50.26L320.1 10.45C323.3 4.169 329.3 .0003 336 .0003C342.7 .0003 348.7 4.169 351 10.45L365.7 50.26zM496 352C502.7 352 508.7 356.2 511 362.4L525.7 402.3L565.6 416.1C571.8 419.3 576 425.3 576 432C576 438.7 571.8 444.7 565.6 447L525.7 461.7L511 501.6C508.7 507.8 502.7 512 496 512C489.3 512 483.3 507.8 480.1 501.6L466.3 461.7L426.4 447C420.2 444.7 416 438.7 416 432C416 425.3 420.2 419.3 426.4 416.1L466.3 402.3L480.1 362.4C483.3 356.2 489.3 352 496 352z"/></svg>