<svg xmlns="http://www.w3.org/2000/svg" viewBox="0 0 576 512"><!--! Font Awesome Pro 6.0.0-beta3 by @fontawesome - https://fontawesome.com License - https://fontawesome.com/license (Commercial License) Copyright 2021 Fonticons, Inc. --><path d="M256 79.99c.0039 2.262 1.654 4.957 3.68 5.971l49.57 20.67l20.77 49.67C331.1 158.3 333.7 160 336 160c2.277 0 4.943-1.656 5.959-3.699l20.7-49.63l49.65-20.71c2.027-1.014 3.676-3.693 3.68-5.955c-.0039-2.275-1.65-4.955-3.68-5.971l-49.57-20.67l-20.77-49.67C340.9 1.652 338.3 0 336 0c-2.281 0-4.949 1.652-5.965 3.695l-20.7 49.63L259.7 74.04C257.7 75.05 256 77.72 256 79.99zM572.3 426l-49.64-20.7l-20.7-49.64C500.1 353.7 498.3 352 496 352c-2.277 0-4.943 1.65-5.959 3.693l-20.7 49.64l-49.64 20.7c-2.027 1.016-3.689 3.687-3.689 5.962c0 2.266 1.662 4.95 3.689 5.966l49.64 20.7l20.7 49.64C491.1 510.3 493.7 512 496 512c2.279 0 4.949-1.658 5.965-3.699l20.7-49.64l49.64-20.7C574.3 436.9 576 434.3 576 431.1C576 429.7 574.3 427.1 572.3 426zM576 178.6c0-80.37-81.55-146.6-197.2-169.7l8.367 20.01l37.5 15.56C439.4 51.8 447.8 65.2 448 79.56c-.0117 .9199-.3223 1.754-.3926 2.66C496.5 106.3 528 140.9 528 178.6c0 70.88-109.9 130.8-240 130.8c-11.38 0-22.5-.875-33.5-1.75C247.3 278.1 214.9 255.1 176 255.1c-20.38 0-38.75 6.167-52.88 16.29C118.3 269.6 113 267.1 108.8 264.5C69.5 240.3 48 209.8 48 178.6c0-61.29 82.49-114.3 189.1-127.5c2.494-2.26 5.232-4.252 8.252-5.766l39.5-16.52l11.92-28.62C293.8 .2174 290.1 0 288 0C126.5 0 0 78.5 0 178.6C0 227 29.63 271.9 83.5 305.3c4.125 2.625 8.625 5.125 13.38 7.625c-5.625 40.88 35.5 73.75 85.63 70.5c2.688 8.551 4.062 17.46 3.889 26.49C185.8 439.7 159.4 464 129.6 464H56C42.75 464 32 474.7 32 488C32 501.3 42.75 512 56 512h70.05c59.44 0 110.6-48.69 108.2-108.1c-.4766-12.06-2.693-23.99-6.652-35.54c5.75-3.75 10.88-8.25 15.25-13.5C257.8 356.4 272.8 357.4 288 357.4C449.5 357.4 576 278.9 576 178.6z"/></svg>