<svg xmlns="http://www.w3.org/2000/svg" viewBox="0 0 512 512"><!--! Font Awesome Pro 6.0.0-beta3 by @fontawesome - https://fontawesome.com License - https://fontawesome.com/license (Commercial License) Copyright 2021 Fonticons, Inc. --><path d="M485.8 345.5c-12.28-5.062-26.28 .8438-31.28 13.16c-3.312 8.096-1.875 16.94 3 23.44l-202.1 81.84l-201-81.81c4.906-6.531 6.344-15.38 3.031-23.47c-5-12.31-19.03-18.22-31.28-13.16C10.28 351.1 0 367.1 0 384s10.28 31.97 26.16 38.44L237.5 508.5C243.3 510.8 249.7 512 255.1 512c6.375 0 12.71-1.188 18.71-3.594l211.2-85.94C501.7 415.1 512 400.9 512 384S501.7 351.1 485.8 345.5zM485.8 217.5L274.5 131.5C262.8 126.8 249.3 126.8 237.3 131.6L26.16 217.5C10.28 223.1 0 239.2 0 256.1c0 16.91 10.28 31.91 26.16 38.38L237.5 380.5c5.844 2.312 12.2 3.574 18.48 3.574c6.375 0 12.71-1.262 18.71-3.668l211.2-85.94C501.7 287.1 512 272.1 512 256.1C512 239.2 501.7 223.1 485.8 217.5zM255.4 335.1L59 256l197.6-80L453 255.1L255.4 335.1zM375.1 104L408 104v31.1C408 149.3 418.8 160 432 160s24-10.75 24-23.1V104h32c13.25 0 24-10.75 24-23.1S501.3 56 488 56h-32V23.1C456 10.75 445.3 0 432 0s-24 10.75-24 23.1V56h-32C362.7 56 352 66.75 352 79.1S362.7 104 375.1 104z"/></svg>