<svg xmlns="http://www.w3.org/2000/svg" viewBox="0 0 512 512"><!--! Font Awesome Pro 6.1.1 by @fontawesome - https://fontawesome.com License - https://fontawesome.com/license (Commercial License) Copyright 2022 Fonticons, Inc. --><path d="M488 60C499 60 508 68.95 508 80C508 91.05 499 100 488 100H376C364.1 100 356 91.05 356 80C356 68.95 364.1 60 376 60H488zM231.2 133.1C239 129.7 247.5 128 256 128C264.5 128 272.1 129.7 280.8 133.1L490.1 222.8C503.4 228.5 512 241.5 512 256C512 270.5 503.4 283.5 490.1 289.2L280.8 378.9C272.1 382.3 264.5 384 256 384C247.5 384 239 382.3 231.2 378.9L21.9 289.2C8.614 283.5 0 270.5 0 256C0 241.5 8.614 228.5 21.9 222.8L231.2 133.1zM256 176C253.1 176 251.1 176.4 250.1 177.2L66.26 256L250.1 334.8C251.1 335.6 253.1 336 256 336C258 336 260 335.6 261.9 334.8L445.7 256L261.9 177.2C260 176.4 258 176 256 176V176zM250.1 462.8C251.1 463.6 253.1 464 256 464C258 464 260 463.6 261.9 462.8L452 381.3C447.4 374.4 446.5 365.2 450.5 357.3C456.5 345.4 470.9 340.6 482.7 346.5L491.8 351.1C504.2 357.3 512 369.9 512 383.7C512 398.4 503.3 411.6 489.9 417.3L280.8 506.9C272.1 510.3 264.5 512 256 512C247.5 512 239 510.3 231.2 506.9L22.81 417.6C8.971 411.7 .0006 398.1 .0006 383C.0006 370.9 5.869 359.5 15.76 352.4L26.05 345C36.84 337.3 51.83 339.8 59.53 350.6C66.15 359.9 65.24 372.3 57.1 380.5L250.1 462.8z"/></svg>