<svg xmlns="http://www.w3.org/2000/svg" viewBox="0 0 512 512"><!--! Font Awesome Pro 6.1.1 by @fontawesome - https://fontawesome.com License - https://fontawesome.com/license (Commercial License) Copyright 2022 Fonticons, Inc. --><path d="M486.2 39.98C483.8 34.67 478.8 32 473.8 32c-4.744 0-9.547 2.381-12.3 7.156c-24.99 43.27-70.11 65.15-115.9 65.15c-11.18 0-22.41-1.304-33.39-3.917c-12.89-3.066-26.35-4.527-40.18-4.527C174.8 95.86 96 174.8 96 272c0 8.561 .8184 16.91 1.1 25.14c-79.55 68.59-96.8 150.5-97.53 154.1c-2.609 13 5.828 25.66 18.83 28.25C20.89 479.8 22.47 480 24.03 480c11.2 0 21.22-7.875 23.51-19.28c.1348-.6719 13.24-57.63 66.44-111.6c28.6 58.5 88.53 98.88 158 98.88c22.87 0 44.65-4.518 64.69-12.46C441.9 400.7 512 293.2 512 165.4C512 121.9 502.7 76.76 486.2 39.98zM321.6 389.1l-1.316 .4355l-1.289 .5098C303.8 396.9 287.1 399.1 272 400c-70.58 0-128-57.42-128-128c0-70.58 57.43-128 128-128c10.67 0 20.44 1.039 29.05 3.086c14.56 3.465 29.53 5.221 44.5 5.221c42.61 0 82.12-13.72 113.5-38.32C462.3 130.9 464 148.4 464 165.4C464 271.6 406.8 361.8 321.6 389.1zM303.1 207.8l-7.188 7.188l-7.188-7.188c-18.34-18.55-47.92-21.57-67.92-4.898c-22.92 19.17-24.17 53.55-3.646 74.28l70.63 71.36c4.584 4.582 11.88 4.582 16.46 0l70.63-71.36c20.52-20.73 19.27-55.11-3.75-74.28C351.2 186.3 321.4 189.3 303.1 207.8z"/></svg>