<svg xmlns="http://www.w3.org/2000/svg" viewBox="0 0 448 512"><!--! Font Awesome Pro 6.1.1 by @fontawesome - https://fontawesome.com License - https://fontawesome.com/license (Commercial License) Copyright 2022 Fonticons, Inc. --><path d="M105.4 233.8C99.13 240 96 248.2 96 256.4S99.13 272.8 105.4 279l150.4 135.9C286.7 442.8 336 420.9 336 379.3v-42.91h64c26.51 0 48-21.49 48-48v-64c0-26.51-21.49-48-48-48h-64V133.1c0-41.63-49.37-63.52-80.23-35.58L105.4 233.8zM288 224.4h112v64H288v89.37L150.6 256.4L288 135V224.4zM48 424V88C48 74.75 37.25 64 24 64S0 74.75 0 88v336C0 437.3 10.75 448 24 448S48 437.3 48 424z"/></svg>