<svg xmlns="http://www.w3.org/2000/svg" viewBox="0 0 448 512"><!--! Font Awesome Pro 6.0.0-beta3 by @fontawesome - https://fontawesome.com License - https://fontawesome.com/license (Commercial License) Copyright 2021 Fonticons, Inc. --><path d="M240 378.9V336h64c26.51 0 47.95-21.49 47.95-48v-64C351.9 197.5 330.5 176 304 176h-64V132.7c0-41.63-49.37-63.52-80.23-35.58L9.375 233.4C3.125 239.6 0 247.8 0 256s3.125 16.38 9.375 22.62l150.4 135.9C190.7 442.4 240 420.5 240 378.9zM54.63 256L192 134.6V224h112v64H192v89.37L54.63 256zM448 424V88C448 74.75 437.3 64 424 64S400 74.75 400 88v336c0 13.25 10.75 24 24 24S448 437.3 448 424z"/></svg>