<svg xmlns="http://www.w3.org/2000/svg" viewBox="0 0 640 512"><!--! Font Awesome Pro 6.1.1 by @fontawesome - https://fontawesome.com License - https://fontawesome.com/license (Commercial License) Copyright 2022 Fonticons, Inc. --><path d="M480 192C480 103.6 408.3 32 320 32C231.7 32 160 103.6 160 192V352H480V192zM432 304H208V192C208 130.1 258.2 80 320 80C381.8 80 432 130.1 432 192V304zM320 112C275.8 112 240 147.9 240 192C240 200.8 247 208 256 208C264.1 208 272 200.8 272 192C272 165.5 293.4 144 320 144C328.1 144 336 136.8 336 128C336 119.2 328.1 112 320 112zM549.4 107.1L597.4 75.97C608.3 68.61 611.2 53.73 603.8 42.69C596.5 31.65 581.8 28.67 570.6 36.03L522.6 68.03C511.7 75.39 508.8 90.27 516.2 101.3C523.5 112.4 538.2 115.3 549.4 107.1zM112 224C112 210.8 101.1 200 88 200H24C10.88 200 0 210.8 0 224C0 237.2 10.88 248 24 248H88C101.1 248 112 237.2 112 224zM616 200H552C538.9 200 528 210.8 528 224C528 237.2 538.9 248 552 248H616C629.1 248 640 237.2 640 224C640 210.8 629.1 200 616 200zM90.56 107.1C101.8 115.3 116.5 112.4 123.8 101.3C131.2 90.27 128.3 75.39 117.4 68.03L69.44 36.03C58.24 28.67 43.52 31.65 36.16 42.69C28.8 53.73 31.68 68.61 42.56 75.97L90.56 107.1zM512 384H128C110.4 384 96 398.3 96 416V448C96 465.7 110.4 480 128 480H512C529.6 480 544 465.7 544 448V416C544 398.3 529.6 384 512 384z"/></svg>