<svg xmlns="http://www.w3.org/2000/svg" viewBox="0 0 640 512"><!--! Font Awesome Pro 6.0.0-beta3 by @fontawesome - https://fontawesome.com License - https://fontawesome.com/license (Commercial License) Copyright 2021 Fonticons, Inc. --><path d="M131.1 55.25l-55.5-32C68.25 18.75 59 18.62 51.38 22.88c-7.5 4.375-12.12 12.38-12.12 21c.125 8.75 4.875 16.75 12.38 20.88l55.5 32C114.5 101.3 123.8 101.4 131.4 97.13c7.5-4.375 12.12-12.38 12.12-21C143.4 67.38 138.6 59.38 131.1 55.25zM521 100c4.125 0 8.25-1.125 12-3.25l55.38-32c11.25-6.75 14.88-21.25 8.375-32.5c-6.5-11.38-21-15.38-32.38-9l-55.38 32c-9.5 5.375-14 16.5-11.25 27C500.6 92.75 510.1 100 521 100zM107.1 287.3l-55.5 32c-7.5 4.125-12.25 12.13-12.38 20.88c0 8.625 4.625 16.62 12.12 21c7.625 4.25 16.88 4.125 24.25-.375l55.5-32C142.3 322 145.1 307.5 139.5 296.3C133 284.9 118.5 280.9 107.1 287.3zM112 192c0-13.25-10.75-24-24-24h-64c-13.25 0-24 10.75-24 24s10.75 24 24 24h64C101.3 216 112 205.3 112 192zM240.2 454.4c0 6.297 1.886 12.43 5.355 17.68l17.08 25.69C267.8 505.6 279.8 512 289.2 512h61.67c9.438 0 21.36-6.395 26.61-14.27l17.02-25.69c2.938-4.438 5.419-12.36 5.419-17.69L400 415.1L240.1 415.1L240.2 454.4zM588.4 319.3l-55.5-32c-7.375-4.5-16.62-4.625-24.25-.375c-7.5 4.375-12.12 12.38-12.12 21c.125 8.75 4.875 16.75 12.38 20.88l55.5 32c11.38 6.375 25.88 2.375 32.38-9C603.3 340.5 599.5 326 588.4 319.3zM320 0C218 .3203 144 82.98 144 175.1c0 44.38 16.4 84.82 43.52 115.8c16.53 18.84 42.36 58.26 52.24 91.48c.0313 .25 .0833 .4948 .1146 .7604l160.3 .0006c.0313-.2656 .0521-.4955 .0833-.7611c9.875-33.22 35.71-72.64 52.24-91.48C479.6 260.8 496 220.4 496 175.1C496 78.8 417.2 .0039 320 0zM416.4 260.1c-15.66 17.85-35.04 46.3-49.05 75.89h-94.61c-14.01-29.59-33.39-58.04-49.04-75.88C203.2 236.8 192 206.1 192 175.1C192 113.3 240.1 48.25 319.1 48C390.6 48 448 105.4 448 175.1C448 206.1 436.8 236.8 416.4 260.1zM616 168h-64c-13.25 0-24 10.75-24 24s10.75 24 24 24h64c13.25 0 24-10.75 24-24S629.3 168 616 168zM320 208c13.25 0 24-10.75 24-24v-80c0-13.25-10.78-24-24.03-24S296 90.75 296 104v80C296 197.3 306.8 208 320 208zM319.1 240C302.3 240 288 254.3 288 272s14.33 32 32 32S352 289.7 352 272S337.7 240 319.1 240z"/></svg>