<svg xmlns="http://www.w3.org/2000/svg" viewBox="0 0 384 512"><!--! Font Awesome Pro 6.1.1 by @fontawesome - https://fontawesome.com License - https://fontawesome.com/license (Commercial License) Copyright 2022 Fonticons, Inc. --><path d="M320 0H64c-35.38 0-64 28.62-64 64v384c0 35.38 28.62 64 64 64h256c35.38 0 64-28.62 64-64v-384C384 28.62 355.4 0 320 0zM336 448c0 8.875-7.125 16-16 16h-105.6C211.1 454.4 202.1 448 192 448s-19.12 6.375-22.38 16H64c-8.875 0-16-7.125-16-16V64c0-8.875 7.125-16 16-16h105.6C172.9 57.62 181.9 64 192 64s19.12-6.375 22.38-16H320c8.875 0 16 7.125 16 16V448zM240 95.1h-96c-26.4 0-48 21.6-48 47.1v224c0 26.4 21.6 48 48 48h96c26.4 0 48-21.6 48-48v-224C288 117.6 266.4 95.1 240 95.1zM240 368h-96V280h96V368zM240 232h-96V144h96V232z"/></svg>