<svg xmlns="http://www.w3.org/2000/svg" viewBox="0 0 384 512"><!--! Font Awesome Pro 6.1.1 by @fontawesome - https://fontawesome.com License - https://fontawesome.com/license (Commercial License) Copyright 2022 Fonticons, Inc. --><path d="M192 0C90.02 .3203 16 82.98 16 175.1c0 44.38 16.4 84.82 43.52 115.8c16.53 18.84 42.36 58.26 52.24 91.48c.0313 .25 .0833 .4948 .1146 .7604l160.3 .0006c.0313-.2656 .0521-.4955 .0833-.7611c9.875-33.22 35.71-72.64 52.24-91.48C351.6 260.8 368 220.4 368 175.1C368 78.8 289.2 .0039 192 0zM288.4 260.1c-15.66 17.85-35.04 46.3-49.05 75.89h-94.61c-14.01-29.59-33.39-58.04-49.04-75.88C75.24 236.8 64 206.1 64 175.1C64 113.3 112.1 48.25 191.1 48C262.6 48 320 105.4 320 175.1C320 206.1 308.8 236.8 288.4 260.1zM112.2 454.4c0 6.297 1.886 12.43 5.355 17.68l17.08 25.69C139.8 505.6 151.8 512 161.2 512h61.67c9.438 0 21.36-6.395 26.61-14.27l17.02-25.69c2.938-4.438 5.419-12.36 5.419-17.69L272 415.1h-160L112.2 454.4zM191.1 240C174.3 240 160 254.3 160 272s14.33 32 32 32S224 289.7 224 272S209.7 240 191.1 240zM192 208c13.25 0 24-10.75 24-24v-80c0-13.25-10.78-23.1-24.03-23.1S168 90.75 168 104v80C168 197.3 178.8 208 192 208z"/></svg>