<svg xmlns="http://www.w3.org/2000/svg" viewBox="0 0 576 512"><!--! Font Awesome Pro 6.0.0-beta3 by @fontawesome - https://fontawesome.com License - https://fontawesome.com/license (Commercial License) Copyright 2021 Fonticons, Inc. --><path d="M185.8 119.9C194.7 129.8 193.9 144.1 184.1 153.8C174.2 162.7 159 161.9 150.2 152.1L120 118.5V393.5L150.2 359.9C159 350.1 174.2 349.3 184.1 358.2C193.9 367 194.7 382.2 185.8 392.1L113.8 472.1C109.3 477.1 102.8 480 96 480C89.2 480 82.71 477.1 78.16 472.1L6.161 392.1C-2.706 382.2-1.907 367 7.945 358.2C17.8 349.3 32.97 350.1 41.84 359.9L72 393.5V118.5L41.84 152.1C32.97 161.9 17.8 162.7 7.945 153.8C-1.907 144.1-2.706 129.8 6.161 119.9L78.16 39.94C82.71 34.89 89.2 32 96 32C102.8 32 109.3 34.89 113.8 39.94L185.8 119.9zM552 72C565.3 72 576 82.75 576 96C576 109.3 565.3 120 552 120H248C234.7 120 224 109.3 224 96C224 82.75 234.7 72 248 72H552zM552 232C565.3 232 576 242.7 576 256C576 269.3 565.3 280 552 280H248C234.7 280 224 269.3 224 256C224 242.7 234.7 232 248 232H552zM224 416C224 402.7 234.7 392 248 392H552C565.3 392 576 402.7 576 416C576 429.3 565.3 440 552 440H248C234.7 440 224 429.3 224 416z"/></svg>