<svg xmlns="http://www.w3.org/2000/svg" viewBox="0 0 640 512"><!--! Font Awesome Pro 6.0.0-beta3 by @fontawesome - https://fontawesome.com License - https://fontawesome.com/license (Commercial License) Copyright 2021 Fonticons, Inc. --><path d="M480 96h-104C362.8 96 352 106.8 352 120s10.75 24 24 24H480c61.75 0 112 50.25 112 112s-50.25 112-112 112h-104c-13.25 0-24 10.75-24 24S362.8 416 376 416H480c88.22 0 160-71.78 160-160S568.2 96 480 96zM264 368H160c-61.75 0-112-50.25-112-112S98.25 144 160 144h104C277.3 144 288 133.3 288 120S277.3 96 264 96H160C71.78 96 0 167.8 0 256s71.78 160 160 160h104C277.3 416 288 405.3 288 392S277.3 368 264 368zM192 256c0 13.25 10.75 24 24 24h208C437.3 280 448 269.3 448 256s-10.75-24-24-24h-208C202.8 232 192 242.8 192 256z"/></svg>