<svg xmlns="http://www.w3.org/2000/svg" viewBox="0 0 640 512"><!--! Font Awesome Pro 6.0.0-beta3 by @fontawesome - https://fontawesome.com License - https://fontawesome.com/license (Commercial License) Copyright 2021 Fonticons, Inc. --><path d="M144 304c-52.94 0-96-43.06-96-96s43.06-96 96-96h160c52.94 0 96 43.06 96 96s-43.06 96-96 96h-32c0 19.23 8.645 36.33 22.14 48H304c79.41 0 144-64.59 144-144S383.4 64 304 64h-160C64.59 64 0 128.6 0 208S64.59 352 144 352h23.45C163.1 336.6 160 320.7 160 304H144zM496 160h-23.45C476.9 175.4 480 191.3 480 208h16c52.94 0 96 43.06 96 96s-43.06 96-96 96h-160c-52.94 0-96-43.06-96-96s43.06-96 96-96h32c0-19.23-8.645-36.33-22.14-48H336C256.6 160 192 224.6 192 304S256.6 448 336 448h160c79.41 0 144-64.59 144-144S575.4 160 496 160z"/></svg>