<svg xmlns="http://www.w3.org/2000/svg" viewBox="0 0 320 512"><!--! Font Awesome Pro 6.1.1 by @fontawesome - https://fontawesome.com License - https://fontawesome.com/license (Commercial License) Copyright 2022 Fonticons, Inc. --><path d="M96 192H232C245.3 192 256 202.7 256 216C256 229.3 245.3 240 232 240H96V288H232C245.3 288 256 298.7 256 312C256 325.3 245.3 336 232 336H96V340.5C96 368.1 88.51 395.1 74.34 418.7L66.39 432H296C309.3 432 320 442.7 320 456C320 469.3 309.3 480 296 480H24C15.35 480 7.375 475.4 3.115 467.8C-1.145 460.3-1.028 451.1 3.42 443.7L33.18 394.1C42.88 377.9 48 359.4 48 340.5V336H24C10.75 336 0 325.3 0 312C0 298.7 10.75 288 24 288H48V240H24C10.75 240 0 229.3 0 216C0 202.7 10.75 192 24 192H48V159.2C48 88.97 104.1 32 175.2 32C188.9 32 202.5 34.2 215.5 38.53L295.6 65.23C308.2 69.42 314.1 83.02 310.8 95.59C306.6 108.2 292.1 114.1 280.4 110.8L200.3 84.07C192.2 81.37 183.8 80 175.2 80C131.5 80 96 115.5 96 159.2L96 192z"/></svg>