<svg xmlns="http://www.w3.org/2000/svg" viewBox="0 0 384 512"><!--! Font Awesome Pro 6.0.0-beta3 by @fontawesome - https://fontawesome.com License - https://fontawesome.com/license (Commercial License) Copyright 2021 Fonticons, Inc. --><path d="M105.8 133.3C113.8 110.9 134.9 96 158.6 96H216.9C251.7 96 280 124.3 280 159.1C280 181.8 267.9 202.7 248.3 213.9L215.1 232.4C215.8 245.5 205.1 255.1 192 255.1C178.7 255.1 168 245.3 168 231.1V218.5C168 209.9 172.6 202 180.1 197.7L224.4 172.3C229.1 169.6 232 164.6 232 159.1C232 150.8 225.2 143.1 216.9 143.1H158.6C155.2 143.1 152.2 146.1 151.1 149.3L150.6 150.6C146.2 163.1 132.5 169.6 119.1 165.2C107.5 160.7 100.9 147 105.4 134.5L105.8 133.3zM224 320C224 337.7 209.7 352 192 352C174.3 352 160 337.7 160 320C160 302.3 174.3 288 192 288C209.7 288 224 302.3 224 320zM384 192C384 279.4 267 435 215.7 499.2C203.4 514.5 180.6 514.5 168.3 499.2C116.1 435 0 279.4 0 192C0 85.96 85.96 0 192 0C298 0 384 85.96 384 192H384zM192 48C112.5 48 48 112.5 48 192C48 204.4 52.49 223.6 63.3 249.2C73.78 274 88.66 301.4 105.8 329.1C134.2 375.3 167.2 419.1 192 451.7C216.8 419.1 249.8 375.3 278.2 329.1C295.3 301.4 310.2 274 320.7 249.2C331.5 223.6 336 204.4 336 192C336 112.5 271.5 48 192 48V48z"/></svg>