<svg xmlns="http://www.w3.org/2000/svg" viewBox="0 0 448 512"><!--! Font Awesome Pro 6.0.0-beta3 by @fontawesome - https://fontawesome.com License - https://fontawesome.com/license (Commercial License) Copyright 2021 Fonticons, Inc. --><path d="M184 224C197.3 224 208 234.7 208 248V272H240V248C240 234.7 250.7 224 264 224C277.3 224 288 234.7 288 248V272H312C325.3 272 336 282.7 336 296C336 309.3 325.3 320 312 320H288V352H312C325.3 352 336 362.7 336 376C336 389.3 325.3 400 312 400H288V424C288 437.3 277.3 448 264 448C250.7 448 240 437.3 240 424V400H208V424C208 437.3 197.3 448 184 448C170.7 448 160 437.3 160 424V400H136C122.7 400 112 389.3 112 376C112 362.7 122.7 352 136 352H160V320H136C122.7 320 112 309.3 112 296C112 282.7 122.7 272 136 272H160V248C160 234.7 170.7 224 184 224zM208 352H240V320H208V352zM96 160V128C96 57.31 153.3 0 224 0C294.7 0 352 57.31 352 128V160H384C419.3 160 448 188.7 448 224V448C448 483.3 419.3 512 384 512H64C28.65 512 0 483.3 0 448V224C0 188.7 28.65 160 64 160H96zM144 160H304V128C304 83.82 268.2 48 224 48C179.8 48 144 83.82 144 128V160zM64 208C55.16 208 48 215.2 48 224V448C48 456.8 55.16 464 64 464H384C392.8 464 400 456.8 400 448V224C400 215.2 392.8 208 384 208H64z"/></svg>