<svg xmlns="http://www.w3.org/2000/svg" viewBox="0 0 512 512"><!--! Font Awesome Pro 6.1.1 by @fontawesome - https://fontawesome.com License - https://fontawesome.com/license (Commercial License) Copyright 2022 Fonticons, Inc. --><path d="M304.1 191C314.3 200.4 314.3 215.6 304.1 224.1L240.1 288.1C231.6 298.3 216.4 298.3 207 288.1C197.7 279.6 197.7 264.4 207 255L230.1 232H128C114.7 232 104 221.3 104 208C104 194.7 114.7 184 128 184H230.1L207 160.1C197.7 151.6 197.7 136.4 207 127C216.4 117.7 231.6 117.7 240.1 127L304.1 191zM0 208C0 93.12 93.12 0 208 0C322.9 0 416 93.12 416 208C416 256.8 399.2 301.7 371.1 337.1L504.1 471C514.3 480.4 514.3 495.6 504.1 504.1C495.6 514.3 480.4 514.3 471 504.1L337.1 371.1C301.7 399.2 256.8 416 208 416C93.12 416 0 322.9 0 208V208zM208 368C296.4 368 368 296.4 368 208C368 119.6 296.4 48 208 48C119.6 48 48 119.6 48 208C48 296.4 119.6 368 208 368z"/></svg>