<svg xmlns="http://www.w3.org/2000/svg" viewBox="0 0 512 512"><!--! Font Awesome Pro 6.1.1 by @fontawesome - https://fontawesome.com License - https://fontawesome.com/license (Commercial License) Copyright 2022 Fonticons, Inc. --><path d="M104 216C104 202.7 114.7 192 128 192C141.3 192 152 202.7 152 216V280C152 293.3 141.3 304 128 304C114.7 304 104 293.3 104 280V216zM184 120C184 106.7 194.7 96 208 96C221.3 96 232 106.7 232 120V280C232 293.3 221.3 304 208 304C194.7 304 184 293.3 184 280V120zM264 184C264 170.7 274.7 160 288 160C301.3 160 312 170.7 312 184V280C312 293.3 301.3 304 288 304C274.7 304 264 293.3 264 280V184zM0 208C0 93.12 93.12 0 208 0C322.9 0 416 93.12 416 208C416 256.8 399.2 301.7 371.1 337.1L504.1 471C514.3 480.4 514.3 495.6 504.1 504.1C495.6 514.3 480.4 514.3 471 504.1L337.1 371.1C301.7 399.2 256.8 416 208 416C93.12 416 0 322.9 0 208V208zM208 368C296.4 368 368 296.4 368 208C368 119.6 296.4 48 208 48C119.6 48 48 119.6 48 208C48 296.4 119.6 368 208 368z"/></svg>