<svg xmlns="http://www.w3.org/2000/svg" viewBox="0 0 512 512"><!--! Font Awesome Pro 6.0.0-beta3 by @fontawesome - https://fontawesome.com License - https://fontawesome.com/license (Commercial License) Copyright 2021 Fonticons, Inc. --><path d="M504.1 471l-134-134C399.1 301.5 416 256.8 416 208C416 93.13 322.9 0 208 0S0 93.13 0 208S93.13 416 208 416c48.79 0 93.55-16.91 129-45.04l134 134C475.7 509.7 481.9 512 488 512s12.28-2.344 16.97-7.031C514.3 495.6 514.3 480.4 504.1 471zM208 368c-88.22 0-160-71.78-160-160s71.78-160 160-160s160 71.78 160 160S296.2 368 208 368zM288 184H231.1V128c0-13.26-10.74-24-23.1-24S184 114.7 184 128v56H127.1C114.7 184 104 194.7 104 208s10.73 24 23.1 24H184V288c0 13.26 10.73 24 23.1 24c13.26 0 23.1-10.74 23.1-24V232h56C301.3 232 312 221.3 312 208S301.3 184 288 184z"/></svg>