<svg xmlns="http://www.w3.org/2000/svg" viewBox="0 0 384 512"><!--! Font Awesome Pro 6.0.0-beta3 by @fontawesome - https://fontawesome.com License - https://fontawesome.com/license (Commercial License) Copyright 2021 Fonticons, Inc. --><path d="M216 56V97.49C310.7 109.3 384 190.1 384 288V456C384 469.3 373.3 480 360 480C346.7 480 336 469.3 336 456V288C336 216.6 284.1 157.4 216 145.1V456C216 469.3 205.3 480 192 480C178.7 480 168 469.3 168 456V145.1C99.9 157.4 48 216.6 48 288V456C48 469.3 37.25 480 24 480C10.75 480 0 469.3 0 456V288C0 190.1 73.29 109.3 168 97.49V56C168 42.75 178.7 32 192 32C205.3 32 216 42.75 216 56V56z"/></svg>