<svg xmlns="http://www.w3.org/2000/svg" viewBox="0 0 512 512"><!--! Font Awesome Pro 6.0.0-beta3 by @fontawesome - https://fontawesome.com License - https://fontawesome.com/license (Commercial License) Copyright 2021 Fonticons, Inc. --><path d="M507.3 50.66l-46-46c-5.25-5.25-13.38-6.127-19.76-2.252l-64 40.11c-7 4.375-12 11.12-14 19.12l-18.38 71.38l-59.25 59.25C96.76 188.6 49.63 237.4 30.76 256.2c-46.88 46.87-39.5 150.4 17.5 207.5C80.26 495.6 126.7 512 169.7 512c33.75 0 65.38-10.15 86-30.77c15.5-15.62 67.76-61.1 64.01-255.1l59.25-59.25l71.38-18.38c7.875-2.125 14.75-7.124 19.12-13.1l40.01-63.99C513.5 64.15 512.6 56.03 507.3 50.66zM221.8 447.4c-10.38 10.37-29.88 16.62-52 16.62c-32.88 0-66.38-13.12-87.5-34.25c-39.75-39.75-43.62-113.5-17.62-139.5c47.88-48.37 156.5-48.1 172.9-49.62L188.3 289.8c-21.37-5.875-44 3.25-55.25 22.5c-11.12 19.12-8 43.37 7.625 59.12c15.75 15.62 40 18.75 59.13 7.625c19.25-11.25 28.37-33.87 22.5-55.25l49.13-49.25C270.9 289.5 270.3 399.1 221.8 447.4z"/></svg>