<svg xmlns="http://www.w3.org/2000/svg" viewBox="0 0 512 512"><!--! Font Awesome Pro 6.0.0-beta3 by @fontawesome - https://fontawesome.com License - https://fontawesome.com/license (Commercial License) Copyright 2021 Fonticons, Inc. --><path d="M509.4 253.1C497.8 176.4 440.4 120.1 368 102.4V63.56C385.5 83.31 411.5 96 443 96h51.05c11.19 0 19.79-9.357 17.55-19.28C501.8 32.94 458.1 0 407.7 0H344C330.8 0 320 10.75 320 24l-.0752 72.01c-.0078 0 .0078 0 0 0c-171.5 .1602-208.7 177.9-301.7 268.4C6.512 375.8 0 391.5 0 407.9c0 25.1 15.28 47.62 38.73 56.57C88.42 483.4 181.1 512 287.1 512C423.2 512 530.4 392.3 509.4 253.1zM421.5 402.7C387.1 441.7 339.3 464 288 464c-100.8 0-188.7-27.82-232.2-44.4C51.08 417.8 48 413.2 48 407.9c0-3.48 1.35-6.791 3.705-9.084c32.81-31.94 58.36-71.66 83.07-110.1c49.91-77.61 93.13-144.6 185.1-144.7c.0078 0-.0078 0 0 0L319.1 168c0 13.25 10.75 24 24 24s24-10.75 24-24V151.1c49.18 16.26 86.11 56.71 93.89 108.3C469.8 312.6 455.5 363.2 421.5 402.7z"/></svg>