<svg xmlns="http://www.w3.org/2000/svg" viewBox="0 0 320 512"><!--! Font Awesome Pro 6.0.0-beta3 by @fontawesome - https://fontawesome.com License - https://fontawesome.com/license (Commercial License) Copyright 2021 Fonticons, Inc. --><path d="M200 488C200 501.3 189.3 512 176 512C162.7 512 152 501.3 152 488V286C83.9 274.6 32 215.4 32 144C32 64.47 96.47 0 176 0C255.5 0 320 64.47 320 144C320 215.4 268.1 274.6 200 286V488zM176 48C122.1 48 80 90.98 80 144C80 197 122.1 240 176 240C229 240 272 197 272 144C272 90.98 229 48 176 48z"/></svg>