<svg xmlns="http://www.w3.org/2000/svg" viewBox="0 0 448 512"><!--! Font Awesome Pro 6.0.0-beta3 by @fontawesome - https://fontawesome.com License - https://fontawesome.com/license (Commercial License) Copyright 2021 Fonticons, Inc. --><path d="M424 32h-112C298.8 32 288 42.75 288 56s10.75 24 24 24h54.06L281.8 164.3C250.5 140.6 213.4 128 176 128C130.1 128 85.92 145.2 51.55 179.5c-68.73 68.73-68.73 180.2 0 248.9C85.92 462.8 130.1 480 176 480s89.91-17.18 124.3-51.55c62.92-62.92 67.71-161.2 15.44-230.2L400 113.9V168C400 181.3 410.8 192 424 192S448 181.3 448 168v-112C448 42.75 437.3 32 424 32zM266.5 394.5C242.3 418.7 210.2 432 176 432s-66.33-13.31-90.51-37.49c-49.91-49.91-49.91-131.1 0-181C109.7 189.3 141.8 176 176 176s66.34 13.32 90.51 37.5c.0039 .0039-.0039-.0039 0 0c.002 .002-.002-.002 0 0C316.4 263.4 316.4 344.6 266.5 394.5z"/></svg>