<svg xmlns="http://www.w3.org/2000/svg" viewBox="0 0 640 512"><!--! Font Awesome Pro 6.0.0-beta3 by @fontawesome - https://fontawesome.com License - https://fontawesome.com/license (Commercial License) Copyright 2021 Fonticons, Inc. --><path d="M616 32h-111.1c-13.25 0-23.1 10.75-23.1 24s10.75 24 23.1 24h54.06L458.5 179.5c-9.375 9.375-9.375 24.56 0 33.94c49.91 49.91 49.9 131.1-.0059 181c-24.18 24.18-56.32 37.49-90.51 37.49c-8.91 0-17.65-1-26.18-2.766c-5.764 7.6-11.88 14.98-18.74 21.84c-6.037 6.037-12.52 11.54-19.13 16.73C324.5 475.8 346.2 480 368 480c45.04 0 89.91-17.18 124.3-51.55c62.92-62.92 67.71-161.3 15.44-230.2l84.29-84.28v54.07c0 13.25 10.75 24 23.1 24S640 181.3 640 168V56C640 42.75 629.3 32 616 32zM315.7 198.2l84.29-84.28v54.07c0 13.25 10.75 24 23.1 24c13.25 0 24-10.75 24-24V56c0-13.25-10.75-24-24-24H312c-13.25 0-23.1 10.75-23.1 24s10.75 24 23.1 24h54.06L281.8 164.3C250.5 140.6 213.4 127.1 176 127.1c-45.04 0-90.08 17.18-124.5 51.55c-68.73 68.73-68.73 180.2 0 248.9C85.92 462.8 130.1 480 176 480s89.91-17.18 124.3-51.55C363.2 365.5 367.1 267.2 315.7 198.2zM266.5 394.5c-24.18 24.18-56.32 37.49-90.51 37.49s-66.33-13.31-90.51-37.49c-49.91-49.91-49.91-131.1 0-181c24.18-24.18 56.32-37.49 90.51-37.49s66.33 13.31 90.51 37.49C316.4 263.4 316.4 344.6 266.5 394.5z"/></svg>