<svg xmlns="http://www.w3.org/2000/svg" viewBox="0 0 512 512"><!--! Font Awesome Pro 6.0.0-beta3 by @fontawesome - https://fontawesome.com License - https://fontawesome.com/license (Commercial License) Copyright 2021 Fonticons, Inc. --><path d="M472 0h-96C362.8 0 352 10.75 352 24s10.75 24 24 24h38.06l-43.01 43.01C340.2 64.28 300 48 256 48C158.8 48 80 126.8 80 224c0 89.04 66.18 162.4 152 174.2V424H208c-13.25 0-24 10.75-24 24s10.75 24 24 24h24v16C232 501.3 242.8 512 256 512s24-10.75 24-24v-16h24c13.25 0 24-10.75 24-24s-10.75-24-24-24h-24v-25.82C365.8 386.4 432 313 432 224c0-35.83-10.77-69.11-29.15-96.91L448 81.94V120c0 13.25 10.75 24 24 24s24-10.75 24-24v-96C496 10.75 485.3 0 472 0zM256 352c-70.58 0-128-57.42-128-128s57.42-128 128-128s128 57.42 128 128S326.6 352 256 352z"/></svg>