<svg xmlns="http://www.w3.org/2000/svg" viewBox="0 0 576 512"><!--! Font Awesome Pro 6.1.1 by @fontawesome - https://fontawesome.com License - https://fontawesome.com/license (Commercial License) Copyright 2022 Fonticons, Inc. --><path d="M576 144c0 79.5-64.5 144-143.1 144c-27.38 0-52.75-8.125-74.62-21.38l35.25-35.25C404.8 236.8 418 240 432 240c52.88 0 95.1-43 95.1-96s-43.12-96-95.1-96c-35.38 0-65.1 19.5-82.62 48h-52.5c19.75-55.75 72.5-96 135.1-96C511.5 0 576 64.5 576 144zM320 488c0 13.25-10.75 24-24 24h-176C106.8 512 96 501.3 96 488s10.75-24 24-24h64v-117.3l-176.8-176.7C-8.249 154.5 2.751 128 24.63 128h366.7c21.88 0 32.87 26.5 17.37 42L232 346.8V464H296C309.3 464 320 474.8 320 488zM208 302.9L334.9 176H81.13L208 302.9z"/></svg>