<svg xmlns="http://www.w3.org/2000/svg" viewBox="0 0 640 512"><!--! Font Awesome Pro 6.1.1 by @fontawesome - https://fontawesome.com License - https://fontawesome.com/license (Commercial License) Copyright 2022 Fonticons, Inc. --><path d="M432 192C440.8 192 448 199.2 448 208C448 216.8 440.8 224 432 224H208C199.2 224 192 216.8 192 208C192 199.2 199.2 192 208 192H432zM192 272C192 263.2 199.2 256 208 256H432C440.8 256 448 263.2 448 272C448 280.8 440.8 288 432 288H208C199.2 288 192 280.8 192 272zM400 320C408.8 320 416 327.2 416 336C416 344.8 408.8 352 400 352H240C231.2 352 224 344.8 224 336C224 327.2 231.2 320 240 320H400zM0 269V184C0 153.1 25.07 128 56 128H153.2C172.2 128 190.7 122.4 206.5 111.9L243.6 87.12C266.2 72.05 292.8 64 320 64C347.2 64 373.8 72.05 396.4 87.12L433.5 111.9C449.3 122.4 467.8 128 486.8 128H584C614.9 128 640 153.1 640 184V269C640 324.1 602.5 372.1 549.1 385.5L441.1 412.5C406.2 434.1 364.6 448 320 448C275.4 448 233.8 434.1 198.9 412.5L90.9 385.5C37.48 372.1 0 324.1 0 269zM320 112C302.3 112 284.1 117.2 270.2 127.1L233.1 151.8C209.5 167.6 181.7 176 153.2 176H144V224C144 283.5 173.5 336.1 218.7 367.9L221.8 368.7L221.5 369.9C249.6 388.9 283.5 400 320 400C356.5 400 390.4 388.9 418.5 369.9L418.2 368.7L421.3 367.9C466.5 336.1 496 283.5 496 224V176H486.8C458.3 176 430.5 167.6 406.9 151.8L369.8 127.1C355 117.2 337.7 112 320 112V112zM96 224V176H56C51.58 176 48 179.6 48 184V269C48 302.1 70.49 330.9 102.5 338.9L132.3 346.3C109.4 311.2 95.1 269.1 95.1 224H96zM592 269V184C592 179.6 588.4 176 584 176H544V224C544 269.1 530.6 311.2 507.7 346.3L537.5 338.9C569.5 330.9 592 302.1 592 269H592z"/></svg>