<svg xmlns="http://www.w3.org/2000/svg" viewBox="0 0 512 512"><!--! Font Awesome Pro 6.1.1 by @fontawesome - https://fontawesome.com License - https://fontawesome.com/license (Commercial License) Copyright 2022 Fonticons, Inc. --><path d="M256 0C114.6 0 0 114.6 0 256c0 70.71 28.66 134.7 74.1 181c.002 .002-.002-.002 0 0s-.002-.002 0 0C121.3 483.3 185.3 512 256 512c141.4 0 256-114.6 256-256S397.4 0 256 0zM402.9 172.1c-13.84 46.17-45.93 96.06-90.34 140.5c-67.1 67.07-138.4 97.09-179.3 97.09c-6.387 0-17.67-.8691-23.64-6.092c-.2891-.2871-.5918-.5605-.8789-.8477c-7.023-7.428-9.643-29.52 .3496-62.81c13.84-46.17 45.93-96.06 90.34-140.5c67.09-67.08 138.4-97.11 179.3-97.11c6.357 0 17.58 .8555 23.58 6.037c.3008 .2988 .6191 .5781 .918 .8789C410.3 116.6 412.9 138.8 402.9 172.1zM256 48c26.09 0 50.98 5.039 74.01 13.85c-51.97 14.85-112 51.13-164.5 103.6C115.6 215.4 79.2 272.5 63.11 326.1c-.4863 1.621-.5469 3.008-.9922 4.607C53.13 307.5 48 282.4 48 256C48 141.3 141.3 48 256 48zM256 464c-26.1 0-50.98-5.039-74.02-13.85c51.98-14.85 112-51.12 164.5-103.6c49.93-49.94 86.29-106.1 102.4-160.6c.4883-1.625 .5488-3.014 .9941-4.617C458.9 204.5 464 229.6 464 256C464 370.7 370.7 464 256 464z"/></svg>