<svg xmlns="http://www.w3.org/2000/svg" viewBox="0 0 576 512"><!--! Font Awesome Pro 6.0.0-beta3 by @fontawesome - https://fontawesome.com License - https://fontawesome.com/license (Commercial License) Copyright 2021 Fonticons, Inc. --><path d="M288 248C288 234.8 277.3 224 264 224h-144C106.8 224 96 234.8 96 248S106.8 272 120 272h144C277.3 272 288 261.3 288 248zM284.6 464H64c-8.822 0-16-7.178-16-16V64c0-8.822 7.178-16 16-16h256c8.822 0 16 7.178 16 16v156.6c14.63-9.553 30.78-16.91 48-21.79V64c0-35.35-28.65-64-64-64H64C28.65 0 0 28.65 0 64v384c0 35.35 28.65 64 64 64h256c3.32 0 6.583-.4967 9.766-.985C311.1 498.3 296.6 482.4 284.6 464zM120 320C106.8 320 96 330.8 96 344s10.75 24 24 24h48C181.3 368 192 357.3 192 344S181.3 320 168 320H120zM264 128h-144C106.8 128 96 138.8 96 152S106.8 176 120 176h144C277.3 176 288 165.3 288 152S277.3 128 264 128zM432 224C352.5 224 288 288.5 288 368s64.46 144 144 144C511.5 512 576 447.5 576 368S511.5 224 432 224zM499.3 341.1l-74.66 74.66c-3.125 3.125-7.219 4.688-11.31 4.688s-8.188-1.562-11.31-4.688l-37.34-37.33c-6.25-6.25-6.25-16.38 0-22.62s16.38-6.25 22.62 0l26.03 26.02l63.34-63.34c6.25-6.25 16.38-6.25 22.62 0S505.6 335.7 499.3 341.1z"/></svg>