<svg xmlns="http://www.w3.org/2000/svg" viewBox="0 0 512 512"><!--! Font Awesome Pro 6.0.0-beta3 by @fontawesome - https://fontawesome.com License - https://fontawesome.com/license (Commercial License) Copyright 2021 Fonticons, Inc. --><path d="M176 160c17.62 0 32-14.38 32-32s-14.38-32-32-32s-32 14.38-32 32S158.4 160 176 160zM311.1 135.1C309 130.7 304 128 298.7 128s-10.35 2.672-13.31 7.125L231.8 215.4L219.6 198.6C216.6 194.4 211.8 192 206.7 192S196.8 194.4 193.7 198.6l-46.67 64c-3.549 4.863-4.064 11.31-1.334 16.68C148.5 284.6 153.1 288 160 288h224c5.9 0 11.32-3.246 14.11-8.449c2.783-5.203 2.479-11.52-.7949-16.43L311.1 135.1zM447.1 .0041h-384c-35.25 0-64 28.75-64 63.1v287.1c0 35.25 28.75 63.1 64 63.1h96v83.98c0 9.836 11.02 15.55 19.12 9.7l124.9-93.68h144c35.25 0 64-28.75 64-63.1V63.1C511.1 28.75 483.2 .0041 447.1 .0041zM464 352c0 8.75-7.25 16-16 16h-160l-80 60v-60H64c-8.75 0-16-7.25-16-16V64c0-8.75 7.25-16 16-16h384c8.75 0 16 7.25 16 16V352z"/></svg>