<svg xmlns="http://www.w3.org/2000/svg" viewBox="0 0 512 512"><!--! Font Awesome Pro 6.0.0-beta3 by @fontawesome - https://fontawesome.com License - https://fontawesome.com/license (Commercial License) Copyright 2021 Fonticons, Inc. --><path d="M331.3 96.75l-128 47.25C196.5 146.1 192 152.3 192 159.3v98.75C186.8 256.7 181.4 255.1 175.1 255.1c-26.5 0-48 14.37-48 31.1s21.5 31.1 48 31.1s47.1-14.37 47.1-31.1L224 203.1l96-37.5v60.38c-5.25-1.25-10.63-2.005-16-2.005c-26.5 0-48 14.37-48 31.1s21.5 31.1 48 31.1s48-14.37 48-31.1L352 112c0-5.125-2.375-9.875-6.5-12.88S336.1 95.25 331.3 96.75zM447.1 .0072h-384c-35.25 0-64 28.75-64 63.1v287.1c0 35.25 28.75 63.1 64 63.1h96v83.1c0 9.836 11.02 15.55 19.12 9.7l124.9-93.7h144c35.25 0 64-28.75 64-63.1V64C511.1 28.75 483.2 .0072 447.1 .0072zM464 352c0 8.75-7.25 16-16 16h-160l-80 60v-60H64c-8.75 0-16-7.25-16-16V64c0-8.75 7.25-16 16-16h384c8.75 0 16 7.25 16 16V352z"/></svg>