<svg xmlns="http://www.w3.org/2000/svg" viewBox="0 0 640 512"><!--! Font Awesome Pro 6.1.1 by @fontawesome - https://fontawesome.com License - https://fontawesome.com/license (Commercial License) Copyright 2022 Fonticons, Inc. --><path d="M207.1 142.1L212.7 143.5C231.8 148.1 267.4 159.2 260.1 196.3C257.9 214.2 244.3 225.1 225.1 230.1V238.9C225.1 248.3 217.5 256 208 256C198.5 256 190.9 248.3 190.9 238.9V229.6C183.4 227.1 176 225.6 169.4 223.2L165.7 221.9C156.8 218.7 152.1 208.9 155.3 200C158.4 191.1 168.2 186.5 177.1 189.5L180.1 190.9L181 190.1C187.7 193.4 195.3 196.1 201.2 196.1C212.1 198.8 226 197.1 227.2 190.4C227.1 186.1 228.4 183.7 203.3 176.5L198.3 175C183.4 170.7 148.7 160.4 155 123.7C158.1 105.8 171.6 93.79 190.9 89.71V81.14C190.9 71.69 198.5 63.1 208 63.1C217.5 63.1 225.1 71.69 225.1 81.14V90.26C229.8 91.28 234.9 92.65 241.1 94.78C250 97.88 254.7 107.7 251.6 116.6C248.5 125.5 238.7 130.3 229.8 127.2C224.8 125.4 219.5 123.8 214.7 123C203 121.2 189.1 122.9 188.8 129.6C188.1 133.4 187.7 136.2 207.1 142.1V142.1zM352 319.9L224 320L115.1 381.6C112.9 383.3 110.4 384 108 384C101.8 384 96 379.1 96 372V320L64 320C28.75 320 0 291.3 0 256V63.1C0 28.75 28.75 0 64 0H352C387.3 0 416 28.75 416 63.1V256C416 291.3 387.3 319.9 352 319.9V319.9zM352 272C360.7 272 368 264.8 368 256V64C368 55.25 360.7 48 352 48H64C55.25 48 48 55.25 48 64V256C48 264.8 55.25 272 64 272H144V310.1L211.4 272H352zM304 352V384C304 392.7 311.2 400 320 400H428.6L496 438.1V400H576C584.7 400 592 392.7 592 384V192C592 183.2 584.7 176 576 176H448V128H576C611.3 128 640 156.7 640 191.1V384C640 419.3 611.3 448 576 448L544 448V500C544 507.1 538.2 512 532 512C529.6 512 527.1 511.3 524.9 509.6L416 448L320 447.9C284.8 447.9 256 419.3 256 384V352L304 352z"/></svg>