<svg xmlns="http://www.w3.org/2000/svg" viewBox="0 0 512 512"><!--! Font Awesome Pro 6.0.0-beta3 by @fontawesome - https://fontawesome.com License - https://fontawesome.com/license (Commercial License) Copyright 2021 Fonticons, Inc. --><path d="M510.5 42.84c-8.501 28.25-29.13 94.62-52.38 153.1c10.38 4 18.5 12.12 22.38 22.38c3.875 10.38 3.25 21.75-1.875 31.5c-22 42.13-79.38 146.4-136.4 203.4c-78.38 78.38-205.3 78.38-283.7 0c-78.13-78.12-78.13-205.4 0-283.5c57.26-57.13 161.3-114.3 203.5-136.3c9.751-5.125 21.25-5.875 31.5-1.1s18.38 11.1 22.38 22.25c58.26-23.13 124.9-43.75 153.3-52.25c11.75-3.625 24.5-.375 33.13 8.25C511 18.34 514.1 31.09 510.5 42.84zM393.4 226.7l10.75-24.88c20.5-47.88 40.13-107.5 52.38-146.4c-38.88 12.25-98.76 32-146.3 52.5l-25 10.62c0 0-9.876-33.75-11-37.38c-39.88 21.25-132.5 73.25-181.6 122.4c-59.38 59.5-59.38 156.3 0 215.6c28.63 28.63 67.38 44.75 107.9 44.75c40.38 0 79.26-16.12 107.8-44.75c48.5-48.37 98.63-136.7 122.5-181.5c-3.625-1-7.376-2.125-11.38-3.375L393.4 226.7zM311.1 311.1c0 61.88-50.13 112-112 112s-112-50.13-112-112s50.25-112 112-112C261.9 199.1 311.1 250.1 311.1 311.1zM199.1 287.1c0-13.25-10.75-24-24-24s-24 10.75-24 24s10.75 24 24 24c6.376 0 12.5-2.5 17-7C197.5 300.5 199.1 294.3 199.1 287.1zM231.1 359.1c0-8.875-7.126-16-16-16c-8.751 0-16 7.125-16 16s7.251 16 16 16C224.9 375.1 231.1 368.8 231.1 359.1z"/></svg>