<svg xmlns="http://www.w3.org/2000/svg" viewBox="0 0 640 512"><!--! Font Awesome Pro 6.0.0-beta3 by @fontawesome - https://fontawesome.com License - https://fontawesome.com/license (Commercial License) Copyright 2021 Fonticons, Inc. --><path d="M434.7 416c-12.19 0-23.42-4.785-32.41-12.29C364.6 440.9 312.1 464 256 464c-114.7 0-208-93.31-208-208S141.3 48 256 48s208 93.31 208 208c0 7.836-.5234 15.55-1.371 23.16l48.57-38.93C503 106.2 392.1 0 256 0C114.6 0 0 114.6 0 256s114.6 256 256 256c72.1 0 137.1-29.91 183.7-77.88L448.5 416H434.7zM328 128c-8.836 0-16 7.164-16 16v64c0 8.836 7.164 16 16 16h16c8.836 0 16-7.164 16-16v-64c0-8.836-7.164-16-16-16H328zM168 128c-8.836 0-16 7.164-16 16v64c0 8.836 7.164 16 16 16h16c8.836 0 16-7.164 16-16v-64c0-8.836-7.164-16-16-16H168zM248 128c-8.836 0-16 7.164-16 16v64c0 8.836 7.164 16 16 16h16c8.836 0 16-7.164 16-16v-64c0-8.836-7.164-16-16-16H248zM638.8 363.7C636.1 356.6 629.1 352 621.3 352h-65.01l50.17-102.9c3.426-7.715 .8379-16.7-6.199-21.64c-7.111-4.977-16.74-4.539-23.26 1l-154.7 123.1c-5.873 4.941-7.914 12.87-5.18 19.88C419.9 379.4 426.9 384 434.7 384h65.01l-50.17 102.9c-3.426 7.719-.8379 16.7 6.199 21.64C458.1 510.9 462.8 512 466.7 512c4.412 0 8.787-1.492 12.29-4.445l154.7-124C639.5 378.6 641.5 370.7 638.8 363.7z"/></svg>