<svg xmlns="http://www.w3.org/2000/svg" viewBox="0 0 640 512"><!--! Font Awesome Pro 6.0.0-beta3 by @fontawesome - https://fontawesome.com License - https://fontawesome.com/license (Commercial License) Copyright 2021 Fonticons, Inc. --><path d="M328 128c-8.836 0-16 7.164-16 16v64c0 8.836 7.164 16 16 16h16c8.836 0 16-7.164 16-16v-64c0-8.836-7.164-16-16-16H328zM256 464c-114.7 0-208-93.31-208-208S141.3 48 256 48c94.71 0 174.7 63.7 199.7 150.5c.8691-.8164 1.646-1.707 2.523-2.52l21.7-20.12l21.73 20.06c1.402 1.293 2.586 2.785 3.971 4.094C480.1 85.57 378.1 0 256 0C114.6 0 0 114.6 0 256s114.6 256 256 256c46.68 0 90.3-12.69 127.1-34.52c-9.41-12.93-16.8-27.26-22.18-42.72C330.8 453.2 294.7 464 256 464zM168 128c-8.836 0-16 7.164-16 16v64c0 8.836 7.164 16 16 16h16c8.836 0 16-7.164 16-16v-64c0-8.836-7.164-16-16-16H168zM248 128c-8.836 0-16 7.164-16 16v64c0 8.836 7.164 16 16 16h16c8.836 0 16-7.164 16-16v-64c0-8.836-7.164-16-16-16H248zM568.9 248.7c-11.5 10.7-22.2 22.1-32.1 34.3C520 260 500.9 238.7 480 219.4c-56.2 52.1-96 120-96 160.9C383.1 453.1 441.3 512 512 512c70.7 0 128-58.9 128-131.7C640 349.9 610.3 287.1 568.9 248.7zM560 446.3c-13.5 9.5-29.7 14.5-46.3 14.5c-43.3 0-78.5-28.6-78.5-75.1c0-23.2 14.6-43.6 43.7-78.5C483 312 538.2 382.4 538.2 382.4l35.2-40.1c2.5 4.102 4.699 8.102 6.699 12C596.5 385.6 589.6 425.6 560 446.3z"/></svg>