<svg xmlns="http://www.w3.org/2000/svg" viewBox="0 0 512 512"><!--! Font Awesome Pro 6.0.0-beta3 by @fontawesome - https://fontawesome.com License - https://fontawesome.com/license (Commercial License) Copyright 2021 Fonticons, Inc. --><path d="M226.3 183.1c-6.375-14.56-30.28-14.56-36.66 0l-56 128c-4.422 10.12 .1875 21.91 10.31 26.34c10.14 4.406 21.91-.2031 26.34-10.31l5.289-12.09C175.8 315.9 175.9 316 176 316h64c.1348 0 .248-.0762 .3828-.0781l5.289 12.09C248.1 335.5 256.3 340 264 340c2.672 0 5.391-.5313 8-1.672c10.12-4.438 14.73-16.22 10.31-26.34L226.3 183.1zM193.1 276L208 241.9L222.9 276H193.1zM336 172c-11.05 0-20 8.953-20 20v128c0 11.05 8.953 20 20 20s20-8.953 20-20V192C356 180.1 347 172 336 172zM488 280C501.3 280 512 269.3 512 256s-10.75-24-24-24H448v-48h40C501.3 184 512 173.3 512 160s-10.75-24-24-24H448V128c0-35.35-28.65-64-64-64h-8V24C376 10.75 365.3 0 352 0s-24 10.75-24 24V64h-48V24C280 10.75 269.3 0 256 0S232 10.75 232 24V64h-48V24C184 10.75 173.3 0 160 0S136 10.75 136 24V64H128C92.65 64 64 92.65 64 128v8H24C10.75 136 0 146.8 0 160s10.75 24 24 24H64v48H24C10.75 232 0 242.8 0 256s10.75 24 24 24H64v48H24C10.75 328 0 338.8 0 352s10.75 24 24 24H64V384c0 35.35 28.65 64 64 64h8v40C136 501.3 146.8 512 160 512s24-10.75 24-24V448h48v40C232 501.3 242.8 512 256 512s24-10.75 24-24V448h48v40c0 13.25 10.75 24 24 24s24-10.75 24-24V448H384c35.35 0 64-28.65 64-64v-8h40c13.25 0 24-10.75 24-24s-10.75-24-24-24H448v-48H488zM400 384c0 8.822-7.178 16-16 16H128c-8.822 0-16-7.178-16-16V128c0-8.822 7.178-16 16-16h256c8.822 0 16 7.178 16 16V384z"/></svg>