<svg xmlns="http://www.w3.org/2000/svg" viewBox="0 0 512 512"><!--! Font Awesome Pro 6.0.0-beta3 by @fontawesome - https://fontawesome.com License - https://fontawesome.com/license (Commercial License) Copyright 2021 Fonticons, Inc. --><path d="M144 400C135.2 400 128 407.2 128 416s7.164 16 16 16h64C216.8 432 224 424.8 224 416s-7.162-16-16-16H144zM225.2 464H64c-8.822 0-16-7.178-16-16V64c0-8.822 7.178-16 16-16h224c8.822 0 16 7.178 16 16v234.9c14.7-14.31 30.84-26.57 48-36.93V64c0-35.35-28.65-64-64-64H64C28.65 0 0 28.65 0 64v384c0 35.35 28.65 64 64 64h165.6C226.1 504.7 224 496.6 224 487.1C223.1 479.9 224.5 471.9 225.2 464zM487.1 303.1c13.26 0 23.1-10.74 23.1-23.1c0-13.26-10.74-23.1-23.1-23.1c-61.97-.0117-120.2 24.13-164 67.95C280.1 367.8 255.1 426 256 487.1c0 13.26 10.74 24 23.1 24c13.26 0 23.1-10.74 23.1-24c0-49.14 19.15-95.36 53.9-130.1C392.6 323.1 438.9 303.1 487.1 303.1zM512 375.1c0-13.26-10.74-23.1-23.1-23.1c-37.5 0-71.51 15.25-96.13 39.88S352 450.5 352 488C352 501.3 362.7 512 375.1 512s23.1-10.74 23.1-23.1c0-48.53 39.49-88.01 88.01-88.01C501.3 399.1 512 389.3 512 375.1zM457.4 457.4c-12.5 12.5-12.5 32.76 0 45.25c12.5 12.5 32.76 12.5 45.25 0c12.5-12.5 12.5-32.76 0-45.25C490.1 444.9 469.9 444.9 457.4 457.4z"/></svg>