<svg xmlns="http://www.w3.org/2000/svg" viewBox="0 0 384 512"><!--! Font Awesome Pro 6.0.0-beta3 by @fontawesome - https://fontawesome.com License - https://fontawesome.com/license (Commercial License) Copyright 2021 Fonticons, Inc. --><path d="M304 0h-224c-35.35 0-64 28.65-64 64v384c0 35.35 28.65 64 64 64h224c35.35 0 64-28.65 64-64V64C368 28.65 339.3 0 304 0zM320 448c0 8.822-7.178 16-16 16h-224C71.18 464 64 456.8 64 448v-80h256V448zM320 320H64V64c0-8.822 7.178-16 16-16h224C312.8 48 320 55.18 320 64V320zM192 440c13.26 0 24-10.75 24-24c0-13.26-10.74-24-24-24S168 402.7 168 416C168 429.3 178.7 440 192 440z"/></svg>