<svg xmlns="http://www.w3.org/2000/svg" viewBox="0 0 576 512"><!--! Font Awesome Pro 6.1.1 by @fontawesome - https://fontawesome.com License - https://fontawesome.com/license (Commercial License) Copyright 2022 Fonticons, Inc. --><path d="M384 128C384 136.8 376.8 144 368 144C359.2 144 352 136.8 352 128C352 119.2 359.2 112 368 112C376.8 112 384 119.2 384 128zM416 128C416 119.2 423.2 112 432 112C440.8 112 448 119.2 448 128C448 136.8 440.8 144 432 144C423.2 144 416 136.8 416 128zM104 48C73.07 48 48 73.07 48 104V360C48 417.4 94.56 464 152 464H160V416C160 322.3 217.5 242.1 299.1 208.7C295.1 200.4 292.1 191.5 290.2 182.3C265.1 176.2 248 154.2 248 128C248 100.1 268.4 76.97 295.1 72.71C311 30.23 351.1 0 400 0C448 0 488.1 30.23 504.9 72.71C531.6 76.97 552 100.1 552 128C552 154.2 534 176.2 509.8 182.3C502.7 217.3 479.4 246.3 448 261.2V286.1L531.5 369.5C559.1 398 576 436.7 576 477V488C576 501.3 565.3 512 552 512C538.7 512 528 501.3 528 488V477C528 449.4 517 422.1 497.5 403.5L448 353.9V464H456C469.3 464 480 474.7 480 488C480 501.3 469.3 512 456 512H152C68.05 512 0 443.9 0 360V104C0 46.56 46.56 .0003 104 .0003H128C181 .0003 224 42.98 224 96C224 149 181 192 128 192H120C106.7 192 96 181.3 96 168C96 154.7 106.7 144 120 144H128C154.5 144 176 122.5 176 96C176 69.49 154.5 48 128 48L104 48zM400 272C373.9 272 349.9 263.1 330.9 248.2C259.7 270.7 208 337.3 208 416V464H400V440C400 400.2 367.8 368 328 368H312C298.7 368 288 357.3 288 344C288 330.7 298.7 320 312 320H328C355 320 379.9 328.9 400 343.1V272zM400 48C364.7 48 336 76.65 336 112V160C336 195.3 364.7 224 400 224C435.3 224 464 195.3 464 160V112C464 76.65 435.3 48 400 48z"/></svg>