<svg xmlns="http://www.w3.org/2000/svg" viewBox="0 0 640 512"><!--! Font Awesome Pro 6.1.1 by @fontawesome - https://fontawesome.com License - https://fontawesome.com/license (Commercial License) Copyright 2022 Fonticons, Inc. --><path d="M511.1 32H112C103.2 32 96 39.2 96 48L95.1 288c0 53.02 42.98 96 96 96h192c53.02 0 96-42.98 96-96h26.38c66.83 0 126.6-48.78 133-115.3C646.8 96.38 586.8 32 511.1 32zM432 288c0 26.4-21.6 48-48 48H192c-26.4 0-48-21.6-48-48V80h72v40L185.4 150.6C179.4 156.6 176 164.8 176 173.3V224c0 17.67 14.33 32 32 32h47.1c17.67 0 32-14.33 32-32L288 173.3c0-8.486-3.371-16.62-9.373-22.63L248 120V80h184V288zM512 240h-32v-160h32c44.13 0 80 35.88 80 80S556.1 240 512 240zM576 456c0 13.25-10.75 24-24 24H24C10.75 480 0 469.3 0 456c0-13.26 10.75-24 24-24h528C565.3 432 576 442.7 576 456z"/></svg>