<svg xmlns="http://www.w3.org/2000/svg" viewBox="0 0 640 512"><!--! Font Awesome Pro 6.0.0-beta3 by @fontawesome - https://fontawesome.com License - https://fontawesome.com/license (Commercial License) Copyright 2021 Fonticons, Inc. --><path d="M630.8 469.1L352 250.6V195.4l137.6-33.38C503 157.7 512 145.5 512 131.5V31.98c0-10.25-4.938-19.81-13.19-25.81c-8.25-6.125-18.69-7.699-28.44-4.699l-144 35.38C313.1 41.09 304 53.34 304 67.34v145.6L38.81 5.111C28.34-3.061 13.32-1.248 5.12 9.189c-8.172 10.44-6.354 25.53 4.068 33.7L601.2 506.9C605.6 510.3 610.8 512 615.1 512c7.125 0 14.16-3.161 18.89-9.193C643.1 492.4 641.2 477.3 630.8 469.1zM352 79.09l112-25.25V119.7L352 144.1V79.09zM304 366.5c-18.12-9.125-40.13-14.5-64-14.5c-61.88 0-112 35.88-112 80C128 476.1 178.1 512 240 512s111.1-35.88 111.1-80L352 372.6l-48-37.62V366.5zM240 463.1c-39.75 0-63.1-20.75-63.1-31.1c0-11.25 24.25-32.01 63.1-32.01s64 20.75 64 32C304 443.2 279.8 463.1 240 463.1z"/></svg>