<svg xmlns="http://www.w3.org/2000/svg" viewBox="0 0 448 512"><!--! Font Awesome Pro 6.0.0-beta3 by @fontawesome - https://fontawesome.com License - https://fontawesome.com/license (Commercial License) Copyright 2021 Fonticons, Inc. --><path d="M253 255.1H336V55.1C336 42.74 346.7 31.1 360 31.1C373.3 31.1 384 42.74 384 55.1V255.1H424C437.3 255.1 448 266.7 448 279.1C448 293.3 437.3 303.1 424 303.1H384V456C384 466.5 377.1 475.8 367.1 478.9C356.1 482 346.1 478.2 340.2 469.5L227.6 303.1H112V456C112 469.3 101.3 480 88 480C74.75 480 64 469.3 64 456V303.1H24C10.75 303.1 0 293.3 0 279.1C0 266.7 10.75 255.1 24 255.1H64V55.1C64 45.46 70.87 36.16 80.94 33.06C91.01 29.96 101.9 33.79 107.8 42.5L253 255.1zM285.7 303.1L336 378V303.1H285.7zM194.1 255.1L112 133.1V255.1H194.1z"/></svg>