<svg xmlns="http://www.w3.org/2000/svg" viewBox="0 0 640 512"><!--! Font Awesome Pro 6.0.0-beta3 by @fontawesome - https://fontawesome.com License - https://fontawesome.com/license (Commercial License) Copyright 2021 Fonticons, Inc. --><path d="M412.9 481.1C413.1 498.1 428.8 512 445.8 512h132.5c17.02 0 31.81-13.9 32.88-30.89L623.2 288h-222.4L412.9 481.1zM624 224h-38.67l-10.61-23.89C572.2 195.1 567.2 192 561.6 192h-99.2c-5.557 0-10.63 3.139-13.12 8.105L438.7 224H400C391.2 224 384 231.2 384 240C384 248.8 391.2 256 400 256h224C632.8 256 640 248.8 640 240C640 231.2 632.8 224 624 224zM64 432c-8.822 0-16-7.178-16-16V96c0-8.822 7.178-16 16-16h320c8.822 0 16 7.178 16 16v96h17.89l2.771-6.219C426.4 174.4 436.3 166.2 448 162.5V96c0-35.35-28.65-64-64-64H64C28.65 32 0 60.65 0 96v320c0 35.35 28.65 64 64 64h316.8l-3-48H64zM368 149.3C368 128.8 351.3 112 330.7 112H224c-13.25 0-24 10.75-24 24v78.66C185.7 222.1 176 238.3 176 256c0 26.51 21.49 48 48 48S272 282.5 272 256c0-17.72-9.713-33.03-24-41.34V160H320v192H128V160h8C149.3 160 160 149.3 160 136S149.3 112 136 112H117.3C96.75 112 80 128.8 80 149.3v213.3C80 383.3 96.75 400 117.3 400h213.3C351.3 400 368 383.3 368 362.7V275.8C358.2 267 352 254.2 352 240c0-14.13 6.25-26.72 16-35.52V149.3z"/></svg>