<svg xmlns="http://www.w3.org/2000/svg" viewBox="0 0 512 512"><!--! Font Awesome Pro 6.1.1 by @fontawesome - https://fontawesome.com License - https://fontawesome.com/license (Commercial License) Copyright 2022 Fonticons, Inc. --><path d="M488 304C501.3 304 512 293.3 512 280S501.3 256 488 256C360.1 256 256 360.1 256 488c0 13.25 10.75 24 24 24s24-10.75 24-24C304 386.5 386.5 304 488 304zM457.4 457.4c-12.5 12.5-12.5 32.76 0 45.25c12.5 12.5 32.76 12.5 45.25 0c12.5-12.5 12.5-32.76 0-45.25C490.1 444.9 469.9 444.9 457.4 457.4zM488 352C413 352 352 413 352 488c0 13.25 10.75 24 24 24s24-10.75 24-24c0-48.53 39.47-88 88-88c13.25 0 24-10.75 24-24S501.3 352 488 352zM48 416V96c0-8.822 7.178-16 16-16h320c8.822 0 16 7.178 16 16v143.4c15.41-5.471 31.44-9.506 48-12.04V96c0-35.35-28.65-64-64-64H64C28.65 32 0 60.65 0 96v320c0 35.35 28.65 64 64 64h160.4c.4961-16.41 2.336-32.47 5.707-48H64C55.18 432 48 424.8 48 416zM128 352V160h8C149.3 160 160 149.3 160 136S149.3 112 136 112H117.3C96.75 112 80 128.8 80 149.3v213.3C80 383.3 96.75 400 117.3 400h122.1c5.99-16.86 13.62-32.9 22.75-48H128zM368 253.1V149.3C368 128.8 351.3 112 330.7 112H224c-13.25 0-24 10.75-24 24v78.66C185.7 222.1 176 238.3 176 256c0 26.51 21.49 48 48 48s48-21.49 48-48c0-17.72-9.713-33.03-24-41.34V160H320v124.5C334.7 272.3 350.9 261.9 368 253.1z"/></svg>