<svg xmlns="http://www.w3.org/2000/svg" viewBox="0 0 576 512"><!--! Font Awesome Pro 6.1.1 by @fontawesome - https://fontawesome.com License - https://fontawesome.com/license (Commercial License) Copyright 2022 Fonticons, Inc. --><path d="M199.7 297.6C189.1 288.6 189.4 273.4 198.4 263.7C207.4 253.1 222.6 253.4 232.3 262.4L408.4 425.8C461.3 388.6 495.1 325.6 495.1 256C495.1 180.1 454.7 112.1 393.7 76.78C382.2 70.14 378.3 55.46 384.9 43.99C391.6 32.51 406.2 28.59 417.7 35.23C493.4 78.98 543.1 162.7 543.1 256C543.1 349.3 493.4 433 417.7 476.8C408.6 482.1 397.1 480.8 389.4 473.6L199.7 297.6zM376.3 214.4C386 223.4 386.6 238.6 377.6 248.3C368.6 258 353.4 258.6 343.7 249.6L167.6 86.22C114.7 123.4 80 186.4 80 256C80 331.9 121.3 399.9 182.3 435.2C193.8 441.9 197.7 456.6 191.1 468C184.4 479.5 169.7 483.4 158.3 476.8C82.63 433 32 349.3 32 256C32 162.7 82.63 78.99 158.3 35.24C167.4 29.96 178.9 31.25 186.6 38.42L376.3 214.4z"/></svg>