<svg xmlns="http://www.w3.org/2000/svg" viewBox="0 0 448 512"><!--! Font Awesome Pro 6.1.1 by @fontawesome - https://fontawesome.com License - https://fontawesome.com/license (Commercial License) Copyright 2022 Fonticons, Inc. --><path d="M432 336C432 349.3 421.3 360 408 360H184.8l-60.73 93.13C119.5 460.2 111.8 464 103.1 464c-4.5 0-9.031-1.25-13.09-3.906C79.78 452.9 76.66 438 83.91 426.9L127.5 360H40c-13.25 0-24-10.74-24-23.99S26.75 312 40 312h118.8l73.04-112H40c-13.25 0-24-10.74-24-23.99S26.75 152 40 152h223.2l60.73-93.13c7.219-11.06 22.09-14.25 33.22-6.969c11.09 7.219 14.22 22.09 6.969 33.22L320.5 152H408c13.25 0 24 10.76 24 24.01S421.3 200 408 200h-118.8l-73.04 112H408C421.3 312 432 322.8 432 336z"/></svg>