<svg xmlns="http://www.w3.org/2000/svg" viewBox="0 0 512 512"><!--! Font Awesome Pro 6.0.0-beta3 by @fontawesome - https://fontawesome.com License - https://fontawesome.com/license (Commercial License) Copyright 2021 Fonticons, Inc. --><path d="M416 96H160c-35.34 0-63.1 28.65-64 63.1L96 415.1C95.1 451.3 124.7 480 160 480h226.8c8.486 0 16.62-3.371 22.63-9.375l61.25-61.25c6.002-6.004 9.373-14.14 9.373-22.63L480 160C480 124.8 451.2 96 416 96zM432 352h-48.01c-17.67 0-32 14.33-32 32l.0137 47.88H160c-8.836 0-16-7.164-16-16L144 160c0-8.836 7.162-16 16-16h256c8.836 0 16 7.164 16 16V352zM0 360v-240C0 53.83 53.83 0 120 0h240C373.3 0 384 10.75 384 24S373.3 48 360 48h-240C80.3 48 48 80.3 48 120v240C48 373.3 37.25 384 24 384S0 373.3 0 360z"/></svg>