<svg xmlns="http://www.w3.org/2000/svg" viewBox="0 0 640 512"><!--! Font Awesome Pro 6.0.0-beta3 by @fontawesome - https://fontawesome.com License - https://fontawesome.com/license (Commercial License) Copyright 2021 Fonticons, Inc. --><path d="M640 240V192c0-17.67-14.33-32-32-32h-48c-17.67 0-32 14.33-32 32h-64v48h64c0 17.67 14.33 32 32 32v128c-17.67 0-32 14.33-32 32h-224c0-17.67-14.33-32-32-32V352H224v48c-17.67 0-32 14.33-32 32V480c0 17.67 14.33 32 32 32h48c17.67 0 32-14.33 32-32h224c0 17.67 14.33 32 32 32H608c17.67 0 32-14.33 32-32v-48c0-17.67-14.33-32-32-32v-128C625.7 272 640 257.7 640 240zM264 472h-32v-32h32V472zM600 472h-32v-32h32V472zM600 232h-32v-32h32V232zM368 352H416c17.67 0 32-14.33 32-32V272c0-17.67-14.33-32-32-32v-128c17.67 0 32-14.33 32-32V32c0-17.67-14.33-32-32-32h-48c-17.67 0-32 14.33-32 32h-224c0-17.67-14.33-32-32-32H32C14.33 0 0 14.33 0 32v48c0 17.67 14.33 32 32 32v128c-17.67 0-32 14.33-32 32V320c0 17.67 14.33 32 32 32h48c17.67 0 32-14.33 32-32h224C336 337.7 350.3 352 368 352zM376 40h32v32h-32V40zM376 280h32v32h-32V280zM72 312h-32v-32h32V312zM72 72h-32v-32h32V72zM80 240v-128c17.67 0 32-14.33 32-32h224c0 17.67 14.33 32 32 32v128c-17.67 0-32 14.33-32 32h-224C112 254.3 97.67 240 80 240z"/></svg>