<svg xmlns="http://www.w3.org/2000/svg" viewBox="0 0 448 512"><!--! Font Awesome Pro 6.0.0-beta3 by @fontawesome - https://fontawesome.com License - https://fontawesome.com/license (Commercial License) Copyright 2021 Fonticons, Inc. --><path d="M448 456c0 13.25-10.75 24-24 24L320 480c-13.25 0-24-10.76-24-24.01v-24.5c0-8.75 4.781-16.84 12.47-21.03C364.9 379.5 400 320.3 400 256c0-97.03-78.97-176-176-176S48 158.1 48 256c0 64.31 35.06 123.5 91.53 154.5C147.2 414.7 152 422.8 152 431.5V456c0 13.25-10.75 24.01-24 24.01L24 480C10.75 480 0 469.3 0 456s10.75-24 24-24h61.41C32 389.9 0 325.3 0 256c0-123.5 100.5-224 224-224s224 100.5 224 223.1c0 69.31-32 133.9-85.41 175.1H424C437.3 432 448 442.8 448 456z"/></svg>