<svg xmlns="http://www.w3.org/2000/svg" viewBox="0 0 512 512"><!--! Font Awesome Pro 6.0.0-beta3 by @fontawesome - https://fontawesome.com License - https://fontawesome.com/license (Commercial License) Copyright 2021 Fonticons, Inc. --><path d="M32 64C32 50.75 42.75 40 56 40H456C469.3 40 480 50.75 480 64C480 77.25 469.3 88 456 88H56C42.75 88 32 77.25 32 64zM224 192C224 178.7 234.7 168 248 168H456C469.3 168 480 178.7 480 192C480 205.3 469.3 216 456 216H248C234.7 216 224 205.3 224 192zM456 296C469.3 296 480 306.7 480 320C480 333.3 469.3 344 456 344H248C234.7 344 224 333.3 224 320C224 306.7 234.7 296 248 296H456zM32 448C32 434.7 42.75 424 56 424H456C469.3 424 480 434.7 480 448C480 461.3 469.3 472 456 472H56C42.75 472 32 461.3 32 448zM38.1 268.4C31.23 261.1 31.23 250 38.1 243.6L133.8 165.6C144.3 156.1 159.1 164.4 159.1 177.9V334.1C159.1 347.6 144.3 355 133.8 346.4L38.1 268.4z"/></svg>