<svg xmlns="http://www.w3.org/2000/svg" viewBox="0 0 384 512"><!--! Font Awesome Pro 6.0.0-beta3 by @fontawesome - https://fontawesome.com License - https://fontawesome.com/license (Commercial License) Copyright 2021 Fonticons, Inc. --><path d="M192 192C196.5 192 200.8 193.9 203.8 197.2L279.5 279.8C293.6 295.2 282.7 320 261.8 320H122.2C101.3 320 90.38 295.2 104.5 279.8L180.2 197.2C183.2 193.9 187.5 192 192 192V192zM320 512H64C28.65 512 0 483.3 0 448V64C0 28.65 28.65 0 64 0H245.5C262.5 0 278.7 6.743 290.7 18.75L365.3 93.26C377.3 105.3 384 121.5 384 138.5V448C384 483.3 355.3 512 320 512zM48 448C48 456.8 55.16 464 64 464H320C328.8 464 336 456.8 336 448V138.5C336 134.3 334.3 130.2 331.3 127.2L256.8 52.69C253.8 49.69 249.7 48 245.5 48H64C55.16 48 48 55.16 48 64V448z"/></svg>