<svg xmlns="http://www.w3.org/2000/svg" viewBox="0 0 576 512"><!--! Font Awesome Pro 6.0.0-beta3 by @fontawesome - https://fontawesome.com License - https://fontawesome.com/license (Commercial License) Copyright 2021 Fonticons, Inc. --><path d="M553.4 22.43C538.8 7.961 519.4 0 498.8 0c-20.64 0-40.02 7.963-54.59 22.42L194.2 270.5C147.1 267.7 117.5 295.1 109.2 303.4c-23.71 23.68-35.63 56.47-32.69 89.96c.6016 6.857-1.332 12.94-5.592 17.59c-5.361 5.854-14.14 9.078-24.72 9.078C20.74 419.1 0 440.6 0 465.1C0 491.4 20.74 512 46.22 512h50.73c57.09 0 133.6-8.445 173.9-48.67c21.76-21.77 33.21-51.84 32.02-83.48l250.5-248.7C567.1 116.7 576 97.35 576 76.79C576 56.23 567.1 36.92 553.4 22.43zM143.2 337.3c24.38-24.38 50.66-18.75 63.11-17.1l47.29 47.29c2.245 21.76 2.694 42.5-16.68 61.87C214.9 451.4 163.9 464 96.96 464H73.32c12.91-4.033 24.21-11.04 33.03-20.66c13.4-14.63 19.8-33.88 18.01-54.21C122.7 369.8 129.5 350.9 143.2 337.3zM519.5 97.09l-197.3 195.9L281.1 251.9l196.8-195.4C483.5 51.01 490.9 48 498.8 48c7.891 0 15.28 3.02 20.79 8.48C524.1 61.9 528 69.11 528 76.79C528 84.46 524.1 91.68 519.5 97.09z"/></svg>