<svg xmlns="http://www.w3.org/2000/svg" viewBox="0 0 512 512"><!--! Font Awesome Pro 6.0.0-beta3 by @fontawesome - https://fontawesome.com License - https://fontawesome.com/license (Commercial License) Copyright 2021 Fonticons, Inc. --><path d="M496.3 21.86C484.2 7.997 466.1 0 448 0c-15.3 0-30.14 5.662-41.77 15.95l-192.4 169.7C179 216.6 181.1 251.2 178.8 270.9c-27.25 2.418-51.56 13.66-70.29 32.5C84.97 327.1 73.13 359.9 76.06 393.3c1.507 17.25-12.44 26.67-30.02 26.67C20.65 420 0 440.6 0 466S20.65 512 46.03 512h50.41c56.76 0 132.8-8.449 172.9-48.7c8.894-8.949 40.32-42.29 29.58-103.1c28.18-6.651 50.26-20.09 66-44.99l137.3-217.1C517.2 74.39 514.8 43.02 496.3 21.86zM235.3 429.4C213.4 451.4 162.8 464 96.45 464H73.04c12.81-4.02 24.02-10.99 32.79-20.55c13.42-14.64 19.82-33.92 18.04-54.29c-1.689-19.34 5.121-38.24 18.71-51.89c18.96-19.08 38.33-18.33 64.74-20.68l40.9 32.73C256.1 399 251.9 412.7 235.3 429.4zM461.6 72.48l-137.3 217.1c-11.97 18.94-28.2 21.98-42.3 25.31l-54.1-44.01C228.3 256.7 227.3 237.9 245.5 221.6l192.5-169.7C440.9 49.39 444.4 48 448 48l1.344 .0566c4.312 .2832 7.951 2.09 10.79 5.346C464.7 58.61 465.3 66.63 461.6 72.48z"/></svg>