<svg xmlns="http://www.w3.org/2000/svg" viewBox="0 0 576 512"><!--! Font Awesome Pro 6.1.1 by @fontawesome - https://fontawesome.com License - https://fontawesome.com/license (Commercial License) Copyright 2022 Fonticons, Inc. --><path d="M181.3 19.32L289.7 127.8L255.8 161.7L223 128.1L160.1 191L193.7 223.8L185.5 232L183.1 231.1C168.8 231.1 154.1 234.1 140.1 238.1L51.31 149.3C29.44 127.4 26.71 93.63 43.11 68.79C45.45 65.24 48.19 61.87 51.31 58.75L90.74 19.32C115.7-5.678 156.3-5.678 181.3 19.32V19.32zM414.2 320.1L448.1 286.2L485.4 323.5C495.8 333.9 503.5 346.8 507.6 360.9L543 481.2C545.5 489.7 543.2 498.8 536.1 504.1C530.8 511.2 521.7 513.5 513.2 511L392.9 475.6C380.5 471.1 369.1 465.7 359.5 457.2C358.1 455.1 356.8 454.7 355.5 453.4L337.9 435.9C341.9 421.9 344 407.2 344 392L343.1 390.3L352.1 382.2L389.4 419.5C394.2 424.2 400 427.7 406.4 429.6L484.6 452.6L461.6 374.4C459.9 368.8 457.1 363.6 453.2 359.3C452.7 358.6 452.1 358 451.5 357.4L414.2 320.1zM552.1 23.03C580 50.07 580 93.92 552.1 120.1L302.3 371.7C303.4 378.3 304 385.1 304 392C304 458.3 250.3 512 184 512H32C14.33 512 0 497.7 0 480C0 462.3 14.33 448 32 448H38.01C56.09 448 68.14 428.2 65.39 410.4C64.48 404.4 63.1 398.2 63.1 392C63.1 325.7 117.7 271.1 183.1 271.1C190.9 271.1 197.7 272.6 204.3 273.7L455 23.03C482.1-4.017 525.9-4.017 552.1 23.03H552.1zM519 56.97C510.7 48.67 497.3 48.67 488.1 56.97L306.2 239.7L336.3 269.8L519 87.03C527.3 78.73 527.3 65.27 519 56.97V56.97zM112 392C112 395.8 112.3 399.5 112.8 403.1C116.1 424.5 110.7 446.2 99.08 463.1L98.42 464H184C223.8 464 256 431.8 256 392C256 382.6 254.2 373.7 250.1 365.5L210.5 325C202.3 321.8 193.4 319.1 184 319.1C144.2 319.1 112 352.2 112 392V392z"/></svg>