<svg xmlns="http://www.w3.org/2000/svg" viewBox="0 0 512 512"><!--! Font Awesome Pro 6.1.1 by @fontawesome - https://fontawesome.com License - https://fontawesome.com/license (Commercial License) Copyright 2022 Fonticons, Inc. --><path d="M85.14 137.4C91.62 139.6 96 145.7 96 152.5v118.6C96 287.9 108.2 302.8 124.9 304.4C143.9 306.3 160 291.3 160 272.5v-100.8c0-9.465 8.182-16.76 17.57-15.74l.3203 .0352C185.9 156.9 192 163.7 192 171.8v51.41c0 16.75 12.22 31.71 28.86 33.3C239.9 258.3 256 243.3 256 224.6V175.9c0-8.674 6.885-15.83 15.54-16C388 157.7 480 129.1 480 96.05C480 60.62 379.7 32 256 32S32 60.62 32 96.05C32 111.9 52.02 126.2 85.14 137.4zM208 64.02h96c8.836 0 16 7.164 16 16s-7.164 15.1-16 15.1h-96c-8.836 0-16-7.161-16-15.1S199.2 64.02 208 64.02zM496.7 180.6C506.3 169.2 512 155.8 512 139.8c0-8.365-1.895-15.85-4.674-22.89C481.2 177.1 343.2 189.3 288 191.7v32.88c0 4.979-.6973 9.773-1.773 14.43c56.74-1.691 125.4-8.9 172-30.68C461.9 212.1 464 216.1 464 220.2c0 27.59-87.27 50.06-196.1 51.49C255.6 282.2 240.6 288.7 224 288.7c-2.039 0-4.104-.0977-6.178-.2969C208.3 287.5 199.4 284.4 191.6 279.6C190 293.9 183.6 306.6 174.2 316.4C203.2 319.1 231.7 319.1 256 319.1c60.56 0 147-5.287 202.3-31.15C461.7 292.5 464 296.3 464 300.3c0 28.52-93.13 51.72-208 51.72s-208-23.2-208-51.72c0-3.959 2.285-7.766 5.732-11.46c4.701 2.193 9.611 4.25 14.72 6.158C65.58 287.5 64 279.5 64 271.1V240.1c-10.28-6.113-16-12.82-16-19.86c0-4.145 2.199-8.15 5.926-12.01C57.22 209.8 60.51 211.4 64 212.8v-48.95C32.64 151.6 12.79 136.1 4.496 117.3C1.834 124.2 0 131.6 0 139.8c0 16.05 5.734 29.43 15.33 40.79C5.979 191.7 0 204.5 0 220.2c0 15.81 5.6 29.02 14.92 40.27C5.764 271.7 0 284.6 0 300.3c0 15.8 5.432 29.09 14.71 40.37C5.615 351.8 0 364.7 0 380.3C0 467 160.4 480 256 480s256-12.96 256-99.73c0-15.57-5.615-28.52-14.71-39.64C506.6 329.3 512 316.1 512 300.3c0-15.55-5.701-28.44-14.77-39.56C506.6 249.4 512 236.1 512 220.2C512 204.6 506 191.7 496.7 180.6zM256 431.1c-114.9 0-208-23.18-208-51.7c0-3.941 2.266-7.732 5.674-11.41C108.1 394.7 195.4 399.1 256 399.1s147-5.28 202.3-31.15C461.7 372.5 464 376.3 464 380.3C464 408.8 370.9 431.1 256 431.1z"/></svg>