<svg xmlns="http://www.w3.org/2000/svg" viewBox="0 0 384 512"><!--! Font Awesome Pro 6.0.0-beta3 by @fontawesome - https://fontawesome.com License - https://fontawesome.com/license (Commercial License) Copyright 2021 Fonticons, Inc. --><path d="M192 512c-79.41 0-144-64.59-144-144V108C48 48.45 96.45 0 156 0s108 48.45 108 108v236c0 39.7-32.3 72-72 72s-72-32.3-72-72v-192C120 138.8 130.8 128 144 128s24 10.75 24 24v192c0 13.23 10.77 24 24 24s24-10.77 24-24V108c0-33.08-26.92-60-60-60S96 74.92 96 108V368c0 52.94 43.06 96 96 96s96-43.06 96-96V152C288 138.8 298.8 128 312 128s24 10.75 24 24v216C336 447.4 271.4 512 192 512z"/></svg>