<svg xmlns="http://www.w3.org/2000/svg" viewBox="0 0 448 512"><!--! Font Awesome Pro 6.0.0-beta3 by @fontawesome - https://fontawesome.com License - https://fontawesome.com/license (Commercial License) Copyright 2021 Fonticons, Inc. --><path d="M384 0H64C28.65 0 0 28.65 0 64v384c0 35.34 28.65 64 64 64h320c35.2 0 64-28.8 64-64V64C448 28.8 419.2 0 384 0zM400 448c0 8.836-7.164 16-16 16H64c-8.836 0-16-7.164-16-16V64c0-8.836 7.164-16 16-16h320c8.836 0 16 7.164 16 16V448zM336 384h-224C103.3 384 96 391.3 96 400S103.3 416 112 416h224c8.75 0 16-7.25 16-16S344.8 384 336 384zM224 328c66.25 0 120-53.75 120-120S290.3 88 224 88S104 141.8 104 208S157.8 328 224 328zM310.4 192h-34.63c-1.375-23.62-5.751-45-12.25-62.25C287.6 142 305.4 164.6 310.4 192zM275.8 224h34.63c-5 27.38-22.88 50-46.88 62.25C269.1 269 274.4 247.6 275.8 224zM224 122.3C230.9 130.6 241.5 154.6 244 192h-40C206.5 154.6 217.1 130.6 224 122.3zM244 224C241.5 261.4 230.9 285.4 224 293.8C217.1 285.4 206.5 261.4 204 224H244zM184.5 129.8C177.1 147 173.6 168.4 172.3 192H137.6C142.6 164.6 160.4 142 184.5 129.8zM172.3 224C173.6 247.6 177.1 269 184.5 286.3C160.5 274 142.6 251.4 137.6 224H172.3z"/></svg>