<svg xmlns="http://www.w3.org/2000/svg" viewBox="0 0 512 512"><!--! Font Awesome Pro 6.1.1 by @fontawesome - https://fontawesome.com License - https://fontawesome.com/license (Commercial License) Copyright 2022 Fonticons, Inc. --><path d="M368.4 99.72c28.03-12.44 47.65-40.41 47.65-73.06L416 0h-80c-44.18 0-79.1 35.82-79.1 80c0-44.18-35.82-80-79.1-80H96l.0039 26.67c0 32.65 19.62 60.62 47.66 73.06C61.72 116.1 0 184.9 0 267.2c0 113.5 124.9 204.1 248.7 243.7C251.1 511.6 253.5 512 256 512s4.938-.375 7.312-1.141C387.1 471.3 512 380.7 512 267.2C512 184.9 450.3 116.1 368.4 99.72zM256 462.8c-122.8-41.23-208-120.1-208-195.5C48 99.63 309.3 124.1 309.3 248c0 13.25 10.75 24 24 24s24-10.75 24-24c0-39.02-19.36-74.54-50.85-101.5C379.6 132.9 464 183 464 267.2C464 341.8 378.8 421.5 256 462.8z"/></svg>