<svg xmlns="http://www.w3.org/2000/svg" viewBox="0 0 640 512"><!--! Font Awesome Pro 6.1.1 by @fontawesome - https://fontawesome.com License - https://fontawesome.com/license (Commercial License) Copyright 2022 Fonticons, Inc. --><path d="M336 316c-11.03 0-19.1 8.969-19.1 20s8.967 19.1 19.1 19.1c11.03 0 19.1-8.967 19.1-19.1S347 316 336 316zM336 380c-11.03 0-19.1 8.969-19.1 20s8.967 20 19.1 20c11.03 0 19.1-8.969 19.1-20S347 380 336 380zM272 380c-11.03 0-19.1 8.969-19.1 20s8.969 20 19.1 20c11.03 0 19.1-8.969 19.1-20S283 380 272 380zM527.1 124c-11.03 0-20 8.969-20 20s8.969 20 20 20c11.03 0 19.1-8.969 19.1-20S539 124 527.1 124zM638.4 95.12c-1.531-50.04-43.46-91.98-93.52-93.5c0 0-53.69-1.62-55.74-1.62c-61.07 0-148.4 32.64-170.4 152.7c.6134-5.28 .9273-10.62 .9273-15.99c0-19.72-4.232-39.9-13.42-59.31L287.1 36.82c-10.88-22.98-34.29-36.82-58.19-36.82c-8.01 0-16.07 1.554-23.74 4.841l-40.39 17.31c-51.01 21.87-80.85 70.74-80.85 122.9c0 32.42 9.155 40.15 9.155 61.37c0 66.64-93.05 57.76-93.05 167.8c0 20.08 4.417 40.65 13.74 60.37l19.2 40.57c10.87 22.98 34.29 36.82 58.19 36.82c8.009 0 16.07-1.554 23.74-4.839l40.39-17.31c2.697-1.156 4.875-2.9 7.363-4.299c16.45 14.64 37.51 24.14 60.52 24.84c0 0 53.25 1.609 55.06 1.609c86.9 0 159.6-63.38 170.2-149.5c4.178-33.2 29.75-40.62 42.15-42.17c86.09-10.59 149.5-83.31 149.5-170.3c0-1.795-.027-3.595-.0813-5.402L638.4 95.12zM591.1 150.3c0 63.54-44.56 114.7-107.3 122.4c-22.37 2.75-42.06 12.06-56.1 26.97c-14.81 14.88-24.12 34.56-26.9 56.94c-7.802 63.08-58.65 107.3-123.3 107.3c-1.105 0-52.92-1.555-52.92-1.555c-24.72-.75-46.25-22.26-46.96-46.1c0 0-1.595-52.35-1.595-53.74c0-63.54 44.56-114.7 107.3-122.4c63.42-7.785 80.94-59.61 83.9-83.9c7.748-62.8 58.87-107.3 122.4-107.3c1.375 0 53.78 1.578 53.78 1.578c24.72 .75 46.25 22.27 46.96 46.98C590.4 96.57 591.1 148.9 591.1 150.3zM527.1 188c-11.03 0-20 8.969-20 20s8.969 20 20 20c11.03 0 19.1-8.969 19.1-20S539 188 527.1 188zM463.1 188c-11.03 0-19.1 8.969-19.1 20s8.967 20 19.1 20s19.1-8.969 19.1-20S475 188 463.1 188z"/></svg>