<svg xmlns="http://www.w3.org/2000/svg" viewBox="0 0 640 512"><!--! Font Awesome Pro 6.1.1 by @fontawesome - https://fontawesome.com License - https://fontawesome.com/license (Commercial License) Copyright 2022 Fonticons, Inc. --><path d="M208.1 138.5L350.1 99.77L432.4 18.34C454.3-3.525 489.7-3.525 511.6 18.34L557.7 64.4C579.5 86.27 579.5 121.7 557.7 143.6L476.2 225L448.6 326.3L630.8 469.1C641.2 477.3 643.1 492.4 634.9 502.8C626.7 513.2 611.6 515.1 601.2 506.9L9.196 42.89C-1.236 34.71-3.065 19.63 5.112 9.196C13.29-1.236 28.37-3.065 38.81 5.112L208.1 138.5zM256.1 175.4L407.6 294.2L429.2 215.1L360.9 146.8L256.1 175.4zM251.3 347.3L149.1 449.5L356.3 376.7L400.1 411.9L400.1 412.2L135.1 505C117.5 511.5 96.89 506.8 83.03 492.1C69.17 479.1 64.48 458.5 70.98 440L150.3 214.4L190.1 245.8L126.5 426.9L228.7 324.7C225.7 318.4 224 311.4 224 304C224 294.6 226.7 285.8 231.4 278.3L306.4 337.4C297.7 346.4 285.5 352 272 352C264.6 352 257.6 350.3 251.3 347.3H251.3z"/></svg>