<svg xmlns="http://www.w3.org/2000/svg" viewBox="0 0 640 512"><!--! Font Awesome Pro 6.1.1 by @fontawesome - https://fontawesome.com License - https://fontawesome.com/license (Commercial License) Copyright 2022 Fonticons, Inc. --><path d="M264.3 181.8L426.7 19.32C451.7-5.677 492.3-5.677 517.3 19.32L556.7 58.75C559.8 61.87 562.5 65.24 564.9 68.79C581.3 93.63 578.6 127.4 556.7 149.3L409.9 296L630.8 469.1C641.2 477.3 643.1 492.4 634.9 502.8C626.7 513.2 611.6 515.1 601.2 506.9L9.196 42.89C-1.236 34.71-3.065 19.63 5.112 9.196C13.29-1.236 28.37-3.065 38.81 5.112L264.3 181.8zM302.3 211.6L371.9 266.2L447 191L384.1 128.1L302.3 211.6zM154.8 359.3C150.9 363.6 148.1 368.8 146.4 374.4L123.4 452.6L201.6 429.6C207.1 427.7 213.8 424.2 218.6 419.5L303.2 334.9L341.2 364.8L252.5 453.4C251.2 454.7 249.9 455.1 248.5 457.2C238.9 465.7 227.5 471.1 215.1 475.6L94.77 511C86.35 513.5 77.24 511.2 71.03 504.1C64.82 498.8 62.5 489.7 64.98 481.2L100.4 360.9C104.5 346.8 112.2 333.9 122.6 323.5L195.8 250.3L233.8 280.2L156.5 357.4C155.9 358 155.3 358.6 154.8 359.3L154.8 359.3z"/></svg>