<svg xmlns="http://www.w3.org/2000/svg" viewBox="0 0 640 512"><!--! Font Awesome Pro 6.0.0-beta3 by @fontawesome - https://fontawesome.com License - https://fontawesome.com/license (Commercial License) Copyright 2021 Fonticons, Inc. --><path d="M630.8 469.1l-221.1-173.1l148.4-148.4c24.99-24.99 24.95-65.47-.042-90.46l-37.51-37.51c-12.49-12.5-28.88-18.75-45.25-18.75c-16.38 0-32.76 6.25-45.26 18.75L265.3 182.6L38.81 5.109C34.41 1.672 29.19 0 24.03 0c-7.125 0-14.19 3.156-18.91 9.187c-8.187 10.44-6.375 25.53 4.062 33.7l591.1 463.1c10.5 8.203 25.56 6.328 33.69-4.078C643.1 492.4 641.2 477.3 630.8 469.1zM303.4 212.5l81.56-81.57l60.13 60.13l-74.27 74.27L303.4 212.5zM202.2 433.9c-2.115 2.115-4.504 3.463-7.309 4.123c-18.17 4.281-47.46 10.71-72.69 16.18l16.55-73.58c.666-2.959 2.15-5.654 4.297-7.803l91.94-91.96l-38.05-29.82l-87.84 87.84c-8.568 8.566-14.53 19.39-17.18 31.21l-27.61 122.8C62.3 502.1 70.16 511.1 79.95 511.1c1.047 0 2.116-.1018 3.198-.3186c0 0 84.6-17.96 122.7-26.94c11.54-2.717 21.87-8.523 30.24-16.9l104.3-104.3l-38.06-29.83L202.2 433.9z"/></svg>