<svg xmlns="http://www.w3.org/2000/svg" viewBox="0 0 512 512"><!--! Font Awesome Pro 6.0.0-beta3 by @fontawesome - https://fontawesome.com License - https://fontawesome.com/license (Commercial License) Copyright 2021 Fonticons, Inc. --><path d="M493.2 56.26l-37.51-37.51C443.2 6.252 426.8 0 410.5 0c-16.38 0-32.76 6.25-45.26 18.75L31.04 352.1c-2.234 2.234-3.756 5.078-4.377 8.176l-26.34 131.7C-1.703 502.1 6.156 512 15.95 512c1.049 0 2.117-.1035 3.199-.3203l131.7-26.34c3.098-.6191 5.941-2.141 8.176-4.373L493.3 146.7C518.3 121.7 518.2 81.26 493.2 56.26zM131.9 440.2l-75.14 15.03l15.03-75.15L96 355.9V416h60.12L131.9 440.2zM144 368V307.9l176.9-176.1l60.12 60.12L204.1 368H144z"/></svg>