<svg xmlns="http://www.w3.org/2000/svg" viewBox="0 0 640 512"><!--! Font Awesome Pro 6.0.0-beta3 by @fontawesome - https://fontawesome.com License - https://fontawesome.com/license (Commercial License) Copyright 2021 Fonticons, Inc. --><path d="M606.2 278.9l-43.75-106.3C551.3 145.5 525.2 128 495.8 128H464.2c-29.31 0-55.44 17.5-66.59 44.58l-43.75 106.3c-5.062 12.27 .7813 26.28 13.06 31.33c2.877 1.205 5.846 1.771 8.764 1.771c7.957 0 15.57-4.205 20.09-11.14L368 384h48.01v104c0 13.25 10.74 24 23.99 24s24.01-10.75 24.01-24V384h31.1v104c0 13.25 10.74 24 23.1 24c13.25 0 24-10.75 24-24V384h47.1l-27.42-82.26C569.1 308.1 576.3 312 584 312c3.062 0 6.156-.5781 9.125-1.812C605.4 305.1 611.3 291.1 606.2 278.9zM434.6 336l45.4-136.2L525.4 336H434.6zM480 96c26.5 0 48-21.5 48-48S506.5 0 480 0c-26.5 0-47.1 21.5-47.1 48S453.5 96 480 96zM242.4 172.6C231.3 145.5 205.2 128 175.8 128H144.2C114.8 128 88.71 145.5 77.56 172.6L33.81 278.9C28.75 291.1 34.59 305.1 46.87 310.2c2.877 1.205 5.846 1.771 8.764 1.771c7.957 0 15.57-4.205 20.09-11.14L47.1 384h47.1v104c0 13.25 10.75 24 24 24s23.1-10.75 23.1-24V384h31.1v104c0 13.25 10.75 24 24 24c13.25 0 23.99-10.75 23.99-24V384H271.1L244.6 301.7C249.1 308.1 256.3 312 263.1 312c3.062 0 6.156-.5781 9.125-1.812c12.28-5.047 18.12-19.06 13.06-31.33L242.4 172.6zM114.6 336l45.4-136.2L205.4 336H114.6zM159.1 96c26.5 0 48-21.5 48-48S186.5 0 159.1 0c-26.5 0-48 21.5-48 48S133.5 96 159.1 96z"/></svg>