<svg xmlns="http://www.w3.org/2000/svg" viewBox="0 0 640 512"><!--! Font Awesome Pro 6.1.1 by @fontawesome - https://fontawesome.com License - https://fontawesome.com/license (Commercial License) Copyright 2022 Fonticons, Inc. --><path d="M80 80C80 53.49 101.5 32 128 32C154.5 32 176 53.49 176 80C176 106.5 154.5 128 128 128C101.5 128 80 106.5 80 80zM144 160C167.1 160 190.2 167.5 208.4 180.3C196.3 191 186.1 203.7 178.2 217.9C168.3 211.6 156.6 208 144 208H112V400H144V384C144 370.7 154.7 360 168 360C181.3 360 192 370.7 192 384V416C192 433.7 177.7 448 160 448H96C78.33 448 64 433.7 64 416V373.2C26.16 355.2 0 316.7 0 272C0 210.1 50.14 160 112 160H144zM64 229.7C54.04 240.9 48 255.8 48 272C48 288.2 54.04 303.1 64 314.3V229.7zM496 208C483.4 208 471.7 211.6 461.8 217.9C453.9 203.7 443.7 191 431.6 180.3C449.8 167.5 472 160 496 160H528C589.9 160 640 210.1 640 272C640 316.7 613.8 355.2 576 373.2V416C576 433.7 561.7 448 544 448H480C462.3 448 448 433.7 448 416V384C448 370.7 458.7 360 472 360C485.3 360 496 370.7 496 384V400H528V208H496zM576 229.7V314.3C585.1 303.1 592 288.2 592 272C592 255.8 585.1 240.9 576 229.7zM560 80C560 106.5 538.5 128 512 128C485.5 128 464 106.5 464 80C464 53.49 485.5 32 512 32C538.5 32 560 53.49 560 80zM264 88C264 57.07 289.1 32 320 32C350.9 32 376 57.07 376 88C376 118.9 350.9 144 320 144C289.1 144 264 118.9 264 88zM336 176C397.9 176 448 226.1 448 288C448 332.7 421.8 371.2 384 389.2V448C384 465.7 369.7 480 352 480H288C270.3 480 256 465.7 256 448V389.2C218.2 371.2 192 332.7 192 288C192 226.1 242.1 176 304 176H336zM304 432H336V224H304V432zM256 330.3V245.7C246 256.9 240 271.8 240 288C240 304.2 246 319.1 256 330.3zM400 288C400 271.8 393.1 256.9 384 245.7V330.3C393.1 319.1 400 304.2 400 288z"/></svg>