<svg xmlns="http://www.w3.org/2000/svg" viewBox="0 0 576 512"><!--! Font Awesome Pro 6.1.1 by @fontawesome - https://fontawesome.com License - https://fontawesome.com/license (Commercial License) Copyright 2022 Fonticons, Inc. --><path d="M192 496C192 504.8 199.2 512 208 512H224c8.75 0 16-7.25 16-16V320H192V496zM63.62 128c26.5 0 48-21.5 48-48S90.12 32 63.62 32s-48 21.5-48 48S37.12 128 63.62 128zM224.3 232H169.9L122.2 184.4C111.8 173.8 97.75 168 82.75 168H56.12c-31 0-56.22 25.1-56.1 56.1L0 488C0 501.2 10.75 512 24 512s24-10.75 24-24l.25-117.9c.125 .125 .5 .25 .75 .5c.25 .125 .25 .375 .5 .5l51.38 38.38c2 1.5 3.25 3.875 3.25 6.375v72c0 13.25 10.75 24 23.1 24c13.12 0 24-10.75 24-24v-72c0-17.63-8.375-34.38-22.5-44.75L111.8 357.8V241.5l26.62 26.75C145.8 275.8 156.2 280 166.8 280h57.5c13.25 0 24-10.75 24-24C248.3 242.8 237.5 232 224.3 232zM544 0H224C206.2 0 192 14.25 192 32v160h48V48.12l84.75 204.6C301.8 285.1 264 342.8 264 372c0 41.88 34.13 76 76 76c14.25 0 28.12-4.125 40-11.5c23.75 15 56.25 15 80 0C471.9 444 485.8 448 500 448c9.875 0 19.25-1.999 28-5.5V496c0 8.75 7.25 16 16 16h16c8.75 0 16-7.25 16-16V32C576 14.25 561.8 0 544 0zM528 372c0 15.38-12.62 28-28 28c-8.25 0-16-3.75-21.5-10.38c-4.625-5.5-11.25-8.875-18.5-8.875S445.1 384 441.5 389.6c-10.88 13.13-32.13 13.13-42.88 0c-9.125-11.12-27.87-11.12-37.13 0C356 396.2 348.2 400 340 400c-15.38 0-28-12.62-28-27.75c.75-12.25 28.5-60 59.25-102c5-6.875 6-15.62 2.875-23.5L291.9 48H528V372z"/></svg>