<svg xmlns="http://www.w3.org/2000/svg" viewBox="0 0 448 512"><!--! Font Awesome Pro 6.1.1 by @fontawesome - https://fontawesome.com License - https://fontawesome.com/license (Commercial License) Copyright 2022 Fonticons, Inc. --><path d="M288 34.36C288 90.83 257.9 142.2 210.5 170.1L268.7 255.1H344.9C356.2 255.1 367 260.8 374.6 269.2L441.8 343.9C450.7 353.8 449.9 368.1 440.1 377.8C430.2 386.7 415 385.9 406.2 376.1L341.3 303.1H294.1L231.6 344.3L316.2 474.1C323.4 486.1 320.2 500.1 309 508.2C297.9 515.4 283 512.2 275.8 501L116.4 254.7C113.5 264.6 111.1 274.1 111.1 285.6V359.1C111.1 373.3 101.3 383.1 87.1 383.1C74.74 383.1 63.1 373.3 63.1 359.1V285.6C63.1 219.3 105.5 160.1 167.8 137.4C211.1 121.7 240 80.49 240 34.36V24C240 10.75 250.7 0 264 0C277.3 0 288 10.75 288 24L288 34.36zM166.5 190.8C158.1 195.7 150.4 201.7 143.7 208.5L205.5 304L231.9 287.2L166.5 190.8zM32 80C32 53.49 53.49 32 80 32C106.5 32 128 53.49 128 80C128 106.5 106.5 128 80 128C53.49 128 32 106.5 32 80z"/></svg>