<svg xmlns="http://www.w3.org/2000/svg" viewBox="0 0 384 512"><!--! Font Awesome Pro 6.1.1 by @fontawesome - https://fontawesome.com License - https://fontawesome.com/license (Commercial License) Copyright 2022 Fonticons, Inc. --><path d="M240 96c26.5 0 48-21.5 48-48S266.5 0 240 0c-26.5 0-47.1 21.5-47.1 48S213.5 96 240 96zM121.9 317.6l-41.12 164.5c-.496 1.964-.733 3.93-.733 5.865C80.02 502.5 92.26 512 104 512c10.75 0 20.62-7.25 23.25-18.12L160.8 360l-27.5-27.62C128.8 328 125.3 322.8 121.9 317.6zM360 160c-13.25 0-23.1 10.75-23.1 23.1V200h-37.12l-50.12-57.13C239.3 133.3 226.5 128 212.9 128C189.5 128 169.3 143.9 163.6 166.5l-22.5 90c-1.126 4.503-1.675 9.068-1.675 13.6c0 14.67 5.766 28.97 16.39 39.62l73.87 73.99c1.468 1.471 2.293 3.465 2.293 5.543V488c0 13.25 10.75 24 24 24c13.25 0 23.1-10.75 23.1-24v-98.84c0-14.83-5.89-29.05-16.37-39.53L213.3 299.3l24.5-96.13L270 239.9C274.5 245 281.1 248 287.9 248h48.06v240c0 13.25 10.75 23.1 23.1 23.1S384 501.3 384 488V183.1C384 170.7 373.3 160 360 160zM80.01 287.1c7.31 0 13.97-4.762 15.87-11.86L137 117c.3469-1.291 .5125-2.588 .5125-3.866c0-7.011-4.986-13.44-12.39-15.13C118.4 96.38 111.7 95.6 105.1 95.6c-36.65 0-70 23.84-79.32 59.53L.5119 253.3C.1636 254.6-.0025 255.9-.0025 257.2c0 7.003 4.96 13.42 12.36 15.11L76.01 287.5C77.35 287.8 78.69 287.1 80.01 287.1z"/></svg>