<svg xmlns="http://www.w3.org/2000/svg" viewBox="0 0 384 512"><!--! Font Awesome Pro 6.0.0-beta3 by @fontawesome - https://fontawesome.com License - https://fontawesome.com/license (Commercial License) Copyright 2021 Fonticons, Inc. --><path d="M80 95.1c26.5 0 48-21.5 48-47.1S106.5 .0003 80 .0003S32 21.5 32 47.1S53.5 95.1 80 95.1zM368 95.1h-160c-8.75 0-16 7.25-16 15.1V239.1L158.4 239.1L126.2 162.5C117.6 141.6 97.25 127.1 74.63 127.1H56c-30.88 0-56 25.12-56 55.1v102.2c0 7.75 3 29.5 21.25 43.1l76.5 60.5c5.625 4.5 9.625 10.75 11.25 17.87l19.62 84.75c2.625 11.5 14.38 21.25 28.75 17.1c12.88-2.1 21-15.87 18-28.75l-21.38-92.1c-2.874-12.37-9.874-23.5-19.87-31.37L96 328.1V214.7l22.25 53.5c5 11.1 16.5 19.75 29.5 19.75H368c8.75 0 16-7.25 16-15.1V111.1C384 103.2 376.8 95.1 368 95.1zM336 239.1h-96V143.1h96V239.1zM0 487.1c0 13.25 10.75 23.1 24 23.1S48 501.2 48 487.1v-95.87c-12-9.5-47.5-37.87-48-38.25V487.1z"/></svg>