<svg xmlns="http://www.w3.org/2000/svg" viewBox="0 0 640 512"><!--! Font Awesome Pro 6.1.1 by @fontawesome - https://fontawesome.com License - https://fontawesome.com/license (Commercial License) Copyright 2022 Fonticons, Inc. --><path d="M192 128C192 154.5 170.5 176 144 176C117.5 176 96 154.5 96 128C96 101.5 117.5 80 144 80C170.5 80 192 101.5 192 128zM388.2 319.1H343.6L297.2 352.5L379.9 474.5C387.3 485.5 384.4 500.4 373.5 507.9C362.5 515.3 347.6 512.4 340.1 501.5L303.9 448H48C21.49 448 0 426.5 0 400V48C0 21.49 21.49 0 48 0H592C618.5 0 640 21.49 640 48V400C640 426.5 618.5 448 592 448H397.9L365.9 400H449.7L388.2 319.1zM304 48H48V400H128V317.6C128 251.3 169.5 192.1 231.8 169.4C275.1 153.7 304 112.5 304 66.36V48zM352 48V66.36C352 119.1 325.7 167.4 283.6 196.3L332.1 271.1H392.1C404.5 271.1 416.3 277.8 423.8 287.6L510.3 400H592V48H352zM271.4 400L185.4 273.1C179.3 286.8 176 301.1 176 317.6V400H271.4zM270.3 312.7L292.2 297.4L240.3 217.8C231.5 221.8 223.4 226.9 216.1 232.8L270.3 312.7z"/></svg>