<svg xmlns="http://www.w3.org/2000/svg" viewBox="0 0 448 512"><!--! Font Awesome Pro 6.1.1 by @fontawesome - https://fontawesome.com License - https://fontawesome.com/license (Commercial License) Copyright 2022 Fonticons, Inc. --><path d="M264 384H149.1c-33.63 0-62.58-24.66-68.81-58.66L47.62 147.7c-2.406-13.03-15-21.78-27.94-19.25C6.633 130.8-1.992 143.3 .3984 156.3l32.62 177.7C43.46 390.8 92.26 432 149.1 432h114.1c13.25 0 23.1-10.75 23.1-24S277.3 384 264 384zM112 96c26.51 0 47.1-21.49 47.1-48S138.5 0 112 0s-48 21.49-48 48S85.5 96 112 96zM424 432h-32.3l-49.72-113.6C338.2 309.7 329.5 304 320 304H187.6l-12-64h120.4c13.25 0 24-10.75 24-24c0-13.26-10.75-24-24-24H166.6L159.5 154.1C156.2 136.7 139.5 125.3 122.1 128.6S93.3 148.5 96.55 165.9l30 160C129.4 341.3 142.9 352 157.1 352h146.3l49.72 113.6C357.8 474.3 366.5 480 376 480H424c13.25 0 24-10.75 24-24S437.3 432 424 432z"/></svg>