<svg xmlns="http://www.w3.org/2000/svg" viewBox="0 0 320 512"><!--! Font Awesome Pro 6.1.1 by @fontawesome - https://fontawesome.com License - https://fontawesome.com/license (Commercial License) Copyright 2022 Fonticons, Inc. --><path d="M208 48C208 74.51 186.5 96 160 96C133.5 96 112 74.51 112 48C112 21.49 133.5 0 160 0C186.5 0 208 21.49 208 48zM64 272.1L45.17 307.3C38.92 318.1 24.38 323.4 12.69 317.2C1.002 310.9-3.413 296.4 2.832 284.7L61.68 174.5C76.98 145.9 106.8 128 139.3 128H160C160.1 128 161.1 128.1 162.9 128.2C199.1 130.6 229.5 157.2 236.2 193.3L242.3 225.7C286.6 234.3 320 273.2 320 320V352C320 369.7 305.7 384 288 384H224V488C224 501.3 213.3 512 200 512C186.7 512 176 501.3 176 488V384H144V488C144 501.3 133.3 512 120 512C106.7 512 96 501.3 96 488V384C78.33 384 64 369.7 64 352L64 272.1zM144 176C126.3 176 112 190.3 112 208V336H272V320C272 296.7 255.3 277.1 233.2 272.9L201.2 266.7L189.1 202.1C186.2 186.1 173 176 157.6 176H144z"/></svg>