<svg xmlns="http://www.w3.org/2000/svg" viewBox="0 0 320 512"><!--! Font Awesome Pro 6.0.0-beta3 by @fontawesome - https://fontawesome.com License - https://fontawesome.com/license (Commercial License) Copyright 2021 Fonticons, Inc. --><path d="M160 112c30.95 0 56-25.05 56-56S190.1 0 160 0S104 25.05 104 56S129 112 160 112zM256 245.9V240c0-53.02-42.98-96-96-96s-96 42.98-96 96v128c0 17.67 14.33 32 32 32v88C96 501.3 106.7 512 120 512s24-10.75 24-24V400h32v88c0 13.25 10.75 24 24 24S224 501.3 224 488V400h64c17.67 0 32-14.33 32-32v-31.76C320 294.5 293.2 259.2 256 245.9zM272 352h-160V240C112 213.5 133.5 192 160 192s48 21.53 48 48v39.76l31.84 11.38C259.1 298 272 316.1 272 336.2V352z"/></svg>