<svg xmlns="http://www.w3.org/2000/svg" viewBox="0 0 576 512"><!--! Font Awesome Pro 6.1.1 by @fontawesome - https://fontawesome.com License - https://fontawesome.com/license (Commercial License) Copyright 2022 Fonticons, Inc. --><path d="M151.1 32C165.2 32 175.1 42.75 175.1 56V92.64C175.1 150.6 213.9 201.8 269.3 218.6C313.2 231.1 359.1 232.9 404.4 221.3L513.9 192.8C526.7 189.4 539.8 197.1 543.2 209.9C546.5 222.8 538.8 235.9 526 239.2L416.5 267.8C402.2 271.5 387.6 274.2 372.1 275.7L355.7 379.6C345 376.1 334.5 370.8 324.8 364.1C320.4 361 315.7 358.5 310.8 356.7L324.1 276.9C300.9 275.5 277.8 271.4 255.3 264.5C250.8 263.2 246.3 261.6 241.9 259.9L220.6 379.6C211.3 382.7 201.7 384.5 191.1 384.5C185.4 384.5 178.4 383.5 171.4 381.8L197.7 234.8C154.6 201.4 127.1 149.4 127.1 92.64V56C127.1 42.75 138.7 32 151.1 32V32zM375.1 128C375.1 158.9 350.9 184 319.1 184C289 184 263.1 158.9 263.1 128C263.1 97.07 289 72 319.1 72C350.9 72 375.1 97.07 375.1 128zM191.9 432C220.8 432 250.4 416.7 271.1 398.1C281.1 389.1 294.8 389.1 303.9 398.1C325.5 416.7 355.1 432 383.9 432C412.8 432 442.4 416.7 463.1 398.1C473.1 389.1 486.8 389.1 495.9 398.1C512.8 413.1 535.1 424.9 557.2 429.8C570.1 432.7 578.2 445.5 575.3 458.5C572.4 471.4 559.6 479.5 546.6 476.6C517.1 470.2 494.3 456.2 479.9 446.2C451.8 465.7 418.5 480 383.9 480C349.3 480 316 465.7 287.9 446.2C259.8 465.7 226.5 480 191.9 480C157.3 480 124 465.7 95.93 446.2C81.57 456.2 57.94 470.2 29.26 476.6C16.33 479.5 3.489 471.4 .5872 458.5C-2.314 445.5 5.819 432.7 18.75 429.8C40.96 424.8 62.71 412.1 79.95 398.1C89.05 389.1 102.8 389.1 111.9 398.1C133.4 416.7 163.1 432 191.9 432L191.9 432z"/></svg>