<svg xmlns="http://www.w3.org/2000/svg" viewBox="0 0 448 512"><!--! Font Awesome Pro 6.0.0-beta3 by @fontawesome - https://fontawesome.com License - https://fontawesome.com/license (Commercial License) Copyright 2021 Fonticons, Inc. --><path d="M437.3 356c11.03 7.344 14 22.25 6.656 33.28l-19.62 29.44C412.2 437.1 391.7 448 369.7 448C333.5 448 304 418.5 304 382.3V112L160 111.1v172.8c0 26.41-5.844 53.06-16.91 77.09L109.8 434.1C105.8 442.8 97.06 448 88 448c-3.375 0-6.812-.7187-10.06-2.219c-12.03-5.531-17.28-19.81-11.72-31.84l33.28-72.09C107.7 324.1 112 304.4 112 284.8V111.1H24c-13.25 0-24-10.74-24-23.1C0 74.75 10.75 64 24 64h400C437.3 64 448 74.75 448 87.1c0 13.26-10.75 23.1-24 23.1H352v270.3c0 9.75 7.938 17.69 17.69 17.69c5.938 0 11.44-2.938 14.72-7.875l19.62-29.44C411.4 351.7 426.3 348.7 437.3 356z"/></svg>