<svg xmlns="http://www.w3.org/2000/svg" viewBox="0 0 576 512"><!--! Font Awesome Pro 6.0.0-beta3 by @fontawesome - https://fontawesome.com License - https://fontawesome.com/license (Commercial License) Copyright 2021 Fonticons, Inc. --><path d="M158 187.9L286.9 316.4C279.2 332.9 274.3 350.9 272.6 369.9L124.2 221.9C116.9 230.1 115 243.3 119.5 254.2L137.8 298.1C150.3 327.1 143.5 362.4 120.5 385.3L68.81 436.8C62.56 442.1 62.55 453.1 68.81 459.3C75.07 465.6 85.23 465.6 91.5 459.3L143.5 407.5C166.3 384.8 200.6 377.9 230.5 390.2L273 407.6C273.3 407.7 273.5 407.8 273.8 407.9C276.4 425.6 281.1 442.4 289.1 457.7C278.2 458.5 266.1 456.6 254.7 451.9L212.3 434.5C200.3 429.6 186.6 432.3 177.4 441.5L125.5 493.2C100.4 518.2 59.84 518.2 34.82 493.2C9.791 468.3 9.801 427.8 34.84 402.9L86.52 351.4C95.7 342.2 98.44 328.4 93.46 316.5L75.17 272.6C62.71 242.8 69.55 208.3 92.49 185.5L250.4 28.03C287.9-9.415 348.8-9.415 386.3 28.03L499.9 141.3C529.3 170.6 535.6 214.2 518.1 249.7C505.6 241 490.9 234.3 475.2 229.9C483.8 212.1 480.7 189.1 465.9 175.2L352.3 61.92C333.5 43.2 303.1 43.2 284.3 61.92L158 187.9zM560 384C560 454.7 502.7 512 432 512C361.3 512 304 454.7 304 384C304 313.3 361.3 256 432 256C502.7 256 560 313.3 560 384V384zM352 384C360.8 384 368 376.8 368 368C368 359.2 360.8 352 352 352C343.2 352 336 359.2 336 368C336 376.8 343.2 384 352 384zM416 448C407.2 448 400 455.2 400 464C400 472.8 407.2 480 416 480C424.8 480 432 472.8 432 464C432 455.2 424.8 448 416 448zM432 400C440.8 400 448 392.8 448 384C448 375.2 440.8 368 432 368C423.2 368 416 375.2 416 384C416 392.8 423.2 400 432 400zM512 384C503.2 384 496 391.2 496 400C496 408.8 503.2 416 512 416C520.8 416 528 408.8 528 400C528 391.2 520.8 384 512 384zM448 320C456.8 320 464 312.8 464 304C464 295.2 456.8 288 448 288C439.2 288 432 295.2 432 304C432 312.8 439.2 320 448 320z"/></svg>