<svg xmlns="http://www.w3.org/2000/svg" viewBox="0 0 576 512"><!--! Font Awesome Pro 6.0.0-beta3 by @fontawesome - https://fontawesome.com License - https://fontawesome.com/license (Commercial License) Copyright 2021 Fonticons, Inc. --><path d="M544 191.1h-13.53C519.3 166.7 501.7 145.1 479.1 128.6l.0008-64.63L463.1 63.1c-46.63 0-83.13 27.25-89.38 32H223.1c-41.38 0-82.63 17.38-111.8 45.88C89.85 163.7 73.73 192.1 67.1 223.1L55.98 224C41.11 224 29.49 210.5 32.49 195.2c1.615-8.744 8.51-16.4 19.13-18.61c7.26-1.508 12.36-8.088 12.36-15.5c0-8.945-7.334-16.02-15.85-16.02c-1.145 0-2.308 .1289-3.478 .3965C21.93 150.7 3.52 168.9 .4728 192.6C-3.902 226.7 22.6 256 55.98 256h7.994c0 52.25 25.38 98.13 64 127.3v48.75c0 26.4 21.6 48 48 48l48.01 0c26.4 0 47.1-21.6 47.1-48v-16h64v16c0 26.4 21.6 48 48 48h48.01c26.4 0 48-21.6 48-48l.0014-48.73c11.63-9 22.45-19.52 31.32-31.27l32.68 0C561.6 352 576 337.6 576 319.1V223.1C576 206.4 561.6 191.1 544 191.1zM527.1 304h-40.65l-14.4 19.07c-5.807 7.688-13.32 15.12-22.33 22.1l-18.62 14.41v72.42h-48.01v-64H223.1v64h-48.01v-72.67l-19.1-14.4C128.3 323.4 111.1 290.1 111.1 256L111.1 243.1l2.121-10.2c4.537-21.83 15.49-41.74 31.7-57.58C166.4 156 195.6 143.1 223.1 143.1h166.8l12.88-9.785c7.395-5.621 17.29-11.44 28.34-15.71v33.96l18.99 14.41c15.71 11.92 28.01 27.3 35.59 44.49l12.62 28.65h28.8V304zM423.1 207.1c-13.25 0-24 10.74-24 24c0 13.25 10.75 24 24 24c13.25 0 24-10.75 24-24C447.1 218.7 437.3 207.1 423.1 207.1z"/></svg>