<svg xmlns="http://www.w3.org/2000/svg" viewBox="0 0 512 512"><!--! Font Awesome Pro 6.1.1 by @fontawesome - https://fontawesome.com License - https://fontawesome.com/license (Commercial License) Copyright 2022 Fonticons, Inc. --><path d="M424 224H272V24C272 10.74 261.3 0 248 0S224 10.74 224 24V48H79.78C35.78 48 0 83.78 0 127.8C0 162.2 21.94 192.6 54.56 203.5L96 217.3V464C96 490.5 117.5 512 144 512h64c26.47 0 48-21.53 48-48v-8c0-26.47 21.53-48 48-48s48 21.53 48 48v8c0 26.47 21.53 48 48 48h64c26.47 0 48-21.53 48-48V312C512 263.5 472.5 224 424 224zM232.8 270.3C235.2 271.5 237.6 272 240 272c1.18 0 184 0 184 0c19.36 0 34.78 14.08 38.46 32.36c-1.916 .1914-3.848 .4414-5.611 1.324L432 318.1l-24.84-12.44c-4.5-2.25-9.812-2.25-14.31 0L368 318.1l-24.84-12.44c-4.5-2.25-9.812-2.25-14.31 0L304 318.1l-24.84-12.44c-4.5-2.25-9.812-2.25-14.31 0L240 318.1L215.2 305.7c-4.5-2.25-9.812-2.25-14.31 0L176 318.1L151.2 305.7C148.9 304.6 146.5 304 144 304V257.9l24.84 12.44c4.5 2.25 9.812 2.25 14.31 0L208 257.9L232.8 270.3zM127.6 177.2L69.75 157.9C56.75 153.6 48 141.5 48 127.8C48 110.3 62.25 96 79.78 96H224v134.1L215.2 225.7c-4.5-2.25-9.812-2.25-14.31 0L176 238.1L151.2 225.7C148.9 224.6 146.5 224 144 224V200C144 189.7 137.4 180.5 127.6 177.2zM208 456v8h-64v-46.13l24.84 12.44c4.5 2.25 9.812 2.25 14.31 0L208 417.9l6.752 3.379C210.5 432.1 208 443.7 208 456zM464 464h-64v-8c0-12.28-2.527-23.94-6.75-34.75L400 417.9l24.84 12.44c4.5 2.25 9.812 2.25 14.31 0L464 417.9V464zM464 384c-2.453 0-4.906 .5625-7.156 1.688L432 398.1l-24.84-12.44c-4.5-2.25-9.812-2.25-14.31 0l-16.3 8.148C358.9 373.3 333.1 360 304 360s-54.93 13.3-72.55 33.84l-16.3-8.148c-4.5-2.25-9.812-2.25-14.31 0L176 398.1l-24.84-12.44C148.9 384.6 146.5 384 144 384v-46.13l24.84 12.44c4.5 2.25 9.812 2.25 14.31 0L208 337.9l24.84 12.44c4.5 2.25 9.812 2.25 14.31 0L272 337.9l24.84 12.44c4.5 2.25 9.812 2.25 14.31 0L336 337.9l24.84 12.44c4.5 2.25 9.812 2.25 14.31 0L400 337.9l24.84 12.44c4.5 2.25 9.812 2.25 14.31 0L464 337.9V384zM176 168c13.25 0 24-10.75 24-24c0-13.26-10.75-24-24-24S152 130.7 152 144C152 157.3 162.7 168 176 168z"/></svg>