<svg xmlns="http://www.w3.org/2000/svg" viewBox="0 0 512 512"><!--! Font Awesome Pro 6.1.1 by @fontawesome - https://fontawesome.com License - https://fontawesome.com/license (Commercial License) Copyright 2022 Fonticons, Inc. --><path d="M280 512H232V240C232 204.7 203.3 176 168 176C132.7 176 104 204.7 104 240V258.7C137.9 266.7 160 292.3 160 331.1C160 359.1 124.2 410.5 80 448C35.83 410.5 0 360.4 0 331.1C0 292.3 22.11 266.7 56 258.7V240C56 178.1 106.1 128 168 128C191.8 128 213.9 135.4 232 148.1V112C232 50.14 282.1 0 344 0C405.9 0 456 50.14 456 112V130.7C489.9 138.7 512 164.3 512 203.1C512 231.1 476.2 282.5 432 320C387.8 282.5 352 232.4 352 203.1C352 164.3 374.1 138.7 408 130.7V112C408 76.65 379.3 48 344 48C308.7 48 280 76.65 280 112V512zM48 331.1C48 330.9 48.03 331 48.15 331.4C48.74 333.4 51.52 342.7 62.88 359.1C67.77 366.1 73.54 373.5 79.97 380.8C86.41 373.4 92.19 366.1 97.09 358.1C108.2 342.9 111.1 333.7 111.8 331.5C111.1 331 112 330.9 112 331.1C112 319.2 108.2 313.9 105.3 311.3C102.1 308.4 95.39 304.6 83.06 304.1C82.05 304.2 81.04 304.3 80 304.3C78.97 304.3 77.95 304.2 76.95 304.1C64.61 304.6 57.87 308.4 54.67 311.3C51.77 313.9 48 319.2 48 331.1L48 331.1zM457.3 183.3C453.9 180.1 446.3 176 432 176C417.7 176 410.1 180.1 406.7 183.3C403.8 185.9 400 191.2 400 203.1C400 202.9 400 203 400.1 203.4C400.7 205.4 403.5 214.7 414.9 231.1C419.8 238.1 425.5 245.5 431.1 252.8C438.4 245.4 444.2 238.1 449.1 230.1C460.2 214.9 463.1 205.7 463.8 203.5C463.1 203 464 202.9 464 203.1C464 191.2 460.2 185.9 457.3 183.3H457.3z"/></svg>