<svg xmlns="http://www.w3.org/2000/svg" viewBox="0 0 640 512"><!--! Font Awesome Pro 6.1.1 by @fontawesome - https://fontawesome.com License - https://fontawesome.com/license (Commercial License) Copyright 2022 Fonticons, Inc. --><path d="M455.1 394.8L137 310.3C129.6 308.3 122.6 304.8 116.6 300L21.43 224.4C8.079 213.8 .2842 197.7 .248 180.7L.0438 84.59C-.0115 58.53 24.47 39.38 49.75 45.7L77.95 52.75C95.39 57.11 109.7 69.58 116.4 86.28L137.8 139.9L198.6 156.1L167.2 51.49C159.5 25.83 178.7 .001 205.5 .001H246.6C261.1 .001 274.4 7.796 281.5 20.39L385.1 206.1L489.2 233.6C513 239.1 534.9 252 553.1 268.7L584.9 298.1C616 326.7 604.9 378.3 564.7 391.6C529.2 403.3 491.1 404.4 455.1 394.8L455.1 394.8zM520.5 304C508.1 292.6 493.1 284.3 476.8 279.1L354 247.2L241.1 48H216.3L269.2 224.6L102.2 180.1L71.79 104.1C70.84 101.7 68.8 99.94 66.31 99.31L48.07 94.75L48.25 180.6C48.25 183 49.37 185.3 51.27 186.9L146.4 262.4C147.3 263.1 148.3 263.6 149.4 263.9L467.4 348.4C494.5 355.6 523 354.8 549.6 346C555.1 344.2 556.6 337.2 552.4 333.3L520.5 304zM616 464C629.3 464 640 474.7 640 488C640 501.3 629.3 512 616 512H24C10.75 512 0 501.3 0 488C0 474.7 10.75 464 24 464H616zM192 368C192 385.7 177.7 400 160 400C142.3 400 128 385.7 128 368C128 350.3 142.3 336 160 336C177.7 336 192 350.3 192 368zM224 400C224 382.3 238.3 368 256 368C273.7 368 288 382.3 288 400C288 417.7 273.7 432 256 432C238.3 432 224 417.7 224 400zM143.2 287.1L149.4 263.9z"/></svg>