<svg xmlns="http://www.w3.org/2000/svg" viewBox="0 0 512 512"><!--! Font Awesome Pro 6.0.0-beta3 by @fontawesome - https://fontawesome.com License - https://fontawesome.com/license (Commercial License) Copyright 2021 Fonticons, Inc. --><path d="M256 .0003C304.1 .0003 336 73.89 336 111.8V153.8L496 253.6C506 259.6 512 269.6 512 281.6V346.5C512 356.5 508 366.5 500 372.5C492 378.4 480.1 380.4 471 377.4L336 334.5V359.5L388 398.4C396 404.4 400 413.4 400 423.4V480.3C400 489.3 396 499.3 388 505.3C380 511.3 370 513.2 360 510.3L256 480.3L152 511.3C143 513.2 133 511.3 125 505.3C117 499.3 112 489.3 112 480.3V423.4C112 413.4 117 404.4 125 398.4L176 359.5V334.5L41 377.4C32 380.4 21 378.4 13 372.5C5 366.5 0 356.5 0 346.5V281.6C0 270.6 7 258.6 16 254.6L176 154.8V112.8C176 73.89 208 0 256 0V.0003zM256 48.93C246 50.93 224 86.87 224 112.8V180.7L48 290.6V324.5L224 269.6V383.4L160 431.4V458.3L256 430.4L352 458.3V431.4L288 383.4V269.6L464 324.5V290.6L288 180.7V112.8C288 85.87 267 49.93 256 48.93V48.93z"/></svg>