<svg xmlns="http://www.w3.org/2000/svg" viewBox="0 0 640 512"><!--! Font Awesome Pro 6.0.0-beta3 by @fontawesome - https://fontawesome.com License - https://fontawesome.com/license (Commercial License) Copyright 2021 Fonticons, Inc. --><path d="M624.3 18.08C627.4 19.41 630.3 21.35 632.6 23.79C635 26.22 636.9 29.1 638.2 32.26C639.4 35.43 640 38.8 640 42.21V472C640 478.4 637.5 484.5 632.1 488.1C628.5 493.5 622.4 496 616 496C609.6 496 603.5 493.5 599 488.1C594.5 484.5 592 478.4 592 472V320H562.9C556.1 319.9 549.4 318.5 543.2 315.8C536.9 313.1 531.2 309.1 526.5 304.2C521.8 299.3 518.1 293.6 515.6 287.2C513.1 280.9 511.9 274.1 512 267.3L512.4 158.2C512.2 128.3 520.8 99 537.3 74.02C553.7 49.05 577.2 29.51 604.8 17.89C607.8 16.64 611.1 15.1 614.4 16C617.8 16.03 621.2 16.74 624.3 18.07V18.08zM592 82.78C581.1 92.61 574 104.3 568.6 117.3C563.2 130.3 560.5 144.2 560.6 158.2L560 267.6C559.9 268.9 560.4 270.2 561.3 271.2C561.5 271.5 561.8 271.7 562.1 271.8C562.3 271.9 562.6 271.1 562.9 272H592V82.78zM159.6 207.6C149.1 218.1 134.8 223.1 120 224H112V472C112 478.4 109.5 484.5 104.1 488.1C100.5 493.5 94.37 496 88 496C81.63 496 75.53 493.5 71.03 488.1C66.53 484.5 64 478.4 64 472V224H56C41.15 223.1 26.92 218.1 16.42 207.6C5.923 197.1 .017 182.8 0 168V40C0 33.64 2.529 27.53 7.029 23.03C11.53 18.53 17.63 16 24 16C30.37 16 36.47 18.53 40.97 23.03C45.47 27.53 48 33.64 48 40V168C48 170.1 48.84 172.2 50.34 173.7C51.84 175.2 53.88 176 56 176H64V40C64 33.64 66.53 27.53 71.03 23.03C75.53 18.53 81.63 16 88 16C94.37 16 100.5 18.53 104.1 23.03C109.5 27.53 112 33.64 112 40V176H120C122.1 176 124.2 175.2 125.7 173.7C127.2 172.2 128 170.1 128 168V40C128 33.64 130.5 27.53 135 23.03C139.5 18.53 145.6 16 152 16C158.4 16 164.5 18.53 168.1 23.03C173.5 27.53 176 33.64 176 40V168C175.1 182.8 170.1 197.1 159.6 207.6zM245.5 346.5C221.5 322.5 208 289.9 208 256C208 230.7 215.5 205.9 229.6 184.9C243.6 163.8 263.6 147.4 287 137.7C310.4 128.1 336.1 125.5 360.1 130.5C385.8 135.4 408.6 147.6 426.5 165.5C444.4 183.4 456.6 206.2 461.5 231C466.5 255.9 463.9 281.6 454.3 304.1C444.6 328.4 428.2 348.4 407.1 362.4C386.1 376.5 361.3 384 336 384C302.1 384 269.5 370.5 245.5 346.5V346.5zM279.4 199.4C264.4 214.4 256 234.8 256 256C256 271.8 260.7 287.3 269.5 300.4C278.3 313.6 290.8 323.9 305.4 329.9C320 335.1 336.1 337.5 351.6 334.5C367.1 331.4 381.4 323.8 392.6 312.6C403.8 301.4 411.4 287.1 414.5 271.6C417.5 256.1 415.1 240 409.9 225.4C403.9 210.8 393.6 198.3 380.4 189.5C367.3 180.7 351.8 176 336 176C314.8 176 294.4 184.4 279.4 199.4L279.4 199.4zM423.6 103.4C400.8 90.28 375.5 82.46 349.3 80.49C323.1 78.53 296.8 82.45 272.4 91.99C247.9 101.5 225.9 116.4 208 135.6V72.32C250.6 42.54 302.2 28.55 354 32.74C405.8 36.94 454.6 59.06 491.8 95.3C484.8 114.8 481 135.4 480.7 156.1C465.9 134.5 446.3 116.4 423.6 103.4zM504.7 327.5C514.5 337.3 526.6 344.4 539.9 348.3C523.1 385.5 496.4 417.5 462.7 440.6C429 463.8 389.6 477.3 348.8 479.6C308 481.9 267.3 473 231.2 453.9C195.1 434.7 164.9 405.1 144 370.9V252.1C149.7 250.5 155.2 248.3 160.5 245.7C160.3 249.1 160 252.5 160 256C160.1 296.9 174.4 336.4 200.4 367.9C226.5 399.4 262.7 420.8 302.8 428.5C342.9 436.2 384.5 429.7 420.4 410.1C456.2 390.5 484.2 359.1 499.4 321.2C501 323.4 502.8 325.5 504.7 327.5L504.7 327.5z"/></svg>