<svg xmlns="http://www.w3.org/2000/svg" viewBox="0 0 576 512"><!--! Font Awesome Pro 6.1.1 by @fontawesome - https://fontawesome.com License - https://fontawesome.com/license (Commercial License) Copyright 2022 Fonticons, Inc. --><path d="M96 0C109.3 0 120 10.75 120 24V112H72V24C72 10.75 82.75 0 96 0zM288 0C301.3 0 312 10.75 312 24V112H264V24C264 10.75 274.7 0 288 0zM360 144C373.3 144 384 154.7 384 168C384 181.3 373.3 192 360 192H352V211.2C333.1 220.4 317.8 232.6 304 247.2V192H80V256C80 317.9 130.1 368 192 368C216.3 368 238.9 360.2 257.2 347.1C256.4 353.9 256 360.9 256 368C256 379.4 257.1 390.5 259.1 401.3C245.7 407.5 231.2 411.9 216 414.2V512H168V414.2C91.02 402.6 32 336.2 32 255.1V191.1H24C10.75 191.1 0 181.3 0 167.1C0 154.7 10.75 143.1 24 143.1L360 144zM576 368C576 447.5 511.5 512 432 512C352.5 512 288 447.5 288 368C288 288.5 352.5 224 432 224C511.5 224 576 288.5 576 368zM476.7 324.7L416 385.4L387.3 356.7C381.1 350.4 370.9 350.4 364.7 356.7C358.4 362.9 358.4 373.1 364.7 379.3L404.7 419.3C410.9 425.6 421.1 425.6 427.3 419.3L499.3 347.3C505.6 341.1 505.6 330.9 499.3 324.7C493.1 318.4 482.9 318.4 476.7 324.7H476.7z"/></svg>