<svg xmlns="http://www.w3.org/2000/svg" viewBox="0 0 448 512"><!--! Font Awesome Pro 6.1.1 by @fontawesome - https://fontawesome.com License - https://fontawesome.com/license (Commercial License) Copyright 2022 Fonticons, Inc. --><path d="M323.2 464H124.8L90.54 224H42.03l38.2 267.4C81.94 503.2 92.06 512 104 512h240c11.94 0 22.06-8.781 23.77-20.59L405.1 224h-48.5L323.2 464zM424 143.1L128 144V136c0-34.83 24.88-63.95 57.8-70.56C193.1 74.15 203.7 80 216 80h80c22.09 0 40-17.91 40-40C336 17.91 318.1 0 296 0h-80C202.4 0 190.9 7.246 183.7 17.65C125.3 25.69 80 75.42 80 136V144L23.1 143.1C10.75 143.1 0 154.7 0 167.1s10.75 24 23.1 24h400c13.25 0 24-10.75 24-24S437.3 143.1 424 143.1z"/></svg>