<svg xmlns="http://www.w3.org/2000/svg" viewBox="0 0 384 512"><!--! Font Awesome Pro 6.0.0-beta3 by @fontawesome - https://fontawesome.com License - https://fontawesome.com/license (Commercial License) Copyright 2021 Fonticons, Inc. --><path d="M104 144C104 139.6 107.6 136 112 136H136V168H104V144zM104 184H136V216H112C107.6 216 104 212.4 104 208V184zM184 144V168H152V136H176C180.4 136 184 139.6 184 144zM152 184H184V208C184 212.4 180.4 216 176 216H152V184zM232 136V168H200V144C200 139.6 203.6 136 208 136H232zM232 216H208C203.6 216 200 212.4 200 208V184H232V216zM248 136H272C276.4 136 280 139.6 280 144V168H248V136zM280 208C280 212.4 276.4 216 272 216H248V184H280V208zM104 248C104 239.2 111.2 232 120 232H168C176.8 232 184 239.2 184 248V296C184 304.8 176.8 312 168 312H120C111.2 312 104 304.8 104 296V248zM192 0C200.8 0 208 7.164 208 16V32H288C305.7 32 320 46.33 320 64C337.7 64 352 78.33 352 96V464H360C373.3 464 384 474.7 384 488C384 501.3 373.3 512 360 512H24C10.75 512 0 501.3 0 488C0 474.7 10.75 464 24 464H32V96C32 78.33 46.33 64 64 64C64 46.33 78.33 32 96 32H176V16C176 7.164 183.2 0 192 0zM80 464H304V112H80V464z"/></svg>