<svg xmlns="http://www.w3.org/2000/svg" viewBox="0 0 512 512"><!--! Font Awesome Pro 6.1.1 by @fontawesome - https://fontawesome.com License - https://fontawesome.com/license (Commercial License) Copyright 2022 Fonticons, Inc. --><path d="M254.4 22.79C299.5 54.05 309.7 114.1 292.4 169.1C337.5 134.4 395.9 122.8 440.7 154.1C505.3 200.8 512.4 295.1 466.5 363.1L466.4 363.1C386.7 480.8 219.2 542 98.49 455.5C-21.79 369.5-25.87 189.1 53.87 72.19C99.91 3.549 189.2-23.23 254.4 22.79L254.4 22.79zM226.7 62.05C188.7 35.13 128.5 47.08 93.71 98.96L93.65 99.06C23.79 202.2 33.48 350.1 126.4 416.4L126.5 416.4C218.2 482.2 356.8 439.5 426.7 336.2C461.6 284.5 451.4 221.4 412.9 194.1L412.8 193.1C387.1 175.6 339.3 182.3 301.3 227.9C288.4 245.4 263.9 249.7 245.9 236.7C228.3 223.9 224 199.9 235.5 181.9C264.1 129.3 253.3 80.37 226.1 62.22L226.7 62.05z"/></svg>