<svg xmlns="http://www.w3.org/2000/svg" viewBox="0 0 448 512"><!--! Font Awesome Pro 6.0.0-beta3 by @fontawesome - https://fontawesome.com License - https://fontawesome.com/license (Commercial License) Copyright 2021 Fonticons, Inc. --><path d="M427.5 192H20.49c-10.41 0-18.05 9.779-15.52 19.88l68.94 275.9C77.47 502 90.17 512 104.9 512l238.3-.0098c14.66-.002 27.35-9.977 30.91-24.2l68.95-275.9C445.6 201.8 437.9 192 427.5 192zM117.4 464L61.47 240h37.26l41.1 223.1L117.4 464zM208 463.1H173.3L131.3 240H208V463.1zM240 463.1V240h76.72l-41.1 223.1L240 463.1zM330.6 463.1h-23.29l41.1-223.1h37.26L330.6 463.1zM411.6 138.9c-7-11.88-19.38-19.63-33.13-20.75c6.5-11.75 6.375-25.88-.25-37.5c-9.125-16-28-23.63-45.63-20.13c-.25-16.62-11.5-32-29-37.5c-13.25-4.25-27.88-1.875-39.13 6.5c0-.75-.25-1.375-.625-2c-7.125-21.12-31.12-32.25-53.38-25.5c-13 4-23.25 14.25-27.38 27.25C171.1 21.09 157.5 18.84 144.4 23.09c-17.5 5.375-28.62 20.75-29 37.38c-17.62-3.5-36.5 4.126-45.63 20.13C62.1 92.1 62.87 106.5 69.5 118.1C55.1 119.4 43.12 126.7 36.37 138.9C32.5 145.6 31.62 152.9 32.12 159.1h383.8C416.4 152.9 415.5 145.6 411.6 138.9z"/></svg>