<svg xmlns="http://www.w3.org/2000/svg" viewBox="0 0 448 512"><!--! Font Awesome Pro 6.1.1 by @fontawesome - https://fontawesome.com License - https://fontawesome.com/license (Commercial License) Copyright 2022 Fonticons, Inc. --><path d="M321.9 352l119-119c9.375-9.375 9.375-24.56 0-33.94s-24.56-9.375-33.94 0L288 318.1L192.3 222.4C246.3 214.4 288 168.2 288 112C288 50.25 237.8 0 176 0H24C10.75 0 0 10.75 0 24v272.2c0 13.25 10.75 24.01 23.1 24.01S48 309.3 48 296V224h78.06l128 128l-119 119c-9.375 9.375-9.375 24.56 0 33.94C139.7 509.7 145.9 512 152 512s12.28-2.344 16.97-7.031L288 385.9l119 119C411.7 509.7 417.9 512 424 512s12.28-2.344 16.97-7.031c9.375-9.375 9.375-24.56 0-33.94L321.9 352zM48 48h128c35.3 0 64 28.72 64 64s-28.7 64-64 64h-128V48z"/></svg>