<svg xmlns="http://www.w3.org/2000/svg" viewBox="0 0 384 512"><!--! Font Awesome Pro 6.1.1 by @fontawesome - https://fontawesome.com License - https://fontawesome.com/license (Commercial License) Copyright 2022 Fonticons, Inc. --><path d="M352 0H32C14.33 0 0 14.33 0 32v64c0 17.67 14.33 32 32 32v328C32 486.9 57.13 512 88 512h208c30.88 0 56-25.12 56-56V128c17.67 0 32-14.33 32-32V32C384 14.33 369.7 0 352 0zM304 456c0 4.406-3.594 8-8 8h-208c-4.406 0-8-3.594-8-8V128h224V456zM336 80h-288v-32h288V80zM112 320H160v48C160 376.8 167.2 384 176 384h32c8.836 0 16-7.164 16-16V320h48c8.836 0 16-7.164 16-16v-32C288 263.2 280.8 256 272 256H224V208C224 199.2 216.8 192 208 192h-32C167.2 192 160 199.2 160 208V256H112C103.2 256 96 263.2 96 272v32C96 312.8 103.2 320 112 320z"/></svg>