<svg xmlns="http://www.w3.org/2000/svg" viewBox="0 0 640 512"><!--! Font Awesome Pro 6.0.0-beta3 by @fontawesome - https://fontawesome.com License - https://fontawesome.com/license (Commercial License) Copyright 2021 Fonticons, Inc. --><path d="M544 288h-80C455 288 448 295.2 448 304s7.039 16 16 16H544c8.961 0 16-7.168 16-16S552.1 288 544 288zM544 368h-80c-8.961 0-16 7.168-16 16s7.039 16 16 16H544c8.961 0 16-7.168 16-16S552.1 368 544 368zM544 208h-80C455 208 448 215.2 448 224s7.039 16 16 16H544c8.961 0 16-7.168 16-16S552.1 208 544 208zM576 96h-108.5C454.7 96 442.2 99.74 432 106.8l-65.6 43.74C357.4 156.4 352 166.4 352 177.1V208h-32v-160h8C341.1 48 352 37.25 352 24S341.1 0 328 0h-208C106.9 0 96 10.75 96 24S106.9 48 120 48H128v160H48c0-13.25-10.88-24-24-24S0 194.8 0 208v192c0 13.25 10.88 24 24 24S48 413.2 48 400H352v30.88c0 10.69 5.441 20.67 14.4 26.62L432 501.2C442.2 508.3 454.7 512 467.5 512H576c35.2 0 64-28.64 64-64V160C640 124.6 611.2 96 576 96zM352 352H48V256H128c26.56 0 48-21.5 48-48v-160h96v160C272 234.5 293.4 256 320 256h32V352zM592 448c0 8.832-7.039 16-16 16h-108.5c-3.199 0-6.398-.9277-8.961-2.688L400 422.3v-236.6l58.56-39.01C461.1 144.9 464.3 144 467.5 144H576c8.961 0 16 7.168 16 16V448z"/></svg>