<svg xmlns="http://www.w3.org/2000/svg" viewBox="0 0 576 512"><!--! Font Awesome Pro 6.0.0-beta3 by @fontawesome - https://fontawesome.com License - https://fontawesome.com/license (Commercial License) Copyright 2021 Fonticons, Inc. --><path d="M328 272C288.2 272 256 304.2 256 344C256 383.8 288.2 416 328 416c8.322 0 16.19-1.695 23.62-4.293C349.7 440.8 325.6 464 296 464c-13.25 0-24 10.75-24 24S282.8 512 296 512c57.34 0 104-46.66 104-104v-64C400 304.2 367.8 272 328 272zM328 368c-13.23 0-24-10.77-24-24c0-13.23 10.77-24 24-24S352 330.8 352 344C352 357.2 341.2 368 328 368zM504 272c-39.76 0-72 32.23-72 72c0 39.76 32.24 72 72 72c8.322 0 16.19-1.695 23.62-4.293C525.7 440.8 501.6 464 472 464c-13.25 0-24 10.75-24 24S458.8 512 472 512c57.34 0 104-46.66 104-104v-64C576 304.2 543.8 272 504 272zM504 368c-13.23 0-24-10.77-24-24c0-13.23 10.77-24 24-24s24 10.77 24 24C528 357.2 517.2 368 504 368zM320 168C320 128.2 287.8 96 248 96C239.7 96 231.8 97.7 224.4 100.3C226.3 71.17 250.4 48 280 48c13.25 0 24-10.75 24-24S293.3 0 280 0C222.7 0 176 46.66 176 104v64c0 39.77 32.24 72 72 72S320 207.8 320 168zM248 192C234.8 192 224 181.2 224 168C224 154.8 234.8 144 248 144S272 154.8 272 168C272 181.2 261.2 192 248 192zM72 96C63.68 96 55.81 97.7 48.38 100.3C50.32 71.17 74.39 48 104 48C117.3 48 128 37.25 128 24S117.3 0 104 0C46.66 0 0 46.66 0 104v64C0 207.8 32.24 240 72 240S144 207.8 144 168C144 128.2 111.8 96 72 96zM72 192C58.77 192 48 181.2 48 168c0-13.23 10.77-24 24-24S96 154.8 96 168C96 181.2 85.23 192 72 192z"/></svg>