<svg xmlns="http://www.w3.org/2000/svg" viewBox="0 0 640 512"><!--! Font Awesome Pro 6.1.1 by @fontawesome - https://fontawesome.com License - https://fontawesome.com/license (Commercial License) Copyright 2022 Fonticons, Inc. --><path d="M598.4 189.5c-2-1.5 .25 0-41.5-25.25c-1.375-8.875-3.375-17.75-5.75-26.75C542.6 105.8 516.9 32 461.1 32c-5 0-10 .625-14.75 2C427.9 38.88 414.5 51 406.8 68.88C397.9 65.88 388.8 64 379.8 64c-16.5 0-31.63 6.125-42.63 17.12c-5.75 5.625-15 17.63-16.75 36.25C292.8 103.9 266.8 96 239.9 96C199.1 96 162.4 114.5 127.5 152C113.8 141.8 97.38 136 80 136C35.75 136 0 171.8 0 216c0 44.13 35.75 80 80 80c11 0 21.5-2.375 31.38-6.625C118.6 301.2 120 302.1 162.5 348.4l-9.625 5.25C137.2 364 128 381.4 128 400.1v23.75c0 20.25 10.38 38.37 27.88 48.5c8.75 5.125 18.23 7.656 27.98 7.656c9.5 0 19.14-2.531 27.89-7.531l42.25-24.12l14.63 16C277.6 474.2 290.5 480 304 480h160c26.5 0 48-21.5 48-48c0-26.12-12.62-49.38-32-64h61C595.6 368 640 323.9 640 269.6C640 237.9 624.4 207.9 598.4 189.5zM95.88 243.1c-19.38 11.25-34 0-38.5-4.5c-12.5-12.5-12.5-32.75 0-45.25C64 186.6 84 176.4 101.6 192.6C95.62 208.9 93.1 226.1 95.88 243.1zM188 430.9c-3.5 2-6.5 .75-8 0c-1.5-.8746-4-3-4-7v-23.63c0-2.75 1.375-5.25 1.625-5.5l18.25-9.875l24.88 27.25L188 430.9zM541 320l-93.02 .0054L400 340c-.375-48.13-31.88-90.88-76.88-104.2L286.9 225C273.1 221.2 260.8 228.5 257 241.1C253.2 253.9 260.5 267.2 273.2 271L309.5 281.8C334.5 289.1 352 313.5 352 340.8V400h80c17.62 0 32 14.38 32 32h-160L159.9 274.5C137.5 250.2 137.2 213.1 159 188.5C186.8 157.2 212.4 144 239.9 144C292.8 144 352.9 192.8 448 256c0-18.88-.375-22.25 3.75-33.12C438.6 216 423.2 204.5 408.4 189.8C377.5 158.8 360.8 125.4 371 115c10.75-10.75 45.13 7.875 74.75 37.38C448.2 155 450.6 157.5 453 160.1C442.8 119.4 445.1 84 458.8 80.25c14.12-3.75 34.75 27.63 46 69.75C509.1 166.2 511.5 181.8 511.9 195c2.625 .75 5.25 1.5 7.75 2.75l51 30.87C584 238.1 592 253.4 592 269.6C592 297.5 569.1 320 541 320zM511.1 240C503.1 240 496 247.1 496 256c0 8.875 7.125 16 16 16s15.99-7.118 15.99-15.99C527.1 247.1 520.9 240 511.1 240z"/></svg>