<svg xmlns="http://www.w3.org/2000/svg" viewBox="0 0 640 512"><!--! Font Awesome Pro 6.0.0-beta3 by @fontawesome - https://fontawesome.com License - https://fontawesome.com/license (Commercial License) Copyright 2021 Fonticons, Inc. --><path d="M640 140C640 31.37 543.6 0 485.4 0c-49.53 0-103.9 16.92-152.3 50.4C202.8 140.6 251.8 207.5 168 316.1C167.8 315.9 162.5 313.1 154.1 313.1c-5.151 0-11.35 1.325-17.69 5.738l-123.6 86.73C4.756 411.8 0 421.7 0 431.8c0 6.349 1.878 12.76 5.786 18.36l33.75 48.12C45.91 507.4 55.77 512 65.7 512c6.439 0 12.9-1.931 18.46-5.815l123.6-86.48c8.917-6.207 13.15-15.98 13.15-26.01c0-1.077-.0488-2.157-.1458-3.236c29.65-9.027 60.25-14.01 91.23-14.01c31.38 0 37.9 4.144 62.71 4.144c49.17 0 103.2-16.63 151.9-50.38C598.7 280.3 640 206.4 640 140zM207.9 343.1C217.8 331.1 226.3 317.5 234.3 303.6c8.5 16.75 12.63 20.5 21 29.62C239.4 335.7 223.7 339.2 207.9 343.1zM591.8 140.8c0 49.05-31.44 107.7-92.53 149.9c-38.98 27.05-83.16 41.88-124.5 41.88c-87.47 0-106.9-56.76-106.9-92.42c0-49.32 31.71-108.3 92.31-150.3c56.63-39.12 106-41.87 126.6-41.87h7.5H486.9C557.5 48.79 591.8 89.57 591.8 140.8z"/></svg>