<svg xmlns="http://www.w3.org/2000/svg" viewBox="0 0 512 512"><!--! Font Awesome Pro 6.1.1 by @fontawesome - https://fontawesome.com License - https://fontawesome.com/license (Commercial License) Copyright 2022 Fonticons, Inc. --><path d="M208 384h-96c-8.799 0-16 7.2-16 16C95.1 408.8 103.2 416 112 416l95.1 .0006C216.8 416 224 408.8 224 400C224 391.2 216.8 384 208 384zM96 352l127.1 .0029C232.8 352 240 344.8 240 336C240 327.2 232.8 320 224 320H96c-8.799 0-16 7.201-16 16C79.1 344.8 87.2 352 96 352zM368 432c35.33 0 64-28.68 64-64s-28.67-64-64-64c-35.32 0-64 28.68-64 64S332.7 432 368 432zM439.1 127.1H201.2l293.1-80.86c12.78-3.531 20.28-16.75 16.76-29.52c-3.516-12.78-16.78-20.23-29.51-16.77L52.86 119.1C21.73 127.7 0 156.3 0 188.5v251.5C0 479.7 32.3 512 71.1 512h367.1c39.7 0 71.1-32.3 71.1-72V199.1C511.1 160.3 479.7 127.1 439.1 127.1zM463.1 439.1c0 13.23-10.77 24-24 24H71.1c-13.23 0-23.1-10.77-23.1-24V272h415.1V439.1z"/></svg>