<svg xmlns="http://www.w3.org/2000/svg" viewBox="0 0 512 512"><!--! Font Awesome Pro 6.1.1 by @fontawesome - https://fontawesome.com License - https://fontawesome.com/license (Commercial License) Copyright 2022 Fonticons, Inc. --><path d="M256 303.1c26.5 0 48-21.5 48-48S282.5 207.1 256 207.1S208 229.5 208 255.1S229.5 303.1 256 303.1zM213.6 188L142.7 74.71c-6.16-9.836-16.81-15.23-27.5-15.23c-7.035 0-14.09 2.332-19.91 7.266c-44.94 38.1-76.19 91.82-85.17 152.8C7.266 238.7 22.67 255.8 42.01 255.8h133.8C175.8 227.2 191 202.3 213.6 188zM137.2 207.8H61.26c8.498-34.29 26.07-65.79 50.94-91.29L152.3 180.6C146.2 189 141.1 198.2 137.2 207.8zM416.8 66.75c-5.818-4.934-12.88-7.266-19.91-7.266c-10.7 0-21.34 5.393-27.5 15.23L298.4 188c22.6 14.3 37.8 39.2 37.8 67.8h133.8c19.34 0 34.74-17.13 31.93-36.26C492.9 158.6 461.7 104.8 416.8 66.75zM374.8 207.8c-3.92-9.635-9.016-18.76-15.18-27.19l40.14-64.11c24.86 25.5 42.44 57.01 50.94 91.29H374.8zM298.4 323.5C286.1 331.2 271.6 335.9 256 335.9s-30.1-4.701-42.4-12.4L142.7 436.9c-10.14 16.21-4.16 38.2 13.32 45.95C186.6 496.4 220.4 504 256 504s69.42-7.611 100-21.18c17.48-7.752 23.46-29.74 13.32-45.95L298.4 323.5zM256 456c-21.4 0-42.31-3.369-62.4-10.03l40.09-64.07C241 383.2 248.5 383.9 256 383.9s14.96-.6777 22.31-2.008l40.09 64.07C298.3 452.6 277.4 456 256 456z"/></svg>