<svg xmlns="http://www.w3.org/2000/svg" viewBox="0 0 384 512"><!--! Font Awesome Pro 6.1.1 by @fontawesome - https://fontawesome.com License - https://fontawesome.com/license (Commercial License) Copyright 2022 Fonticons, Inc. --><path d="M48 64V312.4L0 400.4V64C0 28.65 28.65 0 64 0H320C355.3 0 384 28.65 384 64V400.4L336 312.4V64C336 55.16 328.8 48 320 48H64C55.16 48 48 55.16 48 64V64zM253 288C273.5 288 292.4 299.2 302.2 317.2L376.2 452.8C390.7 479.5 371.4 512 341 512H42.95C12.59 512-6.702 479.5 7.837 452.8L81.83 317.2C91.65 299.2 110.5 287.1 130.1 287.1L253 288zM56.43 464H327.6L260 340.2C258.6 337.6 255.9 336 253 336H130.1C128.1 336 125.4 337.6 123.1 340.2L56.43 464z"/></svg>