<svg xmlns="http://www.w3.org/2000/svg" viewBox="0 0 640 512"><!--! Font Awesome Pro 6.1.1 by @fontawesome - https://fontawesome.com License - https://fontawesome.com/license (Commercial License) Copyright 2022 Fonticons, Inc. --><path d="M406.1 61.65C415.4 63.09 419.4 74.59 412.6 81.41L374.6 118.1L383.6 170.1C384.1 179.5 375.3 186.7 366.7 182.4L320.2 157.9L273.3 182.7C264.7 187 255 179.8 256.4 170.5L265.4 118.4L227.4 81.41C220.6 74.59 224.6 63.09 233.9 61.65L286.2 54.11L309.8 6.332C314.1-2.289 326.3-1.93 330.2 6.332L353.8 54.11L406.1 61.65zM224 304C224 277.5 245.5 256 272 256H368C394.5 256 416 277.5 416 304V464C416 490.5 394.5 512 368 512H272C245.5 512 224 490.5 224 464V304zM272 464H368V304H272V464zM0 368C0 341.5 21.49 320 48 320H144C170.5 320 192 341.5 192 368V464C192 490.5 170.5 512 144 512H48C21.49 512 0 490.5 0 464V368zM48 464H144V368H48V464zM592 352C618.5 352 640 373.5 640 400V464C640 490.5 618.5 512 592 512H496C469.5 512 448 490.5 448 464V400C448 373.5 469.5 352 496 352H592zM592 400H496V464H592V400z"/></svg>