<svg xmlns="http://www.w3.org/2000/svg" viewBox="0 0 640 512"><!--! Font Awesome Pro 6.1.1 by @fontawesome - https://fontawesome.com License - https://fontawesome.com/license (Commercial License) Copyright 2022 Fonticons, Inc. --><path d="M63.1 464H348.5C360.7 482.8 376.5 499.1 394.8 512H64C28.65 512 0 483.3 0 448V224C0 188.7 28.65 160 64 160H448C471.8 160 492.5 172.9 503.5 192.2C501 192.1 498.5 192 496 192C469.8 192 444.9 197.7 422.6 208H64C55.16 208 48 215.2 48 224V448C48 456.8 55.16 464 64 464H63.1zM440 80C453.3 80 464 90.75 464 104C464 117.3 453.3 128 440 128H71.1C58.74 128 47.1 117.3 47.1 104C47.1 90.75 58.74 80 71.1 80H440zM392 0C405.3 0 416 10.75 416 24C416 37.25 405.3 48 392 48H119.1C106.7 48 95.1 37.25 95.1 24C95.1 10.75 106.7 0 119.1 0H392zM352 368C352 288.5 416.5 224 496 224C575.5 224 640 288.5 640 368C640 447.5 575.5 512 496 512C416.5 512 352 447.5 352 368zM512 303.1C512 295.2 504.8 287.1 496 287.1C487.2 287.1 480 295.2 480 303.1V351.1H432C423.2 351.1 416 359.2 416 367.1C416 376.8 423.2 383.1 432 383.1H480V431.1C480 440.8 487.2 447.1 496 447.1C504.8 447.1 512 440.8 512 431.1V383.1H560C568.8 383.1 576 376.8 576 367.1C576 359.2 568.8 351.1 560 351.1H512V303.1z"/></svg>