<svg xmlns="http://www.w3.org/2000/svg" viewBox="0 0 512 512"><!--! Font Awesome Pro 6.0.0-beta3 by @fontawesome - https://fontawesome.com License - https://fontawesome.com/license (Commercial License) Copyright 2021 Fonticons, Inc. --><path d="M168.4 154.3C166.8 147.7 162.4 142 156.3 138.8C150.3 135.6 143.1 135.1 136.7 137.5L46.47 171.2C34.06 175.8 27.75 189.7 32.38 202.1C37.03 214.5 50.81 220.8 63.28 216.2L91.9 205.5L27.38 313.1c-14.25 23.75-15.34 52.69-2.969 77.41l2.5 5C40.63 422.9 68.22 440 98.94 440H136c13.25 0 24-10.74 24-23.99S149.3 392 136 392H98.94c-12.41 0-23.56-6.875-29.09-17.97L67.34 369c-5-9.969-4.562-21.66 1.219-31.25l67.71-112.9l8.414 34.41c2.688 10.97 12.5 18.31 23.28 18.31c1.906 0 3.812-.2187 5.719-.6875c12.88-3.156 20.78-16.12 17.62-29L168.4 154.3zM178.1 108.6C189.5 115.4 204.2 111.7 211 100.3l17.12-28.56c11.62-19.44 44.06-19.44 55.75 0l57.93 96.54l-35.55-10.38c-12.62-3.688-26.03 3.562-29.75 16.31C272.8 186.1 280.1 200.3 292.8 204l92.47 27.03C387.5 231.7 389.8 232 392 232c4.469 0 8.875-1.25 12.75-3.656C410.6 224.7 414.5 218.8 415.7 212l16-95C433.9 103.9 425.1 91.53 412 89.34c-13.47-2.438-25.47 6.594-27.66 19.66l-4.855 28.8l-54.43-90.7C310.6 22.97 284.1 8 256 8S201.4 22.97 186.9 47.09L169.8 75.66C163 87.03 166.7 101.8 178.1 108.6zM484.6 313.1l-22.44-37.41c-6.812-11.34-21.5-15.06-32.94-8.25c-11.38 6.844-15.06 21.56-8.25 32.94l22.44 37.41c5.781 9.594 6.219 21.28 1.219 31.28l-2.5 5C436.6 385.1 425.5 392 413.1 392h-125.9l24.82-22.06c9.906-8.812 10.81-23.97 2-33.88c-8.875-9.969-24.03-10.78-33.88-2l-72 64C202.9 402.6 200 409.2 200 416s2.938 13.38 8.062 17.94l72 64C284.6 502 290.3 504 296 504c6.594 0 13.19-2.719 17.94-8.062c8.812-9.906 7.906-25.06-2-33.88L287.1 440h125.9c30.72 0 58.31-17.06 72.03-44.53l2.5-4.969C499.1 365.8 498.9 336.8 484.6 313.1z"/></svg>