<svg xmlns="http://www.w3.org/2000/svg" viewBox="0 0 512 512"><!--! Font Awesome Pro 6.0.0-beta3 by @fontawesome - https://fontawesome.com License - https://fontawesome.com/license (Commercial License) Copyright 2021 Fonticons, Inc. --><path d="M512 336v119.1C512 469.3 501.3 480 488 480s-24-10.75-24-23.1v-119.1c0-57.34-46.66-103.1-104-103.1H88.51l127.2 109.8c10.03 8.656 11.12 23.81 2.469 33.84C213.4 381.2 206.7 384 200 384c-5.562 0-11.16-1.909-15.69-5.847l-176-151.1C3.029 221.6 0 214.1 0 208C0 201 3.029 194.4 8.31 189.9l176-151.1c9.1-8.718 25.16-7.575 33.85 2.487c8.656 10.03 7.562 25.19-2.469 33.84L88.51 184H360C443.8 184 512 252.2 512 336z"/></svg>