<svg xmlns="http://www.w3.org/2000/svg" viewBox="0 0 640 512"><!--! Font Awesome Pro 6.1.1 by @fontawesome - https://fontawesome.com License - https://fontawesome.com/license (Commercial License) Copyright 2022 Fonticons, Inc. --><path d="M496 0C416.5 0 352 64.47 352 144S416.5 288 496 288S640 223.5 640 144S575.5 0 496 0zM544 160h-48C487.2 160 480 152.8 480 144v-64C480 71.16 487.2 64 496 64S512 71.16 512 80V128h32c8.844 0 16 7.156 16 16S552.8 160 544 160zM256 256H88.51l127.2-109.8C225.7 137.5 226.8 122.3 218.2 112.3C209.5 102.3 194.3 101.2 184.3 109.8l-176 152C3.031 266.4 0 273 0 280s3.031 13.59 8.312 18.16l176 152C188.8 454.1 194.4 456 200 456c6.719 0 13.41-2.812 18.16-8.312c8.656-10.03 7.562-25.19-2.469-33.84L88.51 304H256c101.5 0 184 82.53 184 184c0 13.25 10.75 24 24 24s24-10.75 24-24C488 360.1 383.9 256 256 256z"/></svg>