<svg xmlns="http://www.w3.org/2000/svg" viewBox="0 0 448 512"><!--! Font Awesome Pro 6.0.0-beta3 by @fontawesome - https://fontawesome.com License - https://fontawesome.com/license (Commercial License) Copyright 2021 Fonticons, Inc. --><path d="M437.7 404.6L329.5 287l37.5-40.25c34.75-37.5 38.1-91.38 10.75-137.4l-30.75-50.25C331.1 34.63 309.7 16.75 284.6 8.625c-35.1-11.5-85.12-11.5-120.1 0c-25.37 8.125-47.5 26-62.37 50.5L67.85 113.4C41.98 155.6 47.48 210.4 81.23 246.6l37.5 40.38l-108.4 117.8c-16.5 17.88-12.75 45.88 7.5 59.13l63.37 41.38c23.1 15.63 45.5 0 51.37-6.25l91.5-98.5l91.37 98.38c5.75 6.375 27.62 21.88 51.37 6.375l63.37-41.38C450.2 450.8 454.2 422.6 437.7 404.6zM328.2 120.3l8.625 14.13c16.87 27.5 14.87 58-5.125 79.5l-34.87 37.63l-40.25-43.75l45.5-49.5C313.7 146.8 321.1 133.3 328.2 120.3zM178.2 54.25c26.5-8.5 65.12-8.5 91.62 0c9.125 3 17.5 8.5 24.87 15.88c-2.75 12.88-9.875 37.88-26.1 54.75L223.1 172.3L179.6 124c-16.62-16.25-23.62-41.25-26.25-54.13C160.6 62.63 169.1 57.25 178.2 54.25zM101.9 461.5l-49.12-32.13l98.5-107.1l39.1 43L101.9 461.5zM346.2 461.5L116.2 214C97.23 193.4 94.1 162.4 108.7 138.5l10.1-17.88c5.1 12.75 14.12 25.75 25.37 36.75l250.1 272.1L346.2 461.5z"/></svg>