<svg xmlns="http://www.w3.org/2000/svg" viewBox="0 0 640 512"><!--! Font Awesome Pro 6.1.1 by @fontawesome - https://fontawesome.com License - https://fontawesome.com/license (Commercial License) Copyright 2022 Fonticons, Inc. --><path d="M640 424C640 437.3 629.3 448 616 448C602.7 448 592 437.3 592 424V88C592 74.75 602.7 64 616 64C629.3 64 640 74.75 640 88V424zM367.9 280H24C10.75 280 0 269.3 0 256C0 242.8 10.75 232 24 232H367.9L367.9 152C367.9 142.5 373.6 133.8 382.3 129.1C391.1 126.2 401.3 127.9 408.2 134.4L520.3 238.4C530.6 247.9 530.6 264.1 520.3 273.6L408.2 377.6C401.3 384.1 391.1 385.8 382.3 382C373.6 378.2 367.9 369.5 367.9 360L367.9 280z"/></svg>