<svg xmlns="http://www.w3.org/2000/svg" viewBox="0 0 512 512"><!--! Font Awesome Pro 6.0.0-beta3 by @fontawesome - https://fontawesome.com License - https://fontawesome.com/license (Commercial License) Copyright 2021 Fonticons, Inc. --><path d="M256 64C109.1 64 0 125.9 0 208v98.13C0 384.5 114.6 448 256 448s256-63.5 256-141.9V208C512 125.9 401.1 64 256 64zM256 112c110.5 0 200 35.88 200 80c0 9.125-4 17.75-11 25.88C398.2 192.2 331 176 256 176S113.8 192.2 67 217.9C60 209.8 56 201.1 56 192C56 147.9 145.5 112 256 112zM397.8 248.5C361.5 263 311.4 272 256 272S150.5 263 114.2 248.5C149.1 234.2 198.4 224 256 224S361.1 234.2 397.8 248.5zM464 306.1C464 344.4 383 400 256 400s-208-55.63-208-93.88V266.4C94.38 298.8 170.1 320 256 320s161.6-21.25 208-53.63V306.1z"/></svg>