<svg xmlns="http://www.w3.org/2000/svg" viewBox="0 0 576 512"><!--! Font Awesome Pro 6.0.0-beta3 by @fontawesome - https://fontawesome.com License - https://fontawesome.com/license (Commercial License) Copyright 2021 Fonticons, Inc. --><path d="M312 296C312 309.3 301.3 320 288 320C274.7 320 264 309.3 264 296V216C264 202.7 274.7 192 288 192C301.3 192 312 202.7 312 216V296zM390.3 32C420.6 32 447.7 51.05 458 79.61L567.4 383.6C584.3 430.5 549.6 480 499.7 480H76.3C26.43 480-8.338 430.5 8.553 383.6L117.1 79.61C128.3 51.05 155.4 32 185.7 32H390.3zM53.72 399.9C48.09 415.5 59.67 432 76.3 432H264V408C264 394.7 274.7 384 288 384C301.3 384 312 394.7 312 408V432H499.7C516.3 432 527.9 415.5 522.3 399.9L412.8 95.87C409.4 86.35 400.4 80 390.3 80H312V104C312 117.3 301.3 128 288 128C274.7 128 264 117.3 264 104V80H185.7C175.6 80 166.6 86.35 163.2 95.87L53.72 399.9z"/></svg>