<svg xmlns="http://www.w3.org/2000/svg" viewBox="0 0 512 512"><!--! Font Awesome Pro 6.1.1 by @fontawesome - https://fontawesome.com License - https://fontawesome.com/license (Commercial License) Copyright 2022 Fonticons, Inc. --><path d="M30.81 49.81c8.969-3.656 19.28-1.656 26.16 5.219l41.1 41.1c41.07-40.38 97.11-64.92 157.1-64.92C379.6 32.11 480 132.5 480 256s-100.4 223.9-223.9 223.9c-52.31 0-103.3-18.33-143.5-51.77c-10.19-8.5-11.56-23.62-3.062-33.81c8.531-10.22 23.62-11.56 33.81-3.062C174.9 417.5 214.9 432 256 432c97.03 0 176-78.97 176-176S353 80 256 80c-47.08 0-90.93 19.29-123.2 50.89l52.14 52.14c6.875 6.875 8.906 17.19 5.219 26.16C186.5 218.2 177.7 224 168 224h-128C26.75 224 16 213.3 16 200v-128C16 62.28 21.84 53.53 30.81 49.81z"/></svg>