<svg xmlns="http://www.w3.org/2000/svg" viewBox="0 0 512 512"><!--! Font Awesome Pro 6.1.1 by @fontawesome - https://fontawesome.com License - https://fontawesome.com/license (Commercial License) Copyright 2022 Fonticons, Inc. --><path d="M256 79.1C178.5 79.1 112.7 130.1 89.2 199.7C84.96 212.2 71.34 218.1 58.79 214.7C46.23 210.5 39.48 196.9 43.72 184.3C73.6 95.8 157.3 32 256 32C337.5 32 408.8 75.53 448 140.6V104C448 90.75 458.7 80 472 80C485.3 80 496 90.75 496 104V200C496 213.3 485.3 224 472 224H376C362.7 224 352 213.3 352 200C352 186.7 362.7 176 376 176H412.8C383.7 118.1 324.4 80 256 80V79.1zM280 263.1C280 277.3 269.3 287.1 256 287.1C242.7 287.1 232 277.3 232 263.1V151.1C232 138.7 242.7 127.1 256 127.1C269.3 127.1 280 138.7 280 151.1V263.1zM224 352C224 334.3 238.3 319.1 256 319.1C273.7 319.1 288 334.3 288 352C288 369.7 273.7 384 256 384C238.3 384 224 369.7 224 352zM40 432C26.75 432 16 421.3 16 408V311.1C16 298.7 26.75 287.1 40 287.1H136C149.3 287.1 160 298.7 160 311.1C160 325.3 149.3 336 136 336H99.19C128.3 393 187.6 432 256 432C333.5 432 399.3 381.9 422.8 312.3C427 299.8 440.7 293 453.2 297.3C465.8 301.5 472.5 315.1 468.3 327.7C438.4 416.2 354.7 480 256 480C174.5 480 103.2 436.5 64 371.4V408C64 421.3 53.25 432 40 432V432z"/></svg>