<svg xmlns="http://www.w3.org/2000/svg" viewBox="0 0 448 512"><!--! Font Awesome Pro 6.0.0-beta3 by @fontawesome - https://fontawesome.com License - https://fontawesome.com/license (Commercial License) Copyright 2021 Fonticons, Inc. --><path d="M245.7 9.043C283.2 31.52 329.3 34.14 369.1 16.07C387.7 7.586 409.8 14.71 419.9 32.51L440.6 68.66C447.2 80.27 447.6 94.43 441.6 106.4L433.2 123.3C421.9 145.9 416 170.8 416 196.1C416 216.7 419.9 237.2 427.6 256.5L439.3 285.7C445.1 300 448 315.3 448 330.7C448 377.4 421.2 419.9 379.2 440.1L234.4 509.6C227.8 512.8 220.2 512.8 213.6 509.6L68.84 440.1C26.76 419.9 0 377.4 0 330.7C0 315.3 2.946 300 8.679 285.7L20.37 256.5C28.05 237.2 32 216.7 32 196.1C32 170.8 26.12 145.9 14.83 123.3L6.363 106.4C.3821 94.43 .775 80.27 7.411 68.66L28.07 32.51C38.24 14.71 60.29 7.586 78.95 16.07C118.7 34.14 164.8 31.52 202.3 9.043L211.7 3.42C219.3-1.14 228.7-1.14 236.3 3.42L245.7 9.043zM79.96 192C79.99 193.4 80 194.7 80 196.1C80 222.9 74.89 249.4 64.94 274.3L53.25 303.5C49.78 312.2 48 321.4 48 330.7C48 358.1 64.18 384.7 89.61 396.9L224 461.4L358.4 396.9C383.8 384.7 400 358.1 400 330.7C400 321.4 398.2 312.2 394.8 303.5L383.1 274.3C373.1 249.4 368 222.9 368 196.1C368 194.7 368 193.4 368 192H79.96z"/></svg>