<svg xmlns="http://www.w3.org/2000/svg" viewBox="0 0 576 512"><!--! Font Awesome Pro 6.0.0-beta3 by @fontawesome - https://fontawesome.com License - https://fontawesome.com/license (Commercial License) Copyright 2021 Fonticons, Inc. --><path d="M248.2 149.9C238.2 158.6 237.2 173.8 245.1 183.8C254.7 193.7 269.9 194.7 279.8 185.1c39.78-34.97 104.5-34.97 144.3 0c9.969 8.76 25.12 7.775 33.88-2.189C462 179.2 464 173.6 464 167.9c0-6.678-2.75-13.33-8.154-18.07C398.6 99.53 305.4 99.53 248.2 149.9zM200.3 105.5c83.69-77.05 219.8-77.05 303.5 0c9.75 8.979 24.94 8.338 33.91-1.424C541.9 99.49 544 93.65 544 87.83c0-6.477-2.594-12.95-7.75-17.69c-101.6-93.52-266.9-93.52-368.5 0C157.1 79.1 157.4 94.32 166.3 104.1C175.3 113.9 190.5 114.5 200.3 105.5zM512 303.1h-136V247.1c0-13.25-10.75-23.1-23.1-23.1S328 234.7 328 247.1v55.97H64c-35.35 0-64 28.68-64 64.03v79.1C0 483.3 28.65 512 64 512h448c35.35 0 64-28.65 64-64v-79.1C576 332.6 547.3 303.1 512 303.1zM528 447.1c0 8.824-7.178 16-16 16H64c-8.822 0-16-7.18-16-16v-80.01c0-8.822 7.178-15.99 16-15.99h448c8.822 0 16 7.166 16 15.99V447.1zM184 383.1c-13.25 0-24 10.75-24 24c0 13.26 10.75 24 24 24s24-10.75 24-24C208 394.7 197.3 383.1 184 383.1zM104 383.1c-13.25 0-24 10.75-24 24c0 13.26 10.75 24 24 24S128 421.2 128 407.1C128 394.7 117.3 383.1 104 383.1z"/></svg>