<svg xmlns="http://www.w3.org/2000/svg" viewBox="0 0 512 512"><!--! Font Awesome Pro 6.0.0-beta3 by @fontawesome - https://fontawesome.com License - https://fontawesome.com/license (Commercial License) Copyright 2021 Fonticons, Inc. --><path d="M495.1 174.8c0-45.12-7.712-83.76-14.15-108.2c-4.688-17.54-18.34-31.23-36.04-35.95C435.5 27.91 392.9 16 337 16C149 16 15.1 154.6 15.1 337.2c0 45.12 7.713 83.77 14.15 108.2C35.22 464.3 50.46 496 174.9 496C362.1 496 495.1 357.4 495.1 174.8zM447.9 174.3C447.9 331.6 335.8 448 174.9 448c-32.06 0-64.21-4.277-96.35-12.93c-3.39-.9-14.53-49.41-14.53-97.37C64.07 180.4 176.2 64 337 64c31.83 0 63.92 4.303 96.41 13.07C436.7 77.95 447.9 126.2 447.9 174.3zM360 136c-4.094 0-8.188 1.562-11.31 4.688l-44.67 44.67l-20.69-20.69c-3.125-3.125-7.219-4.688-11.31-4.688c-8.528 0-16 6.865-16 16c0 4.094 1.562 8.188 4.688 11.31l20.69 20.69l-25.38 25.38L235.3 212.7C232.2 209.6 228.1 207.1 224 207.1c-9.141 0-16 7.473-16 16c0 4.094 1.562 8.188 4.688 11.31l20.69 20.69L208 281.4L187.3 260.7C184.2 257.6 180.1 255.1 176 255.1c-9.142 0-16 7.472-16 16c0 4.094 1.562 8.188 4.688 11.31l20.69 20.69l-44.69 44.69C137.6 351.8 136 355.9 136 360c0 9.139 7.473 16 16 16c4.094 0 8.188-1.562 11.31-4.688l44.69-44.69l20.69 20.69c3.125 3.125 7.219 4.689 11.31 4.689c8.526 0 16-6.867 16-16c0-4.094-1.562-8.188-4.688-11.31L230.6 303.1l25.38-25.38l20.69 20.69c3.125 3.125 7.219 4.689 11.31 4.689c8.526 0 16-6.867 16-16c0-4.094-1.562-8.188-4.688-11.31l-20.69-20.69l25.38-25.38l20.69 20.69c3.125 3.125 7.221 4.688 11.31 4.688c8.545 0 16-6.882 16-16c0-4.094-1.562-8.188-4.688-11.31l-20.69-20.69l44.67-44.67C374.4 160.2 376 156.1 376 152C376 142.9 368.5 136 360 136z"/></svg>