<svg xmlns="http://www.w3.org/2000/svg" viewBox="0 0 512 512"><!--! Font Awesome Pro 6.1.1 by @fontawesome - https://fontawesome.com License - https://fontawesome.com/license (Commercial License) Copyright 2022 Fonticons, Inc. --><path d="M256 384H128V256L256 384zM512 477.3V480C512 497.7 497.7 512 480 512H64C28.65 512 0 483.3 0 448V32C0 14.33 14.33 0 32 0H34.75C43.23 0 51.37 3.372 57.37 9.372L502.6 454.6C508.6 460.6 512 468.8 512 477.3zM64 464H444.1L377.4 397.3L363.3 411.3C357.1 417.6 346.9 417.6 340.7 411.3C334.4 405.1 334.4 394.9 340.7 388.7L354.7 374.6L297.4 317.3L283.3 331.3C277.1 337.6 266.9 337.6 260.7 331.3C254.4 325.1 254.4 314.9 260.7 308.7L274.7 294.6L217.4 237.3L203.3 251.3C197.1 257.6 186.9 257.6 180.7 251.3C174.4 245.1 174.4 234.9 180.7 228.7L194.7 214.6L137.4 157.3L123.3 171.3C117.1 177.6 106.9 177.6 100.7 171.3C94.44 165.1 94.44 154.9 100.7 148.7L114.7 134.6L47.1 67.88V448C47.1 456.8 55.16 464 63.1 464L64 464z"/></svg>