<svg xmlns="http://www.w3.org/2000/svg" viewBox="0 0 448 512"><!--! Font Awesome Pro 6.1.1 by @fontawesome - https://fontawesome.com License - https://fontawesome.com/license (Commercial License) Copyright 2022 Fonticons, Inc. --><path d="M0 56C0 42.75 10.75 32 24 32H120C195.1 32 256 92.89 256 168C256 227.4 217.9 277.9 164.9 296.4L222.4 447.5C227.1 459.8 220.9 473.7 208.5 478.4C196.2 483.1 182.3 476.9 177.6 464.5L116.4 304H48V456C48 469.3 37.25 480 24 480C10.75 480 0 469.3 0 456V56zM48 256H120C168.6 256 208 216.6 208 168C208 119.4 168.6 80 120 80H48V256zM313.7 282.3C314.9 285.4 317.2 288.5 321.2 291.7C330.4 299.1 344.5 304.2 364.3 311.3L365.2 311.6C382.6 317.7 405.1 325.8 421.8 340.1C430.9 347.8 438.7 357.7 443.4 370.4C448.1 383.1 449.1 397.2 446.9 412.4C442.1 438.1 427.8 458.9 405.9 469.9C384.9 480.5 359.5 482.2 334.3 477.6L334.1 477.5C325.2 475.8 313.1 471.9 304.7 468.4C298.3 465.1 291.6 463.3 286.2 461.1C283.5 460 281.1 459.1 279.2 458.3C266.9 453.5 260.8 439.6 265.7 427.2C270.5 414.9 284.4 408.8 296.8 413.6C299.3 414.6 302.1 415.7 304.9 416.9C310.1 418.1 315.7 421.2 321.6 423.5C331 426.1 338.6 429.5 343.1 430.4C361.2 433.7 375.2 431.6 384.3 427.1C392.4 422.1 397.8 416.4 399.4 405.4C400.7 396.6 399.8 390.9 398.3 387.1C396.1 383.3 394.6 379.9 390.6 376.5C381.7 368.9 367.7 363.4 348.2 356.5L345.3 355.4C328.5 349.5 307.2 341.9 291.2 329.2C282.2 321.1 274.1 312.6 269.1 300.2C264.1 287.8 262.1 274.1 265.1 259.4C272.9 206.6 327.3 184.9 377.7 194.2C384.8 195.5 406.1 200.3 414.2 202.9C426.8 206.8 433.9 220.3 429.9 232.9C425.9 245.6 412.5 252.6 399.8 248.7C394.3 246.9 375.1 242.5 368.1 241.4C332.7 234.7 314.8 251.6 312.6 266.4C311.4 274.3 312.4 279.2 313.7 282.3V282.3z"/></svg>