<svg xmlns="http://www.w3.org/2000/svg" viewBox="0 0 512 512"><!--! Font Awesome Pro 6.1.1 by @fontawesome - https://fontawesome.com License - https://fontawesome.com/license (Commercial License) Copyright 2022 Fonticons, Inc. --><path d="M.0003 416C.0003 274.8 89.41 185.5 150.8 139.9C161.2 132.1 170.8 125.7 179 120.4L121.9 37.62C110.1 21.7 122.4 0 141.7 0H370.3C389.6 0 401 21.7 390.1 37.62L332.1 120.4C341.2 125.7 350.8 132.1 361.2 139.9C422.6 185.5 512 274.8 512 416C512 469 469 512 416 512H96C42.98 512 0 469 0 416L.0003 416zM293.3 152H218.7L204.9 160.8C150.9 195.4 48 277 48 416C48 442.5 69.49 464 96 464H416C442.5 464 464 442.5 464 416C464 277 361.1 195.4 307.1 160.8L293.3 152zM324.6 48H187.4L226 104H285.1L324.6 48z"/></svg>