<svg xmlns="http://www.w3.org/2000/svg" viewBox="0 0 512 512"><!--! Font Awesome Pro 6.1.1 by @fontawesome - https://fontawesome.com License - https://fontawesome.com/license (Commercial License) Copyright 2022 Fonticons, Inc. --><path d="M201.5 344.5l47.48-47.48c9.375-9.375 9.375-24.56 0-33.94s-24.56-9.375-33.94 0L167.5 310.5L72.06 215C67.11 210.1 60.33 207.7 53.27 208.1C46.3 208.6 39.89 212.2 35.75 217.8C12.36 249.7 0 287.4 0 327.1C0 429.1 82.95 512 184.9 512c39.66 0 77.45-12.38 109.3-35.75c5.641-4.156 9.203-10.53 9.734-17.53c.5313-6.969-2.016-13.84-6.969-18.78L201.5 344.5zM184.9 464C109.4 464 48 402.6 48 327.1c0-19.66 4.109-38.72 12.02-56.22L241.1 452C223.6 459.9 204.6 464 184.9 464zM216 0C202.8 0 192 10.75 192 24S202.8 48 216 48c136.8 0 248 111.3 248 248c0 13.25 10.75 24 24 24S512 309.3 512 296C512 132.8 379.2 0 216 0zM216 104C202.8 104 192 114.8 192 128s10.75 24 24 24c79.41 0 144 64.59 144 144C360 309.3 370.8 320 384 320s24-10.75 24-24C408 190.1 321.9 104 216 104z"/></svg>