<svg xmlns="http://www.w3.org/2000/svg" viewBox="0 0 640 512"><!--! Font Awesome Pro 6.0.0-beta3 by @fontawesome - https://fontawesome.com License - https://fontawesome.com/license (Commercial License) Copyright 2021 Fonticons, Inc. --><path d="M256 336c0-16.12 1.375-8.75-85.12-181.5C162.1 136.9 145 128 128 128S93.88 136.9 85 154.5C-1.998 328.8 .0019 320.4 .0019 336c0 44.13 57.25 80 127.1 80S256 380.1 256 336zM127.9 176L200.1 320H55.96L127.9 176zM519.1 464h-175.1V155.9C371.4 147.2 392.6 124.6 398.4 96h121.6c13.25 0 23.1-10.75 23.1-23.1C543.1 58.75 533.3 48 519.1 48h-126.7C380.9 19.75 352.7 0 320 0S259.1 19.75 246.8 48H120c-13.25 0-23.1 10.75-23.1 23.1S106.7 96 120 96h121.6c5.75 28.62 27 51.25 54.38 59.88V464H120c-13.25 0-23.1 10.75-23.1 23.1S106.7 512 120 512h399.1c13.25 0 23.1-10.75 23.1-23.1C543.1 474.7 533.3 464 519.1 464zM320 112c-17.62 0-31.1-14.38-31.1-32s14.37-32 31.1-32s31.1 14.38 31.1 32S337.6 112 320 112zM639.1 336c0-16.12 1.375-8.75-85.12-181.5C546.1 136.9 528.1 128 511.1 128s-34.13 8.875-43 26.5c-86.1 174.3-84.1 165.9-84.1 181.5c0 44.13 57.25 80 128 80S639.1 380.1 639.1 336zM439.1 320c0 0 53.46-106.5 71.96-144l72.17 144H439.1z"/></svg>