<svg xmlns="http://www.w3.org/2000/svg" viewBox="0 0 576 512"><!--! Font Awesome Pro 6.1.1 by @fontawesome - https://fontawesome.com License - https://fontawesome.com/license (Commercial License) Copyright 2022 Fonticons, Inc. --><path d="M79.13 251.1C33.32 237.1 0 194.4 0 143.1C0 82.14 50.14 31.1 112 31.1H304C330.5 31.1 352 53.49 352 79.1V207.1C352 234.5 330.5 255.1 304 255.1H260L144.3 454.4C130.9 477.3 101.4 485 78.48 471.6L25.02 440.1C2.312 426.8-5.383 397.6 7.785 374.8L79.13 251.1zM48 143.1C48 179.3 76.65 207.1 112 207.1H304V79.1H112C76.65 79.1 48 108.7 48 143.1zM131.7 255.1L49.36 398.8L102.8 430.2L204.4 255.1H131.7zM552 31.1C565.3 31.1 576 42.74 576 55.1C576 69.25 565.3 79.1 552 79.1H440C426.7 79.1 416 69.25 416 55.1C416 42.74 426.7 31.1 440 31.1H552zM416 215.1C416 202.7 426.7 191.1 440 191.1H552C565.3 191.1 576 202.7 576 215.1C576 229.3 565.3 239.1 552 239.1H440C426.7 239.1 416 229.3 416 215.1zM552 431.1C565.3 431.1 576 442.7 576 455.1C576 469.3 565.3 479.1 552 479.1H440C426.7 479.1 416 469.3 416 455.1C416 442.7 426.7 431.1 440 431.1H552zM416 143.1C416 135.2 423.2 127.1 432 127.1H560C568.8 127.1 576 135.2 576 143.1C576 152.8 568.8 159.1 560 159.1H432C423.2 159.1 416 152.8 416 143.1zM560 287.1C568.8 287.1 576 295.2 576 303.1C576 312.8 568.8 319.1 560 319.1H432C423.2 319.1 416 312.8 416 303.1C416 295.2 423.2 287.1 432 287.1H560zM416 367.1C416 359.2 423.2 351.1 432 351.1H560C568.8 351.1 576 359.2 576 367.1C576 376.8 568.8 383.1 560 383.1H432C423.2 383.1 416 376.8 416 367.1z"/></svg>