<svg xmlns="http://www.w3.org/2000/svg" viewBox="0 0 512 512"><!--! Font Awesome Pro 6.0.0-beta3 by @fontawesome - https://fontawesome.com License - https://fontawesome.com/license (Commercial License) Copyright 2021 Fonticons, Inc. --><path d="M477.8 186.3L451.3 160l18.36-18.26c5-4.1 1.51-13.74-5.74-13.74l-111.9 .0069l-.0002-37.68c-.0003-51.25-41.9-91.17-93.16-90.32C173.1 1.43 160 84.5 160 103.3l-.0002 24.75L48 128c-7.125 0-10.74 8.615-5.741 13.74l18.49 18.26l-26.48 26.26c-3 3.125-3 8.235 0 11.36l26.48 26.38L42.38 242.3C37.38 247.3 40.87 256 48.12 256h106.1l-26 141.3c-1.75 10.37 6.471 18.73 15.72 18.73c2.375 0 4.684-.5051 7.184-1.755l32.64-24.21c8.404-5.846 15.97-1.877 17.09-1.256l31.12 16.74v82.5C232 501.2 242.8 512 256 512s24-10.8 24-23.1v-82.75l31.03-16.52c1.118-.6473 8.585-4.66 17.06 1.238l32.67 24.24c2.5 1.125 4.85 1.655 7.225 1.655c9.25 0 17.48-8.385 15.73-18.63l-25.84-141.2h106.1c7.125 0 10.74-8.615 5.738-13.74L451.3 224l26.36-26.26C480.8 194.5 480.8 189.5 477.8 186.3zM208 101.4c0-.625 .125-1.125 .25-1.625c3.25 2.5 7.25 4.25 11.75 4.25c11 0 20-8.999 20-19.1c0-10.5-8.125-18.75-18.25-19.75c8.439-9.736 20.36-16.25 34.25-16.25c22 0 40.25 14.87 46 35.12c-2.1-1.875-6.25-3.125-9.1-3.125c-11 0-20 8.999-20 19.1s9 19.1 20 19.1c4.625 0 8.625-1.75 12-4.375v12.37c0 8.749-7.25 15.1-16 15.1H224c-8.75 0-16-7.25-16-15.1V101.4zM399.4 208h-99.13l24 131.1c-12.38-1.125-24.75 1.375-35.75 7.25l-32.5 17.37L223.5 346.4c-9.25-4.875-19.63-7.5-30.13-7.5c-1.875 0-3.75 .125-5.625 .25l24-131.2H112.6L96.63 191.9l16-15.1h69.5c11.13 9.874 25.69 16.05 41.81 16.05h64c16.13 0 30.81-6.178 41.94-16.05h69.5l16 15.1L399.4 208z"/></svg>