<svg xmlns="http://www.w3.org/2000/svg" viewBox="0 0 512 512"><!--! Font Awesome Pro 6.0.0-beta3 by @fontawesome - https://fontawesome.com License - https://fontawesome.com/license (Commercial License) Copyright 2021 Fonticons, Inc. --><path d="M511.1 403.3c.8086-2.639 .7173-5.454-1.322-7.577l-143.1-142.9l24.12-24.62c48.5-53.75 13-113.4 11.5-115.9l-43.78-73.01c-4.375-7.125-9.792-13.25-16.79-17.1c-45.75-30.5-132.3-26.21-171.4 .1667c-6.875 4.75-12.5 10.75-16.75 17.1l-43.63 73.12C108.4 115.1 72.75 174.8 121.4 228.4l23.94 24.54l-140.7 143.9c-6.223 6.205-6.203 16.34 .0449 22.52c6.234 6.164 16.34 6.205 22.55 .0117l67.25-68.85l22.23 22.23l-64.18 63.99c-6.234 6.221-6.24 16.41-.0117 22.63c6.217 6.217 16.39 6.219 22.62 .0059l64.15-64.05l21.29 21.29l-67.94 68.23c-6.223 6.205-6.203 16.34 .0449 22.52c6.234 6.164 16.34 6.205 22.55 .0117L256 365.9l140.5 143.8c2.061 2.061 4.836 2.252 7.453 1.596c5.289 1.406 11.12 .3047 15.29-3.818c6.248-6.18 6.33-16.37 .1074-22.58l-68.13-68.42l21.29-21.29l64.34 64.24c6.221 6.213 16.4 6.211 22.62-.0059c6.229-6.229 6.223-16.41-.0117-22.63l-64.3-64.11l22.23-22.23l67.38 68.98c6.207 6.193 16.25 6.215 22.48 .0508C511.6 415.1 512.8 408.8 511.1 403.3zM349 116.1l12 20.12c4.25 7.375 16.62 33.38-5.375 58.25L332.5 218.1l-42.75-42.75L349 116.1zM194.8 64.11c12.5-21 110.1-21 122.6-.125l6.375 10.5L256 142.2L188.4 74.49L194.8 64.11zM179.1 287.2L222.5 331.6l-39 39.88l-44.38-44.25L179.1 287.2zM156.4 195.4c-22-24.88-9.625-50.88-5.25-58.38l12-20.12l209.8 210.1l-44.38 44.38L156.4 195.4z"/></svg>