<svg xmlns="http://www.w3.org/2000/svg" viewBox="0 0 576 512"><!--! Font Awesome Pro 6.1.1 by @fontawesome - https://fontawesome.com License - https://fontawesome.com/license (Commercial License) Copyright 2022 Fonticons, Inc. --><path d="M302.4 64.37C285.1 47.02 257.1 46.48 239.1 63.15L72.31 217.6C62.58 226.6 47.4 226 38.39 216.3C29.38 206.6 29.97 191.4 39.69 182.4L206.5 27.93C243.4-6.261 300.8-5.158 336.4 30.43C372.6 66.66 372.1 125.3 337.2 161.1L120.5 384.6C111.1 394.3 110.3 409.5 118.8 420.1C128.9 432.7 147.7 433.6 159 422.1L414.3 160.5C441.6 132.6 486.3 132.4 513.9 159.9C540.3 186.4 541.3 229 515.1 256.7L425.4 355.4C402.1 379.9 403.8 417.8 427.3 441.4C443.1 458 468.6 463.8 490.9 456.4L512.4 449.2C524.1 445 538.6 451.8 542.8 464.4C546.1 476.1 540.2 490.6 527.6 494.8L506.1 501.9C466.5 515.1 422.9 504.8 393.4 475.3C351.7 433.6 350.2 366.4 390.1 322.1L480.6 224.2C488.5 215.6 488.2 202.2 479.9 193.9C471.3 185.2 457.2 185.3 448.7 194L193.4 455.6C161.9 487.8 109.4 485.2 81.32 450.1C57.73 420.6 59.8 378.1 86.14 351.1L302.9 128.5C320.3 110.6 320.1 82.03 302.4 64.37H302.4z"/></svg>