<svg xmlns="http://www.w3.org/2000/svg" viewBox="0 0 640 512"><!--! Font Awesome Pro 6.0.0-beta3 by @fontawesome - https://fontawesome.com License - https://fontawesome.com/license (Commercial License) Copyright 2021 Fonticons, Inc. --><path d="M224.4 256L195.1 304.9C191.3 311.4 191.1 319.5 194.9 326.1c3.75 6.624 10.75 10.75 18.37 10.75l59.5-.0019l29.25 48.87c3.751 6.374 10.63 10.25 18 10.25c7.5-.1257 14.38-4.084 18.12-10.46l29.12-48.67l59.5-.0019c7.625-.0007 14.63-4.125 18.5-10.75c3.749-6.5 3.75-14.63-.2506-21.12l-29.38-48.1l29.25-48.87c3.874-6.5 3.1-14.63 .2493-21.25c-3.75-6.624-10.75-10.75-18.38-10.75l-59.5 .0019l-29.25-48.87c-3.75-6.374-10.62-10.17-17.1-10.17C312.6 116.1 305.6 120.1 301.9 126.5L272.7 175.1L213.2 175.1C205.6 175.1 198.5 179.3 194.8 185.9C191 192.4 191 200.5 195 207L224.4 256zM220.8 311.5l18.37-30.87l18.5 30.87L220.8 311.5zM320 366.5l-17.75-29.62l35.5-.0011L320 366.5zM419.2 311.5l-36.75 .0011l18.37-30.75L419.2 311.5zM419.2 200.5l-18.37 30.79L382.4 200.5L419.2 200.5zM319.1 145.5l17.63 29.62L302.2 175.1L319.1 145.5zM287.1 200.5l65.75-.002l33.25 55.5L352.9 311.5L287.1 311.5L253.9 256L287.1 200.5zM257.5 200.5l-18.37 30.83L220.8 200.5L257.5 200.5zM559.1 .0001c-36.12 .0034-65.62 20-75.87 48L155.9 48.03C145.6 20.04 116.1 .0417 79.99 .0451C35.12 .0493-.0036 30.55 .0001 69.42l.035 373.2c.0036 38.87 35.13 69.37 80 69.36c36.12-.0034 65.62-20 75.87-48l328.2-.0308c10.25 27.1 39.75 47.99 75.88 47.99c44.87-.0042 79.99-30.5 79.99-69.38L639.1 69.36C639.1 30.49 604.8-.0041 559.1 .0001zM112 442.6c.0011 11.87-14.37 21.37-31.1 21.38c-17.62 .0017-31.1-9.496-32-21.37L47.1 69.42C47.1 57.54 62.37 48.04 79.99 48.04S111.1 57.54 111.1 69.41L112 442.6zM480 415.1l-319.1 .03L159.1 96.03l319.1-.03L480 415.1zM592 442.6c.0011 11.87-14.37 21.37-31.1 21.38c-17.62 .0016-31.1-9.496-32-21.37L527.1 69.37c-.0011-11.87 14.37-21.37 31.1-21.38c17.62-.0017 31.1 9.496 32 21.37L592 442.6z"/></svg>