<svg xmlns="http://www.w3.org/2000/svg" viewBox="0 0 576 512"><!--! Font Awesome Pro 6.1.1 by @fontawesome - https://fontawesome.com License - https://fontawesome.com/license (Commercial License) Copyright 2022 Fonticons, Inc. --><path d="M528 304H480v-192C480 67.89 444.1 32 400 32h-320C35.89 32 0 67.89 0 112V160c0 26.51 21.49 48 48 48h32V160h-32V112c0-17.62 14.38-32 32-32s32 14.38 32 32v288c0 44.11 35.89 80 80 80h266.6C523.3 480 576 427.3 576 362.6V352C576 325.5 554.5 304 528 304zM224 336v64c0 17.62-14.38 32-32 32s-32-14.38-32-32V256h48C216.8 256 224 248.8 224 240S216.8 224 208 224H160L160 112c0-11.39-2.473-22.18-6.781-32H400c17.6 0 32 14.4 32 32V128h-32C391.2 128 384 135.2 384 144S391.2 160 400 160h32v64h-32C391.2 224 384 231.2 384 240S391.2 256 400 256h32v48H256C238.3 304 224 318.3 224 336zM528 362.6C528 400.9 496.9 432 458.6 432H265.2C269.5 422.2 272 411.4 272 400V352h96v32c0 8.844 7.156 16 16 16s16-7.156 16-16v-32h128V362.6z"/></svg>