<svg xmlns="http://www.w3.org/2000/svg" viewBox="0 0 512 512"><!--! Font Awesome Pro 6.1.1 by @fontawesome - https://fontawesome.com License - https://fontawesome.com/license (Commercial License) Copyright 2022 Fonticons, Inc. --><path d="M169.8 165.3C177.8 142.9 198.9 128 222.6 128H280.9C315.7 128 344 156.3 344 191.1C344 213.8 331.9 234.7 312.3 245.9L279.1 264.4C279.8 277.5 269.1 288 256 288C242.7 288 232 277.3 232 264V250.5C232 241.9 236.6 234 244.1 229.7L288.4 204.3C293.1 201.6 296 196.6 296 191.1C296 182.8 289.2 176 280.9 176H222.6C219.2 176 216.2 178.1 215.1 181.3L214.6 182.6C210.2 195.1 196.5 201.6 183.1 197.2C171.5 192.7 164.9 179 169.4 166.5L169.8 165.3zM288 352C288 369.7 273.7 384 256 384C238.3 384 224 369.7 224 352C224 334.3 238.3 320 256 320C273.7 320 288 334.3 288 352zM336 64H400C426.5 64 448 85.49 448 112V176L493.6 221.6C512.3 240.3 512.3 270.7 493.6 289.5L448 335.1V400C448 426.5 426.5 448 400 448H335.1L289.9 493.1C271.2 511.9 240.8 511.9 222.1 493.1L176.9 448H112C85.49 448 64 426.5 64 400V335.1L18.41 289.5C-.3328 270.7-.3328 240.3 18.41 221.6L64 176V112C64 85.49 85.49 64 112 64H175.1L222.1 17.94C240.8-.8035 271.2-.8035 289.9 17.94L336 64zM112 112V176C112 188.7 106.9 200.9 97.94 209.9L52.35 255.5L97.94 301.1C106.9 310.1 112 322.3 112 335.1V400H176.9C189.7 400 201.9 405.1 210.9 414.1L256 459.2L301.1 414.1C310.1 405.1 322.3 400 335.1 400H400V335.1C400 322.3 405.1 310.1 414.1 301.1L459.6 255.5L414.1 209.9C405.1 200.9 400 188.7 400 176V112H336C323.3 112 311.1 106.9 302.1 97.94L255.1 51.88L209.9 97.94C200.9 106.9 188.7 112 175.1 112L112 112z"/></svg>