<svg xmlns="http://www.w3.org/2000/svg" viewBox="0 0 448 512"><!--! Font Awesome Pro 6.1.1 by @fontawesome - https://fontawesome.com License - https://fontawesome.com/license (Commercial License) Copyright 2022 Fonticons, Inc. --><path d="M47.1 142.9C47.1 150.8 49.67 158.6 52.9 165.8L64.64 192H328C341.3 192 352 202.7 352 216C352 229.3 341.3 240 328 240H86.16L100.5 272H424C432 272 439.5 276 443.1 282.7C448.4 289.4 449.2 297.8 446.2 305.2L418.5 371.7C407.3 398.5 381.1 416 352 416H264V464H360C373.3 464 384 474.7 384 488C384 501.3 373.3 512 360 512H119.1C106.7 512 95.1 501.3 95.1 488C95.1 474.7 106.7 464 119.1 464H215.1V416H169.4C134.8 416 103.3 395.6 89.15 363.1L9.099 185.4C3.101 172.1 0 157.6 0 142.9V24C0 10.75 10.75 0 24 0C37.25 0 48 10.75 48 24L47.1 142.9zM169.4 368H352C361.7 368 370.4 362.2 374.2 353.2L388 320H122L132.9 344.4C139.4 358.7 153.7 368 169.4 368z"/></svg>