<svg xmlns="http://www.w3.org/2000/svg" viewBox="0 0 512 512"><!--! Font Awesome Pro 6.0.0-beta3 by @fontawesome - https://fontawesome.com License - https://fontawesome.com/license (Commercial License) Copyright 2021 Fonticons, Inc. --><path d="M448 160H224C188.7 160 160 188.7 160 224v224c0 35.35 28.65 64 64 64h224c35.35 0 64-28.65 64-64V224C512 188.7 483.3 160 448 160zM464 448c0 8.822-7.178 16-16 16H224c-8.822 0-16-7.178-16-16V224c0-8.822 7.178-16 16-16h224c8.822 0 16 7.178 16 16V448zM352 128V64c0-35.35-28.65-64-64-64H64C28.65 0 0 28.65 0 64v224c0 35.35 28.65 64 64 64h64V224c0-52.94 43.07-96 96-96H352z"/></svg>