<svg xmlns="http://www.w3.org/2000/svg" viewBox="0 0 640 512"><!--! Font Awesome Pro 6.0.0-beta3 by @fontawesome - https://fontawesome.com License - https://fontawesome.com/license (Commercial License) Copyright 2021 Fonticons, Inc. --><path d="M325.8 432H64c-8.875 0-16-7.125-16-16V96c0-8.875 7.125-16 16-16h320c8.875 0 16 7.125 16 16v13.12c5.1-6.125 12-12.37 18.38-18.25l23-22.75C430.8 46.12 408.5 32.12 384 32H64.05C28.67 32 0 60.62 0 96v320c0 35.38 28.67 64 64.05 64h311.3C356.1 467.1 339.4 450.8 325.8 432zM176 152v112C176 277.2 186.8 288 200 288S224 277.2 224 264v-112C224 138.8 213.2 128 200 128S176 138.8 176 152zM96 152v112C96 277.2 106.8 288 120 288S144 277.2 144 264v-112C144 138.8 133.2 128 120 128S96 138.8 96 152zM551.1 150.9C536.8 164.2 523.4 178.5 511 193.8C489.1 165 466.1 138.4 440 114.2C369.9 179.4 320 264.2 320 315.4C320 406.4 391.6 480 480 480s160-73.63 160-164.6C640 277.4 602.9 198.9 551.1 150.9zM530.1 400.9C515.9 410.8 499 416 481.8 416C436.8 416 400 386.1 400 337.8C400 313.6 415.2 292.4 445.5 256c4.375 5 61.75 78.38 61.75 78.38l36.63-41.88c2.625 4.25 5 8.5 7 12.5C568 337.6 560.9 379.4 530.1 400.9z"/></svg>