<svg xmlns="http://www.w3.org/2000/svg" viewBox="0 0 640 512"><!--! Font Awesome Pro 6.0.0-beta3 by @fontawesome - https://fontawesome.com License - https://fontawesome.com/license (Commercial License) Copyright 2021 Fonticons, Inc. --><path d="M384 135.8L369.5 142.1C357.3 147.3 343.2 141.6 337.9 129.5C332.7 117.3 338.4 103.2 350.5 97.94L398.4 77.44C415.3 50.16 445.5 32 480 32C514.5 32 544.7 50.16 561.6 77.44L609.5 97.94C621.6 103.2 627.3 117.3 622.1 129.5C616.8 141.6 602.7 147.3 590.5 142.1L576 135.8V208C576 252.2 540.2 288 496 288H464C419.8 288 384 252.2 384 208L384 135.8zM464 160C472.8 160 480 152.8 480 144C480 135.2 472.8 128 464 128C455.2 128 448 135.2 448 144C448 152.8 455.2 160 464 160zM528 128C519.2 128 512 135.2 512 144C512 152.8 519.2 160 528 160C536.8 160 544 152.8 544 144C544 135.2 536.8 128 528 128zM307.2 142.9C291.7 141.7 277.8 133.1 269.7 119.8C266.9 115 261.8 112 255.1 112C251.2 112 246.9 114.1 243.9 117.5C227.1 136.8 197.1 139.4 177.9 123.5C175.2 121.3 171.8 120 167.1 120C160.5 120 154.2 125.1 152.5 132.1C146.5 156.3 123.1 171.1 98.52 168.2C97.72 168.1 96.89 168 95.1 168C87.16 168 79.1 175.2 79.1 184C79.1 185.4 80.17 186.7 80.47 187.9C85.78 209.3 75.91 231.5 56.5 241.8C51.34 244.6 47.1 249.1 47.1 256C47.1 262 51.34 267.4 56.5 270.2C75.91 280.5 85.78 302.7 80.47 324.1C80.17 325.3 79.1 326.6 79.1 328C79.1 336.8 87.16 344 95.1 344C96.88 344 97.72 343.9 98.52 343.8C123.1 340 146.5 355.7 152.5 379.9C154.2 386.9 160.5 392 167.1 392C171.8 392 175.2 390.7 177.9 388.6C197.1 372.6 227.1 375.2 243.9 394.5C246.9 397.9 251.2 400 255.1 400C260.8 400 265.1 397.9 268.1 394.5C284.9 375.2 314 372.6 334.1 388.6C336.8 390.7 340.2 392 344 392C351.5 392 357.8 386.9 359.5 379.9C365.5 355.7 388.9 340 413.5 343.8C414.3 343.9 415.1 344 416 344C424.8 344 432 336.8 432 328C432 326.6 431.8 325.3 431.5 324.1C430.8 320.1 430.3 317.9 430.2 314.8C440.8 318.2 452.2 319.1 464 319.1H479.5C479.8 322.6 480 325.3 480 328C480 363.3 451.3 392 416 392C415.5 392 415 391.1 414.5 391.1L396.9 485.9C394.1 501 380.8 512 365.4 512H336C318.3 512 303.1 497.7 303.1 480V426.3C292.3 439.6 275.1 448 255.1 448C236.9 448 219.7 439.6 207.1 426.3V480C207.1 497.7 193.7 512 175.1 512H146.6C131.2 512 117.9 501 115.1 485.9L97.5 391.1C96.1 391.1 96.5 392 96 392C60.65 392 32 363.3 32 328C32 322.6 32.66 317.5 33.89 312.5C13.72 301.7 0 280.5 0 255.1C0 231.5 13.72 210.3 33.89 199.5C32.66 194.5 32 189.3 32 183.1C32 148.7 60.65 119.1 96 119.1C99.34 119.1 102.6 120.3 105.8 120.7C112.7 92.77 137.9 71.1 168 71.1C183 71.1 196.9 77.19 207.8 85.88C219.5 72.47 236.8 63.1 256 63.1C263.1 63.1 271.6 65.46 278.7 68.13C291.8 73.12 302.1 82.35 310.3 94.14C302.9 108.5 301.6 126 308.5 142.1L308.9 142.1C308.3 142.9 307.8 142.9 307.2 142.9L307.2 142.9z"/></svg>