<svg xmlns="http://www.w3.org/2000/svg" viewBox="0 0 512 512"><!--! Font Awesome Pro 6.1.1 by @fontawesome - https://fontawesome.com License - https://fontawesome.com/license (Commercial License) Copyright 2022 Fonticons, Inc. --><path d="M496 139.1C495.5 239.2 454.8 420.7 282.4 503.2C265.8 511.1 246.3 511.1 229.6 503.2C57.29 420.7 16.49 239.2 16 139.1C15.87 113.8 32.32 92.12 54.3 82.79L242.7 2.912C246.8 1.007 251.4-.0091 256-.0088C260.7-.0091 265.2 1.007 269.4 2.912L457.7 82.79C479.7 92.12 496.2 113.8 496 139.1L496 139.1zM232 59.57L73.04 126.1C67.1 129.5 63.98 134.7 64 139.7C64.44 227.3 99.22 375.7 232 450.3V59.57zM280 450.4C412.8 375.7 447.6 227.3 448 139.7C448.1 134.7 444.9 129.5 438.1 126.1L280 59.56L280 450.4z"/></svg>