<svg xmlns="http://www.w3.org/2000/svg" viewBox="0 0 512 512"><!--! Font Awesome Pro 6.1.1 by @fontawesome - https://fontawesome.com License - https://fontawesome.com/license (Commercial License) Copyright 2022 Fonticons, Inc. --><path d="M466.5 83.71l-192-80C268.6 1.203 262.3 0 256.1 0S243.5 1.203 237.6 3.703L45.61 83.71C27.73 91.08 16 108.6 16 127.1C16 385.4 205.4 512 255.9 512C305.2 512 496 387.3 496 127.1C496 108.6 484.3 91.08 466.5 83.71zM232 58V168H66.01C64.82 154.9 64 141.7 64 128L232 58zM72.95 216H232v236C161.2 411.1 96.05 327.8 72.95 216zM280 451.1V216h159.1C415.6 329.8 348.1 412.9 280 451.1zM446 168H280V58L448 128C448 141.7 447.2 154.1 446 168z"/></svg>