<svg xmlns="http://www.w3.org/2000/svg" viewBox="0 0 640 512"><!--! Font Awesome Pro 6.1.1 by @fontawesome - https://fontawesome.com License - https://fontawesome.com/license (Commercial License) Copyright 2022 Fonticons, Inc. --><path d="M639.1 487.1c0-7.118-3.152-14.16-9.189-18.89l-134.3-105.3C533.4 303.5 560 225.5 560 127.1c0-19.38-11.75-36.91-29.5-44.28l-192-80C332.6 1.203 326.3 0 320.1 0S307.5 1.203 301.6 3.703L128.9 75.68L38.81 5.109C34.41 1.672 29.19 0 24.03 0C10.2 0 .0008 11.29 .0008 24c0 7.118 3.152 14.16 9.189 18.89l591.1 463.1C605.6 510.3 610.8 512 615.1 512C629.8 512 639.1 500.6 639.1 487.1zM458.3 333.9L172.1 109.6L320 48L512 128C512 208.8 490.5 278.3 458.3 333.9zM320 464c-82.64-34.43-162.9-130.4-185.5-261.9l-53.33-41.8C96.42 398.1 273.1 512 319.9 512c36.99 0 102.6-57.92 117.3-72.57l-37.7-29.54C374.3 434.3 346.1 452.8 320 464z"/></svg>