<svg xmlns="http://www.w3.org/2000/svg" viewBox="0 0 576 512"><!--! Font Awesome Pro 6.1.1 by @fontawesome - https://fontawesome.com License - https://fontawesome.com/license (Commercial License) Copyright 2022 Fonticons, Inc. --><path d="M301.4 2.912L489.7 82.79C511.7 92.12 528.2 113.8 528 139.1C527.5 239.2 486.8 420.7 314.4 503.2C297.8 511.1 278.3 511.1 261.6 503.2C89.29 420.7 48.49 239.2 48 139.1C47.87 113.8 64.32 92.12 86.3 82.79L274.7 2.912C278.8 1.007 283.4-.0091 288-.0088C292.7-.0091 297.2 1.007 301.4 2.912L301.4 2.912zM96 139.7C96.09 157.7 97.62 178.1 101.1 200H264V59.57L105 126.1C99.11 129.5 95.98 134.7 96 139.7H96zM111.7 248C132.7 321.9 177.6 401.7 264 450.3V248H111.7zM312 248V450.4C398.4 401.8 443.4 321.1 464.3 248H312zM474.9 200C478.4 178.1 479.9 157.7 480 139.7C480.1 134.7 476.9 129.5 470.1 126.1L312 59.56V200L474.9 200z"/></svg>