<svg xmlns="http://www.w3.org/2000/svg" viewBox="0 0 384 512"><!--! Font Awesome Pro 6.1.1 by @fontawesome - https://fontawesome.com License - https://fontawesome.com/license (Commercial License) Copyright 2022 Fonticons, Inc. --><path d="M336 112V24C336 10.74 325.3 0 312 0S288 10.74 288 24V64c0 53.02-42.98 96-96 96S96 117 96 64V24C96 10.74 85.25 0 72 0S48 10.74 48 24V112C48 209.4 0 240.6 0 265.9V464C0 490.5 21.49 512 48 512h288c26.51 0 48-21.49 48-48V265.9C384 240.6 336 208.9 336 112zM336 464h-288V271.2C68.1 239.4 83.54 203.6 90.77 166.3C116.8 192.1 152.6 208 192 208s75.21-15.93 101.2-41.69C300.5 203.6 315 239.4 336 271.2V464z"/></svg>