<svg xmlns="http://www.w3.org/2000/svg" viewBox="0 0 640 512"><!--! Font Awesome Pro 6.0.0-beta3 by @fontawesome - https://fontawesome.com License - https://fontawesome.com/license (Commercial License) Copyright 2021 Fonticons, Inc. --><path d="M639.1 170.9c0-16.6-7.23-32.64-21.13-43.64l-135-106.6C466.9 7.359 445.6 0 423.1 0H399.1C386.7 0 376 10.75 376 24c0 30.88-25.12 56-56 56S264 54.88 264 24C264 10.75 253.3 0 240 0h-24C194.4 0 173.1 7.359 156.2 20.72L21.13 127.3C7.228 138.3 .0008 154.4 .0008 170.9c0 12.6 4.295 24.73 12.35 34.68l49.97 61.63c11.03 13.61 27.3 20.7 43.71 20.7c12.22 0 24.52-3.93 34.79-12.03L160 260.8V440c0 39.7 32.31 72 72 72h175.1c39.69 0 72-32.3 72-72V260.8l19.19 15.14c10.26 8.127 22.57 12.07 34.8 12.07c16.41 0 32.69-7.1 43.7-20.73l49.97-61.63C635.7 195.7 639.1 183.6 639.1 170.9zM592 170.1c0 1.447-.4655 2.978-1.649 4.439l-50.02 61.69c-.5016 .6212-3.187 2.943-6.563 2.943c-1.528 0-3.196-.4754-4.868-1.799l-71.01-56.03c-3.032-2.392-6.475-3.469-9.838-3.469c-8.278 0-16.07 6.525-16.07 16.03V440c0 13.25-10.75 24-24 24H232c-13.25 0-24-10.75-24-24V194.7c0-9.505-7.797-16.03-16.07-16.03c-3.366 0-6.811 1.079-9.844 3.474L111.1 238.2C109.5 239.5 107.8 239.1 106.2 239.1c-3.003 0-5.61-1.728-6.612-2.965L49.65 175.4C48.55 174.1 47.99 172.4 47.99 170.8c0-2.144 .9586-4.282 2.88-5.8l134.1-106.6C194.4 51.71 205.1 48 216 48h2.795C229.7 93.81 270.9 128 320 128s90.34-34.19 101.2-80h2.764c10.92 0 21.64 3.705 30.13 10.39l134.1 106.6C590.6 166.1 592 168.4 592 170.1z"/></svg>