<svg xmlns="http://www.w3.org/2000/svg" viewBox="0 0 512 512"><!--! Font Awesome Pro 6.1.1 by @fontawesome - https://fontawesome.com License - https://fontawesome.com/license (Commercial License) Copyright 2022 Fonticons, Inc. --><path d="M344.1 87.03c-9.375-9.375-24.56-9.375-33.94 0L310.2 87.84l-7.031-7.031C281.3 58.94 252.7 48 224 48c-21.57 0-43.13 6.211-61.8 18.6L145.3 52.53C129.4 39.28 109.3 32 88.61 32C39.75 32 0 71.75 0 120.6V456C0 469.3 10.75 480 24 480s24-10.75 24-24V120.6C48 98.22 66.22 80 88.61 80c9.469 0 18.7 3.344 26 9.406l14.29 11.91c-26.67 43.18-21.54 100.4 15.9 137.9L151.8 246.2L151 247c-9.375 9.375-9.375 24.56 0 33.94C155.7 285.7 161.9 288 168 288s12.28-2.344 16.97-7.031l160-160C354.3 111.6 354.3 96.41 344.1 87.03zM185.8 212.3L178.7 205.3c-24.95-24.95-24.95-65.55 .002-90.51C190.8 102.7 206.9 96 224 96c17.09 0 33.17 6.656 45.26 18.75l7.031 7.029L185.8 212.3zM480 192c-17.67 0-32 14.33-32 32c0 17.67 14.33 32 32 32s32-14.33 32-32C512 206.3 497.7 192 480 192zM288 384c-17.67 0-32 14.33-32 32c0 17.67 14.33 32 32 32s32-14.33 32-32C320 398.3 305.7 384 288 384zM352 320c-17.67 0-32 14.33-32 32c0 17.67 14.33 32 32 32s32-14.33 32-32C384 334.3 369.7 320 352 320zM416 256c-17.67 0-32 14.33-32 32c0 17.67 14.33 32 32 32s32-14.33 32-32C448 270.3 433.7 256 416 256zM288 320c0-17.67-14.33-32-32-32s-32 14.33-32 32c0 17.67 14.33 32 32 32S288 337.7 288 320zM320 224c-17.67 0-32 14.33-32 32c0 17.67 14.33 32 32 32s32-14.33 32-32C352 238.3 337.7 224 320 224zM384 224c17.67 0 32-14.33 32-32c0-17.67-14.33-32-32-32s-32 14.33-32 32C352 209.7 366.3 224 384 224z"/></svg>