<svg xmlns="http://www.w3.org/2000/svg" viewBox="0 0 512 512"><!--! Font Awesome Pro 6.0.0-beta3 by @fontawesome - https://fontawesome.com License - https://fontawesome.com/license (Commercial License) Copyright 2021 Fonticons, Inc. --><path d="M512 416C512 451.3 483.3 480 448 480H64C28.65 480 0 451.3 0 416V96C0 60.65 28.65 32 64 32H448C483.3 32 512 60.65 512 96V416zM288 80H64C55.16 80 48 87.16 48 96V416C48 424.8 55.16 432 64 432H288V80zM448 120C448 106.7 437.3 96 424 96H376C362.7 96 352 106.7 352 120C352 133.3 362.7 144 376 144H424C437.3 144 448 133.3 448 120zM376 192C362.7 192 352 202.7 352 216C352 229.3 362.7 240 376 240H424C437.3 240 448 229.3 448 216C448 202.7 437.3 192 424 192H376zM448 312C448 298.7 437.3 288 424 288H376C362.7 288 352 298.7 352 312C352 325.3 362.7 336 376 336H424C437.3 336 448 325.3 448 312z"/></svg>