<svg xmlns="http://www.w3.org/2000/svg" viewBox="0 0 640 512"><!--! Font Awesome Pro 6.0.0-beta3 by @fontawesome - https://fontawesome.com License - https://fontawesome.com/license (Commercial License) Copyright 2021 Fonticons, Inc. --><path d="M2.367 375.1c0 13.26 10.71 23.1 23.91 23.1h103.6v-48H26.28C13.07 351.1 2.367 362.7 2.367 375.1zM99.94 239.1L122.9 216.1c5.014-5.033 7.115-11.71 6.746-18.3L101.8 176.8C97.19 177.6 92.67 179.4 89.08 183L66.13 206.1L43.18 183C33.84 173.7 18.71 173.7 9.371 183S.0313 207.6 9.371 216.1l22.95 23.03l-22.95 23.03C.0313 272.4 .0313 287.6 9.371 296.1c4.67 4.688 10.77 7.032 16.91 7.032s12.24-2.344 16.91-7.031l22.95-23.03l22.95 23.03C93.75 301.7 99.85 303.1 105.1 303.1c6.133 0 12.23-2.344 16.91-7.032c9.34-9.375 9.339-24.56-.0006-33.94L99.94 239.1zM640 375.1c0-13.26-10.71-24-23.91-24h-136.5l-124.5-97.95l112.2-33.77l-17.34 52.13c-2.428 7.312-1.184 15.38 3.301 21.62c4.482 6.25 11.71 9.969 19.4 9.969h143.5C629.3 303.1 640 293.2 640 279.1c0-13.25-10.74-24-23.94-24l-110.2-.0107l21.39-64.41c2.803-8.5 .6855-17.88-5.541-24.31s-15.47-8.75-24.04-6.281l-137.1 41.28C365.5 173.2 368.4 146.8 368.9 126.4c1.09-46.19-30.32-86.28-73.07-93.25C254.8 26.43 212.2 49.12 197.6 93.67c-2.83 8.629-3.943 17.78-3.943 26.87L193.7 127.1L38.72 5.109C34.33 1.672 29.11 0 23.98 0C16.88 0 9.807 3.156 5.105 9.188c-8.158 10.44-6.335 25.53 4.063 33.7l589.8 463.1c10.46 8.203 25.47 6.328 33.57-4.078c8.156-10.44 6.346-25.53-4.053-33.7l-87.87-69.12h75.47C629.3 399.1 640 389.2 640 375.1zM308.1 217.7L240.7 164c.2402-1.363 .8125-2.604 .8125-4.035V122.5c0-12.31 4.469-24.63 13.71-32.72c9.082-7.945 20.75-11.21 33.02-9.25c19.27 3.156 33.44 22.37 32.91 44.75C320.5 150.3 316.1 182.9 308.1 217.7zM241.6 424.4c-2.988 4.688-8.531 7.594-14.51 7.594c-9.65 0-17.53-7.906-17.53-17.59V310.9c0-7.719 5.137-14.62 12.52-16.84l20.82-6.275L198.5 252.9C176.6 263.8 161.8 285.7 161.8 310.9v100.9c0 31.25 20.54 60.23 51 66.64c27.8 5.854 54.8-5.715 69.11-28.18c15.72-24.57 29.75-60.77 41.79-98.99L282.7 319.1C270.6 359.1 256.5 401.2 241.6 424.4z"/></svg>