<svg xmlns="http://www.w3.org/2000/svg" viewBox="0 0 512 512"><!--! Font Awesome Pro 6.0.0-beta3 by @fontawesome - https://fontawesome.com License - https://fontawesome.com/license (Commercial License) Copyright 2021 Fonticons, Inc. --><path d="M88 0C101.3 0 112 10.75 112 24V64H488C501.3 64 512 74.75 512 88C512 101.3 501.3 112 488 112H112V488C112 501.3 101.3 512 88 512C74.75 512 64 501.3 64 488V112H24C10.75 112 0 101.3 0 88C0 74.75 10.75 64 24 64H64V24C64 10.75 74.75 0 88 0zM144 176C144 158.3 158.3 144 176 144H448C465.7 144 480 158.3 480 176V352C480 369.7 465.7 384 448 384H176C158.3 384 144 369.7 144 352V176zM432 336V192H192V336H432z"/></svg>