<svg xmlns="http://www.w3.org/2000/svg" viewBox="0 0 576 512"><!--! Font Awesome Pro 6.1.1 by @fontawesome - https://fontawesome.com License - https://fontawesome.com/license (Commercial License) Copyright 2022 Fonticons, Inc. --><path d="M400 128h-64c-17.67 0-32 14.33-32 32v320c0 17.67 14.33 32 32 32h64c17.67 0 32-14.33 32-32V160C432 142.3 417.7 128 400 128zM384 464h-32v-288h32V464zM96 384H32c-17.67 0-32 14.33-32 32v64c0 17.67 14.33 32 32 32h64c17.67 0 32-14.33 32-32v-64C128 398.3 113.7 384 96 384zM80 464h-32v-32h32V464zM248 256h-64c-17.67 0-32 14.33-32 32v192c0 17.67 14.33 32 32 32h64c17.67 0 32-14.33 32-32V288C280 270.3 265.7 256 248 256zM232 464h-32v-160h32V464z"/></svg>