<svg xmlns="http://www.w3.org/2000/svg" viewBox="0 0 576 512"><!--! Font Awesome Pro 6.0.0-beta3 by @fontawesome - https://fontawesome.com License - https://fontawesome.com/license (Commercial License) Copyright 2021 Fonticons, Inc. --><path d="M32 384C18.75 384 8 394.8 8 408v80c0 13.25 10.75 24 23.1 24S56 501.3 56 488v-80C56 394.8 45.25 384 32 384zM160 288C146.8 288 136 298.8 136 312v176C136 501.3 146.8 512 160 512s24-10.75 24-24v-176C184 298.8 173.3 288 160 288zM416 96c-13.25 0-24 10.75-24 24v368c0 13.25 10.75 24 24 24s24-10.75 24-24V120C440 106.8 429.3 96 416 96zM288 192C274.8 192 264 202.8 264 216v272C264 501.3 274.8 512 288 512s24-10.75 24-24v-272C312 202.8 301.3 192 288 192z"/></svg>