<svg xmlns="http://www.w3.org/2000/svg" viewBox="0 0 512 512"><!--! Font Awesome Pro 6.0.0-beta3 by @fontawesome - https://fontawesome.com License - https://fontawesome.com/license (Commercial License) Copyright 2021 Fonticons, Inc. --><path d="M488 464H480V395.4c0-26.16-15.93-49.69-40.23-59.41l-118.8-47.47l70.18-258.1c.5714-2.104 .895-4.399 .895-6.48c0-7.731-5.988-23.99-24.02-23.99c-10.59 0-20.22 6.986-23.12 17.66l-4.116 14.58L134.4 32.08c-30.51 0-56.77 21.54-62.76 51.44L1.264 435.5c-.8547 4.272-1.264 8.538-1.264 12.7C-.0007 482.6 27.99 512 64.02 512H488c13.25 0 24-10.74 24-23.99C512 474.8 501.3 464 488 464zM118.7 93.07C120.2 85.62 126.8 80.21 134.4 80.21h68.08L191.8 115.6C174.8 172.5 136.8 220.8 86.1 251.7L118.7 93.07zM432 464H64.02c-9.311 0-16.02-7.694-16.02-15.88c0-1.024 .1001-2.109 .3288-3.252l30.46-152.2c68.71-33.2 121.6-94.25 143.7-167.9L235.9 80.21h91.96l-30.45 111.9H240c-8.836 0-16 7.159-16 15.99C224 216.1 231.2 224.1 240 224.1h48.43l-18.37 63.97L208 288.1c-8.836 0-16 7.206-16 16.04c0 8.832 7.164 15.99 16 15.99h62.76l151.2 60.45C428.1 382.1 432 388.8 432 395.4V464z"/></svg>