<svg xmlns="http://www.w3.org/2000/svg" viewBox="0 0 448 512"><!--! Font Awesome Pro 6.1.1 by @fontawesome - https://fontawesome.com License - https://fontawesome.com/license (Commercial License) Copyright 2022 Fonticons, Inc. --><path d="M207.1 136C207.1 149.3 197.3 160 183.1 160C170.7 160 159.1 149.3 159.1 136C159.1 122.7 170.7 112 183.1 112C197.3 112 207.1 122.7 207.1 136zM239.1 136C239.1 122.7 250.7 112 263.1 112C277.3 112 287.1 122.7 287.1 136C287.1 149.3 277.3 160 263.1 160C250.7 160 239.1 149.3 239.1 136zM263.1 288H183.1C153.1 288 127.1 262.9 127.1 232V223.4C98.54 199.1 79.1 165.9 79.1 128C79.1 57.31 144.5 0 223.1 0C303.5 0 367.1 57.31 367.1 128C367.1 165.9 349.5 199.1 319.1 223.4V232C319.1 262.9 294.9 288 263.1 288zM319.1 128C319.1 88.98 282.5 48 223.1 48C165.5 48 127.1 88.98 127.1 128C127.1 149.5 138.4 170.4 157.9 185.8L175.1 200.3V232C175.1 236.4 179.6 240 183.1 240H263.1C268.4 240 271.1 236.4 271.1 232V200.3L290.1 185.8C309.6 170.4 319.1 149.5 319.1 128zM2.704 268.9C8.819 257.2 23.31 252.6 35.07 258.7L223.1 356.1L412.9 258.7C424.7 252.6 439.2 257.2 445.3 268.9C451.4 280.7 446.8 295.2 435.1 301.3L276 384L435.1 466.7C446.8 472.8 451.4 487.3 445.3 499.1C439.2 510.8 424.7 515.4 412.9 509.3L223.1 411.1L35.07 509.3C23.31 515.4 8.819 510.8 2.704 499.1C-3.411 487.3 1.165 472.8 12.92 466.7L171.1 384L12.92 301.3C1.165 295.2-3.411 280.7 2.704 268.9V268.9z"/></svg>