<svg xmlns="http://www.w3.org/2000/svg" viewBox="0 0 640 512"><!--! Font Awesome Pro 6.1.1 by @fontawesome - https://fontawesome.com License - https://fontawesome.com/license (Commercial License) Copyright 2022 Fonticons, Inc. --><path d="M64 32L64.62 32.01C69.78 32.06 74.91 32.33 80 32.83C133.7 38.08 182.5 67.95 211.4 114.3L230.3 144.5C261.2 193.1 315.4 224 373.7 224C397.1 224 416 205.1 416 181.7V136C416 113.9 433.9 96 456 96H584C597.3 96 608 106.7 608 120C608 133.3 597.3 144 584 144H560V256C560 324 506.1 379.6 440 383.8V432H560C577.7 432 592 417.7 592 400V384C592 370.7 602.7 360 616 360C629.3 360 640 370.7 640 384V400C640 444.2 604.2 480 560 480H56C42.75 480 32 469.3 32 456C32 442.7 42.75 432 56 432H136V381.8C76.78 370.5 32 318.5 32 256V80H24C10.75 80 0 69.25 0 56C0 42.75 10.75 32 24 32L64 32zM392 432V384H184V432H392zM512 256V144H464V181.7C464 231.6 423.6 272 373.7 272C298.9 272 229.3 233.4 189.6 169.1L170.7 139.7C150.5 107.4 117.2 86.17 79.1 81.15V256C79.1 300.2 115.8 336 159.1 336H432C476.2 336 512 300.2 512 256H512z"/></svg>