<svg xmlns="http://www.w3.org/2000/svg" viewBox="0 0 512 512"><!--! Font Awesome Pro 6.0.0-beta3 by @fontawesome - https://fontawesome.com License - https://fontawesome.com/license (Commercial License) Copyright 2021 Fonticons, Inc. --><path d="M488 392H251.9C241.7 359.6 211.8 336 176 336s-65.69 23.62-75.93 56H24C10.75 392 0 402.7 0 416s10.75 24 24 24h76.07C110.3 472.4 140.2 496 176 496s65.69-23.62 75.93-56H488c13.25 0 24-10.75 24-24S501.3 392 488 392zM176 448c-17.64 0-32-14.36-32-32s14.36-32 32-32s32 14.36 32 32S193.6 448 176 448zM488 232h-76.07C401.7 199.6 371.8 176 336 176s-65.69 23.62-75.93 56H24C10.75 232 0 242.7 0 256s10.75 24 24 24h236.1C270.3 312.4 300.2 336 336 336s65.69-23.62 75.93-56H488C501.3 280 512 269.3 512 256S501.3 232 488 232zM336 288c-17.64 0-32-14.36-32-32s14.36-32 32-32s32 14.36 32 32S353.6 288 336 288zM24 120h108.1C142.3 152.4 172.2 176 208 176s65.69-23.62 75.93-56H488C501.3 120 512 109.3 512 96s-10.75-24-24-24h-204.1C273.7 39.62 243.8 16 208 16S142.3 39.62 132.1 72H24C10.75 72 0 82.75 0 96S10.75 120 24 120zM208 64c17.64 0 32 14.36 32 32s-14.36 32-32 32s-32-14.36-32-32S190.4 64 208 64z"/></svg>