<svg xmlns="http://www.w3.org/2000/svg" viewBox="0 0 640 512"><!--! Font Awesome Pro 6.1.1 by @fontawesome - https://fontawesome.com License - https://fontawesome.com/license (Commercial License) Copyright 2022 Fonticons, Inc. --><path d="M616 368h-528C74.8 368 64 378.8 64 391.1S74.8 416 87.1 416h528c13.2 0 24-10.8 24-23.1S629.2 368 616 368zM136 464H23.1C10.8 464 0 474.8 0 487.1S10.8 512 23.1 512H136C149.2 512 160 501.2 160 488S149.2 464 136 464zM552 464H231.1C218.8 464 208 474.8 208 487.1S218.8 512 231.1 512H552c13.2 0 24-10.8 24-23.1S565.2 464 552 464zM144 288h113C285 309 317.8 320 352 320s67.13-11 95-32H512c70.63 0 128-57.38 128-128s-57.38-128-128-128c-17.75 0-35.38 3.75-51.75 11C430.8 15.5 392.2 0 352 0c-40.13 0-77.75 14.88-106.9 41.5C218.4 15.25 182.2 0 144 0c-79.38 0-144 64.62-144 144S64.62 288 144 288zM144 48c25.38 0 49.25 9.75 67.25 27.75l32.5 32L277.4 77C297.9 58.25 324.4 48 352 48c27.88 0 54.75 10.75 75.63 30.12l23.13 21.63l29-12.88C490.1 82.25 500.9 80 512 80c44.13 0 80 35.88 80 80S556.1 240 512 240h-81l-12.75 9.625C398.4 264.5 376.1 272 352 272S305.6 264.5 285.8 249.6L273 240H144c-52.88 0-96-43.12-96-96S91.12 48 144 48z"/></svg>