<svg xmlns="http://www.w3.org/2000/svg" viewBox="0 0 640 512"><!--! Font Awesome Pro 6.0.0-beta3 by @fontawesome - https://fontawesome.com License - https://fontawesome.com/license (Commercial License) Copyright 2021 Fonticons, Inc. --><path d="M503.8 141.6C479.8 125 464 99.25 464 70.25V23.1C464 10.8 453.2 0 440 0S416 10.8 416 23.1V74.38c0 43.75 24.62 81.62 60.25 106.7C498.8 196.8 512 222.2 512 249.8v14.25C512 277.2 522.8 288 536 288c13.2 0 24-10.8 24-23.1V249.8C560 206.4 539 166.2 503.8 141.6zM553.3 87.13C547.6 83.25 544 77.13 544 70.25v-46.25C544 10.8 533.2 0 520 0c-13.2 0-24 10.8-24 23.1V70.25c0 22 10.25 43.5 28.62 55.5C566.8 153 592 199.5 592 249.8v14.25C592 277.2 602.8 288 616 288C629.2 288 640 277.2 640 264V249.8C640 184.2 607.6 123.5 553.3 87.13zM616 352c-13.2 0-24 10.8-24 23.1v112C592 501.2 602.8 512 616 512c13.2 0 24-10.8 24-23.1V375.1C640 362.8 629.2 352 616 352zM536 352C522.8 352 512 362.8 512 376v112c0 13.2 10.8 24 24 24c13.2 0 24-10.8 24-23.1V375.1C560 362.8 549.2 352 536 352zM456 352H48C21.5 352 0 373.5 0 400v64C0 490.5 21.5 512 48 512h408c13.25 0 24-10.75 24-24v-112C480 362.8 469.2 352 456 352zM432 464H224v-64h208V464z"/></svg>