<svg xmlns="http://www.w3.org/2000/svg" viewBox="0 0 512 512"><!--! Font Awesome Pro 6.0.0-beta3 by @fontawesome - https://fontawesome.com License - https://fontawesome.com/license (Commercial License) Copyright 2021 Fonticons, Inc. --><path d="M255.1 192c-35.38 0-63.1 28.63-63.1 63.1c0 35.37 28.63 63.99 64 63.99S320 291.4 320 256C320 220.6 291.4 192 255.1 192zM256 272C247.2 272 240 264.8 240 256c0-8.838 7.164-16 16-16s16 7.162 16 16C272 264.8 264.8 272 256 272zM470.4 395.1c11.38 23.5 4.747 51.88-15.75 68.13s-49.5 16.12-69.87-.25s-26.75-44.62-15.37-68.24c11.5-23.5 37.74-36 63.24-30c49.75-80.24 40-187.1-29.5-256.7c-59.88-59.74-150-77.4-228-44.53C170.9 51.24 163.8 39.51 154.1 29.76c-2-2.125-4.402-3.626-6.527-5.374c97.5-45.1 213.3-25.75 289.5 50.62C524.3 162.2 535.4 296.6 470.4 395.1zM357.9 482.2c2 2.125 4.404 3.625 6.529 5.375c-97.5 45.1-213.3 25.75-289.4-50.62C-12.28 349.8-23.38 215.4 41.62 116C30.25 92.53 36.88 64.14 57.38 47.89c20.5-16.25 49.5-16.13 69.87 .25c20.38 16.37 26.75 44.62 15.37 68.24c-11.5 23.5-37.74 35.1-63.24 29.1c-49.75 80.24-40 187.1 29.5 256.7c59.88 59.74 150 77.4 228 44.53C341.1 460.8 348.2 472.5 357.9 482.2zM391.8 120.3c-16.62-16.62-42.01-17.62-60.76-4.743c-23.5-12.5-49.1-19.51-74.97-19.51c-72.38 0-135.8 48.63-154.5 118.6c-18.75 69.87 11.75 143.7 74.5 179.1c62.75 36.12 142 25.75 193.1-25.49c51-50.1 59.62-127.6 27.37-188.1C409.4 162.3 408.4 136.9 391.8 120.3zM335.2 335.2c-40.88 41.62-106.9 45.01-151.9 7.891S129.3 240.5 162.5 192.5c33.13-47.1 97.49-62.6 148.2-33.73c1 10.75 5.011 21.23 13.14 29.35c8.125 8.123 18.63 12.13 29.26 13.13C377.1 244 371.5 298.9 335.2 335.2z"/></svg>