<svg xmlns="http://www.w3.org/2000/svg" viewBox="0 0 512 512"><!--! Font Awesome Pro 6.0.0-beta3 by @fontawesome - https://fontawesome.com License - https://fontawesome.com/license (Commercial License) Copyright 2021 Fonticons, Inc. --><path d="M324.4 103.1L384 128l24.88 59.63C410.3 190.3 413 192 416 192s5.75-1.75 7.125-4.375L448 128l59.63-24.88C510.3 101.8 512 99 512 96s-1.75-5.75-4.375-7.125L448 64l-24.88-59.62C421.8 1.75 419 0 416 0s-5.75 1.75-7.125 4.375L384 64l-59.63 24.88C321.8 90.25 320 93 320 96S321.8 101.8 324.4 103.1zM507.6 408.9L448 384l-24.88-59.63C421.8 321.8 419 320 416 320s-5.75 1.75-7.125 4.375L384 384l-59.63 24.88C321.8 410.3 320 413 320 416s1.75 5.75 4.375 7.125L384 448l24.88 59.63C410.3 510.3 413 512 416 512s5.75-1.75 7.125-4.375L448 448l59.63-24.88C510.3 421.8 512 419 512 416S510.3 410.3 507.6 408.9zM384 256c0-9.125-5.125-17.38-13.25-21.5l-104.9-52.38L213.5 77.25c-8.125-16.25-34.88-16.25-43 0L118.1 182.1L13.25 234.5C5.125 238.6 0 246.9 0 256s5.125 17.38 13.25 21.5l104.9 52.38l52.38 104.9C174.6 442.9 182.9 447.9 192 447.9s17.38-5.075 21.5-13.2l52.38-104.9l104.9-52.38C378.9 273.4 384 265.1 384 256zM237.3 290.5C232.6 292.9 228.9 296.6 226.5 301.3L192 370.4L157.5 301.3C155.1 296.6 151.4 292.9 146.8 290.5L77.63 256l69.13-34.5C151.4 219.1 155.1 215.4 157.5 210.8L192 141.6l34.5 69.13C228.9 215.4 232.6 219.1 237.3 221.5L306.4 256L237.3 290.5z"/></svg>