<svg xmlns="http://www.w3.org/2000/svg" viewBox="0 0 512 512"><!--! Font Awesome Pro 6.1.1 by @fontawesome - https://fontawesome.com License - https://fontawesome.com/license (Commercial License) Copyright 2022 Fonticons, Inc. --><path d="M327.5 85.19L384 64L405.2 7.491C406.9 2.985 411.2 0 416 0C420.8 0 425.1 2.985 426.8 7.491L448 64L504.5 85.19C509 86.88 512 91.19 512 96C512 100.8 509 105.1 504.5 106.8L448 128L426.8 184.5C425.1 189 420.8 192 416 192C411.2 192 406.9 189 405.2 184.5L384 128L327.5 106.8C322.1 105.1 320 100.8 320 96C320 91.19 322.1 86.88 327.5 85.19V85.19zM176 73.29C178.6 67.63 184.3 64 190.6 64C196.8 64 202.5 67.63 205.1 73.29L257.8 187.3L371.8 240C377.5 242.6 381.1 248.3 381.1 254.6C381.1 260.8 377.5 266.5 371.8 269.1L257.8 321.8L205.1 435.8C202.5 441.5 196.8 445.1 190.6 445.1C184.3 445.1 178.6 441.5 176 435.8L123.3 321.8L9.292 269.1C3.627 266.5 0 260.8 0 254.6C0 248.3 3.627 242.6 9.292 240L123.3 187.3L176 73.29zM166.9 207.5C162.1 217.8 153.8 226.1 143.5 230.9L92.32 254.6L143.5 278.2C153.8 282.1 162.1 291.3 166.9 301.6L190.6 352.8L214.2 301.6C218.1 291.3 227.3 282.1 237.6 278.2L288.8 254.6L237.6 230.9C227.3 226.1 218.1 217.8 214.2 207.5L190.6 156.3L166.9 207.5zM405.2 327.5C406.9 322.1 411.2 320 416 320C420.8 320 425.1 322.1 426.8 327.5L448 384L504.5 405.2C509 406.9 512 411.2 512 416C512 420.8 509 425.1 504.5 426.8L448 448L426.8 504.5C425.1 509 420.8 512 416 512C411.2 512 406.9 509 405.2 504.5L384 448L327.5 426.8C322.1 425.1 320 420.8 320 416C320 411.2 322.1 406.9 327.5 405.2L384 384L405.2 327.5z"/></svg>