<svg xmlns="http://www.w3.org/2000/svg" viewBox="0 0 384 512"><!--! Font Awesome Pro 6.0.0-beta3 by @fontawesome - https://fontawesome.com License - https://fontawesome.com/license (Commercial License) Copyright 2021 Fonticons, Inc. --><path d="M320 0H64C28.65 0 0 28.65 0 64v384c0 35.35 28.65 64 64 64h256c35.35 0 64-28.65 64-64V64C384 28.65 355.3 0 320 0zM336 448c0 8.822-7.178 16-16 16H64c-8.822 0-16-7.178-16-16V64c0-8.822 7.178-16 16-16h256c8.822 0 16 7.178 16 16V448zM192 160c22.09 0 40-17.91 40-40S214.1 80 192 80S152 97.91 152 120S169.9 160 192 160zM192 224c-57.44 0-104 46.56-104 104S134.6 432 192 432s104-46.56 104-104S249.4 224 192 224zM192 384c-30.88 0-56-25.12-56-56C136 297.1 161.1 272 192 272s56 25.12 56 56C248 358.9 222.9 384 192 384z"/></svg>