<svg xmlns="http://www.w3.org/2000/svg" viewBox="0 0 576 512"><!--! Font Awesome Pro 6.0.0-beta3 by @fontawesome - https://fontawesome.com License - https://fontawesome.com/license (Commercial License) Copyright 2021 Fonticons, Inc. --><path d="M569.3 239.5c-58.99-62.25-102.6-138.1-126.2-221.1C439.5 5.008 426.9-2.492 414.1 .7581c-82.49 20.75-169.7 20.75-252.2 0C149-2.367 136.5 5.008 132.9 17.51c-23.62 82.1-67.24 159.7-126.2 221.1c-8.874 9.25-8.874 23.75 0 32.1c58.99 62.25 102.6 138.1 126.2 221.1c3.625 12.5 16.12 19.87 28.1 16.75c82.49-20.75 169.7-20.75 252.2 0C416.1 511.8 418.1 512 419.1 512c10.5 0 20.12-6.875 23.12-17.5c23.62-82.1 67.24-159.7 126.2-221.1C578.2 263.3 578.2 248.8 569.3 239.5zM500.6 232h-45.99c-27.75-31.87-48.87-69.5-61.87-110.2l22.5-39.12C436.2 136.4 464.1 186.8 500.6 232zM246.6 232l-64.04-.0402c12.25-17.75 22.87-36.5 31.75-56.25L246.6 232zM254.1 148.8c22.5 2.25 45.25 2.25 67.74 0L287.1 207.8L254.1 148.8zM246.6 280l-32.17 56.2c-8.999-19.62-19.62-38.5-31.87-56.25L246.6 280zM287.1 304.3l33.87 58.99C310.6 362.1 299.4 361.5 288 361.5s-22.62 .625-33.87 1.75L287.1 304.3zM329.4 280l64.04-.0462c-12.25 17.75-22.87 36.62-31.87 56.25L329.4 280zM329.4 232l32.33-56.28c8.874 19.75 19.5 38.5 31.75 56.25L329.4 232zM374.6 56.88L352.7 94.88c-42.62 9.75-86.87 9.75-129.5 0L201.4 56.88C258.8 65.76 317.2 65.76 374.6 56.88zM160.8 82.63l22.5 39.12c-12.1 40.75-34.12 78.37-61.87 110.2H75.4C111 186.8 139.8 136.4 160.8 82.63zM75.4 280h45.1c27.75 31.87 48.87 69.5 61.87 110.2L160.8 429.5C139.8 375.6 111 325.3 75.4 280zM201.4 455.1l21.87-37.1c42.62-9.75 86.87-9.75 129.5 0l21.87 37.1C345.9 450.8 316.1 447.8 288 447.8S230.1 450.8 201.4 455.1zM415.2 429.5l-22.5-39.25c12.1-40.75 34.12-78.37 61.87-110.2h45.99C464.1 325.3 436.2 375.6 415.2 429.5z"/></svg>