<svg xmlns="http://www.w3.org/2000/svg" viewBox="0 0 512 512"><!--! Font Awesome Pro 6.1.1 by @fontawesome - https://fontawesome.com License - https://fontawesome.com/license (Commercial License) Copyright 2022 Fonticons, Inc. --><path d="M288 32C288 49.67 273.7 64 256 64C238.3 64 224 49.67 224 32C224 14.33 238.3 0 256 0C273.7 0 288 14.33 288 32zM288 480C288 497.7 273.7 512 256 512C238.3 512 224 497.7 224 480C224 462.3 238.3 448 256 448C273.7 448 288 462.3 288 480zM480 224C497.7 224 512 238.3 512 256C512 273.7 497.7 288 480 288C462.3 288 448 273.7 448 256C448 238.3 462.3 224 480 224zM32 288C14.33 288 0 273.7 0 256C0 238.3 14.33 224 32 224C49.67 224 64 238.3 64 256C64 273.7 49.67 288 32 288zM74.98 391.8C87.48 379.3 107.7 379.3 120.2 391.8C132.7 404.3 132.7 424.5 120.2 437C107.7 449.5 87.48 449.5 74.98 437C62.48 424.5 62.48 404.3 74.98 391.8zM391.8 437C379.3 424.5 379.3 404.3 391.8 391.8C404.3 379.3 424.5 379.3 437 391.8C449.5 404.3 449.5 424.5 437 437C424.5 449.5 404.3 449.5 391.8 437zM120.2 74.98C132.7 87.48 132.7 107.7 120.2 120.2C107.7 132.7 87.48 132.7 74.98 120.2C62.48 107.7 62.48 87.48 74.98 74.98C87.48 62.49 107.7 62.49 120.2 74.98z"/></svg>