<svg xmlns="http://www.w3.org/2000/svg" viewBox="0 0 512 512"><!--! Font Awesome Pro 6.1.1 by @fontawesome - https://fontawesome.com License - https://fontawesome.com/license (Commercial License) Copyright 2022 Fonticons, Inc. --><path d="M504.1 367c9.375 9.375 9.375 24.56 0 33.94l-80 80C420.3 485.7 414.2 488 408 488s-12.28-2.344-16.97-7.031c-9.375-9.375-9.375-24.56 0-33.94L430.1 408H320c-6.375 0-12.47-2.531-16.97-7.031L182.1 280H24C10.75 280 0 269.3 0 256s10.75-24 24-24h158.1l120.1-120.1C307.5 106.5 313.6 104 320 104h110.1l-39.03-39.03c-9.375-9.375-9.375-24.56 0-33.94s24.56-9.375 33.94 0l80 80c9.375 9.375 9.375 24.56 0 33.94l-80 80C420.3 229.7 414.2 232 408 232s-12.28-2.344-16.97-7.031c-9.375-9.375-9.375-24.56 0-33.94L430.1 152h-100.1l-104 104l104 104h100.1l-39.03-39.03c-9.375-9.375-9.375-24.56 0-33.94s24.56-9.375 33.94 0L504.1 367z"/></svg>