<svg xmlns="http://www.w3.org/2000/svg" viewBox="0 0 384 512"><!--! Font Awesome Pro 6.0.0-beta3 by @fontawesome - https://fontawesome.com License - https://fontawesome.com/license (Commercial License) Copyright 2021 Fonticons, Inc. --><path d="M88 384C74.75 384 64 394.8 64 408c0 13.21 10.82 24 24 24s24-10.69 24-24C112 394.8 101.2 384 88 384zM24 448C10.75 448 0 458.8 0 472s10.82 24 24 24s24-10.79 24-24C48 458.8 37.25 448 24 448zM136 448c-13.25 0-24 10.75-24 24s10.82 24 24 24S160 485.2 160 472C160 458.8 149.2 448 136 448zM72 232C72 245.2 82.75 256 96 256h192c13.25 0 24-10.75 24-24S301.2 208 288 208h-72V56C216 42.75 205.2 32 192 32S168 42.75 168 56V208H96C82.75 208 72 218.8 72 232zM19.52 119.6L128 140.3V91.39L48 76.13V0H0v96C0 107.5 8.193 117.4 19.52 119.6zM224 344c0 13.21 10.75 24 24 24s24-10.79 24-24c0-13.25-10.75-24-24-24S224 330.8 224 344zM360 448c-13.25 0-24 10.78-24 24c0 13.21 10.75 24 24 24S384 485.2 384 472C384 458.8 373.2 448 360 448zM336 0v76.13L256 91.39v48.86l108.5-20.67C375.8 117.4 384 107.5 384 96V0H336zM296 384c-13.25 0-24 10.78-24 24c0 13.31 10.75 24 24 24S320 421.3 320 408S309.2 384 296 384zM136 320c-13.25 0-24 10.75-24 24s10.82 24 24 24S160 357.2 160 344C160 330.8 149.2 320 136 320zM248 448C234.8 448 224 458.8 224 472c0 13.21 10.75 24 24 24s24-10.79 24-24C272 458.8 261.2 448 248 448zM192 384c-13.25 0-24 10.75-24 24S178.8 432 192 432s24-10.69 24-24C216 394.8 205.2 384 192 384z"/></svg>