<svg xmlns="http://www.w3.org/2000/svg" viewBox="0 0 512 512"><!--! Font Awesome Pro 6.0.0-beta3 by @fontawesome - https://fontawesome.com License - https://fontawesome.com/license (Commercial License) Copyright 2021 Fonticons, Inc. --><path d="M24 104C10.75 104 0 114.8 0 128s10.75 24 24 24S48 141.3 48 128S37.25 104 24 104zM24 208C10.75 208 0 218.8 0 232S10.75 256 24 256S48 245.3 48 232S37.25 208 24 208zM88 96C101.3 96 112 85.25 112 72S101.3 48 88 48S64 58.75 64 72S74.75 96 88 96zM360 152C373.3 152 384 141.3 384 128s-10.75-24-24-24S336 114.8 336 128S346.8 152 360 152zM24 0C10.75 0 0 10.75 0 24S10.75 48 24 48S48 37.25 48 24S37.25 0 24 0zM152 152C165.3 152 176 141.3 176 128S165.3 104 152 104S128 114.8 128 128S138.8 152 152 152zM488 48C501.3 48 512 37.25 512 24S501.3 0 488 0S464 10.75 464 24S474.8 48 488 48zM488 208c-13.25 0-24 10.75-24 24S474.8 256 488 256S512 245.3 512 232S501.3 208 488 208zM488 104c-13.25 0-24 10.75-24 24s10.75 24 24 24S512 141.3 512 128S501.3 104 488 104zM424 48c-13.25 0-24 10.75-24 24S410.8 96 424 96S448 85.25 448 72S437.3 48 424 48zM424 160c-13.25 0-24 10.75-24 24s10.75 24 24 24S448 197.3 448 184S437.3 160 424 160zM112 184C112 170.8 101.3 160 88 160S64 170.8 64 184S74.75 208 88 208S112 197.3 112 184zM398.3 256H280V88c0-13.26-10.75-24-24-24S232 74.74 232 88V256H113.8C107.1 256 100.9 259.8 97.88 265.9c-3 6-2.375 13.12 1.75 18.62l67.5 78.13L192 387.5V496C192 504.8 199.2 512 208 512h96c8.836 0 16-7.164 16-16v-108.5l24.88-24.88l67.5-78.13c4.125-5.5 4.75-12.62 1.75-18.62C411.1 259.8 404.9 256 398.3 256zM272 367.6V464h-32v-96.38L179.9 304h152.3L272 367.6z"/></svg>