<svg xmlns="http://www.w3.org/2000/svg" viewBox="0 0 576 512"><!--! Font Awesome Pro 6.1.1 by @fontawesome - https://fontawesome.com License - https://fontawesome.com/license (Commercial License) Copyright 2022 Fonticons, Inc. --><path d="M576 24c0 13.25-10.75 24-24 24h-213.1L231.3 493.6c-2.406 9.906-10.81 17.25-20.94 18.25c-.8125 .0938-1.635 .1348-2.417 .1348c-9.25 0-17.77-5.354-21.74-13.85L80.72 272H24C10.75 272 0 261.3 0 248S10.75 224 24 224L96 224c9.312 0 17.81 5.396 21.75 13.83l83 177.9l95.91-397.3C299.3 7.594 308.9 .0098 320 .0098L552 0C565.3 0 576 10.75 576 24z"/></svg>