<svg xmlns="http://www.w3.org/2000/svg" viewBox="0 0 448 512"><!--! Font Awesome Pro 6.0.0-beta3 by @fontawesome - https://fontawesome.com License - https://fontawesome.com/license (Commercial License) Copyright 2021 Fonticons, Inc. --><path d="M384 32H64C28.65 32 0 60.65 0 96v320c0 35.35 28.65 64 64 64h320c35.35 0 64-28.65 64-64V96C448 60.65 419.3 32 384 32zM400 416c0 8.836-7.162 16-16 16H64c-8.836 0-16-7.164-16-16V96c0-8.836 7.164-16 16-16h320c8.838 0 16 7.164 16 16V416zM300.8 230.4C329.1 230.4 352 207.5 352 179.2S329.1 128 300.8 128c-27.83 0-50.37 22.24-51.07 49.9L176.8 214.4C168.4 208.4 158.3 204.8 147.2 204.8C118.9 204.8 96 227.7 96 256s22.92 51.2 51.2 51.2c11.06 0 21.24-3.592 29.61-9.559l72.92 36.46C250.4 361.8 272.1 384 300.8 384C329.1 384 352 361.1 352 332.8c0-28.28-22.92-51.2-51.2-51.2c-11.07 0-21.25 3.596-29.62 9.566L200.8 256l70.33-35.17C279.6 226.8 289.7 230.4 300.8 230.4z"/></svg>