<svg xmlns="http://www.w3.org/2000/svg" viewBox="0 0 448 512"><!--! Font Awesome Pro 6.0.0-beta3 by @fontawesome - https://fontawesome.com License - https://fontawesome.com/license (Commercial License) Copyright 2021 Fonticons, Inc. --><path d="M311.4 152.2C305.9 146.7 298.7 144 291.6 144s-14.33 2.734-19.8 8.203L131.7 292.3C127.1 296 125.4 300.7 124.2 305.9l-12.08 53.71C111.3 364 114.7 368 118.1 368c.459 0 .9258-.0449 1.398-.1406c0 0 37.02-7.854 53.7-11.78c5.049-1.188 9.566-3.729 13.23-7.395l140.5-140.5c10.93-10.93 10.89-28.62-.0391-39.56L311.4 152.2zM384 32H64C28.65 32 0 60.65 0 96v320c0 35.35 28.65 64 64 64h320c35.35 0 64-28.65 64-64V96C448 60.65 419.3 32 384 32zM400 416c0 8.822-7.178 16-16 16H64c-8.822 0-16-7.178-16-16V96c0-8.822 7.178-16 16-16h320c8.822 0 16 7.178 16 16V416z"/></svg>