<svg xmlns="http://www.w3.org/2000/svg" viewBox="0 0 448 512"><!--! Font Awesome Pro 6.1.1 by @fontawesome - https://fontawesome.com License - https://fontawesome.com/license (Commercial License) Copyright 2022 Fonticons, Inc. --><path d="M384 32H64C28.65 32 0 60.65 0 96v320c0 35.35 28.65 64 64 64h320c35.35 0 64-28.65 64-64V96C448 60.65 419.3 32 384 32zM400 416c0 8.822-7.178 16-16 16H64c-8.822 0-16-7.178-16-16V96c0-8.822 7.178-16 16-16h320c8.822 0 16 7.178 16 16V416zM313.1 135.2c-9.266-9.422-24.48-9.547-33.94-.25L176 236.5V152C176 138.8 165.3 128 152 128S128 138.8 128 152v208C128 373.3 138.8 384 152 384s24-10.75 24-24V303.9l30.89-30.42l69.38 100.2C280.9 380.4 288.4 384 296 384c4.719 0 9.484-1.375 13.64-4.266c10.91-7.547 13.62-22.5 6.078-33.39l-72-104c-.7324-1.057-1.805-1.662-2.666-2.564l71.78-70.69C322.3 159.8 322.4 144.6 313.1 135.2z"/></svg>