<svg xmlns="http://www.w3.org/2000/svg" viewBox="0 0 448 512"><!--! Font Awesome Pro 6.0.0-beta3 by @fontawesome - https://fontawesome.com License - https://fontawesome.com/license (Commercial License) Copyright 2021 Fonticons, Inc. --><path d="M384 32H64C28.65 32 0 60.65 0 96v320c0 35.35 28.65 64 64 64h320c35.35 0 64-28.65 64-64V96C448 60.65 419.3 32 384 32zM400 416c0 8.822-7.178 16-16 16H64c-8.822 0-16-7.178-16-16V96c0-8.822 7.178-16 16-16h320c8.822 0 16 7.178 16 16V416zM224 128C171.1 128 128 171.1 128 224c0 43.86 29.73 80.53 69.98 91.96l-29.76 25.94c-9.969 8.719-11.03 23.88-2.312 33.88C170.7 381.2 177.3 384 184 384c5.594 0 11.22-1.938 15.78-5.906l79.94-69.69C292.5 297.3 320 265.3 320 224C320 171.1 276.9 128 224 128zM270 237.7C264 257.9 245.1 272 224 272C197.5 272 176 250.5 176 224S197.5 176 224 176s48 21.53 48 48C272 228.7 271.3 233.3 270 237.7z"/></svg>