<svg xmlns="http://www.w3.org/2000/svg" viewBox="0 0 448 512"><!--! Font Awesome Pro 6.1.1 by @fontawesome - https://fontawesome.com License - https://fontawesome.com/license (Commercial License) Copyright 2022 Fonticons, Inc. --><path d="M193.9 192h97.34c13.25 0 24-10.75 24-24s-10.75-24-24-24H136C122.8 144 112 154.8 112 168v155.3c0 13.25 10.75 24 24 24s24-10.75 24-24V225.9l135 135C299.7 365.7 305.8 368 312 368s12.28-2.344 16.97-7.031c9.375-9.375 9.375-24.56 0-33.94L193.9 192zM384 32H64C28.65 32 0 60.66 0 96v320c0 35.34 28.65 64 64 64h320c35.35 0 64-28.66 64-64V96C448 60.66 419.3 32 384 32zM400 416c0 8.82-7.178 16-16 16H64c-8.822 0-16-7.18-16-16V96c0-8.82 7.178-16 16-16h320c8.822 0 16 7.18 16 16V416z"/></svg>