<svg xmlns="http://www.w3.org/2000/svg" viewBox="0 0 448 512"><!--! Font Awesome Pro 6.1.1 by @fontawesome - https://fontawesome.com License - https://fontawesome.com/license (Commercial License) Copyright 2022 Fonticons, Inc. --><path d="M241.6 135.7C237 130.8 230.7 128 223.1 128S210.1 130.8 206.4 135.7l-104 112c-9 9.719-8.438 24.91 1.25 33.94c9.719 9 24.88 8.469 33.94-1.25l62.41-67.21V360c0 13.25 10.76 24 24.01 24s23.99-10.75 23.99-24V213.1l62.41 67.21c9.062 9.719 24.22 10.25 33.94 1.25c9.688-9.031 10.25-24.22 1.25-33.94L241.6 135.7zM384 32H64C28.65 32 0 60.66 0 96v320c0 35.34 28.65 64 64 64h320c35.35 0 64-28.66 64-64V96C448 60.66 419.3 32 384 32zM400 416c0 8.82-7.178 16-16 16H64c-8.822 0-16-7.18-16-16V96c0-8.82 7.178-16 16-16h320c8.822 0 16 7.18 16 16V416z"/></svg>