<svg xmlns="http://www.w3.org/2000/svg" viewBox="0 0 448 512"><!--! Font Awesome Pro 6.0.0-beta3 by @fontawesome - https://fontawesome.com License - https://fontawesome.com/license (Commercial License) Copyright 2021 Fonticons, Inc. --><path d="M342.5 303.6l-54.24-23.25c-6.391-2.766-13.9-.9062-18.24 4.484l-22.02 26.91c-34.63-17-62.77-45.14-79.77-79.75l26.91-22.05c5.375-4.391 7.211-11.83 4.492-18.22L176.4 137.5C173.4 130.5 165.8 126.7 158.5 128.4L108.1 140c-7.125 1.625-12.11 7.891-12.11 15.22c0 126.1 102.6 228.8 228.7 228.8c7.336 0 13.6-4.984 15.24-12.11l11.62-50.39C353.3 314.2 349.5 306.6 342.5 303.6zM384 32H64C28.65 32 0 60.66 0 96v320c0 35.34 28.65 64 64 64h320c35.35 0 64-28.66 64-64V96C448 60.66 419.3 32 384 32zM400 416c0 8.82-7.178 16-16 16H64c-8.822 0-16-7.18-16-16V96c0-8.82 7.178-16 16-16h320c8.822 0 16 7.18 16 16V416z"/></svg>