<svg xmlns="http://www.w3.org/2000/svg" viewBox="0 0 448 512"><!--! Font Awesome Pro 6.1.1 by @fontawesome - https://fontawesome.com License - https://fontawesome.com/license (Commercial License) Copyright 2022 Fonticons, Inc. --><path d="M384 32H64C28.65 32 0 60.65 0 96v320c0 35.35 28.65 64 64 64h320c35.35 0 64-28.65 64-64V96C448 60.65 419.3 32 384 32zM400 416c0 8.822-7.178 16-16 16H64c-8.822 0-16-7.178-16-16V96c0-8.822 7.178-16 16-16h320c8.822 0 16 7.178 16 16V416zM296 176C309.3 176 320 165.3 320 152S309.3 128 296 128h-144C138.8 128 128 138.8 128 152S138.8 176 152 176h48v160h-48C138.8 336 128 346.8 128 360S138.8 384 152 384h144c13.25 0 24-10.75 24-24s-10.75-24-24-24h-48v-160H296z"/></svg>