<svg xmlns="http://www.w3.org/2000/svg" viewBox="0 0 448 512"><!--! Font Awesome Pro 6.0.0-beta3 by @fontawesome - https://fontawesome.com License - https://fontawesome.com/license (Commercial License) Copyright 2021 Fonticons, Inc. --><path d="M384 32H64C28.65 32 0 60.66 0 96v320c0 35.34 28.65 64 64 64h320c35.35 0 64-28.66 64-64V96C448 60.66 419.3 32 384 32zM400 416c0 8.824-7.178 16-16 16H64c-8.822 0-16-7.176-16-16V96c0-8.824 7.178-16 16-16h320c8.822 0 16 7.176 16 16V416zM240 256c0-6.719-2.828-13.16-7.781-17.69l-96-88C126.5 141.4 111.3 142 102.3 151.8S94.02 176.8 103.8 185.7L180.5 256l-76.7 70.31c-9.766 8.938-10.42 24.12-1.469 33.91C107 365.4 113.5 368 120 368c5.797 0 11.61-2.094 16.22-6.312l96-88C237.2 269.2 240 262.7 240 256zM328 336h-112C202.8 336 192 346.8 192 360S202.8 384 216 384h112c13.25 0 24-10.75 24-24S341.3 336 328 336z"/></svg>