<svg xmlns="http://www.w3.org/2000/svg" viewBox="0 0 448 512"><!--! Font Awesome Pro 6.1.1 by @fontawesome - https://fontawesome.com License - https://fontawesome.com/license (Commercial License) Copyright 2022 Fonticons, Inc. --><path d="M250.2 226.4L188.4 219.2L196.6 176H280c13.25 0 24-10.75 24-24S293.3 128 280 128H176.7C165.2 128 155.3 136.2 153.2 147.5l-16.73 88C135.2 242.1 136.7 248.8 140.6 254.2c3.953 5.375 9.938 8.875 16.56 9.656l87.39 10.28C260.2 275.9 272 289.2 272 304.9C272 322.1 258.1 336 240.1 336H191.4c-7.547 0-14.2-4.812-16.59-11.97C170.6 311.5 156.1 304.8 144.4 308.8c-12.58 4.188-19.38 17.78-15.19 30.38C138.2 366 163.1 384 191.4 384h49.59C284.5 384 320 348.5 320 304.9C320 264.8 289.1 231.1 250.2 226.4zM384 32H64C28.65 32 0 60.65 0 96v320c0 35.35 28.65 64 64 64h320c35.35 0 64-28.65 64-64V96C448 60.65 419.3 32 384 32zM400 416c0 8.822-7.178 16-16 16H64c-8.822 0-16-7.178-16-16V96c0-8.822 7.178-16 16-16h320c8.822 0 16 7.178 16 16V416z"/></svg>