<svg xmlns="http://www.w3.org/2000/svg" viewBox="0 0 448 512"><!--! Font Awesome Pro 6.1.1 by @fontawesome - https://fontawesome.com License - https://fontawesome.com/license (Commercial License) Copyright 2022 Fonticons, Inc. --><path d="M352 176C352 202.5 330.5 224 304 224C294.2 224 285.1 221.1 277.5 216.1L197.7 256L277.5 295.9C285.1 290.9 294.2 288 304 288C330.5 288 352 309.5 352 336C352 362.5 330.5 384 304 384C278.5 384 257.6 364 256.1 338.9L170.5 296.1C162.9 301.1 153.8 304 144 304C117.5 304 96 282.5 96 256C96 229.5 117.5 208 144 208C153.8 208 162.9 210.9 170.5 215.9L256.1 173.1C257.6 147.1 278.5 128 304 128C330.5 128 352 149.5 352 176H352zM0 96C0 60.65 28.65 32 64 32H384C419.3 32 448 60.65 448 96V416C448 451.3 419.3 480 384 480H64C28.65 480 0 451.3 0 416V96zM48 96V416C48 424.8 55.16 432 64 432H384C392.8 432 400 424.8 400 416V96C400 87.16 392.8 80 384 80H64C55.16 80 48 87.16 48 96z"/></svg>