<svg xmlns="http://www.w3.org/2000/svg" viewBox="0 0 448 512"><!--! Font Awesome Pro 6.0.0-beta3 by @fontawesome - https://fontawesome.com License - https://fontawesome.com/license (Commercial License) Copyright 2021 Fonticons, Inc. --><path d="M384 32H64C28.65 32 0 60.65 0 96v320c0 35.35 28.65 64 64 64h320c35.35 0 64-28.65 64-64V96C448 60.65 419.3 32 384 32zM400 416c0 8.836-7.164 16-16 16H64c-8.836 0-16-7.164-16-16V96c0-8.838 7.164-16 16-16h320c8.836 0 16 7.162 16 16V416zM303 175L192 286.1L144.1 239c-9.375-9.375-24.56-9.375-33.94 0s-9.375 24.56 0 33.94l64 64C179.7 341.7 185.8 344 192 344s12.28-2.344 16.97-7.031l128-128c9.375-9.375 9.375-24.56 0-33.94S312.4 165.7 303 175z"/></svg>