<svg xmlns="http://www.w3.org/2000/svg" viewBox="0 0 448 512"><!--! Font Awesome Pro 6.1.1 by @fontawesome - https://fontawesome.com License - https://fontawesome.com/license (Commercial License) Copyright 2022 Fonticons, Inc. --><path d="M384 32H64C28.64 32 0 60.64 0 96v320c0 35.36 28.64 64 64 64h320c35.36 0 64-28.64 64-64V96C448 60.64 419.4 32 384 32zM400 416c0 8.832-7.168 16-16 16H64c-8.832 0-16-7.168-16-16V96c0-8.832 7.168-16 16-16h320c8.832 0 16 7.168 16 16V416zM224 128C153.3 128 96 185.3 96 256s57.31 128 128 128s128-57.31 128-128S294.7 128 224 128zM224 336c-44.19 0-80-35.81-80-80S179.8 176 224 176s80 35.81 80 80S268.2 336 224 336z"/></svg>