<svg xmlns="http://www.w3.org/2000/svg" viewBox="0 0 448 512"><!--! Font Awesome Pro 6.0.0-beta3 by @fontawesome - https://fontawesome.com License - https://fontawesome.com/license (Commercial License) Copyright 2021 Fonticons, Inc. --><path d="M312 240h-56L256 152C256 138.8 245.3 128 232 128h-16C202.8 128 192 138.8 192 152L192 240h-56c-9.531 0-18.16 5.656-22 14.38C110.2 263.1 111.9 273.3 118.4 280.3l88.75 96C211.7 381.2 218.1 384 224.8 384c7.781-.3125 13.25-2.875 17.75-7.844l87.25-96c6.406-7.031 8.031-17.19 4.188-25.88S321.5 240 312 240zM384 32H64C28.65 32 0 60.66 0 96v320c0 35.34 28.65 64 64 64h320c35.35 0 64-28.66 64-64V96C448 60.66 419.3 32 384 32zM400 416c0 8.82-7.178 16-16 16H64c-8.822 0-16-7.18-16-16V96c0-8.82 7.178-16 16-16h320c8.822 0 16 7.18 16 16V416z"/></svg>