<svg xmlns="http://www.w3.org/2000/svg" viewBox="0 0 512 512"><!--! Font Awesome Pro 6.0.0-beta3 by @fontawesome - https://fontawesome.com License - https://fontawesome.com/license (Commercial License) Copyright 2021 Fonticons, Inc. --><path d="M479.1 256c17.62 0 31.1-14.38 31.1-32V192c0-58.5-37.12-105.9-87.99-117.4V48c0-13.25-10.75-24-23.1-24c-55.37 0-88.74 42.75-106.5 73.25C264.1 43 206.1 0 147.7 0C66.25 0 0 66.25 0 147.8c0 69 47.62 127.1 111.7 143.2L102.9 309.4c-18.62 48.87-11.5 100.1 22.62 142.8C156.9 491.4 205.1 512 256.2 512h239.7c8.249 0 15.65-6.25 16.02-14.38C512.8 479.1 498.2 464 479.1 464H450.1c12.75-18.38 21.87-40.5 21.87-64c0-51.38-29.1-89.63-75.87-100.8L403.1 256H479.1zM353.2 344c20.5 0 40.87 7.125 55.37 21.62c41.87 41.88-13.37 93-26.1 98.38H242.5c-56.12 0-101.6-45.63-101.6-101.6c0-11.75 2.25-23.88 6.125-34.13l38.1-80.75H151.2c-50.75 0-95.99-36.38-102.4-86.62C40.1 100 88.37 48 147.7 48c54.87 0 115.2 60.25 115.2 115.2h.375L208.1 293.9c-3.375 8.125 .5 17.5 8.624 20.88L232.5 321c8.124 3.375 17.5-.5 20.87-8.75L325.5 138.8c15.1-32 32.37-52 50.5-61V120h23.1c35.87 0 63.1 31.62 63.1 72v16h-99.99l-24.75 136H353.2zM399.1 176C408.8 176 415.1 168.9 415.1 160s-7.094-16-15.97-16c-8.874 0-16.01 7.125-16.01 16S391.1 176 399.1 176z"/></svg>