<svg xmlns="http://www.w3.org/2000/svg" viewBox="0 0 576 512"><!--! Font Awesome Pro 6.1.1 by @fontawesome - https://fontawesome.com License - https://fontawesome.com/license (Commercial License) Copyright 2022 Fonticons, Inc. --><path d="M71.1 255.1C71.1 247.2 79.16 239.1 87.1 239.1C96.84 239.1 103.1 247.2 103.1 255.1C103.1 264.8 96.84 271.1 87.1 271.1C79.16 271.1 71.1 264.8 71.1 255.1zM135.1 159.1C135.1 168.8 128.8 175.1 119.1 175.1C111.2 175.1 103.1 168.8 103.1 159.1C103.1 151.2 111.2 143.1 119.1 143.1C128.8 143.1 135.1 151.2 135.1 159.1zM103.1 352C103.1 343.2 111.2 336 119.1 336C128.8 336 135.1 343.2 135.1 352C135.1 360.8 128.8 368 119.1 368C111.2 368 103.1 360.8 103.1 352zM555.6 375.9L498.6 398.1C507 409.9 512 424.4 512 440C512 479.8 479.8 512 440 512H368C345.7 512 324.7 501.7 311 484L301.1 471.2C275.9 477 250 480 224 480C100.3 480 0 379.7 0 256C0 132.3 100.3 32 224 32C266.3 32 308.2 39.87 347.6 55.2L555.6 136.1C567.9 140.8 576 152.7 576 165.9V346.1C576 359.3 567.9 371.2 555.6 375.9H555.6zM223.1 79.1C126.8 79.1 47.1 158.8 47.1 255.1C47.1 353.2 126.8 432 223.1 432C238.8 432 253.1 430.2 266.8 426.8L207.1 350.7C162.6 343 127.1 303.6 127.1 255.1C127.1 202.1 170.1 159.1 223.1 159.1C277 159.1 320 202.1 320 255.1C320 257.3 319.1 258.7 319.9 260L379.9 337.7C392.7 313.3 400 285.5 400 255.1C400 158.8 321.2 79.1 223.1 79.1H223.1zM440 368C441.1 368 442.2 368 443.4 368.1L528 335.2V279.1H446.7C443.3 311.8 433.3 341.6 418 368H440zM528 231.1V176.8L409.8 130.9C429.7 160.4 442.8 194.8 446.7 231.1H528zM223.1 207.1C197.5 207.1 175.1 229.5 175.1 255.1C175.1 282.5 197.5 303.1 223.1 303.1C250.5 303.1 271.1 282.5 271.1 255.1C271.1 229.5 250.5 207.1 223.1 207.1zM368 464H440C453.3 464 464 453.3 464 440C464 426.7 453.3 416 440 416H379.8L300.7 313.7C291 326.6 278.1 336.1 263.2 343.7L349 454.7C353.6 460.6 360.6 464 368 464V464z"/></svg>