<svg xmlns="http://www.w3.org/2000/svg" viewBox="0 0 576 512"><!--! Font Awesome Pro 6.1.1 by @fontawesome - https://fontawesome.com License - https://fontawesome.com/license (Commercial License) Copyright 2022 Fonticons, Inc. --><path d="M480 128c-35.35 0-64 28.65-64 63.1c0 26.84 16.56 49.75 40 59.25V344c0 66.16-53.83 120-120 120c-64.28 0-116.5-50.93-119.4-114.5C293.1 337.6 352 271.8 352 191.1V57.1c0-9.094-5.141-17.41-13.27-21.47l-68-34C258.9-3.377 244.5 1.404 238.5 13.28C232.6 25.12 237.4 39.53 249.3 45.47L304 72.84V192c0 61.75-50.25 112-112 112S80 253.8 80 192V72.84l54.73-27.38C146.6 39.53 151.4 25.12 145.5 13.28C139.6 1.404 125.2-3.377 113.3 2.529l-68 34C37.14 40.59 32 48.9 32 57.1v134c0 80.2 59.51 146.2 136.6 157.6C171.6 439.6 245.3 512 336 512c92.64 0 168-75.38 168-168V251.3C527.4 241.8 544 218.8 544 192C544 156.7 515.3 128 480 128zM480 208c-8.822 0-16-7.178-16-16s7.178-16 16-16s16 7.178 16 16S488.8 208 480 208z"/></svg>