<svg xmlns="http://www.w3.org/2000/svg" viewBox="0 0 448 512"><!--! Font Awesome Pro 6.1.1 by @fontawesome - https://fontawesome.com License - https://fontawesome.com/license (Commercial License) Copyright 2022 Fonticons, Inc. --><path d="M236 256C236 227.3 259.3 204 288 204C316.7 204 340 227.3 340 256V352C340 380.7 316.7 404 288 404C259.3 404 236 380.7 236 352V256zM288 244C281.4 244 276 249.4 276 256V352C276 358.6 281.4 364 288 364C294.6 364 300 358.6 300 352V256C300 249.4 294.6 244 288 244zM154.1 254.3C151.5 264.8 140.2 270.5 129.7 266.1C119.2 263.5 113.5 252.2 117 241.7L117.6 239.9C124.8 218.5 144.8 203.1 167.5 203.1C196.5 203.1 220 227.5 220 256.5V258.8C220 272.2 215.1 285.1 206.2 295.2L167.1 339.1C160.9 346.1 157.1 354.8 156.2 364H200C211 364 220 372.1 220 384C220 395 211 404 200 404H136C124.1 404 116 395 116 384V368.3C116 347.8 123.6 327.9 137.2 312.5L176.3 268.6C178.7 265.9 180 262.4 180 258.8V256.5C180 249.6 174.4 243.1 167.5 243.1C162.1 243.1 157.3 247.5 155.6 252.6L154.1 254.3zM280 0C293.3 0 304 10.75 304 24C304 37.25 293.3 48 280 48H248V97.37C291.4 102.4 330.8 120.7 361.8 148.2L391 119C400.4 109.7 415.6 109.7 424.1 119C434.3 128.4 434.3 143.6 424.1 152.1L393.9 184C417.9 217.9 432 259.3 432 304C432 418.9 338.9 512 224 512C109.1 512 16 418.9 16 304C16 197.2 96.43 109.3 200 97.37V48H168C154.7 48 144 37.25 144 24C144 10.75 154.7 0 168 0L280 0zM224 144C135.6 144 64 215.6 64 304C64 392.4 135.6 464 224 464C312.4 464 384 392.4 384 304C384 215.6 312.4 144 224 144z"/></svg>