<svg xmlns="http://www.w3.org/2000/svg" viewBox="0 0 512 512"><!--! Font Awesome Pro 6.1.1 by @fontawesome - https://fontawesome.com License - https://fontawesome.com/license (Commercial License) Copyright 2022 Fonticons, Inc. --><path d="M206.1 290c-17.82 0-38.41 20.75-38.41 38.41c0 6.051 3.156 14.97 14.97 14.97c17.83 0 38.41-20.74 38.41-38.41C221.1 293.2 213.1 290 206.1 290zM124.8 320.9c-17.82 0-38.4 20.74-38.4 38.4c0 11.82 8.91 14.97 14.97 14.97c17.8 0 38.4-20.72 38.4-38.4C139.7 329.9 136.6 320.9 124.8 320.9zM129.6 289.5c17.81 0 38.4-20.73 38.4-38.4c0-11.82-8.908-14.97-14.97-14.97c-17.81 0-38.4 20.73-38.4 38.4C114.6 280.5 117.8 289.5 129.6 289.5zM157.9 204.6c17.8 0 38.4-20.72 38.4-38.4c0-6.039-3.139-14.97-14.97-14.97c-17.8 0-38.4 20.72-38.4 38.41C142.9 201.5 151.8 204.6 157.9 204.6zM214.5 261.2c17.82 0 38.4-20.74 38.4-38.4c0-6.039-3.139-14.97-14.97-14.97c-17.81 0-38.4 20.73-38.4 38.4C199.5 258 208.4 261.2 214.5 261.2zM175.7 371.8c-17.82 0-38.41 20.75-38.41 38.41c0 11.82 8.908 14.97 14.97 14.97c17.8 0 38.4-20.72 38.4-38.41C190.6 375 181.7 371.8 175.7 371.8zM299.4 117.4C273.2 90.67 235.5 64 189.7 64C108.6 64 0 155 0 328.7C0 469.7 34.14 512 183.3 512C357.5 512 448 402.7 448 322.3c0-45.81-26.67-83.47-53.4-109.7L299.4 117.4zM183.3 464c-129.5 0-135.1-29.79-135.1-137.1C48.19 192 128.9 112 189.7 112c30.69 0 58.01 21.23 75.81 39.34l95.45 95.45c28.92 28.43 39.15 53.66 39.15 75.85C400.1 363.4 345.5 464 183.3 464zM345.4 315.3c-17.8 0-38.4 20.72-38.4 38.41c0 11.81 8.904 14.97 14.97 14.97c17.82 0 38.4-20.74 38.4-38.4C360.3 324.2 357.2 315.3 345.4 315.3zM288.8 258.7c-17.8 0-38.41 20.72-38.41 38.41c0 6.051 3.156 14.97 14.97 14.97c17.82 0 38.41-20.74 38.41-38.4C303.8 267.6 300.6 258.7 288.8 258.7zM260.5 343.6c-17.81 0-38.4 20.73-38.4 38.4c0 6.037 3.139 14.97 14.97 14.97c17.81 0 38.4-20.73 38.4-38.4C275.5 352.5 272.4 343.6 260.5 343.6zM447.4 108.9c26.14-27.63 48.64-64.69 48.64-84.88c0-13.35-10.89-24.05-24.11-24.05c-32.46 0-16.75 44.21-66.63 82.54C403.6 43.24 373.6 0 360.3 0C347.8 0 320 38.39 320 78.36c0 1.779 .0469 3.584 .1445 5.416c.0566 3.66 .8438 6.91 1.26 10.38c.2773 .2813 .5684 .5137 .8457 .7969l94.97 94.98c.2344 .2305 .4297 .4727 .6621 .7031c3.355 .3906 6.5 1.164 10.02 1.209C429.8 191.1 431.7 192 433.5 192C471.1 192 512 164.9 512 151.6C512 139.8 477.1 115.4 447.4 108.9z"/></svg>