<svg xmlns="http://www.w3.org/2000/svg" viewBox="0 0 512 512"><!--! Font Awesome Pro 6.0.0-beta3 by @fontawesome - https://fontawesome.com License - https://fontawesome.com/license (Commercial License) Copyright 2021 Fonticons, Inc. --><path d="M448 96h-64V64c0-35.35-28.65-64-64-64H192C156.7 0 128 28.65 128 64v32H64C28.65 96 0 124.7 0 160v256c0 35.35 28.65 64 64 64h384c35.35 0 64-28.65 64-64V160C512 124.7 483.3 96 448 96zM176 64c0-8.838 7.164-16 16-16h128c8.836 0 16 7.162 16 16v32h-160V64zM368 144v288h-224v-288H368zM48 416V160c0-8.801 7.199-16 16-16h32v288H64C55.2 432 48 424.8 48 416zM464 416c0 8.799-7.199 16-16 16h-32v-288h32c8.801 0 16 7.199 16 16V416z"/></svg>