<svg xmlns="http://www.w3.org/2000/svg" viewBox="0 0 640 512"><!--! Font Awesome Pro 6.1.1 by @fontawesome - https://fontawesome.com License - https://fontawesome.com/license (Commercial License) Copyright 2022 Fonticons, Inc. --><path d="M191.1 159.1C191.1 177.7 177.7 191.1 159.1 191.1C142.3 191.1 127.1 177.7 127.1 159.1C127.1 142.3 142.3 127.1 159.1 127.1C177.7 127.1 191.1 142.3 191.1 159.1zM160-.1562C168.5-.1562 176.2 4.242 180.6 11.44L204.9 51.67L250.5 40.4C258.7 38.38 267.3 40.78 273.2 46.73C279.2 52.67 281.6 61.29 279.6 69.45L268.3 115.1L308.5 139.4C315.7 143.7 320.1 151.5 320.1 159.9C320.1 168.3 315.7 176.1 308.5 180.5L268.3 204.8L279.6 250.4C281.6 258.5 279.2 267.2 273.2 273.1C267.3 279.1 258.7 281.5 250.5 279.4L204.9 268.2L180.6 308.4C176.2 315.6 168.5 319.1 160 319.1C151.6 319.1 143.8 315.6 139.5 308.4L115.2 268.2L69.59 279.4C61.43 281.5 52.81 279.1 46.87 273.1C40.92 267.2 38.52 258.5 40.54 250.4L51.81 204.8L11.58 180.5C4.386 176.1-.0117 168.3-.0117 159.9C-.0117 151.5 4.386 143.7 11.58 139.4L51.81 115.1L40.54 69.45C38.52 61.29 40.92 52.67 46.87 46.73C52.81 40.78 61.43 38.38 69.59 40.4L115.2 51.67L139.5 11.44C143.8 4.242 151.6-.1562 160-.1562V-.1562zM160 70.28L147.2 91.61C141.7 100.6 131.1 105 120.9 102.5L96.67 96.53L102.6 120.7C105.2 130.9 100.8 141.6 91.75 147L70.41 159.9L91.75 172.8C100.8 178.2 105.2 188.9 102.6 199.1L96.67 223.3L120.9 217.3C131.1 214.8 141.7 219.2 147.2 228.2L160 249.6L172.9 228.2C178.4 219.2 189 214.8 199.2 217.3L223.4 223.3L217.4 199.1C214.9 188.9 219.3 178.2 228.3 172.8L249.7 159.9L228.3 147C219.3 141.6 214.9 130.9 217.4 120.7L223.4 96.53L199.2 102.5C189 105 178.4 100.6 172.9 91.61L160 70.28zM504 463.1H616C629.3 463.1 640 474.7 640 487.1C640 501.3 629.3 511.1 616 511.1H23.1C10.74 511.1-.0012 501.3-.0012 487.1C-.0012 474.7 10.74 463.1 23.1 463.1H456V271.1C456 254.3 441.7 239.1 424 239.1C406.3 239.1 392 254.3 392 271.1V293.4C406.8 301.1 416 316.5 416 338C416 357.3 394.5 390.1 368 415.1C341.5 390.1 319.1 357.6 319.1 338C319.1 316.5 329.2 301.1 344 293.4V271.1C344 227.8 379.8 191.1 424 191.1C435.4 191.1 446.2 194.4 456 198.7V175.1C456 131.8 491.8 95.1 536 95.1C580.2 95.1 616 131.8 616 175.1V229.4C630.8 237.1 640 252.5 640 274C640 293.3 618.5 326.1 592 351.1C565.5 326.1 544 293.6 544 274C544 252.5 553.2 237.1 568 229.4V175.1C568 158.3 553.7 143.1 536 143.1C518.3 143.1 504 158.3 504 175.1V463.1z"/></svg>