<svg xmlns="http://www.w3.org/2000/svg" viewBox="0 0 512 512"><!--! Font Awesome Pro 6.0.0-beta3 by @fontawesome - https://fontawesome.com License - https://fontawesome.com/license (Commercial License) Copyright 2021 Fonticons, Inc. --><path d="M400.8 62.9l-70.88 13.75L289.5 16.78c-15.12-22.37-51.88-22.37-67 0L182.1 76.65L111.3 62.9C97.1 60.4 84.5 64.53 75 74.15C65.5 83.78 61.25 97.28 63.88 110.4l13.75 70.1l-59.88 40.5C6.625 229.5 0 242 0 255.5c0 13.5 6.75 25.1 17.75 33.5l59.88 40.5l-13.75 70.1C61.25 413.8 65.5 427.3 75 436.8l38.38-38.12l17.38-91.12L53.88 255.5l76.88-51.1L113.1 112.3l91 17.62L256 53.03l51.88 76.87l91-17.62l-.125 1l38.75-38.75c-.25-.25-.25-.375-.375-.5C427.5 64.53 413.8 60.4 400.8 62.9zM256 200c15.38 0 29.38 6.25 39.63 16.38l33.88-33.87C310.8 163.8 284.8 152 256 152c-57.25 0-104 46.75-104 103.1c0 28.75 11.75 54.75 30.5 73.49l33.88-33.87C206.3 285.4 200 271.4 200 256C200 225.1 225.1 200 256 200zM160 448c-17.75 0-32 14.25-32 32s14.25 32 32 32s32-14.25 32-32S177.8 448 160 448zM480 192c17.75 0 32-14.25 32-32s-14.25-32-32-32s-32 14.25-32 32S462.3 192 480 192zM320 288c-17.75 0-32 14.25-32 32s14.25 32 32 32s32-14.25 32-32S337.8 288 320 288zM400 208c-17.75 0-32 14.25-32 32s14.25 32 32 32s32-14.25 32-32S417.8 208 400 208zM240 368c-17.75 0-32 14.25-32 32s14.25 32 32 32s32-14.25 32-32S257.8 368 240 368zM480 448c-17.75 0-32 14.25-32 32s14.25 32 32 32s32-14.25 32-32S497.8 448 480 448zM400 368c-17.75 0-32 14.25-32 32s14.25 32 32 32s32-14.25 32-32S417.8 368 400 368zM320 448c-17.75 0-32 14.25-32 32s14.25 32 32 32s32-14.25 32-32S337.8 448 320 448zM480 288c-17.75 0-32 14.25-32 32s14.25 32 32 32s32-14.25 32-32S497.8 288 480 288z"/></svg>