<svg xmlns="http://www.w3.org/2000/svg" viewBox="0 0 512 512"><!--! Font Awesome Pro 6.1.1 by @fontawesome - https://fontawesome.com License - https://fontawesome.com/license (Commercial License) Copyright 2022 Fonticons, Inc. --><path d="M328 112C341.3 112 352 101.3 352 88S341.3 64 328 64L288 64.01c-8.031 0-15.53 3.993-19.97 10.68L176 212.7L83.97 74.69C79.53 68 72.03 64.01 64 64.01L24 64C10.75 64 0 74.75 0 88S10.75 112 24 112h27.16l96 144l-96 144H24C10.75 400 0 410.8 0 424S10.75 448 24 448L64 448c8.031 0 15.53-4.007 19.97-10.69L176 299.3l92.03 138C272.5 444 279.1 448 288 448L328 448c13.25 0 24-10.75 24-24s-10.75-24-24-24h-27.16l-96-144l96-144H328zM488 176h-16V24C472 10.75 461.3 0 448 0h-40C394.8 0 384 10.75 384 24s10.75 24 24 24h16v128h-16C394.8 176 384 186.8 384 200S394.8 224 408 224h80C501.3 224 512 213.3 512 200S501.3 176 488 176z"/></svg>