<svg xmlns="http://www.w3.org/2000/svg" viewBox="0 0 448 512"><!--! Font Awesome Pro 6.0.0-beta3 by @fontawesome - https://fontawesome.com License - https://fontawesome.com/license (Commercial License) Copyright 2021 Fonticons, Inc. --><path d="M224 32C347.7 32 448 82.14 448 144V368C448 429.9 347.7 480 224 480C100.3 480 0 429.9 0 368V144C0 82.14 100.3 32 224 32zM354.1 233.8C319 248.2 272.7 256 224 256C175.3 256 128.1 248.2 93.04 233.8C77.04 227.4 61.18 218.1 48 207.7V368C48 370.1 51.64 386.5 87.07 404.3C119.6 420.5 167.1 432 224 432C280 432 328.4 420.5 360.9 404.3C396.4 386.5 400 370.1 400 368V207.7C386.8 218.1 370.1 227.4 354.1 233.8V233.8zM81.09 172.8C101.5 149.6 126.1 132.4 151.4 120.1C171.5 110 191.6 102.9 208.9 98.19C207.2 92.37 205.1 86.44 205.1 80.44C125.7 84.18 64 111.2 64 144C64 154.4 70.16 164.1 81.09 172.8L81.09 172.8zM117.1 191.9C146.2 201.9 183.3 208 224 208C254.9 208 283.8 204.5 308.2 198.4C272.9 184.9 244.4 162.4 226.2 135C210.2 138.9 189.9 145.6 169.4 155.9C150.8 165.2 132.8 177.1 117.1 191.9H117.1zM245.8 80.59C255.1 123 299.1 165.9 368.6 171.4C378.5 163.1 384 153.8 384 144C384 111.6 323.9 84.85 245.8 80.59z"/></svg>