<svg xmlns="http://www.w3.org/2000/svg" viewBox="0 0 512 512"><!--! Font Awesome Pro 6.1.1 by @fontawesome - https://fontawesome.com License - https://fontawesome.com/license (Commercial License) Copyright 2022 Fonticons, Inc. --><path d="M88 400C88 386.7 98.75 376 112 376C125.3 376 136 386.7 136 400C136 413.3 125.3 424 112 424C98.75 424 88 413.3 88 400zM0 64C0 28.65 28.65 0 64 0H160C195.3 0 224 28.65 224 64V126.1L274.7 75.31C299.7 50.32 340.3 50.32 365.3 75.31L436.7 146.7C461.7 171.7 461.7 212.3 436.7 237.3L385.9 288H448C483.3 288 512 316.7 512 352V448C512 483.3 483.3 512 448 512H112C50.14 512 0 461.9 0 400V64zM464 448V352C464 343.2 456.8 336 448 336H337.9L209.9 464H448C456.8 464 464 456.8 464 448zM402.7 180.7L331.3 109.3C325.1 103 314.9 103 308.7 109.3L224 193.9V382.1L402.7 203.3C408.1 197.1 408.1 186.9 402.7 180.7V180.7zM112 464C147.3 464 176 435.3 176 400V304H48V400C48 435.3 76.65 464 112 464zM48 256H176V176H48V256zM48 128H176V64C176 55.16 168.8 48 160 48H64C55.16 48 48 55.16 48 64V128z"/></svg>