<svg xmlns="http://www.w3.org/2000/svg" viewBox="0 0 512 512"><!--! Font Awesome Pro 6.0.0-beta3 by @fontawesome - https://fontawesome.com License - https://fontawesome.com/license (Commercial License) Copyright 2021 Fonticons, Inc. --><path d="M448 32C483.3 32 512 60.65 512 96V416C512 451.3 483.3 480 448 480H64C28.65 480 0 451.3 0 416V96C0 60.65 28.65 32 64 32H448zM448 80H64C55.16 80 48 87.16 48 96V160H464V96C464 87.16 456.8 80 448 80zM64 432H144V208H48V416C48 424.8 55.16 432 64 432zM192 432H448C456.8 432 464 424.8 464 416V208H192V432z"/></svg>