<svg xmlns="http://www.w3.org/2000/svg" viewBox="0 0 320 512"><!--! Font Awesome Pro 6.0.0-beta3 by @fontawesome - https://fontawesome.com License - https://fontawesome.com/license (Commercial License) Copyright 2021 Fonticons, Inc. --><path d="M312 256c0-8.838-7.164-16-16-16h-272c-8.836 0-16 7.162-16 16c0 8.836 7.164 16 16 16h106.1L98.69 311.1c-1.818 2.729-2.629 5.891-2.629 8.938C96.06 328.1 103.2 336 112 336c5.156 0 10.22-2.5 13.31-7.125L160 284.8l34.75 44.03C197.8 333.5 202.9 336 208.1 336C216.8 336 224 328.1 224 320.1c0-3.047-.8086-6.209-2.629-8.938L189.9 272H296C304.8 272 312 264.8 312 256zM296 304h-42.71C255.1 309.1 256 314.5 256 320.1c0 3.18-.3457 6.275-.9395 9.283l15.53 111.8c-5.098 3.404-13.7 7.348-25.21 10.1l-9.119-93.54C228.3 364.5 218.6 368 208.1 368c-1.057 0-2.049-.3027-3.094-.3711l8.959 91.96C202.6 461.5 189.9 462.9 176 463.5v-107.1c-2.533-2.285-4.918-4.764-6.947-7.594l-9.031-11.44l-9.004 11.43C148.1 350.8 146.6 353.3 144 355.6v107.9c-13.89-.6406-26.6-2.021-37.92-3.945l8.959-91.95C114 367.7 113 368 112 368c-10.6 0-20.31-3.566-28.25-9.41l-9.123 93.59c-11.51-3.648-20.12-7.592-25.21-10.1l15.56-112.1c-.5625-2.934-.9141-5.943-.9141-9.039c0-5.545 .9219-10.96 2.709-16.06H24c-1.352 0-2.623-.2891-3.945-.3984L0 448c0 35.35 71.63 64 160 64s160-28.65 160-64l-20.05-144.4C298.6 303.7 297.4 304 296 304zM24 208h44.46L49.41 70.82c5.188-3.465 13.96-7.49 25.78-11.19L92.83 208h32.21L106.5 52.35C117.7 50.46 130.3 49.1 144 48.47V208h32V48.47c13.71 .6328 26.27 1.992 37.48 3.879L194.1 208h32.21l17.65-148.4c11.82 3.699 20.59 7.725 25.78 11.19L251.5 208H296c1.352 0 2.623 .2891 3.945 .3984L320 64c0-35.35-71.63-64-160-64S0 28.65 0 64l20.05 144.4C21.38 208.3 22.65 208 24 208z"/></svg>