<svg xmlns="http://www.w3.org/2000/svg" viewBox="0 0 448 512"><!--! Font Awesome Pro 6.0.0-beta3 by @fontawesome - https://fontawesome.com License - https://fontawesome.com/license (Commercial License) Copyright 2021 Fonticons, Inc. --><path d="M384 32h-135.7c11.78 15.71 23.33 31.58 34.05 48H384c8.832 0 16 7.168 16 16v174.1l-23.01 18.4c-14.62 11.68-35.36 11.68-49.98 0l-24-19.23c-8.768-7.008-21.25-7.008-30.02 0l-24 19.23c-14.62 11.68-35.36 11.68-49.98 0l-24-19.23c-8.768-7.008-21.25-7.008-30.02 0l-24 19.23c-14.62 11.68-35.36 11.68-49.98 0L48 270.1V96c0-8.832 7.168-16 16-16h101.7C176.4 63.58 187.9 47.71 199.7 32H64C28.64 32 0 60.64 0 96v320c0 35.36 28.64 64 64 64h320c35.36 0 64-28.64 64-64V96C448 60.64 419.4 32 384 32zM400 416c0 8.832-7.168 16-16 16H64c-8.832 0-16-7.168-16-16v-84.99c31.52 20.54 73.09 18.85 102.1-5.057L160 318.7l9.023 7.23c32.13 25.73 77.82 25.73 109.1 0L288 318.7l9.023 7.23c29.89 23.9 71.46 25.6 102.1 5.057V416zM224 224c30.94 0 56-24.03 56-53.66S223.1 64 223.1 64S168 140.7 168 170.3S193.1 224 224 224z"/></svg>