<svg xmlns="http://www.w3.org/2000/svg" viewBox="0 0 576 512"><!--! Font Awesome Pro 6.1.1 by @fontawesome - https://fontawesome.com License - https://fontawesome.com/license (Commercial License) Copyright 2022 Fonticons, Inc. --><path d="M80 176C80 158.3 94.33 144 112 144C129.7 144 144 158.3 144 176C144 193.7 129.7 208 112 208C94.33 208 80 193.7 80 176zM576 300.1C576 312.8 570.9 325.1 561.9 334.1L462.1 433.9C453.1 442.9 440.8 448 428.1 448H64C28.65 448 0 419.3 0 384V128C0 92.65 28.65 64 64 64H512C547.3 64 576 92.65 576 128V300.1zM48 128V384C48 392.8 55.16 400 64 400H416V320C416 302.3 430.3 288 448 288H528V128C528 119.2 520.8 112 512 112H64C55.16 112 48 119.2 48 128z"/></svg>