<svg xmlns="http://www.w3.org/2000/svg" viewBox="0 0 640 512"><!--! Font Awesome Pro 6.0.0-beta3 by @fontawesome - https://fontawesome.com License - https://fontawesome.com/license (Commercial License) Copyright 2021 Fonticons, Inc. --><path d="M638.8 216.8l-85.7-206.1c-3.502-8.125-12.69-12.02-20.94-8.647l-117.3 48.61c-8.252 3.375-12.06 12.64-8.68 20.89l3.228 7.802L74.25 241.7c-8.252 4.002-12.29 13.27-9.04 21.02l8.753 21.13L9.878 310.4C4.44 312.7 0 319.3 0 325.2c0 1.75 .5625 4.499 1.219 6.124l20.06 48.42c2.25 5.453 8.876 9.876 14.78 9.876c1.75 0 4.497-.5469 6.122-1.219L106.2 361.9l8.737 21.09c3.252 7.625 12.52 11.48 21.27 8.479l127-43.69c.2012 .2617 .321 .4375 .5261 .6973L217.4 479.1c-4.406 12.5 2.124 26.22 14.63 30.63C234.6 511.6 237.3 512 239.1 512c9.877 0 19.16-6.155 22.63-16l42.9-121.6c4.676 .9727 9.501 1.551 14.48 1.551c4.971 0 9.822-.5039 14.51-1.463l42.87 121.5C380.8 505.8 390.1 512 399.1 512c2.658 0 5.344-.4375 8.001-1.375c12.5-4.406 19.03-18.13 14.63-30.63l-46.42-131.5c9.738-12.28 15.79-27.6 15.79-44.49c0-.2598-.0807-.5072-.0827-.7669l96.73-33.34l3.24 7.761c3.375 8.25 12.77 12.06 20.9 8.689l117.3-48.61C638.3 234.4 642.1 224.1 638.8 216.8zM319.1 327.1c-13.23 0-24-10.77-24-24s10.77-24 24-24c13.24 0 24 10.77 24 24S333.2 327.1 319.1 327.1zM375.1 258.2c-13.21-15.89-32.86-26.2-55.14-26.2c-39.11 0-70.78 31.2-71.83 70.05l-100.5 34.7L121 272.4l306.7-149.5l42.51 102.5L375.1 258.2zM523.1 229.7l-61.27-147.9l58.27-24l61.26 147.8L523.1 229.7z"/></svg>