<svg xmlns="http://www.w3.org/2000/svg" viewBox="0 0 512 512"><!--! Font Awesome Pro 6.1.1 by @fontawesome - https://fontawesome.com License - https://fontawesome.com/license (Commercial License) Copyright 2022 Fonticons, Inc. --><path d="M400 0C355.9 0 320 35.88 320 80S355.9 160 400 160S480 124.1 480 80S444.1 0 400 0zM400 112c-17.75 0-32-14.25-32-32s14.25-32 32-32s32 14.25 32 32S417.8 112 400 112zM288 112C288 50.12 237.9 0 176 0S64 50.12 64 112v166.5C44.25 303.1 32 334 32 368C32 447.5 96.5 512 176 512s144-64.5 144-144c0-33.1-12.25-64.88-32-89.5V112zM176 464c-52.88 0-96-43.13-96-96c0-27 11.75-47.25 21.5-59.5L112 295.4V112c0-35.25 28.75-64 64-64s64 28.75 64 64v183.2l10.5 13.13C260.3 320.8 272 341 272 368C272 420.9 228.9 464 176 464zM192 322.9V112C192 103.3 184.8 96 176 96S160 103.2 160 112v210.9C141.4 329.5 128 347.1 128 368C128 394.5 149.5 416 176 416S224 394.5 224 368C224 347.1 210.6 329.5 192 322.9z"/></svg>