<svg xmlns="http://www.w3.org/2000/svg" viewBox="0 0 320 512"><!--! Font Awesome Pro 6.1.1 by @fontawesome - https://fontawesome.com License - https://fontawesome.com/license (Commercial License) Copyright 2022 Fonticons, Inc. --><path d="M272 112c0-61.88-50.12-112-111.1-112S48 50.13 48 112v166.5c-19.75 24.62-32 55.5-32 89.5c0 79.5 64.5 143.1 144 143.1S304 447.5 304 368c0-33.1-12.25-64.88-32-89.5V112zM160 464c-52.88 0-96-43.13-96-96c0-27 11.75-47.25 21.5-59.5L96 295.4V112c0-35.25 28.75-64 64-64s64 28.75 64 64v183.2l10.5 13.13C244.3 320.8 256 341 256 368C256 420.9 212.9 464 160 464zM176 322.9l.0002-114.9c0-8.75-7.25-16-16-16c-8.75 0-15.1 7.25-15.1 16L144 322.9c-18.62 6.625-32 24.25-32 45.13c0 26.5 21.5 48 48 48s48-21.5 48-48C208 347.1 194.6 329.5 176 322.9z"/></svg>