<svg xmlns="http://www.w3.org/2000/svg" viewBox="0 0 512 512"><!--! Font Awesome Pro 6.1.1 by @fontawesome - https://fontawesome.com License - https://fontawesome.com/license (Commercial License) Copyright 2022 Fonticons, Inc. --><path d="M255.1-.0031c-141.4 0-256 114.6-256 256s114.6 256 256 256s256-114.6 256-256S397.4-.0031 255.1-.0031zM215 52.1C213.8 103.6 189.7 153.9 144.4 185.6c-28.2 19.72-60.37 29.49-92.4 30.16C68.16 133.6 132.9 68.58 215 52.1zM48.4 263.9c136.7-.05 214.9-114.7 215.2-215.5c108.7 3.93 196 91.41 199.1 200.1c-.0157 0 0 0 0 0c0 0-.003 0 0 0c.0113 0 0 0 0 0c0 0 .0157 0 0 0c-137.1 0-214.8 114.8-215 215.2C139.9 459.7 52.51 372.4 48.4 263.9zM297 459.9c1.199-51.49 25.3-101.8 70.63-133.5C395.8 306.7 427.1 297.1 460 296.4C443.8 378.5 379.1 443.4 297 459.9z"/></svg>