<svg xmlns="http://www.w3.org/2000/svg" viewBox="0 0 640 512"><!--! Font Awesome Pro 6.1.1 by @fontawesome - https://fontawesome.com License - https://fontawesome.com/license (Commercial License) Copyright 2022 Fonticons, Inc. --><path d="M241.8 111.9C250.7 121.8 249.9 136.1 240.1 145.8L160.1 217.8C150.9 226.1 137.1 226.1 127.9 217.8L47.94 145.8C38.09 136.1 37.29 121.8 46.16 111.9C55.03 102.1 70.2 101.3 80.05 110.2L119.1 146.1V24C119.1 10.75 130.7 0 143.1 0C157.3 0 167.1 10.75 167.1 24V146.1L207.9 110.2C217.8 101.3 232.1 102.1 241.8 111.9H241.8zM369.3 133C377.1 126.3 390 126.3 398.7 133L565.2 261.7C575.9 269.9 583.2 281.8 585.9 295L619.7 464.3C631.2 466.1 640 476 640 488C640 501.3 629.3 512 616 512H24C10.75 512 0 501.3 0 488C0 474.7 10.75 464 24 464H148.3L182.1 295C184.8 281.8 192.1 269.9 202.8 261.7L369.3 133zM197.3 464H360V200.9L232.1 299.7C230.6 300.9 229.6 302.5 229.2 304.4L197.3 464zM472 464H570.7L538.8 304.4C538.4 302.5 537.4 300.9 535.9 299.7L408 200.9V336L472 464z"/></svg>