<svg xmlns="http://www.w3.org/2000/svg" viewBox="0 0 576 512"><!--! Font Awesome Pro 6.1.1 by @fontawesome - https://fontawesome.com License - https://fontawesome.com/license (Commercial License) Copyright 2022 Fonticons, Inc. --><path d="M6.338 72.25C-2.637 62.5-2.004 47.31 7.751 38.34C17.51 29.36 32.69 29.1 41.66 39.75L225.7 239.8C234.1 248.9 234.1 263.1 225.7 272.2L41.66 472.2C32.69 482 17.51 482.6 7.751 473.7C-2.004 464.7-2.636 449.5 6.338 439.8L175.4 256L6.338 72.25zM552 432C565.3 432 576 442.7 576 456C576 469.3 565.3 480 552 480H248C234.7 480 224 469.3 224 456C224 442.7 234.7 432 248 432H552z"/></svg>