<svg xmlns="http://www.w3.org/2000/svg" viewBox="0 0 512 512"><!--! Font Awesome Pro 6.1.1 by @fontawesome - https://fontawesome.com License - https://fontawesome.com/license (Commercial License) Copyright 2022 Fonticons, Inc. --><path d="M448 24V54.46C448 79.39 452 104.2 459.9 127.8L462.4 135.3C467.4 150.3 474.3 164.9 482.1 180.7C499.3 215.5 514.5 260.9 508.8 312.4C503.3 362.2 478.8 414.6 424 466.5V496C424 504.8 416.8 512 408 512H392C383.2 512 376 504.8 376 496V480H328V496C328 504.8 320.8 512 312 512H296C287.2 512 280 504.8 280 496V480H232V496C232 504.8 224.8 512 216 512H200C191.2 512 184 504.8 184 496V480H136V496C136 504.8 128.8 512 120 512H104C95.16 512 88 504.8 88 496V466.5C33.23 414.6 8.66 362.2 3.19 312.4C-2.474 260.9 12.71 215.5 29.9 180.7C37.68 164.9 44.61 150.3 49.61 135.3L52.1 127.8C59.98 104.2 64 79.39 64 54.46V24C64 10.75 74.75 0 88 0C101.3 0 112 10.75 112 24V54.46C112 84.55 107.1 114.5 97.63 143L95.15 150.4C89.01 168.9 80.75 186.1 72.95 201.9C57.93 232.4 46.62 268.2 50.9 307.2C54.94 343.9 73.18 386.4 121.4 432H390.6C438.8 386.4 457.1 343.9 461.1 307.2C465.4 268.2 454.1 232.4 439.1 201.9C431.2 186.1 422.1 168.9 416.9 150.4L414.4 143C404.9 114.4 400 84.55 400 54.46V24C400 10.75 410.7 0 424 0C437.3 0 448 10.75 448 24H448zM256 96C269.3 96 280 106.7 280 120V232C280 245.3 269.3 256 256 256C242.7 256 232 245.3 232 232V120C232 106.7 242.7 96 256 96zM288 320C288 337.7 273.7 352 256 352C238.3 352 224 337.7 224 320C224 302.3 238.3 288 256 288C273.7 288 288 302.3 288 320z"/></svg>