<svg xmlns="http://www.w3.org/2000/svg" viewBox="0 0 512 512"><!--! Font Awesome Pro 6.0.0-beta3 by @fontawesome - https://fontawesome.com License - https://fontawesome.com/license (Commercial License) Copyright 2021 Fonticons, Inc. --><path d="M88 256C88 163.2 163.2 88 256 88C348.8 88 424 163.2 424 256C424 348.8 348.8 424 256 424C163.2 424 88 348.8 88 256zM375.2 269.6C375.7 265.2 376 260.6 376 256C376 224.8 364.1 196.4 344.6 175.1L320.4 208.5C330.2 221.8 336 238.2 336 256C336 256.3 335.1 256.6 335.1 256.9L375.2 269.6zM321.1 302.5C311.1 316.5 296.7 327.1 279.1 332.4L279.1 373.6C314.4 366.6 343.5 344.9 360.4 315.3L321.1 302.5zM231.1 373.6L231.1 332.3C215.2 327.1 200.9 316.4 190.9 302.5L151.6 315.3C168.5 344.9 197.6 366.6 231.1 373.6zM176 256.9C176 256.6 176 256.3 176 256C176 238.2 181.8 221.8 191.6 208.5L167.4 175.1C147.9 196.4 136 224.8 136 256C136 260.6 136.3 265.2 136.8 269.6L176 256.9zM230.4 180.2C238.4 177.5 247.1 176 256 176C264.1 176 273.6 177.5 281.6 180.2L305.8 146.8C290.6 139.9 273.8 136 256 136C238.2 136 221.4 139.9 206.2 146.8L230.4 180.2zM256 224C238.3 224 224 238.3 224 256C224 273.7 238.3 288 256 288C273.7 288 288 273.7 288 256C288 238.3 273.7 224 256 224zM512 256C512 397.4 397.4 512 256 512C114.6 512 0 397.4 0 256C0 114.6 114.6 0 256 0C397.4 0 512 114.6 512 256zM256 48C141.1 48 48 141.1 48 256C48 370.9 141.1 464 256 464C370.9 464 464 370.9 464 256C464 141.1 370.9 48 256 48z"/></svg>