<svg xmlns="http://www.w3.org/2000/svg" viewBox="0 0 512 512"><!--! Font Awesome Pro 6.1.1 by @fontawesome - https://fontawesome.com License - https://fontawesome.com/license (Commercial License) Copyright 2022 Fonticons, Inc. --><path d="M384 256C384 326.7 326.7 384 255.1 384C185.3 384 127.1 326.7 127.1 256C127.1 185.3 185.3 128 255.1 128C326.7 128 384 185.3 384 256zM255.1 160C242.7 160 231.1 170.7 231.1 184C231.1 197.3 242.7 208 255.1 208C269.3 208 280 197.3 280 184C280 170.7 269.3 160 255.1 160zM210.3 241.2C214.4 228.6 207.5 215 194.9 210.9C182.3 206.8 168.8 213.7 164.7 226.3C160.6 238.9 167.5 252.5 180.1 256.6C192.7 260.7 206.3 253.8 210.3 241.2V241.2zM347.3 226.3C343.2 213.7 329.7 206.8 317.1 210.9C304.5 215 297.6 228.6 301.7 241.2C305.7 253.8 319.3 260.7 331.9 256.6C344.5 252.5 351.4 238.9 347.3 226.3V226.3zM284.2 294.8C273.5 302.6 271.1 317.6 278.9 328.4C286.7 339.1 301.7 341.5 312.4 333.7C323.2 325.9 325.5 310.9 317.7 300.1C309.9 289.4 294.9 287 284.2 294.8V294.8zM199.6 333.7C210.3 341.5 225.3 339.1 233.1 328.4C240.9 317.6 238.5 302.6 227.8 294.8C217.1 287 202.1 289.4 194.3 300.1C186.5 310.9 188.8 325.9 199.6 333.7V333.7zM283.1 .001C310 .001 333.4 16.72 342.7 40.75C344.1 41.32 345.5 41.9 346.9 42.49C370.5 32.11 398.8 36.79 417.9 55.84L456.2 94.12C475.2 113.2 479.9 141.5 469.5 165.1C470.1 166.5 470.7 167.9 471.2 169.3C495.3 178.7 512 201.1 512 228.9V283.1C512 310 495.3 333.4 471.2 342.7C470.7 344.1 470.1 345.5 469.5 346.9C479.9 370.5 475.2 398.8 456.2 417.9L417.9 456.2C398.8 475.2 370.5 479.9 346.9 469.5C345.5 470.1 344.1 470.7 342.7 471.2C333.4 495.3 310 512 283.1 512H228.9C201.1 512 178.6 495.3 169.3 471.2C167.9 470.7 166.5 470.1 165.1 469.5C141.5 479.9 113.2 475.2 94.13 456.2L55.84 417.9C36.79 398.8 32.11 370.5 42.48 346.9C41.9 345.5 41.32 344.1 40.76 342.7C16.72 333.4 0 310 0 283.1V228.9C0 201.1 16.72 178.7 40.75 169.3C41.32 167.9 41.9 166.5 42.49 165.1C32.11 141.5 36.79 113.2 55.84 94.12L94.13 55.83C113.2 36.78 141.5 32.1 165.1 42.48C166.5 41.89 167.9 41.32 169.3 40.76C178.6 16.72 201.1 0 228.9 0L283.1 .001zM211.2 76.86L196.9 81.68C189.2 84.29 181.7 87.4 174.5 90.97L161 97.64L149.2 88.43C142.8 83.52 133.8 84.07 128.1 89.77L89.78 128.1C84.07 133.8 83.52 142.8 88.44 149.2L97.64 161L90.98 174.5C87.4 181.7 84.29 189.2 81.67 196.9L76.86 211.2L61.97 213.1C54.01 214.1 47.1 220.9 47.1 228.9V283.1C47.1 291.1 54.01 297.9 61.97 298.9L76.86 300.8L81.67 315.1C84.29 322.8 87.4 330.3 90.98 337.5L97.64 350.1L88.44 362.8C83.52 369.2 84.07 378.2 89.78 383.9L128.1 422.2C133.8 427.9 142.8 428.5 149.2 423.6L161 414.4L174.5 421C181.7 424.6 189.2 427.7 196.9 430.3L211.2 435.1L213.1 450C214.1 457.1 220.9 464 228.9 464H283.1C291.1 464 297.9 457.1 298.9 450L300.8 435.1L315.1 430.3C322.8 427.7 330.3 424.6 337.5 421L350.1 414.4L362.8 423.6C369.2 428.5 378.2 427.9 383.9 422.2L422.2 383.9C427.9 378.2 428.5 369.2 423.6 362.8L414.4 350.1L421 337.5C424.6 330.3 427.7 322.8 430.3 315.1L435.1 300.8L450 298.9C457.1 297.9 464 291.1 464 283.1V228.9C464 220.9 457.1 214.1 450 213.1L435.1 211.2L430.3 196.9C427.7 189.2 424.6 181.7 421 174.5L414.4 161L423.6 149.2C428.5 142.8 427.9 133.8 422.2 128.1L383.9 89.78C378.2 84.07 369.2 83.52 362.8 88.44L350.1 97.64L337.5 90.98C330.3 87.4 322.8 84.29 315.1 81.68L300.8 76.86L298.9 61.97C297.9 54.01 291.1 48 283.1 48H228.9C220.9 48 214.1 54.01 213.1 61.97L211.2 76.86z"/></svg>