<svg xmlns="http://www.w3.org/2000/svg" viewBox="0 0 576 512"><!--! Font Awesome Pro 6.0.0-beta3 by @fontawesome - https://fontawesome.com License - https://fontawesome.com/license (Commercial License) Copyright 2021 Fonticons, Inc. --><path d="M384 64H192c-106 0-192 85.96-192 191.1s85.96 192 192 192h192c106 0 192-85.96 192-192S490 64 384 64zM384 400H192c-79.4 0-144-64.6-144-144S112.6 112 192 112h192c79.4 0 144 64.6 144 144S463.4 400 384 400zM384 160c-53.02 0-96 42.98-96 96s42.98 96 96 96s96-42.98 96-96S437 160 384 160z"/></svg>