<svg xmlns="http://www.w3.org/2000/svg" viewBox="0 0 448 512"><!--! Font Awesome Pro 6.1.1 by @fontawesome - https://fontawesome.com License - https://fontawesome.com/license (Commercial License) Copyright 2022 Fonticons, Inc. --><path d="M176 80H128C119.2 80 112 87.16 112 96S119.2 112 128 112h48C184.8 112 192 104.8 192 96S184.8 80 176 80zM424 48C437.3 48 448 37.25 448 24S437.3 0 424 0H24C10.75 0 0 10.75 0 24S10.75 48 24 48H32v164.1C17.04 224.8 8 239 8 256c0 51.01 24.52 97.21 64 130.6V472C72 494.1 89.94 512 112 512h224c22.06 0 40-17.94 40-40v-85.44c39.48-33.36 64-79.55 64-130.6c0-16.96-9.035-31.15-24-43.04V48H424zM80 48h288v140.4C327.4 174.6 274.8 168 224 168S120.6 174.6 80 188.4V48zM328 464h-208v-46.82C150.9 431.7 186.3 440 224 440s73.12-8.309 104-22.82V464zM224 392c-62.26 0-116.1-27.88-145.1-68.72C119.7 337.3 172.8 344 224 344s104.3-6.717 145.1-20.72C340.1 364.1 286.3 392 224 392zM224 296c-107.5 0-164.1-29.17-167.9-39.54c-.002-.1055 0 .1055 0 0C59.75 245.2 116.4 216 224 216c106.6 0 163.2 28.53 167.9 40C387.2 267.5 330.6 296 224 296z"/></svg>