<svg xmlns="http://www.w3.org/2000/svg" viewBox="0 0 512 512"><!--! Font Awesome Pro 6.1.1 by @fontawesome - https://fontawesome.com License - https://fontawesome.com/license (Commercial License) Copyright 2022 Fonticons, Inc. --><path d="M0 112V0L71.37 23.79C87.68 29.23 104.8 32 121.1 32H390C407.2 32 424.3 29.23 440.6 23.79L512 0V112C512 147.3 483.3 176 448 176V240H488C501.3 240 512 250.7 512 264C512 277.3 501.3 288 488 288H448V488C448 501.3 437.3 512 424 512C410.7 512 400 501.3 400 488V288H112V488C112 501.3 101.3 512 88 512C74.75 512 64 501.3 64 488V288H24C10.75 288 0 277.3 0 264C0 250.7 10.75 240 24 240H64V176C28.65 176 0 147.3 0 112zM64 128H448C456.8 128 464 120.8 464 112V66.6L455.8 69.33C434.6 76.4 412.4 80 390 80H121.1C99.61 80 77.4 76.4 56.19 69.33L48 66.6V112C48 120.8 55.16 128 64 128V128zM112 240H232V176H112V240zM280 176V240H400V176H280z"/></svg>