<svg xmlns="http://www.w3.org/2000/svg" viewBox="0 0 640 512"><!--! Font Awesome Pro 6.0.0-beta3 by @fontawesome - https://fontawesome.com License - https://fontawesome.com/license (Commercial License) Copyright 2021 Fonticons, Inc. --><path d="M232 96h-208C10.75 96 0 106.8 0 120S10.75 144 24 144h80.64C104.5 145.1 104 146.1 104 147.2V392c0 13.25 10.75 24.01 24 24.01S152 405.3 152 392V147.2C152 146.1 151.5 145.1 151.4 144H232C245.3 144 256 133.3 256 120S245.3 96 232 96zM623.6 97.22c-9.781-3.125-20.59 .1562-26.81 8.438L464 283.8l-132.8-178.2c-6.188-8.281-16.91-11.56-26.81-8.438C294.6 100.5 288 109.7 288 120v272C288 405.3 298.8 416 312 416s24-10.75 24-24V192.4l108.8 145.1c9.062 12.12 29.44 12.12 38.5 0L592 192.4V392c0 13.25 10.75 24 24 24S640 405.3 640 392v-272C640 109.7 633.4 100.5 623.6 97.22z"/></svg>