<svg xmlns="http://www.w3.org/2000/svg" viewBox="0 0 320 512"><!--! Font Awesome Pro 6.0.0-beta3 by @fontawesome - https://fontawesome.com License - https://fontawesome.com/license (Commercial License) Copyright 2021 Fonticons, Inc. --><path d="M112 376C112 349.5 133.5 328 160 328C186.5 328 208 349.5 208 376C208 402.5 186.5 424 160 424C133.5 424 112 402.5 112 376zM160 392C168.8 392 176 384.8 176 376C176 367.2 168.8 360 160 360C151.2 360 144 367.2 144 376C144 384.8 151.2 392 160 392zM112 256C112 229.5 133.5 208 160 208C186.5 208 208 229.5 208 256C208 282.5 186.5 304 160 304C133.5 304 112 282.5 112 256zM112 136C112 109.5 133.5 88 160 88C186.5 88 208 109.5 208 136C208 162.5 186.5 184 160 184C133.5 184 112 162.5 112 136zM160 152C168.8 152 176 144.8 176 136C176 127.2 168.8 120 160 120C151.2 120 144 127.2 144 136C144 144.8 151.2 152 160 152zM0 64C0 28.65 28.65 0 64 0H256C291.3 0 320 28.65 320 64V352C320 440.4 248.4 512 160 512C71.63 512 0 440.4 0 352V64zM48 64V352C48 413.9 98.14 464 160 464C221.9 464 272 413.9 272 352V64C272 55.16 264.8 48 256 48H64C55.16 48 48 55.16 48 64z"/></svg>