<svg xmlns="http://www.w3.org/2000/svg" viewBox="0 0 448 512"><!--! Font Awesome Pro 6.0.0-beta3 by @fontawesome - https://fontawesome.com License - https://fontawesome.com/license (Commercial License) Copyright 2021 Fonticons, Inc. --><path d="M184 352C184 365.3 173.3 376 160 376C146.7 376 136 365.3 136 352C136 338.7 146.7 328 160 328C173.3 328 184 338.7 184 352zM264 352C264 338.7 274.7 328 288 328C301.3 328 312 338.7 312 352C312 365.3 301.3 376 288 376C274.7 376 264 365.3 264 352zM42.74 78.99C34.46 89.34 19.36 91.02 9.007 82.74C-1.343 74.46-3.021 59.36 5.259 49.01L18.04 33.03C34.74 12.15 60.03 0 86.76 0H361.2C387.1 0 413.3 12.15 429.1 33.03L442.7 49.01C451 59.36 449.3 74.46 438.1 82.74C428.6 91.02 413.5 89.34 405.3 78.99L392.5 63.01C384.9 53.52 373.4 48 361.2 48H248V96H288C341 96 384 138.1 384 192V352C384 378 373.7 401.6 356.8 418.9L408.1 471C418.3 480.4 418.3 495.6 408.1 504.1C399.6 514.3 384.4 514.3 375 504.1L314.4 444.3C306 446.7 297.2 448 288 448H159.1C150.8 448 141.1 446.7 133.6 444.3L72.97 504.1C63.6 514.3 48.4 514.3 39.03 504.1C29.66 495.6 29.66 480.4 39.03 471L91.15 418.9C74.35 401.6 63.1 378 63.1 352V192C63.1 138.1 106.1 96 159.1 96H199.1V48H86.76C74.61 48 63.12 53.52 55.52 63.01L42.74 78.99zM112 192V240H336V192C336 165.5 314.5 144 288 144H160C133.5 144 112 165.5 112 192zM112 288V352C112 378.5 133.5 400 160 400H288C314.5 400 336 378.5 336 352V288H112z"/></svg>