<svg xmlns="http://www.w3.org/2000/svg" viewBox="0 0 448 512"><!--! Font Awesome Pro 6.0.0-beta3 by @fontawesome - https://fontawesome.com License - https://fontawesome.com/license (Commercial License) Copyright 2021 Fonticons, Inc. --><path d="M96 320C96 302.3 110.3 288 128 288C145.7 288 160 302.3 160 320C160 337.7 145.7 352 128 352C110.3 352 96 337.7 96 320zM352 320C352 337.7 337.7 352 320 352C302.3 352 288 337.7 288 320C288 302.3 302.3 288 320 288C337.7 288 352 302.3 352 320zM352 0C405 0 448 42.98 448 96V352C448 394.8 420 431 381.4 443.4L408.1 471C418.3 480.4 418.3 495.6 408.1 504.1C399.6 514.3 384.4 514.3 375 504.1L318.1 448H129.9L72.97 504.1C63.6 514.3 48.4 514.3 39.03 504.1C29.66 495.6 29.66 480.4 39.03 471L66.63 443.4C27.98 431 0 394.8 0 352V96C0 42.98 42.98 0 96 0H352zM200 48H96C69.49 48 48 69.49 48 96V208H200V48zM248 48V208H400V96C400 69.49 378.5 48 352 48H248zM96 400H352C378.5 400 400 378.5 400 352V256H48V352C48 378.5 69.49 400 96 400z"/></svg>