<svg xmlns="http://www.w3.org/2000/svg" viewBox="0 0 448 512"><!--! Font Awesome Pro 6.0.0-beta3 by @fontawesome - https://fontawesome.com License - https://fontawesome.com/license (Commercial License) Copyright 2021 Fonticons, Inc. --><path d="M424 80h-74.38l-34-56.75C306.1 8.826 291.4 0 274.6 0H173.4C156.6 0 141 8.826 132.4 23.25L98.38 80H24C10.75 80 0 90.74 0 104C0 117.3 10.75 128 24 128H32v320c0 35.35 28.65 64 64 64h256c35.35 0 64-28.65 64-64V128h8C437.3 128 448 117.3 448 104C448 90.74 437.3 80 424 80zM171.9 50.88C172.9 49.13 174.9 48 177 48h94c2.125 0 4.125 1.125 5.125 2.875L293.6 80H154.4L171.9 50.88zM368 448c0 8.836-7.164 16-16 16H96c-8.836 0-16-7.164-16-16V128h288V448zM201 354.8C205.4 358.3 210.7 360 216 360c7.031 0 13.1-3.094 18.75-9c8.281-10.34 6.594-25.47-3.75-33.75L204.4 296H248c22.06 0 40 17.94 40 40v40c0 13.25 10.75 24 24 24s24-10.75 24-24V336c0-48.53-39.47-88-88-88H204.4L231 226.8c10.34-8.281 12.03-23.41 3.75-33.75C226.4 182.7 211.4 181 201 189.3l-80 64C115.3 257.8 112 264.7 112 272s3.312 14.19 9 18.75L201 354.8z"/></svg>