<svg xmlns="http://www.w3.org/2000/svg" viewBox="0 0 640 512"><!--! Font Awesome Pro 6.0.0-beta3 by @fontawesome - https://fontawesome.com License - https://fontawesome.com/license (Commercial License) Copyright 2021 Fonticons, Inc. --><path d="M630.8 469.1L512 375.1V128h16C536.9 128 544 120.9 544 112V96c0-8.875-7.125-16-16-16h-82.38l-34-56.75C402.1 8.826 387.4 0 370.6 0H269.4C252.6 0 237 8.826 228.4 23.25L194.4 80H134.4L38.81 5.109C34.41 1.672 29.19 0 24.03 0c-7.125 0-14.19 3.156-18.91 9.187c-8.188 10.44-6.375 25.53 4.062 33.7l591.1 463.1c10.5 8.203 25.56 6.328 33.69-4.078C643.1 492.4 641.2 477.3 630.8 469.1zM267.9 50.88C268.9 49.13 270.9 48 273 48h94c2.125 0 4.125 1.125 5.125 2.875L389.6 80H250.4L267.9 50.88zM464 338.4L416 300.7V192c0-8.844-7.156-16-16-16S384 183.2 384 192v83.66l-48-37.62V192c0-8.844-7.156-16-16-16S304 183.2 304 192v20.96L195.6 128H464V338.4zM256 400V297.3L224 272.3V400C224 408.8 231.2 416 240 416S256 408.8 256 400zM448 464H192c-8.836 0-16-7.164-16-16V234.6L128 197V448c0 35.35 28.65 64 64 64h256c20.5 0 38.54-9.809 50.25-24.8l-37.78-29.61C457.5 461.4 453.2 464 448 464zM336 400v-39.97l-32-25.08V400c0 8.844 7.156 16 16 16S336 408.8 336 400z"/></svg>