<svg xmlns="http://www.w3.org/2000/svg" viewBox="0 0 448 512"><!--! Font Awesome Pro 6.1.1 by @fontawesome - https://fontawesome.com License - https://fontawesome.com/license (Commercial License) Copyright 2022 Fonticons, Inc. --><path d="M211.8 355.8C200.9 366.7 183.1 366.7 172.2 355.8L124.2 307.8C113.3 296.9 113.3 279.1 124.2 268.2C135.1 257.3 152.9 257.3 163.8 268.2L192 296.4L284.2 204.2C295.1 193.3 312.9 193.3 323.8 204.2C334.7 215.1 334.7 232.9 323.8 243.8L211.8 355.8zM317.5 24.94L354.2 80H424C437.3 80 448 90.75 448 104C448 117.3 437.3 128 424 128H412.4L388.4 452.7C385.9 486.1 358.1 512 324.6 512H123.4C89.92 512 62.09 486.1 59.61 452.7L35.56 128H24C10.75 128 0 117.3 0 104C0 90.75 10.75 80 24 80H93.82L130.5 24.94C140.9 9.357 158.4 0 177.1 0H270.9C289.6 0 307.1 9.358 317.5 24.94V24.94zM151.5 80H296.5L277.5 51.56C276 49.34 273.5 48 270.9 48H177.1C174.5 48 171.1 49.34 170.5 51.56L151.5 80zM107.5 449.2C108.1 457.5 115.1 464 123.4 464H324.6C332.9 464 339.9 457.5 340.5 449.2L364.3 128H83.69L107.5 449.2z"/></svg>