<svg xmlns="http://www.w3.org/2000/svg" viewBox="0 0 448 512"><!--! Font Awesome Pro 6.0.0-beta3 by @fontawesome - https://fontawesome.com License - https://fontawesome.com/license (Commercial License) Copyright 2021 Fonticons, Inc. --><path d="M424 80h-74.38l-34-56.75C306.9 8.875 291.3 0 274.4 0H173.6c-16.88 0-32.5 8.875-41.25 23.25L98.38 80H24C10.75 80 0 90.74 0 104C0 117.3 10.75 128 24 128H32l21.21 339C54.71 492.3 75.73 512 101.1 512h245.8c25.38 0 46.4-19.75 47.9-45L416 128h8C437.3 128 448 117.3 448 104C448 90.74 437.3 80 424 80zM173.6 48h100.8l19.25 32H154.4L173.6 48zM346.9 464H101.1L80.13 128h287.8L346.9 464zM143 384.1c9.373 9.371 24.56 9.379 33.94 0l47.03-47.03l47.03 47.03c9.373 9.371 24.56 9.379 33.94 0c9.375-9.375 9.375-24.56 0-33.94L257.9 304l47.03-47.03c9.375-9.375 9.375-24.56 0-33.94s-24.56-9.375-33.94 0l-47.03 47.03L176.1 223c-9.375-9.375-24.56-9.375-33.94 0s-9.375 24.56 0 33.94L190.1 304l-47.03 47.03C133.7 360.4 133.7 375.6 143 384.1z"/></svg>