<svg xmlns="http://www.w3.org/2000/svg" viewBox="0 0 640 512"><!--! Font Awesome Pro 6.0.0-beta3 by @fontawesome - https://fontawesome.com License - https://fontawesome.com/license (Commercial License) Copyright 2021 Fonticons, Inc. --><path d="M630.8 469.1l-133.6-104.7L512 128h8C533.3 128 544 117.3 544 104c0-13.26-10.75-24-24-24h-74.38l-34-56.75C402.9 8.875 387.3 0 370.4 0H269.6c-16.88 0-32.5 8.875-41.25 23.25L194.4 80H134.4L38.81 5.109C34.41 1.672 29.19 0 24.03 0c-7.125 0-14.19 3.156-18.91 9.187c-8.188 10.44-6.375 25.53 4.062 33.7l591.1 463.1c10.5 8.203 25.56 6.328 33.69-4.078C643.1 492.4 641.2 477.3 630.8 469.1zM269.6 48h100.8l19.25 32H250.4L269.6 48zM451.3 328.4L195.6 128h268.3L451.3 328.4zM442.9 464H197.1L183.1 240.2L132.5 200.6L149.2 467C150.7 492.3 171.7 512 197.1 512h245.8c21.04 0 38.84-13.69 45.25-32.72l-44.06-34.53L442.9 464z"/></svg>