<svg xmlns="http://www.w3.org/2000/svg" viewBox="0 0 640 512"><!--! Font Awesome Pro 6.0.0-beta3 by @fontawesome - https://fontawesome.com License - https://fontawesome.com/license (Commercial License) Copyright 2021 Fonticons, Inc. --><path d="M392 80h-58.38l-34-56.75C290.9 8.875 275.3 0 258.4 0H157.6c-16.88 0-32.5 8.875-41.25 23.25L82.38 80H24C10.75 80 0 90.74 0 104C0 117.3 10.75 128 24 128H32l21.21 339C54.71 492.3 75.73 512 101.1 512h213.8c25.38 0 46.4-19.75 47.9-45L384 128h8C405.3 128 416 117.3 416 104C416 90.74 405.3 80 392 80zM157.6 48h100.8l19.25 32H138.4L157.6 48zM314.9 464H101.1L80.13 128h255.8L314.9 464zM616 136h-144C458.8 136 448 146.8 448 159.1C448 173.2 458.8 184 472 184h144c13.2 0 24-10.8 24-23.1C640 146.8 629.2 136 616 136zM584 264h-112C458.8 264 448 274.8 448 287.1C448 301.2 458.8 312 472 312h112c13.2 0 24-10.8 24-23.1C608 274.8 597.2 264 584 264zM520 392h-48c-13.2 0-24 10.8-24 23.1C448 429.2 458.8 440 472 440h48c13.2 0 24-10.8 24-23.1C544 402.8 533.2 392 520 392z"/></svg>