<svg xmlns="http://www.w3.org/2000/svg" viewBox="0 0 448 512"><!--! Font Awesome Pro 6.1.1 by @fontawesome - https://fontawesome.com License - https://fontawesome.com/license (Commercial License) Copyright 2022 Fonticons, Inc. --><path d="M225.9 192.1C234.7 201.1 233.9 217.1 223.9 225.9L199.1 248H240C288.6 248 328 287.4 328 336V360C328 373.3 317.3 384 304 384C290.7 384 280 373.3 280 360V336C280 313.9 262.1 296 240 296H199.1L223.9 318.1C233.9 326.9 234.7 342 225.9 351.9C217.1 361.9 201.1 362.7 192.1 353.9L120.1 289.9C114.9 285.4 112 278.9 112 271.1C112 265.1 114.9 258.6 120.1 254.1L192.1 190.1C201.1 181.3 217.1 182.1 225.9 192.1V192.1zM317.5 24.94L354.2 80H424C437.3 80 448 90.75 448 104C448 117.3 437.3 128 424 128H416V432C416 476.2 380.2 512 336 512H112C67.82 512 32 476.2 32 432V128H24C10.75 128 0 117.3 0 104C0 90.75 10.75 80 24 80H93.82L130.5 24.94C140.9 9.357 158.4 0 177.1 0H270.9C289.6 0 307.1 9.358 317.5 24.94H317.5zM151.5 80H296.5L277.5 51.56C276 49.34 273.5 48 270.9 48H177.1C174.5 48 171.1 49.34 170.5 51.56L151.5 80zM80 432C80 449.7 94.33 464 112 464H336C353.7 464 368 449.7 368 432V128H80V432z"/></svg>