<svg xmlns="http://www.w3.org/2000/svg" viewBox="0 0 640 512"><!--! Font Awesome Pro 6.1.1 by @fontawesome - https://fontawesome.com License - https://fontawesome.com/license (Commercial License) Copyright 2022 Fonticons, Inc. --><path d="M626.6 357.9l-35.73-41.22c6.686-4.938 12.17-11.53 15.84-19.47c8.295-17.88 5.514-38.34-7.295-53.53l-31.02-36.44c4.578-4.156 8.295-9.25 10.84-15.03c6.92-15.75 3.873-33.53-7.936-46.38l-120.4-130.8C442.1 5.469 429.4 0 416 0s-26.13 5.5-34.88 15.03l-39.35 42.78l32.34 35.14l41.48-45.42l114 123.9h-54.71l85.54 107.2h-66.11l95.99 110.8c2.422 2.781 1.625 5.75 .9375 7.25C590.2 398.8 588.6 400 586.3 400h-138.9c1.816-15.02-2.506-30.18-12.83-42.09l-35.73-41.22c6.686-4.938 12.17-11.53 15.84-19.47c8.295-17.88 5.514-38.34-7.295-53.53l-31.02-36.44c4.578-4.156 8.295-9.25 10.84-15.03c6.92-15.75 3.873-33.53-7.936-46.38L258.9 15.03C250.1 5.469 237.4 0 224 0S197.9 5.5 189.1 15.03L68.81 145.8C57.01 158.7 53.98 176.5 60.9 192.2C63.43 198 67.13 203.1 71.7 207.2L40.55 243.8C27.8 258.9 25.04 279.4 33.33 297.2c3.688 7.938 9.154 14.56 15.82 19.47l-35.69 41.22c-14.21 16.38-17.43 38.84-8.404 58.63C13.91 435.9 32.52 448 53.62 448h146.6l.0391 40.03C200.3 501.3 211.1 512 224.3 512c0 0-.0156 0 0 0c13.25 0 23.99-10.78 23.98-24.03L248.3 448h144l.0059 40.03C392.3 501.3 403.1 512 416.3 512c0 0-.0156 0 0 0c13.25 0 23.99-10.78 23.98-24.03L440.3 448h146.1c21.1 0 39.72-12.06 48.58-31.47C643.1 396.7 640.8 374.3 626.6 357.9zM248.2 400l-.0215-22.25l40.77-40.78c9.373-9.375 9.373-24.56 0-33.94c-9.371-9.375-24.55-9.375-33.93 0L248.1 309.9L247.1 183.1C247.1 170.7 237.2 160 223.1 160c0 0 .0156 0 0 0C210.7 160 199.1 170.8 200 184l.0449 46.08L192.1 223c-9.373-9.375-24.56-9.375-33.93 0s-9.373 24.56 0 33.94l41.07 41.08L200.1 400H53.62c-2.234 0-3.875-1.125-4.906-3.375c-.6855-1.5-1.467-4.438 1-7.281l95.99-110.8H79.58l85.63-107.2H110.5L223.6 47.53l114 123.9H282.9l85.54 107.2H302.3l95.99 110.8c2.422 2.781 1.625 5.75 .9375 7.25C398.2 398.8 396.6 400 394.3 400H248.2z"/></svg>