<svg xmlns="http://www.w3.org/2000/svg" viewBox="0 0 512 512"><!--! Font Awesome Pro 6.1.1 by @fontawesome - https://fontawesome.com License - https://fontawesome.com/license (Commercial License) Copyright 2022 Fonticons, Inc. --><path d="M491.8 20.18C518.7 47.1 518.7 90.73 491.8 117.6L396.4 213.1C381.8 227.6 358.2 227.6 343.6 213.1L338.2 207.7L237.9 308L312.1 383C318.9 388.9 321.3 397.5 319.3 405.6C317.4 413.7 311.3 420.3 303.4 422.8L31.39 510.8C22.81 513.6 13.4 511.3 7.03 504.1C.6563 498.6-1.609 489.2 1.166 480.6L89.17 208.6C91.74 200.7 98.26 194.6 106.4 192.7C114.5 190.7 123.1 193.1 128.1 199L204 274.1L304.3 173.8L298.9 168.4C284.4 153.8 284.4 130.2 298.9 115.6L394.4 20.18C421.3-6.728 464.9-6.728 491.8 20.18L491.8 20.18zM340.4 142L369.1 171.6L457.9 83.7C466 75.53 466 62.29 457.9 54.12C449.7 45.96 436.5 45.96 428.3 54.12L340.4 142zM122.8 260.7L61.29 450.7L251.3 389.2L122.8 260.7z"/></svg>