<svg xmlns="http://www.w3.org/2000/svg" viewBox="0 0 640 512"><!--! Font Awesome Pro 6.1.1 by @fontawesome - https://fontawesome.com License - https://fontawesome.com/license (Commercial License) Copyright 2022 Fonticons, Inc. --><path d="M0 256V160C0 148.2 6.435 137.8 16 132.3V96C16 60.65 44.65 32 80 32H336C365.8 32 390.9 52.4 397.1 80H435.7C457.4 80 477.1 92.53 486.4 112.2L538.7 223.3L538.1 224H544C579.3 224 608 252.7 608 288V336H616C629.3 336 640 346.7 640 360C640 373.3 629.3 384 616 384H576C576 437 533 480 480 480C426.1 480 384 437 384 384H256C256 437 213 480 160 480C106.1 480 64 437 64 384H16V382.6C6.678 379.3 0 370.5 0 360C0 349.5 6.678 340.7 16 337.4V283.7C6.435 278.2 0 267.8 0 256zM336 80H80C71.16 80 64 87.16 64 96V336H76.84C93.44 307.3 124.5 288 160 288C195.5 288 226.6 307.3 243.2 336H352V96C352 87.16 344.8 80 336 80zM208 384C208 357.5 186.5 336 160 336C133.5 336 112 357.5 112 384C112 410.5 133.5 432 160 432C186.5 432 208 410.5 208 384zM442.9 132.6C441.6 129.8 438.8 128 435.7 128H400V224H485.9L442.9 132.6zM432 384C432 410.5 453.5 432 480 432C506.5 432 528 410.5 528 384C528 357.5 506.5 336 480 336C453.5 336 432 357.5 432 384z"/></svg>