<svg xmlns="http://www.w3.org/2000/svg" viewBox="0 0 640 512"><!--! Font Awesome Pro 6.0.0-beta3 by @fontawesome - https://fontawesome.com License - https://fontawesome.com/license (Commercial License) Copyright 2021 Fonticons, Inc. --><path d="M424 191.1C454.9 191.1 480 217.1 480 247.1V336H512V207.1C512 202 514.2 196.3 518.2 191.9L598.2 103.9C607.2 94.05 622.3 93.33 632.1 102.2C641.1 111.2 642.7 126.3 633.8 136.1L560 217.3V358.7L633.8 439.9C642.7 449.7 641.1 464.8 632.1 473.8C622.3 482.7 607.2 481.1 598.2 472.1L518.2 384.1L518.1 384H464C464 437 421 480 368 480C314.1 480 272 437 272 384H224C224 437 181 480 128 480C74.98 480 32 437 32 384L32 383.2C13.74 379.5 0 363.4 0 344V248C0 217.1 25.07 192 56 192H128V88C128 57.07 153.1 32 184 32H270.1C289.6 32 307.7 42.15 317.8 58.8L396.5 187.5C397.4 188.9 398.1 190.5 398.6 192L424 191.1zM183.1 79.1C179.6 79.1 175.1 83.58 175.1 87.1V191.1H342.1L276.9 83.83C275.4 81.45 272.8 79.1 270.1 79.1H183.1zM432 312.4V247.1C432 243.6 428.4 239.1 424 239.1H55.1C51.58 239.1 47.1 243.6 47.1 247.1V330.9C65.2 305 94.61 287.1 127.1 287.1C163.5 287.1 194.6 307.3 211.2 336H284.8C301.4 307.3 332.5 287.1 368 287.1C392.6 287.1 415 297.2 432 312.4H432zM127.1 336C101.5 336 79.1 357.5 79.1 384C79.1 410.5 101.5 432 127.1 432C154.5 432 175.1 410.5 175.1 384C175.1 357.5 154.5 336 127.1 336zM368 432C394.5 432 416 410.5 416 384C416 357.5 394.5 336 368 336C341.5 336 319.1 357.5 319.1 384C319.1 410.5 341.5 432 368 432z"/></svg>