<svg xmlns="http://www.w3.org/2000/svg" viewBox="0 0 512 512"><!--! Font Awesome Pro 6.1.1 by @fontawesome - https://fontawesome.com License - https://fontawesome.com/license (Commercial License) Copyright 2022 Fonticons, Inc. --><path d="M371.1 416H139.1c-6.623 0-11.1 5.375-11.1 12v40c0 6.625 5.375 12 11.1 12h231.1c6.625 0 11.1-5.375 11.1-12v-40C383.9 421.4 378.6 416 371.1 416zM139.1 384h39.1c6.625 0 11.1-5.375 11.1-12v-40c0-6.625-5.38-12-12-12h-39.1c-6.623 0-11.99 5.375-11.99 12v40C127.1 378.6 133.4 384 139.1 384zM83.97 320H43.97c-6.625 0-11.98 5.375-11.98 12v40c0 6.625 5.373 12 11.1 12h39.1c6.623 0 11.1-5.375 11.1-12v-40C95.98 325.4 90.59 320 83.97 320zM83.98 416H43.99c-6.625 0-11.1 5.375-11.1 12v40c0 6.625 5.373 12 11.1 12h39.1c6.623 0 11.1-5.375 11.1-12v-40C95.98 421.4 90.61 416 83.98 416zM275.1 384c6.623 0 11.1-5.375 11.1-12v-40c0-6.625-5.375-12-11.1-12h-39.1c-6.625 0-11.1 5.375-11.1 12v40c0 6.625 5.373 12 11.1 12H275.1zM467.1 320h-39.1c-6.625 0-12.01 5.375-12.01 12v40c0 6.625 5.373 12 11.1 12h39.1c6.623 0 11.1-5.375 11.1-12v-40C479.9 325.4 474.6 320 467.1 320zM467.9 416H427.9c-6.625 0-11.1 5.375-11.1 12v40c0 6.625 5.373 12 11.1 12h39.1c6.623 0 11.1-5.375 11.1-12v-40C479.9 421.4 474.6 416 467.9 416zM371.1 320h-39.1c-6.623 0-12 5.375-12 12v40c0 6.625 5.375 12 11.1 12h39.1c6.625 0 11.1-5.375 11.1-12v-40C383.9 325.4 378.6 320 371.1 320zM498.5 132.5C433.9 67.72 347.7 32 256 32S78.15 67.69 13.47 132.5c-15.17 15.19-17.81 38.5-6.453 56.66l38.2 61.22c11.67 18.78 35.15 26.5 55.92 18.34l76.52-30.66c18.76-7.562 30.45-26.94 28.44-47.06L203.2 162.4c34.56-8.594 71.02-8.594 105.6 0l-2.828 28.38c-2.188 20.31 9.561 39.78 28.5 47.31l76.46 30.66c5.531 2.188 11.28 3.25 16.94 3.25c15.42 0 30.28-7.812 38.84-21.56l38.21-61.25C516.3 171 513.7 147.7 498.5 132.5zM428.8 224.2l-75.02-28.44l4.812-48.34c1.109-11.09-5.562-21.47-16.11-25.09c-55.74-19.06-117.1-19.06-172.8 0c-10.55 3.625-17.22 14-16.11 25.09l6.217 46.16L85.94 225L47.43 166.4C103.1 110.7 177.1 80 256 80c78.32 0 151.9 30.25 207.4 85.25L428.8 224.2z"/></svg>