<svg xmlns="http://www.w3.org/2000/svg" viewBox="0 0 512 512"><!--! Font Awesome Pro 6.0.0-beta3 by @fontawesome - https://fontawesome.com License - https://fontawesome.com/license (Commercial License) Copyright 2021 Fonticons, Inc. --><path d="M366.4 414C357.7 410.2 352 401.5 352 392L352 311.1H24C10.75 311.1 0 301.2 0 287.1V56C0 42.75 10.75 32 24 32C37.25 32 48 42.75 48 56V263.1H352L352 184C352 174.5 357.7 165.8 366.4 162C375.2 158.2 385.3 159.9 392.3 166.4L504.3 270.4C514.6 279.9 514.6 296.1 504.3 305.6L392.3 409.6C385.3 416.1 375.2 417.8 366.4 414V414z"/></svg>