<svg xmlns="http://www.w3.org/2000/svg" viewBox="0 0 640 512"><!--! Font Awesome Pro 6.1.1 by @fontawesome - https://fontawesome.com License - https://fontawesome.com/license (Commercial License) Copyright 2022 Fonticons, Inc. --><path d="M520 464H120C106.7 464 96 474.7 96 488C96 501.3 106.7 512 120 512h400c13.25 0 24-10.75 24-24C544 474.7 533.3 464 520 464zM576 0H64C28.65 0 0 28.65 0 64v288c0 35.35 28.65 64 64 64h512c35.35 0 64-28.65 64-64V64C640 28.65 611.3 0 576 0zM592 352c0 8.822-7.178 16-16 16H64c-8.822 0-16-7.178-16-16V64c0-8.822 7.178-16 16-16h512c8.822 0 16 7.178 16 16V352z"/></svg>