<svg xmlns="http://www.w3.org/2000/svg" viewBox="0 0 640 512"><!--! Font Awesome Pro 6.1.1 by @fontawesome - https://fontawesome.com License - https://fontawesome.com/license (Commercial License) Copyright 2022 Fonticons, Inc. --><path d="M632 64h-105.4l-15.25-18.62c16.36-5.121 28.97-18.63 32.48-35.73c1.022-4.977-2.857-9.643-7.938-9.643L400 0C331.5 0 274.1 48 259.5 112H176c-38.13 0-71.75 19.25-92 48.38C37.38 162.5 0 200.9 0 248v48C0 309.3 10.75 320 24 320s24-10.75 24-23.1L48 248c0-13.25 6.875-24.38 16.75-31.62c-.125 2.5-.7514 5.002-.7514 7.627c0 30.12 11.88 58.12 32.13 78.62l-12.88 43.75c-4 13.25-4.375 27.38-1.125 40.75l24.13 100.4C109.8 501.9 122.6 512 137.4 512H212.1c20.85 0 36.13-19.62 31.01-39.84l-25.51-100.8l8.5-23.75l29.88 8.625V480c0 17.6 14.4 32 32 32h80c17.6 0 32-14.4 32-32v-155.6C420.6 301.2 432 271.5 432 240V234.4c21 7 38.38 .75 40.88-.125l31.05-10.6c23.97-8.181 40.08-30.7 40.08-56.03l-.0004-52.25l92.38-36.75C643 74.25 639.9 64 632 64zM488.5 178.2l-31 10.5c-1.625 .5-9.75 3-16.5-3.75L416 160h-32v80c0 26.12-12.63 49-32 63.63L352 464H304V320L196.1 289.1L167.5 369L191.5 464H150l-21.13-87.88C127.6 370.8 127.8 365.2 129.3 360l22.75-76.75C128.5 273.8 112 250.9 112 224c0-35.38 28.63-64 64-64h128l.0002-16c0-53 42.88-96 96-96h51.25l44.75 54.25v65.38C496 172.4 493 176.6 488.5 178.2zM432 80c-8.875 0-16 7.125-16 16s7.125 16 16 16c8.875 0 16-7.125 16-16S440.9 80 432 80z"/></svg>