<svg xmlns="http://www.w3.org/2000/svg" viewBox="0 0 640 512"><!--! Font Awesome Pro 6.0.0-beta3 by @fontawesome - https://fontawesome.com License - https://fontawesome.com/license (Commercial License) Copyright 2021 Fonticons, Inc. --><path d="M464 320h-288C167.2 320 160 327.2 160 336C160 344.8 167.2 352 176 352h114.1L243.2 422.4c-1.967 2.95-3.105 6.244-3.105 9.652C240.1 444.6 251.6 448 256 448c5.156 0 10.22-2.5 13.31-7.125L320 364.8l50.69 76.03C373.8 445.5 378.8 448 384 448c4.379 0 15.94-3.497 15.94-15.94c0-3.408-1.138-6.702-3.105-9.652L349.9 352H464c8.836 0 16-7.164 16-16C480 327.2 472.8 320 464 320zM432 456c0 4.406-3.594 8-8 8h-208c-4.406 0-8-3.594-8-8V384H160v72C160 486.9 185.1 512 216 512h208c30.88 0 56-25.12 56-56V384h-48V456zM622.7 181.9l-71.03-126.8C532.6 21.09 496.6 0 457.7 0H400c-9 0-17.22 5.031-21.34 13.03L323.1 119.4L260.7 11.83C256.4 4.5 248.5 0 240 0H182.3C143.4 0 107.4 21.09 88.38 55.05L17.34 181.9C5.1 202.1 0 225.1 0 248.3V392C0 422.9 25.12 448 56 448h32c30.88 0 56-25.12 56-56V267.8L160 242.6V288h48V160c0-7.719-6.009-24-24-24c-8.062 0-15.78 4.078-20.25 11.14l-64 100.8C97.28 251.8 96 256.3 96 260.8V392c0 4.406-3.594 8-8 8h-32c-4.406 0-8-3.594-8-8V248.3c0-15.03 3.875-29.89 11.22-42.98l71.03-126.8C140.8 59.69 160.8 48 182.3 48h43.97l71.69 121.9L237.2 288h53.97l123.4-240h43.03c21.56 0 41.5 11.69 52.06 30.52l71.03 126.8C588.1 218.4 592 233.3 592 248.3V392c0 4.406-3.594 8-8 8h-32c-4.406 0-8-3.594-8-8V260.1c0-4.578-1.312-9.062-3.781-12.92l-64-100.1c-4.5-7.031-12.23-11.07-20.25-11.07C438 136 432 152 432 160v128H480V242.1l16 25.03V392c0 30.88 25.12 56 56 56h32c30.88 0 56-25.12 56-56V248.3C640 225.1 633.1 202.1 622.7 181.9z"/></svg>