<svg xmlns="http://www.w3.org/2000/svg" viewBox="0 0 384 512"><!--! Font Awesome Pro 6.0.0-beta3 by @fontawesome - https://fontawesome.com License - https://fontawesome.com/license (Commercial License) Copyright 2021 Fonticons, Inc. --><path d="M2.438 252.3C7.391 264.2 19.06 272 32 272h80v160c0 26.51 21.49 48 48 48h64C250.5 480 272 458.5 272 432v-160H352c12.94 0 24.61-7.797 29.56-19.75c4.953-11.97 2.219-25.72-6.938-34.88l-160-176C208.4 35.13 200.2 32 192 32S175.6 35.13 169.4 41.38l-160 176C.2188 226.5-2.516 240.3 2.438 252.3zM192 86.63L313.4 224H224v208H160V224H70.63L192 86.63z"/></svg>