<svg xmlns="http://www.w3.org/2000/svg" viewBox="0 0 448 512"><!--! Font Awesome Pro 6.0.0-beta3 by @fontawesome - https://fontawesome.com License - https://fontawesome.com/license (Commercial License) Copyright 2021 Fonticons, Inc. --><path d="M96 128C96 57.31 153.3 0 224 0C294.7 0 352 57.31 352 128C352 198.7 294.7 256 224 256C153.3 256 96 198.7 96 128zM304 128C304 83.82 268.2 48 224 48C179.8 48 144 83.82 144 128C144 172.2 179.8 208 224 208C268.2 208 304 172.2 304 128zM160 402.3C183.1 409.2 200 430.6 200 456C200 486.9 174.9 512 144 512C113.1 512 88 486.9 88 456C88 430.6 104.9 409.2 128 402.3V361.3C81.09 380.3 48 426.3 48 480V488C48 501.3 37.25 512 24 512C10.75 512 0 501.3 0 488V480C0 382.8 78.8 304 176 304H272C369.2 304 448 382.8 448 480V488C448 501.3 437.3 512 424 512C410.7 512 400 501.3 400 488V480C400 426.3 366.9 380.3 320 361.3V402.3C343.1 409.2 360 430.6 360 456V488C360 496.8 352.8 504 344 504C335.2 504 328 496.8 328 488V456C328 442.7 317.3 432 304 432C290.7 432 280 442.7 280 456V488C280 496.8 272.8 504 264 504C255.2 504 248 496.8 248 488V456C248 430.6 264.9 409.2 288 402.3V352.1C282.8 352.3 277.4 352 272 352H176C170.6 352 165.2 352.3 160 352.1V402.3zM144 480C157.3 480 168 469.3 168 456C168 442.7 157.3 432 144 432C130.7 432 120 442.7 120 456C120 469.3 130.7 480 144 480z"/></svg>