<svg xmlns="http://www.w3.org/2000/svg" viewBox="0 0 640 512"><!--! Font Awesome Pro 6.1.1 by @fontawesome - https://fontawesome.com License - https://fontawesome.com/license (Commercial License) Copyright 2022 Fonticons, Inc. --><path d="M224 256c70.69 0 128-57.31 128-128c0-70.69-57.31-128-128-128S96 57.31 96 128C96 198.7 153.3 256 224 256zM224 48c44.11 0 80 35.89 80 80c0 44.11-35.89 80-80 80S144 172.1 144 128C144 83.89 179.9 48 224 48zM323.6 464H48.99C56.89 400.9 110.8 352 176 352h96c27.91 0 53.46 9.367 74.51 24.59c11.15-11.85 25.33-21.48 41.8-28.44C357.3 320.8 316.6 304 272 304h-96C78.8 304 0 382.8 0 480c0 17.67 14.33 32 32 32h323.2C339.8 498.9 328.8 482.5 323.6 464zM601.7 160.6l-96 19.2C490.8 182.8 480 195.1 480 211.2v161.2C469.9 369.7 459.3 368 448 368c-53.02 0-96 32.23-96 72c0 39.76 42.98 72 96 72s96-32.24 96-72V300.2l70.28-14.05C629.2 283.1 640 269.1 640 254.7V192C640 171.8 621.5 156.7 601.7 160.6z"/></svg>