<svg xmlns="http://www.w3.org/2000/svg" viewBox="0 0 448 512"><!--! Font Awesome Pro 6.0.0-beta3 by @fontawesome - https://fontawesome.com License - https://fontawesome.com/license (Commercial License) Copyright 2021 Fonticons, Inc. --><path d="M358.6 328.8C379.1 308.6 395.1 283.8 404.8 256H416c8.75 0 16-7.25 16-16v-96C432 135.2 424.8 128 416 128h-11.25C378.5 53.5 307.6 0 224 0S69.5 53.5 43.25 128H32C23.25 128 16 135.2 16 144v96C16 248.8 23.25 256 32 256h11.25c9.75 27.75 25.63 52.63 46.13 72.75C37.38 347.2 0 396.1 0 454.4V488C0 501.2 10.75 512 24 512s24-10.75 24-24v-33.63C48 406.8 86.75 368 134.4 368h13C170.9 378.2 196.8 384 224 384s53.13-5.75 76.63-16h13C361.2 368 400 406.8 400 454.4V488c0 13.25 10.75 24 24 24c13.25 0 24-10.75 24-24v-33.63C448 396.1 410.6 347.2 358.6 328.8zM224 336c-79.38 0-144-64.63-144-144S144.6 48 224 48s144 64.62 144 144S303.4 336 224 336zM304 416h-160c-17.75 0-32 14.25-32 32l0 64H160v-48C160 455.2 167.3 448 176 448S192 455.2 192 464V512h144v-64C336 430.2 321.8 416 304 416zM272 480c-8.75 0-16-7.25-16-16s7.25-16 16-16s16 7.25 16 16S280.8 480 272 480zM288 128H160C133.5 128 112 149.5 112 176V192c0 53 43 96 96 96h32c53 0 96-43 96-96V176C336 149.5 314.5 128 288 128zM204 220L192 256L180 220L144 208l36-12L192 160l12 36L240 208L204 220z"/></svg>