<svg xmlns="http://www.w3.org/2000/svg" viewBox="0 0 448 512"><!--! Font Awesome Pro 6.1.1 by @fontawesome - https://fontawesome.com License - https://fontawesome.com/license (Commercial License) Copyright 2022 Fonticons, Inc. --><path d="M320 352H128c-70.69 0-128 57.31-128 128c0 17.67 14.33 32 32 32h384c17.67 0 32-14.33 32-32C448 409.3 390.7 352 320 352zM288 464L224 416l-64 48H49.61C57.04 427.5 89.37 400 128 400h192c38.63 0 70.96 27.53 78.39 64H288zM89.3 293.9L207.8 320h32.31l118.5-26.09c15.48-3.408 26.17-17.43 25.24-33.11l-6.906-117C372.8 63.19 305.5 0 224 0C170.4 0 123.4 27.6 96 69.22V32c8.836 0 16-7.164 16-16C112 7.162 104.8 0 96 0H80C71.16 0 64 7.162 64 16v248l.3984-.3848C64.86 278.1 74.79 290.7 89.3 293.9zM329.7 156.2l.8125 13.76c-25.14 13.92-64.23 43.82-72.69 97.02L248 269.1V171.5L329.7 156.2zM224 48c49.54 0 91.24 33.84 102.3 80H121.7C132.7 81.94 174.4 48 224 48zM118.3 156.2L200 171.5v97.63L190.2 266.1C181.7 213.8 142.6 183.9 117.5 169.9L118.3 156.2z"/></svg>