<svg xmlns="http://www.w3.org/2000/svg" viewBox="0 0 448 512"><!--! Font Awesome Pro 6.0.0-beta3 by @fontawesome - https://fontawesome.com License - https://fontawesome.com/license (Commercial License) Copyright 2021 Fonticons, Inc. --><path d="M280 200c17.67 0 32-14.33 32-32c0-17.67-14.33-32-32-32c-17.67 0-32 14.33-32 32C248 185.7 262.3 200 280 200zM128 320h192c35.35 0 64-28.65 64-64V128c0-35.35-28.65-64-64-64h-72V24C248 10.75 237.3 0 224 0S200 10.75 200 24V64H128C92.65 64 64 92.65 64 128v128C64 291.3 92.65 320 128 320zM112 128c0-8.822 7.178-16 16-16h192c8.822 0 16 7.178 16 16v128c0 8.822-7.178 16-16 16h-16v-32h-32v32h-32v-32h-32v32h-32v-32h-32v32H128C119.2 272 112 264.8 112 256V128zM168 200c17.67 0 32-14.33 32-32c0-17.67-14.33-32-32-32c-17.67 0-32 14.33-32 32C136 185.7 150.3 200 168 200zM416 128v128c17.67 0 32-14.33 32-32V160C448 142.3 433.7 128 416 128zM32 256V128C14.33 128 0 142.3 0 160v64C0 241.7 14.33 256 32 256zM352 352H96c-53.02 0-96 42.98-96 96v32c0 17.67 14.33 32 32 32h384c17.67 0 32-14.33 32-32v-32C448 394.1 405 352 352 352zM400 464H320c0-17.67-14.33-32-32-32H160c-17.67 0-32 14.33-32 32H48V448c0-26.47 21.53-48 48-48h256c26.47 0 48 21.53 48 48V464z"/></svg>