<svg xmlns="http://www.w3.org/2000/svg" viewBox="0 0 448 512"><!--! Font Awesome Pro 6.0.0-beta3 by @fontawesome - https://fontawesome.com License - https://fontawesome.com/license (Commercial License) Copyright 2021 Fonticons, Inc. --><path d="M96 93.06V176c0 70.75 57.25 128 128 128s128-57.25 128-128V93.06C370.6 86.45 384 68.87 384 48C384 21.49 362.5 0 336 0c-14.42 0-27.2 6.488-36 16.55C291.2 6.488 278.4 0 264 0C247.3 0 232.6 8.564 224 21.53C215.4 8.564 200.7 0 184 0C169.6 0 156.8 6.488 148 16.55C139.2 6.488 126.4 0 112 0C85.49 0 64 21.49 64 48C64 68.87 77.4 86.45 96 93.06zM144 160h160v16C304 220.1 268.1 256 224 256S144 220.1 144 176V160zM272 416c-8.836 0-16 7.162-16 16c0 8.836 7.164 16 16 16s16-7.164 16-16C288 423.2 280.8 416 272 416zM352 356.5v-26.28c0-5.205-4.891-9.023-9.939-7.762L224 352l-118.1-29.52C100.9 321.2 96 325 96 330.2v26.28c-54.93 14.23-95.73 63.57-96 122.9C-.0801 497.3 14.1 512 32 512h384c17.9 0 32.08-14.7 32-32.59C447.7 420.1 406.9 370.8 352 356.5zM128 432v32H49.64c6.053-29.22 28.38-53.23 58.4-61.01L144 393.7v-12.2l46.77 11.69l-53.39 24.27C131.7 420 128 425.7 128 432zM160 464v-21.7l100.1-45.5c14.13-6.424 28.82-11.55 43.89-15.32v12.2l35.96 9.314C369.1 410.8 392.3 434.8 398.4 464H160z"/></svg>