<svg xmlns="http://www.w3.org/2000/svg" viewBox="0 0 448 512"><!--! Font Awesome Pro 6.0.0-beta3 by @fontawesome - https://fontawesome.com License - https://fontawesome.com/license (Commercial License) Copyright 2021 Fonticons, Inc. --><path d="M96 128C96 57.31 153.3 0 224 0C294.7 0 352 57.31 352 128V138.1C352 172.9 365.5 205.5 389.5 229.5L393.4 233.4C397.6 237.6 400 243.4 400 249.4C400 261.9 389.9 272 377.4 272H70.63C58.13 272 47.1 261.9 47.1 249.4C47.1 243.4 50.38 237.6 54.63 233.4L58.51 229.5C82.51 205.5 95.1 172.9 95.1 138.1L96 128zM297.3 96H296C275.5 96 257.3 86.4 245.6 71.46C231.9 95.67 205.8 112 176 112H145.6C144.6 117.2 144 122.5 144 128V144C144 188.2 179.8 224 224 224C268.2 224 304 188.2 304 144V128C304 116.6 301.6 105.8 297.3 96zM448 477.9C448 495.6 433.7 509.9 416 509.9H32C14.33 509.9 0 495.6 0 477.9V469.9C0 386.1 61.33 316.7 141.6 304L224 413.9L306.4 304C386.7 316.7 448 386.1 448 469.9V477.9zM122.6 358.8C81.2 375.7 51.34 415.2 48.26 461.9H199.1L122.6 358.8zM325.4 358.8L248 461.9H399.7C396.7 415.2 366.8 375.7 325.4 358.8V358.8z"/></svg>