<svg xmlns="http://www.w3.org/2000/svg" viewBox="0 0 448 512"><!--! Font Awesome Pro 6.1.1 by @fontawesome - https://fontawesome.com License - https://fontawesome.com/license (Commercial License) Copyright 2022 Fonticons, Inc. --><path d="M96 127.1V70.17C96 56.83 104.3 44.89 116.8 40.21L212.8 4.209C220 1.493 227.1 1.493 235.2 4.209L331.2 40.21C343.7 44.89 352 56.83 352 70.17V127.1H351.7C351.9 130.6 352 133.3 352 135.1V175.1C352 246.7 294.7 303.1 224 303.1C153.3 303.1 96 246.7 96 175.1V135.1C96 133.3 96.1 130.6 96.28 127.1H96zM245.6 135.5C231.9 159.7 205.8 175.1 176 175.1H144C144 220.2 179.8 255.1 224 255.1C268.2 255.1 304 220.2 304 175.1V159.1H296C275.5 159.1 257.3 150.4 245.6 135.5zM213.3 53.33H200C195.6 53.33 192 56.92 192 61.33V66.67C192 71.09 195.6 74.67 200 74.67H213.3V87.1C213.3 92.42 216.9 95.1 221.3 95.1H226.7C231.1 95.1 234.7 92.42 234.7 87.1V74.67H248C252.4 74.67 256 71.09 256 66.67V61.33C256 56.92 252.4 53.33 248 53.33H234.7V39.1C234.7 35.58 231.1 31.1 226.7 31.1H221.3C216.9 31.1 213.3 35.58 213.3 39.1V53.33zM317.1 320.8C391.7 335 448 400.5 448 479.2C448 496.2 434.2 509.9 417.3 509.9H30.72C13.75 509.9 0 496.2 0 479.2C0 400.5 56.33 335 130.9 320.8L224 413.9L317.1 320.8zM204.1 461.9L117.1 374.9C81.56 389.9 55.33 422.6 49.31 461.9H204.1zM243.9 461.9H398.7C392.7 422.6 366.4 389.9 330.9 374.9L243.9 461.9z"/></svg>