<svg xmlns="http://www.w3.org/2000/svg" viewBox="0 0 448 512"><!--! Font Awesome Pro 6.1.1 by @fontawesome - https://fontawesome.com License - https://fontawesome.com/license (Commercial License) Copyright 2022 Fonticons, Inc. --><path d="M274.7 304H173.3C77.61 304 0 381.6 0 477.3C0 496.5 15.52 512 34.66 512H413.3C432.5 512 448 496.5 448 477.3C448 381.6 370.4 304 274.7 304zM48.71 464C55.38 401.1 108.7 352 173.3 352h101.3c64.61 0 117.1 49.13 124.6 112H48.71zM105 174.6C123.7 222.2 169.8 256 224 256s100.3-33.81 118.1-81.39C357.2 171.4 368 159.2 368 144V96c0-17.67-14.33-32-32-32h-1.752C312.1 25.9 271.3 0 224 0S135.9 25.9 113.8 64H112c-17.67 0-32 14.33-32 32v48C80 159.2 90.81 171.4 105 174.6zM224 208c-26.03 0-48.97-12.69-63.59-32h127.2C272.1 195.3 250 208 224 208zM224 48c17.85 0 34.18 6.082 47.51 16H176.5C189.8 54.08 206.2 48 224 48zM128 112h192V128H128V112zM309.2 369.4C326 389.9 335 415.2 336 444.6c0 1.562-.8887 2.812-2.443 3.332C333.2 448 332.8 448 332.4 448c-1.111 0-2.223-.5215-2.889-1.355c-10.89-14.38-15.66-19.17-17.66-20.83c-.4434 0-.7773 .1035-1.221 .3125c-2.889 .832-10.89 4.582-32.88 20.62c-1.223 .832-2.666 .9375-4 .3125c-1.221-.625-1.889-1.98-1.777-3.23c3.443-30.42 14.11-55.42 31.77-74.58C304.5 368.5 305.4 368 306.6 368C307.7 368.1 308.7 368.5 309.2 369.4z"/></svg>