<svg xmlns="http://www.w3.org/2000/svg" viewBox="0 0 640 512"><!--! Font Awesome Pro 6.1.1 by @fontawesome - https://fontawesome.com License - https://fontawesome.com/license (Commercial License) Copyright 2022 Fonticons, Inc. --><path d="M512 160c44.18 0 80-35.82 80-80S556.2 0 512 0c-44.18 0-80 35.82-80 80S467.8 160 512 160zM624 380h-44V336c0-8.838-7.164-16-16-16h-40c-8.836 0-16 7.162-16 16v44H464c-8.836 0-16 7.162-16 16v40c0 8.836 7.164 16 16 16h44V496c0 8.836 7.164 16 16 16h40c8.836 0 16-7.164 16-16v-44H624c8.836 0 16-7.164 16-16v-40C640 387.2 632.8 380 624 380zM490.1 192c-12.8 0-24.88 3.037-35.86 8.24C454.8 205.5 455.8 210.6 455.8 216c0 33.71-12.78 64.21-33.16 88h63.7C494.4 294.3 506.4 288 520 288h48c13.57 0 25.58 6.309 33.65 16h20.73C632.1 304 640 295.6 640 285.3C640 233.8 600.6 192 551.9 192H490.1zM319.9 320c57.41 0 103.1-46.56 103.1-104c0-57.44-46.54-104-103.1-104c-57.41 0-103.1 46.56-103.1 104C215.9 273.4 262.5 320 319.9 320zM319.9 160c30.85 0 55.96 25.12 55.96 56S350.7 272 319.9 272S263.9 246.9 263.9 216S289 160 319.9 160zM476 484h-16c-15.4 0-28.93-7.984-36.79-20H178.1c10.47-36.76 47.36-64 91.14-64H369.9c16.76 0 32.47 4.049 46.11 11.04V392c0-10.1 4.199-20.94 10.89-28.66C409.4 356.1 390.2 352 369.9 352H270.1C191.6 352 128 411.7 128 485.3C128 500.1 140.7 512 156.4 512h321.5C476.8 508.2 476 504.2 476 500V484zM183.9 216c0-5.449 .9824-10.63 1.609-15.91C174.6 194.1 162.6 192 149.9 192H88.08C39.44 192 0 233.8 0 285.3C0 295.6 7.887 304 17.62 304h199.5C196.7 280.2 183.9 249.7 183.9 216zM128 160c44.18 0 80-35.82 80-80S172.2 0 128 0C83.82 0 48 35.82 48 80S83.82 160 128 160z"/></svg>