<svg xmlns="http://www.w3.org/2000/svg" viewBox="0 0 448 512"><!--! Font Awesome Pro 6.1.1 by @fontawesome - https://fontawesome.com License - https://fontawesome.com/license (Commercial License) Copyright 2022 Fonticons, Inc. --><path d="M97.07 183.5C96.82 186.4 96.2 189.1 96.2 192c0 70.75 57.22 128 127.9 128c70.71 0 127.9-57.25 127.9-128c0-2.75-.625-5.375-.75-8.125c69.09-30 93.58-77.88 95.08-80.88c3.498-7.125 1.125-15.88-5.621-20.25c-6.623-4.5-15.62-3.25-20.87 2.75c-1.873 1.875-22.49 20.62-76.09 33.63C333.1 69 312.2 0 278.2 0c-10.37 0-19.68 4.5-27.43 10.5c-15.24 11.88-36.77 11.88-52.02 0C191 4.5 181.8 0 171.4 0C137.4 0 116.6 69.38 105.9 119.5c-55.22-13-75.59-31.88-75.96-31.88C25.61 80 15.87 77.25 8.119 81.63c-7.621 4.25-10.37 14-6.121 21.75C3.498 106.3 28.86 153.5 97.07 183.5zM224.1 208c26.61 .125 53.22-2.75 79.21-8.625C299.5 240 265.7 272 224.1 272s-75.46-32-79.21-72.75C170.9 205.3 197.5 208.1 224.1 208zM314.7 352H133.3C59.7 352 0 411.7 0 485.3C0 500.1 11.94 512 26.66 512H421.3C436.1 512 448 500.1 448 485.3C448 411.7 388.3 352 314.7 352zM50.7 464c9.498-36.76 42.95-64 82.64-64h181.3c39.69 0 73.14 27.24 82.64 64H50.7z"/></svg>