<svg xmlns="http://www.w3.org/2000/svg" viewBox="0 0 448 512"><!--! Font Awesome Pro 6.0.0-beta3 by @fontawesome - https://fontawesome.com License - https://fontawesome.com/license (Commercial License) Copyright 2021 Fonticons, Inc. --><path d="M448 71.3C448 71.53 448 71.77 448 72V488C448 494.4 445.5 500.5 440.1 504.1C436.5 509.5 430.4 512 424 512C417.6 512 411.5 509.5 407 504.1C402.5 500.5 400 494.4 400 488V352H351.2C342.8 352 334.4 350.3 326.6 347.1C318.9 343.8 311.8 339.1 305.8 333.1C299.9 327.1 295.2 320 291.1 312.2C288.8 304.4 287.2 296 287.2 287.6L288 173.8C287.1 136.9 299.1 100.8 319.7 70.28C340.4 39.71 369.8 16.04 404.1 2.336C407.9 .7942 411.9 .001 416 .0003C424.5 .0003 432.6 3.372 438.6 9.373C444.6 15.37 448 23.51 448 32V71.3zM400 58.08C380.4 70.33 364.2 87.39 352.1 107.6C341.8 127.9 335.9 150.7 336 173.8L335.2 288C335.2 292.2 336.9 296.3 339.9 299.3C342.9 302.3 346.1 304 351.2 304H399L400 58.08zM240.1 7.029C245.5 11.53 248 17.63 248 24V184C247.1 207.3 238.7 229.7 222.2 246.2C205.7 262.7 183.3 271.1 160 272H152V488C152 494.4 149.5 500.5 144.1 504.1C140.5 509.5 134.4 512 128 512C121.6 512 115.5 509.5 111 504.1C106.5 500.5 104 494.4 104 488V272H96C72.67 271.1 50.29 262.7 33.79 246.2C17.29 229.7 8.017 207.3 8 184V24C8 17.63 10.53 11.53 15.03 7.029C19.53 2.529 25.63 0 32 0C38.37 0 44.47 2.529 48.97 7.029C53.47 11.53 56 17.63 56 24V144H104V25.6C104 19.23 106.5 13.13 111 8.629C115.5 4.129 121.6 1.6 128 1.6C134.4 1.6 140.5 4.129 144.1 8.629C149.5 13.13 152 19.23 152 25.6V144H200V24C200 17.63 202.5 11.53 207 7.029C211.5 2.529 217.6 0 224 0C230.4 0 236.5 2.529 240.1 7.029zM184.9 214.9C191.9 209 196.7 200.1 198.4 192H57.6C59.32 200.1 64.08 209 71.08 214.9C78.08 220.7 86.89 223.9 96 224H160C169.1 223.9 177.9 220.7 184.9 214.9z"/></svg>