<svg xmlns="http://www.w3.org/2000/svg" viewBox="0 0 512 512"><!--! Font Awesome Pro 6.1.1 by @fontawesome - https://fontawesome.com License - https://fontawesome.com/license (Commercial License) Copyright 2022 Fonticons, Inc. --><path d="M496 32H480c-8.836 0-16 7.162-16 16v32h-32v-32C432 39.16 424.8 32 416 32h-16C391.2 32 384 39.16 384 48v32h-104v-64c0-8.838-7.164-16-16-16h-16c-8.836 0-16 7.162-16 16v64H128v-32C128 39.16 120.8 32 112 32H96C87.16 32 80 39.16 80 48v32h-32v-32C48 39.16 40.84 32 32 32H16C7.164 32 0 39.16 0 48V96c0 17.67 14.33 32 32 32h36.73L232 236.8V512h48V236.8L443.3 128H480c17.67 0 32-14.33 32-32V48C512 39.16 504.8 32 496 32zM155.3 128H232v51.16L155.3 128zM280 128h76.73L280 179.2V128z"/></svg>