<svg xmlns="http://www.w3.org/2000/svg" viewBox="0 0 640 512"><!--! Font Awesome Pro 6.0.0-beta3 by @fontawesome - https://fontawesome.com License - https://fontawesome.com/license (Commercial License) Copyright 2021 Fonticons, Inc. --><path d="M640 120C639.9 53.75 586.3 .125 520 0H309.6C253.4 0 204 39.88 192.2 94.88L130.2 384H96c-53 0-96 43-96 96v16C0 504.9 7.125 512 16 512H224c17.62 0 32-14.38 32-32v-64c0-17.62-14.38-32-32-32H179.4L239.2 104.9C246.5 71.75 275.8 48.12 309.6 48H520c33.5-.125 62.5 22.88 70.13 55.5c7.625 32.5-8.25 66-38.38 80.75C515.9 148.1 467 127.9 416 128h-32c-17.62 0-32 14.38-32 32v171.2C367 323.9 383.4 320.1 400 320V176H416c79.38 0 144 64.62 144 144v128c0 8.875-7.125 16-16 16h-37.25c-5.25 18.12-15.13 34.63-28.5 48H544c35.38 0 64-28.62 64-64v-128c0-34.5-9.375-68.25-27-97.88C616.1 201.4 640 163.8 640 120zM208 432v32H50.75c6.75-19.12 24.87-32 45.25-32H208zM400 352c-44.13 0-80 35.88-80 80s35.88 80 80 80s80-35.88 80-80S444.1 352 400 352zM400 448c-8.875 0-16-7.125-16-16s7.125-16 16-16s16 7.125 16 16S408.9 448 400 448z"/></svg>