<svg xmlns="http://www.w3.org/2000/svg" viewBox="0 0 512 512"><!--! Font Awesome Pro 6.0.0-beta3 by @fontawesome - https://fontawesome.com License - https://fontawesome.com/license (Commercial License) Copyright 2021 Fonticons, Inc. --><path d="M480 192h-17.69C441.3 124.3 387.7 70.74 320 49.69V32c0-17.67-14.33-32-32-32H224C206.3 0 192 14.33 192 32v17.69C124.3 70.74 70.74 124.3 49.69 192H32C14.33 192 0 206.3 0 224v64c0 17.67 14.33 32 32 32h17.69C70.74 387.7 124.3 441.3 192 462.3V480c0 17.67 14.33 32 32 32h64c17.67 0 32-14.33 32-32v-17.69C387.7 441.3 441.3 387.7 462.3 320H480c17.67 0 32-14.33 32-32V224C512 206.3 497.7 192 480 192zM240 48h32v32h-32V48zM80 272h-32v-32h32V272zM272 464h-32v-32h32V464zM411.5 319.1c-17.07 41.91-50.49 75.32-92.39 92.39C316.8 396 304.1 384 288 384H224c-16.07 0-28.8 12.04-31.09 27.47c-41.9-17.07-75.32-50.48-92.39-92.39C115.1 316.8 128 304.1 128 288V224c0-16.07-12.04-28.8-27.47-31.09c17.07-41.91 50.49-75.32 92.39-92.39C195.2 115.1 207.9 128 224 128h64c16.07 0 28.8-12.04 31.09-27.47c41.9 17.07 75.32 50.48 92.39 92.39C396 195.2 384 207.9 384 224v64C384 304.1 396 316.8 411.5 319.1zM464 272h-32v-32h32V272z"/></svg>