<svg xmlns="http://www.w3.org/2000/svg" viewBox="0 0 448 512"><!--! Font Awesome Pro 6.1.1 by @fontawesome - https://fontawesome.com License - https://fontawesome.com/license (Commercial License) Copyright 2022 Fonticons, Inc. --><path d="M416 32C433.7 32 448 46.33 448 64V128C448 145.7 433.7 160 416 160H408V352H416C433.7 352 448 366.3 448 384V448C448 465.7 433.7 480 416 480H352C334.3 480 320 465.7 320 448V440H128V448C128 465.7 113.7 480 96 480H32C14.33 480 0 465.7 0 448V384C0 366.3 14.33 352 32 352H40V160H32C14.33 160 0 145.7 0 128V64C0 46.33 14.33 32 32 32H96C113.7 32 128 46.33 128 64V72H320V64C320 46.33 334.3 32 352 32H416zM360 72V120H408V72H360zM88 352H96C113.7 352 128 366.3 128 384V392H320V384C320 366.3 334.3 352 352 352H360V160H352C334.3 160 320 145.7 320 128V120H128V128C128 145.7 113.7 160 96 160H88V352zM88 440V392H40V440H88zM408 440V392H360V440H408zM88 120V72H40V120H88z"/></svg>