<svg xmlns="http://www.w3.org/2000/svg" viewBox="0 0 448 512"><!--! Font Awesome Pro 6.1.1 by @fontawesome - https://fontawesome.com License - https://fontawesome.com/license (Commercial License) Copyright 2022 Fonticons, Inc. --><path d="M438.9 251.6L400 185.5V56c0-28.14-20.93-51.27-48-55.19V0h-38.84c-9.447 0-17.73 5.65-21.61 14.12l-9.863 6.57c-35.03 23.38-80.28 23.38-115.4 0L156.4 14.12C152.6 5.65 144.3 0 134.8 0H96v.8086C68.93 4.73 48 27.86 48 56v129.5L10.09 250C3.5 259.5 0 270.6 0 282.1V456C0 486.9 25.13 512 56 512h336c30.88 0 56-25.12 56-56V282.1C448 270.6 444.5 259.5 438.9 251.6zM193.4 287.9C192.5 290.5 192 293.3 192 296v168H56c-4.406 0-8-3.594-8-8V282.1c0-1.625 .5313-3.25 2.469-6.188l42.22-71.75C94.84 200.5 96 196.3 96 192V56C96 51.59 99.59 48 104 48h13.94l80.59 225.6L193.4 287.9zM180.2 79.77C194.5 84.08 209.3 86.25 224 86.25s29.49-2.168 43.76-6.479L224 202.3L180.2 79.77zM400 456c0 4.406-3.594 8-8 8H240V300.2L330.1 48H344C348.4 48 352 51.59 352 56V192c0 4.281 1.156 8.469 3.312 12.16l43.22 73.31C399.5 278.8 400 280.5 400 282.1V456zM342.5 286.5l-5.051 .0371l.0371-5.057c.0723-12.8-9.268-24.26-22.06-25.42c-14.68-1.311-27.07 10.22-27.21 24.62L288 329.3C287.1 333 290.1 336 294.7 336l48.53-.2148c14.43-.1094 25.98-12.47 24.67-27.17C366.7 295.8 355.3 286.5 342.5 286.5zM112 360c-22.09 0-40 17.91-40 40s17.91 40 40 40s40-17.91 40-40S134.1 360 112 360zM84.69 260.7c-6.25 6.25-6.25 16.38 0 22.62L97.38 296L84.69 308.7c-6.25 6.25-6.25 16.38 0 22.62C87.81 334.4 91.91 336 96 336s8.188-1.562 11.31-4.688L120 318.6l12.69 12.69C135.8 334.4 139.9 336 144 336s8.188-1.562 11.31-4.688c6.25-6.25 6.25-16.38 0-22.62L142.6 296l12.69-12.69c6.25-6.25 6.25-16.38 0-22.62s-16.38-6.25-22.62 0L120 273.4L107.3 260.7C101.1 254.4 90.94 254.4 84.69 260.7z"/></svg>