<svg xmlns="http://www.w3.org/2000/svg" viewBox="0 0 512 512"><!--! Font Awesome Pro 6.1.1 by @fontawesome - https://fontawesome.com License - https://fontawesome.com/license (Commercial License) Copyright 2022 Fonticons, Inc. --><path d="M0 56C0 42.75 10.75 32 24 32H232C245.3 32 256 42.75 256 56C256 69.25 245.3 80 232 80H224V266.8C203.8 295.4 192 330.3 192 368C192 393.2 197.3 417.1 206.8 438.8C189.5 463.7 160.6 480 128 480C74.98 480 32 437 32 384V80H24C10.75 80 0 69.25 0 56V56zM80 192H176V80H80V192zM80 240V384C80 410.5 101.5 432 128 432C154.5 432 176 410.5 176 384V240H80zM512 368C512 447.5 447.5 512 368 512C288.5 512 224 447.5 224 368C224 288.5 288.5 224 368 224C447.5 224 512 288.5 512 368zM412.7 324.7L352 385.4L323.3 356.7C317.1 350.4 306.9 350.4 300.7 356.7C294.4 362.9 294.4 373.1 300.7 379.3L340.7 419.3C346.9 425.6 357.1 425.6 363.3 419.3L435.3 347.3C441.6 341.1 441.6 330.9 435.3 324.7C429.1 318.4 418.9 318.4 412.7 324.7H412.7z"/></svg>