<svg xmlns="http://www.w3.org/2000/svg" viewBox="0 0 512 512"><!--! Font Awesome Pro 6.0.0-beta3 by @fontawesome - https://fontawesome.com License - https://fontawesome.com/license (Commercial License) Copyright 2021 Fonticons, Inc. --><path d="M504.1 183l-176-176C324.3 2.344 318.1 0 312 0s-12.28 2.344-16.97 7.031c-9.375 9.375-9.375 24.56 0 33.94l15.16 15.16l-277.3 276.5c-38.75 38.75-45.13 102-9.375 143.5C44.08 500 72.76 512 101.5 512h.4473c26.38 0 52.75-9.1 72.88-30.12l281-280.1l15.19 15.19C475.7 221.7 481.8 224 488 224s12.28-2.344 16.97-7.031C514.3 207.6 514.3 192.4 504.1 183zM333.4 256H177.7l166.3-165.9l77.82 77.73L333.4 256z"/></svg>