<svg xmlns="http://www.w3.org/2000/svg" viewBox="0 0 576 512"><!--! Font Awesome Pro 6.1.1 by @fontawesome - https://fontawesome.com License - https://fontawesome.com/license (Commercial License) Copyright 2022 Fonticons, Inc. --><path d="M557.6 102.3c-11.53-7.406-25.88-8.391-38.28-2.688L416 147V128c0-35.35-28.65-64-64-64H64C28.65 64 0 92.65 0 128v256c0 35.35 28.65 64 64 64h288c35.35 0 64-28.65 64-64v-19.02l103.3 47.36c5.344 2.453 11.03 3.672 16.69 3.672c7.531 0 15.02-2.141 21.59-6.359C569.1 402.3 576 389.7 576 375.1V136C576 122.3 569.1 109.8 557.6 102.3zM368 384c0 8.822-7.178 16-16 16H64c-8.822 0-16-7.178-16-16V128c0-8.822 7.178-16 16-16h288c8.822 0 16 7.178 16 16V384zM528 363.5L416 312.2V199.8l112-51.33V363.5zM296 144c-6.156 0-12.28 2.344-16.97 7.031L144 286.1V232c0-13.25-10.75-24-24-24S96 218.8 96 232v112c0 13.25 10.75 24 24 24h112C245.3 368 256 357.3 256 344S245.3 320 232 320H177.9l135-135c9.375-9.375 9.375-24.56 0-33.94C308.3 146.3 302.2 144 296 144z"/></svg>