<svg xmlns="http://www.w3.org/2000/svg" viewBox="0 0 576 512"><!--! Font Awesome Pro 6.1.1 by @fontawesome - https://fontawesome.com License - https://fontawesome.com/license (Commercial License) Copyright 2022 Fonticons, Inc. --><path d="M557.6 102.3c-11.53-7.406-25.88-8.391-38.28-2.688L416 147V128c0-35.35-28.65-64-64-64H64C28.65 64 0 92.65 0 128v256c0 35.35 28.65 64 64 64h288c35.35 0 64-28.65 64-64v-19.02l103.3 47.36c5.344 2.453 11.03 3.672 16.69 3.672c7.531 0 15.02-2.141 21.59-6.359C569.1 402.3 576 389.7 576 375.1V136C576 122.3 569.1 109.8 557.6 102.3zM368 384c0 8.822-7.178 16-16 16H64c-8.822 0-16-7.178-16-16V128c0-8.822 7.178-16 16-16h288c8.822 0 16 7.178 16 16V384zM528 363.5L416 312.2V199.8l112-51.33V363.5zM288 232H231.1V175.1C231.1 162.7 221.3 152 208 152S184 162.7 184 175.1V232H127.1C114.7 232 104 242.7 104 256c0 13.26 10.73 23.1 23.1 23.1H184v56C184 349.3 194.7 360 208 360c13.26 0 23.1-10.74 23.1-23.1V279.1h56C301.3 279.1 312 269.3 312 256S301.3 232 288 232z"/></svg>