<svg xmlns="http://www.w3.org/2000/svg" viewBox="0 0 320 512"><!--! Font Awesome Pro 6.0.0-beta3 by @fontawesome - https://fontawesome.com License - https://fontawesome.com/license (Commercial License) Copyright 2021 Fonticons, Inc. --><path d="M301.2 34.84c-4.203-1.896-8.727-2.841-13.16-2.841c-7.697 .002-15.29 2.786-21.27 8.1L131.8 160H48c-26.51 0-48 21.49-48 47.1v95.1c0 26.51 21.49 47.1 48 47.1h83.84l134.9 119.9C272.7 477.2 280.3 480 288 480c4.438 0 8.959-.9312 13.16-2.837C312.7 472 320 460.6 320 448V64C320 51.41 312.7 39.1 301.2 34.84zM272 412.4L150.1 304H48v-95.1h102.1L272 99.64V412.4z"/></svg>