<svg xmlns="http://www.w3.org/2000/svg" viewBox="0 0 640 512"><!--! Font Awesome Pro 6.1.1 by @fontawesome - https://fontawesome.com License - https://fontawesome.com/license (Commercial License) Copyright 2022 Fonticons, Inc. --><path d="M301.2 34.98c-4.201-1.893-8.727-2.902-13.16-2.902c-7.697 0-15.29 2.884-21.27 8.192L131.8 160.1H48c-26.51 0-48 21.48-48 47.96v95.92c0 26.48 21.49 47.96 48 47.96h83.84l134.9 119.8C272.7 477 280.3 479.8 288 479.8c4.438 0 8.959-.9311 13.16-2.835C312.7 471.8 320 460.4 320 447.9V64.12C320 51.54 312.7 40.13 301.2 34.98zM272 412.1L150.1 303.9L48 303.9v-95.83h102.1L272 99.84V412.1zM412.6 182c-4.469-3.623-9.855-5.394-15.2-5.394c-6.951 0-13.83 2.992-18.55 8.797c-8.406 10.24-6.906 25.35 3.375 33.74C393.5 228.4 400 241.8 400 255.1c0 14.17-6.5 27.59-17.81 36.83c-10.28 8.396-11.78 23.5-3.375 33.74c4.719 5.805 11.62 8.802 18.56 8.802c5.344 0 10.75-1.78 15.19-5.399C435.1 311.5 448 284.6 448 255.1S435.1 200.4 412.6 182zM473.1 108.2c-4.455-3.633-9.842-5.41-15.2-5.41c-6.934 0-13.82 2.975-18.58 8.75c-8.406 10.24-6.906 25.35 3.344 33.74C476.6 172.1 496 213.3 496 255.1c0 42.64-19.44 82.1-53.31 110.7c-10.25 8.396-11.75 23.5-3.344 33.74c4.75 5.773 11.62 8.771 18.56 8.771c5.375 0 10.75-1.78 15.22-5.431C518.2 366.9 544 313 544 255.1S518.2 145 473.1 108.2zM534.4 33.4C529.9 29.77 524.5 28 519.2 28c-6.941 0-13.84 2.977-18.6 8.739c-8.406 10.24-6.906 25.35 3.344 33.74C559.9 116.3 592 183.9 592 255.1s-32.09 139.7-88.06 185.5c-10.25 8.396-11.75 23.5-3.344 33.74C505.3 481 512.2 484 519.2 484c5.375 0 10.75-1.779 15.22-5.431C601.5 423.6 640 342.5 640 255.1C640 169.5 601.5 88.34 534.4 33.4z"/></svg>