<svg xmlns="http://www.w3.org/2000/svg" viewBox="0 0 576 512"><!--! Font Awesome Pro 6.1.1 by @fontawesome - https://fontawesome.com License - https://fontawesome.com/license (Commercial License) Copyright 2022 Fonticons, Inc. --><path d="M333.2 34.84c-4.201-1.896-8.729-2.841-13.16-2.841c-7.697 0-15.29 2.784-21.27 8.1L163.8 160H80c-26.51 0-48 21.49-48 47.1v95.1c0 26.51 21.49 47.1 48 47.1h83.84l134.9 119.9C304.7 477.2 312.3 480 320 480c4.438 0 8.959-.9312 13.16-2.837C344.7 472 352 460.6 352 448V64C352 51.41 344.7 39.1 333.2 34.84zM304 412.4L182.1 304H80v-95.1h102.1L304 99.64V412.4zM444.6 181.9c-4.471-3.629-9.857-5.401-15.2-5.401c-6.949 0-13.83 2.994-18.55 8.807c-8.406 10.25-6.906 25.37 3.375 33.78C425.5 228.4 432 241.8 432 256s-6.5 27.62-17.81 36.87c-10.28 8.406-11.78 23.53-3.375 33.78c4.719 5.812 11.62 8.812 18.56 8.812c5.344 0 10.75-1.781 15.19-5.406C467.1 311.6 480 284.7 480 256C480 227.3 467.1 200.4 444.6 181.9zM505.1 108c-4.455-3.637-9.842-5.417-15.2-5.417c-6.934 0-13.82 2.979-18.58 8.761c-8.406 10.25-6.906 25.37 3.344 33.78C508.6 172.9 528 213.3 528 256c0 42.69-19.44 83.09-53.31 110.9c-10.25 8.406-11.75 23.53-3.344 33.78c4.75 5.781 11.62 8.781 18.56 8.781c5.375 0 10.75-1.781 15.22-5.437C550.2 367.1 576 313.1 576 256C576 198.9 550.2 144.9 505.1 108z"/></svg>