<svg xmlns="http://www.w3.org/2000/svg" viewBox="0 0 640 512"><!--! Font Awesome Pro 6.0.0-beta3 by @fontawesome - https://fontawesome.com License - https://fontawesome.com/license (Commercial License) Copyright 2021 Fonticons, Inc. --><path d="M323 51.12C321.1 50.34 318.9 50.34 316.1 51.12L62.98 154.1C53.93 157.8 48 166.6 48 176.3V488C48 501.3 37.25 512 24 512C10.75 512 0 501.3 0 488V176.3C0 147 17.78 120.6 44.95 109.6L298.1 6.634C312.5 1.164 327.5 1.164 341 6.634L595 109.6C622.2 120.6 640 147 640 176.3V488C640 501.3 629.3 512 616 512C602.7 512 592 501.3 592 488V176.3C592 166.6 586.1 157.8 577 154.1L323 51.12zM143.1 240V488C143.1 501.3 133.3 512 119.1 512C106.7 512 95.1 501.3 95.1 488V232C95.1 209.9 113.9 192 135.1 192H504C526.1 192 544 209.9 544 232V488C544 501.3 533.3 512 520 512C506.7 512 496 501.3 496 488V240H143.1zM440 416C453.3 416 464 426.7 464 440V488C464 501.3 453.3 512 440 512H376C362.7 512 352 501.3 352 488V440C352 426.7 362.7 416 376 416H440zM175.1 312C175.1 298.7 186.7 288 199.1 288H295.1C309.3 288 319.1 298.7 319.1 312V360C319.1 373.3 309.3 384 295.1 384H199.1C186.7 384 175.1 373.3 175.1 360V312zM295.1 416C309.3 416 319.1 426.7 319.1 440V488C319.1 501.3 309.3 512 295.1 512H199.1C186.7 512 175.1 501.3 175.1 488V440C175.1 426.7 186.7 416 199.1 416H295.1z"/></svg>