<svg xmlns="http://www.w3.org/2000/svg" viewBox="0 0 384 512"><!--! Font Awesome Pro 6.1.1 by @fontawesome - https://fontawesome.com License - https://fontawesome.com/license (Commercial License) Copyright 2022 Fonticons, Inc. --><path d="M280 160C288.8 160 296 167.2 296 176V208C296 216.8 288.8 224 280 224H104C95.16 224 88 216.8 88 208V176C88 167.2 95.16 160 104 160H280zM88 272C88 258.7 98.75 248 112 248C125.3 248 136 258.7 136 272C136 285.3 125.3 296 112 296C98.75 296 88 285.3 88 272zM216 272C216 285.3 205.3 296 192 296C178.7 296 168 285.3 168 272C168 258.7 178.7 248 192 248C205.3 248 216 258.7 216 272zM248 272C248 258.7 258.7 248 272 248C285.3 248 296 258.7 296 272C296 285.3 285.3 296 272 296C258.7 296 248 285.3 248 272zM136 336C136 349.3 125.3 360 112 360C98.75 360 88 349.3 88 336C88 322.7 98.75 312 112 312C125.3 312 136 322.7 136 336zM168 336C168 322.7 178.7 312 192 312C205.3 312 216 322.7 216 336C216 349.3 205.3 360 192 360C178.7 360 168 349.3 168 336zM296 336C296 349.3 285.3 360 272 360C258.7 360 248 349.3 248 336C248 322.7 258.7 312 272 312C285.3 312 296 322.7 296 336zM271.7 0C298.4 0 320 21.63 320 48.32V65.6C356.5 73.01 384 105.3 384 144V368C384 406.7 356.5 438.1 320 446.4V464C320 490.5 298.5 512 272 512H112C85.49 512 64 490.5 64 464V446.4C27.48 438.1 0 406.7 0 368V144C0 105.3 27.48 73.01 64 65.6V48.32C64 21.63 85.63 0 112.3 0L271.7 0zM304 112H80C62.33 112 48 126.3 48 144V368C48 385.7 62.33 400 80 400H304C321.7 400 336 385.7 336 368V144C336 126.3 321.7 112 304 112z"/></svg>