<svg xmlns="http://www.w3.org/2000/svg" viewBox="0 0 640 512"><!--! Font Awesome Pro 6.1.1 by @fontawesome - https://fontawesome.com License - https://fontawesome.com/license (Commercial License) Copyright 2022 Fonticons, Inc. --><path d="M640 287.1c0 11.04-8.953 19.94-19.1 19.94h-60.01c-9.311 0-17.39-6.424-19.49-15.5l-4.625-19.1l-36.38 159.1c-2.25 9.873-10.5 15.1-20.38 15.5c-9.625-.3749-17.5-7.623-18.88-17.25L433.8 241.4l-29.88 252.8c-1.125 9.998-9.875 17.62-20 17.75c-10 0-18.38-7.373-19.63-17.37L320 170.3L275.8 494.6c-1.375 9.998-9.719 17.45-19.84 17.33c-10 0-18.66-7.706-19.78-17.7L206.2 241.4l-26.5 189.3c-1.375 9.498-9.25 16.62-18.75 17.12c-10.5 0-18.25-5.749-20.5-15.5L104.1 272.4L99.5 292.4C97.4 301.5 89.32 307.9 80 307.9H19.99C8.951 307.9 0 299 0 287.1c0-11.04 8.953-20.05 19.1-20.05H64.12l20.38-92.48C86.62 166.5 94.75 159.1 104 159.1s17.38 6.373 19.5 15.5l31.75 140.2l33-234.4c1.375-9.998 10-17.37 20-17.25c10 .125 18.5 7.623 19.63 17.62l29.5 249.9l42.87-314.3C301.6 7.373 309.1 0 320 0c9.1 0 18.38 7.373 19.75 17.25l42.87 314.3l29.5-249.9c1.125-9.998 9.625-17.5 19.63-17.62c10-.125 18.62 7.248 20 17.12l33 234.6l31.75-140.2C518.6 166.3 526.8 159.1 536 159.1c9.25 .125 17.38 6.498 19.5 15.5l20.38 92.48h44.13C631 267.9 640 276.9 640 287.1z"/></svg>