<svg xmlns="http://www.w3.org/2000/svg" viewBox="0 0 640 512"><!--! Font Awesome Pro 6.1.1 by @fontawesome - https://fontawesome.com License - https://fontawesome.com/license (Commercial License) Copyright 2022 Fonticons, Inc. --><path d="M338.4 373.1c-18.75 18.88-49.13 18.88-67.88 0l-17-16.88l11.62-11.62c9.256-9.256 21.32-13.82 33.41-13.91L243.7 287.7C241.7 296.4 237.4 304.4 230.9 310.9l-11.25 11.38l-17-17c-15.22-15.22-17.43-37.82-7.936-55.93L156.1 219.1c-24.17 37.23-19.99 87.54 12.64 120.2l17 17L71.03 470.1c-9.375 9.375-9.375 24.62 0 34C75.78 509.6 81.91 512 88.03 512c6.125 0 12.25-2.375 17-7l114.6-114.9l16.88 17c37.5 37.5 98.25 37.5 135.8 0l10.43-10.46l-38.07-29.84L338.4 373.1zM630.8 469.1l-179.8-140.1c.2168-.2129 .4883-.3145 .7031-.5293l33.63-33.75c5.625-5.625 6-14.25 1.375-20.5c16.13-4.125 31.38-12.12 44-24.75l33.75-33.88c6.25-6.25 6.25-16.38 0-22.63l-39.5-39.63c-3.125-3.25 2.233-.2412 18.11-15.12c26.62-28.88 34.75-75.06 32.63-120.1c-.875-19.75-24-17.25-30.63-17.25c-34.25 0-76.95 6.374-105.7 33.13c-18.5 18.62-11.67 21.93-16.17 17.3l-39.63-39.5c-6.25-6.25-16.38-6.25-22.5 0l-34.13 34C314.3 57.6 306.3 72.98 302.2 89.11C291 80.86 281.8 90.23 281.7 90.36L247.9 124.1c-8.811 8.811-14.59 19.14-19.11 29.91L38.81 5.109C34.41 1.672 29.19 0 24.03 0C16.91 0 9.845 3.156 5.127 9.187c-8.188 10.44-6.375 25.53 4.062 33.7l591.1 463.1c10.5 8.203 25.56 6.328 33.69-4.078C643.1 492.4 641.2 477.3 630.8 469.1zM316.2 222.5L268.1 185.5c1.389-9.986 5.113-19.73 12.79-27.41l11.12-11.13l17 17C325.9 179.1 327.4 204 316.2 222.5zM472.8 67.73c11.5-10.25 30.5-16.75 54.5-18.88c-2 23.88-8.375 43-18.25 54.63c-11.88 10.25-31 16.63-55 18.5C455.7 101.1 460.8 80.36 472.8 67.73zM360.8 78.98l11.5-11.5l17 17c18.63 18.75 18.75 49.13 0 68l-11.5 11.38l-17-16.88C342 128.2 342 97.86 360.8 78.98zM417.8 293.7c-1.715 1.713-3.916 2.455-5.807 3.855l-53.25-41.74c17.59-7.748 38.77-4.656 53.19 9.758l16.88 17L417.8 293.7zM411.9 197.7l11.25-11.38c18.75-18.75 49.13-18.75 67.88 0l16.88 17L496.7 214.6c-18.75 18.88-49.13 18.88-67.88 0L411.9 197.7z"/></svg>