<svg xmlns="http://www.w3.org/2000/svg" viewBox="0 0 640 512"><!--! Font Awesome Pro 6.0.0-beta3 by @fontawesome - https://fontawesome.com License - https://fontawesome.com/license (Commercial License) Copyright 2021 Fonticons, Inc. --><path d="M630.8 469.1l-179.8-140.9l2.297-2.307c3.053-3.053 4.559-6.99 4.559-10.95c0-3.338-1.068-6.693-3.184-9.551c16.13-4.125 31.38-12.12 44-24.75l33.75-33.88c3.125-3.125 4.688-7.219 4.688-11.31s-1.562-8.189-4.688-11.31l-25.28-25.32l61.82-61.82C573.7 132.3 576 126.1 576 120C576 106.3 564.8 96 552 96c-6.141 0-12.28 2.344-16.97 7.031L473.2 164.8l-14.05-14.07l109.8-109.8C573.7 36.28 576 30.14 576 24C576 10.29 564.8 0 552 0c-6.141 0-12.28 2.344-16.97 7.031l-109.8 109.8l-14.05-14.07l61.76-61.76C477.7 36.28 480 30.14 480 24C480 10.29 468.8 0 456 0c-6.141 0-12.28 2.344-16.97 7.031l-61.73 61.73l-25.75-25.79c-3.125-3.125-7.219-4.688-11.3-4.688s-8.141 1.562-11.2 4.688l-34.13 34C282.3 89.6 274.3 104.1 270.2 121.1C266.8 118.6 263.6 117.7 260.7 117.7c-6.469 0-10.96 4.555-11.05 4.643L222.7 149.3L38.81 5.109C34.41 1.672 29.19 0 24.03 0C16.91 0 9.845 3.156 5.127 9.187c-8.188 10.44-6.375 25.53 4.062 33.7l591.1 463.1c10.5 8.203 25.56 6.328 33.69-4.078C643.1 492.4 641.2 477.3 630.8 469.1zM357.3 184.5l-11.5 11.38l-17-16.88C319.4 169.6 314.7 157.3 314.7 145c0-12.3 4.689-24.61 14.06-34.05l11.5-11.5l17 17c9.328 9.391 14.02 21.7 14.02 34.02C371.3 162.8 366.7 175.1 357.3 184.5zM396.8 246.6l-16.88-16.88l11.25-11.38c9.375-9.375 21.66-14.06 33.94-14.06c12.28 0 24.56 4.688 33.94 14.06l16.88 17L464.7 246.6c-9.375 9.438-21.66 14.16-33.94 14.16C418.5 260.8 406.2 256 396.8 246.6zM154.4 217.7L136.8 235.4C118 254.1 108.7 278.7 108.7 303.3c0 24.6 9.377 49.19 28.13 67.94l17 17L71.03 470.1C66.34 475.7 64 481.8 64 487.1s2.344 12.31 7.031 17C75.78 509.6 81.91 512 88.03 512c6.125 0 12.25-2.375 17-7l82.63-82.88l16.88 17c18.75 18.75 43.31 28.13 67.88 28.13c24.56 0 49.13-9.377 67.88-28.13l34-34.13c3.102-3.035 4.602-6.977 4.602-10.95c0-.1855-.1699-.3438-.1758-.5293L154.4 217.7zM198.9 342.9l-11.25 11.38l-17-17c-9.375-9.375-14.06-21.66-14.06-33.94c0-12.28 4.688-24.56 14.06-33.94l11.25-11.38l17 17C208 284.1 213 296.1 213 308.1C213 321.9 208 333.9 198.9 342.9zM306.4 405.1C297 414.6 284.8 419.3 272.5 419.3c-12.28 0-24.56-4.719-33.94-14.16l-17-16.88l11.62-11.62c9.346-9.346 21.54-14 33.75-14c12.29 0 24.59 4.719 34 14.13l16.88 16.88L306.4 405.1z"/></svg>