<svg xmlns="http://www.w3.org/2000/svg" viewBox="0 0 640 512"><!--! Font Awesome Pro 6.0.0-beta3 by @fontawesome - https://fontawesome.com License - https://fontawesome.com/license (Commercial License) Copyright 2021 Fonticons, Inc. --><path d="M319.1 367.1C289.1 367.1 264 393.1 264 424s25.07 56 55.1 56S376 454.9 376 424S350.9 367.1 319.1 367.1zM632.5 150.6C553.3 75.22 439.4 32 320 32S86.72 75.22 7.473 150.6c-9.625 9.125-10 24.31-.8438 33.91c9.062 9.594 24.31 10 33.91 .8438C110.1 118.4 212.8 80 320 80s209 38.41 279.5 105.4C604.1 189.8 610.1 192 615.1 192c6.344 0 12.69-2.5 17.38-7.469C642.5 174.9 642.2 159.8 632.5 150.6zM320 207.9c-76.63 0-147.9 28-200.6 78.75C109.8 295.9 109.5 311.1 118.7 320.6c9.219 9.625 24.41 9.844 33.94 .6875C196.4 279.2 255.8 256 320 256s123.6 23.19 167.4 65.31C492 325.8 497.1 328 503.1 328c6.281 0 12.59-2.469 17.31-7.375c9.188-9.531 8.875-24.72-.6875-33.94C467.9 235.9 396.6 207.9 320 207.9z"/></svg>