<svg xmlns="http://www.w3.org/2000/svg" viewBox="0 0 512 512"><!--! Font Awesome Pro 6.0.0-beta3 by @fontawesome - https://fontawesome.com License - https://fontawesome.com/license (Commercial License) Copyright 2021 Fonticons, Inc. --><path d="M360 464h-32.52l-.8516-25.54l-49.99-58.88L279.5 464H232.5l4.373-131.2L216.1 309.3C212.5 303.7 206.6 300.5 200.4 299.8L190 298.7L184.5 464H152C138.7 464 128 474.7 128 488C128 501.3 138.7 512 152 512h208c13.25 0 24-10.75 24-24C384 474.7 373.3 464 360 464zM398.7 425.8l-88.35-182.3c-5.928-13.6-6.191-28.1-.7305-42.79l73.28-179.1c3.217-8.111-.7501-17.29-8.861-20.51c-6.725-2.668-14.4-.4258-18.64 5.443L241.3 163.2C232.6 175.2 219.5 183.3 204.8 185.6L13.32 215.9C5.521 217.2-.1652 224 .0028 231.9c.1797 7.93 6.214 14.69 14.1 15.54l189.7 20.53c14.75 1.594 28.26 8.1 37.53 20.58l130.3 153.5c4.963 6.189 13.74 7.742 20.53 3.629C398.1 441.6 401.8 433 398.7 425.8zM255.1 248c-13.26 0-24-10.74-24-23.1c0-13.26 10.74-23.1 24-23.1c13.25 0 23.1 10.74 23.1 23.1C279.1 237.3 269.3 248 255.1 248z"/></svg>