/* XPM */
static char * dolibarr_xpm[] = {
"32 32 161 2",
"  	c None",
". 	c #4378AA",
"+ 	c #4277A8",
"@ 	c #4175A7",
"# 	c #3F74A5",
"$ 	c #3E72A3",
"% 	c #3D71A2",
"& 	c #487AA8",
"* 	c #5A87B0",
"= 	c #5987B0",
"- 	c #5986B0",
"; 	c #5583AE",
"> 	c #4678A6",
", 	c #326A9D",
"' 	c #356C9F",
") 	c #3B70A1",
"! 	c #3B6FA0",
"~ 	c #90ADC9",
"{ 	c #FFFFFF",
"] 	c #DFE7EF",
"^ 	c #A6BED4",
"/ 	c #5683AD",
"( 	c #346A9D",
"_ 	c #3A6E9F",
": 	c #8CAAC7",
"< 	c #CFDCE8",
"[ 	c #4B7AA6",
"} 	c #3A6E9E",
"| 	c #396D9D",
"1 	c #8BA9C6",
"2 	c #FEFEFE",
"3 	c #6C92B6",
"4 	c #376B9C",
"5 	c #386B9B",
"6 	c #8AA8C5",
"7 	c #648CB1",
"8 	c #366A9A",
"9 	c #89A8C4",
"0 	c #FCFCFD",
"a 	c #356898",
"b 	c #89A7C3",
"c 	c #F1F4F8",
"d 	c #C2D1E0",
"e 	c #C4D2E0",
"f 	c #C8D6E3",
"g 	c #E1E8EF",
"h 	c #A4BBD1",
"i 	c #336797",
"j 	c #346797",
"k 	c #88A6C2",
"l 	c #D0DBE6",
"m 	c #285F91",
"n 	c #2F6494",
"o 	c #2E6394",
"p 	c #2B6192",
"q 	c #366898",
"r 	c #A1B9CE",
"s 	c #2A6091",
"t 	c #336595",
"u 	c #88A5C1",
"v 	c #D0DCE7",
"w 	c #2C6092",
"x 	c #2E6193",
"y 	c #9CB4CB",
"z 	c #557FA7",
"A 	c #316493",
"B 	c #86A4C0",
"C 	c #D0DCE6",
"D 	c #2B5F90",
"E 	c #799AB9",
"F 	c #306392",
"G 	c #86A4BF",
"H 	c #2A5E8E",
"I 	c #265B8C",
"J 	c #F2F5F8",
"K 	c #89A5C0",
"L 	c #2F6190",
"M 	c #85A3BE",
"N 	c #285C8D",
"O 	c #23588A",
"P 	c #F7F9FB",
"Q 	c #86A3BF",
"R 	c #2E608E",
"S 	c #85A2BD",
"T 	c #CFDBE5",
"U 	c #275B8A",
"V 	c #3A6995",
"W 	c #7092B2",
"X 	c #2C5E8D",
"Y 	c #84A1BC",
"Z 	c #CFDAE5",
"` 	c #26598A",
" .	c #245889",
"..	c #B1C3D4",
"+.	c #46729B",
"@.	c #2B5D8B",
"#.	c #83A0BB",
"$.	c #CEDAE5",
"%.	c #235787",
"&.	c #265988",
"*.	c #255988",
"=.	c #215686",
"-.	c #376692",
";.	c #B3C5D6",
">.	c #F3F5F8",
",.	c #205585",
"'.	c #2A5C8A",
").	c #82A0BA",
"!.	c #CEDAE4",
"~.	c #467199",
"{.	c #C8D5E0",
"].	c #C9D6E1",
"^.	c #E7EDF2",
"/.	c #94ADC4",
"(.	c #285B89",
"_.	c #285A88",
":.	c #819FB9",
"<.	c #527A9F",
"[.	c #F9FAFB",
"}.	c #275987",
"|.	c #275986",
"1.	c #819DB8",
"2.	c #CED9E3",
"3.	c #51799E",
"4.	c #567DA0",
"5.	c #265785",
"6.	c #809DB8",
"7.	c #51789D",
"8.	c #698AAA",
"9.	c #245584",
"0.	c #255683",
"a.	c #809CB7",
"b.	c #CDD8E3",
"c.	c #4F779B",
"d.	c #EDF1F5",
"e.	c #4B7399",
"f.	c #235582",
"g.	c #235482",
"h.	c #819DB7",
"i.	c #D2DCE5",
"j.	c #4F769B",
"k.	c #D7E0E8",
"l.	c #7896B2",
"m.	c #1B4E7D",
"n.	c #225380",
"o.	c #36628B",
"p.	c #53799C",
"q.	c #52789C",
"r.	c #477095",
"s.	c #2F5D87",
"t.	c #6A8BA9",
"u.	c #6F8FAD",
"v.	c #688AA8",
"w.	c #4F769A",
"x.	c #235380",
"y.	c #1A4D7B",
"z.	c #21527E",
"A.	c #20507D",
"B.	c #1E4F7B",
"C.	c #1D4D7A",
"D.	c #1B4C78",
". . . . . . . . . . . . . . . . . . . . . . . . . . . . . . . . ",
"+ + + + + + + + + + + + + + + + + + + + + + + + + + + + + + + + ",
"@ @ @ @ @ @ @ @ @ @ @ @ @ @ @ @ @ @ @ @ @ @ @ @ @ @ @ @ @ @ @ @ ",
"# # # # # # # # # # # # # # # # # # # # # # # # # # # # # # # # ",
"$ $ $ $ $ $ $ $ $ $ $ $ $ $ $ $ $ $ $ $ $ $ $ $ $ $ $ $ $ $ $ $ ",
"% % % % % % & * = = = = = = - ; > , ' ) % % % % % % % % % % % % ",
"! ! ! ! ! ! ~ { { { { { { { { { { { ] ^ / ( ! ! ! ! ! ! ! ! ! ! ",
"_ _ _ _ _ _ : { { { { { { { { { { { { { { < [ } _ _ _ _ _ _ _ _ ",
"| | | | | | 1 { { { { { { { { { { { { { { 2 { 3 4 | | | | | | | ",
"5 5 5 5 5 5 6 { { { { { { { { { { { { { { { 2 { 7 5 5 5 5 5 5 5 ",
"8 8 8 8 8 8 9 { { { { { { { { { { { { { { { { 2 0 5 8 8 8 8 8 8 ",
"a a a a a a b { { { { { c d e f g { { { { { { { { h i a a a a a ",
"j j j j j j k { { { { { l m n o p q r { { { { { { 0 s j j j j j ",
"t t t t t t u { { { { { v w t t t t x y { { { { { { z t t t t t ",
"A A A A A A B { { { { { C D A A A A A A { { { { { { E A A A A A ",
"F F F F F F G { { { { { l H F F F F F I J { { { { { K F F F F F ",
"L L L L L L M { { { { { l N L L L L L O P { { { { { Q L L L L L ",
"R R R R R R S { { { { { T U R R R R R V { { { { { { W R R R R R ",
"X X X X X X Y { { { { { Z ` X X X X  ...{ { { { { { +.X X X X X ",
"@.@.@.@.@.@.#.{ { { { { $.%.&.*.=.-.;.{ { { { { { >.,.@.@.@.@.@.",
"'.'.'.'.'.'.).{ { { { { !.~.{.].^.{ { { { { { { { /.(.'.'.'.'.'.",
"_._._._._._.:.{ { { { { !.<.{ { { { { { { { { 2 [.}._._._._._._.",
"|.|.|.|.|.|.1.{ { { { { 2.3.{ { { { { { { { 2 { 4.|.|.|.|.|.|.|.",
"5.5.5.5.5.5.6.{ { { { { 2.7.{ { { { { { { 2 { 8.9.5.5.5.5.5.5.5.",
"0.0.0.0.0.0.a.{ { { { { b.c.{ { { { { 2 { d.e.f.0.0.0.0.0.0.0.0.",
"g.g.g.g.g.g.h.{ { { { { i.j.{ { { { { k.l.m.g.g.g.g.g.g.g.g.g.g.",
"n.n.n.n.n.n.o.p.q.q.q.q.r.s.t.u.v.w.x.y.n.n.n.n.n.n.n.n.n.n.n.n.",
"z.z.z.z.z.z.z.z.z.z.z.z.z.z.z.z.z.z.z.z.z.z.z.z.z.z.z.z.z.z.z.z.",
"A.A.A.A.A.A.A.A.A.A.A.A.A.A.A.A.A.A.A.A.A.A.A.A.A.A.A.A.A.A.A.A.",
"B.B.B.B.B.B.B.B.B.B.B.B.B.B.B.B.B.B.B.B.B.B.B.B.B.B.B.B.B.B.B.B.",
"C.C.C.C.C.C.C.C.C.C.C.C.C.C.C.C.C.C.C.C.C.C.C.C.C.C.C.C.C.C.C.C.",
"D.D.D.D.D.D.D.D.D.D.D.D.D.D.D.D.D.D.D.D.D.D.D.D.D.D.D.D.D.D.D.D."};
