<svg xmlns="http://www.w3.org/2000/svg" viewBox="0 0 320 512"><!--! Font Awesome Pro 6.0.0-beta3 by @fontawesome - https://fontawesome.com License - https://fontawesome.com/license (Commercial License) Copyright 2021 Fonticons, Inc. --><path d="M320 355.7C320 424.2 264.2 480 195.7 480H89.74c-40.59 0-76.48-25.88-89.33-64.38c-1.391-4.188 .875-8.719 5.062-10.12c4.219-1.375 8.719 .875 10.12 5.062C26.25 442.5 56.05 464 89.74 464h105.1c59.72 0 108.3-48.59 108.3-108.3s-48.59-108.3-108.3-108.3H8.003c-2.453 0-4.766-1.125-6.281-3.062C.2063 242.4-.3405 239.9 .222 237.5l47.1-199.4C49.1 34.53 52.3 32 56 32h223.1c4.422 0 7.1 3.594 7.1 8S284.4 48 280 48H62.3L18.16 231.4h177.5C264.2 231.4 320 287.2 320 355.7z"/></svg>