<svg xmlns="http://www.w3.org/2000/svg" viewBox="0 0 320 512"><!--! Font Awesome Pro 6.1.1 by @fontawesome - https://fontawesome.com License - https://fontawesome.com/license (Commercial License) Copyright 2022 Fonticons, Inc. --><path d="M0 320c0 88.22 71.78 160 160 160s160-71.78 160-160S248.2 160 160 160C139 160 119.1 164.3 100.7 171.7l121.1-126.2c3.062-3.188 2.938-8.25-.25-11.31C220 32.75 217.1 32 216 32c-2.094 0-4.188 .8125-5.781 2.469C39.84 211.1 0 238.1 0 320zM304 320c0 79.41-64.59 144-144 144S16 399.4 16 320S80.59 176 160 176S304 240.6 304 320z"/></svg>