<svg xmlns="http://www.w3.org/2000/svg" viewBox="0 0 448 512"><!--! Font Awesome Pro 6.0.0-beta3 by @fontawesome - https://fontawesome.com License - https://fontawesome.com/license (Commercial License) Copyright 2021 Fonticons, Inc. --><path d="M384 32H64c-35.35 0-64 28.65-64 64v320c0 35.35 28.65 64 64 64h320c35.35 0 64-28.65 64-64v-320C448 60.65 419.3 32 384 32zM432 416c0 26.47-21.53 48-48 48H64c-26.47 0-48-21.53-48-48v-320c0-26.47 21.53-48 48-48h320c26.47 0 48 21.53 48 48V416zM224 224c-17.67 0-32 14.33-32 32c0 17.67 14.33 32 32 32s32-14.33 32-32C256 238.3 241.7 224 224 224zM224 272c-8.822 0-16-7.178-16-16s7.178-16 16-16s16 7.178 16 16S232.8 272 224 272zM224 96c-88.37 0-160 71.63-160 160s71.63 160 160 160s160-71.63 160-160S312.4 96 224 96zM224 400c-79.4 0-144-64.6-144-144s64.6-144 144-144s144 64.6 144 144S303.4 400 224 400z"/></svg>