<svg xmlns="http://www.w3.org/2000/svg" viewBox="0 0 576 512"><!--! Font Awesome Pro 6.1.1 by @fontawesome - https://fontawesome.com License - https://fontawesome.com/license (Commercial License) Copyright 2022 Fonticons, Inc. --><path d="M384 48H63.1C37.49 48 15.1 69.49 15.1 96V416C15.1 442.5 37.49 464 63.1 464H284.5C288.1 469.6 292 474.9 296.2 480H64C28.65 480 0 451.3 0 416V96C0 60.65 28.65 32 64 32H384C419.3 32 448 60.65 448 96V192.7C442.7 192.2 437.4 192 432 192V96C432 69.49 410.5 48 384 48H384zM223.1 96C293.3 96 352.3 140 374.5 201.6C369.4 203.4 364.5 205.3 359.6 207.5C339.7 151.8 286.5 112 223.1 112C144.5 112 79.1 176.5 79.1 256C79.1 335.5 144.5 400 223.1 400C235.8 400 247.2 398.6 258.2 395.9C259 401.2 260.1 406.5 261.4 411.6C249.4 414.5 236.9 416 223.1 416C135.6 416 63.1 344.4 63.1 256C63.1 167.6 135.6 96 223.1 96V96zM255.1 256C255.1 273.7 241.7 288 223.1 288C206.3 288 191.1 273.7 191.1 256C191.1 238.3 206.3 224 223.1 224C241.7 224 255.1 238.3 255.1 256zM223.1 240C215.2 240 207.1 247.2 207.1 256C207.1 264.8 215.2 272 223.1 272C232.8 272 239.1 264.8 239.1 256C239.1 247.2 232.8 240 223.1 240zM384 336C384 309.5 405.5 288 432 288C458.5 288 480 309.5 480 336C480 362.5 458.5 384 432 384C405.5 384 384 362.5 384 336zM432 368C449.7 368 464 353.7 464 336C464 318.3 449.7 304 432 304C414.3 304 400 318.3 400 336C400 353.7 414.3 368 432 368zM576 368C576 447.5 511.5 512 432 512C352.5 512 287.1 447.5 287.1 368C287.1 288.5 352.5 224 432 224C511.5 224 576 288.5 576 368zM506.5 462.1C497 443.1 477.7 432 456.4 432H407.6C386.3 432 366.1 443.1 357.5 462.1L354.1 469.6C375.7 486.2 402.7 496 432 496C461.3 496 488.3 486.2 509.9 469.6L506.5 462.1zM560 368C560 297.3 502.7 240 432 240C361.3 240 304 297.3 304 368C304 403.5 318.4 435.5 341.7 458.7L343.2 455.8C355.4 431.4 380.3 416 407.6 416H456.4C483.7 416 508.6 431.4 520.8 455.8L522.3 458.7C545.6 435.5 560 403.5 560 368z"/></svg>