<svg xmlns="http://www.w3.org/2000/svg" viewBox="0 0 448 512"><!--! Font Awesome Pro 6.1.1 by @fontawesome - https://fontawesome.com License - https://fontawesome.com/license (Commercial License) Copyright 2022 Fonticons, Inc. --><path d="M256 256C256 273.7 241.7 288 224 288C206.3 288 192 273.7 192 256C192 238.3 206.3 224 224 224C241.7 224 256 238.3 256 256zM224 240C215.2 240 208 247.2 208 256C208 264.8 215.2 272 224 272C232.8 272 240 264.8 240 256C240 247.2 232.8 240 224 240zM64 256C64 167.6 135.6 96 224 96C312.4 96 384 167.6 384 256C384 344.4 312.4 416 224 416C135.6 416 64 344.4 64 256zM224 400C303.5 400 368 335.5 368 256C368 176.5 303.5 112 224 112C144.5 112 80 176.5 80 256C80 335.5 144.5 400 224 400zM384 32C419.3 32 448 60.65 448 96V416C448 451.3 419.3 480 384 480H64C28.65 480 0 451.3 0 416V96C0 60.65 28.65 32 64 32H384zM384 48H64C37.49 48 16 69.49 16 96V416C16 442.5 37.49 464 64 464H384C410.5 464 432 442.5 432 416V96C432 69.49 410.5 48 384 48z"/></svg>