<svg xmlns="http://www.w3.org/2000/svg" viewBox="0 0 512 512"><!--! Font Awesome Pro 6.1.1 by @fontawesome - https://fontawesome.com License - https://fontawesome.com/license (Commercial License) Copyright 2022 Fonticons, Inc. --><path d="M448 96h-36.35C397.1 79.5 328.3 0 256 0S114 79.5 100.3 96H64C28.65 96 0 124.7 0 160v288c0 35.35 28.65 64 64 64h384c35.35 0 64-28.65 64-64V160C512 124.7 483.3 96 448 96zM256 16c54.85 0 111.1 54.49 134.4 80H121.6C144.9 70.49 201.1 16 256 16zM496 448c0 26.47-21.53 48-48 48H64c-26.47 0-48-21.53-48-48V272h480V448zM496 256h-480V160c0-26.47 21.53-48 48-48h384c26.47 0 48 21.53 48 48V256zM352 352c8.836 0 16-7.164 16-16S360.8 320 352 320s-16 7.164-16 16S343.2 352 352 352zM352 416c-8.836 0-16 7.164-16 16S343.2 448 352 448s16-7.164 16-16S360.8 416 352 416zM320 400c8.836 0 16-7.164 16-16s-7.164-16-16-16s-16 7.164-16 16S311.2 400 320 400zM416 352c8.836 0 16-7.164 16-16S424.8 320 416 320s-16 7.164-16 16S407.2 352 416 352zM416 416c-8.836 0-16 7.164-16 16S407.2 448 416 448s16-7.164 16-16S424.8 416 416 416zM384 400c8.836 0 16-7.164 16-16s-7.164-16-16-16s-16 7.164-16 16S375.2 400 384 400zM224 416c-8.836 0-16 7.164-16 16S215.2 448 224 448s16-7.164 16-16S232.8 416 224 416zM160 416c-8.836 0-16 7.164-16 16S151.2 448 160 448s16-7.164 16-16S168.8 416 160 416zM288 352c8.836 0 16-7.164 16-16S296.8 320 288 320s-16 7.164-16 16S279.2 352 288 352zM288 416c-8.836 0-16 7.164-16 16S279.2 448 288 448s16-7.164 16-16S296.8 416 288 416zM256 400c8.836 0 16-7.164 16-16s-7.164-16-16-16S240 375.2 240 384S247.2 400 256 400zM96 448c8.836 0 16-7.164 16-16S104.8 416 96 416s-16 7.164-16 16S87.16 448 96 448zM96 352c8.836 0 16-7.164 16-16S104.8 320 96 320s-16 7.164-16 16S87.16 352 96 352zM160 352c8.836 0 16-7.164 16-16S168.8 320 160 320s-16 7.164-16 16S151.2 352 160 352zM192 400c8.836 0 16-7.164 16-16S200.8 368 192 368S176 375.2 176 384S183.2 400 192 400zM128 400c8.836 0 16-7.164 16-16S136.8 368 128 368S112 375.2 112 384S119.2 400 128 400zM224 352c8.836 0 16-7.164 16-16S232.8 320 224 320s-16 7.164-16 16S215.2 352 224 352zM320 160c-17.67 0-32 14.33-32 32c0 17.67 14.33 32 32 32s32-14.33 32-32C352 174.3 337.7 160 320 160zM320 208c-8.822 0-16-7.178-16-16s7.178-16 16-16s16 7.178 16 16S328.8 208 320 208zM416 160c-17.67 0-32 14.33-32 32c0 17.67 14.33 32 32 32s32-14.33 32-32C448 174.3 433.7 160 416 160zM416 208c-8.822 0-16-7.178-16-16s7.178-16 16-16s16 7.178 16 16S424.8 208 416 208zM96 160C78.33 160 64 174.3 64 192c0 17.67 14.33 32 32 32s32-14.33 32-32C128 174.3 113.7 160 96 160zM96 208C87.18 208 80 200.8 80 192S87.18 176 96 176S112 183.2 112 192S104.8 208 96 208zM192 160C174.3 160 160 174.3 160 192c0 17.67 14.33 32 32 32s32-14.33 32-32C224 174.3 209.7 160 192 160zM192 208C183.2 208 176 200.8 176 192S183.2 176 192 176S208 183.2 208 192S200.8 208 192 208z"/></svg>