<svg xmlns="http://www.w3.org/2000/svg" viewBox="0 0 384 512"><!--! Font Awesome Pro 6.0.0-beta3 by @fontawesome - https://fontawesome.com License - https://fontawesome.com/license (Commercial License) Copyright 2021 Fonticons, Inc. --><path d="M381.8 466.5l-79.12-83.3l79.87-114.6c2.531-3.625 1.625-8.609-2-11.14c-3.562-2.5-8.562-1.656-11.12 1.984l-77.1 111.9L158.3 231.2l75.84-60.58c18.97-14.88 29.84-37 29.84-60.69C263.1 66.95 228.1 32 183.9 32H136.1C91.94 32 55.1 66.95 55.1 109.9c0 23.59 9.031 46.16 25.44 63.56l53.28 56.09L37.16 307.5c-23.62 18.5-37.16 46.02-37.16 75.52C.0002 436.5 44.75 480 99.75 480h69.56c41.06 0 79.41-19.66 102.6-52.63l21.44-30.78l76.84 80.92C371.8 479.2 373.9 480 375.1 480c1.969 0 3.969-.7344 5.5-2.203C384.7 474.8 384.8 469.7 381.8 466.5zM93.06 162.5C79.47 148.1 71.1 129.4 71.1 109.9C71.1 75.77 100.7 48 136.1 48h47.81c35.34 0 64.09 27.77 64.09 61.91c0 18.75-8.656 36.28-23.78 48.14L147.3 219.5L93.06 162.5zM258.8 418.2C238.6 446.9 205.2 464 169.3 464h-69.56c-46.19 0-83.75-36.33-83.75-80.97c0-24.55 11.31-47.47 31.09-62.97l98.69-78.86l136.3 143.5L258.8 418.2z"/></svg>