<svg xmlns="http://www.w3.org/2000/svg" viewBox="0 0 640 512"><!--! Font Awesome Pro 6.1.1 by @fontawesome - https://fontawesome.com License - https://fontawesome.com/license (Commercial License) Copyright 2022 Fonticons, Inc. --><path d="M368 80C368 121.5 336.4 155.6 295.1 159.6C295.1 159.7 296 159.9 296 160V208H376C380.4 208 384 211.6 384 216C384 220.4 380.4 224 376 224H296V496H304C325.4 496 345.1 492.3 365.1 485.6C368.1 489.1 373.1 494.1 377.4 498.1C354.7 507.1 329.9 512 304 512H272C161.5 512 72 422.5 72 312V284.8L13.95 349.4C10.99 352.6 5.932 352.9 2.648 349.9C-.6358 346.1-.902 341.9 2.054 338.6L74.05 258.6C75.57 256.1 77.73 256 80 256C82.27 256 84.43 256.1 85.95 258.6L157.9 338.6C160.9 341.9 160.6 346.1 157.4 349.9C154.1 352.9 149 352.6 146.1 349.4L88 284.8V312C88 413.6 170.4 496 272 496H280V224H200C195.6 224 192 220.4 192 216C192 211.6 195.6 208 200 208H280V160C280 159.9 280 159.7 280 159.6C239.6 155.6 208 121.5 208 80C208 35.82 243.8 0 288 0C332.2 0 368 35.82 368 80V80zM288 144C323.3 144 352 115.3 352 80C352 44.65 323.3 16 288 16C252.7 16 224 44.65 224 80C224 115.3 252.7 144 288 144zM565.7 322.3C568.8 325.5 568.8 330.5 565.7 333.7L485.7 413.7C482.5 416.8 477.5 416.8 474.3 413.7L426.3 365.7C423.2 362.5 423.2 357.5 426.3 354.3C429.5 351.2 434.5 351.2 437.7 354.3L480 396.7L554.3 322.3C557.5 319.2 562.5 319.2 565.7 322.3H565.7zM352 368C352 288.5 416.5 224 496 224C575.5 224 640 288.5 640 368C640 447.5 575.5 512 496 512C416.5 512 352 447.5 352 368zM496 496C566.7 496 624 438.7 624 368C624 297.3 566.7 240 496 240C425.3 240 368 297.3 368 368C368 438.7 425.3 496 496 496z"/></svg>