<svg xmlns="http://www.w3.org/2000/svg" viewBox="0 0 384 512"><!--! Font Awesome Pro 6.1.1 by @fontawesome - https://fontawesome.com License - https://fontawesome.com/license (Commercial License) Copyright 2022 Fonticons, Inc. --><path d="M338.5 290.2l-146.5 138.7L45.53 290.2C42.38 287.2 37.31 287.3 34.22 290.5C31.16 293.7 31.28 298.7 34.47 301.8l151.1 144c1.562 1.484 3.531 2.219 5.531 2.219s3.969-.7344 5.531-2.219l152-144c3.187-3.047 3.312-8.125 .25-11.31C346.7 287.3 341.7 287.2 338.5 290.2zM186.5 253.8C188 255.3 189.1 255.1 191.1 255.1s3.969-.7344 5.531-2.219l152-144c3.187-3.047 3.312-8.125 .25-11.31c-3.031-3.188-8.093-3.281-11.31-.25L191.1 236.9L45.53 98.21C42.38 95.18 37.31 95.27 34.22 98.46C31.16 101.6 31.28 106.7 34.47 109.8L186.5 253.8z"/></svg>