<svg xmlns="http://www.w3.org/2000/svg" viewBox="0 0 320 512"><!--! Font Awesome Pro 6.0.0-beta3 by @fontawesome - https://fontawesome.com License - https://fontawesome.com/license (Commercial License) Copyright 2021 Fonticons, Inc. --><path d="M280 280h-100.7c42.79-44.6 84.2-110 84.2-163.3C263.5 44.72 223.8 0 160 0S56.53 44.72 56.53 116.7c0 53.28 41.41 118.7 84.2 163.3H40C35.59 280 32 283.6 32 288s3.594 8 8 8h112v208C152 508.4 155.6 512 160 512s8-3.578 8-8v-208h112C284.4 296 288 292.4 288 288S284.4 280 280 280zM160 16c54.78 0 87.47 37.64 87.47 100.7c0 55.16-50.41 123.8-87.47 160.2C122.9 240.5 72.53 171.8 72.53 116.7C72.53 53.64 105.2 16 160 16z"/></svg>