<svg xmlns="http://www.w3.org/2000/svg" viewBox="0 0 512 512"><!--! Font Awesome Pro 6.1.1 by @fontawesome - https://fontawesome.com License - https://fontawesome.com/license (Commercial License) Copyright 2022 Fonticons, Inc. --><path d="M256 0C114.6 0 0 114.6 0 256s114.6 256 256 256s256-114.6 256-256S397.4 0 256 0zM302.2 336H209.8L163.6 255.1L209.8 176h92.38l46.19 80.01L302.2 336zM320.6 176h161.4C490.9 201.1 496 227.9 496 256c0 53.24-17.64 102.3-47.09 142.2L320.6 176zM475.8 160H219l80.72-139.8C378.8 34.84 444.4 88.24 475.8 160zM256 16c9.07 0 17.99 .6094 26.8 1.594L154.4 240l-80.67-139.7C117.8 48.8 183.1 16 256 16zM63.09 113.8L191.4 336H30C21.1 310.9 16 284.1 16 256C16 202.8 33.64 153.7 63.09 113.8zM36.18 352h256.8l-80.72 139.8C133.2 477.2 67.64 423.8 36.18 352zM256 496c-9.07 0-17.99-.6094-26.8-1.594l128.4-222.4l80.67 139.7C394.2 463.2 328.9 496 256 496z"/></svg>