<svg xmlns="http://www.w3.org/2000/svg" viewBox="0 0 448 512"><!--! Font Awesome Pro 6.0.0-beta3 by @fontawesome - https://fontawesome.com License - https://fontawesome.com/license (Commercial License) Copyright 2021 Fonticons, Inc. --><path d="M444.9 249.1c-5.316-31.35-15.32-57.37-29.96-78.06c-16.67-23.35-37.91-37.27-63.89-41.94c-31.73-5.314-90.99 10.74-127 30.92c-35.85-20.12-95.08-36.33-126.1-31.01C71.06 133.7 49.77 147.7 33.1 171.1c-14.67 20.69-24.67 46.71-29.99 78.06c-12 73.91 12.08 155.9 48.97 205.2c72.71 98.14 154.4 41.25 171.9 41.25c16.51 0 99.12 57.08 171.9-41.25C433.9 403.6 456.7 321.1 444.9 249.1zM383 444.7c-65.97 89.13-132.2 34.76-159 34.76c-27.81 0-93.23 54.09-159.1-34.83c-34.76-46.41-57.1-124.6-46-192.9c7.131-42.05 28.27-97.52 80.79-106.1c16.51-2.762 66.25 1.023 124.3 33.59c57.66-32.29 107.3-36.42 124.1-33.62c52.65 9.477 73.79 64.58 80.97 106.9C440.3 320.1 417.1 398.1 383 444.7zM224 112c76.9 0 95.88-49.87 95.88-96c-.5684-8.537-7.373-15.43-15.91-15.1c-88.02 0-95.7 63.2-95.95 94.99C207.1 103.1 215 111.4 224 112zM303.4 16c1.9 .1289 7.381 79.73-78.32 80.04C223.1 95.9 215.1 16.37 303.4 16z"/></svg>