<svg xmlns="http://www.w3.org/2000/svg" viewBox="0 0 576 512"><!--! Font Awesome Pro 6.1.1 by @fontawesome - https://fontawesome.com License - https://fontawesome.com/license (Commercial License) Copyright 2022 Fonticons, Inc. --><path d="M8 48C3.582 48 0 44.42 0 40C0 35.58 3.582 32 8 32H568C572.4 32 576 35.58 576 40C576 44.42 572.4 48 568 48H8zM122.3 122.3C125.5 119.2 130.5 119.2 133.7 122.3L253.7 242.3C256.8 245.5 256.8 250.5 253.7 253.7C250.5 256.8 245.5 256.8 242.3 253.7L136 147.3L136 472C136 476.4 132.4 480 128 480C123.6 480 120 476.4 120 472L120 147.3L13.66 253.7C10.53 256.8 5.468 256.8 2.343 253.7C-.7808 250.5-.7808 245.5 2.343 242.3L122.3 122.3zM322.3 242.3L442.3 122.3C445.5 119.2 450.5 119.2 453.7 122.3L573.7 242.3C576.8 245.5 576.8 250.5 573.7 253.7C570.5 256.8 565.5 256.8 562.3 253.7L456 147.3V472C456 476.4 452.4 480 448 480C443.6 480 440 476.4 440 472V147.3L333.7 253.7C330.5 256.8 325.5 256.8 322.3 253.7C319.2 250.5 319.2 245.5 322.3 242.3V242.3z"/></svg>