<svg xmlns="http://www.w3.org/2000/svg" viewBox="0 0 384 512"><!--! Font Awesome Pro 6.0.0-beta3 by @fontawesome - https://fontawesome.com License - https://fontawesome.com/license (Commercial License) Copyright 2021 Fonticons, Inc. --><path d="M186.3 477.7c3.125 3.125 8.188 3.125 11.31 0l152-152C351.2 324.1 352 322.1 352 320s-.7813-4.094-2.344-5.656c-3.125-3.125-8.188-3.125-11.31 0L200 452.7V136c0-4.406-3.578-7.968-8-7.968S184 131.6 184 136v316.7L45.66 314.3c-3.125-3.125-8.188-3.125-11.31 0s-3.125 8.188 0 11.31L186.3 477.7zM8 48h368C380.4 48 384 44.42 384 40S380.4 32 376 32H8C3.582 32 0 35.58 0 40S3.582 48 8 48z"/></svg>