<svg xmlns="http://www.w3.org/2000/svg" viewBox="0 0 448 512"><!--! Font Awesome Pro 6.1.1 by @fontawesome - https://fontawesome.com License - https://fontawesome.com/license (Commercial License) Copyright 2022 Fonticons, Inc. --><path d="M445.7 261.7c3.125-3.125 3.125-8.188 0-11.31l-152-152C292.1 96.78 290.1 96 288 96s-4.094 .7813-5.656 2.344c-3.125 3.125-3.125 8.188 0 11.31L420.7 248H104C99.59 248 96.03 251.6 96.03 256S99.59 264 104 264h316.7l-138.3 138.3c-3.125 3.125-3.125 8.188 0 11.31s8.188 3.125 11.31 0L445.7 261.7zM16 440V72C16 67.58 12.42 64 8 64S0 67.58 0 72v368C0 444.4 3.582 448 8 448S16 444.4 16 440z"/></svg>