<svg xmlns="http://www.w3.org/2000/svg" viewBox="0 0 576 512"><!--! Font Awesome Pro 6.1.1 by @fontawesome - https://fontawesome.com License - https://fontawesome.com/license (Commercial License) Copyright 2022 Fonticons, Inc. --><path d="M280 344V27.31L197.7 109.7C194.5 112.8 189.5 112.8 186.3 109.7C183.2 106.5 183.2 101.5 186.3 98.34L282.3 2.343C285.5-.781 290.5-.781 293.7 2.343L389.7 98.34C392.8 101.5 392.8 106.5 389.7 109.7C386.5 112.8 381.5 112.8 378.3 109.7L296 27.31V344C296 348.4 292.4 352 288 352C283.6 352 280 348.4 280 344H280zM64 191.1H192V207.1H64C37.49 207.1 16 229.5 16 255.1V418.5C10.26 419.1 4.905 422.2 .0003 425V255.1C.0003 220.7 28.65 191.1 64 191.1zM560 418.5V255.1C560 229.5 538.5 207.1 512 207.1H384V191.1H512C547.3 191.1 576 220.7 576 255.1V424.1C571.1 422.2 565.7 419.1 560 418.5zM294.6 435.4C302.6 446.6 312.1 456.9 322.2 466.1C339.5 481.8 361.5 496 384 496C406.5 496 428.6 481.8 445.8 466.1C455.1 456.9 465.5 446.6 473.5 435.4C474.1 433.3 477.4 432 480 432C482.6 432 485.1 433.3 486.6 435.4C493.9 445.7 502.5 455 511.6 463.7C527.3 478.5 547.7 492.9 569 495.6C573.4 496.1 576.5 500.1 575.9 504.5C575.4 508.9 571.4 511.1 567 511.4C540.5 508.1 516.1 490.7 500.6 475.3C491.8 466.1 484.7 458.9 480 453.1C474.8 459.5 466.8 468.7 456.6 477.9C438.7 494.2 412.7 512 384 512C355.3 512 329.4 494.2 311.4 477.9C301.3 468.7 293.2 459.5 288 453.1L288 453.1L287.1 453.1C282.8 459.5 274.7 468.7 264.6 477.9C246.6 494.2 220.7 512 191.1 512C163.3 512 137.4 494.2 119.4 477.9C109.2 468.7 101.2 459.5 95.98 453.1C91.29 458.9 84.23 466.1 75.4 475.3C59.03 490.7 35.48 508.1 9.001 511.4C4.617 511.1 .616 508.9 .0637 504.5C-.4887 500.1 2.617 496.1 7.001 495.6C28.3 492.9 48.74 478.5 64.42 463.7C73.56 455 82.16 445.7 89.43 435.4C90.93 433.3 93.37 432 95.98 432C98.59 432 101 433.3 102.5 435.4C110.5 446.6 120 456.9 130.2 466.1C147.4 481.8 169.5 496 191.1 496C214.5 496 236.6 481.8 253.8 466.1C263.9 456.9 273.4 446.6 281.4 435.4C284.4 431.1 291.6 431.1 294.6 435.4H294.6z"/></svg>