<svg xmlns="http://www.w3.org/2000/svg" viewBox="0 0 448 512"><!--! Font Awesome Pro 6.0.0-beta3 by @fontawesome - https://fontawesome.com License - https://fontawesome.com/license (Commercial License) Copyright 2021 Fonticons, Inc. --><path d="M320 79.1c8.836 0 16-7.164 16-16s-7.164-16-16-16s-16 7.164-16 16S311.2 79.1 320 79.1zM224 79.1c8.836 0 16-7.164 16-16s-7.164-16-16-16s-16 7.164-16 16S215.2 79.1 224 79.1zM416 79.1c8.836 0 16-7.164 16-16s-7.164-16-16-16s-16 7.164-16 16S407.2 79.1 416 79.1zM128 79.1c8.836 0 16-7.164 16-16s-7.164-16-16-16s-16 7.164-16 16S119.2 79.1 128 79.1zM32 79.1c8.836 0 16-7.164 16-16s-7.164-16-16-16s-16 7.164-16 16S23.16 79.1 32 79.1zM229.7 146.3c-3.125-3.125-8.188-3.125-11.31 0l-152 152C64.78 299.9 64 301.9 64 304s.7813 4.094 2.344 5.656c3.125 3.125 8.188 3.125 11.31 0L216 171.3V456c0 4.406 3.578 8 8 8s8-3.594 8-8V171.3l138.3 138.3c3.125 3.125 8.188 3.125 11.31 0s3.125-8.188 0-11.31L229.7 146.3z"/></svg>