<svg xmlns="http://www.w3.org/2000/svg" viewBox="0 0 512 512"><!--! Font Awesome Pro 6.1.1 by @fontawesome - https://fontawesome.com License - https://fontawesome.com/license (Commercial License) Copyright 2022 Fonticons, Inc. --><path d="M509.7 261.8l-96 103.8c-3.125 3.192-8.188 3.192-11.31 0c-3.125-3.192-3.125-8.363 0-11.55l82.34-89.88H27.31l82.34 89.88c3.125 3.192 3.125 8.362 0 11.55C108.1 367.2 106.1 368 104 368s-4.094-.7979-5.656-2.394l-96-103.8c-3.125-3.192-3.125-8.362 0-11.55l96-103.8c3.125-3.192 8.188-3.192 11.31 0s3.125 8.363 0 11.55L27.31 247.8h457.4l-82.34-89.88c-3.125-3.192-3.125-8.363 0-11.55C403.9 144.8 405.9 144 408 144s4.094 .7979 5.656 2.394l96 103.8C512.8 253.4 512.8 258.6 509.7 261.8z"/></svg>