<svg xmlns="http://www.w3.org/2000/svg" viewBox="0 0 512 512"><!--! Font Awesome Pro 6.1.1 by @fontawesome - https://fontawesome.com License - https://fontawesome.com/license (Commercial License) Copyright 2022 Fonticons, Inc. --><path d="M256 496C388.5 496 496 388.5 496 256C496 251.6 499.6 248 504 248C508.4 248 512 251.6 512 256C512 397.4 397.4 512 256 512C114.6 512 0 397.4 0 256C0 251.6 3.582 248 8 248C12.42 248 16 251.6 16 256C16 388.5 123.5 496 256 496zM262.1 349.2C260.6 350.1 258.4 352 256 352C253.6 352 251.4 350.1 249.9 349.2L121.9 197.2C119 193.8 119.5 188.7 122.8 185.9C126.2 183 131.3 183.5 134.1 186.8L247.1 322.1V8C247.1 3.582 251.6 0 255.1 0C260.4 0 264 3.582 264 8V322.1L377.9 186.8C380.7 183.5 385.8 183 389.2 185.9C392.5 188.7 392.1 193.8 390.1 197.2L262.1 349.2z"/></svg>