<svg xmlns="http://www.w3.org/2000/svg" viewBox="0 0 448 512"><!--! Font Awesome Pro 6.1.1 by @fontawesome - https://fontawesome.com License - https://fontawesome.com/license (Commercial License) Copyright 2022 Fonticons, Inc. --><path d="M448 472v-80c0-4.422-3.578-8-8-8s-8 3.578-8 8v80c0 13.23-10.77 24-24 24H40c-13.23 0-24-10.77-24-24v-80C16 387.6 12.42 384 8 384S0 387.6 0 392v80C0 494.1 17.94 512 40 512h368C430.1 512 448 494.1 448 472zM229.7 381.7l184-184C415.2 196.1 416 194.1 416 192s-.7813-4.094-2.344-5.656c-3.125-3.125-8.188-3.125-11.31 0L232 356.7V8C232 3.594 228.4 0 224 0S216 3.594 216 8v348.7L45.66 186.3c-3.125-3.125-8.188-3.125-11.31 0C32.78 187.9 32 189.9 32 192s.7813 4.094 2.344 5.656l184 184C219.9 383.2 221.1 384 224 384S228.1 383.2 229.7 381.7z"/></svg>