<svg xmlns="http://www.w3.org/2000/svg" viewBox="0 0 512 512"><!--! Font Awesome Pro 6.1.1 by @fontawesome - https://fontawesome.com License - https://fontawesome.com/license (Commercial License) Copyright 2022 Fonticons, Inc. --><path d="M496 256C496 251.6 499.6 248 504 248C508.4 248 512 251.6 512 256C512 397.4 397.4 512 256 512C114.6 512 0 397.4 0 256C0 251.6 3.582 248 8 248C12.42 248 16 251.6 16 256C16 388.5 123.5 496 256 496C388.5 496 496 388.5 496 256zM249.9 2.847C251.4 1.042 253.6 0 256 0C258.4 0 260.6 1.042 262.1 2.847L390.1 154.8C392.1 158.2 392.5 163.3 389.2 166.1C385.8 168.1 380.7 168.5 377.9 165.2L264 29.92V344C264 348.4 260.4 352 256 352C251.6 352 248 348.4 248 344V29.92L134.1 165.2C131.3 168.5 126.2 168.1 122.8 166.1C119.5 163.3 119 158.2 121.9 154.8L249.9 2.847z"/></svg>