<svg xmlns="http://www.w3.org/2000/svg" viewBox="0 0 448 512"><!--! Font Awesome Pro 6.1.1 by @fontawesome - https://fontawesome.com License - https://fontawesome.com/license (Commercial License) Copyright 2022 Fonticons, Inc. --><path d="M136 104c2.047 0 4.094-.7813 5.656-2.344L216 27.31V184c0 4.406 3.594 7.984 8 7.984S232 188.4 232 184V27.31l74.34 74.34C307.9 103.2 309.9 104 312 104c5.719 0 8-5.114 8-8.021c0-2.047-.7813-4.073-2.344-5.636l-88-88C228.1 .7813 226 0 223.1 0s-4.094 .7813-5.656 2.344l-88 88C128.8 91.91 128 93.93 128 95.98C128 100.5 131.7 104 136 104zM312 408c-2.047 0-4.094 .7813-5.656 2.344L232 484.7V328c0-4.406-3.594-8.01-8-8.01S216 323.6 216 328v156.7l-74.34-74.34C140.1 408.8 138 408 136 408C131.7 408 128 411.4 128 415.1c0 2.047 .7813 4.099 2.344 5.662l88 88C219.9 511.2 221.9 512 224 512s4.094-.7813 5.656-2.344l88-88C319.2 420.1 320 418 320 415.1C320 411.4 316.3 408 312 408zM440 248H8C3.582 248 0 251.6 0 255.1S3.582 264 8 264h432c4.418 0 8-3.591 8-8.009S444.4 248 440 248z"/></svg>