<svg xmlns="http://www.w3.org/2000/svg" viewBox="0 0 384 512"><!--! Font Awesome Pro 6.0.0-beta3 by @fontawesome - https://fontawesome.com License - https://fontawesome.com/license (Commercial License) Copyright 2021 Fonticons, Inc. --><path d="M349.8 157.5c-1.562 1.656-3.687 2.5-5.812 2.5c-1.969 0-3.969-.7187-5.5-2.187l-138.5-131.2v413.4C199.1 479.7 167.7 512 127.1 512H7.1C3.594 512 0 508.4 0 504s3.594-7.1 7.1-7.1h119.1c30.87 0 55.1-25.12 55.1-55.1V26.62L45.5 157.8C42.31 160.9 37.25 160.7 34.19 157.5C31.16 154.3 31.28 149.2 34.5 146.2l151.1-143.1c3.062-2.937 7.937-2.937 10.1 0l151.1 143.1C352.7 149.2 352.8 154.3 349.8 157.5z"/></svg>