<svg xmlns="http://www.w3.org/2000/svg" viewBox="0 0 512 512"><!--! Font Awesome Pro 6.0.0-beta3 by @fontawesome - https://fontawesome.com License - https://fontawesome.com/license (Commercial License) Copyright 2021 Fonticons, Inc. --><path d="M45.77 477.5l162.3-162.3v140.7c0 4.42 3.58 8 7.998 8c4.42 0 7.943-3.517 7.943-7.942L224.1 295.9c0-4.416-3.576-7.998-8-7.998L56.06 287.9c-4.439 0-7.942 3.534-7.942 7.94c0 4.42 3.58 8 8 8h140.7l-162.3 162.3C26.97 473.7 38.29 485 45.77 477.5zM216.1 48.12c-4.418 0-7.998 3.58-7.998 8v140.7L45.76 34.46C38.27 26.96 26.98 38.31 34.45 45.77l162.3 162.3H56.11c-4.42 0-8 3.58-8 8c0 4.404 3.504 7.94 7.945 7.94l160.1 .0578c4.416 0 8-3.574 8-7.998L224.1 56.06C224.1 51.64 220.5 48.12 216.1 48.12zM295.9 463.9c4.418 0 7.998-3.58 7.998-8V315.2l162.3 162.3c7.486 7.488 18.79-3.832 11.31-11.31l-162.3-162.3h140.7c4.42 0 8-3.58 8-8c0-4.402-3.502-7.94-7.943-7.94l-160.1-.0585c-4.416 0-8 3.574-8 7.998l.0567 160.1C287.9 460.4 291.5 463.9 295.9 463.9zM295.9 224.1l160.1-.0576c4.439 0 7.945-3.532 7.945-7.94c0-4.42-3.58-8-8-8h-140.7l162.3-162.3c7.469-7.465-3.816-18.81-11.31-11.31l-162.3 162.3V56.12c0-4.42-3.58-8-7.998-8c-4.42 0-7.945 3.519-7.945 7.942l-.0549 160.1C287.9 220.5 291.5 224.1 295.9 224.1z"/></svg>