<svg xmlns="http://www.w3.org/2000/svg" viewBox="0 0 512 512"><!--! Font Awesome Pro 6.1.1 by @fontawesome - https://fontawesome.com License - https://fontawesome.com/license (Commercial License) Copyright 2022 Fonticons, Inc. --><path d="M440 160h-48C387.6 160 384 163.6 384 168s3.594 8 8 8h48c13.22 0 24 10.78 24 24v272c0 13.22-10.78 24-24 24H72c-13.22 0-24-10.78-24-24v-272c0-13.22 10.78-24 24-24h48C124.4 176 128 172.4 128 168S124.4 160 120 160h-48C49.94 160 32 177.9 32 200v272C32 494.1 49.94 512 72 512h368c22.06 0 40-17.94 40-40v-272C480 177.9 462.1 160 440 160zM160 112c2.047 0 4.094-.7813 5.656-2.344L248 27.31V376C248 380.4 251.6 384 256 384s8-3.594 8-8V27.31l82.34 82.34C347.9 111.2 349.9 112 352 112c5.719 0 8-5.094 8-8c0-2.047-.7813-4.094-2.344-5.656l-96-96C260.1 .7813 258-.0002 256-.0002S251.9 .7813 250.3 2.344l-96 96C152.8 99.91 152 101.1 152 104C152 108.6 155.7 112 160 112z"/></svg>