<svg xmlns="http://www.w3.org/2000/svg" viewBox="0 0 640 512"><!--! Font Awesome Pro 6.1.1 by @fontawesome - https://fontawesome.com License - https://fontawesome.com/license (Commercial License) Copyright 2022 Fonticons, Inc. --><path d="M122.3 509.7L26.34 413.7C23.22 410.5 23.22 405.5 26.34 402.3C29.47 399.2 34.53 399.2 37.66 402.3L120 484.7V264H8C3.582 264 0 260.4 0 256C0 251.6 3.582 248 8 248H312V27.31L229.7 109.7C226.5 112.8 221.5 112.8 218.3 109.7C215.2 106.5 215.2 101.5 218.3 98.34L314.3 2.343C317.5-.781 322.5-.781 325.7 2.343L421.7 98.34C424.8 101.5 424.8 106.5 421.7 109.7C418.5 112.8 413.5 112.8 410.3 109.7L328 27.31V248H418.6C417.4 253.2 416.7 258.5 416.3 264H136V484.7L218.3 402.3C221.5 399.2 226.5 399.2 229.7 402.3C232.8 405.5 232.8 410.5 229.7 413.7L133.7 509.7C130.5 512.8 125.5 512.8 122.3 509.7V509.7zM120 192V40C120 35.58 123.6 32 128 32C132.4 32 136 35.58 136 40V192H120zM328 320V472C328 476.4 324.4 480 320 480C315.6 480 312 476.4 312 472V320H328zM528 192C563.3 192 592 220.7 592 256V320H608C625.7 320 640 334.3 640 352V480C640 497.7 625.7 512 608 512H448C430.3 512 416 497.7 416 480V352C416 334.3 430.3 320 448 320H464V256C464 220.7 492.7 192 528 192zM528 208C501.5 208 480 229.5 480 256V320H576V256C576 229.5 554.5 208 528 208zM432 352V480C432 488.8 439.2 496 448 496H608C616.8 496 624 488.8 624 480V352C624 343.2 616.8 336 608 336H448C439.2 336 432 343.2 432 352z"/></svg>