<svg xmlns="http://www.w3.org/2000/svg" viewBox="0 0 512 512"><!--! Font Awesome Pro 6.0.0-beta3 by @fontawesome - https://fontawesome.com License - https://fontawesome.com/license (Commercial License) Copyright 2021 Fonticons, Inc. --><path d="M304 224l128-.0059c17.67 0 32-14.32 32-31.99V64c0-17.67-14.33-32-32-32h-128c-17.67 0-32 14.33-32 32v128C272 209.7 286.3 224 304 224zM288 64c0-8.822 7.178-16 16-16h128c8.822 0 16 7.178 16 16v128c0 8.822-7.178 16-16 16h-128c-8.822 0-16-7.178-16-16V64zM476.1 438.9l-83.13-137.1c-5.562-9.188-15.25-13.78-24.94-13.78s-19.38 4.594-24.94 13.78l-83.25 137.1C248.9 457.1 262.6 480 284.9 480h166.3C473.4 480 487.1 457.1 476.1 438.9zM462.6 457.7C460.4 461.6 456.1 464 451.1 464h-166.3c-4.945 0-9.229-2.359-11.46-6.311c-1.119-1.982-2.588-5.99 .1367-10.51l83.26-137.1c3.316-5.477 8.973-6.068 11.25-6.068c2.279 0 7.936 .5918 11.26 6.076l83.11 137.1C465.2 451.7 463.7 455.7 462.6 457.7zM210.1 370.7L136 451.5V40c0-4.408-3.594-8.002-8-8.002S120 35.59 120 40v411.5l-74.1-80.85c-1.594-1.719-3.75-2.594-5.906-2.594c-1.938 0-3.875 .6875-5.406 2.094c-3.25 3.002-3.469 8.064-.5 11.32l88 96.02c3.062 3.312 8.75 3.312 11.81 0l88-96.02c2.969-3.252 2.75-8.314-.5-11.32C218.2 367.2 213.1 367.4 210.1 370.7z"/></svg>