<svg xmlns="http://www.w3.org/2000/svg" viewBox="0 0 512 512"><!--! Font Awesome Pro 6.0.0-beta3 by @fontawesome - https://fontawesome.com License - https://fontawesome.com/license (Commercial License) Copyright 2021 Fonticons, Inc. --><path d="M432 288l-128 .0107c-17.67 0-32 14.33-32 32V448c0 17.67 14.33 32 32 32l128-.0098c17.67 0 32-14.32 32-31.99v-127.1C464 302.3 449.7 288 432 288zM448 448c0 8.822-7.178 16-16 16h-128c-8.822 0-16-7.178-16-16v-127.1c0-8.822 7.178-15.1 16-15.1h128c8.822 0 16 7.178 16 16V448zM476.1 182.9L393 45.78C387.4 36.59 377.8 32 368.1 32s-19.38 4.594-24.94 13.78l-83.25 137.1c-11 18.25 2.75 41.12 25 41.12h166.3C473.4 224 487.1 201.1 476.1 182.9zM462.6 201.7c-2.232 3.951-6.518 6.311-11.46 6.311h-166.3c-4.945 0-9.229-2.359-11.46-6.309c-1.119-1.982-2.588-5.99 .1367-10.51l83.26-137.1C360.1 48.59 365.8 48 368.1 48c2.279 0 7.936 .5918 11.26 6.074l83.11 137.1C465.2 195.7 463.7 199.7 462.6 201.7zM210.1 370.7L136 451.5V40c0-4.408-3.594-8.002-8-8.002S120 35.59 120 40v411.5l-74.1-80.85c-1.596-1.719-3.752-2.594-5.908-2.594c-1.938 0-3.875 .6875-5.406 2.094c-3.25 3.002-3.469 8.064-.5 11.32l88 96.02c3.062 3.312 8.75 3.312 11.81 0l88-96.02c2.969-3.252 2.75-8.314-.5-11.32C218.2 367.2 213.1 367.4 210.1 370.7z"/></svg>