<svg xmlns="http://www.w3.org/2000/svg" viewBox="0 0 448 512"><!--! Font Awesome Pro 6.1.1 by @fontawesome - https://fontawesome.com License - https://fontawesome.com/license (Commercial License) Copyright 2022 Fonticons, Inc. --><path d="M2.344 250.3c-3.125 3.125-3.125 8.188 0 11.31l152 152C155.9 415.2 157.9 416 160 416s4.094-.7813 5.656-2.344c3.125-3.125 3.125-8.188 0-11.31L27.31 264H344c4.406 0 7.968-3.578 7.968-8S348.4 248 344 248H27.31l138.3-138.3c3.125-3.125 3.125-8.188 0-11.31s-8.188-3.125-11.31 0L2.344 250.3zM432 72v368c0 4.418 3.582 8 8 8S448 444.4 448 440V72C448 67.58 444.4 64 440 64S432 67.58 432 72z"/></svg>