<svg xmlns="http://www.w3.org/2000/svg" viewBox="0 0 448 512"><!--! Font Awesome Pro 6.0.0-beta3 by @fontawesome - https://fontawesome.com License - https://fontawesome.com/license (Commercial License) Copyright 2021 Fonticons, Inc. --><path d="M128 432c-8.836 0-16 7.164-16 16s7.164 16 16 16s16-7.164 16-16S136.8 432 128 432zM224 432c-8.836 0-16 7.164-16 16s7.164 16 16 16s16-7.164 16-16S232.8 432 224 432zM32 432c-8.836 0-16 7.164-16 16s7.164 16 16 16s16-7.164 16-16S40.84 432 32 432zM320 432c-8.836 0-16 7.164-16 16s7.164 16 16 16s16-7.164 16-16S328.8 432 320 432zM416 432c-8.836 0-16 7.164-16 16s7.164 16 16 16s16-7.164 16-16S424.8 432 416 432zM218.3 365.7c3.125 3.125 8.188 3.125 11.31 0l152-152C383.2 212.1 384 210.1 384 207.1s-.7813-4.094-2.344-5.656c-3.125-3.125-8.188-3.125-11.31 0L232 340.7V55.1c0-4.406-3.578-8-8-8s-8 3.594-8 8v284.7L77.66 202.3c-3.125-3.125-8.188-3.125-11.31 0s-3.125 8.188 0 11.31L218.3 365.7z"/></svg>