<svg xmlns="http://www.w3.org/2000/svg" viewBox="0 0 512 512"><!--! Font Awesome Pro 6.1.1 by @fontawesome - https://fontawesome.com License - https://fontawesome.com/license (Commercial License) Copyright 2022 Fonticons, Inc. --><path d="M419.4 103.1l-80.83 74.1c-1.718 1.586-2.594 3.749-2.594 5.915c0 4.431 3.618 7.991 7.1 7.991c1.938 0 3.875-.6875 5.406-2.094l96-88C447.1 100.4 448 98.25 448 95.1s-.9375-4.377-2.594-5.908l-96-88c-1.516-1.399-3.442-2.09-5.37-2.09c-4.384 0-8.036 3.518-8.036 7.987c0 2.167 .8753 4.329 2.594 5.915l80.83 74.09H168c-92.64 0-168 75.38-168 168C0 260.4 3.578 263.1 8 263.1s8-3.594 8-8c0-83.81 68.19-152 152-152H419.4zM504 247.1c-4.422 0-8 3.594-8 8c0 83.81-68.19 152-152 152H92.57l80.83-74.1c1.718-1.586 2.594-3.749 2.594-5.915c0-4.408-3.586-7.987-8.013-7.987c-1.929 0-3.862 .6912-5.394 2.09l-96 88C64.94 411.6 64 413.8 64 416s.9375 4.375 2.594 5.906l96 88C164.1 511.3 166.1 512 168 512c4.378 0 7.1-3.557 7.1-7.991c0-2.167-.8753-4.329-2.594-5.915L92.57 424H344c92.64 0 168-75.38 168-168C512 251.6 508.4 247.1 504 247.1zM264 320c4.422 0 8-3.594 8-8v-112c0-4.406-3.583-8.007-8.005-8.007L240 192C235.6 192 232 195.6 232 200S235.6 208 240 208H256v104C256 316.4 259.6 320 264 320z"/></svg>