<svg xmlns="http://www.w3.org/2000/svg" viewBox="0 0 576 512"><!--! Font Awesome Pro 6.1.1 by @fontawesome - https://fontawesome.com License - https://fontawesome.com/license (Commercial License) Copyright 2022 Fonticons, Inc. --><path d="M198.1 164.4C197.6 161.7 194.8 160 191.8 160S185.1 161.7 184.6 164.4l-87.8 176c-1.969 3.953-.375 8.766 3.578 10.73C101.6 351.7 102.8 352 104 352c2.938 0 5.766-1.625 7.156-4.422L140.9 288h102.1l29.86 59.58c2 3.969 6.812 5.562 10.73 3.578c3.953-1.984 5.547-6.797 3.578-10.73L198.1 164.4zM148.9 272l42.96-86.11L234.1 272H148.9zM512 32H64C28.65 32 0 60.65 0 96v320c0 35.35 28.65 64 64 64h448c35.35 0 64-28.65 64-64V96C576 60.65 547.3 32 512 32zM560 416c0 26.47-21.53 48-48 48H64c-26.47 0-48-21.53-48-48V96c0-26.47 21.53-48 48-48h448c26.47 0 48 21.53 48 48V416zM392 160h-64C323.6 160 320 163.6 320 168v176c0 4.422 3.594 8 8 8h64c52.94 0 96-43.06 96-96S444.9 160 392 160zM392 336H336v-160h56c44.13 0 80 35.89 80 80S436.1 336 392 336z"/></svg>