<svg xmlns="http://www.w3.org/2000/svg" viewBox="0 0 448 512"><!--! Font Awesome Pro 6.1.1 by @fontawesome - https://fontawesome.com License - https://fontawesome.com/license (Commercial License) Copyright 2022 Fonticons, Inc. --><path d="M317.9 240H440C444.4 240 448 243.6 448 248C448 252.4 444.4 256 440 256H324.7L358.8 336H440C444.4 336 448 339.6 448 344C448 348.4 444.4 352 440 352H365.6L415.4 468.9C417.1 472.9 415.2 477.6 411.1 479.4C407.1 481.1 402.4 479.2 400.6 475.1L348.2 352H99.81L47.36 475.1C45.63 479.2 40.93 481.1 36.87 479.4C32.8 477.6 30.91 472.9 32.64 468.9L82.42 352H8C3.582 352 .0003 348.4 .0003 344C.0003 339.6 3.582 336 8 336H89.23L123.3 256H8C3.582 256 0 252.4 0 248C0 243.6 3.582 240 8 240H130.1L216.6 36.86C217.9 33.91 220.8 32 224 32C227.2 32 230.1 33.91 231.4 36.86L317.9 240zM300.5 240L224 60.42L147.5 240H300.5zM140.7 256L106.6 336H341.4L307.3 256H140.7z"/></svg>