<svg xmlns="http://www.w3.org/2000/svg" viewBox="0 0 384 512"><!--! Font Awesome Pro 6.0.0-beta3 by @fontawesome - https://fontawesome.com License - https://fontawesome.com/license (Commercial License) Copyright 2021 Fonticons, Inc. --><path d="M192 104C143.4 104 104 143.3 104 192c0 48.58 39.39 88 87.1 88S279.1 240.6 279.1 192C279.1 143.3 240.6 104 192 104zM192 264C152.3 264 120 231.7 120 192S152.3 120 192 120S264 152.3 264 192S231.7 264 192 264zM384 192c0-16.5-17.27-30.52-21.34-45.73c-4.207-15.75 3.607-36.5-4.369-50.29c-8.086-13.98-30.03-17.52-41.37-28.87c-11.35-11.35-14.89-33.29-28.87-41.39c-5.227-3.025-11.46-3.788-18.04-3.788c-6.547 0-13.43 .748-20.03 .748c-4.258 0-8.39-.3125-12.23-1.338C222.5 17.27 208.5 0 192 0C175.5 0 161.5 17.27 146.3 21.34c-3.832 1.023-7.957 1.336-12.21 1.336c-6.602 0-13.5-.752-20.06-.752c-6.57 0-12.8 .7643-18.02 3.786C81.1 33.79 78.46 55.74 67.11 67.08c-11.35 11.35-33.3 14.88-41.39 28.87C17.74 109.7 25.55 130.5 21.35 146.2C17.27 161.5 0 175.5 0 192c0 16.5 17.27 30.52 21.34 45.73c4.207 15.75-3.611 36.5 4.365 50.29C33.8 302 55.74 305.5 67.08 316.9c11.35 11.35 14.88 33.29 28.86 41.39c5.227 3.023 11.47 3.788 18.04 3.788c6.543 0 13.43-.7461 20.03-.7461c4.258 0 8.39 .3105 12.23 1.338C161.5 366.7 175.5 384 192 384c16.5 0 30.52-17.27 45.74-21.34c3.832-1.025 7.96-1.336 12.21-1.336c6.602 0 13.5 .752 20.06 .752c6.566 0 12.79-.7643 18.02-3.784c13.98-8.088 17.52-30.03 28.87-41.38c11.35-11.35 33.29-14.88 41.39-28.86c7.98-13.79 .1699-34.54 4.377-50.29C366.7 222.5 384 208.5 384 192zM359.3 209.9c-4.547 6.91-9.703 14.74-12.11 23.72c-2.48 9.279-1.949 18.85-1.48 27.29c.4219 7.578 .8594 15.42-1.277 19.11c-2.219 3.832-9.301 7.391-16.15 10.83c-7.504 3.768-16.01 8.039-22.72 14.75c-6.699 6.701-10.97 15.2-14.74 22.7c-3.441 6.85-7 13.93-10.83 16.15c-1.891 1.092-5.16 1.625-9.996 1.625c-2.98 0-6.039-.1797-9.102-.3516c-3.676-.2031-7.359-.4004-10.96-.4004c-6.355 0-11.55 .5957-16.34 1.877c-8.977 2.398-16.81 7.557-23.72 12.11C203.4 363.6 196.7 368 192 368c-4.695 0-11.41-4.42-17.9-8.693c-6.914-4.551-14.75-9.707-23.73-12.11c-4.797-1.283-9.996-1.881-16.36-1.881c-3.594 0-7.27 .1953-10.94 .3984c-3.059 .1699-6.113 .3477-9.09 .3477c-4.844 0-8.121-.5313-10.01-1.625c-3.828-2.217-7.387-9.299-10.83-16.15c-3.77-7.504-8.039-16.01-14.75-22.71C71.7 298.9 63.19 294.6 55.69 290.8C48.84 287.4 41.76 283.8 39.54 280C37.41 276.3 37.85 268.5 38.27 260.9C38.74 252.5 39.28 242.9 36.8 233.6c-2.398-8.979-7.555-16.81-12.11-23.72C20.42 203.4 16 196.7 16 192c0-4.697 4.422-11.41 8.695-17.91c4.551-6.91 9.707-14.74 12.11-23.72c2.48-9.277 1.949-18.84 1.48-27.29C37.86 115.5 37.43 107.7 39.57 103.1c2.219-3.83 9.297-7.387 16.14-10.83C63.21 89.37 71.72 85.1 78.43 78.4c6.707-6.705 10.98-15.21 14.75-22.71C96.61 48.84 100.2 41.76 104 39.54c1.891-1.092 5.16-1.623 9.996-1.623c2.98 0 6.039 .1797 9.102 .3496C126.8 38.47 130.5 38.67 134.1 38.67c6.359 0 11.55-.5977 16.34-1.879c8.98-2.398 16.81-7.555 23.72-12.11C180.6 20.42 187.3 16 192 16c4.699 0 11.41 4.42 17.91 8.695c6.91 4.549 14.75 9.705 23.72 12.11c4.797 1.283 9.996 1.881 16.36 1.881c3.594 0 7.266-.1953 10.93-.4004c3.059-.1699 6.113-.3477 9.094-.3477c4.844 0 8.121 .5332 10.01 1.625c3.828 2.219 7.387 9.299 10.83 16.15c3.77 7.504 8.039 16.01 14.75 22.71c6.703 6.707 15.21 10.98 22.71 14.75c6.844 3.441 13.93 6.998 16.14 10.83c2.133 3.689 1.695 11.52 1.273 19.1c-.4687 8.443-1.004 18.01 1.477 27.3c2.398 8.975 7.555 16.8 12.1 23.71C363.6 180.6 368 187.3 368 192C368 196.7 363.6 203.4 359.3 209.9zM286.4 384.2c-4.312 .875-7.125 5.094-6.25 9.422l21 102.6l-105.4-55.23c-2.312-1.219-5.125-1.219-7.438 0L83.22 495.9l20.62-102.3c.875-4.328-1.938-8.547-6.25-9.422c-4.531-.9375-8.562 1.953-9.438 6.266l-20.59 102.2c-1.281 5.984 .9062 12.08 5.688 15.88c4.719 3.781 11.09 4.516 17.03 1.812L192 457l102 53.45C296.2 511.5 298.5 512 300.8 512c3.531 0 7-1.188 9.906-3.484c4.781-3.797 6.969-9.891 5.719-15.78l-20.62-102.3C294.9 386.1 290.8 383.3 286.4 384.2z"/></svg>