<svg xmlns="http://www.w3.org/2000/svg" viewBox="0 0 576 512"><!--! Font Awesome Pro 6.0.0-beta3 by @fontawesome - https://fontawesome.com License - https://fontawesome.com/license (Commercial License) Copyright 2021 Fonticons, Inc. --><path d="M564.7 99.68l-77.83-86.8c-11.27-12.6-28.83-16.33-43.69-9.518l-92.75 42.99C299.3 70.05 257.1 110.4 228.3 162.1L207.7 200.7C180.6 250.3 140.9 288.2 92.94 310.5l-68.88 31.94c-11.86 5.486-20.28 16.52-23.09 30.23c-2.938 14.35 .9062 29.18 10.31 39.65l77.83 86.8C96.64 507.5 106.1 512 117.5 512c5.188 0 10.41-1.109 15.33-3.375l92.75-42.99c51.13-23.69 93.34-64.03 122.1-116.6l20.66-37.76c27.11-49.56 66.8-87.5 114.8-109.8l68.88-31.94c11.86-5.486 20.28-16.52 23.09-30.23C577.1 124.1 574.1 110.1 564.7 99.68zM16.64 375.9c1.797-8.689 6.938-15.6 14.14-18.94l68.88-31.93c51.09-23.71 93.31-64.01 122.1-116.6l20.66-37.76c27.11-49.57 66.81-87.53 114.8-109.8l92.75-42.99c8.578-3.985 18.41-1.75 25.06 5.673l39.18 43.69l-102.5 47.54c-51.09 23.69-93.3 63.1-122.1 116.6L268.9 269.2c-27.11 49.57-66.8 87.53-114.8 109.8l-106.9 49.53l-24.06-26.84C17.15 394.9 14.72 385.3 16.64 375.9zM545.2 155l-68.88 31.93c-51.09 23.71-93.31 64.01-122.1 116.6l-20.66 37.76c-27.11 49.57-66.81 87.53-114.8 109.8l-92.75 42.99c-8.547 3.985-18.41 1.75-25.06-5.673l-42.59-47.5l102.4-47.46c51.14-23.71 93.36-64.03 122.1-116.6l20.66-37.76c27.11-49.57 66.8-87.52 114.8-109.8l106.1-49.62l27.49 30.66c6.031 6.72 8.469 16.33 6.547 25.74C557.6 144.8 552.4 151.7 545.2 155z"/></svg>