<svg xmlns="http://www.w3.org/2000/svg" viewBox="0 0 640 512"><!--! Font Awesome Pro 6.0.0-beta3 by @fontawesome - https://fontawesome.com License - https://fontawesome.com/license (Commercial License) Copyright 2021 Fonticons, Inc. --><path d="M575.9 149.7c0-34.13-10.2-66.82-31.53-93.61C514.6 18.75 468.9 0 419.5 0c-99.06 0-227.6 87.4-227.6 218.5c0 34.88 10.78 67.13 31.59 93.33l-93.22 75.83l-6.949-8.721c-4.617-5.814-11.47-9.064-18.56-9.064c-5.479 0-10.79 1.711-15.19 5.217l-74.56 59.53C5.158 442.5 0 454.2 0 465.1c0 8.746 2.84 17.55 8.697 24.92l4.812 5.975C14.02 497.5 24.44 512 44.86 512c9.031 0 17.72-3.004 24.88-8.729l74.53-59.53c5.836-4.607 9.061-11.52 9.061-18.84c0-5.416-1.822-10.62-5.248-14.91L140.3 400.2l94.75-77.07c29.45 29.37 69.68 45 113.5 45C441 368.1 575.9 286.9 575.9 149.7zM134.3 431.2l-74.53 59.53c-4.266 3.367-9.498 5.252-14.82 5.252c-.4883 0-11.34 .4648-18.93-9.1l-4.812-5.975c-3.512-4.422-5.217-9.705-5.217-14.95c0-7.078 3.104-14.09 9.061-18.83l74.53-59.53c1.578-1.236 3.277-1.752 4.898-1.752c2.566 0 4.941 1.291 6.352 3.066l24.75 31.03c1.182 1.494 1.74 3.244 1.74 4.973C137.3 427.3 136.3 429.7 134.3 431.2zM348.4 352.2c-47.32 0-140.5-28.49-140.5-133.8c0-148.8 151.1-202.5 211.6-202.5c47.23 0 140.4 28.35 140.4 133.9C559.9 270.3 441.1 352.2 348.4 352.2zM623.6 501.5l-15.59-46.8l.0067-54.69c0-26.54-21.49-48.01-48-48.01c-26.51 0-48 21.48-48 48.01l-.0082 54.69l-15.59 46.8c-.2813 .8398-.416 1.693-.416 2.533C495.1 508.3 499.5 512 503.1 512c3.344 0 6.469-2.127 7.594-5.475l16.85-50.58h23.55v48.05c0 4.41 3.6 8.006 8.007 8.006s7.993-3.596 7.993-8.006V455.9h23.55l16.85 50.58C609.5 509.9 612.6 512 615.1 512C620.5 512 624 508.4 624 503.1C624 503.2 623.9 502.3 623.6 501.5zM591.1 439.9h-64v-16.02h64V439.9zM591.1 407.9h-64v-8.01c0-17.66 14.36-32.03 32-32.03c17.64 0 32 14.37 32 32.03V407.9zM501.6 67.91c-20.06-16.97-47.63-25.94-79.66-25.94c-91.75 0-190 70.91-190 176.4c0 108.5 115.3 109.8 116.5 109.8c76.44 0 187.5-69.5 187.5-178.4C535.9 115.2 524.1 86.88 501.6 67.91zM348.5 312.2c-4.125-.0313-100.5-1.781-100.5-93.78c0-104.7 101.1-160.4 174-160.4c28.22 0 52.19 7.656 69.34 22.16c19 16.06 28.66 39.5 28.66 69.66C519.9 248.9 418.4 312.2 348.5 312.2z"/></svg>