<svg xmlns="http://www.w3.org/2000/svg" viewBox="0 0 512 512"><!--! Font Awesome Pro 6.0.0-beta3 by @fontawesome - https://fontawesome.com License - https://fontawesome.com/license (Commercial License) Copyright 2021 Fonticons, Inc. --><path d="M496.3 202.5l-110-15.38l41.88-104.4c5.22-13.1-5.032-25.54-16.94-25.54c-3.21 0-6.506 .8691-9.69 2.912L307.5 120l-34.13-107.1C270.6 4.25 263.4 0 255.1 0c-7.376 0-14.63 4.25-17.38 12.88L204.5 120L110.5 60.12c-3.17-2.008-6.454-2.887-9.649-2.887C88.9 57.24 78.65 69.64 83.88 82.75l41.85 104.4L15.71 202.5C-1.792 205-5.917 228.7 9.71 237.2l98.14 52.63l-74.51 83.5c-10.88 12.25-1.782 31 13.35 31c1.25 0 2.657-.25 4.032-.5l108.6-23.63l-4.126 112.5C154.7 504.4 164.1 512 173.6 512c5.126 0 10.38-2.25 14.25-7.25l68.13-88.88l68.23 88.88C327.1 509.8 333.2 512 338.4 512c9.501 0 18.88-7.625 18.38-19.25l-4.032-112.5l108.5 23.63c1.389 .2988 2.799 .4707 4.108 .4707c15.07 0 24.2-18.78 13.27-30.97l-74.51-83.5l98.14-52.72C517.9 228.8 513.8 205 496.3 202.5zM494.7 223l-98.14 52.75c-4.315 2.32-7.331 6.49-8.181 11.31c-.8517 4.826 .5548 9.775 3.817 13.43l74.54 83.53c.3594 .4023 1.108 1.238 .4337 2.748c-.1113 .2461-.7716 1.441-2.416 1.441c-.0488 0 .0508 .0039 0 0l-108.6-23.63c-1.129-.2441-2.27-.3652-3.405-.3652c-3.713 0-7.355 1.295-10.26 3.721c-3.794 3.168-5.909 7.91-5.733 12.85l4.006 112.6c.043 1.006-.2266 1.434-.5255 1.744C339.8 495.7 339 496 338.4 496l-1.436-.9961l-68.26-88.88c-3.028-3.943-7.718-6.254-12.69-6.254c-4.975 .002-9.673 2.318-12.7 6.266l-68.08 88.81C174.4 496 173.8 496 173.6 496c-.6466 0-1.397-.3301-1.866-.8184c-.2989-.3105-.5685-.7383-.5216-1.846l4.126-112.5c.1817-4.939-1.93-9.686-5.724-12.86c-2.907-2.432-6.548-3.729-10.27-3.729c-1.133 0-2.274 .1191-3.401 .3652l-109.2 23.76c-1.1 0-1.703-1.154-1.864-1.508c-.7032-1.566 .0781-2.447 .4278-2.84l74.51-83.5c3.264-3.658 4.671-8.611 3.817-13.44C122.8 282.3 119.7 278.1 115.4 275.8L17.36 223.2C16.91 222.9 15.71 222.3 16.06 220.3c.3184-1.762 1.397-1.916 1.867-1.982l110-15.38c4.874-.6816 9.164-3.566 11.63-7.824C142 190.9 142.4 185.7 140.6 181.2L98.71 76.83C98.33 75.86 98.37 75.17 98.85 74.46c.3672-.543 .9279-.9707 1.936-.9707c.3165 0 .6778 .041 1.09 .1348l94.01 59.88C198.5 135.2 201.5 136 204.5 136c1.836 0 3.68-.3164 5.45-.957c4.669-1.691 8.288-5.455 9.796-10.19l34.13-107.1C254.2 16.64 254.7 16 256 16s1.782 .6367 2.131 1.73l34.13 107.1c1.506 4.732 5.126 8.496 9.795 10.19C303.8 135.7 305.7 136 307.5 136c3.008 0 5.997-.8496 8.597-2.506l95.14-60.32c.5118 0 1.348 .4297 1.885 1.221c.502 .7422 .5489 1.447 .17 2.396L371.4 181.2c-1.832 4.566-1.461 9.723 1.006 13.98c2.467 4.258 6.757 7.143 11.63 7.824l109.1 15.37c.5215 .0762 1.608 .2305 1.92 1.994C496.3 222.2 495.2 222.8 494.7 223z"/></svg>