<svg xmlns="http://www.w3.org/2000/svg" viewBox="0 0 448 512"><!--! Font Awesome Pro 6.1.1 by @fontawesome - https://fontawesome.com License - https://fontawesome.com/license (Commercial License) Copyright 2022 Fonticons, Inc. --><path d="M384 0H64C28.66 0 0 28.66 0 64v384c0 35.34 28.66 64 64 64h320c35.34 0 64-28.66 64-64V64C448 28.66 419.3 0 384 0zM432 448c0 26.47-21.53 48-48 48H64c-26.47 0-48-21.53-48-48V64c0-26.47 21.53-48 48-48h320c26.47 0 48 21.53 48 48V448zM376 120h-176C195.6 120 192 123.6 192 128s3.594 8 8 8h176C380.4 136 384 132.4 384 128S380.4 120 376 120zM376 248h-176C195.6 248 192 251.6 192 256s3.594 8 8 8h176C380.4 264 384 260.4 384 256S380.4 248 376 248zM376 376h-176C195.6 376 192 379.6 192 384s3.594 8 8 8h176c4.406 0 8-3.578 8-8S380.4 376 376 376zM104 88h-16c-17.67 0-32 14.33-32 32v16c0 17.67 14.33 32 32 32h16c17.67 0 32-14.33 32-32v-16C136 102.3 121.7 88 104 88zM120 136c0 8.822-7.176 16-16 16h-16c-8.824 0-16-7.178-16-16v-16c0-8.822 7.176-16 16-16h16c8.824 0 16 7.178 16 16V136zM104 216h-16c-17.67 0-32 14.33-32 32v16c0 17.67 14.33 32 32 32h16c17.67 0 32-14.33 32-32v-16C136 230.3 121.7 216 104 216zM120 264c0 8.822-7.176 16-16 16h-16c-8.824 0-16-7.178-16-16v-16c0-8.822 7.176-16 16-16h16c8.824 0 16 7.178 16 16V264zM104 344h-16c-17.67 0-32 14.33-32 32v16c0 17.67 14.33 32 32 32h16c17.67 0 32-14.33 32-32v-16C136 358.3 121.7 344 104 344zM120 392c0 8.822-7.176 16-16 16h-16c-8.824 0-16-7.178-16-16v-16c0-8.822 7.176-16 16-16h16c8.824 0 16 7.178 16 16V392z"/></svg>