<svg xmlns="http://www.w3.org/2000/svg" viewBox="0 0 512 512"><!--! Font Awesome Pro 6.1.1 by @fontawesome - https://fontawesome.com License - https://fontawesome.com/license (Commercial License) Copyright 2022 Fonticons, Inc. --><path d="M296.8 353.3L308.1 364.7C294.1 376.7 275.9 384 256 384C227.9 384 203.2 369.5 188.9 347.7L148.4 374.7C144.8 377.1 139.8 376.1 137.3 372.4C134.9 368.8 135.9 363.8 139.6 361.3L181.6 333.3C177.1 324.3 176 314.4 176 304V297.2L129.1 303.9C124.8 304.5 120.7 301.5 120.1 297.1C119.5 292.8 122.5 288.7 126.9 288.1L176 281.1V238L125.8 223.7C121.6 222.5 119.1 218.1 120.3 213.8C121.5 209.6 125.1 207.1 130.2 208.3L160.4 216.9L192 248.6V304C192 339.3 220.7 368 256 368C271.5 368 285.7 362.5 296.8 353.3V353.3zM323.1 164.3L363.6 137.3C367.2 134.9 372.2 135.9 374.7 139.6C377.1 143.2 376.1 148.2 372.4 150.7L330.4 178.7C334 187.7 336 197.6 336 208V221.4L381.8 208.3C386.1 207.1 390.5 209.6 391.7 213.8C392.9 218.1 390.5 222.5 386.2 223.7L336 238V279.4L320 263.4V208C320 172.7 291.3 144 256 144C240.5 144 226.3 149.5 215.2 158.7L203.9 147.3C217.9 135.3 236.1 128 256 128C284.1 128 308.8 142.5 323.1 164.4V164.3zM391.9 297.1C391.3 301.5 387.2 304.5 382.9 303.9L356.8 300.2L337.9 281.3L385.1 288.1C389.5 288.7 392.5 292.8 391.9 297.1L391.9 297.1zM0 256C0 114.6 114.6 0 256 0C397.4 0 512 114.6 512 256C512 397.4 397.4 512 256 512C114.6 512 0 397.4 0 256zM256 496C319.4 496 377.1 471.4 419.1 431.3L80.73 92.05C40.58 134.9 16 192.6 16 256C16 388.5 123.5 496 256 496L256 496zM92.04 80.73L431.3 419.1C471.4 377.1 496 319.4 496 255.1C496 123.5 388.5 15.1 255.1 15.1C192.6 15.1 134.9 40.58 92.04 80.73L92.04 80.73z"/></svg>