<svg xmlns="http://www.w3.org/2000/svg" viewBox="0 0 512 512"><!--! Font Awesome Pro 6.0.0-beta3 by @fontawesome - https://fontawesome.com License - https://fontawesome.com/license (Commercial License) Copyright 2021 Fonticons, Inc. --><path d="M377.6 231.8c4.344-.8594 7.156-5.078 6.281-9.406c-.8438-4.328-4.938-7.297-9.406-6.281L328 225.4V200c0-8.006-1.613-15.57-4.023-22.76l31.99-18.28c3.844-2.203 5.156-7.094 2.969-10.92c-2.188-3.844-7.094-5.156-10.91-2.984l-30.77 17.58C304.6 141.9 282 128 256 128C233.4 128 213.4 138.7 200.2 154.1l11.33 11.33C221.8 152.8 237.8 144 256 144c30.88 0 56 25.12 56 56v66.75l20.76 20.76l41.68 8.338C374.1 295.1 375.5 296 376 296c3.75 0 7.094-2.625 7.844-6.438c.875-4.328-1.938-8.547-6.281-9.406L328 270.2V241.8L377.6 231.8zM134.4 280.2C130.1 281 127.3 285.2 128.2 289.6C128.9 293.4 132.2 296 135.1 296c.5 0 1.031-.0469 1.562-.1562L184 286.6V312c0 8.006 1.613 15.57 4.023 22.76l-31.99 18.28c-3.844 2.203-5.156 7.094-2.969 10.92C154.5 366.5 157.2 368 160 368c1.344 0 2.719-.3438 3.969-1.047l30.77-17.58C207.4 370.1 229.1 384 256 384c22.63 0 42.57-10.65 55.77-26.98l-11.33-11.33C290.2 359.2 274.2 368 256 368c-30.88 0-56-25.12-56-56V245.3L179.2 224.5L137.6 216.2C132.1 215.1 128.1 218.1 128.2 222.4C127.3 226.8 130.1 230.1 134.4 231.8L184 241.8v28.48L134.4 280.2zM256 0C114.6 0 0 114.6 0 256s114.6 256 256 256s256-114.6 256-256S397.4 0 256 0zM256 496c-132.3 0-240-107.7-240-240c0-63.29 24.81-120.8 64.99-163.7l338.7 338.7C376.8 471.2 319.3 496 256 496zM431 419.7L92.3 80.99C135.2 40.81 192.7 16 256 16c132.3 0 240 107.7 240 240C496 319.3 471.2 376.8 431 419.7z"/></svg>