<svg xmlns="http://www.w3.org/2000/svg" viewBox="0 0 576 512"><!--! Font Awesome Pro 6.1.1 by @fontawesome - https://fontawesome.com License - https://fontawesome.com/license (Commercial License) Copyright 2022 Fonticons, Inc. --><path d="M294.9 258.1c11.82 0 29.87-60.99 29.87-112.4c0-57.88-17.02-88.49-17.02-99.75c0-18.02 17.67-30.06 33.57-30.06c24.98 0 113.7 83.57 113.7 207.1c0 18.09-1.82 29.93-1.82 31.57c0 4.331 3.522 7.938 7.99 7.938c4.031 0 7.469-2.999 7.938-7.055c1.266-10.95 1.891-21.84 1.891-32.64c0-137.3-98.76-222.9-129.5-222.9c-15.78 0-49.7 11.74-49.7 46.03c0 16.36 16.96 42.31 16.96 99.66c0 63.3-21.8 98.74-21.8 104.5C286.9 253.6 289.7 258.1 294.9 258.1zM576 405.7c0-1.287-.3124-2.592-.969-3.8l-26.56-48.27c-18.76-34.04-53.99-53.83-91.04-53.83c-11.52 0-23.22 1.915-34.65 5.911l-100.9 35.23l-52-47.6c-19.51-17.89-44.94-27.23-70.6-27.23c-15.84 0-31.76 3.561-46.43 10.87L100.4 303.2C97.61 304.6 95.1 307.4 95.1 310.3c0 4.591 3.788 7.96 8.006 7.96c1.213 0 2.44-.2772 3.587-.8612l52.44-26.15C172.4 285.1 185.7 282.1 198.1 282.1c19.39 0 38.63 6.36 54.35 18.47c-49.98 61.31-128.6 97.93-212.6 97.93C18.28 398.5 0 416 0 437.6v32.54c0 21.54 18.37 39.07 40.97 39.07c0 0 66.96 .8468 90.85 .8468c105.2 0 259.3-16.42 322.6-193.9c.9981-.0333 1.995-.0499 2.99-.0499c31.36 0 61.12 16.46 76.97 45.25l26.56 48.27c.7695 1.384 3.427 4.196 7.054 4.196C571.9 413.8 576 410.6 576 405.7zM153.5 495c-22.38 0-37.8-1.718-41.66-1.718L40.97 493.3c-13.78 0-24.97-10.38-24.97-23.15v-32.54c0-12.77 11.09-23.15 24.72-23.15c88.59 0 171.7-38.71 224.7-103.5l49.15 44.99c1.493 1.356 3.406 2.093 5.397 2.093c.8834 0 1.782-.1453 2.666-.4463l105.4-36.81c2.631-.9129 5.301-1.34 7.955-1.997C374.9 476.6 226.8 495 153.5 495z"/></svg>