<svg xmlns="http://www.w3.org/2000/svg" viewBox="0 0 448 512"><!--! Font Awesome Pro 6.0.0-beta3 by @fontawesome - https://fontawesome.com License - https://fontawesome.com/license (Commercial License) Copyright 2021 Fonticons, Inc. --><path d="M0 88C0 83.58 3.582 80 8 80H440C444.4 80 448 83.58 448 88C448 92.42 444.4 96 440 96H8C3.582 96 0 92.42 0 88zM0 248C0 243.6 3.582 240 8 240H440C444.4 240 448 243.6 448 248C448 252.4 444.4 256 440 256H8C3.582 256 0 252.4 0 248zM440 416H8C3.582 416 0 412.4 0 408C0 403.6 3.582 400 8 400H440C444.4 400 448 403.6 448 408C448 412.4 444.4 416 440 416z"/></svg>