<svg xmlns="http://www.w3.org/2000/svg" viewBox="0 0 576 512"><!--! Font Awesome Pro 6.0.0-beta3 by @fontawesome - https://fontawesome.com License - https://fontawesome.com/license (Commercial License) Copyright 2021 Fonticons, Inc. --><path d="M208 408C208 412.4 204.4 416 200 416C195.6 416 192 412.4 192 408V296C192 291.6 195.6 288 200 288C204.4 288 208 291.6 208 296V408zM288 288C292.4 288 296 291.6 296 296V408C296 412.4 292.4 416 288 416C283.6 416 280 412.4 280 408V296C280 291.6 283.6 288 288 288zM384 408C384 412.4 380.4 416 376 416C371.6 416 368 412.4 368 408V296C368 291.6 371.6 288 376 288C380.4 288 384 291.6 384 296V408zM351 4.193L452.8 192H568C572.4 192 576 195.6 576 200C576 204.4 572.4 208 568 208H540L476.1 463.5C468.1 492 443.4 512 414 512H161.1C132.6 512 107 492 99.88 463.5L36 208H8C3.582 208 0 204.4 0 200C0 195.6 3.582 192 8 192H123.2L224.1 4.193C227.1 .3081 231.9-1.135 235.8 .9692C239.7 3.074 241.1 7.929 239 11.81L141.4 192H434.6L336.1 11.81C334.9 7.929 336.3 3.074 340.2 .9692C344.1-1.135 348.9 .3084 351 4.193H351zM115.4 459.6C120.7 481 139.9 496 161.1 496H414C436.1 496 455.3 481 460.6 459.6L523.5 208H52.49L115.4 459.6z"/></svg>