<svg xmlns="http://www.w3.org/2000/svg" viewBox="0 0 640 512"><!--! Font Awesome Pro 6.1.1 by @fontawesome - https://fontawesome.com License - https://fontawesome.com/license (Commercial License) Copyright 2022 Fonticons, Inc. --><path d="M639.3 314.1l-79.5-182.3c-4.5-10.2-13.19-18.05-23.87-21.49c-10.72-3.484-22.5-2.188-31.94 3.344l-89.81 46.29l-22.47-89.87c-.625-2.594-2.531-4.688-5.062-5.594c-2.531-.875-5.312-.4844-7.438 1.109l-41.06 30.42H301.8L260.8 65.57C258.6 63.97 255.8 63.58 253.3 64.46c-2.531 .9063-4.437 3-5.062 5.594L225.8 159.9l-89.53-46.07C126.5 108.1 114.8 106.8 104.1 110.3C93.41 113.7 84.66 121.5 80.13 131.8L.6572 314.1c-1.25 2.891-.6875 6.25 1.437 8.578c2.125 2.344 5.312 3.188 8.406 2.234l48.37-15.81c23.25-7.656 48.97 1 62.53 20.95l35.97 53.08c1.344 1.969 3.469 3.234 5.844 3.469c2.406 .375 4.719-.5782 6.375-2.25l11.59-11.39c11.19-10.97 26.56-16.77 42.37-15.48c15.72 1.109 30.16 8.86 39.59 21.24l50.5 66.13C315.2 446.8 317.5 448 319.1 448c2.5 0 4.844-1.156 6.344-3.141l50.47-66.13c9.469-12.38 23.91-20.13 39.62-21.24c16.03-1.234 31.22 4.531 42.37 15.48l11.56 11.39c1.687 1.672 4.031 2.625 6.406 2.25c2.375-.2344 4.5-1.5 5.844-3.469l35.94-53.06c13.56-19.95 39.37-28.58 62.56-20.97l48.37 15.81c3.094 .9688 6.281 .125 8.406-2.234C640 320.4 640.6 317 639.3 314.1zM586.1 293.9c-30.12-9.797-63.25 1.375-80.81 27.2l-30.56 45.11l-4.719-4.641c-14.44-14.19-34.47-21.33-54.72-20.05c-20.31 1.453-38.97 11.47-51.19 27.49L320 426.8l-44.12-57.8c-12.22-16.02-30.87-26.03-51.19-27.49c-20.28-1.266-40.28 5.86-54.69 20.05l-4.749 4.656l-30.59-45.13C117.1 295.2 83.94 284.1 53.88 293.9L22.47 304.2l72.31-165.9C97.47 132.2 102.6 127.5 108.1 125.5C115.4 123.4 122.3 124.3 128.5 127.8l91.81 47.25c.5117 .2695 1.072-.0098 1.609 .1367L216.3 198.1C215.2 202.3 217.8 206.7 222.1 207.8C226.5 208.8 230.7 206.2 231.8 201.9l29.09-116.4l33.56 24.86C295.8 111.4 297.4 111.1 299.2 111.1h41.69c1.719 0 3.375-.5469 4.75-1.578l33.56-24.86l29.09 116.4c.9062 3.641 4.156 6.063 7.75 6.063c.625 0 1.281-.0781 1.938-.2344c4.281-1.078 6.906-5.422 5.812-9.703l-5.705-22.82c.5391-.1465 1.098 .1328 1.611-.1367l92.06-47.45c5.875-3.453 12.84-4.25 19.34-2.141c6.406 2.078 11.44 6.594 14.12 12.7l72.34 165.1L586.1 293.9z"/></svg>