<svg xmlns="http://www.w3.org/2000/svg" viewBox="0 0 576 512"><!--! Font Awesome Pro 6.1.1 by @fontawesome - https://fontawesome.com License - https://fontawesome.com/license (Commercial License) Copyright 2022 Fonticons, Inc. --><path d="M205 248H327C330.3 248 333.3 250.1 334.5 253.2C335.7 256.3 334.8 259.8 332.3 261.1L215.3 365.1C212 368.9 206.1 368.6 204 365.3C201.1 362 201.4 356.1 204.7 354L305.1 264H184C180.7 264 177.7 261.9 176.5 258.8C175.3 255.7 176.2 252.2 178.7 250L295.7 146C298.1 143.1 304 143.4 306.1 146.7C309.9 149.1 309.6 155 306.3 157.1L205 248zM448 416H80C35.82 416 0 380.2 0 336V176C0 131.8 35.82 96 80 96H448C492.2 96 528 131.8 528 176V192H544C561.7 192 576 206.3 576 224V288C576 305.7 561.7 320 544 320H528V336C528 380.2 492.2 416 448 416zM80 112C44.65 112 16 140.7 16 176V336C16 371.3 44.65 400 80 400H448C483.3 400 512 371.3 512 336V176C512 140.7 483.3 112 448 112H80zM544 304C552.8 304 560 296.8 560 288V224C560 215.2 552.8 208 544 208H528V304H544z"/></svg>