<svg xmlns="http://www.w3.org/2000/svg" viewBox="0 0 576 512"><!--! Font Awesome Pro 6.1.1 by @fontawesome - https://fontawesome.com License - https://fontawesome.com/license (Commercial License) Copyright 2022 Fonticons, Inc. --><path d="M272 144C276.4 144 280 147.6 280 152V296C280 300.4 276.4 304 272 304C267.6 304 264 300.4 264 296V152C264 147.6 267.6 144 272 144zM288 352C288 360.8 280.8 368 272 368C263.2 368 256 360.8 256 352C256 343.2 263.2 336 272 336C280.8 336 288 343.2 288 352zM448 416H80C35.82 416 0 380.2 0 336V176C0 131.8 35.82 96 80 96H448C492.2 96 528 131.8 528 176V192H544C561.7 192 576 206.3 576 224V288C576 305.7 561.7 320 544 320H528V336C528 380.2 492.2 416 448 416zM80 112C44.65 112 16 140.7 16 176V336C16 371.3 44.65 400 80 400H448C483.3 400 512 371.3 512 336V176C512 140.7 483.3 112 448 112H80zM544 304C552.8 304 560 296.8 560 288V224C560 215.2 552.8 208 544 208H528V304H544z"/></svg>