<svg xmlns="http://www.w3.org/2000/svg" viewBox="0 0 576 512"><!--! Font Awesome Pro 6.1.1 by @fontawesome - https://fontawesome.com License - https://fontawesome.com/license (Commercial License) Copyright 2022 Fonticons, Inc. --><path d="M64 208C64 181.5 85.49 160 112 160H144C170.5 160 192 181.5 192 208V304C192 330.5 170.5 352 144 352H112C85.49 352 64 330.5 64 304V208zM80 208V304C80 321.7 94.33 336 112 336H144C161.7 336 176 321.7 176 304V208C176 190.3 161.7 176 144 176H112C94.33 176 80 190.3 80 208zM448 416H80C35.82 416 0 380.2 0 336V176C0 131.8 35.82 96 80 96H448C492.2 96 528 131.8 528 176V192H544C561.7 192 576 206.3 576 224V288C576 305.7 561.7 320 544 320H528V336C528 380.2 492.2 416 448 416zM80 112C44.65 112 16 140.7 16 176V336C16 371.3 44.65 400 80 400H448C483.3 400 512 371.3 512 336V176C512 140.7 483.3 112 448 112H80zM544 304C552.8 304 560 296.8 560 288V224C560 215.2 552.8 208 544 208H528V304H544z"/></svg>