<svg xmlns="http://www.w3.org/2000/svg" viewBox="0 0 576 512"><!--! Font Awesome Pro 6.0.0-beta3 by @fontawesome - https://fontawesome.com License - https://fontawesome.com/license (Commercial License) Copyright 2021 Fonticons, Inc. --><path d="M272 416C263.2 416 256 423.2 256 432C256 440.8 263.2 448 272 448s16-7.18 16-16C288 423.2 280.8 416 272 416zM272 352c4.418 0 8-3.582 8-8v-272C280 67.58 276.4 64 272 64S264 67.58 264 72v272C264 348.4 267.6 352 272 352zM544 192h-16V160c0-35.35-28.65-64-64-64h-136C323.6 96 320 99.58 320 104s3.582 8 8 8h136C490.5 112 512 133.5 512 160v192c0 26.51-21.49 48-48 48H352c-4.418 0-8 3.582-8 8S347.6 416 352 416h112c35.35 0 64-28.65 64-64v-32H544c17.67 0 32-14.33 32-32V224C576 206.3 561.7 192 544 192zM560 288c0 8.822-7.18 16-16 16h-16v-96H544c8.82 0 16 7.178 16 16V288zM216 96H64C28.65 96 0 124.7 0 160v192c0 35.35 28.65 64 64 64h128c4.418 0 8-3.582 8-8S196.4 400 192 400H64c-26.51 0-48-21.49-48-48V160c0-26.51 21.49-48 48-48h152C220.4 112 224 108.4 224 104S220.4 96 216 96z"/></svg>