<svg xmlns="http://www.w3.org/2000/svg" viewBox="0 0 576 512"><!--! Font Awesome Pro 6.0.0-beta3 by @fontawesome - https://fontawesome.com License - https://fontawesome.com/license (Commercial License) Copyright 2021 Fonticons, Inc. --><path d="M464 32H224C215.2 32 208 39.16 208 48V192h-192V8C16 3.594 12.42 0 8 0S0 3.594 0 8v496C0 508.4 3.578 512 8 512s8-3.594 8-8V448h544v56c0 4.406 3.578 8 8 8S576 508.4 576 504V144C576 82.13 525.9 32 464 32zM560 432H224V288h240c52.93 0 96 43.06 96 96V432zM560 327.1C540.5 294.3 505 272 464 272H224C215.2 272 208 279.2 208 288v144h-192v-224h544V327.1zM560 192H224V48h240c52.93 0 96 43.06 96 96V192zM112 400c35.35 0 64-28.65 64-64s-28.65-64-64-64c-35.35 0-64 28.65-64 64S76.65 400 112 400zM112 288C138.5 288 160 309.5 160 336S138.5 384 112 384S64 362.5 64 336S85.53 288 112 288zM112 160c35.35 0 64-28.65 64-64s-28.65-64-64-64c-35.35 0-64 28.65-64 64S76.65 160 112 160zM112 48C138.5 48 160 69.53 160 96S138.5 144 112 144S64 122.5 64 96S85.53 48 112 48z"/></svg>