<svg xmlns="http://www.w3.org/2000/svg" viewBox="0 0 576 512"><!--! Font Awesome Pro 6.0.0-beta3 by @fontawesome - https://fontawesome.com License - https://fontawesome.com/license (Commercial License) Copyright 2021 Fonticons, Inc. --><path d="M448 95.1c-27.89 0-55.53 9.735-80.95 23.13C367.3 116.7 368 114.5 368 111.1c0-21.94-8.857-41.8-23.16-56.25l37.17-42.48c2.922-3.344 2.578-8.407-.75-11.31c-3.328-2.875-8.344-2.531-11.28 .75l-37.47 42.83C319.8 36.99 304.5 31.1 288 31.1S256.2 36.99 243.5 45.53L206 2.702C203.1-.5795 198.1-.9232 194.7 1.952C191.4 4.858 191.1 9.921 193.1 13.26l37.17 42.48C216.9 70.2 208 90.06 208 111.1c0 2.467 .6816 4.723 .9004 7.133C183.5 105.7 155.9 95.1 128 95.1C57.34 95.1 0 146.1 0 207.1c0 55.42 46.18 101 106.6 109.9c4.965 .7305 9.353-3.385 9.011-8.393c-.002-.0527 .0039 .0547 0 0C115.4 305.8 112.6 302.7 108.9 302.1C56.29 294.3 16 255.3 16 207.9c0-52.91 50.22-95.96 111.1-95.96c29.58 0 59.19 12.36 85.85 28.33c4.496 11.74 11.34 22.13 20.45 30.45c-51.17 21.08-87.08 71.24-87.05 130C147.2 406.4 288 512 288 512s140.8-105.6 140.8-211.2c.0215-58.78-35.94-108.1-87.11-130c9.115-8.326 16.01-18.7 20.51-30.43C388.9 124.3 418.4 111.1 448 111.1c61.72 0 112 43.05 112 96.04c0 47.29-40.27 86.27-92.91 94.07c-3.684 .5469-6.474 3.652-6.724 7.369c-.0039 .0547 .002-.0547 0 0c-.3418 5.008 4.046 9.125 9.011 8.395C529.8 308.1 576 263.5 576 208C576 146.2 518.7 95.99 448 95.1zM288 491.5c-13.06-10.79-37.52-32.26-61.34-59.52h122.7C325.5 459.3 301.1 480.7 288 491.5zM362.7 415.1H213.3c-15.49-19.59-29.52-41.41-38.82-64h227C392.2 374.6 378.2 396.4 362.7 415.1zM412.8 300.8c0 11.73-2.154 23.52-5.623 35.2H168.8c-3.471-11.69-5.623-23.48-5.623-35.21c-.0039-9.86 1.471-19.43 3.678-28.79h242.2C411.3 281.4 412.8 290.9 412.8 300.8zM376.3 212.5c12.54 12.54 21.82 27.38 28 43.45H171.7C177.9 239.9 187.2 225.1 199.7 212.5c23.56-23.57 54.9-36.56 88.23-36.56S352.7 188.1 376.3 212.5zM322.7 164.8c-11.15-2.842-22.66-4.813-34.7-4.813S264.4 161.1 253.3 164.8C235.9 153.4 224 134.3 224 111.1c0-17.1 6.838-32.58 17.8-44.07l8.18 9.35C251.6 79.05 253.8 79.99 256 79.99c1.875 0 3.75-.6563 5.266-1.969C264.6 75.11 264.9 70.05 262 66.7L254.3 57.84C264.1 51.69 275.6 47.98 288 47.98s23.92 3.707 33.74 9.852l-7.76 8.867c-2.922 3.344-2.578 8.407 .75 11.31C316.3 79.33 318.1 79.99 320 79.99c2.219 0 4.438-.9375 6.016-2.719l8.182-9.35C345.2 79.41 352 94.88 352 111.1C352 134.3 340.1 153.4 322.7 164.8z"/></svg>