<svg xmlns="http://www.w3.org/2000/svg" viewBox="0 0 640 512"><!--! Font Awesome Pro 6.0.0-beta3 by @fontawesome - https://fontawesome.com License - https://fontawesome.com/license (Commercial License) Copyright 2021 Fonticons, Inc. --><path d="M496 224C416.5 224 352 288.5 352 368S416.5 512 496 512C575.5 512 640 447.5 640 368S575.5 224 496 224zM496 496C425.4 496 368 438.6 368 368s57.42-128 128-128C566.6 240 624 297.4 624 368S566.6 496 496 496zM552.6 320.9l-77.31 77.31l-35.81-35.83c-3.094-3.109-8.156-3.141-11.31 0c-3.125 3.125-3.125 8.188 0 11.31l41.47 41.48c1.5 1.5 3.531 2.344 5.656 2.344s4.156-.8438 5.656-2.344l82.97-82.97c3.125-3.125 3.125-8.188 0-11.31S555.7 317.7 552.6 320.9zM356.1 474.8c-3.209-4.23-9.653-4.165-12.64 .2256C334.9 487.6 320.4 496 304 496h-32C245.5 496 224 474.5 224 448v-96c0-26.51 21.49-48 48-48h32c6.34 0 12.37 1.283 17.89 3.559c4.1 1.688 8.891-.0498 10.5-4.179c.0195-.0508-.0195 .0508 0 0c1.572-4.01-.1562-8.647-4.121-10.33C320.8 289.9 312.6 288 304 288h-32c-35.35 0-64 28.65-64 63.1v96c0 35.35 28.65 64 63.1 64H304c21.1 0 41.23-11.29 52.72-28.27C358.6 481 358.1 477.4 356.1 474.8C356.1 474.7 356.2 474.8 356.1 474.8zM232 224h144C380.4 224 384 220.4 384 216S380.4 208 376 208h-64V8c0-2.625-1.281-5.078-3.438-6.578C306.4-.0469 303.7-.3906 301.2 .5156l-64 24C233.1 26.06 230.1 30.67 232.5 34.81c1.562 4.109 6.125 6.25 10.31 4.672L296 19.55V208h-64C227.6 208 224 211.6 224 216S227.6 224 232 224zM152 496h-64V296c0-2.625-1.281-5.078-3.438-6.578C82.41 287.9 79.63 287.6 77.19 288.5l-64 24C9.062 314.1 6.969 318.7 8.5 322.8c1.562 4.125 6.094 6.281 10.31 4.672L72 307.5V496h-64C3.594 496 0 499.6 0 504S3.594 512 8 512h144C156.4 512 160 508.4 160 504S156.4 496 152 496zM112 .0068h-32c-35.28 0-64 28.7-64 63.99v96c0 35.3 28.72 64 64 64h32c35.28 0 64-28.71 64-64V64C176 28.7 147.3 .0068 112 .0068zM160 160c0 26.47-21.53 48-48 48h-32C53.53 208 32 186.5 32 160V64c0-26.47 21.53-48 48-48h32C138.5 16 160 37.53 160 64V160z"/></svg>