<svg xmlns="http://www.w3.org/2000/svg" viewBox="0 0 576 512"><!--! Font Awesome Pro 6.0.0-beta3 by @fontawesome - https://fontawesome.com License - https://fontawesome.com/license (Commercial License) Copyright 2021 Fonticons, Inc. --><path d="M479.1 384H224c-35.34 0-63.1 28.65-63.1 63.1l-.0052 32c0 17.67 14.33 31.1 31.1 31.1L511.1 512c17.67 0 32-14.33 32-31.1l.0019-31.1C543.1 412.7 515.3 384 479.1 384zM528 480c0 8.822-7.178 16-15.1 16H192c-8.822 0-15.1-7.178-15.1-16v-32c0-26.47 21.53-48 47.1-48h255.1c26.47 0 47.1 21.53 47.1 48V480zM224.7 359.1c4.406-.4062 7.64-4.312 7.234-8.703L200.8 16h356.9l-16.37 64h-149.3c-4.422 0-7.1 3.578-7.1 8S387.6 96 392 96h145.2L516.8 176h-124.8c-4.422 0-7.1 3.578-7.1 8S387.6 192 392 192h120.7l-20.47 80h-100.2c-4.422 0-7.1 3.578-7.1 8S387.6 288 392 288h96.11l-15.86 62.02c-1.094 4.281 1.484 8.641 5.765 9.734c4.603 1.178 8.726-1.819 9.734-5.766l87.1-344C577 4.942 573.2 0 567.1 0L191.1 .006c-6.085 0-8.239 5.639-7.958 8.728l31.1 344C216.4 357.1 220.5 360.3 224.7 359.1zM167.4 326L142.8 265.4C138.8 255.6 128.7 249.7 118.1 250.6L81.23 254.2c-13.41-40.33-13.41-84.02 0-124.3l36.83 3.578c10.48 1.203 20.77-5 24.73-14.75l24.61-60.5c4.547-10.7 .5469-23-9.515-29.23L120.3 5.875C103.5-4.391 81.53-.8594 68.12 14.2c-91.58 102.5-90.73 256.5 1.984 358.1C77.18 380 87.1 384.1 98.89 384.1c7.437 0 14.91-1.891 21.27-5.797l37.76-23.14C167.8 349 171.8 336.8 167.4 326zM149.5 341.5l-37.73 23.12c-9.031 5.547-23.27 4.062-29.89-3.125C-5.252 265.1-6.049 121.2 80.07 24.84c8.611-9.687 22.08-11.26 31.84-5.328L149.5 42.61c3.297 2.047 4.641 5.984 3.156 9.484L127.1 112.7C126.7 115.9 123 117.1 119.6 117.6L70.39 112.8c-6.521 17.66-30.47 76.05 0 158.6l49.26-4.797c3.687-.1875 7.015 1.656 8.328 4.891l24.66 60.61C154 335.5 152.7 339.5 149.5 341.5zM352 416c-17.67 0-31.1 14.33-31.1 31.1s14.33 31.1 31.1 31.1c17.67 0 31.1-14.33 31.1-31.1S369.7 416 352 416zM352 464c-8.822 0-15.1-7.178-15.1-16s7.178-16 15.1-16c8.822 0 15.1 7.178 15.1 16S360.8 464 352 464z"/></svg>