<svg xmlns="http://www.w3.org/2000/svg" viewBox="0 0 512 512"><!--! Font Awesome Pro 6.0.0-beta3 by @fontawesome - https://fontawesome.com License - https://fontawesome.com/license (Commercial License) Copyright 2021 Fonticons, Inc. --><path d="M416 384H160c-35.35 0-64 28.65-64 64l-.0001 32c0 17.67 14.33 32 32 32h320c17.67 0 32-14.33 32-32l.0003-32C480 412.7 451.3 384 416 384zM464 480c0 8.822-7.178 16-16 16H128c-8.822 0-16-7.178-16-16v-32c0-26.47 21.53-48 48-48h256c26.47 0 48 21.53 48 48V480zM152 352.7c.4219 4.406 4.313 7.594 8.703 7.234c4.406-.4062 7.641-4.312 7.234-8.703L136.8 16h356.9l-16.37 64h-149.3c-4.422 0-8 3.578-8 8S323.6 96 328 96h145.2l-20.47 80h-124.8c-4.422 0-8 3.578-8 8S323.6 192 328 192h120.7l-20.47 80h-100.2c-4.422 0-8 3.578-8 8S323.6 288 328 288h96.12l-15.87 62.02c-1.094 4.281 1.484 8.641 5.766 9.734C414.7 359.9 415.3 360 416 360c3.578 0 6.828-2.406 7.75-6.016l88-344c.6094-2.391 .0781-4.938-1.438-6.891S506.5 0 504 0H40C17.94 0 0 17.94 0 40v176C0 238.1 17.94 256 40 256h103L152 352.7zM40 240c-13.23 0-24-10.77-24-24v-176c0-13.23 10.77-24 24-24h80.71l20.84 224H40zM288 416c-17.67 0-32 14.33-32 32s14.33 32 32 32c17.67 0 32-14.33 32-32S305.7 416 288 416zM288 464c-8.822 0-16-7.178-16-16s7.178-16 16-16s16 7.178 16 16S296.8 464 288 464z"/></svg>