<svg xmlns="http://www.w3.org/2000/svg" viewBox="0 0 512 512"><!--! Font Awesome Pro 6.1.1 by @fontawesome - https://fontawesome.com License - https://fontawesome.com/license (Commercial License) Copyright 2022 Fonticons, Inc. --><path d="M480 0H32C14.33 0 0 14.33 0 32v32c0 17.67 14.33 32 32 32h104v320.8C113.3 420.6 96 440.2 96 464C96 490.5 117.5 512 144 512S192 490.5 192 464c0-23.77-17.32-43.37-40-47.19V96H480c17.67 0 32-14.33 32-32V32C512 14.33 497.7 0 480 0zM176 464c0 17.64-14.36 32-32 32s-32-14.36-32-32s14.36-32 32-32S176 446.4 176 464zM496 63.99C496 72.81 488.8 80 480 80H32c-8.822 0-16.01-7.186-16.01-16.01L16 32c0-8.822 7.178-16 16-16h448c8.822 0 16 7.178 16 16L496 63.99zM487.4 220.8c-1.766-4.062-6.484-5.906-10.52-4.203c-4.062 1.75-5.938 6.453-4.203 10.52L491.9 272H192c-4.422 0-8 3.578-8 8s3.579 7.93 8.001 7.93L504 288c2.688 0 5.203-1.344 6.672-3.594c1.484-2.25 1.734-5.078 .6875-7.562L487.4 220.8zM104 280C104 275.6 100.4 272 96 272H20.13l19.23-44.84C41.09 223.1 39.22 218.4 35.16 216.6C31.11 214.9 26.39 216.8 24.64 220.8l-24 56C-.4063 279.3-.1563 282.2 1.328 284.4C2.797 286.7 5.313 288 8 288H96C100.4 288 104 284.4 104 280zM487.4 124.8c-1.766-4.078-6.484-5.922-10.52-4.203c-4.062 1.75-5.938 6.453-4.203 10.52L491.9 176H192c-4.422 0-8 3.578-8 8s3.579 7.953 8.001 7.953L504 192c2.688 0 5.203-1.344 6.672-3.594c1.484-2.25 1.734-5.078 .6875-7.562L487.4 124.8zM35.16 120.6C31.11 118.9 26.39 120.8 24.64 124.8l-24 56C-.4063 183.3-.1563 186.2 1.328 188.4C2.797 190.7 5.313 192 8 192H96c4.422 0 8-3.578 8-8S100.4 176 96 176H20.13l19.23-44.84C41.09 127.1 39.22 122.4 35.16 120.6z"/></svg>