<svg xmlns="http://www.w3.org/2000/svg" viewBox="0 0 512 512"><!--! Font Awesome Pro 6.0.0-beta3 by @fontawesome - https://fontawesome.com License - https://fontawesome.com/license (Commercial License) Copyright 2021 Fonticons, Inc. --><path d="M479.1 0H32C14.33 0 .0014 14.33 .0014 32v32c0 17.67 14.33 32 31.1 32h103.1v160.8C113.3 260.6 96 280.2 96 304c0 26.51 21.49 48 47.1 48s47.1-21.49 47.1-48c0-23.77-17.32-43.37-39.1-47.19V96h327.1c17.67 0 31.1-14.33 31.1-32V32C511.1 14.33 497.7 0 479.1 0zM176 304c0 17.64-14.36 32-31.1 32s-31.1-14.36-31.1-32s14.36-32 31.1-32S176 286.4 176 304zM495.1 64c0 8.822-7.178 16-16 16H32C23.18 80 16 72.82 16 64L16 32c0-8.822 7.178-16 15.1-16h447.1c8.822 0 15.1 7.178 15.1 16L495.1 64zM184 216c0 4.422 3.579 8 8.001 8h311.1c2.5 0 4.844-1.156 6.359-3.141s2.016-4.562 1.359-6.969l-23.1-88c-1.156-4.25-5.469-6.766-9.828-5.609C473.6 121.4 471.1 125.8 472.3 130.1L493.5 208h-301.5C187.6 208 184 211.6 184 216zM34.11 120.3c-4.25-1.109-8.672 1.391-9.828 5.609l-23.1 88C-.3736 216.3 .1264 218.9 1.642 220.9S5.501 224 8.001 224h87.1c4.422 0 7.1-3.578 7.1-8S100.4 208 96 208H18.47l21.25-77.89C40.88 125.8 38.38 121.4 34.11 120.3zM487.4 252.8c-1.75-4.062-6.516-5.938-10.52-4.203c-4.062 1.75-5.937 6.453-4.203 10.52L491.9 304h-267.9c-4.422 0-7.1 3.578-7.1 8S219.6 320 224 320h279.1c2.688 0 5.203-1.344 6.672-3.594c1.484-2.25 1.734-5.078 .6875-7.562L487.4 252.8zM1.33 316.4C2.798 318.7 5.314 320 8.001 320h55.1c4.422 0 7.1-3.578 7.1-8S68.42 304 64 304H20.13l19.23-44.84c1.734-4.062-.1406-8.766-4.203-10.52C31.09 246.9 26.41 248.8 24.64 252.8l-23.1 56C-.4048 311.3-.1549 314.2 1.33 316.4zM487.4 348.8c-1.75-4.078-6.516-5.922-10.52-4.203c-4.062 1.75-5.937 6.453-4.203 10.52L491.9 400H20.13l19.23-44.84c1.734-4.062-.1406-8.766-4.203-10.52c-4.062-1.734-8.75 .125-10.52 4.203l-23.1 56c-1.047 2.484-.7969 5.312 .6875 7.562C2.798 414.7 5.314 416 8.001 416H503.1c2.688 0 5.203-1.344 6.672-3.594c1.484-2.25 1.734-5.078 .6875-7.562L487.4 348.8zM487.4 444.8c-1.75-4.078-6.516-5.891-10.52-4.203c-4.062 1.75-5.937 6.453-4.203 10.52L491.9 496H20.13l19.23-44.84c1.734-4.062-.1406-8.766-4.203-10.52c-4.062-1.719-8.75 .125-10.52 4.203l-23.1 56c-1.047 2.484-.7969 5.312 .6875 7.562C2.798 510.7 5.314 512 8.001 512H503.1c2.688 0 5.203-1.344 6.672-3.594c1.484-2.25 1.734-5.078 .6875-7.562L487.4 444.8z"/></svg>