<svg xmlns="http://www.w3.org/2000/svg" viewBox="0 0 448 512"><!--! Font Awesome Pro 6.1.1 by @fontawesome - https://fontawesome.com License - https://fontawesome.com/license (Commercial License) Copyright 2022 Fonticons, Inc. --><path d="M440 88C444.4 88 448 91.58 448 96C448 100.4 444.4 104 440 104H8C3.582 104 0 100.4 0 96C0 91.58 3.582 88 8 88H440zM440 248C444.4 248 448 251.6 448 256C448 260.4 444.4 264 440 264H136C131.6 264 128 260.4 128 256C128 251.6 131.6 248 136 248H440zM128 416C128 411.6 131.6 408 136 408H440C444.4 408 448 411.6 448 416C448 420.4 444.4 424 440 424H136C131.6 424 128 420.4 128 416zM0 232C0 227.6 3.582 224 8 224C12.42 224 16 227.6 16 232V440C16 444.4 12.42 448 8 448C3.582 448 0 444.4 0 440V232z"/></svg>