<svg xmlns="http://www.w3.org/2000/svg" viewBox="0 0 640 512"><!--! Font Awesome Pro 6.0.0-beta3 by @fontawesome - https://fontawesome.com License - https://fontawesome.com/license (Commercial License) Copyright 2021 Fonticons, Inc. --><path d="M160 368H288.8C289.3 373.4 290 378.7 290.1 384H264V464H324.8C328.8 469.6 333 474.9 337.6 480H96C60.65 480 32 451.3 32 416V96C32 60.65 60.65 32 96 32H416C451.3 32 480 60.65 480 96V144.6C478.3 143 476.7 141.5 474.1 139.1C471.6 136.1 467.9 134.5 464 132.6V96C464 69.49 442.5 48 416 48H368V144H264V248H321.1C318.8 253.2 315.9 258.6 313 264H160L160 368zM160 128H352V48H160V128zM144 128V48H96C69.49 48 48 69.49 48 96V128H144zM48 144V248H248V144H48zM144 368V264H48V368H144zM48 384V416C48 442.5 69.49 464 96 464H248V384H48zM441.7 256C444.1 256 446.4 257.1 447.9 259C450.1 261.8 467.3 283.6 483.8 304.7L510.3 338.5L543.7 299.6C545.3 297.8 547.6 296.7 550 296.8C552.5 296.9 554.7 298.1 556.2 300C559.9 305 562.4 309.1 564.6 314.3L564.6 314.4C586.1 353.9 576.8 404.8 540 430.5L539.9 430.6C522 442.5 502.9 448.5 481.4 448.5C454.8 448.5 430.5 439.1 412.7 423.7C394.8 407.3 384 383.6 384 354.5C384 339.4 388.8 325.6 397.5 310.6C406.1 295.8 418.9 279.3 435.4 258.1C436.1 257.1 439.3 255.1 441.7 255.1V256zM503.8 356.1L471.2 314.6C459.1 300.2 448.5 285.6 441.6 276.8C428.2 293.5 418.2 306.8 411.3 318.6C403.5 332.1 400 343.1 400 354.5C400 379.4 409.1 398.7 423.5 411.9C437.9 425.1 458.2 432.5 481.4 432.5C499.6 432.5 515.7 427.5 530.9 417.4C560.3 396.8 568.6 355.1 550.5 321.9L550.3 321.6C549.8 320.5 549.2 319.4 548.7 318.4L516.1 356.4C514.6 358.2 512.3 359.2 509.9 359.2C507.5 359.1 505.2 357.1 503.8 356.1L503.8 356.1zM498.4 209.1C502 213.2 505.6 217.3 509 221.5C512.3 217.4 515.8 213.1 519.4 208.9C524.4 202.1 529.9 197.1 535.5 191.1C541.1 186.9 549.9 186.9 555.5 192C580.2 214.7 601.1 244.7 615.8 273.2C630.4 301.2 640 329.9 640 350.1C640 437.9 568.7 512 480 512C390.3 512 320 437.8 320 350.1C320 323.7 332.7 291.5 352.4 259.5C372.4 227.2 400.5 193.4 433.8 163.7C439.4 158.7 447.1 158.8 453.5 163.8C469.3 177.1 484.3 193.1 498.4 209.1V209.1zM509.2 237.5C504.4 237.5 499.8 235.4 496.7 231.7C480.2 211.8 462.5 193.4 443.6 176.4C411.8 204.9 384.1 237.2 366 267.9C346.9 298.1 336 328.1 336 350.1C336 429.4 399.5 496 480 496C559.6 496 624 429.4 624 350.1C624 333.8 615.8 307.9 601.6 280.5C587.7 253.6 568.1 225.6 545.5 204.6C537.1 212.3 529.1 221.9 521.6 231.4C518.6 235.2 514 237.4 509.2 237.5H509.2zM510.1 351.2L503.8 356.1z"/></svg>