<svg xmlns="http://www.w3.org/2000/svg" viewBox="0 0 320 512"><!--! Font Awesome Pro 6.0.0-beta3 by @fontawesome - https://fontawesome.com License - https://fontawesome.com/license (Commercial License) Copyright 2021 Fonticons, Inc. --><path d="M172.7 256l144.4-117.8C318.9 136.7 320 134.4 320 132s-1.094-4.688-2.938-6.188l-152-124c-2.406-1.938-5.688-2.406-8.5-1.031C153.8 2.102 152 4.914 152 8.008v231.2L13.06 125.8C9.592 123 4.592 123.5 1.811 126.9C-1.002 130.4-.4707 135.4 2.936 138.2l144.4 117.8l-144.4 117.8c-3.406 2.781-3.938 7.812-1.125 11.25c2.781 3.406 7.781 3.938 11.25 1.125L152 272.8V504c0 3.094 1.781 5.906 4.562 7.219C157.7 511.8 158.8 512 160 512c1.812 0 3.593-.625 5.062-1.812l152-124C318.9 384.7 320 382.4 320 380s-1.094-4.688-2.938-6.188L172.7 256zM168 24.85l131.3 107.2L168 239.2V24.85zM168 487.2V272.8L299.3 380L168 487.2z"/></svg>