<svg xmlns="http://www.w3.org/2000/svg" viewBox="0 0 384 512"><!--! Font Awesome Pro 6.1.1 by @fontawesome - https://fontawesome.com License - https://fontawesome.com/license (Commercial License) Copyright 2022 Fonticons, Inc. --><path d="M274.8 243.3C310.9 224.7 336 187.4 336 144c0-61.75-50.25-111.1-112-111.1L8 32C3.594 32 0 35.58 0 40S3.594 48 8 48H48v416H8C3.594 464 0 467.6 0 472S3.594 480 8 480h240c66.16 0 120-53.83 120-120C368 303.1 328 255.5 274.8 243.3zM224 48c52.94 0 96 43.06 96 96s-43.06 96-96 96H64v-192H224zM248 464H64V256h184C305.3 256 352 302.7 352 360S305.3 464 248 464z"/></svg>