<svg xmlns="http://www.w3.org/2000/svg" viewBox="0 0 576 512"><!--! Font Awesome Pro 6.0.0-beta3 by @fontawesome - https://fontawesome.com License - https://fontawesome.com/license (Commercial License) Copyright 2021 Fonticons, Inc. --><path d="M381.1 244.8c-4.688-12.49-16.62-20.75-29.97-20.75L227.8 223.1l88.84-177.7c6.844-13.69 3.031-30.28-9.062-39.64C301.8 2.209 294.9 0 287.1 0C280.4 0 272.9 2.666 266.9 7.926L10.95 231.9C.9162 240.7-2.647 254.8 2.041 267.3c4.688 12.48 16.62 20.75 29.97 20.75L156.2 287.1l-88.84 177.7c-6.844 13.69-3.031 30.28 9.062 39.64C82.22 509.8 89.13 512 96 512c7.531 0 15.06-2.656 21.06-7.922l255.1-223.1C383.1 271.3 386.6 257.2 381.1 244.8zM362.5 268l-256 224C103.6 494.6 99.88 495.1 96 495.1c-3.566 0-6.953-1.158-9.768-3.326c-6.041-4.676-7.953-13.02-4.545-19.83l88.84-177.7C173 290.2 172.7 284.3 169.8 279.6C166.9 274.9 161.8 271.1 156.2 271.1H32.01c-6.637 0-12.66-4.17-14.99-10.38C14.69 255.4 16.49 248.3 21.48 243.1l256-224C280.4 17.4 284.1 16 287.1 16c3.586 0 6.975 1.152 9.775 3.309c6.041 4.676 7.953 13.02 4.545 19.83L213.5 216.8C210.1 221.8 211.3 227.7 214.2 232.4c2.916 4.717 8.066 7.588 13.61 7.588h124.2c6.637 0 12.66 4.17 14.99 10.38C369.3 256.6 367.5 263.7 362.5 268zM575.2 500.4l-104-208c-2.688-5.406-11.62-5.406-14.31 0l-104 208c-1.969 3.953-.375 8.75 3.594 10.73c3.844 1.969 8.719 .375 10.72-3.578L392.9 456h142.1l25.79 51.58C562.3 510.4 565.1 512 568 512c1.219 0 2.438-.2656 3.562-.8438C575.5 509.2 577.1 504.4 575.2 500.4zM400.9 440L464 313.9L527.1 440H400.9z"/></svg>