<svg xmlns="http://www.w3.org/2000/svg" viewBox="0 0 576 512"><!--! Font Awesome Pro 6.0.0-beta3 by @fontawesome - https://fontawesome.com License - https://fontawesome.com/license (Commercial License) Copyright 2021 Fonticons, Inc. --><path d="M534.9 244.5C560.1 232 576 206.3 576 178V173.6c0-35.55-23.49-68.35-58.24-75.88C512.3 96.56 506.9 96 501.6 96c-32 0-60.5 20.5-70.63 50.88L430.8 147.4C425.2 164.4 409.5 176 391.6 176H184.4c-17.99 0-33.75-11.94-39.38-29.03C134.9 116.6 106.4 96 74.38 96C69.07 96 63.67 96.56 58.24 97.74C23.49 105.3 0 138.1 0 173.6v4.387C0 206.3 15.88 232 41.13 244.5c9.375 4.75 9.375 18.25 0 23C15.88 280 0 305.8 0 334v4.387c0 35.55 23.49 68.35 58.24 75.88C63.67 415.4 69.07 416 74.38 416c32 0 60.5-20.5 70.63-50.88l.1875-.5664C150.8 347.6 166.5 336 184.4 336h207.2c17.98 0 33.68 11.73 39.31 28.81c.0352 .1055 .0684 .209 .1035 .3125C441.1 395.5 469.6 416 501.6 416c5.305 0 10.71-.5625 16.13-1.738C552.5 406.7 576 373.9 576 338.4v-4.387C576 305.8 560.1 280 534.9 267.5C525.5 262.8 525.5 249.3 534.9 244.5zM527.8 281.8C547.7 291.7 560 311.7 560 334v4.387c0 29.18-19.19 54.51-45.63 60.24C510.2 399.5 505.9 400 501.6 400c-25.2 0-47.48-16.05-55.53-40.19C438.3 335.1 416.4 320 391.6 320H184.4c-24.76 0-46.63 15.89-54.59 40.06C121.9 383.1 99.58 400 74.38 400c-4.24 0-8.529-.4629-12.75-1.377C35.19 392.9 16 367.6 16 338.4v-4.387c0-22.33 12.35-42.32 32.36-52.23C58.1 276.8 64.16 266.1 64.16 256S58.1 235.2 48.22 230.2C28.35 220.3 16 200.3 16 178V173.6c0-29.18 19.19-54.51 45.63-60.24C65.85 112.5 70.13 112 74.38 112c25.2 0 47.48 16.05 55.52 40.17C137.7 175.1 159.7 192 184.4 192h207.2c24.76 0 46.63-15.89 54.59-40.07C454.1 128 476.4 112 501.6 112c4.24 0 8.529 .4629 12.75 1.375C540.8 119.1 560 144.4 560 173.6v4.387c0 22.33-12.35 42.32-32.36 52.23C517.9 235.2 511.8 245 511.8 256S517.9 276.8 527.8 281.8z"/></svg>