<svg xmlns="http://www.w3.org/2000/svg" viewBox="0 0 448 512"><!--! Font Awesome Pro 6.1.1 by @fontawesome - https://fontawesome.com License - https://fontawesome.com/license (Commercial License) Copyright 2022 Fonticons, Inc. --><path d="M353.1 248.5c3.125-3.125 3.125-8.188 0-11.31l-106.8-106.8c-3.125-3.125-8.188-3.125-11.31 0l-108 108C125.4 239.9 124.6 241.9 124.6 244s.7813 4.094 2.344 5.656c3.125 3.125 8.188 3.125 11.31 0l94.34-94.34V504c0 4.406 3.578 8 8 8s8-3.594 8-8V155.3l93.17 93.17C344.9 251.6 349.9 251.6 353.1 248.5zM448 384V32c0-17.67-14.33-32-32-32H64C28.66 0 0 28.65 0 64v391.1c0 30.93 25.07 56 56 56l128 .002c4.418 0 8-3.582 8-8s-3.582-8.002-8-8.002h-128c-23.38 0-42.13-20.14-39.8-43.99c2.023-20.78 20.7-36.01 41.59-36.01L184 415.1c4.418 0 8-3.582 8-8s-3.582-7.998-8-7.998l-128-.0039c-15.68 0-29.82 6.516-40 16.93V64c0-26.51 21.49-48 48-48h352c8.836 0 16 7.162 16 16v352c0 8.836-7.164 15.1-16 15.1l-120-.001c-4.418 0-8 3.58-8 7.998S291.6 416 296 416l104 .0059v79.99h-104c-4.418 0-8 3.58-8 7.998s3.582 8.006 8 8.006L439.1 512C444.4 512 448 508.4 448 504c0-4.422-3.586-8.008-8.008-8.008H416v-79.99C433.7 416 448 401.7 448 384z"/></svg>