<svg xmlns="http://www.w3.org/2000/svg" viewBox="0 0 448 512"><!--! Font Awesome Pro 6.0.0-beta3 by @fontawesome - https://fontawesome.com License - https://fontawesome.com/license (Commercial License) Copyright 2021 Fonticons, Inc. --><path d="M314 103.6c-1.885-1.352-4.119-2.117-6.471-2.117c-3.705 .0586-7.234 1.887-9.354 5c-2.059 3.117-2.529 7.059-1.117 10.53c2.766 7 4.178 14.41 4.178 21.94c0 18.52-8.424 35.43-22.94 47.07c10.17 9.957 16.52 23.8 16.52 39.16c0 27.55-20.39 50.15-46.86 54.05V247.2l15.88 7.938C265 255.7 266.2 256 267.4 256c2.938 0 5.75-1.625 7.156-4.438c1.969-3.938 .375-8.75-3.594-10.72l-13.12-6.562L271 227.7c3.969-1.969 5.562-6.781 3.594-10.72s-6.844-5.469-10.72-3.594L248 221.3V104C248 99.59 244.4 96 240 96s-8 3.594-8 8v117.3L216.1 213.4C212.3 211.5 207.4 213 205.4 217C203.4 220.9 205 225.8 209 227.7l13.12 6.562L209 240.8C205 242.8 203.4 247.6 205.4 251.6C206.8 254.4 209.6 256 212.6 256C213.8 256 215 255.7 216.1 255.2L232 247.2v31.98c-26.47-3.898-46.86-26.5-46.86-54.05c0-15.36 6.348-29.21 16.52-39.16C187.1 174.3 178.7 157.4 178.7 138.9c0-7.531 1.412-14.94 4.178-21.94C184.3 113.5 183.8 109.6 181.8 106.4c-2.119-3.113-5.648-4.941-9.354-5c-2.352 0-4.586 .7656-6.471 2.117C130.3 128.8 110.1 169.9 112.1 213.4C115.2 279.7 171.1 334.8 240 334.9c68.88-.0078 124.8-55.18 127.9-121.4C369.9 169.9 349.7 128.8 314 103.6zM330.3 213.7C331.9 215.2 333.9 216 336 216s4.094-.7813 5.656-2.344l9.67-9.672c.0957 2.93 .6895 5.766 .5547 8.723c-2.701 58.52-52.89 106.1-111.9 106.1C181 318.8 130.8 271.2 128.1 212.7c-.1348-2.961 .459-5.797 .5547-8.727l9.67 9.672C139.9 215.2 141.9 216 144 216s4.094-.7813 5.656-2.344c3.125-3.125 3.125-8.188 0-11.31L130.1 183.7c4.857-22.07 15.97-42.34 32.86-57.89C163.1 130.1 162.7 134.5 162.7 138.9c0 17.76 6.23 34.69 17.46 48.27C172.1 198.4 169.1 211.5 169.1 225.1C169.1 264.2 200.9 296 240 296s70.86-31.79 70.86-70.86c0-13.66-3.85-26.71-11.04-37.96c11.23-13.58 17.46-30.51 17.46-48.27c0-4.426-.3828-8.809-1.146-13.14c16.88 15.54 28.01 35.81 32.87 57.9l-18.66 18.66C327.2 205.5 327.2 210.5 330.3 213.7zM448 384V32c0-17.67-14.33-32-32-32H64C28.65 0 0 28.65 0 64v391.1c0 30.93 25.07 56 55.1 56l383.1 .0078C444.4 511.1 448 508.4 448 503.1c0-4.422-3.584-8.008-8.006-8.008H416V416C433.7 416 448 401.7 448 384zM400 495.1H56c-23.38 0-42.12-20.14-39.81-43.98c2.02-20.78 20.7-36.02 41.58-36.02L400 416V495.1zM56 399.1c-15.68 0-29.82 6.516-40 16.93V64c0-26.47 21.53-48 48-48h352c8.836 0 16 7.164 16 16v352c0 8.824-7.178 16-16 16L56 399.1z"/></svg>