<svg xmlns="http://www.w3.org/2000/svg" viewBox="0 0 448 512"><!--! Font Awesome Pro 6.0.0-beta3 by @fontawesome - https://fontawesome.com License - https://fontawesome.com/license (Commercial License) Copyright 2021 Fonticons, Inc. --><path d="M282.2 269.7C275.6 271.3 269.6 272 264 272c-44.13 0-80-35.89-80-80s35.88-80 80-80c5.625 0 11.59 .7656 18.06 2.266c7.625 2.047 15.47-2 18.5-9.109c3.125-7.094 .7187-15.38-5.75-19.72C273.7 71.41 249.3 64 224 64C153.4 64 96 121.4 96 192s57.41 128 128 128c25.25 0 49.72-7.406 70.84-21.45c6.438-4.328 8.844-12.61 5.75-19.66C297.5 271.7 289.6 267.8 282.2 269.7zM224 304C162.3 304 112 253.8 112 192S162.3 80 224 80c22.09 0 43.5 6.484 61.91 18.73C278 96.89 270.9 96 264 96c-52.94 0-96 43.06-96 96s43.06 96 96 96c6.875 0 14.03-.8906 21.91-2.734C267.5 297.5 246.1 304 224 304zM333.1 162.5l-24.5-3.531l-10.75-21.56c-3.375-8.625-18.34-8-21.16-.625l-11.03 22.19l-24.5 3.531c-4.5 .6562-8.125 3.75-9.5 8.078c-1.344 4.297-.1562 8.875 3.031 11.86l17.62 17.27l-4.125 24.31c-.625 3.422 .3125 6.906 2.562 9.578c2.25 2.719 5.562 4.266 9.031 4.266l3.688-.4219L288 224.1l22.19 11.67l3.344 1.188h1.812c3.469 0 6.781-1.547 9.031-4.266c2.25-2.672 3.188-6.156 2.562-9.516l-4.125-24.38l17.5-17.16c3.312-3.094 4.5-7.672 3.156-11.97C342.1 166.2 338.5 163.1 333.1 162.5zM305.6 194.1l4.125 24.22L288 206.9l-21.75 11.42l4.125-24.22l-17.41-17.05l24.12-3.5L288 151.7l10.91 21.91l24.12 3.5L305.6 194.1zM384 0H32C14.33 0 0 14.33 0 32v352c0 17.67 14.33 32 32 32v79.98H8.006C3.584 495.1 0 499.6 0 503.1c0 4.418 3.584 8.004 8.006 8l383.1-.0078c30.93 0 55.1-25.07 55.1-56V64C448 28.65 419.3 0 384 0zM392 495.1H48V416l342.2-.0156c20.88 0 39.56 15.23 41.58 36.02C434.1 475.8 415.4 495.1 392 495.1zM432 416.9c-10.18-10.42-24.32-16.93-40-16.93L32 400c-8.822 0-16-7.176-16-16V32c0-8.836 7.164-16 16-16h352c26.47 0 48 21.53 48 48V416.9z"/></svg>