<svg xmlns="http://www.w3.org/2000/svg" viewBox="0 0 576 512"><!--! Font Awesome Pro 6.0.0-beta3 by @fontawesome - https://fontawesome.com License - https://fontawesome.com/license (Commercial License) Copyright 2021 Fonticons, Inc. --><path d="M63.1 336c0 13.23 10.77 24 24 24h32c13.23 0 24-10.77 24-24V296h40c13.23 0 24-10.77 24-24v-32c0-13.23-10.77-24-24-24H144V176c0-13.23-10.77-24-24-24h-32c-13.23 0-24 10.77-24 24L64 216H24C10.77 216 0 226.8 0 240v32C0 285.2 10.77 296 24 296H64L63.1 336zM24 280C19.59 280 16 276.4 16 272v-32c0-4.406 3.594-8 8-8H80V176c0-4.406 3.594-8 8-8h32c4.406 0 7.998 3.598 7.998 8.005L128 232h56c4.406 0 7.996 3.596 7.996 8.002v32C191.1 276.4 188.4 280 184 280H128L127.1 336c0 4.406-3.591 8-7.998 8h-32c-4.406 0-8-3.594-8-8V280H24zM574.6 445.3L461.8 29.55C456.9 11.74 440.6 0 422.8 0c-3.457 0-6.975 .4414-10.47 1.367l-62.39 16.5c-6.514 1.723-11.85 5.246-16.49 9.461C328.1 11.54 313.6 0 296 0h-64c-13.44 0-24.75 7.062-32 17.23C192.7 7.062 181.4 0 168 0h-64C81.91 0 64 17.91 64 40v80C64 124.4 67.58 128 72 128S80 124.4 80 120V112H192v72C192 188.4 195.6 192 200 192S208 188.4 208 184V112H320v288H208v-72C208 323.6 204.4 320 200 320S192 323.6 192 328v72H80v-8C80 387.6 76.42 384 72 384S64 387.6 64 392v80C64 494.1 81.91 512 104 512h64c13.44 0 24.75-7.062 32-17.23C207.3 504.9 218.6 512 232 512h64c22.09 0 40-17.91 40-40V120.5l98.23 361.9C439.1 500.3 455.4 512 473.2 512c3.457 0 6.973-.4414 10.47-1.367l62.39-16.5C567.6 488.4 580.4 466.6 574.6 445.3zM192 96H80V40c0-13.23 10.77-24 24-24h64C181.2 16 192 26.77 192 40L192 96zM192 472c0 13.23-10.77 24-24 24h-64c-13.23 0-24-10.77-24-24V416h112L192 472zM320 472c0 13.23-10.77 24-24 24h-64c-13.23 0-24-10.77-24-24V416H320V472zM320 96H208V40c0-13.23 10.77-24 24-24h64C309.2 16 320 26.77 320 40V96zM336.8 62.49c-1.643-6.059-.8145-12.4 2.336-17.86c3.236-5.605 8.514-9.617 14.86-11.3l62.39-16.5C418.5 16.28 420.7 16 422.8 16c11.02 0 20.69 7.297 23.53 17.74l14.6 53.8l-109.4 28.95L336.8 62.49zM430.9 409l-75.22-277.1l109.4-28.95l75.22 277.1L430.9 409zM556.8 467.4c-3.236 5.605-8.514 9.617-14.86 11.3l-62.39 16.5C477.5 495.7 475.3 496 473.2 496c-11.02 0-20.7-7.297-23.53-17.74l-14.6-53.8l109.4-28.95l14.65 53.99C560.8 455.6 559.1 461.9 556.8 467.4z"/></svg>