<svg xmlns="http://www.w3.org/2000/svg" viewBox="0 0 448 512"><!--! Font Awesome Pro 6.1.1 by @fontawesome - https://fontawesome.com License - https://fontawesome.com/license (Commercial License) Copyright 2022 Fonticons, Inc. --><path d="M448 384V32c0-17.67-14.33-32-32-32H64C28.65 0 0 28.65 0 64v391.1c0 30.93 25.07 56 55.1 56l383.1 .0078C444.4 511.1 448 508.4 448 503.1c0-4.422-3.584-8.008-8.006-8.008H416V416C433.7 416 448 401.7 448 384zM400 495.1H56c-23.38 0-42.12-20.14-39.81-43.98c2.02-20.78 20.7-36.02 41.58-36.02L400 416V495.1zM56 399.1c-15.68 0-29.82 6.516-40 16.93V64c0-26.47 21.53-48 48-48h352c8.836 0 16 7.164 16 16v352c0 8.824-7.178 16-16 16L56 399.1zM240 208c35.35 0 64-28.66 64-64s-28.65-64-64-64c-35.34 0-64 28.66-64 64S204.7 208 240 208zM240 96C266.5 96 288 117.5 288 144S266.5 192 240 192S192 170.5 192 144S213.5 96 240 96zM272 240h-64C163.9 240 128 275.9 128 320v8c0 4.422 3.578 8 8 8s8-3.578 8-8V320c0-35.3 28.7-64 64-64h64c35.3 0 64 28.7 64 64v8c0 4.422 3.578 8 8 8S352 332.4 352 328V320C352 275.9 316.1 240 272 240z"/></svg>