<svg xmlns="http://www.w3.org/2000/svg" viewBox="0 0 640 512"><!--! Font Awesome Pro 6.1.1 by @fontawesome - https://fontawesome.com License - https://fontawesome.com/license (Commercial License) Copyright 2022 Fonticons, Inc. --><path d="M440 272c-4.418 0-8 3.582-8 8v104c0 8.836-7.164 15.1-16 15.1L56 399.1c-15.68 0-29.82 6.516-40 16.93V64c0-26.51 21.49-48 48-48h352c8.836 0 16 7.162 16 16v104c0 4.418 3.582 8 8 8S448 140.4 448 136V32c0-17.67-14.33-32-32-32H64C28.66 0 0 28.65 0 64v391.1c0 30.93 25.07 56 56 56L439.1 512C444.4 512 448 508.4 448 504c0-4.422-3.586-8.008-8.008-8.008H416v-79.99c17.67 0 32-14.33 32-32V280C448 275.6 444.4 272 440 272zM400 495.1H56c-23.38 0-42.13-20.14-39.8-43.99c2.016-20.78 20.7-36.02 41.57-36.02L400 416V495.1zM637.7 202.9l-108-108C528.1 93.37 526.1 92.59 524 92.59s-4.094 .7813-5.656 2.344c-3.125 3.125-3.125 8.188 0 11.31l94.34 94.34H264c-4.406 0-8 3.578-8 8s3.594 8 8 8h348.7l-93.17 93.17c-3.125 3.125-3.125 8.188 0 11.31s8.188 3.125 11.31 0l106.8-106.8C640.8 211.1 640.8 206.1 637.7 202.9z"/></svg>