<svg xmlns="http://www.w3.org/2000/svg" viewBox="0 0 640 512"><!--! Font Awesome Pro 6.0.0-beta3 by @fontawesome - https://fontawesome.com License - https://fontawesome.com/license (Commercial License) Copyright 2021 Fonticons, Inc. --><path d="M576 160V72C576 32.3 543.7 0 504 0H136C96.3 0 64 32.3 64 72V160C28.65 160 0 188.7 0 224v224c0 35.35 28.65 64 64 64h512c35.35 0 64-28.65 64-64V224C640 188.7 611.3 160 576 160zM80 72c0-30.88 25.12-56 56-56h368c30.88 0 56 25.12 56 56V160h-480V72zM624 448c0 26.47-21.53 48-48 48H64c-26.47 0-48-21.53-48-48V224c0-26.47 21.53-48 48-48h512c26.47 0 48 21.53 48 48V448zM176 224C114.1 224 64 274.1 64 336S114.1 448 176 448S288 397.9 288 336S237.9 224 176 224zM176 432c-52.94 0-96-43.06-96-96s43.06-96 96-96s96 43.06 96 96S228.9 432 176 432zM464 224C402.1 224 352 274.1 352 336s50.14 112 112 112s112-50.14 112-112S525.9 224 464 224zM464 432c-52.94 0-96-43.06-96-96s43.06-96 96-96s96 43.06 96 96S516.9 432 464 432zM248 120h-48C195.6 120 192 123.6 192 128s3.578 8 8 8h48C252.4 136 256 132.4 256 128S252.4 120 248 120zM344 120h-48C291.6 120 288 123.6 288 128s3.578 8 8 8h48C348.4 136 352 132.4 352 128S348.4 120 344 120zM440 120h-48C387.6 120 384 123.6 384 128s3.578 8 8 8h48C444.4 136 448 132.4 448 128S444.4 120 440 120z"/></svg>