<svg xmlns="http://www.w3.org/2000/svg" viewBox="0 0 512 512"><!--! Font Awesome Pro 6.1.1 by @fontawesome - https://fontawesome.com License - https://fontawesome.com/license (Commercial License) Copyright 2022 Fonticons, Inc. --><path d="M488 496h-7.996v-48.45c0-24.24-13.7-46.4-35.38-57.24l-121.2-60.62c-21.68-10.84-35.38-33-35.38-57.24V32c0-17.67-14.33-32-32-32h-192C44.76 0 29.87 16.87 32.25 35.97l24.44 161.5c4.816 38.53 .9434 77.66-11.34 114.5c-8.838 26.52-13.35 54.29-13.35 82.24l-.002 37.79c0 .0039 0-.0039 0 0L32 488C32 501.2 42.78 512 56 512h80C149.2 512 160 501.2 160 488v-39.5l110.8 55.78C280.8 509.3 292 512 303.2 512H488c4.406 0 8-3.594 8-8S492.4 496 488 496zM144 488c0 4.406-3.594 8-8 8h-80c-4.406 0-8-3.594-8-8l.0039-48h89.53c2.281 0 4.5 .3125 6.469 .8438V488zM303.2 496c-8.688 0-17.41-2.062-25.16-6l-124.1-62.88C148.1 425.1 142.9 424 137.5 424H48v-29.8c0-26.28 4.215-52.24 12.53-77.18c12.95-38.86 17.12-80.89 11.98-121.1L48.13 33.98C47.55 29.37 48.93 24.9 52.01 21.41C55.09 17.92 59.35 16 64 16H128v232C128 252.4 131.6 256 136 256S144 252.4 144 248V16h112c8.822 0 16 7.178 16 16v240.4c0 30.5 16.95 57.92 44.22 71.55l121.2 60.62c16.37 8.184 26.53 24.63 26.53 42.93V496H303.2z"/></svg>