<svg xmlns="http://www.w3.org/2000/svg" viewBox="0 0 448 512"><!--! Font Awesome Pro 6.1.1 by @fontawesome - https://fontawesome.com License - https://fontawesome.com/license (Commercial License) Copyright 2022 Fonticons, Inc. --><path d="M448 424C448 454.9 422.9 480 392 480H24C19.58 480 16 476.4 16 472C16 467.6 19.58 464 24 464H392C414.1 464 432 446.1 432 424V56C432 51.58 435.6 48 440 48C444.4 48 448 51.58 448 56V424zM304 64C304 55.16 311.2 48 320 48C328.8 48 336 55.16 336 64C336 72.84 328.8 80 320 80C311.2 80 304 72.84 304 64zM112 64C112 55.16 119.2 48 128 48C136.8 48 144 55.16 144 64C144 72.84 136.8 80 128 80C119.2 80 112 72.84 112 64zM224 48C232.8 48 240 55.16 240 64C240 72.84 232.8 80 224 80C215.2 80 208 72.84 208 64C208 55.16 215.2 48 224 48zM16 64C16 55.16 23.16 48 32 48C40.84 48 48 55.16 48 64C48 72.84 40.84 80 32 80C23.16 80 16 72.84 16 64zM32 240C40.84 240 48 247.2 48 256C48 264.8 40.84 272 32 272C23.16 272 16 264.8 16 256C16 247.2 23.16 240 32 240zM16 160C16 151.2 23.16 144 32 144C40.84 144 48 151.2 48 160C48 168.8 40.84 176 32 176C23.16 176 16 168.8 16 160zM32 336C40.84 336 48 343.2 48 352C48 360.8 40.84 368 32 368C23.16 368 16 360.8 16 352C16 343.2 23.16 336 32 336z"/></svg>