<svg xmlns="http://www.w3.org/2000/svg" viewBox="0 0 448 512"><!--! Font Awesome Pro 6.1.1 by @fontawesome - https://fontawesome.com License - https://fontawesome.com/license (Commercial License) Copyright 2022 Fonticons, Inc. --><path d="M384 32C419.3 32 448 60.65 448 96V416C448 451.3 419.3 480 384 480H64C28.65 480 0 451.3 0 416V96C0 60.65 28.65 32 64 32H384zM384 48H224V240H432V96C432 69.49 410.5 48 384 48zM432 256H224V464H384C410.5 464 432 442.5 432 416V256zM208 240V48H64C37.49 48 16 69.49 16 96V240H208zM16 256V416C16 442.5 37.49 464 64 464H208V256H16z"/></svg>