<svg xmlns="http://www.w3.org/2000/svg" viewBox="0 0 448 512"><!--! Font Awesome Pro 6.0.0-beta3 by @fontawesome - https://fontawesome.com License - https://fontawesome.com/license (Commercial License) Copyright 2021 Fonticons, Inc. --><path d="M216 264H8C3.582 264 0 260.4 0 256C0 251.6 3.582 248 8 248H216V40C216 35.58 219.6 32 224 32C228.4 32 232 35.58 232 40V248H440C444.4 248 448 251.6 448 256C448 260.4 444.4 264 440 264H232V472C232 476.4 228.4 480 224 480C219.6 480 216 476.4 216 472V264zM16 448C16 439.2 23.16 432 32 432C40.84 432 48 439.2 48 448C48 456.8 40.84 464 32 464C23.16 464 16 456.8 16 448zM400 448C400 439.2 407.2 432 416 432C424.8 432 432 439.2 432 448C432 456.8 424.8 464 416 464C407.2 464 400 456.8 400 448zM16 352C16 343.2 23.16 336 32 336C40.84 336 48 343.2 48 352C48 360.8 40.84 368 32 368C23.16 368 16 360.8 16 352zM400 352C400 343.2 407.2 336 416 336C424.8 336 432 343.2 432 352C432 360.8 424.8 368 416 368C407.2 368 400 360.8 400 352zM432 160C432 168.8 424.8 176 416 176C407.2 176 400 168.8 400 160C400 151.2 407.2 144 416 144C424.8 144 432 151.2 432 160zM16 160C16 151.2 23.16 144 32 144C40.84 144 48 151.2 48 160C48 168.8 40.84 176 32 176C23.16 176 16 168.8 16 160zM432 64C432 72.84 424.8 80 416 80C407.2 80 400 72.84 400 64C400 55.16 407.2 48 416 48C424.8 48 432 55.16 432 64zM48 64C48 72.84 40.84 80 32 80C23.16 80 16 72.84 16 64C16 55.16 23.16 48 32 48C40.84 48 48 55.16 48 64zM336 64C336 72.84 328.8 80 320 80C311.2 80 304 72.84 304 64C304 55.16 311.2 48 320 48C328.8 48 336 55.16 336 64zM304 448C304 439.2 311.2 432 320 432C328.8 432 336 439.2 336 448C336 456.8 328.8 464 320 464C311.2 464 304 456.8 304 448zM144 64C144 72.84 136.8 80 128 80C119.2 80 112 72.84 112 64C112 55.16 119.2 48 128 48C136.8 48 144 55.16 144 64zM112 448C112 439.2 119.2 432 128 432C136.8 432 144 439.2 144 448C144 456.8 136.8 464 128 464C119.2 464 112 456.8 112 448z"/></svg>