<svg xmlns="http://www.w3.org/2000/svg" viewBox="0 0 448 512"><!--! Font Awesome Pro 6.0.0-beta3 by @fontawesome - https://fontawesome.com License - https://fontawesome.com/license (Commercial License) Copyright 2021 Fonticons, Inc. --><path d="M216 40C216 35.58 219.6 32 224 32C228.4 32 232 35.58 232 40V472C232 476.4 228.4 480 224 480C219.6 480 216 476.4 216 472V40zM48 448C48 456.8 40.84 464 32 464C23.16 464 16 456.8 16 448C16 439.2 23.16 432 32 432C40.84 432 48 439.2 48 448zM432 448C432 456.8 424.8 464 416 464C407.2 464 400 456.8 400 448C400 439.2 407.2 432 416 432C424.8 432 432 439.2 432 448zM48 352C48 360.8 40.84 368 32 368C23.16 368 16 360.8 16 352C16 343.2 23.16 336 32 336C40.84 336 48 343.2 48 352zM432 352C432 360.8 424.8 368 416 368C407.2 368 400 360.8 400 352C400 343.2 407.2 336 416 336C424.8 336 432 343.2 432 352zM416 144C424.8 144 432 151.2 432 160C432 168.8 424.8 176 416 176C407.2 176 400 168.8 400 160C400 151.2 407.2 144 416 144zM48 160C48 168.8 40.84 176 32 176C23.16 176 16 168.8 16 160C16 151.2 23.16 144 32 144C40.84 144 48 151.2 48 160zM416 240C424.8 240 432 247.2 432 256C432 264.8 424.8 272 416 272C407.2 272 400 264.8 400 256C400 247.2 407.2 240 416 240zM48 256C48 264.8 40.84 272 32 272C23.16 272 16 264.8 16 256C16 247.2 23.16 240 32 240C40.84 240 48 247.2 48 256zM416 48C424.8 48 432 55.16 432 64C432 72.84 424.8 80 416 80C407.2 80 400 72.84 400 64C400 55.16 407.2 48 416 48zM32 48C40.84 48 48 55.16 48 64C48 72.84 40.84 80 32 80C23.16 80 16 72.84 16 64C16 55.16 23.16 48 32 48zM320 240C328.8 240 336 247.2 336 256C336 264.8 328.8 272 320 272C311.2 272 304 264.8 304 256C304 247.2 311.2 240 320 240zM336 64C336 72.84 328.8 80 320 80C311.2 80 304 72.84 304 64C304 55.16 311.2 48 320 48C328.8 48 336 55.16 336 64zM320 432C328.8 432 336 439.2 336 448C336 456.8 328.8 464 320 464C311.2 464 304 456.8 304 448C304 439.2 311.2 432 320 432zM144 64C144 72.84 136.8 80 128 80C119.2 80 112 72.84 112 64C112 55.16 119.2 48 128 48C136.8 48 144 55.16 144 64zM128 432C136.8 432 144 439.2 144 448C144 456.8 136.8 464 128 464C119.2 464 112 456.8 112 448C112 439.2 119.2 432 128 432zM144 256C144 264.8 136.8 272 128 272C119.2 272 112 264.8 112 256C112 247.2 119.2 240 128 240C136.8 240 144 247.2 144 256z"/></svg>