<svg xmlns="http://www.w3.org/2000/svg" viewBox="0 0 448 512"><!--! Font Awesome Pro 6.0.0-beta3 by @fontawesome - https://fontawesome.com License - https://fontawesome.com/license (Commercial License) Copyright 2021 Fonticons, Inc. --><path d="M0 88C0 57.07 25.07 32 56 32H424C428.4 32 432 35.58 432 40C432 44.42 428.4 48 424 48H56C33.91 48 16 65.91 16 88V456C16 460.4 12.42 464 8 464C3.582 464 0 460.4 0 456V88zM144 448C144 456.8 136.8 464 128 464C119.2 464 112 456.8 112 448C112 439.2 119.2 432 128 432C136.8 432 144 439.2 144 448zM336 448C336 456.8 328.8 464 320 464C311.2 464 304 456.8 304 448C304 439.2 311.2 432 320 432C328.8 432 336 439.2 336 448zM224 464C215.2 464 208 456.8 208 448C208 439.2 215.2 432 224 432C232.8 432 240 439.2 240 448C240 456.8 232.8 464 224 464zM432 448C432 456.8 424.8 464 416 464C407.2 464 400 456.8 400 448C400 439.2 407.2 432 416 432C424.8 432 432 439.2 432 448zM416 272C407.2 272 400 264.8 400 256C400 247.2 407.2 240 416 240C424.8 240 432 247.2 432 256C432 264.8 424.8 272 416 272zM432 352C432 360.8 424.8 368 416 368C407.2 368 400 360.8 400 352C400 343.2 407.2 336 416 336C424.8 336 432 343.2 432 352zM416 176C407.2 176 400 168.8 400 160C400 151.2 407.2 144 416 144C424.8 144 432 151.2 432 160C432 168.8 424.8 176 416 176z"/></svg>