<svg xmlns="http://www.w3.org/2000/svg" viewBox="0 0 512 512"><!--! Font Awesome Pro 6.0.0-beta3 by @fontawesome - https://fontawesome.com License - https://fontawesome.com/license (Commercial License) Copyright 2021 Fonticons, Inc. --><path d="M168 96c0 11.12-2.562 20.31-7.656 27.31C157.8 126.9 158.5 131.9 162.1 134.5c1.406 1.031 3.062 1.531 4.688 1.531c2.469 0 4.906-1.141 6.469-3.297C180.4 122.9 184 110.6 184 96c0-14.59-3.594-26.94-10.72-36.72C170.7 55.7 165.7 54.91 162.1 57.52C158.5 60.11 157.8 65.11 160.3 68.69C165.4 75.67 168 84.86 168 96zM479.1 223.1H32c-17.62 0-32 14.39-32 32.19c0 95.69 51.5 179 127.1 223.8c0 17.67 14.33 32 32 32h191.1c17.67 0 32-14.33 32-32c76.5-44.81 127.1-128.1 127.1-223.8C511.1 238.4 497.6 223.1 479.1 223.1zM375.9 466.2C371 469.1 367.1 474.3 367.1 480c0 8.822-7.178 16-16 16H160c-8.822 0-16-7.178-16-16c0-5.682-3.012-10.94-7.912-13.81c-74.07-43.39-120.1-123.9-120.1-210c0-8.928 7.178-16.19 16-16.19h447.1c8.822 0 16 7.262 16 16.19C495.1 342.3 449.1 422.8 375.9 466.2zM127 192c54.79 0 82.87-28.29 92.67-64H480c17.69 0 32-14.33 32-32s-14.31-32-32-32H219.7c-9.793-35.71-37.88-64-92.67-64C56.88 0 0 44.45 0 96S56.88 192 127 192zM127 16c41.16 0 67.87 18.06 77.24 52.23L207.5 80H480c8.822 0 16 7.178 16 16S488.8 112 480 112H207.5L204.3 123.8C194.9 157.9 168.2 176 127 176C66.85 176 16 139.4 16 96C16 52.63 66.85 16 127 16z"/></svg>