<svg xmlns="http://www.w3.org/2000/svg" viewBox="0 0 512 512"><!--! Font Awesome Pro 6.0.0-beta3 by @fontawesome - https://fontawesome.com License - https://fontawesome.com/license (Commercial License) Copyright 2021 Fonticons, Inc. --><path d="M479.1 223.1H32c-17.62 0-31.1 14.56-31.1 32.19c0 94.75 51.51 176.9 128 221.3l-.0033 2.501C128 497.7 142.3 512 160 512h191.1c17.67 0 31.1-14.33 31.1-32l-.0033-2.501c76.5-44.38 128-126.6 128-221.3C511.1 238.6 497.6 223.1 479.1 223.1zM375.1 463.7c-4.934 2.861-7.971 8.135-7.971 13.84V480c0 8.822-7.178 16-16 16H160c-8.822 0-16-7.178-16-16v-2.5c0-5.705-3.037-10.98-7.971-13.84C62 420.7 16.01 341.1 16.01 256c0-8.822 7.178-16 16-16h447.1c8.822 0 16 7.178 16 16C495.1 341.1 449.1 420.7 375.1 463.7zM8.014 120c.5313 0 1.094-.0469 1.656-.1719l495.1-104c4.312-.9062 7.094-5.143 6.188-9.471c-.9375-4.297-4.969-7.158-9.498-6.188L6.359 104.2C2.047 105.1-.7344 109.3 .1719 113.7C.9844 117.4 4.297 120 8.014 120zM8.014 168c.1562 0 .3438 0 .5-.0156l495.1-32.01c4.436-.2813 7.779-4.096 7.467-8.502c-.2813-4.391-4.031-7.861-8.467-7.471L7.514 152c-4.436 .2813-7.779 4.096-7.467 8.502C.2969 164.7 3.828 168 8.014 168z"/></svg>