<svg xmlns="http://www.w3.org/2000/svg" viewBox="0 0 512 512"><!--! Font Awesome Pro 6.1.1 by @fontawesome - https://fontawesome.com License - https://fontawesome.com/license (Commercial License) Copyright 2022 Fonticons, Inc. --><path d="M143.9 136c-22.09 0-40 17.91-40 40s17.91 40 40 40s40-17.91 40-40S166 136 143.9 136zM143.1 200c-13.23 0-24-10.77-24-24s10.77-24 24-24c13.23 0 24 10.77 24 24S157.2 200 143.1 200zM239.9 168c-22.09 0-40 17.91-40 40s17.91 40 40 40s40-17.91 40-40S262 168 239.9 168zM239.1 232c-13.23 0-24-10.77-24-24s10.77-24 24-24c13.23 0 24 10.77 24 24S253.2 232 239.1 232zM239.9 72c-22.09 0-40 17.91-40 40s17.91 40 40 40s40-17.91 40-40S262 72 239.9 72zM239.1 136c-13.23 0-24-10.77-24-24s10.77-24 24-24c13.23 0 24 10.77 24 24S253.2 136 239.1 136zM256 0C114.6 0 0 114.6 0 256s114.6 256 256 256s256-114.6 256-256S397.4 0 256 0zM256 496c-132.3 0-240-107.7-240-240S123.7 16 256 16s240 107.7 240 240S388.3 496 256 496z"/></svg>