<svg xmlns="http://www.w3.org/2000/svg" viewBox="0 0 512 512"><!--! Font Awesome Pro 6.1.1 by @fontawesome - https://fontawesome.com License - https://fontawesome.com/license (Commercial License) Copyright 2022 Fonticons, Inc. --><path d="M282 0C347.2 0 400 52.83 400 118C400 130.3 397 141.8 391.7 152H404C445.1 152 480 186 480 228C480 269.1 445.1 304 404 304H108C66.03 304 32 269.1 32 228C32 186 66.03 152 108 152H116.7C113.7 144.6 112 136.5 112 128C112 92.65 140.7 64 176 64H249.3C261.8 64 272 53.84 272 41.3C272 36.81 270.7 32.43 268.2 28.7L257.3 12.44C255.7 9.983 255.6 6.827 256.9 4.225C258.3 1.624 261 0 264 0L282 0zM288 41.3C288 62.67 270.7 80 249.3 80H176C149.5 80 128 101.5 128 128C128 136.8 130.3 144.9 134.4 152H168C172.4 152 176 155.6 176 160C176 164.4 172.4 168 168 168H108C74.86 168 48 194.9 48 228C48 261.1 74.86 288 108 288H404C437.1 288 464 261.1 464 228C464 194.9 437.1 168 404 168H296C291.6 168 288 164.4 288 160C288 155.6 291.6 152 296 152H372.1C379.9 142.4 384 130.7 384 118C384 61.67 338.3 16 282 16H278.9L281.5 19.83C285.7 26.19 288 33.66 288 41.3V41.3zM64 352C64 396.2 99.82 432 144 432H200C202.8 432 205.3 433.4 206.8 435.8C208.3 438.2 208.4 441.1 207.2 443.6L180.9 496H331.1L304.8 443.6C303.6 441.1 303.7 438.2 305.2 435.8C306.7 433.4 309.2 432 312 432H368C412.2 432 448 396.2 448 352V336C448 331.6 451.6 328 456 328C460.4 328 464 331.6 464 336V352C464 405 421 448 368 448H324.9L351.2 500.4C352.4 502.9 352.3 505.8 350.8 508.2C349.3 510.6 346.8 512 344 512H167.1C165.2 512 162.7 510.6 161.2 508.2C159.7 505.8 159.6 502.9 160.8 500.4L187.1 448H144C90.98 448 48 405 48 352V336C48 331.6 51.58 328 56 328C60.42 328 64 331.6 64 336V352z"/></svg>