<svg xmlns="http://www.w3.org/2000/svg" viewBox="0 0 448 512"><!--! Font Awesome Pro 6.0.0-beta3 by @fontawesome - https://fontawesome.com License - https://fontawesome.com/license (Commercial License) Copyright 2021 Fonticons, Inc. --><path d="M342.4 32C367.7 32 390.6 46.9 400.9 70.01L442.5 163.6C446.1 171.8 448 180.6 448 189.6V416C448 451.3 419.3 480 384 480H64C28.65 480 0 451.3 0 416V189.6C0 180.6 1.879 171.8 5.516 163.6L47.11 70.01C57.38 46.89 80.3 32 105.6 32H342.4zM204.1 48L178 176H269.1L243 48H204.1zM160 192H16V416C16 442.5 37.49 464 64 464H384C410.5 464 432 442.5 432 416V192H288V272C288 289.7 273.7 304 256 304H192C174.3 304 160 289.7 160 272V192zM176 192V272C176 280.8 183.2 288 192 288H256C264.8 288 272 280.8 272 272V192H176zM430 176C429.4 173.1 428.7 172 427.9 170.1L386.3 76.51C378.6 59.17 361.4 48 342.4 48H259.4L286.3 176H430zM161.7 176L188.6 48H105.6C86.62 48 69.43 59.17 61.73 76.51L20.14 170.1C19.28 172 18.55 173.1 17.96 176H161.7z"/></svg>