<svg xmlns="http://www.w3.org/2000/svg" viewBox="0 0 640 512"><!--! Font Awesome Pro 6.0.0-beta3 by @fontawesome - https://fontawesome.com License - https://fontawesome.com/license (Commercial License) Copyright 2021 Fonticons, Inc. --><path d="M320 69.25L567.8 33.86C578.7 32.29 589.3 38.43 593.4 48.7L626.6 131.7C633.8 149.6 623.6 169.7 604.1 174.6L437.3 218.1C420.8 222.3 403.5 215.7 394 201.7L320 91.66L245.1 201.7C236.5 215.8 219.2 222.3 202.7 218.1L35.04 174.6C16.38 169.7 6.201 149.6 13.36 131.7L46.57 48.7C50.68 38.43 61.29 32.29 72.25 33.86L320 69.25zM28.22 137.7C24.64 146.6 29.73 156.7 39.06 159.1L206.7 202.6C216.6 205.1 226.1 201.2 232.7 192.7L306.2 83.45L69.98 49.7C66.33 49.18 62.79 51.22 61.42 54.65L28.22 137.7zM333.8 83.45L407.3 192.7C413 201.2 423.4 205.1 433.3 202.6L600.9 159.1C610.3 156.7 615.4 146.6 611.8 137.7L578.6 54.65C577.2 51.22 573.7 49.18 570 49.7L333.8 83.45zM560 216.1L576 211.6V378.5C576 400.5 561 419.7 539.6 425.1L331.6 477.1C323.1 479 316 479 308.4 477.1L100.4 425.1C78.99 419.7 63.1 400.5 63.1 378.5V211.6L79.1 216.1V378.5C79.1 393.2 89.99 406 104.2 409.6L311.1 461.5V199.1C311.1 195.6 315.6 191.1 319.1 191.1C324.4 191.1 328 195.6 328 199.1V461.5L535.8 409.6C550 406 560 393.2 560 378.5L560 216.1z"/></svg>