<svg xmlns="http://www.w3.org/2000/svg" viewBox="0 0 448 512"><!--! Font Awesome Pro 6.0.0-beta3 by @fontawesome - https://fontawesome.com License - https://fontawesome.com/license (Commercial License) Copyright 2021 Fonticons, Inc. --><path d="M224 256.1L232.6 247.5C256.3 223.8 294.6 223.8 318.2 247.5C341.9 271.1 341.9 309.4 318.2 333.1L240.1 410.3C231.6 419.7 216.4 419.7 207 410.3L129.8 333.1C106.1 309.4 106.1 271.1 129.8 247.5C153.4 223.8 191.7 223.8 215.4 247.5L224 256.1zM141.1 321.8L218.3 399C221.5 402.2 226.5 402.2 229.7 399L306.9 321.8C324.3 304.4 324.3 276.2 306.9 258.8C289.5 241.4 261.3 241.4 243.9 258.8L224 278.7L204.1 258.8C186.7 241.4 158.5 241.4 141.1 258.8C123.7 276.2 123.7 304.4 141.1 321.8V321.8zM442.5 163.6C446.1 171.8 448 180.6 448 189.6V416C448 451.3 419.3 480 384 480H64C28.65 480 0 451.3 0 416V189.6C0 180.6 1.879 171.8 5.516 163.6L47.11 70.01C57.38 46.89 80.3 32 105.6 32H342.4C367.7 32 390.6 46.9 400.9 70.01L442.5 163.6zM232 176H430C429.4 173.1 428.7 172 427.9 170.1L386.3 76.51C378.6 59.17 361.4 48 342.4 48H232V176zM16 416C16 442.5 37.49 464 64 464H384C410.5 464 432 442.5 432 416V192H16V416zM216 48H105.6C86.62 48 69.43 59.17 61.73 76.51L20.14 170.1C19.28 172 18.55 173.1 17.96 176H216V48z"/></svg>