<svg xmlns="http://www.w3.org/2000/svg" viewBox="0 0 512 512"><!--! Font Awesome Pro 6.1.1 by @fontawesome - https://fontawesome.com License - https://fontawesome.com/license (Commercial License) Copyright 2022 Fonticons, Inc. --><path d="M286.5 355.3c-2.594-3.594-7.625-4.406-11.16-1.859l-51.35 36.67l-51.35-36.67c-3.594-2.547-8.562-1.734-11.16 1.859c-2.562 3.594-1.75 8.594 1.844 11.17L210.2 400l-46.88 33.48c-3.594 2.578-4.406 7.578-1.844 11.17C163.1 446.8 165.5 448 168 448c1.625 0 3.25-.4844 4.656-1.484l51.35-36.67l51.35 36.67C276.8 447.5 278.4 448 280 448c2.5 0 4.938-1.172 6.5-3.344c2.562-3.594 1.75-8.594-1.844-11.17L237.8 400l46.88-33.48C288.3 363.9 289.1 358.9 286.5 355.3zM432 152.4L431.1 104c0-57.34-46.66-104-104-104H136C78.75 0 32.09 45.75 32 101.1V296c0 27.92 11.62 54.91 32 74.56V456c0 30.88 25.12 56 56 56h223.1c30.88 0 56-25.12 56-56v-68.69l56.16-56.17C465.8 321.5 496.8 291 495.1 224C495.1 187 467.1 156.5 432 152.4zM444.8 319.8l-60.84 60.84V456c0 22.06-17.94 40-40 40H120c-22.06 0-40-17.94-40-40v-92.47C58.22 344.1 48 321.7 48 296V102C48.09 54.58 87.56 16 136 16h191.1c48.5 0 88 39.48 88.03 88v48h-32c-24.81 0-46.46 12.83-59.41 32H188.9c-33.81 0-64.25-20.08-77.6-51.16c-1.719-4.078-6.469-5.906-10.5-4.203C96.78 130.4 94.91 135.1 96.66 139.2C112.5 176.1 148.7 200 188.9 200h127.5C313.7 207.5 312 215.5 312 224c0 39.7 32.31 72 72 72c4.406 0 8-3.578 8-8s-3.594-8-8-8c-30.88 0-56-25.12-56-56s25.12-56 56-56h40C454.9 168 479.1 193.1 479.1 224C480.7 284.6 454.2 310.5 444.8 319.8z"/></svg>