<svg xmlns="http://www.w3.org/2000/svg" viewBox="0 0 640 512"><!--! Font Awesome Pro 6.1.1 by @fontawesome - https://fontawesome.com License - https://fontawesome.com/license (Commercial License) Copyright 2022 Fonticons, Inc. --><path d="M48 96C48 87.16 55.16 80 64 80C72.84 80 80 87.16 80 96C80 104.8 72.84 112 64 112C55.16 112 48 104.8 48 96zM0 96C0 60.65 28.65 32 64 32C99.35 32 128 60.65 128 96C128 131.3 99.35 160 64 160C28.65 160 0 131.3 0 96zM64 144C90.51 144 112 122.5 112 96C112 69.49 90.51 48 64 48C37.49 48 16 69.49 16 96C16 122.5 37.49 144 64 144zM160 256C160 220.7 188.7 192 224 192C259.3 192 288 220.7 288 256C288 291.3 259.3 320 224 320C188.7 320 160 291.3 160 256zM224 304C250.5 304 272 282.5 272 256C272 229.5 250.5 208 224 208C197.5 208 176 229.5 176 256C176 282.5 197.5 304 224 304zM128 416C128 451.3 99.35 480 64 480C28.65 480 0 451.3 0 416C0 380.7 28.65 352 64 352C99.35 352 128 380.7 128 416zM64 368C37.49 368 16 389.5 16 416C16 442.5 37.49 464 64 464C90.51 464 112 442.5 112 416C112 389.5 90.51 368 64 368zM288 416C288 451.3 259.3 480 224 480C188.7 480 160 451.3 160 416C160 380.7 188.7 352 224 352C259.3 352 288 380.7 288 416zM224 368C197.5 368 176 389.5 176 416C176 442.5 197.5 464 224 464C250.5 464 272 442.5 272 416C272 389.5 250.5 368 224 368zM80 256C80 264.8 72.84 272 64 272C55.16 272 48 264.8 48 256C48 247.2 55.16 240 64 240C72.84 240 80 247.2 80 256zM128 256C128 291.3 99.35 320 64 320C28.65 320 0 291.3 0 256C0 220.7 28.65 192 64 192C99.35 192 128 220.7 128 256zM64 208C37.49 208 16 229.5 16 256C16 282.5 37.49 304 64 304C90.51 304 112 282.5 112 256C112 229.5 90.51 208 64 208zM240 96C240 104.8 232.8 112 224 112C215.2 112 208 104.8 208 96C208 87.16 215.2 80 224 80C232.8 80 240 87.16 240 96zM288 96C288 131.3 259.3 160 224 160C188.7 160 160 131.3 160 96C160 60.65 188.7 32 224 32C259.3 32 288 60.65 288 96zM224 48C197.5 48 176 69.49 176 96C176 122.5 197.5 144 224 144C250.5 144 272 122.5 272 96C272 69.49 250.5 48 224 48zM400 96C400 87.16 407.2 80 416 80C424.8 80 432 87.16 432 96C432 104.8 424.8 112 416 112C407.2 112 400 104.8 400 96zM352 96C352 60.65 380.7 32 416 32C451.3 32 480 60.65 480 96C480 131.3 451.3 160 416 160C380.7 160 352 131.3 352 96zM416 144C442.5 144 464 122.5 464 96C464 69.49 442.5 48 416 48C389.5 48 368 69.49 368 96C368 122.5 389.5 144 416 144zM640 96C640 131.3 611.3 160 576 160C540.7 160 512 131.3 512 96C512 60.65 540.7 32 576 32C611.3 32 640 60.65 640 96zM576 48C549.5 48 528 69.49 528 96C528 122.5 549.5 144 576 144C602.5 144 624 122.5 624 96C624 69.49 602.5 48 576 48zM512 256C512 220.7 540.7 192 576 192C611.3 192 640 220.7 640 256C640 291.3 611.3 320 576 320C540.7 320 512 291.3 512 256zM576 304C602.5 304 624 282.5 624 256C624 229.5 602.5 208 576 208C549.5 208 528 229.5 528 256C528 282.5 549.5 304 576 304zM640 416C640 451.3 611.3 480 576 480C540.7 480 512 451.3 512 416C512 380.7 540.7 352 576 352C611.3 352 640 380.7 640 416zM576 368C549.5 368 528 389.5 528 416C528 442.5 549.5 464 576 464C602.5 464 624 442.5 624 416C624 389.5 602.5 368 576 368zM352 256C352 220.7 380.7 192 416 192C451.3 192 480 220.7 480 256C480 291.3 451.3 320 416 320C380.7 320 352 291.3 352 256zM416 304C442.5 304 464 282.5 464 256C464 229.5 442.5 208 416 208C389.5 208 368 229.5 368 256C368 282.5 389.5 304 416 304zM480 416C480 451.3 451.3 480 416 480C380.7 480 352 451.3 352 416C352 380.7 380.7 352 416 352C451.3 352 480 380.7 480 416zM416 368C389.5 368 368 389.5 368 416C368 442.5 389.5 464 416 464C442.5 464 464 442.5 464 416C464 389.5 442.5 368 416 368z"/></svg>