<svg xmlns="http://www.w3.org/2000/svg" viewBox="0 0 640 512"><!--! Font Awesome Pro 6.0.0-beta3 by @fontawesome - https://fontawesome.com License - https://fontawesome.com/license (Commercial License) Copyright 2021 Fonticons, Inc. --><path d="M328 296C328 300.4 324.4 304 320 304C315.6 304 312 300.4 312 296V136C312 131.6 315.6 128 320 128C324.4 128 328 131.6 328 136V296zM304 352C304 343.2 311.2 336 320 336C328.8 336 336 343.2 336 352C336 360.8 328.8 368 320 368C311.2 368 304 360.8 304 352zM96 256C96 132.3 196.3 32 320 32C443.7 32 544 132.3 544 256C544 379.7 443.7 480 320 480C196.3 480 96 379.7 96 256zM320 464C434.9 464 528 370.9 528 256C528 141.1 434.9 48 320 48C205.1 48 112 141.1 112 256C112 370.9 205.1 464 320 464zM16 256C16 314.8 33.15 369.6 62.73 415.7C65.12 419.4 64.04 424.4 60.32 426.8C56.6 429.1 51.66 428.1 49.27 424.3C18.08 375.8 0 317.1 0 256C0 194 18.08 136.2 49.27 87.66C51.66 83.94 56.6 82.86 60.32 85.25C64.04 87.63 65.12 92.58 62.73 96.3C33.15 142.4 16 197.2 16 256zM640 256C640 317.1 621.9 375.8 590.7 424.3C588.3 428.1 583.4 429.1 579.7 426.8C575.1 424.4 574.9 419.4 577.3 415.7C606.8 369.6 624 314.8 624 256C624 197.2 606.8 142.4 577.3 96.3C574.9 92.58 575.1 87.63 579.7 85.25C583.4 82.86 588.3 83.94 590.7 87.66C621.9 136.2 640 194 640 256z"/></svg>