<svg xmlns="http://www.w3.org/2000/svg" viewBox="0 0 512 512"><!--! Font Awesome Pro 6.0.0-beta3 by @fontawesome - https://fontawesome.com License - https://fontawesome.com/license (Commercial License) Copyright 2021 Fonticons, Inc. --><path d="M512 176.1C511.6 183.9 509.8 190.6 506.7 196.8C503.5 203 499.2 208.5 493.8 212.9C488.5 217.3 482.3 220.6 475.6 222.5C468.1 224.4 461.1 224.9 455.1 224H448V448C448 456.5 444.6 464.6 438.6 470.6C432.6 476.6 424.5 480 416 480H96C87.51 480 79.37 476.6 73.37 470.6C67.37 464.6 64 456.5 64 448V224H56.9C50.03 224.9 43.04 224.4 36.38 222.5C29.71 220.6 23.51 217.3 18.17 212.9C12.83 208.5 8.457 203 5.33 196.8C2.203 190.6 .3885 183.9 0 176.1C0 112 96 32 256 32C416 32 512 112 512 176.1H512zM496 176.1C496 124.3 410.5 48 256 48C101.5 48 16 124.3 16 176.1C16 195.5 32.42 208 56.9 208H80V448C80 452.2 81.69 456.3 84.69 459.3C87.69 462.3 91.76 464 96 464H416C420.2 464 424.3 462.3 427.3 459.3C430.3 456.3 432 452.2 432 448V208H455.1C479.6 208 496 195.5 496 176.1zM329.6 259.7C337.1 267.2 341.3 277.4 341.3 288C341.3 298.6 337.1 308.8 329.6 316.3L284.3 361.6C276.8 369.1 266.6 373.3 256 373.3C245.4 373.3 235.2 369.1 227.7 361.6L182.4 316.3C174.9 308.8 170.7 298.6 170.7 288C170.7 277.4 174.9 267.2 182.4 259.7L227.7 214.4C235.2 206.9 245.4 202.7 256 202.7C266.6 202.7 276.8 206.9 284.3 214.4L329.6 259.7zM318.2 304.1C320.4 302.7 322.2 300.1 323.4 297.2C324.6 294.3 325.2 291.2 325.2 288C325.2 284.8 324.6 281.7 323.4 278.8C322.2 275.9 320.4 273.3 318.2 271L272.1 225.8C270.7 223.6 268.1 221.8 265.2 220.6C262.3 219.4 259.2 218.7 256 218.7C252.8 218.7 249.7 219.4 246.8 220.6C243.9 221.8 241.3 223.6 239 225.8L193.8 271C191.6 273.3 189.8 275.9 188.6 278.8C187.4 281.7 186.8 284.8 186.8 288C186.8 291.2 187.4 294.3 188.6 297.2C189.8 300.1 191.6 302.7 193.8 304.1L239 350.2C241.3 352.4 243.9 354.2 246.8 355.4C249.7 356.6 252.9 357.2 256 357.2C259.2 357.2 262.3 356.6 265.2 355.4C268.1 354.2 270.7 352.4 272.1 350.2L318.2 304.9V304.1z"/></svg>