<svg xmlns="http://www.w3.org/2000/svg" viewBox="0 0 640 512"><!--! Font Awesome Pro 6.1.1 by @fontawesome - https://fontawesome.com License - https://fontawesome.com/license (Commercial License) Copyright 2022 Fonticons, Inc. --><path d="M600 32C604.4 32 608 35.58 608 40C608 44.42 604.4 48 600 48H520V144H600C604.4 144 608 147.6 608 152C608 156.4 604.4 160 600 160H40C35.58 160 32 156.4 32 152C32 147.6 35.58 144 40 144H120V48H40C35.58 48 32 44.42 32 40C32 35.58 35.58 32 40 32H600zM504 48H392V144H504V48zM264 48V144H376V48H264zM248 48H136V144H248V48zM64 256C112.6 256 152 295.4 152 344V440C152 453.3 162.7 464 176 464H208C221.3 464 232 453.3 232 440V344C232 295.4 271.4 256 320 256C332.3 256 344 258.5 354.7 263.1C351.4 267.5 348.4 271.1 345.5 276.7C337.6 273.6 328.1 272 320 272C280.2 272 248 304.2 248 344V440C248 462.1 230.1 480 208 480H176C153.9 480 136 462.1 136 440V344C136 304.2 103.8 272 64 272H40C35.58 272 32 268.4 32 264C32 259.6 35.58 256 40 256L64 256zM565.7 322.3C568.8 325.5 568.8 330.5 565.7 333.7L485.7 413.7C482.5 416.8 477.5 416.8 474.3 413.7L426.3 365.7C423.2 362.5 423.2 357.5 426.3 354.3C429.5 351.2 434.5 351.2 437.7 354.3L480 396.7L554.3 322.3C557.5 319.2 562.5 319.2 565.7 322.3H565.7zM352 368C352 288.5 416.5 224 496 224C575.5 224 640 288.5 640 368C640 447.5 575.5 512 496 512C416.5 512 352 447.5 352 368zM496 496C566.7 496 624 438.7 624 368C624 297.3 566.7 240 496 240C425.3 240 368 297.3 368 368C368 438.7 425.3 496 496 496z"/></svg>