<svg xmlns="http://www.w3.org/2000/svg" viewBox="0 0 512 512"><!--! Font Awesome Pro 6.1.1 by @fontawesome - https://fontawesome.com License - https://fontawesome.com/license (Commercial License) Copyright 2022 Fonticons, Inc. --><path d="M248 8C248 3.582 251.6 0 256 0C260.4 0 264 3.582 264 8V104C264 108.4 260.4 112 256 112C251.6 112 248 108.4 248 104V8zM160 256C160 202.1 202.1 160 256 160C309 160 352 202.1 352 256C352 309 309 352 256 352C202.1 352 160 309 160 256zM256 336C300.2 336 336 300.2 336 256C336 211.8 300.2 176 256 176C211.8 176 176 211.8 176 256C176 300.2 211.8 336 256 336zM256 512C251.6 512 248 508.4 248 504V408C248 403.6 251.6 400 256 400C260.4 400 264 403.6 264 408V504C264 508.4 260.4 512 256 512zM0 256C0 251.6 3.582 248 8 248H104C108.4 248 112 251.6 112 256C112 260.4 108.4 264 104 264H8C3.582 264 0 260.4 0 256zM504 248C508.4 248 512 251.6 512 256C512 260.4 508.4 264 504 264H408C403.6 264 400 260.4 400 256C400 251.6 403.6 248 408 248H504zM74.98 437C71.86 433.9 71.86 428.8 74.98 425.7L142.9 357.8C145.1 354.7 151.1 354.7 154.2 357.8C157.3 360.9 157.3 366 154.2 369.1L86.29 437C83.17 440.1 78.1 440.1 74.98 437V437zM425.7 74.98C428.8 71.86 433.9 71.86 437 74.98C440.1 78.1 440.1 83.17 437 86.29L369.1 154.2C366 157.3 360.9 157.3 357.8 154.2C354.7 151.1 354.7 145.1 357.8 142.9L425.7 74.98zM74.98 74.98C78.1 71.86 83.17 71.86 86.29 74.98L154.2 142.9C157.3 145.1 157.3 151.1 154.2 154.2C151.1 157.3 145.1 157.3 142.9 154.2L74.98 86.29C71.86 83.17 71.86 78.1 74.98 74.98V74.98zM437 425.7C440.1 428.8 440.1 433.9 437 437C433.9 440.1 428.8 440.1 425.7 437L357.8 369.1C354.7 366 354.7 360.9 357.8 357.8C360.9 354.7 366 354.7 369.1 357.8L437 425.7z"/></svg>