<svg xmlns="http://www.w3.org/2000/svg" viewBox="0 0 512 512"><!--! Font Awesome Pro 6.0.0-beta3 by @fontawesome - https://fontawesome.com License - https://fontawesome.com/license (Commercial License) Copyright 2021 Fonticons, Inc. --><path d="M448 160h-56C387.6 160 384 163.6 384 168s3.582 8 8 8H448c26.51 0 48 21.49 48 48v224c0 26.51-21.49 48-48 48H224c-26.51 0-48-21.49-48-48v-56C176 387.6 172.4 384 168 384S160 387.6 160 392V448c0 35.35 28.65 64 64 64h224c35.35 0 64-28.65 64-64V224C512 188.7 483.3 160 448 160zM232 384C227.6 384 224 387.6 224 392v32C224 437.2 234.8 448 248 448h176c13.22 0 24-10.77 24-24v-176C448 234.8 437.2 224 424 224h-32C387.6 224 384 227.6 384 232s3.594 8 8 8h32c4.406 0 8 3.594 8 8v176c0 4.406-3.594 8-8 8h-176c-4.406 0-8-3.594-8-8v-32C240 387.6 236.4 384 232 384zM352 288V64c0-35.35-28.65-64-64-64H64C28.65 0 0 28.65 0 64v224c0 35.35 28.65 64 64 64h224C323.3 352 352 323.3 352 288zM16 288V64c0-26.47 21.53-48 48-48h224c26.47 0 48 21.53 48 48v224c0 26.47-21.53 48-48 48H64C37.53 336 16 314.5 16 288z"/></svg>