<svg xmlns="http://www.w3.org/2000/svg" viewBox="0 0 640 512"><!--! Font Awesome Pro 6.1.1 by @fontawesome - https://fontawesome.com License - https://fontawesome.com/license (Commercial License) Copyright 2022 Fonticons, Inc. --><path d="M329.9 340c-7.595 30.23-27.08 90.34-67.52 122.7c-48.55 38.68-205.8 33.91-244.1 31.99c1.622-9.029 4.524-24.4 8.642-42.9l90.79-107.7c4.118-4.905 4.43-11.68 .7488-16.9C113.1 322 107.5 319.9 101.6 322.2l-42.68 15.57c14.38-37.79 29.36-63.05 44.65-75.2c40.49-32.26 103.4-37.83 134.5-38.46c6.628-.1347 10.19-7.799 6.07-12.1c-1.54-1.945-3.847-3.081-6.326-3.04C204.7 208.6 138.2 214.5 93.6 250C73.82 265.7 55.13 298.9 38 348.5c-.9984 2.921-.2496 6.155 1.966 8.31c2.153 2.156 5.335 2.874 8.33 1.812l51.11-18.65l-86.83 103C11.76 443.1 11.17 445.1 10.89 446.4c-7.02 31.29-10.76 54.31-10.8 54.53c-.3432 2.234 .2496 4.499 1.654 6.264s3.463 2.843 5.71 2.999C10.39 510.4 36.29 512 71.36 512c65.14 0 161.9-5.655 200.1-36.8c44.55-35.61 65.17-99.12 73.15-131.3c.5987-2.408 .0137-4.913-1.529-6.856C339.8 331.8 331.5 333.6 329.9 340zM638.3 3.101c-2.714-3.515-7.738-4.124-11.2-1.406L380.3 193.9l-44.32-55.92c0-.0313 0 .0156 0 0c-3.994-4.936-9.906-7.357-16.49-6.733C313.2 132 307.8 135.9 305 141.8L281.3 193C280 195.7 280.4 198.1 282.3 201.3L363.8 304.1C365.3 306 367.6 307.1 370 307.1c.5616 0 1.123-.0625 1.654-.1718l55.13-11.75c6.24-1.281 11.26-5.608 13.45-11.59c2.184-6.014 1.154-12.61-2.839-17.67L390.3 206.4l246.7-192.1C640.4 11.61 641 6.585 638.3 3.101zM424.9 275.8c.6864 .8904 .5304 1.781 .3432 2.249c-.1872 .5311-.624 1.203-1.685 1.422l-50.36 10.73L297.9 195.3l21.59-46.71c.5304-1.062 1.435-1.328 1.934-1.39c.624-.1406 1.466 .0469 2.122 .8591L424.9 275.8z"/></svg>