<svg xmlns="http://www.w3.org/2000/svg" viewBox="0 0 576 512"><!--! Font Awesome Pro 6.0.0-beta3 by @fontawesome - https://fontawesome.com License - https://fontawesome.com/license (Commercial License) Copyright 2021 Fonticons, Inc. --><path d="M512 0C547.3 0 576 28.65 576 64V352C576 387.3 547.3 416 512 416H160C124.7 416 96 387.3 96 352V64C96 28.65 124.7 0 160 0H512zM512 16H200V96H560V64C560 37.49 538.5 16 512 16zM112 64V96H184V16H160C133.5 16 112 37.49 112 64zM160 400H512C538.5 400 560 378.5 560 352V112H112V352C112 378.5 133.5 400 160 400zM16 392C16 449.4 62.56 496 120 496H472C476.4 496 480 499.6 480 504C480 508.4 476.4 512 472 512H120C53.73 512 0 458.3 0 392V104C0 99.58 3.582 96 8 96C12.42 96 16 99.58 16 104V392z"/></svg>