<svg xmlns="http://www.w3.org/2000/svg" viewBox="0 0 384 512"><!--! Font Awesome Pro 6.0.0-beta3 by @fontawesome - https://fontawesome.com License - https://fontawesome.com/license (Commercial License) Copyright 2021 Fonticons, Inc. --><path d="M192 464c8.836 0 16-7.164 16-16c0-8.838-7.164-16-16-16S176 439.2 176 448C176 456.8 183.2 464 192 464zM352 0H32C14.33 0 0 14.33 0 32v256c0 44.18 35.82 80 80 80H128V448c0 35.35 28.65 64 64 64s64-28.65 64-64v-80h48c44.18 0 80-35.82 80-80V32C384 14.33 369.7 0 352 0zM368 288c0 35.29-28.71 64-64 64h-64v96c0 26.47-21.53 48-48 48S144 474.5 144 448v-96h-64c-35.29 0-64-28.71-64-64V256h352V288zM368 240h-352V32c0-8.822 7.178-16 16-16h56V128c0 4.422 3.594 8 8 8S104 132.4 104 128V16h80V64c0 4.422 3.594 8 8 8S200 68.42 200 64V16h80V96c0 4.422 3.594 8 8 8S296 100.4 296 96V16H352c8.822 0 16 7.178 16 16V240z"/></svg>