<svg xmlns="http://www.w3.org/2000/svg" viewBox="0 0 640 512"><!--! Font Awesome Pro 6.1.1 by @fontawesome - https://fontawesome.com License - https://fontawesome.com/license (Commercial License) Copyright 2022 Fonticons, Inc. --><path d="M636.1 497.7C640.4 500.5 641 505.5 638.3 508.1C635.5 512.4 630.5 513 627 510.3L3.022 14.26C-.4365 11.51-1.012 6.481 1.738 3.022C4.487-.4365 9.52-1.012 12.98 1.738L636.1 497.7zM418.2 425.3L430.9 435.3C402.2 462.1 363.1 480 320 480C270.6 480 226.3 457.6 196.1 422.3L109.7 509.7C106.5 512.8 101.5 512.8 98.34 509.7C95.22 506.5 95.22 501.5 98.34 498.3L186.3 410.3C186.7 410 186.1 409.7 187.3 409.5C170.1 383.9 160 353.2 160 320V296H72C67.58 296 64 292.4 64 288C64 283.6 67.58 280 72 280H160V264C160 250.9 162.4 238.4 166.8 226.8L180.1 237.3C177.4 245.7 176 254.7 176 264V320C176 396.8 236.2 459.6 312 463.8V341.4L328 354.1V463.8C362.8 461.9 394.3 447.6 418.2 425.3zM387.6 128H274.1L253.8 112H387.6C394.4 112 400 106.4 400 99.56V96C400 51.82 364.2 16 320 16C275.8 16 240 51.82 240 96V99.56C240 100.1 240 100.7 240.1 101.2L224.3 88.69C228 39.09 269.4 .0006 320 .0006C373 .0006 416 42.98 416 96V99.56C416 115.3 403.3 128 387.6 128H387.6zM443.7 185L530.3 98.34C533.5 95.22 538.5 95.22 541.7 98.34C544.8 101.5 544.8 106.5 541.7 109.7L454.1 196.3C470.6 214.5 480 238.2 480 264V280H568C572.4 280 576 283.6 576 288C576 292.4 572.4 296 568 296H486.9L464 277.1V264C464 215.4 424.6 176 376 176H334.9L314.6 160H376C401.8 160 425.5 169.4 443.7 185L443.7 185z"/></svg>