<svg xmlns="http://www.w3.org/2000/svg" viewBox="0 0 640 512"><!--! Font Awesome Pro 6.1.1 by @fontawesome - https://fontawesome.com License - https://fontawesome.com/license (Commercial License) Copyright 2022 Fonticons, Inc. --><path d="M16 48V464C16 481.7 30.33 496 48 496H144V416C144 389.5 165.5 368 192 368C218.5 368 240 389.5 240 416V496H322.8C324.4 501.7 326.9 507.1 329.9 512H48C21.49 512 0 490.5 0 464V48C0 21.49 21.49 0 48 0H336C362.5 0 384 21.49 384 48V367.8C378.4 370.9 373 374.5 368 378.4V48C368 30.33 353.7 16 336 16H48C30.33 16 16 30.33 16 48V48zM224 496V416C224 398.3 209.7 384 192 384C174.3 384 160 398.3 160 416V496H224zM136 232C149.3 232 160 242.7 160 256V288C160 301.3 149.3 312 136 312H104C90.75 312 80 301.3 80 288V256C80 242.7 90.75 232 104 232H136zM96 288C96 292.4 99.58 296 104 296H136C140.4 296 144 292.4 144 288V256C144 251.6 140.4 248 136 248H104C99.58 248 96 251.6 96 256V288zM224 256C224 242.7 234.7 232 248 232H280C293.3 232 304 242.7 304 256V288C304 301.3 293.3 312 280 312H248C234.7 312 224 301.3 224 288V256zM248 248C243.6 248 240 251.6 240 256V288C240 292.4 243.6 296 248 296H280C284.4 296 288 292.4 288 288V256C288 251.6 284.4 248 280 248H248zM136 104C149.3 104 160 114.7 160 128V160C160 173.3 149.3 184 136 184H104C90.75 184 80 173.3 80 160V128C80 114.7 90.75 104 104 104H136zM96 160C96 164.4 99.58 168 104 168H136C140.4 168 144 164.4 144 160V128C144 123.6 140.4 120 136 120H104C99.58 120 96 123.6 96 128V160zM224 128C224 114.7 234.7 104 248 104H280C293.3 104 304 114.7 304 128V160C304 173.3 293.3 184 280 184H248C234.7 184 224 173.3 224 160V128zM248 120C243.6 120 240 123.6 240 128V160C240 164.4 243.6 168 248 168H280C284.4 168 288 164.4 288 160V128C288 123.6 284.4 120 280 120H248zM416 272C416 227.8 451.8 192 496 192C540.2 192 576 227.8 576 272C576 316.2 540.2 352 496 352C451.8 352 416 316.2 416 272zM496 208C460.7 208 432 236.7 432 272C432 307.3 460.7 336 496 336C531.3 336 560 307.3 560 272C560 236.7 531.3 208 496 208zM546.9 384C598.3 384 640 425.7 640 477.1C640 496.4 624.4 512 605.1 512H386.9C367.6 512 352 496.4 352 477.1C352 425.7 393.7 384 445.1 384H546.9zM386.9 496H605.1C615.5 496 624 487.5 624 477.1C624 434.5 589.5 400 546.9 400H445.1C402.5 400 368 434.5 368 477.1C368 487.5 376.5 496 386.9 496V496z"/></svg>