<svg xmlns="http://www.w3.org/2000/svg" viewBox="0 0 384 512"><!--! Font Awesome Pro 6.1.1 by @fontawesome - https://fontawesome.com License - https://fontawesome.com/license (Commercial License) Copyright 2022 Fonticons, Inc. --><path d="M136 232C149.3 232 160 242.7 160 256V288C160 301.3 149.3 312 136 312H104C90.75 312 80 301.3 80 288V256C80 242.7 90.75 232 104 232H136zM96 288C96 292.4 99.58 296 104 296H136C140.4 296 144 292.4 144 288V256C144 251.6 140.4 248 136 248H104C99.58 248 96 251.6 96 256V288zM224 256C224 242.7 234.7 232 248 232H280C293.3 232 304 242.7 304 256V288C304 301.3 293.3 312 280 312H248C234.7 312 224 301.3 224 288V256zM248 248C243.6 248 240 251.6 240 256V288C240 292.4 243.6 296 248 296H280C284.4 296 288 292.4 288 288V256C288 251.6 284.4 248 280 248H248zM216 56C220.4 56 224 59.58 224 64C224 68.42 220.4 72 216 72H176V152H208V128C208 123.6 211.6 120 216 120C220.4 120 224 123.6 224 128V152C224 160.8 216.8 168 208 168H176C167.2 168 160 160.8 160 152V72C160 63.16 167.2 56 176 56H216zM256 96C256 73.91 273.9 56 296 56C318.1 56 336 73.91 336 96V128C336 150.1 318.1 168 296 168C273.9 168 256 150.1 256 128V96zM296 72C282.7 72 272 82.75 272 96V128C272 141.3 282.7 152 296 152C309.3 152 320 141.3 320 128V96C320 82.75 309.3 72 296 72zM112 133.6V64C112 59.58 115.6 56 120 56C124.4 56 128 59.58 128 64V160C128 163.5 125.7 166.6 122.3 167.7C118.9 168.7 115.3 167.4 113.3 164.4L64 90.42V160C64 164.4 60.42 168 56 168C51.58 168 48 164.4 48 160V64C48 60.47 50.31 57.36 53.68 56.34C57.06 55.32 60.7 56.63 62.66 59.56L112 133.6zM48 512C21.49 512 0 490.5 0 464V48C0 21.49 21.49 0 48 0H336C362.5 0 384 21.49 384 48V464C384 490.5 362.5 512 336 512H48zM16 48V464C16 481.7 30.33 496 48 496H144V416C144 389.5 165.5 368 192 368C218.5 368 240 389.5 240 416V496H336C353.7 496 368 481.7 368 464V48C368 30.33 353.7 16 336 16H48C30.33 16 16 30.33 16 48zM224 496V416C224 398.3 209.7 384 192 384C174.3 384 160 398.3 160 416V496H224z"/></svg>