<svg xmlns="http://www.w3.org/2000/svg" viewBox="0 0 512 512"><!--! Font Awesome Pro 6.0.0-beta3 by @fontawesome - https://fontawesome.com License - https://fontawesome.com/license (Commercial License) Copyright 2021 Fonticons, Inc. --><path d="M328 256C328 295.8 295.8 328 256 328C216.2 328 184 295.8 184 256C184 216.2 216.2 184 256 184C295.8 184 328 216.2 328 256zM256 200C225.1 200 200 225.1 200 256C200 286.9 225.1 312 256 312C286.9 312 312 286.9 312 256C312 225.1 286.9 200 256 200zM88 256C88 163.2 163.2 88 256 88C348.8 88 424 163.2 424 256C424 348.8 348.8 424 256 424C163.2 424 88 348.8 88 256zM256 408C339.9 408 408 339.9 408 256C408 172.1 339.9 104 256 104C172.1 104 104 172.1 104 256C104 339.9 172.1 408 256 408zM0 256C0 114.6 114.6 0 256 0C397.4 0 512 114.6 512 256C512 397.4 397.4 512 256 512C114.6 512 0 397.4 0 256zM256 496C388.5 496 496 388.5 496 256C496 123.5 388.5 16 256 16C123.5 16 16 123.5 16 256C16 388.5 123.5 496 256 496z"/></svg>