<svg xmlns="http://www.w3.org/2000/svg" viewBox="0 0 640 512"><!--! Font Awesome Pro 6.0.0-beta3 by @fontawesome - https://fontawesome.com License - https://fontawesome.com/license (Commercial License) Copyright 2021 Fonticons, Inc. --><path d="M263 62.97C262.6 63.96 261.9 64.85 261.1 65.57C260.3 66.3 259.3 66.85 258.3 67.2C257.3 67.55 256.2 67.68 255.1 67.59C254 67.51 252.1 67.2 251.1 66.69C251 66.18 250.2 65.48 249.5 64.63C248.8 63.78 248.3 62.8 248 61.75C247.7 60.71 247.7 59.61 247.8 58.53C247.1 57.45 248.3 56.42 248.9 55.49C250.3 52.61 252.2 50.05 254.6 47.95C256.1 45.85 259.8 44.27 262.8 43.29L297 33.09C300.9 31.91 305.1 31.75 309.1 32.63C313.1 33.51 316.8 35.39 319.8 38.1C322.9 40.82 325.2 44.27 326.6 48.13C327.9 51.99 328.3 56.13 327.6 60.16L305.4 181.3C305.2 182.4 304.8 183.4 304.1 184.3C303.5 185.2 302.7 185.1 301.8 186.6C300.5 187.4 298.1 187.9 297.4 187.9C295.9 187.9 294.3 187.5 293 186.6C291.7 185.8 290.7 184.6 290 183.1C289.4 181.7 289.2 180.1 289.5 178.6L311.9 57.31C312.1 55.97 311.1 54.6 311.5 53.32C311 52.05 310.3 50.91 309.2 50.02C308.2 49.13 306.1 48.51 305.7 48.22C304.3 47.94 302.1 47.99 301.7 48.38L267.4 58.65C266.8 58.81 264.1 59.36 263 62.97L263 62.97zM56.38 50.14C55.56 45.73 55.98 41.18 57.6 36.99C59.23 32.81 61.99 29.16 65.57 26.46L94.05 4.862C97.32 2.409 101.2 .83 105.2 .2748C109.3-.2801 113.4 .2069 117.2 1.69C121 3.173 124.4 5.604 126.1 8.751C129.6 11.9 131.3 15.66 132.1 19.68L136 39.65C136.2 40.68 136.2 41.74 135.1 42.77C135.8 43.8 135.3 44.78 134.7 45.65C134.1 46.51 133.4 47.26 132.5 47.83C131.6 48.4 130.6 48.8 129.6 48.99C127.5 49.35 125.4 48.88 123.6 47.68C121.9 46.49 120.7 44.66 120.3 42.59L116.5 22.59C116.3 21.23 115.7 19.95 114.9 18.87C113.1 17.8 112.8 16.97 111.6 16.47C110.3 15.96 108.9 15.8 107.5 15.99C106.1 16.18 104.8 16.73 103.7 17.57L75.3 39.23C74.07 40.11 73.12 41.32 72.56 42.72C71.99 44.12 71.83 45.65 72.1 47.13L109.1 236.3C109.3 237.4 109.3 238.4 109 239.5C108.8 240.5 108.4 241.5 107.8 242.3C107.2 243.2 106.5 243.1 105.6 244.5C104.7 245.1 103.7 245.5 102.7 245.7C102.1 245.7 101.6 245.7 101.1 245.7C99.25 245.7 97.46 245 96.03 243.9C94.61 242.7 93.62 241.1 93.25 239.3L56.38 50.14zM239.2 505.1C238.1 506.4 238.5 507.6 237.8 508.6C237.1 509.7 236.1 510.5 234.1 511.1C233.8 511.7 232.6 512 231.3 511.1H85.73C78.44 512 71.37 509.6 65.67 505C59.97 500.5 55.1 494.1 54.4 487L.3854 243.5C-.1372 241.1-.1273 238.7 .4142 236.4C.9559 234 2.015 231.9 3.515 229.1C5.014 228.1 6.914 226.6 9.076 225.6C11.24 224.5 13.6 223.1 16 223.1H49.99C53.39 223.8 56.75 224.8 59.52 226.8C62.29 228.8 64.31 231.7 65.25 234.1C73.89 273.1 127.4 303.1 192 303.1C202.4 303.1 212.8 303.1 223.1 301.4C224.3 301.2 225.4 301.3 226.5 301.6C227.6 301.1 228.6 302.6 229.5 303.3C230.3 304.1 231 305 231.5 306.1C231.9 307.1 232.1 308.3 232.1 309.4C232.1 311.3 231.4 313 230.3 314.4C229.1 315.8 227.5 316.7 225.7 317.1C214.6 318.1 203.3 319.9 192 319.1C120.8 319.1 61.47 286.5 50.05 239.1H16L70.08 483.5C70.87 487 72.85 490.2 75.7 492.5C78.54 494.8 82.08 496 85.73 495.1H231.2C232.9 496 234.5 496.6 235.8 497.5C237.1 498.5 238.2 499.8 238.7 501.3C239.2 502.5 239.3 503.8 239.2 505.1zM.5451 115.2C-.4818 109.8-.0937 104.2 1.672 98.98C3.438 93.76 6.522 89.08 10.63 85.41C14.44 82.01 19.04 79.61 24.01 78.41C28.97 77.21 34.16 77.25 39.1 78.53C40.17 78.72 41.18 79.14 42.08 79.74C42.98 80.34 43.75 81.12 44.34 82.03C44.94 82.93 45.34 83.95 45.52 85.02C45.71 86.09 45.67 87.18 45.42 88.23C45.18 89.29 44.71 90.28 44.07 91.15C43.43 92.02 42.61 92.75 41.68 93.3C40.74 93.84 39.71 94.2 38.63 94.33C37.56 94.46 36.47 94.38 35.43 94.08C32.99 93.43 30.43 93.39 27.98 93.95C25.52 94.5 23.23 95.65 21.31 97.28C19.29 99.1 17.76 101.4 16.87 103.1C15.99 106.6 15.78 109.3 16.26 111.1L32 190.5C32.22 191.5 32.23 192.6 32.03 193.6C31.82 194.7 31.41 195.7 30.81 196.6C30.21 197.5 29.43 198.2 28.53 198.8C27.63 199.4 26.63 199.8 25.57 199.1C25.04 200 24.5 200 23.97 199.1C22.13 199.1 20.35 199.3 18.92 198.2C17.5 196.1 16.52 195.4 16.16 193.6L.5451 115.2zM154.4 274.4C152.9 272.9 152 270.9 152 268.8V23.1C152 19.89 153.1 15.85 155.1 12.26C157.1 8.679 159.1 5.668 163.5 3.518C166.9 1.381 170.9 .1736 174.1 .0111C179-.1515 183.1 .7368 186.7 2.59L218.7 18.59C222.7 20.57 226 23.62 228.3 27.41C230.7 31.19 231.9 35.55 231.9 39.1V268.8C231.9 270.9 231 272.1 229.5 274.5C228 275.1 225.1 276.8 223.9 276.8C221.8 276.8 219.7 275.1 218.2 274.5C216.7 272.1 215.9 270.9 215.9 268.8V39.93C215.9 38.47 215.5 37.03 214.7 35.79C213.9 34.54 212.8 33.54 211.5 32.89L179.5 16.89C178.3 16.27 176.1 15.97 175.6 16.01C174.3 16.06 172.1 16.45 171.8 17.15C170.7 17.86 169.7 18.87 169 20.07C168.3 21.27 167.1 22.62 168 23.1V268.8C167.1 270.9 167.1 272.9 165.6 274.4C164.2 275.9 162.1 276.8 160 276.8C157.9 276.8 155.9 275.9 154.4 274.4zM343.7 95.4C341.1 94.17 340.8 92.32 340.4 90.24C340.1 88.14 340.6 86 341.8 84.28C343.1 82.56 344.9 81.4 347 81.05C351.7 80.17 356.5 80.36 361 81.62C365.6 82.87 369.8 85.15 373.3 88.29C377.4 91.88 380.5 96.47 382.3 101.6C384.1 106.7 384.5 112.3 383.5 117.6L377.1 149.1C376.7 150.5 376 151.8 375 152.9C374 153.9 372.7 154.7 371.3 155.1C370 155.5 368.6 155.5 367.3 155.2C365.1 154.9 364.8 154.3 363.8 153.4C362.7 152.5 362 151.3 361.6 149.1C361.2 148.7 361.1 147.3 361.4 145.1L367.8 114.6C368.2 112.1 368.1 109.6 367.3 107.2C366.6 104.8 365.2 102.6 363.4 100.9C361.6 99.13 359.4 97.85 357 97.15C354.6 96.45 352.1 96.35 349.6 96.86C347.5 97.16 345.4 96.64 343.7 95.4zM359.4 287.1C357.9 286.5 356.6 285.6 355.5 284.5C354.4 283.4 353.5 282.1 352.9 280.6C352.3 279.1 351.1 277.6 352 275.1C352 273.6 352.7 271.3 354 269.3C355.3 267.4 357.2 265.8 359.4 264.9C361.6 264 364 263.8 366.3 264.2C368.7 264.7 370.8 265.8 372.5 267.5C374.2 269.2 375.3 271.3 375.8 273.7C376.2 275.1 375.1 278.4 375.1 280.6C374.2 282.8 372.6 284.7 370.7 285.1C368.7 287.3 366.4 287.1 364 287.1C362.4 288 360.9 287.7 359.4 287.1zM633.6 360.1C637.8 367.4 639.1 375.6 639.1 383.1C639.1 392.4 637.8 400.6 633.6 407.9C629.4 415.2 623.3 421.2 616 425.3V467.1C615.1 479.7 611.3 490.8 603.1 499.1C594.8 507.3 583.7 511.1 572 511.1H324C312.3 511.1 301.2 507.3 292.9 499.1C284.7 490.8 280 479.7 280 467.1V425.3C272.7 421.2 266.7 415.2 262.4 407.9C258.2 400.6 256 392.4 256 383.1C256 375.6 258.2 367.4 262.4 360.1C266.7 352.8 272.7 346.8 280 342.7V303.1C280.2 292.6 282.8 281.3 287.5 270.9C292.1 260.5 298.8 251.2 307.2 243.4C346.1 209.6 396.1 191.3 447.6 191.1C447.9 191.1 448.1 191.1 448.4 191.1C499.9 191.3 549.9 209.6 588.8 243.4C597.2 251.2 603.9 260.5 608.6 270.9C613.2 281.3 615.8 292.6 616 303.1V342.7C623.3 346.8 629.4 352.8 633.6 360.1zM295.9 336.8C298.5 336.3 301.2 336 303.9 335.1H591.9C594.6 336 597.2 336.3 599.9 336.8V303.1C599.7 294.7 597.6 285.5 593.7 277.1C589.9 268.6 584.4 260.1 577.5 254.7C541.6 223.9 495.7 207.2 448.4 207.1C448.1 208 447.9 208 447.7 207.1C400.3 207.2 354.3 223.8 318.4 254.7C311.5 260.1 305.1 268.6 302.1 277.1C298.3 285.5 296.2 294.7 296 303.1L295.9 336.8zM600 431.2C597.4 431.7 594.7 431.1 592 431.1H304C301.3 431.1 298.6 431.7 296 431.2V467.1C296 475.4 298.1 482.5 304.2 487.8C309.5 493 316.6 495.1 324 495.1H572C579.4 495.1 586.5 493 591.8 487.8C597 482.5 599.1 475.4 600 467.1V431.2zM614.6 406.6C620.6 400.6 624 392.5 624 383.1C624 375.5 620.6 367.4 614.6 361.4C608.6 355.4 600.5 351.1 592 351.1H304C295.5 351.1 287.4 355.4 281.4 361.4C275.4 367.4 272 375.5 272 383.1C272 392.5 275.4 400.6 281.4 406.6C287.4 412.6 295.5 415.1 304 415.1H592C600.5 415.1 608.6 412.6 614.6 406.6zM443.4 267.1C441.9 266.5 440.6 265.6 439.5 264.5C438.4 263.4 437.5 262.1 436.9 260.6C436.3 259.1 435.1 257.6 436 255.1C436 253.6 436.7 251.3 438 249.3C439.3 247.4 441.2 245.8 443.4 244.9C445.6 244 448 243.8 450.3 244.2C452.7 244.7 454.8 245.8 456.5 247.5C458.2 249.2 459.3 251.3 459.8 253.7C460.2 255.1 459.1 258.4 459.1 260.6C458.2 262.8 456.6 264.7 454.7 265.1C452.7 267.3 450.4 267.1 448 267.1C446.4 268 444.9 267.7 443.4 267.1V267.1zM527.4 287.1C525.9 286.5 524.6 285.6 523.5 284.5C522.4 283.4 521.5 282.1 520.9 280.6C520.3 279.1 519.1 277.6 520 275.1C520 273.6 520.7 271.3 522 269.3C523.3 267.4 525.2 265.8 527.4 264.9C529.6 264 532 263.8 534.3 264.2C536.7 264.7 538.8 265.8 540.5 267.5C542.2 269.2 543.3 271.3 543.8 273.7C544.2 275.1 543.1 278.4 543.1 280.6C542.2 282.8 540.6 284.7 538.7 285.1C536.7 287.3 534.4 287.1 532 287.1C530.4 288 528.9 287.7 527.4 287.1H527.4z"/></svg>