<svg xmlns="http://www.w3.org/2000/svg" viewBox="0 0 512 512"><!--! Font Awesome Pro 6.1.1 by @fontawesome - https://fontawesome.com License - https://fontawesome.com/license (Commercial License) Copyright 2022 Fonticons, Inc. --><path d="M505.2 153.9c4.5-9.625 6.75-20.25 6.75-30.88c0-32.5-21.25-61.13-52.25-70.76c-6.25-20.38-21.05-37-40.55-45.75c-9.645-4.328-19.93-6.468-30.24-6.468c-10.54 0-21.09 2.233-30.88 6.718C347.5 2.165 336.6 0 325.8 0c-31.02-.002-60.52 18.06-73.7 48.3L33.94 266.6c-45.25 45.25-45.25 118.8 0 164l47.5 47.5C104.1 500.7 133.8 512 163.4 512c29.69 0 59.29-11.31 81.92-33.94l218.3-218.1C504.5 242.2 523.1 194.7 505.2 153.9zM45.26 277.9l213.6-213.8c27.9 32.26 45.11 74.01 45.11 119.9c0 101.5-82.54 184-184 184c-38.2 0-73.34-12.21-102.8-32.23C19.96 314.6 29.02 294.1 45.26 277.9zM234.1 466.7c-18.86 18.86-43.97 29.25-70.69 29.25c-26.72 0-51.82-10.39-70.69-29.25l-47.5-47.5c-18.02-18.02-27.32-41.28-28.68-64.92c30.25 18.47 65.39 29.69 103.4 29.69c95.79 0 175.8-67.39 195.3-157.3c9.377-1.514 18.88-2.69 28.68-2.69c37.7 0 72.68 11.56 101.9 31.09L234.1 466.7zM491.5 209.7c-6.133 15.66-17.92 27.98-33.17 34.95c-32.47-22.8-71.67-36.66-114.4-36.66c-8.809 0-17.39 .8907-25.89 2.027c1.113-8.539 1.885-17.18 1.885-26.03c0-51.14-19.45-97.56-51.04-132.9c11.01-21.28 32.63-35.1 56.84-35.1c8.905 0 17.59 1.832 25.83 5.446c2.049 .8985 4.238 1.348 6.426 1.348c2.275 0 4.549-.4844 6.664-1.453c7.651-3.504 15.79-5.281 24.19-5.281c8.227 0 16.21 1.709 23.73 5.082c15.3 6.865 26.87 19.93 31.75 35.85c1.551 5.057 5.502 9.02 10.55 10.59c24.52 7.614 40.1 29.91 40.1 55.47c0 8.428-1.813 16.76-5.244 24.1c-1.951 4.172-2.008 8.985-.1583 13.2C497.5 176.1 497.8 193.7 491.5 209.7zM316.1 61.24c-3.844 2.188-5.188 7.063-3 10.91c2.156 3.844 7.063 5.172 10.91 3c9.407-5.391 21.31-3.735 28.99 3.922c8.625 8.641 9.469 22.38 1.922 31.97c-2.719 3.469-2.125 8.5 1.359 11.23c1.453 1.141 3.203 1.703 4.938 1.703c2.359 0 4.719-1.047 6.297-3.063c12.53-15.95 11.16-38.8-3.203-53.16C351.5 55.03 331.7 52.36 316.1 61.24zM404.1 101.2c-3.844 2.188-5.188 7.063-3 10.91c2.156 3.844 7.032 5.172 10.91 3c9.391-5.391 21.33-3.703 28.99 3.922c8.625 8.641 9.469 22.38 1.922 31.97c-2.719 3.469-2.125 8.5 1.359 11.23c1.453 1.141 3.203 1.703 4.938 1.703c2.359 0 4.719-1.047 6.297-3.063c12.53-15.95 11.16-38.8-3.203-53.16C439.5 95.03 419.7 92.36 404.1 101.2z"/></svg>