<svg xmlns="http://www.w3.org/2000/svg" viewBox="0 0 512 512"><!--! Font Awesome Pro 6.1.1 by @fontawesome - https://fontawesome.com License - https://fontawesome.com/license (Commercial License) Copyright 2022 Fonticons, Inc. --><path d="M256 8C262.9 8 269.1 12.47 271.2 19.07L308.3 133.5L386.5 104.1C392.4 102.8 398.9 104.3 403.3 108.7C407.7 113.1 409.2 119.6 407 125.5L378.5 203.7L492.9 240.8C499.5 242.9 504 249.1 504 256C504 262.9 499.5 269.1 492.9 271.2L380.8 307.5L438.2 416.6C441.4 422.8 440.3 430.4 435.3 435.3C430.4 440.3 422.8 441.4 416.6 438.2L307.5 380.8L271.2 492.9C269.1 499.5 262.9 504 256 504C249.1 504 242.9 499.5 240.8 492.9L204.5 380.8L95.45 438.2C89.25 441.4 81.64 440.3 76.69 435.3C71.73 430.4 70.58 422.8 73.84 416.6L131.2 307.5L19.07 271.2C12.47 269.1 8 262.9 8 256C8 249.1 12.47 242.9 19.07 240.8L128.9 205.2L10.81 33.05C6.447 26.69 7.238 18.14 12.69 12.69C18.14 7.238 26.69 6.447 33.05 10.8L205.2 128.9L240.8 19.07C242.9 12.47 249.1 8 256 8H256zM256 24L220.4 133.8C217.1 143.1 204.1 148.1 196.2 142.1L24 24L142.1 196.2C148.1 204.1 143.1 217.1 133.8 220.4L24 256L136.1 292.3C145.6 295.4 149.1 306.2 145.3 314.1L88 424L197 366.7C205.8 362 216.6 366.5 219.7 375.9L256 488L292.3 375.9C295.4 366.5 306.2 362 314.1 366.7L424 424L366.7 314.1C362 306.2 366.5 295.4 375.9 292.3L488 256L373.6 218.9C364.1 216.1 360.4 206.8 363.5 198.2L392 120L313.8 148.5C305.2 151.6 295.9 147 293.1 138.4L256 24z"/></svg>