<svg xmlns="http://www.w3.org/2000/svg" viewBox="0 0 448 512"><!--! Font Awesome Pro 6.0.0-beta3 by @fontawesome - https://fontawesome.com License - https://fontawesome.com/license (Commercial License) Copyright 2021 Fonticons, Inc. --><path d="M136 400c4.422 0 8-3.578 8-8v-16c0-4.406 3.594-8 8-8h144c4.406 0 8 3.594 8 8v16c0 4.422 3.578 8 8 8S320 396.4 320 392v-16c0-13.23-10.77-24-24-24h-144C138.8 352 128 362.8 128 376v16C128 396.4 131.6 400 136 400zM296 96h-144C138.8 96 128 106.8 128 120v16C128 140.4 131.6 144 136 144S144 140.4 144 136v-16c0-4.406 3.594-8 8-8h144c4.406 0 8 3.594 8 8v16c0 4.422 3.578 8 8 8S320 140.4 320 136v-16C320 106.8 309.2 96 296 96zM384 0H64C28.66 0 0 28.66 0 64v384c0 35.34 28.66 64 64 64h320c35.34 0 64-28.66 64-64V64C448 28.66 419.3 0 384 0zM432 448c0 26.47-21.53 48-48 48H64c-26.47 0-48-21.53-48-48V264h416V448zM432 248h-416V64c0-26.47 21.53-48 48-48h320c26.47 0 48 21.53 48 48V248z"/></svg>