<svg xmlns="http://www.w3.org/2000/svg" viewBox="0 0 576 512"><!--! Font Awesome Pro 6.0.0-beta3 by @fontawesome - https://fontawesome.com License - https://fontawesome.com/license (Commercial License) Copyright 2021 Fonticons, Inc. --><path d="M248 143.1C248 121.9 265.9 103.1 288 103.1C310.1 103.1 328 121.9 328 143.1C328 166.1 310.1 183.1 288 183.1C265.9 183.1 248 166.1 248 143.1zM288 119.1C274.7 119.1 264 130.7 264 143.1C264 157.3 274.7 167.1 288 167.1C301.3 167.1 312 157.3 312 143.1C312 130.7 301.3 119.1 288 119.1V119.1zM512 271.1V287.1C512 297.6 507.8 306.1 501.2 311.1C507.8 317.9 512 326.4 512 336V352C512 361.6 507.8 370.1 501.2 376C507.8 381.9 512 390.4 512 400V416C512 425.6 507.8 434.1 501.2 440C507.8 445.9 512 454.4 512 464V480C512 497.7 497.7 512 480 512H384C366.3 512 352 497.7 352 480V464C352 454.4 356.2 445.9 362.8 440C356.2 434.1 352 425.6 352 416V400C352 390.4 356.2 381.9 362.8 376C356.2 370.1 352 361.6 352 352V336C352 326.4 356.2 317.9 362.8 311.1C356.2 306.1 352 297.6 352 287.1V271.1C352 266.2 353.6 260.7 356.3 255.1H219.7C222.4 260.7 224 266.2 224 271.1V287.1C224 297.6 219.8 306.1 213.2 311.1C219.8 317.9 224 326.4 224 336V352C224 361.6 219.8 370.1 213.2 376C219.8 381.9 224 390.4 224 400V416C224 425.6 219.8 434.1 213.2 440C219.8 445.9 224 454.4 224 464V480C224 497.7 209.7 512 192 512H96C78.33 512 64 497.7 64 480V464C64 454.4 68.19 445.9 74.83 440C68.19 434.1 64 425.6 64 416V400C64 390.4 68.19 381.9 74.83 376C68.19 370.1 64 361.6 64 352V336C64 326.4 68.19 317.9 74.83 311.1C68.19 306.1 64 297.6 64 287.1V271.1C64 266.2 65.56 260.7 68.28 255.1H37.58C21.24 255.1 8 242.8 8 226.4C8 217.4 12.12 208.9 19.18 203.3L263.1 9.538C277.7-2.03 298.3-2.03 312.9 9.538L400 78.72V56C400 42.75 410.7 31.1 424 31.1H488C501.3 31.1 512 42.75 512 56V167.7L556.8 203.3C563.9 208.9 568 217.4 568 226.4C568 242.8 554.8 256 538.4 256H507.7C510.4 260.7 512 266.2 512 272V271.1zM302.9 22.07C294.2 15.13 281.8 15.13 273.1 22.07L29.14 215.8C25.89 218.4 24 222.3 24 226.4C24 233.9 30.08 239.1 37.58 239.1H538.4C545.9 239.1 552 233.9 552 226.4C552 222.3 550.1 218.4 546.9 215.8L496.8 175.1H496V175.4L302.9 22.07zM480 432C488.8 432 496 424.8 496 416V400C496 391.2 488.8 384 480 384H384C375.2 384 368 391.2 368 400V416C368 424.8 375.2 432 384 432H480zM384 448C375.2 448 368 455.2 368 464V480C368 488.8 375.2 496 384 496H480C488.8 496 496 488.8 496 480V464C496 455.2 488.8 448 480 448H384zM496 352V336C496 327.2 488.8 319.1 480 319.1H384C375.2 319.1 368 327.2 368 336V352C368 360.8 375.2 368 384 368H480C488.8 368 496 360.8 496 352zM480 255.1H384C375.2 255.1 368 263.2 368 271.1V287.1C368 296.8 375.2 303.1 384 303.1H480C488.8 303.1 496 296.8 496 287.1V271.1C496 263.2 488.8 255.1 480 255.1zM192 432C200.8 432 208 424.8 208 416V400C208 391.2 200.8 384 192 384H96C87.16 384 80 391.2 80 400V416C80 424.8 87.16 432 96 432H192zM96 448C87.16 448 80 455.2 80 464V480C80 488.8 87.16 496 96 496H192C200.8 496 208 488.8 208 480V464C208 455.2 200.8 448 192 448H96zM208 352V336C208 327.2 200.8 319.1 192 319.1H96C87.16 319.1 80 327.2 80 336V352C80 360.8 87.16 368 96 368H192C200.8 368 208 360.8 208 352zM192 255.1H96C87.16 255.1 80 263.2 80 271.1V287.1C80 296.8 87.16 303.1 96 303.1H192C200.8 303.1 208 296.8 208 287.1V271.1C208 263.2 200.8 255.1 192 255.1zM496 154.1V55.1C496 51.58 492.4 47.1 488 47.1H424C419.6 47.1 416 51.58 416 55.1V91.43L496 154.1z"/></svg>