<svg xmlns="http://www.w3.org/2000/svg" viewBox="0 0 512 512"><!--! Font Awesome Pro 6.0.0-beta3 by @fontawesome - https://fontawesome.com License - https://fontawesome.com/license (Commercial License) Copyright 2021 Fonticons, Inc. --><path d="M320 32C320 49.67 305.7 64 288 64C270.3 64 256 49.67 256 32C256 14.33 270.3 0 288 0C305.7 0 320 14.33 320 32zM288 16C279.2 16 272 23.16 272 32C272 40.84 279.2 48 288 48C296.8 48 304 40.84 304 32C304 23.16 296.8 16 288 16zM160 64C160 46.33 174.3 32 192 32C209.7 32 224 46.33 224 64C224 81.67 209.7 96 192 96C174.3 96 160 81.67 160 64zM192 80C200.8 80 208 72.84 208 64C208 55.16 200.8 48 192 48C183.2 48 176 55.16 176 64C176 72.84 183.2 80 192 80zM80 304C80 286.3 94.33 272 112 272H400C417.7 272 432 286.3 432 304V368C432 385.7 417.7 400 400 400H112C94.33 400 80 385.7 80 368V304zM96 368C96 376.8 103.2 384 112 384H192V288H112C103.2 288 96 295.2 96 304V368zM304 384V288H208V384H304zM320 384H400C408.8 384 416 376.8 416 368V304C416 295.2 408.8 288 400 288H320V384zM480 288V448C480 483.3 451.3 512 416 512H96C60.65 512 32 483.3 32 448V288C32 252.7 60.65 224 96 224H247.1V130L9.762 183.8C5.452 184.8 1.17 182.1 .1962 177.8C-.777 173.5 1.928 169.2 6.238 168.2L502.2 56.2C506.5 55.22 510.8 57.93 511.8 62.24C512.8 66.55 510.1 70.83 505.8 71.8L264 126.4V223.1H416C451.3 223.1 480 252.7 480 287.1L480 288zM416 240H96C69.49 240 48 261.5 48 288V448C48 474.5 69.49 496 96 496H416C442.5 496 464 474.5 464 448V288C464 261.5 442.5 240 416 240z"/></svg>