<svg xmlns="http://www.w3.org/2000/svg" viewBox="0 0 512 512"><!--! Font Awesome Pro 6.0.0-beta3 by @fontawesome - https://fontawesome.com License - https://fontawesome.com/license (Commercial License) Copyright 2021 Fonticons, Inc. --><path d="M464 224c-26.5 0-48 21.5-48 47.1v32c0 8.875-7.125 15.1-16 15.1H352V144h24c4.422 0 8-3.578 8-7.1s-3.578-7.1-8-7.1H352V101.4c0-51.1-38.88-98.5-90.88-101.2C259.5 .0418 257.7 0 256.1 0c-24.5-.002-48.15 9.408-66.06 26.38C170.9 44.51 160 69.63 160 96v127.1L112 224c-8.875 0-16-7.125-16-15.1V176c0-26.5-21.5-47.1-48-47.1S0 149.5 0 176v31.1c0 61.87 50.13 111.1 112 111.1H160v63.1H136c-4.422 0-8 3.578-8 7.1s3.578 7.1 8 7.1H160v79.1C160 497.6 174.4 512 192 512h128c17.62 0 32-14.37 32-31.1v-63.1l48-.0004c61.88 0 112-50.12 112-111.1V272C512 245.5 490.5 224 464 224zM160 304L112 304c-52.94 0-96-43.07-96-95.1V176c0-17.64 14.36-31.1 32-31.1s32 14.36 32 31.1v31.1c0 17.64 14.36 31.1 32 31.1H160V304zM336 480c0 8.822-7.178 15.1-16 15.1H192c-8.822 0-16-7.178-16-15.1V96c0-21.81 9.113-42.95 25.01-58.01c14.97-14.18 34.54-21.1 55.12-21.99c1.387 0 2.777 .0352 4.16 .1074C302 18.32 336 56.57 336 101.4V480zM496 304c0 52.93-43.06 95.1-96 95.1H352V336l48 0c17.64 0 32-14.36 32-31.1V272c0-17.64 14.36-31.1 32-31.1s32 14.36 32 31.1V304zM224 144c-8.875 0-16 7.125-16 15.1S215.1 176 224 176s16-7.125 16-15.1C240 151.1 232.9 144 224 144zM288 368c-8.875 0-16 7.125-16 15.1c0 8.875 7.125 15.1 16 15.1s16-7.125 16-15.1C304 375.1 296.9 368 288 368z"/></svg>