<svg xmlns="http://www.w3.org/2000/svg" viewBox="0 0 512 512"><!--! Font Awesome Pro 6.1.1 by @fontawesome - https://fontawesome.com License - https://fontawesome.com/license (Commercial License) Copyright 2022 Fonticons, Inc. --><path d="M40 120h144C188.4 120 192 116.4 192 112S188.4 104 184 104h-144C35.59 104 32 107.6 32 112S35.59 120 40 120zM328 120h64v64c0 4.406 3.594 8.042 8 8.042S408 188.4 408 184v-64h64c4.406 0 8-3.552 8-7.958S476.4 104 472 104h-64v-64c0-4.406-3.594-7.958-8-7.958S392 35.59 392 40v64h-64C323.6 104 320 107.6 320 112S323.6 120 328 120zM168.6 343.4c-3.115-3.115-8.197-3.115-11.31 0L112 388.7l-45.25-45.25c-3.117-3.115-8.199-3.115-11.31 0s-3.115 8.197 0 11.31L100.7 400l-45.25 45.25c-3.115 3.117-3.115 8.199 0 11.31s8.197 3.115 11.31 0L112 411.3l45.25 45.25c3.117 3.115 8.199 3.115 11.31 0s3.115-8.197 0-11.31L123.3 400l45.25-45.25C171.7 351.6 171.7 346.5 168.6 343.4zM472 360h-144c-4.406 0-8 3.594-8 8s3.594 8 8 8h144c4.406 0 8-3.594 8-8S476.4 360 472 360zM472 424h-144c-4.406 0-8 3.594-8 8s3.594 8 8 8h144c4.406 0 8-3.594 8-8S476.4 424 472 424zM504 248h-240v-240C264 3.578 260.4 0 256 0S248 3.578 248 8v240h-240C3.594 248 0 251.6 0 256s3.594 8 8 8h240v240C248 508.4 251.6 512 256 512s8-3.578 8-8v-240h240C508.4 264 512 260.4 512 256S508.4 248 504 248z"/></svg>