<svg xmlns="http://www.w3.org/2000/svg" viewBox="0 0 576 512"><!--! Font Awesome Pro 6.0.0-beta3 by @fontawesome - https://fontawesome.com License - https://fontawesome.com/license (Commercial License) Copyright 2021 Fonticons, Inc. --><path d="M128 64H320V8C320 3.582 323.6 0 328 0C332.4 0 336 3.582 336 8V64H384C419.3 64 448 92.65 448 128V192H16V448C16 474.5 37.49 496 64 496H256C256 501.5 256.1 506.9 258.8 512H64C28.65 512 0 483.3 0 448V128C0 92.65 28.65 64 64 64H112V8C112 3.582 115.6 0 120 0C124.4 0 128 3.582 128 8V64zM64 80C37.49 80 16 101.5 16 128V176H432V128C432 101.5 410.5 80 384 80H336V120C336 124.4 332.4 128 328 128C323.6 128 320 124.4 320 120V80H128V120C128 124.4 124.4 128 120 128C115.6 128 112 124.4 112 120V80H64zM248 384C252.4 384 256 387.6 256 392C256 396.4 252.4 400 248 400H104C99.58 400 96 396.4 96 392C96 387.6 99.58 384 104 384H248zM96 296C96 291.6 99.58 288 104 288H344C348.4 288 352 291.6 352 296C352 300.4 348.4 304 344 304H104C99.58 304 96 300.4 96 296zM292.7 507.2C288.7 503.2 287.1 497.4 288.5 491.1L303.5 431.8C304.9 426.2 307.8 421.1 311.9 416.1L493.2 235.7C508.8 220.1 534.1 220.1 549.8 235.7L564.1 250.1C579.8 265.7 579.8 291 564.1 306.7L382.9 487.9C378.8 492 373.6 494.9 368 496.3L307.9 511.4C302.4 512.7 296.7 511.1 292.7 507.2L292.7 507.2zM304 495.8L364.1 480.8C366.9 480.1 369.5 478.7 371.6 476.6L514.4 333.7L466.1 285.4L323.2 428.3C321.2 430.3 319.7 432.9 319 435.7L304 495.8zM552.8 261.4L538.4 247C529.1 237.7 513.9 237.7 504.5 247L477.4 274.1L525.7 322.4L552.8 295.4C562.2 285.1 562.2 270.8 552.8 261.4L552.8 261.4zM364.6 482.8L368 496.3z"/></svg>