<svg xmlns="http://www.w3.org/2000/svg" viewBox="0 0 448 512"><!--! Font Awesome Pro 6.1.1 by @fontawesome - https://fontawesome.com License - https://fontawesome.com/license (Commercial License) Copyright 2022 Fonticons, Inc. --><path d="M120 0C124.4 0 128 3.582 128 8V64H320V8C320 3.582 323.6 0 328 0C332.4 0 336 3.582 336 8V64H384C419.3 64 448 92.65 448 128V448C448 483.3 419.3 512 384 512H64C28.65 512 0 483.3 0 448V128C0 92.65 28.65 64 64 64H112V8C112 3.582 115.6 0 120 0zM432 192H16V448C16 474.5 37.49 496 64 496H384C410.5 496 432 474.5 432 448V192zM112 120V80H64C37.49 80 16 101.5 16 128V176H432V128C432 101.5 410.5 80 384 80H336V120C336 124.4 332.4 128 328 128C323.6 128 320 124.4 320 120V80H128V120C128 124.4 124.4 128 120 128C115.6 128 112 124.4 112 120z"/></svg>