<svg xmlns="http://www.w3.org/2000/svg" viewBox="0 0 576 512"><!--! Font Awesome Pro 6.0.0-beta3 by @fontawesome - https://fontawesome.com License - https://fontawesome.com/license (Commercial License) Copyright 2021 Fonticons, Inc. --><path d="M120 0C124.4 0 128 3.582 128 8V64H320V8C320 3.582 323.6 0 328 0C332.4 0 336 3.582 336 8V64H384C419.3 64 448 92.65 448 128V192H16V448C16 474.5 37.49 496 64 496H311.2C317.3 501.8 323.9 507.1 330.8 512H64C28.65 512 0 483.3 0 448V128C0 92.65 28.65 64 64 64H112V8C112 3.582 115.6 0 120 0zM112 120V80H64C37.49 80 16 101.5 16 128V176H432V128C432 101.5 410.5 80 384 80H336V120C336 124.4 332.4 128 328 128C323.6 128 320 124.4 320 120V80H128V120C128 124.4 124.4 128 120 128C115.6 128 112 124.4 112 120zM448 432C448 440.8 440.8 448 432 448C423.2 448 416 440.8 416 432C416 423.2 423.2 416 432 416C440.8 416 448 423.2 448 432zM439.1 384C439.1 388.4 436.4 392 431.1 392C427.6 392 423.1 388.4 423.1 384V288C423.1 283.6 427.6 280 431.1 280C436.4 280 439.1 283.6 439.1 288V384zM288 368C288 288.5 352.5 224 432 224C511.5 224 576 288.5 576 368C576 447.5 511.5 512 432 512C352.5 512 288 447.5 288 368zM432 496C502.7 496 560 438.7 560 368C560 297.3 502.7 240 432 240C361.3 240 304 297.3 304 368C304 438.7 361.3 496 432 496z"/></svg>