<svg xmlns="http://www.w3.org/2000/svg" viewBox="0 0 448 512"><!--! Font Awesome Pro 6.0.0-beta3 by @fontawesome - https://fontawesome.com License - https://fontawesome.com/license (Commercial License) Copyright 2021 Fonticons, Inc. --><path d="M376 280C376 284.4 372.4 288 368 288H176C171.6 288 168 284.4 168 280C168 275.6 171.6 272 176 272H368C372.4 272 376 275.6 376 280zM80 416C75.58 416 72 412.4 72 408C72 403.6 75.58 400 80 400H272C276.4 400 280 403.6 280 408C280 412.4 276.4 416 272 416H80zM136 288C136 310.1 118.1 328 96 328C73.91 328 56 310.1 56 288C56 265.9 73.91 248 96 248C118.1 248 136 265.9 136 288zM72 288C72 301.3 82.75 312 96 312C109.3 312 120 301.3 120 288C120 274.7 109.3 264 96 264C82.75 264 72 274.7 72 288zM312 416C312 393.9 329.9 376 352 376C374.1 376 392 393.9 392 416C392 438.1 374.1 456 352 456C329.9 456 312 438.1 312 416zM376 416C376 402.7 365.3 392 352 392C338.7 392 328 402.7 328 416C328 429.3 338.7 440 352 440C365.3 440 376 429.3 376 416zM120 0C124.4 0 128 3.582 128 8V64H320V8C320 3.582 323.6 0 328 0C332.4 0 336 3.582 336 8V64H384C419.3 64 448 92.65 448 128V448C448 483.3 419.3 512 384 512H64C28.65 512 0 483.3 0 448V128C0 92.65 28.65 64 64 64H112V8C112 3.582 115.6 0 120 0zM432 192H16V448C16 474.5 37.49 496 64 496H384C410.5 496 432 474.5 432 448V192zM112 120V80H64C37.49 80 16 101.5 16 128V176H432V128C432 101.5 410.5 80 384 80H336V120C336 124.4 332.4 128 328 128C323.6 128 320 124.4 320 120V80H128V120C128 124.4 124.4 128 120 128C115.6 128 112 124.4 112 120z"/></svg>