<svg xmlns="http://www.w3.org/2000/svg" viewBox="0 0 576 512"><!--! Font Awesome Pro 6.0.0-beta3 by @fontawesome - https://fontawesome.com License - https://fontawesome.com/license (Commercial License) Copyright 2021 Fonticons, Inc. --><path d="M533.9 195.6C532.6 181 523.4 168.6 509.8 163.2L145.1 2.744c-17.94-7.172-38.59 .1563-48.06 16.84l-91.93 160.8C-.5625 190.3-1.562 202.2 2.406 213c3.937 10.8 12.37 19.27 22.87 23.08l175.4 72.59l-46.09 115.3H15.1v-64c0-4.422-3.593-8-7.999-8S0 355.6 0 359.1v144C0 508.4 3.593 512 7.999 512s7.999-3.578 7.999-8v-64h143.1c3.281 0 6.218-1.984 7.437-5.031l48.05-120.1l84.07 34.79c4.406 1.609 8.937 2.391 13.47 2.391c7.124 0 14.19-1.984 20.4-5.891l182.4-114.1C528.3 224.2 535.2 210.3 533.9 195.6zM324.9 332.6c-5.968 3.75-13.19 4.453-19.56 2.156L31.09 221.2C24.72 218.9 19.75 213.9 17.4 207.5C15.09 201.2 15.66 194.2 18.1 188.4l91.96-160.9c4.125-7.313 11.94-11.55 19.9-11.55c2.719 0 5.468 .5 8.093 1.547L503.5 177.9c8.093 3.219 13.69 10.45 14.47 19.16c.7812 8.766-3.219 16.78-10.69 21.44L324.9 332.6zM574.4 282.5c-2.156-5.75-6.562-10.38-12.44-13.05l-32.25-14.13c-4.125-1.781-8.749 .0625-10.53 4.125c-1.781 4.047 .0625 8.766 4.093 10.53l32.15 14.08c1.375 .625 3.156 1.828 4.062 4.234c.6875 1.719 .6562 3.781-.0937 5.547l-37.15 84.42c-.7812 1.781-2.25 3.156-4.093 3.875c-1.875 .7187-3.875 .6562-5.656-.125l-108.9-47.84c-4.062-1.75-8.749 .0313-10.53 4.109c-1.781 4.047 .0625 8.766 4.093 10.55l108.9 47.83c2.1 1.344 6.187 2 9.406 2c2.875 0 5.75-.5313 8.499-1.594c5.812-2.266 10.41-6.656 12.91-12.36l37.22-84.52C576.5 294.4 576.6 288.1 574.4 282.5z"/></svg>