<svg xmlns="http://www.w3.org/2000/svg" viewBox="0 0 512 512"><!--! Font Awesome Pro 6.0.0-beta3 by @fontawesome - https://fontawesome.com License - https://fontawesome.com/license (Commercial License) Copyright 2021 Fonticons, Inc. --><path d="M144 288C144 226.1 194.1 176 256 176C317.9 176 368 226.1 368 288C368 349.9 317.9 400 256 400C194.1 400 144 349.9 144 288zM256 192C202.1 192 160 234.1 160 288C160 341 202.1 384 256 384C309 384 352 341 352 288C352 234.1 309 192 256 192zM362.9 64.82L373.3 96H448C483.3 96 512 124.7 512 160V416C512 451.3 483.3 480 448 480H64C28.65 480 0 451.3 0 416V160C0 124.7 28.65 96 64 96H138.7L149.1 64.82C155.6 45.22 173.9 32 194.6 32H317.4C338.1 32 356.4 45.22 362.9 64.82H362.9zM64 112C37.49 112 16 133.5 16 160V416C16 442.5 37.49 464 64 464H448C474.5 464 496 442.5 496 416V160C496 133.5 474.5 112 448 112H361.8L347.8 69.88C343.4 56.81 331.2 48 317.4 48H194.6C180.8 48 168.6 56.81 164.2 69.88L150.2 112H64z"/></svg>