<svg xmlns="http://www.w3.org/2000/svg" viewBox="0 0 640 512"><!--! Font Awesome Pro 6.0.0-beta3 by @fontawesome - https://fontawesome.com License - https://fontawesome.com/license (Commercial License) Copyright 2021 Fonticons, Inc. --><path d="M621.3 82.75C633.3 94.75 640 111 640 128V384C640 400.1 633.3 417.3 621.3 429.3C609.3 441.3 592.1 448 576 448H32C23.51 448 15.37 444.6 9.372 438.6C3.371 432.6 0 424.5 0 416V222.4C18.07 218.7 34.31 208.9 45.97 194.6C57.64 180.3 64 162.4 64 144V128H80C98.44 128 116.3 121.6 130.6 109.1C144.9 98.31 154.7 82.07 158.4 64H576C592.1 64 609.3 70.74 621.3 82.75zM125.5 132.3C111.5 139.9 95.89 143.9 80 144C79.93 160.9 75.35 177.5 66.75 192H160V100.5C151.3 113.8 139.4 124.8 125.5 132.3zM16 320H160V208H55.17C44.54 219.1 31.07 229.1 16 234.5V320zM160 432V336H16V416C16 420.2 17.69 424.3 20.69 427.3C23.69 430.3 27.76 432 32 432H160zM304 336H176V432H304V336zM304 208H176V320H304V208zM304 80H176V192H304V80zM624 128C624 115.3 618.9 103.1 609.9 94.06C600.9 85.06 588.7 80 576 80H320V432H576C588.7 432 600.9 426.9 609.9 417.9C618.9 408.9 624 396.7 624 384V128z"/></svg>