<svg xmlns="http://www.w3.org/2000/svg" viewBox="0 0 640 512"><!--! Font Awesome Pro 6.0.0-beta3 by @fontawesome - https://fontawesome.com License - https://fontawesome.com/license (Commercial License) Copyright 2021 Fonticons, Inc. --><path d="M479.1 0c-165.8 1.625-164.5 39.5-157.9 72.5c30.38 151.5 94.01 343.5 157.8 343.5c63.75-.125 127.6-191.9 158-343.5C644.5 39.5 645.8 1.625 479.1 0zM479.9 399.1c-23.7 0-54.47-47.82-83.33-122.4c58.04-7.437 108.8-7.439 166.9-.0078C534.5 352.1 503.7 399.1 479.9 399.1zM569.2 262.1c-61.97-8.147-116.4-8.158-178.4 .0078c-13.14-35.92-25.73-77.09-36.94-121.7c100.3-20.05 189.6-12.53 252.3-.0059C594.1 185 582.3 226.2 569.2 262.1zM622.2 69.36c-3.781 18.87-7.912 37.26-12.22 55.28c-102.6-20.46-195.5-12.85-259.9 .0078c-4.314-18.02-8.449-36.42-12.23-55.29c-2.561-12.75-2.924-20.38 2.188-26.68c9.432-11.63 41.38-25.69 140-26.67c98.62 .9825 130.6 15.05 140 26.67C625.1 48.97 624.8 56.6 622.2 69.36zM80.97 213.8c-111.5 118.7-84.06 143.8-56.4 161.7c126.1 82.49 304.9 169.2 348.3 123.1c43.23-45.29-47.93-222.3-133.7-347.9C220.5 124.3 194.7 97.42 80.97 213.8zM361.6 488.6c-16.11 16.81-70.57 5.793-142.5-24.97c34.17-46.2 68.68-82.25 113.4-118.4C365.2 416.1 377.8 471.7 361.6 488.6zM325.5 330.6C277.6 368.1 240.7 407.6 204.3 457.1c-34.13-15.35-71.59-34.69-110.5-57.41c33.8-53.06 89.22-121.6 171.4-178.9C288.9 259.4 309.2 296.6 325.5 330.6zM80.13 391.6c-15.58-9.315-31.3-19.01-47.12-29.29c-10.69-6.94-16.28-11.92-17.23-19.87c-1.752-14.67 10.09-46.99 76.41-117.6C159.9 155.6 191.5 142.6 206 143.9C213.9 144.6 219 150.1 226.3 160.6C236.9 176.3 247 191.8 256.7 207.3C172.6 265.1 114.9 337.1 80.13 391.6z"/></svg>