<svg xmlns="http://www.w3.org/2000/svg" viewBox="0 0 576 512"><!--! Font Awesome Pro 6.0.0-beta3 by @fontawesome - https://fontawesome.com License - https://fontawesome.com/license (Commercial License) Copyright 2021 Fonticons, Inc. --><path d="M111.1 48C59.06 48 16 91.06 16 144v224c0 52.94 43.06 96 95.1 96s95.1-43.06 95.1-96v-224C207.1 91.06 164.9 48 111.1 48zM191.1 368c0 44.11-35.88 80-79.1 80s-79.1-35.89-79.1-80L31.1 264h159.1L191.1 368zM191.1 248H31.1L31.1 144c0-44.11 35.88-80 79.1-80s79.1 35.89 79.1 80L191.1 248zM541.2 308l-136.3-187c-32.09-44.05-94.62-54.16-139.2-22.52C243.9 113.9 229.5 136.7 225.3 162.8C221 188.7 227.2 214.7 242.8 235.1l136.3 187c19.47 26.7 50.12 40.94 81.18 40.94c20.16 0 40.5-5.984 58.06-18.42c21.75-15.41 36.09-38.23 40.34-64.31C562.9 355.3 556.7 329.3 541.2 308zM255.7 226.5C242.7 208.7 237.5 187 241.1 165.4C244.6 143.5 256.6 124.4 274.9 111.5c14.78-10.47 31.87-15.5 48.84-15.5c26.12 0 51.87 11.94 68.22 34.39l63.38 86.95l-136.1 96.32L255.7 226.5zM542.9 378.6c-3.562 21.81-15.59 40.92-33.81 53.83c-37.53 26.61-90.12 18.14-117.1-18.89l-63.38-86.95l136.1-96.32l63.53 87.15C541.3 335.3 546.4 356.1 542.9 378.6z"/></svg>