<svg xmlns="http://www.w3.org/2000/svg" viewBox="0 0 640 512"><!--! Font Awesome Pro 6.0.0-beta3 by @fontawesome - https://fontawesome.com License - https://fontawesome.com/license (Commercial License) Copyright 2021 Fonticons, Inc. --><path d="M221.9 88.7L287.9 72.38L276.3 91.73L219.3 105.8C215.6 106.7 211.7 104.9 210.1 101.4L175.1 27.16L141.9 101.4C140.3 104.9 136.4 106.7 132.7 105.8L53.37 86.21L90.14 159.2C91.8 162.5 90.1 166.5 88.2 168.9L29.7 218.9L103.2 235.7C106.9 236.5 109.5 239.8 109.4 243.6L107.9 325.3L149.3 291.1L144.1 310.5C143.5 312.8 143 315 142.7 317.3L104.7 348.7C102.3 350.7 98.98 351.1 96.16 349.8C93.35 348.4 91.58 345.6 91.64 342.4L93.3 249.8L10.63 230.1C7.685 230.3 5.368 228 4.645 225.1C3.921 222.1 4.914 219.1 7.212 217.1L73.03 160.8L31.25 77.87C29.85 75.08 30.19 71.72 32.14 69.28C34.09 66.83 37.28 65.75 40.32 66.5L130.1 88.7L168.7 4.659C170 1.82 172.9 0 175.1 0C179.1 0 181.1 1.82 183.3 4.659L221.9 88.7zM543.1 354.2C528.6 350.3 520 335.4 523.9 320.9C527.8 306.4 542.7 297.8 557.2 301.7C571.7 305.6 580.3 320.5 576.4 334.1C572.5 349.5 557.6 358.1 543.1 354.2zM560.1 330.8C562.6 324.9 559 318.7 553.1 317.1C547.1 315.5 540.1 319.1 539.4 325.1C537.8 331 541.3 337.2 547.3 338.8C553.2 340.4 559.4 336.8 560.1 330.8zM294.6 231.3C309.1 235.2 317.7 250.1 313.8 264.6C309.9 279.1 295 287.7 280.5 283.8C266 279.1 257.4 265 261.3 250.5C265.2 236 280.1 227.4 294.6 231.3V231.3zM276.7 254.7C275.1 260.7 278.7 266.8 284.6 268.4C290.6 269.1 296.8 266.4 298.3 260.5C299.9 254.5 296.4 248.4 290.4 246.8C284.5 245.2 278.3 248.7 276.7 254.7zM600.4 169L601.8 259.1C627.5 272.8 641.3 302.8 633.5 332.1L588.5 500.1C587.5 503.7 583.8 505.8 580.2 504.9C576.5 503.9 574.4 500.2 575.4 496.5L591.2 437.5L197.3 331.9L181.4 390.1C180.5 394.6 176.7 396.8 173.1 395.8C169.5 394.8 167.3 391.1 168.3 387.5L213.3 219.5C221.2 190.2 248.1 171.1 277.2 172.1L323.5 94.86C340.1 67.29 372.9 54.02 403.9 62.34L547 100.7C578.1 109 599.8 136.9 600.4 169H600.4zM399.8 77.8C375.6 71.32 350.1 81.65 337.2 103.1L294.2 174.9L585.7 253L584.4 169.3C583.9 144.3 567 122.6 542.9 116.1L399.8 77.8zM584.1 269.2L287.5 189.7C261.9 182.8 235.6 198 228.8 223.6L203.7 317.1L592.1 421.4L618 327.1C624.9 302.3 609.7 276 584.1 269.2V269.2z"/></svg>