<svg xmlns="http://www.w3.org/2000/svg" viewBox="0 0 512 512"><!--! Font Awesome Pro 6.0.0-beta3 by @fontawesome - https://fontawesome.com License - https://fontawesome.com/license (Commercial License) Copyright 2021 Fonticons, Inc. --><path d="M368 216C372.4 216 376 219.6 376 224V264H416C420.4 264 424 267.6 424 272C424 276.4 420.4 280 416 280H376V320C376 324.4 372.4 328 368 328C363.6 328 360 324.4 360 320V280H320C315.6 280 312 276.4 312 272C312 267.6 315.6 264 320 264H360V224C360 219.6 363.6 216 368 216zM192 264C196.4 264 200 267.6 200 272C200 276.4 196.4 280 192 280H96C91.58 280 88 276.4 88 272C88 267.6 91.58 264 96 264H192zM320 128V88C320 74.75 330.7 64 344 64H424C437.3 64 448 74.75 448 88V128C483.3 128 512 156.7 512 192V384C512 419.3 483.3 448 448 448H64C28.65 448 0 419.3 0 384V192C0 156.7 28.65 128 64 128V88C64 74.75 74.75 64 88 64H168C181.3 64 192 74.75 192 88V128H320zM168 80H88C83.58 80 80 83.58 80 88V128H176V88C176 83.58 172.4 80 168 80zM336 128H432V88C432 83.58 428.4 80 424 80H344C339.6 80 336 83.58 336 88V128zM64 144C37.49 144 16 165.5 16 192V384C16 410.5 37.49 432 64 432H448C474.5 432 496 410.5 496 384V192C496 165.5 474.5 144 448 144H64z"/></svg>