<svg xmlns="http://www.w3.org/2000/svg" viewBox="0 0 640 512"><!--! Font Awesome Pro 6.0.0-beta3 by @fontawesome - https://fontawesome.com License - https://fontawesome.com/license (Commercial License) Copyright 2021 Fonticons, Inc. --><path d="M58.02 199.8L91.05 84.22C99.88 53.31 128.1 32 160.3 32H351.7C383.9 32 412.1 53.31 420.1 84.22L453.2 197.2C442.4 199.9 432 203.6 422.1 208.2C420.1 208.1 418 208 416 208H96C51.82 208 16 243.8 16 288V384H320.7C321.2 389.4 321.9 394.7 322.9 400H16V472C16 476.4 12.42 480 8 480C3.582 480 0 476.4 0 472V288C0 248.5 23.89 214.5 58.02 199.8V199.8zM76.31 194C82.67 192.7 89.25 192 96 192H416C422.7 192 429.3 192.7 435.7 194L405.6 88.62C398.7 64.57 376.7 48 351.7 48H160.3C135.3 48 113.3 64.57 106.4 88.62L76.31 194zM128 288C128 305.7 113.7 320 96 320C78.33 320 64 305.7 64 288C64 270.3 78.33 256 96 256C113.7 256 128 270.3 128 288zM96 272C87.16 272 80 279.2 80 288C80 296.8 87.16 304 96 304C104.8 304 112 296.8 112 288C112 279.2 104.8 272 96 272zM532.5 281.4C535.4 283.4 536.7 287.1 535.6 290.5L517.8 344H576C579.3 344 582.3 346.1 583.5 349.2C584.7 352.4 583.7 355.9 581.2 358.1L469.2 454.1C466.5 456.4 462.5 456.6 459.5 454.6C456.6 452.6 455.3 448.9 456.4 445.5L474.2 392H416C412.7 392 409.7 389.9 408.5 386.8C407.3 383.6 408.3 380.1 410.8 377.9L522.8 281.9C525.5 279.6 529.5 279.4 532.5 281.4H532.5zM437.6 376H485.3C487.9 376 490.3 377.2 491.8 379.3C493.3 381.4 493.7 384.1 492.9 386.5L480.7 423.1L554.4 360H506.7C504.1 360 501.7 358.8 500.2 356.7C498.7 354.6 498.3 351.9 499.1 349.5L511.3 312.9L437.6 376zM352 368C352 288.5 416.5 224 496 224C575.5 224 640 288.5 640 368C640 447.5 575.5 512 496 512C416.5 512 352 447.5 352 368zM496 496C566.7 496 624 438.7 624 368C624 297.3 566.7 240 496 240C425.3 240 368 297.3 368 368C368 438.7 425.3 496 496 496z"/></svg>