<svg xmlns="http://www.w3.org/2000/svg" viewBox="0 0 640 512"><!--! Font Awesome Pro 6.0.0-beta3 by @fontawesome - https://fontawesome.com License - https://fontawesome.com/license (Commercial License) Copyright 2021 Fonticons, Inc. --><path d="M16 247.1V361.5C16 383.5 33.91 401.5 56 401.5H224V417.5H56C53.28 417.5 50.61 417.3 48 416.9V472C48 476.4 44.42 480 40 480C35.58 480 32 476.4 32 472V412.1C13.08 403.1 0 383.8 0 361.5V105.1C0 84.54 4.403 60.96 22.72 46.11C50.66 23.44 104 0 192 0C279.1 0 333.3 23.44 361.3 46.11C379.6 60.96 384 84.54 384 105.1V144H380.2C376.1 144 372 144.3 368 144.8V120H200V232H282.7L278.1 248L16 247.1zM16 103.1H367.1C367.8 85.29 363.5 68.51 351.2 58.53C326.7 38.69 277.2 15.1 191.1 15.1C106.8 15.1 57.26 38.69 32.79 58.53C20.49 68.51 16.17 85.29 16 103.1H16zM16 119.1V231.1H184V119.1H16zM128 319.1C128 337.7 113.7 352 96 352C78.33 352 64 337.7 64 319.1C64 302.3 78.33 287.1 96 287.1C113.7 287.1 128 302.3 128 319.1zM96 336C104.8 336 112 328.8 112 319.1C112 311.2 104.8 303.1 96 303.1C87.16 303.1 80 311.2 80 319.1C80 328.8 87.16 336 96 336zM368 368C368 385.7 353.7 400 336 400C318.3 400 304 385.7 304 368C304 350.3 318.3 336 336 336C353.7 336 368 350.3 368 368zM336 384C344.8 384 352 376.8 352 368C352 359.2 344.8 352 336 352C327.2 352 320 359.2 320 368C320 376.8 327.2 384 336 384zM528 368C528 350.3 542.3 336 560 336C577.7 336 592 350.3 592 368C592 385.7 577.7 400 560 400C542.3 400 528 385.7 528 368zM560 352C551.2 352 544 359.2 544 368C544 376.8 551.2 384 560 384C568.8 384 576 376.8 576 368C576 359.2 568.8 352 560 352zM326.4 216.6C333.2 192.6 355.2 175.1 380.2 175.1H515.8C540.8 175.1 562.8 192.6 569.6 216.6L591.7 293.8L590.7 294.1C619.6 306.1 640 334.7 640 368V504C640 508.4 636.4 512 632 512C627.6 512 624 508.4 624 504V448H272V504C272 508.4 268.4 512 264 512C259.6 512 256 508.4 256 504V368C256 334.7 276.4 306.1 305.3 294.1L304.3 293.8L326.4 216.6zM380.2 191.1C362.3 191.1 346.7 203.8 341.7 221L322.3 289.2C326.7 288.4 331.3 288 336 288H560C564.7 288 569.3 288.4 573.7 289.2L554.3 221C549.3 203.8 533.7 191.1 515.8 191.1H380.2zM624 368C624 332.7 595.3 303.1 560 303.1H336C300.7 303.1 272 332.7 272 368V432H624V368z"/></svg>