<svg xmlns="http://www.w3.org/2000/svg" viewBox="0 0 512 512"><!--! Font Awesome Pro 6.0.0-beta3 by @fontawesome - https://fontawesome.com License - https://fontawesome.com/license (Commercial License) Copyright 2021 Fonticons, Inc. --><path d="M192 312C192 298.7 202.7 288 216 288H296C309.3 288 320 298.7 320 312V328C320 341.3 309.3 352 296 352H216C202.7 352 192 341.3 192 328V312zM208 312V328C208 332.4 211.6 336 216 336H296C300.4 336 304 332.4 304 328V312C304 307.6 300.4 304 296 304H216C211.6 304 208 307.6 208 312zM167.6 32H344.4C376.2 32 404.2 52.86 413.3 83.31L446.3 193.3C483.7 200 512 232.7 512 272V352C512 372.9 498.6 390.7 480 397.3V472C480 476.4 476.4 480 472 480C467.6 480 464 476.4 464 472V400H48V472C48 476.4 44.42 480 40 480C35.58 480 32 476.4 32 472V397.3C13.36 390.7 0 372.9 0 352V272C0 232.7 28.32 200 65.66 193.3L98.65 83.31C107.8 52.86 135.8 32 167.6 32V32zM167.6 48C142.9 48 121.1 64.22 113.1 87.91L82.75 192H429.2L398 87.91C390.9 64.22 369.1 48 344.4 48H167.6zM18.02 256H72C85.25 256 96 266.7 96 280V312C96 325.3 85.25 336 72 336H16V352C16 369.7 30.33 384 48 384H464C481.7 384 496 369.7 496 352V336H440C426.7 336 416 325.3 416 312V280C416 266.7 426.7 256 440 256H493.1C486.9 228.4 461.8 208 432 208H80C50.18 208 25.12 228.4 18.02 256V256zM496 320V272H440C435.6 272 432 275.6 432 280V312C432 316.4 435.6 320 440 320H496zM80 312V280C80 275.6 76.42 272 72 272H16V320H72C76.42 320 80 316.4 80 312z"/></svg>