<svg xmlns="http://www.w3.org/2000/svg" viewBox="0 0 384 512"><!--! Font Awesome Pro 6.1.1 by @fontawesome - https://fontawesome.com License - https://fontawesome.com/license (Commercial License) Copyright 2022 Fonticons, Inc. --><path d="M181 132.6C187.1 126.5 196.9 126.5 202.6 132.6L293.4 226.2C319.6 253.4 318.2 298.3 288.7 323.6C264 345.1 226.5 341.6 202.9 319.3C202.3 318.7 201.7 318.1 201.2 317.5L199.1 316.3V365.1H223.1C228.4 365.1 231.1 369.6 231.1 373.1C231.1 378.4 228.4 381.1 223.1 381.1H159.1C155.6 381.1 151.1 378.4 151.1 373.1C151.1 369.6 155.6 365.1 159.1 365.1H183.1V316.3L182.9 317.5C182.2 318.2 181.6 318.8 180.9 319.5C157.4 341.6 120.4 345 94.88 323.6C65.85 298.3 64.45 253.4 90.66 226.2L181 132.6zM102.2 237.3C82.27 257.1 83.35 292.2 105.3 311.5C124.3 327.3 153 324.9 171.3 306.5L191.5 284.2L212.7 306.4C231 325.1 260.2 327.2 278.2 311.6L278.3 311.5C300.7 292.3 301.8 257.1 281.9 237.3L191.8 144.4L102.2 237.3zM0 64C0 28.65 28.65 0 64 0H320C355.3 0 384 28.65 384 64V448C384 483.3 355.3 512 320 512H64C28.65 512 0 483.3 0 448V64zM16 64V448C16 474.5 37.49 496 64 496H320C346.5 496 368 474.5 368 448V64C368 37.49 346.5 16 320 16H64C37.49 16 16 37.49 16 64z"/></svg>