<svg xmlns="http://www.w3.org/2000/svg" viewBox="0 0 640 512"><!--! Font Awesome Pro 6.1.1 by @fontawesome - https://fontawesome.com License - https://fontawesome.com/license (Commercial License) Copyright 2022 Fonticons, Inc. --><path d="M49.32 118.1L48.31 117.8L70.36 40.62C77.23 16.57 99.2 0 124.2 0H259.8C284.8 0 306.8 16.57 313.6 40.62L335.7 117.8L334.7 118.1C348.3 123.7 359.9 133 368.5 144.7C362.5 145.4 356.6 146.7 350.1 148.5C339.3 135.9 322.6 128 304 128H80C44.65 128 16 156.7 16 192V256H275.8L271.2 272H16V328C16 332.4 12.42 336 8 336C3.582 336 0 332.4 0 328V192C0 158.7 20.36 130.1 49.32 118.1L49.32 118.1zM66.27 113.2C70.73 112.4 75.32 112 79.1 112H303.1C308.7 112 313.3 112.4 317.7 113.2L298.3 45.01C293.3 27.84 277.7 15.1 259.8 15.1H124.2C106.3 15.1 90.65 27.84 85.74 45.01L66.27 113.2zM47.1 192C47.1 174.3 62.33 160 79.1 160C97.67 160 111.1 174.3 111.1 192C111.1 209.7 97.67 224 79.1 224C62.33 224 47.1 209.7 47.1 192zM79.1 176C71.16 176 63.1 183.2 63.1 192C63.1 200.8 71.16 208 79.1 208C88.84 208 95.1 200.8 95.1 192C95.1 183.2 88.84 176 79.1 176zM303.1 368C303.1 350.3 318.3 336 336 336C353.7 336 368 350.3 368 368C368 385.7 353.7 400 336 400C318.3 400 303.1 385.7 303.1 368zM336 352C327.2 352 319.1 359.2 319.1 368C319.1 376.8 327.2 384 336 384C344.8 384 352 376.8 352 368C352 359.2 344.8 352 336 352zM592 368C592 385.7 577.7 400 560 400C542.3 400 528 385.7 528 368C528 350.3 542.3 336 560 336C577.7 336 592 350.3 592 368zM560 384C568.8 384 576 376.8 576 368C576 359.2 568.8 352 560 352C551.2 352 544 359.2 544 368C544 376.8 551.2 384 560 384zM305.3 294.1L304.3 293.8L326.4 216.6C333.2 192.6 355.2 176 380.2 176H515.8C540.8 176 562.8 192.6 569.6 216.6L591.7 293.8L590.7 294.1C619.6 306.1 640 334.7 640 368V504C640 508.4 636.4 512 632 512C627.6 512 624 508.4 624 504V448H271.1V504C271.1 508.4 268.4 512 263.1 512C259.6 512 255.1 508.4 255.1 504V368C255.1 334.7 276.4 306.1 305.3 294.1H305.3zM322.3 289.2C326.7 288.4 331.3 288 336 288H560C564.7 288 569.3 288.4 573.7 289.2L554.3 221C549.3 203.8 533.7 191.1 515.8 191.1H380.2C362.3 191.1 346.7 203.8 341.7 221L322.3 289.2zM624 432V368C624 332.7 595.3 304 560 304H336C300.7 304 271.1 332.7 271.1 368V432H624z"/></svg>