<svg xmlns="http://www.w3.org/2000/svg" viewBox="0 0 640 512"><!--! Font Awesome Pro 6.0.0-beta3 by @fontawesome - https://fontawesome.com License - https://fontawesome.com/license (Commercial License) Copyright 2021 Fonticons, Inc. --><path d="M64 0C67.64 0 70.82 2.458 71.74 5.98L78.53 32H541.8C562.1 32 578.3 52.25 572.6 72.66L537.6 196.9C532.4 195.7 527.2 194.7 521.8 193.9L557.2 68.33C560 58.13 552.4 48 541.8 48H82.7L141.1 272H348.5C345.1 277.2 342 282.5 339.2 288H145.3L166.2 368H319.1C319.1 373.4 320.2 378.7 320.7 384H159.1C156.4 384 153.2 381.5 152.3 378L57.82 16H8C3.582 16 0 12.42 0 8C0 3.582 3.582 .0003 8 .0003L64 0zM128 464C128 437.5 149.5 416 176 416C202.5 416 224 437.5 224 464C224 490.5 202.5 512 176 512C149.5 512 128 490.5 128 464zM176 496C193.7 496 208 481.7 208 464C208 446.3 193.7 432 176 432C158.3 432 144 446.3 144 464C144 481.7 158.3 496 176 496zM480 432C480 423.2 487.2 416 496 416C504.8 416 512 423.2 512 432C512 440.8 504.8 448 496 448C487.2 448 480 440.8 480 432zM495.1 280C500.4 280 503.1 283.6 503.1 288V384C503.1 388.4 500.4 392 495.1 392C491.6 392 487.1 388.4 487.1 384V288C487.1 283.6 491.6 280 495.1 280zM640 368C640 447.5 575.5 512 496 512C416.5 512 352 447.5 352 368C352 288.5 416.5 224 496 224C575.5 224 640 288.5 640 368zM496 240C425.3 240 368 297.3 368 368C368 438.7 425.3 496 496 496C566.7 496 624 438.7 624 368C624 297.3 566.7 240 496 240z"/></svg>