<svg xmlns="http://www.w3.org/2000/svg" viewBox="0 0 640 512"><!--! Font Awesome Pro 6.1.1 by @fontawesome - https://fontawesome.com License - https://fontawesome.com/license (Commercial License) Copyright 2022 Fonticons, Inc. --><path d="M64 8C64 3.582 67.58 0 72 0H128C131.6 0 134.8 2.458 135.7 5.98L142.5 32H605.8C626.1 32 642.3 52.25 636.6 72.66L582.6 264.7C578.7 278.5 566.1 288 551.8 288H209.3L230.2 368H560C564.4 368 568 371.6 568 376C568 380.4 564.4 384 560 384H223.1C220.4 384 217.2 381.5 216.3 378L121.8 16H71.1C67.58 16 63.1 12.42 63.1 8H64zM551.8 272C558.9 272 565.2 267.2 567.2 260.3L621.2 68.33C624 58.13 616.4 48 605.8 48H146.7L205.1 272H551.8zM288 464C288 490.5 266.5 512 240 512C213.5 512 192 490.5 192 464C192 437.5 213.5 416 240 416C266.5 416 288 437.5 288 464zM240 432C222.3 432 208 446.3 208 464C208 481.7 222.3 496 240 496C257.7 496 272 481.7 272 464C272 446.3 257.7 432 240 432zM480 464C480 437.5 501.5 416 528 416C554.5 416 576 437.5 576 464C576 490.5 554.5 512 528 512C501.5 512 480 490.5 480 464zM528 496C545.7 496 560 481.7 560 464C560 446.3 545.7 432 528 432C510.3 432 496 446.3 496 464C496 481.7 510.3 496 528 496zM120 128C124.4 128 128 131.6 128 136C128 140.4 124.4 144 120 144H8C3.582 144 0 140.4 0 136C0 131.6 3.582 128 8 128H120zM136 192C140.4 192 144 195.6 144 200C144 204.4 140.4 208 136 208H8C3.582 208 0 204.4 0 200C0 195.6 3.582 192 8 192H136zM152 256C156.4 256 160 259.6 160 264C160 268.4 156.4 272 152 272H8C3.582 272 0 268.4 0 264C0 259.6 3.582 256 8 256H152z"/></svg>