<svg xmlns="http://www.w3.org/2000/svg" viewBox="0 0 576 512"><!--! Font Awesome Pro 6.1.1 by @fontawesome - https://fontawesome.com License - https://fontawesome.com/license (Commercial License) Copyright 2022 Fonticons, Inc. --><path d="M78.53 32H288V48H82.7L141.1 272H487.8C494.9 272 501.2 267.2 503.2 260.3L557.2 68.33C560 58.13 552.4 48 541.8 48H384V32H541.8C562.1 32 578.3 52.25 572.6 72.66L518.6 264.7C514.7 278.5 502.1 288 487.8 288H145.3L166.2 368H496C500.4 368 504 371.6 504 376C504 380.4 500.4 384 496 384H159.1C156.4 384 153.2 381.5 152.3 378L57.82 16H8C3.582 16 0 12.42 0 8C0 3.582 3.582 0 8 0H64C67.64 0 70.82 2.458 71.74 5.98L78.53 32zM128 464C128 437.5 149.5 416 176 416C202.5 416 224 437.5 224 464C224 490.5 202.5 512 176 512C149.5 512 128 490.5 128 464zM176 496C193.7 496 208 481.7 208 464C208 446.3 193.7 432 176 432C158.3 432 144 446.3 144 464C144 481.7 158.3 496 176 496zM512 464C512 490.5 490.5 512 464 512C437.5 512 416 490.5 416 464C416 437.5 437.5 416 464 416C490.5 416 512 437.5 512 464zM464 432C446.3 432 432 446.3 432 464C432 481.7 446.3 496 464 496C481.7 496 496 481.7 496 464C496 446.3 481.7 432 464 432zM344 180.7L410.3 114.3C413.5 111.2 418.5 111.2 421.7 114.3C424.8 117.5 424.8 122.5 421.7 125.7L341.7 205.7C338.5 208.8 333.5 208.8 330.3 205.7L250.3 125.7C247.2 122.5 247.2 117.5 250.3 114.3C253.5 111.2 258.5 111.2 261.7 114.3L328 180.7V8C328 3.582 331.6 0 336 0C340.4 0 344 3.582 344 8L344 180.7z"/></svg>