<svg xmlns="http://www.w3.org/2000/svg" viewBox="0 0 640 512"><!--! Font Awesome Pro 6.0.0-beta3 by @fontawesome - https://fontawesome.com License - https://fontawesome.com/license (Commercial License) Copyright 2021 Fonticons, Inc. --><path d="M632 416H128V72C128 29.59 101.7 0 64 0H8C3.594 0 0 3.594 0 8S3.594 16 8 16H64c33.16 0 48 28.12 48 56v352c0 4.406 3.594 8 8 8h52.46C164.8 440.5 160 451.6 160 464C160 490.5 181.5 512 208 512S256 490.5 256 464c0-12.35-4.797-23.49-12.46-32h216.9c-7.664 8.508-12.41 19.65-12.41 32c0 26.51 21.48 48 47.99 48s48.01-21.49 48.01-48c0-12.35-4.852-23.49-12.51-32H632c4.406 0 8-3.596 8-8.002S636.4 416 632 416zM208 496c-17.64 0-32-14.36-32-32s14.36-32 32-32s32 14.36 32 32S225.6 496 208 496zM496 496c-17.64 0-32-14.36-32-32s14.36-32 32-32s32 14.36 32 32S513.6 496 496 496zM240 352h288c26.51 0 48-21.49 48-48v-128C576 149.5 554.5 128 528 128H480V72C480 49.94 462.1 32 440 32h-112C305.9 32 288 49.94 288 72V128H240C213.5 128 192 149.5 192 176v128C192 330.5 213.5 352 240 352zM496 144h32c17.64 0 32 14.36 32 32v128c0 17.64-14.36 32-32 32h-32V144zM304 72c0-13.22 10.78-24 24-24h112c13.22 0 24 10.78 24 24V128h-160V72zM288 144h192v192H288V144zM208 176c0-17.64 14.36-32 32-32h32v192h-32c-17.64 0-32-14.36-32-32V176z"/></svg>