<svg xmlns="http://www.w3.org/2000/svg" viewBox="0 0 576 512"><!--! Font Awesome Pro 6.0.0-beta3 by @fontawesome - https://fontawesome.com License - https://fontawesome.com/license (Commercial License) Copyright 2021 Fonticons, Inc. --><path d="M512 32H64C28.66 32 0 60.65 0 96v320c0 35.35 28.66 64 64 64h448c35.34 0 64-28.65 64-64V96C576 60.65 547.3 32 512 32zM560 416c0 26.47-21.53 48-48 48H64c-26.47 0-48-21.53-48-48V144h544V416zM560 128h-544V96c0-26.47 21.53-48 48-48h448c26.47 0 48 21.53 48 48V128zM160 400c53.02 0 96-42.98 96-96s-42.98-96-96-96s-96 42.98-96 96S106.1 400 160 400zM160 224c44.11 0 80 35.89 80 80S204.1 384 160 384s-80-35.89-80-80S115.9 224 160 224zM160 336c17.67 0 32-14.33 32-32c0-17.67-14.33-32-32-32s-32 14.33-32 32C128 321.7 142.3 336 160 336zM160 288c8.822 0 16 7.178 16 16S168.8 320 160 320S144 312.8 144 304S151.2 288 160 288zM336 400h160c8.836 0 16-7.164 16-16V224c0-8.838-7.164-16-16-16h-160C327.2 208 320 215.2 320 224v160C320 392.8 327.2 400 336 400zM336 224h160v160h-160V224z"/></svg>