<svg xmlns="http://www.w3.org/2000/svg" viewBox="0 0 576 512"><!--! Font Awesome Pro 6.0.0-beta3 by @fontawesome - https://fontawesome.com License - https://fontawesome.com/license (Commercial License) Copyright 2021 Fonticons, Inc. --><path d="M416 128c-8.875 0-16 7.125-16 16s7.125 16 16 16s16-7.125 16-16S424.9 128 416 128zM571.2 .6978c-2.891-1.295-6.297-.7187-8.625 1.453l-67.03 61.87h-63.09l-67.03-61.87c-2.328-2.172-5.734-2.779-8.625-1.453C353.9 1.979 352 4.854 352 8.026v151.1c0 5.475 .8535 10.73 1.617 15.1H296c-82.5 0-153.5 50.22-184 121.7V200c0-57.34-46.66-104-104-104c-4.422 0-8 3.578-8 8s3.578 8 8 8c48.53 0 88 39.47 88 88v224c0 48.53 39.47 87.1 88 87.1h176c4.422 0 8-3.578 8-7.1v-32c0-22.06-17.94-40-40-40h-20.91L408 366.7v113.3c0 17.64 14.36 31.1 32 31.1h32c17.64 0 32-14.36 32-31.1V264.3C545.1 248.1 576 207.6 576 160V8.026C576 4.854 574.1 1.979 571.2 .6978zM488 480c0 8.828-7.172 16-16 16h-32c-8.828 0-16-7.172-16-16v-128c0-6.357-7.033-10.13-12.34-6.719L288 425.3v-9.295c0-52.94-43.06-96-96-96c-4.422 0-8 3.578-8 8s3.578 8 8 8c44.11 0 80 35.89 80 80v24c0 4.418 3.582 8 8 8h48c13.23 0 24 10.77 24 24v23.1l-168 .0004c-39.7 0-72-32.3-72-72v-47.1c0-101.5 82.55-184 184-184l61.24-.0003C371.1 238.1 413.4 272 464 272c8.254 0 16.25-1.029 24-2.732V480zM560 160c0 52.93-43.06 95.99-96 95.99s-96-43.06-96-95.1V26.29l55.91 51.61c1.469 1.373 3.406 2.123 5.422 2.123h69.34c2.016 0 3.953-.75 5.422-2.123L560 26.29V160zM496 144c0 8.875 7.125 16 16 16s16-7.125 16-16s-7.125-16-16-16S496 135.1 496 144z"/></svg>