<svg xmlns="http://www.w3.org/2000/svg" viewBox="0 0 512 512"><!--! Font Awesome Pro 6.0.0-beta3 by @fontawesome - https://fontawesome.com License - https://fontawesome.com/license (Commercial License) Copyright 2021 Fonticons, Inc. --><path d="M458.6 255.9l45.1-45c13.75-12.88 7.251-36-10.62-40.25L431.2 154.6l17.75-62c4.393-15.71-8.102-30.64-23.32-30.64c-2.102 0-4.253 .2836-6.423 .8911l-61.99 17.75l-15.87-62.75c-2.688-11.15-13.03-17.85-23.49-17.85c-6.078-.002-12.2 2.26-16.88 7.221L256 53.6L211 7.23C206.3 2.279 200.2-.0012 194.1-.0012c-10.4 0-20.69 6.598-23.44 17.86L154.8 80.6L92.76 62.85c-2.168-.6074-4.322-.8911-6.423-.8911c-15.22-.002-27.72 14.93-23.32 30.64L80.76 154.6L18.02 170.6c-17.88 4.25-24.25 27.38-10.62 40.25l45.1 45L7.395 300.9c-13.75 13-7.251 36.13 10.62 40.38l62.74 16L63.02 419.2c-4.402 15.74 8.154 30.61 23.42 30.61c2.07 0 4.191-.274 6.328-.856l61.99-17.75l15.87 62.75c2.807 11.54 12.91 18.02 23.17 18.02c6.197 0 12.45-2.36 17.2-7.393L256 458.6l44.1 46c4.654 5.027 10.83 7.35 16.98 7.35c10.36 0 20.64-6.6 23.39-17.98l15.87-62.75l61.99 17.75c2.135 .582 4.257 .856 6.328 .856c15.27 0 27.82-14.87 23.42-30.61l-17.75-62l62.74-16c17.88-4.25 24.25-27.37 10.62-40.38L458.6 255.9zM495.6 320.2c-.3633 1.344-1.613 4.564-5.615 5.518l-78.71 20.07l22.26 77.74c.8496 3.037-.2715 5.387-1.361 6.824c-1.648 2.174-4.135 3.471-6.648 3.471c-.6953 0-1.408-.0977-1.926-.2383l-77.86-22.29l-19.96 78.92c-.9512 3.936-4.729 5.729-7.836 5.729c-2.115 0-3.879-.7461-5.547-2.539L256 435.7l-56.63 57.9c-1.855 1.963-4.051 2.375-5.568 2.375c-2.865 0-6.582-1.518-7.658-5.941L166.2 411.3l-77.67 22.24c-.7109 .1953-1.424 .293-2.119 .293c-2.512 0-4.998-1.299-6.648-3.473c-1.09-1.436-2.211-3.787-1.387-6.73l22.28-77.84L21.72 325.7c-3.805-.9043-5.062-4.16-5.428-5.518C15.84 318.5 15.51 315.2 18.58 312.3l57.69-56.44L18.38 199.2c-2.93-2.77-2.4-6.227-2.035-7.584C16.71 190.3 17.96 187.1 21.97 186.1l78.71-20.07L78.42 88.29c-.8555-3.063 .2793-5.438 1.383-6.893c1.635-2.152 4.076-3.438 6.531-3.438c.6934 0 1.404 .0996 2.021 .2715L166.2 100.5l19.95-78.87C187.1 17.77 190.9 15.1 194.1 15.1c2.129 0 3.91 .7441 5.449 2.371L256 76.58l56.63-58.37c1.383-1.463 3.148-2.205 5.248-2.205c3.273 0 7.053 1.922 7.98 5.77l19.92 78.75l77.77-22.27c.7109-.1992 1.422-.2988 2.113-.2988c2.457 0 4.898 1.285 6.533 3.439c1.104 1.453 2.238 3.83 1.408 6.797l-22.28 77.84l78.96 20.13c3.82 .9082 5.074 4.172 5.436 5.533c.4414 1.662 .7617 4.842-2.299 7.713l-57.69 56.44l57.83 56.57C496.6 315.3 496 318.8 495.6 320.2z"/></svg>