<svg xmlns="http://www.w3.org/2000/svg" viewBox="0 0 448 512"><!--! Font Awesome Pro 6.1.1 by @fontawesome - https://fontawesome.com License - https://fontawesome.com/license (Commercial License) Copyright 2022 Fonticons, Inc. --><path d="M445.1 338.6l-14.77-32C425.1 295.3 413.7 288 401.2 288h-17.23l-.0032-152c0-74.98-61-136-136-136h-48c-75 0-136 61.02-136 136L63.1 288H46.76C34.28 288 22.94 295.3 17.7 306.6l-14.77 32c-4.562 9.906-3.766 21.47 2.109 30.66S21.09 384 31.1 384h15.1v120c0 4.422 3.57 8 7.977 8s8.023-3.578 8.023-8L63.1 384h320l-.0012 120c0 4.422 3.575 8 7.981 8s8.019-3.578 8.019-8V384h16c10.91 0 21.08-5.562 26.95-14.75S449.6 348.5 445.1 338.6zM367.1 136V288h-71.1l-.0027-261.8C338.3 44.74 367.1 86.91 367.1 136zM247.1 16c11.15 0 21.75 2.023 32 4.885V288h-48V16H247.1zM215.1 16V288h-48V20.88C178.3 18.02 188.8 16 199.1 16H215.1zM79.1 136c0-49.09 29.7-91.26 72-109.8L151.1 288H79.1V136zM429.5 360.6C426.5 365.2 421.5 368 415.1 368h-384c-5.486 0-10.52-2.756-13.47-7.369c-2.957-4.625-3.352-10.36-1.062-15.33l14.77-32C34.84 307.6 40.54 304 46.76 304h354.5c6.223 0 11.93 3.648 14.54 9.297l14.76 31.99C432.8 350.3 432.4 356 429.5 360.6z"/></svg>