<svg xmlns="http://www.w3.org/2000/svg" viewBox="0 0 512 512"><!--! Font Awesome Pro 6.0.0-beta3 by @fontawesome - https://fontawesome.com License - https://fontawesome.com/license (Commercial License) Copyright 2021 Fonticons, Inc. --><path d="M16 408C16 438.9 41.07 464 72 464H504C508.4 464 512 467.6 512 472C512 476.4 508.4 480 504 480H72C32.24 480 0 447.8 0 408V40C0 35.58 3.582 32 8 32C12.42 32 16 35.58 16 40V408zM320 112C337.7 112 352 126.3 352 144C352 161.7 337.7 176 320 176H128C110.3 176 96 161.7 96 144C96 126.3 110.3 112 128 112H320zM128 160H320C328.8 160 336 152.8 336 144C336 135.2 328.8 128 320 128H128C119.2 128 112 135.2 112 144C112 152.8 119.2 160 128 160zM256 208C273.7 208 288 222.3 288 240C288 257.7 273.7 272 256 272H128C110.3 272 96 257.7 96 240C96 222.3 110.3 208 128 208H256zM128 256H256C264.8 256 272 248.8 272 240C272 231.2 264.8 224 256 224H128C119.2 224 112 231.2 112 240C112 248.8 119.2 256 128 256zM384 304C401.7 304 416 318.3 416 336C416 353.7 401.7 368 384 368H128C110.3 368 96 353.7 96 336C96 318.3 110.3 304 128 304H384zM128 352H384C392.8 352 400 344.8 400 336C400 327.2 392.8 320 384 320H128C119.2 320 112 327.2 112 336C112 344.8 119.2 352 128 352z"/></svg>