<svg xmlns="http://www.w3.org/2000/svg" viewBox="0 0 512 512"><!--! Font Awesome Pro 6.0.0-beta3 by @fontawesome - https://fontawesome.com License - https://fontawesome.com/license (Commercial License) Copyright 2021 Fonticons, Inc. --><path d="M16 408C16 438.9 41.07 464 72 464H504C508.4 464 512 467.6 512 472C512 476.4 508.4 480 504 480H72C32.24 480 0 447.8 0 408V40C0 35.58 3.582 32 8 32C12.42 32 16 35.58 16 40V408zM352 352C347.6 352 344 348.4 344 344C344 339.6 347.6 336 352 336H452.7L288 171.3L197.7 261.7C194.5 264.8 189.5 264.8 186.3 261.7L90.34 165.7C87.22 162.5 87.22 157.5 90.34 154.3C93.47 151.2 98.53 151.2 101.7 154.3L192 244.7L282.3 154.3C285.5 151.2 290.5 151.2 293.7 154.3L464 324.7V223.1C464 219.6 467.6 215.1 472 215.1C476.4 215.1 480 219.6 480 223.1V344C480 348.4 476.4 352 472 352L352 352z"/></svg>