<svg xmlns="http://www.w3.org/2000/svg" viewBox="0 0 448 512"><!--! Font Awesome Pro 6.0.0-beta3 by @fontawesome - https://fontawesome.com License - https://fontawesome.com/license (Commercial License) Copyright 2021 Fonticons, Inc. --><path d="M240 32C266.5 32 288 53.49 288 80V432C288 458.5 266.5 480 240 480H208C181.5 480 160 458.5 160 432V80C160 53.49 181.5 32 208 32H240zM240 48H208C190.3 48 176 62.33 176 80V432C176 449.7 190.3 464 208 464H240C257.7 464 272 449.7 272 432V80C272 62.33 257.7 48 240 48zM80 224C106.5 224 128 245.5 128 272V432C128 458.5 106.5 480 80 480H48C21.49 480 0 458.5 0 432V272C0 245.5 21.49 224 48 224H80zM80 240H48C30.33 240 16 254.3 16 272V432C16 449.7 30.33 464 48 464H80C97.67 464 112 449.7 112 432V272C112 254.3 97.67 240 80 240zM320 144C320 117.5 341.5 96 368 96H400C426.5 96 448 117.5 448 144V432C448 458.5 426.5 480 400 480H368C341.5 480 320 458.5 320 432V144zM336 144V432C336 449.7 350.3 464 368 464H400C417.7 464 432 449.7 432 432V144C432 126.3 417.7 112 400 112H368C350.3 112 336 126.3 336 144z"/></svg>