<svg xmlns="http://www.w3.org/2000/svg" viewBox="0 0 512 512"><!--! Font Awesome Pro 6.0.0-beta3 by @fontawesome - https://fontawesome.com License - https://fontawesome.com/license (Commercial License) Copyright 2021 Fonticons, Inc. --><path d="M16 408C16 438.9 41.07 464 72 464H504C508.4 464 512 467.6 512 472C512 476.4 508.4 480 504 480H72C32.24 480 0 447.8 0 408V40C0 35.58 3.582 32 8 32C12.42 32 16 35.58 16 40V408zM256 112C273.7 112 288 126.3 288 144C288 161.7 273.7 176 256 176H160C142.3 176 128 161.7 128 144C128 126.3 142.3 112 160 112H256zM160 160H256C264.8 160 272 152.8 272 144C272 135.2 264.8 128 256 128H160C151.2 128 144 135.2 144 144C144 152.8 151.2 160 160 160zM352 208C369.7 208 384 222.3 384 240C384 257.7 369.7 272 352 272H224C206.3 272 192 257.7 192 240C192 222.3 206.3 208 224 208H352zM224 256H352C360.8 256 368 248.8 368 240C368 231.2 360.8 224 352 224H224C215.2 224 208 231.2 208 240C208 248.8 215.2 256 224 256zM448 304C465.7 304 480 318.3 480 336C480 353.7 465.7 368 448 368H352C334.3 368 320 353.7 320 336C320 318.3 334.3 304 352 304H448zM352 352H448C456.8 352 464 344.8 464 336C464 327.2 456.8 320 448 320H352C343.2 320 336 327.2 336 336C336 344.8 343.2 352 352 352z"/></svg>