<svg xmlns="http://www.w3.org/2000/svg" viewBox="0 0 640 512"><!--! Font Awesome Pro 6.1.1 by @fontawesome - https://fontawesome.com License - https://fontawesome.com/license (Commercial License) Copyright 2022 Fonticons, Inc. --><path d="M160 320c53.02 0 96-42.98 96-96c0-53.02-42.98-96-96-96C106.1 128 64 170.1 64 224C64 277 106.1 320 160 320zM160 144c44.11 0 80 35.89 80 80c0 44.11-35.89 80-80 80S80 268.1 80 224C80 179.9 115.9 144 160 144zM584 0H216C185.1 0 160 25.12 160 56v32C160 92.41 163.6 96 168 96S176 92.41 176 88v-32c0-22.06 17.94-40 40-40h368c22.06 0 40 17.94 40 40v304c0 22.06-17.94 40-40 40h-240c-4.406 0-8 3.594-8 8S339.6 416 344 416h240c30.88 0 56-25.12 56-56v-304C640 25.12 614.9 0 584 0zM192 352H128c-70.69 0-128 57.3-128 128c0 17.67 14.33 32 32 32h256c17.67 0 32-14.33 32-32C320 409.3 262.7 352 192 352zM288 496H32c-8.822 0-16-7.178-16-16c0-61.76 50.24-112 112-112h64c61.76 0 112 50.24 112 112C304 488.8 296.8 496 288 496zM309.7 170.3c-3.125-3.125-8.188-3.125-11.31 0s-3.125 8.188 0 11.31l80 80C379.9 263.2 381.9 264 384 264s4.094-.7813 5.656-2.344L512 139.3V216C512 220.4 515.6 224 520 224s8-3.594 8-8v-96c0-4.406-3.594-8-8-8h-96C419.6 112 416 115.6 416 120S419.6 128 424 128h76.69L384 244.7L309.7 170.3z"/></svg>