<svg xmlns="http://www.w3.org/2000/svg" viewBox="0 0 512 512"><!--! Font Awesome Pro 6.1.1 by @fontawesome - https://fontawesome.com License - https://fontawesome.com/license (Commercial License) Copyright 2022 Fonticons, Inc. --><path d="M16 408C16 438.9 41.07 464 72 464H504C508.4 464 512 467.6 512 472C512 476.4 508.4 480 504 480H72C32.24 480 0 447.8 0 408V40C0 35.58 3.582 32 8 32C12.42 32 16 35.58 16 40V408zM472 128C476.4 128 480 131.6 480 136V256C480 260.4 476.4 264 472 264C467.6 264 464 260.4 464 256V155.3L293.7 325.7C290.5 328.8 285.5 328.8 282.3 325.7L192 235.3L101.7 325.7C98.53 328.8 93.47 328.8 90.34 325.7C87.22 322.5 87.22 317.5 90.34 314.3L186.3 218.3C189.5 215.2 194.5 215.2 197.7 218.3L288 308.7L452.7 143.1H352C347.6 143.1 344 140.4 344 135.1C344 131.6 347.6 127.1 352 127.1L472 128z"/></svg>