<svg xmlns="http://www.w3.org/2000/svg" viewBox="0 0 512 512"><!--! Font Awesome Pro 6.0.0-beta3 by @fontawesome - https://fontawesome.com License - https://fontawesome.com/license (Commercial License) Copyright 2021 Fonticons, Inc. --><path d="M485.7 162.3c-3.125-3.125-8.188-3.125-11.31 0L192 444.7L37.66 290.3c-3.125-3.125-8.188-3.125-11.31 0s-3.125 8.188 0 11.31l160 160C187.9 463.2 189.1 464 192 464s4.094-.7813 5.656-2.344l288-288C488.8 170.5 488.8 165.5 485.7 162.3zM186.3 237.7C187.9 239.2 189.1 240 192 240s4.094-.7813 5.656-2.344l192-192c3.125-3.125 3.125-8.188 0-11.31s-8.188-3.125-11.31 0L192 220.7L101.7 130.3c-3.125-3.125-8.188-3.125-11.31 0s-3.125 8.188 0 11.31L186.3 237.7z"/></svg>