<svg xmlns="http://www.w3.org/2000/svg" viewBox="0 0 576 512"><!--! Font Awesome Pro 6.1.1 by @fontawesome - https://fontawesome.com License - https://fontawesome.com/license (Commercial License) Copyright 2022 Fonticons, Inc. --><path d="M56 416c0 4.406 3.594 8 8 8h448c4.406 0 8-3.594 8-8s-3.594-8-8-8H64C59.59 408 56 411.6 56 416zM268.4 288c.25 0 .5313 0 .7813-.0313C271.5 287.8 273.5 286.6 274.8 284.8l107.6-144c2.656-3.531 1.906-8.531-1.625-11.19c-3.531-2.594-8.531-1.875-11.19 1.625L267.3 268.2L205.3 212.3C202.1 209.4 197 209.7 194.1 212.9C191.1 216.2 191.4 221.3 194.7 224.2l68.44 61.72C264.6 287.3 266.5 288 268.4 288zM536 352h-16C515.6 352 512 355.6 512 360s3.594 8 8 8h16c13.22 0 24 10.78 24 24v48c0 13.22-10.78 24-24 24H40c-13.22 0-24-10.78-24-24v-48c0-13.22 10.78-24 24-24h16C60.41 368 64 364.4 64 360S60.41 352 56 352h-16C17.94 352 0 369.9 0 392v48C0 462.1 17.94 480 40 480h496c22.06 0 40-17.94 40-40v-48C576 369.9 558.1 352 536 352zM104 368c4.406 0 8-3.594 8-8v-288c0-13.22 10.78-24 24-24h304c13.22 0 24 10.78 24 24v288c0 4.406 3.594 8 8 8S480 364.4 480 360v-288C480 49.94 462.1 32 440 32h-304C113.9 32 96 49.94 96 72v288C96 364.4 99.59 368 104 368z"/></svg>