<svg xmlns="http://www.w3.org/2000/svg" viewBox="0 0 640 512"><!--! Font Awesome Pro 6.0.0-beta3 by @fontawesome - https://fontawesome.com License - https://fontawesome.com/license (Commercial License) Copyright 2021 Fonticons, Inc. --><path d="M535.9 224.2c-21.83 0-48.63 4.836-81.2 17.76c-33.48-147.3-159.4-241.1-166.8-241.1c-15.72 0-28.1 168.1-101.5 242.4C153.4 229.1 126.2 224.2 104.2 224.2C86.96 224.2 0 229.2 0 331.9c0 26.4 25.2 180.1 191.1 180.1c167.5 0 192-153.1 192-180.1c0-109.6-99.52-107.7-104.1-107.7c-18.92 0-41.56 3.623-68.45 12.98C231.9 209.7 269.9 145.2 293.5 22.36c29.67 24.06 115.8 102.8 144.1 218.3c-17.12-6.562-19.29-7.372-21.52-7.372c-3.445 0-6.648 2.186-7.725 5.635c-.2352 .7773-.3472 1.562-.3472 2.334c0 8.863 6.452 6.107 36.81 19.26l3.187 1.375l3.187-1.375c31.58-13.69 60.01-20.56 84.43-20.56c86.87 0 88.39 81.12 88.39 92c0 23.52-22.41 164.1-176 164.1c-38.55 0-60.5-10.08-64.04-10.08c-4.335 0-7.966 3.582-7.966 8.006c0 3.351 2.129 6.481 5.478 7.593c20.72 6.953 43.07 10.48 66.47 10.48C615.4 511.1 640 358.9 640 331.9C640 315.3 634.3 224.2 535.9 224.2zM279.6 239.9c86.87 0 88.39 81.12 88.39 92c0 23.52-22.41 164.1-176 164.1c-153.3 0-176-139.1-176-164.1c0-94.5 83.96-92 88.38-92c24.44 0 52.84 6.859 84.43 20.55l3.187 1.375l3.187-1.375C226.8 246.8 255.2 239.9 279.6 239.9z"/></svg>