<svg xmlns="http://www.w3.org/2000/svg" viewBox="0 0 256 512"><!--! Font Awesome Pro 6.0.0-beta3 by @fontawesome - https://fontawesome.com License - https://fontawesome.com/license (Commercial License) Copyright 2021 Fonticons, Inc. --><path d="M75.7 224H64C59.59 224 56 227.6 56 232S59.59 240 64 240h11.75c0 0-11.74 135.8-11.74 136c0 1.407 1.1 8.014 8.142 8.014c3.911 0 7.504-3.229 7.825-7.33L91.79 240h72.41l11.82 136.7C176.4 380.9 179.9 384 184 384c5.749 0 7.998-5.08 7.998-7.996c0-.2287-.0097-.4593-.0294-.6913L180.3 240H192c4.406 0 8-3.578 8-8S196.4 224 192 224h-11.7l38.17-96.7c.9966-2.596 1.486-5.322 1.486-8.05C219.1 107.1 210.3 96 196.8 96H136V48h32c4.406 0 8-3.578 8-8S172.4 32 168 32h-32V8c0-4.422-3.587-8-7.994-8S120 3.578 120 8V32h-32C83.59 32 80 35.58 80 40S83.59 48 88 48h32V96H59.16C46.39 96 36.01 106.3 36.01 119c0 2.8 .5125 5.622 1.556 8.327L75.7 224zM51.97 119C51.97 117.3 53.36 112 59.16 112h137.7c5.52 0 7.14 5.056 7.14 7.28c0 .7691-.1285 1.519-.3896 2.204L163.1 224H92.89L52.47 121.5C52.11 120.6 51.97 119.8 51.97 119zM242.7 452.4L224 443.1V432c0-13.23-10.78-24-24-24h-144C42.78 408 32 418.8 32 432v11.06l-18.56 9.344C5.281 456.3 0 464.7 0 473.9V488C0 501.2 10.78 512 24 512h208c13.22 0 24-10.77 24-24v-14.12C256 464.8 250.8 456.3 242.7 452.4zM240 488c0 4.484-3.5 8-8 8h-208c-4.5 0-8-3.516-8-8v-14.12c0-3.016 1.688-5.781 4.469-7.109L48 452.9V432c0-4.484 3.5-8 8-8h144c4.5 0 8 3.516 8 8v20.94l27.53 13.83C238.2 468 240 470.9 240 473.9V488z"/></svg>