<svg xmlns="http://www.w3.org/2000/svg" viewBox="0 0 640 512"><!--! Font Awesome Pro 6.1.1 by @fontawesome - https://fontawesome.com License - https://fontawesome.com/license (Commercial License) Copyright 2022 Fonticons, Inc. --><path d="M351.9 304c0 61.86 50.14 111.1 112 111.1s112-50.08 112-111.9S525.8 192 463.9 192S351.9 242.2 351.9 304zM368 304c0-52.94 43.07-96 96-96s96 43.06 96 96c0 52.93-43.07 96-96 96S368 356.9 368 304zM176 192C114.1 192 63.94 242.1 63.94 304s50.14 112 112 112s112-50.12 112-111.1S237.9 192 176 192zM176 400c-52.93 0-96-43.07-96-96c0-52.94 43.07-96 96-96s96 43.06 96 96C272 356.9 228.9 400 176 400zM0 192l0 224c0 35.35 28.65 64 64 64h512c35.35 0 64-28.65 64-64V192c0-35.35-28.65-64-64-64h-104V48h64C540.4 48 544 44.42 544 40S540.4 32 536 32h-144C387.6 32 384 35.58 384 40s3.594 8 8 8h64V128H64C28.65 128 0 156.7 0 192zM16 192c0-26.47 21.53-48 48-48h512c26.47 0 48 21.53 48 48v224c0 26.47-21.53 48-48 48H64c-26.47 0-48-21.53-48-48V192zM256 88C256 83.58 252.4 80 248 80h-144C99.59 80 96 83.58 96 88S99.59 96 104 96h144C252.4 96 256 92.42 256 88zM456 240v64c0 4.422 3.594 8 8 8s8-3.578 8-8v-64c0-4.422-3.594-8-8-8S456 235.6 456 240zM221.3 250.8c-2.047 0-4.094 .7813-5.656 2.344L170.3 298.3C168.8 299.9 168 301.1 168 304c0 2.906 2.281 8 8 8c2.062 0 4.094-.7813 5.656-2.344l45.25-45.25c1.562-1.562 2.344-3.609 2.344-5.656C229.3 254.5 225.8 250.8 221.3 250.8z"/></svg>