<svg xmlns="http://www.w3.org/2000/svg" viewBox="0 0 640 512"><!--! Font Awesome Pro 6.0.0-beta3 by @fontawesome - https://fontawesome.com License - https://fontawesome.com/license (Commercial License) Copyright 2021 Fonticons, Inc. --><path d="M176 192C114.1 192 64 242.1 64 304S114.1 416 176 416S288 365.9 288 304S237.9 192 176 192zM176 400c-52.93 0-96-43.07-96-96c0-52.94 43.07-96 96-96s96 43.06 96 96C272 356.9 228.9 400 176 400zM464 192C402.1 192 352 242.1 352 304s50.14 112 112 112S576 365.9 576 304S525.9 192 464 192zM464 400c-52.93 0-96-43.07-96-96c0-52.94 43.07-96 96-96s96 43.06 96 96C560 356.9 516.9 400 464 400zM576 128H184V48h64C252.4 48 256 44.42 256 40S252.4 32 248 32h-144C99.59 32 96 35.58 96 40S99.59 48 104 48h64V128H64C28.65 128 0 156.7 0 192v224c0 35.35 28.65 64 64 64h512c35.35 0 64-28.65 64-64V192C640 156.7 611.3 128 576 128zM624 416c0 26.47-21.53 48-48 48H64c-26.47 0-48-21.53-48-48V192c0-26.47 21.53-48 48-48h512c26.47 0 48 21.53 48 48V416zM392 96h144C540.4 96 544 92.42 544 88S540.4 80 536 80h-144C387.6 80 384 83.58 384 88S387.6 96 392 96zM176 232c-4.406 0-8 3.578-8 8v64c0 4.422 3.594 8 8 8S184 308.4 184 304v-64C184 235.6 180.4 232 176 232zM509.3 250.8c-2.047 0-4.094 .7813-5.656 2.344l-45.25 45.25C456.8 299.9 456 301.1 456 304c0 2.906 2.281 8 8 8c2.062 0 4.094-.7813 5.656-2.344l45.25-45.25c1.562-1.562 2.344-3.609 2.344-5.656C517.3 254.5 513.8 250.8 509.3 250.8z"/></svg>