<svg xmlns="http://www.w3.org/2000/svg" viewBox="0 0 320 512"><!--! Font Awesome Pro 6.1.1 by @fontawesome - https://fontawesome.com License - https://fontawesome.com/license (Commercial License) Copyright 2022 Fonticons, Inc. --><path d="M264 448h-208C25.13 448 0 473.1 0 504C0 508.4 3.594 512 8 512s8-3.578 8-8c0-22.06 17.94-40 40-40h208c22.06 0 40 17.94 40 40c0 4.422 3.594 8 8 8S320 508.4 320 504C320 473.1 294.9 448 264 448zM56 386.2V408C56 412.4 59.59 416 64 416s8-3.578 8-8v-27.5c0-15.07-56-5.087-56-84.63c0-115.4 112.6-221.8 112.6-225.4c0-3.222-2.089-6.786-6.116-7.771C111.6 60.09 104 50.75 104 40C104 26.77 114.8 16 128 16h64c13.22 0 24 10.77 24 24c0 10.75-7.594 20.09-18.5 22.72c-4.04 .9884-6.116 4.554-6.116 7.771c0 8.85 32.63 22.61 74.32 100.5l-103.3 103.4c-1.568 1.568-2.354 3.618-2.354 5.666C160 282.9 162.3 288 168 288c2.062 0 4.156-.8021 5.719-2.365l99.51-99.55C291.4 223.6 304 263.1 304 295.9c0 79.52-56 69.41-56 84.63V408c0 4.422 3.594 8 8 8s8-3.578 8-8v-21.78C302.2 372.1 320 343.2 320 295.9c0-72.75-54.16-173.5-106-223C225 65.69 232 53.52 232 40C232 17.94 214.1 0 192 0H128C105.9 0 88 17.94 88 40c0 13.52 7 25.69 18.03 32.84C54.16 122.4 0 223.1 0 295.9C0 343.2 17.84 372.1 56 386.2z"/></svg>