<svg xmlns="http://www.w3.org/2000/svg" viewBox="0 0 320 512"><!--! Font Awesome Pro 6.1.1 by @fontawesome - https://fontawesome.com License - https://fontawesome.com/license (Commercial License) Copyright 2022 Fonticons, Inc. --><path d="M264 448h-208C25.13 448 0 473.1 0 504C0 508.4 3.578 512 8 512s8-3.578 8-8c0-22.06 17.94-40 40-40h208c22.06 0 40 17.94 40 40c0 4.422 3.578 8 8 8S320 508.4 320 504C320 473.1 294.9 448 264 448zM56 232C56 236.4 59.58 240 64 240h37.98l-37.78 166.2c-.1367 .5969-.2023 1.194-.2023 1.782C64 412 67.21 416 72 416c3.656 0 6.953-2.516 7.797-6.234L118.4 240h83.24l38.58 169.8C241 413.5 244.3 416 248 416c4.759 0 7.999-3.937 7.999-7.984c0-.588-.0656-1.185-.2023-1.782L218 240H256c4.422 0 8-3.578 8-8S260.4 224 256 224h-41.12C244.3 205.6 264 173.2 264 136C264 78.56 217.4 32 159.1 32S56 78.56 56 136c0 37.22 19.73 69.62 49.12 88H64C59.58 224 56 227.6 56 232zM72 136C72 87.48 111.5 48 160 48s88 39.48 88 88S208.5 223.1 160 223.1S72 184.5 72 136z"/></svg>