<svg xmlns="http://www.w3.org/2000/svg" viewBox="0 0 448 512"><!--! Font Awesome Pro 6.0.0-beta3 by @fontawesome - https://fontawesome.com License - https://fontawesome.com/license (Commercial License) Copyright 2021 Fonticons, Inc. --><path d="M253.2 466.1L19.82 256l233.4-210.1c1.75-1.563 2.641-3.75 2.641-5.938c0-1.906-.6719-3.813-2.047-5.344c-2.969-3.281-8.016-3.563-11.31-.5938L2.508 250.1c-3.344 3-3.344 8.875 0 11.88l240 216c3.297 2.969 8.344 2.688 11.31-.5938C256.8 474.1 256.5 468.1 253.2 466.1zM194.6 250.1c-3.344 3-3.344 8.875 0 11.88l240 216c3.297 2.969 8.344 2.688 11.31-.5938c2.984-3.281 2.688-8.375-.5938-11.28L211.9 256l233.4-210.1c1.75-1.563 2.641-3.75 2.641-5.938c0-1.906-.6719-3.813-2.047-5.344c-2.969-3.281-8.016-3.563-11.31-.5938L194.6 250.1z"/></svg>