<svg xmlns="http://www.w3.org/2000/svg" viewBox="0 0 384 512"><!--! Font Awesome Pro 6.1.1 by @fontawesome - https://fontawesome.com License - https://fontawesome.com/license (Commercial License) Copyright 2022 Fonticons, Inc. --><path d="M128 64C128 28.65 156.7 0 192 0C227.3 0 256 28.65 256 64C256 99.35 227.3 128 192 128C156.7 128 128 99.35 128 64zM192 112C218.5 112 240 90.51 240 64C240 37.49 218.5 16 192 16C165.5 16 144 37.49 144 64C144 90.51 165.5 112 192 112zM317 111.8L337.5 83.33C340.1 79.75 345.1 78.92 348.7 81.5C352.3 84.08 353.1 89.08 350.5 92.67L330 121.2C298.1 165.6 246.7 192 192 192C137.3 192 85.89 165.6 53.97 121.2L33.5 92.67C30.93 89.08 31.75 84.08 35.34 81.5C38.92 78.92 43.92 79.75 46.5 83.33L66.97 111.8C95.88 152.1 142.4 176 192 176C241.6 176 288.1 152.1 317 111.8zM128 480C128 488.8 135.2 496 143.1 496C152.8 496 159.1 488.8 159.1 480V400C159.1 382.3 174.3 368 191.1 368C209.7 368 224 382.3 224 400V480C224 488.8 231.2 496 239.1 496C248.8 496 255.1 488.8 255.1 480V232C255.1 227.6 259.6 224 263.1 224C268.4 224 271.1 227.6 271.1 232V480C271.1 497.7 257.7 512 239.1 512C222.3 512 208 497.7 208 480V400C208 391.2 200.8 384 191.1 384C183.2 384 175.1 391.2 175.1 400V480C175.1 497.7 161.7 512 143.1 512C126.3 512 112 497.7 112 480V232C112 227.6 115.6 224 120 224C124.4 224 128 227.6 128 232V480z"/></svg>