<svg xmlns="http://www.w3.org/2000/svg" viewBox="0 0 512 512"><!--! Font Awesome Pro 6.1.1 by @fontawesome - https://fontawesome.com License - https://fontawesome.com/license (Commercial License) Copyright 2022 Fonticons, Inc. --><path d="M207.1 64C207.1 99.35 179.3 128 143.1 128C108.7 128 79.1 99.35 79.1 64C79.1 28.65 108.7 0 143.1 0C179.3 0 207.1 28.65 207.1 64zM143.1 16C117.5 16 95.1 37.49 95.1 64C95.1 90.51 117.5 112 143.1 112C170.5 112 191.1 90.51 191.1 64C191.1 37.49 170.5 16 143.1 16zM15.06 315.8C12.98 319.7 8.129 321.1 4.232 319.1C.3354 316.1-1.136 312.1 .9453 308.2L50.75 214.1C68.83 181.1 104.1 160 142.5 160H145.5C183.9 160 219.2 181.1 237.3 214.1L287.1 308.2C289.1 312.1 287.7 316.1 283.8 319.1C279.9 321.1 275 319.7 272.9 315.8L223.1 222.5C207.8 193.9 178 175.1 145.5 175.1H142.5C110 175.1 80.16 193.9 64.86 222.5L15.06 315.8zM72 280C76.42 280 80 283.6 80 288V476C80 487 88.95 496 99.1 496C111 496 119.1 487 119.1 476V392C119.1 378.7 130.7 368 143.1 368C157.3 368 168 378.7 168 392V476C168 487 176.1 496 187.1 496C199 496 207.1 487 207.1 476V288C207.1 283.6 211.6 280 215.1 280C220.4 280 223.1 283.6 223.1 288V476C223.1 495.9 207.9 512 187.1 512C168.1 512 152 495.9 152 476V392C152 387.6 148.4 384 143.1 384C139.6 384 135.1 387.6 135.1 392V476C135.1 495.9 119.9 512 99.1 512C80.12 512 64 495.9 64 476V288C64 283.6 67.58 280 72 280V280zM438 400L471.9 490.4C475.8 500.8 468.1 512 456.9 512H384C375.2 512 368 504.8 368 496V400H352C334.3 400 320 385.7 320 368V224C320 206.3 334.3 192 352 192H368V160C368 148.2 374.4 137.8 384 132.3V16H376C371.6 16 368 12.42 368 8C368 3.582 371.6 0 376 0H416C424.8 0 432 7.164 432 16V132.3C441.6 137.8 448 148.2 448 160V269.3L464 264V208C464 199.2 471.2 192 480 192H496C504.8 192 512 199.2 512 208V292.5C512 299.4 507.6 305.5 501.1 307.6L448 325.3V352H496C504.8 352 512 359.2 512 368V384C512 392.8 504.8 400 496 400L438 400zM416 141.5V16H400V141.5L392 146.1C387.2 148.9 384 154.1 384 160V384H496V368H432V160C432 154.1 428.8 148.9 423.1 146.1L416 141.5zM456.9 496L420.9 400H384V496H456.9zM448 308.5L496 292.5V208H480V275.5L448 286.2V308.5zM336 224V368C336 376.8 343.2 384 352 384H368V208H352C343.2 208 336 215.2 336 224z"/></svg>