<svg xmlns="http://www.w3.org/2000/svg" viewBox="0 0 448 512"><!--! Font Awesome Pro 6.0.0-beta3 by @fontawesome - https://fontawesome.com License - https://fontawesome.com/license (Commercial License) Copyright 2021 Fonticons, Inc. --><path d="M224 144c39.75 0 72-32.25 72-72S263.8-.0004 224-.0004S151.1 32.25 151.1 72S184.3 144 224 144zM224 16c30.88 0 56 25.12 56 56C280 102.9 254.9 128 224 128C193.1 128 168 102.9 168 72C168 41.12 193.1 16 224 16zM415.1 110.8c-7.898-9.748-19.45-14.81-31.1-14.81c-8.84 0-17.74 2.912-25.15 8.904L307.6 146.4C284.6 165 254.3 174.3 224 174.3c-30.31 0-60.63-9.312-83.63-27.94L89.17 104.9C81.77 98.92 72.87 96 64.03 95.1c-11.66 0-23.22 5.072-31.11 14.83C19.01 128 21.65 153.2 38.83 167.1l51.19 41.47c11.73 9.496 24.63 17.16 37.98 23.92L128 470.1c0 20.86 15.14 39.58 35.9 41.68C187.7 514.2 208 495.4 208 472V384c0-8.838 7.164-16 16-16s16 7.162 16 16v86.11c0 20.86 15.14 39.58 35.9 41.68C299.7 514.2 320 495.4 320 472l.0002-239.5c13.35-6.756 26.25-14.42 37.97-23.91l51.2-41.47C426.3 153.2 428.1 128 415.1 110.8zM399.1 154.6l-51.21 41.47c-9.637 7.807-20.8 14.82-35.12 22.07L304 222.6V472c0 13.23-10.77 24-24 24c-13.23 0-24-10.77-24-24V384c0-17.67-14.33-32-32-32s-32 14.33-32 32v88c0 13.23-10.77 24-24 24c-13.23 0-24-10.77-24-24V222.6L135.2 218.2C120.9 210.9 109.7 203.9 100.1 196.1L48.89 154.6C43.91 150.6 40.8 144.9 40.13 138.5C39.46 132.1 41.32 125.9 45.36 120.9c4.57-5.65 11.37-8.891 18.67-8.891C69.57 112 74.78 113.8 79.1 117.4l51.2 41.47C155.4 179.1 188.7 190.3 224 190.3s68.61-11.19 93.7-31.5l51.19-41.46c4.33-3.498 9.551-5.348 15.1-5.348c7.287 0 14.09 3.238 18.66 8.879c4.037 4.986 5.893 11.24 5.223 17.62C407.2 144.9 404.1 150.6 399.1 154.6z"/></svg>