<svg xmlns="http://www.w3.org/2000/svg" viewBox="0 0 512 512"><!--! Font Awesome Pro 6.1.1 by @fontawesome - https://fontawesome.com License - https://fontawesome.com/license (Commercial License) Copyright 2022 Fonticons, Inc. --><path d="M360 128C355.6 128 352 131.6 352 136v218.5L158 130.8C155.9 128.3 152.3 127.4 149.2 128.5C146.1 129.7 144 132.7 144 136v240C144 380.4 147.6 384 152 384S160 380.4 160 376V157.5l193.1 223.8C355.5 383 357.7 384 360 384c.9375 0 1.891-.1719 2.797-.5C365.9 382.3 368 379.3 368 376v-240C368 131.6 364.4 128 360 128zM256 0C114.6 0 0 114.6 0 256s114.6 256 256 256s256-114.6 256-256S397.4 0 256 0zM256 496c-132.3 0-240-107.7-240-240S123.7 16 256 16s240 107.7 240 240S388.3 496 256 496z"/></svg>