<svg xmlns="http://www.w3.org/2000/svg" viewBox="0 0 512 512"><!--! Font Awesome Pro 6.1.1 by @fontawesome - https://fontawesome.com License - https://fontawesome.com/license (Commercial License) Copyright 2022 Fonticons, Inc. --><path d="M261.9 170.5c-3-3.25-8.688-3.25-11.69 0l-112 120C135.1 293.8 135.3 298.8 138.5 301.8c3.25 3 8.281 2.859 11.31-.3906l106.2-113.7l106.2 113.7C363.7 303.1 365.9 304 368 304c1.969 0 3.906-.7187 5.469-2.156c3.219-3.016 3.406-8.078 .375-11.3L261.9 170.5zM256 0C114.6 0 0 114.6 0 256s114.6 256 256 256s256-114.6 256-256S397.4 0 256 0zM256 496c-132.3 0-240-107.7-240-240S123.7 16 256 16s240 107.7 240 240S388.3 496 256 496z"/></svg>