<svg xmlns="http://www.w3.org/2000/svg" viewBox="0 0 512 512"><!--! Font Awesome Pro 6.1.1 by @fontawesome - https://fontawesome.com License - https://fontawesome.com/license (Commercial License) Copyright 2022 Fonticons, Inc. --><path d="M327 195.1l-31.6 31.6L222 154.1C212.6 144.8 197.3 144.6 187.1 154L154 187.1C144.6 197.3 144.8 212.6 154.1 222l73.42 73.42l-31.6 31.6C180.8 342.1 191.5 368 212.9 368H344c6.627 0 12.63-2.688 16.97-7.031S367.1 350.6 368 344V212.9C368 191.5 342.1 180.8 327 195.1zM351.1 344c0 2.883-1.465 4.781-2.342 5.656C348.8 350.5 346.9 352 344 352H212.9c-4.826 0-6.775-3.453-7.393-4.938c-.6152-1.484-1.676-5.309 1.734-8.719l42.91-42.91L165.3 210.6c-3.121-3.117-3.121-8.191 0-11.31l33.94-33.94c3.119-3.121 8.193-3.121 11.31 0l84.85 84.85l42.91-42.91c3.41-3.41 7.232-2.352 8.719-1.738c1.484 .6172 4.936 2.57 4.936 7.395V344zM256 0C114.6 0 0 114.6 0 256s114.6 256 256 256s256-114.6 256-256S397.4 0 256 0zM256 496c-132.3 0-240-107.7-240-240S123.7 16 256 16s240 107.7 240 240S388.3 496 256 496z"/></svg>