<svg xmlns="http://www.w3.org/2000/svg" viewBox="0 0 512 512"><!--! Font Awesome Pro 6.1.1 by @fontawesome - https://fontawesome.com License - https://fontawesome.com/license (Commercial License) Copyright 2022 Fonticons, Inc. --><path d="M238.3 173L256 191L273.7 173C303.1 143.2 350.8 143.2 380.1 173C409.5 202.8 409.5 251.2 380.1 280.1L278.5 384.2C272.3 390.5 264.1 393.6 255.1 393.6C247.9 393.6 239.7 390.5 233.5 384.2L131.9 280.1C102.5 251.2 102.5 202.8 131.9 173C161.2 143.2 208.9 143.2 238.3 173H238.3zM226.9 184.2C203.8 160.8 166.4 160.8 143.3 184.2C120 207.8 120 246.2 143.3 269.8L244.9 372.1C248 376.1 252 377.6 256 377.6C259.1 377.6 263.1 376.1 267.1 372.1L368.7 269.8C391.1 246.2 391.1 207.8 368.7 184.2C345.6 160.8 308.2 160.8 285.1 184.2L256 213.8L226.9 184.2zM512 256C512 397.4 397.4 512 256 512C114.6 512 0 397.4 0 256C0 114.6 114.6 0 256 0C397.4 0 512 114.6 512 256zM256 16C123.5 16 16 123.5 16 256C16 388.5 123.5 496 256 496C388.5 496 496 388.5 496 256C496 123.5 388.5 16 256 16z"/></svg>