<svg xmlns="http://www.w3.org/2000/svg" viewBox="0 0 512 512"><!--! Font Awesome Pro 6.1.1 by @fontawesome - https://fontawesome.com License - https://fontawesome.com/license (Commercial License) Copyright 2022 Fonticons, Inc. --><path d="M208 208c-4.418 0-8 3.58-8 8v80c0 4.418 3.582 8 8 8s8-3.582 8-8v-80C216 211.6 212.4 208 208 208zM144 160C139.6 160 136 163.6 136 168v176C136 348.4 139.6 352 144 352s8-3.582 8-8v-176C152 163.6 148.4 160 144 160zM272 128c-4.418 0-8 3.58-8 8v240c0 4.418 3.582 8 8 8s8-3.582 8-8v-240C280 131.6 276.4 128 272 128zM336 176c-4.418 0-8 3.58-8 8v144c0 4.418 3.582 8 8 8s8-3.582 8-8v-144C344 179.6 340.4 176 336 176zM400 216c-4.418 0-8 3.58-8 8v64c0 4.418 3.582 8 8 8S408 292.4 408 288V224C408 219.6 404.4 216 400 216zM256 0C114.6 0 0 114.6 0 256s114.6 256 256 256s256-114.6 256-256S397.4 0 256 0zM256 496c-132.3 0-240-107.7-240-240S123.7 16 256 16s240 107.7 240 240S388.3 496 256 496z"/></svg>