<svg xmlns="http://www.w3.org/2000/svg" viewBox="0 0 512 512"><!--! Font Awesome Pro 6.0.0-beta3 by @fontawesome - https://fontawesome.com License - https://fontawesome.com/license (Commercial License) Copyright 2021 Fonticons, Inc. --><path d="M304 143.1c0-1.969-.7187-3.906-2.156-5.469c-3.016-3.219-8.078-3.406-11.3-.375l-120 112c-3.25 3-3.25 8.688 0 11.69l120 112c3.219 3.031 8.281 2.844 11.3-.375c3-3.25 2.859-8.281-.3906-11.31L187.7 255.1l113.7-106.2C303.1 148.3 304 146.1 304 143.1zM256 0C114.6 0 0 114.6 0 256s114.6 256 256 256s256-114.6 256-256S397.4 0 256 0zM256 496c-132.3 0-240-107.7-240-240S123.7 16 256 16s240 107.7 240 240S388.3 496 256 496z"/></svg>