<svg xmlns="http://www.w3.org/2000/svg" viewBox="0 0 512 512"><!--! Font Awesome Pro 6.0.0-beta3 by @fontawesome - https://fontawesome.com License - https://fontawesome.com/license (Commercial License) Copyright 2021 Fonticons, Inc. --><path d="M373.7 132.2L323.3 120.6c-11.09-2.484-22.47 3.172-27.09 13.7l-23.27 54.31c-4.094 9.609-1.297 20.94 6.781 27.53l21.91 17.95c-15.39 28.5-39.08 52.19-67.61 67.58L216.2 279.8C209.5 271.6 198.1 268.8 188.5 273L134.3 296.3c-10.5 4.531-16.28 15.91-13.7 27.03l11.62 50.39C134.7 384.5 144.2 392 155.3 392C285.8 392 392 285.8 392 155.3C392 144.2 384.5 134.7 373.7 132.2zM155.3 376c-3.578 0-6.641-2.422-7.438-5.906l-11.62-50.39C135.4 316.1 137.2 312.5 140.6 310.1l54.25-23.27c3.156-1.359 6.75-.4219 8.891 2.203l26.03 31.83l5.703-2.797c36.08-17.72 65.72-47.34 83.44-83.41l2.797-5.703l-31.84-26.08c-2.609-2.125-3.5-5.781-2.188-8.859l23.23-54.22c1.516-3.453 5.203-5.344 8.797-4.484l50.39 11.62C373.6 148.6 376 151.7 376 155.3C376 276.1 276.1 376 155.3 376zM256 0c-141.4 0-256 114.6-256 256c0 141.4 114.6 256 256 256s256-114.6 256-256C512 114.6 397.4 0 256 0zM256 496c-132.3 0-240-107.7-240-240S123.7 16 256 16s240 107.7 240 240S388.3 496 256 496z"/></svg>