<svg xmlns="http://www.w3.org/2000/svg" viewBox="0 0 512 512"><!--! Font Awesome Pro 6.0.0-beta3 by @fontawesome - https://fontawesome.com License - https://fontawesome.com/license (Commercial License) Copyright 2021 Fonticons, Inc. --><path d="M336.4 176c-4.219-.1719-8.172 3.156-8.406 7.562l-8.828 165.2C318.8 354.8 313.3 360 307.2 360H204.8c-6.094 0-11.58-5.156-11.97-11.17L183.1 183.6C183.8 179.2 180.1 175.9 175.6 176c-4.422 .2344-7.797 4-7.562 8.406l8.828 165.3C177.8 364.2 190.3 376 204.8 376h102.4c14.48 0 27.02-11.77 27.94-26.33l8.828-165.3C344.2 180 340.8 176.3 336.4 176zM352 144h-43.05l-13.79-27.58C293.8 113.7 291 112 288 112H224c-3.031 0-5.797 1.719-7.156 4.422L203.1 144H160c-4.422 0-8 3.578-8 8S155.6 160 160 160h192c4.422 0 8-3.578 8-8S356.4 144 352 144zM220.9 144L228.9 128h54.13l7.996 16H220.9zM256 0C114.6 0 0 114.6 0 256s114.6 256 256 256s256-114.6 256-256S397.4 0 256 0zM256 496c-132.3 0-240-107.7-240-240S123.7 16 256 16s240 107.7 240 240S388.3 496 256 496z"/></svg>