<svg xmlns="http://www.w3.org/2000/svg" viewBox="0 0 512 512"><!--! Font Awesome Pro 6.0.0-beta3 by @fontawesome - https://fontawesome.com License - https://fontawesome.com/license (Commercial License) Copyright 2021 Fonticons, Inc. --><path d="M288 160H160C142.3 160 128 174.3 128 192v128c0 17.67 14.33 32 32 32h128c17.67 0 32-14.33 32-32V192C320 174.3 305.7 160 288 160zM304 320c0 8.822-7.178 16-16 16H160c-8.822 0-16-7.178-16-16V192c0-8.822 7.178-16 16-16h128c8.822 0 16 7.178 16 16V320zM392.9 182.6l-52.44 26.22c-3.969 1.969-5.562 6.781-3.594 10.72c2 4 6.938 5.531 10.72 3.594L400 196.9v118.1l-52.44-26.22c-3.812-1.906-8.719-.375-10.72 3.594c-1.969 3.938-.375 8.75 3.594 10.72l52.44 26.22C395.1 330.5 397.6 331.1 400 331.1c2.938 0 5.812-.7813 8.406-2.375C413.2 325.8 416 320.7 416 315.1V196.9c0-5.594-2.844-10.69-7.594-13.62S397.8 180.1 392.9 182.6zM256 0C114.6 0 0 114.6 0 256s114.6 256 256 256s256-114.6 256-256S397.4 0 256 0zM256 496c-132.3 0-240-107.7-240-240S123.7 16 256 16s240 107.7 240 240S388.3 496 256 496z"/></svg>