<svg xmlns="http://www.w3.org/2000/svg" viewBox="0 0 512 512"><!--! Font Awesome Pro 6.0.0-beta3 by @fontawesome - https://fontawesome.com License - https://fontawesome.com/license (Commercial License) Copyright 2021 Fonticons, Inc. --><path d="M345.6 192H166.4c-11.28 0-21.57 6.633-26.22 16.89C135.5 219.2 137.3 231.3 144.8 239.8l89.56 102.4C239.8 348.4 247.7 352 256 352s16.2-3.59 21.67-9.844l89.59-102.4c7.426-8.426 9.229-20.55 4.557-30.87C367.2 198.6 356.9 192 345.6 192zM355.2 229.2l-89.6 102.4C263.2 334.4 259.7 336 256 336s-7.199-1.602-9.625-4.375L156.8 229.2C153.4 225.4 152.7 220.1 154.8 215.5C156.8 210.9 161.4 208 166.4 208h179.2c5.025 0 9.576 2.922 11.65 7.5C359.3 220.1 358.6 225.4 355.2 229.2zM256 0C114.6 0 0 114.6 0 256s114.6 256 256 256s256-114.6 256-256S397.4 0 256 0zM256 496c-132.3 0-240-107.7-240-240S123.7 16 256 16s240 107.7 240 240S388.3 496 256 496z"/></svg>