<svg xmlns="http://www.w3.org/2000/svg" viewBox="0 0 512 512"><!--! Font Awesome Pro 6.1.1 by @fontawesome - https://fontawesome.com License - https://fontawesome.com/license (Commercial License) Copyright 2022 Fonticons, Inc. --><path d="M368.8 148.4L256 374.1L143.2 148.4C141.2 144.5 136.4 142.9 132.4 144.8C128.5 146.8 126.9 151.6 128.8 155.6l120 240C250.2 398.3 252.1 400 256 400s5.797-1.719 7.156-4.422l120-240c1.969-3.953 .375-8.75-3.578-10.73C375.6 142.9 370.8 144.5 368.8 148.4zM256 0C114.6 0 0 114.6 0 256s114.6 256 256 256s256-114.6 256-256S397.4 0 256 0zM256 496c-132.3 0-240-107.7-240-240S123.7 16 256 16s240 107.7 240 240S388.3 496 256 496z"/></svg>