<svg xmlns="http://www.w3.org/2000/svg" viewBox="0 0 512 512"><!--! Font Awesome Pro 6.1.1 by @fontawesome - https://fontawesome.com License - https://fontawesome.com/license (Commercial License) Copyright 2022 Fonticons, Inc. --><path d="M248 352V264H160C155.6 264 152 260.4 152 256C152 251.6 155.6 248 160 248H248V160C248 155.6 251.6 152 256 152C260.4 152 264 155.6 264 160V248H352C356.4 248 360 251.6 360 256C360 260.4 356.4 264 352 264H264V352C264 356.4 260.4 360 256 360C251.6 360 248 356.4 248 352zM512 256C512 397.4 397.4 512 256 512C114.6 512 0 397.4 0 256C0 114.6 114.6 0 256 0C397.4 0 512 114.6 512 256zM256 16C123.5 16 16 123.5 16 256C16 388.5 123.5 496 256 496C388.5 496 496 388.5 496 256C496 123.5 388.5 16 256 16z"/></svg>