<svg xmlns="http://www.w3.org/2000/svg" viewBox="0 0 512 512"><!--! Font Awesome Pro 6.0.0-beta3 by @fontawesome - https://fontawesome.com License - https://fontawesome.com/license (Commercial License) Copyright 2021 Fonticons, Inc. --><path d="M344 176c-4.418 0-7.998 3.578-7.998 8v140.7L173.7 162.3c-3.115-3.113-8.188-3.129-11.31 0c-3.127 3.129-3.117 8.199 0 11.32L324.7 336H184c-4.42 0-8 3.578-8 8S179.6 352 184 352h160c4.42 0 8-3.578 8-8v-160C352 179.6 348.4 176 344 176zM256 0C114.6 0 0 114.6 0 256s114.6 256 256 256s256-114.6 256-256S397.4 0 256 0zM256 496c-132.3 0-240-107.7-240-240S123.7 16 256 16s240 107.7 240 240S388.3 496 256 496z"/></svg>