<svg xmlns="http://www.w3.org/2000/svg" viewBox="0 0 512 512"><!--! Font Awesome Pro 6.0.0-beta3 by @fontawesome - https://fontawesome.com License - https://fontawesome.com/license (Commercial License) Copyright 2021 Fonticons, Inc. --><path d="M335.8 288H176.2C166.2 288 157.7 293.7 153.9 302.9c-3.812 9.156-1.844 19.22 5.156 26.22l80.09 80C243.8 413.5 249.8 416 256 416c6.219 0 12.44-2.531 17.12-7.031l79.84-79.88c7-7 8.969-17.06 5.156-26.22C354.3 293.7 345.8 288 335.8 288zM341.7 317.8l-79.72 79.75c-3.219 3.125-8.531 3.062-11.62 .125L170.3 317.8C166.8 314.3 168.2 310.2 168.7 309C169.1 307.8 171.1 304 176.2 304h159.7c5.031 0 7.031 3.812 7.5 5C343.8 310.2 345.2 314.3 341.7 317.8zM273 102.9C263.9 94.13 248.5 93.97 239 103L154.4 186.3C151.3 189.4 151.2 194.5 154.3 197.6c3.094 3.125 8.156 3.188 11.31 .0625l84.56-83.22c3.344-3.219 8.625-3 11.66-.0938l84.53 83.31C347.9 199.2 349.1 200 352 200c2.062 0 4.125-.7813 5.688-2.375c3.125-3.156 3.062-8.219-.0625-11.31L273 102.9zM256 0c-141.4 0-256 114.6-256 256s114.6 256 256 256s256-114.6 256-256S397.4 0 256 0zM256 496c-132.3 0-240-107.7-240-240S123.7 16 256 16s240 107.7 240 240S388.3 496 256 496z"/></svg>