<svg xmlns="http://www.w3.org/2000/svg" viewBox="0 0 512 512"><!--! Font Awesome Pro 6.1.1 by @fontawesome - https://fontawesome.com License - https://fontawesome.com/license (Commercial License) Copyright 2022 Fonticons, Inc. --><path d="M344 368H189.5l113.1-97.94c33.89-29.28 37.83-78.88 8.969-112.9C297.3 140.3 277.2 130 255 128.3C232.7 126.8 211.1 133.5 194.3 148L175.5 164.2C172.2 167.1 171.8 172.1 174.7 175.5c2.906 3.375 7.938 3.781 11.28 .8438l18.8-16.19c13.59-11.66 31-17.31 49-15.91c17.92 1.406 34.13 9.656 45.61 23.25c23.12 27.28 19.95 67.03-7.219 90.47l-129.4 112c-2.531 2.188-3.422 5.719-2.266 8.844C161.7 381.9 164.7 384 168 384h176c4.422 0 8-3.594 8-8S348.4 368 344 368zM256 0C114.6 0 0 114.6 0 256s114.6 256 256 256s256-114.6 256-256S397.4 0 256 0zM256 496c-132.3 0-240-107.7-240-240S123.7 16 256 16s240 107.7 240 240S388.3 496 256 496z"/></svg>