<svg xmlns="http://www.w3.org/2000/svg" viewBox="0 0 512 512"><!--! Font Awesome Pro 6.0.0-beta3 by @fontawesome - https://fontawesome.com License - https://fontawesome.com/license (Commercial License) Copyright 2021 Fonticons, Inc. --><path d="M256 304c4.406 0 8-3.578 8-8v-176c0-4.422-3.594-8-8-8S248 115.6 248 120v176C248 300.4 251.6 304 256 304zM256 352c-8.836 0-16 7.164-16 16S247.2 384 256 384s16-7.164 16-16S264.8 352 256 352zM256 0C114.6 0 0 114.6 0 256s114.6 256 256 256s256-114.6 256-256S397.4 0 256 0zM256 496c-132.3 0-240-107.7-240-240S123.7 16 256 16s240 107.7 240 240S388.3 496 256 496z"/></svg>