<svg xmlns="http://www.w3.org/2000/svg" viewBox="0 0 512 512"><!--! Font Awesome Pro 6.1.1 by @fontawesome - https://fontawesome.com License - https://fontawesome.com/license (Commercial License) Copyright 2022 Fonticons, Inc. --><path d="M288 160C288 177.7 273.7 192 256 192C238.3 192 224 177.7 224 160C224 142.3 238.3 128 256 128C273.7 128 288 142.3 288 160zM256 144C247.2 144 240 151.2 240 160C240 168.8 247.2 176 256 176C264.8 176 272 168.8 272 160C272 151.2 264.8 144 256 144zM360 248C364.4 248 368 251.6 368 256C368 260.4 364.4 264 360 264H152C147.6 264 144 260.4 144 256C144 251.6 147.6 248 152 248H360zM224 352C224 334.3 238.3 320 256 320C273.7 320 288 334.3 288 352C288 369.7 273.7 384 256 384C238.3 384 224 369.7 224 352zM256 368C264.8 368 272 360.8 272 352C272 343.2 264.8 336 256 336C247.2 336 240 343.2 240 352C240 360.8 247.2 368 256 368zM512 256C512 397.4 397.4 512 256 512C114.6 512 0 397.4 0 256C0 114.6 114.6 0 256 0C397.4 0 512 114.6 512 256zM256 16C123.5 16 16 123.5 16 256C16 388.5 123.5 496 256 496C388.5 496 496 388.5 496 256C496 123.5 388.5 16 256 16z"/></svg>