<svg xmlns="http://www.w3.org/2000/svg" viewBox="0 0 512 512"><!--! Font Awesome Pro 6.0.0-beta3 by @fontawesome - https://fontawesome.com License - https://fontawesome.com/license (Commercial License) Copyright 2021 Fonticons, Inc. --><path d="M512 256c0 141.2-114.8 256-256 256s-256-114.8-256-256c0-115.9 78.09-217.6 189.9-247.4c4.281-1.125 8.656 1.406 9.781 5.672c1.156 4.266-1.375 8.656-5.656 9.797C89.22 52 16 147.4 16 256c0 132.3 107.7 240 240 240s240-107.7 240-240c0-108.6-73.22-204-178.1-231.9c-4.281-1.141-6.812-5.531-5.656-9.797c1.125-4.266 5.656-6.781 9.781-5.672C433.9 38.41 512 140.1 512 256z"/></svg>