<svg xmlns="http://www.w3.org/2000/svg" viewBox="0 0 512 512"><!--! Font Awesome Pro 6.0.0-beta3 by @fontawesome - https://fontawesome.com License - https://fontawesome.com/license (Commercial License) Copyright 2021 Fonticons, Inc. --><path d="M344 128c-4.406 0-8 3.578-8 8v160c0 39.7-35.88 72-80 72s-80-32.3-80-72C176 291.6 172.4 288 168 288S160 291.6 160 296C160 344.5 203.1 384 256 384s96-39.47 96-88v-160C352 131.6 348.4 128 344 128zM256 0C114.6 0 0 114.6 0 256s114.6 256 256 256s256-114.6 256-256S397.4 0 256 0zM256 496c-132.3 0-240-107.7-240-240S123.7 16 256 16s240 107.7 240 240S388.3 496 256 496z"/></svg>