<svg xmlns="http://www.w3.org/2000/svg" viewBox="0 0 512 512"><!--! Font Awesome Pro 6.0.0-beta3 by @fontawesome - https://fontawesome.com License - https://fontawesome.com/license (Commercial License) Copyright 2021 Fonticons, Inc. --><path d="M365.2 129.1c-3.328-2.906-8.391-2.547-11.28 .8125L256 243.8L158 130.8c-2.891-3.359-7.953-3.719-11.28-.8125c-3.344 2.891-3.703 7.953-.8125 11.28L245.4 256l-99.46 114.8c-2.891 3.328-2.531 8.391 .8125 11.28C148.3 383.4 150.1 384 152 384c2.234 0 4.469-.9375 6.047-2.766L256 268.2l97.95 113C355.5 383.1 357.8 384 360 384c1.859 0 3.719-.6406 5.234-1.953c3.344-2.891 3.703-7.953 .8125-11.28L266.6 256l99.46-114.8C368.9 137.9 368.6 132.8 365.2 129.1zM256 0C114.6 0 0 114.6 0 256s114.6 256 256 256s256-114.6 256-256S397.4 0 256 0zM256 496c-132.3 0-240-107.7-240-240S123.7 16 256 16s240 107.7 240 240S388.3 496 256 496z"/></svg>