<svg xmlns="http://www.w3.org/2000/svg" viewBox="0 0 512 512"><!--! Font Awesome Pro 6.1.1 by @fontawesome - https://fontawesome.com License - https://fontawesome.com/license (Commercial License) Copyright 2022 Fonticons, Inc. --><path d="M356.5 235.5C363.6 239.9 368 247.6 368 256C368 264.4 363.6 272.1 356.5 276.5L212.5 364.5C205.1 369 195.8 369.2 188.3 364.9C180.7 360.7 176 352.7 176 344V167.1C176 159.3 180.7 151.3 188.3 147.1C195.8 142.8 205.1 142.1 212.5 147.5L356.5 235.5zM192 168V344C192 346.9 193.6 349.6 196.1 350.1C198.6 352.4 201.7 352.3 204.2 350.8L348.2 262.8C350.6 261.4 352 258.8 352 256C352 253.2 350.6 250.6 348.2 249.2L204.2 161.2C201.7 159.7 198.6 159.6 196.1 161C193.6 162.4 192 165.1 192 168V168zM0 256C0 114.6 114.6 0 256 0C397.4 0 512 114.6 512 256C512 397.4 397.4 512 256 512C114.6 512 0 397.4 0 256zM256 496C388.5 496 496 388.5 496 256C496 123.5 388.5 16 256 16C123.5 16 16 123.5 16 256C16 388.5 123.5 496 256 496z"/></svg>