<svg xmlns="http://www.w3.org/2000/svg" viewBox="0 0 512 512"><!--! Font Awesome Pro 6.1.1 by @fontawesome - https://fontawesome.com License - https://fontawesome.com/license (Commercial License) Copyright 2022 Fonticons, Inc. --><path d="M362.1 210.5l-106.2 113.7L149.8 210.5C148.3 208.9 146.1 208 143.1 208c-1.969 0-3.906 .7187-5.469 2.156C135.3 213.2 135.1 218.2 138.1 221.5l112 120c3 3.25 8.688 3.25 11.69 0l112-120c3.031-3.219 2.844-8.281-.375-11.3C370.2 207.2 365.2 207.3 362.1 210.5zM256 0C114.6 0 0 114.6 0 256s114.6 256 256 256s256-114.6 256-256S397.4 0 256 0zM256 496c-132.3 0-240-107.7-240-240S123.7 16 256 16s240 107.7 240 240S388.3 496 256 496z"/></svg>