<svg xmlns="http://www.w3.org/2000/svg" viewBox="0 0 512 512"><!--! Font Awesome Pro 6.0.0-beta3 by @fontawesome - https://fontawesome.com License - https://fontawesome.com/license (Commercial License) Copyright 2021 Fonticons, Inc. --><path d="M187.3 176H328c4.42 0 8-3.582 8-8C336 163.6 332.4 160 328 160h-160C163.6 160 160 163.6 160 168v160c0 4.422 3.576 8 8 8c4.418 0 7.998-3.578 7.998-8V187.3l162.3 162.3c3.115 3.117 8.188 3.129 11.31 0c3.127-3.125 3.117-8.195 0-11.31L187.3 176zM256 0C114.6 0 0 114.6 0 256s114.6 256 256 256s256-114.6 256-256S397.4 0 256 0zM256 496c-132.3 0-240-107.7-240-240S123.7 16 256 16s240 107.7 240 240S388.3 496 256 496z"/></svg>