<svg xmlns="http://www.w3.org/2000/svg" viewBox="0 0 512 512"><!--! Font Awesome Pro 6.0.0-beta3 by @fontawesome - https://fontawesome.com License - https://fontawesome.com/license (Commercial License) Copyright 2021 Fonticons, Inc. --><path d="M239.8 144.7C234.6 140.1 227.8 137.6 220.8 137.6c-4.135 0-8.145 .8672-11.91 2.578C198.6 144.8 192 155.1 192 166.4v179.2c0 11.27 6.629 21.56 16.89 26.22c3.77 1.711 7.777 2.578 11.91 2.578c7.004 0 13.75-2.547 18.1-7.164l102.4-89.57C348.4 272.2 352 264.3 352 256s-3.59-16.21-9.848-21.67L239.8 144.7zM331.6 265.6L229.2 355.2c-2.373 2.086-5.381 3.172-8.422 3.172c-1.797 0-3.604-.3789-5.303-1.148C210.9 355.2 208 350.6 208 345.6V166.4c0-5.023 2.926-9.574 7.5-11.65c1.699-.7734 3.508-1.148 5.303-1.148c3.043 0 6.049 1.082 8.422 3.172l102.4 89.6C334.4 248.8 336 252.3 336 256C336 259.7 334.4 263.2 331.6 265.6zM256 0C114.6 0 0 114.6 0 256s114.6 256 256 256s256-114.6 256-256S397.4 0 256 0zM256 496c-132.3 0-240-107.7-240-240S123.7 16 256 16s240 107.7 240 240S388.3 496 256 496z"/></svg>