<svg xmlns="http://www.w3.org/2000/svg" viewBox="0 0 512 512"><!--! Font Awesome Pro 6.1.1 by @fontawesome - https://fontawesome.com License - https://fontawesome.com/license (Commercial License) Copyright 2022 Fonticons, Inc. --><path d="M352 160H160C142.3 160 128 174.3 128 192v128c0 17.67 14.33 32 32 32h192c17.67 0 32-14.33 32-32V192C384 174.3 369.7 160 352 160zM368 320c0 8.822-7.178 16-16 16H160c-8.822 0-16-7.178-16-16V236.7l94.13 47.06C243.7 286.6 249.8 288 256 288s12.28-1.406 17.88-4.203L368 236.7V320zM368 218.9l-101.3 50.63c-6.75 3.375-14.75 3.375-21.5 0L144 218.9V192c0-8.822 7.178-16 16-16h192c8.822 0 16 7.178 16 16V218.9zM256 0C114.6 0 0 114.6 0 256c0 141.4 114.6 256 256 256s256-114.6 256-256C512 114.6 397.4 0 256 0zM256 496c-132.3 0-240-107.7-240-240S123.7 16 256 16s240 107.7 240 240S388.3 496 256 496z"/></svg>