<svg xmlns="http://www.w3.org/2000/svg" viewBox="0 0 512 512"><!--! Font Awesome Pro 6.0.0-beta3 by @fontawesome - https://fontawesome.com License - https://fontawesome.com/license (Commercial License) Copyright 2021 Fonticons, Inc. --><path d="M394.3 144.3c-4.141-1.266-8.688 1.125-9.953 5.359l-63.89 212.1l-56.72-212.7c-1.875-7-13.59-7-15.47 0l-56.72 212.7l-63.89-212.1C126.4 145.5 121.9 143 117.7 144.3C113.5 145.6 111.1 150.1 112.3 154.3l72 240C185.4 397.7 188.7 400.6 192.1 400c3.578-.0625 6.688-2.484 7.609-5.938L256 183l56.27 211c.9219 3.453 4.094 5.875 7.672 5.938c3.531 0 6.703-2.312 7.719-5.703l72-240C400.9 150.1 398.5 145.6 394.3 144.3zM256 0C114.6 0 0 114.6 0 256s114.6 256 256 256s256-114.6 256-256S397.4 0 256 0zM256 496c-132.3 0-240-107.7-240-240S123.7 16 256 16s240 107.7 240 240S388.3 496 256 496z"/></svg>