<svg xmlns="http://www.w3.org/2000/svg" viewBox="0 0 512 512"><!--! Font Awesome Pro 6.0.0-beta3 by @fontawesome - https://fontawesome.com License - https://fontawesome.com/license (Commercial License) Copyright 2021 Fonticons, Inc. --><path d="M324 154c-9.371-9.371-24.69-9.248-34.06 .123L216.6 227.6L184.1 195.1C169.9 180.8 144 191.5 144 212.9V344c.002 6.629 2.686 12.62 7.029 16.97S161.4 368 168 368h131.1c21.38 0 32.09-25.85 16.97-40.97l-31.6-31.6l73.42-73.42c9.373-9.371 9.494-24.69 .123-34.06L324 154zM346.7 210.6l-84.85 84.86l42.91 42.91c3.41 3.41 2.35 7.234 1.734 8.719C305.8 348.5 303.9 352 299.1 352H168c-2.883 0-4.781-1.469-5.656-2.344C161.5 348.8 160 346.9 160 344V212.9c0-4.824 3.451-6.777 4.936-7.395c1.486-.6133 5.309-1.672 8.719 1.738l42.91 42.91l84.85-84.85c3.119-3.121 8.193-3.121 11.31 0l33.94 33.94C349.8 202.4 349.8 207.5 346.7 210.6zM256 0C114.6 0 0 114.6 0 256s114.6 256 256 256s256-114.6 256-256S397.4 0 256 0zM256 496c-132.3 0-240-107.7-240-240S123.7 16 256 16s240 107.7 240 240S388.3 496 256 496z"/></svg>