<svg xmlns="http://www.w3.org/2000/svg" viewBox="0 0 512 512"><!--! Font Awesome Pro 6.0.0-beta3 by @fontawesome - https://fontawesome.com License - https://fontawesome.com/license (Commercial License) Copyright 2021 Fonticons, Inc. --><path d="M280 128h-112C163.6 128 160 131.6 160 136v240C160 380.4 163.6 384 168 384s8-3.578 8-8V304h104c48.53 0 88-39.47 88-88S328.5 128 280 128zM280 288H176V144h104C319.7 144 352 176.3 352 216S319.7 288 280 288zM256 0C114.6 0 0 114.6 0 256s114.6 256 256 256s256-114.6 256-256S397.4 0 256 0zM256 496c-132.3 0-240-107.7-240-240S123.7 16 256 16s240 107.7 240 240S388.3 496 256 496z"/></svg>