<svg xmlns="http://www.w3.org/2000/svg" viewBox="0 0 512 512"><!--! Font Awesome Pro 6.0.0-beta3 by @fontawesome - https://fontawesome.com License - https://fontawesome.com/license (Commercial License) Copyright 2021 Fonticons, Inc. --><path d="M256 192C251.5 192 247.1 192.7 242.7 193.3l58.56-51.31c3.312-2.938 3.656-7.969 .75-11.31C300.4 128.9 298.2 128 296 128c-1.875 0-3.75 .6562-5.281 1.969c0 0-99.16 87.3-99.37 87.54C172.2 235.1 160 260 160 288c0 52.94 43.06 96 96 96s96-43.06 96-96S308.9 192 256 192zM256 368c-44.13 0-80-35.88-80-80S211.9 208 256 208s80 35.88 80 80S300.1 368 256 368zM256 0C114.6 0 0 114.6 0 256s114.6 256 256 256s256-114.6 256-256S397.4 0 256 0zM256 496c-132.3 0-240-107.7-240-240S123.7 16 256 16s240 107.7 240 240S388.3 496 256 496z"/></svg>