<svg xmlns="http://www.w3.org/2000/svg" viewBox="0 0 512 512"><!--! Font Awesome Pro 6.0.0-beta3 by @fontawesome - https://fontawesome.com License - https://fontawesome.com/license (Commercial License) Copyright 2021 Fonticons, Inc. --><path d="M258 248.3C202.8 233.9 169.8 222.3 177 184.1c2.156-11.48 8.875-21.16 19.41-27.98c16.31-10.58 50.5-19.58 120.6-2.719c4.281 .9844 8.625-1.609 9.656-5.906S325 138.9 320.7 137.8c-60.66-14.59-105.3-12.95-133 4.844C173.4 151.1 164.3 165.2 161.3 181.1c-10.5 55.64 44.34 70 92.72 82.67c55.25 14.47 88.25 26 81.03 64.23c-2.594 13.73-9.594 23.66-21.44 30.36c-33.53 18.91-95.72 7-142.8-10.42c-4.031-1.531-8.75 .5781-10.28 4.719s.5625 8.75 4.719 10.28c16.78 6.219 61.28 21.06 103.1 21.06c19.25 0 37.94-3.141 53.09-11.7c15.97-9.047 25.81-22.94 29.31-41.33C361.3 275.4 306.4 261 258 248.3zM256 0C114.6 0 0 114.6 0 256s114.6 256 256 256s256-114.6 256-256S397.4 0 256 0zM256 496c-132.3 0-240-107.7-240-240S123.7 16 256 16s240 107.7 240 240S388.3 496 256 496z"/></svg>