<svg xmlns="http://www.w3.org/2000/svg" viewBox="0 0 512 512"><!--! Font Awesome Pro 6.0.0-beta3 by @fontawesome - https://fontawesome.com License - https://fontawesome.com/license (Commercial License) Copyright 2021 Fonticons, Inc. --><path d="M277.7 169.8C272.2 163.6 264.3 160 256 160S239.8 163.6 234.3 169.8L144.7 272.2C137.3 280.7 135.5 292.8 140.2 303.1C144.8 313.4 155.1 320 166.4 320h179.2c11.28 0 21.57-6.633 26.22-16.89c4.672-10.31 2.871-22.44-4.594-30.91L277.7 169.8zM357.3 296.5C355.2 301.1 350.6 304 345.6 304H166.4c-5.025 0-9.576-2.926-11.65-7.5C152.7 291.9 153.4 286.5 156.8 282.8l89.6-102.4C248.8 177.6 252.3 176 256 176s7.199 1.602 9.625 4.375l89.6 102.4C358.6 286.5 359.3 291.9 357.3 296.5zM256 0C114.6 0 0 114.6 0 256s114.6 256 256 256s256-114.6 256-256S397.4 0 256 0zM256 496c-132.3 0-240-107.7-240-240S123.7 16 256 16s240 107.7 240 240S388.3 496 256 496z"/></svg>