<svg xmlns="http://www.w3.org/2000/svg" viewBox="0 0 512 512"><!--! Font Awesome Pro 6.1.1 by @fontawesome - https://fontawesome.com License - https://fontawesome.com/license (Commercial License) Copyright 2022 Fonticons, Inc. --><path d="M349.9 130.5c-3-3.203-8.062-3.438-11.31-.4062L176 281.3V136C176 131.6 172.4 128 168 128S160 131.6 160 136v240C160 380.4 163.6 384 168 384s8-3.578 8-8V303.1l59.73-55.54l101.9 133.3C339.2 382.9 341.6 384 344 384c1.703 0 3.406-.5313 4.859-1.641c3.516-2.688 4.172-7.703 1.5-11.22L247.5 236.6l101.9-94.79C352.7 138.8 352.9 133.8 349.9 130.5zM256 0C114.6 0 0 114.6 0 256s114.6 256 256 256s256-114.6 256-256S397.4 0 256 0zM256 496c-132.3 0-240-107.7-240-240S123.7 16 256 16s240 107.7 240 240S388.3 496 256 496z"/></svg>