<svg xmlns="http://www.w3.org/2000/svg" viewBox="0 0 512 512"><!--! Font Awesome Pro 6.1.1 by @fontawesome - https://fontawesome.com License - https://fontawesome.com/license (Commercial License) Copyright 2022 Fonticons, Inc. --><path d="M453.1 154.9c-2.544 2.544-3.028 6.439-1.288 9.588C470 197.3 480 233.1 480 272c0 131.1-114.7 237.6-249.7 222.6c-102.8-11.49-185.5-94.24-196.9-196.1C18.4 162.7 124.1 47.1 256 47.1c14.47 0 28.68 1.984 42.7 4.812C292.1 65.85 288 80.38 288 96v16C288 120.8 295.2 128 304 128H384c53.02 0 96-42.98 96-96V16C480 7.163 472.8 0 464 0H384c-31.23 0-58.72 15.16-76.25 38.26C290.8 34.48 273.5 31.1 256 31.1c-137.5 0-248.3 116.1-239.5 255.4c7.511 119.4 104.7 216.6 224.1 224.1C379.9 520.3 496 409.5 496 271.1c0-40.84-10.67-80.2-30.22-115.5C463.2 151.9 456.9 151.1 453.1 154.9zM304 95.1c0-44.11 35.89-80 80-80h80v16c0 44.11-35.89 80-80 80h-80V95.1z"/></svg>