<svg xmlns="http://www.w3.org/2000/svg" viewBox="0 0 640 512"><!--! Font Awesome Pro 6.0.0-beta3 by @fontawesome - https://fontawesome.com License - https://fontawesome.com/license (Commercial License) Copyright 2021 Fonticons, Inc. --><path d="M80 72H160V8C160 3.582 163.6 0 168 0C172.4 0 176 3.582 176 8V72H216C220.4 72 224 75.58 224 80C224 84.42 220.4 88 216 88H56C33.91 88 16 105.9 16 128V456C16 478.1 33.91 496 56 496H232C236.4 496 240 499.6 240 504C240 508.4 236.4 512 232 512H56C25.07 512 0 486.9 0 456V128C0 97.07 25.07 72 56 72H64V8C64 3.582 67.58 0 72 0C76.42 0 80 3.582 80 8V72zM328 352C328 338.7 338.7 328 352 328H384C397.3 328 408 338.7 408 352V384C408 397.3 397.3 408 384 408H352C338.7 408 328 397.3 328 384V352zM384 392C388.4 392 392 388.4 392 384V352C392 347.6 388.4 344 384 344H352C347.6 344 344 347.6 344 352V384C344 388.4 347.6 392 352 392H384zM384 72C397.3 72 408 82.75 408 96V128C408 141.3 397.3 152 384 152H352C338.7 152 328 141.3 328 128V96C328 82.75 338.7 72 352 72H384zM344 128C344 132.4 347.6 136 352 136H384C388.4 136 392 132.4 392 128V96C392 91.58 388.4 88 384 88H352C347.6 88 344 91.58 344 96V128zM328 224C328 210.7 338.7 200 352 200H384C397.3 200 408 210.7 408 224V256C408 269.3 397.3 280 384 280H352C338.7 280 328 269.3 328 256V224zM384 264C388.4 264 392 260.4 392 256V224C392 219.6 388.4 216 384 216H352C347.6 216 344 219.6 344 224V256C344 260.4 347.6 264 352 264H384zM512 440C498.7 440 488 429.3 488 416V384C488 370.7 498.7 360 512 360H544C557.3 360 568 370.7 568 384V416C568 429.3 557.3 440 544 440H512zM504 416C504 420.4 507.6 424 512 424H544C548.4 424 552 420.4 552 416V384C552 379.6 548.4 376 544 376H512C507.6 376 504 379.6 504 384V416zM488 256C488 242.7 498.7 232 512 232H544C557.3 232 568 242.7 568 256V288C568 301.3 557.3 312 544 312H512C498.7 312 488 301.3 488 288V256zM544 296C548.4 296 552 292.4 552 288V256C552 251.6 548.4 248 544 248H512C507.6 248 504 251.6 504 256V288C504 292.4 507.6 296 512 296H544zM480 64V160H576C611.3 160 640 188.7 640 224V448C640 483.3 611.3 512 576 512H320C284.7 512 256 483.3 256 448V64C256 28.65 284.7 0 320 0H416C451.3 0 480 28.65 480 64zM464 176V64C464 37.49 442.5 16 416 16H320C293.5 16 272 37.49 272 64V448C272 474.5 293.5 496 320 496H576C602.5 496 624 474.5 624 448V224C624 197.5 602.5 176 576 176H464zM96 344C82.75 344 72 333.3 72 320V288C72 274.7 82.75 264 96 264H128C141.3 264 152 274.7 152 288V320C152 333.3 141.3 344 128 344H96zM88 320C88 324.4 91.58 328 96 328H128C132.4 328 136 324.4 136 320V288C136 283.6 132.4 280 128 280H96C91.58 280 88 283.6 88 288V320zM72 160C72 146.7 82.75 136 96 136H128C141.3 136 152 146.7 152 160V192C152 205.3 141.3 216 128 216H96C82.75 216 72 205.3 72 192V160zM128 200C132.4 200 136 196.4 136 192V160C136 155.6 132.4 152 128 152H96C91.58 152 88 155.6 88 160V192C88 196.4 91.58 200 96 200H128z"/></svg>