<svg xmlns="http://www.w3.org/2000/svg" viewBox="0 0 512 512"><!--! Font Awesome Pro 6.0.0-beta3 by @fontawesome - https://fontawesome.com License - https://fontawesome.com/license (Commercial License) Copyright 2021 Fonticons, Inc. --><path d="M205.6 412.5C209.6 414.8 214.1 416 218.7 416c5.143 0 10.09-1.462 14.38-4.276l106.6-68.94C347.4 337.8 352 329.3 352 319.1s-4.614-17.81-12.35-22.8L233 228.3C228.8 225.5 223.8 224 218.7 224C214.1 224 209.5 225.2 205.6 227.5C197.2 232.3 192 241.3 192 251v137.9C192 398.7 197.2 407.7 205.6 412.5zM208 251c0-4.01 2.104-7.705 5.5-9.656C215.1 240.5 216.9 240 218.7 240c1.967 0 3.926 .5547 5.629 1.674l106.7 68.97C334.1 312.7 336 316.2 336 319.1s-1.896 7.338-5.021 9.354l-106.7 68.97C222.6 399.4 220.6 400 218.7 400c-1.77 0-3.562-.4629-5.166-1.379C210.1 396.7 208 392.1 208 388.1V251zM448 32H64C28.65 32 0 60.65 0 96v320c0 35.35 28.65 64 64 64h384c35.35 0 64-28.65 64-64V96C512 60.65 483.3 32 448 32zM448 48c3.883 0 7.607 .5879 11.22 1.463L348.7 160H219.3l112-112H448zM308.7 48l-112 112H67.31l112-112H308.7zM16 96c0-26.47 21.53-48 48-48h92.69l-112 112H16V96zM496 416c0 26.47-21.53 48-48 48H64c-26.47 0-48-21.53-48-48V176h480V416zM496 160h-124.7l103.7-103.7C487.7 64.99 496 79.53 496 96V160z"/></svg>