<svg xmlns="http://www.w3.org/2000/svg" viewBox="0 0 640 512"><!--! Font Awesome Pro 6.0.0-beta3 by @fontawesome - https://fontawesome.com License - https://fontawesome.com/license (Commercial License) Copyright 2021 Fonticons, Inc. --><path d="M631.6 129.9c-2.377-1.268-4.984-1.898-7.578-1.898c-3.102 0-6.188 .9004-8.859 2.695L571.2 160L480 159.1V112h24C508.4 112 512 108.4 512 104S508.4 96 504 96h-272C227.6 96 224 99.58 224 104S227.6 112 232 112H272V160L101.3 159.1c-3.5 0-6.875 .4995-10.12 1.625L11 188.4C4.375 190.5 0 196.6 0 203.5v73c0 6.875 4.375 13 11 15.12l80.13 26.75c3.25 1.125 6.625 1.623 10.12 1.623L571.2 320l43.97 29.31C617.8 351.1 620.9 352 624 352c2.594 0 5.188-.625 7.562-1.891C636.8 347.3 640 341.9 640 336v-192C640 138.1 636.8 132.7 631.6 129.9zM384 112h80V160L384 159.1V112zM288 112h80V160L288 159.1V112zM624 335.1L576 304H101.3c-1.844 0-3.443-.2441-5.059-.8027L16 276.5l.0664-72.95l80.29-26.81C97.81 176.2 99.41 176 101.3 176H576l48-32V335.1zM272 224C263.2 224 256 231.2 256 240C256 248.8 263.2 256 272 256S288 248.8 288 240C288 231.2 280.8 224 272 224zM368 224C359.2 224 352 231.2 352 240C352 248.8 359.2 256 368 256S384 248.8 384 240C384 231.2 376.8 224 368 224zM464 224C455.2 224 448 231.2 448 240C448 248.8 455.2 256 464 256S480 248.8 480 240C480 231.2 472.8 224 464 224z"/></svg>