<svg xmlns="http://www.w3.org/2000/svg" viewBox="0 0 512 512"><!--! Font Awesome Pro 6.1.1 by @fontawesome - https://fontawesome.com License - https://fontawesome.com/license (Commercial License) Copyright 2022 Fonticons, Inc. --><path d="M256 .0003C397.4 .0003 512 114.6 512 256C512 397.4 397.4 512 256 512C177.6 512 107.3 476.7 60.4 421.2C57.55 417.8 57.97 412.7 61.35 409.9C64.72 407 69.77 407.5 72.62 410.8C116.7 462.9 182.5 496 256 496C388.5 496 496 388.5 496 256C496 123.5 388.5 16 256 16C151.5 16 62.6 82.78 29.65 176H136C140.4 176 144 179.6 144 184C144 188.4 140.4 192 136 192H8C3.582 192 0 188.4 0 184V56C0 51.58 3.582 48 8 48C12.42 48 16 51.58 16 56V166.7C52.23 69.37 146 0 256 0V.0003zM256 128C260.4 128 264 131.6 264 136V252.7L349.7 338.3C352.8 341.5 352.8 346.5 349.7 349.7C346.5 352.8 341.5 352.8 338.3 349.7L250.3 261.7C248.8 260.2 248 258.1 248 256V136C248 131.6 251.6 128 256 128H256z"/></svg>