<svg xmlns="http://www.w3.org/2000/svg" viewBox="0 0 512 512"><!--! Font Awesome Pro 6.0.0-beta3 by @fontawesome - https://fontawesome.com License - https://fontawesome.com/license (Commercial License) Copyright 2021 Fonticons, Inc. --><path d="M264 229.6L313.3 155.6C315.8 151.9 320.8 150.9 324.4 153.3C328.1 155.8 329.1 160.8 326.7 164.4L262.7 260.4C260.7 263.4 257.1 264.7 253.7 263.7C250.3 262.6 248 259.5 248 256V104C248 99.58 251.6 96 256 96C260.4 96 264 99.58 264 104L264 229.6zM512 256C512 397.4 397.4 512 256 512C114.6 512 0 397.4 0 256C0 114.6 114.6 0 256 0C397.4 0 512 114.6 512 256zM256 16C123.5 16 16 123.5 16 256C16 388.5 123.5 496 256 496C388.5 496 496 388.5 496 256C496 123.5 388.5 16 256 16z"/></svg>