<svg xmlns="http://www.w3.org/2000/svg" viewBox="0 0 512 512"><!--! Font Awesome Pro 6.1.1 by @fontawesome - https://fontawesome.com License - https://fontawesome.com/license (Commercial License) Copyright 2022 Fonticons, Inc. --><path d="M264 408C264 412.4 260.4 416 256 416C251.6 416 248 412.4 248 408V260.3L155.6 198.7C151.9 196.2 150.9 191.2 153.3 187.6C155.8 183.9 160.8 182.9 164.4 185.3L260.4 249.3C262.7 250.8 264 253.3 264 256V408zM256 512C114.6 512 0 397.4 0 256C0 114.6 114.6 0 256 0C397.4 0 512 114.6 512 256C512 397.4 397.4 512 256 512zM496 256C496 123.5 388.5 16 256 16C123.5 16 16 123.5 16 256C16 388.5 123.5 496 256 496C388.5 496 496 388.5 496 256z"/></svg>