<svg xmlns="http://www.w3.org/2000/svg" viewBox="0 0 512 512"><!--! Font Awesome Pro 6.1.1 by @fontawesome - https://fontawesome.com License - https://fontawesome.com/license (Commercial License) Copyright 2022 Fonticons, Inc. --><path d="M248 258.4L185.3 164.4C182.9 160.8 183.9 155.8 187.6 153.3C191.2 150.9 196.2 151.9 198.7 155.6L262.7 251.6C263.5 252.9 264 254.4 264 256V408C264 412.4 260.4 416 256 416C251.6 416 248 412.4 248 408L248 258.4zM0 256C0 114.6 114.6 0 256 0C397.4 0 512 114.6 512 256C512 397.4 397.4 512 256 512C114.6 512 0 397.4 0 256zM256 496C388.5 496 496 388.5 496 256C496 123.5 388.5 16 256 16C123.5 16 16 123.5 16 256C16 388.5 123.5 496 256 496z"/></svg>