<svg xmlns="http://www.w3.org/2000/svg" viewBox="0 0 512 512"><!--! Font Awesome Pro 6.1.1 by @fontawesome - https://fontawesome.com License - https://fontawesome.com/license (Commercial License) Copyright 2022 Fonticons, Inc. --><path d="M248 104C248 99.58 251.6 96 256 96C260.4 96 264 99.58 264 104V251.7L356.4 313.3C360.1 315.8 361.1 320.8 358.7 324.4C356.2 328.1 351.2 329.1 347.6 326.7L251.6 262.7C249.3 261.2 247.1 258.7 247.1 256L248 104zM256 0C397.4 0 512 114.6 512 256C512 397.4 397.4 512 256 512C114.6 512 0 397.4 0 256C0 114.6 114.6 0 256 0zM16 256C16 388.5 123.5 496 256 496C388.5 496 496 388.5 496 256C496 123.5 388.5 16 256 16C123.5 16 16 123.5 16 256z"/></svg>