<svg xmlns="http://www.w3.org/2000/svg" viewBox="0 0 640 512"><!--! Font Awesome Pro 6.1.1 by @fontawesome - https://fontawesome.com License - https://fontawesome.com/license (Commercial License) Copyright 2022 Fonticons, Inc. --><path d="M609.3 392.7l-280.4-172.6l42.81-27.38C399.5 174.1 416 144.8 416 111.8V96c0-52.94-43.06-96-96-96S224 43.06 224 96c0 4.406 3.594 8 8 8S240 100.4 240 96c0-44.13 35.88-80 80-80s80 35.88 80 80v15.84c0 27.41-13.78 52.59-36.88 67.38L29.72 392.6C11.12 404.5 0 424.8 0 447.5C0 483.1 28.91 512 64.47 512h511.1C611.1 512 640 483.1 640 447.5C640 424.1 628.5 404.5 609.3 392.7zM575.5 496H64.47C37.75 496 16 474.3 16 446.9c0-16.62 8.344-31.88 22.34-40.81l275.9-176.6C314.7 230 315.2 230.4 315.8 230.8l285.1 175.5C615.4 415.2 624 430.6 624 447.5C624 474.3 602.3 496 575.5 496z"/></svg>