<svg xmlns="http://www.w3.org/2000/svg" viewBox="0 0 640 512"><!--! Font Awesome Pro 6.0.0-beta3 by @fontawesome - https://fontawesome.com License - https://fontawesome.com/license (Commercial License) Copyright 2021 Fonticons, Inc. --><path d="M421.2 294.3l-94.34 94.34V168c0-4.406-3.578-8-8-8s-8 3.594-8 8v220.7L217.7 295.5c-3.125-3.125-8.188-3.125-11.31 0s-3.125 8.188 0 11.31l106.8 106.8c3.125 3.125 8.188 3.125 11.31 0l108-108C434 304.1 434.8 302.1 434.8 300s-.7813-4.094-2.344-5.656C429.4 291.2 424.3 291.2 421.2 294.3zM537.6 226.6C541.7 215.9 544 204.2 544 192c0-53-43-96-96-96c-19.69 0-38.09 6-53.31 16.2C367 64.2 315.3 32 256 32C167.6 32 96 103.6 96 192c0 2.703 .1094 5.445 .2031 8.133C40.2 219.8 0 273.2 0 336C0 415.5 64.5 480 144 480H512c70.69 0 128-57.3 128-128C640 290.1 596 238.4 537.6 226.6zM512 464H144c-70.58 0-128-57.42-128-128c0-54.27 34.36-102.8 85.5-120.8l11.09-3.9C112.6 211.3 112 194.5 112 192c0-79.4 64.6-144 144-144c51.31 0 99.14 27.66 124.8 72.2l8.553 14.83l14.22-9.531C416.8 116.7 432.1 112 448 112c44.11 0 80 35.89 80 80c0 9.893-1.799 19.61-5.348 28.87L515.9 238.5l18.53 3.748C586.3 252.8 624 298.9 624 352C624 413.8 573.8 464 512 464z"/></svg>