<svg xmlns="http://www.w3.org/2000/svg" viewBox="0 0 640 512"><!--! Font Awesome Pro 6.1.1 by @fontawesome - https://fontawesome.com License - https://fontawesome.com/license (Commercial License) Copyright 2022 Fonticons, Inc. --><path d="M231.1 216C231.1 185.1 257.1 160 287.1 160H344.2C379.4 160 407.1 188.6 407.1 223.8C407.1 245.2 397.2 265.2 379.3 277L327.1 310.9V336C327.1 340.4 324.4 344 319.1 344C315.6 344 311.1 340.4 311.1 336V306.5C311.1 303.9 313.3 301.3 315.6 299.9L370.5 263.7C383.9 254.8 391.1 239.8 391.1 223.8C391.1 197.4 370.6 176 344.2 176H287.1C265.9 176 247.1 193.9 247.1 216V222.5C247.1 226.1 244.4 230.5 239.1 230.5C235.6 230.5 231.1 226.1 231.1 222.5V216zM335.1 384C335.1 392.8 328.8 400 319.1 400C311.2 400 303.1 392.8 303.1 384C303.1 375.2 311.2 368 319.1 368C328.8 368 335.1 375.2 335.1 384zM256 32C309.6 32 356.1 58.31 386 98.71C389.1 103 392 107.5 394.7 112.2C398.2 109.8 401.9 107.7 405.7 105.8C418.5 99.52 432.8 96 448 96C501 96 544 138.1 544 192C544 198.6 543.3 204.1 542.1 211.2C541 216.5 539.5 221.6 537.6 226.6C542.9 227.6 548.1 229 553.1 230.7C603.6 247.9 640 295.7 640 352C640 422.7 582.7 480 512 480H144C64.47 480 0 415.5 0 336C0 273.2 40.17 219.8 96.2 200.1C96.07 197.4 96 194.7 96 192C96 103.6 167.6 32 256 32V32zM528 192C528 147.8 492.2 112 448 112C431.5 112 416.3 116.1 403.6 125.5C399.9 127.9 395.4 128.7 391.1 127.7C386.7 126.7 383 123.1 380.8 120.2C355.9 76.99 309.3 48 256 48C176.5 48 112 112.5 112 192C112 194.5 112.1 196.9 112.2 199.3C112.5 206.4 108.2 212.9 101.5 215.2C51.68 232.7 16 280.2 16 336C16 406.7 73.31 464 144 464H512C573.9 464 624 413.9 624 352C624 297.8 585.5 252.6 534.4 242.2C529.8 241.3 525.8 238.4 523.6 234.2C521.3 230.1 520.1 225.2 522.7 220.8C526.1 211.9 528 202.2 528 192V192z"/></svg>