<svg xmlns="http://www.w3.org/2000/svg" viewBox="0 0 576 512"><!--! Font Awesome Pro 6.0.0-beta3 by @fontawesome - https://fontawesome.com License - https://fontawesome.com/license (Commercial License) Copyright 2021 Fonticons, Inc. --><path d="M351.9 218.8C342.6 179.8 308.7 152 269.6 152c-10.34 0-20.53 2.031-30.38 6.047C220 133.8 192.2 120 161.9 120c-53.34 0-97.09 43.36-99.95 99.33C25.69 229.8 0 264.4 0 304c0 48.53 38.11 88 84.95 88c4.422 0 8-3.578 8-8s-3.578-8-8-8C46.94 376 16 343.7 16 304c0-34.27 23.3-63.94 55.41-70.55l6.156-2.938V224c0-48.53 37.83-88 84.33-88c32.6 0 54.27 16.57 72.17 42.25C255.2 167.7 263.1 168 269.6 168c11.95 0 57.1 4.785 68.61 64.34l5.422 1.016C376.4 239.5 400.1 269.2 399.1 304c0 39.7-30.94 72-68.95 72h-28.84c-4.422 0-8 3.578-8 8s3.578 8 8 8h28.84c46.84 0 84.96-39.49 84.96-87.99C416.1 263.4 389.5 228.5 351.9 218.8zM574.1 218.6c-3.047-5.375-8.891-8.156-15.27-7.047c-29.33 5.609-59.4-2.094-82.34-21.09c-22.7-18.78-35.72-46.38-35.72-75.69c0-35.38 19.27-68.23 50.28-85.75c5.344-3.031 8.125-8.891 7.094-14.94c-1.031-6.016-5.594-10.61-11.56-11.69C478.3 .7969 469.3 0 460.1 0c-77.58 0-141 60.58-144.4 137.9c-.1875 4.422 3.234 8.156 7.641 8.359c4.703 0 8.141-3.266 8.359-7.641C334.7 69.86 391.1 16 460.1 16c6.672 0 13.12 .4687 19.25 1.375c-33.75 20.83-54.53 57.73-54.53 97.39c0 34.09 15.14 66.17 41.52 88.02c26.11 21.62 60.09 30.55 91.98 24.12c-1.855 2.174-41.09 52.12-111.8 43.72c-4.406-.5625-8.312 2.766-8.75 7.156c-.4531 4.391 2.766 8.312 7.156 8.75C452.2 287.4 455.6 288 460.1 288c43.91 0 84.92-19.41 112.3-53.06C576.5 230.3 577.1 223.9 574.1 218.6zM252 376H150.9l102.9-106.4c3.062-3.188 3-8.25-.1875-11.31C250.4 255.2 245.3 255.3 242.3 258.4l-116 120c-2.219 2.312-2.875 5.719-1.625 8.688S128.8 392 132 392h101.1l-102.9 106.4c-3.062 3.188-3 8.25 .1875 11.31C132 511.3 133.1 512 136 512c2.094 0 4.188-.8125 5.75-2.438l116-120c2.219-2.312 2.875-5.719 1.625-8.688S255.2 376 252 376z"/></svg>