<svg xmlns="http://www.w3.org/2000/svg" viewBox="0 0 640 512"><!--! Font Awesome Pro 6.1.1 by @fontawesome - https://fontawesome.com License - https://fontawesome.com/license (Commercial License) Copyright 2022 Fonticons, Inc. --><path d="M157.5 300.1l-52.89 17.7C102 319.5 100.4 318.2 99.75 317.5C99.03 316.8 97.94 315.3 98.7 312.1l26.38-79.16L50.56 196.5C48.25 195.3 48 193.2 48 192.4c0-.8457 .25-2.943 2.531-4.102l74.55-37.36l-26.38-79.11C97.89 69.28 99.19 67.62 99.78 67.02c.5469-.5957 2.109-1.926 4.562-1.049l79.03 26.42l37.27-74.64c1.172-2.316 3.266-2.568 4.109-2.568S227.7 15.44 228.8 17.72l37.3 74.67l78.98-26.42c2.438-.8145 4.156 .4531 4.75 1.08c.5781 .5781 1.844 2.176 1.047 4.586l-7.016 21.16c-1.391 4.195 .875 8.734 5.078 10.13c4.141 1.439 8.734-.9082 10.11-5.086L366.1 76.66c2.453-7.434 .5625-15.45-4.922-20.94c-5.5-5.539-13.61-7.434-21.09-4.961L274.2 72.8L243.1 10.53C236-3.498 213.5-3.529 206.3 10.56L175.3 72.8L109.4 50.76C101.1 48.27 93.94 50.18 88.47 55.69C82.95 61.22 81.05 69.29 83.52 76.82l22 65.97L43.34 173.9C36.34 177.5 32 184.5 32 192.4C32 200.2 36.34 207.2 43.38 210.8l62.14 31.11l-22 66.01c-2.438 7.387-.5781 15.4 4.859 20.91c3.938 3.975 9.188 6.119 14.66 6.119c2.156 0 4.344-.3457 6.5-1.018l53-17.73C166.7 314.8 168.1 310.2 167.6 306.1C166.2 301.9 161.7 299.6 157.5 300.1zM171.2 192.3c0-29.61 23.66-53.7 52.75-53.7c9.688 0 19.28 2.863 27.75 8.264c3.703 2.361 8.672 1.299 11.05-2.459c2.375-3.725 1.281-8.686-2.453-11.06c-11.05-7.043-23.61-10.77-36.34-10.77c-37.91 0-68.75 31.27-68.75 69.72c0 19.58 8.031 37.81 22.61 51.33c1.547 1.426 3.484 2.129 5.438 2.129c2.156 0 4.297-.8613 5.875-2.566c3-3.256 2.797-8.326-.4375-11.33C177.4 221.4 171.2 207.3 171.2 192.3zM543.9 218.3c-9.344-39.08-43.16-66.92-82.3-66.92c-10.34 0-20.53 2.035-30.38 6.057c-19.22-24.3-47.06-38.11-77.34-38.11c-53.34 0-97.09 43.43-99.95 99.49C217.7 229.3 192 264 192 303.7c0 48.61 38.11 88.14 84.95 88.14c4.422 0 8-3.584 8-8.012c0-4.43-3.578-8.014-8-8.014C238.9 375.8 208 343.4 208 303.7c0-34.32 23.3-64.04 55.41-70.66l6.156-2.943V223.5c0-48.61 37.83-88.14 84.33-88.14c27.14 0 52 13.35 68.22 36.64l3.953 5.68l6.188-3.098c9.484-4.758 19.36-7.168 29.36-7.168c33.13 0 61.56 24.8 67.64 59L530.2 231.9l5.422 1.016C568.4 239.1 592.1 268.8 592 303.7c0 39.77-30.94 72.12-68.95 72.12h-28.84c-4.422 0-8 3.584-8 8.014c0 4.428 3.578 8.012 8 8.012h28.84C569.9 391.8 608 352.5 608 303.9C608.1 263.3 581.5 228 543.9 218.3zM444 376h-101.1l102.9-106.4c3.078-3.188 2.984-8.25-.1875-11.31c-3.172-3.031-8.219-2.969-11.31 .1875l-116 120c-2.234 2.312-2.875 5.719-1.609 8.688C317.9 390.1 320.8 392 324 392h101.1l-102.9 106.4c-3.078 3.188-2.984 8.25 .1875 11.31C324 511.3 325.1 512 328 512c2.094 0 4.188-.8125 5.75-2.438l116-120c2.234-2.312 2.875-5.719 1.609-8.688C450.1 377.9 447.2 376 444 376z"/></svg>