<svg xmlns="http://www.w3.org/2000/svg" viewBox="0 0 640 512"><!--! Font Awesome Pro 6.0.0-beta3 by @fontawesome - https://fontawesome.com License - https://fontawesome.com/license (Commercial License) Copyright 2021 Fonticons, Inc. --><path d="M537.6 226.6C541.7 215.9 544 204.2 544 192c0-53-43-96-96-96c-19.69 0-38.09 6.026-53.31 16.2C367 64.2 315.3 32 256 32C167.6 32 96 103.6 96 192c0 2.688 .1094 5.445 .2031 8.133C40.2 219.9 0 273.2 0 336C0 415.5 64.5 480 144 480H512c70.69 0 128-57.31 128-128C640 290.1 596 238.4 537.6 226.6zM512 464H144c-70.59 0-128-57.41-128-128c0-54.27 34.38-102.8 85.5-120.8l11.09-3.906C112.6 211.3 112 194.5 112 192c0-79.39 64.59-144 144-144c51.28 0 99.13 27.69 124.8 72.19L389.4 135l14.22-9.531C416.8 116.7 432.1 112 448 112c44.13 0 80 35.88 80 80c0 9.891-1.781 19.61-5.344 28.86l-6.75 17.67l18.53 3.734C586.3 252.8 624 298.9 624 352C624 413.8 573.8 464 512 464zM288 312C288 307.6 284.4 304 280 304h-144C131.6 304 128 307.6 128 312S131.6 320 136 320h144C284.4 320 288 316.4 288 312zM216 368h-48C163.6 368 160 371.6 160 376S163.6 384 168 384h48C220.4 384 224 380.4 224 376S220.4 368 216 368zM472 368h-48c-4.406 0-8 3.578-8 8S419.6 384 424 384h48c4.406 0 8-3.578 8-8S476.4 368 472 368zM376 368h-112C259.6 368 256 371.6 256 376S259.6 384 264 384h112c4.406 0 8-3.578 8-8S380.4 368 376 368zM504 304h-176C323.6 304 320 307.6 320 312S323.6 320 328 320h176C508.4 320 512 316.4 512 312S508.4 304 504 304z"/></svg>