<svg xmlns="http://www.w3.org/2000/svg" viewBox="0 0 576 512"><!--! Font Awesome Pro 6.0.0-beta3 by @fontawesome - https://fontawesome.com License - https://fontawesome.com/license (Commercial License) Copyright 2021 Fonticons, Inc. --><path d="M573.6 294.4c-3.641-6.078-10.5-9.125-17.42-7.75c-40.06 7.641-81.05-2.844-112.4-28.81c-31.44-26-49.47-64.3-49.47-105.1c0-48.94 26.47-94.42 68.1-118.7c6.172-3.453 9.406-10.19 8.266-17.16c-1.172-7.016-6.406-12.38-13.39-13.66c-122.4-22.08-227.4 71.47-227.4 189.1c0 1.922 .1719 3.797 .3438 5.672l.25 2.984C231.6 205.4 234.1 208.1 239.7 208.6C244.1 208.4 247.5 204.6 247.3 200.2L247 196.5C246.9 195.1 246.7 193.8 246.7 192.4c0-97.25 79.06-176.4 176.2-176.4c10.61 0 21.17 .9844 32.39 4.125c-47.58 27.14-77.12 77.95-77.12 132.6c0 45.56 20.14 88.36 55.26 117.4c35.08 28.98 80.8 40.69 126.3 33.2c-27.67 34.11-67.09 56.45-110.1 62.91c-4.359 .6562-7.391 4.719-6.75 9.094c.5938 3.969 4.016 6.828 7.906 6.828c.3906 0 .7813-.0313 1.188-.0781c47.86-7.047 90.86-31.44 121.1-68.67C576.7 307.1 577.2 300.5 573.6 294.4zM342.7 352.7c5.75-9.625 9.25-20.75 9.25-32.75c0-35.25-28.75-64-63.1-64c-17.25 0-32.75 6.875-44.25 17.87C227.4 244.2 196.2 223.1 159.1 223.1c-52.1 0-96 43.06-96 96.06c0 2 .5029 3.687 .6279 5.687c-37.5 13-64.62 48.37-64.62 90.25C-.0048 469 42.99 512 95.99 512h239.1c44.25 0 79.1-35.75 79.1-80C415.1 390.1 383.7 356.2 342.7 352.7zM335.1 495.1h-239.1c-44.11 0-79.1-35.89-79.1-80c0-33.77 21.65-63.96 53.86-75.13l11.49-3.982l-.7578-12.13c-.084-1.357-.2598-2.645-.5937-4.754c0-44.11 35.89-80 79.1-80c28.83 0 55.56 15.95 69.75 41.62l10.05 18.18L254.8 285.4c9.058-8.666 20.85-13.44 33.19-13.44c26.47 0 47.1 21.53 47.1 48c0 8.527-2.35 16.79-6.986 24.54l-13.12 21.97l25.5 2.176c33.41 2.852 58.61 30.07 58.61 63.31C399.1 467.3 371.3 495.1 335.1 495.1z"/></svg>