<svg xmlns="http://www.w3.org/2000/svg" viewBox="0 0 512 512"><!--! Font Awesome Pro 6.1.1 by @fontawesome - https://fontawesome.com License - https://fontawesome.com/license (Commercial License) Copyright 2022 Fonticons, Inc. --><path d="M311.4 416c-2.281-3.844-7.188-5.156-10.94-2.922L264 434.2V392c0-4.422-3.594-8-8-8s-8 3.578-8 8v42.15l-36.5-21.07C207.7 410.8 202.8 412.2 200.6 416c-2.188 3.828-.875 8.719 2.938 10.92L240 448L203.5 469.1C199.7 471.3 198.4 476.2 200.6 480c1.5 2.562 4.188 4 6.938 4c1.375 0 2.75-.3438 4-1.078L248 461.8V504C248 508.4 251.6 512 256 512s8-3.578 8-8v-42.15l36.5 21.07c1.25 .7344 2.625 1.078 4 1.078c2.75 0 5.438-1.438 6.938-4c2.188-3.828 .875-8.719-2.938-10.92L271.1 448l36.51-21.08C312.3 424.7 313.6 419.8 311.4 416zM502.9 384c-2.281-3.844-7.188-5.156-10.94-2.922l-36.5 21.07V360c0-4.422-3.594-8-8-8s-8 3.578-8 8v42.15l-36.5-21.07C399.2 378.8 394.3 380.2 392.1 384c-2.188 3.828-.875 8.719 2.938 10.92L431.5 416l-36.51 21.08C391.2 439.3 389.9 444.2 392.1 448c1.5 2.562 4.188 4 6.938 4c1.375 0 2.75-.3438 4-1.078l36.5-21.07V472c0 4.422 3.594 8 8 8s8-3.578 8-8v-42.15l36.5 21.07c1.25 .7344 2.625 1.078 4 1.078c2.75 0 5.438-1.438 6.938-4c2.188-3.828 .875-8.719-2.938-10.92L463.5 416l36.51-21.08C503.8 392.7 505.1 387.8 502.9 384zM119.9 384c-2.281-3.844-7.188-5.156-10.94-2.922l-36.5 21.07V360c0-4.422-3.594-8-8-8s-8 3.578-8 8v42.15l-36.5-21.07C16.21 378.8 11.31 380.2 9.059 384c-2.188 3.828-.875 8.719 2.938 10.92L48.5 416l-36.51 21.08C8.184 439.3 6.871 444.2 9.059 448c1.5 2.562 4.188 4 6.938 4c1.375 0 2.75-.3438 4-1.078l36.5-21.07V472c0 4.422 3.594 8 8 8s8-3.578 8-8v-42.15l36.5 21.07C110.2 451.7 111.6 452 112.1 452c2.75 0 5.438-1.438 6.938-4c2.188-3.828 .875-8.719-2.938-10.92L80.49 416l36.51-21.08C120.8 392.7 122.1 387.8 119.9 384zM96 320h320c53 0 96-43 96-96s-43-96-96-96c-.625 0-1.125 .25-1.625 .25C415.5 123 416 117.6 416 112C416 67.75 380.3 32 336 32c-24.62 0-46.25 11.25-61 28.75C256.4 24.75 219.3 0 176 0C114.1 0 64 50.13 64 112c0 7.25 .75 14.25 2.125 21.25C27.75 145.8 0 181.5 0 224C0 277 43 320 96 320zM71.08 148.5l13.48-4.391L81.82 130.2C80.6 123.9 80 117.1 80 112c0-52.94 43.07-96 96-96c35.67 0 68.16 19.96 84.79 52.1l11.01 21.28l15.44-18.32C299.8 56.19 317.1 48 336 48c35.29 0 64 28.71 64 64c0 4.691-.4141 8.91-1.27 12.9l-4.148 19.35c0 0 21.86-.1035 22.7-.2402C460.8 144.7 496 180.3 496 224c0 44.11-35.89 80-80 80H96C51.89 304 16 268.1 16 224C16 189.6 38.14 159.2 71.08 148.5z"/></svg>