<svg xmlns="http://www.w3.org/2000/svg" viewBox="0 0 512 512"><!--! Font Awesome Pro 6.1.1 by @fontawesome - https://fontawesome.com License - https://fontawesome.com/license (Commercial License) Copyright 2022 Fonticons, Inc. --><path d="M161.4 357.9c37.88-14.75 79.19-43.23 116.3-80.23c79.34-79.25 112.9-170 76.44-206.6c-18.28-18.38-50.38-19.83-90.41-4.281C225.8 81.53 184.5 110 147.4 147c-79.37 79.25-112.9 170-76.44 206.6C80.91 363.6 94.88 368.6 112 368.6C126.4 368.6 143.1 365 161.4 357.9zM82.31 342.3C53.16 313.1 88.16 228.8 158.8 158.3c35.53-35.45 74.88-62.67 110.8-76.63c33.28-12.95 59.94-12.7 73.28 .6406c29.16 29.27-5.844 113.5-76.44 184c-35.53 35.45-74.88 62.67-110.8 76.63C122.3 355.9 95.63 355.7 82.31 342.3zM465.6 273.2L425.1 233.1c-3.093-3.125-8.156-3.188-11.31-.0625c-3.125 3.094-3.156 8.172-.0625 11.31l39.62 40.13c1.562 1.578 3.625 2.375 5.688 2.375c2.031 0 4.062-.7656 5.625-2.312C468.7 281.4 468.7 276.3 465.6 273.2zM438 67.58l-39.75-40.03C373.7 2.824 340.7 0 323.3 0c-63.36 0-145.1 38.74-214.4 107.7C64.06 152.3 31.82 202.2 14.54 249c-6.551 17.75-18.46 55.18-13.27 92.64c3.52 25.43 13.84 43.13 25.81 55.18l39.76 40.03C116.5 486.9 181.8 512 247.2 512c64.85 0 129.8-24.66 179.4-74.04l10.39-10.34C536.6 328.5 537.1 167.3 438 67.58zM38.45 385.6c-55.21-55.59-2.047-183.2 81.74-266.5C183.3 56.29 261.1 16 323.3 16c20.1 0 37.5 4.439 51.21 12.96c4.566 2.84 8.725 6.133 12.43 9.867c50.14 50.49 12.71 172.5-81.75 266.5c-63.89 63.57-141.7 103.1-203.1 103.1C75.28 408.4 53.28 400.5 38.45 385.6zM425.7 416.3l-10.39 10.34C370.3 471.4 310.6 496 247.2 496c-63.94 0-123.1-24.1-169.1-70.38l-4.5-4.531c8.994 1.979 18.34 3.328 28.38 3.328c63.36 0 145.1-38.82 214.4-107.8c80.2-79.8 119.8-176.2 105.9-242.1l4.305 4.334C519.3 172.2 518.9 323.5 425.7 416.3zM357.9 346.5c-3.094-3.109-8.156-3.141-11.31 0c-3.125 3.125-3.125 8.188 0 11.31l45.22 45.27c3.158 3.158 8.217 3.096 11.31 0c3.125-3.125 3.125-8.188 0-11.31L357.9 346.5zM244.8 414.4c-3.094-3.141-8.156-3.172-11.31-.0625c-3.125 3.094-3.188 8.156-.0625 11.31l39.63 40.14c1.562 1.578 3.625 2.375 5.688 2.375c2.031 0 4.062-.7656 5.625-2.312c3.125-3.094 3.188-8.156 .0625-11.31L244.8 414.4z"/></svg>