<svg xmlns="http://www.w3.org/2000/svg" viewBox="0 0 448 512"><!--! Font Awesome Pro 6.0.0-beta3 by @fontawesome - https://fontawesome.com License - https://fontawesome.com/license (Commercial License) Copyright 2021 Fonticons, Inc. --><path d="M16 448c0 35.35 28.65 64 64 64s64-28.65 64-64s-28.65-64-64-64S16 412.7 16 448zM80 400C106.5 400 128 421.5 128 448s-21.53 48-48 48S32 474.5 32 448S53.53 400 80 400zM368 0c-35.35 0-64 28.65-64 64c0 32.61 24.47 59.22 56 63.2V160c0 48.53-39.47 88-88 88h-96c-37.17 0-69.61 19.77-88 49.18V127.2C119.5 123.2 144 96.61 144 64c0-35.35-28.65-64-64-64s-64 28.65-64 64c0 32.61 24.47 59.22 56 63.2V384h16v-32c0-48.53 39.47-88 88-88h96c57.34 0 104-46.66 104-104V127.2C407.5 123.2 432 96.61 432 64C432 28.65 403.3 0 368 0zM80 112C53.53 112 32 90.47 32 64s21.53-48 48-48S128 37.53 128 64S106.5 112 80 112zM368 112C341.5 112 320 90.47 320 64s21.53-48 48-48S416 37.53 416 64S394.5 112 368 112z"/></svg>