<svg xmlns="http://www.w3.org/2000/svg" viewBox="0 0 448 512"><!--! Font Awesome Pro 6.1.1 by @fontawesome - https://fontawesome.com License - https://fontawesome.com/license (Commercial License) Copyright 2022 Fonticons, Inc. --><path d="M88 384.5C119.6 388.4 144 415.4 144 448C144 483.3 115.3 512 80 512C44.65 512 16 483.3 16 448C16 415.4 40.43 388.4 72 384.5V127.5C40.43 123.6 16 96.64 16 64C16 28.65 44.65 0 80 0C115.3 0 144 28.65 144 64C144 96.64 119.6 123.6 88 127.5V384.5zM80 16C53.49 16 32 37.49 32 64C32 90.51 53.49 112 80 112C106.5 112 128 90.51 128 64C128 37.49 106.5 16 80 16zM80 400C53.49 400 32 421.5 32 448C32 474.5 53.49 496 80 496C106.5 496 128 474.5 128 448C128 421.5 106.5 400 80 400zM304 448C304 412.7 332.7 384 368 384C403.3 384 432 412.7 432 448C432 483.3 403.3 512 368 512C332.7 512 304 483.3 304 448zM368 496C394.5 496 416 474.5 416 448C416 421.5 394.5 400 368 400C341.5 400 320 421.5 320 448C320 474.5 341.5 496 368 496zM328 80C328 57.91 345.9 40 368 40C390.1 40 408 57.91 408 80C408 102.1 390.1 120 368 120C345.9 120 328 102.1 328 80zM368 104C381.3 104 392 93.26 392 80C392 66.75 381.3 56 368 56C354.7 56 344 66.75 344 80C344 93.26 354.7 104 368 104zM408 240C408 262.1 390.1 280 368 280C345.9 280 328 262.1 328 240C328 217.9 345.9 200 368 200C390.1 200 408 217.9 408 240zM368 216C354.7 216 344 226.7 344 240C344 253.3 354.7 264 368 264C381.3 264 392 253.3 392 240C392 226.7 381.3 216 368 216z"/></svg>