<svg xmlns="http://www.w3.org/2000/svg" viewBox="0 0 512 512"><!--! Font Awesome Pro 6.1.1 by @fontawesome - https://fontawesome.com License - https://fontawesome.com/license (Commercial License) Copyright 2022 Fonticons, Inc. --><path d="M205.4 10.08L293.4 90.08C295 91.6 296 93.75 296 96C296 98.25 295 100.4 293.4 101.9L205.4 181.9C202.1 184.9 197.1 184.7 194.1 181.4C191.1 178.1 191.3 173.1 194.6 170.1L267.3 104H176C127.4 104 88 143.4 88 192V384.5C119.6 388.4 144 415.4 144 448C144 483.3 115.3 512 80 512C44.65 512 16 483.3 16 448C16 415.4 40.43 388.4 72 384.5V192C72 134.6 118.6 88 176 88H267.3L194.6 21.92C191.3 18.95 191.1 13.89 194.1 10.62C197.1 7.35 202.1 7.109 205.4 10.08V10.08zM127.1 448C127.1 421.5 106.5 400 79.1 400C53.49 400 31.1 421.5 31.1 448C31.1 474.5 53.49 496 79.1 496C106.5 496 127.1 474.5 127.1 448zM306.6 501.9L218.6 421.9C216.1 420.4 215.1 418.3 215.1 416C215.1 413.7 216.1 411.6 218.6 410.1L306.6 330.1C309.9 327.1 314.9 327.4 317.9 330.6C320.9 333.9 320.6 338.9 317.4 341.9L244.7 408H336C384.6 408 424 368.6 424 320V127.5C392.4 123.6 368 96.64 368 64C368 28.65 396.7 0 432 0C467.3 0 496 28.65 496 64C496 96.64 471.6 123.6 440 127.5V320C440 377.4 393.4 424 336 424H244.7L317.4 490.1C320.6 493.1 320.9 498.1 317.9 501.4C314.9 504.6 309.9 504.9 306.6 501.9V501.9zM384 64C384 90.51 405.5 112 432 112C458.5 112 480 90.51 480 64C480 37.49 458.5 16 432 16C405.5 16 384 37.49 384 64z"/></svg>