<svg xmlns="http://www.w3.org/2000/svg" viewBox="0 0 512 512"><!--! Font Awesome Pro 6.1.1 by @fontawesome - https://fontawesome.com License - https://fontawesome.com/license (Commercial License) Copyright 2022 Fonticons, Inc. --><path d="M88 384.5C119.6 388.4 144 415.4 144 448C144 483.3 115.3 512 80 512C44.65 512 16 483.3 16 448C16 415.4 40.43 388.4 72 384.5V127.5C40.43 123.6 16 96.64 16 64C16 28.65 44.65 0 80 0C115.3 0 144 28.65 144 64C144 96.64 119.6 123.6 88 127.5V384.5zM80 16C53.49 16 32 37.49 32 64C32 90.51 53.49 112 80 112C106.5 112 128 90.51 128 64C128 37.49 106.5 16 80 16zM80 400C53.49 400 32 421.5 32 448C32 474.5 53.49 496 80 496C106.5 496 128 474.5 128 448C128 421.5 106.5 400 80 400zM368 448C368 415.4 392.4 388.4 424 384.5V192C424 143.4 384.6 104 336 104H244.7L317.4 170.1C320.6 173.1 320.9 178.1 317.9 181.4C314.9 184.7 309.9 184.9 306.6 181.9L218.6 101.9C216.1 100.4 216 98.25 216 96C216 93.75 216.1 91.6 218.6 90.08L306.6 10.08C309.9 7.109 314.9 7.35 317.9 10.62C320.9 13.89 320.6 18.95 317.4 21.92L244.7 88H336C393.4 88 440 134.6 440 192V384.5C471.6 388.4 496 415.4 496 448C496 483.3 467.3 512 432 512C396.7 512 368 483.3 368 448zM432 496C458.5 496 480 474.5 480 448C480 421.5 458.5 400 432 400C405.5 400 384 421.5 384 448C384 474.5 405.5 496 432 496z"/></svg>