<svg xmlns="http://www.w3.org/2000/svg" viewBox="0 0 448 512"><!--! Font Awesome Pro 6.0.0-beta3 by @fontawesome - https://fontawesome.com License - https://fontawesome.com/license (Commercial License) Copyright 2021 Fonticons, Inc. --><path d="M384 208c-32.61 0-59.22 24.47-63.19 56H224C149 264 88 203 88 128V127.2C119.5 123.2 144 96.61 144 64c0-35.35-28.65-64-64-64c-35.35 0-64 28.65-64 64c0 32.61 24.47 59.22 56 63.2v257.6C40.47 388.8 16 415.4 16 448c0 35.35 28.65 64 64 64c35.35 0 64-28.65 64-64c0-32.61-24.47-59.22-56-63.2V194.5C112.8 244.9 164.2 280 224 280h96.81C324.8 311.5 351.4 336 384 336c35.35 0 64-28.65 64-64S419.3 208 384 208zM128 448c0 26.47-21.53 48-48 48S32 474.5 32 448s21.53-48 48-48S128 421.5 128 448zM80 112C53.53 112 32 90.47 32 64s21.53-48 48-48S128 37.53 128 64S106.5 112 80 112zM384 320c-26.47 0-48-21.53-48-48S357.5 224 384 224s48 21.53 48 48S410.5 320 384 320z"/></svg>