<svg xmlns="http://www.w3.org/2000/svg" viewBox="0 0 512 512"><!--! Font Awesome Pro 6.0.0-beta3 by @fontawesome - https://fontawesome.com License - https://fontawesome.com/license (Commercial License) Copyright 2021 Fonticons, Inc. --><path d="M431.5 177.6L480 32H72C32.31 32 0 64.3 0 104v112C0 220.4 3.594 224 8 224S16 220.4 16 216v-112c0-30.88 25.12-56 56-56h29.34l43.41 130.1C95.38 217.9 64 277.8 64 344.6c0 51.5 18.62 84.74 49.62 117.7C124.5 473.6 139.5 480 155.1 480l265.8 0c15.62 0 30.57-6.192 41.32-17.57C493.2 429.6 512 396.1 512 344.6C512 278.4 481.4 217.9 431.5 177.6zM118.2 48h339.6l-42.63 128H160.9L118.2 48zM153.2 192h270.4c35.23 29.26 58.87 68.62 68.02 112H84.45C93.71 260.7 117.6 221.3 153.2 192zM450.6 451.4C443 459.4 432.2 464 420.9 464H155.1c-11.23 0-22.17-4.645-29.84-12.58C98.1 422.5 80 393.2 80 344.6C80 336.3 80.65 328.1 81.69 320h412.7C495.4 328.1 496 336.3 496 344.6C496 393.3 477.9 422.5 450.6 451.4z"/></svg>