<svg xmlns="http://www.w3.org/2000/svg" viewBox="0 0 512 512"><!--! Font Awesome Pro 6.1.1 by @fontawesome - https://fontawesome.com License - https://fontawesome.com/license (Commercial License) Copyright 2022 Fonticons, Inc. --><path d="M264 344C264 348.4 260.4 352 256 352C251.6 352 248 348.4 248 344V168C248 163.6 251.6 160 256 160C260.4 160 264 163.6 264 168V344zM64 256C64 149.1 149.1 64 256 64C362 64 448 149.1 448 256C448 362 362 448 256 448C149.1 448 64 362 64 256zM256 432C353.2 432 432 353.2 432 256C432 158.8 353.2 80 256 80C158.8 80 80 158.8 80 256C80 353.2 158.8 432 256 432zM0 256C0 114.6 114.6 0 256 0C397.4 0 512 114.6 512 256C512 397.4 397.4 512 256 512C114.6 512 0 397.4 0 256zM256 496C388.5 496 496 388.5 496 256C496 123.5 388.5 16 256 16C123.5 16 16 123.5 16 256C16 388.5 123.5 496 256 496z"/></svg>