<svg xmlns="http://www.w3.org/2000/svg" viewBox="0 0 128 512"><!--! Font Awesome Pro 6.1.1 by @fontawesome - https://fontawesome.com License - https://fontawesome.com/license (Commercial License) Copyright 2022 Fonticons, Inc. --><path d="M64 320c-35.35 0-64 28.65-64 64c0 35.35 28.65 64 64 64s64-28.65 64-64C128 348.7 99.35 320 64 320zM64 432c-26.47 0-48-21.53-48-48s21.53-48 48-48s48 21.53 48 48S90.47 432 64 432zM64 192c35.35 0 64-28.65 64-64c0-35.35-28.65-64-64-64s-64 28.65-64 64C.0008 163.3 28.66 192 64 192zM64 80c26.47 0 48 21.53 48 48s-21.53 48-48 48s-48-21.53-48-48S37.54 80 64 80z"/></svg>