<svg xmlns="http://www.w3.org/2000/svg" viewBox="0 0 512 512"><!--! Font Awesome Pro 6.1.1 by @fontawesome - https://fontawesome.com License - https://fontawesome.com/license (Commercial License) Copyright 2022 Fonticons, Inc. --><path d="M344 175.1h-176c-4.406 0-8 3.595-8 8.001s3.594 7.999 8 7.999h79.1v135.1c0 4.406 3.594 8.001 8 8.001s7.1-3.595 7.1-8.001V191.1H344c4.406 0 8-3.593 8-7.999S348.4 175.1 344 175.1zM256 31.1c-141.4 0-255.1 93.09-255.1 208c0 49.59 21.38 95.03 56.97 130.7c-12.5 50.39-54.27 95.27-54.77 95.77c-2.188 2.297-2.781 5.734-1.5 8.734c1.312 3 4.083 4.766 7.271 4.766c66.31 0 116-31.78 140.6-51.39c32.72 12.31 68.1 19.39 107.4 19.39c141.4 0 255.1-93.09 255.1-207.1S397.4 31.1 256 31.1zM255.1 431.1c-35.12 0-69.36-6.184-101.8-18.38l-8.508-3.199l-7.105 5.668c-20.2 16.1-60.14 42.03-112.7 47.05c14.44-18.29 37.42-51.68 46.57-88.59l2.172-8.758l-6.371-6.391C34.1 325.1 15.1 283.8 15.1 239.1c0-105.9 107.7-192 240-192s240 86.13 240 192S388.3 431.1 255.1 431.1z"/></svg>