<svg xmlns="http://www.w3.org/2000/svg" viewBox="0 0 192 512"><!--! Font Awesome Pro 6.0.0-beta3 by @fontawesome - https://fontawesome.com License - https://fontawesome.com/license (Commercial License) Copyright 2021 Fonticons, Inc. --><path d="M97.36 304c19.43 0 37.91 12.13 43.96 28.85c4.533 12.49 3.285 26.22-3.412 37.66l-67.69 115.4C66.56 492.1 59.78 496 52.51 496c-2.395 0-4.76-.4172-7.029-1.241c-9.307-3.375-14.85-12.86-13.18-22.57l22.57-131.7C57.11 327.4 65.02 316.1 76.58 309.4C82.66 305.9 89.84 304 97.36 304zM97.35 287.1C97.35 287.1 97.36 287.1 97.35 287.1c-9.959 .002-19.91 2.39-28.8 7.544c-15.66 9.051-26.41 24.44-29.45 42.25l-22.57 131.7c-2.986 17.32 6.9 34.29 23.49 40.31C44.12 511.3 48.34 511.1 52.51 511.1c12.67 0 24.82-6.604 31.51-18.03l67.69-115.4c9.119-15.58 10.81-34.25 4.652-51.21C147.6 303.1 122.4 287.1 97.35 287.1z"/></svg>