<svg xmlns="http://www.w3.org/2000/svg" viewBox="0 0 512 512"><!--! Font Awesome Pro 6.1.1 by @fontawesome - https://fontawesome.com License - https://fontawesome.com/license (Commercial License) Copyright 2022 Fonticons, Inc. --><path d="M256 32C114.6 32 .0281 125.1 .0281 240c0 49.59 21.38 95.03 56.97 130.7C44.5 421.1 2.729 466 2.229 466.5c-2.188 2.297-2.781 5.734-1.5 8.734C2.042 478.2 4.813 480 8 480c66.31 0 116-31.78 140.6-51.39C181.3 440.9 217.6 448 256 448c141.4 0 255.1-93.09 255.1-208S397.4 32 256 32zM256 432c-35.12 0-69.36-6.184-101.8-18.38L145.7 410.4l-7.105 5.666c-20.2 16.11-60.14 42.04-112.7 47.06c14.44-18.29 37.42-51.68 46.57-88.59l2.172-8.758l-6.371-6.391C34.1 325.1 16 283.8 16 240c0-105.9 107.7-192 240-192s240 86.13 240 192S388.3 432 256 432zM344 232h-80v-80c0-4.42-3.578-8-8-8S248 147.6 248 152v80h-80C163.6 232 160 235.6 160 240c0 4.422 3.578 8 8 8h80v80c0 4.422 3.578 8 8 8s8-3.58 8-8v-80h80C348.4 248 352 244.4 352 240S348.4 232 344 232z"/></svg>