<svg xmlns="http://www.w3.org/2000/svg" viewBox="0 0 512 512"><!--! Font Awesome Pro 6.0.0-beta3 by @fontawesome - https://fontawesome.com License - https://fontawesome.com/license (Commercial License) Copyright 2021 Fonticons, Inc. --><path d="M256 32C114.6 32 .0273 125.1 .0273 240c0 49.59 21.38 95.03 56.97 130.7c-12.5 50.39-54.27 95.27-54.77 95.77c-2.188 2.297-2.781 5.734-1.5 8.734C2.041 478.2 4.813 480 8 480c66.31 0 116-31.78 140.6-51.39C181.3 440.9 217.6 448 256 448C397.4 448 512 354.9 512 240S397.4 32 256 32zM256 432c-35.12 0-69.36-6.184-101.8-18.38L145.7 410.4l-7.105 5.666c-20.2 16.11-60.14 42.04-112.7 47.06c14.44-18.29 37.42-51.68 46.57-88.59l2.172-8.758l-6.371-6.391C34.1 325.1 16 283.8 16 240c0-105.9 107.7-192 240-192s240 86.13 240 192S388.3 432 256 432zM346.9 232.6c-.875-.3438-1.609-.6562-2.5-.6562c-5.123 0-15.6 10.37-80.44 76.5V152c0-4.406-3.578-8-8-8S248 147.6 248 152v156.7L173.7 234.3c-3.125-3.125-8.188-3.125-11.31 0s-3.125 8.188 0 11.31l88 88C251.8 335.2 253.9 336 256 336s4.219-.875 5.719-2.406c30.45-31.06 80.17-81.41 86.47-86.78c1.422-.875 2.594-2.188 3.25-3.875C353.1 238.8 351 234.2 346.9 232.6z"/></svg>