<svg xmlns="http://www.w3.org/2000/svg" viewBox="0 0 640 512"><!--! Font Awesome Pro 6.0.0-beta3 by @fontawesome - https://fontawesome.com License - https://fontawesome.com/license (Commercial License) Copyright 2021 Fonticons, Inc. --><path d="M228.7 80H183.3C159.4 80 140 99.38 140 123.2c0 4.422 3.578 8 8 8s8-3.578 8-8C156 108.2 168.3 96 183.3 96h45.44C245.1 96 260 109.1 260 127.2c0 11.88-6.625 22.55-17.38 27.91L204.3 174.9C201.7 176.3 200 179 200 182V208c0 4.422 3.578 8 8 8S216 212.4 216 208V186.9l33.86-17.53C265.1 161.3 276 145.1 276 127.2C276 101.2 254.8 80 228.7 80zM208 244.6C201.7 244.6 196.6 249.7 196.6 256c0 6.299 5.107 11.41 11.41 11.41S219.4 262.3 219.4 256C219.4 249.7 214.3 244.6 208 244.6zM416 176C416 78.8 322.9 0 208 0S0 78.8 0 176c0 39.57 15.62 75.96 41.67 105.4c-16.39 32.76-39.23 57.32-39.59 57.68c-2.1 2.205-2.67 5.475-1.441 8.354C1.9 350.3 4.602 352 7.66 352c38.35 0 70.76-11.12 95.74-24.04C134.2 343.1 169.8 352 208 352C322.9 352 416 273.2 416 176zM208 336c-34.14 0-67.86-7.742-97.51-22.39L103.2 310L96.05 313.7c-22.64 11.71-46.03 18.84-69.75 21.29c8.633-11.07 20.12-27.4 29.69-46.52l4.838-9.674L53.65 270.7C29.02 242.1 16 210.2 16 176c0-88.22 86.13-160 192-160s192 71.78 192 160S313.9 336 208 336zM599.6 443.7C624.8 413.9 640 376.6 640 336c0-89.54-72.1-163.3-167.4-174.4c-4.912-.5762-9.135 3.488-8.83 8.424c.2363 3.832 3.18 6.947 6.994 7.398C557.1 187.6 624 254.8 624 336c0 35.44-12.66 69.12-36.62 97.39l-6.918 8.168l4.91 9.512c9.25 17.92 20.15 33.37 28.38 43.96c-22.29-2.318-44.37-8.807-65.85-19.38l-7.174-3.529l-7.131 3.621C507.5 488.1 477.9 496 448 496c-73.58 0-136.6-41.33-162.8-99.74c-1.537-3.42-5.25-5.295-8.908-4.471l-.3594 .082c-4.859 1.096-7.426 6.369-5.389 10.91C299.2 466.8 367.8 512 448 512c33.69 0 65.32-8.008 92.85-21.98C565.2 502 596.1 512 632.3 512c3.059 0 5.76-1.725 7.02-4.605c1.229-2.879 .6582-6.148-1.441-8.354C637.6 498.7 615.9 475.3 599.6 443.7zM392.7 346.7c-3.125 3.125-3.125 8.188 0 11.31l43.64 43.64c1.5 1.5 3.531 2.344 5.656 2.344c1.657-.1875 4.266-.9062 5.782-2.469l91.64-96c3.062-3.203 2.938-8.266-.25-11.31c-3.203-3.031-8.25-2.922-11.31 .25l-85.98 90.08l-37.86-37.84C400.9 343.6 395.8 343.6 392.7 346.7z"/></svg>