<svg xmlns="http://www.w3.org/2000/svg" viewBox="0 0 512 512"><!--! Font Awesome Pro 6.1.1 by @fontawesome - https://fontawesome.com License - https://fontawesome.com/license (Commercial License) Copyright 2022 Fonticons, Inc. --><path d="M256 31.1c-141.4 0-255.1 93.09-255.1 208c0 49.59 21.38 94.1 56.97 130.7c-12.5 50.39-54.31 95.3-54.81 95.8c-2.187 2.297-2.781 5.703-1.5 8.703c1.312 3 4.125 4.797 7.312 4.797c66.31 0 116-31.8 140.6-51.41c32.72 12.31 69.01 19.41 107.4 19.41c141.4 0 255.1-93.09 255.1-207.1S397.4 31.1 256 31.1zM255.1 431.1c-35.12 0-69.36-6.184-101.8-18.38l-8.508-3.201l-7.105 5.666c-20.2 16.11-60.14 42.04-112.7 47.06c14.44-18.29 37.42-51.68 46.57-88.59l2.172-8.758l-6.371-6.391C34.1 325.1 15.1 283.8 15.1 239.1c0-105.9 107.7-192 240-192s240 86.13 240 192S388.3 431.1 255.1 431.1zM255.1 287.1c4.406 0 7.968-3.594 7.968-8.001V135.1c0-4.406-3.594-8-8-8s-8 3.594-8 8v143.1C247.9 284.4 251.6 287.1 255.1 287.1zM255.1 319.1c-8.822 0-16 7.18-16 16s7.178 16 16 16s16-7.18 16-16S264.8 319.1 255.1 319.1z"/></svg>