<svg xmlns="http://www.w3.org/2000/svg" viewBox="0 0 384 512"><!--! Font Awesome Pro 6.0.0-beta3 by @fontawesome - https://fontawesome.com License - https://fontawesome.com/license (Commercial License) Copyright 2021 Fonticons, Inc. --><path d="M224 0H160C71.63 0 0 71.63 0 160v192c0 88.38 71.63 160 160 160h64c88.38 0 160-71.63 160-160V160C384 71.63 312.4 0 224 0zM16 160c0-79.4 64.6-144 144-144h24V192H16V160zM368 352c0 79.4-64.6 144-144 144H160c-79.4 0-144-64.6-144-144V208h352V352zM368 192h-168V16H224c79.4 0 144 64.6 144 144V192z"/></svg>