<svg xmlns="http://www.w3.org/2000/svg" viewBox="0 0 448 512"><!--! Font Awesome Pro 6.0.0-beta3 by @fontawesome - https://fontawesome.com License - https://fontawesome.com/license (Commercial License) Copyright 2021 Fonticons, Inc. --><path d="M151.1 31.1c-4.406 0-8 3.578-8 8v136h-136c-4.406 0-8 3.578-8 8s3.594 8 8 8h144c4.406 0 8-3.578 8-8v-144C159.1 35.58 156.4 31.1 151.1 31.1zM295.1 191.1h144c4.406 0 8-3.578 8-8s-3.594-8-8-8h-136v-136c0-4.422-3.594-8-8-8s-8 3.578-8 8v144C287.1 188.4 291.6 191.1 295.1 191.1zM439.1 319.1h-144c-4.406 0-8 3.578-8 8v144c0 4.422 3.594 8 8 8s8-3.578 8-8v-136h136c4.406 0 8-3.578 8-8S444.4 319.1 439.1 319.1zM151.1 319.1h-144c-4.406 0-8 3.578-8 8s3.594 8 8 8h136v136c0 4.422 3.594 8 8 8s8-3.578 8-8v-144C159.1 323.6 156.4 319.1 151.1 319.1z"/></svg>