<svg xmlns="http://www.w3.org/2000/svg" viewBox="0 0 384 512"><!--! Font Awesome Pro 6.0.0-beta3 by @fontawesome - https://fontawesome.com License - https://fontawesome.com/license (Commercial License) Copyright 2021 Fonticons, Inc. --><path d="M224 0H160c-88.38 0-160 71.63-160 160v192c0 88.38 71.63 160 160 160h64c88.38 0 160-71.63 160-160V160C384 71.62 312.4 0 224 0zM368 352c0 79.4-64.6 144-144 144H160c-79.4 0-144-64.6-144-144V160c0-79.4 64.6-144 144-144h64c79.4 0 144 64.6 144 144V352zM192 95.1c-17.62 0-32 14.38-32 32v31.1C160 177.6 174.4 192 192 192s32-14.38 32-32V127.1C224 110.4 209.6 95.1 192 95.1zM208 160c0 8.822-7.178 16-16 16S176 168.8 176 160V128c0-8.822 7.178-16 16-16s16 7.178 16 16V160z"/></svg>