<svg xmlns="http://www.w3.org/2000/svg" viewBox="0 0 640 512"><!--! Font Awesome Pro 6.1.1 by @fontawesome - https://fontawesome.com License - https://fontawesome.com/license (Commercial License) Copyright 2022 Fonticons, Inc. --><path d="M415.1 416c4.422 0 8-3.578 8-8v-304c0-4.422-3.578-8-8-8s-8 3.578-8 8v304C407.1 412.4 411.6 416 415.1 416zM511.1 416c4.422 0 8-3.578 8-8v-304c0-4.422-3.578-8-8-8s-8 3.578-8 8v304C503.1 412.4 507.6 416 511.1 416zM319.1 416c4.422 0 8-3.578 8-8v-304c0-4.422-3.578-8-8-8s-8 3.578-8 8v304C311.1 412.4 315.6 416 319.1 416zM127.1 416c4.422 0 8-3.578 8-8v-304c0-4.422-3.578-8-8-8s-8 3.578-8 8v304C119.1 412.4 123.6 416 127.1 416zM223.1 416c4.422 0 8-3.578 8-8v-304c0-4.422-3.578-8-8-8s-8 3.578-8 8v304C215.1 412.4 219.6 416 223.1 416zM631.1 464h-8v-416h8c4.422 0 8-3.578 8-8s-3.578-8-8-8h-624c-4.422 0-8 3.578-8 8s3.578 8 8 8h8v416h-8c-4.422 0-8 3.578-8 8s3.578 8 8 8h624c4.422 0 8-3.578 8-8S636.4 464 631.1 464zM608 464h-576v-416h576V464z"/></svg>