<svg xmlns="http://www.w3.org/2000/svg" viewBox="0 0 640 512"><!--! Font Awesome Pro 6.0.0-beta3 by @fontawesome - https://fontawesome.com License - https://fontawesome.com/license (Commercial License) Copyright 2021 Fonticons, Inc. --><path d="M159.1 288h320c17.6 0 32-14.4 32-32l0-224c0-17.6-14.4-32-32-32h-320C142.4 0 127.1 14.4 127.1 32L127.1 256C127.1 273.6 142.4 288 159.1 288zM255.1 16h128V160l-64-32l-64 32V16zM143.1 32c0-8.822 7.178-16 16-16h80V160c0 5.545 2.871 10.7 7.588 13.61C250.2 175.2 253.1 176 255.1 176c2.445 0 4.896-.5605 7.156-1.689L319.1 145.9l56.84 28.42C379.1 175.4 381.6 176 383.1 176c2.926 0 5.842-.8008 8.412-2.389C397.1 170.7 399.1 165.5 399.1 160V16h80c8.822 0 16 7.178 16 16v224c0 8.822-7.178 16-16 16h-320c-8.822 0-16-7.178-16-16V32zM111.1 368c-26.62 0-48 21.38-48 48s21.38 48 48 48s48-21.38 48-48S138.6 368 111.1 368zM111.1 448c-17.64 0-32-14.36-32-32s14.36-32 32-32s32 14.36 32 32S129.6 448 111.1 448zM319.1 368c-26.62 0-48 21.38-48 48s21.38 48 48 48s48-21.38 48-48S346.6 368 319.1 368zM319.1 448c-17.64 0-32-14.36-32-32s14.36-32 32-32s32 14.36 32 32S337.6 448 319.1 448zM527.1 368c-26.62 0-47.1 21.38-47.1 48s21.38 48 47.1 48c26.62 0 48-21.38 48-48S554.6 368 527.1 368zM527.1 448c-17.64 0-32-14.36-32-32s14.36-32 32-32s32 14.36 32 32S545.6 448 527.1 448zM544 320h-448c-53.02 0-96 42.98-96 96s42.98 96 96 96h448c53.02 0 96-42.98 96-96S597 320 544 320zM543.1 496h-448c-44.11 0-80-35.89-80-80s35.89-80 80-80h448c44.11 0 80 35.89 80 80S588.1 496 543.1 496z"/></svg>