<svg xmlns="http://www.w3.org/2000/svg" viewBox="0 0 512 512"><!--! Font Awesome Pro 6.0.0-beta3 by @fontawesome - https://fontawesome.com License - https://fontawesome.com/license (Commercial License) Copyright 2021 Fonticons, Inc. --><path d="M316 165.9c3.75 2.156 8.656 .875 10.94-2.938C329.1 159.2 327.8 154.3 324 152c-46.91-27.09-106.5-19.28-144.8 19.12C156.5 193.8 144 223.9 144 256s12.5 62.19 35.16 84.84C202.3 363.1 233 376 264.1 376c20.53 0 41.22-5.25 59.88-16.03c3.812-2.219 5.125-7.125 2.938-10.94c-2.281-3.875-7.188-5.094-10.94-2.938c-40.72 23.5-92.34 16.69-125.5-16.56C170.8 309.9 160 283.8 160 256s10.81-53.91 30.47-73.53C223.7 149.2 275.3 142.4 316 165.9zM256 0C114.6 0 0 114.6 0 256s114.6 256 256 256s256-114.6 256-256S397.4 0 256 0zM256 496c-132.3 0-240-107.7-240-240S123.7 16 256 16s240 107.7 240 240S388.3 496 256 496z"/></svg>