<svg xmlns="http://www.w3.org/2000/svg" viewBox="0 0 512 512"><!--! Font Awesome Pro 6.0.0-beta3 by @fontawesome - https://fontawesome.com License - https://fontawesome.com/license (Commercial License) Copyright 2021 Fonticons, Inc. --><path d="M511.9 51.77l-.0313-2.502c1.656-25.33-17.04-46.88-42.42-49.07c-15.54-1.406-30.82 4.877-40.57 16.72c-11.19-7.064-24.91-9.127-37.48-5.312c-12.41 3.484-22.57 11.71-28.54 22.71c-11.32-4.471-24.16-4.346-35.82 .5938c-11.44 5.172-20.22 14.47-24.69 25.79c-11.85-2.939-24.41-1.236-34.98 4.984c-10.44 5.986-18.16 16.02-21.47 27.41C234 91.15 221.6 93.92 211.6 101.2C207.9 103.9 204.6 106.1 201.8 110.7c-2.656 3.516-2 8.549 1.531 11.22c3.502 2.672 8.502 2 11.22-1.5c1.906-2.518 4.031-4.596 6.438-6.361C228.1 108.3 239.9 106.9 249.4 110.5c2.377 .8594 5.002 .6094 7.158-.75c2.125-1.361 3.502-3.658 3.658-6.174c.6875-9.861 6.5-19.05 15.22-24.07c8.721-5.158 19.47-5.627 28.88-1.221c2.189 1.016 4.814 1 7.064-.1406c2.188-1.141 3.75-3.25 4.189-5.688c1.812-10.08 8.562-18.68 17.88-22.88c9.754-4.047 20.57-3.141 29.1 2.471c2.094 1.375 4.719 1.703 7.094 .8281c2.377-.8594 4.221-2.783 4.939-5.205c3.062-10.06 10.97-17.8 21.32-20.71c10.38-3.094 21.32-.375 29.32 7.314c1.877 1.734 4.346 2.641 6.846 2.125c2.469-.3906 4.627-1.938 5.814-4.172c5.781-11 17.85-17.11 30.13-16.1c16.72 1.438 29.01 15.54 27.91 32.62v2.705c-.4375 11.39-6.939 21.64-16.94 26.74c-2.219 1.125-3.781 3.221-4.25 5.674c-.4375 2.438 .25 4.953 1.938 6.814c7.408 8.203 9.971 19.25 6.908 29.47c-3.064 9.986-11.1 18.02-20.94 20.99c-2.406 .7187-4.312 2.516-5.188 4.875c-.875 2.346-.5938 4.971 .75 7.08c5.689 8.939 6.502 19.55 2.25 29.1c-4.281 9.408-12.75 15.86-23.29 17.71c-2.502 .4219-4.627 2.016-5.752 4.266c-1.156 2.25-1.156 4.924-.0313 7.174c4.502 9.064 4.031 19.79-1.406 28.87c-4.846 8.611-14.13 14.38-24.19 15.06c-2.531 .1719-4.844 1.533-6.188 3.658c-1.377 2.141-1.658 4.781-.7813 7.158c3.656 9.611 2.312 19.93-3.471 28.08c-1 1.314-2.125 2.408-3.219 3.471c0 .0156-.7813 .7656-.7813 .7813c-3.127 3.125-2.752 7.799 .3438 10.92c1.5 1.484 3.469 2.188 5.5 2.188c2.252 0 4.533-.875 6.189-2.516c1.594-1.578 3.25-3.234 4.877-5.377c7.062-9.971 9.846-22.19 7.969-34.04c11.63-3.281 21.76-11 27.6-21.36c6.439-10.77 8.221-23.35 5.221-35.07c11.6-4.375 20.82-12.94 26.01-24.41c5.125-11.49 5.344-24.37 .875-35.88c10.91-5.846 19.19-15.85 22.97-28.07c3.814-12.72 1.971-26.16-4.812-37.4C504.7 78.94 511.4 66.04 511.9 51.77zM201.6 310L208.1 288.5c15.78-69.06-2.377-142.1-48.66-195.3C155.5 88.84 149.6 87.06 143.9 88.51c-5.906 1.5-10.38 6.096-11.69 12.13L114 191.8L29.18 276.7c-38.91 38.94-38.91 102.3 0 141.2l64.95 64.95C113.6 502.3 139.2 512 164.7 512c25.56 0 51.13-9.721 70.6-29.19l84.86-84.87l91.14-18.21c5.938-1.25 10.56-5.688 12.13-11.59c1.5-5.736-.3125-11.69-4.721-15.55C357.6 299.4 274.4 285.5 201.6 310zM40.5 406.5c-32.69-32.69-32.69-85.88 0-118.6l86.57-86.59C128.2 200.3 128.9 198.8 129.3 197.3l18.06-93.54c42.91 49.38 59.79 117.1 45.26 180.7L182.8 317.3c-24.41 10.77-47.19 26.08-67.04 45.93l-59.26 59.27L40.5 406.5zM314.7 382.7c-1.562 .3125-2.969 1.062-4.094 2.188l-86.57 86.59c-32.69 32.69-85.89 32.69-118.6 0l-37.63-37.64l59.26-59.27c76.38-76.37 199.8-80.68 281-10.52L314.7 382.7z"/></svg>