<svg xmlns="http://www.w3.org/2000/svg" viewBox="0 0 576 512"><!--! Font Awesome Pro 6.0.0-beta3 by @fontawesome - https://fontawesome.com License - https://fontawesome.com/license (Commercial License) Copyright 2021 Fonticons, Inc. --><path d="M96 296C96 291.6 99.58 288 104 288H472C476.4 288 480 291.6 480 296C480 300.4 476.4 304 472 304H104C99.58 304 96 300.4 96 296zM96 360C96 355.6 99.58 352 104 352H184C188.4 352 192 355.6 192 360C192 364.4 188.4 368 184 368H104C99.58 368 96 364.4 96 360zM376 352C380.4 352 384 355.6 384 360C384 364.4 380.4 368 376 368H232C227.6 368 224 364.4 224 360C224 355.6 227.6 352 232 352H376zM384 136C384 113.9 401.9 96 424 96H472C494.1 96 512 113.9 512 136V168C512 190.1 494.1 208 472 208H424C401.9 208 384 190.1 384 168V136zM400 136V168C400 181.3 410.7 192 424 192H472C485.3 192 496 181.3 496 168V136C496 122.7 485.3 112 472 112H424C410.7 112 400 122.7 400 136zM512 32C547.3 32 576 60.65 576 96V416C576 451.3 547.3 480 512 480H64C28.65 480 0 451.3 0 416V96C0 60.65 28.65 32 64 32H512zM512 48H64C37.49 48 16 69.49 16 96V416C16 442.5 37.49 464 64 464H512C538.5 464 560 442.5 560 416V96C560 69.49 538.5 48 512 48z"/></svg>