<svg xmlns="http://www.w3.org/2000/svg" viewBox="0 0 512 512"><!--! Font Awesome Pro 6.1.1 by @fontawesome - https://fontawesome.com License - https://fontawesome.com/license (Commercial License) Copyright 2022 Fonticons, Inc. --><path d="M296 256C296 278.1 278.1 296 256 296C233.9 296 216 278.1 216 256C216 233.9 233.9 216 256 216C278.1 216 296 233.9 296 256zM256 232C242.7 232 232 242.7 232 256C232 269.3 242.7 280 256 280C269.3 280 280 269.3 280 256C280 242.7 269.3 232 256 232zM264 48.15C372.5 52.25 459.7 139.5 463.8 248H504C508.4 248 512 251.6 512 256C512 260.4 508.4 264 504 264H463.8C459.7 372.5 372.5 459.7 264 463.8V504C264 508.4 260.4 512 256 512C251.6 512 248 508.4 248 504V463.8C139.5 459.7 52.25 372.5 48.15 264H8C3.582 264 0 260.4 0 256C0 251.6 3.582 248 8 248H48.15C52.25 139.5 139.5 52.25 248 48.15V8C248 3.582 251.6 0 256 0C260.4 0 264 3.582 264 8V48.15zM120 264H64.16C68.25 363.7 148.3 443.8 248 447.8V392C248 387.6 251.6 384 256 384C260.4 384 264 387.6 264 392V447.8C363.7 443.8 443.8 363.7 447.8 264H392C387.6 264 384 260.4 384 256C384 251.6 387.6 248 392 248H447.8C443.8 148.3 363.7 68.25 264 64.16V120C264 124.4 260.4 128 256 128C251.6 128 248 124.4 248 120V64.16C148.3 68.25 68.25 148.3 64.16 248H120C124.4 248 128 251.6 128 256C128 260.4 124.4 264 120 264z"/></svg>