<svg xmlns="http://www.w3.org/2000/svg" viewBox="0 0 512 512"><!--! Font Awesome Pro 6.0.0-beta3 by @fontawesome - https://fontawesome.com License - https://fontawesome.com/license (Commercial License) Copyright 2021 Fonticons, Inc. --><path d="M502.6 168.1l-159.6-159.5C336.7 3.151 328.5 0 320.2 0c-8.193 0-16.39 3.103-22.67 9.316c-12.68 12.54-12.73 33.1-.1256 45.71l10.12 10.12l-119.2 119.2C175.6 197.1 166.3 213.1 161.6 230.5l-40.74 149.4l-118.5 118.5c-3.125 3.125-3.125 8.188 0 11.31C3.906 511.2 5.953 512 7.1 512s4.094-.7813 5.656-2.344l118.5-118.5l149.4-40.74c17.42-4.75 33.39-14.02 46.17-26.8l119.2-119.2l10.12 10.12C463.3 220.9 471.5 224 479.7 224c8.268 0 16.53-3.164 22.83-9.49C515.1 201.9 515.1 181.5 502.6 168.1zM277.3 334.1l-137.9 37.61l37.61-137.9c4.016-14.75 11.86-28.27 22.67-39.08l8.312-8.312L324.7 304l-8.312 8.312C305.6 323.1 292 330.1 277.3 334.1zM335.1 292.7L219.3 176l99.54-99.54l116.7 116.7L335.1 292.7zM491.2 203.2c-6.326 6.358-16.59 6.37-22.93 .0313l-159.6-159.5c-6.33-6.326-6.322-16.7 .0605-23.02c6.282-6.214 16.51-6.327 22.9 .0625l159.6 159.5C497.6 186.6 497.6 196.9 491.2 203.2z"/></svg>