<svg xmlns="http://www.w3.org/2000/svg" viewBox="0 0 384 512"><!--! Font Awesome Pro 6.0.0-beta3 by @fontawesome - https://fontawesome.com License - https://fontawesome.com/license (Commercial License) Copyright 2021 Fonticons, Inc. --><path d="M176 263.1C176 259.6 179.6 255.1 184 255.1C188.4 255.1 192 259.6 192 263.1V464H176V263.1zM248 271.1C217.1 271.1 192 297.1 192 328H176C176 288.2 208.2 255.1 248 255.1C270.7 255.1 292 266.7 305.6 284.8L310.4 291.2C313.1 294.7 312.3 299.7 308.8 302.4C305.3 305.1 300.3 304.3 297.6 300.8L292.8 294.4C282.2 280.3 265.6 271.1 248 271.1zM228.8 47.1C111.1 47.1 16 141.3 16 255.1C16 370.7 111.1 464 228.8 464C283.4 464 333.1 443.9 370.7 410.1C374.1 408.1 379.1 408.4 382 411.7C384.9 415.1 384.6 420.1 381.3 423C340.8 458.5 287.3 480 228.8 480C102.6 480 0 379.9 0 256C0 132.1 102.6 32 228.8 32C287.3 32 340.8 53.54 381.3 88.98C384.6 91.89 384.9 96.95 382 100.3C379.1 103.6 374.1 103.9 370.7 101C333.1 68.06 283.4 48 228.8 48V47.1z"/></svg>