<svg xmlns="http://www.w3.org/2000/svg" viewBox="0 0 384 512"><!--! Font Awesome Pro 6.1.1 by @fontawesome - https://fontawesome.com License - https://fontawesome.com/license (Commercial License) Copyright 2022 Fonticons, Inc. --><path d="M376 128h-173.8l23.45-93.83C228.4 23.47 237.1 16 249 16H280C284.4 16 288 12.42 288 8S284.4 0 280 0h-31c-18.41 0-34.34 12.45-38.81 30.3L185.8 128H8C3.594 128 0 131.6 0 136S3.594 144 8 144h24.67l28.82 331.5C63.3 496.3 80.42 512 101.3 512h181.3c20.92 0 38.05-15.7 39.86-36.55L351.3 144H376C380.4 144 384 140.4 384 136S380.4 128 376 128zM306.6 474.1C305.5 486.6 295.2 496 282.7 496H101.3c-12.55 0-22.83-9.422-23.92-21.92L48.72 144h286.6L306.6 474.1z"/></svg>