<svg xmlns="http://www.w3.org/2000/svg" viewBox="0 0 640 512"><!--! Font Awesome Pro 6.1.1 by @fontawesome - https://fontawesome.com License - https://fontawesome.com/license (Commercial License) Copyright 2022 Fonticons, Inc. --><path d="M0 256C0 132.3 100.3 32 224 32C258.4 32 290.9 39.73 320 53.56C349.1 39.73 381.6 32 416 32C539.7 32 640 132.3 640 256C640 379.7 539.7 480 416 480C381.6 480 349.1 472.3 320 458.4C290.9 472.3 258.4 480 224 480C100.3 480 0 379.7 0 256zM224 464C251.6 464 277.9 458.6 302 448.9C236.2 409.9 192 338.1 192 256C192 173.9 236.2 102.1 302 63.13C277.9 53.37 251.6 48 224 48C109.1 48 16 141.1 16 256C16 370.9 109.1 464 224 464zM416.1 176H223.9C214.6 198.3 209.1 222.6 208.2 248H431.8C430.9 222.6 425.4 198.3 416.1 176H416.1zM416 336.1C425.3 313.8 430.9 289.5 431.8 264H208.2C209.1 289.5 214.7 313.8 224 336.1V336H416V336.1zM231.4 352C251.2 389.8 282.2 420.8 320 440.6C357.8 420.8 388.8 389.8 408.6 352H231.4zM408.6 160C388.8 122.2 357.8 91.15 320 71.43C282.2 91.15 251.2 122.2 231.4 160H408.6zM416 48C388.4 48 362.1 53.37 337.1 63.13C403.8 102.1 448 173.9 448 256C448 338.1 403.8 409.9 337.1 448.9C362.1 458.6 388.4 464 416 464C530.9 464 624 370.9 624 256C624 141.1 530.9 48 416 48V48z"/></svg>