<svg xmlns="http://www.w3.org/2000/svg" viewBox="0 0 640 512"><!--! Font Awesome Pro 6.1.1 by @fontawesome - https://fontawesome.com License - https://fontawesome.com/license (Commercial License) Copyright 2022 Fonticons, Inc. --><path d="M0 96C0 60.65 28.65 32 64 32H576C611.3 32 640 60.65 640 96V416C640 451.3 611.3 480 576 480H64C28.65 480 0 451.3 0 416V96zM512 336H624V96C624 69.49 602.5 48 576 48H512V336zM496 48H384V192H496V48zM368 48H272V336H368V48zM256 48H144V192H256V48zM128 48H64C37.49 48 16 69.49 16 96V336H128V48zM16 352V416C16 442.5 37.49 464 64 464H312V352H16zM328 464H576C602.5 464 624 442.5 624 416V352H328V464zM256 208H144V336H256V208zM384 208V336H496V208H384z"/></svg>