<svg xmlns="http://www.w3.org/2000/svg" viewBox="0 0 512 512"><!--! Font Awesome Pro 6.0.0-beta3 by @fontawesome - https://fontawesome.com License - https://fontawesome.com/license (Commercial License) Copyright 2021 Fonticons, Inc. --><path d="M448 32C483.3 32 512 60.65 512 96V160C512 195.3 483.3 224 448 224H136V320C136 350.9 161.1 376 192 376H224V352C224 316.7 252.7 288 288 288H448C483.3 288 512 316.7 512 352V416C512 451.3 483.3 480 448 480H288C252.7 480 224 451.3 224 416V392H192C152.2 392 120 359.8 120 320V224H64C28.65 224 0 195.3 0 160V96C0 60.65 28.65 32 64 32H448zM448 48H64C37.49 48 16 69.49 16 96V160C16 186.5 37.49 208 64 208H448C474.5 208 496 186.5 496 160V96C496 69.49 474.5 48 448 48zM448 304H288C261.5 304 240 325.5 240 352V416C240 442.5 261.5 464 288 464H448C474.5 464 496 442.5 496 416V352C496 325.5 474.5 304 448 304z"/></svg>