<svg xmlns="http://www.w3.org/2000/svg" viewBox="0 0 576 512"><!--! Font Awesome Pro 6.0.0-beta3 by @fontawesome - https://fontawesome.com License - https://fontawesome.com/license (Commercial License) Copyright 2021 Fonticons, Inc. --><path d="M106.1 138.1c8.189 0 16.38-3.127 22.63-9.375c12.5-12.5 12.5-32.76 0-45.25C123.4 78.11 115.2 74.98 106.1 74.98c-8.191 0-16.38 3.124-22.63 9.372c-12.5 12.5-12.5 32.76 0 45.25C90.6 135.9 98.79 138.1 106.1 138.1zM95.67 95.67c3.021-3.023 7.039-4.688 11.31-4.688c4.275 0 8.293 1.666 11.32 4.688c6.236 6.238 6.236 16.39 0 22.63C115.3 121.3 111.3 122.1 106.1 122.1c-4.273 0-8.291-1.664-11.31-4.684C92.64 115.3 90.98 111.3 90.98 106.1C90.98 102.7 92.64 98.69 95.67 95.67zM288 64c17.67 0 32-14.33 32-32s-14.33-32-32-32c-17.67 0-32 14.33-32 32S270.3 64 288 64zM288 16c8.822 0 16 7.178 16 16s-7.178 16-16 16s-16-7.178-16-16S279.2 16 288 16zM401.1 174.9c-62.48-62.48-163.8-62.48-226.3 0s-62.48 163.8 0 226.3s163.8 62.48 226.3 0S463.6 237.3 401.1 174.9zM394.9 383.6l-101.3-101.3c-3.127-3.127-8.188-3.127-11.31 0s-3.127 8.186 0 11.31l101.3 101.3c-56.47 50.47-143.2 49.12-197.4-5.084c-56.15-56.15-56.15-147.5-.002-203.6c56.15-56.15 147.5-56.15 203.7 0C444 240.4 445.4 327.1 394.9 383.6zM469 74.98c-8.189 0-16.38 3.124-22.63 9.372c-12.5 12.5-12.5 32.76 0 45.25c6.248 6.248 14.44 9.375 22.63 9.375s16.38-3.127 22.63-9.375c12.5-12.5 12.5-32.76 0-45.25C485.4 78.11 477.2 74.98 469 74.98zM480.3 118.3c-3.023 3.021-7.041 4.686-11.31 4.686s-8.293-1.664-11.31-4.684c-3.021-3.023-4.686-7.041-4.686-11.32c0-4.273 1.664-8.291 4.686-11.31c3.021-3.023 7.039-4.688 11.31-4.688c4.273 0 8.291 1.664 11.31 4.688c3.021 3.021 4.686 7.039 4.686 11.31C485 111.3 483.4 115.3 480.3 118.3zM544 256c-17.67 0-32 14.33-32 32c0 17.67 14.33 32 32 32s32-14.33 32-32C576 270.3 561.7 256 544 256zM544 304c-8.822 0-16-7.178-16-16s7.178-16 16-16s16 7.178 16 16S552.8 304 544 304zM106.1 437c-8.191 0-16.38 3.124-22.63 9.372c-12.5 12.5-12.5 32.76 0 45.26c6.248 6.248 14.44 9.374 22.63 9.374c8.189 0 16.38-3.126 22.63-9.374c12.5-12.5 12.5-32.76 0-45.26C123.4 440.1 115.2 437 106.1 437zM118.3 480.3c-3.023 3.021-7.041 4.686-11.32 4.686c-4.273 0-8.291-1.664-11.31-4.686s-4.688-7.039-4.688-11.31c0-4.275 1.666-8.293 4.688-11.31c3.021-3.023 7.039-4.688 11.31-4.688c4.275 0 8.293 1.666 11.31 4.686C124.5 463.9 124.5 474.1 118.3 480.3zM32 256c-17.67 0-32 14.33-32 32s14.33 32 32 32s32-14.33 32-32S49.67 256 32 256zM32 304c-8.822 0-16-7.178-16-16s7.178-16 16-16s16 7.178 16 16S40.82 304 32 304zM469 437c-8.189 0-16.38 3.124-22.63 9.372c-12.5 12.5-12.5 32.76 0 45.26c6.248 6.248 14.44 9.374 22.63 9.374s16.38-3.126 22.63-9.374c12.5-12.5 12.5-32.76 0-45.26C485.4 440.1 477.2 437 469 437zM480.3 480.3c-3.023 3.021-7.041 4.686-11.31 4.686s-8.293-1.664-11.31-4.686s-4.686-7.039-4.686-11.31c0-4.275 1.664-8.293 4.686-11.31c3.021-3.023 7.039-4.688 11.31-4.688c4.273 0 8.291 1.664 11.31 4.686c3.023 3.023 4.688 7.041 4.688 11.32C485 473.3 483.4 477.3 480.3 480.3z"/></svg>