<svg xmlns="http://www.w3.org/2000/svg" viewBox="0 0 576 512"><!--! Font Awesome Pro 6.1.1 by @fontawesome - https://fontawesome.com License - https://fontawesome.com/license (Commercial License) Copyright 2022 Fonticons, Inc. --><path d="M320 32C320 49.67 305.7 64 288 64C270.3 64 256 49.67 256 32C256 14.33 270.3 0 288 0C305.7 0 320 14.33 320 32zM288 16C279.2 16 272 23.16 272 32C272 40.84 279.2 48 288 48C296.8 48 304 40.84 304 32C304 23.16 296.8 16 288 16zM174.9 401.1C112.4 338.7 112.4 237.3 174.9 174.9C237.3 112.4 338.7 112.4 401.1 174.9C463.6 237.3 463.6 338.7 401.1 401.1C338.7 463.6 237.3 463.6 174.9 401.1V401.1zM282.3 282.3C285.5 279.2 290.5 279.2 293.7 282.3L395.3 384C445.1 327.5 444.2 240.5 389.8 186.2C333.6 129.9 242.4 129.9 186.2 186.2C129.9 242.4 129.9 333.6 186.2 389.8C240.5 444.2 327.5 445.1 384 395.3L282.3 293.7C279.2 290.5 279.2 285.5 282.3 282.3V282.3zM512 288C512 270.3 526.3 256 544 256C561.7 256 576 270.3 576 288C576 305.7 561.7 320 544 320C526.3 320 512 305.7 512 288zM544 304C552.8 304 560 296.8 560 288C560 279.2 552.8 272 544 272C535.2 272 528 279.2 528 288C528 296.8 535.2 304 544 304zM64 288C64 305.7 49.67 320 32 320C14.33 320 0 305.7 0 288C0 270.3 14.33 256 32 256C49.67 256 64 270.3 64 288zM32 272C23.16 272 16 279.2 16 288C16 296.8 23.16 304 32 304C40.84 304 48 296.8 48 288C48 279.2 40.84 272 32 272zM64 96C64 78.33 78.33 64 96 64C113.7 64 128 78.33 128 96C128 113.7 113.7 128 96 128C78.33 128 64 113.7 64 96zM96 112C104.8 112 112 104.8 112 96C112 87.16 104.8 80 96 80C87.16 80 80 87.16 80 96C80 104.8 87.16 112 96 112zM512 96C512 113.7 497.7 128 480 128C462.3 128 448 113.7 448 96C448 78.33 462.3 64 480 64C497.7 64 512 78.33 512 96zM480 80C471.2 80 464 87.16 464 96C464 104.8 471.2 112 480 112C488.8 112 496 104.8 496 96C496 87.16 488.8 80 480 80zM64 480C64 462.3 78.33 448 96 448C113.7 448 128 462.3 128 480C128 497.7 113.7 512 96 512C78.33 512 64 497.7 64 480zM96 496C104.8 496 112 488.8 112 480C112 471.2 104.8 464 96 464C87.16 464 80 471.2 80 480C80 488.8 87.16 496 96 496zM512 480C512 497.7 497.7 512 480 512C462.3 512 448 497.7 448 480C448 462.3 462.3 448 480 448C497.7 448 512 462.3 512 480zM480 464C471.2 464 464 471.2 464 480C464 488.8 471.2 496 480 496C488.8 496 496 488.8 496 480C496 471.2 488.8 464 480 464z"/></svg>