<svg xmlns="http://www.w3.org/2000/svg" viewBox="0 0 512 512"><!--! Font Awesome Pro 6.1.1 by @fontawesome - https://fontawesome.com License - https://fontawesome.com/license (Commercial License) Copyright 2022 Fonticons, Inc. --><path d="M500.3 227.7C515.9 243.3 515.9 268.7 500.3 284.3L284.3 500.3C268.7 515.9 243.3 515.9 227.7 500.3L11.72 284.3C-3.905 268.7-3.905 243.3 11.72 227.7L227.7 11.72C243.3-3.905 268.7-3.905 284.3 11.72L500.3 227.7zM23.03 239C13.66 248.4 13.66 263.6 23.03 272.1L239 488.1C248.4 498.3 263.6 498.3 272.1 488.1L488.1 272.1C498.3 263.6 498.3 248.4 488.1 239L272.1 23.03C263.6 13.66 248.4 13.66 239 23.03L23.03 239z"/></svg>