<svg xmlns="http://www.w3.org/2000/svg" viewBox="0 0 512 512"><!--! Font Awesome Pro 6.0.0-beta3 by @fontawesome - https://fontawesome.com License - https://fontawesome.com/license (Commercial License) Copyright 2021 Fonticons, Inc. --><path d="M256 335.1c-8.832 0-16 7.168-16 16s7.168 16 16 16s16-7.168 16-16S264.8 335.1 256 335.1zM256 303.1c4.416 0 8-3.584 8-8v-160c0-4.416-3.584-8-8-8s-8 3.584-8 8v160C248 300.4 251.6 303.1 256 303.1zM497.7 222.6l-208.2-209.1c-19.01-18.02-50.05-18.02-68.06 0L14.27 222.6c-19.04 17.98-19.04 49.03 0 67.01l208.2 208.1c18.02 19.04 49.05 19.04 67.07 0l208.2-208.1C516.8 271.6 516.8 240.6 497.7 222.6zM486.7 278l-.2891 .3203l-208.2 208.1l-.2891 .3203c-11.71 12.32-32.13 12.32-43.84 0v-.0313l-.2871-.2891l-208.2-208.1L25.28 278c-12.38-11.68-12.38-32.1 0-43.78l.1602-.1914l.1914-.1934l207.1-209l.0332-.0313c11.55-11.52 32.54-12 45.57 .1914l208 208.9l.1602 .1914l.1602 .1602C499.1 245.9 499.1 266.3 486.7 278z"/></svg>