<svg xmlns="http://www.w3.org/2000/svg" viewBox="0 0 512 512"><!--! Font Awesome Pro 6.0.0-beta3 by @fontawesome - https://fontawesome.com License - https://fontawesome.com/license (Commercial License) Copyright 2021 Fonticons, Inc. --><path d="M512 256c0-8.638-3.259-17.27-9.868-23.88l-222.2-222.3C273.3 3.292 264.6 0 256 0C247.4 0 238.7 3.292 232.1 9.887L9.868 232.1C3.259 238.8 0 247.4 0 256C0 264.6 3.259 273.2 9.868 279.9l222.2 222.3C238.7 508.7 247.3 512 256 512s17.29-3.292 23.89-9.887l222.2-222.3C508.7 273.3 512 264.7 512 256zM248 493.9c-1.641-.838-3.258-1.742-4.601-3.085l-220.2-220.3l224.8 87.06V493.9zM248 340.4L17.02 250.1C17.83 248.2 19.07 245.6 21.23 243.5l222.2-222.2C244.7 19.9 246.4 18.1 248 18.16V340.4zM268.6 490.8c-1.336 1.336-2.953 2.235-4.586 3.073v-136.3l224.8-87.05L268.6 490.8zM264 340.4V18.17c1.641 .84 3.269 1.743 4.586 3.057l222.2 222.2C492.9 245.6 494.2 248.2 494.1 250.1L264 340.4z"/></svg>