<svg xmlns="http://www.w3.org/2000/svg" viewBox="0 0 512 512"><!--! Font Awesome Pro 6.1.1 by @fontawesome - https://fontawesome.com License - https://fontawesome.com/license (Commercial License) Copyright 2022 Fonticons, Inc. --><path d="M256 96C167.6 96 96 167.6 96 256s71.63 160 160 160s160-71.63 160-160S344.4 96 256 96zM256 400c-79.4 0-144-64.6-144-144S176.6 112 256 112s144 64.6 144 144S335.4 400 256 400zM256 224C238.3 224 224 238.3 224 256s14.33 32 32 32c17.67 0 32-14.33 32-32S273.7 224 256 224zM256 272C247.2 272 240 264.8 240 256S247.2 240 256 240s16 7.178 16 16S264.8 272 256 272zM504 464H480V104C480 64.31 447.7 32 408 32h-304C64.3 32 32 64.31 32 104V464H8C3.578 464 0 467.6 0 472S3.578 480 8 480h496c4.422 0 8-3.594 8-8S508.4 464 504 464zM464 464h-416V104c0-30.88 25.12-56 56-56h304c30.88 0 56 25.12 56 56V464z"/></svg>