<svg xmlns="http://www.w3.org/2000/svg" viewBox="0 0 576 512"><!--! Font Awesome Pro 6.1.1 by @fontawesome - https://fontawesome.com License - https://fontawesome.com/license (Commercial License) Copyright 2022 Fonticons, Inc. --><path d="M349.7 138.3c-3.125-3.125-8.188-3.125-11.31 0s-3.125 8.188 0 11.31L396.7 208l-58.34 58.34c-3.125 3.125-3.125 8.188 0 11.31C339.9 279.2 341.1 280 344 280s4.094-.7813 5.656-2.344l64-64c3.125-3.125 3.125-8.188 0-11.31L349.7 138.3zM237.7 138.3c-3.125-3.125-8.188-3.125-11.31 0l-64 64c-3.125 3.125-3.125 8.188 0 11.31l64 64C227.9 279.2 229.1 280 232 280s4.094-.7813 5.656-2.344c3.125-3.125 3.125-8.188 0-11.31L179.3 208l58.34-58.34C240.8 146.5 240.8 141.5 237.7 138.3zM64 352h448V64H64V352zM80 80h416v256h-416V80zM528 0h-480C21.5 0 0 21.5 0 48v320C0 394.5 21.5 416 48 416h180.9l-26.67 80H136C131.6 496 128 499.6 128 504S131.6 512 136 512h304c4.406 0 8-3.578 8-8s-3.594-8-8-8h-66.21l-26.67-80H528c26.5 0 48-21.5 48-48v-320C576 21.5 554.5 0 528 0zM356.9 496H219.1l26.67-80h84.46L356.9 496zM560 368c0 17.64-14.36 32-32 32h-480c-17.64 0-32-14.36-32-32v-320c0-17.64 14.36-32 32-32h480c17.64 0 32 14.36 32 32V368z"/></svg>