<svg xmlns="http://www.w3.org/2000/svg" viewBox="0 0 576 512"><!--! Font Awesome Pro 6.0.0-beta3 by @fontawesome - https://fontawesome.com License - https://fontawesome.com/license (Commercial License) Copyright 2021 Fonticons, Inc. --><path d="M64 352h448V64H64V352zM80 80h416v256h-416V80zM528 0h-480C21.5 0 0 21.5 0 48v320C0 394.5 21.5 416 48 416h180.9l-26.67 80H136C131.6 496 128 499.6 128 504S131.6 512 136 512h304c4.406 0 8-3.578 8-8s-3.594-8-8-8h-66.21l-26.67-80H528c26.5 0 48-21.5 48-48v-320C576 21.5 554.5 0 528 0zM356.9 496H219.1l26.67-80h84.46L356.9 496zM560 368c0 17.64-14.36 32-32 32h-480c-17.64 0-32-14.36-32-32v-320c0-17.64 14.36-32 32-32h480c17.64 0 32 14.36 32 32V368zM368 168h-40V128c0-13.23-10.77-24-24-24h-32C258.8 104 248 114.8 248 128v40H208C194.8 168 184 178.8 184 192v32c0 13.23 10.77 24 24 24h40V288c0 13.23 10.77 24 24 24h32c13.23 0 24-10.77 24-24V248h40c13.23 0 24-10.77 24-24V192C392 178.8 381.2 168 368 168zM376 224c0 4.406-3.594 8-8 8h-56V288c0 4.406-3.594 8-8 8h-32C267.6 296 264 292.4 264 288V232H208C203.6 232 200 228.4 200 224V192c0-4.406 3.594-8 8-8h56V128c0-4.406 3.594-8 8-8h32c4.406 0 8 3.594 8 8v56h56c4.406 0 8 3.594 8 8V224z"/></svg>