<svg xmlns="http://www.w3.org/2000/svg" viewBox="0 0 320 512"><!--! Font Awesome Pro 6.0.0-beta3 by @fontawesome - https://fontawesome.com License - https://fontawesome.com/license (Commercial License) Copyright 2021 Fonticons, Inc. --><path d="M305.1 54.93C292.9 39.64 274.5 32 255.1 32s-36.93 7.643-49.1 22.93c-12.2 15.29-17.27 35.3-13.85 54.93l25.21 145.2C221.6 274.1 237.4 288 255.1 288s34.44-13.89 37.74-32.99l25.24-145.2C322.4 90.22 317.3 70.21 305.1 54.93zM303.2 107.1l-25.24 145.2C275.1 263.7 266.8 272 255.1 272s-20-8.289-21.97-19.73L208.8 107.1c-2.627-15.1 1.232-30.48 10.6-42.22C227.1 54.16 241.3 48 255.1 48s28.04 6.156 36.59 16.91C301.9 76.63 305.8 92.01 303.2 107.1zM63.99 32C45.53 32 27.06 39.64 14.89 54.93C2.692 70.21-2.372 90.22 1.044 109.9l25.21 145.2C29.55 274.1 45.44 288 63.99 288S98.43 274.1 101.7 255l25.24-145.2c3.389-19.6-1.678-39.61-13.88-54.9C100.9 39.64 82.46 32 63.99 32zM111.2 107.1L85.97 252.3C83.1 263.7 74.76 272 63.1 272s-20-8.289-21.97-19.73L16.81 107.1c-2.627-15.1 1.232-30.48 10.6-42.22C35.96 54.16 49.29 48 63.1 48s28.04 6.156 36.59 16.91C109.9 76.63 113.8 92.01 111.2 107.1z"/></svg>