<svg xmlns="http://www.w3.org/2000/svg" viewBox="0 0 448 512"><!--! Font Awesome Pro 6.1.1 by @fontawesome - https://fontawesome.com License - https://fontawesome.com/license (Commercial License) Copyright 2022 Fonticons, Inc. --><path d="M224 192c35.38 0 64-28.62 64-64s-28.62-64-64-64S160 92.63 160 128S188.6 192 224 192zM224 80c26.47 0 48 21.53 48 48S250.5 176 224 176S176 154.5 176 128S197.5 80 224 80zM440 248H8C3.578 248 0 251.6 0 256s3.578 8 8 8h432C444.4 264 448 260.4 448 256S444.4 248 440 248zM224 320c-35.38 0-64 28.62-64 64s28.62 64 64 64s64-28.62 64-64S259.4 320 224 320zM224 432c-26.47 0-48-21.53-48-48s21.53-48 48-48s48 21.53 48 48S250.5 432 224 432z"/></svg>