<svg xmlns="http://www.w3.org/2000/svg" viewBox="0 0 576 512"><!--! Font Awesome Pro 6.1.1 by @fontawesome - https://fontawesome.com License - https://fontawesome.com/license (Commercial License) Copyright 2022 Fonticons, Inc. --><path d="M565.6 336.4l-254.5 79.54c-11.1-19.01-31.48-31.92-55.08-31.92c-3.365 0-6.603 .4861-9.827 .9861L138.1 39.31C130.8 15.78 109.3 0 84.66 0H8C3.594 0 0 3.594 0 8S3.594 16 8 16h76.66c17.59 0 32.94 11.28 38.19 28.06l107.9 345.1C207.1 399 192 421.6 192 448c0 35.35 28.65 64 64 64s64-28.65 64-64c0-6.037-1.104-11.76-2.666-17.3l253-79.08c4.219-1.312 6.594-5.781 5.25-10C574.3 337.4 569.9 335.1 565.6 336.4zM256 496c-26.47 0-48-21.53-48-48s21.53-48 48-48s48 21.53 48 48S282.5 496 256 496zM286.7 302.7c6.545 19.64 24.84 32.83 45.53 32.83c5.154 0 10.26-.832 15.18-2.471l131.3-43.76c12.16-4.055 22.02-12.6 27.75-24.07c5.734-11.47 6.658-24.48 2.605-36.64l-43.76-131.3c-6.545-19.64-24.84-32.83-45.53-32.83c-5.154 0-10.26 .832-15.18 2.471L273.3 110.7c-12.16 4.055-22.02 12.6-27.75 24.07C239.8 146.2 238.9 159.3 242.9 171.4L286.7 302.7zM278.4 125.9l131.3-43.76C413 81 416.4 80.47 419.8 80.47c13.4 0 25.88 8.48 30.35 21.89l43.76 131.3c5.588 16.77-3.473 34.89-20.24 40.48l-131.3 43.76C339 319 335.6 319.5 332.2 319.5c-13.4 0-25.88-8.48-30.35-21.89L258.1 166.4C252.5 149.6 261.6 131.5 278.4 125.9z"/></svg>