<svg xmlns="http://www.w3.org/2000/svg" viewBox="0 0 384 512"><!--! Font Awesome Pro 6.1.1 by @fontawesome - https://fontawesome.com License - https://fontawesome.com/license (Commercial License) Copyright 2022 Fonticons, Inc. --><path d="M376 32H8C3.582 32 0 35.58 0 40S3.582 48 8 48h368C380.4 48 384 44.42 384 40S380.4 32 376 32zM328 288.2H256V160.1c0-17.69-14.33-32.04-32-32.04H160c-17.67 0-32 14.35-32 32.04v128.1H56c-9.578 0-18.25 5.709-22.05 14.51c-3.781 8.803-1.984 19.03 4.594 26l136 144.1C179.1 477.6 185.5 480 192 480s12.92-2.4 17.45-7.201l136-144.1c6.578-6.973 8.375-17.2 4.594-26C346.3 293.9 337.6 288.2 328 288.2zM333.8 317.7l-135.1 144.1C196.5 463.2 194.4 464 192 464s-4.527-.8164-5.816-2.184l-135.1-144.1c-2.201-2.332-2.801-5.75-1.541-8.686C49.92 306.1 52.8 304.2 56 304.2H144V160.1c0-8.836 7.178-16.02 16-16.02h64c8.822 0 16 7.188 16 16.02v144.1h88c3.197 0 6.084 1.902 7.346 4.826C336.6 311.1 336 315.4 333.8 317.7z"/></svg>