<svg xmlns="http://www.w3.org/2000/svg" viewBox="0 0 640 512"><!--! Font Awesome Pro 6.1.1 by @fontawesome - https://fontawesome.com License - https://fontawesome.com/license (Commercial License) Copyright 2022 Fonticons, Inc. --><path d="M26.92 260.2l131.1-23.47L98.18 280.9C91.42 287.5 89.4 296.9 92.93 305.7C96.48 314.4 104.9 320 114.4 320h213.6c4.422 0 7.1-3.594 7.1-8S332.4 304 328 304h-213.6c-6.679 0-9.064-7.766-5.953-10.97l86.67-63.75c2.1-2.188 4.078-6.188 2.609-9.594C196.3 216.3 192.8 214.3 189 214.1L24.42 244.4C17.59 245.4 12.64 237.3 19.09 231.1l111.2-107.7c17.92-14.88 44.12-16.44 63.45-3.781l113.7 79.19c3.656 2.5 8.625 1.688 11.14-2c2.531-3.625 1.641-8.594-1.984-11.12L202.6 107.3C177.2 90.66 143.2 92.66 119.6 112.4L8.468 220C.3588 226.7-2.188 237.1 1.968 246.6C6.171 256.2 16.15 261.7 26.92 260.2zM485.5 71.59l47.1 16C534.3 87.88 535.2 88 536 88c3.344 0 6.468-2.125 7.593-5.469c1.391-4.188-.8749-8.719-5.062-10.12l-47.1-16c-4.156-1.375-8.703 .875-10.12 5.062C479 65.66 481.3 70.19 485.5 71.59zM575.2 289.9l-100.7-50.25c-16.25-8.125-26.5-24.75-26.5-43V160h63.99l28.12 22.62C546.1 188.6 554.2 192 562.7 192h30.1c11.1 0 23.12-6.875 28.5-17.75l14.37-28.62c5.375-10.88 4.249-23.75-2.999-33.5l-74.49-99.37C552.1 4.75 543.5 0 533.5 0H296C288.9 0 285.4 8.625 290.4 13.62L351.1 64L292.4 88.75c-5.875 3-5.875 11.37 0 14.37L351.1 128l-.0011 108.6c0 72 35.1 139.4 95.99 179.4c-195.6 6.75-344.5 41-434.1 60.88c-8.125 1.75-13.87 9-13.87 17.38C.0463 504 8.046 512 17.79 512h499.1c63.24 0 119.6-47.5 122.1-110.8C642.3 354 617.1 310.9 575.2 289.9zM516.9 496H17.81c-2.047 0-2.394-3.076-.4101-3.504l8.503-1.889c87.74-19.5 234.6-52.13 422.6-58.62l49.7-1.715l-41.37-27.59c-55.64-37.1-88.86-99.18-88.86-166.1V117.3L316.7 95.97l66.11-27.45L318.6 16h214.9c4.984 0 9.812 2.42 12.82 6.348l74.45 99.32c3.642 4.898 4.215 11.36 1.539 16.77l-14.42 28.72C605.2 172.5 599.7 176 593.7 176h-30.99c-4.269 0-8.285-1.664-11.31-4.688L517.6 144h-74.29L421.7 122.3c-3.125-3.125-8.187-3.125-11.31 0s-3.125 8.188 0 11.31l21.64 21.64v41.33c0 24.45 13.54 46.41 35.35 57.32l100.7 50.23c36.59 18.35 57.98 55.23 55.81 96.22C621 453.1 573 496 516.9 496z"/></svg>