<svg xmlns="http://www.w3.org/2000/svg" viewBox="0 0 512 512"><!--! Font Awesome Pro 6.0.0-beta3 by @fontawesome - https://fontawesome.com License - https://fontawesome.com/license (Commercial License) Copyright 2021 Fonticons, Inc. --><path d="M466.5 208.3c-18.32-80.79-81.96-144.4-162.8-162.8C302.4 20.17 281.7 0 256 0S209.6 20.17 208.3 45.5C127.5 63.82 63.82 127.5 45.5 208.3C20.18 209.6 0 230.3 0 256s20.18 46.42 45.5 47.75c18.32 80.79 81.96 144.4 162.8 162.8C209.6 491.8 230.3 512 256 512s46.42-20.17 47.75-45.5c80.79-18.32 144.4-81.97 162.8-162.8C491.8 302.4 512 281.7 512 256S491.8 209.6 466.5 208.3zM256 16c17.67 0 32 14.33 32 32c0 17.67-14.33 32-32 32s-32-14.33-32-32C224 30.33 238.3 16 256 16zM16 256c0-17.67 14.33-32 32-32s32 14.33 32 32c0 17.67-14.33 32-32 32S16 273.7 16 256zM256 496c-17.67 0-32-14.33-32-32c0-17.67 14.33-32 32-32s32 14.33 32 32C288 481.7 273.7 496 256 496zM301.8 450.5C295.1 430.6 277.8 416 256 416s-39.97 14.61-45.84 34.49C136.7 433.2 78.83 375.3 61.51 301.8C81.39 295.1 96 277.8 96 256S81.39 216 61.51 210.2C78.83 136.7 136.7 78.83 210.2 61.51C216 81.39 234.2 96 256 96s39.97-14.61 45.84-34.49c73.48 17.32 131.3 75.18 148.7 148.7C430.6 216 416 234.2 416 256s14.61 39.97 34.49 45.84C433.2 375.3 375.3 433.2 301.8 450.5zM464 288c-17.67 0-32-14.33-32-32c0-17.67 14.33-32 32-32s32 14.33 32 32C496 273.7 481.7 288 464 288z"/></svg>