<svg xmlns="http://www.w3.org/2000/svg" viewBox="0 0 640 512"><!--! Font Awesome Pro 6.0.0-beta3 by @fontawesome - https://fontawesome.com License - https://fontawesome.com/license (Commercial License) Copyright 2021 Fonticons, Inc. --><path d="M306.1 26.71C308.1 17.04 316.8 16 319.1 16c5.303 0 11.73 2.732 13.93 10.68c23.06 77.75 57.84 127.5 88.53 171.3c21.36 30.52 39.54 56.87 49.48 86.79l20.81 16.54c-17.07-88.91-101.4-137.1-143.5-279.2C345.2 7.54 332.6 0 319.1 0C307.6 0 295.2 7.224 290.8 22.13c-10.29 34.72-23.22 63.66-37.03 89.2l12.81 10.18C281.3 94.63 295.1 63.9 306.1 26.71zM320 496c-88.22 0-160-72.73-160-162.1c0-35.09 11.13-62.89 27.84-90.94L175.2 232.9C156.8 263.4 144 294.3 144 333.9C144 432.4 222.8 512 320 512c52.26 0 99.03-23.12 131.3-59.68l-12.94-10.28C409 474.9 367.1 496 320 496zM636.1 497.7L12.99 1.73C11.53 .5664 9.771 0 8.025 0C5.674 0 3.336 1.031 1.738 3.012c-2.75 3.469-2.172 8.5 1.281 11.25l623.1 496C628.5 511.4 630.2 512 631.1 512c2.344 0 4.688-1.031 6.266-3.016C641 505.5 640.4 500.5 636.1 497.7z"/></svg>