<svg xmlns="http://www.w3.org/2000/svg" viewBox="0 0 384 512"><!--! Font Awesome Pro 6.0.0-beta3 by @fontawesome - https://fontawesome.com License - https://fontawesome.com/license (Commercial License) Copyright 2021 Fonticons, Inc. --><path d="M221.3 22.13C217.2 7.539 204.6 0 191.1 0C179.6 0 167.2 7.222 162.8 22.13C116 179.9 16 222.8 16 333.9c0 98.5 78.75 178.1 176 178.1s176-79.62 176-178.1C368 222.1 268.3 180.6 221.3 22.13zM192 496c-88.22 0-160-72.73-160-162.1C32 280.5 57.46 244.1 89.69 197.9C120.4 153.9 155.2 104 178.1 26.71C180.1 17.04 188.8 16 191.1 16c5.303 0 11.73 2.732 13.93 10.68c23.06 77.75 57.84 127.5 88.53 171.3C326.6 243.9 352 280.2 352 333.9C352 423.3 280.2 496 192 496zM184 424c-44.13 0-80-35.89-80-80c0-4.422-3.594-8-8-8s-8 3.578-8 8c0 52.94 43.06 96 96 96c4.406 0 8-3.578 8-8S188.4 424 184 424z"/></svg>