<svg xmlns="http://www.w3.org/2000/svg" viewBox="0 0 512 512"><!--! Font Awesome Pro 6.1.1 by @fontawesome - https://fontawesome.com License - https://fontawesome.com/license (Commercial License) Copyright 2022 Fonticons, Inc. --><path d="M462.9 49.59c-33.08-33.06-76.51-49.59-119.9-49.59c-43.35 0-86.59 16.53-119.7 49.59C187.9 84.96 160.1 127.1 160.1 191.1L160.1 277.9L119.5 318.3c-6.105 6.102-13.98 8.914-22.14 8.914c-13.75 0-18.21-7.219-36.96-7.219c-.002 0 .002 0 0 0c-33.29 0-60.39 26.96-60.39 60.34c0 22.45 16.82 59.5 59.13 59.5c4.928 0 9.874-.5715 14.72-1.681c-1.12 4.85-1.695 9.806-1.695 14.75c0 14.94 5.261 29.8 16.82 41.26C100.6 505.9 116.1 512 131.7 512c33.02 0 60.37-26.67 60.37-60.33c0-19.32-7.244-22.92-7.244-37.03c0-8.163 2.815-16.07 8.921-22.17l40.59-40.49l87.18-.0038c16.53 0 33.03-2.181 48.99-6.452c3.75-1.003 6.007-4.318 6.007-7.782c0-7.823-24.01-26.7-24.01-72.01c0-30.08 22.57-105.4 105.5-105.4c27.3 0 41.64 9.074 46.04 9.074c4.248 0 8.004-3.421 8.004-7.996C512 157.1 511.8 98.33 462.9 49.59zM458.1 144.3c-75.6 0-121.5 61.9-121.5 121.5c0 22.96 6.268 46.15 18.83 66.81c-11.24 2.223-22.88 3.344-35.03 3.344l-112.5 .0438c-2.976 .0012-7.879 2.191-7.879 8.119c0 4.347 3.522 7.874 7.872 7.879L211.7 352l-29.24 29.14C173.5 390.1 168.8 402 168.8 414.6c0 17.56 7.25 21.18 7.25 36.91c0 24.8-19.96 44.48-44.35 44.48c-11.89 0-23.02-4.635-31.46-13.17c-7.934-7.866-12.12-18.34-12.12-29.76c0-7.931 1.726-11.05 1.726-14.87c0-9.926-8.293-16-16.01-16c-3.857 0-6.653 1.68-14.71 1.68c-31.09 0-43.07-26.89-43.07-43.55c0-35.73 33.16-44.29 44.35-44.29c.002 0-.002 0 0 0c15.66 0 19.14 7.219 36.95 7.219c12.79 0 24.67-4.832 33.44-13.59l29.25-29.14v3.601C160.1 308.5 163.6 312 167.9 312c4.35 0 8.128-3.525 8.131-7.875l.0912-112.2c0-50.22 18.03-90.64 58.46-131C263.6 31.95 302.2 16 343.2 16c40.96 0 79.47 15.95 108.5 44.93c24.34 24.23 39.32 55.17 43.39 88.86C483 146.2 470.6 144.3 458.1 144.3z"/></svg>