<svg xmlns="http://www.w3.org/2000/svg" viewBox="0 0 448 512"><!--! Font Awesome Pro 6.1.1 by @fontawesome - https://fontawesome.com License - https://fontawesome.com/license (Commercial License) Copyright 2022 Fonticons, Inc. --><path d="M384 0H64C28.65 0 0 28.65 0 64v384c0 35.35 28.65 64 64 64h320c35.35 0 64-28.65 64-64V64C448 28.65 419.3 0 384 0zM432 448c0 26.47-21.53 48-48 48H64c-26.47 0-48-21.53-48-48V64c0-26.47 21.53-48 48-48h320c26.47 0 48 21.53 48 48V448zM112 96c0-8.838-7.164-16-16-16S80 87.16 80 96c0 8.836 7.164 16 16 16S112 104.8 112 96zM160 112c8.836 0 16-7.164 16-16c0-8.838-7.164-16-16-16S144 87.16 144 96C144 104.8 151.2 112 160 112zM224 168c-75.11 0-136 60.89-136 136s60.89 136 136 136s136-60.89 136-136S299.1 168 224 168zM224 424c-63.43 0-114.1-49.62-119.2-112H184C188.4 312 192 308.4 192 304S188.4 296 184 296H104.8C109 233.6 160.6 184 224 184c66.17 0 120 53.83 120 120S290.2 424 224 424z"/></svg>