<svg xmlns="http://www.w3.org/2000/svg" viewBox="0 0 512 512"><!--! Font Awesome Pro 6.0.0-beta3 by @fontawesome - https://fontawesome.com License - https://fontawesome.com/license (Commercial License) Copyright 2021 Fonticons, Inc. --><path d="M359.1 255.1c4.422 0 8-3.578 8-8v-16c0-66.17-53.83-120-120-120s-120 53.83-120 120v16c0 4.422 3.578 8 8 8s8-3.578 8-8v-16c0-57.34 46.66-104 104-104s104 46.66 104 104v16C351.1 252.4 355.6 255.1 359.1 255.1zM247.1 47.1c-101.5 0-184 82.55-184 184v16c0 4.422 3.578 8 8 8s8-3.578 8-8v-16c0-92.64 75.36-168 168-168s168 75.36 168 168c0 57.42-22.19 111.5-62.47 152.4l-1.953 1.969l-.2969 2.766c-6.656 60.94-57.94 106.9-119.3 106.9c-4.422 0-8 3.578-8 8s3.578 8 8 8c68.58 0 126.1-50.69 134.9-118.4c42.03-43.63 65.14-100.9 65.14-161.6C431.1 130.5 349.5 47.1 247.1 47.1zM183.1 320c-2.047 0-4.094 .7813-5.656 2.344l-176 176C.7812 499.9-.0001 501.1-.0001 504c0 2.906 2.281 8 8 8c2.062 0 4.094-.7813 5.656-2.344l176-176C191.2 332.1 191.1 330 191.1 328C191.1 323.7 188.6 320 183.1 320zM511.1 8c0-4.263-3.433-8-8-8c-2.047 0-4.094 .7813-5.656 2.344l-80 80C416.8 83.91 415.1 85.95 415.1 88c0 2.906 2.281 8 8 8c2.062 0 4.094-.7813 5.656-2.344l80-80C511.2 12.09 511.1 10.05 511.1 8z"/></svg>