<svg xmlns="http://www.w3.org/2000/svg" viewBox="0 0 512 512"><!--! Font Awesome Pro 6.1.1 by @fontawesome - https://fontawesome.com License - https://fontawesome.com/license (Commercial License) Copyright 2022 Fonticons, Inc. --><path d="M149.7 149.7C146.5 152.8 141.5 152.8 138.3 149.7C135.2 146.5 135.2 141.5 138.3 138.3L170.3 106.3C173.5 103.2 178.5 103.2 181.7 106.3C184.8 109.5 184.8 114.5 181.7 117.7L149.7 149.7zM0 256C0 114.6 114.6 0 256 0C397.4 0 512 114.6 512 256C512 316.5 491 372 456 415.8V416H455.9C408.9 474.5 336.8 512 256 512C114.6 512 0 397.4 0 256zM256 496C258.7 496 261.3 495.1 264 495.9V477.3C264 456.7 247.3 440 226.7 440C212.6 440 199.1 434.4 189.1 424.4L173.1 408.4C159.6 394.9 152 376.6 152 357.5V354.3C152 330.2 164 307.7 184.1 294.3L211.4 276.1C223.3 268.2 237.2 264 251.4 264H272.3C289.5 264 306.1 270.1 319.2 281.3L345.7 304.1C351.7 309.2 359.3 312 367.1 312C380 312 392.5 317.1 401.6 326.3L415 339.7C417.8 342.5 421.5 344 425.4 344C442.3 344 456 357.7 456 374.6V388.7C468.4 370.1 478.2 349.7 485 328H446.6C430 328 414.1 321.4 402.3 309.7L384 291.3C378.9 286.2 376 279.2 376 272C376 264.8 378.9 257.8 384 252.7L391.5 245.2C391.8 244.9 392 244.4 392 244C392 243.6 391.8 243.1 391.5 242.8L384.1 236.3C382.2 233.5 378.5 232 374.6 232H363.3C352.6 232 344 223.4 344 212.7C344 207.6 346 202.7 349.7 199L354.3 194.3C360.1 187.7 369.9 184 379.3 184H400C404.4 184 408 180.4 408 176C408 171.6 404.4 168 400 168H372.5C367.9 168 363.6 170.6 361.6 174.8C359.4 179.2 356.1 182.9 351.1 185.6L318.9 207.7C316.3 209.4 315.4 212.9 316.8 215.7L318.1 220C325.4 232.9 316 248 301.7 248C295.6 248 289.9 245.1 286.2 240.3L269.9 218.5C268.7 216.9 266.8 216 264.8 216C262.5 216 260.3 217.4 259.2 219.5L255.2 227.6C248.9 240.1 235.9 248 221.9 248C201.2 248 184 231.2 184 210.3V206.1C184 194.9 188.4 184.3 196.3 176.4L214.2 158.5C215.4 157.3 216 155.8 216 154.2C216 144.7 222.1 136.2 231.1 133.2L257.6 124.4C264.2 122.2 270.2 118.4 275.2 113.5L295 93.66C295.7 93.04 296 92.19 296 91.31C296 89.48 294.5 88 292.7 88H291.7C290.9 88 290 88.25 289.3 88.72L247.5 116.6C244.2 118.8 240.3 120 236.3 120C225.1 120 216 110.9 216 99.72V91.16C216 81.51 220.8 72.51 228.8 67.16L299.6 19.96C285.5 17.36 270.9 16 256 16C123.5 16 16 123.5 16 256C16 388.6 123.5 496 256 496L256 496zM280 477.3V494.8C344.1 488.4 400.8 456.9 440 410.1V374.6C440 366.6 433.4 360 425.4 360C417.2 360 409.5 356.8 403.7 351L390.3 337.6C384.1 331.5 375.8 328 367.1 328C355.4 328 344.2 323.8 335.3 316.2L308.8 293.5C298.6 284.8 285.7 280 272.3 280H251.4C240.3 280 229.5 283.3 220.3 289.4L192.9 307.7C177.4 318 168 335.5 168 354.3V357.5C168 372.3 173.9 386.6 184.4 397.1L200.4 413.1C207.4 420.1 216.9 424 226.7 424C256.2 424 280 447.8 280 477.3H280zM446.6 312H489.4C493.7 294 496 275.3 496 256C496 145.1 421.1 53.27 321 24.92L237.7 80.47C234.1 82.85 232 86.86 232 91.16V99.72C232 102.1 233.9 103.1 236.3 103.1C237.1 103.1 237.1 103.7 238.7 103.3L280.5 75.41C283.8 73.18 287.7 71.1 291.7 71.1H292.7C303.4 71.1 312 80.65 312 91.31C312 96.44 309.1 101.3 306.3 104.1L286.5 124.8C279.8 131.5 271.7 136.5 262.7 139.5L236.2 148.4C233.7 149.2 231.1 151.5 231.1 154.2C231.1 160 229.7 165.6 225.5 169.8L207.6 187.7C202.7 192.6 199.1 199.2 199.1 206.1V210.3C199.1 222.2 209.9 231.1 221.9 231.1C229.9 231.1 237.3 227.5 240.8 220.4L244.9 212.3C248.7 204.8 256.4 199.1 264.8 199.1C271.9 199.1 278.5 203.3 282.7 208.9L299 230.7C299.6 231.5 300.6 231.1 301.7 231.1C304.1 231.1 305.8 229.4 304.6 227.2L302.5 222.9C297.5 212.8 300.7 200.6 310.1 194.3L343.1 172.3C344.9 171.1 346.3 169.5 347.2 167.6C352 158 361.8 152 372.5 152H400C413.3 152 424 162.7 424 176C424 189.3 413.3 200 400 200H379.3C374.2 200 369.3 202 365.7 205.7L360.1 210.3C360.3 210.1 360 211.8 360 212.7C360 214.5 361.5 216 363.3 216H374.6C382.7 216 390.5 219.2 396.3 224.1L402.8 231.5C406.1 234.8 408 239.3 408 243.1C408 248.7 406.1 253.2 402.8 256.5L395.3 263.1C393.2 266.1 392 268.1 392 271.1C392 275 393.2 277.9 395.3 279.1L413.7 298.3C422.4 307.1 434.3 311.1 446.6 311.1L446.6 312z"/></svg>