<svg xmlns="http://www.w3.org/2000/svg" viewBox="0 0 512 512"><!--! Font Awesome Pro 6.1.1 by @fontawesome - https://fontawesome.com License - https://fontawesome.com/license (Commercial License) Copyright 2022 Fonticons, Inc. --><path d="M512 8C512 3.43 508.3 0 504 0c-2.047 0-4.094 .7813-5.656 2.344l-28.87 28.87C457.6 21.84 442.9 16 426.7 16h-106.7c-8.836 0-16 7.162-16 16c0 6.834 1.215 13.35 3.064 19.59c-15.01 9.996-122.7 101.8-206.3 134.5C31.94 214.6 .0005 275.1 .0005 337.4c0 141.1 129.2 174.7 172.6 174.7c30.18 0 60.75-8.003 88.52-24.79c15.89-11.12 61.11-51.44 124.7-148.1c28.85-44.18 53.76-88.74 76.52-133.6C468 206.1 473.9 208 480 208c8.838 0 16-7.164 16-16V85.33c0-16.23-5.838-30.98-15.21-42.8l28.87-28.87C511.2 12.09 512 10.05 512 8zM372.4 330.3c-70.45 107.1-115.6 140.4-119.6 143.2C228.5 488.2 200.7 496 172.6 496c-111.5 0-156.6-97.02-156.6-158.6c0-4.178-3.336-97.43 90.61-136.4c85.24-33.37 194.3-125.5 206.7-134.4c9.676 16.72 26.11 29.06 45.55 33.21c5.68 26.63 26.7 47.65 53.33 53.33c4.299 20.16 17.46 36.1 35.12 46.51C423.6 246.3 399.1 289.5 372.4 330.3zM480 192c-29.46 0-53.33-23.88-53.33-53.33c-29.46 0-53.33-23.88-53.33-53.33c-29.45 0-53.33-23.88-53.33-53.33h106.7C456.1 32 480 55.88 480 85.33V192z"/></svg>