<svg xmlns="http://www.w3.org/2000/svg" viewBox="0 0 192 512"><!--! Font Awesome Pro 6.0.0-beta3 by @fontawesome - https://fontawesome.com License - https://fontawesome.com/license (Commercial License) Copyright 2021 Fonticons, Inc. --><path d="M96 464C69.49 464 48 442.5 48 416C48 389.5 69.49 368 96 368C122.5 368 144 389.5 144 416C144 442.5 122.5 464 96 464zM128 416C128 398.3 113.7 384 96 384C78.33 384 64 398.3 64 416C64 433.7 78.33 448 96 448C113.7 448 128 433.7 128 416zM96 304C69.49 304 48 282.5 48 256C48 229.5 69.49 208 96 208C122.5 208 144 229.5 144 256C144 282.5 122.5 304 96 304zM128 256C128 238.3 113.7 224 96 224C78.33 224 64 238.3 64 256C64 273.7 78.33 288 96 288C113.7 288 128 273.7 128 256zM96 48C122.5 48 144 69.49 144 96C144 122.5 122.5 144 96 144C69.49 144 48 122.5 48 96C48 69.49 69.49 48 96 48zM64 96C64 113.7 78.33 128 96 128C113.7 128 128 113.7 128 96C128 78.33 113.7 64 96 64C78.33 64 64 78.33 64 96z"/></svg>