<svg xmlns="http://www.w3.org/2000/svg" viewBox="0 0 512 512"><!--! Font Awesome Pro 6.0.0-beta3 by @fontawesome - https://fontawesome.com License - https://fontawesome.com/license (Commercial License) Copyright 2021 Fonticons, Inc. --><path d="M485.7 26.34c-3.125-3.125-8.188-3.125-11.31 0l-77.19 77.19C360.1 69.17 310.6 48 256 48C141.1 48 48 141.1 48 256c0 54.56 21.17 104.1 55.54 141.2l-77.19 77.19c-3.125 3.125-3.125 8.188 0 11.31C27.91 487.2 29.94 488 32 488s4.094-.7813 5.656-2.344l77.19-77.19C151.9 442.8 201.4 464 256 464c114.9 0 208-93.13 208-208c0-54.56-21.17-104.1-55.54-141.2l77.19-77.19C488.8 34.53 488.8 29.47 485.7 26.34zM64 256c0-105.9 86.13-192 192-192c50.06 0 95.56 19.42 129.8 50.91L114.9 385.8C83.42 351.6 64 306.1 64 256zM448 256c0 105.9-86.13 192-192 192c-50.06 0-95.56-19.42-129.8-50.91l270.9-270.9C428.6 160.4 448 205.9 448 256z"/></svg>