<svg xmlns="http://www.w3.org/2000/svg" viewBox="0 0 640 512"><!--! Font Awesome Pro 6.1.1 by @fontawesome - https://fontawesome.com License - https://fontawesome.com/license (Commercial License) Copyright 2022 Fonticons, Inc. --><path d="M296 256h-240C25.12 256 0 281.1 0 312v144C0 486.9 25.12 512 56 512h240c30.88 0 56-25.12 56-56v-144C352 281.1 326.9 256 296 256zM336 456c0 22.06-17.94 40-40 40h-240c-22.06 0-40-17.94-40-40v-112.1l135 95.2C158.4 444.1 167.2 447.1 176 447.1s17.62-2.938 24.98-8.828L336 343V456zM336 322.5l-145 103.2c-8.812 7.062-21.16 7.062-29.97 0L16 322.5V312c0-22.06 17.94-40 40-40h240c22.06 0 40 17.94 40 40V322.5zM72 224C76.42 224 80 220.4 80 216v-160c0-22.06 17.94-40 40-40h304c22.06 0 40 17.94 40 40v48c0 4.422 3.578 8 8 8S480 108.4 480 104v-48C480 25.12 454.9 0 424 0h-304C89.13 0 64 25.12 64 56v160C64 220.4 67.58 224 72 224zM584 144h-304C249.1 144 224 169.1 224 200C224 204.4 227.6 208 232 208S240 204.4 240 200C240 177.9 257.9 160 280 160h304c22.06 0 40 17.94 40 40v160c0 22.06-17.94 40-40 40h-192c-4.422 0-8 3.578-8 8S387.6 416 392 416h192c30.88 0 56-25.12 56-56v-160C640 169.1 614.9 144 584 144zM576 280c4.422 0 8-3.578 8-8v-64c0-4.422-3.578-8-8-8h-64c-4.422 0-8 3.578-8 8v64c0 4.422 3.578 8 8 8H576zM520 216h48v48h-48V216z"/></svg>