<svg xmlns="http://www.w3.org/2000/svg" viewBox="0 0 512 512"><!--! Font Awesome Pro 6.0.0-beta3 by @fontawesome - https://fontawesome.com License - https://fontawesome.com/license (Commercial License) Copyright 2021 Fonticons, Inc. --><path d="M490.9 178.3l-198.9-165.1C281.8 4.666 269 0 256 0S230.2 4.666 219.1 13.13L21.05 178.3C7.676 189.4 0 205.1 0 223.9v224.1C0 483.3 28.71 512 64 512h384c35.29 0 64-28.71 64-64.01V223.9C512 205.1 504.3 189.4 490.9 178.3zM31.27 190.6l198.9-165.1C237.8 19.16 246.9 16.01 256 16.01s18.22 3.15 25.81 9.451l198.9 165.1c9.113 7.562 18.69 19.22 0 34.75l-198.9 165.2C274.2 396.8 265.1 399.1 256 399.1s-18.22-3.16-25.81-9.463L31.27 225.3C12.49 209.7 22.38 197.1 31.27 190.6zM496 447.1c0 26.52-21.49 48.02-48 48.02H64c-26.51 0-48-21.5-48-48.02V231.8c1.688 1.938 3.047 4.139 5.055 5.805l198.9 165.2C230.2 411.3 242.1 416 256 416c13.02 0 25.82-4.707 36.02-13.18l198.9-165.2C492.1 235.1 494.3 233.8 496 231.8V447.1z"/></svg>