<svg xmlns="http://www.w3.org/2000/svg" viewBox="0 0 512 512"><!--! Font Awesome Pro 6.0.0-beta3 by @fontawesome - https://fontawesome.com License - https://fontawesome.com/license (Commercial License) Copyright 2021 Fonticons, Inc. --><path d="M480 192h-32V160c0-17.67-14.33-32-32-32h-32V96c0-17.67-14.33-32-32-32H160C142.3 64 128 78.33 128 96v32H96C78.33 128 64 142.3 64 160v32H32C14.33 192 0 206.3 0 224v192c0 17.67 14.33 32 32 32h448c17.67 0 32-14.33 32-32V224C512 206.3 497.7 192 480 192zM496 416c0 8.822-7.178 16-16 16h-72v-104c0-4.406-3.578-8-8-8s-8 3.594-8 8v104h-80v-104c0-4.406-3.578-8-8-8s-8 3.594-8 8v104h-80v-104C216 323.6 212.4 320 208 320s-8 3.594-8 8v104h-80v-104C120 323.6 116.4 320 112 320s-8 3.594-8 8v104H32c-8.822 0-16-7.178-16-16V224c0-8.822 7.178-16 16-16h48V160c0-8.822 7.178-16 16-16h48V96c0-8.822 7.178-16 16-16h192c8.822 0 16 7.178 16 16v48H416c8.822 0 16 7.178 16 16v48H480c8.822 0 16 7.178 16 16V416z"/></svg>