<svg xmlns="http://www.w3.org/2000/svg" viewBox="0 0 384 512"><!--! Font Awesome Pro 6.1.1 by @fontawesome - https://fontawesome.com License - https://fontawesome.com/license (Commercial License) Copyright 2022 Fonticons, Inc. --><path d="M40 208C35.58 208 32 204.4 32 200C32 195.6 35.58 192 40 192H71.33C95.1 99.85 180.1 32 280 32H344.1C349.4 32 352.1 35.58 352.1 40C352.1 44.42 349.4 48 344.1 48H280C188.1 48 112.2 108.8 87.95 192H312C316.4 192 320 195.6 320 200C320 204.4 316.4 208 312 208H84C81.38 220.9 80 234.3 80 248V264C80 277.7 81.38 291.1 84 304H312C316.4 304 320 307.6 320 312C320 316.4 316.4 320 312 320H87.95C112.2 403.2 188.1 464 280 464H344.1C349.4 464 352.1 467.6 352.1 472C352.1 476.4 349.4 480 344.1 480H280C180.1 480 95.1 412.1 71.33 320H40C35.58 320 32 316.4 32 312C32 307.6 35.58 304 40 304H67.7C65.27 291 64 277.7 64 264V248C64 234.3 65.27 220.1 67.7 208H40z"/></svg>