<svg xmlns="http://www.w3.org/2000/svg" viewBox="0 0 512 512"><!--! Font Awesome Pro 6.1.1 by @fontawesome - https://fontawesome.com License - https://fontawesome.com/license (Commercial License) Copyright 2022 Fonticons, Inc. --><path d="M120 64h-112C3.594 64 0 67.59 0 72v112C0 188.4 3.594 192 8 192S16 188.4 16 184V80h104C124.4 80 128 76.41 128 72S124.4 64 120 64zM504 64h-112C387.6 64 384 67.59 384 72s3.594 8 8 8h104v104C496 188.4 499.6 192 504 192S512 188.4 512 184v-112C512 67.59 508.4 64 504 64zM504 320c-4.406 0-8 3.594-8 8v104h-104c-4.406 0-8 3.594-8 8S387.6 448 392 448h112c4.406 0 8-3.594 8-8v-112C512 323.6 508.4 320 504 320zM120 432H16v-104C16 323.6 12.41 320 8 320S0 323.6 0 328v112C0 444.4 3.594 448 8 448h112C124.4 448 128 444.4 128 440S124.4 432 120 432z"/></svg>