<svg xmlns="http://www.w3.org/2000/svg" viewBox="0 0 576 512"><!--! Font Awesome Pro 6.1.1 by @fontawesome - https://fontawesome.com License - https://fontawesome.com/license (Commercial License) Copyright 2022 Fonticons, Inc. --><path d="M400 256C400 317.9 349.9 368 288 368C226.1 368 176 317.9 176 256C176 194.1 226.1 144 288 144C349.9 144 400 194.1 400 256zM288 160C234.1 160 192 202.1 192 256C192 309 234.1 352 288 352C341 352 384 309 384 256C384 202.1 341 160 288 160zM480.6 112.6C527.4 156 558.7 207.1 573.5 243.7C576.8 251.6 576.8 260.4 573.5 268.3C558.7 304 527.4 355.1 480.6 399.4C433.5 443.2 368.8 480 288 480C207.2 480 142.5 443.2 95.42 399.4C48.62 355.1 17.34 304 2.461 268.3C-.8205 260.4-.8205 251.6 2.461 243.7C17.34 207.1 48.62 156 95.42 112.6C142.5 68.84 207.2 32 288 32C368.8 32 433.5 68.84 480.6 112.6V112.6zM17.23 249.8C15.59 253.8 15.59 258.2 17.23 262.2C31.34 296 61.38 345.1 106.3 387.7C151.4 429.6 212.4 464 288 464C363.6 464 424.6 429.6 469.7 387.7C514.6 345.1 544.7 296 558.8 262.2C560.4 258.2 560.4 253.8 558.8 249.8C544.7 215.1 514.6 166 469.7 124.3C424.6 82.41 363.6 48 288 48C212.4 48 151.4 82.41 106.3 124.3C61.38 166 31.34 215.1 17.23 249.8V249.8z"/></svg>