<svg xmlns="http://www.w3.org/2000/svg" viewBox="0 0 576 512"><!--! Font Awesome Pro 6.1.1 by @fontawesome - https://fontawesome.com License - https://fontawesome.com/license (Commercial License) Copyright 2022 Fonticons, Inc. --><path d="M288 15.1C155.5 15.1 48 123.5 48 255.1C48 355.6 108.7 441 195.1 477.4C199.2 479.1 201.1 483.8 199.4 487.8C197.7 491.9 192.1 493.8 188.9 492.1C96.74 453.4 32 362.3 32 256C32 114.6 146.6 0 288 0C429.4 0 544 114.6 544 256C544 362.3 479.3 453.4 387.1 492.1C383 493.8 378.3 491.9 376.6 487.8C374.9 483.8 376.8 479.1 380.9 477.4C467.3 441 528 355.6 528 255.1C528 123.5 420.5 15.1 288 15.1zM216 409.9C216 386.8 234.8 368 257.9 368C269.1 368 279.7 372.4 287.6 380.3L288 380.7L288.4 380.3C296.3 372.4 306.9 368 318.1 368C341.2 368 360 386.8 360 409.9V440C360 479.8 327.8 512 288 512C248.2 512 216 479.8 216 440V409.9zM280 395.3L276.3 391.6C271.4 386.7 264.8 384 257.9 384C243.6 384 232 395.6 232 409.9V440C232 470.9 257.1 496 288 496C318.9 496 344 470.9 344 440V409.9C344 395.6 332.4 384 318.1 384C311.2 384 304.6 386.7 299.7 391.6L296 395.3V424C296 428.4 292.4 432 288 432C283.6 432 280 428.4 280 424V395.3zM416 151.1C416 191.8 383.8 223.1 344 223.1C304.2 223.1 272 191.8 272 151.1C272 112.2 304.2 79.1 344 79.1C383.8 79.1 416 112.2 416 151.1zM352.9 96.71C362.1 104 368 115.3 368 127.1C368 150.1 350.1 167.1 328 167.1C309.7 167.1 294.3 155.7 289.5 138.1C288.5 143.2 288 147.5 288 151.1C288 182.9 313.1 207.1 344 207.1C374.9 207.1 400 182.9 400 151.1C400 124.1 379.6 100.1 352.9 96.71V96.71zM328 103.1C314.7 103.1 304 114.7 304 127.1C304 141.3 314.7 151.1 328 151.1C341.3 151.1 352 141.3 352 127.1C352 114.7 341.3 103.1 328 103.1zM176 223.1C176 232.8 168.8 239.1 160 239.1C151.2 239.1 144 232.8 144 223.1C144 215.2 151.2 207.1 160 207.1C168.8 207.1 176 215.2 176 223.1zM96 223.1C96 188.7 124.7 159.1 160 159.1C195.3 159.1 224 188.7 224 223.1C224 259.3 195.3 287.1 160 287.1C124.7 287.1 96 259.3 96 223.1zM160 271.1C186.5 271.1 208 250.5 208 223.1C208 197.5 186.5 175.1 160 175.1C133.5 175.1 112 197.5 112 223.1C112 250.5 133.5 271.1 160 271.1zM440 303.1C440 347.8 420.4 387.1 389.5 413.5C386.2 416.4 381.1 415.1 378.3 412.6C375.4 409.2 375.8 404.2 379.1 401.3C406.6 377.8 424 342.1 424 304C424 290.2 421.8 276.9 417.8 264.5C415.5 257.6 406.8 253.1 398.6 258.3L200.9 363.8C192.7 368.1 190.9 377.4 195.4 383.1C196.1 384.1 196.9 385 197.7 385.9C200.5 389.3 200 394.4 196.6 397.2C193.3 400 188.2 399.6 185.4 396.2C184.5 395.1 183.7 394.1 182.8 393C170.9 377.9 178.2 357.7 193.4 349.6L391.1 244.2C406.3 236.1 427.1 241.3 433 259.6C437.6 273.6 440 288.5 440 304L440 303.1z"/></svg>