<svg xmlns="http://www.w3.org/2000/svg" viewBox="0 0 640 512"><!--! Font Awesome Pro 6.0.0-beta3 by @fontawesome - https://fontawesome.com License - https://fontawesome.com/license (Commercial License) Copyright 2021 Fonticons, Inc. --><path d="M240.1 184.9C242.3 176.3 251.1 171.3 259.6 173.6C268.2 175.9 273.2 184.6 270.1 193.2C268.7 201.7 259.9 206.8 251.4 204.5C242.8 202.2 237.8 193.4 240.1 184.9V184.9zM425.5 234.6C423.2 243.1 414.5 248.2 405.9 245.9C397.4 243.6 392.3 234.8 394.6 226.3C396.9 217.8 405.7 212.7 414.2 214.1C422.7 217.3 427.8 226 425.5 234.6zM288.9 355.9C333.7 367.9 371.2 353.8 395.3 337.6C398.9 335.1 403.9 336 406.4 339.7C408.9 343.4 407.9 348.3 404.2 350.8C377.5 368.9 335.2 384.9 284.8 371.4C234.4 357.9 205.8 322.9 191.6 293.9C189.7 289.9 191.4 285.1 195.3 283.2C199.3 281.2 204.1 282.9 206 286.9C218.7 312.1 244.2 343.9 288.9 355.9V355.9zM608 352C625.7 352 640 366.3 640 384C640 401.7 625.7 416 608 416H544C535.2 416 528 423.2 528 432C528 440.8 535.2 448 544 448C561.7 448 576 462.3 576 480C576 497.7 561.7 512 544 512H325.8C322.1 512.1 318.3 512.1 314.5 512H32C14.33 512 0 497.7 0 480C0 462.3 14.33 448 32 448H44.92C81.76 448 103.4 397.3 87.84 363.9C63.37 311.3 56.54 250.2 72.72 189.7C109.3 53.18 249.7-27.87 386.3 8.723C522.8 45.32 603.9 185.7 567.3 322.3C563.4 336.8 573.7 352 588.7 352L608 352zM325.5 496L325.8 496H544C552.8 496 560 488.8 560 480C560 471.2 552.8 464 544 464C526.3 464 512 449.7 512 432C512 414.3 526.3 400 544 400H608C616.8 400 624 392.8 624 384C624 375.2 616.8 368 608 368H588.7C561.8 368 545.6 341.4 551.8 318.1C586.1 190.1 510.1 58.48 382.1 24.18C254.1-10.13 122.5 65.85 88.18 193.9C72.1 250.5 79.4 307.8 102.3 357.1C112.5 378.1 110.2 405.1 100.5 425.4C90.73 445.7 71.52 464 44.92 464H32C23.16 464 16 471.2 16 480C16 488.8 23.16 496 32 496H314.8C318.4 496.1 321.9 496.1 325.5 496V496z"/></svg>