<svg xmlns="http://www.w3.org/2000/svg" viewBox="0 0 512 512"><!--! Font Awesome Pro 6.1.1 by @fontawesome - https://fontawesome.com License - https://fontawesome.com/license (Commercial License) Copyright 2022 Fonticons, Inc. --><path d="M274.1 281.9C283.3 285.3 292.2 289.7 299.2 295.6C306.1 301.5 312 309.6 312 320C312 330.2 305.6 337.5 298.6 342.4C292.7 346.5 285.4 349.6 278.3 352C285.4 354.4 292.7 357.5 298.6 361.6C305.6 366.5 312 373.8 312 384C312 395 306.4 403.5 299.3 409.8C292.2 415.9 283.2 420.3 274.8 423.5C263.1 427.6 252.5 430.4 241.1 431.9L241 431.9C236.6 432.5 232.6 429.4 232.1 424.1C231.5 420.6 234.6 416.6 239 416.1C249.3 414.7 259.5 412.1 269.2 408.5C276.8 405.7 283.8 402.1 288.7 397.7C293.6 393.5 296 388.1 296 384C296 381.4 294.4 378.3 289.4 374.8C284.4 371.3 277.4 368.4 269.7 366.1C262.1 363.8 254.5 362.3 248.7 361.3C246.5 360.9 244.7 360.7 243.2 360.6C240.9 360.4 239.1 360.2 237.3 359.5C234.2 358.4 231.1 355.3 231.1 352C231.1 348.7 234.2 345.6 237.3 344.5C239.1 343.8 240.9 343.6 243.2 343.4C244.7 343.3 246.5 343.1 248.7 342.7C254.5 341.7 262.1 340.2 269.7 337.9C277.4 335.6 284.4 332.7 289.4 329.2C294.4 325.7 296 322.6 296 320C296 316.2 293.9 312.1 288.8 307.8C283.8 303.5 276.7 299.8 269 296.7C261.5 293.7 253.8 291.5 248 289.1C243.7 288.9 241.1 288.3 238.6 287.9C234.3 287.1 231.3 282.9 232.1 278.6C232.9 274.2 237.1 271.3 241.4 272.1C252.9 274.2 264.2 277.6 274.1 281.9L274.1 281.9zM150.9 185.7C143.5 197.1 138.2 212 135.7 225.5C134.9 229.8 130.7 232.7 126.3 231.9C121.1 231 119.1 226.9 119.1 222.5C122.8 207.5 128.7 190.5 137.5 176.1C146.2 163.7 158.1 152 175.8 152C192.7 152 205.4 163.7 214.1 176.1C222.1 190.5 228.9 207.5 231.7 222.5C232.5 226.9 229.6 231 225.3 231.9C220.9 232.7 216.8 229.8 215.1 225.5C213.4 212 208.1 197.1 200.7 185.7C193.1 174.1 184.6 168 175.8 168C167.1 168 158.5 174.1 150.9 185.7V185.7zM286.3 231.9C281.1 231 279.1 226.9 279.1 222.5C282.8 207.5 288.7 190.5 297.5 176.1C306.2 163.7 318.1 152 335.8 152C352.6 152 365.4 163.7 374.1 176.1C382.1 190.5 388.9 207.5 391.7 222.5C392.5 226.9 389.6 231 385.3 231.9C380.9 232.7 376.8 229.8 375.1 225.5C373.4 212 368.1 197.1 360.7 185.7C353.1 174.1 344.6 168 335.8 168C327 168 318.5 174.1 310.9 185.7C303.5 197.1 298.2 212 295.7 225.5C294.9 229.8 290.7 232.7 286.3 231.9V231.9zM512 256C512 397.4 397.4 512 256 512C114.6 512 0 397.4 0 256C0 114.6 114.6 0 256 0C397.4 0 512 114.6 512 256zM256 16C123.5 16 16 123.5 16 256C16 388.5 123.5 496 256 496C388.5 496 496 388.5 496 256C496 123.5 388.5 16 256 16z"/></svg>