<svg xmlns="http://www.w3.org/2000/svg" viewBox="0 0 512 512"><!--! Font Awesome Pro 6.1.1 by @fontawesome - https://fontawesome.com License - https://fontawesome.com/license (Commercial License) Copyright 2022 Fonticons, Inc. --><path d="M160.4 175.1C160.4 184.8 153.2 191.1 144.4 191.1C135.5 191.1 128.4 184.8 128.4 175.1C128.4 167.2 135.5 159.1 144.4 159.1C153.2 159.1 160.4 167.2 160.4 175.1zM160 360C160 355.6 163.6 352 168 352C184.8 352 211.4 355.3 237.3 365.3C263.1 375.3 289.1 392.4 303.2 420.4C305.1 424.4 303.5 429.2 299.6 431.2C295.6 433.1 290.8 431.5 288.8 427.6C277.3 404.4 255.3 389.5 231.5 380.3C207.8 371.1 183.2 368 168 368C163.6 368 160 364.4 160 360L160 360zM276.1 118.2C273.5 121 268.5 120.4 265.8 116.1C262.1 113.5 263.6 108.5 267 105.8L290.2 87.16C302.5 77.35 317.8 71.1 333.5 71.1C347.1 71.1 360.5 76.04 371.9 83.62L380.4 89.34C384.1 91.79 385.1 96.76 382.7 100.4C380.2 104.1 375.2 105.1 371.6 102.7L362.1 96.94C354.2 91.11 343.1 88 333.5 88C321.4 88 309.7 92.11 300.2 99.66L276.1 118.2zM288.4 207.1C288.4 199.2 295.5 191.1 304.4 191.1C313.2 191.1 320.4 199.2 320.4 207.1C320.4 216.8 313.2 223.1 304.4 223.1C295.5 223.1 288.4 216.8 288.4 207.1zM496.9 490.1L508.2 497.2C511.1 499.6 513.1 504.5 510.8 508.2C508.4 511.1 503.5 513.1 499.8 510.8L488.4 503.7C463.5 488.1 445.5 464.2 437.2 436.8C390.9 483.3 326.8 512 256 512C114.6 512 0 397.4 0 256C0 114.6 114.6 0 256 0C397.4 0 512 114.6 512 256C512 319.8 488.7 378.1 450.1 422.9C455.8 450.4 472.5 474.9 496.9 490.1L496.9 490.1zM448 400C478.1 359.9 496 310 496 255.1C496 123.5 388.5 15.1 256 15.1C123.5 15.1 16 123.5 16 255.1C16 388.5 123.5 496 256 496C326.1 496 389.2 465.9 433.1 417.1C432.4 412.7 432 407.3 432 401.9V272.1C416.3 309.6 379.2 336 336 336C278.6 336 232 289.4 232 231.1C232 174.6 278.6 127.1 336 127.1C390.7 127.1 435.6 170.3 439.7 224L440 223.1C444.4 223.1 448 227.6 448 231.1V400zM336 319.1C384.6 319.1 424 280.6 424 231.1C424 183.4 384.6 143.1 336 143.1C287.4 143.1 248 183.4 248 231.1C248 280.6 287.4 319.1 336 319.1z"/></svg>