<svg xmlns="http://www.w3.org/2000/svg" viewBox="0 0 512 512"><!--! Font Awesome Pro 6.0.0-beta3 by @fontawesome - https://fontawesome.com License - https://fontawesome.com/license (Commercial License) Copyright 2021 Fonticons, Inc. --><path d="M160.4 208C160.4 199.2 167.5 192 176.4 192C185.2 192 192.4 199.2 192.4 208C192.4 216.8 185.2 224 176.4 224C167.5 224 160.4 216.8 160.4 208zM352.4 208C352.4 216.8 345.2 224 336.4 224C327.5 224 320.4 216.8 320.4 208C320.4 199.2 327.5 192 336.4 192C345.2 192 352.4 199.2 352.4 208zM328 352C328 391.8 295.8 424 256 424C216.2 424 184 391.8 184 352C184 312.2 216.2 280 256 280C295.8 280 328 312.2 328 352zM256 408C286.9 408 312 382.9 312 352C312 321.1 286.9 296 256 296C225.1 296 200 321.1 200 352C200 382.9 225.1 408 256 408zM512 256C512 397.4 397.4 512 256 512C114.6 512 0 397.4 0 256C0 114.6 114.6 0 256 0C397.4 0 512 114.6 512 256zM256 16C123.5 16 16 123.5 16 256C16 388.5 123.5 496 256 496C388.5 496 496 388.5 496 256C496 123.5 388.5 16 256 16z"/></svg>