<svg xmlns="http://www.w3.org/2000/svg" viewBox="0 0 640 512"><!--! Font Awesome Pro 6.0.0-beta3 by @fontawesome - https://fontawesome.com License - https://fontawesome.com/license (Commercial License) Copyright 2021 Fonticons, Inc. --><path d="M71.1 264C67.58 264 63.1 260.4 63.1 256C63.1 114.6 178.6 0 319.1 0C461.4 0 575.1 114.6 575.1 256C575.1 260.4 572.4 264 567.1 264C563.6 264 559.1 260.4 559.1 256C559.1 123.5 452.5 16 319.1 16C187.4 16 79.1 123.5 79.1 256C79.1 260.4 76.42 264 71.1 264V264zM319.1 496C341.4 496 362.2 493.2 381.9 487.9C386.2 486.8 390.6 489.3 391.7 493.6C392.9 497.9 390.3 502.3 386.1 503.4C364.1 509 342.8 512 319.1 512C297.2 512 275 509 253.9 503.4C249.7 502.3 247.1 497.9 248.3 493.6C249.4 489.3 253.8 486.8 258.1 487.9C277.8 493.2 298.6 496 319.1 496H319.1zM295.7 187.1C297.4 206 292.2 227.4 280.2 247.1C268.2 266.8 251.3 281.7 233.3 289.6C215.5 297.5 195.9 298.7 179.4 289.8C162.9 280.7 154.1 263.8 152.3 244.9C150.6 225.1 155.8 204.6 167.8 184.9C179.8 165.2 196.7 150.3 214.7 142.4C232.5 134.5 252.1 133.3 268.6 142.2C285.1 151.3 293.9 168.2 295.7 187.1H295.7zM168.3 243.4C169.6 258.4 176.4 269.8 187.1 275.7C197.1 281.6 212.2 281.4 226.9 274.9C241.6 268.5 256.1 255.1 266.5 238.8C277 221.6 281.1 203.6 279.7 188.6C278.4 173.6 271.6 162.2 260.9 156.3C250 150.4 235.8 150.6 221.1 157.1C206.4 163.5 191.9 176 181.5 193.2C170.1 210.4 166.9 228.4 168.3 243.4V243.4zM472.2 184.9C484.2 204.6 489.4 225.1 487.7 244.9C485.9 263.8 477.1 280.7 460.6 289.8C444.1 298.7 424.5 297.5 406.7 289.6C388.7 281.7 371.8 266.8 359.8 247.1C347.8 227.4 342.6 206 344.3 187.1C346.1 168.2 354.9 151.3 371.4 142.2C387.9 133.3 407.5 134.5 425.3 142.4C443.3 150.3 460.2 165.2 472.2 184.9zM379.1 156.3C368.4 162.2 361.6 173.6 360.3 188.6C358.9 203.6 362.1 221.6 373.5 238.8C383.9 255.1 398.4 268.5 413.1 274.9C427.8 281.4 442 281.6 452.9 275.7C463.6 269.8 470.4 258.4 471.7 243.4C473.1 228.4 469 210.4 458.5 193.2C448.1 176 433.6 163.5 418.9 157.1C404.2 150.6 389.1 150.4 379.1 156.3V156.3zM255.1 368C255.1 332.7 284.7 304 320 304C355.3 304 384 332.7 384 368V400C384 435.3 355.3 464 320 464C284.7 464 255.1 435.3 255.1 400V368zM320 320C293.5 320 271.1 341.5 271.1 368V400C271.1 426.5 293.5 448 320 448C346.5 448 368 426.5 368 400V368C368 341.5 346.5 320 320 320zM45.79 373.8C71.5 412.7 90.22 462.1 90.22 512H74.22C74.22 465.9 56.84 419.6 32.45 382.7C16.85 359.2 23.46 327.6 47.21 312.3C58.34 305.1 71.3 302.7 83.47 304.6C92.55 306.1 101.3 309.9 108.5 315.9C135.5 338.4 158.3 370.1 174.3 405.8C190.4 440.7 199.9 478.6 199.9 512L183.9 511.1C183.9 481.4 175.1 445.8 159.8 412.5C144.5 379.2 122.1 348.8 98.28 328.2C93.31 324.1 87.3 321.4 80.97 320.4C72.5 319.1 63.56 320.8 55.9 325.7C39.59 336.3 35.14 357.8 45.79 373.8L45.79 373.8zM541.6 328.2C516.9 348.8 495.4 379.2 480.1 412.5C464.8 445.8 455.9 481.4 456 511.1L440 512C439.9 478.6 449.5 440.7 465.6 405.8C481.6 370.1 504.4 338.4 531.4 315.9C538.6 309.9 547.3 306.1 556.4 304.6C568.6 302.7 581.5 305.1 592.7 312.3C616.4 327.6 623 359.2 607.4 382.7C583 419.6 565.6 465.9 565.6 512H549.6C549.6 462.1 568.4 412.7 594.1 373.8C604.7 357.8 600.3 336.3 583.1 325.7C576.3 320.8 567.4 319.1 558.9 320.4C552.6 321.4 546.6 324.1 541.6 328.2L541.6 328.2z"/></svg>