<svg xmlns="http://www.w3.org/2000/svg" viewBox="0 0 512 512"><!--! Font Awesome Pro 6.1.1 by @fontawesome - https://fontawesome.com License - https://fontawesome.com/license (Commercial License) Copyright 2022 Fonticons, Inc. --><path d="M256 496C260.4 496 264 499.6 264 504C264 508.4 260.4 512 256 512C114.6 512 0 397.4 0 256C0 114.6 114.6 0 256 0C397.4 0 512 114.6 512 256C512 321.6 487.3 381.4 446.8 426.7C443.9 429.1 438.8 430.2 435.5 427.3C432.2 424.3 431.9 419.3 434.9 416C472.9 373.5 496 317.5 496 256C496 123.5 388.5 16 256 16C123.5 16 16 123.5 16 256C16 388.5 123.5 496 256 496V496zM320 379.2V472C320 476.4 316.4 480 312 480C307.6 480 304 476.4 304 472V384.1C289.4 389.4 273.4 392 256 392C192.2 392 147.5 357.1 121.8 324.1C118.1 321.5 119.6 316.5 123 313.8C126.5 310.1 131.5 311.6 134.2 315C158 344.7 198.6 376 255.1 376C313.4 376 353.1 344.7 377.8 315C380.5 311.6 385.5 310.1 388.1 313.8C392.4 316.5 393 321.5 390.2 324.1C388.3 327.5 386.2 329.9 384 332.4V504C384 508.4 380.4 512 376 512C371.6 512 368 508.4 368 504V348.5C354.7 360.3 338.7 371.2 320 379.2H320zM208 168C164.7 168 141.6 201.7 135.5 218.7C134 222.9 129.5 225 125.3 223.5C121.1 222 118.1 217.5 120.5 213.3C127.7 192.9 155.3 151.1 208 151.1C212.4 151.1 216 155.6 216 159.1C216 164.4 212.4 167.1 208 167.1L208 168zM376.5 218.7C370.4 201.7 347.3 168 304 168C299.6 168 296 164.4 296 160C296 155.6 299.6 152 304 152C356.7 152 384.3 192.9 391.5 213.3C393 217.5 390.9 222 386.7 223.5C382.5 225 377.1 222.9 376.5 218.7L376.5 218.7z"/></svg>