<svg xmlns="http://www.w3.org/2000/svg" viewBox="0 0 512 512"><!--! Font Awesome Pro 6.1.1 by @fontawesome - https://fontawesome.com License - https://fontawesome.com/license (Commercial License) Copyright 2022 Fonticons, Inc. --><path d="M256 16C123.5 16 16 123.5 16 256C16 341.5 60.68 416.5 128 459.1C131.7 461.4 132.9 466.4 130.5 470.1C128.1 473.8 123.2 474.9 119.5 472.6C47.69 427.3 0 347.2 0 256C0 114.6 114.6 0 256 0C397.4 0 512 114.6 512 256C512 347.2 464.3 427.3 392.5 472.6C388.8 474.9 383.9 473.8 381.5 470.1C379.1 466.4 380.3 461.4 383.1 459.1C451.3 416.5 496 341.5 496 256C496 123.5 388.5 16 255.1 16H256zM236.6 390.2C237 391.3 237.1 392.4 239.8 393.6C243.8 396.3 250.1 398.1 258.1 400.3L258.8 400.5C265.9 402.4 274.6 404.8 281.1 409.1C284.6 411.4 287.9 414.6 289.9 418.1C292 423.5 292.5 428.4 291.5 433.8C290 442.1 285.6 448.1 279.3 451.8C274.6 454.5 269.2 455.6 264 455.9V461.3C264 465.8 260.4 469.3 256 469.3C251.6 469.3 248 465.8 248 461.3V454.8C239.3 453.3 231 450.7 225.6 449C221.4 447.7 219 443.2 220.4 438.1C221.7 434.8 226.2 432.4 230.4 433.8C238.6 436.4 250.3 439.8 260.3 439.1C265.3 440.1 268.1 439.3 271.4 437.9C273.4 436.7 275.1 434.9 275.8 430.9C276.3 428.2 275.9 426.7 275.4 425.8C274.1 424.7 274 423.6 272.2 422.4C268.2 419.7 261.9 417.9 253.9 415.7L253.2 415.5C246.1 413.6 237.4 411.2 230.9 406.9C227.4 404.6 224.1 401.4 222.1 397C219.1 392.5 219.5 387.6 220.5 382.2C221.8 374.1 225.5 369.5 230.8 365.9C235.8 362.4 241.8 360.9 247.4 360.3L248 360.3V352C248 347.6 251.6 344 256 344C260.4 344 264 347.6 264 352V360.7C269.6 361.4 274.9 362.5 278.1 363.5C283.3 364.6 285.8 368.1 284.8 373.2C283.7 377.5 279.3 380.1 275 379C267.6 377.1 257.4 375.4 249.1 376.2C244.1 376.7 241.9 377.7 239.9 379.1C238.1 380.3 236.8 382 236.2 385.1C235.7 387.8 236.1 389.3 236.6 390.2V390.2zM384 304C396.1 304 408.6 314.7 407.1 328.8C402.5 370 381.6 406.2 350.9 430.8C343.8 476.8 304 512 256 512C208 512 168.2 476.8 161.1 430.8C130.4 406.2 109.5 370 104.9 328.8C103.4 314.7 115 304 128 304H384zM160 408.3V320H128C123.3 320 120.4 323.6 120.8 327.1C124.3 358.7 138.6 387 160 408.3zM176 320V416C176 460.2 211.8 496 256 496C300.2 496 336 460.2 336 416V320H176zM352 320V408.3C373.4 387 387.7 358.7 391.2 327.1C391.6 323.6 388.7 320 384 320H352zM176 93.33C180.4 93.33 184 96.92 184 101.3V112.6C184.1 112.8 185.1 112.9 186.1 113C190.9 113.6 202.6 115.8 206.8 116.9C211.1 118 213.7 122.4 212.5 126.7C211.4 130.9 207.1 133.5 202.8 132.4C199.3 131.5 188.2 129.4 184.6 128.9C173.5 127.2 163.9 128.5 157 131.5C150.2 134.5 146.8 138.9 145.1 143.4C145.3 147.3 145.8 149.8 146.7 151.7C147.7 153.6 149.4 155.6 152.3 157.5C158.4 161.5 167.5 164.2 178.4 167.4L178.5 167.4C188.6 170.4 200.4 173.8 208.1 179.9C213.5 183.1 217.5 187.2 219.9 192.7C222.4 198.3 223 204.5 221.8 211.4C219.7 223.4 211.6 231.5 201.1 235.9C195.1 238 190.2 239.3 184 239.8V250.7C184 255.1 180.4 258.7 176 258.7C171.6 258.7 168 255.1 168 250.7V239.4C167 239.2 166 239.1 165 238.1L164.1 238.1C157.9 237.8 146.5 234.1 139 231.6C137.6 231.1 136.2 230.6 135.1 230.3C130.9 228.9 128.6 224.4 129.1 220.2C131.3 215.1 135.9 213.7 140.1 215.1C141.5 215.5 143.1 216 144.7 216.6C152.3 219.1 161.9 222.3 167.4 223.1C178.7 224.9 188.3 223.9 194.1 221.1C201.5 218.4 205 214.2 206 208.6C206.8 204.3 206.3 201.4 205.3 199.3C204.3 197 202.6 194.1 199.7 192.1C193.7 188.7 184.7 185.9 173.9 182.7L172.5 182.3C162.8 179.5 151.7 176.2 143.5 170.8C138.1 167.9 134.9 163.1 132.3 158.7C129.7 153.3 129 147.2 130.2 140.6C132.2 129.3 140.4 121.3 150.6 116.8C155.8 114.5 161.7 113.1 168 112.5V101.3C168 96.92 171.6 93.33 176 93.33V93.33zM344 112.6C344.1 112.8 345.1 112.9 346.1 113C350.9 113.6 362.6 115.8 366.8 116.9C371.1 118 373.7 122.4 372.5 126.7C371.4 130.9 367.1 133.5 362.8 132.4C359.3 131.5 348.2 129.4 344.6 128.9C333.5 127.2 323.9 128.5 317 131.5C310.2 134.5 306.8 138.9 305.1 143.4C305.3 147.3 305.8 149.8 306.7 151.7C307.7 153.6 309.4 155.6 312.3 157.5C318.4 161.5 327.5 164.2 338.4 167.4L338.5 167.4C348.6 170.4 360.4 173.8 368.1 179.9C373.5 183.1 377.5 187.2 379.9 192.7C382.4 198.3 383 204.5 381.8 211.4C379.7 223.4 371.6 231.5 361.1 235.9C355.1 238 350.2 239.3 344 239.8V250.7C344 255.1 340.4 258.7 336 258.7C331.6 258.7 328 255.1 328 250.7V239.4C327 239.2 326 239.1 325 238.1L324.1 238.1C317.9 237.8 306.5 234.1 299 231.6C297.6 231.1 296.2 230.6 295.1 230.3C290.9 228.9 288.6 224.4 289.1 220.2C291.4 215.1 295.9 213.7 300.1 215.1C301.5 215.5 303.1 216 304.7 216.6C312.3 219.1 321.9 222.3 327.4 223.1C338.7 224.9 348.3 223.9 354.1 221.1C361.5 218.4 365 214.2 366 208.6C366.8 204.3 366.3 201.4 365.3 199.3C364.3 197.1 362.6 194.1 359.7 192.1C353.7 188.7 344.7 185.9 333.9 182.7L332.5 182.3C322.8 179.5 311.7 176.2 303.5 170.8C298.1 167.9 294.9 163.1 292.3 158.7C289.7 153.3 289 147.2 290.2 140.6C292.2 129.3 300.4 121.3 310.6 116.8C315.8 114.5 321.7 113.1 328 112.5V101.3C328 96.92 331.6 93.33 336 93.33C340.4 93.33 344 96.92 344 101.3L344 112.6z"/></svg>