<svg xmlns="http://www.w3.org/2000/svg" viewBox="0 0 512 512"><!--! Font Awesome Pro 6.1.1 by @fontawesome - https://fontawesome.com License - https://fontawesome.com/license (Commercial License) Copyright 2022 Fonticons, Inc. --><path d="M208 192V208C208 225.7 193.7 240 176 240H96C78.33 240 64 225.7 64 208V192C64 152.2 96.24 120 136 120C175.8 120 208 152.2 208 192zM192 208V192C192 185.6 190.9 179.4 188.9 173.7C183.8 184.5 172.8 192 160 192C142.3 192 128 177.7 128 160C128 150.5 132.2 141.9 138.8 136.1C137.8 136 136.9 136 136 136C105.1 136 80 161.1 80 192V208C80 216.8 87.16 224 96 224H176C184.8 224 192 216.8 192 208zM160 176C168.8 176 176 168.8 176 160C176 151.2 168.8 144 160 144C151.2 144 144 151.2 144 160C144 168.8 151.2 176 160 176zM256 192C256 147.8 291.8 112 336 112C380.2 112 416 147.8 416 192V209.9C416 226.5 402.5 240 385.9 240H286.1C269.5 240 255.1 226.5 255.1 209.9L256 192zM360 136C351.2 136 344 143.2 344 152C344 160.8 351.2 168 360 168C368.8 168 376 160.8 376 152C376 143.2 368.8 136 360 136zM338.8 128.1C337.8 128 336.9 128 336 128C300.7 128 272 156.7 272 192V209.9C272 217.7 278.3 224 286.1 224H385.9C393.7 224 400 217.7 400 209.9V192C400 180.1 396.8 168.1 391.1 159.5C387.8 173.5 375.1 184 360 184C342.3 184 328 169.7 328 152C328 142.5 332.2 133.9 338.8 128.1H338.8zM265.4 448H248C157.4 448 81.66 378.3 73.46 288C72.68 279.5 79.43 272 88.06 272H394.6C410.4 272 422.8 285.6 421.3 301.3C417 348.9 392.3 390.1 356.3 416.6C331.2 436.3 299.5 448 265.4 448V448zM260.7 432C292.7 432 322.5 421.6 346.7 403.8C354.3 397.9 361.2 391 367.3 383.5C354.1 373.8 337.7 368 320 368C281.3 368 249.1 395.4 241.6 431.9C243.7 431.1 245.9 432 248 432H260.7zM225.6 430.4C233.9 385.8 272.1 352 320 352C342 352 362.3 359.4 378.5 371.8C393.3 351.3 402.1 326.7 405.4 299.9C405.1 293.5 400.1 288 394.6 288H89.53C96.89 361.8 153.1 420.2 225.6 430.4zM0 256C0 114.6 114.6 0 256 0C397.4 0 512 114.6 512 256C512 397.4 397.4 512 256 512C114.6 512 0 397.4 0 256zM256 496C388.5 496 496 388.5 496 256C496 123.5 388.5 16 256 16C123.5 16 16 123.5 16 256C16 388.5 123.5 496 256 496z"/></svg>