<svg xmlns="http://www.w3.org/2000/svg" viewBox="0 0 640 512"><!--! Font Awesome Pro 6.1.1 by @fontawesome - https://fontawesome.com License - https://fontawesome.com/license (Commercial License) Copyright 2022 Fonticons, Inc. --><path d="M552 21.92L560 13.86C578.3-4.544 608-4.544 626.3 13.86C644.6 32.24 644.6 62.01 626.3 80.39L570.9 136.2C560.5 146.6 543.6 146.6 533.2 136.2L477.7 80.33C459.4 61.95 459.4 32.18 477.7 13.8C495.1-4.601 525.7-4.601 543.1 13.8L552 21.92zM489 69.05L544.5 124.9C548.7 129 555.4 129 559.5 124.9L614.1 69.11C627 56.97 627 37.28 614.1 25.14C602.9 13.03 583.4 13.03 571.4 25.14L552 44.62L532.6 25.08C520.6 12.97 501.1 12.97 489 25.08C476.1 37.22 476.1 56.91 489 69.05L489 69.05zM432.1 43.72C398.6 26.02 360.5 16 320 16C187.5 16 80 123.5 80 256C80 276.4 82.56 296.3 87.36 315.2C81.58 311.7 75.45 309.1 69.12 307.2C65.76 290.7 64 273.5 64 256C64 114.6 178.6 .0004 320 .0004C361.2 .0004 400.1 9.726 434.6 27C433.1 32.49 432.3 38.09 432.1 43.72H432.1zM546.2 175.7C551.8 176.3 557.4 176 562.9 174.1C571.4 200.4 576 227.7 576 256C576 286.5 570.7 315.8 560.8 342.1C557.8 344.3 554.9 345.9 552 347.6C549.3 345.1 546.5 344.5 543.7 343.2C554.2 316.1 560 286.8 560 256C560 227.8 555.2 200.8 546.2 175.7V175.7zM455 470.9L456.6 472.5C417.1 497.5 370.2 512 320 512C261.6 512 207.7 492.4 164.6 459.5L175.1 448C216.1 478.1 265.1 496 320 496C366.3 496 409.5 482.9 446.1 460.2C448.7 463.1 451.7 467.5 455 470.9V470.9zM203.4 321.4C207 318.9 212 319.8 214.6 323.4C235.4 353.2 270.6 384 320 384C369.4 384 404.6 353.2 425.4 323.4C427.1 319.8 432.1 318.9 436.6 321.4C440.2 323.1 441.1 328.1 438.6 332.6C416.1 364.6 376.7 400 319.1 400C263.3 400 223.9 364.6 201.4 332.6C198.9 328.1 199.8 323.1 203.4 321.4H203.4zM187.7 230.1C183.9 228.8 182.5 223.9 184.7 220.1C197.8 196.7 218.2 184 239.6 184C261 184 281.5 196.7 294.6 220.1C296.8 223.9 295.4 228.8 291.6 230.1C287.7 233.1 282.8 231.8 280.7 227.9C269.8 208.6 254.2 200 239.6 200C225 200 209.5 208.6 198.6 227.9C196.4 231.8 191.6 233.1 187.7 230.1H187.7zM399.6 200C385 200 369.5 208.6 358.6 227.9C356.4 231.8 351.6 233.1 347.7 230.1C343.9 228.8 342.5 223.9 344.7 220.1C357.8 196.7 378.2 184 399.6 184C421 184 441.5 196.7 454.6 220.1C456.8 223.9 455.4 228.8 451.5 230.1C447.7 233.1 442.8 231.8 440.7 227.9C429.8 208.6 414.2 200 399.6 200H399.6zM477.7 381.8C495.1 363.4 525.7 363.4 543.1 381.8L552 389.9L560 381.9C578.3 363.5 608 363.5 626.3 381.9C644.6 400.2 644.6 430 626.3 448.4L570.9 504.2C560.5 514.6 543.6 514.6 533.2 504.2L477.7 448.3C459.4 429.1 459.4 400.2 477.7 381.8H477.7zM532.6 393.1C520.6 380.1 501.1 380.1 489 393.1C476.1 405.2 476.1 424.9 489 437L544.5 492.9C548.7 497 555.4 497 559.5 492.9L614.1 437.1C627 424.1 627 405.3 614.1 393.1C602.9 381 583.4 381 571.4 393.1L552 412.6L532.6 393.1zM88.03 357.9L96.04 349.9C114.3 331.5 144 331.5 162.3 349.9C180.6 368.2 180.6 398 162.3 416.4L106.9 472.2C96.47 482.6 79.59 482.6 69.18 472.2L13.7 416.3C-4.566 397.1-4.566 368.2 13.7 349.8C31.99 331.4 61.67 331.4 79.96 349.8L88.03 357.9zM25.05 405L80.53 460.9C84.68 465 91.38 465 95.53 460.9L150.1 405.1C163 392.1 163 373.3 150.1 361.1C138.9 349 119.4 349 107.4 361.1L88.03 380.6L68.61 361.1C56.58 348.1 37.08 348.1 25.05 361.1C12.99 373.2 12.99 392.9 25.05 405.1L25.05 405z"/></svg>