<svg xmlns="http://www.w3.org/2000/svg" viewBox="0 0 512 512"><!--! Font Awesome Pro 6.1.1 by @fontawesome - https://fontawesome.com License - https://fontawesome.com/license (Commercial License) Copyright 2022 Fonticons, Inc. --><path d="M256 384C305.4 384 340.6 353.2 361.4 323.4C363.1 319.8 368.1 318.9 372.6 321.4C376.2 323.1 377.1 328.1 374.6 332.6C352.1 364.6 312.7 400 255.1 400C199.3 400 159.9 364.6 137.4 332.6C134.9 328.1 135.8 323.1 139.4 321.4C143 318.9 148 319.8 150.6 323.4C171.4 353.2 206.6 384 255.1 384H256zM192.4 208C192.4 216.8 185.2 224 176.4 224C167.5 224 160.4 216.8 160.4 208C160.4 199.2 167.5 192 176.4 192C185.2 192 192.4 199.2 192.4 208zM320.4 208C320.4 199.2 327.5 192 336.4 192C345.2 192 352.4 199.2 352.4 208C352.4 216.8 345.2 224 336.4 224C327.5 224 320.4 216.8 320.4 208zM512 256C512 397.4 397.4 512 256 512C114.6 512 0 397.4 0 256C0 114.6 114.6 0 256 0C397.4 0 512 114.6 512 256zM256 16C123.5 16 16 123.5 16 256C16 388.5 123.5 496 256 496C388.5 496 496 388.5 496 256C496 123.5 388.5 16 256 16z"/></svg>