<svg xmlns="http://www.w3.org/2000/svg" viewBox="0 0 576 512"><!--! Font Awesome Pro 6.0.0-beta3 by @fontawesome - https://fontawesome.com License - https://fontawesome.com/license (Commercial License) Copyright 2021 Fonticons, Inc. --><path d="M240 168C190.9 168 158.8 188.5 149.7 197.7C146.5 200.8 141.5 200.8 138.3 197.7C135.2 194.5 135.2 189.5 138.3 186.3C150.5 174.1 186.7 152 240 152C244.4 152 248 155.6 248 160C248 164.4 244.4 168 240 168L240 168zM426.3 197.7C417.2 188.5 385.1 168 336 168C331.6 168 328 164.4 328 160C328 155.6 331.6 152 336 152C389.3 152 425.5 174.1 437.7 186.3C440.8 189.5 440.8 194.5 437.7 197.7C434.5 200.8 429.5 200.8 426.3 197.7L426.3 197.7zM183.1 319.1C183.1 315.6 187.6 311.1 191.1 311.1H384C388.4 311.1 392 315.6 392 319.1C392 324.4 388.4 328 384 328H191.1C187.6 328 183.1 324.4 183.1 319.1zM183.1 384C183.1 379.6 187.6 376 191.1 376H384C388.4 376 392 379.6 392 384C392 388.4 388.4 392 384 392H191.1C187.6 392 183.1 388.4 183.1 384zM551.1 220.2C553.1 224.1 551.7 228.1 547.8 231.1L543 233.6C543.7 240.1 544 248.4 544 256C544 397.4 429.4 512 288 512C146.6 512 32 397.4 32 256C32 248.4 32.33 240.1 32.97 233.6L28.23 231.1C24.34 228.1 22.86 224.1 24.94 220.2C26.89 216.6 31.26 215.1 35.02 216.6C53.97 93.92 160 0 288 0C415.1 0 522 93.92 540.1 216.6C544.7 215.1 549.1 216.6 551.1 220.2zM431.4 400C427.6 427.1 404.2 448 376 448H199.1C171.8 448 148.4 427.1 144.6 400H95.98C139.8 458.3 209.5 496 288 496C366.5 496 436.2 458.3 480 400H431.4zM491.1 384C514.5 346.1 528 303.1 528 256C528 251.2 527.9 246.5 527.6 241.8L429.2 294.3C430.1 299.9 432 305.8 432 311.1V384H491.1zM288 16C166.1 16 65.44 106.9 50.04 224.6L154 280C164.1 265.5 180.1 255.1 199.1 255.1H376C395 255.1 411.9 265.5 421.1 280L525.1 224.6C510.6 106.9 409.9 16 288 16H288zM48.41 241.8C48.14 246.5 48 251.2 48 256C48 303.1 61.54 346.1 84.95 384H143.1V311.1C143.1 305.8 145 299.9 146.8 294.3L48.41 241.8zM376 271.1H199.1C177.9 271.1 159.1 289.9 159.1 311.1V392C159.1 414.1 177.9 432 199.1 432H376C398.1 432 416 414.1 416 392V311.1C416 289.9 398.1 271.1 376 271.1z"/></svg>