<svg xmlns="http://www.w3.org/2000/svg" viewBox="0 0 512 512"><!--! Font Awesome Pro 6.0.0-beta3 by @fontawesome - https://fontawesome.com License - https://fontawesome.com/license (Commercial License) Copyright 2021 Fonticons, Inc. --><path d="M152 496h-112c-13.23 0-24-10.78-24-24v-112C16 355.6 12.42 352 8 352S0 355.6 0 360v112C0 494.1 17.94 512 40 512h112C156.4 512 160 508.4 160 504S156.4 496 152 496zM8 160C12.42 160 16 156.4 16 152v-112c0-13.22 10.77-24 24-24h112C156.4 16 160 12.41 160 8S156.4 0 152 0h-112C17.94 0 0 17.94 0 40v112C0 156.4 3.578 160 8 160zM472 0h-112C355.6 0 352 3.594 352 8s3.578 8 8 8h112c13.23 0 24 10.78 24 24v112C496 156.4 499.6 160 504 160S512 156.4 512 152v-112C512 17.94 494.1 0 472 0zM504 352c-4.422 0-8 3.594-8 8v112c0 13.22-10.77 24-24 24h-112c-4.422 0-8 3.594-8 8S355.6 512 360 512h112c22.06 0 40-17.94 40-40v-112C512 355.6 508.4 352 504 352zM416 256c0-88.37-71.63-160-160-160S96 167.6 96 256s71.63 160 160 160S416 344.4 416 256zM256 400c-79.4 0-144-64.6-144-144S176.6 112 256 112s144 64.6 144 144S335.4 400 256 400zM321.6 306.7C304.9 325.3 281 336 256 336s-48.91-10.69-65.59-29.34c-3-3.312-8.062-3.578-11.31-.6094c-3.281 2.938-3.562 8-.625 11.3C198.2 339.4 226.5 352 256 352s57.78-12.64 77.53-34.66c2.938-3.297 2.656-8.359-.625-11.3S324.6 303.4 321.6 306.7zM208 240C216.8 240 224 232.8 224 224c0-8.838-7.162-16-16-16C199.2 208 192 215.2 192 224C192 232.8 199.2 240 208 240zM304 240C312.8 240 320 232.8 320 224c0-8.838-7.162-16-16-16C295.2 208 288 215.2 288 224C288 232.8 295.2 240 304 240z"/></svg>