<svg xmlns="http://www.w3.org/2000/svg" viewBox="0 0 512 512"><!--! Font Awesome Pro 6.1.1 by @fontawesome - https://fontawesome.com License - https://fontawesome.com/license (Commercial License) Copyright 2022 Fonticons, Inc. --><path d="M260.2 320C306.5 320 344 357.5 344 403.8C344 410.5 338.5 416 331.8 416H180.2C173.5 416 168 410.5 168 403.8C168 357.5 205.5 320 251.8 320H260.2zM251.8 336C215.6 336 186.1 364.3 184.1 400H327.9C325.9 364.3 296.4 336 260.2 336H251.8zM199.1 87.51C200.3 91.92 196.9 95.71 192.5 95.98C159.1 97.99 130.9 112.5 109.8 134.7C106.8 137.9 101.7 138 98.5 134.1C95.29 131.1 95.15 126.9 98.19 123.7C121.9 98.62 154.8 82.28 191.5 80.02C195.9 79.74 199.7 83.1 199.1 87.51V87.51zM319.5 95.98C315.1 95.71 311.7 91.92 312 87.51C312.3 83.1 316.1 79.74 320.5 80.02C357.2 82.28 390.1 98.62 413.8 123.7C416.8 126.9 416.7 131.1 413.5 134.1C410.3 138 405.2 137.9 402.2 134.7C381.1 112.5 352 97.99 319.5 95.98V95.98zM176.4 224C176.4 232.8 169.2 240 160.4 240C151.5 240 144.4 232.8 144.4 224C144.4 215.2 151.5 208 160.4 208C169.2 208 176.4 215.2 176.4 224zM88 224C88 184.2 120.2 152 160 152C199.8 152 232 184.2 232 224C232 263.8 199.8 296 160 296C120.2 296 88 263.8 88 224zM160 168C129.1 168 104 193.1 104 224C104 254.9 129.1 280 160 280C190.9 280 216 254.9 216 224C216 193.1 190.9 168 160 168zM336.4 224C336.4 215.2 343.5 208 352.4 208C361.2 208 368.4 215.2 368.4 224C368.4 232.8 361.2 240 352.4 240C343.5 240 336.4 232.8 336.4 224zM424 224C424 263.8 391.8 296 352 296C312.2 296 280 263.8 280 224C280 184.2 312.2 152 352 152C391.8 152 424 184.2 424 224zM352 280C382.9 280 408 254.9 408 224C408 193.1 382.9 168 352 168C321.1 168 296 193.1 296 224C296 254.9 321.1 280 352 280zM512 256C512 397.4 397.4 512 256 512C114.6 512 0 397.4 0 256C0 114.6 114.6 0 256 0C397.4 0 512 114.6 512 256zM256 16C123.5 16 16 123.5 16 256C16 388.5 123.5 496 256 496C388.5 496 496 388.5 496 256C496 123.5 388.5 16 256 16z"/></svg>