<svg xmlns="http://www.w3.org/2000/svg" viewBox="0 0 512 512"><!--! Font Awesome Pro 6.1.1 by @fontawesome - https://fontawesome.com License - https://fontawesome.com/license (Commercial License) Copyright 2022 Fonticons, Inc. --><path d="M104.7 314C101.1 300.3 112.3 288 126.5 288H385.5C399.7 288 410.1 300.3 407.3 314C389.2 381.1 328.3 432 256 432C183.7 432 122.8 381.1 104.7 314H104.7zM120.2 309.9C136.5 371.2 191.3 416 256 416C320.7 416 375.5 371.2 391.8 309.9C392.2 308.5 391.9 307.4 390.1 306.3C389.9 305.1 387.1 304 385.5 304H126.5C124 304 122.1 305.1 121 306.3C120.1 307.4 119.8 308.5 120.2 309.9H120.2zM372.4 144.8C376.4 142.9 381.2 144.5 383.2 148.4C385.1 152.4 383.5 157.2 379.6 159.2L313.9 191.1L379.6 224.8C383.5 226.8 385.1 231.6 383.2 235.6C381.2 239.5 376.4 241.1 372.4 239.2L292.4 199.2C289.7 197.8 288 195 288 191.1C288 188.1 289.7 186.2 292.4 184.8L372.4 144.8zM219.6 184.8C222.3 186.2 224 188.1 224 192C224 195 222.3 197.8 219.6 199.2L139.6 239.2C135.6 241.1 130.8 239.5 128.8 235.6C126.9 231.6 128.5 226.8 132.4 224.8L198.1 192L132.4 159.2C128.5 157.2 126.9 152.4 128.8 148.4C130.8 144.5 135.6 142.9 139.6 144.8L219.6 184.8zM0 256C0 114.6 114.6 0 256 0C397.4 0 512 114.6 512 256C512 397.4 397.4 512 256 512C114.6 512 0 397.4 0 256zM256 496C388.5 496 496 388.5 496 256C496 123.5 388.5 16 256 16C123.5 16 16 123.5 16 256C16 388.5 123.5 496 256 496z"/></svg>