<svg xmlns="http://www.w3.org/2000/svg" viewBox="0 0 640 512"><!--! Font Awesome Pro 6.1.1 by @fontawesome - https://fontawesome.com License - https://fontawesome.com/license (Commercial License) Copyright 2022 Fonticons, Inc. --><path d="M320 16C262.3 16 209.5 36.32 168.1 70.19C164.7 72.99 159.6 72.49 156.8 69.07C154 65.65 154.5 60.61 157.9 57.81C202.1 21.68 258.5 0 320 0C399.9 0 471.3 36.61 518.2 93.95C520.1 97.37 520.5 102.4 517.1 105.2C513.6 108 508.6 107.5 505.8 104.1C461.8 50.3 394.9 16 320 16L320 16zM92.56 355.3C96.55 353.4 101.3 355.1 103.2 359.1C141.8 440.1 224.4 496 320 496C394.9 496 461.8 461.7 505.8 407.9C508.6 404.5 513.6 403.1 517.1 406.8C520.5 409.6 520.1 414.6 518.2 418.1C471.3 475.4 399.9 512 320 512C217.1 512 129.9 452.3 88.78 366C86.88 362 88.57 357.2 92.56 355.3V355.3zM40.57 155.1L101.7 93.98C115.7 79.92 138.5 79.92 152.6 93.98C166.6 108 166.6 130.8 152.6 144.9L137.5 160H232C249.7 160 264 174.3 264 192C264 195.9 263.3 199.7 261.1 203.2C272.6 208.4 280 219.3 280 232C280 244.7 272.6 255.6 261.1 260.8C263.3 264.3 264 268.1 264 272C264 289.7 249.7 304 232 304H214.7C215.6 306.8 215.1 309.8 215.1 312.9C215.1 330.6 201.7 344.9 183.1 344.9H119.2C89.71 344.9 61.42 333.2 40.57 312.3C-2.542 269.2-2.854 199.5 39.63 156L39.73 155.9L40.57 155.1zM197.3 304C194.4 299.7 189.5 296.9 183.1 296.9H170C167.6 296.9 165.6 294.9 165.6 292.5C165.6 289.1 167.6 288 170 288H232C240.8 288 248 280.8 248 272C248 269.1 247.2 266.4 245.9 264C243.1 259.2 237.9 256 232 256H169.6C167.4 256 165.6 254.2 165.6 252C165.6 249.8 167.4 248 169.6 248H248C249.5 248 251 247.8 252.4 247.4C259.1 245.5 264 239.3 264 232C264 224.7 259.1 218.5 252.4 216.6C251 216.2 249.5 216 248 216H169.6C167.4 216 165.6 214.2 165.6 212C165.6 209.8 167.4 208 169.6 208H232C237.9 208 243.1 204.8 245.9 200C247.2 197.6 248 194.9 248 192C248 183.2 240.8 176 232 176H118.2C111 176 107.5 167.4 112.5 162.3L141.3 133.6C149.1 125.8 149.1 113.1 141.3 105.3C133.5 97.48 120.8 97.48 112.1 105.3L51.88 166.4L51.08 167.2C14.71 204.4 14.98 264.1 51.88 301C69.74 318.9 93.95 328.9 119.2 328.9H184C192.8 328.9 200 321.7 200 312.9C200 309.6 199 306.5 197.3 304L197.3 304zM599.5 195.1L600.4 196C642.9 239.5 642.5 309.2 599.4 352.3C578.6 373.2 550.3 384.9 520.8 384.9H456C438.3 384.9 424 370.6 424 352.9C424 349.8 424.4 346.8 425.3 344H408C390.3 344 376 329.7 376 312C376 308.1 376.7 304.3 378 300.8C367.4 295.6 360 284.7 360 272C360 254.3 374.3 240 392 240H458.5L405.4 202C391 191.8 387.7 171.8 397.1 157.4C408.2 143 428.2 139.7 442.6 149.1L494.9 187.3C490.5 174.7 493.3 160.1 503.4 149.1C517.5 135.9 540.3 135.9 554.3 149.1L599.5 195.1zM387.6 287.4C388.1 287.8 390.5 288 392 288H476C478.2 288 480 289.8 480 292C480 294.2 478.2 296 476 296H408C402.1 296 396.9 299.2 394.1 303.1C392.8 306.4 392 309.1 392 312C392 320.8 399.2 328 408 328H475.5C478 328 480 329.1 480 332.5C480 334.9 478 336.9 475.5 336.9H456C450.5 336.9 445.6 339.7 442.7 344C440.1 346.5 440 349.6 440 352.9C440 361.7 447.2 368.9 456 368.9H520.8C546.1 368.9 570.3 358.9 588.1 341C625 304.1 625.3 244.4 588.9 207.2L588.1 206.4L543 161.3C535.2 153.5 522.5 153.5 514.7 161.3C506.9 169.1 506.9 181.8 514.7 189.6L529.5 204.4C536.1 210.1 532.2 222.3 522.9 223.4C520.1 223.7 517.3 223 515.1 221.4L433.3 162.1C426.1 157.8 416.1 159.5 410.1 166.7C405.8 173.9 407.5 183.9 414.7 189L474.4 231.6C477.9 234.2 480 238.2 480 242.6C480 249.1 473.1 256 466.6 256H392C383.2 256 376 263.2 376 272C376 279.3 380.9 285.5 387.6 287.4H387.6zM369.5 364.9C382.4 373 392 385.2 392 400C392 414.8 382.4 426.1 369.5 435.1C356.5 443.2 338.9 448 320 448C301.1 448 283.5 443.2 270.5 435.1C257.6 426.1 248 414.8 248 400C248 385.2 257.6 373 270.5 364.9C283.5 356.8 301.1 352 320 352C338.9 352 356.5 356.8 369.5 364.9V364.9zM278.1 421.5C289.1 427.8 303.6 432 320 432C336.4 432 350.9 427.8 361 421.5C371.2 415.1 376 407.3 376 400C376 392.7 371.2 384.9 361 378.5C350.9 372.2 336.4 368 320 368C303.6 368 289.1 372.2 278.1 378.5C268.8 384.9 264 392.7 264 400C264 407.3 268.8 415.1 278.1 421.5zM358.9 164.6C361.1 168.4 359.8 173.3 356 175.5C339.2 185.2 328 203.3 328 224C328 231.4 329.4 238.5 332 244.1C333.7 249 331.7 253.7 327.6 255.4C323.5 257 318.9 255 317.2 250.9C313.8 242.6 312 233.5 312 224C312 197.3 326.5 174.1 347.1 161.6C351.8 159.4 356.7 160.7 358.9 164.6L358.9 164.6zM368 224C368 215.2 375.2 208 384 208C392.8 208 400 215.2 400 224C400 232.8 392.8 240 384 240C375.2 240 368 232.8 368 224z"/></svg>