<svg xmlns="http://www.w3.org/2000/svg" viewBox="0 0 512 512"><!--! Font Awesome Pro 6.0.0-beta3 by @fontawesome - https://fontawesome.com License - https://fontawesome.com/license (Commercial License) Copyright 2021 Fonticons, Inc. --><path d="M256.3 432C193.7 432 139.3 396.8 111.6 345.1C102.6 328.1 120.3 311.1 138.9 316.9C174.9 326.5 214.6 331.8 256.3 331.8C297.1 331.8 337.7 326.5 373.6 316.9C392.2 311.1 409.1 328.1 400.9 345.1C373.2 396.8 318.8 432 256.3 432V432zM134.8 332.4C130.9 331.3 127.7 332.7 126.1 334.2C125.4 334.9 125.3 335.4 125.2 335.6C125.2 335.7 125.1 336.3 125.8 337.5C150.8 384.3 199.9 416 256.3 416C312.7 416 361.8 384.3 386.8 337.5C387.5 336.3 387.4 335.7 387.3 335.6C387.3 335.4 387.1 334.9 386.4 334.2C384.9 332.7 381.6 331.3 377.7 332.4C340.4 342.3 299.3 347.8 256.3 347.8C213.2 347.8 172.2 342.3 134.8 332.4V332.4zM159.1 112C163.1 112 165.9 113.8 167.2 116.6L188.4 160.9L237.1 167.3C240.2 167.8 242.7 169.9 243.7 172.8C244.6 175.7 243.8 178.1 241.6 181.1L205.9 214.9L214.9 263.3C215.4 266.3 214.2 269.4 211.7 271.2C209.2 273 205.9 273.2 203.2 271.8L159.1 248.3L116.8 271.8C114.1 273.2 110.8 273 108.3 271.2C105.8 269.4 104.5 266.3 105.1 263.3L114.1 214.9L78.41 181.1C76.17 178.1 75.35 175.7 76.31 172.8C77.26 169.9 79.81 167.8 82.87 167.3L131.6 160.9L152.8 116.6C154.1 113.8 156.9 112 159.1 112H159.1zM159.1 138.6L144.2 171.7C143 174.2 140.7 175.9 138 176.2L101.6 181L128.2 206.3C130.2 208.2 131.1 210.9 130.6 213.6L123.9 249.7L156.2 232.2C158.6 230.9 161.4 230.9 163.8 232.2L196.1 249.7L189.4 213.6C188.9 210.9 189.8 208.2 191.8 206.3L218.4 181L181.1 176.2C179.3 175.9 176.1 174.2 175.8 171.7L159.1 138.6zM380.4 160.9L429.1 167.3C432.2 167.8 434.7 169.9 435.7 172.8C436.6 175.7 435.8 178.1 433.6 181.1L397.9 214.9L406.9 263.3C407.4 266.3 406.2 269.4 403.7 271.2C401.2 273 397.9 273.2 395.2 271.8L352 248.3L308.8 271.8C306.1 273.2 302.8 273 300.3 271.2C297.8 269.4 296.5 266.3 297.1 263.3L306.1 214.9L270.4 181.1C268.2 178.1 267.4 175.7 268.3 172.8C269.3 169.9 271.8 167.8 274.9 167.3L323.6 160.9L344.8 116.6C346.1 113.8 348.9 111.1 352 111.1C355.1 111.1 357.9 113.8 359.2 116.6L380.4 160.9zM330 176.2L293.6 181L320.2 206.3C322.2 208.2 323.1 210.9 322.6 213.6L315.9 249.7L348.2 232.2C350.6 230.9 353.4 230.9 355.8 232.2L388.1 249.7L381.4 213.6C380.9 210.9 381.8 208.2 383.8 206.3L410.4 181L373.1 176.2C371.3 175.9 368.1 174.2 367.8 171.7L352 138.6L336.2 171.7C335 174.2 332.7 175.9 330 176.2H330zM512 256C512 397.4 397.4 512 256 512C114.6 512 0 397.4 0 256C0 114.6 114.6 0 256 0C397.4 0 512 114.6 512 256zM256 16C123.5 16 16 123.5 16 256C16 388.5 123.5 496 256 496C388.5 496 496 388.5 496 256C496 123.5 388.5 16 256 16z"/></svg>