<svg xmlns="http://www.w3.org/2000/svg" viewBox="0 0 512 512"><!--! Font Awesome Pro 6.0.0-beta3 by @fontawesome - https://fontawesome.com License - https://fontawesome.com/license (Commercial License) Copyright 2021 Fonticons, Inc. --><path d="M332.1 371.6C344.1 363.7 359.4 362.7 372.2 369.1L387.6 376.8C391.5 378.8 393.1 383.6 391.2 387.6C389.2 391.5 384.4 393.1 380.4 391.2L365 383.5C357.3 379.6 348.2 380.2 340.1 384.1L326.2 394.8C312.8 403.8 295.2 403.8 281.8 394.8L269.3 386.5C261.3 381.1 250.7 381.1 242.7 386.5L230.2 394.8C216.8 403.8 199.2 403.8 185.8 394.8L171 384.1C163.8 380.2 154.7 379.6 146.1 383.5L131.6 391.2C127.6 393.1 122.8 391.5 120.8 387.6C118.9 383.6 120.5 378.8 124.4 376.8L139.8 369.1C152.7 362.7 167.9 363.7 179.9 371.6L194.7 381.5C202.7 386.9 213.3 386.9 221.3 381.5L233.8 373.2C247.2 364.2 264.8 364.2 278.2 373.2L290.7 381.5C298.7 386.9 309.3 386.9 317.3 381.5L332.1 371.6zM169.9 111.7C170.1 116.1 166.7 119.8 162.2 119.1C113.1 121.1 75.92 166.9 80.36 208.7L80.39 208.9L80.4 209.1C82.5 251.7 123.4 283.9 161 279.6L161.5 279.6C199.9 277.4 227.6 241.8 223.6 210.6L223.6 210.3L223.6 210.1C221.3 177.1 190 155.1 163 158.9L162.6 159C134.7 161.3 116.5 187.4 120.1 208.2L120.1 208.4L120.1 208.7C122.5 230.4 144.1 243.9 160.4 240.7L160.6 240.7L160.8 240.6C178.1 238.2 186.8 221.8 184 211.6L183.1 211.4L183.9 211.1C182.8 205.6 179.5 201.6 175.5 199.3C171.3 196.8 167.1 196.6 164.7 197.5L164.5 197.6L164.2 197.7C161.2 198.6 159.6 200.5 158.8 202.2C159.6 201.8 160.4 201.6 161.2 201.6C165.6 201.2 169.5 204.4 169.9 208.8C170.6 216.8 163.5 220.4 159.3 220.9C154.2 221.5 148.8 219.2 145.4 214.1C141.5 208.7 141.8 201.6 144 196.1C146.5 190.2 151.6 184.8 159.4 182.4C167.2 179.6 176.3 181.2 183.5 185.4C191 189.8 197.4 197.4 199.6 207.7C204.8 228 188.9 252.7 163.2 256.5C137.8 261.3 107.8 241.4 104.3 210.7C99.21 180.1 124.7 146.3 161 143.1C197 138.1 236.4 167.5 239.5 208.7C244.6 249.6 209.6 292.8 162.6 295.6C115.1 300.6 67.12 261.8 64.43 210.2C59.1 158.8 103.8 106.3 161.6 104C166 103.8 169.7 107.3 169.9 111.7L169.9 111.7zM431.6 207.3L431.6 207.1L431.6 206.9C429.5 164.3 388.6 132.1 350.1 136.4L350.5 136.4C312.1 138.6 284.4 174.2 288.4 205.4L288.4 205.7L288.4 205.9C290.7 238 321.1 260.9 348.1 257.1L349.4 257C377.3 254.7 395.5 228.6 391.9 207.8L391.9 207.6L391.9 207.3C389.5 185.6 367.9 172.1 351.6 175.3L351.4 175.3L351.2 175.4C333.9 177.8 325.2 194.2 327.1 204.4L328 204.6L328.1 204.9C329.2 210.4 332.5 214.4 336.5 216.7C340.7 219.2 344.9 219.4 347.3 218.5L347.5 218.4L347.8 218.3C350.8 217.4 352.4 215.5 353.1 213.8C352.4 214.2 351.6 214.4 350.8 214.4C346.4 214.8 342.5 211.6 342.1 207.2C341.4 199.2 348.5 195.6 352.7 195.1C357.8 194.5 363.2 196.8 366.6 201.9C370.5 207.3 370.2 214.4 367.1 219.9C365.5 225.8 360.4 231.2 352.6 233.6C344.8 236.4 335.7 234.8 328.5 230.6C320.1 226.2 314.6 218.6 312.5 208.3C307.2 187.1 323.1 163.3 348.8 159.5C374.2 154.7 404.2 174.6 407.7 205.3C412.8 235.9 387.3 269.7 350.1 272.9C314.1 277.9 275.6 248.5 272.5 207.3C267.4 166.4 302.4 123.2 349.4 120.4C396 115.4 444.9 154.2 447.6 205.8C452.9 257.2 408.2 309.7 350.4 311.1C345.1 312.2 342.3 308.7 342.1 304.3C341.9 299.9 345.3 296.2 349.8 296C398.9 294 436.1 249.1 431.6 207.3V207.3zM512 256C512 397.4 397.4 512 256 512C114.6 512 0 397.4 0 256C0 114.6 114.6 0 256 0C397.4 0 512 114.6 512 256zM256 16C123.5 16 16 123.5 16 256C16 388.5 123.5 496 256 496C388.5 496 496 388.5 496 256C496 123.5 388.5 16 256 16z"/></svg>