<svg xmlns="http://www.w3.org/2000/svg" viewBox="0 0 512 512"><!--! Font Awesome Pro 6.0.0-beta3 by @fontawesome - https://fontawesome.com License - https://fontawesome.com/license (Commercial License) Copyright 2021 Fonticons, Inc. --><path d="M256 390.4L299.6 361.3C302.2 359.6 305.8 359.6 308.4 361.3L352.6 390.8L380.4 376.8C384.4 374.9 389.2 376.5 391.2 380.4C393.1 384.4 391.5 389.2 387.6 391.2L355.6 407.2C353 408.4 349.1 408.2 347.6 406.7L304 377.6L260.4 406.7C257.8 408.4 254.2 408.4 251.6 406.7L208 377.6L164.4 406.7C162 408.2 158.1 408.4 156.4 407.2L124.4 391.2C120.5 389.2 118.9 384.4 120.8 380.4C122.8 376.5 127.6 374.9 131.6 376.8L159.4 390.8L203.6 361.3C206.2 359.6 209.8 359.6 212.4 361.3L256 390.4zM128.8 212.4C130.8 208.5 135.6 206.9 139.6 208.8L219.6 248.8C222.3 250.2 224 252.1 224 256C224 259 222.3 261.8 219.6 263.2L139.6 303.2C135.6 305.1 130.8 303.5 128.8 299.6C126.9 295.6 128.5 290.8 132.4 288.8L198.1 256L132.4 223.2C128.5 221.2 126.9 216.4 128.8 212.4V212.4zM372.4 208.8C376.4 206.9 381.2 208.5 383.2 212.4C385.1 216.4 383.5 221.2 379.6 223.2L313.9 255.1L379.6 288.8C383.5 290.8 385.1 295.6 383.2 299.6C381.2 303.5 376.4 305.1 372.4 303.2L292.4 263.2C289.7 261.8 288 259 288 255.1C288 252.1 289.7 250.2 292.4 248.8L372.4 208.8zM512 256C512 397.4 397.4 512 256 512C114.6 512 0 397.4 0 256C0 114.6 114.6 0 256 0C397.4 0 512 114.6 512 256zM256 16C123.5 16 16 123.5 16 256C16 388.5 123.5 496 256 496C388.5 496 496 388.5 496 256C496 123.5 388.5 16 256 16z"/></svg>