<svg xmlns="http://www.w3.org/2000/svg" viewBox="0 0 512 512"><!--! Font Awesome Pro 6.1.1 by @fontawesome - https://fontawesome.com License - https://fontawesome.com/license (Commercial License) Copyright 2022 Fonticons, Inc. --><path d="M335.8 168C335.9 168 335.1 168 336 168C358.8 168 379.9 181.1 391.2 204.4C393.1 208.4 391.5 213.2 387.6 215.2C386.4 215.7 385.2 216 384 216L383.8 215.1C380.1 216.1 378.2 214.6 376.7 211.9C365.8 192.7 350.3 184.1 335.8 184C330.1 184 326.2 184.9 321.7 186.6C313.6 189.8 305.8 195.7 299.2 204.8C297.7 206.9 296.4 209.2 295.2 211.6C293.7 214.4 290.8 216.1 287.8 215.1C286.4 216 285 215.7 283.7 214.1C279.9 212.8 278.5 207.9 280.7 204.1C282.2 201.2 283.1 198.6 285.8 196C292.8 185.8 302.1 177.9 312.6 173.1C319.9 169.7 327.7 168 335.6 168C335.7 168 335.8 168 335.8 168V168zM160 192C160 183.1 167.2 176 176 176L176.2 176L176.4 176C185.2 176 192.4 183.2 192.4 192C192.4 200.8 185.2 208 176.4 208L176.2 207.1L176 208C167.2 208 160 200.9 160 192zM391.9 288C401.5 288 409.1 296.4 407.9 306L407.8 306.3C408.2 308.7 408 311.3 407.3 314C406.6 316.8 405.7 319.7 404.8 322.4C389.3 385.3 332.1 432 264 432H247.1C179.9 432 122.7 385.3 107.2 322.4C106.3 319.6 105.4 316.8 104.7 314C103.1 311.4 103.8 308.8 104.2 306.3L104.1 306C102.9 296.5 110.5 288 120.1 288L391.9 288zM126.5 304C124 304 122.1 305.1 121 306.3C120.8 306.5 120.6 306.8 120.5 307C121.1 311 121.9 314.9 122.8 318.8C141.9 375.5 194.5 416 256 416C317.4 416 369.1 375.6 389.1 319C390.1 315.1 390.9 311.1 391.5 307C391.4 306.8 391.2 306.5 390.1 306.3C389.9 305.1 387.1 304 385.5 304H126.5zM512 256C512 397.4 397.4 512 256 512C114.6 512 0 397.4 0 256C0 202.1 16.12 153.7 43.72 112.9C62.12 85.63 85.63 62.12 112.9 43.72C153.7 16.12 202.1 0 256 0C397.4 0 512 114.6 512 256zM496 256C496 123.7 388.3 16 256 16C123.7 16 16 123.7 16 256C16 388.3 123.7 496 256 496C388.3 496 496 388.3 496 256z"/></svg>