<svg xmlns="http://www.w3.org/2000/svg" viewBox="0 0 576 512"><!--! Font Awesome Pro 6.0.0-beta3 by @fontawesome - https://fontawesome.com License - https://fontawesome.com/license (Commercial License) Copyright 2021 Fonticons, Inc. --><path d="M320 16C187.5 16 80 123.5 80 256C80 388.5 187.5 496 320 496C363.7 496 404.6 484.4 439.8 464C443.6 461.8 448.5 463.1 450.7 466.9C452.9 470.8 451.6 475.7 447.8 477.9C410.2 499.6 366.5 512 320 512C178.6 512 64 397.4 64 256C64 114.6 178.6 0 320 0C455.7 0 566.7 105.5 575.4 238.9C575.7 243.3 572.4 247.2 567.1 247.4C563.6 247.7 559.8 244.4 559.5 239.1C551.2 114.9 447.2 16 320 16H320zM272 384C272 357.5 293.5 336 320 336C346.5 336 368 357.5 368 384C368 410.5 346.5 432 320 432C293.5 432 272 410.5 272 384zM320 416C337.7 416 352 401.7 352 384C352 366.3 337.7 352 320 352C302.3 352 288 366.3 288 384C288 401.7 302.3 416 320 416zM374.6 244.1C385.5 263.4 401 271.1 415.6 271.1C430.2 271.1 445.8 263.4 456.7 244.1C458.8 240.2 463.7 238.9 467.6 241C471.4 243.2 472.8 248.1 470.6 251.9C457.5 275.3 437 287.1 415.6 287.1C394.2 287.1 373.8 275.3 360.7 251.9C358.5 248.1 359.9 243.2 363.7 241C367.6 238.9 372.4 240.2 374.6 244.1H374.6zM264.7 244.1C266.8 240.2 271.7 238.9 275.6 241C279.4 243.2 280.8 248.1 278.6 251.9C265.5 275.3 245.1 287.1 223.6 287.1C202.2 287.1 181.8 275.3 168.7 251.9C166.5 248.1 167.9 243.2 171.7 241C175.6 238.9 180.4 240.2 182.6 244.1C193.5 263.4 209.1 271.1 223.6 271.1C238.2 271.1 253.8 263.4 264.7 244.1H264.7zM602.6 337.3C620 345.5 632 363.4 632 383.1C632 404.6 620 422.5 602.6 430.7C601.1 453.7 582.1 472 558.8 472C545.4 472 533.4 465.9 525.3 456.4C522.3 457.1 519.1 457.5 515.8 457.5C491.5 457.5 471.9 437.5 471.9 413.1C471.9 412.6 471.9 412.2 471.9 411.8L405.7 391.7C402.3 390.6 400 387.5 400 384C400 380.5 402.3 377.4 405.7 376.3L472.3 356.1C475.2 334.6 493.5 317.8 515.8 317.8C517.5 317.8 519.1 317.9 520.8 318.1C528.4 304.9 542.5 295.1 558.8 295.1C582.1 295.1 601 314.3 602.6 337.3V337.3zM523.2 334.8C520.9 334.2 518.4 333.8 515.8 333.8C500.5 333.8 487.9 346.4 487.9 362.2C487.9 365.7 485.6 368.8 482.2 369.8L435.6 384L482.9 398.4C486.8 399.6 489.2 403.5 488.4 407.6C488.1 409.3 487.9 411.2 487.9 413.1C487.9 428.8 500.5 441.5 515.8 441.5C519.3 441.5 522.6 440.8 525.6 439.7C529.2 438.3 533.2 439.7 535.2 442.9C540.2 450.8 548.9 456 558.8 456C574.1 456 586.7 443.4 586.7 427.6C586.7 427 586.7 426.4 586.7 425.8C586.5 422.2 588.7 418.9 592.1 417.8C605.9 413 616 399.7 616 383.1C616 368.3 605.9 354.9 592.1 350.2C588.7 349 586.5 345.7 586.7 342.2C586.7 341.6 586.7 340.1 586.7 340.4C586.7 324.6 574.1 312 558.8 312C547 312 536.9 319.4 532.8 329.1C531.3 333.8 527.1 335.9 523.2 334.8V334.8z"/></svg>