<svg xmlns="http://www.w3.org/2000/svg" viewBox="0 0 512 512"><!--! Font Awesome Pro 6.0.0-beta3 by @fontawesome - https://fontawesome.com License - https://fontawesome.com/license (Commercial License) Copyright 2021 Fonticons, Inc. --><path d="M256 384C224.7 384 202.7 399.1 189.9 413.4C186.1 416.6 181.9 416.9 178.6 413.9C175.4 410.1 175.1 405.9 178.1 402.6C193.1 385.1 219.1 368 256 368C292.9 368 318.9 385.1 333.9 402.6C336.9 405.9 336.6 410.1 333.4 413.9C330.1 416.9 325 416.6 322.1 413.4C309.3 399.1 287.3 384 256 384V384zM205.7 242.3C208.8 245.5 208.8 250.5 205.7 253.7L198.3 261C175.9 283.4 147 298.3 115.8 303.5L113.3 303.9C108.1 304.6 104.8 301.7 104.1 297.3C103.4 292.1 106.3 288.8 110.7 288.1L113.2 287.7C141.1 283 166.9 269.8 186.1 249.7L194.3 242.3C197.5 239.2 202.5 239.2 205.7 242.3V242.3zM306.3 253.7C303.2 250.5 303.2 245.5 306.3 242.3C309.5 239.2 314.5 239.2 317.7 242.3L325 249.7C345.1 269.8 370.9 283 398.8 287.7L401.3 288.1C405.7 288.8 408.6 292.1 407.9 297.3C407.2 301.7 403 304.6 398.7 303.9L396.2 303.5C364.1 298.3 336.1 283.4 313.7 261L306.3 253.7zM512 256C512 397.4 397.4 512 256 512C114.6 512 0 397.4 0 256C0 114.6 114.6 0 256 0C397.4 0 512 114.6 512 256zM256 16C123.5 16 16 123.5 16 256C16 388.5 123.5 496 256 496C388.5 496 496 388.5 496 256C496 123.5 388.5 16 256 16z"/></svg>