<svg xmlns="http://www.w3.org/2000/svg" viewBox="0 0 512 512"><!--! Font Awesome Pro 6.0.0-beta3 by @fontawesome - https://fontawesome.com License - https://fontawesome.com/license (Commercial License) Copyright 2021 Fonticons, Inc. --><path d="M256 16C123.5 16 16 123.5 16 256C16 266.5 16.67 276.8 17.98 286.1C18.54 291.4 15.45 295.4 11.07 295.9C6.686 296.5 2.676 293.4 2.112 289C.7184 278.2 .0006 267.2 .0006 256C.0006 114.6 114.6 0 256 0C397.4 0 512 114.6 512 256C512 397.4 397.4 512 256 512C244.8 512 233.8 511.3 222.1 509.9C218.6 509.3 215.5 505.3 216.1 500.9C216.6 496.6 220.6 493.5 225 494C235.2 495.3 245.5 496 256 496C388.6 496 496 388.5 496 256C496 123.5 388.6 16 256 16V16zM299.6 345.3C302.2 343.6 305.8 343.6 308.4 345.3L352.6 374.8L380.4 360.8C384.4 358.9 389.2 360.5 391.2 364.4C393.1 368.4 391.5 373.2 387.6 375.2L355.6 391.2C353 392.4 349.1 392.2 347.6 390.7L304 361.6L260.4 390.7C256.8 393.1 251.8 392.1 249.3 388.4C246.9 384.8 247.9 379.8 251.6 377.3L299.6 345.3zM219.6 200.8C222.3 202.2 224 204.1 224 208C224 211 222.3 213.8 219.6 215.2L139.6 255.2C135.6 257.1 130.8 255.5 128.8 251.6C126.9 247.6 128.5 242.8 132.4 240.8L198.1 208L132.4 175.2C128.5 173.2 126.9 168.4 128.8 164.4C130.8 160.5 135.6 158.9 139.6 160.8L219.6 200.8zM379.6 175.2L313.9 208L379.6 240.8C383.5 242.8 385.1 247.6 383.2 251.6C381.2 255.5 376.4 257.1 372.4 255.2L292.4 215.2C289.7 213.8 288 211 288 207.1C288 204.1 289.7 202.2 292.4 200.8L372.4 160.8C376.4 158.9 381.2 160.5 383.2 164.4C385.1 168.4 383.5 173.2 379.6 175.2V175.2zM191.9 505.2C191.4 508.3 189.2 510.8 186.2 511.7C183.2 512.6 179.1 511.6 177.9 509.2L139.6 464.5C135.6 459.9 129.4 457.9 123.6 459.4L41.94 479.8C39.21 480.4 36.33 479.6 34.34 477.7C32.36 475.7 31.56 472.8 32.24 470.1L52.64 388.5C54.11 382.6 52.13 376.4 47.53 372.4L2.794 334.1C.4208 332-.5504 328.8 .3075 325.8C1.165 322.8 3.695 320.6 6.784 320.1L214.8 288.1C217.3 287.7 219.9 288.5 221.7 290.3C223.5 292.1 224.3 294.7 223.9 297.2L191.9 505.2zM68.16 392.3L50.1 461L119.7 443.8C131.4 440.9 143.8 444.9 151.7 454.1L178.7 485.6L206.4 305.6L26.43 333.3L57.94 360.3C67.15 368.2 71.1 380.6 68.16 392.3L68.16 392.3z"/></svg>