<svg xmlns="http://www.w3.org/2000/svg" viewBox="0 0 576 512"><!--! Font Awesome Pro 6.0.0-beta3 by @fontawesome - https://fontawesome.com License - https://fontawesome.com/license (Commercial License) Copyright 2021 Fonticons, Inc. --><path d="M288 16C155.5 16 48 123.5 48 256C48 317.5 71.1 373.5 109.1 415.1C112.1 419.3 111.8 424.3 108.5 427.3C105.2 430.2 100.1 429.1 97.19 426.7C56.66 381.4 32 321.6 32 256C32 114.6 146.6 0 288 0C429.4 0 544 114.6 544 256C544 321.6 519.3 381.4 478.8 426.7C475.9 429.1 470.8 430.2 467.5 427.3C464.2 424.3 463.9 419.3 466.9 415.1C504.9 373.5 528 317.5 528 256C528 123.5 420.5 16 288 16V16zM160.8 164.4C162.8 160.5 167.6 158.9 171.6 160.8L251.6 200.8C254.3 202.2 256 204.1 256 208C256 211 254.3 213.8 251.6 215.2L171.6 255.2C167.6 257.1 162.8 255.5 160.8 251.6C158.9 247.6 160.5 242.8 164.4 240.8L230.1 208L164.4 175.2C160.5 173.2 158.9 168.4 160.8 164.4V164.4zM404.4 160.8C408.4 158.9 413.2 160.5 415.2 164.4C417.1 168.4 415.5 173.2 411.6 175.2L345.9 208L411.6 240.8C415.5 242.8 417.1 247.6 415.2 251.6C413.2 255.5 408.4 257.1 404.4 255.2L324.4 215.2C321.7 213.8 320 211 320 207.1C320 204.1 321.7 202.2 324.4 200.8L404.4 160.8zM64 496C64 504.8 56.84 512 48 512C39.16 512 32 504.8 32 496C32 487.2 39.16 480 48 480C56.84 480 64 487.2 64 496zM512 464C512 455.2 519.2 448 528 448C536.8 448 544 455.2 544 464C544 472.8 536.8 480 528 480C519.2 480 512 472.8 512 464zM320 416C311.2 416 304 408.8 304 400C304 391.2 311.2 384 320 384C328.8 384 336 391.2 336 400C336 408.8 328.8 416 320 416zM240 432C240 423.2 247.2 416 256 416C264.8 416 272 423.2 272 432C272 440.8 264.8 448 256 448C247.2 448 240 440.8 240 432zM384 384V391C384 429.2 411.6 461.8 449.3 468.1L462.5 470.3C472.6 471.1 480 480.7 480 491C480 502.6 470.6 512 459 512H116.1C105.4 512 95.1 502.6 95.1 491C95.1 480.7 103.4 471.1 113.5 470.3L126.7 468.1C164.4 461.8 191.1 429.2 191.1 391V384C191.1 379.6 195.6 376 199.1 376C204.4 376 207.1 379.6 207.1 384V391C207.1 437 174.7 476.3 129.3 483.9L116.2 486.1C113.8 486.5 111.1 488.6 111.1 491C111.1 493.8 114.2 496 116.1 496H459C461.8 496 464 493.8 464 491C464 488.6 462.2 486.5 459.8 486.1L446.7 483.9C401.3 476.3 368 437 368 391V384C368 379.6 371.6 376 376 376C380.4 376 384 379.6 384 384V384zM157.8 375.7C153.6 374.5 151.1 370.1 152.3 365.8C157.1 348.8 173.5 331.4 196.6 318.5C219.1 305.3 251.3 296 288 296C324.7 296 356 305.3 379.4 318.5C402.5 331.4 418.9 348.8 423.7 365.8C424.9 370.1 422.4 374.5 418.2 375.7C413.9 376.9 409.5 374.4 408.3 370.2C405.1 358.1 392.9 344.4 371.6 332.4C350.7 320.6 322 312 287.1 312C253.1 312 225.3 320.6 204.4 332.4C183.1 344.4 170.9 358.1 167.7 370.2C166.5 374.4 162.1 376.9 157.8 375.7H157.8z"/></svg>