<svg xmlns="http://www.w3.org/2000/svg" viewBox="0 0 512 512"><!--! Font Awesome Pro 6.1.1 by @fontawesome - https://fontawesome.com License - https://fontawesome.com/license (Commercial License) Copyright 2022 Fonticons, Inc. --><path d="M169.6 291.3C172.8 286.9 179.2 286.9 182.4 291.3C183.6 292.8 184.9 294.5 186.3 296.4C200.5 314.8 223.1 345.4 223.1 369C223.1 395 202.5 416 175.1 416C149.5 416 127.1 395 127.1 369C127.1 345.6 151.1 315.5 165.2 297C166.8 294.1 168.3 293 169.6 291.3V291.3zM157.5 335.4C148.9 349.2 144 360.9 144 369C144 385.8 158 400 176 400C193.1 400 208 385.8 208 369C208 360.9 203.2 349.1 194.6 335.4C188.6 325.9 181.9 316.9 176 309.3C170.1 316.9 163.4 325.9 157.5 335.4H157.5zM335.6 224C326.8 224 319.6 216.8 319.6 208C319.6 199.2 326.8 192 335.6 192C344.5 192 351.6 199.2 351.6 208C351.6 216.8 344.5 224 335.6 224zM175.6 192C184.5 192 191.6 199.2 191.6 208C191.6 216.8 184.5 224 175.6 224C166.8 224 159.6 216.8 159.6 208C159.6 199.2 166.8 192 175.6 192zM374.4 387.2C377.1 390.8 376.3 395.8 372.8 398.4C369.2 401.1 364.2 400.3 361.6 396.8C332.9 358.4 295.8 336 256 336C251.6 336 248 332.4 248 328C248 323.6 251.6 320 256 320C302.3 320 343.7 346 374.4 387.2zM256 512C114.6 512 0 397.4 0 256C0 114.6 114.6 0 256 0C397.4 0 512 114.6 512 256C512 397.4 397.4 512 256 512zM496 256C496 123.5 388.5 16 256 16C123.5 16 16 123.5 16 256C16 388.5 123.5 496 256 496C388.5 496 496 388.5 496 256z"/></svg>