<svg xmlns="http://www.w3.org/2000/svg" viewBox="0 0 512 512"><!--! Font Awesome Pro 6.1.1 by @fontawesome - https://fontawesome.com License - https://fontawesome.com/license (Commercial License) Copyright 2022 Fonticons, Inc. --><path d="M384 128c35.38 0 64-28.62 64-64s-28.62-64-64-64s-64 28.62-64 64S348.6 128 384 128zM384 16c26.47 0 48 21.53 48 48S410.5 112 384 112S336 90.47 336 64S357.5 16 384 16zM256 240c30.95 0 56-25.05 56-56S286.1 128 256 128S200 153 200 184S225 240 256 240zM256 144c22.06 0 40 17.94 40 40S278.1 224 256 224S216 206.1 216 184S233.9 144 256 144zM168 496c-8.812 0-16-7.172-16-16v-112H16.01l51.54-180.4C69.5 180.8 75.83 176 82.94 176h90.13c1.625 0 2.902 1.016 4.402 1.482C178.5 171.9 180 166.6 182.1 161.5C179.2 160.6 176.2 160 173.1 160H82.94C68.65 160 56.09 169.5 52.17 183.2l-51.54 180.4C-2.297 373.8 5.379 384 16.01 384H56v96c0 17.64 14.34 32 32 32s32-14.36 32-32v-96h16v96c0 17.64 14.34 32 32 32c6.746 0 12.64-2.609 17.77-6.234l-11.23-11.23C172.5 495.4 170.3 496 168 496zM104 480c0 8.828-7.188 16-16 16s-16-7.172-16-16v-96h32V480zM128 128c35.38 0 64-28.62 64-64S163.4 0 128 0S64 28.62 64 64S92.63 128 128 128zM128 16c26.47 0 48 21.53 48 48S154.5 112 128 112S80 90.47 80 64S101.5 16 128 16zM511.4 363.6L459.8 183.2C455.9 169.5 443.4 160 429.1 160h-90.13c-3.141 0-6.143 .6289-9.043 1.49c2.105 5.084 3.617 10.45 4.641 15.99C336 177 337.3 176 338.9 176h90.13c7.105 0 13.43 4.771 15.38 11.6L495.1 368H360V480c0 8.828-7.188 16-16 16c-2.34 0-4.525-.5625-6.531-1.469l-11.23 11.23C331.4 509.4 337.3 512 344 512c17.66 0 32-14.36 32-32v-96h16v96c0 17.64 14.34 32 32 32s32-14.36 32-32v-96h39.99C506.6 384 514.3 373.8 511.4 363.6zM440 480c0 8.828-7.188 16-16 16s-16-7.172-16-16v-96h32V480zM336 384v-64c0-26.51-21.49-48-48-48H224c-26.51 0-48 21.49-48 48v64c0 17.67 14.33 32 32 32v64c0 17.67 14.33 32 32 32h32c17.67 0 32-14.33 32-32v-64C321.7 416 336 401.7 336 384zM288 480c0 8.822-7.178 16-16 16h-32C231.2 496 224 488.8 224 480v-64h64V480zM320 384c0 8.822-7.178 16-16 16h-96C199.2 400 192 392.8 192 384v-64c0-17.64 14.36-32 32-32h64c17.64 0 32 14.36 32 32V384z"/></svg>