<svg xmlns="http://www.w3.org/2000/svg" viewBox="0 0 512 512"><!--! Font Awesome Pro 6.1.1 by @fontawesome - https://fontawesome.com License - https://fontawesome.com/license (Commercial License) Copyright 2022 Fonticons, Inc. --><path d="M349.6 123.1c-23.22 0-45.2 3.031-65.53 9.031l10.75-107c.7656-7.063-1.719-14.03-6.813-19.06c-5.297-5.219-12.53-7.656-20.06-6.781C185.9 10.46 123.1 80.21 123.1 162.4c0 23.16 3.031 45.13 9.031 65.5L26.04 217.1C18.76 216.5 11.98 218.9 6.965 223.1C1.747 229.3-.7222 236.6 .1841 244c10.28 82.06 80.02 143.1 162.2 143.1c23.16 0 45.14-3.031 65.53-9.031l-10.75 106.1c-.7656 7.063 1.719 14 6.828 19.06C228.6 509.5 234.7 512 241 512c1 0 2-.0625 3-.1875c82.06-10.28 143.1-80.03 143.1-162.2c0-23.19-3.031-45.16-9.031-65.53l106.1 10.78c7.109 .5 14.06-1.75 19.09-6.844c5.219-5.281 7.688-12.56 6.781-20.03C501.5 185.9 431.8 123.1 349.6 123.1zM493.6 276.8c-.9219 .9375-2.906 2.438-6.047 2.125l-131.9-13.28l4.359 12c7.953 21.84 11.98 46.06 11.98 71.97c0 74.13-55.86 137.1-129.9 146.3c-2.297 .2813-5.016-.5313-6.828-2.344c-.9532-.9375-2.5-2.938-2.172-5.969l13.27-131.1l-11.97 4.344c-21.89 7.969-46.11 12-71.99 12c-74.13 0-137-55.88-146.3-129.9c-.3125-2.563 .5313-5.031 2.297-6.844c.9375-.9375 2.781-2.406 6.031-2.125l131.1 13.22l-4.359-11.97C144 212.5 139.1 188.3 139.1 162.4c0-74.13 55.86-137.1 129.9-146.3c2.484-.2813 5.047 .5313 6.844 2.313c.9532 .9375 2.484 2.938 2.156 6l-13.27 131.1l11.97-4.344c21.81-7.969 46.03-12 71.99-12c74.13 0 137 55.88 146.3 129.9C496.3 272.5 495.4 274.1 493.6 276.8zM256 215.1c-22.06 0-40 17.94-40 40S233.9 295.1 256 295.1s40-17.94 40-40S278.1 215.1 256 215.1zM256 280c-13.23 0-24-10.78-24-24s10.77-24 24-24s24 10.78 24 24S269.2 280 256 280z"/></svg>