<svg xmlns="http://www.w3.org/2000/svg" viewBox="0 0 384 512"><!--! Font Awesome Pro 6.0.0-beta3 by @fontawesome - https://fontawesome.com License - https://fontawesome.com/license (Commercial License) Copyright 2021 Fonticons, Inc. --><path d="M374.6 150.6l-141.3-141.3C227.4 3.371 219.2 0 210.7 0H64C28.65 0 0 28.65 0 64l.0065 384c0 35.34 28.65 64 64 64H320c35.35 0 64-28.66 64-64V173.3C384 164.8 380.6 156.6 374.6 150.6zM224 22.63L361.4 160H248C234.8 160 224 149.2 224 136V22.63zM368 448c0 26.47-21.53 48-48 48H64c-26.47 0-48-21.53-48-48V64c0-26.47 21.53-48 48-48h144v120c0 22.06 17.94 40 40 40h120V448zM176 208c-53.02 0-96 42.98-96 96s42.98 96 96 96c23.62 0 44.96-8.859 61.68-23l68.66 68.66C307.9 447.2 309.9 448 312 448s4.094-.7813 5.656-2.344c3.125-3.125 3.125-8.188 0-11.31l-68.66-68.66C263.1 348.1 272 327.6 272 304C272 250.1 229 208 176 208zM176 384C131.9 384 96 348.1 96 304S131.9 224 176 224S256 259.9 256 304S220.1 384 176 384z"/></svg>