<svg xmlns="http://www.w3.org/2000/svg" viewBox="0 0 512 512"><!--! Font Awesome Pro 6.1.1 by @fontawesome - https://fontawesome.com License - https://fontawesome.com/license (Commercial License) Copyright 2022 Fonticons, Inc. --><path d="M263.5 402.3c-3.125 3.125-3.125 8.188 0 11.31s8.188 3.125 11.31 0l106.8-106.8c3.125-3.125 3.125-8.188 0-11.31l-108-108C272.1 185.1 270.1 185.2 268 185.2s-4.094 .7813-5.656 2.344c-3.125 3.125-3.125 8.188 0 11.31l94.34 94.34H8c-4.406 0-8 3.578-8 8s3.594 8 8 8h348.7L263.5 402.3zM502.6 150.6l-141.3-141.2C355.4 3.371 347.2 0 338.7 0H192C156.7 0 128 28.65 128 64v184C128 252.4 131.6 256 136 256S144 252.4 144 248V64c0-26.51 21.49-48 48-48h144v120c0 22.09 17.91 40 40 40h120V448c0 26.51-21.49 48-48 48H192c-26.51 0-48-21.49-48-48v-88C144 355.6 140.4 352 136 352S128 355.6 128 360L128 448c0 35.34 28.66 64 64 64H448c35.35 0 64-28.66 64-64V173.3C512 164.8 508.6 156.6 502.6 150.6zM376 160C362.8 160 352 149.2 352 136V22.63L489.4 160H376z"/></svg>