<svg xmlns="http://www.w3.org/2000/svg" viewBox="0 0 384 512"><!--! Font Awesome Pro 6.0.0-beta3 by @fontawesome - https://fontawesome.com License - https://fontawesome.com/license (Commercial License) Copyright 2021 Fonticons, Inc. --><path d="M374.6 150.6l-141.3-141.3C227.4 3.371 219.2 0 210.7 0H64C28.65 0 0 28.65 0 64l.0065 384c0 35.34 28.65 64 64 64H320c35.35 0 64-28.66 64-64V173.3C384 164.8 380.6 156.6 374.6 150.6zM224 22.63L361.4 160H248C234.8 160 224 149.2 224 136V22.63zM368 448c0 26.47-21.53 48-48 48H64c-26.47 0-48-21.53-48-48V64c0-26.47 21.53-48 48-48h144v120c0 22.06 17.94 40 40 40h120V448zM104 288h16C124.4 288 128 284.4 128 280S124.4 272 120 272h-16C81.94 272 64 289.9 64 312v48c0 22.06 17.94 40 40 40h16C124.4 400 128 396.4 128 392S124.4 384 120 384h-16c-13.23 0-24-10.78-24-24v-48C80 298.8 90.77 288 104 288zM201.1 334.2l-30.3-11.38C164.7 320.2 160 313.5 160 306C160 296.1 168.1 288 177.1 288H208c4.422 0 8-3.594 8-8S212.4 272 208 272H177.1C159.3 272 144 287.3 144 306c0 14.09 8.859 26.87 22.05 31.81l30.3 11.38C203.3 351.8 208 358.5 208 366C208 375.9 199.9 384 190 384H160c-4.422 0-8 3.594-8 8S155.6 400 160 400h30.02C208.8 400 224 384.8 224 366C224 351.9 215.1 339.1 201.1 334.2zM240 280v25.25c0 26.94 7.906 53 22.84 75.44l10.5 15.75C274.8 398.7 277.3 400 280 400s5.172-1.344 6.656-3.562l10.5-15.75C312.1 358.3 320 332.2 320 305.3V280c0-4.406-3.578-8-8-8S304 275.6 304 280v25.25c0 23.75-6.969 46.78-20.16 66.56L280 377.6l-3.844-5.75C262.1 352 256 329 256 305.3V280c0-4.406-3.578-8-8-8S240 275.6 240 280z"/></svg>