<svg xmlns="http://www.w3.org/2000/svg" viewBox="0 0 384 512"><!--! Font Awesome Pro 6.0.0-beta3 by @fontawesome - https://fontawesome.com License - https://fontawesome.com/license (Commercial License) Copyright 2021 Fonticons, Inc. --><path d="M374.6 150.6l-141.3-141.3C227.4 3.371 219.2 0 210.7 0H64C28.65 0 0 28.65 0 64l.0065 384c0 35.34 28.65 64 64 64H320c35.35 0 64-28.66 64-64V173.3C384 164.8 380.6 156.6 374.6 150.6zM224 22.63L361.4 160H248C234.8 160 224 149.2 224 136V22.63zM368 448c0 26.47-21.53 48-48 48H64c-26.47 0-48-21.53-48-48V64c0-26.47 21.53-48 48-48h144v120c0 22.06 17.94 40 40 40h120V448zM160 352c-44.18 0-80 35.82-80 80C80 440.8 87.16 448 96 448h192c8.836 0 16-7.164 16-16c0-44.18-35.82-80-80-80H160zM288 432H96c0-35.29 28.71-64 64-64h64C259.3 368 288 396.7 288 432zM192 192C156.7 192 128 220.7 128 256s28.66 64 64 64c35.35 0 64-28.66 64-64S227.3 192 192 192zM192 304C165.5 304 144 282.5 144 256S165.5 208 192 208s48 21.53 48 48S218.5 304 192 304z"/></svg>