<svg xmlns="http://www.w3.org/2000/svg" viewBox="0 0 384 512"><!--! Font Awesome Pro 6.1.1 by @fontawesome - https://fontawesome.com License - https://fontawesome.com/license (Commercial License) Copyright 2022 Fonticons, Inc. --><path d="M374.6 150.6l-141.3-141.3C227.4 3.371 219.2 0 210.7 0H64C28.65 0 0 28.65 0 64l.0065 384c0 35.34 28.65 64 64 64H320c35.35 0 64-28.66 64-64V173.3C384 164.8 380.6 156.6 374.6 150.6zM224 22.63L361.4 160H248C234.8 160 224 149.2 224 136V22.63zM368 448c0 26.47-21.53 48-48 48H64c-26.47 0-48-21.53-48-48V64c0-26.47 21.53-48 48-48h144v120c0 22.06 17.94 40 40 40h120V448zM112 352h-32C71.16 352 64 359.2 64 368v64C64 440.8 71.16 448 80 448h32C120.8 448 128 440.8 128 432v-64C128 359.2 120.8 352 112 352zM112 432h-32v-64h32V432zM208 224h-32C167.2 224 160 231.2 160 240v192C160 440.8 167.2 448 176 448h32c8.838 0 16-7.164 16-16v-192C224 231.2 216.8 224 208 224zM208 432h-32v-192h32V432zM272 448h32c8.838 0 16-7.164 16-16v-128C320 295.2 312.8 288 304 288h-32C263.2 288 256 295.2 256 304v128C256 440.8 263.2 448 272 448zM272 304h32v128h-32V304z"/></svg>