<svg xmlns="http://www.w3.org/2000/svg" viewBox="0 0 384 512"><!--! Font Awesome Pro 6.0.0-beta3 by @fontawesome - https://fontawesome.com License - https://fontawesome.com/license (Commercial License) Copyright 2021 Fonticons, Inc. --><path d="M374.6 150.6l-141.3-141.3C227.4 3.371 219.2 0 210.7 0H64C28.65 0 0 28.65 0 64l.0065 384c0 35.34 28.65 64 64 64H320c35.35 0 64-28.66 64-64V173.3C384 164.8 380.6 156.6 374.6 150.6zM224 22.63L361.4 160H248C234.8 160 224 149.2 224 136V22.63zM368 448c0 26.47-21.53 48-48 48H64c-26.47 0-48-21.53-48-48V64c0-26.47 21.53-48 48-48h144v120c0 22.06 17.94 40 40 40h120V448zM93.85 376.1l-1.951 3.648l-11.76 58.95C79.18 444.4 82.1 448 87.18 448c.4551 0 .7866-.0498 1.244-.1396l58.95-11.76l3.656-1.957l143.4-143.4c12.76-12.76 12.76-33.44 .0039-46.2l-10.97-10.98C277.1 227.2 268.7 224 260.4 224c-8.357 0-16.71 3.188-23.1 9.566L93.85 376.1zM141.4 420.6l-42.58 8.516l8.514-42.58l104.1-104.1l34.07 34.08L141.4 420.6zM260.4 240.3c4.363 0 8.471 1.699 11.55 4.785l10.98 10.98c3.082 3.086 4.781 7.188 4.781 11.55s-1.703 8.465-4.785 11.55L257.1 304.1l-34.07-34.08L248.8 245.1C251.9 242 256 240.3 260.4 240.3z"/></svg>