<svg xmlns="http://www.w3.org/2000/svg" viewBox="0 0 576 512"><!--! Font Awesome Pro 6.0.0-beta3 by @fontawesome - https://fontawesome.com License - https://fontawesome.com/license (Commercial License) Copyright 2021 Fonticons, Inc. --><path d="M567.2 142.4l-37.56-37.56c-5.859-5.859-13.54-8.789-21.23-8.789s-15.37 2.93-21.23 8.789L275.4 316.6c-1.396 1.395-2.348 3.172-2.738 5.109L256.1 400H243.3l-24-24c-6.031-6.062-16.59-6.062-22.62 0l-17.89 17.91l-28.02-67.25c-5-12-24.56-12-29.56 0L90.67 400H72C67.58 400 64 403.6 64 408S67.58 416 72 416H96c3.234 0 6.141-1.938 7.391-4.938L136 332.8l32.61 78.28c2.191 5.25 8.975 6.625 13.05 2.594L208 387.3l26.34 26.34C235.8 415.2 237.9 416 240 416c0 0 27.27-.0664 27.95-.2031l82.32-16.46c1.938-.3906 3.715-1.34 5.111-2.734l211.8-211.8C578.9 173.1 578.9 154.1 567.2 142.4zM345.4 384l-71.74 14.45l14.36-71.82l157.7-157.7l57.38 57.38L345.4 384zM555.9 173.5l-41.55 41.54l-57.38-57.38l41.54-41.54c5.471-5.469 14.35-5.477 19.83 0l37.56 37.56C561.4 159.1 561.4 168 555.9 173.5zM376 432c-4.418 0-8 3.582-8 8V448c0 26.51-21.49 48-48 48H64c-26.51 0-48-21.49-48-48V64c0-26.51 21.49-48 48-48h144v120c0 22.09 17.91 40 40 40h133.3C382.8 176 384 174.8 384 173.3c0-8.488-3.373-16.63-9.375-22.63L233.4 9.367C227.4 3.367 219.2 0 210.7 0H63.93C28.58 0 0 28.65 0 64l.0065 384c0 35.34 28.58 64 63.93 64H320c35.35 0 64-28.66 64-64v-8C384 435.6 380.4 432 376 432zM224 22.63L361.4 160H248C234.8 160 224 149.2 224 136V22.63z"/></svg>