<svg xmlns="http://www.w3.org/2000/svg" viewBox="0 0 576 512"><!--! Font Awesome Pro 6.1.1 by @fontawesome - https://fontawesome.com License - https://fontawesome.com/license (Commercial License) Copyright 2022 Fonticons, Inc. --><path d="M104 224C108.4 224 112 220.4 112 216V64c0-26.51 21.49-48 48-48h144v120c0 22.09 17.91 40 40 40h120v40C464 220.4 467.6 224 472 224S480 220.4 480 216V173.3c0-8.488-3.373-16.63-9.375-22.63l-141.3-141.2C323.4 3.373 315.2 0 306.7 0H160C124.7 0 96 28.65 96 64v152C96 220.4 99.58 224 104 224zM320 22.63L457.4 160H344C330.8 160 320 149.2 320 136V22.63zM472 352c-4.418 0-8 3.582-8 8V448c0 26.51-21.49 48-48 48H160c-26.51 0-48-21.49-48-48v-88C112 355.6 108.4 352 104 352S96 355.6 96 360L96.01 448c0 35.35 28.65 64 64 64H416c35.35 0 64-28.65 64-64v-88C480 355.6 476.4 352 472 352zM160 288c0-4.422-3.594-8-8-8h-144C3.594 280 0 283.6 0 288s3.594 8 8 8h144C156.4 296 160 292.4 160 288zM232 280C227.6 280 224 283.6 224 288s3.594 8 8 8h112C348.4 296 352 292.4 352 288s-3.594-8-8-8H232zM568 280h-144C419.6 280 416 283.6 416 288s3.594 8 8 8h144C572.4 296 576 292.4 576 288S572.4 280 568 280z"/></svg>