<svg xmlns="http://www.w3.org/2000/svg" viewBox="0 0 576 512"><!--! Font Awesome Pro 6.0.0-beta3 by @fontawesome - https://fontawesome.com License - https://fontawesome.com/license (Commercial License) Copyright 2021 Fonticons, Inc. --><path d="M573.7 298.9l-108-108C464.1 189.4 462.1 188.6 460 188.6s-4.094 .7813-5.656 2.344c-3.125 3.125-3.125 8.188 0 11.31l94.34 94.34H200c-4.406 0-8 3.578-8 8s3.594 8 8 8h348.7l-93.17 93.17c-3.125 3.125-3.125 8.188 0 11.31s8.188 3.125 11.31 0l106.8-106.8C576.8 307.1 576.8 302.1 573.7 298.9zM376 352c-4.418 0-8 3.582-8 8V448c0 26.51-21.49 48-48 48H64c-26.51 0-48-21.49-48-48V64c0-26.51 21.49-48 48-48h144v120c0 22.09 17.91 40 40 40h120v72C368 252.4 371.6 256 376 256S384 252.4 384 248V173.3c0-8.488-3.373-16.63-9.375-22.63L233.4 9.375C227.4 3.371 219.2 0 210.7 0H63.1C28.65 0 0 28.65 0 64l.0065 384c0 35.34 28.66 64 64 64H320c35.35 0 64-28.66 64-64v-88C384 355.6 380.4 352 376 352zM224 22.63L361.4 160H248C234.8 160 224 149.2 224 136V22.63z"/></svg>