<svg xmlns="http://www.w3.org/2000/svg" viewBox="0 0 384 512"><!--! Font Awesome Pro 6.1.1 by @fontawesome - https://fontawesome.com License - https://fontawesome.com/license (Commercial License) Copyright 2022 Fonticons, Inc. --><path d="M72 80h80C156.4 80 160 76.41 160 72S156.4 64 152 64h-80C67.59 64 64 67.59 64 72S67.59 80 72 80zM72 144h80C156.4 144 160 140.4 160 136S156.4 128 152 128h-80C67.59 128 64 131.6 64 136S67.59 144 72 144zM374.6 150.6l-141.3-141.3C227.4 3.371 219.2 0 210.7 0H64C28.65 0 0 28.65 0 64l.0065 384c0 35.34 28.65 64 64 64H320c35.35 0 64-28.66 64-64V173.3C384 164.8 380.6 156.6 374.6 150.6zM224 22.63L361.4 160H248C234.8 160 224 149.2 224 136V22.63zM368 448c0 26.47-21.53 48-48 48H64c-26.47 0-48-21.53-48-48V64c0-26.47 21.53-48 48-48h144v120c0 22.06 17.94 40 40 40h120V448zM312 432h-80c-4.406 0-8 3.594-8 8S227.6 448 232 448h80c4.406 0 8-3.594 8-8S316.4 432 312 432zM64 240v96C64 344.8 71.16 352 80 352h224c8.836 0 16-7.164 16-16v-96C320 231.2 312.8 224 304 224h-224C71.16 224 64 231.2 64 240zM304 336h-224v-96h224V336z"/></svg>