<svg xmlns="http://www.w3.org/2000/svg" viewBox="0 0 384 512"><!--! Font Awesome Pro 6.0.0-beta3 by @fontawesome - https://fontawesome.com License - https://fontawesome.com/license (Commercial License) Copyright 2021 Fonticons, Inc. --><path d="M374.6 150.6l-141.3-141.3C227.4 3.371 219.2 0 210.8 0H64C28.66 0 0 28.65 0 64l.0065 384c0 35.34 28.66 64 64 64H320c35.35 0 64-28.66 64-64V173.3C384 164.8 380.6 156.6 374.6 150.6zM224 22.63L361.4 160H248C234.8 160 224 149.2 224 136V22.63zM368 448c0 26.47-21.53 48-48 48H64c-26.47 0-48-21.53-48-48V64c0-26.47 21.53-48 48-48h144v120c0 22.06 17.94 40 40 40h120V448zM200 232C200 227.6 196.4 224 192 224C187.6 224 184 227.6 184 232v80h-80C99.58 312 96 315.6 96 320c0 4.422 3.578 8 8 8h80v80C184 412.4 187.6 416 192 416s8-3.58 8-8v-80h80c4.422 0 8-3.58 8-8s-3.578-8-8-8h-80V232z"/></svg>