<svg xmlns="http://www.w3.org/2000/svg" viewBox="0 0 576 512"><!--! Font Awesome Pro 6.0.0-beta3 by @fontawesome - https://fontawesome.com License - https://fontawesome.com/license (Commercial License) Copyright 2021 Fonticons, Inc. --><path d="M502.6 216.6L294.1 9.371C288.7 3.134 280.5 0 272.3 0S255.1 3.134 249.7 9.371L151.2 107.7L45.66 2.339c-3.125-3.119-8.188-3.119-11.31 0s-3.125 8.171 0 11.29l105.5 105.3L28.13 230.5c-37.5 37.41-37.5 98.06 0 135.5l117.2 116.1c18.75 18.7 43.31 28.07 67.88 28.07s49.13-9.357 67.88-28.07l221.6-221.1C515.1 249.3 515.1 229.1 502.6 216.6zM269.8 471.6c-15.12 15.08-35.2 23.39-56.56 23.39c-21.35 0-41.44-8.312-56.56-23.39l-117.2-116.1c-13.87-13.85-21.68-31.94-22.93-51.29h421.8L269.8 471.6zM491.3 250.5l-37 36.93H17.06c2.332-17.2 9.863-33.16 22.38-45.64l111.8-111.5l91.15 90.97C243.9 222.8 245.9 223.6 248 223.6s4.094-.7797 5.656-2.339c3.125-3.119 3.125-8.171 0-11.29L162.5 118.1L261 20.65c3.023-3.017 7.043-4.678 11.31-4.678s8.289 1.661 11.31 4.678l207.7 207.3C494.3 230.9 496 234.1 496 239.2C496 243.5 494.3 247.5 491.3 250.5zM512 320.4c0 0-64 92.34-64 127.6S476.6 512 512 512s64-28.67 64-63.97S512 320.4 512 320.4zM512 496c-26.47 0-48-21.49-48-47.91c0-17.46 24.97-62.97 48-98.88c23.03 35.91 48 81.42 48 98.88C560 474.5 538.5 496 512 496z"/></svg>