<svg xmlns="http://www.w3.org/2000/svg" viewBox="0 0 512 512"><!--! Font Awesome Pro 6.0.0-beta3 by @fontawesome - https://fontawesome.com License - https://fontawesome.com/license (Commercial License) Copyright 2021 Fonticons, Inc. --><path d="M463.1 32h-416C21.49 32-.0001 53.49-.0001 80v352c0 26.51 21.49 48 47.1 48h416c26.51 0 48-21.49 48-48v-352C511.1 53.49 490.5 32 463.1 32zM112 464h-64c-17.64 0-32-14.36-32-32v-24h95.1L112 464zM112 392h-96v-80h96V392zM112 296h-96v-80h96V296zM112 200h-96v-80h96V200zM111.1 104H16V80c0-17.64 14.36-32 32-32h64L111.1 104zM384 464H128V264h256V464zM384 248H128V48h256V248zM496 432c0 17.64-14.36 32-32 32h-64l-.0001-56H496V432zM496 392h-96v-80h96V392zM496 296h-96v-80h96V296zM496 200h-96v-80h96V200zM496 104h-96L400 48h64c17.64 0 32 14.36 32 32V104z"/></svg>