<svg xmlns="http://www.w3.org/2000/svg" viewBox="0 0 576 512"><!--! Font Awesome Pro 6.0.0-beta3 by @fontawesome - https://fontawesome.com License - https://fontawesome.com/license (Commercial License) Copyright 2021 Fonticons, Inc. --><path d="M488.5 311.5c-3.125-3.125-8.152-3.17-11.28-.0453L432 356.7l-45.25-45.26c-3.125-3.125-8.152-3.083-11.28 .0422s-3.161 8.145-.0359 11.27L420.7 368l-45.25 45.26c-3.125 3.125-3.086 8.145 .0391 11.27c1.562 1.562 3.555 2.386 5.617 2.386s4.094-.7813 5.656-2.344L432 379.3l45.25 45.26c1.562 1.562 3.594 2.344 5.656 2.344s4.055-.8266 5.617-2.389c3.125-3.125 3.164-8.142 .0391-11.27L443.3 368l45.25-45.26C491.7 319.6 491.7 314.6 488.5 311.5zM432 224C352.5 224 288 288.5 288 368s64.47 144 144 144s144-64.47 144-144S511.5 224 432 224zM432 496c-70.58 0-128-57.42-128-128s57.42-128 128-128s128 57.42 128 128S502.6 496 432 496zM211.4 374.5C209.3 373 208 370.6 208 368V269.1L19.69 41.97c-5.723-6.902-3.418-13.87-2.16-16.55C20.3 19.52 25.98 16 32.7 16h446.6c6.727 0 12.4 3.523 15.17 9.426c1.258 2.676 3.562 9.645-2.16 16.54l-113.3 136.6c-3.289 3.965-2.027 9.957 2.58 12.26c3.326 1.662 7.361 .8125 9.734-2.049l113.3-136.6C521.1 31.28 506.8 0 479.3 0H32.7C5.209 0-9.965 31.28 7.375 52.19L192 274.8V368c0 7.828 3.812 15.17 10.25 19.66l41.16 28.81C248.7 420.2 256 416.4 256 409.9c0-2.611-1.275-5.059-3.414-6.555L211.4 374.5z"/></svg>