<svg xmlns="http://www.w3.org/2000/svg" viewBox="0 0 640 512"><!--! Font Awesome Pro 6.0.0-beta3 by @fontawesome - https://fontawesome.com License - https://fontawesome.com/license (Commercial License) Copyright 2021 Fonticons, Inc. --><path d="M368 455.1c0 5.527-4.734 8.014-8.094 8.014c-1.582 0-3.09-.4922-4.484-1.467l-80.03-56C273.3 405 272 402.6 272 400V309.8L256 297.3V400c0 7.828 3.812 15.17 10.25 19.66l80 55.98C350.5 478.6 355.3 480 359.9 480C372.3 480 384 470.2 384 455.1v-57.13l-16-12.72V455.1zM543.3 48c6.727 0 12.4 3.523 15.17 9.426c1.258 2.676 3.562 9.645-2.16 16.54l-138.9 167.5l12.53 9.959l138.7-167.2C585.1 63.28 570.8 32 543.3 32H153.9l20.13 16H543.3zM636.1 497.7L12.99 1.73C11.53 .5664 9.771 0 8.025 0C5.674 0 3.336 1.029 1.738 3.012c-2.75 3.469-2.172 8.5 1.281 11.25l623.1 496C628.5 511.4 630.2 512 631.1 512c2.344 0 4.688-1.031 6.266-3.016C641 505.5 640.4 500.5 636.1 497.7z"/></svg>