<svg xmlns="http://www.w3.org/2000/svg" viewBox="0 0 640 512"><!--! Font Awesome Pro 6.1.1 by @fontawesome - https://fontawesome.com License - https://fontawesome.com/license (Commercial License) Copyright 2022 Fonticons, Inc. --><path d="M636.1 497.7C640.4 500.5 641 505.5 638.3 508.1C635.5 512.4 630.5 513 627 510.3L3.022 14.26C-.4365 11.51-1.012 6.481 1.738 3.022C4.487-.4365 9.52-1.012 12.98 1.738L636.1 497.7zM567.8 93.11L436.1 256.6L424.4 246.7L555.3 83.11C558.3 79.28 560 74.52 560 69.61C560 57.68 550.3 48 538.4 48H172.7L152.5 32H538.4C559.2 32 576 48.84 576 69.61C576 78.15 573.1 86.44 567.8 93.11H567.8zM368 385.6L384 398.3V453.9C384 468.3 372.3 480 357.9 480C352.4 480 346.1 478.3 342.5 475L272.5 424.1C262.1 416.5 255.1 404.5 255.1 391.7V297.2L271.1 309.8V391.7C271.1 399.4 275.7 406.6 281.9 411.1L351.9 462.1C353.7 463.3 355.8 464 357.9 464C363.5 464 368 459.5 368 453.9V385.6z"/></svg>