<svg xmlns="http://www.w3.org/2000/svg" viewBox="0 0 384 512"><!--! Font Awesome Pro 6.0.0-beta3 by @fontawesome - https://fontawesome.com License - https://fontawesome.com/license (Commercial License) Copyright 2021 Fonticons, Inc. --><path d="M197.4 2.086c-3.062-2.781-7.719-2.781-10.78 0C73.25 105.4 0 222 0 299.1C0 424.5 78.95 512 192 512s192-87.55 192-212.9C384 222.1 310.8 105.5 197.4 2.086zM104 391.6c0-37.14 35.13-96.16 88-148.5c52.88 52.36 88 111.4 88 148.5c0 61.44-36.19 104.4-88 104.4S104 453.1 104 391.6zM264.1 481.1C284.1 459.8 296 428.8 296 391.6c0-43.11-38.66-108-98.47-165.4c-3.094-2.969-7.969-2.969-11.06 0C126.7 283.5 88 348.5 88 391.6c0 37.12 11.95 68.11 31.93 89.46C56.36 452.7 16 385.7 16 299.1c0-70.49 70.48-182.5 176-280.2c105.5 97.85 176 209.8 176 280.2C368 385.7 327.6 452.7 264.1 481.1z"/></svg>