<svg xmlns="http://www.w3.org/2000/svg" viewBox="0 0 512 512"><!--! Font Awesome Pro 6.0.0-beta3 by @fontawesome - https://fontawesome.com License - https://fontawesome.com/license (Commercial License) Copyright 2021 Fonticons, Inc. --><path d="M384 288c-8.836 0-16 7.158-16 15.1c0 8.836 7.164 15.1 16 15.1s16-7.164 16-15.1C400 295.2 392.8 288 384 288zM421.5 460.6C446.8 435.6 480 393.5 480 344.4c0-81.05-88.07-136.4-96-136.4c-6.707 0-96 54.84-96 136.4c0 49.04 33.22 91.19 58.52 116.2l-16.25 27.2C328.8 490.3 327.1 493.2 327.1 495.1C327.1 504.5 334.9 512 344 512h80c9.26 0 16-7.572 16-16c0-2.842-.7563-5.682-2.266-8.207L421.5 460.6zM344 496l22.84-38.23C343.3 436.6 304 393.8 304 344.4c0-70.42 80-120.4 80-120.4s80 49.99 80 120.4c0 49.43-39.35 92.19-62.84 113.4L424 496H344zM320.1 16.02c18.89 0 55.89 14.66 55.89 56.02v87.97c0 4.406 3.594 7.1 8 7.1s8-3.594 8-7.1V72.04C392 19.11 345.4 0 320.2 0c-5.867 0-11.8 .7231-17.64 2.194L239.5 17.98C150.3 40.22 88 120 88 211.1v76.03L80 288c-26.51 0-48 21.49-48 47.1v127.1C32 490.5 53.49 512 80 512h32C138.5 512 160 490.5 160 464V336c0-26.51-21.49-47.1-48-47.1L104 288V211.1c0-84.59 57.31-157.1 139.4-178.5l63.03-15.78C310.1 16.57 315.6 16.02 320.1 16.02zM112 304c17.64 0 32 14.36 32 31.1v127.1c0 17.64-14.36 31.1-32 31.1h-32c-17.64 0-32-14.36-32-31.1v-127.1c0-17.64 14.36-31.1 32-31.1H112z"/></svg>