<svg xmlns="http://www.w3.org/2000/svg" viewBox="0 0 576 512"><!--! Font Awesome Pro 6.1.1 by @fontawesome - https://fontawesome.com License - https://fontawesome.com/license (Commercial License) Copyright 2022 Fonticons, Inc. --><path d="M384 256C384 238.3 398.3 224 416 224C433.7 224 448 238.3 448 256C448 273.7 433.7 288 416 288C398.3 288 384 273.7 384 256zM416 240C407.2 240 400 247.2 400 256C400 264.8 407.2 272 416 272C424.8 272 432 264.8 432 256C432 247.2 424.8 240 416 240zM180.5 370.5C164.3 356.7 150 341.9 137.8 327.3L48.12 379.6C35.61 386.9 19.76 384.9 9.474 374.7C-.8133 364.5-2.97 348.7 4.216 336.1L50 256L4.216 175.9C-2.97 163.3-.8133 147.5 9.474 137.3C19.76 127.1 35.61 125.1 48.12 132.4L137.8 184.7C150 170.1 164.3 155.3 180.5 141.5C219.7 108.5 272.6 80 336 80C399.4 80 452.3 108.5 491.5 141.5C530.5 174.5 558.3 213.1 572.4 241.3C577.2 250.5 577.2 261.5 572.4 270.7C558.3 298 530.5 337.5 491.5 370.5C452.3 403.5 399.4 432 336 432C272.6 432 219.7 403.5 180.5 370.5L180.5 370.5zM190.8 358.2C228.2 389.8 277.5 416 336 416C394.5 416 443.8 389.8 481.1 358.2C518.5 326.7 544.1 289 558.2 263.3C560.6 258.7 560.6 253.3 558.2 248.7C544.1 222.1 518.5 185.3 481.1 153.8C443.8 122.2 394.5 96 336 96C277.5 96 228.2 122.2 190.8 153.8C175.4 166.8 161.8 180.1 150.1 194.9L141.5 205.3L40.06 146.2C33.81 142.5 25.88 143.5 20.74 148.6C15.59 153.7 14.51 161.7 18.11 167.9L68.43 255.1L18.11 344.1C14.51 350.3 15.59 358.3 20.74 363.4C25.88 368.5 33.81 369.5 40.06 365.8L141.5 306.7L150.1 317.1C161.8 331 175.4 345.2 190.8 358.2L190.8 358.2z"/></svg>