<svg xmlns="http://www.w3.org/2000/svg" viewBox="0 0 576 512"><!--! Font Awesome Pro 6.1.1 by @fontawesome - https://fontawesome.com License - https://fontawesome.com/license (Commercial License) Copyright 2022 Fonticons, Inc. --><path d="M384 256C384 238.3 398.3 224 416 224C433.7 224 448 238.3 448 256C448 273.7 433.7 288 416 288C398.3 288 384 273.7 384 256zM416 240C407.2 240 400 247.2 400 256C400 264.8 407.2 272 416 272C424.8 272 432 264.8 432 256C432 247.2 424.8 240 416 240zM262.1 474.7C254.9 481.2 243.6 481.8 234.9 476.1C226.3 470.5 222.2 459.9 224.8 449.9L239.1 395.2C217.8 385.9 198.7 374.2 181.1 361.6C166.6 350.1 152.1 337.7 141.2 325.3L48.12 379.6C35.61 386.9 19.76 384.9 9.475 374.7C-.8124 364.5-2.969 348.7 4.217 336.1L50 256L4.217 175.9C-2.969 163.3-.8124 147.5 9.475 137.3C19.76 127.1 35.61 125.1 48.12 132.4L141.2 186.7C152.1 174.3 166.6 161.9 181.1 150.4C198.1 138.3 216.4 127 236.6 117.9L224.5 60.99C222.4 51.07 226.8 40.9 235.4 35.57C244 30.25 255.1 30.92 262.1 37.26L336.4 96C398.5 96.11 450.8 120.9 490 150.4C529.2 179.8 557.3 215.1 571.7 239.9C577.4 249.9 577.4 262.1 571.7 272.1C557.3 296.9 529.2 332.2 490 361.6C450.8 391.1 398.5 415.9 336.4 416L262.1 474.7zM191.6 163.2C177 174.1 164 185.9 152.8 197.7L144.1 206.9L40.06 146.2C33.81 142.5 25.88 143.5 20.74 148.6C15.59 153.7 14.51 161.7 18.11 167.9L68.43 256L18.11 344.1C14.51 350.3 15.59 358.3 20.74 363.4C25.88 368.5 33.81 369.5 40.06 365.8L144.1 305.1L152.8 314.3C164 326.1 177 337.9 191.6 348.8C207.5 360.7 225.6 371.8 245.5 380.6L258 386.1L240.3 453.1C239.4 457.3 240.8 460.8 243.6 462.7C246.5 464.6 250.3 464.4 252.1 462.2L330.8 400L336.4 400C394.1 399.9 443.1 376.8 480.4 348.8C517.8 320.8 544.4 287.1 557.8 264C560.7 259.1 560.7 252.9 557.8 247.1C544.4 224.9 517.8 191.2 480.4 163.2C443.1 135.2 394.1 112.1 336.4 111.1L330.8 111.1L252.1 49.75C250.4 47.64 246.7 47.42 243.8 49.19C240.9 50.97 239.5 54.36 240.2 57.66L254.9 127.2L243.2 132.5C224.1 141.1 206.9 151.7 191.6 163.2L191.6 163.2z"/></svg>