<svg xmlns="http://www.w3.org/2000/svg" viewBox="0 0 448 512"><!--! Font Awesome Pro 6.1.1 by @fontawesome - https://fontawesome.com License - https://fontawesome.com/license (Commercial License) Copyright 2022 Fonticons, Inc. --><path d="M436.3 395.1l-148.3-231.9V16h23.99c4.405 0 7.998-3.594 7.998-8S316.4 0 311.1 0H136C131.6 0 128 3.594 128 8S131.6 16 136 16h23.99v147.2l-148.4 232c-14.84 23.94-15.5 52.97-1.781 77.63C23.49 497.3 48.39 512 76.41 512h295.2c28.02 0 52.92-14.69 66.58-39.28C451.9 448 451.2 419 436.3 395.1zM176 167.8V16h95.98v151.8L369.3 320H78.7L176 167.8zM424.2 464.1C413.4 484.4 393.7 496 371.6 496H76.41c-22.15 0-41.8-11.59-52.58-31c-10.87-19.5-10.34-42.47 1.343-61.31L68.47 336h311.1l43.24 67.59C434.5 422.5 435 445.4 424.2 464.1z"/></svg>