<svg xmlns="http://www.w3.org/2000/svg" viewBox="0 0 640 512"><!--! Font Awesome Pro 6.1.1 by @fontawesome - https://fontawesome.com License - https://fontawesome.com/license (Commercial License) Copyright 2022 Fonticons, Inc. --><path d="M224 56V309.9L208 335.9V176H48V352C48 396.2 83.82 432 128 432C140 432 151.4 429.4 161.6 424.6C160.5 430.5 160 436.5 160 442.5C149.1 446.1 139.2 448 128 448C74.98 448 32 405 32 352V56C32 51.58 35.58 48 40 48C44.42 48 48 51.58 48 56V160H208V56C208 51.58 211.6 48 216 48C220.4 48 224 51.58 224 56zM0 8C0 3.582 3.582 0 8 0H248C252.4 0 256 3.582 256 8C256 12.42 252.4 16 248 16H8C3.582 16 0 12.42 0 8zM536 0C540.4 0 544 3.582 544 8C544 12.42 540.4 16 536 16H296C291.6 16 288 12.42 288 8C288 3.582 291.6 0 296 0H536zM352 224C352 225.6 351.5 227.2 350.6 228.6L287.3 320H544.7L481.4 228.6C480.5 227.2 480 225.6 480 224V56C480 51.58 483.6 48 488 48C492.4 48 496 51.58 496 56V221.5L573.6 333.6L576 336H575.3L628.8 413.4C636.1 423.9 640 436.4 640 449.1C640 483.9 611.9 512 577.1 512H254.9C220.1 512 191.1 483.9 191.1 449.1C191.1 436.4 195.9 423.9 203.2 413.4L256.7 336H255.1L258.4 333.6L336 221.5V56C336 51.58 339.6 48 344 48C348.4 48 352 51.58 352 56L352 224zM208 449.1C208 475 228.1 496 254.9 496H577.1C603 496 624 475 624 449.1C624 439.6 621.1 430.3 615.7 422.5L555.8 336H276.2L216.3 422.5C210.9 430.3 208 439.6 208 449.1H208z"/></svg>