<svg xmlns="http://www.w3.org/2000/svg" viewBox="0 0 576 512"><!--! Font Awesome Pro 6.1.1 by @fontawesome - https://fontawesome.com License - https://fontawesome.com/license (Commercial License) Copyright 2022 Fonticons, Inc. --><path d="M224 240c-48.53 0-88 39.47-88 88S175.5 416 224 416s88-39.47 88-88S272.5 240 224 240zM224 400c-39.69 0-72-32.3-72-72S184.3 256 224 256s72 32.3 72 72S263.7 400 224 400zM253.3 464H64c-26.47 0-48-21.53-48-48V96c0-26.47 21.53-48 48-48v104C64 174.1 81.94 192 104 192h176C302.1 192 320 174.1 320 152V56.09c2.619 1.74 5.074 3.738 7.312 5.977l90.63 90.63C427 161.8 432 173.8 432 186.6v44.8c0 4.422 3.594 8 8 8s8-3.578 8-8V186.6c0-17.09-6.656-33.16-18.75-45.25l-90.63-90.63C326.7 38.83 310.3 32 293.4 32H64C28.72 32 0 60.7 0 96v320c0 35.3 28.72 64 64 64h189.3c4.406 0 8-3.578 8-8S257.7 464 253.3 464zM80 48h213.4C296.1 48 300.5 48.52 304 49.32V152c0 13.23-10.78 24-24 24h-176C90.78 176 80 165.2 80 152V48zM565.5 255.7l-21.1-21.11c-7.029-7.029-16.24-10.54-25.46-10.54s-18.43 3.51-25.45 10.54l-186.1 186.1c-2.514 2.512-4.227 5.715-4.924 9.203l-14.28 71.41C287 506.9 291.5 512 296.1 512c.5898 0 1.189-.0645 1.797-.1855l71.42-14.29c3.482-.6992 6.682-2.406 9.195-4.922l186.1-186C579.5 292.5 579.5 269.7 565.5 255.7zM367.1 481.8l-61.1 12.34l12.74-62.26l130.1-130.1l49.31 49.31L367.1 481.8zM554.1 295.3l-43.85 43.73l-49.33-49.33l43.79-43.79c3.777-3.777 8.797-5.857 14.14-5.857s10.36 2.08 14.14 5.857l21.1 21.11C557.9 270.7 560 275.8 560 281.1S557.9 291.5 554.1 295.3z"/></svg>