<svg xmlns="http://www.w3.org/2000/svg" viewBox="0 0 576 512"><!--! Font Awesome Pro 6.1.1 by @fontawesome - https://fontawesome.com License - https://fontawesome.com/license (Commercial License) Copyright 2022 Fonticons, Inc. --><path d="M488.5 311.5c-3.125-3.125-8.152-3.17-11.28-.0453L432 356.7l-45.25-45.26c-3.125-3.125-8.152-3.083-11.28 .0422s-3.161 8.145-.0359 11.27L420.7 368l-45.25 45.26c-3.125 3.125-3.086 8.145 .0391 11.27c3.127 3.127 8.146 3.169 11.27 .0422L432 379.3l45.25 45.26c3.127 3.127 8.146 3.082 11.27-.0453c3.125-3.125 3.164-8.142 .0391-11.27L443.3 368l45.25-45.26C491.7 319.6 491.7 314.6 488.5 311.5zM432 224C352.5 224 288 288.5 288 368s64.47 144 144 144s144-64.47 144-144S511.5 224 432 224zM432 496c-70.58 0-128-57.42-128-128s57.42-128 128-128s128 57.42 128 128S502.6 496 432 496zM280 464H64c-26.47 0-48-21.53-48-48V96c0-26.47 21.53-48 48-48v104C64 174.1 81.94 192 104 192h176C302.1 192 320 174.1 320 152V56.57c3.201 2.062 6.242 4.408 9 7.162l87.28 87.28c7.312 7.312 12.31 16.55 14.53 26.69C431.6 181.4 434.9 184 438.6 184c.5625 0 1.125-.0625 1.688-.1875c4.312-.9375 7.062-5.188 6.125-9.516c-2.844-13.14-9.375-25.09-18.84-34.59l-87.28-87.28C327.1 39.25 309.6 32 291 32H64C28.65 32 0 60.65 0 96v320c0 35.35 28.65 64 64 64h216C284.4 480 288 476.4 288 472S284.4 464 280 464zM80 48h211c4.459 0 8.777 .7207 13 1.771V152c0 13.23-10.78 24-24 24h-176C90.78 176 80 165.2 80 152V48zM224 256c15.72 0 30.66 4.984 43.19 14.39c3.531 2.688 8.531 1.938 11.22-1.578C281.1 265.3 280.3 260.3 276.8 257.6C261.5 246.1 243.2 240 224 240c-48.53 0-88 39.47-88 88S175.5 416 224 416c12.22 0 24.06-2.469 35.19-7.328c4.062-1.766 5.906-6.484 4.156-10.53c-1.781-4.031-6.5-5.875-10.53-4.125C243.7 397.1 233.1 400 224 400c-39.69 0-72-32.3-72-72S184.3 256 224 256z"/></svg>