<svg xmlns="http://www.w3.org/2000/svg" viewBox="0 0 512 512"><!--! Font Awesome Pro 6.0.0-beta3 by @fontawesome - https://fontawesome.com License - https://fontawesome.com/license (Commercial License) Copyright 2021 Fonticons, Inc. --><path d="M464 96h-192L217.4 41.38C211.4 35.37 203.2 32 194.7 32H48C21.49 32 0 53.49 0 80v352C0 458.5 21.49 480 48 480h416c26.51 0 48-21.49 48-48v-288C512 117.5 490.5 96 464 96zM496 432c0 17.67-14.33 32-32 32h-416c-17.67 0-32-14.33-32-32v-352c0-17.67 14.33-32 32-32h140.1c8.484 0 16.62 3.371 22.62 9.371L265.4 112H464c17.67 0 32 14.33 32 32V432zM313.3 218.7c-8.938-13.38-31-13.38-39.94 0L217 303.3l-15.59-21.39c-9.062-12.34-29.75-12.34-38.81 0l-70 96.02c-5.344 7.359-6.094 16.94-1.969 24.98C94.72 410.1 102.9 416 112 416h288c8.844 0 16.94-4.844 21.12-12.66c4.219-7.812 3.781-17.27-1.156-24.66L313.3 218.7zM407.1 395.8C405.7 398.3 402.9 400 400 400h-288c-3.031 0-5.75-1.672-7.125-4.391c-1.375-2.688-1.125-5.875 .6562-8.312l70-96C177.1 289.2 179.4 288 181.1 288c2.594 0 4.938 1.203 6.469 3.297l29.09 39.92l69.13-103.7c3-4.469 10.31-4.469 13.31 0l106.7 160C408.3 390 408.5 393.2 407.1 395.8zM128 248c22.06 0 40-17.94 40-40S150.1 168 128 168S88 185.9 88 208S105.9 248 128 248zM128 184c13.22 0 24 10.77 24 24S141.2 232 128 232S104 221.2 104 208S114.8 184 128 184z"/></svg>