<svg xmlns="http://www.w3.org/2000/svg" viewBox="0 0 512 512"><!--! Font Awesome Pro 6.0.0-beta3 by @fontawesome - https://fontawesome.com License - https://fontawesome.com/license (Commercial License) Copyright 2021 Fonticons, Inc. --><path d="M464 96h-192L217.4 41.38C211.4 35.37 203.2 32 194.7 32H48C21.49 32 0 53.49 0 80v352C0 458.5 21.49 480 48 480h416c26.51 0 48-21.49 48-48v-288C512 117.5 490.5 96 464 96zM496 432c0 17.67-14.33 32-32 32h-416c-17.67 0-32-14.33-32-32v-352c0-17.67 14.33-32 32-32h140.1c8.486 0 16.62 3.371 22.63 9.371L265.4 112H464c17.67 0 32 14.33 32 32V432zM144 240h-32c-17.64 0-32 14.36-32 32v32c0 17.64 14.36 32 32 32h32c17.64 0 32-14.36 32-32v-32C176 254.4 161.6 240 144 240zM160 304C160 312.8 152.8 320 144 320h-32C103.2 320 96 312.8 96 304v-32C96 263.2 103.2 256 112 256h32C152.8 256 160 263.2 160 272V304zM272 240h-32c-17.64 0-32 14.36-32 32v32c0 17.64 14.36 32 32 32h32c17.64 0 32-14.36 32-32v-32C304 254.4 289.6 240 272 240zM288 304c0 8.836-7.164 16-16 16h-32C231.2 320 224 312.8 224 304v-32C224 263.2 231.2 256 240 256h32C280.8 256 288 263.2 288 272V304zM400 240h-32c-17.64 0-32 14.36-32 32v32c0 17.64 14.36 32 32 32h32c17.64 0 32-14.36 32-32v-32C432 254.4 417.6 240 400 240zM416 304c0 8.836-7.164 16-16 16h-32C359.2 320 352 312.8 352 304v-32C352 263.2 359.2 256 368 256h32C408.8 256 416 263.2 416 272V304z"/></svg>