<svg xmlns="http://www.w3.org/2000/svg" viewBox="0 0 512 512"><!--! Font Awesome Pro 6.1.1 by @fontawesome - https://fontawesome.com License - https://fontawesome.com/license (Commercial License) Copyright 2022 Fonticons, Inc. --><path d="M464 96h-192L217.4 41.38C211.4 35.37 203.2 32 194.7 32H48C21.49 32 0 53.49 0 80v352C0 458.5 21.49 480 48 480h416c26.51 0 48-21.49 48-48v-288C512 117.5 490.5 96 464 96zM496 432c0 17.67-14.33 32-32 32h-416c-17.67 0-32-14.33-32-32v-352c0-17.67 14.33-32 32-32h140.1c8.484 0 16.62 3.371 22.62 9.371L265.4 112H464c17.67 0 32 14.33 32 32V432zM258.6 213.3L255.9 216.1L253.2 213.3C228.3 187.6 188.5 184.9 162.4 207C147.8 219.5 139.3 237 138.3 256.3C137.4 275.5 144.4 294.2 157.6 307.9l83.03 85.59C244.7 397.7 250.2 399.1 255.1 400c5.812 0 11.28-2.312 15.47-6.562l82.97-85.56c13.16-13.64 20.16-32.44 19.22-51.58c-.9687-19.31-9.531-36.81-24.16-49.25C323.6 184.8 283.6 187.6 258.6 213.3zM342.9 296.8l-82.94 85.52C258.9 383.4 257.5 384 256 384s-2.844-.6094-3.906-1.688l-83-85.55C159 286.3 153.6 271.8 154.3 257.1c.7187-14.86 7.281-28.31 18.47-37.88c8.781-7.5 19.72-11.17 30.84-11.17c13.66 0 27.53 5.562 38.03 16.38l14.19 14.75l14.16-14.72c19.22-19.64 49.5-21.97 69.03-5.234c11.25 9.562 17.84 23.02 18.59 37.88C358.4 271.8 353 286.3 342.9 296.8z"/></svg>