<svg xmlns="http://www.w3.org/2000/svg" viewBox="0 0 512 512"><!--! Font Awesome Pro 6.1.1 by @fontawesome - https://fontawesome.com License - https://fontawesome.com/license (Commercial License) Copyright 2022 Fonticons, Inc. --><path d="M504 64.01c-4.422 0-8 3.594-8 7.1v367.1C496 444.4 499.6 448 504 448S512 444.4 512 440V72.01C512 67.6 508.4 64.01 504 64.01zM270.4 73.01c-11.31-9.594-26.69-11.72-40.19-5.437C216.5 73.91 207.1 87.35 207.1 102.7v306.6c0 15.34 8.516 28.78 22.22 35.12C235.3 446.8 240.8 448 246.1 448c8.703 0 17.25-3.062 24.25-8.1l180.1-153.3c8.562-7.406 13.48-18.22 13.48-29.66s-4.922-22.25-13.53-29.69L270.4 73.01zM440.1 273.5l-180 153.3c-6.594 5.594-15.2 6.812-23.11 3.125c-8.109-3.75-12.94-11.47-12.94-20.62v-306.6c0-9.156 4.828-16.87 12.94-20.62c3.031-1.406 6.172-2.094 9.266-2.094c4.953 0 9.781 1.781 13.84 5.219l180 153.3c5.062 4.344 7.953 10.75 7.953 17.53C447.1 262.8 445.1 269.2 440.1 273.5zM28.94 82.07c7.859-3.656 16.48-2.469 23.11 3.125l118.8 101.1c3.344 2.844 8.422 2.437 11.28-.9062c2.859-3.375 2.453-8.406-.9062-11.28L62.41 73.01C51.09 63.41 35.69 61.29 22.22 67.57C8.516 73.91 0 87.35 0 102.7v306.6c0 15.34 8.516 28.78 22.22 35.12C27.36 446.8 32.78 448 38.16 448c8.703 0 17.27-3.062 24.27-8.1l118.8-101.1c3.359-2.875 3.766-7.906 .9062-11.28c-2.859-3.344-7.938-3.75-11.28-.9062l-118.8 101.1c-6.594 5.594-15.23 6.812-23.12 3.125C20.83 426.2 16 418.5 16 409.3v-306.6C16 93.54 20.83 85.82 28.94 82.07z"/></svg>