<svg xmlns="http://www.w3.org/2000/svg" viewBox="0 0 512 512"><!--! Font Awesome Pro 6.1.1 by @fontawesome - https://fontawesome.com License - https://fontawesome.com/license (Commercial License) Copyright 2022 Fonticons, Inc. --><path d="M255.1 0C114.6 0 .0001 114.6 .0001 256S114.6 512 256 512s255.1-114.6 255.1-255.1S397.4 0 255.1 0zM100.4 208.1l49.47 18.23l35.67 109.1l-30.47 40.02l-105.5 1.602C30.33 345.4 18.59 307.1 16.61 267.9L100.4 208.1zM16.38 248.5c1.537-49.64 18.16-95.45 45.52-133.1l27.85 81.48L16.38 248.5zM165.8 224.1L256 158.7l90.27 65.41L312 329.8H200.3L165.8 224.1zM362.1 227.2l49.46-18.23l83.84 58.98c-1.984 40.02-13.73 77.42-33.03 109.1l-105.5-1.602l-30.2-40.02L362.1 227.2zM422.3 196.9l27.85-81.48c27.36 37.66 43.98 83.47 45.52 133.1L422.3 196.9zM438.3 100.4l-31.95 93.47L356.9 212.1L264 144.7V90.28l77.47-58.27C379.3 46.48 412.5 70.11 438.3 100.4zM323.2 25.75L256 76.13L188.8 25.75C210.2 19.51 232.7 16 256 16S301.8 19.51 323.2 25.75zM170.5 32.01l77.68 58.27L248 144.7L155.1 212.1L105.6 193.8L73.67 100.4C99.52 70.11 132.7 46.48 170.5 32.01zM59.79 393.8l93.46-1.422l28.26 91.67C131.8 467.7 89.31 435.7 59.79 393.8zM199.8 489.1l-31.83-103.3l30.48-40.04h115.4l30.2 40.02l-31.83 103.3C294.1 493.4 275.4 496 256 496S217.9 493.4 199.8 489.1zM330.5 484l28.26-91.67l93.46 1.422C422.7 435.7 380.2 467.7 330.5 484z"/></svg>