<svg xmlns="http://www.w3.org/2000/svg" viewBox="0 0 448 512"><!--! Font Awesome Pro 6.1.1 by @fontawesome - https://fontawesome.com License - https://fontawesome.com/license (Commercial License) Copyright 2022 Fonticons, Inc. --><path d="M384 32h-320c-35.35 0-64 28.65-64 64v320c0 35.35 28.65 64 64 64h320c35.35 0 64-28.65 64-64V96C448 60.65 419.3 32 384 32zM432 416c0 26.47-21.53 48-47.1 48h-320c-26.47 0-48-21.53-48-48V96c0-26.47 21.53-48 48-48h320c26.47 0 47.1 21.53 47.1 48V416zM384 168c4.406 0 8-3.594 8-8s-3.594-8-8-8h-56V96c0-4.406-3.594-8-8-8s-8 3.594-8 8v56h-80V96c0-4.406-3.594-8-8-8s-8 3.594-8 8v56h-80V96c0-4.406-3.594-8-8-8s-8 3.594-8 8v56h-56c-4.406 0-8 3.594-8 8s3.594 8 8 8h56v80h-56c-4.406 0-8 3.594-8 8s3.594 8 8 8h56v80h-56c-4.406 0-8 3.594-8 8s3.594 8 8 8h56V416c0 4.406 3.594 8 8 8s8-3.594 8-8v-56h80V416c0 4.406 3.594 8 8 8s8-3.594 8-8v-56h80V416c0 4.406 3.594 8 8 8s8-3.594 8-8v-56h56c4.406 0 8-3.594 8-8s-3.594-8-8-8h-56v-80h56c4.406 0 8-3.594 8-8s-3.594-8-8-8h-56v-80H384zM216 344h-80v-80h80V344zM216 248h-80v-80h80V248zM312 344h-80v-80h80V344zM312 248h-80v-80h80V248z"/></svg>