<svg xmlns="http://www.w3.org/2000/svg" viewBox="0 0 384 512"><!--! Font Awesome Pro 6.1.1 by @fontawesome - https://fontawesome.com License - https://fontawesome.com/license (Commercial License) Copyright 2022 Fonticons, Inc. --><path d="M304 272c-17.64 0-32 14.36-32 32s14.36 32 32 32s32-14.36 32-32S321.6 272 304 272zM304 320c-8.834 0-16-7.168-16-16s7.166-16 16-16s16 7.168 16 16S312.8 320 304 320zM336 0h-288c-26.4 0-48 21.6-48 48L.0001 416c0 52.8 43.2 96 96 96h192c53.02 0 96-42.98 96-96l.0001-368C384 21.6 362.4 0 336 0zM368 416c0 44.18-35.82 80-80 80h-192c-44.18 0-80-35.82-80-80V48c0-17.67 14.33-32 32-32h288c17.67 0 32 14.33 32 32V416zM240 336c-17.64 0-32 14.36-32 32s14.36 32 32 32s32-14.36 32-32S257.6 336 240 336zM240 384c-8.834 0-16-7.168-16-16s7.166-16 16-16s16 7.168 16 16S248.8 384 240 384zM128 240h127.1c26.4 0 48-21.6 48-48V80c0-8.837-7.163-16-16-16h-192c-8.837 0-16 7.163-16 16V192C80 218.5 101.5 240 128 240zM96 80l192 0V192c0 17.67-14.33 32-32 32h-128c-17.67 0-32-14.33-32-32L96 80zM152 328h-32v-32c0-4.406-3.594-8-8-8S104 291.6 104 296v32h-32c-4.406 0-8 3.594-8 8s3.594 8 8 8h32v32c0 4.406 3.594 8 7.1 8s8-3.594 8-8v-32h32c4.406 0 7.1-3.594 7.1-8S156.4 328 152 328z"/></svg>