<svg xmlns="http://www.w3.org/2000/svg" viewBox="0 0 640 512"><!--! Font Awesome Pro 6.0.0-beta3 by @fontawesome - https://fontawesome.com License - https://fontawesome.com/license (Commercial License) Copyright 2021 Fonticons, Inc. --><path d="M495.1 168c-22.09 0-39.1 17.91-39.1 40c0 22.09 17.91 39.1 39.1 39.1c22.09 0 39.1-17.91 39.1-39.1C535.1 185.9 518.1 168 495.1 168zM495.1 232c-13.23 0-23.1-10.77-23.1-24s10.77-24 23.1-24s23.1 10.77 23.1 24S509.2 232 495.1 232zM223.1 248H167.1V192c0-4.406-3.592-8-7.998-8s-7.998 3.594-7.998 8v55.1H95.98c-4.406 0-8 3.594-8 8S91.58 264 95.98 264h55.99V320c0 4.406 3.592 8 7.998 8s7.998-3.594 7.998-8V264h55.99c4.406 0 8-3.59 8-7.996S228.4 248 223.1 248zM431.1 264c-22.09 0-39.1 17.91-39.1 40s17.91 39.1 39.1 39.1s39.1-17.91 39.1-39.1S454.1 264 431.1 264zM431.1 328c-13.23 0-23.1-10.77-23.1-24s10.77-24 23.1-24c13.23 0 23.1 10.77 23.1 24S445.2 328 431.1 328zM448 64H192C85.96 64 0 149.1 0 256s85.96 192 192 192h256c106 0 192-85.96 192-192S554 64 448 64zM448 432H192c-97.05 0-176-78.95-176-176S94.95 80 192 80h256c97.05 0 176 78.95 176 176S545 432 448 432z"/></svg>