<svg xmlns="http://www.w3.org/2000/svg" viewBox="0 0 640 512"><!--! Font Awesome Pro 6.0.0-beta3 by @fontawesome - https://fontawesome.com License - https://fontawesome.com/license (Commercial License) Copyright 2021 Fonticons, Inc. --><path d="M40.82 131.2C25.8 137.3 16 151.1 16 168.2V503.1C16 508.4 12.42 511.1 8 511.1C3.582 511.1 0 508.4 0 503.1V168.2C0 145.5 13.73 125 34.74 116.4L304.8 5.579C314.5 1.588 325.5 1.588 335.2 5.579L605.3 116.4C626.3 125 640 145.5 640 168.2V503.1C640 508.4 636.4 511.1 632 511.1C627.6 511.1 624 508.4 624 503.1V168.2C624 151.1 614.2 137.3 599.2 131.2L329.1 20.38C323.3 17.99 316.7 17.99 310.9 20.38L40.82 131.2zM112 288V503.1C112 508.4 108.4 511.1 104 511.1C99.58 511.1 96 508.4 96 503.1V215.1C96 202.7 106.7 191.1 120 191.1H520C533.3 191.1 544 202.7 544 215.1V503.1C544 508.4 540.4 511.1 536 511.1C531.6 511.1 528 508.4 528 503.1V288H112zM112 272H528V215.1C528 211.6 524.4 207.1 520 207.1H120C115.6 207.1 112 211.6 112 215.1V272zM208 400C208 391.2 215.2 384 224 384C232.8 384 240 391.2 240 400C240 408.8 232.8 416 224 416C215.2 416 208 408.8 208 400zM432 400C432 408.8 424.8 416 416 416C407.2 416 400 408.8 400 400C400 391.2 407.2 384 416 384C424.8 384 432 391.2 432 400zM216.2 320L211 336H428.1L423.8 320H440.6L446.5 338.2C465.9 344.4 480 362.6 480 384V504C480 508.4 476.4 512 472 512C467.6 512 464 508.4 464 504V464H175.1V504C175.1 508.4 172.4 512 167.1 512C163.6 512 159.1 508.4 159.1 504V384C159.1 362.6 174.1 344.4 193.5 338.2L199.4 320H216.2zM208 352C190.3 352 176 366.3 176 384V448H464V384C464 366.3 449.7 352 432 352H208z"/></svg>