<svg xmlns="http://www.w3.org/2000/svg" viewBox="0 0 640 512"><!--! Font Awesome Pro 6.0.0-beta3 by @fontawesome - https://fontawesome.com License - https://fontawesome.com/license (Commercial License) Copyright 2021 Fonticons, Inc. --><path d="M368 375.4L384 388.1V496H408C412.4 496 416 499.6 416 504C416 508.4 412.4 512 408 512H71.1C67.58 512 63.1 508.4 63.1 504C63.1 499.6 67.58 496 71.1 496H95.1V160.7L111.1 173.3V416H368V375.4zM368 432H111.1V496H368V432zM131.3 25.5L118.4 15.33C129.6 5.772 144.1 0 159.1 0H319.1C355.3 0 384 28.65 384 64V224.1L368 212.4V64C368 37.49 346.5 16 319.1 16H159.1C149.2 16 139.3 19.53 131.3 25.5V25.5zM576 149.1V376.6L560 363.9V224H552C521.1 224 496 198.9 496 168V72.85L466.6 45.9C463.3 42.91 463.1 37.85 466.1 34.59C469.1 31.34 474.1 31.12 477.4 34.1L557.8 107.8C569.4 118.4 576 133.4 576 149.1V149.1zM560 208V149.1C560 137.9 555.3 127.2 547 119.6L512 87.52V168C512 190.1 529.9 208 552 208H560zM636.1 497.7C640.4 500.5 641 505.5 638.3 508.1C635.5 512.4 630.5 513 627 510.3L3.022 14.26C-.4365 11.51-1.012 6.482 1.738 3.023C4.487-.4355 9.52-1.011 12.98 1.739L636.1 497.7z"/></svg>