<svg xmlns="http://www.w3.org/2000/svg" viewBox="0 0 576 512"><!--! Font Awesome Pro 6.0.0-beta3 by @fontawesome - https://fontawesome.com License - https://fontawesome.com/license (Commercial License) Copyright 2021 Fonticons, Inc. --><path d="M145.8 189C143 185.6 143.5 180.6 146.1 177.8C150.4 175 155.4 175.5 158.2 178.1L254.3 297.6C264.1 291.5 275.6 288 288 288C323.3 288 352 316.7 352 352C352 387.3 323.3 416 288 416C252.7 416 224 387.3 224 352C224 334.8 230.8 319.2 241.8 307.7L145.8 189zM288 400C314.5 400 336 378.5 336 352C336 325.5 314.5 304 288 304C276.6 304 266.2 307.1 257.1 314.6C257.9 314.6 257.9 314.6 257.8 314.7C257.7 314.7 257.7 314.8 257.6 314.8C246.9 323.6 240 337 240 352C240 378.5 261.5 400 288 400V400zM74.13 480C58.11 480 42.9 472.1 35.21 458.1C12.76 417.1 0 370 0 320C0 160.9 128.9 32 288 32C447.1 32 576 160.9 576 320C576 370 563.2 417.1 540.8 458.1C533.1 472.1 517.9 480 501.9 480H74.13zM16 320C16 367.3 28.05 411.7 49.24 450.4C53.75 458.6 63.13 464 74.13 464H501.9C512.9 464 522.2 458.6 526.8 450.4C547.9 411.7 560 367.3 560 320C560 169.8 438.2 48 287.1 48C137.8 48 15.1 169.8 15.1 320H16z"/></svg>