<svg xmlns="http://www.w3.org/2000/svg" viewBox="0 0 576 512"><!--! Font Awesome Pro 6.0.0-beta3 by @fontawesome - https://fontawesome.com License - https://fontawesome.com/license (Commercial License) Copyright 2021 Fonticons, Inc. --><path d="M288 416C252.7 416 224 387.3 224 352C224 316.7 252.7 288 288 288C316.1 288 341.5 307.3 349.3 333.7L478.7 312.1C483 311.4 487.2 314.3 487.9 318.7C488.6 323 485.7 327.2 481.3 327.9L351.9 349.5C351.1 350.3 352 351.1 352 352C352 387.3 323.3 416 288 416V416zM336 352C336 325.5 314.5 304 288 304C261.5 304 240 325.5 240 352C240 378.5 261.5 400 288 400C314.5 400 336 378.5 336 352zM74.13 480C58.11 480 42.9 472.1 35.21 458.1C12.76 417.1 0 370 0 320C0 160.9 128.9 32 288 32C447.1 32 576 160.9 576 320C576 370 563.2 417.1 540.8 458.1C533.1 472.1 517.9 480 501.9 480H74.13zM288 48C137.8 48 16 169.8 16 320C16 367.3 28.05 411.7 49.24 450.4C53.75 458.6 63.13 464 74.13 464H501.9C512.9 464 522.2 458.6 526.8 450.4C547.9 411.7 560 367.3 560 320C560 169.8 438.2 48 287.1 48H288z"/></svg>