<svg xmlns="http://www.w3.org/2000/svg" viewBox="0 0 512 512"><!--! Font Awesome Pro 6.1.1 by @fontawesome - https://fontawesome.com License - https://fontawesome.com/license (Commercial License) Copyright 2022 Fonticons, Inc. --><path d="M272 80C272 88.84 264.8 96 256 96C247.2 96 240 88.84 240 80C240 71.16 247.2 64 256 64C264.8 64 272 71.16 272 80zM320 352C320 387.3 291.3 416 256 416C220.7 416 192 387.3 192 352C192 341.2 194.7 331 199.4 322.1L91.41 246.6C87.79 244 86.91 239 89.45 235.4C91.98 231.8 96.97 230.9 100.6 233.4L208.6 309C220.3 296.1 237.2 288 256 288C291.3 288 320 316.7 320 352V352zM256 304C229.5 304 208 325.5 208 352C208 378.5 229.5 400 256 400C282.5 400 304 378.5 304 352C304 325.5 282.5 304 256 304zM160 128C160 136.8 152.8 144 144 144C135.2 144 128 136.8 128 128C128 119.2 135.2 112 144 112C152.8 112 160 119.2 160 128zM400 240C400 231.2 407.2 224 416 224C424.8 224 432 231.2 432 240C432 248.8 424.8 256 416 256C407.2 256 400 248.8 400 240zM384 128C384 136.8 376.8 144 368 144C359.2 144 352 136.8 352 128C352 119.2 359.2 112 368 112C376.8 112 384 119.2 384 128zM0 256C0 114.6 114.6 0 256 0C397.4 0 512 114.6 512 256C512 397.4 397.4 512 256 512C114.6 512 0 397.4 0 256zM256 496C388.5 496 496 388.5 496 256C496 123.5 388.5 16 256 16C123.5 16 16 123.5 16 256C16 388.5 123.5 496 256 496z"/></svg>