<svg xmlns="http://www.w3.org/2000/svg" viewBox="0 0 576 512"><!--! Font Awesome Pro 6.0.0-beta3 by @fontawesome - https://fontawesome.com License - https://fontawesome.com/license (Commercial License) Copyright 2021 Fonticons, Inc. --><path d="M224 352C224 319.4 248.4 292.4 279.1 288.5V128C279.1 123.6 283.6 120 287.1 120C292.4 120 296 123.6 296 128V288.5C327.6 292.4 352 319.4 352 352C352 387.3 323.3 416 288 416C252.7 416 224 387.3 224 352zM288 400C314.5 400 336 378.5 336 352C336 325.5 314.5 304 288 304C261.5 304 240 325.5 240 352C240 378.5 261.5 400 288 400zM136 184C136 175.2 143.2 168 152 168C160.8 168 168 175.2 168 184C168 192.8 160.8 200 152 200C143.2 200 136 192.8 136 184zM440 184C440 192.8 432.8 200 424 200C415.2 200 408 192.8 408 184C408 175.2 415.2 168 424 168C432.8 168 440 175.2 440 184zM464 320C464 311.2 471.2 304 480 304C488.8 304 496 311.2 496 320C496 328.8 488.8 336 480 336C471.2 336 464 328.8 464 320zM112 320C112 328.8 104.8 336 96 336C87.16 336 80 328.8 80 320C80 311.2 87.16 304 96 304C104.8 304 112 311.2 112 320zM74.13 480C58.11 480 42.9 472.1 35.21 458.1C12.76 417.1 0 370 0 320C0 160.9 128.9 32 288 32C447.1 32 576 160.9 576 320C576 370 563.2 417.1 540.8 458.1C533.1 472.1 517.9 480 501.9 480H74.13zM16 320C16 367.3 28.05 411.7 49.24 450.4C53.75 458.6 63.13 464 74.13 464H501.9C512.9 464 522.2 458.6 526.8 450.4C547.9 411.7 560 367.3 560 320C560 169.8 438.2 48 287.1 48C137.8 48 15.1 169.8 15.1 320H16z"/></svg>