<svg xmlns="http://www.w3.org/2000/svg" viewBox="0 0 512 512"><!--! Font Awesome Pro 6.1.1 by @fontawesome - https://fontawesome.com License - https://fontawesome.com/license (Commercial License) Copyright 2022 Fonticons, Inc. --><path d="M256 64C264.8 64 272 71.16 272 80C272 88.84 264.8 96 256 96C247.2 96 240 88.84 240 80C240 71.16 247.2 64 256 64zM256 288C274.8 288 291.7 296.1 303.4 309L411.4 233.4C415 230.9 420 231.8 422.6 235.4C425.1 239 424.2 244 420.6 246.6L312.6 322.1C317.3 331 320 341.2 320 352C320 387.3 291.3 416 256 416C220.7 416 192 387.3 192 352C192 316.7 220.7 287.1 256 287.1V288zM208 352C208 378.5 229.5 400 256 400C282.5 400 304 378.5 304 352C304 325.5 282.5 304 256 304C229.5 304 208 325.5 208 352zM368 112C376.8 112 384 119.2 384 128C384 136.8 376.8 144 368 144C359.2 144 352 136.8 352 128C352 119.2 359.2 112 368 112zM96 256C87.16 256 80 248.8 80 240C80 231.2 87.16 224 96 224C104.8 224 112 231.2 112 240C112 248.8 104.8 256 96 256zM144 112C152.8 112 160 119.2 160 128C160 136.8 152.8 144 144 144C135.2 144 128 136.8 128 128C128 119.2 135.2 112 144 112zM256 512C114.6 512 0 397.4 0 256C0 114.6 114.6 0 256 0C397.4 0 512 114.6 512 256C512 397.4 397.4 512 256 512zM496 256C496 123.5 388.5 16 256 16C123.5 16 16 123.5 16 256C16 388.5 123.5 496 256 496C388.5 496 496 388.5 496 256z"/></svg>