<svg xmlns="http://www.w3.org/2000/svg" viewBox="0 0 512 512"><!--! Font Awesome Pro 6.1.1 by @fontawesome - https://fontawesome.com License - https://fontawesome.com/license (Commercial License) Copyright 2022 Fonticons, Inc. --><path d="M512 232.5c0-4.599-3.758-7.999-7.994-7.999c-2.051 0-4.101 .7822-5.66 2.341l-11.91 11.91l-213.2-213.2l11.91-11.91c1.56-1.56 2.342-3.609 2.342-5.659c0-4.599-3.758-7.999-7.994-7.999c-2.051 0-4.101 .7822-5.66 2.341L138.1 138.1C136.5 139.7 135.7 141.7 135.7 143.8c0 4.244 3.411 7.996 7.996 7.996c2.05 0 4.099-.7822 5.658-2.342l10.74-10.73l100.9 100.9L186.3 314.3l11.31 11.31l74.71-74.71l100.9 100.9l-10.74 10.74c-1.56 1.56-2.342 3.609-2.342 5.658c0 4.601 3.766 7.997 7.996 7.997c2.05 0 4.099-.7822 5.658-2.342l135.8-135.8C511.2 236.6 512 234.5 512 232.5zM171.4 127.4l90.51-90.51l20.93 20.93L192.4 148.3L171.4 127.4zM203.7 159.6l90.51-90.51l148.7 148.7l-90.51 90.51L203.7 159.6zM384.6 340.6l-20.93-20.93l90.51-90.51l20.93 20.93L384.6 340.6zM169.4 297.4C163.1 291.1 154.9 288 146.7 288c-8.186 0-16.37 3.126-22.62 9.372l-114.7 114.7c-6.25 6.248-9.375 14.43-9.375 22.62s3.125 16.37 9.375 22.62l45.25 45.25C60.87 508.9 69.06 512 77.25 512s16.37-3.125 22.62-9.375l114.7-114.7c6.25-6.25 9.376-14.44 9.376-22.62c0-8.185-3.125-16.37-9.374-22.62L169.4 297.4zM207.1 365.3c0 4.096-1.559 8.191-4.676 11.31l-114.7 114.7C85.53 494.3 81.52 496 77.25 496c-4.271 0-8.287-1.664-11.31-4.688l-45.25-45.25c-3.023-3.02-4.688-7.035-4.688-11.3s1.664-8.285 4.689-11.31l114.7-114.7C138.5 305.7 142.5 304 146.7 304c4.271 0 8.287 1.664 11.31 4.684l45.25 45.25C206.4 357.1 207.1 361.2 207.1 365.3z"/></svg>