<svg xmlns="http://www.w3.org/2000/svg" viewBox="0 0 512 512"><!--! Font Awesome Pro 6.0.0-beta3 by @fontawesome - https://fontawesome.com License - https://fontawesome.com/license (Commercial License) Copyright 2021 Fonticons, Inc. --><path d="M499.5 332c0-5.66-3.112-11.13-8.203-14.07l-46.61-26.91C446.8 279.6 448 267.1 448 256s-1.242-23.65-3.34-35.02l46.61-26.91c5.092-2.941 8.203-8.411 8.203-14.07c0-14.1-41.98-99.04-63.86-99.04c-2.832 0-5.688 .7266-8.246 2.203l-46.72 26.98C362.9 94.98 342.4 83.1 320 75.16V21.28c0-7.523-5.162-14.28-12.53-15.82C290.8 1.977 273.7 0 256 0s-34.85 1.977-51.48 5.461C197.2 7.004 192 13.76 192 21.28v53.88C169.6 83.1 149.1 94.98 131.4 110.1L84.63 83.16C82.08 81.68 79.22 80.95 76.39 80.95c-19.72 0-63.86 81.95-63.86 99.04c0 5.66 3.112 11.13 8.203 14.07l46.61 26.91C65.24 232.4 64 244 64 256s1.242 23.65 3.34 35.02l-46.61 26.91c-5.092 2.941-8.203 8.411-8.203 14.07c0 14.1 41.98 99.04 63.86 99.04c2.832 0 5.688-.7266 8.246-2.203l46.72-26.98C149.1 417 169.6 428.9 192 436.8v53.88c0 7.523 5.162 14.28 12.53 15.82C221.2 510 238.3 512 255.1 512s34.85-1.977 51.48-5.461C314.8 504.1 320 498.2 320 490.7v-53.88c22.42-7.938 42.93-19.82 60.65-34.97l46.72 26.98c2.557 1.477 5.416 2.203 8.246 2.203C455.3 431 499.5 349.1 499.5 332zM435.4 414.1l-56.52-32.64l-8.602 7.355c-16.37 14-35.07 24.79-55.59 32.05L304 425.5l.1914 65.35C287.1 494.3 271.8 496 256 496s-31.97-1.723-48-5.281v-65.19l-10.66-3.773c-20.51-7.262-39.22-18.05-55.59-32.05l-8.602-7.355l-56.58 32.88c-21.61-24.36-37.78-52.45-47.84-83.45l56.4-32.56l-2.049-11.11C81.01 276.9 80 266.4 80 256s1.006-20.9 3.074-32.12l2.049-11.11L28.48 180.2c10.3-31.02 26.48-59.11 48.15-83.23l56.52 32.64l8.602-7.355c16.37-14 35.07-24.79 55.59-32.05L208 86.47L207.8 21.12C224 17.72 240.2 16 256 16s31.97 1.723 48 5.281v65.19l10.66 3.773c20.51 7.262 39.22 18.05 55.59 32.05l8.602 7.355l56.58-32.88c21.61 24.36 37.78 52.45 47.84 83.45l-56.4 32.56l2.049 11.11C430.1 235.1 432 245.6 432 256s-1.006 20.9-3.074 32.12l-2.049 11.11l56.64 32.53C473.2 362.8 457 390.9 435.4 414.1zM256 176C211.9 176 176 211.9 176 256s35.89 80 80 80s80-35.89 80-80S300.1 176 256 176zM256 319.1c-35.29 0-64-28.71-64-64S220.7 191.1 256 191.1s64 28.71 64 64S291.3 319.1 256 319.1z"/></svg>