<svg xmlns="http://www.w3.org/2000/svg" viewBox="0 0 512 512"><!--! Font Awesome Pro 6.1.1 by @fontawesome - https://fontawesome.com License - https://fontawesome.com/license (Commercial License) Copyright 2022 Fonticons, Inc. --><path d="M176 255.1C176 211.8 211.8 175.1 256 175.1C300.2 175.1 336 211.8 336 255.1C336 300.2 300.2 336 256 336C211.8 336 176 300.2 176 255.1zM256 191.1C220.7 191.1 192 220.7 192 255.1C192 291.3 220.7 319.1 256 319.1C291.3 319.1 320 291.3 320 255.1C320 220.7 291.3 191.1 256 191.1zM425.2 87.32C439.5 82.75 455.1 88.78 462.6 101.8L492.8 154.2C500.3 167.2 497.8 183.7 486.7 193.8L446.3 230.6C447.4 238.9 448 247.4 448 255.1C448 264.6 447.4 273.1 446.3 281.4L486.7 318.2C497.8 328.3 500.3 344.8 492.8 357.8L462.6 410.2C455.1 423.2 439.5 429.2 425.2 424.7L373.2 408.1C359.8 418.4 344.1 427 329.2 433.6L317.5 486.8C314.3 501.5 301.3 512 286.2 512H225.8C210.7 512 197.7 501.5 194.5 486.8L182.8 433.6C167 427 152.2 418.4 138.8 408.1L86.84 424.7C72.51 429.2 56.94 423.2 49.42 410.2L19.18 357.8C11.66 344.8 14.22 328.3 25.34 318.2L65.67 281.4C64.57 273.1 64 264.6 64 255.1C64 247.4 64.57 238.9 65.67 230.6L25.34 193.8C14.22 183.7 11.66 167.2 19.18 154.2L49.42 101.8C56.94 88.78 72.51 82.75 86.84 87.32L138.8 103.9C152.2 93.56 167 84.96 182.8 78.43L194.5 25.16C197.7 10.47 210.7 0 225.8 0H286.2C301.3 0 314.3 10.47 317.5 25.16L329.2 78.43C344.1 84.96 359.8 93.56 373.2 103.9L425.2 87.32zM148.6 116.5L141.1 121.7L81.99 102.6C74.82 100.3 67.04 103.3 63.28 109.8L33.03 162.2C29.27 168.7 30.55 176.1 36.11 182L82.62 224.4L81.53 232.7C80.52 240.3 80 248.1 80 256C80 263.9 80.52 271.7 81.53 279.3L82.62 287.6L36.11 329.1C30.56 335 29.27 343.3 33.03 349.8L63.28 402.2C67.04 408.7 74.82 411.7 81.99 409.4L141.1 390.3L148.6 395.5C160.9 404.9 174.4 412.8 188.9 418.8L196.7 421.1L210.1 483.4C211.7 490.8 218.2 496 225.8 496H286.2C293.8 496 300.3 490.8 301.9 483.4L315.3 421.1L323.1 418.8C337.6 412.8 351.1 404.9 363.4 395.5L370 390.3L430 409.4C437.2 411.7 444.1 408.7 448.7 402.2L478.1 349.8C482.7 343.3 481.4 335 475.9 329.1L429.4 287.6L430.5 279.3C431.5 271.7 432 263.9 432 256C432 248.1 431.5 240.3 430.5 232.7L429.4 224.4L475.9 182C481.4 176.1 482.7 168.7 478.1 162.2L448.7 109.8C444.1 103.3 437.2 100.3 430 102.6L370 121.7L363.4 116.5C351.1 107.1 337.6 99.21 323.1 93.22L315.3 90.03L301.9 28.58C300.3 21.23 293.8 15.1 286.2 15.1H225.8C218.2 15.1 211.7 21.23 210.1 28.58L196.7 90.03L188.9 93.22C174.4 99.21 160.9 107.1 148.6 116.5L148.6 116.5z"/></svg>