<svg xmlns="http://www.w3.org/2000/svg" viewBox="0 0 512 512"><!--! Font Awesome Pro 6.1.1 by @fontawesome - https://fontawesome.com License - https://fontawesome.com/license (Commercial License) Copyright 2022 Fonticons, Inc. --><path d="M510.4 195.2l-119.1-160C388.9 33.19 386.5 32 384 32H127.1C125.5 32 123.1 33.19 121.6 35.2l-119.1 160C-.7128 198.3-.494 202.5 2.1 205.4l247.1 272C251.6 479 253.8 480 256 480s4.406-.9531 5.906-2.609l247.1-272C512.5 202.5 512.7 198.3 510.4 195.2zM383.8 53.06L487.1 192h-215.3L383.8 53.06zM256 187.2L144.7 48h222.7L256 187.2zM128.2 53.06L239.4 192H24.01L128.2 53.06zM256 460.1L26.13 208h459.7L256 460.1z"/></svg>