<svg xmlns="http://www.w3.org/2000/svg" viewBox="0 0 384 512"><!--! Font Awesome Pro 6.1.1 by @fontawesome - https://fontawesome.com License - https://fontawesome.com/license (Commercial License) Copyright 2022 Fonticons, Inc. --><path d="M256 151.1c-22.05 0-40 17.95-40 40s17.95 40 40 40c22.06 0 40-17.95 40-40S278.1 151.1 256 151.1zM256 216c-13.22 0-24-10.78-24-24s10.78-24 24-24s24 10.78 24 24S269.2 216 256 216zM192 0C190 0 188.1 .0446 186.1 .1032c-105.1 3.125-186.1 94.75-186.1 199.9v264c0 9.629 7.913 15.99 16.11 15.99c3.934 0 7.95-1.451 11.19-4.736l24.95-18.5c2.836-2.141 6.176-3.157 9.501-3.157c4.441 0 8.855 1.833 11.1 5.407l43 48.31C119.9 510.5 123.9 512 128 512c4.094 0 8.229-1.538 11.35-4.663l40.62-45.81c3.188-3.625 7.594-5.41 12-5.41s8.812 1.785 11.1 5.41l40.63 45.81C247.8 510.5 251.9 512 255.1 512s8.146-1.538 11.27-4.663l43-48.31c3.146-3.574 7.559-5.41 12-5.41c3.324 0 6.664 1.019 9.5 3.16l24.95 18.5c3.244 3.285 7.261 4.736 11.19 4.736c8.193 0 16.11-6.358 16.11-15.99V192C384 85.94 298.1 0 192 0zM367.3 463.2l-25.88-19.15c-5.557-4.195-12.17-6.41-19.14-6.41c-9.186 0-17.94 3.957-23.95 10.79l-41.71 48.29l-40.58-45.71c-6.074-6.91-14.83-10.87-24.02-10.87c-9.186 0-17.94 3.961-23.96 10.82L128.7 496.7l-42.94-48.19c-6.074-6.902-14.83-10.86-24.01-10.86c-6.965 0-13.58 2.215-19.02 6.32l-25.86 19.23L16 464.1V200c0-98.62 76.53-181.1 170.6-183.9C188.4 16.03 190.2 16 192 16c97.04 0 175.1 78.95 175.1 176l.1367 272.1L367.3 463.2zM128 151.1c-22.05 0-40 17.95-40 40s17.95 40 40 40c22.06 0 40-17.95 40-40S150.1 151.1 128 151.1zM128 216C114.8 216 104 205.2 104 192s10.78-24 23.1-24c13.22 0 24 10.78 24 24S141.2 216 128 216z"/></svg>