<svg xmlns="http://www.w3.org/2000/svg" viewBox="0 0 576 512"><!--! Font Awesome Pro 6.1.1 by @fontawesome - https://fontawesome.com License - https://fontawesome.com/license (Commercial License) Copyright 2022 Fonticons, Inc. --><path d="M512 32H64C28.65 32 0 60.65 0 96v320c0 35.35 28.65 64 64 64h448c35.35 0 64-28.65 64-64V96C576 60.65 547.3 32 512 32zM560 416c0 26.47-21.53 48-48 48H64c-26.47 0-48-21.53-48-48V96c0-26.47 21.53-48 48-48h448c26.47 0 48 21.53 48 48V416zM480 168h-104c-4.422 0-8 3.578-8 8v160c0 4.422 3.578 8 8 8S384 340.4 384 336v-64h80c4.422 0 8-3.578 8-8S468.4 256 464 256H384V184h96c4.422 0 8-3.578 8-8S484.4 168 480 168zM296 168C291.6 168 288 171.6 288 176v160c0 4.422 3.578 8 8 8s8-3.578 8-8v-160C304 171.6 300.4 168 296 168zM232 248H160C155.6 248 152 251.6 152 256S155.6 264 160 264h64v45.13C210.7 321.2 191.8 328 171.7 328c-21.31 0-41.22-7.688-54.63-21.09C103.5 293.3 96 275.2 96 256s7.484-37.31 21.09-50.91c13.6-13.61 31.94-20.42 50.27-20.41c18.33 .002 36.65 6.803 50.24 20.41c1.562 1.562 3.609 2.344 5.656 2.344s4.094-.7813 5.656-2.344c3.125-3.125 3.125-8.188 0-11.31C212.3 177.2 190.4 168 167.4 168c-23.09 0-44.97 9.156-61.58 25.78C89.16 210.4 80 232.5 80 256s9.156 45.61 25.78 62.22C122.2 334.6 146.2 344 171.7 344s49.56-9.391 65.94-25.78C239.2 316.7 240 314.7 240 312.6V256C240 251.6 236.4 248 232 248z"/></svg>