<svg xmlns="http://www.w3.org/2000/svg" viewBox="0 0 640 512"><!--! Font Awesome Pro 6.1.1 by @fontawesome - https://fontawesome.com License - https://fontawesome.com/license (Commercial License) Copyright 2022 Fonticons, Inc. --><path d="M144.2 83.63L178.7 4.79C180.4 .7419 185.2-1.104 189.2 .667C193.3 2.438 195.1 7.155 193.3 11.2L161.6 83.79L243.8 33.18C247.6 30.87 252.5 32.04 254.8 35.8C257.1 39.57 255.1 44.49 252.2 46.81L172.3 95.1H248C252.4 95.1 256 99.58 256 103.1C256 108.4 252.4 111.1 248 111.1H72C41.07 111.1 16 137.1 16 167.1V439.1C16 470.9 41.07 495.1 72 495.1H184C188.4 495.1 192 499.6 192 503.1C192 508.4 188.4 511.1 184 511.1H72C32.24 511.1 0 479.8 0 439.1V167.1C0 128.2 32.24 95.1 72 95.1H115.7L35.81 46.81C32.04 44.49 30.87 39.57 33.19 35.8C35.5 32.04 40.43 30.87 44.19 33.18L127.1 84.19L96.62 11.07C94.92 6.995 96.84 2.311 100.9 .6117C105-1.088 109.7 .8411 111.4 4.919L144.2 83.63zM336.2 127.1C353.6 127.1 370.2 136.1 380.8 149.9L432 216.5L483.2 149.9C493.8 136.1 510.4 127.1 527.8 127.1C558.7 127.1 584 153 584 183.1C584 199.7 577.6 213.8 567.2 223.1H592C618.5 223.1 640 245.5 640 271.1V463.1C640 490.5 618.5 511.1 592 511.1H272C245.5 511.1 224 490.5 224 463.1V271.1C224 245.5 245.5 223.1 272 223.1H296.8C286.4 213.8 280 199.7 280 183.1C280 153 305.3 127.1 336.2 127.1zM368.1 159.7C360.5 149.8 348.7 143.1 336.2 143.1C314 143.1 296 161.9 296 183.1C296 206.1 313.9 223.1 336 223.1H417.6L368.1 159.7zM240 271.1V351.1H424V239.1H272C254.3 239.1 240 254.3 240 271.1zM240 463.1C240 481.7 254.3 495.1 272 495.1H424V367.1H240V463.1zM624 367.1H440V495.1H592C609.7 495.1 624 481.7 624 463.1V367.1zM440 351.1H624V271.1C624 254.3 609.7 239.1 592 239.1H440V351.1zM528 223.1C550.1 223.1 568 206.1 568 183.1C568 161.9 549.1 143.1 527.8 143.1C515.3 143.1 503.5 149.8 495.9 159.7L446.4 223.1H528z"/></svg>