<svg xmlns="http://www.w3.org/2000/svg" viewBox="0 0 384 512"><!--! Font Awesome Pro 6.1.1 by @fontawesome - https://fontawesome.com License - https://fontawesome.com/license (Commercial License) Copyright 2022 Fonticons, Inc. --><path d="M351.9 0C360.8 0 369.2 3.625 375.3 10.13C381.3 16.5 384.4 25.13 383.9 34L351.1 482C350.9 498.9 336.9 512 319.1 512H64.05C47.18 512 33.18 498.9 32.05 482L.0518 34C-.448 25.13 2.677 16.5 8.677 10.13C14.8 3.625 23.21 0 32.09 0L351.9 0zM319.1 496C328.4 496 335.4 489.4 336 480.9L358.6 165.1L327.4 179.3C297.5 192.8 262.7 189.3 236.1 169.1C209.8 150.9 174.2 150.9 147.9 169.1C121.3 189.3 86.48 192.8 56.62 179.3L25.46 165.1L48.01 480.9C48.58 489.4 55.62 496 64.05 496L319.1 496zM63.24 164.7C87.85 175.9 116.6 172.1 138.4 157.1C170.4 133.8 213.6 133.8 245.6 157.1C267.4 172.1 296.1 175.9 320.8 164.7L359.8 146.9L367.1 32.86C368.2 28.64 366.7 24.26 363.7 21.09C360.6 17.8 356.4 15.1 351.9 15.1H32.08C27.6 15.1 23.42 17.81 20.32 21.1C17.34 24.26 15.77 28.64 16.03 33.1L24.16 146.9L63.24 164.7z"/></svg>