<svg xmlns="http://www.w3.org/2000/svg" viewBox="0 0 512 512"><!--! Font Awesome Pro 6.0.0-beta3 by @fontawesome - https://fontawesome.com License - https://fontawesome.com/license (Commercial License) Copyright 2021 Fonticons, Inc. --><path d="M256 0C397.4 0 512 114.6 512 256C512 397.4 397.4 512 256 512C114.6 512 0 397.4 0 256C0 114.6 114.6 0 256 0zM256 496C282 496 309.9 474.5 332.2 429.9C343.2 407.9 352.1 381.5 358.4 352H153.6C159.9 381.5 168.8 407.9 179.8 429.9C202.1 474.5 229.1 496 255.1 496H256zM150.6 336H361.4C365.7 311 368 284.1 368 256C368 227.9 365.7 200.1 361.4 176H150.6C146.3 200.1 144 227.9 144 256C144 284.1 146.3 311 150.6 336V336zM358.4 160C352.1 130.4 343.2 104.1 332.2 82.14C309.9 37.51 282 16 256 16C229.1 16 202.1 37.51 179.8 82.14C168.8 104.1 159.9 130.4 153.6 160H358.4zM377.6 176C381.8 201.2 384 228.1 384 256C384 283.9 381.8 310.8 377.6 336H482.3C491.2 310.1 496 284.1 496 256C496 227.9 491.2 201 482.3 176H377.6zM307.5 21.53C337.9 48.31 362.2 98.15 374.7 160H476C445.6 90.45 383.2 38.09 307.5 21.53V21.53zM204.5 21.53C128.8 38.09 66.36 90.45 35.97 160H137.3C149.8 98.15 174.1 48.31 204.5 21.53V21.53zM16 256C16 284.1 20.81 310.1 29.66 336H134.4C130.2 310.8 128 283.9 128 256C128 228.1 130.2 201.2 134.4 176H29.66C20.81 201 16 227.9 16 256zM476 352H374.7C362.2 413.8 337.9 463.7 307.5 490.5C383.2 473.9 445.6 421.5 476 352V352zM137.3 352H35.97C66.36 421.5 128.8 473.9 204.5 490.5C174.1 463.7 149.8 413.8 137.3 352z"/></svg>