<svg xmlns="http://www.w3.org/2000/svg" viewBox="0 0 448 512"><!--! Font Awesome Pro 6.1.1 by @fontawesome - https://fontawesome.com License - https://fontawesome.com/license (Commercial License) Copyright 2022 Fonticons, Inc. --><path d="M48 32C56.84 32 64 39.16 64 48V80C64 88.84 56.84 96 48 96H16C7.164 96 0 88.84 0 80V48C0 39.16 7.164 32 16 32H48zM48 44.8H16C14.23 44.8 12.8 46.23 12.8 48V80C12.8 81.77 14.23 83.2 16 83.2H48C49.77 83.2 51.2 81.77 51.2 80V48C51.2 46.23 49.77 44.8 48 44.8zM48 128C56.84 128 64 135.2 64 144V176C64 184.8 56.84 192 48 192H16C7.164 192 0 184.8 0 176V144C0 135.2 7.164 128 16 128H48zM48 140.8H16C14.23 140.8 12.8 142.2 12.8 144V176C12.8 177.8 14.23 179.2 16 179.2H48C49.77 179.2 51.2 177.8 51.2 176V144C51.2 142.2 49.77 140.8 48 140.8zM0 240C0 231.2 7.164 224 16 224H48C56.84 224 64 231.2 64 240V272C64 280.8 56.84 288 48 288H16C7.164 288 0 280.8 0 272V240zM12.8 240V272C12.8 273.8 14.23 275.2 16 275.2H48C49.77 275.2 51.2 273.8 51.2 272V240C51.2 238.2 49.77 236.8 48 236.8H16C14.23 236.8 12.8 238.2 12.8 240zM48 320C56.84 320 64 327.2 64 336V368C64 376.8 56.84 384 48 384H16C7.164 384 0 376.8 0 368V336C0 327.2 7.164 320 16 320H48zM48 332.8H16C14.23 332.8 12.8 334.2 12.8 336V368C12.8 369.8 14.23 371.2 16 371.2H48C49.77 371.2 51.2 369.8 51.2 368V336C51.2 334.2 49.77 332.8 48 332.8zM0 432C0 423.2 7.164 416 16 416H48C56.84 416 64 423.2 64 432V464C64 472.8 56.84 480 48 480H16C7.164 480 0 472.8 0 464V432zM12.8 432V464C12.8 465.8 14.23 467.2 16 467.2H48C49.77 467.2 51.2 465.8 51.2 464V432C51.2 430.2 49.77 428.8 48 428.8H16C14.23 428.8 12.8 430.2 12.8 432zM144 32C152.8 32 160 39.16 160 48V80C160 88.84 152.8 96 144 96H112C103.2 96 96 88.84 96 80V48C96 39.16 103.2 32 112 32H144zM144 44.8H112C110.2 44.8 108.8 46.23 108.8 48V80C108.8 81.77 110.2 83.2 112 83.2H144C145.8 83.2 147.2 81.77 147.2 80V48C147.2 46.23 145.8 44.8 144 44.8zM96 144C96 135.2 103.2 128 112 128H144C152.8 128 160 135.2 160 144V176C160 184.8 152.8 192 144 192H112C103.2 192 96 184.8 96 176V144zM108.8 144V176C108.8 177.8 110.2 179.2 112 179.2H144C145.8 179.2 147.2 177.8 147.2 176V144C147.2 142.2 145.8 140.8 144 140.8H112C110.2 140.8 108.8 142.2 108.8 144zM144 224C152.8 224 160 231.2 160 240V272C160 280.8 152.8 288 144 288H112C103.2 288 96 280.8 96 272V240C96 231.2 103.2 224 112 224H144zM144 236.8H112C110.2 236.8 108.8 238.2 108.8 240V272C108.8 273.8 110.2 275.2 112 275.2H144C145.8 275.2 147.2 273.8 147.2 272V240C147.2 238.2 145.8 236.8 144 236.8zM96 336C96 327.2 103.2 320 112 320H144C152.8 320 160 327.2 160 336V368C160 376.8 152.8 384 144 384H112C103.2 384 96 376.8 96 368V336zM108.8 336V368C108.8 369.8 110.2 371.2 112 371.2H144C145.8 371.2 147.2 369.8 147.2 368V336C147.2 334.2 145.8 332.8 144 332.8H112C110.2 332.8 108.8 334.2 108.8 336zM144 416C152.8 416 160 423.2 160 432V464C160 472.8 152.8 480 144 480H112C103.2 480 96 472.8 96 464V432C96 423.2 103.2 416 112 416H144zM144 428.8H112C110.2 428.8 108.8 430.2 108.8 432V464C108.8 465.8 110.2 467.2 112 467.2H144C145.8 467.2 147.2 465.8 147.2 464V432C147.2 430.2 145.8 428.8 144 428.8zM192 48C192 39.16 199.2 32 208 32H240C248.8 32 256 39.16 256 48V80C256 88.84 248.8 96 240 96H208C199.2 96 192 88.84 192 80V48zM204.8 48V80C204.8 81.77 206.2 83.2 208 83.2H240C241.8 83.2 243.2 81.77 243.2 80V48C243.2 46.23 241.8 44.8 240 44.8H208C206.2 44.8 204.8 46.23 204.8 48zM240 128C248.8 128 256 135.2 256 144V176C256 184.8 248.8 192 240 192H208C199.2 192 192 184.8 192 176V144C192 135.2 199.2 128 208 128H240zM240 140.8H208C206.2 140.8 204.8 142.2 204.8 144V176C204.8 177.8 206.2 179.2 208 179.2H240C241.8 179.2 243.2 177.8 243.2 176V144C243.2 142.2 241.8 140.8 240 140.8zM192 240C192 231.2 199.2 224 208 224H240C248.8 224 256 231.2 256 240V272C256 280.8 248.8 288 240 288H208C199.2 288 192 280.8 192 272V240zM204.8 240V272C204.8 273.8 206.2 275.2 208 275.2H240C241.8 275.2 243.2 273.8 243.2 272V240C243.2 238.2 241.8 236.8 240 236.8H208C206.2 236.8 204.8 238.2 204.8 240zM240 320C248.8 320 256 327.2 256 336V368C256 376.8 248.8 384 240 384H208C199.2 384 192 376.8 192 368V336C192 327.2 199.2 320 208 320H240zM240 332.8H208C206.2 332.8 204.8 334.2 204.8 336V368C204.8 369.8 206.2 371.2 208 371.2H240C241.8 371.2 243.2 369.8 243.2 368V336C243.2 334.2 241.8 332.8 240 332.8zM192 432C192 423.2 199.2 416 208 416H240C248.8 416 256 423.2 256 432V464C256 472.8 248.8 480 240 480H208C199.2 480 192 472.8 192 464V432zM204.8 432V464C204.8 465.8 206.2 467.2 208 467.2H240C241.8 467.2 243.2 465.8 243.2 464V432C243.2 430.2 241.8 428.8 240 428.8H208C206.2 428.8 204.8 430.2 204.8 432zM336 32C344.8 32 352 39.16 352 48V80C352 88.84 344.8 96 336 96H304C295.2 96 288 88.84 288 80V48C288 39.16 295.2 32 304 32H336zM336 44.8H304C302.2 44.8 300.8 46.23 300.8 48V80C300.8 81.77 302.2 83.2 304 83.2H336C337.8 83.2 339.2 81.77 339.2 80V48C339.2 46.23 337.8 44.8 336 44.8zM288 144C288 135.2 295.2 128 304 128H336C344.8 128 352 135.2 352 144V176C352 184.8 344.8 192 336 192H304C295.2 192 288 184.8 288 176V144zM300.8 144V176C300.8 177.8 302.2 179.2 304 179.2H336C337.8 179.2 339.2 177.8 339.2 176V144C339.2 142.2 337.8 140.8 336 140.8H304C302.2 140.8 300.8 142.2 300.8 144zM336 224C344.8 224 352 231.2 352 240V272C352 280.8 344.8 288 336 288H304C295.2 288 288 280.8 288 272V240C288 231.2 295.2 224 304 224H336zM336 236.8H304C302.2 236.8 300.8 238.2 300.8 240V272C300.8 273.8 302.2 275.2 304 275.2H336C337.8 275.2 339.2 273.8 339.2 272V240C339.2 238.2 337.8 236.8 336 236.8zM288 336C288 327.2 295.2 320 304 320H336C344.8 320 352 327.2 352 336V368C352 376.8 344.8 384 336 384H304C295.2 384 288 376.8 288 368V336zM300.8 336V368C300.8 369.8 302.2 371.2 304 371.2H336C337.8 371.2 339.2 369.8 339.2 368V336C339.2 334.2 337.8 332.8 336 332.8H304C302.2 332.8 300.8 334.2 300.8 336zM336 416C344.8 416 352 423.2 352 432V464C352 472.8 344.8 480 336 480H304C295.2 480 288 472.8 288 464V432C288 423.2 295.2 416 304 416H336zM336 428.8H304C302.2 428.8 300.8 430.2 300.8 432V464C300.8 465.8 302.2 467.2 304 467.2H336C337.8 467.2 339.2 465.8 339.2 464V432C339.2 430.2 337.8 428.8 336 428.8zM384 48C384 39.16 391.2 32 400 32H432C440.8 32 448 39.16 448 48V80C448 88.84 440.8 96 432 96H400C391.2 96 384 88.84 384 80V48zM396.8 48V80C396.8 81.77 398.2 83.2 400 83.2H432C433.8 83.2 435.2 81.77 435.2 80V48C435.2 46.23 433.8 44.8 432 44.8H400C398.2 44.8 396.8 46.23 396.8 48zM432 128C440.8 128 448 135.2 448 144V176C448 184.8 440.8 192 432 192H400C391.2 192 384 184.8 384 176V144C384 135.2 391.2 128 400 128H432zM432 140.8H400C398.2 140.8 396.8 142.2 396.8 144V176C396.8 177.8 398.2 179.2 400 179.2H432C433.8 179.2 435.2 177.8 435.2 176V144C435.2 142.2 433.8 140.8 432 140.8zM384 240C384 231.2 391.2 224 400 224H432C440.8 224 448 231.2 448 240V272C448 280.8 440.8 288 432 288H400C391.2 288 384 280.8 384 272V240zM396.8 240V272C396.8 273.8 398.2 275.2 400 275.2H432C433.8 275.2 435.2 273.8 435.2 272V240C435.2 238.2 433.8 236.8 432 236.8H400C398.2 236.8 396.8 238.2 396.8 240zM432 320C440.8 320 448 327.2 448 336V368C448 376.8 440.8 384 432 384H400C391.2 384 384 376.8 384 368V336C384 327.2 391.2 320 400 320H432zM432 332.8H400C398.2 332.8 396.8 334.2 396.8 336V368C396.8 369.8 398.2 371.2 400 371.2H432C433.8 371.2 435.2 369.8 435.2 368V336C435.2 334.2 433.8 332.8 432 332.8zM384 432C384 423.2 391.2 416 400 416H432C440.8 416 448 423.2 448 432V464C448 472.8 440.8 480 432 480H400C391.2 480 384 472.8 384 464V432zM396.8 432V464C396.8 465.8 398.2 467.2 400 467.2H432C433.8 467.2 435.2 465.8 435.2 464V432C435.2 430.2 433.8 428.8 432 428.8H400C398.2 428.8 396.8 430.2 396.8 432z"/></svg>