<svg xmlns="http://www.w3.org/2000/svg" viewBox="0 0 448 512"><!--! Font Awesome Pro 6.1.1 by @fontawesome - https://fontawesome.com License - https://fontawesome.com/license (Commercial License) Copyright 2022 Fonticons, Inc. --><path d="M384 224C357.5 224 336 202.5 336 176C336 149.5 357.5 128 384 128C410.5 128 432 149.5 432 176C432 202.5 410.5 224 384 224zM416 176C416 158.3 401.7 144 384 144C366.3 144 352 158.3 352 176C352 193.7 366.3 208 384 208C401.7 208 416 193.7 416 176zM224 224C197.5 224 176 202.5 176 176C176 149.5 197.5 128 224 128C250.5 128 272 149.5 272 176C272 202.5 250.5 224 224 224zM256 176C256 158.3 241.7 144 224 144C206.3 144 192 158.3 192 176C192 193.7 206.3 208 224 208C241.7 208 256 193.7 256 176zM64 128C90.51 128 112 149.5 112 176C112 202.5 90.51 224 64 224C37.49 224 16 202.5 16 176C16 149.5 37.49 128 64 128zM32 176C32 193.7 46.33 208 64 208C81.67 208 96 193.7 96 176C96 158.3 81.67 144 64 144C46.33 144 32 158.3 32 176zM384 384C357.5 384 336 362.5 336 336C336 309.5 357.5 288 384 288C410.5 288 432 309.5 432 336C432 362.5 410.5 384 384 384zM416 336C416 318.3 401.7 304 384 304C366.3 304 352 318.3 352 336C352 353.7 366.3 368 384 368C401.7 368 416 353.7 416 336zM224 288C250.5 288 272 309.5 272 336C272 362.5 250.5 384 224 384C197.5 384 176 362.5 176 336C176 309.5 197.5 288 224 288zM192 336C192 353.7 206.3 368 224 368C241.7 368 256 353.7 256 336C256 318.3 241.7 304 224 304C206.3 304 192 318.3 192 336zM64 384C37.49 384 16 362.5 16 336C16 309.5 37.49 288 64 288C90.51 288 112 309.5 112 336C112 362.5 90.51 384 64 384zM96 336C96 318.3 81.67 304 64 304C46.33 304 32 318.3 32 336C32 353.7 46.33 368 64 368C81.67 368 96 353.7 96 336z"/></svg>