<svg xmlns="http://www.w3.org/2000/svg" viewBox="0 0 512 512"><!--! Font Awesome Pro 6.0.0-beta3 by @fontawesome - https://fontawesome.com License - https://fontawesome.com/license (Commercial License) Copyright 2021 Fonticons, Inc. --><path d="M322.7 234.5c-2.678 2.678-3.029 6.819-1.026 10.03c5.619 9.017 9.527 17.82 11.57 26.69c6.836 29.45 .375 56.72-17.73 74.83c-7.556 7.555-16.82 13.19-26.96 16.33c-24.47 7.887-43.19 30.86-45.52 55.86c-1.99 21.09-10.23 39.39-23.88 52.94c-18.55 18.55-45.13 27.15-74.85 24.22c-30.89-3.047-61.21-18.05-85.39-42.23c-27.31-27.31-42.96-62.61-42.94-96.84c.0176-25.4 8.592-47.37 24.86-63.59c13.37-13.47 31.65-21.72 52.74-23.84c25.38-2.344 47.83-20.58 55.91-45.49c3.199-10.1 8.865-19.47 16.31-27.02c18.12-18.12 45.43-24.58 74.96-17.73c8.849 2.044 17.65 5.952 26.66 11.57c3.076 1.919 7.202 1.808 10.16-1.154C281.2 185.5 280.6 179.4 276.2 176.7C266.3 170.6 255.8 165.8 244.4 163.1C211 155.4 177.4 162.3 154.5 185.1C145.3 194.5 138.3 206 134.3 218.6C128.3 237.1 111.1 251.3 92.14 253C68.52 255.4 46.39 264.5 29.52 281.5c-45.62 45.51-37.38 127.5 18.12 183c55.37 55.38 137.4 63.5 182.9 18c16.1-16.88 26.25-38.84 28.5-62.72c1.75-18.75 15.84-36.16 34.47-42.16c12.5-3.871 24.03-10.88 33.4-20.25c22.87-22.88 29.75-56.38 21.1-89.76c-2.62-11.37-7.457-21.98-13.58-31.83C332.7 231.6 326.7 230.6 322.7 234.5zM160 304c-.002 13.25 5.356 25.25 14.05 33.94c8.685 8.688 20.7 14.07 33.96 14.06c26.5 0 47.1-21.5 47.1-48c0-13.25-5.395-25.25-14.08-33.94c-8.687-8.688-20.67-14.06-33.91-14.06C181.5 256 160 277.5 160 304zM230.6 281.4c6.047 6.051 9.379 14.09 9.381 22.63c0 8.547-3.33 16.58-9.377 22.63c-6.045 6.047-14.08 9.375-22.62 9.375c-8.541 0-16.58-3.328-22.62-9.375C179.3 320.6 175.1 312.6 175.1 304c.002-17.65 14.36-32.01 32-32C216.5 272 224.6 275.3 230.6 281.4zM500.3 23.02l-11.31-11.32c-15.6-15.6-40.97-15.6-56.57 0l-31.4 31.4c-6.607 6.606-10.72 15.36-11.58 24.66L385.1 115.6l-123.6 123.6c-3.115 3.117-3.115 8.196 0 11.31c3.115 3.117 8.197 3.117 11.31 0l123.6-123.6l47.82-4.328c9.302-.8633 18.05-4.977 24.66-11.58l31.4-31.4C515.9 63.98 515.9 38.61 500.3 23.02zM488.1 68.27l-31.4 31.4c-3.978 3.977-9.215 6.43-14.8 6.938l-41.12 3.734l3.734-41.12c.5078-5.594 2.961-10.83 6.937-14.81l31.4-31.4c9.347-9.352 24.59-9.352 33.94 0l11.31 11.31C498.3 43.67 498.3 58.92 488.1 68.27z"/></svg>