<svg xmlns="http://www.w3.org/2000/svg" viewBox="0 0 576 512"><!--! Font Awesome Pro 6.1.1 by @fontawesome - https://fontawesome.com License - https://fontawesome.com/license (Commercial License) Copyright 2022 Fonticons, Inc. --><path d="M312.2 64c-4.425 0-8.006 3.594-8.006 8V240H16.01V72c0-4.406-3.581-8-8.006-8S0 67.59 0 72v368C0 444.4 3.581 448 8.006 448s8.006-3.594 8.006-8V256h288.2v184c0 4.406 3.581 8 8.006 8c4.425 0 8.006-3.594 8.006-8V72C320.3 67.59 316.7 64 312.2 64zM551.1 432h-55.57V72c0-3.031-1.72-5.812-4.425-7.156c-2.721-1.344-5.973-1.062-8.382 .75l-64.08 48c-3.534 2.656-4.253 7.656-1.611 11.22c2.674 3.531 7.694 4.219 11.21 1.594L480.4 88V432h-56.51c-4.425 0-8.006 3.594-8.006 8S419.5 448 423.9 448h128.1C556.4 448 560 444.4 560 440S556.4 432 551.1 432z"/></svg>