<svg xmlns="http://www.w3.org/2000/svg" viewBox="0 0 576 512"><!--! Font Awesome Pro 6.0.0-beta3 by @fontawesome - https://fontawesome.com License - https://fontawesome.com/license (Commercial License) Copyright 2021 Fonticons, Inc. --><path d="M566.6 323.6c-7.641-10.38-18.84-17.12-31.55-19.03c-12.76-2-25.31 1.25-35.58 8.875L381.1 400H263.1c-4.344 0-8-3.656-8-7.969c0-4.344 3.656-8 8-8h78.23c20.36 0 38.09-14.31 41.26-33.34c1.906-11.72-1.359-23.59-8.984-32.53c-7.625-8.969-18.76-14.12-30.53-14.12H183.1c-28.72 0-56.83 9.969-79.15 28.03l-44.29 35.97H8c-4.422 0-8 3.594-8 8s3.578 8 8 8h58.22l48.69-39.53c19.48-15.78 44.01-24.47 69.08-24.47h159.1c7.078 0 13.77 3.094 18.34 8.469c4.639 5.469 6.545 12.44 5.389 19.59c-1.891 11.38-12.84 19.94-25.48 19.94H263.1c-13.23 0-23.1 10.78-23.1 24S250.7 416 263.1 416h123.2l121.8-89.72c6.859-5.094 15.31-7.094 23.69-5.938c8.469 1.281 15.94 5.781 21.05 12.72c5.062 6.875 7.156 15.31 5.875 23.75c-1.281 8.469-5.766 15.91-12.66 20.97l-135.1 99.5C395.5 489.3 375.3 496 354.1 496H8C3.578 496 0 499.6 0 504S3.578 512 8 512h346.1c23.72 0 47.33-7.75 66.45-21.84l135.1-99.5c10.31-7.594 17.06-18.75 18.98-31.44C577.4 346.6 574.2 333.9 566.6 323.6zM277.1 132l7.844 2.266c35.38 10.14 56.84 17.7 52.22 44.47c-4.531 26.2-37.19 30.64-63.81 26.47C262.8 203.5 249.7 198.8 238 194.6L232 192.4C227.8 190.1 223.3 193.1 221.8 197.3C220.3 201.5 222.5 206 226.7 207.5l5.938 2.125c12.28 4.438 26.25 9.469 39.16 11.41C274.6 221.5 277.2 221.5 280 221.7V248C280 252.4 283.6 256 288 256S296 252.4 296 248V222.4c31.28-1.402 53.56-16.33 57.78-40.87c7.344-42.28-31.97-53.53-63.56-62.56L282.5 116.7c-32.69-9.609-48.53-18.77-44.5-42.17c4.531-26.22 37.16-30.61 63.78-26.47c7.312 1.141 16.12 3.531 27.66 7.5c4.094 1.406 8.719-.7656 10.16-4.953c1.438-4.172-.7813-8.734-4.969-10.17c-12.44-4.297-22.09-6.891-30.38-8.188C301.4 31.81 298.7 31.72 296 31.47V8c0-4.422-3.587-8-7.993-8S280 3.578 280 8v23.04c-31.29 1.414-53.56 16.22-57.78 40.78C214.1 113.6 254.4 125.1 277.1 132z"/></svg>