<svg xmlns="http://www.w3.org/2000/svg" viewBox="0 0 512 512"><!--! Font Awesome Pro 6.1.1 by @fontawesome - https://fontawesome.com License - https://fontawesome.com/license (Commercial License) Copyright 2022 Fonticons, Inc. --><path d="M400 207.9c-12.91 0-24.6 5.182-33.24 13.5C361.1 199.1 342.9 183.9 320 183.9c-26.47 0-48 21.53-48 48v26.69c-9.618-6.669-21.19-10.53-33.36-10.53c-3.905 0-7.872 .3967-11.86 1.224L122.4 271.7l96.35-235.9C227.1 15.57 247.7 15.1 248.3 15.1c16.79 0 31.98 13.34 31.98 31.96c0 4.172-.8282 8.349-2.477 12.33L212.4 220.4C212 221.4 211.8 222.4 211.8 223.4c0 3.467 2.716 8.013 7.983 8.013c3.154 0 6.141-1.895 7.421-4.975l65.38-160.1c2.473-5.93 3.707-12.16 3.707-18.4C296.3 22.6 276.1 0 248.3 0c-.9404 0-31.75-.7484-44.4 29.68l-15.72 38.48L172.3 29.64C164.7 11.17 146.8 .0036 127.1 .0036c-25.1 0-47.99 19.85-47.99 48.01c0 6.222 1.227 12.44 3.68 18.37l53 127.1L103.5 275.6c-.0459 .113-.062 .2253-.062 .3373c0 .2631 .0783 .6293 .0783 .8963c0 .0692 .015-.07 0 0C80.46 284.8 64 306.3 64 331.1v64.36c0 18.06 8.188 34.78 22.44 45.84l48.03 37.36C162.1 500.2 196.6 512 231.6 512h66.5C380.8 512 448 444.8 448 362.1V255.1C448 229.5 426.5 207.9 400 207.9zM98.44 60.25C96.81 56.3 95.99 52.14 95.99 47.98c0-16.8 13.38-31.98 32.03-31.98c.624 0 21.21-.4387 29.54 19.75l22.03 53.51L145.3 173.3L98.44 60.25zM288 231.9c0-17.64 14.34-32 32-32s32 14.36 32 32v72c0 17.64-14.34 31.1-32 31.1c-15.22 0-23.32-9.872-25.74-12.81c1.761-5.703 2.719-11.62 2.719-17.6c0-14.45-5.555-24.64-8.981-30.09V231.9zM298.1 496h-66.5c-31.47 0-62.47-10.64-87.31-29.94l-48.03-37.36C85.94 420.7 80 408.6 80 395.5v-64.36c0-19.72 13.1-37.03 33.28-41.14l116.8-25.05c2.935-.6122 5.86-.9065 8.741-.9065c20.92 0 42.23 16.65 42.23 42.13c0 19.07-13.22 36.79-33.29 41.07L170.5 363.8c-3.743 .8136-6.308 4.122-6.308 7.801c0 3.983 3.005 8.005 8.052 8.005c.5339 0 1.079-.0487 1.631-.1496l77.28-16.55c14.8-3.189 27.48-11.87 35.93-24.41c8.855 8.465 20.4 13.49 32.92 13.49c12.91 0 24.6-5.258 33.23-13.58C358 359.8 377.1 375.9 400 375.9c12.27 0 23.36-4.764 31.86-12.37C431.1 436.7 371.4 496 298.1 496zM432 327.9c0 17.64-14.34 32-32 32s-31.1-14.21-31.1-31.85L368 255.9c0-17.64 14.34-32 32-32s32 14.36 32 32V327.9z"/></svg>