<svg xmlns="http://www.w3.org/2000/svg" viewBox="0 0 640 512"><!--! Font Awesome Pro 6.1.1 by @fontawesome - https://fontawesome.com License - https://fontawesome.com/license (Commercial License) Copyright 2022 Fonticons, Inc. --><path d="M436 17.56C422.3 5.639 405.7 0 388.9 0c-20.99 0-42.15 8.789-57.78 25.28L319.1 36.94L308.9 25.31C293.2 8.814 272.1 .0039 251.1 0C234.3 0 217.6 5.639 203.1 17.56C168.7 48.25 166.7 103.4 198.4 136.6l108.9 114.5C310.7 254.8 315.4 256.7 320 256.7s9.252-1.848 12.75-5.545l109-114.5C473.3 103.4 471.4 48.25 436 17.56zM321.2 240L318.8 240L209.9 125.5c-12.2-12.8-18.7-30.61-17.85-48.87C192.9 58.18 200.9 41.5 214.5 29.67C224.7 20.75 237.4 16.04 251.1 16.04c17.09 .0039 33.91 7.414 46.2 20.39L320 60.19l22.73-23.8c12.25-12.93 29.07-20.35 46.16-20.35c13.73 0 26.4 4.711 36.66 13.66c13.57 11.78 21.54 28.4 22.43 46.83c.8867 18.3-5.602 36.16-17.78 49L321.2 240zM600 62.87c-22.09 0-40 17.95-40 40.1v153.2l-62.2 84.94c-5.562 6.963-13.69 10.52-21.85 10.52c-7.121 0-14.27-2.702-19.76-8.209c-10.08-10.1-10.97-26.18-2.07-37.34l18.86-30.63c11.05-13.85 8.812-34.02-5-45.12c-5.875-4.723-12.92-7.01-19.92-7.01c-9.398 0-18.73 4.12-25.05 12.02L373 297.1C359.4 315 352 336.2 352 358.1l-.0313 121.9c0 17.72 14.36 32.04 32.03 32.04h96.02c9.715 0 18.9-4.405 24.96-12.01l120.1-151.7C635.1 336.1 640 322.8 640 308.2V102.1C640 80.82 622.1 62.87 600 62.87zM624 308.2c0 10.9-3.738 21.58-10.52 30.08l-120.1 151.6c-3.047 3.822-7.594 6.015-12.47 6.015l-95.92-.0009c-8.82 0-16.1-7.197-16.1-16.04v-121.9c0-18.13 6.219-35.91 17.52-50.07l49.99-62.66c3.531-4.418 13.45-9.767 22.47-2.514c6.383 5.123 8.633 14.91 1.906 23.34l-18.92 30.73c-13.29 17.53-11.69 42.21 3.922 57.84c8.293 8.326 19.33 12.91 31.07 12.91c13.44 0 25.95-6.023 34.34-16.54L576 261.4V102.1c0-13.27 10.77-24.06 24-24.06s24 10.79 24 24.06V308.2zM216.1 235.3C210.7 227.4 201.3 223.3 191.9 223.3c-7 0-14.05 2.287-19.92 7.01C158.2 241.4 155.1 261.6 167 275.4l18.86 30.63c8.898 11.16 8.008 27.24-2.07 37.34c-5.492 5.506-12.64 8.209-19.76 8.209c-8.164 0-16.29-3.556-21.85-10.52L80 256.1V102.1c0-22.15-17.91-40.1-40-40.1S0 80.82 0 102.1v205.3c0 14.58 4.949 28.72 14.03 40.1l120.1 151.7c6.066 7.605 15.25 12.01 24.96 12.01H256c17.67 0 32.03-14.32 32.03-32.04L288 358.1c0-21.85-7.414-43.03-21.02-60.09L216.1 235.3zM272 479.9c0 8.843-7.18 16.04-16 16.04H159.1c-4.879 0-9.426-2.193-12.47-6.015l-120.1-151.6C19.74 329.8 16 319.1 16 308.2V102.1c0-13.27 10.77-24.06 24-24.06S64 89.71 64 102.1v158.4l65.7 89.71c8.391 10.52 20.91 16.54 34.34 16.54c11.73 0 22.77-4.582 31.07-12.91c15.61-15.63 17.21-40.31 3.922-57.84L180.1 266.2C173.4 257.7 175.6 247.9 182 242.8c9.023-7.253 18.94-1.903 22.47 2.514L254.5 307.1C265.8 322.1 272 339.9 272 358.1V479.9z"/></svg>