<svg xmlns="http://www.w3.org/2000/svg" viewBox="0 0 448 512"><!--! Font Awesome Pro 6.0.0-beta3 by @fontawesome - https://fontawesome.com License - https://fontawesome.com/license (Commercial License) Copyright 2021 Fonticons, Inc. --><path d="M232 424v-112c0-4.418-3.582-8-8-8S216 307.6 216 312v112c0 4.418 3.582 8 8 8S232 428.4 232 424zM393.8 224h-12.88c-9.094-19.38-27.97-32-48.65-32h-15.38c-7.25 0-13.94 1.188-20.06 3.5C286.7 183.2 271.6 176 255.4 176h-8.594C238.9 176 231.1 177.8 224 181.1V56C224 25.12 198.9 0 168 0S112 25.12 112 56v288C112 348.4 115.6 352 120 352S128 348.4 128 344v-288C128 33.94 145.9 16 168 16S208 33.94 208 56v139.1c0 5.328 4.521 8.017 7.996 8.017C223.1 203.1 227.3 192 246.8 192h8.594c13.06 0 25.09 6.656 32.19 17.81c1.515 2.408 4.079 3.713 6.729 3.713c4.993 0 7.861-5.526 22.65-5.526h15.38c15.59 0 30.34 11.06 35.84 26.91c1.078 3.12 4.01 5.417 7.136 5.417c.3179 0 .6378-.0237 .9579-.0728c0 0 2.281-.25 2.312-.25h15.28c21.03 0 38.16 17.12 38.16 38.16v102.8c0 63.44-51.63 115.1-115.1 115.1H224c-42.5 0-85.53-20.72-109.8-53L23.22 329.6c-4.727-6.286-7.218-13.76-7.218-21.49c0-29.37 26.98-36.13 35.94-36.13c24.38 0 26.32 17.61 35.23 17.61c4.6 0 8.028-3.741 8.028-7.993c0-7.458-18.63-25.6-43.21-25.6c-29.14 0-51.99 23.73-51.99 52.11c0 11.19 3.608 22.04 10.57 31.3l91.03 113.4C128.6 488.8 176.6 512 224 512h92.94c72.28 0 131.1-58.78 131.1-131.1V278.2C447.1 248.3 423.7 224 393.8 224zM296 424v-112c0-4.418-3.583-8-8.001-8S280 307.6 280 312v112c0 4.418 3.58 8 7.998 8S296 428.4 296 424zM360 424v-112c0-4.418-3.582-8-8-8s-8 3.582-8 8v112c0 4.418 3.582 8 8 8S360 428.4 360 424z"/></svg>