<svg xmlns="http://www.w3.org/2000/svg" viewBox="0 0 512 512"><!--! Font Awesome Pro 6.1.1 by @fontawesome - https://fontawesome.com License - https://fontawesome.com/license (Commercial License) Copyright 2022 Fonticons, Inc. --><path d="M9.38 307.6C17.02 297.2 28.22 290.5 40.93 288.6C53.69 286.6 66.24 289.8 76.5 297.4L194 384H280C284.4 384 288 380.4 288 376.1C288 371.7 284.4 368.1 280 368.1H233.8C213.4 368.1 195.7 353.8 192.5 334.7C190.6 323 193.9 311.1 201.5 302.2C209.1 293.2 220.3 288.1 232 288.1H360C388.7 288.1 416.8 298 439.2 316.1L483.5 352.1H504C508.4 352.1 512 355.7 512 360.1C512 364.5 508.4 368.1 504 368.1H477.8L429.1 328.5C409.6 312.8 385.1 304.1 360 304.1H232C224.1 304.1 218.3 307.2 213.7 312.5C209.1 318 207.2 324.1 208.3 332.1C210.2 343.5 221.2 352.1 233.8 352.1H280C293.3 352.1 304 362.8 304 376.1C304 389.3 293.3 400 280 400H188.8L66.99 310.3C60.13 305.2 51.67 303.2 43.3 304.4C34.83 305.7 27.36 310.2 22.25 317.1C17.19 323.1 15.1 332.4 16.38 340.8C17.66 349.3 22.14 356.7 29.03 361.8L164.1 461.3C180.5 473.3 200.7 480 221 480H504C508.4 480 512 483.6 512 488C512 492.4 508.4 496 504 496H221C197.3 496 173.7 488.2 154.6 474.2L19.54 374.7C9.223 367.1 2.473 355.9 .5514 343.3C-1.371 330.6 1.77 317.9 9.379 307.6L9.38 307.6zM438.6 188.4C430.1 198.8 419.8 205.5 407.1 207.4C394.3 209.4 381.8 206.2 371.5 198.5L285.1 143.1H199.1C195.6 143.1 191.1 147.6 191.1 151.9C191.1 156.3 195.6 159.9 199.1 159.9H246.2C266.6 159.9 284.3 174.2 287.5 193.3C289.4 204.1 286.1 216.9 278.5 225.8C270.9 234.8 259.7 239.9 247.1 239.9H151.1C123.3 239.9 95.15 229.1 72.82 211.9L28.53 175.9H8C3.578 175.9 .0003 172.3 .0003 167.9C.0003 163.5 3.578 159.9 8 159.9H34.22L82.9 199.5C102.4 215.2 126.9 223.9 151.1 223.9H247.1C255 223.9 261.7 220.8 266.3 215.5C270.9 209.1 272.8 203 271.7 195.9C269.8 184.5 258.8 175.9 246.2 175.9H199.1C186.7 175.9 175.1 165.2 175.1 151.9C175.1 138.7 186.7 127.1 199.1 127.1H291.2L381 185.7C387.9 190.8 396.3 192.8 404.7 191.6C413.2 190.3 420.6 185.8 425.7 178.9C430.8 172 432.9 163.6 431.6 155.2C430.3 146.7 425.9 139.2 418.1 134.2L315.9 66.71C299.5 54.65 279.3 47.1 258.1 47.1H8C3.578 47.1 .0003 44.4 .0003 39.1C.0003 35.59 3.578 32 8 32H258.1C282.7 32 306.3 39.75 325.4 53.84L428.5 121.3C438.8 128.9 445.5 140.1 447.4 152.7C449.4 165.4 446.2 178.1 438.6 188.4V188.4z"/></svg>