<svg xmlns="http://www.w3.org/2000/svg" viewBox="0 0 640 512"><!--! Font Awesome Pro 6.1.1 by @fontawesome - https://fontawesome.com License - https://fontawesome.com/license (Commercial License) Copyright 2022 Fonticons, Inc. --><path d="M432 112C432 173.9 381.9 224 320 224C258.1 224 208 173.9 208 112C208 50.14 258.1 0 320 0C381.9 0 432 50.14 432 112zM320 16C266.1 16 224 58.98 224 112C224 165 266.1 208 320 208C373 208 416 165 416 112C416 58.98 373 16 320 16zM560 104C560 81.91 577.9 64 600 64C622.1 64 640 81.91 640 104V308.7C640 323.3 635 337.4 625.1 348.7L504.1 500C498.9 507.6 489.7 512 480 512H384C366.3 512 351.1 497.7 351.1 479.1L352 358.4C352 336.6 359.4 315.5 373 298.5L423 236C429.3 228.1 438.7 224 448.1 224C455.1 224 462.1 226.3 467.1 231C481.8 242.1 484 262.2 472.1 276L454.1 306.6C445.2 317.7 446.1 333.7 456.2 343.8C461.7 349.3 468.8 351.1 475.1 351.1C484.1 351.1 492.2 348.4 497.8 341.5L560 256.8V104zM613.5 338.7C620.3 330.3 624 319.6 624 308.7V104C624 90.77 613.2 80 600 80C586.8 80 576 90.77 576 104V262L510.3 351.5C501.9 361.1 489.4 367.1 475.1 367.1C464.2 367.1 453.2 363.4 444.9 355.1C429.3 339.5 427.7 314.9 440.1 297.4L459.9 266.8C466.6 258.4 464.4 248.6 457.1 243.5C448.1 236.3 439 241.6 435.5 245.1L385.5 308.5C374.2 322.6 368 340.4 368 358.4V480C368 488.8 375.3 495.1 384.1 495.1L480 496C484.9 496 489.4 493.8 492.5 490L613.5 338.7zM191.9 224C201.3 224 210.7 228.1 216.1 236L266.1 298.5C280.6 315.5 288 336.6 288 358.4L288 479.1C288 497.7 273.7 512 256 512H159.1C150.3 512 141.1 507.6 135 500L14.03 348.7C4.949 337.4 0 323.3 0 308.7V104C0 81.91 17.91 64 40 64C62.09 64 80 81.91 80 104V256.8L142.2 341.5C147.8 348.4 155.9 351.1 164 351.1C171.2 351.1 178.3 349.3 183.8 343.8C193.9 333.7 194.8 317.7 185.9 306.6L167 276C155.1 262.2 158.2 242.1 172 231C177.9 226.3 184.9 224 191.9 224V224zM256 496C264.8 496 272 488.8 272 479.1V358.4C272 340.3 265.8 322.6 254.5 308.5L204.5 245.1C200.1 241.6 191 236.3 182 243.5C175.6 248.6 173.4 258.4 180.1 266.8L199 297.4C212.3 314.9 210.7 339.5 195.1 355.1C186.8 363.4 175.8 367.1 164 367.1C150.6 367.1 138.1 361.1 129.7 351.5L64 262V104C64 90.77 53.23 80 40 80C26.77 80 16 90.77 16 104V308.7C16 319.6 19.74 330.3 26.52 338.7L147.5 490C150.6 493.8 155.1 496 159.1 496L256 496z"/></svg>