<svg xmlns="http://www.w3.org/2000/svg" viewBox="0 0 512 512"><!--! Font Awesome Pro 6.0.0-beta3 by @fontawesome - https://fontawesome.com License - https://fontawesome.com/license (Commercial License) Copyright 2021 Fonticons, Inc. --><path d="M309.1 252.4C315.6 254.7 321.6 256 328 256c26.47 0 48-21.53 48-48V160c0-4.406-3.578-8-8-8S360 155.6 360 160v48c0 17.66-14.36 32-32 32s-32-14.34-32-32V120c0-22.06 17.94-40 40-40h78.92c14.08 0 27.05 7.656 33.84 20l35.09 63.63C491.8 178 496 194.3 496 210.8v127.9c0 51.19-41.64 93.06-92.84 93.31H376c-4.422 0-8 3.594-8 8S371.6 448 376 448h27.2C463.2 447.7 512 398.7 512 338.7V210.8c0-19.12-4.891-38.13-14.14-54.88l-35.09-63.63C453.2 74.84 434.8 64 414.9 64H336c-28.14 0-51.27 20.93-55.19 48H48C21.53 112 0 133.5 0 160s21.53 48 48 48h100.5C140.8 216.5 136 227.7 136 240c0 22.85 16.08 41.95 37.5 46.76C165.2 295.4 160 307.1 160 320c0 22.9 16.14 42.04 37.63 46.8C189.3 375.4 184.2 387.1 184.2 400c0 26.47 21.53 48 48 48h71.8c26.47 0 48-21.53 48-48c0-22.89-16.14-42.03-37.62-46.8C322.6 344.6 327.8 332.9 327.8 320c0-20.65-13.17-38.13-31.5-44.9C302.8 269.1 307.6 261.3 309.1 252.4zM232.2 368h71.82c17.64 0 31.98 14.34 31.98 32s-14.36 32-32 32H232.2c-17.64 0-32-14.34-32-32S214.5 368 232.2 368zM208 288h71.91c17.64 0 31.91 14.34 31.91 32s-14.27 32-31.91 32H208c-17.64 0-32-14.34-32-32S190.4 288 208 288zM280 128v66.95C274.8 193.1 269.4 192 263.8 192H48c-17.64 0-32-14.34-32-32s14.36-32 32-32H280zM263.8 272H184c-17.64 0-32-14.34-32-32s14.36-32 32-32h79.81c6.029 0 11.66 1.965 16.7 5.098c1.258 11.7 6.576 22.13 14.71 29.78C293.7 259.1 280.4 272 263.8 272z"/></svg>