<svg xmlns="http://www.w3.org/2000/svg" viewBox="0 0 640 512"><!--! Font Awesome Pro 6.0.0-beta3 by @fontawesome - https://fontawesome.com License - https://fontawesome.com/license (Commercial License) Copyright 2021 Fonticons, Inc. --><path d="M72 216C72 220.4 75.59 224 80 224s8-3.594 8-8v-64h64c4.406 0 7.988-3.589 7.988-7.995S156.4 136 152 136h-64v-64C88 67.59 84.41 64 80 64S72 67.59 72 72v64h-64c-4.406 0-7.992 3.59-7.992 7.996S3.594 152 8 152h64V216zM304 416c4.406 0 8-3.594 8-8v-32h32c4.406 0 8-3.595 8-8.001S348.4 360 344 360h-32v-32C312 323.6 308.4 320 304 320s-8 3.594-8 8v32h-32C259.6 360 256 363.6 256 367.1S259.6 376 264 376h32v32C296 412.4 299.6 416 304 416zM631.1 424H568.1v-64c0-4.406-3.636-8-8.047-8c-4.408 0-7.963 3.594-7.963 8v64h-64.04c-4.41 0-7.996 3.589-7.996 7.995S483.6 440 488 440h64.04v64c0 4.406 3.555 8 7.963 8c4.41 0 8.047-3.594 8.047-8v-64h63.94c4.41 0 7.995-3.589 7.995-7.995S636.4 424 631.1 424zM479.6 469.9c-5.643 0-34.62 26.13-87.7 26.13h-62.78c-49.53 0-96.08-19.3-131.1-54.34l-107.9-108.1c-6.673-6.681-10.11-15.52-10.11-24.11c0-18.01 15.08-29.91 29.54-29.91c8.452 0 16.49 3.061 22.45 9.041l62.03 61.14c1.513 1.503 3.521 2.291 5.582 2.291c4.523 0 8.028-3.635 8.028-7.994v-272c0-13.23 10.78-24 24.03-24c13.23 0 24.02 10.77 24.02 24L255.9 240c0 13.23 10.56 24 23.81 24c13.23 0 24.15-10.77 24.15-24L303.7 40c0-13.23 10.78-24 24.02-24c13.25 0 24.03 10.77 24.03 24l.1667 200c0 13.23 10.6 24 23.83 24c13.25 0 24.02-10.77 24.02-24V72c0-13.23 10.77-24 24.02-24s24.02 10.77 24.02 24l.1354 168c0 13.23 10.65 24 24.02 24c13.23 0 24-10.77 24-24V136c0-13.23 10.78-24 24.03-24S544 122.8 544 136v176C544 316.4 547.6 320 552 320s8-3.578 8-8v-176C560 113.9 542 96 519.1 96c-22.08 0-40.03 17.94-40.03 40l.0313 104c0 4.406-3.625 8-8.172 8c-4.422 0-8.016-3.594-8.016-8V72c0-22.06-17.95-40-40.02-40s-40.02 17.94-40.02 40l.1709 168c0 4.406-3.765 8-8.187 8c-4.406 0-8-3.594-8-8V40c0-22.06-17.83-40-39.9-40C305.8 0 287.7 17.94 287.7 40L287.9 240c0 4.406-3.792 8-8.198 8c-4.422 0-8.016-3.594-8.016-8V72c0-22.06-17.95-40-40.02-40C209.6 32 191.6 49.94 191.6 72v252.9L143.3 277.2C134.4 268.4 122.4 263.5 109.9 263.5c-10.51 0-45.84 8.368-45.84 45.91c0 12.73 5.001 25.69 14.75 35.44l107.9 108.1C224.8 491 275.3 512 329.1 512h62.78c47.05 0 95.7-23.48 95.7-34.13C487.6 473.5 484.1 469.9 479.6 469.9z"/></svg>