<svg xmlns="http://www.w3.org/2000/svg" viewBox="0 0 576 512"><!--! Font Awesome Pro 6.0.0-beta3 by @fontawesome - https://fontawesome.com License - https://fontawesome.com/license (Commercial License) Copyright 2021 Fonticons, Inc. --><path d="M287.1 256c52.1 0 95.1-42.13 95.1-93.1c0-40-57.13-120.8-83.25-155.6C297.5 2.125 292.8 0 287.1 0S278.4 2.125 275.2 6.375C249.1 41.25 191.1 122 191.1 162C191.1 213.9 234.1 256 287.1 256zM287.1 16.01c49.36 65.91 80.02 121.8 80.02 145.1C367.1 205 332.1 240 287.1 240S207.1 205 207.1 162C207.1 137.8 238.7 81.89 287.1 16.01zM566.6 323.6c-7.64-10.38-18.84-17.12-31.55-19.03c-12.77-2-25.31 1.25-35.58 8.875L381.1 400H263.1c-4.344 0-7.1-3.656-7.1-7.969c0-4.344 3.656-8 7.1-8h78.23c20.36 0 38.09-14.31 41.26-33.34c1.906-11.72-1.359-23.59-8.984-32.53c-7.625-8.969-18.76-14.12-30.53-14.12H183.1c-28.72 0-56.83 9.969-79.15 28.03l-44.3 35.97H7.1C3.578 368 0 371.6 0 376s3.578 8 7.1 8h58.22l48.69-39.53c19.48-15.78 44.01-24.47 69.08-24.47h159.1c7.078 0 13.77 3.094 18.34 8.469c4.64 5.469 6.547 12.44 5.39 19.59c-1.891 11.38-12.84 19.94-25.48 19.94H263.1c-13.23 0-23.1 10.78-23.1 24S250.7 416 263.1 416h123.2l121.8-89.72c6.859-5.094 15.31-7.094 23.69-5.938c8.468 1.281 15.94 5.781 21.05 12.72c5.062 6.875 7.156 15.31 5.875 23.75c-1.281 8.469-5.765 15.91-12.66 20.97l-135.1 99.5C395.5 489.3 375.3 496 354.1 496H7.1C3.578 496 0 499.6 0 504S3.578 512 7.1 512h346.1c23.72 0 47.33-7.75 66.45-21.84l135.1-99.5c10.31-7.594 17.06-18.75 18.98-31.44C577.4 346.6 574.2 333.9 566.6 323.6z"/></svg>