<svg xmlns="http://www.w3.org/2000/svg" viewBox="0 0 640 512"><!--! Font Awesome Pro 6.0.0-beta3 by @fontawesome - https://fontawesome.com License - https://fontawesome.com/license (Commercial License) Copyright 2021 Fonticons, Inc. --><path d="M607.1 151.8c-4.422 0-8 3.596-8 8.004v128.1c0 30.89-25.12 56.03-56 56.03h-216V127.8c0-4.409-3.578-8.004-8-8.004s-8 3.596-8 8.004v216.1h-216c-30.88 0-56-25.14-56-56.03V159.8c0-4.409-3.578-8.004-8-8.004S23.1 155.5 23.1 159.9L23.1 287.9c0 39.71 32.3 72.04 72 72.04h216v88.05h-160c-30.87 0-55.1 25.14-55.1 56.03c0 4.409 3.578 8.004 8 8.004s8-3.596 8-8.004c0-22.07 17.94-40.02 39.1-40.02h336c22.06 0 40 17.95 40 40.02c0 4.409 3.578 8.004 8 8.004s8-3.596 8-8.004c0-30.89-25.12-56.03-56-56.03h-160v-88.05h216c39.7 0 72-32.33 72-72.04l.0001-127.1C615.1 155.5 612.4 151.8 607.1 151.8zM87.1 159.8v128.1c0 4.409 3.578 8.06 8 8.06s7.1-3.652 7.1-8.06l.0002-127.9c0-4.409-3.578-8.126-8-8.126S87.1 155.4 87.1 159.8zM151.1 159.8v128.1c0 4.409 3.578 8.06 8 8.06s7.1-3.652 7.1-8.06l.0002-127.9c0-4.409-3.578-8.126-8-8.126S151.1 155.4 151.1 159.8zM215.1 159.8v128.1c0 4.409 3.578 8.06 8 8.06s7.1-3.652 7.1-8.06l.0002-127.9c0-4.409-3.578-8.126-8-8.126S215.1 155.4 215.1 159.8zM423.1 287.9V159.8c0-4.409-3.578-8.004-8-8.004s-7.1 3.717-7.1 8.126l-.0002 127.9c0 4.409 3.578 8.06 8 8.06S423.1 292.3 423.1 287.9zM487.1 287.9V159.8c0-4.409-3.578-8.004-8-8.004s-7.1 3.717-7.1 8.126l-.0002 127.9c0 4.409 3.578 8.06 8 8.06S487.1 292.3 487.1 287.9zM551.1 287.9V159.8c0-4.409-3.578-8.004-8-8.004s-7.1 3.717-7.1 8.126l-.0002 127.9c0 4.409 3.578 8.06 8 8.06S551.1 292.3 551.1 287.9zM320 95.89c17.64 0 31.97-15.65 31.97-34.75c0-16.23-21-50.84-25.2-57.62c-2.938-4.69-10.66-4.69-13.59 0c-4.203 6.785-25.2 41.4-25.2 57.62C287.1 80.24 302.4 95.89 320 95.89zM319.1 23.5c8 14.29 16 30.98 16 37.64c0 10.29-7.172 18.8-15.1 18.8S303.1 71.43 303.1 61.14C303.1 54.48 311.1 37.79 319.1 23.5zM63.1 93.16c0-16.23-21-50.84-25.2-57.62c-2.938-4.69-10.66-4.69-13.59 0c-4.203 6.785-25.2 41.4-25.2 57.62c0 19.1 14.36 34.78 32 34.78S63.1 112.3 63.1 93.16zM15.1 93.16c0-6.66 8-23.36 16-37.64c8 14.29 16 30.98 16 37.64c0 10.29-7.172 18.74-15.1 18.74S15.1 103.4 15.1 93.16zM95.1 127.8c17.64 0 32-15.54 32-34.64c0-16.23-21-50.84-25.2-57.62c-2.938-4.69-10.66-4.69-13.59 0c-4.203 6.785-25.2 41.4-25.2 57.62C63.1 112.3 78.36 127.8 95.1 127.8zM95.1 55.51c8 14.29 16 30.98 16 37.64c0 10.29-7.172 18.74-15.1 18.74s-16-8.452-16-18.74C79.1 86.5 87.1 69.8 95.1 55.51zM159.1 127.8c17.64 0 32-15.54 32-34.64c0-16.23-21-50.84-25.2-57.62c-2.938-4.69-10.66-4.69-13.59 0c-4.203 6.785-25.2 41.4-25.2 57.62C127.1 112.3 142.4 127.8 159.1 127.8zM159.1 55.51c8 14.29 16 30.98 16 37.64c0 10.29-7.172 18.74-15.1 18.74S143.1 103.4 143.1 93.16C143.1 86.5 151.1 69.8 159.1 55.51zM223.1 127.8c17.64 0 32-15.54 32-34.64c0-16.23-21-50.84-25.2-57.62c-2.938-4.69-10.66-4.69-13.59 0c-4.203 6.785-25.2 41.4-25.2 57.62C191.1 112.3 206.4 127.8 223.1 127.8zM223.1 55.51c8 14.29 16 30.98 16 37.64c0 10.29-7.172 18.74-15.1 18.74S207.1 103.4 207.1 93.16C207.1 86.5 215.1 69.8 223.1 55.51zM409.2 35.53c-4.203 6.785-25.2 41.4-25.2 57.62c0 19.1 14.36 34.64 32 34.64s32-15.54 32-34.64c0-16.23-21-50.84-25.2-57.62C419.9 30.84 412.1 30.84 409.2 35.53zM415.1 111.9c-8.828 0-16-8.452-16-18.74c0-6.66 8-23.36 16-37.64c8 14.29 16 30.98 16 37.64C431.1 103.4 424.8 111.9 415.1 111.9zM473.2 35.53c-4.203 6.785-25.2 41.4-25.2 57.62c0 19.1 14.36 34.64 32 34.64s32-15.54 32-34.64c0-16.23-21-50.84-25.2-57.62C483.9 30.84 476.1 30.84 473.2 35.53zM479.1 111.9c-8.828 0-16-8.452-16-18.74c0-6.66 8-23.36 16-37.64c8 14.29 16 30.98 16 37.64C495.1 103.4 488.8 111.9 479.1 111.9zM537.2 35.53c-4.203 6.785-25.2 41.4-25.2 57.62c0 19.1 14.36 34.64 32 34.64s32-15.54 32-34.64c0-16.23-21-50.84-25.2-57.62C547.9 30.84 540.1 30.84 537.2 35.53zM543.1 111.9c-8.828 0-16-8.452-16-18.74c0-6.66 8-23.36 16-37.64c8 14.29 16 30.98 16 37.64C559.1 103.4 552.8 111.9 543.1 111.9zM614.8 35.53c-2.938-4.69-10.66-4.69-13.59 0c-4.203 6.785-25.2 41.4-25.2 57.62c0 19.1 14.36 34.78 32 34.78s31.1-15.67 31.1-34.78C639.1 76.93 618.1 42.32 614.8 35.53zM607.1 111.9c-8.828 0-16-8.452-16-18.74c0-6.66 8-23.36 16-37.64c8 14.29 16 30.98 16 37.64C623.1 103.4 616.8 111.9 607.1 111.9z"/></svg>