<svg xmlns="http://www.w3.org/2000/svg" viewBox="0 0 512 512"><!--! Font Awesome Pro 6.0.0-beta3 by @fontawesome - https://fontawesome.com License - https://fontawesome.com/license (Commercial License) Copyright 2021 Fonticons, Inc. --><path d="M448 32h-384c-35.35 0-64 28.65-64 64v320c0 35.35 28.65 64 64 64h384c35.35 0 64-28.65 64-64V96C512 60.65 483.3 32 448 32zM496 416c0 26.47-21.53 48-48 48H64c-26.47 0-48-21.53-48-48v-64c0-26.47 21.53-48 47.1-48h384c26.47 0 48 21.53 48 48V416zM496 310.1C484.3 296.7 467.2 288 448 288h-384c-19.23 0-36.27 8.652-47.1 22.07V96c0-26.47 21.53-48 48-48h383.1c26.47 0 48 21.53 48 48V310.1zM320 352c-17.67 0-32 14.33-32 32s14.33 32 32 32s32-14.33 32-32S337.7 352 320 352zM320 400c-8.824 0-16-7.176-16-16s7.176-16 16-16s16 7.176 16 16S328.8 400 320 400zM416 352c-17.67 0-32 14.33-32 32s14.33 32 32 32s32-14.33 32-32S433.7 352 416 352zM416 400c-8.824 0-16-7.176-16-16s7.176-16 16-16s16 7.176 16 16S424.8 400 416 400z"/></svg>