<svg xmlns="http://www.w3.org/2000/svg" viewBox="0 0 640 512"><!--! Font Awesome Pro 6.1.1 by @fontawesome - https://fontawesome.com License - https://fontawesome.com/license (Commercial License) Copyright 2022 Fonticons, Inc. --><path d="M638.5 375.2c-18.15-84.1-75.09-141.7-143.9-149.3l-25.95-133.8c-3.219-19.25-14.34-36.56-30.53-47.56c-16.16-10.94-36.34-14.94-55.41-10.81L191.6 74.22C161.1 80.68 138.3 105.9 134.9 137.1l-6.627 78.32c-61.05 18.99-109.7 76.11-126.7 154.9c-3.938 18.72-.3438 38.22 9.813 53.47C21.62 439.2 37.13 448 53.91 448H592c14.94 0 27.16-7.438 37.34-22.72C638.9 411 642.2 392.8 638.5 375.2zM150.8 138.7c2.656-24.16 20.38-43.78 44.09-48.81l191.1-40.63c14.88-3.125 30.53-.0625 43.09 8.438c12.59 8.531 21.25 22 23.78 37.16l37.47 193.2H323.9L273.9 244.8c-.0625-.0625 .0625 .0625 0 0C243.8 220.8 208.6 207.1 172.4 207.1c-9.432 0-18.65 1.07-27.68 2.781L150.8 138.7zM53.91 431.1c-11.34 0-22-6.219-29.22-17.06c-7.813-11.69-10.5-26.75-7.469-41.25C36.56 284.2 98.91 223.1 172.4 223.1c32.5 0 64.06 11.47 91.25 33.16l97.91 84.41c48.34 41.63 84.66 72.91 131.4 90.44H53.91zM616 416.4c-7.188 10.78-14.59 15.59-24.03 15.59c-100.9 0-143.2-36.44-220-102.6l-29.5-25.44h150.1l14.26 73.53c.7289 3.758 4.019 6.471 7.847 6.471c5.025 0 8.803-4.582 7.847-9.515l-25.62-132.1c59.65 9.148 108.9 61.09 125 136.1C625.7 391.9 623.2 405.7 616 416.4z"/></svg>