<svg xmlns="http://www.w3.org/2000/svg" viewBox="0 0 640 512"><!--! Font Awesome Pro 6.1.1 by @fontawesome - https://fontawesome.com License - https://fontawesome.com/license (Commercial License) Copyright 2022 Fonticons, Inc. --><path d="M608 304C616.9 304 624 296.9 624 288s-7.125-16-15.1-16c-8.875 0-16 7.125-16 16S599.1 304 608 304zM608 368c-8.875 0-16 7.125-16 16s7.125 16 16 16C616.9 400 624 392.9 624 384S616.9 368 608 368zM608 464c-8.875 0-16 7.125-16 16s7.125 16 16 16C616.9 496 624 488.9 624 480S616.9 464 608 464zM544 416c-8.875 0-16 7.125-16 16s7.125 16 16 16C552.9 448 560 440.9 560 432S552.9 416 544 416zM544 320c-8.875 0-16 7.125-16 16s7.125 16 16 16C552.9 352 560 344.9 560 336S552.9 320 544 320zM480 368c-8.875 0-16 7.125-16 16s7.125 16 16 16C488.9 400 496 392.9 496 384S488.9 368 480 368zM368 192c0-22.06-17.94-40-40-40C305.9 152 288 169.9 288 192c0 22.05 17.94 40 39.1 40C350.1 232 368 214.1 368 192zM304 192c0-13.22 10.78-24 24-24S352 178.8 352 192s-10.78 24-24 24S304 205.2 304 192zM477.2 275c-21-47.13-48.49-151.8-73.11-186.8C365.6 33.63 302.5 0 234.1 0L196.4 0c-104 0-192.5 80.89-196.3 184.8c-2.166 59.61 22.99 113.3 63.87 150L64 504C64 508.4 67.58 512 71.99 512C76.4 512 80 508.4 80 504v-176.3l-5.309-4.768C37.39 289.5 16 241.7 16 192c0-97.05 78.95-176 176-176h42.1c62.31 0 120.1 30.46 156.9 81.46c13.81 19.63 30.07 67.56 44.42 109.9c9.477 27.94 18.44 54.35 26.69 73.1c2.309 5.248 2.381 11.42-.7285 16.24C458.4 301.3 453.5 304 447.1 304h-48v32h-78.3c-24.39 0-46.16 17.49-49.27 41.68C268.6 406.1 291.5 432 320 432h77.23c-6.604 18.62-24.4 32-45.26 32h-80l.0254 40.02C271.1 508.4 275.6 512 279.1 512c4.41 0 7.988-3.576 7.988-7.988V480h64.01c28.04 0 51.84-17.99 60.5-43.07C416 426.7 408.1 416 397.2 416h-75.83c-16.71 0-31.64-12.22-33.22-28.86C286.3 368.1 301.3 352 320 352h79.97c8.838 0 16-7.164 16-16l.0075-16h31.99C471.1 320 486.6 296.1 477.2 275z"/></svg>