<svg xmlns="http://www.w3.org/2000/svg" viewBox="0 0 512 512"><!--! Font Awesome Pro 6.1.1 by @fontawesome - https://fontawesome.com License - https://fontawesome.com/license (Commercial License) Copyright 2022 Fonticons, Inc. --><path d="M508.5 271.1c-7.641-17.12-16.17-41-25.22-66.25c-16.02-44.72-32.56-90.97-48.77-114C394.1 34.28 328 0 257.9 0H200.1C89.68 0 0 89.81 0 200.2c0 55.44 23.28 108.6 64 146.6V504c0 4.406 3.578 8 8 8s8-3.594 8-8v-164.3L77.35 337.3c-38.99-35.06-61.35-85-61.35-137.1c0-84.88 57.77-156.3 135.1-177.6v88.91C118.7 130.9 95.1 166.6 95.1 208c0 61.86 50.15 112 112 112S320 269.9 320 208c0-41.35-22.67-77.06-56.01-96.46V16.38c62.64 1.945 121.2 33.07 157.5 84.56c14.94 21.25 31.86 68.5 46.78 110.2c9.141 25.53 17.78 49.69 25.66 67.34c3.359 7.562 2.688 15.91-1.844 22.88c-4.516 6.938-11.86 10.94-20.13 10.94h-39.88v64c0 30.91-25.16 56.06-56.06 56.06h-72V504c0 4.406 3.578 8 8 8s8-3.594 8-8v-55.66h56c39.74 0 72.06-32.31 72.06-72.06v-48h23.88c13.58 0 26.13-6.812 33.55-18.22C512.9 298.6 514.1 284.4 508.5 271.1zM167.1 19C178.5 17.14 189.2 16 200.2 16h47.78v87.69C235.5 98.9 222.1 96 208 96s-27.55 2.902-40.01 7.688V19zM303.1 208c0 52.93-43.07 96-96 96c-52.94 0-96-43.07-96-96s43.07-96 96-96C260.9 112 303.1 155.1 303.1 208zM160 176c0 1-.125 1.938-.125 2.938c0 0-.125-.125 0 0L160 176zM160 208c0 26.51 21.49 48 47.1 48s47.1-21.49 47.1-48S234.5 160 208 160S160 181.5 160 208zM239.1 208c0 17.64-14.36 32-32 32s-32-14.36-32-32s14.36-32 32-32S239.1 190.4 239.1 208z"/></svg>