<svg xmlns="http://www.w3.org/2000/svg" viewBox="0 0 512 512"><!--! Font Awesome Pro 6.0.0-beta3 by @fontawesome - https://fontawesome.com License - https://fontawesome.com/license (Commercial License) Copyright 2021 Fonticons, Inc. --><path d="M462.1 62.86C438.8 41.92 408.9 32 378.7 32c-37.49 0-75.33 15.4-103 43.98l-19.7 20.26L236.3 75.98C208.6 47.4 170.8 32 133.3 32c-30.14 0-60.06 9.923-84.25 30.86C-13.1 116.7-16.21 212.5 39.81 270.5l193.2 199.7c6.32 6.535 14.6 9.79 22.94 9.79c8.336 0 16.66-3.266 22.98-9.801l193.1-199.7C528.2 212.5 525.1 116.6 462.1 62.86zM248 461.5c-1.225-.7324-2.498-1.383-3.525-2.445L51.33 259.4C27.4 234.6 14.57 200.3 16.13 165.2c1.578-35.36 16.98-67.43 43.39-90.28C79.89 57.32 105.4 48 133.3 48c34.13 0 67.49 14.23 91.54 39.05L248 110.1V461.5zM460.6 259.4l-193.1 199.7C266.4 460.1 265.2 460.7 264 461.5V110.1l23.18-23.94C311.2 62.23 344.6 48 378.7 48c27.88 0 53.4 9.32 73.77 26.96c26.41 22.86 41.82 54.93 43.38 90.29C497.4 200.3 484.6 234.6 460.6 259.4z"/></svg>