<svg xmlns="http://www.w3.org/2000/svg" viewBox="0 0 512 512"><!--! Font Awesome Pro 6.0.0-beta3 by @fontawesome - https://fontawesome.com License - https://fontawesome.com/license (Commercial License) Copyright 2021 Fonticons, Inc. --><path d="M255.8 102.5c-.0022-4.152-1.618-8.139-4.507-11.12L236.3 75.98C208.6 47.4 170.8 32 133.3 32C103.2 32 73.23 41.92 49.04 62.86C-13.1 116.7-16.21 212.5 39.81 270.5c0 0 193.2 199.7 193.3 199.8c8.287 8.43 22.9 1.912 22.89-9.909L255.8 102.5zM51.33 259.4C27.4 234.6 14.57 200.3 16.13 165.2c1.578-35.36 16.98-67.43 43.39-90.28C79.89 57.32 105.4 48 133.3 48c34.13 0 67.49 14.23 91.54 39.05l15.17 15.66v351.7L51.33 259.4z"/></svg>