<svg xmlns="http://www.w3.org/2000/svg" viewBox="0 0 512 512"><!--! Font Awesome Pro 6.1.1 by @fontawesome - https://fontawesome.com License - https://fontawesome.com/license (Commercial License) Copyright 2022 Fonticons, Inc. --><path d="M175.8 136.6C180.3 136.6 183.8 140.2 183.8 144.6V368.6C183.8 372.5 181 375.8 177.1 376.5C173.3 377.1 169.5 374.8 168.3 371.1L119.8 225.9V336.6C119.8 340.1 116.3 344.6 111.8 344.6C107.4 344.6 103.8 340.1 103.8 336.6V176.6C103.8 172.7 106.7 169.3 110.6 168.7C114.4 168.1 118.2 170.3 119.4 174L167.8 319.3V144.6C167.8 140.2 171.4 136.6 175.8 136.6V136.6zM244 89.17L299.1 121.1C302.5 122.5 304 125.2 304 128.1C304 134.2 297.4 138.1 292 135L247.8 109.8V248.6H287.8C292.3 248.6 295.8 252.2 295.8 256.6C295.8 260.1 292.3 264.6 287.8 264.6H247.8V400.6C247.8 404.1 244.3 408.6 239.8 408.6C235.4 408.6 231.8 404.1 231.8 400.6V96.24C231.8 94.82 232.1 93.36 232.9 92.03C233.6 90.76 234.6 89.77 235.8 89.08C237 88.39 238.4 87.1 239.8 87.1C239.1 87.1 240.1 88 240.3 88.01C241.6 88.08 242.9 88.5 244 89.17L244 89.17zM375.8 352.6C375.8 356.1 372.3 360.6 367.8 360.6C363.4 360.6 359.8 356.1 359.8 352.6V173.7L324 153.3C321.5 151.9 320 149.2 320 146.3C320 140.2 326.6 136.3 331.1 139.4L411.1 185.1C415.8 187.2 417.1 192.1 414.9 195.1C412.8 199.8 407.9 201.1 404 198.9L375.8 182.9V352.6zM61.22 408.8C43.9 398.8 33.22 380.3 33.22 360.3V167.7C33.22 147.7 43.9 129.2 61.22 119.2L227.1 22.93C238.6 16.82 250.7 14.44 262.4 15.8C269.9 16.67 277.3 19.04 283.1 22.93L450.8 119.2C468.1 129.2 478.8 147.7 478.8 167.7V360.3C478.8 380.3 468.1 398.8 450.8 408.8L283.1 505.1C278.1 508.5 271.7 510.7 265.2 511.8C257.4 513.1 249.3 512.7 241.6 510.7C236.9 509.5 232.3 507.6 227.1 505.1L61.22 408.8zM261.2 496.2C266.3 495.6 271.4 493.9 275.1 491.2L442.8 394.9C455.1 387.8 462.8 374.6 462.8 360.3V167.7C462.8 153.4 455.1 140.2 442.8 133.1L275.1 36.79C272.8 34.97 269.5 33.61 266.1 32.72C262.8 31.86 259.4 31.43 255.1 31.43C249.1 31.43 242.2 33.22 235.1 36.79L69.22 133.1C56.85 140.2 49.22 153.4 49.22 167.7V360.3C49.22 374.6 56.85 387.8 69.22 394.9L235.1 491.2C237.5 492.1 239.1 492.9 240.8 493.6L261.2 496.2z"/></svg>