<svg xmlns="http://www.w3.org/2000/svg" viewBox="0 0 512 512"><!--! Font Awesome Pro 6.1.1 by @fontawesome - https://fontawesome.com License - https://fontawesome.com/license (Commercial License) Copyright 2022 Fonticons, Inc. --><path d="M256 128C260.4 128 264 131.6 264 136V296C264 300.4 260.4 304 256 304C251.6 304 248 300.4 248 296V136C248 131.6 251.6 128 256 128zM272 352C272 360.8 264.8 368 256 368C247.2 368 240 360.8 240 352C240 343.2 247.2 336 256 336C264.8 336 272 343.2 272 352zM342 32C367.1 32 390.5 45.1 403.5 66.56L496 218.6C510 241.6 510 270.4 496 293.4L403.5 445.4C390.5 466.9 367.1 480 342 480H169.1C144.9 480 121.5 466.9 108.5 445.4L15.96 293.4C1.962 270.4 1.962 241.6 15.96 218.6L108.5 66.56C121.5 45.1 144.9 32 169.1 32H342zM29.63 226.9C18.74 244.8 18.74 267.2 29.63 285.1L122.1 437.1C132.3 453.8 150.4 464 169.1 464H342C361.6 464 379.7 453.8 389.8 437.1L482.4 285.1C493.3 267.2 493.3 244.8 482.4 226.9L389.8 74.88C379.7 58.19 361.6 48 342 48H169.1C150.4 48 132.3 58.19 122.1 74.88L29.63 226.9z"/></svg>