<svg xmlns="http://www.w3.org/2000/svg" viewBox="0 0 576 512"><!--! Font Awesome Pro 6.0.0-beta3 by @fontawesome - https://fontawesome.com License - https://fontawesome.com/license (Commercial License) Copyright 2021 Fonticons, Inc. --><path d="M276.5 431.9c10.31 0 20.31-4.395 27.36-12.37l226.4-265.1c19.25-21.75 18.12-54.63-2.374-75.13l-63.09-63.12C454.1 5.423 439.1 0 425.9 0c-12.91 0-25.86 4.543-36.25 13.75l-264.1 226.2c-10.75 9.498-14.1 24.38-10.75 38.13l12.1 42.75l-28.3 28.38c-12.46 12.5-12.46 32.73 .0117 45.21l50.92 50.99c6.248 6.258 14.44 9.387 22.64 9.387c8.188 0 16.38-3.125 22.62-9.371l28.22-28.23l42.75 13C269.3 431.3 272.9 431.9 276.5 431.9zM400.2 25.73C407.3 19.45 416.4 16 425.9 16c10.4 0 20.19 4.059 27.56 11.43l63.12 63.12c14.52 14.52 15.27 37.89 1.52 53.42l-174.4 204.3L195.7 200.4L400.2 25.73zM218.5 399.1L183.5 434.2c-3.023 3.02-7.039 4.684-11.31 4.684c-4.281 0-8.301-1.668-11.32-4.691l-50.92-50.1c-6.223-6.23-6.227-16.37-.0039-22.61L145 325.4L129.2 273.4C126.8 265.7 129.2 257.3 135 252.2L183.5 210.8l149.7 149.7l-41.31 48.39c-3 3.393-10.87 9.326-21.48 6.035L218.5 399.1zM120.7 469.6L94.32 496H21.79c-3.305 0-4.719-2.217-5.268-3.537c-.5547-1.338-1.129-3.936 1.246-6.314l59.45-59.58c3.129-3.129 3.119-8.203-.0215-11.32c-3.125-3.1-8.195-3.111-11.3 .0039l-59.49 59.6C-7.271 488.6 2.401 512 21.76 512h72.54c4.232 0 8.295-1.69 11.29-4.686l26.39-26.43c3.121-3.129 3.107-8.197-.0313-11.31C128.8 466.5 123.8 466.5 120.7 469.6zM568 496H232C227.6 496 224 499.6 224 504C224 508.4 227.6 512 232 512h336c4.418 0 8-3.582 8-8C576 499.6 572.4 496 568 496z"/></svg>