<svg xmlns="http://www.w3.org/2000/svg" viewBox="0 0 576 512"><!--! Font Awesome Pro 6.1.1 by @fontawesome - https://fontawesome.com License - https://fontawesome.com/license (Commercial License) Copyright 2022 Fonticons, Inc. --><path d="M512 32H64C28.65 32 0 60.65 0 96v320c0 35.35 28.65 64 64 64h448c35.35 0 64-28.65 64-64V96C576 60.65 547.3 32 512 32zM560 416c0 26.47-21.53 48-48 48H64c-26.47 0-48-21.53-48-48V96c0-26.47 21.53-48 48-48h448c26.47 0 48 21.53 48 48V416zM264 160C259.6 160 256 163.6 256 168v80H128v-80C128 163.6 124.4 160 120 160S112 163.6 112 168v176C112 348.4 115.6 352 120 352S128 348.4 128 344v-80h128v80C256 348.4 259.6 352 264 352s8-3.578 8-8v-176C272 163.6 268.4 160 264 160zM384 160h-56C323.6 160 320 163.6 320 168v176c0 4.422 3.594 8 8 8H384c52.94 0 96-43.06 96-96S436.9 160 384 160zM384 336h-48v-160H384c44.13 0 80 35.89 80 80S428.1 336 384 336z"/></svg>