<svg xmlns="http://www.w3.org/2000/svg" viewBox="0 0 576 512"><!--! Font Awesome Pro 6.1.1 by @fontawesome - https://fontawesome.com License - https://fontawesome.com/license (Commercial License) Copyright 2022 Fonticons, Inc. --><path d="M120 64C120 41.91 137.9 24 160 24C182.1 24 200 41.91 200 64C200 86.09 182.1 104 160 104C137.9 104 120 86.09 120 64zM160 40C146.7 40 136 50.75 136 64C136 77.25 146.7 88 160 88C173.3 88 184 77.25 184 64C184 50.75 173.3 40 160 40zM245.4 123.8C241.3 116.5 241.3 107.5 245.4 100.2L272.4 52.23C276.7 44.68 284.7 40 293.4 40H346.6C355.3 40 363.3 44.68 367.6 52.23L394.6 100.2C398.7 107.5 398.7 116.5 394.6 123.8L367.6 171.8C363.3 179.3 355.3 184 346.6 184H293.4C284.7 184 276.7 179.3 272.4 171.8L245.4 123.8zM259.4 108.1C258 110.5 258 113.5 259.4 115.9L286.4 163.9C287.8 166.4 290.5 167.1 293.4 167.1H346.6C349.5 167.1 352.2 166.4 353.6 163.9L380.6 115.9C381.1 113.5 381.1 110.5 380.6 108.1L353.6 60.08C352.2 57.56 349.5 55.1 346.6 55.1H293.4C290.5 55.1 287.8 57.56 286.4 60.08L259.4 108.1zM0 102.6C0 81.25 25.85 70.54 40.97 85.66L426.3 471C441.5 486.1 430.8 512 409.4 512H56C25.07 512 0 486.9 0 456V102.6zM29.66 96.97C24.62 91.93 16 95.5 16 102.6V456C16 478.1 33.91 496 56 496H409.4C416.5 496 420.1 487.4 415 482.3L29.66 96.97zM436.2 399.6C428.7 395.3 424 387.3 424 378.6V325.4C424 316.7 428.7 308.7 436.2 304.4L484.2 277.4C491.5 273.3 500.5 273.3 507.8 277.4L555.8 304.4C563.3 308.7 568 316.7 568 325.4V378.6C568 387.3 563.3 395.3 555.8 399.6L507.8 426.6C500.5 430.7 491.5 430.7 484.2 426.6L436.2 399.6zM547.9 385.6C550.4 384.2 552 381.5 552 378.6V325.4C552 322.5 550.4 319.8 547.9 318.4L499.9 291.4C497.5 290 494.5 290 492.1 291.4L444.1 318.4C441.6 319.8 440 322.5 440 325.4V378.6C440 381.5 441.6 384.2 444.1 385.6L492.1 412.6C494.5 413.1 497.5 413.1 499.9 412.6L547.9 385.6zM392 288C392 310.1 374.1 328 352 328C329.9 328 312 310.1 312 288C312 265.9 329.9 248 352 248C374.1 248 392 265.9 392 288zM352 312C365.3 312 376 301.3 376 288C376 274.7 365.3 264 352 264C338.7 264 328 274.7 328 288C328 301.3 338.7 312 352 312z"/></svg>