<svg xmlns="http://www.w3.org/2000/svg" viewBox="0 0 448 512"><!--! Font Awesome Pro 6.0.0-beta3 by @fontawesome - https://fontawesome.com License - https://fontawesome.com/license (Commercial License) Copyright 2021 Fonticons, Inc. --><path d="M448 238.2c0-242.4-217.9-238.2-224-238.2c-6.133 0-223.1-4.252-223.1 238.2c0 49.81 9.681 108.8 32.62 177.8C64.5 512 224 512 224 512s159.5 .0027 191.4-96.01C438.3 346.9 448 287.1 448 238.2zM432.2 237.9c0 46.46-8.9 103.4-32.03 173.1C372.4 494.8 225.5 495.1 224 496c-1.479-.0039-148.4-1.199-176.2-85.05c-23.13-69.62-32.03-126.6-32.03-173.1C15.78 11.53 217.6 16 224 16C230.4 16 432.2 11.52 432.2 237.9zM288 95.98c8.875 0 15.1-7.135 15.1-16.01S296.9 63.97 288 63.97s-16 7.133-16 16.01S279.1 95.98 288 95.98zM159.1 95.98c8.875 0 16-7.127 16-16S168.9 63.97 159.1 63.97s-16 7.126-16 16S151.1 95.98 159.1 95.98zM160 167.1H96c-22.06 0-40 17.94-40 40C56 247.7 88.3 280 128 280s71.1-32.3 71.1-72.02C199.1 185.9 182.1 167.1 160 167.1zM128 264c-30.88 0-56-25.11-56-56.02c0-13.22 10.77-24.02 24-24.02h64c13.23 0 24 10.78 24 24C184 238.9 158.9 264 128 264zM175.1 431.1c-8.875 0-16 7.126-16 16S167.1 463.1 176 463.1s15.1-7.125 15.1-15.1S184.9 431.1 175.1 431.1zM175.1 367.1c-8.875 0-15.1 7.12-15.1 15.99S167.1 399.1 176 399.1s15.1-7.118 15.1-15.99S184.9 367.1 175.1 367.1zM175.1 303.1c-8.875 0-15.99 7.118-15.99 15.99S167.1 335.1 176 335.1s15.1-7.115 15.1-15.99S184.9 303.1 175.1 303.1zM224 111.1c-8.875 0-16 7.126-16 16s7.125 16 16 16s16-7.125 16-16S232.9 111.1 224 111.1zM272 431.1c-8.875 0-15.1 7.125-15.1 16s7.123 15.1 15.1 15.1s15.1-7.123 15.1-15.1S280.9 431.1 272 431.1zM272 367.1c-8.875 0-15.1 7.125-15.1 16S263.1 399.1 272 399.1s16-7.125 16-16S280.9 367.1 272 367.1zM272 303.1c-8.875 0-15.1 7.122-15.1 15.1S263.1 335.1 272 335.1s15.99-7.119 15.99-15.99S280.9 303.1 272 303.1zM352 167.1h-64c-22.06 0-39.1 17.95-39.1 40.02C248 247.7 280.3 280 320 280s72-32.31 72-72.03C392 185.9 374.1 167.1 352 167.1zM320 264c-30.88 0-56-25.12-56-56.03c0-13.22 10.77-24 24-24h64c13.23 0 24 10.8 24 24.02C376 238.9 350.9 264 320 264z"/></svg>