<svg xmlns="http://www.w3.org/2000/svg" viewBox="0 0 448 512"><!--! Font Awesome Pro 6.0.0-beta3 by @fontawesome - https://fontawesome.com License - https://fontawesome.com/license (Commercial License) Copyright 2021 Fonticons, Inc. --><path d="M432 280c0-22.08-17.92-40-40-40H164C126.4 240 96 209.6 96 172S126.4 104 164 104H256c4.416 0 8-3.584 8-8S260.4 88 256 88H164C117.6 88 80 125.6 80 172S117.6 256 164 256h228C405.2 256 416 266.8 416 280S405.2 304 392 304H164C91.1 304 32 244.9 32 172S91.1 40 164 40H256c4.416 0 8-3.584 8-8S260.4 24 256 24H164C82.27 24 16 90.27 16 172c0 57.63 32.93 107.6 80.99 132H56c-22.08 0-40 17.92-40 40c0 13.09 6.273 24.7 16 32c-9.727 7.297-16 18.91-16 32s6.273 24.7 16 32c-9.727 7.297-16 18.91-16 32C16 494.1 33.92 512 56 512h336c22.08 0 40-17.92 40-40c0-13.09-6.271-24.7-16-32c9.729-7.297 16-18.91 16-32s-6.271-24.7-16-32c9.729-7.297 16-18.91 16-32s-6.271-24.7-16-32C425.7 304.7 432 293.1 432 280zM392 496H56C42.75 496 32 485.2 32 472S42.75 448 56 448h336c13.25 0 24 10.75 24 24S405.2 496 392 496zM392 432H56C42.75 432 32 421.2 32 408S42.75 384 56 384h336c13.25 0 24 10.75 24 24S405.2 432 392 432zM392 368H56C42.75 368 32 357.2 32 344S42.75 320 56 320h336c13.25 0 24 10.75 24 24S405.2 368 392 368zM440 32c-4.096 0-7.488 3.104-7.936 7.072L304 24.83V16c0-4.416-3.584-8-8-8S288 11.58 288 16v96c0 4.416 3.584 8 8 8S304 116.4 304 112V103.2l128.1-14.24C432.5 92.9 435.9 96 440 96C444.4 96 448 92.42 448 88v-48C448 35.58 444.4 32 440 32zM432 72.83l-128 14.24V40.93l128 14.24V72.83z"/></svg>