<svg xmlns="http://www.w3.org/2000/svg" viewBox="0 0 384 512"><!--! Font Awesome Pro 6.0.0-beta3 by @fontawesome - https://fontawesome.com License - https://fontawesome.com/license (Commercial License) Copyright 2021 Fonticons, Inc. --><path d="M198.4 228.8C196.9 230.8 194.5 232 192 232C189.5 232 187.1 230.8 185.6 228.8L102.4 117.9C93.05 105.4 88 90.25 88 74.67V56C88 51.58 91.58 48 96 48H288C292.4 48 296 51.58 296 56V74.67C296 90.25 290.9 105.4 281.6 117.9L198.4 228.8zM115.2 108.3L192 210.7L268.8 108.3C276.1 98.57 280 86.78 280 74.67V64H104V74.67C104 86.78 107.9 98.57 115.2 108.3zM0 8C0 3.582 3.582 0 8 0H376C380.4 0 384 3.582 384 8C384 12.42 380.4 16 376 16H352V76.67C352 106.5 342.2 135.6 324 159.3L250.1 256L324 352.7C342.2 376.4 352 405.5 352 435.3V496H376C380.4 496 384 499.6 384 504C384 508.4 380.4 512 376 512H8C3.582 512 0 508.4 0 504C0 499.6 3.582 496 8 496H32V435.3C32 405.5 41.83 376.4 59.97 352.7L133.9 256L59.97 159.3C41.83 135.6 32 106.5 32 76.67V16H8C3.582 16 0 12.42 0 8V8zM48 76.67C48 103 56.67 128.6 72.68 149.6L150.4 251.1C152.5 254 152.5 257.1 150.4 260.9L72.68 362.4C56.67 383.4 48 408.1 48 435.3V496H336V435.3C336 408.1 327.3 383.4 311.3 362.4L233.6 260.9C231.5 257.1 231.5 254 233.6 251.1L311.3 149.6C327.3 128.6 336 103 336 76.67V16H48V76.67z"/></svg>