<svg xmlns="http://www.w3.org/2000/svg" viewBox="0 0 576 512"><!--! Font Awesome Pro 6.1.1 by @fontawesome - https://fontawesome.com License - https://fontawesome.com/license (Commercial License) Copyright 2022 Fonticons, Inc. --><path d="M568.6 495.7c-55.91-4.355-78.62-47.47-88.63-47.47c-8.188 0-37.63 47.57-95.44 47.77h-.3438c-57.11 0-88.55-47.77-96.22-47.77c-8.188 0-37.63 47.57-95.44 47.77H192.2c-57.1 0-88.55-47.77-96.22-47.77c-2.25 0-4.406 .9531-5.938 2.625c-50.62 55.81-90.06 36.57-90.06 52.82c0 .334-.043 8.023 8.287 8.023c3.02 0 45.24-.9043 87.74-43.88c28.9 28.94 62.12 44.04 96.3 44.04c34.13-.1094 67.23-15.21 95.7-44.03c28.91 28.92 61.87 44.14 96.05 44.14L384.6 512c34.13-.1094 66.97-15.34 95.44-44.16c43.12 43.14 85.46 43.87 88.51 43.87c4.613 0 7.453-3.74 7.453-8.051C575.1 499.5 572.8 496 568.6 495.7zM247.1 191.1c-13.23 0-24 10.78-24 24v80c0 13.22 10.77 24 24 24h80c13.23 0 24-10.78 24-24v-80c0-13.22-10.77-24-24-24H247.1zM335.1 215.1v80c0 4.406-3.594 8-8 8h-80c-4.406 0-8-3.594-8-8v-80c0-4.406 3.594-8 8-8h80C332.4 207.1 335.1 211.6 335.1 215.1zM7.973 263.1c1.896 0 3.803-.668 5.342-2.004l50.69-44.16V408c0 4.422 3.582 8 8 8s8-3.578 8-8V203.6L288 18.7l208 184.9V408c0 4.422 3.582 8 8 8S512 412.4 512 408V217.8l50.69 44.16C564.2 263.3 566.1 263.1 568 263.1c4.459 0 7.998-3.629 7.998-8.002c0-2.201-.9062-4.402-2.686-5.982l-279.1-247.1c-1.518-1.342-3.427-2.026-5.326-2.026c-.002 0 .002 0 0 0c-1.898 0-3.798 .6702-5.315 2.012l-279.1 248C.9082 251.6 .002 253.8 .002 255.1C.002 260.3 3.482 263.1 7.973 263.1z"/></svg>