<svg xmlns="http://www.w3.org/2000/svg" viewBox="0 0 640 512"><!--! Font Awesome Pro 6.1.1 by @fontawesome - https://fontawesome.com License - https://fontawesome.com/license (Commercial License) Copyright 2022 Fonticons, Inc. --><path d="M282.7 2.011C285.7-.6704 290.3-.6704 293.3 2.011L508.3 192.4C504.2 192.1 500.1 192 496 192C492 192 488 192.1 484.1 192.4L288 18.69L80 202.9V448C80 474.5 101.5 496 128 496H208V328C208 314.7 218.7 303.1 232 303.1H331.1C329.1 309.2 328.2 314.6 326.6 319.1H232C227.6 319.1 224 323.6 224 328V496H375.2C381.3 501.8 387.9 507.1 394.8 512H128C92.65 512 64 483.3 64 448V217.1L13.3 261.1C9.997 264.9 4.941 264.6 2.011 261.3C-.9182 257.1-.6116 252.9 2.696 250L282.7 2.011zM507.3 368L557.7 418.3C560.8 421.5 560.8 426.5 557.7 429.7C554.5 432.8 549.5 432.8 546.3 429.7L496 379.3L445.7 429.7C442.5 432.8 437.5 432.8 434.3 429.7C431.2 426.5 431.2 421.5 434.3 418.3L484.7 368L434.3 317.7C431.2 314.5 431.2 309.5 434.3 306.3C437.5 303.2 442.5 303.2 445.7 306.3L496 356.7L546.3 306.3C549.5 303.2 554.5 303.2 557.7 306.3C560.8 309.5 560.8 314.5 557.7 317.7L507.3 368zM640 368C640 447.5 575.5 512 496 512C416.5 512 352 447.5 352 368C352 288.5 416.5 224 496 224C575.5 224 640 288.5 640 368zM496 240C425.3 240 368 297.3 368 368C368 438.7 425.3 496 496 496C566.7 496 624 438.7 624 368C624 297.3 566.7 240 496 240z"/></svg>