<svg xmlns="http://www.w3.org/2000/svg" viewBox="0 0 640 512"><!--! Font Awesome Pro 6.1.1 by @fontawesome - https://fontawesome.com License - https://fontawesome.com/license (Commercial License) Copyright 2022 Fonticons, Inc. --><path d="M464 32H624C632.8 32 640 39.16 640 48V176C640 184.8 632.8 192 624 192H464V512H448V8C448 3.582 451.6 0 456 0C460.4 0 464 3.582 464 8V32zM624 48H464V176H624V48zM276.8 33.6L416 137.1V157.1L272 50L80 194V448C80 474.5 101.5 496 128 496H416V512H128C92.65 512 64 483.3 64 448V206L20.8 238.4C17.27 241.1 12.25 240.3 9.6 236.8C6.95 233.3 7.666 228.3 11.2 225.6L267.2 33.6C270 31.47 273.1 31.47 276.8 33.6V33.6zM288 184C301.3 184 312 194.7 312 208V248H352C365.3 248 376 258.7 376 272V304C376 317.3 365.3 328 352 328H312V368C312 381.3 301.3 392 288 392H256C242.7 392 232 381.3 232 368V328H192C178.7 328 168 317.3 168 304V272C168 258.7 178.7 248 192 248H232V208C232 194.7 242.7 184 256 184H288zM248 264H192C187.6 264 184 267.6 184 272V304C184 308.4 187.6 312 192 312H248V368C248 372.4 251.6 376 256 376H288C292.4 376 296 372.4 296 368V312H352C356.4 312 360 308.4 360 304V272C360 267.6 356.4 264 352 264H296V208C296 203.6 292.4 200 288 200H256C251.6 200 248 203.6 248 208V264z"/></svg>