<svg xmlns="http://www.w3.org/2000/svg" viewBox="0 0 640 512"><!--! Font Awesome Pro 6.1.1 by @fontawesome - https://fontawesome.com License - https://fontawesome.com/license (Commercial License) Copyright 2022 Fonticons, Inc. --><path d="M302.2 137.6L290.5 126.8L392.3 14.3C404.1 .2612 427 .2612 439.7 14.3L570.9 159.3C574.2 162.9 576 167.6 576 172.4C576 183.2 567.2 191.1 556.5 191.1H504.9L602.4 311.4C606 315.9 608 321.4 608 327.1C608 340.9 596.9 352 583.1 352H522.2L634.1 474.5C637.9 478.6 640 483.1 640 489.6C640 501.1 629.1 512 617.6 512H400C403.7 507.1 406.8 501.7 409.3 496H617.6C621.1 496 624 493.1 624 489.6C624 487.1 623.4 486.5 622.3 485.3L498.1 349.4C495.1 347.1 495.4 343.7 496.7 340.8C497.1 337.9 500.8 336 504 336H583.1C588 336 592 332 592 327.1C592 325.1 591.3 323.1 590 321.5L481.8 189.1C479.8 186.7 479.4 183.4 480.8 180.6C482.1 177.8 484.9 175.1 488 175.1H556.5C558.4 175.1 560 174.4 560 172.4C560 171.6 559.7 170.7 559.1 170.1L427.9 25.04C421.5 18.02 410.5 18.02 404.1 25.04L302.2 137.6zM224 263.1C237.3 263.1 248 274.7 248 287.1V352C248 365.3 237.3 376 224 376H160C146.7 376 136 365.3 136 352V287.1C136 274.7 146.7 263.1 160 263.1H224zM224 279.1H160C155.6 279.1 152 283.6 152 287.1V352C152 356.4 155.6 360 160 360H224C228.4 360 232 356.4 232 352V287.1C232 283.6 228.4 279.1 224 279.1zM0 456V280.6C0 264.9 6.588 249.1 18.16 239.4L154.2 114.7C175.6 95.06 208.4 95.06 229.8 114.7L365.8 239.4C377.4 249.1 384 264.9 384 280.6V456C384 486.9 358.9 512 328 512H56C25.07 512 0 486.9 0 456zM16 280.6V456C16 478.1 33.91 496 56 496H328C350.1 496 368 478.1 368 456V280.6C368 269.4 363.3 258.7 355 251.1L219 126.5C203.7 112.5 180.3 112.5 164.1 126.5L28.97 251.1C20.71 258.7 16 269.4 16 280.6H16z"/></svg>