<svg xmlns="http://www.w3.org/2000/svg" viewBox="0 0 640 512"><!--! Font Awesome Pro 6.0.0-beta3 by @fontawesome - https://fontawesome.com License - https://fontawesome.com/license (Commercial License) Copyright 2021 Fonticons, Inc. --><path d="M290.1 399.9H103.1c-13.2 0-23.1-10.8-23.1-23.1V162.2l159.1-143.4l102.6 92.02c2.498 2.238 6.107 2.48 9.031 .8398c.1191-.0703 .2402-.1367 .3613-.2031c4.619-2.57 5.441-8.848 1.506-12.38l-108.2-97c-3.062-2.688-7.625-2.688-10.69 0L2.656 209.1C-.625 212.9-.9062 218 2.031 221.3c2.969 3.25 8 3.469 11.31 .625L63.99 176.5l.0029 199.5c0 22.09 17.91 39.1 39.1 39.1l186.2-.0469c2.086 0 4.072-.8438 5.508-2.359c.2305-.2422 .4746-.5 .7285-.7656C301.1 407.9 297.6 399.9 290.1 399.9zM143.1 183.1c-13.22 0-23.1 10.77-23.1 23.99v63.99c0 13.21 10.78 23.1 23.1 23.1h63.99c13.22 0 23.1-10.78 23.1-23.1V207.9c0-13.22-10.78-23.99-23.1-23.99H143.1zM215.1 207.9v63.99c0 4.406-3.594 8-7.998 8H143.1c-4.406 0-8-3.594-8-8V207.9c0-4.406 3.594-8 8-8h63.99C212.4 199.9 215.1 203.5 215.1 207.9zM458.1 394.4c-4.123-1.562-8.746 .4062-10.37 4.496l-5.996 15.21c-2.844 7.031-6.811 13.16-11.78 18.22L374.1 489.7c-8.84 8.496-22.55 8.34-31.33-.5625c-8.617-8.746-8.836-23.12-.625-31.87l47.82-48.55c6.809-6.902 11.96-14.84 15.27-23.49l12.46-31.34c1.625-4.125-.375-8.781-4.467-10.41c-4.029-1.5-8.746 .375-10.4 4.469l-12.49 31.46c-2.562 6.688-6.496 12.75-11.75 18.06l-47.98 48.71c-14.4 15.37-14.05 39.18 .7813 54.21C338.9 508.1 348.8 512 358.7 512c9.5 0 19.02-3.625 26.58-10.88l56.91-57.52c6.496-6.59 11.59-14.46 15.24-23.53l6.029-15.28C465.1 400.7 463.1 396.1 458.1 394.4zM523.1 103.1c28.7 0 51.98-23.29 51.98-51.99C575.1 23.29 552.7 0 523.1 0c-28.7 0-51.98 23.29-51.98 51.99C472 80.69 495.3 103.1 523.1 103.1zM523.1 15.1c19.84 0 35.98 16.14 35.98 35.1c0 19.84-16.14 35.99-35.98 35.99c-19.84 0-35.98-16.15-35.98-35.99C488 32.14 504.1 15.1 523.1 15.1zM618.6 235.4C618.5 235.4 618.6 235.4 618.6 235.4l-19.63-10.01l-8.402-25.62c-15.43-47.62-58.25-79.7-106.5-79.83h-.6875c-31.74 0-50.98 7.969-79.99 20l-12.71 5.215c-22.8 9.434-41.39 26.87-52.29 49.15l-6.527 13.37c-9.371 19.18-1.625 42.8 17.34 52.62c9.117 4.625 19.9 5.375 29.73 2.156c9.746-3.375 17.65-10.38 22.24-19.72l6.561-13.4c2.436-5.09 6.59-8.996 11.81-11.09l11.34-4.656l-10.87 44.15c-5.717 23.02 .3438 47.27 16.21 64.83l58.04 64.02c6.121 6.75 10.46 14.9 12.53 23.71l17.68 71.74c2.529 10.31 8.932 18.96 17.96 24.37c6.092 3.625 12.84 5.5 19.68 5.469c3.217 0 6.434-.375 9.59-1.219c20.87-5.188 33.64-26.56 28.49-47.62l-21.55-87.08c-2.686-11.34-8.309-21.99-16.24-30.71L521.1 299.8l9.277-37.37c6.561 13.65 17.3 24.74 30.96 31.77l22.71 11.69c9.246 4.625 20.05 5.375 29.49 2.031c9.871-3.312 17.84-10.31 22.49-19.84C645.4 268.6 637.6 245.4 618.6 235.4zM621.6 281.1c-5.504 11.27-18.97 16.12-30.33 10.5l-22.65-11.65c-12.78-6.562-22.24-17.75-26.68-31.59l-5.34-16.15c-2.531-7.668-13.44-7.152-15.34 .5625l-16.71 67.3c-.6562 2.594 .0313 5.344 1.812 7.312l44.1 48.61c6.123 6.75 10.46 14.93 12.53 23.71l21.55 87.14c3.092 12.53-4.436 25.21-16.87 28.3c-12.55 3.203-24.73-4.684-27.74-16.93l-17.68-71.68c-2.686-11.37-8.309-21.1-16.24-30.71l-58.01-64.02c-12.31-13.59-16.99-32.37-12.56-50.24l14.65-59.49c1.209-4.891-2.475-9.902-7.777-9.902c-1.031 0-28.86 11.21-28.86 11.21c-8.871 3.562-16.05 10.31-20.21 18.94l-6.527 13.34c-5.734 11.66-19.26 15.96-30.3 10.4c-11.25-5.844-15.87-19.93-10.28-31.37l6.527-13.34C361.9 182.6 377.6 167.9 396.7 160c41.57-17.08 56.33-24.02 87.27-24.02c41.32 .125 78.03 27.74 91.37 68.8l9.432 28.78c.6562 2 2.062 3.656 3.969 4.621l22.49 11.5C622.6 255.6 627.2 269.5 621.6 281.1z"/></svg>