<svg xmlns="http://www.w3.org/2000/svg" viewBox="0 0 576 512"><!--! Font Awesome Pro 6.0.0-beta3 by @fontawesome - https://fontawesome.com License - https://fontawesome.com/license (Commercial License) Copyright 2021 Fonticons, Inc. --><path d="M573.3 250C576.6 252.9 576.9 257.1 573.1 261.3C571.1 264.6 566 264.9 562.7 261.1L512 217.1V448C512 483.3 483.3 512 448 512H128C92.65 512 64 483.3 64 448V217.1L13.3 261.1C9.997 264.9 4.941 264.6 2.012 261.3C-.9182 257.1-.6116 252.9 2.696 250L282.7 2.011C285.7-.6704 290.3-.6704 293.3 2.011L573.3 250zM128 496H208V328C208 314.7 218.7 304 232 304H344C357.3 304 368 314.7 368 328V496H448C474.5 496 496 474.5 496 448V202.9L288 18.69L80 202.9V448C80 474.5 101.5 496 128 496V496zM224 496H352V328C352 323.6 348.4 320 344 320H232C227.6 320 224 323.6 224 328V496z"/></svg>