<svg xmlns="http://www.w3.org/2000/svg" viewBox="0 0 576 512"><!--! Font Awesome Pro 6.1.1 by @fontawesome - https://fontawesome.com License - https://fontawesome.com/license (Commercial License) Copyright 2022 Fonticons, Inc. --><path d="M344 224h144c4.418 0 8-3.582 8-8S492.4 208 488 208h-144c-4.418 0-8 3.582-8 8S339.6 224 344 224zM344 288h144c4.418 0 8-3.582 8-8S492.4 272 488 272h-144c-4.418 0-8 3.582-8 8S339.6 288 344 288zM344 352h144c4.418 0 8-3.582 8-8s-3.582-8-8-8h-144c-4.418 0-8 3.582-8 8S339.6 352 344 352zM176 320c35.35 0 64-28.66 64-64s-28.65-64-64-64s-64 28.66-64 64S140.7 320 176 320zM176 208C202.5 208 224 229.5 224 256S202.5 304 176 304S128 282.5 128 256S149.5 208 176 208zM528 32h-480C21.49 32 0 53.49 0 80v352C0 458.5 21.49 480 48 480h480c26.51 0 48-21.49 48-48v-352C576 53.49 554.5 32 528 32zM560 432c0 17.64-14.36 32-32 32h-480c-17.64 0-32-14.36-32-32v-288h544V432zM560 128h-544V80c0-17.64 14.36-32 32-32h480c17.64 0 32 14.36 32 32V128zM72.02 423.8c4.344 1.047 8.594-1.719 9.562-6.031C88.23 388.5 113.9 368 144 368h64c30.09 0 55.77 20.47 62.42 49.77C271.3 421.5 274.6 424 278.2 424c.5781 0 1.172-.0625 1.766-.2031c4.312-.9687 7.016-5.266 6.031-9.562C277.7 377.6 245.6 352 208 352h-64c-37.61 0-69.7 25.59-78.02 62.23C65 418.5 67.7 422.8 72.02 423.8z"/></svg>