<svg xmlns="http://www.w3.org/2000/svg" viewBox="0 0 384 512"><!--! Font Awesome Pro 6.0.0-beta3 by @fontawesome - https://fontawesome.com License - https://fontawesome.com/license (Commercial License) Copyright 2021 Fonticons, Inc. --><path d="M336 0h-288c-26.51 0-48 21.49-48 48v416C0 490.5 21.49 512 48 512h288c26.51 0 48-21.49 48-48v-416C384 21.49 362.5 0 336 0zM368 464c0 17.64-14.36 32-32 32h-288c-17.64 0-32-14.36-32-32v-416c0-17.64 14.36-32 32-32h288c17.64 0 32 14.36 32 32V464zM192 256c35.35 0 64-28.65 64-64s-28.65-64-64-64S128 156.7 128 192S156.7 256 192 256zM192 144c26.47 0 48 21.53 48 48S218.5 240 192 240S144 218.5 144 192S165.5 144 192 144zM224 288H160c-44.18 0-80 35.82-80 80C80 376.8 87.16 384 96 384h192c8.836 0 16-7.164 16-16C304 323.8 268.2 288 224 288zM96 368c0-35.29 28.71-64 64-64h64c35.29 0 64 28.71 64 64H96z"/></svg>