<svg xmlns="http://www.w3.org/2000/svg" viewBox="0 0 640 512"><!--! Font Awesome Pro 6.1.1 by @fontawesome - https://fontawesome.com License - https://fontawesome.com/license (Commercial License) Copyright 2022 Fonticons, Inc. --><path d="M528 48c17.64 0 32 14.36 32 32v214.1l-95.03-95.03c-9.375-9.344-24.56-9.344-33.94 0l-29.66 29.66l12.61 10.02l28.37-28.37c3.125-3.125 8.188-3.125 11.31 0L560 316.7v38.1l16 12.72V80C576 53.49 554.5 32 528 32H153.9l20.13 16H528zM188.7 464l122.8-122.8l-12.61-10.02L288 342.1L208.1 263c-9.375-9.344-24.56-9.344-33.94 0L80 358.1V157.2L64 144.5V432C64 458.5 85.49 480 112 480h374.1l-20.13-16H188.7zM112 464c-17.64 0-32-14.36-32-32v-51.31l106.3-106.3c3.125-3.125 8.188-3.125 11.31 0l79.03 79.03L166.1 464H112zM636.1 497.7L12.99 1.73C11.53 .5664 9.771 0 8.025 0C5.674 0 3.336 1.027 1.738 3.012c-2.75 3.469-2.172 8.5 1.281 11.25l623.1 496C628.5 511.4 630.2 512 631.1 512c2.344 0 4.688-1.031 6.266-3.016C641 505.5 640.4 500.5 636.1 497.7z"/></svg>