<svg xmlns="http://www.w3.org/2000/svg" viewBox="0 0 512 512"><!--! Font Awesome Pro 6.1.1 by @fontawesome - https://fontawesome.com License - https://fontawesome.com/license (Commercial License) Copyright 2022 Fonticons, Inc. --><path d="M472 351.1H368c-3.031 0-5.812 1.719-7.156 4.438l-29.78 59.56H180.9l-29.78-59.56C149.8 353.7 147 351.1 144 351.1H40c-22.06 0-40 17.94-40 40v80c0 22.06 17.94 40 40 40h432c22.06 0 40-17.94 40-40v-80C512 369.9 494.1 351.1 472 351.1zM496 471.1c0 13.22-10.78 24-24 24H40c-13.22 0-24-10.78-24-24v-80c0-13.22 10.78-24 24-24h99.06l29.78 59.56C170.2 430.3 172.1 431.1 176 431.1h160c3.031 0 5.812-1.719 7.156-4.438l29.78-59.56H472c13.22 0 24 10.78 24 24V471.1zM440 159.1H368c-3.031 0-5.812 1.719-7.156 4.438l-29.78 59.56H180.9L151.2 164.4C149.8 161.7 147 159.1 144 159.1H72c-4.418 0-8 3.582-8 8s3.582 8 8 8h67.06l29.78 59.56C170.2 238.3 172.1 239.1 176 239.1h160c3.031 0 5.812-1.719 7.156-4.438l29.78-59.56H440c4.418 0 8-3.582 8-8S444.4 159.1 440 159.1zM507.7 180.9l-61.99-160.8C440.8 7.969 429.1 0 416 0H96c-13.09 0-24.84 7.969-29.72 20.12L4.287 180.9C1.453 188.2 0 196 0 203.9V271.1c0 26.51 21.49 48 48 48h416c26.51 0 48-21.49 48-48V203.9C512 196 510.5 188.2 507.7 180.9zM496 271.1c0 17.64-14.36 32-32 32h-416c-17.64 0-32-14.36-32-32V203.9c0-5.93 1.082-11.74 3.215-17.27l61.92-160.6C83.59 19.96 89.42 15.1 96 15.1h320c6.576 0 12.41 3.957 14.79 9.883l61.99 160.8C494.9 192.2 496 197.1 496 203.9V271.1z"/></svg>