<svg xmlns="http://www.w3.org/2000/svg" viewBox="0 0 512 512"><!--! Font Awesome Pro 6.0.0-beta3 by @fontawesome - https://fontawesome.com License - https://fontawesome.com/license (Commercial License) Copyright 2021 Fonticons, Inc. --><path d="M508.3 304.9l-61.25-248.7C443.5 42 430.7 31.1 416 31.1H96c-14.69 0-27.47 10-31.03 24.25L3.715 304.9C1.248 314.9 0 325.2 0 335.5v96.47c0 26.51 21.49 48 48 48h416c26.51 0 48-21.49 48-48v-96.47C512 325.2 510.8 314.9 508.3 304.9zM496 431.1c0 17.64-14.36 32-32 32h-416c-17.64 0-32-14.36-32-32v-96.47c0-9.016 1.094-18.03 3.25-26.79l61.24-248.6C82.28 52.99 88.65 47.1 96 47.1h320c7.346 0 13.72 4.988 15.5 12.08l61.25 248.7C494.9 317.5 496 326.5 496 335.5V431.1zM439 303.1H384c-3.031 0-5.812 1.719-7.156 4.438l-29.78 59.56H164.9L135.2 308.4C133.8 305.7 131 303.1 128 303.1H72.97c-4.406 0-8 3.594-8 8s3.594 8 8 8h50.09l29.78 59.56C154.2 382.3 156.1 383.1 160 383.1h192c3.031 0 5.812-1.719 7.156-4.438l29.78-59.56h50.09c4.406 0 8-3.594 8-8S443.4 303.1 439 303.1z"/></svg>