<svg xmlns="http://www.w3.org/2000/svg" viewBox="0 0 512 512"><!--! Font Awesome Pro 6.1.1 by @fontawesome - https://fontawesome.com License - https://fontawesome.com/license (Commercial License) Copyright 2022 Fonticons, Inc. --><path d="M138.8 136.5L248 27.31V280C248 284.4 251.6 288 256 288s8-3.594 8-8V27.31l109.2 109.2c3.125 3.125 8.188 3.125 11.31 0s3.125-8.188 0-11.31l-122.8-122.8c-3.125-3.125-8.188-3.125-11.31 0L127.5 125.2C125.1 126.7 125.2 128.8 125.2 130.8s.7813 4.094 2.344 5.656C130.6 139.6 135.7 139.6 138.8 136.5zM472 320H352c-3.031 0-5.812 1.719-7.156 4.438L315.1 384H196.9l-29.78-59.56C165.8 321.7 163 320 160 320H40C17.94 320 0 337.9 0 360v112C0 494.1 17.94 512 40 512h432c22.06 0 40-17.94 40-40v-112C512 337.9 494.1 320 472 320zM496 472c0 13.22-10.78 24-24 24H40c-13.22 0-24-10.78-24-24v-112c0-13.22 10.78-24 24-24h115.1l29.78 59.56C186.2 398.3 188.1 400 192 400h128c3.031 0 5.812-1.719 7.156-4.438L356.9 336H472c13.22 0 24 10.78 24 24V472z"/></svg>