<svg xmlns="http://www.w3.org/2000/svg" viewBox="0 0 320 512"><!--! Font Awesome Pro 6.1.1 by @fontawesome - https://fontawesome.com License - https://fontawesome.com/license (Commercial License) Copyright 2022 Fonticons, Inc. --><path d="M.0003 40C.0003 35.58 3.582 32 8 32H112C114.2 32 116.3 32.05 118.5 32.14C118.1 32.05 119.5 32 120 32H312C316.4 32 320 35.58 320 40C320 44.42 316.4 48 312 48H178C222.1 70.79 252.9 115.7 255.8 168H312C316.4 168 320 171.6 320 176C320 180.4 316.4 184 312 184H255.8C251.6 259.8 188.8 320 112 320H34.42L252.4 465.3C256.1 467.8 257.1 472.8 254.7 476.4C252.2 480.1 247.2 481.1 243.6 478.7L3.563 318.7C.6298 316.7-.6778 313.1 .3437 309.7C1.365 306.3 4.475 304 8 304H112C180 304 235.6 250.1 239.8 184H8.001C3.582 184 .0006 180.4 .0006 176C.0006 171.6 3.582 168 8.001 168H239.8C235.6 101 180 48 112 48H8C3.582 48 .0003 44.42 .0003 40V40z"/></svg>