<svg xmlns="http://www.w3.org/2000/svg" viewBox="0 0 448 512"><!--! Font Awesome Pro 6.1.1 by @fontawesome - https://fontawesome.com License - https://fontawesome.com/license (Commercial License) Copyright 2022 Fonticons, Inc. --><path d="M328.6 32c-26.15 0-51.48 7.375-72.3 20.88C235.1 20.5 195.1 0 151.8 0c-60.07 0-110.2 37.13-119.2 88.53c-.8273 6 .9054 12 4.73 16.44C41.22 109.4 46.94 112 53.04 112h68.37C91.7 152.9 87.9 205.3 113.7 242.1c3.668 4.875 9.147 7.875 14.94 8.281c.5151 .0313 1.03 .0625 1.53 .0625c5.385 0 10.61-2.188 14.55-6.156l71.19-71.27c1.731 67.04-8.976 132.8-18.75 177.3C197 350.9 197.5 351.4 197.5 352H136.3c-67.53 0-125.1 50.44-135.9 117.3c-1.592 10.78 1.577 21.69 8.679 29.94C16.08 507.3 26.19 512 36.87 512h310.4c10.66 0 20.79-4.656 27.77-12.75c7.102-8.25 10.27-19.16 8.663-29.97c-7.139-48.08-39.56-87.31-82.23-105.8C310 280.4 295.6 194 284.5 144h142.9c6.103 0 11.82-2.562 15.67-7.031c3.824-4.438 5.557-10.44 4.683-16.72C438.8 69.13 388.7 32 328.6 32zM367.9 471.6c.921 6.219-.8897 12.47-4.948 17.16C358.9 493.4 353.3 496 347.2 496H36.87c-6.103 0-11.68-2.562-15.69-7.219c-4.059-4.688-5.869-10.97-4.964-17.12C25.02 412.6 76.66 368 136.3 368h111.4C307.4 368 359.1 412.6 367.9 471.6zM285.8 358C273.6 354.4 260.1 352 247.8 352h-34.61c10.49-48.22 22.05-120.1 18.42-192.4c-.0312-.625-.5639-.9766-.722-1.543L244.9 144h23.28C278.1 191.7 293.6 276.4 285.8 358zM430.1 126.5C430.2 127.5 428.9 128 427.4 128h-43.33V104c0-4.406-3.575-8-7.992-8s-7.992 3.594-7.992 8L368 128h-129.8L188.1 177.4L173.1 162.3c-3.122-3.125-8.179-3.125-11.3 0s-3.122 8.188 0 11.31L177.7 188.7L133.4 232.1C132.4 233.9 131.3 234.4 129.8 234.4C128.6 234.3 127.3 233.6 126.6 232.7C102.4 198 109.7 146.2 144.2 109.5L156.8 96H112.4V72c0-4.406-3.575-8-7.992-8C99.95 64 96.37 67.59 96.37 72V96H53.04C51.56 96 50.29 95.47 49.48 94.53C48.65 93.56 48.28 92.16 48.42 91C55.93 48.25 100.4 16 151.8 16c40.8 0 78.1 20.47 95 52.16l4.433 8.281l7.461-5.688C277.1 56.06 302.8 48 328.6 48c51.43 0 95.89 32.25 103.4 74.72C432.2 124.2 431.8 125.6 430.1 126.5z"/></svg>