<svg xmlns="http://www.w3.org/2000/svg" viewBox="0 0 576 512"><!--! Font Awesome Pro 6.0.0-beta3 by @fontawesome - https://fontawesome.com License - https://fontawesome.com/license (Commercial License) Copyright 2021 Fonticons, Inc. --><path d="M439.5 319.1c-16.4 0-57.64 40.93-151.5 40.93H280v20.94c0 3.656-2.875 6.531-6.531 6.531H258.9c-3.656 0-6.531-2.875-6.531-6.531v-23.34l-6.797-1.031C177.7 347.1 149.1 319.1 136.6 319.1c-11.51 0-22.55 9.348-22.55 22.25c0 7.716 8.488 27.67 19.68 43.48c8.391 11.72 19.39 22.03 33.64 31.53l12.2 8.125l.2344-14.66c.0625-3.562 2.875-6.344 6.422-6.344h14.55c3.656 0 6.531 2.875 6.531 6.562v25.53l5.75 1.688C235.4 444.7 260.6 447.1 288 447.1s52.59-3.311 74.94-9.842l5.75-1.688v-25.53c0-3.687 2.875-6.562 6.531-6.562h14.55c3.5 0 6.312 2.781 6.422 6.344l.4375 14.28l11.95-7.844c13.94-9.156 25.42-19.91 34.14-31.1c10.54-14.8 19.23-35.05 19.23-42.93C461.1 329.2 450.9 319.1 439.5 319.1zM445.6 344.3c-10.75 31.14-26.95 45.37-37.47 53.53c-4.062-5.781-10.75-9.5-18.34-9.5h-14.55c-12.42 0-22.53 10.12-22.53 22.56v13.44C333.2 429.4 310.6 431.1 288 431.1s-45.23-2.531-64.69-7.594v-13.44c0-12.44-10.11-22.56-22.53-22.56H186.2c-7.531 0-14.25 3.812-18.33 9.594c-29.86-23.11-37.87-54.93-37.87-55.77c0-3.48 3.381-6.235 6.531-6.235c5.476 0 36.5 25.08 99.83 36.19v9.687c0 12.44 10.11 22.53 22.53 22.53h14.55c12.42 0 22.53-10.09 22.53-22.53v-5.031c88.92-2.401 137-40.83 143.4-40.83c2.485 0 6.54 2.092 6.54 6.191C445.1 342.8 445.9 343.6 445.6 344.3zM248 104c3.094 0 6.047-1.812 7.344-4.844l33.58-78.1c1.158-2.863 4.097-5.078 7.422-5.078c1.17 0 2.388 .2742 3.593 .8908l39.61 19.75C342.3 37.1 344 40.72 344 43.72v52.28c0 4.406 3.578 7.1 8 7.1s8-3.594 8-7.1V43.72c0-9.094-5.094-17.31-13.31-21.41l-39.53-19.72c-1.999-1.026-5.747-2.589-10.78-2.589c-10.11 0-18.76 6.304-22.22 14.93l-33.5 77.91c-.4448 1.033-.6555 2.106-.6555 3.161C240 99.49 242.8 104 248 104zM432.2 130.2c-22.05 0-39.64 7.97-44.02 11.4C359.6 127.3 326.1 119.9 288 119.9S216.4 127.3 187.8 141.6C183.5 138.2 165.8 130.3 143.8 130.3C59.19 130.3 0 246.5 0 319.9c0 87.93 67.07 192.1 155.3 192.1c23.82 0 47.66-7.076 67.25-20.99c18.31 13.81 40.31 20.99 65.45 20.99c25.09 0 47.1-7.05 65.51-20.83C373.1 505.1 396.9 512 420.8 512C508.4 512 576 408.5 576 319.9C576 250.5 518.1 130.2 432.2 130.2zM420.8 495.8c-44.45 0-59.88-22.74-67.38-22.74c-8.076 0-20.6 22.91-65.4 22.91c-44.79 0-57.16-22.88-65.29-22.88c-7.471 0-23.26 22.69-67.39 22.69C77.86 495.7 16 400.9 16 319.8c0-84.61 65.56-172.8 126.7-172.8c9.229 0 18.54 1.6 27.58 4.778C156.3 160.8 136 177.5 136 183.1c0 4.994 4.138 7.993 8.021 7.993c9.592 0 40.14-55.98 143.1-55.98c103.9 0 134.3 55.99 144 55.99c4.436 0 7.996-3.591 7.996-8.001c0-6.276-19.72-22.79-34.25-32.29c9.038-3.178 18.34-4.778 27.57-4.778C494.9 146.9 560 235.8 560 319.8C560 399.7 499.1 495.8 420.8 495.8zM167.1 296h73.98c10.35 0 13.99-8.237 13.99-13.84c0-2.46-.5782-4.995-1.784-7.347L216.7 214.3C213.7 210.2 208.1 207.1 204.4 207.1c-3.038 0-8.896 1.491-11.61 6.878L155.5 275.2C154.4 277.3 153.9 279.6 153.9 281.1C153.9 289.2 158.1 296 167.1 296zM204.1 225.5l34.39 54.5H171.3L204.1 225.5zM331 296h73.98c10.29 0 13.99-8.226 13.99-13.85c0-2.45-.5749-4.981-1.775-7.336l-37.42-60.56c-3.004-4.005-7.545-6.297-12.24-6.297c-3.078 0-8.992 1.477-11.76 6.922L318.6 275.2c-1.112 2.044-1.664 4.423-1.664 6.81C316.9 289.3 322.1 296 331 296zM368 225.5l34.39 54.5h-68L368 225.5z"/></svg>