<svg xmlns="http://www.w3.org/2000/svg" viewBox="0 0 576 512"><!--! Font Awesome Pro 6.1.1 by @fontawesome - https://fontawesome.com License - https://fontawesome.com/license (Commercial License) Copyright 2022 Fonticons, Inc. --><path d="M353.1 127.6C357.7 137.2 360 147.7 360 158.3V215.1C361.4 215.1 362.8 216.4 364.1 217.1L528 313.1V264C528 259.6 531.6 256 536 256C540.4 256 544 259.6 544 264V408C544 412.4 540.4 416 536 416C531.6 416 528 412.4 528 408V384H360V389.1L410.5 450.5C414.1 454.8 416 460.2 416 465.7V488C416 501.3 405.3 512 392 512H184C170.7 512 160 501.3 160 488V465.7C160 460.2 161.9 454.8 165.5 450.5L216 389.1V384H48V408C48 412.4 44.42 416 40 416C35.58 416 32 412.4 32 408V264C32 259.6 35.58 256 40 256C44.42 256 48 259.6 48 264V313.1L211.9 217.1C213.2 216.4 214.6 215.1 216 215.1V158.3C216 147.7 218.3 137.2 222.9 127.6L280.8 4.594C282.1 1.79 284.9 0 288 0C291.1 0 293.9 1.79 295.2 4.594L353.1 127.6zM392 496C396.4 496 400 492.4 400 488V465.7C400 463.9 399.4 462.1 398.2 460.7L345.8 397.1C344.6 395.7 344 393.9 344 392V158.3C344 150.1 342.2 141.9 338.7 134.5L287.1 26.79L237.3 134.5C233.8 141.9 231.1 150.1 231.1 158.3V392C231.1 393.9 231.4 395.7 230.2 397.1L177.8 460.7C176.6 462.1 175.1 463.9 175.1 465.7V488C175.1 492.4 179.6 496 183.1 496H279.1V416C279.1 411.6 283.6 408 287.1 408C292.4 408 296 411.6 296 416V496L392 496zM528 332.6L360 233.3V368H528V332.6zM216 368V233.3L48 332.6V368L216 368z"/></svg>