<svg xmlns="http://www.w3.org/2000/svg" viewBox="0 0 640 512"><!--! Font Awesome Pro 6.1.1 by @fontawesome - https://fontawesome.com License - https://fontawesome.com/license (Commercial License) Copyright 2022 Fonticons, Inc. --><path d="M639.2 404.4l-152-304c-2.719-5.438-11.59-5.438-14.31 0l-152 304c-1.969 3.938-.375 8.751 3.578 10.72c3.984 1.969 8.766 .375 10.73-3.594l37.78-75.57h214.1l37.78 75.57c1.406 2.813 4.234 4.438 7.156 4.438c1.203 0 2.422-.2813 3.578-.8438C639.5 413.2 641.1 408.4 639.2 404.4zM380.9 319.1l99.06-198.1l99.06 198.1H380.9zM315.6 96.81C311.6 94.93 306.8 96.43 304.8 100.4l-144.8 289.7L15.16 100.4C13.17 96.43 8.39 94.9 4.421 96.81C.4683 98.78-1.125 103.6 .8433 107.5l152 304c1.359 2.719 4.126 4.445 7.157 4.445s5.796-1.726 7.155-4.445l152-304C321.1 103.6 319.5 98.78 315.6 96.81zM447.6 .8021C443.6-1.073 438.8 .427 436.8 4.396l-248 496c-1.969 3.938-.375 8.751 3.578 10.72c1.156 .5625 2.375 .8438 3.578 .8438c2.922 0 5.75-1.625 7.156-4.438l248-496C453.1 7.584 451.5 2.771 447.6 .8021z"/></svg>