<svg xmlns="http://www.w3.org/2000/svg" viewBox="0 0 448 512"><!--! Font Awesome Pro 6.0.0-beta3 by @fontawesome - https://fontawesome.com License - https://fontawesome.com/license (Commercial License) Copyright 2021 Fonticons, Inc. --><path d="M304 0C224.5 0 160 64.47 160 144c0 36.87 14.27 70.15 37.06 95.63l-194.7 194.7c-3.125 3.125-3.125 8.188 0 11.31l64 64C67.91 511.2 69.95 512 72 512s4.094-.7813 5.656-2.344c3.125-3.125 3.125-8.188 0-11.31L19.31 440L72 387.3l58.34 58.34C131.9 447.2 133.1 448 136 448s4.094-.7813 5.656-2.344c3.125-3.125 3.125-8.188 0-11.31L83.31 376l125.1-125.1C233.8 273.7 267.1 288 304 288C383.5 288 448 223.5 448 144S383.5 0 304 0zM304 272c-35.17 0-67.04-14.28-90.2-37.31C213.7 234.6 213.8 234.4 213.7 234.3S213.4 234.3 213.3 234.2C190.3 211 176 179.2 176 144c0-70.58 57.42-128 128-128c70.58 0 128 57.42 128 128S374.6 272 304 272z"/></svg>