<svg xmlns="http://www.w3.org/2000/svg" viewBox="0 0 640 512"><!--! Font Awesome Pro 6.1.1 by @fontawesome - https://fontawesome.com License - https://fontawesome.com/license (Commercial License) Copyright 2022 Fonticons, Inc. --><path d="M205.7 282.3C208.8 285.5 208.8 290.5 205.7 293.7C202.5 296.8 197.5 296.8 194.3 293.7L90.34 189.7C87.22 186.5 87.22 181.5 90.34 178.3C93.47 175.2 98.53 175.2 101.7 178.3L205.7 282.3zM312 96C312 91.58 315.6 88 320 88C324.4 88 328 91.58 328 96V240C328 244.4 324.4 248 320 248C315.6 248 312 244.4 312 240V96zM538.3 178.3C541.5 175.2 546.5 175.2 549.7 178.3C552.8 181.5 552.8 186.5 549.7 189.7L445.7 293.7C442.5 296.8 437.5 296.8 434.3 293.7C431.2 290.5 431.2 285.5 434.3 282.3L538.3 178.3zM0 408C0 403.6 3.582 400 8 400H120C124.4 400 128 403.6 128 408C128 412.4 124.4 416 120 416H8C3.582 416 0 412.4 0 408zM440 400C444.4 400 448 403.6 448 408C448 412.4 444.4 416 440 416H200C195.6 416 192 412.4 192 408C192 403.6 195.6 400 200 400H440zM632 400C636.4 400 640 403.6 640 408C640 412.4 636.4 416 632 416H520C515.6 416 512 412.4 512 408C512 403.6 515.6 400 520 400H632z"/></svg>