<svg xmlns="http://www.w3.org/2000/svg" viewBox="0 0 576 512"><!--! Font Awesome Pro 6.1.1 by @fontawesome - https://fontawesome.com License - https://fontawesome.com/license (Commercial License) Copyright 2022 Fonticons, Inc. --><path d="M200 296h48v48c0 8.828 7.172 16 16 16h48c8.828 0 16-7.172 16-16v-48h48c8.828 0 16-7.172 16-16v-48c0-8.828-7.172-16-16-16h-48v-48c0-8.828-7.172-16-16-16h-48c-8.828 0-16 7.172-16 16v48h-48c-8.828 0-16 7.172-16 16v48C184 288.8 191.2 296 200 296zM200 232h64v-64h48v64h64v48h-64v64h-48v-64h-64V232zM512 32H64C28.65 32 0 60.65 0 96v320c0 35.34 28.65 64 64 64h448c35.35 0 64-28.66 64-64V96C576 60.65 547.3 32 512 32zM96 464H64c-26.47 0-48-21.53-48-48V96c0-26.47 21.53-48 48-48h32V464zM464 464h-352v-416h352V464zM560 416c0 26.47-21.53 48-48 48h-32v-416h32c26.47 0 48 21.53 48 48V416z"/></svg>