<svg xmlns="http://www.w3.org/2000/svg" viewBox="0 0 576 512"><!--! Font Awesome Pro 6.1.1 by @fontawesome - https://fontawesome.com License - https://fontawesome.com/license (Commercial License) Copyright 2022 Fonticons, Inc. --><path d="M240 144C240 197 197 240 144 240C90.98 240 48 197 48 144C48 90.98 90.98 48 144 48C197 48 240 90.98 240 144zM144 64C99.82 64 64 99.82 64 144C64 188.2 99.82 224 144 224C188.2 224 224 188.2 224 144C224 99.82 188.2 64 144 64zM287.8 152C283.6 227.8 220.8 288 144 288C64.47 288 0 223.5 0 144C0 64.47 64.47 0 144 0C220.8 0 283.6 60.19 287.8 136H353C356.6 122.2 369.1 112 384 112H512C529.7 112 544 126.3 544 144C544 161.7 529.7 176 512 176H384C369.1 176 356.6 165.8 353 152H287.8zM144 272C214.7 272 272 214.7 272 144C272 73.31 214.7 16 144 16C73.31 16 16 73.31 16 144C16 214.7 73.31 272 144 272zM512 160C520.8 160 528 152.8 528 144C528 135.2 520.8 128 512 128H384C375.2 128 368 135.2 368 144C368 152.8 375.2 160 384 160H512zM336 320V296C336 282.7 346.7 272 360 272H440C453.3 272 464 282.7 464 296V320H536C540.4 320 544 323.6 544 328C544 332.4 540.4 336 536 336H528V464C528 490.5 506.5 512 480 512H320C293.5 512 272 490.5 272 464V336H264C259.6 336 256 332.4 256 328C256 323.6 259.6 320 264 320H336zM352 320H448V296C448 291.6 444.4 288 440 288H360C355.6 288 352 291.6 352 296V320zM512 336H288V464C288 481.7 302.3 496 320 496H480C497.7 496 512 481.7 512 464V336zM0 504C0 499.6 3.582 496 8 496H216C220.4 496 224 499.6 224 504C224 508.4 220.4 512 216 512H8C3.582 512 0 508.4 0 504zM176 416H160V432C160 449.7 145.7 464 128 464H64C46.33 464 32 449.7 32 432V336C32 327.2 39.16 320 48 320H176C202.5 320 224 341.5 224 368C224 394.5 202.5 416 176 416zM160 400H176C193.7 400 208 385.7 208 368C208 350.3 193.7 336 176 336H160V400zM48 432C48 440.8 55.16 448 64 448H128C136.8 448 144 440.8 144 432V336H48V432z"/></svg>