<svg xmlns="http://www.w3.org/2000/svg" viewBox="0 0 640 512"><!--! Font Awesome Pro 6.1.1 by @fontawesome - https://fontawesome.com License - https://fontawesome.com/license (Commercial License) Copyright 2022 Fonticons, Inc. --><path d="M256 416H48C21.49 416 0 394.5 0 368V48C0 21.49 21.49 0 48 0H188.1C189 0 189.1 .0266 190.9 .079C191.2 .0269 191.6 0 192 0C192.9 0 193.8 .1565 194.6 .4445C204.1 1.859 214.6 6.608 222.1 14.06L305.9 97.94C313.4 105.4 318.1 115 319.6 125.4C319.8 126.2 320 127.1 320 127.1C320 128.4 319.1 128.8 319.9 129.1C319.1 130 320 130.1 320 131.9V207.1H304V135.1H224C201.9 135.1 184 118.1 184 95.1V15.1H48C30.33 15.1 16 30.33 16 47.1V368C16 385.7 30.33 400 48 400H256V416zM210.7 25.37C207.7 22.28 203.1 19.88 200 18.29V95.1C200 109.3 210.7 119.1 224 119.1H301.7C300.1 116 297.7 112.3 294.6 109.3L210.7 25.37zM625.6 440C633.6 440 640 446.4 640 454.4C640 486.2 614.2 512 582.4 512H313.6C281.8 512 256 486.2 256 454.4C256 446.4 262.4 440 270.4 440H304V296C304 273.9 321.9 256 344 256H552C574.1 256 592 273.9 592 296V440H625.6zM344 272C330.7 272 320 282.7 320 296V440H576V296C576 282.7 565.3 272 552 272H344zM582.4 496C604.8 496 623.1 478.2 623.1 456H272C272.9 478.2 291.2 496 313.6 496H582.4z"/></svg>