<svg xmlns="http://www.w3.org/2000/svg" viewBox="0 0 640 512"><!--! Font Awesome Pro 6.0.0-beta3 by @fontawesome - https://fontawesome.com License - https://fontawesome.com/license (Commercial License) Copyright 2021 Fonticons, Inc. --><path d="M218.3 194.3c-3.125 3.125-3.125 8.188 0 11.31l95.1 95.1C315.8 303.1 317.8 304 320 304s4.213-.8984 5.66-2.348l95.1-95.1c3.125-3.125 3.125-8.188 0-11.31s-8.188-3.125-11.31 0L328 276.7V40c0-4.422-3.575-8-7.997-8S312 35.58 312 40v236.7L229.7 194.3C226.5 191.2 221.5 191.2 218.3 194.3zM392 48h136c17.67 0 32 14.33 32 32v264c0 4.418 3.582 8 8 8S576 348.4 576 344V80C576 53.6 554.4 32 528 32h-136C387.6 32 384 35.58 384 40S387.6 48 392 48zM72 352c4.418 0 8-3.582 8-8V80c0-17.67 14.33-32 32-32h136C252.4 48 256 44.42 256 40S252.4 32 248 32H112C85.6 32 64 53.6 64 80v264C64 348.4 67.58 352 72 352zM624 384h-608C7.188 384 0 391.2 0 400V416c0 35.2 28.81 64 64 64h512c35.19 0 64-28.8 64-64v-16C640 391.2 632.8 384 624 384zM624 416c0 26.47-21.53 48-48 48H64c-26.47 0-48-21.53-48-48v-16h608V416z"/></svg>