<svg xmlns="http://www.w3.org/2000/svg" viewBox="0 0 576 512"><!--! Font Awesome Pro 6.1.1 by @fontawesome - https://fontawesome.com License - https://fontawesome.com/license (Commercial License) Copyright 2022 Fonticons, Inc. --><path d="M279.1 .0636C284.4-.0103 288 3.578 288 7.997C288 12.41 284.4 15.99 279.1 16.06C133.5 18.56 16 89.21 16 175.1C16 229.9 61.3 277.6 130.7 306.6C136.6 309 142.8 311.4 149 313.6C189.7 327.8 237.2 335.1 288 335.1C438.2 335.1 560 264.4 560 175.1C560 108.9 489.8 51.45 390.2 27.68C386.6 26.82 384 23.59 384 19.87C384 14.8 388.7 11.02 393.6 12.21C500.4 37.95 576 101.6 576 175.1C576 273.2 447.1 351.1 288 351.1C257.6 351.1 228.4 349.1 200.9 343.8C220.4 361.9 232 387.6 232 414.1C232 468.6 188.6 511.1 135 511.1H40C35.58 511.1 32 508.4 32 503.1C32 499.6 35.58 495.1 40 495.1H135C179.7 495.1 216 459.7 216 414.1C216 384.3 198.7 356.3 171.2 342.6L140.5 327.2C56.36 296.5 0 240.3 0 175.1C0 80.43 124.6 2.659 279.1 .063V.0636zM336 7.996C340.4 7.996 344 11.58 344 15.1V71.1H400C404.4 71.1 408 75.58 408 79.1C408 84.41 404.4 87.1 400 87.1H344V143.1C344 148.4 340.4 151.1 336 151.1C331.6 151.1 328 148.4 328 143.1V87.1H272C267.6 87.1 264 84.41 264 79.1C264 75.58 267.6 71.1 272 71.1H328V15.1C328 11.58 331.6 7.996 336 7.996V7.996zM504 423.1H560C564.4 423.1 568 427.6 568 431.1C568 436.4 564.4 439.1 560 439.1H504V495.1C504 500.4 500.4 503.1 496 503.1C491.6 503.1 488 500.4 488 495.1V439.1H432C427.6 439.1 424 436.4 424 431.1C424 427.6 427.6 423.1 432 423.1H488V367.1C488 363.6 491.6 359.1 496 359.1C500.4 359.1 504 363.6 504 367.1V423.1z"/></svg>