<svg xmlns="http://www.w3.org/2000/svg" viewBox="0 0 512 512"><!--! Font Awesome Pro 6.0.0-beta3 by @fontawesome - https://fontawesome.com License - https://fontawesome.com/license (Commercial License) Copyright 2021 Fonticons, Inc. --><path d="M495.2 261.9l-225.8-99.23c-8.516-3.563-18.3-3.594-26.94 .0625L16.77 261.9C6.422 266.4 0 276.4 0 287.1s6.422 21.53 16.77 26.06l225.8 99.16c4.281 1.844 8.885 2.954 13.48 2.954c4.609 0 9.208-1.11 13.52-2.985l225.7-99.13C505.6 309.5 512 299.5 512 287.1S505.6 266.4 495.2 261.9zM488.8 299.4l-225.7 99.1c-4.5 1.969-9.688 2-14.19 .0313L23.2 299.4C18.69 297.4 16 293.1 16 287.1s2.688-9.438 7.203-11.44l225.6-99.1c4.562-2 9.781-1.938 14.25-.0625l225.7 99.16C493.3 278.5 496 282.8 496 287.1S493.3 297.4 488.8 299.4zM495.2 357.9c-4-1.781-8.734 .0625-10.55 4.094c-1.781 4.032 .0625 8.751 4.109 10.53C493.3 374.6 496 378.8 496 383.1s-2.688 9.438-7.203 11.44l-225.7 99.1c-4.5 1.969-9.688 2-14.19 .0313l-225.7-99.13C18.69 393.4 16 389.1 16 383.1s2.688-9.438 7.203-11.44c4.047-1.781 5.891-6.501 4.109-10.53c-1.781-4.032-6.453-5.876-10.55-4.094C6.422 362.5 0 372.5 0 384s6.422 21.49 16.77 26.03l225.8 99.16C246.8 511.1 251.4 512 255.1 512c4.609 0 9.223-.9376 13.54-2.813l225.7-99.13C505.6 405.5 512 395.6 512 384S505.6 362.5 495.2 357.9zM328 104l80-.0065v80.01c0 4.422 3.594 8.001 8 8.001s8-3.578 8-8.001V104h80c4.406 0 8-3.578 8-8.001s-3.594-8.001-8-8.001h-80V8.001C424 3.578 420.4 0 416 0s-8 3.578-8 8.001v80.01h-80c-4.406 0-8 3.578-8 8.001S323.6 104 328 104z"/></svg>