<svg xmlns="http://www.w3.org/2000/svg" viewBox="0 0 512 512"><!--! Font Awesome Pro 6.1.1 by @fontawesome - https://fontawesome.com License - https://fontawesome.com/license (Commercial License) Copyright 2022 Fonticons, Inc. --><path d="M440 72H488C492.4 72 496 75.58 496 80C496 84.42 492.4 88 488 88H440V136C440 140.4 436.4 144 432 144C427.6 144 424 140.4 424 136V88H376C371.6 88 368 84.42 368 80C368 75.58 371.6 72 376 72H424V24C424 19.58 427.6 16 432 16C436.4 16 440 19.58 440 24V72zM274.6 139.1L491.1 237.4C499.3 240.7 504 247.1 504 256C504 264 499.3 271.3 491.1 274.6L274.6 372C268.7 374.6 262.4 376 256 376C249.6 376 243.3 374.6 237.4 372L20.03 274.6C12.71 271.3 8 264 8 256C8 247.1 12.71 240.7 20.03 237.4L237.4 139.1C243.3 137.4 249.6 136 256 136C262.4 136 268.7 137.4 274.6 139.1V139.1zM26.57 252C25.01 252.7 24 254.3 24 256C24 257.7 25.01 259.3 26.57 259.1L243.1 357.4C247.8 359.1 251.9 360 256 360C260.1 360 264.2 359.1 268 357.4L485.4 259.1C486.1 259.3 488 257.7 488 256C488 254.3 486.1 252.7 485.4 252L268 154.6C264.2 152.9 260.1 152 256 152C251.9 152 247.8 152.9 243.1 154.6L26.57 252zM26.57 380C25.01 380.7 24 382.3 24 384C24 385.7 25.01 387.3 26.57 387.1L243.1 485.4C247.8 487.1 251.9 488 256 488C260.1 488 264.2 487.1 268 485.4L485.4 387.1C486.1 387.3 488 385.7 488 384C488 382.3 486.1 380.7 485.4 380L444.7 361.8C440.7 359.1 438.9 355.2 440.7 351.2C442.5 347.2 447.2 345.4 451.3 347.2L491.1 365.4C499.3 368.7 504 375.1 504 384C504 392 499.3 399.3 491.1 402.6L274.6 500C268.7 502.6 262.4 504 256 504C249.6 504 243.3 502.6 237.4 500L20.03 402.6C12.71 399.3 8 392 8 384C8 375.1 12.71 368.7 20.03 365.4L60.73 347.2C64.76 345.4 69.49 347.2 71.3 351.2C73.11 355.2 71.3 359.1 67.27 361.8L26.57 380z"/></svg>