<svg xmlns="http://www.w3.org/2000/svg" viewBox="0 0 512 512"><!--! Font Awesome Pro 6.0.0-beta3 by @fontawesome - https://fontawesome.com License - https://fontawesome.com/license (Commercial License) Copyright 2021 Fonticons, Inc. --><path d="M16.77 175l225.8 92.09c4.281 1.712 8.875 2.583 13.47 2.583c4.609 0 9.219-.8707 13.53-2.612l225.7-92.06C505.6 170.8 512 161.5 512 150.8c0-10.71-6.422-19.1-16.77-24.2l-225.8-92.15c-8.516-3.309-18.3-3.338-26.94 .058L16.77 126.6C6.422 130.8 0 140.1 0 150.8C0 161.5 6.422 170.8 16.77 175zM23.2 140.2L248.8 48.18c4.562-1.857 9.781-1.799 14.25-.058l225.7 92.09C493.3 142.1 496 146 496 150.8c0 4.789-2.688 8.765-7.203 10.62L263.1 253.5C258.6 255.3 253.4 255.3 248.9 253.5L23.2 161.5C18.69 159.6 16 155.6 16 150.8C16 146 18.69 142.1 23.2 140.2zM495.2 215.8c-4-1.654-8.734 .058-10.55 3.802c-1.781 3.744 .0625 8.126 4.109 9.781C493.3 231.2 496 235.2 496 239.1s-2.688 8.765-7.203 10.62l-225.7 92.03c-4.5 1.828-9.688 1.857-14.19 .029L23.2 250.6C18.69 248.8 16 244.8 16 239.1s2.688-8.765 7.203-10.62c4.047-1.654 5.891-6.037 4.109-9.781S20.8 214.1 16.77 215.8C6.422 219.1 0 229.3 0 239.1s6.422 19.1 16.77 24.2l225.8 92.09c4.281 1.712 8.875 2.583 13.47 2.583c4.609 0 9.219-.8707 13.53-2.612l225.7-92.06C505.6 259.1 512 250.7 512 239.1S505.6 219.1 495.2 215.8zM495.2 304.9c-4-1.625-8.734 .058-10.55 3.802c-1.781 3.744 .0625 8.126 4.109 9.781C493.3 320.4 496 324.4 496 329.2s-2.688 8.765-7.203 10.62l-225.7 92.03c-4.562 1.799-9.75 1.77-14.22 .029l-225.7-92.06C18.69 337.9 16 333.9 16 329.2s2.688-8.765 7.203-10.62c4.047-1.654 5.891-6.037 4.109-9.781S20.8 303.3 16.77 304.9C6.422 309.2 0 318.4 0 329.2s6.422 19.1 16.77 24.2l225.8 92.09C246.8 447.2 251.4 448 255.1 448c4.609 0 9.219-.8416 13.53-2.583l225.7-92.06C505.6 349.1 512 339.9 512 329.2S505.6 309.2 495.2 304.9z"/></svg>