<svg xmlns="http://www.w3.org/2000/svg" viewBox="0 0 512 512"><!--! Font Awesome Pro 6.0.0-beta3 by @fontawesome - https://fontawesome.com License - https://fontawesome.com/license (Commercial License) Copyright 2021 Fonticons, Inc. --><path d="M495.2 357.9c-4-1.781-8.734 .0625-10.55 4.094c-1.781 4.032 .0625 8.751 4.109 10.53C493.3 374.5 496 378.8 496 383.1s-2.688 9.438-7.203 11.44l-225.7 99.1c-4.5 1.969-9.688 2-14.19 .0313l-225.7-99.14C18.69 393.4 16 389.1 16 383.1s2.688-9.438 7.203-11.44c4.047-1.781 5.891-6.501 4.109-10.53s-6.453-5.876-10.55-4.094C6.422 362.5 0 372.5 0 384c0 11.53 6.422 21.49 16.77 26.02l225.8 99.17C246.8 511.1 251.4 512 255.1 512c4.609 0 9.223-.9376 13.54-2.813l225.7-99.14C505.6 405.5 512 395.6 512 384C512 372.5 505.6 362.5 495.2 357.9zM495.2 261.9l-225.8-99.23c-8.516-3.563-18.3-3.594-26.94 .0625L16.77 261.9C6.422 266.4 0 276.4 0 287.1s6.422 21.53 16.77 26.07l225.8 99.17c4.281 1.844 8.885 2.955 13.48 2.955c4.609 0 9.208-1.111 13.52-2.986l225.7-99.14C505.6 309.5 512 299.5 512 287.1S505.6 266.4 495.2 261.9zM488.8 299.4L263.1 398.5c-4.5 1.969-9.688 2-14.19 .0313l-225.7-99.14C18.69 297.4 16 293.1 16 287.1S18.69 278.5 23.2 276.5l225.6-99.1c4.562-2 9.781-1.938 14.25-.0625l225.7 99.17C493.3 278.5 496 282.8 496 287.1S493.3 297.4 488.8 299.4zM328 104h176c4.406 0 8-3.578 8-8.001C512 91.58 508.4 88 504 88h-176C323.6 88 320 91.58 320 96C320 100.4 323.6 104 328 104z"/></svg>