<svg xmlns="http://www.w3.org/2000/svg" viewBox="0 0 512 512"><!--! Font Awesome Pro 6.0.0-beta3 by @fontawesome - https://fontawesome.com License - https://fontawesome.com/license (Commercial License) Copyright 2021 Fonticons, Inc. --><path d="M509.1 249.8l-144-120c-2.375-1.969-5.719-2.344-8.516-1.094C353.8 130 352 132.9 352 135.1v112L160 247.1V135.1C160 132.9 158.2 130 155.4 128.7C152.6 127.4 149.3 127.9 146.9 129.8l-144 120C1.063 251.4 0 253.6 0 255.1s1.062 4.621 2.875 6.152l144 120C148.3 383.4 150.2 384 152 384c1.156 0 2.312-.25 3.391-.75C158.2 381.9 160 379.1 160 376V263.1l192-.0078v112c0 3.094 1.797 5.938 4.609 7.25c1.078 .5 2.234 .75 3.391 .75c1.844 0 3.656-.625 5.125-1.844l144-120C510.9 260.6 512 258.4 512 255.1S510.9 251.4 509.1 249.8zM144 358.9L20.5 255.1L144 153.1V358.9zM368 358.9V153.1l123.5 102.9L368 358.9z"/></svg>