<svg xmlns="http://www.w3.org/2000/svg" viewBox="0 0 384 512"><!--! Font Awesome Pro 6.0.0-beta3 by @fontawesome - https://fontawesome.com License - https://fontawesome.com/license (Commercial License) Copyright 2021 Fonticons, Inc. --><path d="M199.9 232V88c0-4.406-3.562-8.001-7.969-8.001S183.9 83.6 183.9 88v144c0 4.406 3.635 7.998 8.042 7.998S199.9 236.4 199.9 232zM176 288c0 8.82 7.178 15.1 16 15.1s16-7.177 16-15.1S200.8 272 192 272S176 279.2 176 288zM316.3 51.53C283 18.28 238.9 0 192 0L191.5 .0127C94.74 .3096 16 79.55 16 176.7c0 42.78 15.47 84.06 43.59 116.2c13.51 15.45 38.54 52.09 48.01 84.05c.498 4.375 4.422 7.5 8.842 7c4.359-.5156 7.504-4.484 6.975-8.875l-.373-2.094c-10.37-34.98-37.08-74.17-51.5-90.64c-25.53-29.23-39.6-66.77-39.6-105.7c0-89.81 70.08-160.4 159.6-160.7h.5293c42.65 0 82.75 16.63 112.1 46.86c30.36 30.38 47.07 70.78 47.07 113.8c0 38.91-14.07 76.44-39.6 105.7c-14.41 16.47-41.13 55.66-51.81 92.16c0 .0313-.0625 .5625-.0625 .5782c-.5293 4.391 2.521 8.672 6.881 9.188c.3418 .0313 .6855 .0469 1.027 .0469c3.922 0 7.254-2.719 7.721-6.766c9.652-32.55 34.68-69.19 48.2-84.64C352.5 260.7 368 219.4 368 176.7C368 129.4 349.6 84.92 316.3 51.53zM255.9 415.1H128.1c-8.812 0-15.98 7.18-15.97 16.03l-.0145 22.34c.0098 6.324 1.863 12.42 5.355 17.68l17.08 25.69C139.8 505.6 151.8 512 161.2 512h61.67c9.4 0 21.4-6.418 26.61-14.27l17.02-25.69c2.92-4.406 5.411-12.4 5.419-17.69l-.1144-22.34C271.8 423.2 264.7 415.1 255.9 415.1zM255.7 454.4c-.0039 2.148-1.467 6.992-2.654 8.785l-17.03 25.68c-2.258 3.406-9.211 7.149-13.29 7.149H161.3c-4.076 0-11.03-3.738-13.29-7.141L130.1 463.2c-1.76-2.656-2.691-5.742-2.697-8.934l-.0371-22.32h127.5L255.7 454.4z"/></svg>