<svg xmlns="http://www.w3.org/2000/svg" viewBox="0 0 640 512"><!--! Font Awesome Pro 6.1.1 by @fontawesome - https://fontawesome.com License - https://fontawesome.com/license (Commercial License) Copyright 2022 Fonticons, Inc. --><path d="M0 256C0 167.6 71.63 96 160 96H280C284.4 96 288 99.58 288 104C288 108.4 284.4 112 280 112H160C80.47 112 16 176.5 16 256C16 335.5 80.47 400 160 400H280C284.4 400 288 403.6 288 408C288 412.4 284.4 416 280 416H160C71.63 416 0 344.4 0 256zM480 416H360C355.6 416 352 412.4 352 408C352 403.6 355.6 400 360 400H480C559.5 400 624 335.5 624 256C624 176.5 559.5 112 480 112H360C355.6 112 352 108.4 352 104C352 99.58 355.6 96 360 96H480C568.4 96 640 167.6 640 256C640 344.4 568.4 416 480 416zM464 248C468.4 248 472 251.6 472 256C472 260.4 468.4 264 464 264H176C171.6 264 168 260.4 168 256C168 251.6 171.6 248 176 248H464z"/></svg>