<svg xmlns="http://www.w3.org/2000/svg" viewBox="0 0 640 512"><!--! Font Awesome Pro 6.1.1 by @fontawesome - https://fontawesome.com License - https://fontawesome.com/license (Commercial License) Copyright 2022 Fonticons, Inc. --><path d="M636.1 497.7C640.4 500.5 641 505.5 638.3 508.1C635.5 512.4 630.5 513 627 510.3L3.022 14.26C-.4365 11.51-1.012 6.481 1.738 3.022C4.487-.4365 9.52-1.012 12.98 1.738L636.1 497.7zM640 256C640 303.3 619.5 345.7 586.9 375L574.2 364.9C604.7 338.5 624 299.5 624 256C624 176.5 559.5 112 480 112H360C355.6 112 352 108.4 352 104C352 99.58 355.6 96 360 96H480C568.4 96 640 167.6 640 256zM360 416C355.6 416 352 412.4 352 408C352 403.6 355.6 400 360 400H386.2L406.5 416H360zM464 264H446.3L426.1 248H464C468.4 248 472 251.6 472 256C472 260.4 468.4 264 464 264zM193.7 248L213.9 264H176C171.6 264 168 260.4 168 256C168 251.6 171.6 248 176 248H193.7zM280 112H253.8L233.5 96H280C284.4 96 288 99.58 288 104C288 108.4 284.4 112 280 112H280zM16 256C16 335.5 80.47 400 160 400H280C284.4 400 288 403.6 288 408C288 412.4 284.4 416 280 416H160C71.64 416 .0006 344.4 .0006 256C.0006 208.7 20.48 166.3 53.06 136.1L65.82 147.1C35.31 173.5 16 212.5 16 256V256z"/></svg>