<svg xmlns="http://www.w3.org/2000/svg" viewBox="0 0 640 512"><!--! Font Awesome Pro 6.0.0-beta3 by @fontawesome - https://fontawesome.com License - https://fontawesome.com/license (Commercial License) Copyright 2021 Fonticons, Inc. --><path d="M128 320c-61.75 0-112-50.25-112-112S66.25 96 128 96h192c61.75 0 112 50.25 112 112S381.8 320 320 320H272c-4.406 0-8 3.578-8 8S267.6 336 272 336H320c70.59 0 128-57.42 128-128s-57.41-128-128-128H128c-70.59 0-128 57.42-128 128s57.41 128 128 128c4.406 0 8-3.578 8-8S132.4 320 128 320zM512 176c-4.406 0-8 3.578-8 8S507.6 192 512 192c61.75 0 112 50.25 112 112S573.8 416 512 416h-192c-61.75 0-112-50.25-112-112S258.3 192 320 192h48c4.406 0 8-3.578 8-8S372.4 176 368 176H320c-70.59 0-128 57.42-128 128s57.41 128 128 128h192c70.59 0 128-57.42 128-128S582.6 176 512 176z"/></svg>