<svg xmlns="http://www.w3.org/2000/svg" viewBox="0 0 640 512"><!--! Font Awesome Pro 6.0.0-beta3 by @fontawesome - https://fontawesome.com License - https://fontawesome.com/license (Commercial License) Copyright 2021 Fonticons, Inc. --><path d="M384 112h96c79.41 0 144 64.59 144 144c0 43.82-20.09 82.65-51.07 109.1l12.74 10.12C618.7 345.9 640 303.6 640 256c0-88.22-71.78-160-160-160h-96c-4.406 0-8 3.578-8 8S379.6 112 384 112zM256 400H160c-79.41 0-144-64.59-144-144c0-43.82 20.09-82.65 51.07-109.1L54.34 136.8C21.28 166.1 0 208.4 0 256c0 88.22 71.78 160 160 160h96c4.406 0 8-3.578 8-8S260.4 400 256 400zM12.99 1.73C11.53 .5664 9.771 0 8.025 0C5.674 0 3.336 1.029 1.738 3.012c-2.75 3.469-2.172 8.5 1.281 11.25l623.1 496C628.5 511.4 630.2 512 631.1 512c2.344 0 4.688-1.031 6.266-3.016c2.75-3.469 2.172-8.5-1.281-11.25L12.99 1.73z"/></svg>