<svg xmlns="http://www.w3.org/2000/svg" viewBox="0 0 320 512"><!--! Font Awesome Pro 6.0.0-beta3 by @fontawesome - https://fontawesome.com License - https://fontawesome.com/license (Commercial License) Copyright 2021 Fonticons, Inc. --><path d="M80 224H248C252.4 224 256 227.6 256 232C256 236.4 252.4 240 248 240H80V260.6C80 280.6 78.46 300.4 75.44 320H248C252.4 320 256 323.6 256 328C256 332.4 252.4 336 248 336H72.63C63.71 381.1 46.83 424.5 22.61 464H312C316.4 464 320 467.6 320 472C320 476.4 316.4 480 312 480H8C3.582 480 0 476.4 0 472C0 470.3 .5197 468.8 1.408 467.5C28.11 427.4 46.67 382.7 56.31 336H8C3.582 336 0 332.4 0 328C0 323.6 3.582 320 8 320H59.24C62.4 300.4 64 280.6 64 260.6V240H8C3.582 240 .0003 236.4 .0003 232C.0003 227.6 3.582 224 8 224H64V143.2C64 81.81 113.8 32 175.2 32C187.2 32 199.1 33.93 210.4 37.71L290.5 64.41C294.7 65.81 296.1 70.34 295.6 74.53C294.2 78.72 289.7 80.99 285.5 79.59L205.4 52.89C195.7 49.65 185.5 48 175.2 48C122.6 48 80 90.64 80 143.2V224z"/></svg>