<svg xmlns="http://www.w3.org/2000/svg" viewBox="0 0 576 512"><!--! Font Awesome Pro 6.1.1 by @fontawesome - https://fontawesome.com License - https://fontawesome.com/license (Commercial License) Copyright 2022 Fonticons, Inc. --><path d="M72 48.04C72 43.62 75.58 40.04 80 40.04H112C116.4 40.04 120 43.62 120 48.04V208H160C164.4 208 168 211.6 168 216C168 220.5 164.4 224 160 224H64C59.58 224 56 220.5 56 216C56 211.6 59.58 208 64 208H104V56.04H80C75.58 56.04 72 52.45 72 48.04V48.04zM143.2 318.7C129.9 303.5 106.8 301.8 91.49 314.1L69.21 334.1C65.85 336.1 60.8 336.6 57.93 333.2C55.05 329.9 55.44 324.8 58.79 321.9L81.08 302.8C103.1 283.1 136.2 286.3 155.3 308.2C173.2 328.6 172.6 359.3 154 379.1L74.47 464H168C172.4 464 176 467.6 176 472C176 476.4 172.4 480 168 480H56C52.81 480 49.93 478.1 48.66 475.2C47.39 472.3 47.98 468.9 50.16 466.5L142.4 368.2C155.3 354.3 155.7 332.9 143.2 318.7H143.2zM528 88C532.4 88 536 91.58 536 96C536 100.4 532.4 104 528 104H240C235.6 104 232 100.4 232 96C232 91.58 235.6 88 240 88H528zM528 248C532.4 248 536 251.6 536 256C536 260.4 532.4 264 528 264H240C235.6 264 232 260.4 232 256C232 251.6 235.6 248 240 248H528zM528 408C532.4 408 536 411.6 536 416C536 420.4 532.4 424 528 424H240C235.6 424 232 420.4 232 416C232 411.6 235.6 408 240 408H528z"/></svg>