<svg xmlns="http://www.w3.org/2000/svg" viewBox="0 0 512 512"><!--! Font Awesome Pro 6.0.0-beta3 by @fontawesome - https://fontawesome.com License - https://fontawesome.com/license (Commercial License) Copyright 2021 Fonticons, Inc. --><path d="M69.66 141.7C66.73 144.6 62.06 144.8 58.88 142.1L10.88 102.1C7.484 99.32 7.026 94.27 9.854 90.88C12.68 87.48 17.73 87.03 21.12 89.85L63.51 125.2L146.3 42.34C149.5 39.22 154.5 39.22 157.7 42.34C160.8 45.47 160.8 50.53 157.7 53.66L69.66 141.7zM69.66 301.7C66.73 304.6 62.06 304.8 58.88 302.1L10.88 262.1C7.484 259.3 7.026 254.3 9.854 250.9C12.68 247.5 17.73 247 21.12 249.9L63.51 285.2L146.3 202.3C149.5 199.2 154.5 199.2 157.7 202.3C160.8 205.5 160.8 210.5 157.7 213.7L69.66 301.7zM200 95.1C200 91.58 203.6 87.1 208 87.1H496C500.4 87.1 504 91.58 504 95.1C504 100.4 500.4 103.1 496 103.1H208C203.6 103.1 200 100.4 200 95.1zM200 255.1C200 251.6 203.6 247.1 208 247.1H496C500.4 247.1 504 251.6 504 255.1C504 260.4 500.4 263.1 496 263.1H208C203.6 263.1 200 260.4 200 255.1zM168 416C168 411.6 171.6 408 176 408H496C500.4 408 504 411.6 504 416C504 420.4 500.4 424 496 424H176C171.6 424 168 420.4 168 416zM64 432C55.16 432 48 424.8 48 416C48 407.2 55.16 400 64 400C72.84 400 80 407.2 80 416C80 424.8 72.84 432 64 432z"/></svg>