<svg xmlns="http://www.w3.org/2000/svg" viewBox="0 0 512 512"><!--! Font Awesome Pro 6.0.0-beta3 by @fontawesome - https://fontawesome.com License - https://fontawesome.com/license (Commercial License) Copyright 2021 Fonticons, Inc. --><path d="M384 117.8L419 89.75C422.5 86.99 427.5 87.55 430.2 91C433 94.45 432.4 99.49 428.1 102.2L388.1 134.2C386.1 136.6 381.9 136.6 379 134.2L339 102.2C335.6 99.49 334.1 94.45 337.8 91C340.5 87.55 345.5 86.99 348.1 89.75L384 117.8zM392 272C396.4 272 400 275.6 400 280C400 284.4 396.4 288 392 288H120C115.6 288 112 284.4 112 280C112 275.6 115.6 272 120 272H392zM392 368C396.4 368 400 371.6 400 376C400 380.4 396.4 384 392 384H120C115.6 384 112 380.4 112 376C112 371.6 115.6 368 120 368H392zM0 96C0 60.65 28.65 32 64 32H448C483.3 32 512 60.65 512 96V416C512 451.3 483.3 480 448 480H64C28.65 480 0 451.3 0 416V96zM16 96V176H496V96C496 69.49 474.5 48 448 48H64C37.49 48 16 69.49 16 96zM16 416C16 442.5 37.49 464 64 464H448C474.5 464 496 442.5 496 416V192H16V416z"/></svg>