<svg xmlns="http://www.w3.org/2000/svg" viewBox="0 0 512 512"><!--! Font Awesome Pro 6.1.1 by @fontawesome - https://fontawesome.com License - https://fontawesome.com/license (Commercial License) Copyright 2022 Fonticons, Inc. --><path d="M8 232h272c4.406 0 8-3.585 8-7.991S284.4 216 280 216h-272C3.594 216 0 219.6 0 223.1S3.594 232 8 232zM8 104h272c4.406 0 8-3.607 8-8.013S284.4 88 280 88h-272C3.594 88 0 91.56 0 95.97S3.594 104 8 104zM152 344h-144C3.594 344 0 347.6 0 351.1S3.594 360 8 360h144c4.406 0 8-3.581 8-7.987S156.4 344 152 344zM481.2 .9844l-84.65 24.83c-16.91 5.078-28.5 20.65-28.5 38.3v323.9C350.9 366.3 321.5 352 288 352c-53.02 0-96 35.81-96 79.1C192 476.2 234.1 512 288 512s96-35.82 96-80l.0938-269.2l110.7-32.53C504.1 127.2 512 117.9 512 107.2V24.01C512 7.996 496.6-3.523 481.2 .9844zM288 496c-44.11 0-80-28.71-80-64S243.9 368 288 368s80 28.71 80 64S332.1 496 288 496zM496 107.2c0 3.551-2.34 6.676-5.742 7.676l-106.2 31.2l-.0469-81.99c0-10.66 7.078-19.97 17.31-22.97l84.39-24.76C490.9 14.83 496 18.67 496 24.01V107.2z"/></svg>