<svg xmlns="http://www.w3.org/2000/svg" viewBox="0 0 384 512"><!--! Font Awesome Pro 6.0.0-beta3 by @fontawesome - https://fontawesome.com License - https://fontawesome.com/license (Commercial License) Copyright 2021 Fonticons, Inc. --><path d="M95.1 227.1L278.2 184.2C282.5 183.2 286.8 185.9 287.8 190.2C288.8 194.5 286.1 198.8 281.8 199.8L95.1 243.5V440C95.1 453.3 106.7 464 119.1 464H376C380.4 464 384 467.6 384 472C384 476.4 380.4 480 376 480H119.1C97.91 480 79.1 462.1 79.1 440V247.3L9.832 263.8C5.531 264.8 1.224 262.1 .2125 257.8C-.7994 253.5 1.867 249.2 6.167 248.2L79.1 230.8V40C79.1 35.58 83.58 32 87.1 32C92.42 32 95.1 35.58 95.1 40V227.1z"/></svg>