<svg xmlns="http://www.w3.org/2000/svg" viewBox="0 0 512 512"><!--! Font Awesome Pro 6.0.0-beta3 by @fontawesome - https://fontawesome.com License - https://fontawesome.com/license (Commercial License) Copyright 2021 Fonticons, Inc. --><path d="M256 0C251.6 0 248 3.578 248 8v112C248 124.4 251.6 128 256 128s8-3.578 8-8v-112C264 3.578 260.4 0 256 0zM256 384c-4.406 0-8 3.578-8 8v112C248 508.4 251.6 512 256 512s8-3.578 8-8v-112C264 387.6 260.4 384 256 384zM504 248h-112C387.6 248 384 251.6 384 256s3.594 8 8 8h112C508.4 264 512 260.4 512 256S508.4 248 504 248zM128 256c0-4.422-3.594-8-8-8h-112C3.594 248 0 251.6 0 256s3.594 8 8 8h112C124.4 264 128 260.4 128 256zM352.2 167.8c2.031 0 4.094-.7813 5.656-2.344l79.22-79.19c3.125-3.125 3.125-8.188 0-11.31c-3.125-3.094-8.188-3.156-11.31 0L346.5 154.2c-3.125 3.125-3.125 8.188 0 11.31C348.1 167 350.1 167.8 352.2 167.8zM154.2 346.5l-79.22 79.19c-3.125 3.125-3.125 8.188 0 11.31c1.562 1.562 3.594 2.344 5.656 2.344c2.031 0 4.094-.7813 5.656-2.344l79.22-79.19c3.125-3.125 3.125-8.188 0-11.31C162.4 343.4 157.3 343.4 154.2 346.5zM357.8 346.5c-3.125-3.125-8.188-3.125-11.31 0s-3.125 8.188 0 11.31l79.22 79.19c1.562 1.562 3.625 2.344 5.656 2.344c2.062 0 4.094-.7813 5.656-2.344c3.125-3.125 3.125-8.188 0-11.31L357.8 346.5zM86.28 74.98c-3.156-3.156-8.219-3.094-11.31 0c-3.125 3.125-3.125 8.188 0 11.31l79.22 79.19c1.562 1.562 3.594 2.344 5.656 2.344S163.9 167 165.5 165.5c3.125-3.125 3.125-8.188 0-11.31L86.28 74.98z"/></svg>