<svg xmlns="http://www.w3.org/2000/svg" viewBox="0 0 384 512"><!--! Font Awesome Pro 6.0.0-beta3 by @fontawesome - https://fontawesome.com License - https://fontawesome.com/license (Commercial License) Copyright 2021 Fonticons, Inc. --><path d="M112 160C112 151.2 119.2 144 128 144C136.8 144 144 151.2 144 160C144 168.8 136.8 176 128 176C119.2 176 112 168.8 112 160zM272 160C272 168.8 264.8 176 256 176C247.2 176 240 168.8 240 160C240 151.2 247.2 144 256 144C264.8 144 272 151.2 272 160zM192 304C239.8 304 271.7 273.1 281.3 259.6C283.8 255.9 288.8 254.9 292.4 257.3C296.1 259.8 297.1 264.8 294.7 268.4C282.9 286 246.6 320 192 320C137.4 320 101.1 286 89.34 268.4C86.89 264.8 87.89 259.8 91.56 257.3C95.24 254.9 100.2 255.9 102.7 259.6C112.3 273.1 144.2 304 192 304H192zM384 192C384 279.4 267 435 215.7 499.2C203.4 514.5 180.6 514.5 168.3 499.2C116.1 435 0 279.4 0 192C0 85.96 85.96 0 192 0C298 0 384 85.96 384 192H384zM192 16C94.8 16 16 94.8 16 192C16 210.7 22.37 234.5 33.82 261.6C45.16 288.5 60.93 317.4 78.52 345.9C113.7 402.1 155.3 457.3 180.8 489.2C186.7 496.5 197.3 496.5 203.2 489.2C228.7 457.3 270.3 402.1 305.5 345.9C323.1 317.4 338.8 288.5 350.2 261.6C361.6 234.5 368 210.7 368 192C368 94.8 289.2 16 192 16H192z"/></svg>