<svg xmlns="http://www.w3.org/2000/svg" viewBox="0 0 512 512"><!--! Font Awesome Pro 6.0.0-beta3 by @fontawesome - https://fontawesome.com License - https://fontawesome.com/license (Commercial License) Copyright 2021 Fonticons, Inc. --><path d="M511.1 504C511.1 506.1 511.2 508.2 509.7 509.7C508.2 511.2 506.1 512 504 512C501.9 512 499.8 511.2 498.3 509.7L321.8 333.1C284.7 367.2 235.7 385.5 185.3 383.9C134.9 382.3 87.14 361.1 52.24 324.7C17.33 288.3-1.922 239.7-1.4 189.3C-.8772 138.9 19.38 90.69 55.03 55.04C90.68 19.39 138.9-.8733 189.3-1.396C239.7-1.918 288.3 17.34 324.7 52.24C361.1 87.14 382.3 134.9 383.9 185.3C385.5 235.7 367.2 284.7 333.1 321.8L509.7 498.3C511.2 499.8 511.1 501.9 511.1 504zM90.11 335.2C122.4 358.2 161.4 369.7 201 367.8C240.6 365.9 278.4 350.8 308.3 324.8C338.2 298.8 358.5 263.6 365.1 224.7C373.4 185.8 367.6 145.5 349.4 110.3C331.2 75.1 301.7 47.06 265.6 30.67C229.5 14.28 189 10.5 150.5 19.93C112.1 29.36 77.87 51.46 53.47 82.67C29.07 113.9 15.87 152.4 15.1 192C15.1 230.2 31.17 266.8 58.18 293.8C85.18 320.8 121.8 336 159.1 336C198.2 336 234.8 320.8 261.8 293.8C288.8 266.8 303.1 230.2 303.1 192C303.1 162.3 292.2 133.8 271.2 112.8C250.2 91.8 221.7 80 191.1 80C162.3 80 133.8 91.8 112.8 112.8C91.8 133.8 79.1 162.3 79.1 192C79.1 213.2 88.43 233.6 103.4 248.6C118.4 263.6 138.8 272 159.1 272C181.2 272 201.6 263.6 216.6 248.6C231.6 233.6 239.1 213.2 239.1 192C239.1 179.3 234.9 167.1 225.9 158.1C216.9 149.1 204.7 144 191.1 144C179.3 144 167.1 149.1 158.1 158.1C149.1 167.1 143.1 179.3 143.1 192C143.1 194.1 143.2 196.2 141.7 197.7C140.2 199.2 138.1 200 135.1 200C133.9 200 131.8 199.2 130.3 197.7C128.8 196.2 127.1 194.1 127.1 192C127.1 175 134.7 158.8 146.7 146.7C158.7 134.7 175 128 191.1 128C208.1 128 225.3 134.7 237.3 146.7C249.3 158.8 255.1 175 255.1 192C255.1 217.5 245.9 241.9 227.9 259.9C209.9 277.9 185.5 288 159.1 288C134.5 288 110.1 277.9 92.12 259.9C74.11 241.9 63.1 217.5 63.1 192C63.1 158.1 77.48 125.5 101.5 101.5C125.5 77.49 158.1 64 191.1 64C225.9 64 258.5 77.49 282.5 101.5C306.5 125.5 319.1 158.1 319.1 192C319.9 234.4 303.1 275.1 273.1 305.1C243.1 335.1 202.4 351.1 159.1 352C135.7 351.8 111.8 346.1 90.11 335.1L90.11 335.2z"/></svg>