<svg xmlns="http://www.w3.org/2000/svg" viewBox="0 0 640 512"><!--! Font Awesome Pro 6.1.1 by @fontawesome - https://fontawesome.com License - https://fontawesome.com/license (Commercial License) Copyright 2022 Fonticons, Inc. --><path d="M640 415.3c0 29.8-13.89 57.45-38.09 75.88C583.9 504.9 562.4 512 540.3 512c-9.266 0-18.62-1.25-27.86-3.797l-55.77-15.27C413.9 481.1 384 442.9 384 400V319.1c0-4.422 3.578-8 8-8s8 3.578 8 8v80.02c0 35.7 25.06 67.57 60.94 77.51l55.75 15.25c26.48 7.312 53.98 2.094 75.52-14.34C612.4 463 624 440 624 415.3c0-9.031-1.125-17.92-3.359-26.45c-20.12-77.48-51.97-151.5-94.67-219.9l-5-8.105C502.9 131.4 491 112 457.6 112C425.8 112 400 136.8 400 167.2v100.5l84.44 56.3c3.672 2.453 4.672 7.422 2.219 11.09C485.1 337.4 482.6 338.7 480 338.7c-1.531 0-3.078-.4375-4.438-1.344l-145.8-97.17C325.9 237.5 322.7 234.1 320 230.4C317.3 234.1 314.1 237.5 310.2 240.2l-145.8 97.17C163.1 338.2 161.5 338.7 160 338.7c-2.578 0-5.109-1.25-6.656-3.562c-2.453-3.672-1.453-8.641 2.219-11.09L240 267.7V167.2C240 136.8 214.2 112 182.4 112c-33.39 0-45.3 19.42-63.34 48.82L114 168.9c-42.72 68.44-74.56 142.4-94.67 219.9C17.12 397.4 16 406.2 16 415.3c0 24.75 11.59 47.76 31.8 63.15c21.53 16.41 49 21.66 75.5 14.34l55.8-15.27C214.9 467.6 240 435.7 240 400V319.1c0-4.422 3.578-8 8-8S256 315.6 256 319.1v80.02c0 42.88-29.88 81.07-72.66 92.91l-55.81 15.28C118.3 510.8 108.1 512 99.7 512c-22.08 0-43.59-7.125-61.61-20.84C13.89 472.7 0 445.1 0 415.3c0-10.39 1.312-20.66 3.891-30.52c20.52-79.01 53-154.5 96.58-224.3l4.938-8C123.1 122.2 140 96 182.4 96C222.1 96 256 127.1 256 167.2V257.1l45.31-30.21C308 222.4 312 214.9 312 206.9V8C312 3.578 315.6 0 320 0s8 3.578 8 8v198.9c0 8.047 4 15.5 10.69 19.97L384 257.1V167.2C384 127.1 417 96 457.6 96c42.34 0 58.39 26.17 76.97 56.46l4.953 8c43.56 69.81 76.05 145.3 96.58 224.3C638.7 394.6 640 404.9 640 415.3z"/></svg>