<svg xmlns="http://www.w3.org/2000/svg" viewBox="0 0 512 512"><!--! Font Awesome Pro 6.1.1 by @fontawesome - https://fontawesome.com License - https://fontawesome.com/license (Commercial License) Copyright 2022 Fonticons, Inc. --><path d="M144 224V288C144 305.7 129.7 320 112 320C94.33 320 80 305.7 80 288V224C80 206.3 94.33 192 112 192C129.7 192 144 206.3 144 224zM112 208C103.2 208 96 215.2 96 224V288C96 296.8 103.2 304 112 304C120.8 304 128 296.8 128 288V224C128 215.2 120.8 208 112 208zM240 128V288C240 305.7 225.7 320 208 320C190.3 320 176 305.7 176 288V128C176 110.3 190.3 96 208 96C225.7 96 240 110.3 240 128zM208 112C199.2 112 192 119.2 192 128V288C192 296.8 199.2 304 208 304C216.8 304 224 296.8 224 288V128C224 119.2 216.8 112 208 112zM336 192V288C336 305.7 321.7 320 304 320C286.3 320 272 305.7 272 288V192C272 174.3 286.3 160 304 160C321.7 160 336 174.3 336 192zM304 176C295.2 176 288 183.2 288 192V288C288 296.8 295.2 304 304 304C312.8 304 320 296.8 320 288V192C320 183.2 312.8 176 304 176zM0 208C0 93.12 93.12 0 208 0C322.9 0 416 93.12 416 208C416 262.6 394.1 312.2 360.6 349.3L509.7 498.3C512.8 501.5 512.8 506.5 509.7 509.7C506.5 512.8 501.5 512.8 498.3 509.7L349.3 360.6C312.2 394.1 262.6 416 208 416C93.12 416 0 322.9 0 208V208zM208 400C314 400 400 314 400 208C400 101.1 314 16 208 16C101.1 16 16 101.1 16 208C16 314 101.1 400 208 400z"/></svg>