<svg xmlns="http://www.w3.org/2000/svg" viewBox="0 0 576 512"><!--! Font Awesome Pro 6.0.0-beta3 by @fontawesome - https://fontawesome.com License - https://fontawesome.com/license (Commercial License) Copyright 2021 Fonticons, Inc. --><path d="M432 64h-288C64.47 64 0 128.5 0 208V384c0 35.35 28.65 64 64 64h448c35.35 0 64-28.65 64-64V208C576 128.5 511.5 64 432 64zM240 432H64c-26.47 0-48-21.53-48-48V208c0-70.58 57.42-128 128-128H160c70.58 0 128 57.42 128 128V384C288 410.5 266.5 432 240 432zM560 384c0 26.47-21.53 48-48 48H281.9C295.3 420.3 304 403.2 304 384V208c0-56.14-32.45-104.3-79.32-128H432c70.58 0 128 57.42 128 128V384zM216 192h-144C67.58 192 64 195.6 64 200S67.58 208 72 208h144C220.4 208 224 204.4 224 200S220.4 192 216 192zM488 192h-112c-4.422 0-8 3.578-8 8s3.578 8 8 8h112c4.406 0 8 3.594 8 8v64H448v-32c0-4.422-3.578-8-8-8S432 243.6 432 248V288c0 4.422 3.578 8 8 8h64C508.4 296 512 292.4 512 288V216C512 202.8 501.2 192 488 192z"/></svg>