<svg xmlns="http://www.w3.org/2000/svg" viewBox="0 0 512 512"><!--! Font Awesome Pro 6.0.0-beta3 by @fontawesome - https://fontawesome.com License - https://fontawesome.com/license (Commercial License) Copyright 2021 Fonticons, Inc. --><path d="M509.4 263c-11.02-70.15-63.44-122.6-130.9-142.1c-5.223-1.508-10.46 2.33-10.46 7.766c0 3.621 2.439 6.723 5.918 7.729c62.47 18.05 109.8 66.53 119.6 129.1c9.004 57.34-6.84 113.2-44.61 157.4C409.2 469.4 350.6 496 287.1 496c-106 0-198.2-28.03-243.8-44.74C27.09 444.1 16 429.5 16 411.9c0-11.32 4.797-22.3 13.16-30.13c30.23-28.29 54.79-65.01 78.54-100.5C160.4 202.5 210.2 128.1 319.9 128c.0059 0-.0059 0 0 0L319.1 168c0 4.422 3.591 8 7.997 8s8-3.578 8-8V58.28C355.1 86 389.9 104 431.7 104h53.5c9 0 17.38-3.828 22.34-10.23c4-5.172 5.344-11.38 3.781-17.44C499.1 32.11 450.9 0 394.7 0h-66.72c-4.418 0-8 3.582-8 8l-.0098 104c-.0059 0 .0059 0 0 0c-171.5 .1543-208.8 171-301.8 258.1C6.514 381 0 396.2 0 411.9c0 24.13 15.28 45.79 38.73 54.39C88.41 484.5 181.1 512 287.1 512C423.2 512 530.4 396.9 509.4 263zM394.7 16c49 0 91.56 27.05 101.2 64.33c.125 .4531 .4687 1.812-.9375 3.641C493.4 85.91 490.1 88 485.2 88h-53.5c-51.34 0-90.81-30.44-95.31-72H394.7z"/></svg>