<svg xmlns="http://www.w3.org/2000/svg" viewBox="0 0 320 512"><!--! Font Awesome Pro 6.0.0-beta3 by @fontawesome - https://fontawesome.com License - https://fontawesome.com/license (Commercial License) Copyright 2021 Fonticons, Inc. --><path d="M88 144C83.58 144 80 140.4 80 136C80 87.4 119.4 48 168 48C172.4 48 176 51.58 176 56C176 60.42 172.4 64 168 64C128.2 64 96 96.24 96 136C96 140.4 92.42 144 88 144zM320 144C320 220.8 259.8 283.6 184 287.8V504C184 508.4 180.4 512 176 512C171.6 512 168 508.4 168 504V287.8C92.19 283.6 32 220.8 32 144C32 64.47 96.47 0 176 0C255.5 0 320 64.47 320 144V144zM176 272C246.7 272 304 214.7 304 144C304 73.31 246.7 16 176 16C105.3 16 48 73.31 48 144C48 214.7 105.3 272 176 272z"/></svg>