<svg xmlns="http://www.w3.org/2000/svg" viewBox="0 0 512 512"><!--! Font Awesome Pro 6.1.1 by @fontawesome - https://fontawesome.com License - https://fontawesome.com/license (Commercial License) Copyright 2022 Fonticons, Inc. --><path d="M488 0H368c-4.422 0-8 3.578-8 8S363.6 16 368 16h100.7l-97.43 97.43C342.1 83.08 301.4 64 256 64c-88.37 0-160 71.63-160 160c0 85.73 67.6 155.1 152.3 159.2C248.3 383.5 248 383.7 248 384v48h-64c-4.422 0-8 3.578-8 8S179.6 448 184 448h64v56C248 508.4 251.6 512 256 512s8-3.578 8-8V448h64c4.422 0 8-3.578 8-8s-3.578-8-8-8h-64V384c0-.3027-.2871-.4805-.3203-.7734C348.4 379.1 416 309.7 416 224c0-37.2-13.22-70.1-34.52-98.17L480 27.31V128c0 4.422 3.578 8 8 8S496 132.4 496 128V8C496 3.578 492.4 0 488 0zM256 368c-79.4 0-144-64.6-144-144S176.6 80 256 80s144 64.6 144 144S335.4 368 256 368z"/></svg>