<svg xmlns="http://www.w3.org/2000/svg" viewBox="0 0 640 512"><!--! Font Awesome Pro 6.1.1 by @fontawesome - https://fontawesome.com License - https://fontawesome.com/license (Commercial License) Copyright 2022 Fonticons, Inc. --><path d="M432 192C436.4 192 440 195.6 440 200C440 204.4 436.4 208 432 208H208C203.6 208 200 204.4 200 200C200 195.6 203.6 192 208 192H432zM200 264C200 259.6 203.6 256 208 256H432C436.4 256 440 259.6 440 264C440 268.4 436.4 272 432 272H208C203.6 272 200 268.4 200 264zM400 320C404.4 320 408 323.6 408 328C408 332.4 404.4 336 400 336H240C235.6 336 232 332.4 232 328C232 323.6 235.6 320 240 320H400zM206.5 111.9L243.6 87.12C266.2 72.05 292.8 64 320 64C347.2 64 373.8 72.05 396.4 87.12L433.5 111.9C449.3 122.4 467.8 128 486.8 128H600C622.1 128 640 145.9 640 168V253C640 300.8 607.5 342.4 561.2 353.9L487.9 372.3C446.9 418.7 386.9 448 320 448C253.1 448 193.1 418.7 152.1 372.3L78.78 353.9C32.48 342.4 0 300.8 0 253V168C0 145.9 17.91 128 40 128H153.2C172.2 128 190.7 122.4 206.5 111.9H206.5zM320 80C295.1 80 272.5 87.11 252.5 100.4L215.4 125.2C196.1 137.5 175.4 143.1 153.2 143.1H112V223.1C112 275 130.4 321.8 160.9 357.1L161.7 358.2L161.6 358.8C199.7 403.6 256.5 432 320 432C383.5 432 440.3 403.6 478.4 358.8L478.3 358.2L479.1 357.1C509.6 321.8 528 275 528 223.1V143.1H486.8C464.6 143.1 443 137.5 424.6 125.2L387.5 100.4C367.5 87.11 344 80 320 80V80zM16 168V253C16 293.4 43.48 328.6 82.66 338.4L135.1 351.7C110.8 315.5 96 271.5 96 224V144H40C26.75 144 16 154.7 16 168V168zM624 253V168C624 154.7 613.3 144 600 144H544V224C544 271.5 529.2 315.5 504 351.7L557.3 338.4C596.5 328.6 624 293.4 624 253V253z"/></svg>