<svg xmlns="http://www.w3.org/2000/svg" viewBox="0 0 576 512"><!--! Font Awesome Pro 6.0.0-beta3 by @fontawesome - https://fontawesome.com License - https://fontawesome.com/license (Commercial License) Copyright 2021 Fonticons, Inc. --><path d="M512 64C512 46.33 526.3 32 544 32C561.7 32 576 46.33 576 64V448C576 465.7 561.7 480 544 480C526.3 480 512 465.7 512 448V64zM544 48C535.2 48 528 55.16 528 64V448C528 456.8 535.2 464 544 464C552.8 464 560 456.8 560 448V64C560 55.16 552.8 48 544 48zM480 82.25L16 198.2V313.8L480 429.8V446.2L345.8 412.7L347.5 413.2C335.1 451.9 298.9 480 256 480C202.1 480 160 437 160 384C160 378.1 160.5 372.3 161.6 366.6L16 330.2V344C16 348.4 12.42 352 8 352C3.582 352 0 348.4 0 344V168C0 163.6 3.582 160 8 160C12.42 160 16 163.6 16 168V181.8L480 65.75V82.25zM256 464C291.4 464 321.4 441 331.9 409.2L177.1 370.5C176.4 374.9 176 379.4 176 384C176 428.2 211.8 464 256 464H256zM256 288L256.4 288H255.6L256 288z"/></svg>