<svg xmlns="http://www.w3.org/2000/svg" viewBox="0 0 512 512"><!--! Font Awesome Pro 6.0.0-beta3 by @fontawesome - https://fontawesome.com License - https://fontawesome.com/license (Commercial License) Copyright 2021 Fonticons, Inc. --><path d="M256 0C114.6 0 0 114.6 0 256c0 70.71 28.66 134.7 74.1 181c.002 .002-.002-.002 0 0s-.002-.002 0 0C121.3 483.3 185.3 512 256 512c141.4 0 256-114.6 256-256S397.4 0 256 0zM433.6 181.3c-15.34 51.15-50.27 105.8-98.37 153.9c-64.71 64.67-143.1 106.5-201.9 106.5c-19.59 0-34.76-5-45.33-14.64c-.6621-.6504-1.359-1.262-2.014-1.92c-17.6-18.15-20.32-51.56-7.471-94.38c15.34-51.15 50.27-105.8 98.37-153.9c64.69-64.68 143.1-106.5 201.9-106.5c19.14 0 34.03 4.785 44.21 13.61c1.014 .9844 2.098 1.893 3.094 2.893C443.7 104.1 446.4 138.4 433.6 181.3zM256 16c48.15 0 92.94 14.39 130.6 38.89c-2.619-.1719-5.102-.5684-7.822-.5684c-59.84 0-143.2 41.14-213.2 111.2C115.6 215.4 79.2 272.5 63.11 326.1c-6.82 22.73-9.139 43.07-7.918 60.91C30.49 349.3 16 304.4 16 256C16 123.7 123.7 16 256 16zM256 496c-48.15 0-92.94-14.39-130.6-38.89c2.615 .1699 5.096 .5664 7.811 .5664c59.84 0 143.2-41.14 213.3-111.1c49.93-49.94 86.29-106.1 102.4-160.6c6.822-22.74 9.145-43.09 7.92-60.93C481.5 162.7 496 207.6 496 256C496 388.3 388.3 496 256 496z"/></svg>