<svg xmlns="http://www.w3.org/2000/svg" viewBox="0 0 512 512"><!--! Font Awesome Pro 6.0.0-beta3 by @fontawesome - https://fontawesome.com License - https://fontawesome.com/license (Commercial License) Copyright 2021 Fonticons, Inc. --><path d="M448-.0004H64c-35.25 0-64 28.75-64 63.1v287.1c0 35.25 28.75 63.1 64 63.1h96v83.98c0 7.072 5.92 12.02 12.18 12.02c2.369 0 4.785-.7441 6.947-2.322L304 415.1H448c35.25 0 64-28.75 64-63.1V63.1C512 28.75 483.3-.0004 448-.0004zM496 351.1c0 26.46-21.53 47.1-48 47.1h-149.3L176 492.1v-92.09H64c-26.47 0-48-21.53-48-47.1V63.99c0-26.46 21.53-47.1 48-47.1h384c26.47 0 48 21.53 48 47.1V351.1zM344 143.1h-176c-4.406 0-8 3.594-8 8s3.594 8.002 8 8.002l80-.0016v136c0 4.406 3.594 8 8 8s8-3.594 8-8v-136l80 .0016c4.406 0 8-3.595 8-8.002S348.4 143.1 344 143.1z"/></svg>