<svg xmlns="http://www.w3.org/2000/svg" viewBox="0 0 512 512"><!--! Font Awesome Pro 6.0.0-beta3 by @fontawesome - https://fontawesome.com License - https://fontawesome.com/license (Commercial License) Copyright 2021 Fonticons, Inc. --><path d="M447.1 .0041h-384c-35.25 0-64 28.75-64 63.1v287.1c0 35.25 28.75 63.1 64 63.1h96v83.98c0 7.072 5.919 12.01 12.18 12.01c2.369 0 4.786-.7294 6.948-2.307l124.9-93.68h144c35.25 0 64-28.75 64-63.1V63.1C511.1 28.76 483.2 .0041 447.1 .0041zM495.1 351.1c0 26.46-21.53 47.99-48 47.99h-149.3l-122.7 92.08v-92.08H63.1c-26.47 0-48-21.53-48-47.99V64.01c0-26.46 21.53-47.99 48-47.99h384c26.47 0 48 21.53 48 47.99V351.1zM312.6 137.7c-9.094-12.15-29.47-12.15-38.56 .0313l-71.81 96.92L186.1 216.2c-9.125-10.44-27-10.41-36.13-.0313L93.97 280.2C87.75 287.2 86.25 297.3 90.16 305.9c3.906 8.531 12.48 14.08 21.85 14.08h288c9.125 0 17.3-5.085 21.4-13.21c4.125-8.154 3.312-17.78-2.125-25.09L312.6 137.7zM407.2 299.5c-1.344 2.719-4.125 4.437-7.156 4.437h-288c-3.125 0-5.969-1.844-7.281-4.687C103.4 296.4 103.9 293.1 105.1 290.7l56-64.02c1.5-1.717 3.688-2.717 6-2.717s4.5 .9999 5.1 2.748l29.28 33.4l83.59-112.9c3.094-4.062 9.844-4.093 12.88-.0313l106.7 144C408.2 293.7 408.5 296.8 407.2 299.5zM127.1 167.1c22.06 0 40-17.93 40-39.99c0-22.06-17.94-39.99-40-39.99s-40 17.93-40 39.99C87.1 150.1 105.9 167.1 127.1 167.1zM127.1 104c13.22 0 24 10.77 24 23.1c0 13.23-10.78 23.1-24 23.1s-24-10.77-24-23.1C103.1 114.8 114.8 104 127.1 104z"/></svg>