<svg xmlns="http://www.w3.org/2000/svg" viewBox="0 0 512 512"><!--! Font Awesome Pro 6.0.0-beta3 by @fontawesome - https://fontawesome.com License - https://fontawesome.com/license (Commercial License) Copyright 2021 Fonticons, Inc. --><path d="M448 96.03h-111.1l-67.22-89.63C265.6 2.133 260.8 .0002 256 .0002S246.4 2.133 243.2 6.4l-67.22 89.63H64c-35.25 0-64 28.75-64 63.1v287.1C0 483.3 28.75 512 64 512h384c35.25 0 64-28.75 64-63.99V160C512 124.8 483.3 96.03 448 96.03zM496 448C496 474.5 474.5 496 448 496H64c-26.47 0-48-21.53-48-47.99V160c0-26.46 21.53-47.1 48-47.1h119.1L255.1 16c.0039 0-.0195 0 0 0l72.04 96.03H448c26.47 0 48 21.53 48 47.1V448z"/></svg>