<svg xmlns="http://www.w3.org/2000/svg" viewBox="0 0 512 512"><!--! Font Awesome Pro 6.1.1 by @fontawesome - https://fontawesome.com License - https://fontawesome.com/license (Commercial License) Copyright 2022 Fonticons, Inc. --><path d="M256 296c-8.836 0-16 7.162-16 16c0 8.836 7.164 16 16 16s16-7.164 16-16C272 303.2 264.8 296 256 296zM283.7 95.56H223.1C192.7 95.56 168 120.3 168 150.6c0 4.422 3.594 8 8 8s8-3.578 8-8c0-21.53 17.53-39.05 39.06-39.05h60.59c24.44 0 44.34 19.89 44.34 44.34c0 16.89-9.406 32.09-24.62 39.73l-51.06 26.5C249.7 223.5 248 226.3 248 229.2V256c0 4.422 3.594 8 8 8s8-3.578 8-8V234.1l46.66-24.2C331.2 199.6 344 178.9 344 155.9C344 122.6 316.9 95.56 283.7 95.56zM448 0H64C28.75 0 0 28.75 0 63.1v287.1C0 387.2 28.75 415.1 64 415.1h96v83.1C160 507.1 165.9 512 172.2 512c2.369 0 4.785-.7856 6.947-2.364L304 415.1H448c35.25 0 64-28.75 64-63.1V63.1C512 28.75 483.3 0 448 0zM496 351.1c0 26.46-21.53 47.1-48 47.1h-149.3L176 492.1v-92.09H64c-26.47 0-48-21.53-48-47.1V63.99C16 37.53 37.53 15.1 64 15.1h384c26.47 0 48 21.53 48 47.1V351.1z"/></svg>