<svg xmlns="http://www.w3.org/2000/svg" viewBox="0 0 512 512"><!--! Font Awesome Pro 6.0.0-beta3 by @fontawesome - https://fontawesome.com License - https://fontawesome.com/license (Commercial License) Copyright 2021 Fonticons, Inc. --><path d="M448 0H64C28.75 0 0 28.75 0 63.1v287.1c0 35.25 28.75 63.1 64 63.1h96v83.1C160 507 165.9 512 172.2 512c2.367 0 4.781-.7457 6.945-2.324L304 415.1H448c35.25 0 64-28.75 64-63.1V63.1C512 28.75 483.3 0 448 0zM496 351.1c0 26.46-21.53 47.1-48 47.1h-149.3L176 492.1v-92.09H64c-26.47 0-48-21.53-48-47.1V63.99C16 37.53 37.53 15.1 64 15.1h384c26.47 0 48 21.53 48 47.1V351.1zM333.7 130.3c-3.125-3.125-8.188-3.125-11.31 0L256 196.7L189.7 130.3c-3.125-3.125-8.188-3.125-11.31 0s-3.125 8.188 0 11.31L244.7 207.1L178.3 274.3c-3.125 3.125-3.125 8.188 0 11.31c3.125 3.127 8.188 3.127 11.31 0L256 219.3l66.34 66.34c3.125 3.127 8.188 3.127 11.31 0c3.125-3.125 3.125-8.188 0-11.31L267.3 207.1l66.34-66.34C336.8 138.5 336.8 133.5 333.7 130.3z"/></svg>