<svg xmlns="http://www.w3.org/2000/svg" viewBox="0 0 640 512"><!--! Font Awesome Pro 6.1.1 by @fontawesome - https://fontawesome.com License - https://fontawesome.com/license (Commercial License) Copyright 2022 Fonticons, Inc. --><path d="M604 160c-17.01 0-30.64 12.11-34.38 28H544V63.99C544 28.75 515.3 0 480 0H160C124.8 0 96 28.75 96 63.99V188H70.38C66.64 172.1 53.01 160 36 160C16.16 160 0 176.2 0 195.1S16.16 232 36 232c17.01 0 30.64-12.11 34.38-28H96v147.1c0 35.25 28.75 63.1 64 63.1l64 .0098v83.99C224 507 229.8 512 236 512c2.369 0 4.934-.75 7.096-2.328L368 415.1l112-.0098c35.25 0 64-28.75 64-63.1V204h25.62C573.4 219.9 586.1 232 604 232C623.8 232 640 215.8 640 195.1S623.8 160 604 160zM36 216C24.97 216 16 207 16 196S24.97 176 36 176S56 184.1 56 196S47.03 216 36 216zM528 351.1c0 26.46-21.53 47.1-48 47.1h-117.3L240 492.1v-92.09H160c-26.47 0-48-21.53-48-47.1V63.99c0-26.46 21.53-47.1 48-47.1h320c26.47 0 48 21.53 48 47.1V351.1zM604 216c-11.03 0-20-8.969-20-20S592.1 176 604 176S624 184.1 624 196S615 216 604 216zM448 80H192C165.5 80 144 101.5 144 128v128c0 26.47 21.53 48 48 48h256c26.47 0 48-21.53 48-48V128C496 101.5 474.5 80 448 80zM480 256c0 17.67-14.33 32-32 32H192C174.3 288 160 273.7 160 256V128c0-17.67 14.33-32 32-32h256c17.67 0 32 14.33 32 32V256zM224 152C201.9 152 184 169.9 184 192S201.9 232 224 232S264 214.1 264 192S246.1 152 224 152zM224 216C210.8 216 200 205.2 200 192S210.8 168 224 168S248 178.8 248 192S237.2 216 224 216zM416 152c-22.06 0-40 17.94-40 40S393.9 232 416 232S456 214.1 456 192S438.1 152 416 152zM416 216c-13.22 0-24-10.77-24-24S402.8 168 416 168S440 178.8 440 192S429.2 216 416 216z"/></svg>