<svg xmlns="http://www.w3.org/2000/svg" viewBox="0 0 640 512"><!--! Font Awesome Pro 6.1.1 by @fontawesome - https://fontawesome.com License - https://fontawesome.com/license (Commercial License) Copyright 2022 Fonticons, Inc. --><path d="M210.2 152.3l-6.277-1.812C177.4 142.7 165.4 135.8 168.5 117.6c3.545-20.41 29.41-23.83 50.47-20.48C224.1 98.06 232.1 100 241.3 103.2c4.217 1.469 8.729-.7656 10.18-4.938c1.436-4.188-.7656-8.734-4.936-10.19C236.4 84.56 228.4 82.41 221.5 81.31C219.6 81.02 217.9 80.99 216 80.8V64c0-4.422-3.601-8-8.019-8c-4.42 0-7.972 3.578-7.972 8v16.37c-25.56 1.568-43.75 14.08-47.3 34.5C146.6 150.3 179.6 160 199.4 165.8l6.402 1.859C236.7 176.5 250.9 182.8 247.5 202.4C243.9 222.8 218 226.2 196.1 222.9C187.7 221.5 176.1 217.6 167.5 214.2L162.7 212.5C158.6 211 153.1 213.2 152.5 217.3C151 221.5 153.2 226.1 157.3 227.5l4.717 1.688c10.17 3.672 21.69 7.828 32.47 9.453c1.916 .2988 3.648 .248 5.512 .4414V256c0 4.422 3.552 8 7.972 8c4.418 0 8.019-3.578 8.019-8V239.3C241.4 237.7 259.7 225.5 263.2 205.1C269.4 169.2 236.6 159.8 210.2 152.3zM576 128H472c-4.418 0-8 3.582-8 8s3.582 8 8 8H576c26.51 0 48 21.49 48 48v191.1c0 26.51-21.49 47.1-47.99 47.1H528v57.74l-76.91-57.74H320c-26.51 0-48-21.49-48-48v-7.971c0-4.418-3.582-8-8-8s-8 3.582-8 8v7.983c0 35.2 28.8 63.1 63.1 63.1l125.8-.0073l82.75 62.12C530.3 511.4 532.3 512 534.2 512C539.2 512 544 507.1 544 502.2v-54.24h32c35.2 0 64-28.8 64-63.1V191.1C640 156.8 611.2 128 576 128zM352 319.9c35.15 0 64-28.75 64-63.92V63.1C416 28.75 387.3 0 352 0H64C28.75 0 0 28.75 0 63.1v192C0 291.2 28.75 320 64 320l32 .0106v54.25C96 380 100.8 384.1 105.8 384.1c1.941 0 3.926-.5977 5.699-1.918l82.75-62.12L352 319.9zM194.2 304L188.9 304L112 361.8V304L64 304c-26.47 0-48-21.53-48-47.1V63.99C16 37.53 37.53 16 64 16h288c26.47 0 48 21.53 48 47.99v192c0 26.4-21.43 47.87-48.01 47.87L194.2 304z"/></svg>