<svg xmlns="http://www.w3.org/2000/svg" viewBox="0 0 512 512"><!--! Font Awesome Pro 6.1.1 by @fontawesome - https://fontawesome.com License - https://fontawesome.com/license (Commercial License) Copyright 2022 Fonticons, Inc. --><path d="M448 0H64C28.75 0 0 28.75 0 63.1v287.1c0 35.25 28.75 63.1 64 63.1h96V499.1C160 507 165.9 512 172.2 512c2.369 0 4.785-.7457 6.947-2.324L304 415.1H448c35.25 0 64-28.75 64-63.1V63.1C512 28.75 483.3 0 448 0zM496 351.1c0 26.46-21.53 47.1-48 47.1h-149.3L176 492.1v-92.08H64c-26.47 0-48-21.53-48-47.1V63.99C16 37.53 37.53 15.1 64 15.1h384c26.47 0 48 21.53 48 47.1V351.1zM212.8 122.3c-3.125-3.125-8.188-3.125-11.31 0l-80 80c-3.125 3.125-3.125 8.188 0 11.31l80 80C203 295.2 205.1 296 207.1 296s4.094-.7813 5.656-2.344c3.125-3.125 3.125-8.188 0-11.31L138.4 208l74.34-74.34C215.9 130.5 215.9 125.5 212.8 122.3zM310.5 122.3c-3.125-3.125-8.188-3.125-11.31 0s-3.125 8.188 0 11.31L373.6 208l-74.34 74.34c-3.125 3.125-3.125 8.188 0 11.31C300.8 295.2 302.8 296 304.9 296s4.094-.7813 5.656-2.344l80-80c3.125-3.125 3.125-8.188 0-11.31L310.5 122.3z"/></svg>