<svg xmlns="http://www.w3.org/2000/svg" viewBox="0 0 512 512"><!--! Font Awesome Pro 6.0.0-beta3 by @fontawesome - https://fontawesome.com License - https://fontawesome.com/license (Commercial License) Copyright 2021 Fonticons, Inc. --><path d="M448-.0004H64c-35.25 0-64 28.75-64 63.1v287.1c0 35.25 28.75 63.1 64 63.1h96v83.98c0 7.072 5.92 12.02 12.18 12.02c2.369 0 4.785-.7441 6.947-2.322L304 415.1H448c35.25 0 64-28.75 64-63.1V63.1C512 28.75 483.3-.0004 448-.0004zM496 351.1c0 26.46-21.53 47.1-48 47.1h-149.3L176 492.1v-92.09H64c-26.47 0-48-21.53-48-47.1V63.99c0-26.46 21.53-47.1 48-47.1h384c26.47 0 48 21.53 48 47.1V351.1zM138.2 200.3L133.1 199.1C115.6 193.7 110.7 189.4 112.3 180.2c1.875-10.94 16.62-13.56 30.66-11.47c3.781 .5938 8.375 1.844 14.44 3.938c4.219 1.5 8.75-.75 10.19-4.938S166.8 158.1 162.6 157.5c-7.031-2.406-12.5-3.875-17.22-4.625C119.4 148.9 99.75 158.7 96.53 177.5c-4.469 26 19.88 33.13 32.97 36.97l4.312 1.219c21.34 6.125 27.72 9.688 25.91 20.12c-1.906 10.97-16.78 13.59-30.66 11.5c-6-.9062-13.12-3.5-19.44-5.75L106.7 240.5c-4.312-1.5-8.781 .6875-10.22 4.844c-1.5 4.156 .6875 8.75 4.844 10.22l2.906 1.031c6.969 2.531 14.88 5.375 22.38 6.531C130.5 263.7 134.3 264 137.8 264c20.28 0 34.88-9.531 37.63-25.47C180 212.3 155.8 205.3 138.2 200.3zM306.5 152.4c-3.281-1.094-6.875 .0625-8.938 2.781L256 210.7L214.4 155.2C212.3 152.5 208.8 151.3 205.5 152.4C202.2 153.5 200 156.6 200 160v96c0 4.406 3.594 8 8 8S216 260.4 216 256V184l33.59 44.81c3.062 4 9.75 4 12.81 0L296 184V256c0 4.406 3.594 8 8 8S312 260.4 312 256V160C312 156.6 309.8 153.5 306.5 152.4zM378.2 200.3l-4.188-1.219c-18.44-5.375-23.31-9.625-21.72-18.88c1.906-10.94 16.69-13.56 30.66-11.47c3.781 .5938 8.375 1.844 14.44 3.938c4.188 1.5 8.75-.75 10.19-4.938s-.7813-8.75-4.938-10.19c-7.031-2.406-12.5-3.875-17.22-4.625c-26-3.969-45.66 5.812-48.88 24.56c-4.469 26 19.88 33.13 32.97 36.97l4.312 1.219c21.34 6.125 27.72 9.688 25.91 20.12c-1.906 10.97-16.78 13.59-30.66 11.5c-6-.9062-13.12-3.5-19.44-5.75l-2.938-1.062c-4.281-1.5-8.75 .6875-10.22 4.844c-1.5 4.156 .6875 8.75 4.844 10.22l2.906 1.031c6.969 2.531 14.88 5.375 22.38 6.531C370.5 263.7 374.3 264 377.8 264c20.28 0 34.88-9.531 37.63-25.47C420 212.3 395.8 205.3 378.2 200.3z"/></svg>