<svg xmlns="http://www.w3.org/2000/svg" viewBox="0 0 512 512"><!--! Font Awesome Pro 6.1.1 by @fontawesome - https://fontawesome.com License - https://fontawesome.com/license (Commercial License) Copyright 2022 Fonticons, Inc. --><path d="M479.2 32.8C457.3 10.93 428.7 0 399.1 0c-28.66 0-57.32 10.93-79.2 32.8l-43.31 43.31c-18.7 18.7-28.9 42.41-31.62 66.79l-233.3 263c-17.53 19.89-16.61 50.13 2.094 68.84l22.41 22.52C46.83 507.1 59.72 512 72.66 512c11.91 0 23.84-4.172 33.41-12.61L248 373.5V504c0 4.422 3.581 7.998 8.003 7.998S264 508.4 264 504v-144c0-.1992-.1973-.3125-.2109-.5078l105.3-93.37c24.4-2.703 48.12-12.91 66.83-31.62l43.31-43.31C522.9 147.5 522.9 76.55 479.2 32.8zM95.48 487.4C89.19 492.9 81.08 496 72.66 496c-9.207 0-17.83-3.551-24.25-9.973l-22.43-22.54c-12.75-12.76-13.37-33.39-1.441-46.92l229.4-258.6l100.1 100.1L95.48 487.4zM467.9 179.9l-43.31 43.31c-14.91 14.91-34.27 24.09-55.97 26.77l-106.6-106.6c2.691-21.71 11.87-41.06 26.78-55.97l43.31-43.31C350.3 25.98 374.4 16 399.1 16c25.64 0 49.75 9.984 67.88 28.12C505.3 81.55 505.3 142.5 467.9 179.9zM310.5 65.78l135.8 135.8l11.31-11.31l-135.8-135.8L310.5 65.78z"/></svg>