<svg xmlns="http://www.w3.org/2000/svg" viewBox="0 0 640 512"><!--! Font Awesome Pro 6.0.0-beta3 by @fontawesome - https://fontawesome.com License - https://fontawesome.com/license (Commercial License) Copyright 2021 Fonticons, Inc. --><path d="M479.1 256L480 200c0-4.406-3.594-7.999-8-7.999S464 195.6 464 200V256c0 7.125-1.1 13.95-2.104 20.8l14.66 11.65C478.7 277.1 479.1 267.1 479.1 256zM240 96c0-44.11 35.89-80 80-80s80 35.89 80 80v16h-72C323.6 112 320 115.6 320 120S323.6 128 328 128h72v48h-64.92L355.2 192H400v35.6L416 240.3l-.0005-144.3C415.1 42.97 373 0 319.1 0C269.6 0 228.8 38.95 224.8 88.32L240 100.4V96zM324.5 351.5L302.2 333.9c-23.7-5.422-43.22-21.41-53.74-42.72L225.7 273C233.8 317.9 272.8 352 320 352C321.5 352 322.1 351.6 324.5 351.5zM440 496h-112v-80.81c20.79-1.051 40.52-6.129 58.5-14.35l-13.97-11.1C356.2 396.2 338.6 400 320 400c-79.41 0-144-64.59-144-144V233.5L160 220.8V256c0 85.48 67.56 154.9 152 159.2V496h-112C195.6 496 192 499.6 192 504S195.6 512 200 512h240c4.406 0 8-3.594 8-8S444.4 496 440 496zM636.1 497.7L12.99 1.73C11.53 .5664 9.771 0 8.025 0C5.674 0 3.336 1.031 1.738 3.012c-2.75 3.469-2.172 8.5 1.281 11.25l623.1 496C628.5 511.4 630.2 512 631.1 512c2.344 0 4.688-1.031 6.266-3.016C641 505.5 640.4 500.5 636.1 497.7z"/></svg>