<svg xmlns="http://www.w3.org/2000/svg" viewBox="0 0 512 512"><!--! Font Awesome Pro 6.1.1 by @fontawesome - https://fontawesome.com License - https://fontawesome.com/license (Commercial License) Copyright 2022 Fonticons, Inc. --><path d="M178.5 71.89L130.9 119.6L37.66 26.34c-3.125-3.125-8.188-3.125-11.31 0s-3.125 8.188 0 11.31L119.6 130.9L72 178.5C54.13 196.4 68.73 224 90.83 224h113.2C215.1 224 224 215.1 224 204v-113.3C224 68.15 195.9 54.49 178.5 71.89zM208 204c0 2.203-1.793 3.996-3.994 3.996H90.83c-9 0-14.52-11.2-7.529-18.2l106.5-106.6C197 76 208 81.95 208 90.73V204zM307.1 224h113.3c22.59 0 36.25-28.08 18.85-45.47l-47.69-47.65l93.23-93.23c3.125-3.125 3.125-8.188 0-11.31s-8.188-3.125-11.31 0L381.1 119.6L333.5 72C315.6 54.13 288 68.73 288 90.84v113.2C288 215.1 296.9 224 307.1 224zM303.1 90.84c0-9.008 11.21-14.52 18.2-7.531l106.6 106.5c7.195 7.18 1.252 18.18-7.537 18.18h-113.3c-2.203 0-3.998-1.789-3.998-3.992V90.84zM204 288h-113.3c-22.59 0-36.25 28.08-18.85 45.47l47.69 47.65l-93.23 93.23c-3.125 3.125-3.125 8.188 0 11.31C27.91 487.2 29.94 488 32 488s4.094-.7813 5.656-2.344l93.23-93.23L178.5 440C196.4 457.9 224 443.3 224 421.2V307.1C224 296.9 215.1 288 204 288zM208 421.2c0 9-11.21 14.52-18.2 7.527L83.19 322.2C75.1 314.1 81.94 303.1 90.73 303.1h113.3c2.203 0 3.998 1.789 3.998 3.992V421.2zM392.4 381.1L440 333.5C457.9 315.6 443.3 288 421.2 288h-113.2C296.9 288 288 296.9 288 307.1v113.3c0 22.59 28.07 36.25 45.46 18.84l47.65-47.68l93.23 93.23C475.9 487.2 477.9 488 480 488s4.094-.7813 5.656-2.344c3.125-3.125 3.125-8.188 0-11.31L392.4 381.1zM322.2 428.8c-7.184 7.195-18.18 1.25-18.18-7.539V307.1c0-2.203 1.793-4 3.994-4h113.2c9 0 14.52 11.2 7.529 18.2L322.2 428.8z"/></svg>