<svg xmlns="http://www.w3.org/2000/svg" viewBox="0 0 640 512"><!--! Font Awesome Pro 6.1.1 by @fontawesome - https://fontawesome.com License - https://fontawesome.com/license (Commercial License) Copyright 2022 Fonticons, Inc. --><path d="M512 80H64C37.49 80 16 101.5 16 128V384C16 410.5 37.49 432 64 432H334.5L330.5 448H64C28.65 448 0 419.3 0 384V128C0 92.65 28.65 64 64 64H512C547.3 64 576 92.65 576 128V192.6C570.6 193.3 565.2 194.7 560 196.6V128C560 101.5 538.5 80 512 80zM256 312C256 307.6 259.6 304 264 304H376C380.4 304 384 307.6 384 312C384 316.4 380.4 320 376 320H264C259.6 320 256 316.4 256 312zM472 208C476.4 208 480 211.6 480 216C480 220.4 476.4 224 472 224H264C259.6 224 256 220.4 256 216C256 211.6 259.6 208 264 208H472zM143.1 152C148.4 152 151.1 155.6 151.1 160V176.6C153.8 176.8 155.6 177 157.5 177.3C162.3 178.1 176.9 180.9 182.1 182.3C186.3 183.4 188.9 187.8 187.7 192.1C186.6 196.3 182.2 198.9 177.9 197.7C173.5 196.6 159.5 193.8 155 193.1C140.9 190.9 128.5 192.6 119.6 196.6C110.7 200.7 105.7 206.8 104.5 213.6C103.6 219 104.2 222.9 105.6 225.8C107 228.8 109.5 231.6 113.3 234.1C121.3 239.5 132.9 243 146.3 247.1L146.5 247.1C159.2 250.1 173.7 255.4 184.2 262.1C189.6 266.9 194.3 271.9 197.1 278.5C199.1 285.1 200.7 292.7 199.3 301.1C196.8 315.5 187.4 325.4 174.7 330.9C167.1 333.8 160.3 335.4 151.1 335.9V352C151.1 356.4 148.4 360 143.1 360C139.6 360 135.1 356.4 135.1 352V335.4C134.2 335.2 132.4 334.1 130.5 334.7L130.5 334.7C121.9 333.3 107.8 328.5 98.44 325.3C96.58 324.6 94.89 324.1 93.47 323.6C89.28 322.2 87.01 317.7 88.41 313.5C89.8 309.3 94.33 307 98.53 308.4C100.3 308.1 102.2 309.6 104.2 310.3L104.3 310.4C113.8 313.6 125.9 317.7 133 318.9C147.3 321.1 159.6 319.9 168.4 316.2C176.1 312.5 182.1 306.5 183.5 298.4C184.5 292.5 183.9 288.2 182.4 284.9C181 281.6 178.5 278.6 174.8 275.9C166.9 270.2 155.3 266.5 141.9 262.5L140.2 261.1C128 258.3 114.4 254.2 104.4 247.4C98.95 243.7 94.15 238.1 91.16 232.7C88.15 226.3 87.32 219 88.73 210.9C91.05 197.5 100.6 187.7 112.1 182.1C119.8 178.1 127.6 177.1 136 176.4V160C136 155.6 139.6 152 144 152H143.1zM356.7 507.2C352.7 503.2 351.1 497.4 352.5 491.1L367.5 431.8C368.9 426.2 371.8 421.1 375.9 416.1L557.2 235.7C572.8 220.1 598.1 220.1 613.8 235.7L628.1 250.1C643.8 265.7 643.8 291 628.1 306.7L446.9 487.9C442.8 492 437.6 494.9 432 496.3L371.9 511.4C366.4 512.7 360.7 511.1 356.7 507.2V507.2zM368 495.8L428.1 480.8C430.9 480.1 433.5 478.7 435.6 476.6L578.4 333.7L530.1 285.4L387.2 428.3C385.2 430.3 383.7 432.9 383 435.7L368 495.8zM616.8 261.4L602.4 247C593.1 237.7 577.9 237.7 568.5 247L541.4 274.1L589.7 322.4L616.8 295.4C626.2 285.1 626.2 270.8 616.8 261.4V261.4zM428.6 482.8L432 496.3z"/></svg>