<svg xmlns="http://www.w3.org/2000/svg" viewBox="0 0 640 512"><!--! Font Awesome Pro 6.0.0-beta3 by @fontawesome - https://fontawesome.com License - https://fontawesome.com/license (Commercial License) Copyright 2021 Fonticons, Inc. --><path d="M464 208C464 261 421 304 368 304C314.1 304 272 261 272 208C272 154.1 314.1 112 368 112C421 112 464 154.1 464 208zM368 128C323.8 128 288 163.8 288 208C288 252.2 323.8 288 368 288C412.2 288 448 252.2 448 208C448 163.8 412.2 128 368 128zM576 32C611.3 32 640 60.65 640 96V320C640 355.3 611.3 384 576 384H160C124.7 384 96 355.3 96 320V96C96 60.65 124.7 32 160 32H576zM576 48H160C133.5 48 112 69.49 112 96V320C112 346.5 133.5 368 160 368H576C602.5 368 624 346.5 624 320V96C624 69.49 602.5 48 576 48zM64 144C37.49 144 16 165.5 16 192V416C16 442.5 37.49 464 64 464H480C506.5 464 528 442.5 528 416H544C544 451.3 515.3 480 480 480H64C28.65 480 0 451.3 0 416V192C0 156.7 28.65 128 64 128V144z"/></svg>