<svg xmlns="http://www.w3.org/2000/svg" viewBox="0 0 576 512"><!--! Font Awesome Pro 6.1.1 by @fontawesome - https://fontawesome.com License - https://fontawesome.com/license (Commercial License) Copyright 2022 Fonticons, Inc. --><path d="M544 176C544 180.4 540.4 184 536 184H528C488.2 184 456 151.8 456 112V104C456 99.58 459.6 96 464 96C468.4 96 472 99.58 472 104V112C472 142.9 497.1 168 528 168H536C540.4 168 544 171.6 544 176zM40 184C35.58 184 32 180.4 32 176C32 171.6 35.58 168 40 168H48C78.93 168 104 142.9 104 112V104C104 99.58 107.6 96 112 96C116.4 96 120 99.58 120 104V112C120 151.8 87.76 184 48 184H40zM536 344H528C497.1 344 472 369.1 472 400V408C472 412.4 468.4 416 464 416C459.6 416 456 412.4 456 408V400C456 360.2 488.2 328 528 328H536C540.4 328 544 331.6 544 336C544 340.4 540.4 344 536 344zM48 328C87.76 328 120 360.2 120 400V408C120 412.4 116.4 416 112 416C107.6 416 104 412.4 104 408V400C104 369.1 78.93 344 48 344H40C35.58 344 32 340.4 32 336C32 331.6 35.58 328 40 328H48zM288 200C292.4 200 296 203.6 296 208V296H312C316.4 296 320 299.6 320 304C320 308.4 316.4 312 312 312H264C259.6 312 256 308.4 256 304C256 299.6 259.6 296 264 296H280V216H272C267.6 216 264 212.4 264 208C264 203.6 267.6 200 272 200H288zM160 256C160 185.3 217.3 128 288 128C358.7 128 416 185.3 416 256C416 326.7 358.7 384 288 384C217.3 384 160 326.7 160 256zM288 368C349.9 368 400 317.9 400 256C400 194.1 349.9 144 288 144C226.1 144 176 194.1 176 256C176 317.9 226.1 368 288 368zM512 64C547.3 64 576 92.65 576 128V384C576 419.3 547.3 448 512 448H64C28.65 448 0 419.3 0 384V128C0 92.65 28.65 64 64 64H512zM512 80H64C37.49 80 16 101.5 16 128V384C16 410.5 37.49 432 64 432H512C538.5 432 560 410.5 560 384V128C560 101.5 538.5 80 512 80z"/></svg>