<svg xmlns="http://www.w3.org/2000/svg" viewBox="0 0 576 512"><!--! Font Awesome Pro 6.1.1 by @fontawesome - https://fontawesome.com License - https://fontawesome.com/license (Commercial License) Copyright 2022 Fonticons, Inc. --><path d="M384 256C384 309 341 352 288 352C234.1 352 192 309 192 256C192 202.1 234.1 160 288 160C341 160 384 202.1 384 256zM288 176C243.8 176 208 211.8 208 256C208 300.2 243.8 336 288 336C332.2 336 368 300.2 368 256C368 211.8 332.2 176 288 176zM0 128C0 92.65 28.65 64 64 64H512C547.3 64 576 92.65 576 128V384C576 419.3 547.3 448 512 448H64C28.65 448 0 419.3 0 384V128zM16 128V384C16 410.5 37.49 432 64 432H512C538.5 432 560 410.5 560 384V128C560 101.5 538.5 80 512 80H64C37.49 80 16 101.5 16 128z"/></svg>