<svg xmlns="http://www.w3.org/2000/svg" viewBox="0 0 640 512"><!--! Font Awesome Pro 6.0.0-beta3 by @fontawesome - https://fontawesome.com License - https://fontawesome.com/license (Commercial License) Copyright 2021 Fonticons, Inc. --><path d="M400 0C402.5 0 404.9 1.186 406.4 3.2C425.8 29 450.7 49.61 479.3 69.06C497.3 81.32 516.4 92.86 536.4 104.1C548.4 112.2 560.8 119.7 573.4 127.6C600.6 144.7 616 174.8 616 206.6C616 226.5 610 244.1 599.8 260.4C597.3 264.1 592.4 265.1 588.7 262.7C584.1 260.2 584 255.3 586.4 251.6C595 238.7 600 223.2 600 206.6C600 179.9 587.1 155.1 564.9 141.1C552.8 133.5 540.7 126.2 528.7 119C508.4 106.7 488.6 94.74 470.3 82.29C443.9 64.35 419.8 44.92 400 20.94C380.2 44.92 356.1 64.35 329.7 82.29C311.4 94.74 291.6 106.7 271.3 119C259.3 126.2 247.2 133.5 235.1 141.1C212.9 155.1 199.1 179.9 199.1 206.6C199.1 223.2 204.1 238.7 213.6 251.6C216 255.3 214.1 260.2 211.3 262.7C207.6 265.1 202.7 264.1 200.2 260.4C189.1 244.1 183.1 226.5 183.1 206.6C183.1 174.8 199.4 144.7 226.6 127.6C239.2 119.7 251.6 112.2 263.6 104.1C283.6 92.87 302.7 81.32 320.7 69.06C349.3 49.61 374.2 29 393.6 3.2C395.1 1.186 397.5 0 400 0V0zM640 456C640 486.9 614.9 512 584 512H215.1C185.1 512 159.1 486.9 159.1 456V344C159.1 313.1 185.1 288 215.1 288H584C614.9 288 640 313.1 640 344V456zM464 496H512V416C512 398.3 526.3 384 544 384C561.7 384 576 398.3 576 416V496H584C606.1 496 624 478.1 624 456V344C624 321.9 606.1 304 584 304H215.1C193.9 304 175.1 321.9 175.1 344V456C175.1 478.1 193.9 496 215.1 496H223.1V416C223.1 398.3 238.3 384 255.1 384C273.7 384 287.1 398.3 287.1 416V496H336V416C336 395.9 345.5 376.9 361.6 364.8L400 336L438.4 364.8C454.5 376.9 464 395.9 464 416V496zM448 416C448 400.9 440.9 386.7 428.8 377.6L400 356L371.2 377.6C359.1 386.7 352 400.9 352 416V496H448V416zM528 416V496H560V416C560 407.2 552.8 400 544 400C535.2 400 528 407.2 528 416zM271.1 416C271.1 407.2 264.8 400 255.1 400C247.2 400 239.1 407.2 239.1 416V496H271.1V416zM73.48 3.402C76.17 1.554 79.72 1.531 82.44 3.344L101 15.72C136.6 39.46 158 79.42 158 122.2V280C158 284.4 154.4 288 150 288C145.6 288 142 284.4 142 280V160H16V456C16 478.1 33.91 496 56 496H120C124.4 496 128 499.6 128 504C128 508.4 124.4 512 120 512H56C25.07 512 0 486.9 0 456V121.2C0 79.01 20.8 39.52 55.61 15.65L73.48 3.402zM15.1 144H141.1V122.2C141.1 84.77 123.3 49.8 92.13 29.03L78.06 19.66L64.66 28.85C34.2 49.73 15.1 84.29 15.1 121.2V144z"/></svg>