<svg xmlns="http://www.w3.org/2000/svg" viewBox="0 0 576 512"><!--! Font Awesome Pro 6.1.1 by @fontawesome - https://fontawesome.com License - https://fontawesome.com/license (Commercial License) Copyright 2022 Fonticons, Inc. --><path d="M431.9 179.2L540.4 368C552.7 389.4 537.3 416 512.7 416H63.31C38.7 416 23.31 389.4 35.57 368L144.1 179.2C173.8 127.7 228.6 96 288 96C347.4 96 402.2 127.7 431.9 179.2H431.9zM526.6 376L417.1 187.2C391.2 140.7 341.7 112 288 112C234.3 112 184.8 140.7 158 187.2L49.44 376C43.31 386.7 51.01 400 63.31 400H512.7C524.1 400 532.7 386.7 526.6 376H526.6z"/></svg>