<svg xmlns="http://www.w3.org/2000/svg" viewBox="0 0 576 512"><!--! Font Awesome Pro 6.0.0-beta3 by @fontawesome - https://fontawesome.com License - https://fontawesome.com/license (Commercial License) Copyright 2021 Fonticons, Inc. --><path d="M464 64H55.1c-6.375 0-12.5 2.5-17 7S31.1 81.63 31.1 88L31.1 352c0 53 43 96 96 96h192c53 0 96-43 96-96L416 288h48C525.8 288 576 237.8 576 176S525.8 64 464 64zM400 352c0 44.11-35.89 80-80 80H128c-44.11 0-80-35.89-80-80V88c0-5.129 4.172-8 8-8h96v40L105.4 166.6c-6.002 6.002-9.375 14.14-9.375 22.63L95.1 256c0 17.67 14.33 32 32 32h64c17.67 0 32-14.33 32-32l-.0003-66.75c0-8.486-3.374-16.62-9.374-22.63L168 120V80h232V352zM160 134.6l43.31 43.31C206.3 180.1 208 184.1 208 189.3V256c0 8.822-7.178 16-16 16H128C119.2 272 112 264.8 112 256V189.3c0-4.273 1.666-8.291 4.686-11.31L160 134.6zM464 272H416v-192h48c52.94 0 96 43.06 96 96S516.9 272 464 272z"/></svg>