<svg xmlns="http://www.w3.org/2000/svg" viewBox="0 0 512 512"><!--! Font Awesome Pro 6.0.0-beta3 by @fontawesome - https://fontawesome.com License - https://fontawesome.com/license (Commercial License) Copyright 2021 Fonticons, Inc. --><path d="M495.9 7.948c-10.28-7.625-23.15-9.906-35.37-6.219L204.6 78.51C187.8 83.54 176.1 99.29 176.1 116.8v271.2c-17.17-21.68-46.59-36.02-80.08-36.02C42.98 352 0 387.8 0 432C0 476.2 42.98 512 95.1 512s95.1-35.77 95.1-79.95l.0844-216.6l303.9-91.18v199.6c-17.19-21.62-46.55-35.93-80.01-35.93c-53.02 0-95.1 35.82-95.1 79.1c0 44.18 42.98 79.1 95.1 79.1s95.1-35.82 95.1-80L512 40.04C512 27.28 506.1 15.57 495.9 7.948zM95.99 496c-44.11 0-79.1-28.71-79.1-63.1c0-35.29 35.88-63.1 79.1-63.1s79.1 28.71 79.1 63.1C175.1 467.3 140.1 496 95.99 496zM415.1 432c-44.11 0-79.1-28.71-79.1-63.1c0-35.29 35.88-63.1 79.1-63.1s79.1 28.71 79.1 63.1C495.1 403.3 460.1 432 415.1 432zM192.1 198.8V116.8c0-10.52 7.031-19.97 17.12-22.98l255.9-76.8c7.312-2.203 15.12-.8125 21.19 3.734c6.156 4.578 9.687 11.59 9.687 19.27v67.55L192.1 198.8z"/></svg>