<svg xmlns="http://www.w3.org/2000/svg" viewBox="0 0 640 512"><!--! Font Awesome Pro 6.0.0-beta3 by @fontawesome - https://fontawesome.com License - https://fontawesome.com/license (Commercial License) Copyright 2021 Fonticons, Inc. --><path d="M247.9 496H57.17c-78.88-96.63-20.03-210.3-19.41-211.5C42.42 275.6 46.64 266.3 50.58 256h261.4c4.407 0 8.001-3.594 8.001-8V128c0-70.59-57.41-128-128-128S63.92 57.41 63.92 128v112h-18.91c-3.375 0-6.376 2.094-7.532 5.25C33.26 256.9 28.7 267.3 23.61 277c-23.07 43.44-47.79 147.8 23.72 232.2C48.83 510.1 51.08 512 53.42 512h194.5c4.407 0 8.001-3.594 8.001-8S252.4 496 247.9 496zM79.92 128c0-61.75 50.26-112 112-112S303.1 66.25 303.1 128v112H79.92V128zM638.4 499.2C608.5 459.7 591.1 413.1 591.1 368v-15.12C591.1 280.6 535.8 224 463.1 224s-128 56.59-128 128.9V368c0 45.13-16.47 91.72-46.38 131.2c-1.844 2.438-2.156 5.688-.7813 8.406C290.1 510.3 292.9 512 295.1 512h336c3.032 0 5.813-1.719 7.157-4.438C640.5 504.8 640.2 501.6 638.4 499.2zM311.5 496c26.22-39.34 40.5-84.25 40.5-128v-15.12C351.1 289.6 401.2 240 463.1 240s112 49.59 112 112.9V368c0 43.75 14.28 88.66 40.5 128H311.5zM543.1 341.4c-29.63 0-57.1-13.84-73.48-37.06c-3-4.25-10.06-4.25-13.06 0c-16.38 23.22-43.85 37.06-73.48 37.06c-4.407 0-8.001 3.594-8.001 8c0 45.84 39.47 83.13 88.01 83.13c48.54 0 88.01-37.28 88.01-83.13C551.1 344.1 548.4 341.4 543.1 341.4zM463.1 416.5c-36.91 0-67.45-26.03-71.54-59.44c27.94-2.156 53.66-14.84 71.54-35.22c17.88 20.38 43.6 33.06 71.54 35.22C531.4 390.5 500.9 416.5 463.1 416.5zM261.3 92.38c-25.28 0-48.72-12.28-62.73-32.88c-3-4.375-10.25-4.375-13.25 0C171.3 80.09 147.9 92.38 122.6 92.38c-4.407 0-8.001 3.594-8.001 8C114.6 142.1 149.3 176 191.9 176s77.35-33.94 77.35-75.63C269.3 95.97 265.7 92.38 261.3 92.38zM191.9 160c-31.19 0-57.01-22.72-60.85-52c23.66-2.156 45.44-13.25 60.85-30.94C207.3 94.75 229.1 105.8 252.8 108C248.9 137.3 223.1 160 191.9 160z"/></svg>