<svg xmlns="http://www.w3.org/2000/svg" viewBox="0 0 640 512"><!--! Font Awesome Pro 6.1.1 by @fontawesome - https://fontawesome.com License - https://fontawesome.com/license (Commercial License) Copyright 2022 Fonticons, Inc. --><path d="M480 48c26.47 0 48 21.53 48 48v233.3l16 12.72V96c0-35.35-28.65-64-64-64H160C158.2 32 156.4 32.39 154.6 32.54L174.1 48H480zM464 278.5V136c0-13.23-10.77-24-24-24H320c-4.422 0-8 3.578-8 8v37.65l16 12.72V128h112C444.4 128 448 131.6 448 136v129.8L464 278.5zM176 233.5V376c0 13.23 10.77 24 24 24h185.4L365.3 384H200C195.6 384 192 380.4 192 376V246.2L176 233.5zM160 464c-26.47 0-48-21.53-48-48V182.6L96 169.9V416c0 35.35 28.65 64 64 64h320c1.85 0 3.59-.3906 5.4-.5449L465.1 464H160zM636.1 497.7L12.99 1.73C11.53 .5664 9.771 0 8.025 0C5.674 0 3.336 1.029 1.738 3.012c-2.75 3.469-2.172 8.5 1.281 11.25l623.1 496C628.5 511.4 630.2 512 631.1 512c2.344 0 4.688-1.031 6.266-3.016C641 505.5 640.4 500.5 636.1 497.7z"/></svg>