<svg xmlns="http://www.w3.org/2000/svg" viewBox="0 0 640 512"><!--! Font Awesome Pro 6.0.0-beta3 by @fontawesome - https://fontawesome.com License - https://fontawesome.com/license (Commercial License) Copyright 2021 Fonticons, Inc. --><path d="M376 464H64c-26.51 0-48-21.49-48-48V96c0-26.51 21.49-48 48-48h320c26.51 0 48 21.49 48 48v56C432 156.4 435.6 160 440 160S448 156.4 448 152V96c0-35.35-28.65-64-64-64H64C28.65 32 0 60.65 0 96v320c0 35.35 28.65 64 64 64h312c4.418 0 8-3.582 8-8S380.4 464 376 464zM104 128h44.44c4.422 0 8-3.578 8-8s-3.578-8-8-8H104C90.75 112 80 122.7 80 136v240c0 13.25 10.75 24 24 24H288c4.418 0 8-3.582 8-8S292.4 384 288 384H104C99.6 384 96 380.4 96 376v-240C96 131.6 99.6 128 104 128zM360 176c4.418 0 8-3.582 8-8v-32c0-13.26-10.75-24-24-24H224c-4.418 0-8 3.582-8 8v97.62c-20.09 4.238-34.1 22.66-31.49 44.83c2.506 15.84 14.74 29.07 30.39 32.54C240.9 300.8 264 281 264 256c0-19.23-13.89-34.56-32-38.38V128h112C348.4 128 352 131.6 352 136v32C352 172.4 355.6 176 360 176zM248 256c0 13.23-10.77 24-24 24S200 269.2 200 256S210.8 232 224 232S248 242.8 248 256zM637.7 498.3l-94.03-94.03C563.5 381.8 576 352.5 576 320c0-70.69-57.31-128-128-128c-70.69 0-128 57.31-128 128c0 70.69 57.31 128 128 128c32.46 0 61.75-12.47 84.31-32.38l94.03 94.03C627.9 511.2 629.1 512 632 512s4.094-.7813 5.656-2.344C640.8 506.5 640.8 501.5 637.7 498.3zM448 432c-61.76 0-112-50.24-112-112s50.24-112 112-112c61.76 0 112 50.24 112 112S509.8 432 448 432z"/></svg>