<svg xmlns="http://www.w3.org/2000/svg" viewBox="0 0 512 512"><!--! Font Awesome Pro 6.1.1 by @fontawesome - https://fontawesome.com License - https://fontawesome.com/license (Commercial License) Copyright 2022 Fonticons, Inc. --><path d="M232 217.6V128h112C348.4 128 352 131.6 352 136v128c0 4.418 3.582 8 8 8s8-3.582 8-8v-128c0-13.26-10.75-24-24-24H224c-4.418 0-8 3.582-8 8v97.62c-20.09 4.238-34.1 22.66-31.49 44.83c2.506 15.84 14.74 29.07 30.39 32.54C240.9 300.8 264 281 264 256C264 236.8 250.1 221.4 232 217.6zM224 280C210.8 280 200 269.2 200 256S210.8 232 224 232S248 242.8 248 256S237.2 280 224 280zM232 464H64c-26.51 0-48-21.49-48-48V96c0-26.51 21.49-48 48-48h320c26.51 0 48 21.49 48 48v136c0 4.418 3.582 8 8 8S448 236.4 448 232V96c0-35.35-28.65-64-64-64H64C28.65 32 0 60.65 0 96v320c0 35.35 28.65 64 64 64h168c4.418 0 8-3.582 8-8S236.4 464 232 464zM248 384h-144C99.6 384 96 380.4 96 376v-240C96 131.6 99.6 128 104 128h44.44c4.422 0 8-3.578 8-8s-3.578-8-8-8H104C90.75 112 80 122.7 80 136v240c0 13.25 10.75 24 24 24h144c4.418 0 8-3.582 8-8S252.4 384 248 384zM480 448c-17.67 0-32 14.33-32 32s14.33 32 32 32s32-14.33 32-32S497.7 448 480 448zM480 496c-8.822 0-16-7.178-16-16s7.178-16 16-16s16 7.178 16 16S488.8 496 480 496zM512 280c0-4.422-3.578-8-8-8c-127.9 0-232 104.1-232 232c0 4.422 3.578 8 8 8S288 508.4 288 504C288 384.9 384.9 288 504 288C508.4 288 512 284.4 512 280zM504 352C420.2 352 352 420.2 352 504c0 4.422 3.578 8 8 8s8-3.578 8-8c0-74.98 61.02-136 136-136c4.422 0 8-3.578 8-8S508.4 352 504 352z"/></svg>