<svg xmlns="http://www.w3.org/2000/svg" viewBox="0 0 448 512"><!--! Font Awesome Pro 6.0.0-beta3 by @fontawesome - https://fontawesome.com License - https://fontawesome.com/license (Commercial License) Copyright 2021 Fonticons, Inc. --><path d="M344 112H224c-4.422 0-8 3.578-8 8v97.62C197.9 221.4 184 236.8 184 256c0 22.06 17.94 40 40 40S264 278.1 264 256c0-19.23-13.89-34.56-32-38.38V128h112C348.4 128 352 131.6 352 136v240c0 4.406-3.594 8-8 8h-240C99.59 384 96 380.4 96 376v-240C96 131.6 99.59 128 104 128h44.44c4.422 0 8-3.578 8-8s-3.578-8-8-8H104C90.77 112 80 122.8 80 136v240c0 13.23 10.77 24 24 24h240c13.23 0 24-10.77 24-24v-240C368 122.8 357.2 112 344 112zM248 256c0 13.23-10.77 24-24 24S200 269.2 200 256S210.8 232 224 232S248 242.8 248 256zM384 32H64C28.65 32 0 60.65 0 96v320c0 35.35 28.65 64 64 64h320c35.35 0 64-28.65 64-64V96C448 60.65 419.3 32 384 32zM432 416c0 26.47-21.53 48-48 48H64c-26.47 0-48-21.53-48-48V96c0-26.47 21.53-48 48-48h320c26.47 0 48 21.53 48 48V416z"/></svg>