<svg xmlns="http://www.w3.org/2000/svg" viewBox="0 0 448 512"><!--! Font Awesome Pro 6.1.1 by @fontawesome - https://fontawesome.com License - https://fontawesome.com/license (Commercial License) Copyright 2022 Fonticons, Inc. --><path d="M384 32H64.01C28.66 32 .0065 60.65 .0065 96L0 415.1C0 451.3 28.65 480 64 480h226.7c8.486 0 16.62-3.371 22.63-9.373l125.3-125.3C444.6 339.4 448 331.2 448 322.7V96C448 60.65 419.3 32 384 32zM432 322.7c0 4.273-1.664 8.291-4.686 11.31l-125.3 125.3C299 462.3 295 464 290.7 464H64c-26.47 0-48-21.53-48-48V96c0-26.47 21.53-48 48-48h320c26.47 0 48 21.53 48 48V322.7zM392 304h-80c-22.06 0-40 17.94-40 40v80c0 4.406 3.594 8 8 8S288 428.4 288 424v-80c0-13.22 10.78-24 24-24h80c4.406 0 8-3.594 8-8S396.4 304 392 304z"/></svg>