<svg xmlns="http://www.w3.org/2000/svg" viewBox="0 0 448 512"><!--! Font Awesome Pro 6.1.1 by @fontawesome - https://fontawesome.com License - https://fontawesome.com/license (Commercial License) Copyright 2022 Fonticons, Inc. --><path d="M384 32H64.01C28.66 32 .0065 60.65 .0065 96L0 416c0 35.35 28.65 64 64 64h226.7c8.486 0 16.62-3.371 22.63-9.373l125.3-125.3C444.6 339.4 448 331.2 448 322.7V96C448 60.65 419.3 32 384 32zM304 457.4V360c0-13.23 10.78-24 24-24h97.37L304 457.4zM432 320h-104C305.9 320 288 337.9 288 360v104H64c-26.47 0-48-21.53-48-48V96c0-26.47 21.53-48 48-48h320c26.47 0 48 21.53 48 48V320z"/></svg>