<svg xmlns="http://www.w3.org/2000/svg" viewBox="0 0 640 512"><!--! Font Awesome Pro 6.0.0-beta3 by @fontawesome - https://fontawesome.com License - https://fontawesome.com/license (Commercial License) Copyright 2021 Fonticons, Inc. --><path d="M352 320c0 17.67 14.33 32 32 32h32c17.67 0 32-14.33 32-32V288c0-17.67-14.33-32-32-32h-8V96H416c17.67 0 32-14.33 32-32V32c0-17.67-14.33-32-32-32h-32c-17.67 0-32 14.33-32 32v8H96V32c0-17.67-14.33-32-32-32H32C14.33 0 0 14.33 0 32v32c0 17.67 14.33 32 32 32h8v160H32C14.33 256 0 270.3 0 288v32c0 17.67 14.33 32 32 32h32c17.67 0 32-14.33 32-32V312h256V320zM416 272c8.822 0 16 7.178 16 16v32c0 8.822-7.178 16-16 16h-32c-8.822 0-16-7.178-16-16V288c0-8.822 7.178-16 16-16H416zM368 32c0-8.822 7.178-16 16-16h32c8.822 0 16 7.178 16 16v32c0 8.822-7.178 16-16 16h-32c-8.822 0-16-7.178-16-16V32zM32 80C23.18 80 16 72.82 16 64V32c0-8.822 7.178-16 16-16h32c8.822 0 16 7.178 16 16v32c0 8.822-7.178 16-16 16H32zM80 320c0 8.822-7.178 16-16 16H32c-8.822 0-16-7.178-16-16V288c0-8.822 7.178-16 16-16h32c8.822 0 16 7.178 16 16V320zM96 296V288c0-17.67-14.33-32-32-32H56V96H64c17.67 0 32-14.33 32-32V56h256V64c0 17.67 14.33 32 32 32h8v160H384c-17.67 0-32 14.33-32 32v8H96zM608 256c17.67 0 32-14.33 32-32V192c0-17.67-14.33-32-32-32h-32c-17.67 0-32 14.33-32 32v8h-96c-4.422 0-8 3.578-8 8S443.6 216 448 216h96V224c0 17.67 14.33 32 32 32h8v160H576c-17.67 0-32 14.33-32 32v8H288V448c0-17.67-14.33-32-32-32H248v-64c0-4.422-3.578-8-8-8S232 347.6 232 352v64H224c-17.67 0-32 14.33-32 32v32c0 17.67 14.33 32 32 32h32c17.67 0 32-14.33 32-32v-8h256V480c0 17.67 14.33 32 32 32h32c17.67 0 32-14.33 32-32v-32c0-17.67-14.33-32-32-32h-8V256H608zM272 480c0 8.822-7.178 16-16 16H224c-8.822 0-16-7.178-16-16v-32c0-8.822 7.178-16 16-16h32c8.822 0 16 7.178 16 16V480zM608 432c8.822 0 16 7.178 16 16v32c0 8.822-7.178 16-16 16h-32c-8.822 0-16-7.178-16-16v-32c0-8.822 7.178-16 16-16H608zM576 240c-8.822 0-16-7.178-16-16V192c0-8.822 7.178-16 16-16h32c8.822 0 16 7.178 16 16v32c0 8.822-7.178 16-16 16H576z"/></svg>