<svg xmlns="http://www.w3.org/2000/svg" viewBox="0 0 512 512"><!--! Font Awesome Pro 6.0.0-beta3 by @fontawesome - https://fontawesome.com License - https://fontawesome.com/license (Commercial License) Copyright 2021 Fonticons, Inc. --><path d="M288 248V144C288 117.5 309.5 96 336 96H400C426.5 96 448 117.5 448 144V248H504C508.4 248 512 251.6 512 256C512 260.4 508.4 264 504 264H448V368C448 394.5 426.5 416 400 416H336C309.5 416 288 394.5 288 368V264H224V432C224 458.5 202.5 480 176 480H112C85.49 480 64 458.5 64 432V264H8C3.582 264 0 260.4 0 256C0 251.6 3.582 248 8 248H64V80C64 53.49 85.49 32 112 32H176C202.5 32 224 53.49 224 80V248H288zM176 48H112C94.33 48 80 62.33 80 80V432C80 449.7 94.33 464 112 464H176C193.7 464 208 449.7 208 432V80C208 62.33 193.7 48 176 48zM304 368C304 385.7 318.3 400 336 400H400C417.7 400 432 385.7 432 368V144C432 126.3 417.7 112 400 112H336C318.3 112 304 126.3 304 144V368z"/></svg>