<svg xmlns="http://www.w3.org/2000/svg" viewBox="0 0 512 512"><!--! Font Awesome Pro 6.1.1 by @fontawesome - https://fontawesome.com License - https://fontawesome.com/license (Commercial License) Copyright 2022 Fonticons, Inc. --><path d="M16 64V288C16 314.5 37.49 336 64 336H128V352H64C28.65 352 0 323.3 0 288V64C0 28.65 28.65 0 64 0H288C323.3 0 352 28.65 352 64V128H336V64C336 37.49 314.5 16 288 16H64C37.49 16 16 37.49 16 64zM176 384V448C176 474.5 197.5 496 224 496H448C474.5 496 496 474.5 496 448V224C496 197.5 474.5 176 448 176H384V160H448C483.3 160 512 188.7 512 224V448C512 483.3 483.3 512 448 512H224C188.7 512 160 483.3 160 448V384H176zM256 352V336H288C314.5 336 336 314.5 336 288H352C352 323.3 323.3 352 288 352H256zM352 256H336V176H288V160H352V256zM160 352V256H176V336H224V352H160zM224 160H256V176H224C197.5 176 176 197.5 176 224H160C160 188.7 188.7 160 224 160z"/></svg>