<svg xmlns="http://www.w3.org/2000/svg" viewBox="0 0 512 512"><!--! Font Awesome Pro 6.0.0-beta3 by @fontawesome - https://fontawesome.com License - https://fontawesome.com/license (Commercial License) Copyright 2021 Fonticons, Inc. --><path d="M288 248v-80C288 145.9 270.1 128 248 128h-112C113.9 128 96 145.9 96 168v80C96 270.1 113.9 288 136 288h112C270.1 288 288 270.1 288 248zM112 248v-80c0-13.23 10.77-24 24-24h112c13.23 0 24 10.77 24 24v80c0 13.23-10.77 24-24 24h-112C122.8 272 112 261.2 112 248zM480 128c17.67 0 32-14.33 32-32V64c0-17.67-14.33-32-32-32h-32c-17.67 0-32 14.33-32 32v8H96V64c0-17.67-14.33-32-32-32H32C14.33 32 0 46.33 0 64v32c0 17.67 14.33 32 32 32h8v256H32c-17.67 0-32 14.33-32 32v32c0 17.67 14.33 32 32 32h32c17.67 0 32-14.33 32-32v-8h320V448c0 17.67 14.33 32 32 32h32c17.67 0 32-14.33 32-32v-32c0-17.67-14.33-32-32-32h-8V128H480zM432 64c0-8.822 7.178-16 16-16h32c8.822 0 16 7.178 16 16v32c0 8.822-7.178 16-16 16h-32c-8.822 0-16-7.178-16-16V64zM32 112C23.18 112 16 104.8 16 96V64c0-8.822 7.178-16 16-16h32c8.822 0 16 7.178 16 16v32c0 8.822-7.178 16-16 16H32zM80 448c0 8.822-7.178 16-16 16H32c-8.822 0-16-7.178-16-16v-32c0-8.822 7.178-16 16-16h32c8.822 0 16 7.178 16 16V448zM480 400c8.822 0 16 7.178 16 16v32c0 8.822-7.178 16-16 16h-32c-8.822 0-16-7.178-16-16v-32c0-8.822 7.178-16 16-16H480zM456 384H448c-17.67 0-32 14.33-32 32v8H96V416c0-17.67-14.33-32-32-32H56V128H64c17.67 0 32-14.33 32-32V88h320V96c0 17.67 14.33 32 32 32h8V384zM416 264v80c0 22.06-17.94 40-40 40h-112C241.9 384 224 366.1 224 344V320c0-4.422 3.578-8 8-8S240 315.6 240 320v24c0 13.23 10.77 24 24 24h112c13.23 0 24-10.77 24-24v-80c0-13.23-10.77-24-24-24L320 239.1c-4.422 0-8-3.578-8-7.1S315.6 224 320 224h56C398.1 224 416 241.9 416 264z"/></svg>