<svg xmlns="http://www.w3.org/2000/svg" viewBox="0 0 448 512"><!--! Font Awesome Pro 6.1.1 by @fontawesome - https://fontawesome.com License - https://fontawesome.com/license (Commercial License) Copyright 2022 Fonticons, Inc. --><path d="M232 64H400C426.5 64 448 85.49 448 112V176C448 202.5 426.5 224 400 224H232V288H336C362.5 288 384 309.5 384 336V400C384 426.5 362.5 448 336 448H232V504C232 508.4 228.4 512 224 512C219.6 512 216 508.4 216 504V448H112C85.49 448 64 426.5 64 400V336C64 309.5 85.49 288 112 288H216V224H48C21.49 224 0 202.5 0 176V112C0 85.49 21.49 64 48 64H216V8C216 3.582 219.6 0 224 0C228.4 0 232 3.582 232 8V64zM112 304C94.33 304 80 318.3 80 336V400C80 417.7 94.33 432 112 432H336C353.7 432 368 417.7 368 400V336C368 318.3 353.7 304 336 304H112zM400 208C417.7 208 432 193.7 432 176V112C432 94.33 417.7 80 400 80H48C30.33 80 16 94.33 16 112V176C16 193.7 30.33 208 48 208H400z"/></svg>