<svg xmlns="http://www.w3.org/2000/svg" viewBox="0 0 640 512"><!--! Font Awesome Pro 6.1.1 by @fontawesome - https://fontawesome.com License - https://fontawesome.com/license (Commercial License) Copyright 2022 Fonticons, Inc. --><path d="M48 0C71.78 0 91.53 17.3 95.34 40H352.7C356.5 17.3 376.2 0 400 0C426.5 0 448 21.49 448 48C448 71.78 430.7 91.53 408 95.34V256.7C430.7 260.5 448 280.2 448 304C448 330.5 426.5 352 400 352C376.2 352 356.5 334.7 352.7 312H95.34C91.53 334.7 71.78 352 48 352C21.49 352 0 330.5 0 304C0 280.2 17.3 260.5 40 256.7V95.34C17.3 91.53 0 71.78 0 48C0 21.49 21.49 0 48 0zM352.7 56H95.34C91.96 76.1 76.1 91.96 56 95.34V256.7C76.1 260 91.96 275.9 95.34 296H352.7C356 275.9 371.9 260 392 256.7V95.34C371.9 91.96 356 76.1 352.7 56zM432 304C432 286.3 417.7 272 400 272C382.3 272 368 286.3 368 304C368 321.7 382.3 336 400 336C417.7 336 432 321.7 432 304zM16 304C16 321.7 30.33 336 48 336C65.67 336 80 321.7 80 304C80 286.3 65.67 272 48 272C30.33 272 16 286.3 16 304zM432 48C432 30.33 417.7 16 400 16C382.3 16 368 30.33 368 48C368 65.67 382.3 80 400 80C417.7 80 432 65.67 432 48zM16 48C16 65.67 30.33 80 48 80C65.67 80 80 65.67 80 48C80 30.33 65.67 16 48 16C30.33 16 16 30.33 16 48zM544.7 200C548.5 177.3 568.2 160 592 160C618.5 160 640 181.5 640 208C640 231.8 622.7 251.5 600 255.3V416.7C622.7 420.5 640 440.2 640 464C640 490.5 618.5 512 592 512C568.2 512 548.5 494.7 544.7 472H287.3C283.5 494.7 263.8 512 240 512C213.5 512 192 490.5 192 464C192 440.2 209.3 420.5 232 416.7V352C232 347.6 235.6 344 240 344C244.4 344 248 347.6 248 352V416.7C268.1 420 283.1 435.9 287.3 456H544.7C548 435.9 563.9 420 584 416.7V255.3C563.9 251.1 548 236.1 544.7 216H480C475.6 216 472 212.4 472 208C472 203.6 475.6 200 480 200H544.7zM560 208C560 225.7 574.3 240 592 240C609.7 240 624 225.7 624 208C624 190.3 609.7 176 592 176C574.3 176 560 190.3 560 208zM592 432C574.3 432 560 446.3 560 464C560 481.7 574.3 496 592 496C609.7 496 624 481.7 624 464C624 446.3 609.7 432 592 432zM208 464C208 481.7 222.3 496 240 496C257.7 496 272 481.7 272 464C272 446.3 257.7 432 240 432C222.3 432 208 446.3 208 464z"/></svg>