<svg xmlns="http://www.w3.org/2000/svg" viewBox="0 0 512 512"><!--! Font Awesome Pro 6.0.0-beta3 by @fontawesome - https://fontawesome.com License - https://fontawesome.com/license (Commercial License) Copyright 2021 Fonticons, Inc. --><path d="M482.8 157.1l-127.1-127.9C346.4 20.8 334.1 16 323 16H188.9c-11.84 0-23.32 4.805-31.76 13.24L29.24 157.2C20.8 165.6 16 177 16 188.1v134.2c0 11.84 4.805 23.32 13.24 31.76l127.1 127.9C165.6 491.2 177 496 188.1 496h134.2c11.84 0 23.32-4.805 31.76-13.24l127.9-127.1C491.2 346.4 496 334.1 496 323V188.9C496 177 491.2 165.5 482.8 157.1zM480 323c0 7.664-3.039 14.93-8.561 20.45l-127.8 127.1C338.2 476.9 330.7 480 323.1 480H188.1c-7.666 0-14.93-3.039-20.45-8.562L40.56 343.6C35.12 338.2 32 330.7 32 323.1V188.1c0-7.664 3.039-14.93 8.562-20.45L168.4 40.55C173.8 35.12 181.3 32 188.9 32h134.2c7.666 0 14.93 3.039 20.45 8.562l127.1 127.8C476.9 173.8 480 181.3 480 188.9V323zM256 304c4.406 0 8-3.578 8-8v-176c0-4.422-3.594-8-8-8S248 115.6 248 120v176C248 300.4 251.6 304 256 304zM256 352c-8.836 0-16 7.164-16 16S247.2 384 256 384s16-7.164 16-16S264.8 352 256 352z"/></svg>