<svg xmlns="http://www.w3.org/2000/svg" viewBox="0 0 512 512"><!--! Font Awesome Pro 6.1.1 by @fontawesome - https://fontawesome.com License - https://fontawesome.com/license (Commercial License) Copyright 2022 Fonticons, Inc. --><path d="M355.1 106.7c3.609 3.5 8.233 5.224 12.89 5.224c4.688 0 9.392-1.739 13.08-5.317l21.81-21.82C406.2 81.19 408 76.63 408 71.89c0-4.734-1.828-9.299-5.344-13.03l-21.81-21.82c-7.094-6.658-18.41-6.846-25.88 .1875l-21.81 21.82C329.8 62.59 328 67.16 328 71.89c0 4.736 1.828 9.301 5.344 13.04L355.1 106.7zM344.7 70.17l21.44-21.44c1.125-1.062 2.875-.875 3.625-.1875l21.44 21.44C391.7 70.55 392 71.25 392 71.89s-.3125 1.346-.6562 1.721l-21.53 21.54c-1.031 1.002-2.562 1.002-3.594 .0313l-21.38-21.38C344.3 73.24 344 72.53 344 71.89S344.3 70.55 344.7 70.17zM424 199.9h-2.75c-30.86 0-61.08 12.52-82.91 34.35C319.5 253.1 293.4 263.9 266.8 263.9H197.1C223.3 247.4 240 219.5 240 187.9c0-50.75-43.06-92.02-96-92.02c-30.39 0-58.34 13.36-76.69 36.65C64.58 136 65.17 141.1 68.64 143.8c3.5 2.75 8.5 2.172 11.23-1.328C95.17 123 118.5 111.9 144 111.9c44.11 0 80 34.1 80 76.02C224 229.8 188.1 263.9 144 263.9c-4.422 0-8 3.58-8 8.002c0 4.424 3.578 8.002 8 8.002H160c62.8 0 112 40.42 112 92.03c0 50.75-51.78 92.02-115.4 92.02c-60.89 0-115.6-45.84-124.7-104.4c-.6719-4.361-4.75-7.252-9.125-6.689c-4.375 .6719-7.359 4.768-6.688 9.127C26.3 428.2 88 480 156.6 480C229 480 288 431.5 288 371.1c0-39.56-24.2-73.22-60.82-92.03h39.57c30.86 0 61.08-12.52 82.91-34.35c18.84-18.85 44.94-29.66 71.59-29.66H424c30.88 0 55.1 25.07 55.1 55.95L480 375.1c0 30.88-25.12 56.02-56 56.02h-24.45c-21.34 0-40.53-11.86-50.08-30.96l-14.31-28.63c-1.984-3.955-6.766-5.564-10.73-3.58c-3.953 1.984-5.547 6.783-3.578 10.74l14.31 28.63c12.28 24.55 36.95 39.81 64.39 39.81H424c39.7 0 72-32.31 72-72.02V271.9C496 232.2 463.7 199.9 424 199.9zM285.1 135.4l39.67 15.43c15.55 6.049 31.81 9.033 48.08 9.033c23.53 0 47.05-6.268 68.27-18.64l10.91-6.361c3.812-2.221 5.109-7.127 2.875-10.94c-2.234-3.828-7.172-5.156-10.94-2.875l-10.91 6.361c-32.11 18.71-68.45 21.72-102.5 8.518L290.9 120.5c-4.109-1.656-8.75 .4375-10.34 4.562C278.9 129.1 280.1 133.8 285.1 135.4z"/></svg>