<svg xmlns="http://www.w3.org/2000/svg" viewBox="0 0 448 512"><!--! Font Awesome Pro 6.0.0-beta3 by @fontawesome - https://fontawesome.com License - https://fontawesome.com/license (Commercial License) Copyright 2021 Fonticons, Inc. --><path d="M448 472c0 4.422-3.578 8-8 8H288c-4.422 0-8-3.578-8-8v-31.19c0-3.531 2.312-6.641 5.688-7.656C373.2 406.7 432 331.1 432 245.3C432 136.5 338.7 48 224 48S16 136.5 16 245.3c0 85.89 58.8 161.4 146.3 187.9C165.7 434.2 168 437.3 168 440.8V472C168 476.4 164.4 480 160 480H8C3.578 480 0 476.4 0 472s3.578-8 8-8h144v-17.33C60.83 416.6 0 336.4 0 245.3c0-117.6 100.5-213.2 224-213.2s224 95.65 224 213.2c0 91.13-60.83 171.4-152 201.4V464h144C444.4 464 448 467.6 448 472z"/></svg>