<svg xmlns="http://www.w3.org/2000/svg" viewBox="0 0 448 512"><!--! Font Awesome Pro 6.0.0-beta3 by @fontawesome - https://fontawesome.com License - https://fontawesome.com/license (Commercial License) Copyright 2021 Fonticons, Inc. --><path d="M448 283.3c0-57.56-34.5-112.1-92.28-145.1c-.5703-.3379-49.03-29.99-78.04-90.54c-2.42-5.734-4.994-11.83-7.539-17.86c-2.734-7.361-5.514-14.69-7.516-22.83c-.7187-2.906-3-5.172-5.906-5.875c-2.938-.7031-6 .2969-7.938 2.562l-24.4 28.36L223.5 31.03L199.2 2.791c-1.969-2.281-5-3.281-7.938-2.562C188.4 .9316 186.1 3.197 185.4 6.104C183.4 14.07 180.7 21.2 178.1 28.4C175.2 35.15 172.3 41.99 169.7 48.37C141 107.5 94.64 135.9 92.28 137.3C34.5 171.2 0 225.8 0 283.3c0 78.38 62.33 145.1 149 170l-20.35 47.48c-1.75 4.062 .125 8.766 4.188 10.52C133.9 511.8 134.9 512 136 512c3.094 0 6.062-1.812 7.344-4.844l21.34-49.79C181.1 461 198.3 463.2 216 463.7V504C216 508.4 219.6 512 224 512s8-3.578 8-8v-40.33c17.71-.5078 34.88-2.658 51.32-6.311l21.34 49.79C305.9 510.2 308.9 512 312 512c1.062 0 2.125-.2031 3.156-.6406c4.062-1.75 5.938-6.453 4.188-10.52l-20.35-47.48C385.7 428.4 448 361.7 448 283.3zM16 283.3c0-51.81 31.53-101.2 84.34-132.2C101.9 150.3 119.6 139.6 140.2 118.4C83.32 254.5 77.75 275.3 77.75 317.1c0 53.35 22.98 82.87 57.17 113.9C64.74 405.4 16 348.9 16 283.3zM224 448c-18.4 0-36.15-2.088-53.15-5.652c-.127-.123-.0879-.3242-.2246-.4395c-50.5-43.08-76.88-68.16-76.88-123.9c0-45.75 7.078-65.28 89.04-259.6c3.75-7.457 7.02-15.57 10.12-23.98c1.381-3.271 2.662-6.316 4.084-9.68l18.67 21.69C180.9 297.7 178.1 319.4 191.2 370.9c8.508 33.41 23.46 56.34 48.67 76.44C234.6 447.7 229.3 448 224 448zM277.4 441.9c-.1367 .1152-.0977 .3164-.2246 .4395c-4.701 .9844-9.416 1.932-14.24 2.658l-2.441-1.646c-29.47-19.92-45.06-42.04-53.81-76.37C194.3 318.4 197.1 297 231.8 47.11l19.25-22.35c1.416 3.354 2.695 6.389 4.072 9.652c3.109 8.43 6.387 16.56 10.14 24.03c81.95 194.3 89.03 213.8 89.03 259.5C354.3 373.8 327.9 398.8 277.4 441.9zM313.1 431.9c34.19-31.05 57.17-60.57 57.17-113.9c0-42.7-5.574-63.48-62.46-199.6c20.63 21.2 38.36 31.87 39.87 32.75C400.5 182.1 432 231.5 432 283.3C432 348.9 383.3 405.4 313.1 431.9z"/></svg>