<svg xmlns="http://www.w3.org/2000/svg" viewBox="0 0 384 512"><!--! Font Awesome Pro 6.0.0-beta3 by @fontawesome - https://fontawesome.com License - https://fontawesome.com/license (Commercial License) Copyright 2021 Fonticons, Inc. --><path d="M287.1 153.9L287.1 112c0-13.23-10.74-24-23.98-24h-34.6C238.4 78.65 244 66 244 52C244 23.28 220.7 0 191.1 0S140 23.28 140 52c0 14 5.598 26.65 14.6 36H120c-13.23 0-24.01 10.77-24.01 24l.0016 41.94C38.66 187.2 0 248.1 0 320c0 106 85.95 192 191.1 192S384 426 384 320C384 248.1 345.3 187.2 287.1 153.9zM192 16c19.85 0 36 16.15 36 36S211.9 88 192 88c-19.85 0-36-16.15-36-36S172.2 16 192 16zM112 112c0-4.406 3.594-8 8-8h144c4.406 0 8 3.594 8 8v32h-160V112zM119.1 160h145.8c38.77 17.74 69.91 49.17 87.47 88H31.64C49.2 209.2 80.34 177.7 119.1 160zM192 496c-71.38 0-132.8-42.79-160.4-104h320.9C324.8 453.2 263.4 496 192 496zM358.7 376H25.29C19.36 358.4 16 339.6 16 320c0-19.63 3.51-38.37 9.475-56h333.1C364.5 281.6 368 300.4 368 320C368 339.6 364.6 358.4 358.7 376z"/></svg>