<svg xmlns="http://www.w3.org/2000/svg" viewBox="0 0 512 512"><!--! Font Awesome Pro 6.1.1 by @fontawesome - https://fontawesome.com License - https://fontawesome.com/license (Commercial License) Copyright 2022 Fonticons, Inc. --><path d="M32 64C32 59.58 35.58 56 40 56H472C476.4 56 480 59.58 480 64C480 68.42 476.4 72 472 72H40C35.58 72 32 68.42 32 64zM224 192C224 187.6 227.6 184 232 184H472C476.4 184 480 187.6 480 192C480 196.4 476.4 200 472 200H232C227.6 200 224 196.4 224 192zM472 312C476.4 312 480 315.6 480 320C480 324.4 476.4 328 472 328H232C227.6 328 224 324.4 224 320C224 315.6 227.6 312 232 312H472zM32 448C32 443.6 35.58 440 40 440H472C476.4 440 480 443.6 480 448C480 452.4 476.4 456 472 456H40C35.58 456 32 452.4 32 448zM133.8 165.6C144.3 156.1 159.1 164.4 159.1 177.9V334.1C159.1 347.6 144.3 355 133.8 346.4L38.1 268.4C31.23 261.1 31.23 250 38.1 243.6L133.8 165.6zM49.17 256L143.1 334.1V177.9L49.17 256z"/></svg>