<svg xmlns="http://www.w3.org/2000/svg" viewBox="0 0 448 512"><!--! Font Awesome Pro 6.0.0-beta3 by @fontawesome - https://fontawesome.com License - https://fontawesome.com/license (Commercial License) Copyright 2021 Fonticons, Inc. --><path d="M224 272c-17.66 0-32 14.36-32 32v24c0 4.422 3.594 8 8 8h48c4.406 0 8-3.578 8-8V304C256 286.4 241.7 272 224 272zM240 320h-32V304C208 295.2 215.2 288 224 288s16 7.172 16 16V320zM160 192C155.6 192 152 195.6 152 200v64C152 268.4 155.6 272 160 272c4.42 0 8-3.582 8-8v-64C168 195.6 164.4 192 160 192zM288 192c-4.418 0-8 3.582-8 8v64c0 4.418 3.582 8 8 8c4.42 0 8-3.582 8-8v-64C296 195.6 292.4 192 288 192zM384 31.1H64c-35.35 0-64 28.65-64 63.1v320c0 35.35 28.65 64 64 64h320c35.35 0 64-28.65 64-64v-320C448 60.65 419.3 31.1 384 31.1zM432 416c0 26.47-21.53 48-48 48H64c-26.47 0-48-21.53-48-48V96c0-26.47 21.53-48 48-48h320c26.47 0 48 21.53 48 48V416zM319.3 128l-.0371 16c.7715 0 1.609 .3447 2.088 .8018C351.4 174.5 368 213.1 368 256c0 42.04-16.58 81.54-46.54 111.1c-.6328 .6074-1.545 .9434-2.566 .9434H129.1c-1.021 0-1.934-.3359-2.418-.7988C96.58 337.5 80 298 80 256c0-42.04 16.58-81.54 46.54-111.1c.625-.5977 1.424-.9434 2.551-.9434l190.1-.0029L319.3 128H128.7c-4.975 0-9.719 1.988-13.28 5.404C83.79 164.6 64 207.9 64 255.1c0 48.1 19.79 91.4 51.46 122.6c3.646 3.5 8.541 5.4 13.65 5.4h189.8c5.104 0 10-1.9 13.65-5.4C364.2 347.4 384 304.1 384 255.1c0-48.1-19.79-91.4-51.46-122.6C328.1 129.1 324.2 128 319.3 128z"/></svg>