<svg xmlns="http://www.w3.org/2000/svg" viewBox="0 0 576 512"><!--! Font Awesome Pro 6.0.0-beta3 by @fontawesome - https://fontawesome.com License - https://fontawesome.com/license (Commercial License) Copyright 2021 Fonticons, Inc. --><path d="M159.1 255.2c1.493 1.493 3.487 2.312 5.568 2.312c5.864 0 8.174-4.75 8.174-7.982c0-1.953-.7233-3.938-2.319-5.533L128.1 202.4l105.4-105.4l50.46 50.46c1.543 1.543 3.565 2.314 5.588 2.314s4.045-.7715 5.588-2.314s2.451-3.702 2.451-5.725s-.7715-4.045-2.314-5.588L174.1 14.06C164.7 4.688 152.4 0 140.1 0C127.8 0 115.5 4.688 106.2 14.06L46.06 74.16C36.69 83.53 32 95.82 32 108.1s4.688 24.58 14.06 33.97L159.1 255.2zM48.01 108.1c0-8.202 3.12-16.4 9.359-22.65l60.09-60.1C123.5 19.33 131.6 16 140.1 16c8.562 0 16.61 3.33 22.66 9.375l60.26 60.27L117.7 191l-60.28-60.27C51.13 124.5 48.01 116.3 48.01 108.1zM512.1 352.9l-73.07-73.08c-1.543-1.543-3.565-2.314-5.588-2.314s-4.045 .7715-5.588 2.314c-1.542 1.543-2.452 3.704-2.452 5.726s.771 4.044 2.313 5.587l73.08 73.09l26.34 131.7l-131.7-26.35l-64.32-64.31c-1.597-1.596-3.584-2.322-5.536-2.322c-2.574 0-7.933 1.835-7.933 8.191c0 2.07 .7776 4.067 2.262 5.551l64.21 64.21c2.232 2.23 5.074 3.752 8.17 4.371l131.7 26.35C525.1 511.9 527 512 528.1 512c8.741 0 15.95-7.207 15.95-15.95c0-1.048-.1023-2.114-.3193-3.197l-26.36-131.7C516.7 358 515.2 355.2 512.1 352.9zM514.3 .0005c-15.82 0-31.64 6.024-43.68 18.06L199.3 289.4C193.4 288.4 187.5 287.1 181.7 287.1c-57.76 0-105.5 46.47-105.5 104.4c0 6.57 .5486 9.324 .5486 12.35c0 22.21-20.03 31.82-38.44 31.82C17.16 436.6 0 453.5 0 474.3C0 495.1 17.16 512 38.23 512h50.75c157.2 0 199-60.66 199-119.5c0-5.286-.404-10.61-1.225-15.92l271.1-271.2C569.6 93.72 576 78.22 576 61.72C576 27.53 548.3 .0005 514.3 .0005zM271.8 392.6c0 77.21-81.17 103.4-182.8 103.4H38.23C25.97 495.1 16 486.2 16 474.3c0-11.97 9.969-21.72 22.23-21.72c35.63 0 54.43-23.51 54.43-47.88c0-4.424-.5447-5.915-.5447-12.26c0-48.47 39.71-88.43 89.99-88.43c5.328 0 10.79 .6797 16.25 1.67l71.99 71.99C271.2 382.7 271.8 387.6 271.8 392.6zM278 362.7L213.3 297.1l68.69-68.69l64.7 64.71L278 362.7zM559.1 61.73c0 11.72-4.461 23.43-13.38 32.35l-188.6 188.6l-64.7-64.71l188.6-188.6c8.914-8.923 20.62-13.38 32.34-13.38C539.1 15.99 559.1 36.05 559.1 61.73z"/></svg>