<svg xmlns="http://www.w3.org/2000/svg" viewBox="0 0 512 512"><!--! Font Awesome Pro 6.1.1 by @fontawesome - https://fontawesome.com License - https://fontawesome.com/license (Commercial License) Copyright 2022 Fonticons, Inc. --><path d="M64 295.1C64 273.9 81.91 255.1 104 255.1C126.1 255.1 144 273.9 144 295.1C144 318.1 126.1 336 104 336C81.91 336 64 318.1 64 295.1zM104 319.1C117.3 319.1 128 309.3 128 295.1C128 282.7 117.3 271.1 104 271.1C90.75 271.1 80 282.7 80 295.1C80 309.3 90.75 319.1 104 319.1zM176 167.1C176 190.1 158.1 207.1 136 207.1C113.9 207.1 96 190.1 96 167.1C96 145.9 113.9 127.1 136 127.1C158.1 127.1 176 145.9 176 167.1zM136 143.1C122.7 143.1 112 154.7 112 167.1C112 181.3 122.7 191.1 136 191.1C149.3 191.1 160 181.3 160 167.1C160 154.7 149.3 143.1 136 143.1zM224 103.1C224 81.91 241.9 63.1 264 63.1C286.1 63.1 304 81.91 304 103.1C304 126.1 286.1 143.1 264 143.1C241.9 143.1 224 126.1 224 103.1zM264 127.1C277.3 127.1 288 117.3 288 103.1C288 90.74 277.3 79.1 264 79.1C250.7 79.1 240 90.74 240 103.1C240 117.3 250.7 127.1 264 127.1zM432 167.1C432 190.1 414.1 207.1 392 207.1C369.9 207.1 352 190.1 352 167.1C352 145.9 369.9 127.1 392 127.1C414.1 127.1 432 145.9 432 167.1zM392 143.1C378.7 143.1 368 154.7 368 167.1C368 181.3 378.7 191.1 392 191.1C405.3 191.1 416 181.3 416 167.1C416 154.7 405.3 143.1 392 143.1zM441.9 319.1H344C317.5 319.1 296 341.5 296 368C296 371.4 296.4 374.7 297 377.9C299.2 388.1 303.5 397.1 307.9 407.8C313.9 421.6 320 435.3 320 449.8C320 481.7 298.4 510.5 266.6 511.8C263.1 511.9 259.5 512 256 512C114.6 512 0 397.4 0 256C0 114.6 114.6 0 256 0C397.4 0 512 114.6 512 256C512 256.9 511.1 257.8 511.1 258.7C511.6 295.2 478.4 320 441.9 320V319.1zM495.1 258.5C495.1 257.7 496 256.8 496 255.1C496 123.5 388.5 15.1 256 15.1C123.5 15.1 16 123.5 16 255.1C16 388.5 123.5 496 256 496C259.3 496 262.6 495.9 265.9 495.8C287.1 494.9 304 475.4 304 449.8C304 440.1 300.8 431.8 295.8 420C295 418.3 294.2 416.6 293.4 414.7C289.1 404.9 283.9 393.2 281.4 381.2C280.5 376.1 280 372.5 280 368C280 332.7 308.7 303.1 344 303.1H441.9C472.3 303.1 495.7 283.8 495.1 258.5V258.5z"/></svg>