<svg xmlns="http://www.w3.org/2000/svg" viewBox="0 0 576 512"><!--! Font Awesome Pro 6.0.0-beta3 by @fontawesome - https://fontawesome.com License - https://fontawesome.com/license (Commercial License) Copyright 2021 Fonticons, Inc. --><path d="M569.7 117.8l-43.16-67.34c-5.781-8.998-14.69-15.2-25.13-17.48c-10.44-2.344-21.13-.375-30.13 5.391l-25.67 16.45C400.2 19.25 344.5 0 287.8 0C240.5 0 192.6 13.09 149.8 40.51C52.96 102.6 12 218.1 41.22 324.3l-22.81 14.62c-18.56 11.89-24 36.68-12.1 55.26l43.16 67.34c5.781 8.998 14.69 15.2 25.13 17.48c2.875 .6406 5.75 .9375 8.627 .9375c7.562 0 14.97-2.156 21.5-6.328l25.67-16.45C175.8 492.8 231.5 512 288.2 512c47.3 0 95.15-13.09 137.9-40.51c96.87-62.08 137.8-178.5 108.6-283.8l22.81-14.62C576.2 161.2 581.6 136.4 569.7 117.8zM96.1 460.2c-11.12 7.109-26 3.891-33.16-7.25l-43.16-67.33c-7.156-11.16-3.906-26.03 7.25-33.17l19.36-12.41c6.486 18.6 14.96 36.8 26.06 54.12c12.79 19.95 27.99 37.39 44.82 52.47L96.1 460.2zM522.5 307.3c-13.7 62.63-50.97 116.2-104.9 150.8c-38.76 24.85-83.46 37.98-129.3 37.98c-82.31 0-157.9-41.31-202.3-110.5c-34.6-53.97-46.11-118.2-32.41-180.8c13.7-62.63 50.97-116.2 104.9-150.8c38.76-24.85 83.46-37.98 129.3-37.98c82.31 0 157.9 41.31 202.3 110.5C524.6 180.4 536.2 244.7 522.5 307.3zM548.1 159.6L529.6 171.1c-6.486-18.61-14.96-36.8-26.07-54.12c-12.79-19.95-27.99-37.39-44.82-52.47l21.17-13.57c11.12-7.125 25.97-3.875 33.16 7.25l43.16 67.33C563.4 137.6 560.1 152.4 548.1 159.6zM256 320H203.3l-24-24l6.344-6.344c3.125-3.125 3.125-8.188 0-11.31s-8.188-3.125-11.31 0l-24 24c-3.125 3.125-3.125 8.188 0 11.31C151.9 315.2 153.9 316 156 316s4.094-.7813 5.656-2.344L168 307.3l24 24V384c0 35.3 28.72 64 64 64s64-28.7 64-64S291.3 320 256 320zM256 432c-26.47 0-48-21.53-48-48v-48H256c26.47 0 48 21.53 48 48S282.5 432 256 432zM444.4 178.3l-106 106c-3.125 3.125-3.125 8.188 0 11.31C354 311.4 374.8 320 397 320c.0313 0 .0313 0 .0313 0c22.16 0 43-8.641 58.66-24.31c32.34-32.36 32.34-85 0-117.3C452.6 175.2 447.5 175.2 444.4 178.3zM444.4 284.4C431.7 297 414.9 304 397 304c-15.22 0-29.62-5.031-41.38-14.3l94.03-94.06C458.1 207.4 464 221.8 464 237C464 254.9 457 271.7 444.4 284.4zM208 160h160c4.406 0 8-3.578 8-8C376 103.5 336.5 64 288 64S200 103.5 200 152C200 156.4 203.6 160 208 160zM288 80c37 0 67.56 28.05 71.56 64H216.4C220.4 108 251 80 288 80zM256 240C256 248.8 263.2 256 272 256S288 248.8 288 240C288 231.2 280.8 224 272 224S256 231.2 256 240zM368 384c-8.836 0-16 7.162-16 16c0 8.836 7.164 16 16 16s16-7.164 16-16C384 391.2 376.8 384 368 384zM165.7 186.3c-3.125-3.125-8.188-3.125-11.31 0l-32 32c-3.125 3.125-3.125 8.188 0 11.31C123.9 231.2 125.9 232 128 232s4.094-.7813 5.656-2.344l32-32C168.8 194.5 168.8 189.5 165.7 186.3z"/></svg>