<svg xmlns="http://www.w3.org/2000/svg" viewBox="0 0 512 512"><!--! Font Awesome Pro 6.1.1 by @fontawesome - https://fontawesome.com License - https://fontawesome.com/license (Commercial License) Copyright 2022 Fonticons, Inc. --><path d="M224 80H96c-4.416 0-8 3.584-8 8S91.58 96 96 96h128c4.416 0 8-3.584 8-8S228.4 80 224 80zM224 160H96C91.58 160 88 163.6 88 168S91.58 176 96 176h128c4.416 0 8-3.584 8-8S228.4 160 224 160zM416 160h-128c-4.416 0-8 3.584-8 8S283.6 176 288 176h128c4.416 0 8-3.584 8-8S420.4 160 416 160zM432 0h-352C35.81 0 0 35.81 0 80v352C0 476.2 35.81 512 80 512h352c44.19 0 80-35.81 80-80v-352C512 35.81 476.2 0 432 0zM400 472c0 13.25-10.75 24-24 24h-48c-13.25 0-24-10.75-24-24v-208c0-13.25 10.75-24 24-24h48c13.25 0 24 10.75 24 24V472zM496 432c0 35.36-28.64 64-64 64h-24c5.023-6.688 8-15.01 8-24v-208C416 241.9 398.1 224 376 224h-48C305.9 224 288 241.9 288 264v208c0 8.992 2.977 17.31 8 24H80c-35.36 0-64-28.64-64-64v-128H32c22.08 0 40 17.92 40 40v48C72 422.9 97.09 448 128 448s56-25.09 56-56V352H192c26.5 0 48-21.5 48-48v-32C240 245.5 218.5 224 192 224H160C133.5 224 112 245.5 112 272v32C112 330.5 133.5 352 160 352h8v40c0 22.08-17.92 40-40 40s-40-17.92-40-40v-48C88 313.1 62.91 288 32 288H16V80c0-35.36 28.64-64 64-64h352c35.36 0 64 28.64 64 64V432zM160 336c-17.66 0-32-14.34-32-32v-32c0-17.66 14.34-32 32-32h32c17.66 0 32 14.34 32 32v32c0 17.66-14.34 32-32 32H160zM416 80h-128c-4.416 0-8 3.584-8 8S283.6 96 288 96h128c4.416 0 8-3.584 8-8S420.4 80 416 80z"/></svg>