<svg xmlns="http://www.w3.org/2000/svg" viewBox="0 0 640 512"><!--! Font Awesome Pro 6.0.0-beta3 by @fontawesome - https://fontawesome.com License - https://fontawesome.com/license (Commercial License) Copyright 2021 Fonticons, Inc. --><path d="M128 144C101.5 144 80 165.5 80 192S101.5 240 128 240S176 218.5 176 192S154.5 144 128 144zM128 224C110.4 224 96 209.6 96 192s14.36-32 32-32s32 14.36 32 32S145.6 224 128 224zM592.1 64c-4.559 0-9.221 .6582-13.88 2.057C493.1 91.32 406.1 103.1 320 103.1c-86.99 0-173.1-12.63-258.2-37.89C57.14 64.66 52.47 64 47.91 64C22.33 63.1 0 84.74 0 112v319.9C0 459.3 22.33 480 47.91 480c4.559 0 9.221-.6582 13.88-2.057C146 452.7 233 440 320 440c86.99 0 173.1 12.63 258.2 37.9C582.9 479.3 587.5 480 592.1 480C617.7 480 640 459.3 640 431.1V112C640 84.74 617.7 64 592.1 64zM111.7 448.4L217.6 307.2c3.031-4.094 9.75-4.094 12.78 0l39.6 52.8l-52.83 70.44C181.7 434.5 146.5 440.3 111.7 448.4zM320 424c-27.11 0-54.11 1.613-81.04 4.008l138.6-184.8c3.031-4.094 9.75-4.094 12.78 0l157.8 210.4C473.6 434.4 397.1 424 320 424zM624 431.1C624 449.6 609.7 464 592.1 464c-3.104 0-6.229-.4668-9.289-1.383c-3.217-.9648-6.506-1.607-9.73-2.537L403.2 233.6c-9.125-12.22-29.28-12.22-38.41 0l-84.8 113.1l-36.79-49.06c-9.125-12.22-29.28-12.22-38.41 0l-117.1 157.3c-9.873 2.605-19.84 4.789-29.63 7.727C54.14 463.5 51.02 464 47.91 464C30.32 464 16 449.6 16 431.1V112c0-8.682 3.395-16.79 9.557-22.82C31.54 83.36 39.69 80 47.91 80c3.107 0 6.232 .4668 9.291 1.383C142.5 106.1 230.9 119.1 320 119.1c89.07 0 177.5-12.98 262.8-38.57C585.9 80.46 588.1 80 592.1 80C609.7 80 624 94.37 624 112V431.1z"/></svg>