<svg xmlns="http://www.w3.org/2000/svg" viewBox="0 0 512 512"><!--! Font Awesome Pro 6.0.0-beta3 by @fontawesome - https://fontawesome.com License - https://fontawesome.com/license (Commercial License) Copyright 2021 Fonticons, Inc. --><path d="M156.2 498C84.55 498 32 439.6 32 373.9c0-31.79 12.11-63.59 36.34-87.79l243.7-243.4C331.2 23.59 356.4 14 381.6 14C437.9 14 480 59.75 480 112.3c0 25.18-9.596 50.36-28.79 69.53l-211.9 211.7C225.2 407.6 206.6 414.7 187.1 414.7c-41.85 0-72.57-34.12-72.57-72.51c0-18.57 7.076-37.14 21.23-51.28l154-153.9c1.563-1.561 3.61-2.342 5.658-2.342c4.55 0 8.002 3.714 8.002 7.993c0 2.045-.7815 4.09-2.344 5.651L147.1 302.2c-11.03 11.02-16.55 25.5-16.55 39.97c0 30.09 24.12 56.52 56.57 56.52c14.5 0 28.1-5.515 40.03-16.53l211.9-211.7c15.57-15.55 24.15-36.23 24.15-58.23c0-45.75-37.08-82.3-82.44-82.3c-21.11 0-42.23 8.024-58.3 24.07L79.65 297.4c-21.11 21.09-31.66 48.79-31.66 76.49c0 57.72 46.31 108.1 108.2 108.1c27.73 0 55.47-10.54 76.6-31.6l185.8-185.6c1.563-1.561 3.61-2.342 5.658-2.342c4.55 0 8.002 3.714 8.002 7.993c0 2.045-.7814 4.09-2.344 5.651l-185.8 185.6C219.9 485.9 188.1 498 156.2 498z"/></svg>