<svg xmlns="http://www.w3.org/2000/svg" viewBox="0 0 448 512"><!--! Font Awesome Pro 6.1.1 by @fontawesome - https://fontawesome.com License - https://fontawesome.com/license (Commercial License) Copyright 2022 Fonticons, Inc. --><path d="M144 128c26.5 0 48-21.5 48-48c0-26.5-21.5-48-48-48S96 53.5 96 80C96 106.5 117.5 128 144 128zM144 48c17.64 0 32 14.36 32 32.01c0 17.65-14.36 32-32 32s-32-14.36-32-32C112 62.36 126.4 48 144 48zM96 192c0-26.5-21.5-48-48-48S0 165.5 0 192c0 26.5 21.5 48 48 48S96 218.5 96 192zM16 192c0-17.65 14.36-32.01 32-32.01s32 14.36 32 32.01s-14.36 32.01-32 32.01S16 209.7 16 192zM304 128c26.5 0 48-21.5 48-48c0-26.5-21.5-48-48-48S256 53.5 256 80C256 106.5 277.5 128 304 128zM304 48c17.64 0 32 14.36 32 32.01c0 17.65-14.36 32-32 32s-32-14.36-32-32C272 62.36 286.4 48 304 48zM400 144c-26.5 0-48 21.5-48 48c0 26.5 21.5 48 48 48S448 218.5 448 192C448 165.5 426.5 144 400 144zM400 224c-17.64 0-32-14.36-32-32.01s14.36-32.01 32-32.01s32 14.36 32 32.01S417.6 224 400 224zM367.2 300.8c-26.25-14.75-47.12-61.38-67.12-97.76C284.4 174.3 254.3 160 224 160S163.6 174.3 147.9 203C127.5 239.9 107.8 285.5 80.63 300.8C51.63 317.1 32 348.1 32 384c0 53.01 43 95.88 96 95.88C129.4 479.1 130.6 480 131.1 480C180.7 480 200.9 448 224 448S267.3 480 316 480C317.4 480 318.6 479.1 320 479.9c53 0 96-42.88 96-95.88C416 348.1 396.4 317.1 367.2 300.8zM319.4 463.9L315.9 464c-24.45 0-39.87-9.195-54.78-18.09C249.1 438.8 237.8 432 224 432c-13.83 0-25.12 6.734-37.08 13.87C172 454.8 156.6 464 132.1 464L128 463.9c-44.11 0-80-35.84-80-79.88c0-28.66 15.52-55.22 40.47-69.31c26.28-14.78 44.64-49.65 62.4-83.38c3.684-6.994 7.338-13.94 11.04-20.64C173.8 188.1 197 176 224 176c26.98 0 50.19 12.97 62.11 34.71c3.354 6.1 6.73 12.49 10.16 18.97c18.31 34.65 37.25 70.47 63.15 85.03C384.4 328.8 400 355.4 400 384C400 428.1 364.1 463.9 319.4 463.9z"/></svg>