<svg xmlns="http://www.w3.org/2000/svg" viewBox="0 0 576 512"><!--! Font Awesome Pro 6.0.0-beta3 by @fontawesome - https://fontawesome.com License - https://fontawesome.com/license (Commercial License) Copyright 2021 Fonticons, Inc. --><path d="M496 64C487.2 64 480 71.16 480 80S487.2 96 496 96S512 88.84 512 80S504.8 64 496 64zM575.9 82.2c0-9.922-3.719-19.36-10.47-26.61l-7.062-7.5c8.969-7.797 15.03-17.89 17.31-29.17c.9375-4.625-.25-9.406-3.281-13.09C569.4 2.125 564.9 0 560.2 0h-124.4C366.8 0 308.2 57.83 304 128h-7.967c-88.8-1.949-107.2-85.1-107.9-89.63C187.4 35.02 184.7 32.45 181.3 32.03C177.1 31.75 174.6 33.44 173.1 36.52c-1.193 2.504-20.54 44.47-20.79 92.33C127.2 130.9 104.9 142.3 88.98 160H72C32.31 160 0 192.3 0 232v80C0 316.4 3.594 320 8 320S16 316.4 16 312v-80c0-30.88 25.12-56 56-56h5.312C69.07 190.2 63.1 206.4 63.1 224c0 29.42 13.53 55.43 34.37 73.04L87.25 318.8C67.56 357.2 64 364.2 64 380.9c0 4.906 .9062 12.38 2.094 16.98l23.97 95.95C92.63 504 102.9 512 113.3 512H176c7.438 0 14.34-3.359 18.91-9.234c4.562-5.859 6.156-13.36 4.219-21.05l-30.53-97.03l27.69-55.38L312 358.3V488c0 13.23 10.78 24 24 24h56c13.22 0 24-10.77 24-24v-160.9c19.51-17.57 31.1-42.82 31.1-71.14c0-.0352 0 .0352 0 0L448 151.9l5.688 2.031l16.88 33.61c6.797 13.51 20.69 21.52 35.07 21.52c4.801 0 9.648-.8906 14.31-2.766l31.53-12.61c13.75-5.484 24.5-21.41 24.5-36.23L575.9 82.2zM545.5 178.9l-31.57 12.62c-11.07 4.461-23.87-.6836-29.1-11.09l-16.88-33.61c-3.328-6.625-18.72-15.31-29.2-7.93C434.5 141.9 432 146.7 432 151.9c0 0-.0078 104.3 0 104.5c-.1172 22.5-9.59 43.37-26.71 58.79C401.9 318.2 400 322.6 400 327.1V488c0 4.41-3.59 8-8 8H336c-4.414 0-8-3.59-8-8v-129.8c0-7.344-4.996-13.74-12.12-15.52L200.2 313.8c-6.375-1.594-14.45 .8672-18.2 8.367l-27.69 55.38c-1.852 3.711-2.195 8-.9492 11.96l30.28 96.14C185.2 491.8 180.7 496 176 496H113.3c-3.148 0-6.992-3.004-7.758-6.035l-24-96.07C80.74 390.6 80 384.5 80 380.9c0-12.5 1.816-16.4 21.5-54.82l11.12-21.77c3.379-6.625 1.75-14.7-3.926-19.5C90.46 269.4 80 247.2 80 224c0-41.71 32.21-75.68 72.99-79.29c1.264 14.52 3.609 29.57 13.2 48.04c19.56 37.59 58.47 61.52 115.7 71.11c.4375 .0781 .875 .1094 1.312 .1094c3.844 0 7.219-2.766 7.875-6.672c.75-4.359-2.188-8.484-6.562-9.219C232.5 239.4 197.5 218.3 180.4 185.4C158.6 143.5 170.5 91.44 179.8 63.44C192.4 93.08 224.4 142.6 296 143.1L320 144V128.8C323.8 66.58 375.7 16 435.8 16h124.2c-1.602 7.621-5.773 14.54-12.07 20.02c-7.695 6.688-6.594 17.27-1.152 23.05c7.094 7.531 13.18 12.34 13.18 23.16l.0625 75.27C559.1 165.8 553.2 175.8 545.5 178.9z"/></svg>