<svg xmlns="http://www.w3.org/2000/svg" viewBox="0 0 512 512"><!--! Font Awesome Pro 6.1.1 by @fontawesome - https://fontawesome.com License - https://fontawesome.com/license (Commercial License) Copyright 2022 Fonticons, Inc. --><path d="M132.7 379.2C128.7 375.2 127.1 369.4 128.5 363.1L143.5 303.8C144.9 298.2 147.8 293.1 151.9 288.1L307.4 133.5C323 117.9 348.3 117.9 363.1 133.5L378.3 147.9C393.1 163.5 393.1 188.8 378.3 204.5L222.9 359.9C218.8 364 213.6 366.9 208 368.3L204.1 352.8C206.9 352.1 209.5 350.7 211.6 348.6L330.4 229.7L282.1 181.4L163.2 300.3C161.2 302.3 159.7 304.9 159 307.7L144 367.9L204.1 352.8L208 368.3L147.9 383.4C142.4 384.7 136.7 383.1 132.7 379.2L132.7 379.2zM367 159.2L352.6 144.8C343.3 135.4 328.1 135.4 318.7 144.8L293.4 170.1L341.7 218.4L367 193.1C376.4 183.8 376.4 168.6 367 159.2V159.2zM512 256C512 397.4 397.4 512 256 512C114.6 512 0 397.4 0 256C0 114.6 114.6 0 256 0C397.4 0 512 114.6 512 256zM256 16C123.5 16 16 123.5 16 256C16 388.5 123.5 496 256 496C388.5 496 496 388.5 496 256C496 123.5 388.5 16 256 16z"/></svg>