<svg xmlns="http://www.w3.org/2000/svg" viewBox="0 0 512 512"><!--! Font Awesome Pro 6.0.0-beta3 by @fontawesome - https://fontawesome.com License - https://fontawesome.com/license (Commercial License) Copyright 2021 Fonticons, Inc. --><path d="M496 73.72l-58.23-58.3c-20.59-20.62-56.73-20.48-77.05-.1407L283.8 88.51L138 134.4C115.8 140.7 98.11 157.6 90.63 179.1L.2983 501.8c-.7812 2.8 0 5.788 2.047 7.837C3.861 511.2 5.908 512 8.001 512c.7187 0 1.453-.0937 2.172-.297l321.8-90.55c22.02-7.383 38.92-25.14 45.16-47.24l45.86-146l72.1-76.9C506.3 140.7 512 126.1 512 112.4S506.3 84.03 496 73.72zM361.8 369.3c-4.859 17.24-17.92 30.94-34.55 36.52l-292 82.14l139.3-139.5c9.35 7.012 20.83 11.32 33.38 11.32c30.87 0 55.1-25.15 55.1-56.06S238.9 247.7 208 247.7S152 272.9 152 303.8c0 12.57 4.303 24.06 11.31 33.42l-139.3 139.5l81.92-291.9C111.6 167.7 125.4 154.6 142.6 149.7c.0781-.0313-.0781 .0313 0 0l143.1-45.03l121.1 121.3L361.8 369.3zM167.1 303.9c0-22.09 17.94-40.02 39.1-40.02s39.1 17.93 39.1 40.02s-17.94 40.02-39.1 40.02S167.1 325.1 167.1 303.9zM484.6 139.8l-68.77 72.44L299.4 95.73l72.5-68.98c14.56-14.58 40.05-14.58 54.56 0l58.23 58.3C492 92.32 496 102 496 112.4C496 122.7 492 132.4 484.6 139.8z"/></svg>