<svg xmlns="http://www.w3.org/2000/svg" viewBox="0 0 512 512"><!--! Font Awesome Pro 6.0.0-beta3 by @fontawesome - https://fontawesome.com License - https://fontawesome.com/license (Commercial License) Copyright 2021 Fonticons, Inc. --><path d="M497.9 74.18l-60.12-60.12C428.5 4.685 416.1 0 403.8 0s-24.62 4.685-33.1 14.06l-60.22 60.24l-25.34-25.34c-15.59-15.59-40.97-15.59-56.56 0L90.34 186.3c-3.125 3.125-3.125 8.188 0 11.31s8.188 3.125 11.31 0l137.4-137.4c9.344-9.344 24.59-9.344 33.94 0l25.34 25.34L94.01 290c-52.49 52.49-85.61 121.4-93.86 195.2C-1.386 499.5 9.953 512 24.03 512c.8574 0 1.733-.0416 2.608-.1353c73.87-8.123 142.7-41.25 195.3-93.86l275.1-275.8C516.7 123.4 516.7 92.92 497.9 74.18zM210.7 406.7C160.8 456.6 94.81 488.3 24.04 496c-3.084 0-5.062-1.688-5.967-2.695c-.8965-.9961-2.35-3.133-2.02-6.244l.0742-.9043c7.963-69.64 39.62-135.3 89.19-184.8l204.3-204.4l105.4 105.4L210.7 406.7zM486.6 130.8l-60.25 60.22l-105.5-105.5l60.22-60.24C387.2 19.33 395.2 16 403.8 16c8.58 0 16.63 3.328 22.68 9.375l60.12 60.12c6.045 6.045 9.375 14.1 9.375 22.68C496 116.8 492.7 124.8 486.6 130.8z"/></svg>