<svg xmlns="http://www.w3.org/2000/svg" viewBox="0 0 512 512"><!--! Font Awesome Pro 6.0.0-beta3 by @fontawesome - https://fontawesome.com License - https://fontawesome.com/license (Commercial License) Copyright 2021 Fonticons, Inc. --><path d="M103.8 238.4c3.125 3.123 8.189 3.123 11.31 0c3.123-3.125 3.125-8.191 .002-11.31L20.6 132.6C14.48 126.4 14.48 116.5 20.59 110.3L110.3 20.62C113.3 17.65 117.2 16.02 121.4 16.02c4.207 0 8.164 1.639 11.13 4.605l45.76 45.76L122.4 122.4c-3.125 3.125-3.125 8.187 0 11.31C123.9 135.2 125.9 136 128 136s4.094-.7812 5.656-2.344L189.6 77.7l37.45 37.44c3.125 3.123 8.189 3.123 11.31 0c3.125-3.125 3.125-8.189 0-11.31L143.9 9.31c-6.203-6.195-14.34-9.289-22.46-9.289S105.2 3.115 99.01 9.31L9.29 99.01c-12.37 12.39-12.37 32.47 0 44.86L103.8 238.4zM408.2 273.6c-3.123-3.125-8.189-3.123-11.31 0c-3.125 3.123-3.123 8.189 0 11.31l37.47 37.47l-55.96 55.97c-3.125 3.125-3.125 8.187 0 11.31c1.562 1.562 3.594 2.344 5.656 2.344s4.094-.7812 5.656-2.344l55.96-55.97l45.76 45.76c6.125 6.133 6.125 16.11 .0078 22.24l-89.72 89.71c-2.963 2.967-6.906 4.599-11.11 4.599c-4.207 0-8.164-1.639-11.13-4.607l-94.53-94.53c-3.123-3.123-8.187-3.123-11.31 .002c-3.123 3.123-3.125 8.189 0 11.31l94.54 94.52C374.3 508.9 382.4 512 390.6 512c8.121 0 16.25-3.101 22.44-9.296l89.72-89.7c12.37-12.39 12.37-32.47 0-44.86L408.2 273.6zM497.9 59.32l-45.25-45.25C443.3 4.691 430.1 0 418.7 0s-24.59 4.691-33.98 14.07L26.26 372.5c-4.654 4.656-7.761 10.63-8.896 17.12l-17.04 97.47C-1.986 500.3 8.328 512 21.17 512c1.227 0 2.475-.1053 3.738-.3279l97.53-17.1c6.476-1.135 12.45-4.241 17.1-8.89L497.9 127.2C516.7 108.5 516.7 78.08 497.9 59.32zM128.2 474.4c-2.336 2.336-5.293 3.873-8.55 4.443l-98.5 17.19c-2.127 0-3.471-1.324-3.947-1.893c-.709-.8418-1.478-2.262-1.131-4.244l17.04-97.47c.5683-3.258 2.107-6.217 4.449-8.558l279.5-279.5l90.57 90.57L128.2 474.4zM486.6 115.9l-67.69 67.7l-90.57-90.57l67.67-67.66c6.062-6.056 14.11-9.392 22.67-9.392c8.56 0 16.61 3.336 22.67 9.388l45.25 45.25c6.047 6.047 9.377 14.09 9.377 22.65S492.7 109.9 486.6 115.9z"/></svg>