<svg xmlns="http://www.w3.org/2000/svg" viewBox="0 0 512 512"><!--! Font Awesome Pro 6.0.0-beta3 by @fontawesome - https://fontawesome.com License - https://fontawesome.com/license (Commercial License) Copyright 2021 Fonticons, Inc. --><path d="M361.4 138.5C354.3 131.5 345.1 128 335.9 128c-9.211 0-18.42 3.512-25.45 10.54L149.7 299.3C145.4 303.6 142.4 309 141.1 314.1c-4.211 18.78-12.91 59.62-12.91 59.62c-1.084 5.428 3.24 9.41 7.777 9.41c.498 0 .897 .0659 1.393-.0337c0 0 40.94-8.82 59.72-13.03c5.934-1.33 11.32-4.297 15.62-8.596l160.8-160.8c14.06-14.06 14.06-36.85 .0039-50.91L361.4 138.5zM201.4 351c-2.148 2.148-4.848 3.635-7.809 4.297c-12.16 2.73-33.61 7.35-47.09 10.24c2.9-13.54 7.51-34.95 10.23-47.1c.6641-2.959 2.148-5.658 4.297-7.807l125.2-125.2l40.37 40.37L201.4 351zM362.1 190.2l-24.29 24.29l-40.37-40.37l24.3-24.3C325.5 146.1 330.6 144 335.9 144c5.344 0 10.37 2.08 14.14 5.857l12.09 12.1C369.9 169.8 369.9 182.4 362.1 190.2zM256 0C114.6 0 0 114.6 0 255.1S114.6 512 255.1 512S512 397.4 512 256S397.4 0 256 0zM256 496c-132.3 0-240-107.7-240-240S123.7 16 256 16s240 107.7 240 240S388.3 496 256 496z"/></svg>