<svg xmlns="http://www.w3.org/2000/svg" viewBox="0 0 512 512"><!--! Font Awesome Pro 6.1.1 by @fontawesome - https://fontawesome.com License - https://fontawesome.com/license (Commercial License) Copyright 2022 Fonticons, Inc. --><path d="M284.3 71.6C268.7 55.98 243.3 55.98 227.7 71.6L109.7 189.7C106.5 192.8 101.5 192.8 98.34 189.7C95.22 186.5 95.22 181.5 98.34 178.3L216.4 60.28C238.3 38.41 273.7 38.41 295.6 60.28L308.7 73.37L362.7 19.32C387.7-5.678 428.3-5.678 453.3 19.32L492.7 58.75C517.7 83.74 517.7 124.3 492.7 149.3L229.5 412.5C181.5 460.5 120.3 493.2 53.7 506.5L28.71 511.5C20.84 513.1 12.7 510.6 7.03 504.1C1.356 499.3-1.107 491.2 .4662 483.3L5.465 458.3C18.78 391.7 51.52 330.5 99.54 282.5L297.4 84.69L284.3 71.6zM320 84.69L427.3 192L481.4 137.9C500.1 119.2 500.1 88.81 481.4 70.06L441.9 30.63C423.2 11.88 392.8 11.88 374.1 30.63L320 84.69zM110.9 293.8C65.06 339.6 33.85 397.9 21.15 461.4L16.16 486.4C15.63 489.1 16.45 491.8 18.34 493.7C20.23 495.5 22.95 496.4 25.57 495.8L50.56 490.8C114.1 478.1 172.4 446.9 218.2 401.1L416 203.3L308.7 96L110.9 293.8z"/></svg>