<svg xmlns="http://www.w3.org/2000/svg" viewBox="0 0 640 512"><!--! Font Awesome Pro 6.1.1 by @fontawesome - https://fontawesome.com License - https://fontawesome.com/license (Commercial License) Copyright 2022 Fonticons, Inc. --><path d="M528.4 20.71C550.2-1.376 585.8-1.478 607.8 20.48L619.7 32.41C641.6 54.28 641.6 89.73 619.7 111.6L411.2 320.2C403.5 327.9 393.8 333.2 383.1 335.4L297.6 353.3C294.1 353.9 292.3 353.1 290.3 351.2C288.4 349.3 287.6 346.5 288.2 343.9L306.1 258.2C308.3 247.7 313.5 238 321.1 230.3L528.4 20.71zM596.5 31.79C580.8 16.11 555.3 16.18 539.7 31.96L499.7 72.43L568 140.7L608.4 100.3C624 84.66 624 59.34 608.4 43.72L596.5 31.79zM321.8 261.5L306.3 335.2L379.8 319.7C387.5 318.1 394.4 314.4 399.9 308.9L556.7 152L488.5 83.8L332.5 241.6C327.1 247.1 323.4 253.1 321.8 261.5V261.5zM312 128C316.4 128 320 131.6 320 136C320 140.4 316.4 144 312 144H56C33.91 144 16 161.9 16 184V456C16 478.1 33.91 496 56 496H520C542.1 496 560 478.1 560 456V264C560 259.6 563.6 256 568 256C572.4 256 576 259.6 576 264V456C576 486.9 550.9 512 520 512H56C25.07 512 0 486.9 0 456V184C0 153.1 25.07 128 56 128H312zM112 320C112 311.2 119.2 304 128 304C136.8 304 144 311.2 144 320C144 328.8 136.8 336 128 336C119.2 336 112 328.8 112 320zM240 320C240 328.8 232.8 336 224 336C215.2 336 208 328.8 208 320C208 311.2 215.2 304 224 304C232.8 304 240 311.2 240 320z"/></svg>