<svg xmlns="http://www.w3.org/2000/svg" viewBox="0 0 512 512"><!--! Font Awesome Pro 6.0.0-beta3 by @fontawesome - https://fontawesome.com License - https://fontawesome.com/license (Commercial License) Copyright 2021 Fonticons, Inc. --><path d="M497.9 59.32l-45.25-45.25C443.3 4.691 431 0 418.7 0s-24.59 4.691-33.98 14.07L26.26 372.5c-4.654 4.656-7.76 10.63-8.895 17.12l-17.04 97.47C-1.986 500.3 8.328 512 21.17 512c1.227 0 2.475-.1055 3.738-.3281l97.53-17.1c6.477-1.135 12.45-4.24 17.1-8.889L497.9 127.2C516.7 108.5 516.7 78.08 497.9 59.32zM80 341.4l237.1-237l90.57 90.57L170.6 432H80V341.4zM128.2 474.4c-2.338 2.336-5.291 3.873-8.547 4.443L21.17 496c-2.127 0-3.469-1.324-3.947-1.893c-.707-.8418-1.479-2.262-1.131-4.244l17.04-97.47c.5703-3.262 2.109-6.223 4.447-8.561L64 357.4V440C64 444.4 67.59 448 72 448h82.58L128.2 474.4zM486.6 115.9l-67.69 67.69l-90.57-90.57l67.66-67.66C402.1 19.34 410.1 16 418.7 16s16.61 3.336 22.67 9.387l45.25 45.25C492.7 76.68 496 84.73 496 93.28C496 101.8 492.7 109.9 486.6 115.9z"/></svg>