<svg xmlns="http://www.w3.org/2000/svg" viewBox="0 0 512 512"><!--! Font Awesome Pro 6.1.1 by @fontawesome - https://fontawesome.com License - https://fontawesome.com/license (Commercial License) Copyright 2022 Fonticons, Inc. --><path d="M383.7 14.63C402.4-4.12 432.8-4.12 451.5 14.63L497.4 60.46C516.1 79.2 516.1 109.6 497.4 128.3L176 449.7C163.7 461.1 148.5 471 131.8 475.9L10.26 511.7C7.449 512.5 4.413 511.7 2.343 509.7C.2733 507.6-.5008 504.6 .3254 501.7L36.08 380.2C40.99 363.5 50.02 348.3 62.32 335.1L383.7 14.63zM440.2 25.94C427.7 13.44 407.5 13.44 394.1 25.94L328.1 92.8L419.2 183.9L486.1 117C498.6 104.5 498.6 84.27 486.1 71.77L440.2 25.94zM71.78 349.2L79.36 432.6L162.8 440.2C163.5 439.6 164.1 438.1 164.7 438.4L407.9 195.2L316.8 104.1L73.63 347.3C73 347.9 72.39 348.5 71.78 349.2L71.78 349.2zM57.55 369.4C55.04 374.2 52.99 379.4 51.43 384.7L19.81 492.2L127.3 460.6C132.6 459 137.7 456.1 142.6 454.5L71.28 447.1C67.43 447.6 64.38 444.6 64.03 440.7L57.55 369.4z"/></svg>