<svg xmlns="http://www.w3.org/2000/svg" viewBox="0 0 576 512"><!--! Font Awesome Pro 6.1.1 by @fontawesome - https://fontawesome.com License - https://fontawesome.com/license (Commercial License) Copyright 2022 Fonticons, Inc. --><path d="M144 52C144 80.72 120.7 104 92 104C63.28 104 40 80.72 40 52C40 23.28 63.28 0 92 0C120.7 0 144 23.28 144 52zM92 16C72.12 16 56 32.12 56 52C56 71.88 72.12 88 92 88C111.9 88 128 71.88 128 52C128 32.12 111.9 16 92 16zM117.5 128C130.7 128 143.9 130.5 156.1 135.4L258.1 176.6C263.1 178.2 265.1 182.9 263.4 186.1C261.8 191.1 257.1 193.1 253 191.4L150.2 150.3C139.8 146.1 128.7 144 117.5 144H63.1C37.49 144 15.1 165.5 15.1 192V320C15.1 328.8 23.16 336 31.1 336C40.84 336 47.1 328.8 47.1 320V232C47.1 227.6 51.58 224 55.1 224C60.42 224 63.1 227.6 63.1 232V279.3L100.4 483.4C101.7 490.7 108.1 496 115.5 496C125.2 496 132.5 487.1 130.6 477.7L107.1 364.7C105 349.9 116.4 336 131.5 336C142.5 336 152.1 343.5 154.8 354.2L187.3 484.3C189 491.2 195.2 496 202.3 496C212.3 496 219.7 486.7 217.4 476.1L152.2 201.8C151.5 198.9 152.5 195.9 154.8 193.9C157 191.1 160.2 191.5 162.1 192.6L242.1 224.6C247.1 226.2 249.1 230.9 247.4 234.1C245.8 239.1 241.1 241.1 237 239.4L171.3 213.2L232.9 473.3C237.6 493 222.6 512 202.3 512C187.9 512 175.3 502.2 171.8 488.2L139.3 358.1C138.4 354.5 135.2 352 131.5 352C126.5 352 122.7 356.6 123.7 361.6L146.3 474.5C150.1 493.9 135.3 512 115.5 512C100.4 512 87.36 501.1 84.69 486.2L58.28 338.3C52.5 346.6 42.88 352 32 352C14.33 352 0 337.7 0 319.1V191.1C0 156.7 28.65 127.1 64 127.1L117.5 128zM353.7 142C374.5 132.8 396.1 128 419.7 128C464.3 128 504.5 154.8 521.6 195.9L536.1 232.7L558.3 243.4C574.1 251.3 580.5 270.5 572.6 286.3C564.7 302.1 545.5 308.5 529.7 300.6L503 287.3C492.9 282.2 484.8 273.7 480.4 263.3L480.2 262.8L470.6 239.8L451.3 305.3L500.8 359.4C506.2 365.3 510.1 372.4 512 380.2L535 472.2C539.3 489.4 528.9 506.8 511.8 511C494.6 515.3 477.2 504.9 472.1 487.8L450.9 399.6L380.3 322.5C365.5 306.4 359.1 283.9 365.6 262.8L382.5 199.3C381.6 199.7 380.6 200.1 379.7 200.5L368.7 205.4C366.1 206.1 365.3 206.1 363.7 207.9C350.8 214.1 340.7 226.3 335.2 240.1L333.7 243.9C327.1 260.3 308.5 268.3 292.1 261.7C275.7 255.1 267.7 236.5 274.3 220.1L275.8 216.3C288.2 185.4 312.2 160.5 342.7 146.9L353.7 142zM393.1 187.3C397.7 191.3 399.6 197.5 398 203.4L381.1 266.9C376.8 282.8 380.1 299.7 392.1 311.7L462.7 388.8C464.5 390.8 465.8 393.2 466.4 395.8L488.5 483.9C490.6 492.5 499.3 497.7 507.9 495.5C516.5 493.4 521.7 484.7 519.5 476.1L496.5 384.1C495.2 378.9 492.7 374.1 489.1 370.2L439.5 316.2C435.7 312 434.4 306.2 435.1 300.8L455.2 235.3C457.2 228.8 462.1 224.2 469.7 223.8C476.5 223.5 482.8 227.4 485.4 233.7L494.9 256.7C497.9 263.7 503.3 269.5 510.2 272.1L536.8 286.3C544.7 290.3 554.4 287.1 558.3 279.2C562.3 271.3 559.1 261.6 551.2 257.7L529.8 247C526.4 245.3 523.7 242.4 522.2 238.9L506.9 202.1C492.2 166.9 457.8 143.1 419.7 143.1C399.2 143.1 378.9 148.3 360.2 156.6L349.2 161.5C322.5 173.4 301.5 195.2 290.7 222.3L289.1 226.1C285.9 234.3 289.9 243.6 298.1 246.9C306.3 250.1 315.6 246.1 318.9 237.9L320.4 234.2C328.1 214.8 343.1 199.2 362.2 190.8L373.2 185.9C374.3 185.4 375.4 184.9 376.5 184.5C382.1 182.2 388.6 183.3 393.1 187.3L393.1 187.3zM516 52C516 80.72 492.7 104 464 104C435.3 104 412 80.72 412 52C412 23.28 435.3 0 464 0C492.7 0 516 23.28 516 52zM464 88C483.9 88 500 71.88 500 52C500 32.12 483.9 16 464 16C444.1 16 428 32.12 428 52C428 71.88 444.1 88 464 88V88zM354.1 343.9C359.1 345.6 361.1 350.2 359.4 354.3L338.4 407L276.7 468.7C270.4 474.9 270.4 485.1 276.7 491.3C282.9 497.6 293.1 497.6 299.3 491.3L360.1 429.6C364.1 426.6 366.5 422.9 368.1 418.9L383.2 381C384.9 376.9 389.5 374.9 393.6 376.6C397.7 378.2 399.7 382.9 398.1 386.1L382.9 424.8C380.5 430.9 376.9 436.4 372.3 440.9L310.6 502.6C298.1 515.1 277.9 515.1 265.4 502.6C252.9 490.1 252.9 469.9 265.4 457.4L324.7 398L344.6 348.4C346.2 344.3 350.9 342.3 354.1 343.9L354.1 343.9z"/></svg>