<svg xmlns="http://www.w3.org/2000/svg" viewBox="0 0 512 512"><!--! Font Awesome Pro 6.1.1 by @fontawesome - https://fontawesome.com License - https://fontawesome.com/license (Commercial License) Copyright 2022 Fonticons, Inc. --><path d="M384 128c35.38 0 64-28.62 64-64s-28.62-64-64-64s-64 28.62-64 64S348.6 128 384 128zM384 16c26.47 0 48 21.53 48 48S410.5 112 384 112S336 90.47 336 64S357.5 16 384 16zM128 128c35.38 0 64-28.62 64-64S163.4 0 128 0S64 28.62 64 64S92.63 128 128 128zM128 16c26.47 0 48 21.53 48 48S154.5 112 128 112S80 90.47 80 64S101.5 16 128 16zM160 160H96C60.65 160 32 188.7 32 224v96c0 17.67 14.33 32 32 32H56v128c0 17.64 14.34 32 32 32s32-14.36 32-32v-128h16v128c0 17.64 14.34 32 32 32s32-14.36 32-32v-128H192c17.67 0 32-14.33 32-32V224C224 188.7 195.3 160 160 160zM104 480c0 8.828-7.188 16-16 16s-16-7.172-16-16v-128h32V480zM184 480c0 8.828-7.188 16-16 16s-16-7.172-16-16v-128h32V480zM208 320c0 8.822-7.178 16-16 16H64c-8.822 0-16-7.178-16-16V224c0-26.47 21.53-48 48-48h64c26.47 0 48 21.53 48 48V320zM511.4 363.6L459.8 183.2C455.9 169.5 443.4 160 429.1 160h-90.13c-14.29 0-26.84 9.471-30.77 23.21l-51.54 180.4C253.7 373.8 261.4 384 272 384H312v96c0 17.64 14.34 32 32 32s32-14.36 32-32v-96h16v96c0 17.64 14.34 32 32 32s32-14.36 32-32v-96h39.99C506.6 384 514.3 373.8 511.4 363.6zM360 480c0 8.828-7.188 16-16 16s-16-7.172-16-16v-96h32V480zM440 480c0 8.828-7.188 16-16 16s-16-7.172-16-16v-96h32V480zM272 368l51.54-180.4C325.5 180.8 331.8 176 338.9 176h90.13c7.105 0 13.43 4.771 15.38 11.6L495.1 368H272z"/></svg>