<svg xmlns="http://www.w3.org/2000/svg" viewBox="0 0 640 512"><!--! Font Awesome Pro 6.1.1 by @fontawesome - https://fontawesome.com License - https://fontawesome.com/license (Commercial License) Copyright 2022 Fonticons, Inc. --><path d="M184 88C184 118.9 158.9 144 128 144C97.07 144 72 118.9 72 88C72 57.07 97.07 32 128 32C158.9 32 184 57.07 184 88zM128 48C105.9 48 88 65.91 88 88C88 110.1 105.9 128 128 128C150.1 128 168 110.1 168 88C168 65.91 150.1 48 128 48zM568 88C568 118.9 542.9 144 512 144C481.1 144 456 118.9 456 88C456 57.07 481.1 32 512 32C542.9 32 568 57.07 568 88zM512 48C489.9 48 472 65.91 472 88C472 110.1 489.9 128 512 128C534.1 128 552 110.1 552 88C552 65.91 534.1 48 512 48zM64 256C68.42 256 72 259.6 72 264V432C72 440.8 79.16 448 88 448H168C176.8 448 184 440.8 184 432V383.6C188.7 390.8 194.1 397.4 200 403.6V432C200 449.7 185.7 464 168 464H88C70.33 464 56 449.7 56 432V381.1C22.6 362.4 0 326.6 0 285.5C0 225 49.04 176 109.5 176H146.5C169.8 176 191.4 183.3 209.1 195.7C205 199.3 201.1 203.1 197.5 207.1C182.8 197.6 165.3 192 146.5 192H109.5C57.88 192 16 233.9 16 285.5C16 317.3 31.81 345.3 56 362.3V264C56 259.6 59.58 256 64 256V256zM440 432V403.6C445.9 397.4 451.3 390.8 456 383.6V432C456 440.8 463.2 448 472 448H552C560.8 448 568 440.8 568 432V263.1C568 259.6 571.6 255.1 576 255.1C580.4 255.1 584 259.6 584 263.1V362.2C608.2 345.3 624 317.3 624 285.5C624 233.9 582.1 191.1 530.5 191.1H493.5C474.7 191.1 457.2 197.6 442.5 207.1C438.9 203.1 434.1 199.3 430.9 195.7C448.6 183.3 470.2 175.1 493.5 175.1H530.5C590.1 175.1 640 225 640 285.5C640 326.6 617.4 362.4 584 381.1V432C584 449.7 569.7 464 552 464H472C454.3 464 440 449.7 440 432V432zM384 96C384 131.3 355.3 160 320 160C284.7 160 256 131.3 256 96C256 60.65 284.7 32 320 32C355.3 32 384 60.65 384 96zM320 48C293.5 48 272 69.49 272 96C272 122.5 293.5 144 320 144C346.5 144 368 122.5 368 96C368 69.49 346.5 48 320 48zM192 301.5C192 241 241 192 301.5 192H338.5C398.1 192 448 241 448 301.5C448 342.6 425.4 378.4 392 397.1V448C392 465.7 377.7 480 360 480H280C262.3 480 248 465.7 248 448V397.1C214.6 378.4 192 342.6 192 301.5H192zM256 272C260.4 272 264 275.6 264 280V448C264 456.8 271.2 464 280 464H360C368.8 464 376 456.8 376 448V280C376 275.6 379.6 272 384 272C388.4 272 392 275.6 392 280V378.2C416.2 361.3 432 333.3 432 301.5C432 249.9 390.1 208 338.5 208H301.5C249.9 208 207.1 249.9 207.1 301.5C207.1 333.3 223.8 361.3 247.1 378.2V280C247.1 275.6 251.6 272 255.1 272H256z"/></svg>