<svg xmlns="http://www.w3.org/2000/svg" viewBox="0 0 576 512"><!--! Font Awesome Pro 6.1.1 by @fontawesome - https://fontawesome.com License - https://fontawesome.com/license (Commercial License) Copyright 2022 Fonticons, Inc. --><path d="M8.587 415.7c31.22-2.32 61.28-17.49 87.44-44.04C124.9 400.7 157.9 416 192.1 416H192.6c34.13-.1094 66.97-15.4 95.44-44.32C316.9 400.7 349.9 416 384.1 416h.4859c34.13-.1094 66.97-15.4 95.44-44.32c26.28 26.39 56.31 41.55 87.35 43.96c5.156 .6406 8.25-2.984 8.594-7.375c.3438-4.422-2.938-8.293-7.344-8.625c-29.28-2.289-57.88-17.86-82.72-45.04C484.4 352.9 482.3 352 480 352c-2.25 0-4.406 .957-5.938 2.633c-26.66 29.53-57.63 45.2-89.5 45.31h-.3438c-31.94 0-63.19-15.68-90.31-45.34C292.4 352.9 290.2 352 287.1 352s-4.406 .957-5.938 2.633c-26.66 29.53-57.63 45.2-89.5 45.31H192.2c-31.94 0-63.19-15.68-90.31-45.34C100.4 352.9 98.25 352 95.1 352c-2.25 0-4.406 .957-5.938 2.633c-24.66 27.29-53.25 42.88-82.66 45.04c-4.406 .332-7.719 4.188-7.375 8.609C.3683 412.7 3.368 415.8 8.587 415.7zM95.1 224c35.35 0 64-28.65 64-64c0-35.35-28.65-64-64-64s-64 28.65-64 64C31.1 195.3 60.65 224 95.1 224zM95.1 112c26.47 0 47.1 21.53 47.1 48S122.5 208 95.1 208s-48-21.53-48-48S69.53 112 95.1 112zM144.4 327.1C144.6 328 144.8 328 144.1 328c4.156 0 7.688-3.219 7.969-7.438C155.4 285.6 167.6 251.2 186.4 226l21.88-29.28c20-27.52 47.69-49.89 80.09-64.75c44.09-20.19 94.66-25.23 142.4-14.34l38.59 8.844c6.25 1.422 11.56 5.203 14.94 10.64c3.406 5.422 4.5 11.86 3.094 18.09c-1.469 6.281-5.25 11.61-10.72 15.03c-5.469 3.391-11.88 4.484-18.06 3.016l-38.59-8.844c-39.59-9.062-72 5.906-103.3 20.28c-2.438 1.109-4.188 3.406-4.625 6.062c-.875 5.609-1.062 6.781 138.5 135.1c3.25 2.969 8.344 2.766 11.28-.4687c3-3.266 2.781-8.328-.4687-11.31c-42.09-38.69-106.6-98.53-127.9-119.4c30.5-13.58 54.28-21.22 83-14.67l38.56 8.844c10.31 2.375 21.03 .625 30.13-5.047c9.094-5.672 15.41-14.56 17.84-25.02c4.906-21.5-8.562-43-30.06-47.91l-38.59-8.844c-51.19-11.69-105.5-6.25-152.7 15.41C246.8 133.5 216.9 157.6 195.4 187.3L173.6 216.5C152.1 243.1 139.7 281.5 137 319.4C136.7 323.8 140 327.7 144.4 327.1z"/></svg>