<svg xmlns="http://www.w3.org/2000/svg" viewBox="0 0 640 512"><!--! Font Awesome Pro 6.1.1 by @fontawesome - https://fontawesome.com License - https://fontawesome.com/license (Commercial License) Copyright 2022 Fonticons, Inc. --><path d="M311.1 255.1C327.1 255.1 341.3 263.1 350.4 275.2L393.6 332.8C404.2 346.9 401.3 366.1 387.2 377.6C373.1 388.2 353 385.3 342.4 371.2L303.1 319.1H222.6L314.9 462.6C324.5 477.5 320.2 497.3 305.4 506.9C290.5 516.5 270.7 512.2 261.1 497.4L100.5 249.2C98.18 256.5 96.71 264.1 96.2 271.9C96.07 274 95.1 276.1 95.1 278.2V351.1C95.1 369.7 81.67 383.1 63.1 383.1C46.33 383.1 31.1 369.7 31.1 351.1V278.2C31.1 213 71.65 154.5 132.1 130.3C168.3 115.8 191.1 80.79 191.1 41.84V32C191.1 14.33 206.3 0 223.1 0C241.7 0 255.1 14.33 255.1 32V41.84C255.1 91.28 233.1 136.9 195.7 166.6C191.8 169.8 187.7 172.7 183.5 175.4L183.7 175.8L240.5 255.1L311.1 255.1zM240 41.84V31.1C240 23.16 232.8 15.1 224 15.1C215.2 15.1 208 23.16 208 31.1V41.84C208 87.33 180.3 128.2 138.1 145.1C83.67 166.9 48 219.6 48 278.2V351.1C48 360.8 55.16 367.1 64 367.1C72.84 367.1 80 360.8 80 351.1V278.2C80 266.5 81.83 255.1 85.28 244.3C87.16 238.4 92.27 234.1 98.4 233.3C104.5 232.5 110.6 235.3 113.1 240.5L274.6 488.7C279.4 496.1 289.3 498.2 296.7 493.4C304.1 488.6 306.2 478.7 301.4 471.3L209.2 328.7C205.1 323.8 205.7 317.5 208.5 312.4C211.3 307.2 216.7 303.1 222.6 303.1H303.1C309 303.1 313.8 306.4 316.8 310.4L355.2 361.6C360.5 368.7 370.5 370.1 377.6 364.8C384.7 359.5 386.1 349.5 380.8 342.4L337.6 284.8C331.6 276.7 322.1 271.1 311.1 271.1H240.5C235.4 271.1 230.5 269.5 227.5 265.2L170.7 185.1L170.5 184.8C167.9 181.2 166.9 176.8 167.7 172.5C168.5 168.2 171.1 164.4 174.7 162C214.9 135.9 240 90.96 240 41.84V41.84zM0 87.1C0 57.07 25.07 31.1 56 31.1C86.93 31.1 112 57.07 112 87.1C112 118.9 86.93 143.1 56 143.1C25.07 143.1 0 118.9 0 87.1zM56 47.1C33.91 47.1 16 65.91 16 87.1C16 110.1 33.91 127.1 56 127.1C78.09 127.1 96 110.1 96 87.1C96 65.91 78.09 47.1 56 47.1zM449.5 20.48C455.2 8.051 472.8 8.051 478.5 20.48L509.9 88.7L582.8 70.68C596.1 67.4 607.1 81.2 600.9 93.41L566.1 160.8L620.7 206.7C630.7 215.3 626.7 231.6 613.9 234.5L546.7 249.8L548.1 325C548.3 338.7 532.4 346.4 521.9 337.6L464 289.8L418.4 327.5C417 324.7 415.4 322 413.6 319.4L409.7 313.1L458.9 273.2C461.9 270.8 466.1 270.8 469.1 273.2L532.1 325.3L530.6 243.6C530.5 239.8 533.1 236.5 536.8 235.7L610.3 218.9L551.8 168.9C549 166.5 548.2 162.5 549.9 159.2L586.6 86.21L507.3 105.8C503.6 106.7 499.7 104.9 498.1 101.4L464 27.16L429.9 101.4C428.3 104.9 424.4 106.7 420.7 105.8L341.4 86.21L378.1 159.2C379.8 162.5 379 166.5 376.2 168.9L317.7 218.9L391.2 235.7C394.9 236.5 397.5 239.8 397.4 243.6L396.5 295.5L380.9 273.7L381.3 249.8L314.1 234.5C301.3 231.6 297.3 215.3 307.3 206.7L361 160.8L327.1 93.41C320.9 81.2 331.9 67.39 345.2 70.68L418.1 88.7L449.5 20.48z"/></svg>