<svg xmlns="http://www.w3.org/2000/svg" viewBox="0 0 256 512"><!--! Font Awesome Pro 6.1.1 by @fontawesome - https://fontawesome.com License - https://fontawesome.com/license (Commercial License) Copyright 2022 Fonticons, Inc. --><path d="M160 160H96C60.65 160 32 188.7 32 224v96c0 17.67 14.33 32 32 32H56v128c0 17.64 14.34 32 32 32s32-14.36 32-32v-128h16v128c0 17.64 14.34 32 32 32s32-14.36 32-32v-128H192c17.67 0 32-14.33 32-32V224C224 188.7 195.3 160 160 160zM104 480c0 8.828-7.188 16-16 16s-16-7.172-16-16v-128h32V480zM184 480c0 8.828-7.188 16-16 16s-16-7.172-16-16v-128h32V480zM208 320c0 8.822-7.178 16-16 16H64c-8.822 0-16-7.178-16-16V224c0-26.47 21.53-48 48-48h64c26.47 0 48 21.53 48 48V320zM128 128c35.38 0 64-28.62 64-64s-28.62-64-64-64S64 28.62 64 64S92.63 128 128 128zM128 16c26.47 0 48 21.53 48 48S154.5 112 128 112S80 90.47 80 64S101.5 16 128 16z"/></svg>