<svg xmlns="http://www.w3.org/2000/svg" viewBox="0 0 512 512"><!--! Font Awesome Pro 6.1.1 by @fontawesome - https://fontawesome.com License - https://fontawesome.com/license (Commercial License) Copyright 2022 Fonticons, Inc. --><path d="M48 41.25C48 29.85 56.44 20.21 67.74 18.7L189.9 2.416C199.5 1.137 208 8.6 208 18.28V48C208 56.84 200.8 64 192 64H70.75C58.19 64 48 53.82 48 41.25V41.25zM64 41.25C64 44.98 67.02 48 70.75 48H192V18.28L69.86 34.56C66.5 35.01 64 37.87 64 41.25zM320 96C320 60.66 348.7 32 384 32C419.3 32 448 60.66 448 96C448 131.3 419.3 160 384 160C348.7 160 320 131.3 320 96V96zM384 48C357.5 48 336 69.49 336 96C336 122.5 357.5 144 384 144C410.5 144 432 122.5 432 96C432 69.49 410.5 48 384 48V48zM416 192C451.3 192 480 220.7 480 256V288C480 305.7 465.7 320 448 320H320C302.3 320 288 305.7 288 288V256C288 220.7 316.7 192 352 192H416zM304 288C304 296.8 311.2 304 320 304H448C456.8 304 464 296.8 464 288V256C464 229.5 442.5 208 416 208H352C325.5 208 304 229.5 304 256V288zM64 96C64 90.48 64.7 85.12 66.02 80H82.73C80.96 85.01 80 90.39 80 96C80 122.5 101.5 144 128 144C154.5 144 176 122.5 176 96C176 90.39 175 85.01 173.3 80H189.1C191.3 85.12 192 90.48 192 96C192 131.3 163.3 160 128 160C92.65 160 64 131.3 64 96V96zM32 256C32 220.7 60.65 192 96 192H160C195.3 192 224 220.7 224 256V288C224 305.7 209.7 320 192 320H64C46.33 320 32 305.7 32 288V256zM48 288C48 296.8 55.16 304 64 304H192C192.7 304 193.3 303.1 193.1 303.9L69.46 216C56.53 224.6 48 239.3 48 256L48 288zM96 208C92.94 208 89.95 208.3 87.05 208.8L207 293.5C207.7 291.8 208 289.9 208 288V256C208 229.5 186.5 208 160 208H96zM138 362.7C140.1 359.4 146 359.1 149.3 362L221.3 426C223 427.5 224 429.7 224 432C224 434.3 223 436.5 221.3 437.1L149.3 501.1C146 504.9 140.1 504.6 138 501.3C135.1 498 135.4 492.1 138.7 490L194.1 440H8C3.582 440 0 436.4 0 432C0 427.6 3.582 424 8 424H194.1L138.7 373.1C135.4 371 135.1 365.1 138 362.7V362.7zM362.7 362C365.1 359.1 371 359.4 373.1 362.7C376.9 365.1 376.6 371 373.3 373.1L317 424H504C508.4 424 512 427.6 512 432C512 436.4 508.4 440 504 440H317L373.3 490C376.6 492.1 376.9 498 373.1 501.3C371 504.6 365.1 504.9 362.7 501.1L290.7 437.1C288.1 436.5 288 434.3 288 432C288 429.7 288.1 427.5 290.7 426L362.7 362z"/></svg>