<svg xmlns="http://www.w3.org/2000/svg" viewBox="0 0 640 512"><!--! Font Awesome Pro 6.1.1 by @fontawesome - https://fontawesome.com License - https://fontawesome.com/license (Commercial License) Copyright 2022 Fonticons, Inc. --><path d="M288 48C288 74.51 266.5 96 240 96C213.5 96 192 74.51 192 48C192 21.49 213.5 0 240 0C266.5 0 288 21.49 288 48zM240 16C222.3 16 208 30.33 208 48C208 65.67 222.3 80 240 80C257.7 80 272 65.67 272 48C272 30.33 257.7 16 240 16zM340.4 80.84C344.4 78.87 349.2 80.47 351.2 84.42L390.2 162.6L556.3 231.8C568.2 236.8 576 248.4 576 261.3V318.9C576 329.6 570.7 339.6 561.8 345.5L485.6 396.3L563.9 496H580.7L626.3 450.3C629.5 447.2 634.5 447.2 637.7 450.3C640.8 453.5 640.8 458.5 637.7 461.7L589.7 509.7C588.2 511.2 586.1 512 584 512H424C419.6 512 416 508.4 416 504C416 499.6 419.6 496 424 496H543.5L468.1 400H339.2C335.8 394.3 331.9 388.9 327.6 384H475.2L552.9 332.2C557.3 329.2 560 324.2 560 318.9V261.3C560 254.9 556.1 249 550.2 246.6L388.6 179.2L300.1 282.4C297.1 285.1 292.7 287.1 288 287.1H99.78C93.72 287.1 88.18 291.4 85.47 296.8L57.79 352.2C51.07 352.6 44.53 353.7 38.25 355.5L71.16 289.7C76.58 278.8 87.66 271.1 99.78 271.1H288L342.9 207.1H288C285.5 207.1 283.1 206.8 281.6 204.8L255.1 169.4C243.1 153.4 224.2 143.1 204.2 143.1C180.2 143.1 158.1 157.6 147.4 179.1L119.2 235.6C117.2 239.5 112.4 241.1 108.4 239.2C104.5 237.2 102.9 232.4 104.8 228.4L133.1 171.1C146.5 145 174.1 127.1 204.2 127.1C229.3 127.1 252.8 139.8 267.9 159.8L292 191.1H356.6L375.8 169.5L336.8 91.58C334.9 87.62 336.5 82.82 340.4 80.84L340.4 80.84zM256 384C291.3 384 320 412.7 320 448C320 483.3 291.3 512 256 512H64C28.65 512 0 483.3 0 448C0 412.7 28.65 384 64 384H256zM256 400H64C37.49 400 16 421.5 16 448C16 474.5 37.49 496 64 496H256C282.5 496 304 474.5 304 448C304 421.5 282.5 400 256 400z"/></svg>