<svg xmlns="http://www.w3.org/2000/svg" viewBox="0 0 576 512"><!--! Font Awesome Pro 6.1.1 by @fontawesome - https://fontawesome.com License - https://fontawesome.com/license (Commercial License) Copyright 2022 Fonticons, Inc. --><path d="M265.2 192C290.6 192 315 199.1 336 211.9V231.1C315.8 216.3 291.1 208 265.2 208H214.8C172.3 208 133.1 230.4 111.5 266.1L35.34 395.8C28.6 407.2 32.39 421.9 43.8 428.7C55.21 435.4 69.93 431.6 76.67 420.2L130.2 329.6C133.9 323.4 141.3 320.4 148.2 322.3C155.2 324.2 160 330.5 160 337.7V480C160 488.8 167.2 496 176 496H304C312.8 496 320 488.8 320 480V337.7C320 330.5 324.8 324.2 331.8 322.3C333.2 321.9 334.6 321.7 336 321.7V480.6C335.7 498 321.5 512 304 512H176C158.3 512 144 497.7 144 480V337.7L90.44 428.3C79.21 447.4 54.68 453.7 35.66 442.4C16.64 431.2 10.33 406.7 21.57 387.7L97.7 258.8C122.2 217.4 166.7 192 214.8 192H265.2zM160 80C160 35.82 195.8 0 240 0C284.2 0 320 35.82 320 80C320 124.2 284.2 160 240 160C195.8 160 160 124.2 160 80zM240 144C275.4 144 304 115.3 304 80C304 44.65 275.4 16 240 16C204.7 16 176 44.65 176 80C176 115.3 204.7 144 240 144zM470 400L503.9 490.4C507.8 500.8 500.1 512 488.9 512H416C407.2 512 400 504.8 400 496V400C382.3 400 368 385.7 368 368V224C368 206.3 382.3 192 400 192V160C400 148.2 406.4 137.8 416 132.3V16H408C403.6 16 400 12.42 400 8C400 3.582 403.6 0 408 0H448C456.8 0 464 7.164 464 16V132.3C473.6 137.8 480 148.2 480 160V269.3L496 264V208C496 199.2 503.2 192 512 192H528C536.8 192 544 199.2 544 208V292.5C544 299.4 539.6 305.5 533.1 307.6L480 325.3V352H528C536.8 352 544 359.2 544 368V384C544 392.8 536.8 400 528 400L470 400zM448 141.5V16H432V141.5L424 146.1C419.2 148.9 416 154.1 416 160V384H528V368H464V160C464 154.1 460.8 148.9 455.1 146.1L448 141.5zM488.9 496L452.9 400H416V496H488.9zM480 308.5L528 292.5V208H512V275.5L480 286.2V308.5zM384 368C384 376.8 391.2 384 400 384V208C391.2 208 384 215.2 384 224V368z"/></svg>