<svg xmlns="http://www.w3.org/2000/svg" viewBox="0 0 448 512"><!--! Font Awesome Pro 6.1.1 by @fontawesome - https://fontawesome.com License - https://fontawesome.com/license (Commercial License) Copyright 2022 Fonticons, Inc. --><path d="M223.1 328C223.1 301.5 245.5 280 272 280C298.5 280 320 301.5 320 328C320 354.5 298.5 376 272 376C245.5 376 223.1 354.5 223.1 328zM272 296C254.3 296 240 310.3 240 328C240 345.7 254.3 360 272 360C289.7 360 304 345.7 304 328C304 310.3 289.7 296 272 296zM160 300C148.1 300 140 308.1 140 320V368C140 371.4 140.8 374.6 142.4 377.5L229.5 421.1C253.2 432.9 262.8 461.8 250.9 485.5C239.1 509.2 210.2 518.8 186.5 506.9L27.21 427.3C26.11 426.7 25.02 426.2 23.95 425.5C19.04 422.7 14.79 419.1 11.3 414.1C6.732 409.5 3.492 403.3 1.683 396.6C-1.576 384.6-.1811 371.4 6.459 359.9C7.098 358.8 7.776 357.8 8.489 356.7L75.56 256.1C102.3 216.1 147.2 192 195.4 192H270.6C317.1 192 360.7 214.5 387.8 252.3L438.5 323.2C440.7 326.2 442.5 329.4 443.9 332.7C446.9 339.3 448.2 346.4 447.1 353.5C447.7 364.1 443.8 374.5 436.8 382.8L373.5 461.1C356.9 482.7 326.7 486 306 469.5C292.6 458.7 286.5 442.2 288.3 426.3C288.5 425.3 288.6 424.3 288.8 423.3C285.2 422.8 281.6 422.1 278 421.4C239.5 413.1 204.9 391.8 180 361.1V319.1C180 308.1 171 299.1 160 299.1L160 300zM431.1 352.1C432.1 348.3 431.2 343.5 429.3 339.1C428.3 336.9 427.1 334.8 425.6 332.8L425.4 332.5L374.8 261.6C350.7 227.1 311.9 208 270.6 208H195.4C152.6 208 112.6 229.4 88.88 264.1L21.8 365.6L21.67 365.8C21.19 366.5 20.73 367.2 20.3 367.1C15.89 375.6 14.94 384.4 17.12 392.4C18.33 396.9 20.51 401.1 23.54 404.6C25.85 407.4 28.7 409.8 31.98 411.7C32.7 412.1 33.42 412.5 34.16 412.9L34.36 412.1L193.7 492.6C209.5 500.5 228.7 494.1 236.6 478.3C244.5 462.5 238.1 443.3 222.3 435.4L130.8 389.6L128.4 385.2C125.5 379.9 124 374 124 368V320C124 300.1 140.1 284 160 284C179.9 284 196 300.1 196 320V355.3C220.4 383.4 254.1 401.9 291.2 407.5L298.1 408.6L353.8 339C356.5 335.6 361.5 334.1 364.1 337.8C368.4 340.5 369 345.5 366.2 348.1L304.5 426.1L304.5 426.2C302.5 437.5 306.5 449.4 316 456.1C329.8 468 349.9 465.8 360.1 451.1L424.6 372.5C429.2 366.1 431.8 360.1 431.1 352.1V352.1zM144 80C144 35.82 179.8 0 224 0C268.2 0 304 35.82 304 80C304 124.2 268.2 160 224 160C179.8 160 144 124.2 144 80zM224 16C188.7 16 160 44.65 160 80C160 115.3 188.7 144 224 144C259.3 144 288 115.3 288 80C288 44.65 259.3 16 224 16z"/></svg>