<svg xmlns="http://www.w3.org/2000/svg" viewBox="0 0 512 512"><!--! Font Awesome Pro 6.0.0-beta3 by @fontawesome - https://fontawesome.com License - https://fontawesome.com/license (Commercial License) Copyright 2021 Fonticons, Inc. --><path d="M395.1 136c28.71 0 52-23.29 52-52.01C447.1 55.29 424.7 32 395.1 32c-28.71 0-52 23.29-52 52.01C343.1 112.7 367.3 136 395.1 136zM395.1 48c19.85 0 36 16.15 36 36.01c0 19.85-16.15 36.01-36 36.01c-19.85 0-36-16.15-36-36.01C359.1 64.15 376.1 48 395.1 48zM160 192h82.78L170.3 262.1C163.7 268.5 160 277.2 160 286.3c0 18.62 15.09 33.71 33.71 33.71l126.3-.0406l0 55.98c0 17.72 14.36 32.08 32.07 32.08c17.71 0 32.07-14.36 32.07-32.08l-.0119-87.98c0-17.68-14.33-32-32-32h-50.86l46.12-46.12c13.88-13.75 17.87-34.25 10.37-52.26c-7.502-18-24.88-29.63-44.26-29.63H160c-17.75 0-32 14.25-32 32S142.3 192 160 192zM161 144h152.5c12.91 0 24.48 7.766 29.49 19.78c5.002 12.01 2.307 25.64-6.92 34.79l-57.45 57.45H264c-4.422 0-8 3.594-8 8.002c0 4.031 3.143 7.059 7.037 7.602l89.04 .375c8.822 0 15.1 7.177 15.1 16l.0802 87.08c0 8.008-5.453 15.45-13.36 16.75c-10.05 1.656-18.78-6.096-18.78-15.85l.0016-63.93c0-4.418-3.584-8.011-8.002-8.011H193.7c-9.762 0-17.71-7.943-17.71-17.71c0-4.771 1.969-9.414 5.4-12.73l86.71-83.84c5.17-5 1.631-13.75-5.561-13.75L159.1 176c-8.836 0-15.79-6.8-16.01-15.58C143.8 151.4 152 144 161 144zM511 452.6c-2.109-3.906-6.891-5.346-10.84-3.25c-36.42 19.54-79.95 19.6-116.4 0L11.8 249C7.896 246.9 3.068 248.4 .959 252.3c-2.094 3.875-.6406 8.721 3.25 10.81l371.1 200.3c20.61 11.1 43.22 16.63 65.81 16.63c22.59 0 45.17-5.533 65.78-16.63C511.7 461.3 513.1 456.4 511 452.6z"/></svg>