<svg xmlns="http://www.w3.org/2000/svg" viewBox="0 0 576 512"><!--! Font Awesome Pro 6.1.1 by @fontawesome - https://fontawesome.com License - https://fontawesome.com/license (Commercial License) Copyright 2022 Fonticons, Inc. --><path d="M463.1 256c8.75 0 15.1-7.25 15.1-16S472.7 224 463.1 224s-15.1 7.25-15.1 16S455.2 256 463.1 256zM287.1 176c48.5 0 87.1-39.5 87.1-88S336.5 0 287.1 0S200 39.5 200 88S239.5 176 287.1 176zM288 16c39.7 0 72 32.3 72 72S327.7 160 288 160S216 127.7 216 88S248.3 16 288 16zM80 256c8.75 0 15.1-7.25 15.1-16S88.75 224 80 224S64 231.3 64 240S71.25 256 80 256zM132.4 250.9c.9687 0 1.953-.1875 2.922-.5625C188.1 229.6 239.5 219.1 288 219.1c39.2 0 80.64 6.969 123.2 20.69c4.234 1.344 8.719-.9687 10.06-5.156c1.359-4.219-.9531-8.719-5.156-10.09C371.1 210.3 328.9 203.1 288 203.1c-50.5 0-103.8 10.88-158.5 32.31c-4.109 1.594-6.141 6.25-4.531 10.34C126.2 248.9 129.2 250.9 132.4 250.9zM543.8 304.1c17.33 12.38 21.36 36.59 9 53.94c-12 16.69-37.25 20.91-53.92 9c-.3438-.2187-45.86-28.75-104.2-49.56L384 313.7V448c0 4.406 3.578 8 8 8S400 452.4 400 448v-111.5c50.8 19.44 89.39 43.44 89.56 43.53c23.72 16.91 59.33 10.91 76.27-12.69c17.5-24.56 11.78-58.75-12.67-76.22C552.1 291 534.1 277.3 501.8 260.5c-3.922-2.062-8.734-.5313-10.8 3.406c-2.047 3.906-.5156 8.75 3.391 10.78C525.2 290.7 543.6 303.9 543.8 304.1zM86.22 380.2C86.61 379.9 125.2 355.8 176 336.3V448c0 4.406 3.578 8 8 8S192 452.4 192 448V313.5L181.3 317.3c-58.67 20.88-103.8 49.44-104.1 49.66c-17.47 12.34-41.64 8.344-53.97-8.969c-12.38-17.34-8.344-41.56 9.078-54c2-1.438 12.8-8.844 29.11-18.25c3.828-2.219 5.141-7.094 2.938-10.94C62.11 271 57.2 269.7 53.39 271.9C33.86 283.2 22.92 291.1 22.91 291.1c-24.52 17.5-30.23 51.69-12.73 76.25C27.64 391.8 61.89 397.5 86.22 380.2zM320 368c0 8.832 7.166 16 16 16s16-7.168 16-16c0-8.834-7.166-16-16-16S320 359.2 320 368zM224 272C224 280.8 231.2 288 240 288S256 280.8 256 272C256 263.2 248.8 256 240 256S224 263.2 224 272zM568 496H8C3.578 496 0 499.6 0 504S3.578 512 8 512h560c4.422 0 8-3.594 8-8S572.4 496 568 496z"/></svg>