<svg xmlns="http://www.w3.org/2000/svg" viewBox="0 0 512 512"><!--! Font Awesome Pro 6.1.1 by @fontawesome - https://fontawesome.com License - https://fontawesome.com/license (Commercial License) Copyright 2022 Fonticons, Inc. --><path d="M151.3 174.6c.8066 .082 1.613 .1211 2.412 .1211c9.715 0 18.61-5.9 22.3-15.06l33.75-84.38C214 64.35 209.1 51.1 200.2 45.86l-67.47-42.17C128.7 1.213 124.3 0 119.9 0C113.7 0 107.6 2.414 102.9 7.08C-34.32 144.3-34.31 367.7 102.9 504.9C107.6 509.6 113.7 512 119.9 512c4.387 0 8.801-1.209 12.75-3.688l67.48-42.19c9.775-6.104 13.9-18.47 9.598-29.3L176 352.5c-3.631-9.168-12.55-15.11-22.21-15.11c-.8379 0-1.678 .0449-2.522 .1348l-53.24 5.314C78.89 286.7 78.89 225.4 98.06 169.3L151.3 174.6zM82.91 164.1c-20.24 59.29-20.23 124.6 .0176 183.9l4.102 12.01l66.8-6.631c3.203 0 6.152 2.008 7.355 5.047l33.71 84.29c1.42 3.576 .0449 7.803-3.207 9.834l-67.5 42.2C122.9 495.6 121.4 496 119.9 496c-2.117 0-4.137-.8535-5.688-2.404C50.89 430.2 16 345.9 16 256c0-89.86 34.9-174.2 98.26-237.6C115.8 16.85 117.8 16 119.9 16c1.482 0 2.947 .4297 4.275 1.266l67.48 42.18C194.1 61.51 196.3 65.7 194.9 69.29L161.2 153.6C160 156.6 156.1 158.6 152.1 158.6c-.041 0 .041 0 0 0L87.01 152.1L82.91 164.1zM388.7 15.56C385.1 13 380.1 13.78 377.5 17.39c-2.562 3.594-1.75 8.594 1.844 11.17C452.4 81.11 496 166.1 496 256s-43.63 174.9-116.7 227.4c-3.594 2.578-4.406 7.578-1.844 11.17C379.1 496.8 381.5 497.9 384 497.9c1.625 0 3.25-.4844 4.656-1.5C465.9 440.9 512 350.1 512 255.1S465.9 71.11 388.7 15.56zM324.3 87.86c-3.719-2.391-8.625-1.344-11.06 2.375c-2.406 3.719-1.344 8.672 2.375 11.06C368.5 135.4 400 193.2 400 256s-31.53 120.6-84.34 154.7c-3.719 2.391-4.781 7.344-2.375 11.06C314.8 424.1 317.4 425.4 320 425.4c1.5 0 3-.4062 4.344-1.281C381.8 387.1 416 324.2 416 255.1S381.8 124.9 324.3 87.86zM259.3 161.4C255.3 159.6 250.6 161.4 248.7 165.4c-1.844 4.016-.0625 8.766 3.938 10.61C283.8 190.3 304 221.7 304 256s-20.16 65.72-51.34 80.03c-4 1.844-5.781 6.594-3.938 10.61C250.1 349.6 252.1 351.3 256 351.3c1.125 0 2.25-.2344 3.344-.7344c36.84-16.91 60.66-54.04 60.66-94.57S296.2 178.3 259.3 161.4z"/></svg>