<svg xmlns="http://www.w3.org/2000/svg" viewBox="0 0 512 512"><!--! Font Awesome Pro 6.1.1 by @fontawesome - https://fontawesome.com License - https://fontawesome.com/license (Commercial License) Copyright 2022 Fonticons, Inc. --><path d="M493.1 351.2L384.6 304.7c-3.967-1.717-8.148-2.543-12.29-2.543c-9.201 0-18.2 4.076-24.19 11.51l-44.05 53.81c-69.25-34-125.5-90.28-159.5-159.5l53.83-44.09c10.75-8.781 14.42-23.66 8.984-36.44L160.8 18.93C155.7 7.251 144.2 0 132 0C129.7 0 127.3 .263 124.1 .8079L24.22 24.06C9.969 27.31 0 39.84 0 54.5C0 306.8 205.2 512 457.5 512c14.67 0 27.2-9.969 30.47-24.22l23.25-100.8C514.6 372.4 507 357.2 493.1 351.2zM495.6 383.4l-23.26 100.8C470.8 491.2 464.7 496 457.5 496C214 496 16 297.9 16 54.49c0-7.154 4.844-13.26 11.82-14.85C140.3 13.69 130.4 16 132 16c6.117 0 11.68 3.672 14.12 9.234l46.51 108.5C195.3 139.1 193.5 147.3 188.2 151.6L124.6 203.7c66.63 135.7 164.7 174.4 183.8 183.8l52.16-63.73c2.012-2.496 8.896-8.123 17.72-4.303l108.4 46.49C493.6 368.9 497.3 376.2 495.6 383.4zM328 104h80v80C408 188.4 411.6 192 416 192s8-3.578 8-8v-80h80C508.4 104 512 100.4 512 96s-3.578-8-8-8h-80v-80C424 3.578 420.4 0 416 0s-8 3.578-8 8v80h-80C323.6 88 320 91.58 320 96S323.6 104 328 104z"/></svg>