<svg xmlns="http://www.w3.org/2000/svg" viewBox="0 0 640 512"><!--! Font Awesome Pro 6.0.0-beta3 by @fontawesome - https://fontawesome.com License - https://fontawesome.com/license (Commercial License) Copyright 2021 Fonticons, Inc. --><path d="M591.1 0H239.1C213.5 0 191.1 21.49 191.1 48v256c0 26.51 21.49 48 48 48h352c26.51 0 48-21.49 48-48v-256C640 21.49 618.5 0 591.1 0zM239.1 336c-17.67 0-32-14.33-32-32V285.4L315 178.3c3.12-3.12 8.225-3.121 11.34-.0008l46.69 46.69L262.1 336H239.1zM623.1 304c0 17.67-14.33 32-32 32H284.7l221.7-221.7C507.9 112.8 509.9 112 511.1 112c2.125 0 4.188 .8281 5.688 2.344l106.3 106.3V304zM623.1 198l-95.02-95.02C524.4 98.5 518.4 96 511.1 96c-.0313 0 0 0 0 0c-6.438 .0156-12.45 2.516-16.95 7.031l-110.7 110.7L337.7 167c-9.38-9.38-24.59-9.379-33.97 .0023l-95.7 95.73V48c0-17.67 14.33-32 32-32h352c17.67 0 32 14.33 32 32V198zM288 56C265.9 56 248 73.94 248 96s17.94 40 40 40c22.06 0 40-17.94 40-40S310.1 56 288 56zM288 120C274.8 120 264 109.2 264 96s10.78-24 24-24S312 82.77 312 96S301.2 120 288 120zM504 384c-4.406 0-8 3.578-8 8v8H400v-8c0-4.418-3.582-8-8-8c-4.42 0-8 3.582-8 8v104H128v-352h24c4.406 0 8-3.578 8-8S156.4 128 152 128H48C21.49 128 .0003 149.5 .0003 176v288c0 26.51 21.49 48 48 48h416c26.51 0 48-21.49 48-48l-.0004-72C512 387.6 508.4 384 504 384zM112 496H48c-17.67 0-32-14.33-32-32V416h96V496zM112 400H16v-72h96L112 400zM112 312H16V240h96L112 312zM112 224H16V176c0-17.67 14.33-32 32-32h64V224zM496 464c0 17.67-14.33 32-32 32H400V416h96V464z"/></svg>