<svg xmlns="http://www.w3.org/2000/svg" viewBox="0 0 576 512"><!--! Font Awesome Pro 6.0.0-beta3 by @fontawesome - https://fontawesome.com License - https://fontawesome.com/license (Commercial License) Copyright 2021 Fonticons, Inc. --><path d="M536.9 224c-3.375 0-5.562-.4062-7.594-1.219C492.7 118.1 396.2 48 288 48c-108.3 0-204.9 70.13-241.3 174.8C44.78 223.6 42.63 224 39.13 224C17.56 224 0 241.9 0 264S17.56 304 39.13 304c33.72 0 53.25-15 65.06-24.06C112.4 273.5 114.4 272 122.3 272c7.688 0 9.656 1.531 18 8c11.69 8.969 31.19 24 65 24c33.72 0 53.25-15 65.09-24.08C278.7 273.4 280.7 272 288.3 272c7.469 0 9.312 1.25 18.25 8.281C318.9 289.7 337.7 304 371.1 304c33.81 0 53.31-15.03 65.09-24.08C444.4 273.5 446.3 272 454.1 272c7.562 0 9.312 1.359 17.81 7.938C483.5 288.9 502.9 304 536.9 304C558.4 304 576 286.1 576 264S558.4 224 536.9 224zM536.9 288c-28.47 0-44.5-12.45-55.25-20.8C472.6 260.2 467.2 256 454.1 256c-13.38 0-18.78 4.266-27.78 11.31C415 276 399.5 288 371.1 288c-28.09 0-43.59-11.81-55.22-20.67C306.9 260.3 301.5 256 288.3 256C275.5 256 269.9 259.9 260.4 267.4C249.1 276.1 233.5 288 205.3 288C176.9 288 161.3 276 149.1 267.3C140.9 260.3 135.4 256 122.3 256C108.9 256 103.4 260.3 94.31 267.4C82.97 276.1 67.41 288 39.13 288C26.38 288 16 277.2 16 264S26.38 240 39.13 240c7.344 0 12.59-1.328 18.16-4.609l2.562-1.516l.9687-2.844C94.22 131.1 185.5 64 288 64c102.4 0 193.7 67.13 227.2 167l1 2.938l2.688 1.5C524.6 238.7 529.8 240 536.9 240C549.6 240 560 250.8 560 264S549.6 288 536.9 288zM514.5 320.4c-4.156-1.344-8.719 .8906-10.12 5.062l-30.16 90.72C471.2 425.6 462.4 432 452.4 432H123.7c-9.969 0-18.78-6.391-21.97-15.88l-30.16-90.66c-1.406-4.188-5.875-6.422-10.12-5.062c-4.188 1.391-6.469 5.922-5.062 10.12l30.16 90.67C91.94 437.2 106.9 448 123.7 448h328.7c16.94 0 31.81-10.8 37.03-26.81l30.16-90.66C521 326.3 518.7 321.8 514.5 320.4zM288 128C283.6 128 280 131.6 280 136v48C280 188.4 283.6 192 288 192s8-3.578 8-8v-48C296 131.6 292.4 128 288 128zM184.8 132.4l-24 48C158.9 184.4 160.5 189.2 164.4 191.2C165.6 191.7 166.8 192 168 192c2.938 0 5.75-1.625 7.156-4.422l24-48c1.969-3.953 .375-8.75-3.594-10.73C191.8 126.9 186.8 128.5 184.8 132.4zM391.2 132.4c-1.969-3.953-6.875-5.531-10.72-3.578c-3.969 1.984-5.562 6.781-3.594 10.73l24 48C402.3 190.4 405.1 192 408 192c1.219 0 2.438-.2656 3.562-.8438c3.969-1.984 5.562-6.781 3.594-10.73L391.2 132.4z"/></svg>