<svg xmlns="http://www.w3.org/2000/svg" viewBox="0 0 512 512"><!--! Font Awesome Pro 6.1.1 by @fontawesome - https://fontawesome.com License - https://fontawesome.com/license (Commercial License) Copyright 2022 Fonticons, Inc. --><path d="M359.7 107.7C330.6 78.56 292.4 64 254.3 64C216.1 64 177.9 78.55 148.8 107.7L43.67 212.8c-58.22 58.22-58.22 152.6-.002 210.8l44.66 44.66C117.4 497.4 155.6 512 193.7 512s76.31-14.56 105.4-43.67l105.2-105.2c58.22-58.22 58.22-152.6 0-210.8L359.7 107.7zM393 351.9l-105.2 105.2C262.7 482.2 229.3 496 193.7 496c-35.55 0-68.97-13.84-94.11-38.98l-44.66-44.66c-51.89-51.89-51.89-136.3 0-188.2l105.2-105.2C185.3 93.84 218.7 80 254.3 80c35.55 0 68.97 13.84 94.11 38.98l44.66 44.66C418.2 188.8 432 222.2 432 257.7C432 293.3 418.2 326.7 393 351.9zM500.4 76.19l-11.12-3.656c5.719-9.125 8.781-19.67 8.781-30.61V31.94c0-9.906-8.062-17.97-17.97-17.97h-9.969c-10.5 0-20.69 2.891-29.62 8.266l-3.281-10.41c-1.375-4.359-4.438-8.031-8.406-10.06c-3.781-1.953-8.094-2.328-12.09-1c-13.22 4.344-24.41 12.92-32.28 24.64L376 17c-6.375-6.359-16.59-6.547-22.84-.375c-10.25 10.23-16.5 24.02-17.59 38.78c-.3438 4.406 2.969 8.234 7.375 8.578c4.5 .1562 8.219-3 8.562-7.391c.8438-11.09 5.312-21.02 13.19-28.28l15.88 15.88c1.844 1.859 4.531 2.609 7.062 2.219c2.594-.4687 4.781-2.172 5.875-4.547c5.75-12.64 15.78-21.83 28.44-25.22l6.688 21.16c.8125 2.625 2.938 4.625 5.594 5.328c2.531 .6562 5.438-.0156 7.469-1.875c7.844-7.266 17.94-11.28 28.41-11.28h9.969c1.094 0 1.969 .8906 1.969 1.969v9.984c0 10.88-4.219 21.2-11.84 29.09c-1.906 1.969-2.688 4.797-2.031 7.484c.6875 2.672 2.656 4.812 5.281 5.672L496 91.94c-3.875 12.27-12.56 22.28-24.44 28.2c-2.312 1.141-3.906 3.328-4.344 5.875c-.4062 2.531 .4375 5.125 2.25 6.938l14.81 14.58c-7.719 7.703-17.69 12.19-28.84 12.97c-4.406 .3125-7.719 4.141-7.406 8.547C448.3 173.3 451.8 176.5 456 176.5c.1875 0 .375 0 .5625-.0156c14.84-1.062 28.69-7.312 39.03-17.62c6.188-6.188 6-16.42-.375-22.8L488 128.8c11.03-7.969 19.12-19.06 23.25-32.08C513.9 88.27 509.1 79.03 500.4 76.19zM165.7 314.3c-3.125-3.125-8.188-3.125-11.31 0L128 340.7L101.7 314.3c-3.125-3.125-8.188-3.125-11.31 0s-3.125 8.188 0 11.31l32 32C123.9 359.2 125.9 360 128 360s4.094-.7813 5.656-2.344l32-32C168.8 322.5 168.8 317.5 165.7 314.3zM282.3 314.3L256 340.7L229.7 314.3c-3.125-3.125-8.188-3.125-11.31 0s-3.125 8.188 0 11.31l32 32C251.9 359.2 253.9 360 256 360s4.094-.7813 5.656-2.344l32-32c3.125-3.125 3.125-8.188 0-11.31S285.5 311.2 282.3 314.3zM186.3 261.7C187.9 263.2 189.9 264 192 264s4.094-.7813 5.656-2.344l32-32c3.125-3.125 3.125-8.188 0-11.31s-8.188-3.125-11.31 0L192 244.7L165.7 218.3c-3.125-3.125-8.188-3.125-11.31 0s-3.125 8.188 0 11.31L186.3 261.7zM218.3 410.3L192 436.7l-26.34-26.34c-3.125-3.125-8.188-3.125-11.31 0s-3.125 8.188 0 11.31l32 32C187.9 455.2 189.9 456 192 456s4.094-.7813 5.656-2.344l32-32c3.125-3.125 3.125-8.188 0-11.31S221.5 407.2 218.3 410.3z"/></svg>