<svg xmlns="http://www.w3.org/2000/svg" viewBox="0 0 640 512"><!--! Font Awesome Pro 6.0.0-beta3 by @fontawesome - https://fontawesome.com License - https://fontawesome.com/license (Commercial License) Copyright 2021 Fonticons, Inc. --><path d="M546 322.7l-66.37 73.73L445.7 362.3c-3.137-3.104-8.191-3.104-11.33 0c-3.104 3.135-3.104 8.191 0 11.33l40 40C475.9 415.2 478 416.1 480.2 416c2.176-.0645 4.256-1.025 5.727-2.656l72-80c2.945-3.264 2.689-8.32-.6074-11.3C554.1 319.1 549 319.4 546 322.7zM496 224C416.5 224 352 288.5 352 368s64.48 144 144 144s144-64.48 144-144S575.5 224 496 224zM496 496c-70.69 0-128-57.31-128-128c0-70.69 57.31-128 128-128s128 57.31 128 128C624 438.7 566.7 496 496 496zM64 368v-224h384v54.62c5.248-1.471 10.56-2.719 16-3.711V128c0-8.832 7.168-16 16-16s16 7.168 16 16v64c5.408 0 10.72 .2559 16 .7031V128c0-17.66-14.34-32-32-32s-32 14.34-32 32H64c0-17.66-14.34-32-32-32S0 110.3 0 128v256c0 17.66 14.34 32 32 32s32-14.34 32-32h256.7C320.3 378.7 320 373.4 320 368H64zM48 384c0 8.832-7.168 16-16 16S16 392.8 16 384V128c0-8.832 7.168-16 16-16S48 119.2 48 128V384z"/></svg>