<svg xmlns="http://www.w3.org/2000/svg" viewBox="0 0 512 512"><!--! Font Awesome Pro 6.1.1 by @fontawesome - https://fontawesome.com License - https://fontawesome.com/license (Commercial License) Copyright 2022 Fonticons, Inc. --><path d="M381.9 396.9L25.59 495.7c-2.469 .6874-5.281-.0313-7.328-2.078c-1.922-1.859-2.703-4.734-2.062-7.359L109.1 130c1.125-4.265-1.422-8.64-5.703-9.765c-4.219-1.172-8.641 1.422-9.765 5.703L.7004 482.3c-2.031 8.234 .4375 16.98 6.344 22.7C11.56 509.6 17.59 512 23.67 512c2.109 0 4.234-.2968 6.312-.9062l356.2-98.77c4.25-1.172 6.75-5.578 5.562-9.843C390.5 398.2 386.2 395.7 381.9 396.9zM87.1 383.1c0 22.06 17.94 39.1 39.1 39.1s39.1-17.94 39.1-39.1c0-22.06-17.94-39.1-39.1-39.1S87.1 361.9 87.1 383.1zM151.1 383.1c0 13.23-10.77 23.1-23.1 23.1s-23.1-10.76-23.1-23.1s10.77-23.1 23.1-23.1S151.1 370.8 151.1 383.1zM215.1 240c0-22.06-17.94-39.1-39.1-39.1S135.1 217.9 135.1 240s17.94 39.1 39.1 39.1S215.1 262.1 215.1 240zM151.1 240c0-13.23 10.77-23.1 23.1-23.1s23.1 10.76 23.1 23.1c0 13.23-10.77 23.1-23.1 23.1S151.1 253.2 151.1 240zM311.1 335.1c0-22.06-17.94-39.1-39.1-39.1c-22.06 0-39.1 17.94-39.1 39.1c0 22.06 17.94 39.1 39.1 39.1C294.1 375.1 311.1 358.1 311.1 335.1zM247.1 335.1c0-13.23 10.77-23.1 23.1-23.1c13.23 0 23.1 10.76 23.1 23.1c0 13.23-10.77 23.1-23.1 23.1C258.8 359.1 247.1 349.2 247.1 335.1zM162.6 .2014C142.8-1.752 124.9 10.68 119.9 29.51L105.6 83.99c-.625 2.359-.125 4.875 1.328 6.828c1.469 1.953 3.734 3.125 6.172 3.203c177.5 5.203 297.1 122.7 304.7 299.4c.1094 2.437 1.328 4.687 3.297 6.124c1.375 .9999 3.031 1.531 4.703 1.531c.7187 0 1.438-.0937 2.141-.2968l55.11-15.25c18.92-5.25 30.98-23.48 28.7-43.37C491.1 164.1 341.1 17.14 162.6 .2014zM478.7 370.1l-45.53 12.59c-11.77-176.8-131.9-294.9-309.6-304.3l11.75-44.84c2.953-11.23 13.48-18.65 25.8-17.45c171.1 16.23 314.9 157.2 334.7 327.9C497.2 355.1 490 366.1 478.7 370.1z"/></svg>