<svg xmlns="http://www.w3.org/2000/svg" viewBox="0 0 640 512"><!--! Font Awesome Pro 6.1.1 by @fontawesome - https://fontawesome.com License - https://fontawesome.com/license (Commercial License) Copyright 2022 Fonticons, Inc. --><path d="M191.1 178.8V95.88C191.1 60.92 219.1 0 255.1 0C290.1 0 319.1 60.92 319.1 96.88V178.8L421.6 236.1C419.9 242.1 418.6 247.3 417.7 252.7L320 196.8V312.6L387.3 331.8C385.5 336.9 384.5 342.3 384.1 347.9L320 329.6V399.5L368 436.5V455.4L304 407.5V95.88C304 64.92 278 15.98 256 15.98C233 15.98 208 64.92 208 95.88V407.5L144 455.4V495.4L256 463.4L368 496.4V511.7C366.7 511.7 365.3 511.6 364 511.4L256 479.4L147 511.4C137 514.4 128 506.4 128 495.4V455.4C128 450.4 130 446.4 134 443.4L192 399.5V329.6L20 378.5C10 381.5 0 373.5 0 362.6V297.6C0 292.6 3 285.6 8 283.6L191.1 178.8zM15.1 297.6V362.6L191.1 312.6V196.8L15.1 297.6zM528 192C563.3 192 592 220.7 592 256V320H608C625.7 320 640 334.3 640 352V480C640 497.7 625.7 512 608 512H448C430.3 512 416 497.7 416 480V352C416 334.3 430.3 320 448 320H464V256C464 220.7 492.7 192 528 192zM528 208C501.5 208 480 229.5 480 256V320H576V256C576 229.5 554.5 208 528 208zM432 352V480C432 488.8 439.2 496 448 496H608C616.8 496 624 488.8 624 480V352C624 343.2 616.8 336 608 336H448C439.2 336 432 343.2 432 352z"/></svg>