<svg xmlns="http://www.w3.org/2000/svg" viewBox="0 0 640 512"><!--! Font Awesome Pro 6.1.1 by @fontawesome - https://fontawesome.com License - https://fontawesome.com/license (Commercial License) Copyright 2022 Fonticons, Inc. --><path d="M191.1 178.8V95.88C191.1 60.92 219.1 0 255.1 0C290.1 0 319.1 60.92 319.1 96.88V178.8L401.1 225.2C396.5 228.5 392.1 232 387.9 235.7L319.1 196.8V312.6L335.5 317C333.9 322.2 332.6 327.5 331.5 332.9L320 329.6V399.5L332.9 409.5C335.1 418.4 337.9 427.1 341.4 435.5L304 407.5V95.88C304 64.92 278 15.98 256 15.98C233 15.98 208 64.92 208 95.88V407.5L144 455.4V495.4L256 463.4L368 496.4V511.7C366.7 511.7 365.3 511.6 364 511.4L256 479.4L147 511.4C137 514.4 128 506.4 128 495.4V455.4C128 450.4 130 446.4 134 443.4L192 399.5V329.6L20 378.5C10 381.5 0 373.5 0 362.6V297.6C0 292.6 3 285.6 8 283.6L191.1 178.8zM15.1 297.6V362.6L191.1 312.6V196.8L15.1 297.6zM565.7 322.3C568.8 325.5 568.8 330.5 565.7 333.7L485.7 413.7C482.5 416.8 477.5 416.8 474.3 413.7L426.3 365.7C423.2 362.5 423.2 357.5 426.3 354.3C429.5 351.2 434.5 351.2 437.7 354.3L480 396.7L554.3 322.3C557.5 319.2 562.5 319.2 565.7 322.3H565.7zM352 368C352 288.5 416.5 224 496 224C575.5 224 640 288.5 640 368C640 447.5 575.5 512 496 512C416.5 512 352 447.5 352 368zM496 496C566.7 496 624 438.7 624 368C624 297.3 566.7 240 496 240C425.3 240 368 297.3 368 368C368 438.7 425.3 496 496 496z"/></svg>