<svg xmlns="http://www.w3.org/2000/svg" viewBox="0 0 640 512"><!--! Font Awesome Pro 6.1.1 by @fontawesome - https://fontawesome.com License - https://fontawesome.com/license (Commercial License) Copyright 2022 Fonticons, Inc. --><path d="M576 362.6C576 363.8 575.9 364.9 575.6 366.1L559.1 353.1L560 297.6L384 196.8V214.8L368 202.2V95.88C368 64.92 342 15.98 319.1 15.98C296.1 15.98 271.1 64.92 271.1 95.88V126.4L255.1 113.7V95.88C255.1 60.92 283.1 0 319.1 0C354.1 0 384 60.92 384 96.88V178.8L566.1 283.6C572 286.6 576 291.6 576 297.6L576 362.6zM207.1 455.4V495.4L319.1 463.4L432 496.4V455.4L368 407.5V385.6L384 398.3V399.5L440.1 443.4C444.1 446.4 448 450.4 448 455.4V495.4C448 506.4 438 513.4 428 511.4L319.1 479.4L210.1 511.4C200.1 514.4 191.1 506.4 191.1 495.4V455.4C191.1 450.4 193.1 446.4 197.1 443.4L255.1 399.5V329.6L83.1 378.5C73.1 381.5 63.1 373.5 63.1 362.6V297.6C63.1 292.6 66.1 285.6 71.1 283.6L168.9 228.4L182.3 239L79.1 297.6V362.6L255.1 312.6V297.2L271.1 309.8V407.5L207.1 455.4zM636.1 497.7C640.4 500.5 641 505.5 638.3 508.1C635.5 512.4 630.5 513 627 510.3L3.022 14.26C-.4365 11.51-1.012 6.482 1.738 3.023C4.487-.4358 9.52-1.011 12.98 1.739L636.1 497.7z"/></svg>