<svg xmlns="http://www.w3.org/2000/svg" viewBox="0 0 640 512"><!--! Font Awesome Pro 6.0.0-beta3 by @fontawesome - https://fontawesome.com License - https://fontawesome.com/license (Commercial License) Copyright 2021 Fonticons, Inc. --><path d="M19.51 52.34L53.68 59.93C64.99 62.44 74.06 70.87 77.39 81.97L95.1 143.1L228.3 183.1L181.8 20.4C178.9 10.18 186.6 .001 197.2 .001H237.3C248.8 .001 259.5 6.236 265.2 16.31L385 229.3L481.5 257.8C497.4 262.5 512.2 270.3 525.2 280.7L552.6 302.6C577.9 322.8 569.1 363.2 537.8 371.2C503.6 379.9 467.7 379.8 433.4 370.9L121.7 289.8C110.6 286.9 100.5 281.1 92.4 272.9L9.535 189.4C3.605 183.4 .2701 175.3 .2522 166.9L.0419 67.99C.0202 57.74 9.507 50.11 19.51 52.34L19.51 52.34zM83.16 156.9L62.07 86.57C60.4 81.02 55.87 76.8 50.21 75.55L16.04 67.95L16.25 166.9C16.26 171.1 17.93 175.1 20.89 178.1L103.8 261.7C109.8 267.8 117.4 272.1 125.7 274.3L437.5 355.4C469.1 363.7 502.2 363.7 533.9 355.7C552.4 350.9 557.5 327 542.6 315.1L515.2 293.1C503.8 284.1 490.9 277.3 476.9 273.2L374.2 242.9L251.2 24.16C248.4 19.12 243.1 16 237.3 16H197.2L251.7 206.7L83.16 156.9zM632 496C636.4 496 640 499.6 640 504C640 508.4 636.4 512 632 512H8C3.582 512 0 508.4 0 504C0 499.6 3.582 496 8 496H632zM128 368C128 350.3 142.3 336 160 336C177.7 336 192 350.3 192 368C192 385.7 177.7 400 160 400C142.3 400 128 385.7 128 368zM160 384C168.8 384 176 376.8 176 368C176 359.2 168.8 352 160 352C151.2 352 144 359.2 144 368C144 376.8 151.2 384 160 384zM288 384C288 401.7 273.7 416 256 416C238.3 416 224 401.7 224 384C224 366.3 238.3 352 256 352C273.7 352 288 366.3 288 384zM256 368C247.2 368 240 375.2 240 384C240 392.8 247.2 400 256 400C264.8 400 272 392.8 272 384C272 375.2 264.8 368 256 368z"/></svg>