<svg xmlns="http://www.w3.org/2000/svg" viewBox="0 0 640 512"><!--! Font Awesome Pro 6.0.0-beta3 by @fontawesome - https://fontawesome.com License - https://fontawesome.com/license (Commercial License) Copyright 2021 Fonticons, Inc. --><path d="M351.4 372.5L364.1 382.6L304.1 491.3C297.1 504.1 283.7 512 269.1 512H221C205.2 512 193.7 496.9 197.9 481.6L242.5 320H155.6L106.8 375.8C102.2 381 95.66 384 88.74 384H53.91C41.81 384 32 374.2 32 362.1C32 359.9 32.33 357.7 32.97 355.6L63.63 256L32.97 156.4C32.33 154.3 32 152.1 32 149.9C32 141.2 37.07 133.7 44.41 130.2L61.94 144H53.91C50.65 144 48 146.6 48 149.9C48 150.5 48.09 151.1 48.26 151.6L79.65 253.6C80.12 255.2 80.12 256.8 79.65 258.4L48.26 360.4C48.09 360.9 48 361.5 48 362.1C48 365.4 50.65 368 53.91 368H88.74C91.05 368 93.24 367 94.76 365.3L145.1 306.7C147.5 304.1 149.7 304 151.1 304H252.1C255.5 304 257.8 305.2 259.3 307.2C260.8 309.1 261.3 311.7 260.7 314.1L213.3 485.9C211.9 490.1 215.7 496 221 496H269.1C277.8 496 285.9 491.2 290.1 483.6L351.4 372.5zM221 0H269.1C283.7 0 297.1 7.921 304.1 20.68L398.7 192H518.8C535.4 192 557.2 198.1 574.7 209.7C591.8 220.2 608 236.2 608 256C608 276.2 591.8 292.3 574.7 302.7C557.1 313.3 535.4 320 518.8 320H517.3L496.1 304H518.8C531.9 304 550.7 298.4 566.4 288.1C582.4 279.2 592 267.3 592 256C592 245.1 582.4 233.2 566.3 223.3C550.7 213.7 531.8 208 518.8 208H393.9C391 208 388.3 206.4 386.9 203.9L290.1 28.41C285.9 20.75 277.8 16 269.1 16H221C215.7 16 211.9 21.03 213.3 26.13L232.3 95.04L211.1 78.29L197.9 30.38C193.7 15.1 205.2 0 221 0L221 0zM636.1 497.7C640.4 500.5 641 505.5 638.3 508.1C635.5 512.4 630.5 513 627 510.3L3.022 14.26C-.4365 11.51-1.012 6.482 1.738 3.023C4.487-.4358 9.52-1.011 12.98 1.739L636.1 497.7zM40.61 153.1L48.26 151.6L40.61 153.1zM48.26 360.4L40.61 358z"/></svg>