<svg xmlns="http://www.w3.org/2000/svg" viewBox="0 0 576 512"><!--! Font Awesome Pro 6.0.0-beta3 by @fontawesome - https://fontawesome.com License - https://fontawesome.com/license (Commercial License) Copyright 2021 Fonticons, Inc. --><path d="M288 280H224c-8.062 0-15.8-3.109-21.22-8.531C193.9 262.5 193.3 248.2 201.5 238.7l50.36-58.17C259.8 168.7 264 154.9 264 140.6C264 120.9 248.5 104.8 228.8 104C224.1 104.2 220.7 107.3 220.5 111.7C220.3 116.1 223.8 119.8 228.2 120C239.3 120.5 248 129.5 248 140.6c0 11.09-3.25 21.83-8.797 30.27L189.5 228.3c-13.72 15.73-12.84 39.69 2 54.53C199.9 291.2 211.7 296 224 296h64c13.23 0 24 10.77 24 24v16.88c0 8.672-2 17.11-5.906 25.05l-40.42 80.72c-2.844 5.859-8.438 10-15.12 11.12c-3.188 .5781-6.484 .9219-9.812 1.281C233.8 455.5 232 449.4 232 447.1V376H224c-13.23 0-24-10.77-24-24V316.7L143 259.7C135.5 252.2 125.4 248 114.8 248h-25C72.67 248 72.02 226.4 72 223.1c-.0313-4.391-3.625-7.953-8.016-7.953c-.0156 0 .0156 0 0 0C59.58 216 56 219.6 56 224c0 13.83 7.047 40 33.75 40h25c6.406 0 12.44 2.5 16.97 7.031L184 323.3V352c0 19.31 13.77 35.48 32 39.2v55.92c0 6.781 2.781 13.08 7.938 17.86c4.453 3.953 10.16 6.109 15.97 6.109c2.494 0 9.881-.918 13.41-1.578c11.66-1.938 21.66-9.375 26.72-19.81l40.39-80.67C325.4 358.1 328 347.9 328 336.9V320C328 297.9 310.1 280 288 280zM512 0c-35.35 0-64 28.65-64 64s28.65 63.1 64 63.1s64-28.65 64-63.1S547.3 0 512 0zM512 112c-26.47 0-48-21.53-48-48s21.53-48 48-48s48 21.53 48 48S538.5 112 512 112zM224 64C100.3 64 0 164.3 0 288s100.3 224 224 224c123.7 0 224-100.3 224-224S347.7 64 224 64zM224 496c-114.7 0-208-93.31-208-208S109.3 80 224 80s208 93.31 208 208S338.7 496 224 496z"/></svg>