<svg xmlns="http://www.w3.org/2000/svg" viewBox="0 0 512 512"><!--! Font Awesome Pro 6.0.0-beta3 by @fontawesome - https://fontawesome.com License - https://fontawesome.com/license (Commercial License) Copyright 2021 Fonticons, Inc. --><path d="M504 64c-4.422 0-8 3.578-8 8v368c0 4.422 3.578 8 8 8S512 444.4 512 440V72C512 67.58 508.4 64 504 64zM360 64C355.6 64 352 67.58 352 72v368c0 4.422 3.578 8 8 8s8-3.578 8-8V72C368 67.58 364.4 64 360 64zM52.51 71.41C46.36 66.31 39.22 64 32.22 64C15.71 64 0 76.81 0 96.03v319.9C0 435.2 15.71 448 32.22 448c7.002 0 14.15-2.305 20.29-7.406l192-159.1c15.25-12.87 15.25-36.37 0-49.24L52.51 71.41zM234.3 268.3l-192 159.1C39.32 430.8 35.93 432 32.22 432C24.25 432 16 426 16 415.1v-319.9C16 85.99 24.25 80 32.22 80c3.711 0 7.098 1.25 10.05 3.699l191.9 159.9C237.9 246.7 239.1 251.1 239.1 256C239.1 260.9 237.9 265.3 234.3 268.3z"/></svg>