<svg xmlns="http://www.w3.org/2000/svg" viewBox="0 0 384 512"><!--! Font Awesome Pro 6.1.1 by @fontawesome - https://fontawesome.com License - https://fontawesome.com/license (Commercial License) Copyright 2022 Fonticons, Inc. --><path d="M24.52 38.13C39.66 29.64 58.21 29.99 73.03 39.04L361 215C375.3 223.8 384 239.3 384 256C384 272.7 375.3 288.2 361 296.1L73.03 472.1C58.21 482 39.66 482.4 24.52 473.9C9.377 465.4 0 449.4 0 432V80C0 62.64 9.377 46.63 24.52 38.13V38.13zM64.69 52.7C54.81 46.66 42.44 46.43 32.35 52.09C22.25 57.75 16 68.42 16 80V432C16 443.6 22.25 454.2 32.35 459.9C42.44 465.6 54.81 465.3 64.69 459.3L352.7 283.3C362.2 277.5 368 267.1 368 256C368 244.9 362.2 234.5 352.7 228.7L64.69 52.7z"/></svg>