<svg xmlns="http://www.w3.org/2000/svg" viewBox="0 0 384 512"><!--! Font Awesome Pro 6.0.0-beta3 by @fontawesome - https://fontawesome.com License - https://fontawesome.com/license (Commercial License) Copyright 2021 Fonticons, Inc. --><path d="M376 144H8C3.582 144 0 147.6 0 152S3.582 160 8 160h32v80c0 81.07 63.97 146.9 144 151.2V504C184 508.4 187.6 512 192 512s8-3.582 8-8v-112.8c80.03-4.258 144-70.12 144-151.2V160h32C380.4 160 384 156.4 384 152S380.4 144 376 144zM328 240c0 75-61.02 136-136 136S56 315 56 240V160h272V240zM96 8C96 3.582 92.42 0 88 0S80 3.582 80 8V112H96V8zM288 8C288 3.582 284.4 0 280 0S272 3.582 272 8V112H288V8z"/></svg>