<svg xmlns="http://www.w3.org/2000/svg" viewBox="0 0 576 512"><!--! Font Awesome Pro 6.1.1 by @fontawesome - https://fontawesome.com License - https://fontawesome.com/license (Commercial License) Copyright 2022 Fonticons, Inc. --><path d="M96 0C100.4 0 104 3.582 104 8V104H88V8C88 3.582 91.58 0 96 0zM288 0C292.4 0 296 3.582 296 8V104H280V8C280 3.582 283.6 0 288 0zM376 144C380.4 144 384 147.6 384 152C384 156.4 380.4 160 376 160H344V215.5C338.5 218.7 333.1 222.2 328 225.1V160H56V240C56 315.1 116.9 376 192 376C215.2 376 237.1 370.2 256.2 359.9C256.1 362.6 256 365.3 256 368C256 371.3 256.1 374.5 256.3 377.8C239 385.8 220 390.8 200 391.8V504C200 508.4 196.4 512 192 512C187.6 512 184 508.4 184 504V391.8C103.8 387.6 40 321.3 40 240V160H8C3.582 160 0 156.4 0 152C0 147.6 3.582 144 8 144H376zM468.5 281.4C471.4 283.4 472.7 287.1 471.6 290.5L453.8 344H512C515.3 344 518.3 346.1 519.5 349.2C520.7 352.4 519.7 355.9 517.2 358.1L405.2 454.1C402.5 456.4 398.5 456.6 395.5 454.6C392.6 452.6 391.3 448.9 392.4 445.5L410.2 392H352C348.7 392 345.7 389.9 344.5 386.8C343.3 383.6 344.3 380.1 346.8 377.9L458.8 281.9C461.5 279.6 465.5 279.4 468.5 281.4V281.4zM373.6 376H421.3C423.9 376 426.3 377.2 427.8 379.3C429.3 381.4 429.7 384.1 428.9 386.5L416.7 423.1L490.4 360H442.7C440.1 360 437.7 358.8 436.2 356.7C434.7 354.6 434.3 351.9 435.1 349.5L447.3 312.9L373.6 376zM288 368C288 288.5 352.5 224 432 224C511.5 224 576 288.5 576 368C576 447.5 511.5 512 432 512C352.5 512 288 447.5 288 368zM432 496C502.7 496 560 438.7 560 368C560 297.3 502.7 240 432 240C361.3 240 304 297.3 304 368C304 438.7 361.3 496 432 496z"/></svg>