<svg xmlns="http://www.w3.org/2000/svg" viewBox="0 0 448 512"><!--! Font Awesome Pro 6.1.1 by @fontawesome - https://fontawesome.com License - https://fontawesome.com/license (Commercial License) Copyright 2022 Fonticons, Inc. --><path d="M224 312c-32.88 0-64 8.625-64 43.75c0 33.13 12.88 104.3 20.62 132.8C185.8 507.6 205.1 512 224 512s38.25-4.375 43.38-23.38C275.1 459.9 288 388.8 288 355.8C288 320.6 256.9 312 224 312zM251.9 484.5C251.1 487.6 248.8 496 224 496c-24.81 0-27.07-8.385-27.94-11.57C188.1 455.3 176 386.1 176 355.8C176 347.4 176 328 224 328s48 19.45 48 27.75C272 385.7 259.9 455.1 251.9 484.5zM224 280c30.95 0 56-25.05 56-56S254.1 168 224 168S168 193 168 224S193 280 224 280zM224 184c22.06 0 40 17.94 40 40S246.1 264 224 264C201.9 264 184 246.1 184 224S201.9 184 224 184zM224 0C100.5 0 0 100.5 0 224c0 85.66 47.69 162.6 124.4 200.7c4.031 1.984 8.781 .3594 10.72-3.609c1.969-3.953 .375-8.766-3.594-10.73C60.28 374.1 16 303.5 16 224c0-114.7 93.31-208 208-208s208 93.31 208 208c0 79.55-44.28 150.1-115.6 186.4c-3.969 1.969-5.562 6.781-3.594 10.73C314.2 423.9 317.1 425.5 320 425.5c1.188 0 2.406-.2656 3.562-.8281C400.3 386.6 448 309.7 448 224C448 100.5 347.5 0 224 0zM314.7 325.7C316.3 327.2 318.3 328 320.3 328c2.062 0 4.094-.7813 5.656-2.359C353.1 298.5 368 262.4 368 224c0-79.41-64.59-144-144-144S80 144.6 80 224c0 38.36 14.91 74.47 41.1 101.6c3.094 3.125 8.157 3.156 11.31 .0313c3.125-3.125 3.125-8.188 0-11.31C109.3 290.2 96 258.1 96 224c0-70.58 57.41-128 128-128s128 57.42 128 128c0 34.11-13.25 66.19-37.31 90.36C311.6 317.5 311.6 322.5 314.7 325.7z"/></svg>