<svg xmlns="http://www.w3.org/2000/svg" viewBox="0 0 448 512"><!--! Font Awesome Pro 6.1.1 by @fontawesome - https://fontawesome.com License - https://fontawesome.com/license (Commercial License) Copyright 2022 Fonticons, Inc. --><path d="M440 152H104V112c0-30.88 25.12-56 56-56h32.81C196.6 78.68 216.2 96 240 96h64C330.5 96 352 74.51 352 48S330.5 0 304 0h-64C216.2 0 196.6 17.32 192.8 40H160c-39.69 0-72 32.3-72 72v40h-80C3.594 152 0 155.6 0 160s3.594 8 8 8h432C444.4 168 448 164.4 448 160S444.4 152 440 152zM240 16h64c17.64 0 32 14.36 32 32s-14.36 32-32 32h-64c-17.64 0-32-14.36-32-32S222.4 16 240 16zM408.9 216c-4.844-.6406-8.344 2.672-8.844 7.047l-28.75 251.6C369.9 486.9 359.7 496 347.4 496H100.6c-12.22 0-22.47-9.141-23.88-21.27L47.94 223.1c-.5-4.375-4.188-7.656-8.844-7.047c-4.406 .5-7.531 4.469-7.031 8.859l28.75 251.6C63.09 496.8 80.19 512 100.6 512h246.9c20.38 0 37.47-15.23 39.75-35.45l28.75-251.6C416.4 220.5 413.3 216.5 408.9 216z"/></svg>