<svg xmlns="http://www.w3.org/2000/svg" viewBox="0 0 512 512"><!--! Font Awesome Pro 6.1.1 by @fontawesome - https://fontawesome.com License - https://fontawesome.com/license (Commercial License) Copyright 2022 Fonticons, Inc. --><path d="M256 0C114.6 0 0 114.6 0 256s114.6 256 256 256s256-114.6 256-256S397.4 0 256 0zM256 496c-132.3 0-240-107.7-240-240S123.7 16 256 16s240 107.7 240 240S388.3 496 256 496zM256 56C181 56 120 117 120 192s61.02 136 136 136S392 267 392 192S330.1 56 256 56zM256 312C189.8 312 136 258.2 136 192S189.8 72 256 72S376 125.8 376 192S322.2 312 256 312zM282.1 175.3C292.9 167.2 300 154.5 300 140C300 115.8 280.3 96 256 96S212 115.8 212 140c0 14.47 7.119 27.23 17.95 35.26C214.5 184.3 204 200.9 204 220C204 248.7 227.3 272 256 272s52-23.31 52-52C308 200.9 297.5 184.3 282.1 175.3zM228 140C228 124.6 240.6 112 256 112s28 12.56 28 28S271.4 168 256 168S228 155.4 228 140zM256 256C236.2 256 220 239.8 220 220S236.2 184 256 184s36 16.16 36 36S275.8 256 256 256z"/></svg>