<svg xmlns="http://www.w3.org/2000/svg" viewBox="0 0 448 512"><!--! Font Awesome Pro 6.1.1 by @fontawesome - https://fontawesome.com License - https://fontawesome.com/license (Commercial License) Copyright 2022 Fonticons, Inc. --><path d="M446.3 195.1C444.8 193.1 442.5 192 440 192H7.997c-2.469 0-4.797 1.141-6.313 3.094C.1691 197-.3622 199.6 .2472 201.1l71.27 280.1C75.84 500 91.31 512 109.2 512l229.7-.0156c17.83 0 33.3-11.95 37.64-29.06l71.27-280.1C448.4 199.6 447.8 197 446.3 195.1zM360.1 478.1c-2.547 10.02-11.64 17-22.14 17L109.2 496c-10.5 0-19.61-6.984-22.14-17L18.28 208h86.68l31.1 241C136.6 453.1 140 456 143.1 456c.3438 0 .6875-.0156 1.047-.0625c4.375-.5625 7.469-4.578 6.906-8.969L121.1 208h94.9V448c0 4.422 3.578 8 8 8s8-3.578 8-8V208h94.9l-30.83 238.1c-.5625 4.391 2.531 8.406 6.906 8.969C303.3 455.1 303.7 456 304 456c3.953 0 7.391-2.938 7.922-6.969L343 208h86.68L360.1 478.1zM32.69 175.1C37.1 175.7 40.43 171.8 40.11 167.4C39.65 160.7 40.66 155.5 43.36 150.8c5.14-9.235 15.44-15.63 26.87-16.69c2.703-.25 5.109-1.859 6.359-4.266c1.25-2.422 1.203-5.297-.1406-7.672c-5.203-9.11-5.125-20.42 .25-29.56c7.125-12.5 22.44-19.13 37.11-16.25c2.328 .5156 4.719-.125 6.562-1.609C122.2 73.24 123.3 71.02 123.4 68.66C123.7 54.96 133.1 42.94 146.8 38.71c10.75-3.5 22.53-1.609 31.56 4.969c2.094 1.531 4.734 1.969 7.203 1.156C188.1 44.02 189.1 42.1 190.8 39.64c3.359-10.56 11.61-18.8 22.08-22.02c17.89-5.453 36.87 3.172 43.72 20.69c.2813 2.688 1.906 5.078 4.359 6.313c2.75 1.359 5.953 1.078 8.375-.7344c9.14-6.813 21.11-8.735 31.94-5.297c13.8 4.344 23.2 16.39 23.41 30c.0313 2.375 1.125 4.61 2.969 6.094s4.234 2.109 6.594 1.625c14.67-2.86 29.1 3.75 37.11 16.25c5.281 9.25 5.359 20.34 .2031 29.66c-1.312 2.375-1.328 5.266-.0469 7.657c1.281 2.391 3.687 3.969 6.39 4.188c11.16 .9219 21.22 7.219 26.84 16.78c2.656 4.625 3.672 9.891 3.203 16.58C407.6 171.8 410.9 175.7 415.3 175.1c.1875 .0156 .375 .0156 .5781 .0156c4.156 0 7.672-3.219 7.969-7.438c.6875-9.86-1.047-18.27-5.344-25.75c-6.484-11.03-16.91-19.08-28.94-22.7c3.359-11.78 1.891-24.47-4.375-35.47c-9.094-15.94-27.91-25.27-45.53-24.97c-3.5-16.8-16.19-30.83-33.61-36.31c-12.48-4-26.01-3.016-37.67 2.5c-10.95-20.36-36.33-30.83-60.25-23.52C195.8 6.126 185.5 14.61 179.4 25.77C167.8 20.36 154.3 19.47 142 23.46c-17.37 5.328-30.09 19.34-33.66 36.2C90.19 59.88 71.91 68.71 62.85 84.55C56.49 95.4 54.99 108.3 58.38 120.1c-12.41 3.703-22.84 11.8-28.94 22.75C25.19 150.3 23.46 158.7 24.15 168.6C24.44 172.9 28.19 176.3 32.69 175.1z"/></svg>