<svg xmlns="http://www.w3.org/2000/svg" viewBox="0 0 320 512"><!--! Font Awesome Pro 6.1.1 by @fontawesome - https://fontawesome.com License - https://fontawesome.com/license (Commercial License) Copyright 2022 Fonticons, Inc. --><path d="M273.1 46.86C303.1 76.87 320 117.6 320 160V352C320 360.5 316.6 368.6 310.6 374.6C304.6 380.6 296.5 384 288 384H192V480C192 488.5 188.6 496.6 182.6 502.6C176.6 508.6 168.5 512 160 512C151.5 512 143.4 508.6 137.4 502.6C131.4 496.6 128 488.5 128 480V384H32C23.51 384 15.37 380.6 9.372 374.6C3.371 368.6 0 360.5 0 352V160C0 117.6 16.86 76.87 46.86 46.86C76.87 16.86 117.6 0 160 0C202.4 0 243.1 16.86 273.1 46.86zM176 192C176 187.8 174.3 183.7 171.3 180.7C168.3 177.7 164.2 176 160 176C155.8 176 151.7 177.7 148.7 180.7C145.7 183.7 144 187.8 144 192V480C144 484.2 145.7 488.3 148.7 491.3C151.7 494.3 155.8 496 160 496C164.2 496 168.3 494.3 171.3 491.3C174.3 488.3 176 484.2 176 480V192zM304 160C304 121.8 288.8 85.18 261.8 58.18C234.8 31.17 198.2 16 160 16C121.8 16 85.18 31.17 58.18 58.18C31.17 85.18 16 121.8 16 160V352C16 356.2 17.69 360.3 20.69 363.3C23.69 366.3 27.76 368 32 368H128V192C128 183.5 131.4 175.4 137.4 169.4C143.4 163.4 151.5 160 160 160C168.5 160 176.6 163.4 182.6 169.4C188.6 175.4 192 183.5 192 192V368H288C292.2 368 296.3 366.3 299.3 363.3C302.3 360.3 304 356.2 304 352V160z"/></svg>