<svg xmlns="http://www.w3.org/2000/svg" viewBox="0 0 512 512"><!--! Font Awesome Pro 6.1.1 by @fontawesome - https://fontawesome.com License - https://fontawesome.com/license (Commercial License) Copyright 2022 Fonticons, Inc. --><path d="M264 248C264 252.4 260.4 256 256 256C251.6 256 248 252.4 248 248V8C248 3.582 251.6 0 256 0C260.4 0 264 3.582 264 8V248zM40 263.1C40 382.4 136.7 479.1 256 479.1C375.3 479.1 472 382.4 472 263.1C472 179.5 424.5 107 355 71.11C351.1 69.08 349.6 64.25 351.6 60.33C353.6 56.4 358.5 54.86 362.4 56.89C436.1 95.45 488 173.3 488 263.1C488 391.2 384.1 495.1 256 495.1C127.9 495.1 24 391.2 24 263.1C24 173.3 75.01 95.45 149.6 56.89C153.5 54.86 158.4 56.4 160.4 60.33C162.4 64.25 160.9 69.08 156.1 71.11C87.47 107 39.1 179.5 39.1 263.1H40z"/></svg>