<svg xmlns="http://www.w3.org/2000/svg" viewBox="0 0 576 512"><!--! Font Awesome Pro 6.0.0-beta3 by @fontawesome - https://fontawesome.com License - https://fontawesome.com/license (Commercial License) Copyright 2021 Fonticons, Inc. --><path d="M568 0H8C3.594 0 0 3.578 0 8S3.594 16 8 16h560C572.4 16 576 12.42 576 8S572.4 0 568 0zM536 48c-4.406 0-8 3.578-8 8v256c0 13.23-10.78 24-24 24H72c-13.22 0-24-10.77-24-24v-256c0-4.422-3.594-8-8-8S32 51.58 32 56v256C32 334.1 49.94 352 72 352h208v52.69l-93.66 93.66c-3.125 3.125-3.125 8.188 0 11.31s8.188 3.125 11.31 0l87.03-87.03C285.8 423.2 286.7 424 288 424s2.232-.8262 3.314-1.373l87.03 87.03C379.9 511.2 381.9 512 384 512s4.094-.7813 5.656-2.344c3.125-3.125 3.125-8.188 0-11.31L296 404.7V352h208C526.1 352 544 334.1 544 312v-256C544 51.58 540.4 48 536 48z"/></svg>