<svg xmlns="http://www.w3.org/2000/svg" viewBox="0 0 448 512"><!--! Font Awesome Pro 6.0.0-beta3 by @fontawesome - https://fontawesome.com License - https://fontawesome.com/license (Commercial License) Copyright 2021 Fonticons, Inc. --><path d="M299.3 352l146.3-146.3c3.125-3.125 3.125-8.188 0-11.31s-8.188-3.125-11.31 0L288 340.7L171.3 224H176C237.8 224 288 173.8 288 112S237.8 0 176 0H8C3.594 0 0 3.578 0 8v304C0 316.4 3.594 320 8 320S16 316.4 16 312V224h132.7l128 128l-146.3 146.3c-3.125 3.125-3.125 8.188 0 11.31C131.9 511.2 133.9 512 136 512s4.094-.7813 5.656-2.344L288 363.3l146.3 146.3C435.9 511.2 437.9 512 440 512s4.094-.7813 5.656-2.344c3.125-3.125 3.125-8.188 0-11.31L299.3 352zM16 16h160c52.94 0 96 43.06 96 96s-43.06 96-96 96h-160V16z"/></svg>