<svg xmlns="http://www.w3.org/2000/svg" viewBox="0 0 576 512"><!--! Font Awesome Pro 6.0.0-beta3 by @fontawesome - https://fontawesome.com License - https://fontawesome.com/license (Commercial License) Copyright 2021 Fonticons, Inc. --><path d="M535.3 258.1C541.1 238.1 544 216.7 544 195.3C544 114.1 477.6 48 396 48c-41.16 0-80.03 16.9-108 46.65C260 64.9 221.2 48 180 48C98.41 48 32 114.1 32 195.3c0 21.39 2.906 42.83 8.656 63.72c14.29 51.96 47.15 97.49 92.64 129.3l-32.17 44.8c-12.75 17.88-8.562 42.78 9.344 55.48c6.781 4.85 14.81 7.4 23.22 7.4c12.91 0 25.06-6.219 32.56-16.65l40.16-55.95c24.09 7.182 49.02 11.21 74.46 11.21h14.25c25.38 0 50.26-4.025 74.3-11.17l40.32 55.93C417.3 489.8 429.4 496 442.3 496c8.344 0 16.38-2.566 23.22-7.4c17.91-12.73 22.09-37.64 9.281-55.54l-32.12-44.74C488.2 356.5 521.1 310.9 535.3 258.1zM295.1 418.7H280.9c-21.99 0-43.51-3.502-64.46-9.225l29.96-41.73c11.35 1.994 22.91 3.201 34.5 3.201h14.25c11.49 0 22.93-1.197 34.18-3.152l30.09 41.73C338.5 415.2 317 418.7 295.1 418.7zM256.8 353.2c8.646-12.04 22.6-31.46 30.95-43.09l31.11 43.15c-7.865 1.025-15.78 1.734-23.72 1.734H280.9C272.8 354.1 264.8 354.3 256.8 353.2zM433.2 375.1l-85.78-119.5C334.7 237.9 328 217 328 195.3c0-37.31 30.5-67.66 68-67.66S464 157.9 464 195.3c0 14.26-1.969 28.62-5.844 42.71c-6.188 22.51-17.38 42.89-33.19 60.6c-2.938 3.279-2.656 8.301 .6562 11.22c3.312 2.908 8.344 2.658 11.28-.6523c17.5-19.54 29.84-42.07 36.69-66.97C477.8 226.7 480 210.9 480 195.3c0-46.08-37.69-83.57-84-83.57S312 149.2 312 195.3c0 25.11 7.75 49.19 22.44 69.64l127.3 177.4c7.688 10.74 5.188 25.7-5.531 33.33c-10.53 7.385-26.12 4.756-33.5-5.551L276.6 267.3C274 263.8 269 262.1 265.4 265.5C261.9 268.1 261.1 273.1 263.6 276.7l14.27 19.8c-10.44 14.54-41.68 58.03-41.68 58.03l-82.97 115.6c-7.438 10.34-23.12 12.94-33.47 5.566C109 468 106.5 453.1 114.2 442.3l127.4-177.5C256.3 244.4 264 220.4 264 195.3c0-46.08-37.69-83.57-84-83.57S96 149.2 96 195.3C96 210.9 98.16 226.7 102.4 242.2C109.3 267.1 121.6 289.6 139.1 309.1c2.906 3.279 7.969 3.529 11.28 .6523c3.312-2.922 3.594-7.943 .6562-11.22c-15.81-17.71-27-38.09-33.19-60.58C113.1 223.9 112 209.5 112 195.3c0-37.31 30.5-67.66 68-67.66S248 157.9 248 195.3c0 21.78-6.719 42.66-19.44 60.38l-85.79 119.5C100.3 345.4 69.4 303.2 56.09 254.8C50.72 235.3 48 215.2 48 195.3c0-72.41 59.22-131.3 132-131.3c77.03 0 110.4 59.55 117.5 69.44c1.562 2.162 4 3.328 6.5 3.328c1.625 0 3.25-.4824 4.656-1.479c3.594-2.564 4.406-7.539 1.844-11.12l-11.92-16.6c25.08-27.5 60-43.58 97.42-43.58c72.78 0 132 58.92 132 131.3c0 19.98-2.719 40-8.094 59.51C506.6 303.2 475.7 345.4 433.2 375.1z"/></svg>