<svg xmlns="http://www.w3.org/2000/svg" viewBox="0 0 640 512"><!--! Font Awesome Pro 6.1.1 by @fontawesome - https://fontawesome.com License - https://fontawesome.com/license (Commercial License) Copyright 2022 Fonticons, Inc. --><path d="M88 160C92.41 160 96 156.4 96 152v-112C96 26.77 106.8 16 120 16h226.8c6.312 0 12.5 2.562 16.97 7.031l45.25 45.25C413.4 72.75 416 78.94 416 85.25V130.9c5.275-.8901 10.59-1.631 16-2.08V85.25c0-10.69-4.156-20.72-11.72-28.28l-45.25-45.25C367.6 4.266 357.3 0 346.8 0H120C97.94 0 80 17.94 80 40v112C80 156.4 83.59 160 88 160zM637.7 498.3l-94.03-94.03C563.5 381.8 576 352.5 576 320c0-70.69-57.31-128-128-128c-70.69 0-128 57.31-128 128s57.31 128 128 128c32.46 0 61.73-12.47 84.3-32.38l94.03 94.03C627.9 511.2 629.9 512 632 512s4.094-.7813 5.656-2.344C640.8 506.5 640.8 501.5 637.7 498.3zM448 432c-61.76 0-112-50.24-112-112s50.24-112 112-112c61.76 0 112 50.24 112 112S509.8 432 448 432zM104 496C99.59 496 96 492.4 96 488v-144c0-4.406 3.594-8 8-8h152.8C256.4 330.7 256 325.4 256 320H104c-13.22 0-24 10.77-24 24v24H32c-8.824 0-16-7.178-16-16V256c0-26.47 21.53-48 48-48h228.4C296.4 202.4 300.7 197.1 305.3 192H64C28.65 192 0 220.7 0 256v96c0 17.67 14.33 32 32 32H80v104C80 501.2 90.78 512 104 512h304c3.723 0 7.143-1.018 10.29-2.539C401.9 506.9 386.2 502.4 371.5 496H104z"/></svg>