<svg xmlns="http://www.w3.org/2000/svg" viewBox="0 0 640 512"><!--! Font Awesome Pro 6.1.1 by @fontawesome - https://fontawesome.com License - https://fontawesome.com/license (Commercial License) Copyright 2022 Fonticons, Inc. --><path d="M576 216h-128c-4.48 0-8 3.584-8 8S443.5 232 448 232h128c4.48 0 8-3.584 8-8S580.5 216 576 216zM576 96h-108.5C454.7 96 442.2 99.74 432 106.8l-51.52 34.24C362.6 152.9 352 172.9 352 194.2V224H288V64c17.6 0 32-14.34 32-32S305.6 0 288 0H128C110.4 0 96 14.34 96 32s14.4 32 32 32v160H64c0-17.66-14.4-32-32-32S0 206.3 0 224v160c0 17.66 14.4 32 32 32s32-14.34 32-32h288v29.76c0 21.38 10.56 41.38 28.48 53.25L432 501.2C442.2 508.3 454.7 512 467.5 512H576c35.2 0 64-28.64 64-64V160C640 124.6 611.2 96 576 96zM48 384c0 8.832-7.039 16-16 16S16 392.8 16 384V224c0-8.832 7.039-16 16-16S48 215.2 48 224V384zM112 32c0-8.832 7.039-16 16-16h160c8.961 0 16 7.168 16 16S296.1 48 288 48H128C119 48 112 40.83 112 32zM352 368H64v-128h64c8.961 0 16-7.168 16-16V64h128v160c0 8.832 7.039 16 16 16h64V368zM624 448c0 26.5-21.44 48-48 48h-108.5c-9.598 0-18.88-2.816-26.88-8.064l-51.2-34.24C376 444.8 368 429.8 368 413.8V194.2c0-16.03 8-31.04 21.44-39.94l51.2-34.24C448.6 114.8 457.9 112 467.5 112H576c26.56 0 48 21.5 48 48V448zM576 296h-128c-4.48 0-8 3.584-8 8S443.5 312 448 312h128c4.48 0 8-3.584 8-8S580.5 296 576 296zM576 376h-128c-4.48 0-8 3.584-8 8s3.52 8 8 8h128c4.48 0 8-3.584 8-8S580.5 376 576 376z"/></svg>