<svg xmlns="http://www.w3.org/2000/svg" viewBox="0 0 448 512"><!--! Font Awesome Pro 6.0.0-beta3 by @fontawesome - https://fontawesome.com License - https://fontawesome.com/license (Commercial License) Copyright 2021 Fonticons, Inc. --><path d="M377 419.1c43.56-40.89 70.97-98.8 70.97-163.1c0-123.5-100.5-224-223.1-224s-223.1 100.5-223.1 224s100.5 224 223.1 224c53.44 0 102.5-18.88 141.1-50.23l68.88 79.48C435.5 511.1 437.8 512 440 512c2.316 0 7.999-1.835 7.999-8.01c0-1.857-.6425-3.725-1.952-5.24L377 419.1zM224 464c-114.7 0-208-93.31-208-208S109.3 48 224 48s208 93.31 208 208c0 59.5-25.25 113.1-65.43 151l-128.5-148.3c-1.571-1.81-3.795-2.743-6.034-2.743c-2.321 0-8.012 1.812-8.012 8.002c0 1.857 .6425 3.725 1.952 5.24l128.6 148.4C318.9 446.6 273.4 464 224 464z"/></svg>