<svg xmlns="http://www.w3.org/2000/svg" viewBox="0 0 320 512"><!--! Font Awesome Pro 6.0.0-beta3 by @fontawesome - https://fontawesome.com License - https://fontawesome.com/license (Commercial License) Copyright 2021 Fonticons, Inc. --><path d="M144 432C135.2 432 128 439.2 128 448s7.164 16 16 16S160 456.8 160 448S152.8 432 144 432zM211.2 32H108.7C48.78 32 0 81.58 0 142.5V152C0 156.4 3.594 160 8 160S16 156.4 16 152V142.5C16 90.41 57.59 48 108.7 48h102.6C262.4 48 304 90.41 304 142.5c0 34.33-18.31 66-48.09 82.88l-95.28 60.64C145.4 294.6 136 310.9 136 328.6V376C136 380.4 139.6 384 144 384s8-3.578 8-8v-47.41c0-11.89 6.312-22.86 16.84-28.83l95.28-60.64C298.6 219.6 320 182.6 320 142.5C320 81.58 271.2 32 211.2 32z"/></svg>