<svg xmlns="http://www.w3.org/2000/svg" viewBox="0 0 448 512"><!--! Font Awesome Pro 6.1.1 by @fontawesome - https://fontawesome.com License - https://fontawesome.com/license (Commercial License) Copyright 2022 Fonticons, Inc. --><path d="M96 96C42.98 96 0 138.1 0 192s42.98 96 96 96c33.43 0 62.81-17.13 80-43.05V296c0 57.34-46.66 104-104 104C67.58 400 64 403.6 64 408S67.58 416 72 416C138.2 416 192 362.2 192 296V192C192 138.1 149 96 96 96zM96 272C51.89 272 16 236.1 16 192S51.89 112 96 112S176 147.9 176 192S140.1 272 96 272zM352 96c-53.02 0-96 42.98-96 96s42.98 96 96 96c33.43 0 62.81-17.13 80-43.05V296c0 57.34-46.66 104-104 104c-4.422 0-8 3.578-8 8S323.6 416 328 416C394.2 416 448 362.2 448 296V192C448 138.1 405 96 352 96zM352 272c-44.11 0-80-35.89-80-80s35.89-80 80-80s80 35.89 80 80S396.1 272 352 272z"/></svg>