<svg xmlns="http://www.w3.org/2000/svg" viewBox="0 0 448 512"><!--! Font Awesome Pro 6.1.1 by @fontawesome - https://fontawesome.com License - https://fontawesome.com/license (Commercial License) Copyright 2022 Fonticons, Inc. --><path d="M352 224c-33.43 0-62.81 17.13-80 43.05V216c0-57.34 46.66-104 104-104C380.4 112 384 108.4 384 104S380.4 96 376 96C309.8 96 256 149.8 256 216V320c0 53.02 42.98 96 96 96s96-42.98 96-96S405 224 352 224zM352 400c-44.11 0-80-35.89-80-80s35.89-80 80-80s80 35.89 80 80S396.1 400 352 400zM96 224C62.57 224 33.19 241.1 16 267.1V216c0-57.34 46.66-104 104-104C124.4 112 128 108.4 128 104S124.4 96 120 96C53.83 96 0 149.8 0 216V320c0 53.02 42.98 96 96 96s96-42.98 96-96S149 224 96 224zM96 400c-44.11 0-80-35.89-80-80S51.89 240 96 240S176 275.9 176 320S140.1 400 96 400z"/></svg>