<svg xmlns="http://www.w3.org/2000/svg" viewBox="0 0 512 512"><!--! Font Awesome Pro 6.0.0-beta3 by @fontawesome - https://fontawesome.com License - https://fontawesome.com/license (Commercial License) Copyright 2021 Fonticons, Inc. --><path d="M256 303.1c26.5 0 48-21.5 48-48S282.5 207.1 256 207.1S208 229.5 208 255.1S229.5 303.1 256 303.1zM256 224c17.64 0 32 14.36 32 32s-14.36 32-32 32S224 273.6 224 256S238.4 224 256 224zM183.8 255.8c0-4.422-3.594-8-8-8h-133.8c-7.093 0-13.84-3.109-18.5-8.516C18.97 234 17 227.4 17.1 220.7c8.469-57.45 37.72-109.1 82.44-147.9c5.094-4.328 11.62-6.078 18.44-5.078c7.062 1.109 13.25 5.188 17 11.2l70.94 113.3c2.406 3.781 7.344 4.891 11.03 2.531C221.6 192.4 222.7 187.5 220.4 183.8L149.4 70.48C143.2 60.53 132.1 53.78 121.3 51.97C109.9 50.16 98.66 53.39 90.06 60.64C42.41 101 11.19 157.1 2.188 218.4C.5 229.6 3.875 241 11.38 249.7c7.719 8.938 18.88 14.06 30.62 14.06h133.8C180.2 263.8 183.8 260.2 183.8 255.8zM509.8 218.4c-9-61.3-40.22-117.3-87.88-157.7c-8.562-7.266-19.84-10.48-31.28-8.688c-11.62 1.812-21.88 8.562-28.09 18.5l-70.94 113.3c-2.344 3.75-1.219 8.688 2.531 11.03c3.688 2.359 8.656 1.25 11.03-2.531l70.94-113.3c3.75-6 9.938-10.08 17-11.19c6.812-1 13.34 .75 18.44 5.094c44.72 37.88 73.97 90.39 82.44 147.8c1 6.719-.9683 13.33-5.5 18.58c-4.656 5.406-11.41 8.516-18.5 8.516h-133.8c-4.406 0-8 3.578-8 8s3.594 8 8 8h133.8c11.75 0 22.91-5.125 30.63-14.06C508.1 241 511.5 229.6 509.8 218.4zM305.2 319.3c-2.375-3.734-7.344-4.844-11.03-2.531c-3.75 2.344-4.875 7.281-2.531 11.03l70.94 113.4c3.75 6.031 4.719 13.41 2.625 20.22c-2 6.484-6.406 11.52-12.44 14.19c-61.25 27.19-132.3 27.19-193.5 0c-6.031-2.672-10.44-7.703-12.44-14.19c-2.094-6.812-1.125-14.19 2.625-20.2l70.94-113.4C222.7 324 221.6 319.1 217.8 316.7C214.2 314.4 209.2 315.5 206.8 319.3l-70.94 113.4c-6.219 9.969-7.812 22.14-4.375 33.39c3.344 10.81 11.09 19.61 21.25 24.11C185.4 504.6 220.2 512 256 512s70.56-7.359 103.3-21.86c10.16-4.5 17.91-13.3 21.25-24.11c3.438-11.25 1.844-23.42-4.375-33.41L305.2 319.3z"/></svg>