<svg xmlns="http://www.w3.org/2000/svg" viewBox="0 0 512 512"><!--! Font Awesome Pro 6.1.1 by @fontawesome - https://fontawesome.com License - https://fontawesome.com/license (Commercial License) Copyright 2022 Fonticons, Inc. --><path d="M351.1 224c-52.99 0-95.1 43.01-95.1 95.1s43.01 95.1 95.1 95.1s96-43.02 96-96S404.1 224 351.1 224zM351.1 400c-44.11 0-79.1-35.89-79.1-79.1s35.89-79.1 79.1-79.1s79.1 35.89 79.1 79.1S396.1 400 351.1 400zM87.1 264h111.1c4.406 0 7.999-3.6 7.999-8.006c0-4.406-3.593-7.993-7.999-7.993H87.1c-4.406 0-8 3.587-8 7.993C79.1 260.4 83.59 264 87.1 264zM215.1 312H71.1c-4.406 0-8 3.589-8 7.995s3.594 8.004 8 8.004h143.1c4.406 0 7.999-3.598 7.999-8.004S220.4 312 215.1 312zM199.1 376H87.1c-4.406 0-8 3.59-8 7.996s3.594 8.003 8 8.003h111.1c4.406 0 7.999-3.597 7.999-8.003S204.4 376 199.1 376zM447.1 128L134.2 128l372.1-112.3c4.219-1.281 6.625-5.75 5.344-9.968c-1.25-4.218-5.531-6.718-9.969-5.343L78.83 128L64 128c-35.35 0-63.1 28.66-63.1 63.1v255.1c0 35.34 28.65 63.1 63.1 63.1h383.1c35.35 0 63.1-28.66 63.1-63.1V192C511.1 156.7 483.3 128 447.1 128zM495.1 448c0 26.46-21.53 47.1-47.1 47.1H63.1c-26.47 0-47.1-21.53-47.1-47.1V192c0-26.46 21.53-47.1 47.1-47.1h383.1c26.47 0 47.1 21.53 47.1 47.1V448z"/></svg>