<svg xmlns="http://www.w3.org/2000/svg" viewBox="0 0 384 512"><!--! Font Awesome Pro 6.1.1 by @fontawesome - https://fontawesome.com License - https://fontawesome.com/license (Commercial License) Copyright 2022 Fonticons, Inc. --><path d="M16 64V387.8L.009 417.1L0 416V64C0 28.65 28.65 0 64 0H320C355.3 0 384 28.65 384 64V416L383.1 417.1L368 387.8V64C368 37.49 346.5 16 320 16H64C37.49 16 16 37.49 16 64zM252.9 288C267.6 288 281.1 296.1 288.1 309L378.3 476.6C386.1 492.6 375.4 512 357.2 512H26.79C8.628 512-2.953 492.6 5.657 476.6L95.9 309C102.9 296.1 116.4 287.1 131.1 287.1L252.9 288zM19.74 484.2C16.87 489.5 20.73 496 26.79 496H357.2C363.3 496 367.1 489.5 364.3 484.2L274 316.6C269.8 308.8 261.7 304 252.9 304H131.1C122.3 304 114.2 308.8 109.1 316.6L19.74 484.2z"/></svg>