<svg xmlns="http://www.w3.org/2000/svg" viewBox="0 0 512 512"><!--! Font Awesome Pro 6.1.1 by @fontawesome - https://fontawesome.com License - https://fontawesome.com/license (Commercial License) Copyright 2022 Fonticons, Inc. --><path d="M448 64C483.3 64 512 92.65 512 128V384C512 419.3 483.3 448 448 448H64C28.65 448 0 419.3 0 384V128C0 92.65 28.65 64 64 64H448zM448 80H64C37.49 80 16 101.5 16 128V384C16 410.5 37.49 432 64 432H448C474.5 432 496 410.5 496 384V128C496 101.5 474.5 80 448 80z"/></svg>