<svg xmlns="http://www.w3.org/2000/svg" viewBox="0 0 512 512"><!--! Font Awesome Pro 6.1.1 by @fontawesome - https://fontawesome.com License - https://fontawesome.com/license (Commercial License) Copyright 2022 Fonticons, Inc. --><path d="M109.2 153.9L221.2 249.9C222.1 251.4 224 253.7 224 256C224 258.3 222.1 260.6 221.2 262.1L109.2 358.1C105.9 360.1 100.8 360.6 97.93 357.2C95.05 353.9 95.44 348.8 98.79 345.9L203.7 255.1L98.79 166.1C95.44 163.2 95.05 158.1 97.93 154.8C100.8 151.4 105.9 151.1 109.2 153.9V153.9zM408 368C412.4 368 416 371.6 416 376C416 380.4 412.4 384 408 384H200C195.6 384 192 380.4 192 376C192 371.6 195.6 368 200 368H408zM448 32C483.3 32 512 60.65 512 96V416C512 451.3 483.3 480 448 480H64C28.65 480 0 451.3 0 416V96C0 60.65 28.65 32 64 32H448zM448 48H64C37.49 48 16 69.49 16 96V416C16 442.5 37.49 464 64 464H448C474.5 464 496 442.5 496 416V96C496 69.49 474.5 48 448 48z"/></svg>