<svg xmlns="http://www.w3.org/2000/svg" viewBox="0 0 640 512"><!--! Font Awesome Pro 6.1.1 by @fontawesome - https://fontawesome.com License - https://fontawesome.com/license (Commercial License) Copyright 2022 Fonticons, Inc. --><path d="M160 176C186.5 176 208 197.5 208 224C208 250.5 186.5 272 160 272H112V328C112 332.4 108.4 336 104 336C99.58 336 96 332.4 96 328V184C96 179.6 99.58 176 104 176H160zM192 224C192 206.3 177.7 192 160 192H112V256H160C177.7 256 192 241.7 192 224zM256 184C256 179.6 259.6 176 264 176H320C346.5 176 368 197.5 368 224C368 245.9 353.3 264.4 333.3 270.1L366.8 323.8C369.1 327.5 367.1 332.4 364.2 334.8C360.5 337.1 355.6 335.1 353.2 332.2L315.6 272H272V328C272 332.4 268.4 336 264 336C259.6 336 256 332.4 256 328V184zM272 256H320C337.7 256 352 241.7 352 224C352 206.3 337.7 192 320 192H272V256zM552 248V264C552 303.8 519.8 336 480 336C440.2 336 408 303.8 408 264V248C408 208.2 440.2 176 480 176C519.8 176 552 208.2 552 248zM424 264C424 294.9 449.1 320 480 320C510.9 320 536 294.9 536 264V248C536 217.1 510.9 192 480 192C449.1 192 424 217.1 424 248V264zM0 96C0 60.65 28.65 32 64 32H576C611.3 32 640 60.65 640 96V416C640 451.3 611.3 480 576 480H64C28.65 480 0 451.3 0 416V96zM16 96V416C16 442.5 37.49 464 64 464H576C602.5 464 624 442.5 624 416V96C624 69.49 602.5 48 576 48H64C37.49 48 16 69.49 16 96z"/></svg>