<svg xmlns="http://www.w3.org/2000/svg" viewBox="0 0 512 512"><!--! Font Awesome Pro 6.0.0-beta3 by @fontawesome - https://fontawesome.com License - https://fontawesome.com/license (Commercial License) Copyright 2021 Fonticons, Inc. --><path d="M448 32H64C28.65 32 0 60.66 0 96v320c0 35.34 28.65 64 64 64h384c35.35 0 64-28.66 64-64V96C512 60.66 483.3 32 448 32zM496 416c0 26.47-21.53 48-48 48H64c-26.47 0-48-21.53-48-48V96c0-26.47 21.53-48 48-48h384c26.47 0 48 21.53 48 48V416zM221.4 250.1l-112-104C106.2 143.2 101.2 143.3 98.14 146.6C95.13 149.8 95.31 154.8 98.56 157.9L204.3 256l-105.7 98.13c-3.25 3.031-3.438 8.094-.4219 11.31C99.72 367.2 101.9 368 104 368c1.953 0 3.906-.7187 5.438-2.125l112-104C223.1 260.3 224 258.2 224 256S223.1 251.7 221.4 250.1zM408 368h-176C227.6 368 224 371.6 224 376S227.6 384 232 384h176c4.422 0 8-3.594 8-8S412.4 368 408 368z"/></svg>