<svg xmlns="http://www.w3.org/2000/svg" viewBox="0 0 384 512"><!--! Font Awesome Pro 6.0.0-beta3 by @fontawesome - https://fontawesome.com License - https://fontawesome.com/license (Commercial License) Copyright 2021 Fonticons, Inc. --><path d="M320 0H64C28.65 0 0 28.65 0 64v416c0 17.67 14.33 32 32 32h320c17.67 0 32-14.33 32-32V64C384 28.65 355.3 0 320 0zM368 480c0 8.822-7.178 16-16 16H32c-8.822 0-16-7.178-16-16V192H288v184c0 4.406 3.594 8 8 8s8-3.594 8-8V192h64V480zM368 176h-64V72C304 67.58 300.4 64 296 64S288 67.58 288 72V176H16V64c0-26.47 21.53-48 48-48h256c26.47 0 48 21.53 48 48V176z"/></svg>