<svg xmlns="http://www.w3.org/2000/svg" viewBox="0 0 512 512"><!--! Font Awesome Pro 6.1.1 by @fontawesome - https://fontawesome.com License - https://fontawesome.com/license (Commercial License) Copyright 2022 Fonticons, Inc. --><path d="M512 367.1v72C512 444.4 508.4 448 504 448s-8-3.594-8-8V367.1c0-66.16-53.83-120-120-120H29.3l175.1 153.1c3.328 2.906 3.672 7.969 .75 11.31C204.4 415.1 202.2 415.1 200 415.1c-1.875 0-3.75-.6563-5.266-1.969l-192-168C1 244.5 0 242.3 0 239.1c0-2.313 1-4.503 2.734-6.034l192-168c3.312-2.875 8.359-2.563 11.28 .75c2.922 3.344 2.578 8.406-.75 11.31L29.3 231.1H376C450.1 231.1 512 292.1 512 367.1z"/></svg>