<svg xmlns="http://www.w3.org/2000/svg" viewBox="0 0 576 512"><!--! Font Awesome Pro 6.1.1 by @fontawesome - https://fontawesome.com License - https://fontawesome.com/license (Commercial License) Copyright 2022 Fonticons, Inc. --><path d="M20.16 239.1l185.1-161.1C208.6 75.12 208.9 70.06 206 66.71C203.1 63.4 198.1 63.09 194.7 65.96l-192 168C1 235.5 0 237.7 0 239.1c0 2.313 1 4.497 2.734 6.028l192 168C196.3 415.3 198.1 415.1 200 415.1c2.219 0 4.438-.9375 6.016-2.719c2.922-3.344 2.578-8.406-.75-11.31L20.16 239.1zM440 231.1H157.3l175.1-153.1c3.328-2.906 3.672-7.969 .75-11.31c-2.906-3.313-7.953-3.625-11.28-.75l-192 168C129 235.5 128 237.7 128 239.1c0 2.313 1 4.497 2.734 6.028l192 168c1.516 1.312 3.391 1.969 5.266 1.969c2.219 0 4.438-.9375 6.016-2.719c2.922-3.344 2.578-8.406-.75-11.31L157.3 247.1H440c66.17 0 120 53.84 120 120v72C560 444.4 563.6 448 568 448S576 444.4 576 439.1V367.1C576 292.1 514.1 231.1 440 231.1z"/></svg>