<svg xmlns="http://www.w3.org/2000/svg" viewBox="0 0 448 512"><!--! Font Awesome Pro 6.1.1 by @fontawesome - https://fontawesome.com License - https://fontawesome.com/license (Commercial License) Copyright 2022 Fonticons, Inc. --><path d="M224 0C235.7 0 246.9 5.14 254.4 14.06L438.4 230.1C451.2 245 451.2 266.1 438.4 281.9L254.4 497.9C246.8 506.9 235.7 512 224 512C212.3 512 201.2 506.9 193.6 497.9L9.55 281.9C-3.183 266.1-3.183 245 9.55 230.1L193.6 14.06C201.2 5.14 212.3 0 224 0V0zM242.3 24.44C237.7 19.08 231 16 224 16C216.1 16 210.3 19.08 205.7 24.44L21.73 240.4C14.09 249.4 14.09 262.6 21.73 271.6L205.7 487.6C210.3 492.9 216.1 496 224 496C231 496 237.7 492.9 242.3 487.6L426.3 271.6C433.9 262.6 433.9 249.4 426.3 240.4L242.3 24.44z"/></svg>