<svg xmlns="http://www.w3.org/2000/svg" viewBox="0 0 448 512"><!--! Font Awesome Pro 6.1.1 by @fontawesome - https://fontawesome.com License - https://fontawesome.com/license (Commercial License) Copyright 2022 Fonticons, Inc. --><path d="M184.5 406.5l-75.63 84.4c-5.141 5.627-13.64 6.658-21.34 1.594l-64.81-26.23c-3.672-2.501-6-6.283-6.563-10.69c-.5469-4.408 .7656-8.69 3.672-11.97l105.8-118c2.953-3.282 2.672-8.346-.6094-11.32c-3.266-2.876-8.313-2.626-11.3 .6252l-105.9 118.1c-5.938 6.752-8.703 15.72-7.578 24.6c1.109 8.909 6.016 16.88 14.91 22.73l64.78 26.2c5.281 3.626 11.38 5.408 17.47 5.408c8.578 0 17.13-3.532 23.28-10.28l75.67-84.43c2.953-3.282 2.672-8.346-.6094-11.32C192.5 403 187.4 403.3 184.5 406.5zM440 432.9c-63.87-71.34-213.1-238.1-265.4-297.3c14.85-4.857 31.07-7.864 49.29-7.864c18.42 0 34.73 3.167 49.69 8.149c-6.227 7.178-13.62 15.64-23.8 27.14c-2.922 3.314-2.609 8.378 .7031 11.32c1.516 1.344 3.406 2.001 5.297 2.001c2.203 0 4.406-.9065 6-2.688c40.78-46.14 43.02-49.92 43.73-51.17c2.203-3.751 .9532-8.471-2.75-10.75c-3.672-2.376-8.625-1.094-10.98 2.532c-.5332 .8245-3.102 3.952-6.834 8.378c-18.12-6.987-38.39-10.91-61.06-10.91c-22.54 0-42.46 4.242-60.5 11.14c-3.934-4.492-6.822-7.821-7.42-8.604C153.7 110.6 148.8 109.3 145 111.7c-3.766 2.282-4.953 7.221-2.656 10.97c3.297 5.408 200.9 226.3 285.7 320.1c3 3.345 4.344 7.596 3.797 12.03c-.5313 4.283-2.875 8.096-4.938 9.722l-67.94 27.82c-6.188 4.22-14.63 3.22-19.66-2.376L100.1 224.1C57.29 176.5 88.53 123.4 89.9 121.2l42.09-71.05c3.469-5.939 8.125-10.94 13.75-14.85c38.05-25.85 118.4-25.85 156.3-.0625c5.719 3.97 10.36 8.971 13.83 14.94l42.19 71.24c19.42 32.92 15.34 74.09-10.17 102.5L328.1 246.1c-2.938 3.314-2.656 8.378 .6406 11.32c3.281 2.97 8.359 2.626 11.3-.6252l19.81-22.19c30.19-33.6 35.03-82.37 12.03-121.3l-42.17-71.21c-4.625-7.94-10.86-14.69-18.56-20.04C268-7.346 179.1-7.346 136.7 22.07C129.1 27.35 122.8 34.07 118.2 41.98L76.18 112.9c-1.609 2.626-38.63 65.55 11.98 121.9l239.3 266.7C333.7 508.5 342.5 512 350.9 512c5.656 0 11.16-1.594 15.67-4.783l67.89-27.79c7.359-5.002 12.22-12.94 13.31-21.79C448.9 448.7 446 439.7 440 432.9z"/></svg>