<svg xmlns="http://www.w3.org/2000/svg" viewBox="0 0 448 512"><!--! Font Awesome Pro 6.0.0-beta3 by @fontawesome - https://fontawesome.com License - https://fontawesome.com/license (Commercial License) Copyright 2021 Fonticons, Inc. --><path d="M32 320h192v96c0 12.94 7.797 24.61 19.75 29.56C247.7 447.2 251.9 448 255.1 448c8.326 0 16.51-3.25 22.63-9.375l160-160C444.9 272.4 448 264.2 448 256s-3.125-16.38-9.375-22.62l-160-160C272.5 67.25 264.3 64 255.1 64c-4.123 0-8.281 .7969-12.25 2.438C231.8 71.39 224 83.06 224 96v96H32C14.33 192 0 206.3 0 224v64C0 305.7 14.33 320 32 320zM16 224c0-8.822 7.178-16 16-16h208V96c0-6.492 3.877-12.29 9.867-14.78C251.8 80.41 253.9 80 255.1 80c4.273 0 8.291 1.666 11.31 4.689l160 160C430.3 247.7 432 251.7 432 256c0 4.271-1.666 8.289-4.689 11.31l-160 160C264.3 430.3 260.3 432 255.1 432c-2.107 0-4.17-.4102-6.121-1.219C243.9 428.3 240 422.5 240 415.1V304H32C23.18 304 16 296.8 16 288V224z"/></svg>