<svg xmlns="http://www.w3.org/2000/svg" viewBox="0 0 512 512"><!--! Font Awesome Pro 6.1.1 by @fontawesome - https://fontawesome.com License - https://fontawesome.com/license (Commercial License) Copyright 2022 Fonticons, Inc. --><path d="M256 64C114.6 64 0 121.3 0 192v128c0 70.69 114.6 128 256 128s256-57.31 256-128V192C512 121.3 397.4 64 256 64zM256 80c130.1 0 240 51.29 240 112c0 19.59-11.57 38.16-31.45 54.38C418.2 213.6 342.4 192 256 192S93.79 213.6 47.45 246.4C27.57 230.2 16 211.6 16 192C16 131.3 125.9 80 256 80zM451.1 256.1C407.1 284.8 335.4 304 256 304S104.9 284.8 60.9 256.1C104.8 227.3 176.4 208 256 208S407.2 227.3 451.1 256.1zM496 320c0 60.71-109.9 112-240 112S16 380.7 16 320V236.2C52.03 285.1 145.7 320 256 320s203.1-34.92 240-83.8V320z"/></svg>