<svg xmlns="http://www.w3.org/2000/svg" viewBox="0 0 640 512"><!--! Font Awesome Pro 6.1.1 by @fontawesome - https://fontawesome.com License - https://fontawesome.com/license (Commercial License) Copyright 2022 Fonticons, Inc. --><path d="M422.6 32C446 32 466.1 46.58 475.1 68.55L509.5 161.5C504.2 162.4 498.9 163.7 493.9 165.3L460.1 74.11C454.3 58.42 439.3 48 422.6 48H328V104C328 108.4 324.4 112 320 112C315.6 112 312 108.4 312 104V48H217.4C200.7 48 185.7 58.42 179.9 74.11L55.45 410.1C45.78 436.2 65.1 464 92.96 464H312V408C312 403.6 315.6 400 320 400C324.4 400 328 403.6 328 408V464H384V480H92.96C53.96 480 26.9 441.1 40.45 404.6L164.9 68.55C173 46.58 193.1 32 217.4 32L422.6 32zM328 312C328 316.4 324.4 320 320 320C315.6 320 312 316.4 312 312V200C312 195.6 315.6 192 320 192C324.4 192 328 195.6 328 200V312zM528 192C563.3 192 592 220.7 592 256V320H608C625.7 320 640 334.3 640 352V480C640 497.7 625.7 512 608 512H448C430.3 512 416 497.7 416 480V352C416 334.3 430.3 320 448 320H464V256C464 220.7 492.7 192 528 192zM528 208C501.5 208 480 229.5 480 256V320H576V256C576 229.5 554.5 208 528 208zM432 352V480C432 488.8 439.2 496 448 496H608C616.8 496 624 488.8 624 480V352C624 343.2 616.8 336 608 336H448C439.2 336 432 343.2 432 352z"/></svg>