<svg xmlns="http://www.w3.org/2000/svg" viewBox="0 0 640 512"><!--! Font Awesome Pro 6.1.1 by @fontawesome - https://fontawesome.com License - https://fontawesome.com/license (Commercial License) Copyright 2022 Fonticons, Inc. --><path d="M480 192C484.4 192 488 195.6 488 200V312C488 316.4 484.4 320 480 320C475.6 320 472 316.4 472 312V200C472 195.6 475.6 192 480 192zM384 0H576C611.3 0 640 28.65 640 64V448C640 483.3 611.3 512 576 512H384C348.7 512 320 483.3 320 448V64C320 28.65 348.7 0 384 0zM576 16H488V96C488 100.4 484.4 104 480 104C475.6 104 472 100.4 472 96V16H384C357.5 16 336 37.49 336 64V448C336 474.5 357.5 496 384 496H472V416C472 411.6 475.6 408 480 408C484.4 408 488 411.6 488 416V496H576C602.5 496 624 474.5 624 448V64C624 37.49 602.5 16 576 16zM8 96H288V112H232V192H288V208H8C3.582 208 0 204.4 0 200C0 195.6 3.582 192 8 192H88V112H8C3.582 112 0 108.4 0 104C0 99.58 3.582 96 8 96zM216 112H104V192H216V112zM272 304H288V320H272C232.2 320 200 352.2 200 392V472C200 494.1 182.1 512 160 512H128C105.9 512 88 494.1 88 472V392C88 352.2 55.76 320 16 320H8C3.582 320 0 316.4 0 312C0 307.6 3.582 304 8 304H16C64.6 304 104 343.4 104 392V472C104 485.3 114.7 496 128 496H160C173.3 496 184 485.3 184 472V392C184 343.4 223.4 304 272 304z"/></svg>