<svg xmlns="http://www.w3.org/2000/svg" viewBox="0 0 640 512"><!--! Font Awesome Pro 6.0.0-beta3 by @fontawesome - https://fontawesome.com License - https://fontawesome.com/license (Commercial License) Copyright 2021 Fonticons, Inc. --><path d="M224 208C197.5 208 176 229.5 176 256S197.5 304 224 304S272 282.5 272 256S250.5 208 224 208zM224 288C206.3 288 192 273.7 192 256s14.33-32 32-32c17.67 0 32 14.33 32 32S241.7 288 224 288zM40 208L64 208c4.406 0 8-3.633 8-8.039S68.41 192 64 192H40C17.94 192 0 209.9 0 232v144C0 398.1 17.94 416 40 416H64c4.406 0 8-3.594 8-8S68.34 400 63.94 400H40c-13.22 0-24-10.78-24-24v-144C16 218.8 26.78 208 40 208zM416 208c-26.47 0-48 21.53-48 48s21.53 48 48 48s48-21.53 48-48S442.5 208 416 208zM416 288c-17.67 0-32-14.33-32-32s14.33-32 32-32c17.67 0 32 14.33 32 32S433.7 288 416 288zM448 96h-120V8C328 3.594 324.4 0 320 0S312 3.594 312 8V96H192C138.1 96 96 138.1 96 192v224c0 53.02 42.98 96 96 96h256c53.02 0 96-42.98 96-96V192C544 138.1 501 96 448 96zM528 400h-40c-4.406 0-8 3.594-8 8S483.6 416 488 416h40c0 44.11-35.89 80-80 80H192c-44.11 0-80-35.89-80-80h40C156.4 416 160 412.4 160 408S156.4 400 152 400H112V192c0-44.11 35.89-80 80-80h256c44.11 0 80 35.89 80 80V400zM600 192H576c-4.406 0-8 3.594-8 8s3.656 8 8.062 8H600c13.22 0 24 10.78 24 24v144c0 13.22-10.78 24-24 24L576 399.1c-4.406 0-8 3.633-8 8.039S571.6 416 576 416h24c22.06 0 40-17.94 40-40v-144C640 209.9 622.1 192 600 192zM248 400h-48C195.6 400 192 403.6 192 408S195.6 416 200 416h48C252.4 416 256 412.4 256 408S252.4 400 248 400zM344 400h-48C291.6 400 288 403.6 288 408S291.6 416 296 416h48c4.406 0 8-3.594 8-8S348.4 400 344 400zM440 400h-48c-4.406 0-8 3.594-8 8S387.6 416 392 416h48c4.406 0 8-3.594 8-8S444.4 400 440 400z"/></svg>