<svg xmlns="http://www.w3.org/2000/svg" viewBox="0 0 512 512"><!--! Font Awesome Pro 6.0.0-beta3 by @fontawesome - https://fontawesome.com License - https://fontawesome.com/license (Commercial License) Copyright 2021 Fonticons, Inc. --><path d="M303.1 96c-8.836 0-16 7.162-16 16c0 8.836 7.164 16 16 16s16-7.164 16-16C319.1 103.2 312.8 96 303.1 96zM312 304H199.1c-4.406 0-8 3.578-8 8s3.594 8 8 8h112c4.406 0 8-3.578 8-8S316.4 304 312 304zM312 240H199.1c-4.406 0-8 3.578-8 8S195.6 256 199.1 256h112c4.406 0 8-3.578 8-8S316.4 240 312 240zM511 500.1l-47-85.47V227.6C464 199.1 440.9 176 412.4 176h-12.36l-.002-25.71C400 94.64 358.1 0 255.1 0c-79.53 0-144 64.47-144 144l.002 32H99.62c-28.51 0-51.63 23.11-51.63 51.63v187l-47 85.47C.3281 501.3 0 502.7 0 503.1C0 508.1 3.316 512 7.994 512h103.1c8.836 0 16-7.164 16-16l.0039-104L183.1 448h144l56-56L384 496c0 8.836 7.164 16 16 16h104C508.7 512 512 508.2 512 503.1C512 502.7 511.7 501.3 511 500.1zM21.53 496l41.47-75.41c.6562-1.188 1-2.516 1-3.859V227.6C63.99 207.1 79.96 192 99.62 192h12.37l.002 304H21.53zM321.4 432H190.6l-62.63-62.63L127.1 192h256l.002 177.4L321.4 432zM384 176H127.1v-32c0-70.58 57.42-128 128-128s128 57.42 128 128V176zM400 496L400 192h12.38c19.66 0 35.63 15.98 35.63 35.64v189.1c0 1.344 .3438 2.672 1 3.859L490.5 496H400zM224 56C201.9 56 183.1 73.94 183.1 96S201.9 136 224 136c22.06 0 40-17.94 40-40S246.1 56 224 56zM224 120C210.8 120 199.1 109.2 199.1 96S210.8 72 224 72c13.22 0 24 10.77 24 24S237.2 120 224 120z"/></svg>