<svg xmlns="http://www.w3.org/2000/svg" viewBox="0 0 512 512"><!--! Font Awesome Pro 6.0.0-beta3 by @fontawesome - https://fontawesome.com License - https://fontawesome.com/license (Commercial License) Copyright 2021 Fonticons, Inc. --><path d="M424 144C424 174.9 398.9 200 368 200C337.1 200 312 174.9 312 144C312 113.1 337.1 88 368 88C398.9 88 424 113.1 424 144zM368 184C390.1 184 408 166.1 408 144C408 121.9 390.1 104 368 104C345.9 104 328 121.9 328 144C328 166.1 345.9 184 368 184zM166.5 394.8L115.8 344.1C106.6 334.9 103.9 321.1 109.1 309.2C111.7 303.2 114.9 296 118.5 288H25.89C8.047 288-3.556 269.2 4.422 253.3L51.58 158.1C61.06 139.1 80.45 128 101.7 128H199.9C202.4 124 204.8 120.3 207.2 116.7C289.1-4.07 411.1-8.142 483.9 5.275C495.6 7.414 504.6 16.43 506.7 28.06C520.1 100.9 516.1 222.9 395.3 304.8C391.7 307.2 387.1 309.6 384 312.1V410.3C384 431.5 372 450.9 353 460.4L258.7 507.6C242.8 515.6 223.1 503.1 223.1 486.1V391.8C215.2 395.6 207.4 398.9 200.1 401.7C189.1 406.6 175.5 403.9 166.5 394.8L166.5 394.8zM127.1 332.8L177.8 383.5C182.4 388 189 389.3 194.8 386.9C237.1 369.1 335.2 326.2 386.3 291.5C499.6 214.7 503.8 100.7 490.1 30.95C490.1 25.86 486.1 21.95 481 21.01C411.3 8.171 297.3 12.36 220.5 125.7C185.1 176.6 142.2 273.5 123.8 315.6C121.2 321.4 122.5 328.2 127.1 332.8V332.8zM25.89 272H125.7C143.2 233.7 167.3 183.2 190.2 144H101.7C86.51 144 72.66 152.6 65.89 166.1L18.73 260.4C16.07 265.7 19.94 272 25.89 272H25.89zM239.1 486.1C239.1 492.1 246.3 495.9 251.6 493.3L345.9 446.1C359.4 439.3 368 425.5 368 410.3V321.7C328.9 344.2 278.5 367.8 239.1 384.8V486.1z"/></svg>