<svg xmlns="http://www.w3.org/2000/svg" viewBox="0 0 384 512"><!--! Font Awesome Pro 6.1.1 by @fontawesome - https://fontawesome.com License - https://fontawesome.com/license (Commercial License) Copyright 2022 Fonticons, Inc. --><path d="M232 32C307.1 32 368 92.89 368 168C368 243.1 307.1 304 232 304H80V368H312C316.4 368 320 371.6 320 376C320 380.4 316.4 384 312 384H80V464C80 468.4 76.42 472 72 472C67.58 472 64 468.4 64 464V384H8C3.582 384 0 380.4 0 376C0 371.6 3.582 368 8 368H64V304H8C3.582 304 0 300.4 0 296C0 291.6 3.582 288 8 288H64V64.69C64 46.63 78.63 32 96.69 32H232zM352 168C352 101.7 298.3 48 232 48H96.69C87.47 48 80 55.47 80 64.69V288H232C298.3 288 352 234.3 352 168z"/></svg>