<svg xmlns="http://www.w3.org/2000/svg" viewBox="0 0 512 512"><!--! Font Awesome Pro 6.0.0-beta3 by @fontawesome - https://fontawesome.com License - https://fontawesome.com/license (Commercial License) Copyright 2021 Fonticons, Inc. --><path d="M464 304h-256v-256c0-26.4-21.6-48-48-48L48 0C21.6 0 0 21.6 0 48v416C0 490.4 21.6 512 48 512h416c26.4 0 48-21.6 48-48V352C512 325.6 490.4 304 464 304zM496 464c0 17.64-14.36 32-32 32h-416c-17.64 0-32-14.36-32-32v-416c0-17.64 14.36-32 32-32H160c17.64 0 32 14.36 32 32v64H104C99.58 112 96 115.6 96 120S99.58 128 104 128H192v80H104C99.58 208 96 211.6 96 216S99.58 224 104 224H192v80H104C99.58 304 96 307.6 96 312S99.58 320 104 320H192v88C192 412.4 195.6 416 200 416s8-3.594 8-8V320H288v88c0 4.406 3.578 8 8 8s8-3.594 8-8V320H384v88c0 4.406 3.578 8 8 8s8-3.594 8-8V320h64c17.64 0 32 14.36 32 32V464z"/></svg>