<svg xmlns="http://www.w3.org/2000/svg" viewBox="0 0 512 512"><!--! Font Awesome Pro 6.0.0-beta3 by @fontawesome - https://fontawesome.com License - https://fontawesome.com/license (Commercial License) Copyright 2021 Fonticons, Inc. --><path d="M512 138.4c0-12.3-4.667-24.61-14-33.94l-90.51-90.51C398.2 4.666 385.9 0 373.6 0C361.2 0 348.9 4.666 339.6 14L14 339.6c-9.334 9.334-14 21.64-14 33.94s4.667 24.61 14 33.94l90.51 90.51C113.8 507.3 126.1 512 138.5 512c12.3 0 24.61-4.668 33.94-14L497.1 172.4C507.3 163.1 512 150.8 512 138.4zM496 138.4c0 8.195-3.119 16.39-9.357 22.63L161.1 486.7C155.1 492.7 147 496 138.5 496c-8.584 0-16.62-3.309-22.63-9.314l-90.51-90.51c-6.238-6.238-9.357-14.43-9.357-22.63s3.119-16.39 9.357-22.63l55.32-55.32l49.67 49.67c1.559 1.559 3.608 2.341 5.658 2.341c4.529 0 7.996-3.689 7.996-7.997c0-2.049-.7817-4.098-2.342-5.657l-49.67-49.67l56.57-56.57l49.67 49.67c1.56 1.56 3.609 2.342 5.658 2.342c4.608 0 7.997-3.768 7.997-7.996c0-2.05-.7817-4.099-2.341-5.658l-49.67-49.67L216.4 159.8l49.67 49.67c1.559 1.559 3.608 2.341 5.659 2.341c4.536 0 7.997-3.693 7.997-7.997c0-2.05-.7817-4.1-2.341-5.659l-49.67-49.67l56.57-56.57l49.67 49.67c1.559 1.559 3.608 2.341 5.658 2.341c4.245 0 7.996-3.411 7.996-7.997c0-2.05-.7817-4.099-2.342-5.658l-49.67-49.67l55.32-55.32C356.9 19.31 364.1 16 373.6 16c8.584 0 16.62 3.307 22.63 9.314l90.51 90.51C492.9 122.1 496 130.3 496 138.4z"/></svg>