<svg xmlns="http://www.w3.org/2000/svg" viewBox="0 0 512 512"><!--! Font Awesome Pro 6.1.1 by @fontawesome - https://fontawesome.com License - https://fontawesome.com/license (Commercial License) Copyright 2022 Fonticons, Inc. --><path d="M448 304C483.3 304 512 332.7 512 368V448C512 483.3 483.3 512 448 512H64C33.07 512 7.268 490.1 1.3 460.9C.4477 456.7 0 452.4 0 448V64C0 28.65 28.65 0 64 0H144C179.3 0 208 28.65 208 64V304H448zM192 208V128H104C99.58 128 96 124.4 96 120C96 115.6 99.58 112 104 112H192V64C192 37.49 170.5 16 144 16H64C37.49 16 16 37.49 16 64V448C16 451.3 16.34 454.6 16.98 457.7C21.45 479.6 40.82 496 64 496H448C474.5 496 496 474.5 496 448V368C496 341.5 474.5 320 448 320H400V408C400 412.4 396.4 416 392 416C387.6 416 384 412.4 384 408V320H304V408C304 412.4 300.4 416 296 416C291.6 416 288 412.4 288 408V320H208V408C208 412.4 204.4 416 200 416C195.6 416 192 412.4 192 408V320H104C99.58 320 96 316.4 96 312C96 307.6 99.58 304 104 304H192V224H104C99.58 224 96 220.4 96 216C96 211.6 99.58 208 104 208H192z"/></svg>