<svg xmlns="http://www.w3.org/2000/svg" viewBox="0 0 512 512"><!--! Font Awesome Pro 6.1.1 by @fontawesome - https://fontawesome.com License - https://fontawesome.com/license (Commercial License) Copyright 2022 Fonticons, Inc. --><path d="M29.25 413.3C4.26 388.3 4.26 347.7 29.25 322.7L322.7 29.25C347.7 4.261 388.3 4.261 413.3 29.25L482.7 98.75C507.7 123.7 507.7 164.3 482.7 189.3L189.3 482.7C164.3 507.7 123.7 507.7 98.74 482.7L29.25 413.3zM40.57 401.9L110.1 471.4C128.8 490.2 159.2 490.2 177.9 471.4L471.4 177.9C490.2 159.2 490.2 128.8 471.4 110.1L401.9 40.57C383.2 21.82 352.8 21.82 334.1 40.57L288.1 85.66L341.7 138.3C344.8 141.5 344.8 146.5 341.7 149.7C338.5 152.8 333.5 152.8 330.3 149.7L277.7 96.97L224.1 149.7L277.7 202.3C280.8 205.5 280.8 210.5 277.7 213.7C274.5 216.8 269.5 216.8 266.3 213.7L213.7 160.1L160.1 213.7L213.7 266.3C216.8 269.5 216.8 274.5 213.7 277.7C210.5 280.8 205.5 280.8 202.3 277.7L149.7 224.1L96.97 277.7L149.7 330.3C152.8 333.5 152.8 338.5 149.7 341.7C146.5 344.8 141.5 344.8 138.3 341.7L85.66 288.1L40.57 334.1C21.82 352.8 21.82 383.2 40.57 401.9L40.57 401.9z"/></svg>