<svg xmlns="http://www.w3.org/2000/svg" viewBox="0 0 448 512"><!--! Font Awesome Pro 6.1.1 by @fontawesome - https://fontawesome.com License - https://fontawesome.com/license (Commercial License) Copyright 2022 Fonticons, Inc. --><path d="M0 72C0 49.91 17.91 32 40 32H120C195.1 32 256 92.89 256 168C256 236.7 205.1 293.5 138.9 302.7L199.5 469.3C201 473.4 198.9 478 194.7 479.5C190.6 481 185.1 478.9 184.5 474.7L122.4 303.1C121.6 303.1 120.8 303.1 120 303.1H16V472C16 476.4 12.42 480 8 480C3.582 480 .0003 476.4 .0003 472L0 72zM16 288H120C186.3 288 240 234.3 240 168C240 101.7 186.3 48 120 48H40C26.75 48 16 58.75 16 72V288zM379 209.9C330.1 201.2 293.8 222.6 288.9 254.3C287.2 265.1 288.4 274.1 291.4 282.2C294.4 289.4 299.5 295.4 306.3 300.7C320.2 311.4 340.1 318.2 361.9 325.7L362.9 326C384.4 333.4 407.6 341.4 424.2 355.1C432.7 362.1 439.6 370.7 443.8 381.6C447.9 392.5 449.1 405.1 446.9 419.8C443.2 443.8 429.4 461 409.5 470.7C389.8 480.2 364.8 482.3 338.2 477.6L338.1 477.6C329.5 475.1 317.9 472.1 306.9 468.1C299.6 465.4 292.2 462.6 285.9 460.1C282.6 458.9 279.7 457.7 277.2 456.8C273 455.2 270.1 450.6 272.5 446.5C274.1 442.4 278.7 440.3 282.8 441.8C285.6 442.9 288.6 444 291.9 445.3C298.1 447.7 305.2 450.4 312.3 453C323.3 457.1 333.8 460.5 341 461.8C365.4 466.1 386.8 463.9 402.5 456.3C417.9 448.8 428.2 435.1 431.1 417.4C432.1 404.9 431.8 395.1 428.8 387.3C425.8 379.5 420.8 373 413.1 367.5C400.1 355.1 379.8 348.7 357.7 341.2L355.3 340.3C334.7 333.3 312.5 325.7 296.5 313.4C288 306.8 280.9 298.7 276.6 288.4C272.3 277.1 270.1 265.9 273.1 251.9C279.9 207.1 328.8 184.7 381.8 194.2C389.8 195.6 413.9 200.9 422.3 203.4C426.5 204.7 428.9 209.1 427.7 213.4C426.4 217.6 421.9 220 417.7 218.7C410.1 216.4 386.6 211.3 378.1 209.9H379z"/></svg>