<svg xmlns="http://www.w3.org/2000/svg" viewBox="0 0 384 512"><!--! Font Awesome Pro 6.0.0-beta3 by @fontawesome - https://fontawesome.com License - https://fontawesome.com/license (Commercial License) Copyright 2021 Fonticons, Inc. --><path d="M212.1 480c-50.04 0-110.6-12.65-174.8-37.5c-4.123-1.594-6.184-6.218-4.591-10.34c1.577-4.156 6.216-6.281 10.34-4.593c81.35 31.43 189.5 52.99 249.4 19.4c22.82-12.81 36.86-33.03 41.76-60.06c14.45-79.74-62.63-100.8-144.2-123.1C104.9 240.7 17.09 216.7 34.14 122.5c5.013-27.59 20.57-50.49 44.96-66.24c46.45-29.9 121.6-32.15 223.4-6.624c4.279 1.062 6.872 5.406 5.81 9.686c-1.093 4.312-5.45 6.999-9.714 5.812c-95.91-24.06-168.8-22.53-210.8 4.593C61.77 86.45 52.8 109.2 49.88 125.3C35.44 205.1 112.5 226.1 194.1 248.4c84.96 23.19 172.8 47.18 155.8 141.4c-5.794 31.93-22.5 55.87-49.68 71.12C277.4 473.7 247.4 480 212.1 480z"/></svg>