<svg xmlns="http://www.w3.org/2000/svg" viewBox="0 0 512 512"><!--! Font Awesome Pro 6.1.1 by @fontawesome - https://fontawesome.com License - https://fontawesome.com/license (Commercial License) Copyright 2022 Fonticons, Inc. --><path d="M0 416C0 262.9 105.1 170.8 165.7 129.2C170.4 125.1 174.9 123 179 120.4L121.9 37.62C110.1 21.7 122.4 0 141.7 0H370.3C389.6 0 401 21.7 390.1 37.62L332.1 120.4C337.1 123 341.6 125.1 346.3 129.2C406.9 170.8 512 262.9 512 416C512 469 469 512 416 512H96C42.98 512 0 469 0 416zM315.2 127.1H196.8L187.6 133.9C131.8 169.6 16 259.6 16 416C16 460.2 51.82 496 96 496H416C460.2 496 496 460.2 496 416C496 259.6 380.2 169.6 324.4 133.9L315.2 127.1zM376.9 28.54C380.5 23.23 376.7 15.1 370.3 15.1H141.7C135.3 15.1 131.5 23.23 135.1 28.54L192.7 111.1H319.3L376.9 28.54z"/></svg>