<svg xmlns="http://www.w3.org/2000/svg" viewBox="0 0 512 512"><!--! Font Awesome Pro 6.1.1 by @fontawesome - https://fontawesome.com License - https://fontawesome.com/license (Commercial License) Copyright 2022 Fonticons, Inc. --><path d="M480 320H32c-17.62 0-32 14.38-32 32v64c0 17.62 14.38 32 32 32h448c17.62 0 32-14.38 32-32v-64C512 334.4 497.6 320 480 320zM389.6 336L320 382.4L250.4 336H389.6zM496 416c0 8.822-7.178 16-16 16H32c-8.822 0-16-7.178-16-16v-64c0-8.822 7.178-16 16-16h189.6l93.98 62.66C316.9 399.6 318.4 400 320 400s3.094-.4375 4.438-1.344L418.4 336H480c8.822 0 16 7.178 16 16V416zM48.06 266.6C65 258.3 86.13 248 124.9 248c38.78 0 59.91 10.28 76.84 18.56C217 274.1 229.1 280 256.3 280c27.12 0 39.16-5.938 54.38-13.44C327.6 258.3 348.7 248 387.4 248c38.62 0 59.75 10.28 76.78 18.59c11.94 5.812 22.25 10.84 39 12.62c4.344 .5938 8.344-2.75 8.812-7.125c.4375-4.406-2.719-8.344-7.125-8.812c-13.94-1.469-22.22-5.5-33.75-11.09C452.7 243.2 429.7 232 387.4 232c-42.38 0-65.31 11.19-83.78 20.19C289.2 259.3 279.6 264 256.3 264c-23.47 0-33-4.688-47.5-11.81C190.3 243.2 167.4 232 124.9 232c-42.47 0-65.41 11.19-83.84 20.19C29.56 257.8 21.31 261.8 7.156 263.3C2.781 263.8-.4063 267.7 .0313 272.1C.5 276.5 4.688 279.9 8.844 279.2C25.78 277.4 36.09 272.4 48.06 266.6zM480 64H32C14.38 64 0 78.38 0 96v64c0 17.62 14.38 32 32 32h448c17.62 0 32-14.38 32-32V96C512 78.38 497.6 64 480 64zM496 160c0 8.822-7.178 16-16 16H32C23.18 176 16 168.8 16 160V96c0-8.822 7.178-16 16-16h448c8.822 0 16 7.178 16 16V160z"/></svg>