<svg xmlns="http://www.w3.org/2000/svg" viewBox="0 0 512 512"><!--! Font Awesome Pro 6.1.1 by @fontawesome - https://fontawesome.com License - https://fontawesome.com/license (Commercial License) Copyright 2022 Fonticons, Inc. --><path d="M122.3 173.7C123.9 175.3 125.9 176.1 128 176.1s4.094-.7813 5.656-2.346c3.125-3.127 3.125-8.195 0-11.32L118.6 147.4C109.8 138.5 109.8 124.1 118.6 115.2l93-93.08c8.219-8.258 23.38-8.32 32.09 0l47.06 47.13c3.094 3.096 8.156 3.158 11.31 0c3.125-3.127 3.125-8.193 0-11.32L254.9 10.71C239.8-3.744 214.5-3.432 200.3 10.83l-93.03 93.11C92.34 119 92.34 143.6 107.3 158.7L122.3 173.7zM338.5 285.1l129.1-129.1C476.1 148.2 480 138 480 127.8s-3.854-20.39-11.56-28.18L412.1 43.28c-7.781-7.785-17.97-11.68-28.16-11.68c-10.19 0-20.38 3.895-28.16 11.68L177.6 221.7C154.4 212.7 129.7 207.9 104.8 207.9c-31.98 0-64.15 7.635-93.42 23.38C5.246 234.6 1.186 240.6 .2188 247.7c-1 7.229 1.467 14.55 6.559 19.56l113.2 113.4l-24.12 24.16c-4.744-2.789-9.963-4.822-15.86-4.822c-17.66 0-31.98 14.35-31.98 32.04s14.32 32.04 31.98 32.04c17.66 0 31.98-14.35 31.98-32.04c0-5.912-2.029-11.14-4.814-15.89l24.12-24.16l113.2 113.4c5.09 5.133 12.52 7.51 19.71 6.479c6.996-1.033 12.87-5.068 16.18-11.14c28.31-52.92 30.41-113.2 9.697-166.1L338.5 285.1zM79.98 447.1c-8.816 0-15.1-7.178-15.1-16.01c0-8.834 7.179-16.01 15.1-16.01c8.818 0 15.1 7.177 15.1 16.01C95.97 440.8 88.79 447.1 79.98 447.1zM237.3 184.7l129.9-130.1c4.504-4.508 10.49-6.99 16.85-6.99c6.357 0 12.34 2.482 16.84 6.99l56.26 56.31C461.5 115.4 464 121.4 464 127.8s-2.459 12.4-6.869 16.85l-173.7 173.7c-9.445-19-22.04-36.76-37.75-52.49C230.2 250.4 212.4 238 193.3 228.6L237.3 184.7zM266.2 493c-1.156 2.098-3.25 2.723-4.404 2.879c-.3438 .0625-.7187 .0625-1.094 .0625c-1.873 0-3.717-.7187-4.996-2.004L18.02 255.8c-1.531-1.502-2.281-3.756-1.969-5.947c.1562-1.156 .75-3.283 2.936-4.473C89.39 207.5 177.9 220.7 234.4 277.2C291.7 334.7 304.5 421.4 266.2 493zM500.8 256.9l-47.09-47.17c-3.094-3.127-8.156-3.127-11.31 0c-3.125 3.129-3.125 8.195 0 11.32l47.03 47.1C493.6 272.5 496 278.3 496 284.2c0 6.006-2.406 11.79-6.656 15.98l-93.03 93.08c-8.781 8.789-23.12 8.727-31.97 0l-15.06-15.07c-3.125-3.129-8.188-3.129-11.31 0c-3.125 3.127-3.125 8.193 0 11.32l15.09 15.11c7.562 7.475 17.44 11.23 27.31 11.23s19.75-3.754 27.25-11.26l93-93.05C507.8 304.5 512 294.5 512 284.2C512 274.2 507.9 264.3 500.8 256.9z"/></svg>