<svg xmlns="http://www.w3.org/2000/svg" viewBox="0 0 512 512"><!--! Font Awesome Pro 6.0.0-beta3 by @fontawesome - https://fontawesome.com License - https://fontawesome.com/license (Commercial License) Copyright 2021 Fonticons, Inc. --><path d="M184.2 339.5l24.12-24.14c4.744 2.787 9.844 4.805 15.74 4.805c17.66 0 31.99-14.32 31.99-32c0-17.68-14.33-32.01-31.99-32.01c-17.66 0-31.99 14.32-31.99 32.01c0 5.906 2.16 11.13 4.945 15.88l-24.12 24.14L59.73 214.9C54.64 209.8 47.21 207.4 40.02 208.4C33.03 209.4 27.15 213.5 23.84 219.5c-41.7 77.88-27.8 172.1 34.57 234.5C96.36 492.1 147.6 512 199.3 512c31.98 0 64.15-7.629 93.42-23.36c6.121-3.346 10.18-9.316 11.15-16.35c1-7.223-1.467-14.54-6.559-19.54L184.2 339.5zM224.1 272.1c8.816 0 15.1 7.178 15.1 16S232.1 304.1 224.2 304.1c-8.818 0-15.99-7.182-15.99-16.01S215.3 272.1 224.1 272.1zM285.1 474.5c-70.4 37.89-158.9 24.73-215.4-31.8c-57.34-57.37-70.12-144-31.79-215.6c1.156-2.096 3.25-2.721 4.404-2.877c.3438-.0625 .7187-.0625 1.094-.0625c1.873 0 3.717 .7187 4.996 2.002l237.7 237.9c1.531 1.5 2.281 3.752 1.969 5.941C287.9 471.2 287.3 473.4 285.1 474.5zM192.2 0C187.8 0 184.2 3.596 184.2 8.004s3.5 8 7.904 8c167.5 0 303.9 136.4 303.9 304.1c0 4.408 3.597 8.082 7.999 8.082C508.4 328.2 512 324.6 512 320.2C512 143.6 368.5 0 192.2 0zM192.2 96.05c-4.404 0-7.996 3.596-7.996 8.004s3.5 7.977 7.904 7.977c114.6 0 207.9 93.31 207.9 208.1c0 4.408 3.624 8.082 8.028 8.082c4.402 0 7.994-3.596 7.994-8.004C416.1 196.6 315.6 96.05 192.2 96.05z"/></svg>