<svg xmlns="http://www.w3.org/2000/svg" viewBox="0 0 640 512"><!--! Font Awesome Pro 6.1.1 by @fontawesome - https://fontawesome.com License - https://fontawesome.com/license (Commercial License) Copyright 2022 Fonticons, Inc. --><path d="M141.4 199.1C138.2 194.4 133.1 192 127.1 192c-5.094 0-10.21 2.362-13.36 7.112L5.599 375.1c-3.875 5.781-6.094 12.71-5.5 19.63C5.568 460.4 60.75 512 128 512s122.4-51.58 127.9-117.3c.5937-6.922-1.625-13.85-5.5-19.63L141.4 199.1zM19.19 383.5l108.8-175.5c.0078-.002-.043 0 0 0L127.7 207.6L237.1 384H18.95C19.06 383.8 19.08 383.7 19.19 383.5zM128 496c-55.7 0-102.8-41.71-110.8-96h221.5C230.9 454.3 183.7 496 128 496zM634.4 247.1l-109-175.1c-3.156-4.75-8.267-7.125-13.36-7.125c-5.094 0-10.2 2.375-13.36 7.125l-109 175.1c-3.875 5.781-6.094 12.71-5.5 19.63c5.469 65.67 60.65 117.3 127.9 117.3s122.4-51.59 127.9-117.3C640.5 259.8 638.3 252.9 634.4 247.1zM403.2 255.5l108.8-175.5c.0078-.002-.043 0 0 0l-.2168-.4521L621.1 256h-218.2C403.1 255.8 403.1 255.7 403.2 255.5zM511.1 368c-55.7 0-102.8-41.71-110.8-96h221.5C614.9 326.3 567.7 368 511.1 368zM535.1 496H327.1V127.2c30.46-3.842 54.1-28.87 55.68-59.98l154.9-51.62c4.188-1.406 6.469-5.938 5.062-10.12s-5.906-6.406-10.12-5.062l-150.9 50.3c-6.125-28.96-31.8-50.69-62.58-50.69c-35.35 0-64 28.65-64 63.99c0 9.631 2.287 18.67 6.098 26.86L101.5 144.4C97.28 145.8 95 150.3 96.41 154.5C97.53 157.9 100.7 160 104 160c.8438 0 1.687-.125 2.531-.4062l164.5-54.83C281.2 116.9 295.5 125.1 312 127.2V504c0 4.418 3.575 8 7.993 8h216c4.406 0 7.1-3.578 7.1-8S540.4 496 535.1 496zM272 64c0-26.47 21.53-48 47.1-48s47.1 21.53 47.1 48S346.5 112 320 112S272 90.47 272 64z"/></svg>