<svg xmlns="http://www.w3.org/2000/svg" viewBox="0 0 640 512"><!--! Font Awesome Pro 6.0.0-beta3 by @fontawesome - https://fontawesome.com License - https://fontawesome.com/license (Commercial License) Copyright 2021 Fonticons, Inc. --><path d="M389.6 375.1c-3.875 5.781-6.094 12.71-5.5 19.63C389.6 460.4 444.8 512 512 512s122.4-51.58 127.9-117.3c.5938-6.922-1.625-13.85-5.5-19.63l-109-175.1c-3.156-4.75-8.269-7.112-13.36-7.112c-5.094 0-10.2 2.362-13.36 7.112L389.6 375.1zM621 384h-218.2l109.4-176.4l-.2168 .4521c.043 0-.0078-.002 0 0l108.8 175.5C620.9 383.7 620.9 383.8 621 384zM401.2 400h221.5c-7.926 54.29-55.06 96-110.8 96C456.3 496 409.1 454.3 401.2 400zM.0995 266.7c5.469 65.67 60.65 117.3 127.9 117.3s122.4-51.59 127.9-117.3C256.5 259.8 254.3 252.9 250.4 247.1L141.4 71.13C138.2 66.38 133.1 64 127.1 64s-10.2 2.375-13.36 7.125L5.599 247.1C1.724 252.9-.4943 259.8 .0995 266.7zM237 256H18.88l109.4-176.4L128 80c.043 0-.0078-.002 0 0l108.8 175.5C236.9 255.7 236.9 255.8 237 256zM17.24 272H238.8c-7.926 54.29-55.06 96-110.8 96C72.29 368 25.15 326.3 17.24 272zM96 504c0 4.422 3.594 8 7.1 8h216c4.418 0 7.993-3.582 7.993-8V127.2c16.46-2.076 30.85-10.3 40.96-22.43l164.5 54.83C534.3 159.9 535.2 160 535.1 160c3.344 0 6.469-2.125 7.594-5.469c1.406-4.188-.875-8.719-5.062-10.12l-160.6-53.54c3.811-8.193 6.098-17.23 6.098-26.86c0-35.35-28.66-63.99-64-63.99c-30.78 0-56.45 21.74-62.58 50.69L106.5 .4062C102.3-.9375 97.81 1.281 96.41 5.469s.875 8.719 5.062 10.12l154.9 51.62C257.9 98.33 281.5 123.4 312 127.2V496H104C99.59 496 96 499.6 96 504zM320 112C293.5 112 272 90.47 272 64S293.5 16 319.1 16c26.47 0 47.1 21.53 47.1 48S346.5 112 320 112z"/></svg>