<svg xmlns="http://www.w3.org/2000/svg" viewBox="0 0 512 512"><!--! Font Awesome Pro 6.0.0-beta3 by @fontawesome - https://fontawesome.com License - https://fontawesome.com/license (Commercial License) Copyright 2021 Fonticons, Inc. --><path d="M144 8V56C144 60.42 140.4 64 136 64C131.6 64 128 60.42 128 56V8C128 3.582 131.6 0 136 0C140.4 0 144 3.582 144 8zM272 8V56C272 60.42 268.4 64 264 64C259.6 64 256 60.42 256 56V8C256 3.582 259.6 0 264 0C268.4 0 272 3.582 272 8zM384 8C384 3.582 387.6 0 392 0C396.4 0 400 3.582 400 8V280C400 284.4 396.4 288 392 288C387.6 288 384 284.4 384 280V8zM448 8C448 3.582 451.6 0 456 0C460.4 0 464 3.582 464 8V280C464 284.4 460.4 288 456 288C451.6 288 448 284.4 448 280V8zM320 8C320 3.582 323.6 0 328 0C332.4 0 336 3.582 336 8V56C336 60.42 332.4 64 328 64C323.6 64 320 60.42 320 56V8zM192 8C192 3.582 195.6 0 200 0C204.4 0 208 3.582 208 8V56C208 60.42 204.4 64 200 64C195.6 64 192 60.42 192 56V8zM512 8V280C512 284.4 508.4 288 504 288C499.6 288 496 284.4 496 280V8C496 3.582 499.6 0 504 0C508.4 0 512 3.582 512 8zM64 200C64 177.9 81.91 160 104 160H248C270.1 160 288 177.9 288 200V408C288 430.1 270.1 448 248 448H104C81.91 448 64 430.1 64 408V200zM80 200V408C80 421.3 90.75 432 104 432H248C261.3 432 272 421.3 272 408V200C272 186.7 261.3 176 248 176H104C90.75 176 80 186.7 80 200zM288 96C323.3 96 352 124.7 352 160V448C352 483.3 323.3 512 288 512H64C28.65 512 0 483.3 0 448V160C0 124.7 28.65 96 64 96H288zM288 112H64C37.49 112 16 133.5 16 160V448C16 474.5 37.49 496 64 496H288C314.5 496 336 474.5 336 448V160C336 133.5 314.5 112 288 112z"/></svg>