<svg xmlns="http://www.w3.org/2000/svg" viewBox="0 0 576 512"><!--! Font Awesome Pro 6.1.1 by @fontawesome - https://fontawesome.com License - https://fontawesome.com/license (Commercial License) Copyright 2022 Fonticons, Inc. --><path d="M176 384c0 8.835 7.164 15.1 16 15.1c8.838 0 16-7.164 16-15.1c0-8.837-7.162-15.1-16-15.1C183.2 368 176 375.2 176 384zM80 384c0 8.835 7.164 15.1 16 15.1c8.838 0 16-7.164 16-15.1c0-8.837-7.162-15.1-16-15.1C87.16 368 80 375.2 80 384zM553.4 280.1L43.48 32.84c-4-1.1-8.75-.2812-10.69 3.687c-1.922 3.1-.2656 8.781 3.719 10.69l509.1 247.2C554.7 298.4 560 306.9 560 316.1v123.9c0 13.22-10.77 23.1-24 23.1H40c-13.23 0-24-10.78-24-23.1v-111.1c0-13.22 10.77-23.1 24-23.1H480c4.422 0 8-3.594 8-7.1S484.4 288 480 288H40c-22.06 0-40 17.94-40 39.1v111.1C0 462.1 17.94 480 40 480h496c22.06 0 40-17.94 40-39.1V316.1C576 300.8 567.1 286.7 553.4 280.1z"/></svg>