<svg xmlns="http://www.w3.org/2000/svg" viewBox="0 0 576 512"><!--! Font Awesome Pro 6.1.1 by @fontawesome - https://fontawesome.com License - https://fontawesome.com/license (Commercial License) Copyright 2022 Fonticons, Inc. --><path d="M344 240C344 270.9 318.9 296 288 296C257.1 296 232 270.9 232 240C232 209.1 257.1 184 288 184C318.9 184 344 209.1 344 240zM288 280C310.1 280 328 262.1 328 240C328 217.9 310.1 200 288 200C265.9 200 248 217.9 248 240C248 262.1 265.9 280 288 280zM136 224C149.3 224 160 234.7 160 248V296C160 309.3 149.3 320 136 320H88C74.75 320 64 309.3 64 296V248C64 234.7 74.75 224 88 224H136zM80 296C80 300.4 83.58 304 88 304H136C140.4 304 144 300.4 144 296V248C144 243.6 140.4 240 136 240H88C83.58 240 80 243.6 80 248V296zM416 248C416 234.7 426.7 224 440 224H488C501.3 224 512 234.7 512 248V296C512 309.3 501.3 320 488 320H440C426.7 320 416 309.3 416 296V248zM440 240C435.6 240 432 243.6 432 248V296C432 300.4 435.6 304 440 304H488C492.4 304 496 300.4 496 296V248C496 243.6 492.4 240 488 240H440zM136 352C149.3 352 160 362.7 160 376V424C160 437.3 149.3 448 136 448H88C74.75 448 64 437.3 64 424V376C64 362.7 74.75 352 88 352H136zM80 424C80 428.4 83.58 432 88 432H136C140.4 432 144 428.4 144 424V376C144 371.6 140.4 368 136 368H88C83.58 368 80 371.6 80 376V424zM416 376C416 362.7 426.7 352 440 352H488C501.3 352 512 362.7 512 376V424C512 437.3 501.3 448 488 448H440C426.7 448 416 437.3 416 424V376zM440 368C435.6 368 432 371.6 432 376V424C432 428.4 435.6 432 440 432H488C492.4 432 496 428.4 496 424V376C496 371.6 492.4 368 488 368H440zM296 83.88L402.6 160H520C550.9 160 576 185.1 576 216V456C576 486.9 550.9 512 520 512H56C25.07 512 0 486.9 0 456V216C0 185.1 25.07 160 56 160H173.4L280 83.88V16C280 7.164 287.2 0 296 0H400C408.8 0 416 7.164 416 16V64C416 72.84 408.8 80 400 80H296V83.88zM400 16H296V64H400V16zM560 456V216C560 193.9 542.1 176 520 176H400C398.3 176 396.7 175.5 395.4 174.5L288 97.83L180.6 174.5C179.3 175.5 177.7 176 176 176H56C33.91 176 16 193.9 16 216V456C16 478.1 33.91 496 56 496H224V416C224 380.7 252.7 352 288 352C323.3 352 352 380.7 352 416V496H520C542.1 496 560 478.1 560 456zM240 416V496H336V416C336 389.5 314.5 368 288 368C261.5 368 240 389.5 240 416z"/></svg>