<svg xmlns="http://www.w3.org/2000/svg" viewBox="0 0 576 512"><!--! Font Awesome Pro 6.1.1 by @fontawesome - https://fontawesome.com License - https://fontawesome.com/license (Commercial License) Copyright 2022 Fonticons, Inc. --><path d="M515.5 32H60.5C27.13 32 0 59.81 0 94V160c0 4.406 3.594 8 8 8S16 164.4 16 160V94C16 68.63 35.97 48 60.5 48h455C540 48 560 68.63 560 94v324c0 25.38-19.97 46-44.5 46H320c-4.406 0-8 3.594-8 8S315.6 480 320 480h195.5C548.9 480 576 452.2 576 418V94C576 59.81 548.9 32 515.5 32zM32 416c-17.67 0-32 14.33-32 32s14.33 32 32 32c17.67 0 32-14.33 32-32S49.67 416 32 416zM32 464c-8.822 0-16-7.176-16-16s7.178-16 16-16s16 7.176 16 16S40.82 464 32 464zM8 336C3.594 336 0 339.6 0 344S3.594 352 8 352C74.16 352 128 405.8 128 472C128 476.4 131.6 480 136 480s8-3.594 8-8C144 397 83 336 8 336zM8 240C3.594 240 0 243.6 0 248S3.594 256 8 256C127.1 256 224 352.9 224 472C224 476.4 227.6 480 232 480s8-3.594 8-8C240 344.1 135.9 240 8 240z"/></svg>