<svg xmlns="http://www.w3.org/2000/svg" viewBox="0 0 512 512"><!--! Font Awesome Pro 6.0.0-beta3 by @fontawesome - https://fontawesome.com License - https://fontawesome.com/license (Commercial License) Copyright 2021 Fonticons, Inc. --><path d="M511.2 476.3c1.875 4 .125 8.766-3.875 10.62l-34.98 16.28C460.1 509.3 447.8 512 436.1 512c-27.64 0-52-14.89-66.2-33.48c-24.31-31.83-22.3-72.21 5.125-102.9l106.9-124.9c18.67-19.83 18.62-50.42 .1406-69.9c-9.531-10.03-22.39-15.64-36.23-15.8c-14.45 .5469-26.84 5.156-36.58 14.97l-260.5 276.8c-12.91 12.95-29.78 19.98-47.95 19.62c-18.08-.2344-34.88-7.594-47.3-20.72c-24.53-25.92-24.22-66.25 .6875-91.79l229.8-235.6c23.75-26.4 22.66-67.12-2.703-92.45c-13.12-13.11-30.72-20.5-49.14-19.72C213.7 16.43 196.5 24.19 183.1 37.88L13.61 205.4C10.45 208.5 5.391 208.5 2.297 205.3S-.7656 197.1 2.391 194l170.1-167.2C187.7 10.13 208.9 .5195 231.9 .0195c23.22-.5 44.56 8.156 60.81 24.4c31.38 31.34 32.72 81.71 3.078 114.7l-230.1 235.9c-18.91 19.39-19.14 49.98-.5313 69.63c9.422 9.953 22.17 15.53 35.88 15.72c13.17-.2031 26.59-5.047 36.27-14.77l260.5-276.7c13-13.06 30.56-20.28 48.27-19.84c18.2 .2031 35.13 7.594 47.64 20.79c24.33 25.62 24.4 65.87 .1719 91.59l-106.8 124.8c-26.91 30.11-19.92 62.42-4.453 82.67c16.33 21.38 49.25 36.79 82.78 19.98l35.19-16.38C504.6 470.5 509.4 472.3 511.2 476.3z"/></svg>