<svg xmlns="http://www.w3.org/2000/svg" viewBox="0 0 576 512"><!--! Font Awesome Pro 6.1.1 by @fontawesome - https://fontawesome.com License - https://fontawesome.com/license (Commercial License) Copyright 2022 Fonticons, Inc. --><path d="M568 336H416c-2.438 0-4.734 1.094-6.25 3L384 371.2L358.3 339C356.7 337.1 354.4 336 352 336H280c-4.422 0-8 3.594-8 8v56c0 35.28-28.7 64-64 64s-64-28.72-64-64V259.3l29.66-29.66c3.125-3.125 3.125-8.188 0-11.31L144 188.7V104c0-22.73-10.8-42.79-27.31-56H400c35.3 0 64 28.72 64 64v12.69l-29.66 29.66c-3.125 3.125-3.125 8.188 0 11.31L464 195.3v25.38l-29.66 29.66c-3.125 3.125-3.125 8.188 0 11.31L464 291.3V296c0 4.406 3.578 8 8 8S480 300.4 480 296l.0007-8.001c0-2.125-.8444-4.156-2.344-5.656L451.3 256l26.34-26.34c1.5-1.5 2.344-3.531 2.344-5.656v-32c0-2.125-.8444-4.156-2.344-5.656L451.3 160l26.34-26.34C479.2 132.2 480 130.1 480 128L480 112C480 67.88 444.1 32 400 32H72C32.3 32 0 64.31 0 104v64C0 172.4 3.578 176 8 176h80C92.42 176 96 172.4 96 168S92.42 160 88 160H16L16 104c0-30.88 25.12-56 56-56S128 73.13 128 104L128 192c0 2.125 .8428 4.156 2.343 5.656L156.7 224L130.3 250.3C128.8 251.8 128 253.9 128 256L128 400C128 444.1 163.9 480 208 480h288c44.11 0 80-35.88 80-80v-56C576 339.6 572.4 336 568 336zM560 400c0 35.28-28.7 64-64 64H255.1C275.4 449.4 288 426.1 288 400l.0004-48h60.16l29.59 37c3.031 3.812 9.469 3.812 12.5 0L419.8 352h140.2L560 400z"/></svg>