<svg xmlns="http://www.w3.org/2000/svg" viewBox="0 0 512 512"><!--! Font Awesome Pro 6.0.0-beta3 by @fontawesome - https://fontawesome.com License - https://fontawesome.com/license (Commercial License) Copyright 2021 Fonticons, Inc. --><path d="M493.6 222.1l-45.59-45.59v-64.47c0-26.51-21.49-47.1-48-47.1h-64.47l-45.59-45.59C280.6 9.039 268.3 4.354 256 4.354c-12.28 0-24.57 4.686-33.94 14.06L176.5 64H111.1c-26.51 0-48 21.49-48 47.1v64.47L18.41 222.1c-18.75 18.74-18.75 49.14 0 67.88l45.59 45.59v64.47c0 26.51 21.49 47.1 48 47.1h64.47l45.59 45.59C231.4 502.1 243.7 507.6 256 507.6c12.29 0 24.57-4.687 33.94-14.06l45.59-45.59h64.47c26.51 0 48-21.49 48-47.1v-64.47l45.59-45.59C512.3 271.2 512.3 240.8 493.6 222.1zM482.3 278.6L432 328.9V400c0 17.64-14.36 32-32 32h-71.1l-50.27 50.27C272.6 488.3 264.5 491.6 256 491.6s-16.58-3.33-22.63-9.373L183.1 432H112c-17.64 0-32-14.36-32-32v-71.1L29.72 278.6C23.68 272.6 20.35 264.5 20.35 256S23.68 239.4 29.72 233.4L80 183.1V112c0-17.64 14.36-32 32-32h71.1l50.28-50.27C239.4 23.68 247.5 20.35 256 20.35s16.58 3.328 22.63 9.373L328.9 80H400c17.64 0 32 14.36 32 32v71.1l50.28 50.27C488.3 239.4 491.6 247.5 491.6 256S488.3 272.6 482.3 278.6z"/></svg>