<svg xmlns="http://www.w3.org/2000/svg" viewBox="0 0 512 512"><!--! Font Awesome Pro 6.0.0-beta3 by @fontawesome - https://fontawesome.com License - https://fontawesome.com/license (Commercial License) Copyright 2021 Fonticons, Inc. --><path d="M493.6 222.1L448 176.5V112C448 85.49 426.5 64 400 64h-64.47l-45.59-45.59C280.6 9.039 268.3 4.354 256 4.354c-12.28 0-24.57 4.686-33.94 14.06L176.5 64H112C85.49 64 64 85.49 64 112v64.47L18.41 222.1c-18.75 18.74-18.75 49.14 0 67.88L64 335.5V400C64 426.5 85.49 448 112 448h64.47l45.59 45.59C231.4 502.1 243.7 507.6 256 507.6c12.29 0 24.57-4.688 33.94-14.06L335.5 448H400c26.51 0 48-21.49 48-48v-64.47l45.59-45.59C512.3 271.2 512.3 240.8 493.6 222.1zM482.3 278.6L432 328.9V400c0 17.64-14.36 32-32 32h-71.1l-50.27 50.27C272.6 488.3 264.5 491.6 256 491.6s-16.58-3.33-22.63-9.373L183.1 432H112c-17.64 0-32-14.36-32-32v-71.1L29.72 278.6C23.68 272.6 20.35 264.5 20.35 256S23.68 239.4 29.72 233.4L80 183.1V112c0-17.64 14.36-32 32-32h71.1l50.28-50.27C239.4 23.68 247.5 20.35 256 20.35s16.58 3.328 22.63 9.373L328.9 80H400c17.64 0 32 14.36 32 32v71.1l50.28 50.27C488.3 239.4 491.6 247.5 491.6 256S488.3 272.6 482.3 278.6zM256 352c-8.836 0-16 7.164-16 16S247.2 384 256 384s16-7.164 16-16S264.8 352 256 352zM304.6 128H239.4C204.4 128 176 156.4 176 191.4V202c0 4.422 3.594 8 8 8S192 206.4 192 202V191.4C192 165.3 213.3 144 239.4 144h65.19C330.7 144 352 165.3 352 191.4c0 17.2-9.344 33.08-24.06 41.27l-66.09 33.05C252.3 270.1 246.4 281 246.4 291.9V312c0 4.422 3.594 8 8 8c4.406 0 8-3.578 8-8V291.9c0-5.078 2.75-9.766 6.875-12.06l66.09-33.05C355.5 235.7 368 214.4 368 191.4C368 156.4 339.6 128 304.6 128z"/></svg>