<svg xmlns="http://www.w3.org/2000/svg" viewBox="0 0 192 512"><!--! Font Awesome Pro 6.0.0-beta3 by @fontawesome - https://fontawesome.com License - https://fontawesome.com/license (Commercial License) Copyright 2021 Fonticons, Inc. --><path d="M96 192c35.35 0 64-28.65 64-64c0-35.35-28.65-64-64-64s-63.1 28.65-63.1 64C32 163.3 60.66 192 96 192zM96 80c26.47 0 48 21.53 48 48s-21.53 48-48 48s-48-21.53-48-48S69.54 80 96 80zM97.35 287.1c-9.961 0-19.9 2.391-28.8 7.545c-15.66 9.051-26.41 24.44-29.45 42.25l-22.57 131.7c-2.986 17.32 6.9 34.29 23.49 40.31C44.12 511.3 48.34 511.1 52.51 511.1c12.68 0 24.82-6.602 31.51-18.03l67.69-115.4c9.119-15.58 10.81-34.25 4.652-51.21C147.6 303.1 122.4 287.1 97.35 287.1zM137.9 370.5L70.21 485.9C66.56 492.1 59.78 496 52.51 496c-2.396 0-4.76-.418-7.029-1.24c-9.307-3.377-14.85-12.86-13.18-22.57l22.57-131.7C57.11 327.4 65.02 316.1 76.58 309.4c6.082-3.523 13.26-5.387 20.77-5.387c19.43 0 37.91 12.12 43.96 28.85C145.8 345.3 144.6 359.1 137.9 370.5z"/></svg>