<svg xmlns="http://www.w3.org/2000/svg" viewBox="0 0 512 512"><!--! Font Awesome Pro 6.0.0-beta3 by @fontawesome - https://fontawesome.com License - https://fontawesome.com/license (Commercial License) Copyright 2021 Fonticons, Inc. --><path d="M120 336H64c-26.51 0-48-21.49-48-48V64c0-26.51 21.49-48 48-48h224c26.51 0 48 21.49 48 48v56C336 124.4 339.6 128 344 128S352 124.4 352 120V64c0-35.35-28.65-64-64-64H64C28.65 0 0 28.65 0 64v224c0 35.35 28.65 64 64 64h56C124.4 352 128 348.4 128 344S124.4 336 120 336zM448 160H224C188.7 160 160 188.7 160 224v224c0 35.35 28.65 64 64 64h224c35.35 0 64-28.65 64-64V224C512 188.7 483.3 160 448 160zM496 448c0 26.47-21.53 48-48 48H224c-26.47 0-48-21.53-48-48V224c0-26.47 21.53-48 48-48h224c26.47 0 48 21.53 48 48V448zM424 224h-176C234.8 224 224 234.8 224 248v176C224 437.2 234.8 448 248 448h176c13.22 0 24-10.77 24-24v-176C448 234.8 437.2 224 424 224zM432 424c0 4.406-3.594 8-8 8h-176c-4.406 0-8-3.594-8-8v-176c0-4.406 3.594-8 8-8h176c4.406 0 8 3.594 8 8V424z"/></svg>