<svg xmlns="http://www.w3.org/2000/svg" viewBox="0 0 640 512"><!--! Font Awesome Pro 6.1.1 by @fontawesome - https://fontawesome.com License - https://fontawesome.com/license (Commercial License) Copyright 2022 Fonticons, Inc. --><path d="M216 96C211.6 96 208 99.59 208 104v176C208 284.4 211.6 288 216 288S224 284.4 224 280v-176C224 99.59 220.4 96 216 96zM88 96C83.59 96 80 99.59 80 104v176C80 284.4 83.59 288 88 288S96 284.4 96 280v-176C96 99.59 92.41 96 88 96zM152 96C147.6 96 144 99.59 144 104v176C144 284.4 147.6 288 152 288S160 284.4 160 280v-176C160 99.59 156.4 96 152 96zM384 32H64C28.65 32 0 60.65 0 96v320c0 35.35 28.65 64 64 64h320c35.35 0 64-28.65 64-64V96C448 60.65 419.3 32 384 32zM432 416c0 26.47-21.53 48-48 48H64c-26.47 0-48-21.53-48-48V96c0-26.47 21.53-48 48-48h320c26.47 0 48 21.53 48 48V416zM632 248h-112C515.6 248 512 251.6 512 256s3.578 8 8 8h112C636.4 264 640 260.4 640 256S636.4 248 632 248zM520 128c1.406 0 2.828-.375 4.109-1.125l80-48c3.797-2.281 5.031-7.188 2.75-11c-2.266-3.781-7.203-4.938-10.97-2.75l-80 48c-3.797 2.281-5.031 7.188-2.75 11C514.6 126.6 517.3 128 520 128zM524.1 385.1c-3.719-2.156-8.688-1.031-10.97 2.75c-2.281 3.812-1.047 8.719 2.75 11l80 48C597.2 447.6 598.6 448 600 448c2.703 0 5.359-1.375 6.859-3.875c2.281-3.812 1.047-8.719-2.75-11L524.1 385.1z"/></svg>