<svg xmlns="http://www.w3.org/2000/svg" viewBox="0 0 512 512"><!--! Font Awesome Pro 6.0.0-beta3 by @fontawesome - https://fontawesome.com License - https://fontawesome.com/license (Commercial License) Copyright 2021 Fonticons, Inc. --><path d="M193 224h189.1c25.33 0 41.22-26.69 28.55-48.02L316.6 15.97C310.6 6.125 299.7 0 288 0s-22.55 6.125-28.55 15.97L164.5 175.1C151.8 197.3 167.7 224 193 224zM178.2 184.2l94.9-159.9C276.2 19.18 281.9 16 288 16s11.77 3.178 14.79 8.137l94.99 160c4.1 6.9 1.463 13.05 .1387 15.38C394.9 204.8 389.3 208 382.1 208H193c-6.336 0-11.92-3.164-14.94-8.465C176.8 197.2 174.1 191.1 178.2 184.2zM128 256c-70.75 0-128 57.25-128 128s57.25 128 128 128s128-57.25 128-128S198.8 256 128 256zM128 496c-61.76 0-112-50.24-112-112c0-61.76 50.24-112 112-112s112 50.24 112 112C240 445.8 189.8 496 128 496zM480 272h-160c-17.62 0-32 14.38-32 32v160c0 17.62 14.38 32 32 32h160c17.62 0 32-14.38 32-32v-160C512 286.4 497.6 272 480 272zM496 464c0 8.822-7.178 16-16 16h-160c-8.822 0-16-7.178-16-16v-160C304 295.2 311.2 288 320 288h160c8.822 0 16 7.178 16 16V464z"/></svg>