<svg xmlns="http://www.w3.org/2000/svg" viewBox="0 0 448 512"><!--! Font Awesome Pro 6.1.1 by @fontawesome - https://fontawesome.com License - https://fontawesome.com/license (Commercial License) Copyright 2022 Fonticons, Inc. --><path d="M192 32C249.4 32 296 78.56 296 136V352C296 356.4 292.4 360 288 360C283.6 360 280 356.4 280 352V136C280 87.4 240.6 48 192 48H56C42.75 48 32 58.75 32 72V472C32 476.4 28.42 480 24 480C19.58 480 16 476.4 16 472V72C16 49.91 33.91 32 56 32H192zM192 480C169.9 480 152 462.1 152 440V168C152 163.6 155.6 160 160 160C164.4 160 168 163.6 168 168V440C168 453.3 178.7 464 192 464H328C376.6 464 416 424.6 416 376V40C416 35.58 419.6 32 424 32C428.4 32 432 35.58 432 40V376C432 433.4 385.4 480 328 480H192z"/></svg>