<svg xmlns="http://www.w3.org/2000/svg" viewBox="0 0 512 512"><!--! Font Awesome Pro 6.1.1 by @fontawesome - https://fontawesome.com License - https://fontawesome.com/license (Commercial License) Copyright 2022 Fonticons, Inc. --><path d="M231.1 272C231.1 280.8 224.8 288 215.1 288C207.2 288 199.1 280.8 199.1 272C199.1 263.2 207.2 256 215.1 256C224.8 256 231.1 263.2 231.1 272zM280 272C280 263.2 287.2 256 296 256C304.8 256 312 263.2 312 272C312 280.8 304.8 288 296 288C287.2 288 280 280.8 280 272zM227.3 200H284.7L346.3 138.3C348.6 136.1 352.1 135.4 355.1 136.6C358.1 137.8 360 140.8 360 144V272C360 329.4 313.4 376 255.1 376C198.6 376 151.1 329.4 151.1 272V144C151.1 140.8 153.9 137.8 156.9 136.6C159.9 135.4 163.4 136.1 165.7 138.3L227.3 200zM255.1 360C304.6 360 344 320.6 344 272V163.3L293.7 213.7C292.2 215.2 290.1 215.1 288 215.1H223.1C221.9 215.1 219.8 215.2 218.3 213.7L167.1 163.3V272C167.1 320.6 207.4 360 255.1 360zM476.5 90.53C487.7 95.27 495.2 105.1 495.9 118.1C501.6 213.6 466.7 421.9 272.5 507.7C267.6 510.5 261.1 512.1 256.3 512C250.5 512.1 244.9 510.5 239.1 507.7C45.8 421.9 10.95 213.6 16.57 118.1C17.28 105.1 24.83 95.27 36.04 90.53L240.4 4.066C245.2 1.386 250.7-.0507 256.3-.0068C261.9-.0507 267.3 1.386 272.1 4.066L476.5 90.53zM248.2 18.04C247.7 18.32 247.2 18.58 246.6 18.8L42.27 105.3C36.67 107.6 32.89 112.1 32.54 119.1C27.08 211.9 61.36 411.3 246.4 493.1C246.1 493.3 247.5 493.6 247.1 493.8C250.5 495.3 253.3 496 256.1 496H256.4C259.2 496 262.1 495.3 264.5 493.8C265 493.6 265.5 493.3 266.1 493.1C451.2 411.3 485.4 211.9 479.1 119.1C479.6 112.1 475.8 107.6 470.2 105.3L265.9 18.8C265.4 18.58 264.8 18.32 264.3 18.04C261.9 16.69 259.2 15.97 256.4 15.99L256.1 15.99C253.3 15.97 250.6 16.69 248.2 18.04L248.2 18.04z"/></svg>