<svg xmlns="http://www.w3.org/2000/svg" viewBox="0 0 640 512"><!--! Font Awesome Pro 6.0.0-beta3 by @fontawesome - https://fontawesome.com License - https://fontawesome.com/license (Commercial License) Copyright 2021 Fonticons, Inc. --><path d="M640 504c0-2.357-1.035-4.69-3.019-6.27L12.99 1.73C11.53 .5664 9.771 0 8.025 0C3.804 0 .0007 3.355 .0007 7.992c0 2.357 1.035 4.69 3.019 6.27l623.1 496C628.5 511.4 630.2 512 631.1 512C636.2 512 640 508.6 640 504zM307.7 18.45C310.7 17.21 316.8 16 320.1 16c3.184 0 9.381 1.234 12.28 2.441l192 80.02C536.3 103.4 544 114.1 544 127.1c0 66.11-13.19 128.4-38.05 183.9l12.97 10.32C543.6 268.7 560 204.3 560 127.1c0-19.41-11.69-36.89-29.5-44.28l-192-80C333.6 1.672 325.3 0 320.1 0C314.8 0 306.5 1.672 301.6 3.703L181.3 53.79l14.31 11.37L307.7 18.45zM319.1 496c-40.11 0-201.9-105.9-221.8-324.4L81.08 158C95.34 397.1 272.7 512 319.9 512c36.96 0 102.2-57.63 116.4-71.58l-12.57-9.996C380.1 472.1 335.1 496 319.1 496z"/></svg>