<svg xmlns="http://www.w3.org/2000/svg" viewBox="0 0 512 512"><!--! Font Awesome Pro 6.0.0-beta3 by @fontawesome - https://fontawesome.com License - https://fontawesome.com/license (Commercial License) Copyright 2021 Fonticons, Inc. --><path d="M344 232h-176C163.6 232 160 235.6 160 240s3.594 8 8 8h176C348.4 248 352 244.4 352 240S348.4 232 344 232zM466.5 83.69l-192-80.01C269.6 1.656 261.3 0 256.1 0C250.8 0 242.5 1.656 237.6 3.688l-192 80.01C27.69 91.08 16 108.6 16 127.1C16 385.2 205.2 512 255.1 512C307.1 512 496 383.8 496 127.1C496 108.6 484.3 91.08 466.5 83.69zM255.1 496C212.1 496 32 374 32 127.1c0-12.99 7.732-24.57 19.75-29.54l191.1-79.1C246.7 17.21 252.8 16 256.1 16c3.184 0 9.381 1.234 12.28 2.441l192 80.02C472.3 103.4 480 114.1 480 127.1C480 405.6 270.9 496 255.1 496z"/></svg>