<svg xmlns="http://www.w3.org/2000/svg" viewBox="0 0 512 512"><!--! Font Awesome Pro 6.1.1 by @fontawesome - https://fontawesome.com License - https://fontawesome.com/license (Commercial License) Copyright 2022 Fonticons, Inc. --><path d="M231 7.838C247 1.065 265.1 1.066 281 7.84L457.7 82.79C479.7 92.12 496.2 113.8 496 139.1C495.5 239.2 454.8 420.7 282.4 503.2C265.8 511.1 246.3 511.1 229.6 503.2C57.29 420.7 16.49 239.2 16 139.1C15.87 113.8 32.32 92.12 54.3 82.79L231 7.838zM274.8 22.57C262.8 17.49 249.3 17.49 237.3 22.57L60.55 97.52C43.91 104.6 31.91 120.8 32 139.9C32.48 236.5 72.32 410.1 236.6 488.7C248.8 494.6 263.2 494.6 275.5 488.7C439.7 410.1 479.6 236.5 480 139.9C480.1 120.8 468.1 104.6 451.5 97.52L274.8 22.57z"/></svg>