<svg xmlns="http://www.w3.org/2000/svg" viewBox="0 0 576 512"><!--! Font Awesome Pro 6.1.1 by @fontawesome - https://fontawesome.com License - https://fontawesome.com/license (Commercial License) Copyright 2022 Fonticons, Inc. --><path d="M344 .0003C366.1 .0003 384 17.91 384 40V64H440C462.1 64 480 81.91 480 104V229.7L519 242.3C545.4 250.9 555.3 283 538.3 304.1L454.3 412.9C451.6 416.4 446.6 417 443.1 414.3C439.6 411.6 438.1 406.6 441.7 403.1L525.7 295.1C535.9 281.1 529.9 262.7 514.1 257.6L296 186.1V376C296 380.4 292.4 384 288 384C283.6 384 280 380.4 280 376V186.1L61.9 257.6C46.06 262.7 40.12 281.1 50.34 295.1L134.3 403.1C137 406.6 136.4 411.6 132.9 414.3C129.4 417 124.4 416.4 121.7 412.9L37.72 304.1C20.68 283 30.58 250.9 56.98 242.3L95.1 229.7V104C95.1 81.91 113.9 64 135.1 64H191.1V40C191.1 17.91 209.9 0 231.1 0L344 .0003zM368 64V40C368 26.75 357.3 16 344 16H231.1C218.7 16 207.1 26.75 207.1 40V64H368zM135.1 80C122.7 80 111.1 90.75 111.1 104V224.5L275.7 171.6C283.7 168.1 292.3 168.1 300.3 171.6L464 224.5V104C464 90.75 453.3 80 440 80H135.1zM384 496C406.5 496 428.6 481.8 445.8 466.1C455.1 456.9 465.5 446.6 473.5 435.4C474.1 433.3 477.4 432 480 432C482.6 432 485.1 433.3 486.6 435.4C493.9 445.7 502.5 455 511.6 463.7C527.3 478.5 547.7 492.9 569 495.6C573.4 496.1 576.5 500.1 575.9 504.5C575.4 508.9 571.4 511.1 567 511.4C540.5 508.1 516.1 490.7 500.6 475.3C491.8 466.1 484.7 458.9 480 453.1C474.8 459.5 466.8 468.7 456.6 477.9C438.7 494.2 412.7 512 384 512C355.3 512 329.4 494.2 311.4 477.9C301.3 468.7 293.2 459.5 288 453.1L288 453.1L287.1 453.1C282.8 459.5 274.7 468.7 264.6 477.9C246.6 494.2 220.7 512 191.1 512C163.3 512 137.4 494.2 119.4 477.9C109.2 468.7 101.2 459.5 95.98 453.1C91.29 458.9 84.23 466.1 75.4 475.3C59.03 490.7 35.48 508.1 9.001 511.4C4.617 511.1 .616 508.9 .0637 504.5C-.4887 500.1 2.617 496.1 7.001 495.6C28.3 492.9 48.74 478.5 64.42 463.7C73.56 455 82.16 445.7 89.43 435.4C90.93 433.3 93.37 432 95.98 432C98.59 432 101 433.3 102.5 435.4C110.5 446.6 120 456.9 130.2 466.1C147.4 481.8 169.5 496 191.1 496C214.5 496 236.6 481.8 253.8 466.1C263.9 456.9 273.4 446.6 281.4 435.4C284.4 431.1 291.6 431.1 294.6 435.4C302.6 446.6 312.1 456.9 322.2 466.1C339.5 481.8 361.5 496 384 496H384z"/></svg>