<svg xmlns="http://www.w3.org/2000/svg" viewBox="0 0 640 512"><!--! Font Awesome Pro 6.1.1 by @fontawesome - https://fontawesome.com License - https://fontawesome.com/license (Commercial License) Copyright 2022 Fonticons, Inc. --><path d="M624.1 123.9l-135-106.6C475.8 6.141 458.1 0 439.1 0h-239.1c-18.06 0-35.78 6.141-49.94 17.28l-135 106.6C6.658 130.5 1.409 139.9 .2523 150.5C-.9352 161 2.096 171.3 8.783 179.5l49.97 61.63C72.44 258.1 97.66 260.9 115.1 247.2l36.87-31.28V456c0 30.88 25.12 56 55.1 56h223.1c30.87 0 55.1-25.12 55.1-56V218.1l37.09 29.28c17.22 13.59 42.41 10.83 56.16-6.188l49.97-61.63c6.687-8.234 9.719-18.55 8.531-29.06C638.6 139.9 633.3 130.5 624.1 123.9zM391.2 16C387.1 51.9 356.9 80 320 80s-67.15-28.1-71.19-64H391.2zM618.8 169.5l-49.97 61.63c-8.312 10.2-23.47 11.89-33.78 3.688l-50.06-39.5c-2.406-1.906-5.687-2.219-8.469-.9219c-2.75 1.344-4.5 4.141-4.5 7.203V456c0 22.06-17.94 40-39.1 40H208c-22.06 0-39.1-17.94-39.1-40V198.6c0-3.109-1.812-5.953-4.625-7.266C162.3 190.9 161.2 190.6 160 190.6c-1.844 0-3.687 .6406-5.187 1.891l-49.84 42.27C94.69 243 79.44 241.3 71.19 231.1L21.22 169.5C17.25 164.6 15.44 158.5 16.13 152.3c.7187-6.266 3.844-11.89 8.844-15.83l135-106.6C171.3 20.92 185.5 16 200 16h32.37C236.4 60.8 274.2 96 320 96s83.59-35.2 87.62-80h32.34c14.5 0 28.72 4.922 40.03 13.84l135 106.6c5 3.938 8.125 9.562 8.844 15.83C624.6 158.5 622.7 164.6 618.8 169.5z"/></svg>