<svg xmlns="http://www.w3.org/2000/svg" viewBox="0 0 640 512"><!--! Font Awesome Pro 6.1.1 by @fontawesome - https://fontawesome.com License - https://fontawesome.com/license (Commercial License) Copyright 2022 Fonticons, Inc. --><path d="M.0003 185.8C.0003 179.4 1.606 173.1 4.67 167.4L82.36 25.02C90.77 9.595 106.9 0 124.5 0H515.5C533.1 0 549.2 9.595 557.6 25.02L635.3 167.4C638.4 173.1 640 179.4 640 185.8C640 206.9 622.9 224 601.8 224H576V488C576 501.3 565.3 512 552 512H520C506.7 512 496 501.3 496 488V256C496 251.6 499.6 248 504 248C508.4 248 512 251.6 512 256V488C512 492.4 515.6 496 520 496H552C556.4 496 560 492.4 560 488V224H79.1V464C79.1 481.7 94.33 496 111.1 496H336C353.7 496 368 481.7 368 464V256C368 251.6 371.6 248 376 248C380.4 248 384 251.6 384 256V464C384 490.5 362.5 512 336 512H111.1C85.49 512 63.1 490.5 63.1 464V224H38.25C17.12 224 0 206.9 0 185.8H.0003zM601.8 208C614 208 624 198 624 185.8C624 182 623.1 178.4 621.3 175.1L543.6 32.68C537.1 22.4 527.2 16 515.5 16H124.5C112.8 16 102 22.4 96.4 32.68L18.72 175.1C16.93 178.4 16 182 16 185.8C16 198 25.96 208 38.25 208H601.8zM135.1 248C140.4 248 143.1 251.6 143.1 256V360C143.1 364.4 147.6 368 151.1 368H295.1C300.4 368 303.1 364.4 303.1 360V256C303.1 251.6 307.6 248 311.1 248C316.4 248 319.1 251.6 319.1 256V360C319.1 373.3 309.3 384 295.1 384H151.1C138.7 384 127.1 373.3 127.1 360V256C127.1 251.6 131.6 248 135.1 248V248z"/></svg>