<svg xmlns="http://www.w3.org/2000/svg" viewBox="0 0 512 512"><!--! Font Awesome Pro 6.1.1 by @fontawesome - https://fontawesome.com License - https://fontawesome.com/license (Commercial License) Copyright 2022 Fonticons, Inc. --><path d="M429.7 298.3c-3.125-3.125-8.188-3.125-11.31 0s-3.125 8.188 0 11.31L484.7 376H336c-7.531 0-14.69-3.594-19.19-9.625l-38.41-51.19c-2.656-3.531-7.688-4.156-11.22-1.594c-3.531 2.656-4.25 7.688-1.594 11.22L304 375.1C311.5 386 323.5 392 336 392h148.7l-66.34 66.34c-3.125 3.125-3.125 8.188 0 11.31C419.9 471.2 421.9 472 424 472s4.094-.7813 5.656-2.344l80-80c3.125-3.125 3.125-8.188 0-11.31L429.7 298.3zM336 136h148.7l-66.34 66.34c-3.125 3.125-3.125 8.188 0 11.31C419.9 215.2 421.9 216 424 216s4.094-.7813 5.656-2.344l80-80c3.125-3.125 3.125-8.188 0-11.31l-80-80c-3.125-3.125-8.188-3.125-11.31 0s-3.125 8.188 0 11.31L484.7 120H336c-12.53 0-24.5 6-32 16l-172.8 230.4C126.7 372.4 119.5 376 112 376H8C3.594 376 0 379.6 0 384s3.594 8 8 8H112c12.53 0 24.5-6 32-16l172.8-230.4C321.3 139.6 328.5 136 336 136zM8 136H112c7.531 0 14.69 3.594 19.19 9.625l38.41 51.19C171.2 198.9 173.6 200 176 200c1.688 0 3.375-.5313 4.812-1.594c3.531-2.656 4.25-7.688 1.594-11.22L144 136C136.5 126 124.5 120 112 120H8C3.594 120 0 123.6 0 128S3.594 136 8 136z"/></svg>