<svg xmlns="http://www.w3.org/2000/svg" viewBox="0 0 512 512"><!--! Font Awesome Pro 6.0.0-beta3 by @fontawesome - https://fontawesome.com License - https://fontawesome.com/license (Commercial License) Copyright 2021 Fonticons, Inc. --><path d="M511.7 153.1C501 100.2 446.1 0 318.7 0C229.1 0 152.8 61.41 133.3 149.3C122.7 196.9 134.5 249.1 165.4 292.7C167.1 296.3 172.1 297.1 176.6 294.5c3.594-2.562 4.438-7.562 1.875-11.19C150.1 243.5 139.3 195.9 148.9 152.8c17.88-80.54 87.72-136.8 169.8-136.8c117.9 0 167.5 91.75 177.7 140c-13-17.13-29.22-31.03-48.13-41.22c-45.22-24.88-102.9-23.35-147 3.969c-66.5 41.03-88.19 123.7-51.1 190.5l-29.66 29.03c-3.156 3.094-3.219 8.156-.125 11.31c1.562 1.594 3.656 2.406 5.719 2.406c2.033 0 4.033-.75 5.596-2.281l34.13-33.41c2.658-2.625 3.189-6.719 1.219-9.906c-36.81-60.13-18.09-136.6 42.63-174c39.28-24.35 90.69-25.78 130.1-3.562c16.94 9.156 31.41 21.56 43.06 36.88c4.5 5.938 12.22 7.906 18.94 4.75C509.5 167.4 513.1 160.4 511.7 153.1zM196.5 377.3C196.5 377.3 196.6 377.3 196.5 377.3S196.6 377.3 196.5 377.3L117.6 298.4c-3.156-3.156-8.219-3.094-11.31 0c-3.127 3.125-3.127 8.189 0 11.31l11.4 11.38l-106.8 106.8c-14.47 14.5-14.47 38.07 0 52.57l20.63 20.63C38.73 508.4 48.26 512 57.76 512c9.533 0 19.03-3.594 26.28-10.84L190.9 394.3l11.44 11.43c1.562 1.562 3.625 2.344 5.656 2.344c2.062 0 4.094-.7813 5.656-2.344c3.125-3.125 3.125-8.189 0-11.31L196.5 377.3zM72.73 489.8c-8.25 8.189-21.69 8.252-29.94 0L22.17 469.2c-8.221-8.252-8.221-21.69 0-29.94l106.8-106.8l50.58 50.52L72.73 489.8z"/></svg>