<svg xmlns="http://www.w3.org/2000/svg" viewBox="0 0 384 512"><!--! Font Awesome Pro 6.0.0-beta3 by @fontawesome - https://fontawesome.com License - https://fontawesome.com/license (Commercial License) Copyright 2021 Fonticons, Inc. --><path d="M352 136V64H25.31l172.8 186.8c2.531 3 2.531 7.375 0 10.38L25.31 448H352v-72c0-4.406 3.594-8 8-8s8 3.594 8 8v80c0 4.406-3.594 8-8 8H7.996c-3.125 0-5.969-1.812-7.25-4.656c-1.312-2.812-.875-6.156 1.156-8.531L181.5 256L1.902 61.19C-.1289 58.81-.5664 55.47 .7461 52.66C2.027 49.81 4.871 48 7.996 48H360c4.406 0 8 3.594 8 8v80c0 4.406-3.594 8-8 8S352 140.4 352 136z"/></svg>