<svg xmlns="http://www.w3.org/2000/svg" viewBox="0 0 640 512"><!--! Font Awesome Pro 6.0.0-beta3 by @fontawesome - https://fontawesome.com License - https://fontawesome.com/license (Commercial License) Copyright 2021 Fonticons, Inc. --><path d="M448.7 292.8c-1.062 2.469-.8125 5.313 .6562 7.563c1.5 2.25 4 3.594 6.688 3.594h176c4.406 0 8-3.581 8-7.988c0-4.407-3.594-8.014-8-8.014h-163.9l43.22-100.9c1.219-2.875 .6875-6.157-1.375-8.47c-2.062-2.344-5.25-3.219-8.281-2.344l-163.3 48.97c8.031-45.94 12.88-87.79 13.53-115.3c.9062-38.25-24.84-71.38-59.91-77.1C270.9 29.6 249.5 35.38 233.4 49.07C217.3 62.79 208 82.79 208 103.1v56.01c0 4.407 3.594 8.001 8 8.001S224 164.4 224 159.1V103.1c0-16.47 7.188-32.04 19.75-42.69C256.5 50.45 272.8 45.98 289.5 48.73c27.22 4.407 47.19 30.6 46.47 60.91c-.6562 28.5-5.906 72.76-14.53 120.8L211.3 263.4C190.5 269.7 176 289.2 176 310.9v119.5C176 457.7 198.3 480 225.6 480c17.06 0 32.56-8.345 41.5-22.35c28.34-44.1 52.81-133.5 68.09-214.7l154.7-46.41L448.7 292.8zM253.6 449c-5.969 9.376-16.47 14.97-28.03 14.97C207.1 463.1 192 448.9 192 430.4V310.9C192 296.2 201.8 282.1 215.1 278.7l102.1-30.63C303.2 325.1 280.2 407.8 253.6 449zM10.34 309.6C11.91 311.2 13.95 311.1 16 311.1s4.094-.7813 5.656-2.344L64 267.3l42.34 42.35C107.9 311.2 109.9 311.1 112 311.1s4.094-.7813 5.656-2.344c3.125-3.125 3.125-8.189 0-11.31L75.31 255.1l42.34-42.35c3.125-3.125 3.125-8.189 0-11.31c-3.125-3.125-8.188-3.125-11.31 0L64 244.7L21.66 202.3c-3.125-3.125-8.188-3.125-11.31 0c-3.125 3.125-3.125 8.189 0 11.31l42.34 42.35L10.34 298.3C7.219 301.4 7.219 306.5 10.34 309.6zM136 367.1h-128c-4.422 0-8 3.591-8 7.998s3.578 8.004 8 8.004h128c4.406 0 8-3.594 8-8.001S140.4 367.1 136 367.1zM632 367.1h-288c-4.406 0-8 3.594-8 8.001s3.594 8.001 8 8.001h288c4.406 0 8-3.597 8-8.004S636.4 367.1 632 367.1z"/></svg>