<svg xmlns="http://www.w3.org/2000/svg" viewBox="0 0 640 512"><!--! Font Awesome Pro 6.0.0-beta3 by @fontawesome - https://fontawesome.com License - https://fontawesome.com/license (Commercial License) Copyright 2021 Fonticons, Inc. --><path d="M243.8 61.26C256.5 50.45 272.8 45.98 289.5 48.73c27.22 4.406 47.19 30.6 46.47 60.91c-.377 16.34-2.412 38.19-5.578 62.62l14.51 11.54c4.068-29.05 6.615-54.94 7.064-73.78c.9062-38.26-24.84-71.38-59.91-77.1C270.9 29.6 249.5 35.38 233.4 49.07C223.9 57.14 217.1 67.52 212.9 78.89l13.24 10.52C229.1 78.57 234.1 68.69 243.8 61.26zM136 367.1h-128c-4.422 0-8 3.59-8 7.996c0 4.408 3.578 8.006 8 8.006h128c4.406 0 8-3.596 8-8.002S140.4 367.1 136 367.1zM489.9 196.6l-32.77 76.48l12.97 10.31l41.24-96.23c1.219-2.875 .6875-6.158-1.375-8.471c-2.062-2.344-5.25-3.219-8.281-2.344l-120.7 36.2l15.27 12.14L489.9 196.6zM496.1 303.1H632c4.406 0 8-3.58 8-7.987c0-4.408-3.594-8.015-8-8.015h-156.1L496.1 303.1zM632 367.1h-55.42l20.13 16H632c4.406 0 8-3.598 8-8.006C640 371.6 636.4 367.1 632 367.1zM12.99 1.73C11.53 .5664 9.771 0 8.025 0C5.674 0 3.336 1.029 1.738 3.012c-2.75 3.469-2.172 8.5 1.281 11.25l623.1 496C628.5 511.4 630.2 512 631.1 512c2.344 0 4.688-1.031 6.266-3.016c2.75-3.469 2.172-8.5-1.281-11.25L12.99 1.73zM253.6 449c-5.969 9.375-16.47 14.97-28.03 14.97C207.1 463.1 192 448.9 192 430.4V310.9c0-14.72 9.844-27.94 23.97-32.19l12.28-3.682L212.1 262.9L211.3 263.4C190.5 269.7 176 289.2 176 310.9v119.5C176 457.7 198.3 480 225.6 480c17.06 0 32.56-8.346 41.5-22.35c16.87-26.24 32.3-68.66 45.3-115.7L298.1 331.3C286.1 379.2 270.6 422.6 253.6 449zM10.34 309.6C11.91 311.2 13.95 311.1 16 311.1s4.094-.7813 5.656-2.344L64 267.3l42.34 42.35C107.9 311.2 109.9 311.1 112 311.1s4.094-.7813 5.656-2.344c3.125-3.125 3.125-8.189 0-11.31L75.31 255.1l42.34-42.35c3.125-3.127 3.125-8.189 0-11.31s-8.188-3.125-11.31 0L64 244.7L21.66 202.3c-3.125-3.125-8.188-3.125-11.31 0s-3.125 8.188 0 11.31l42.34 42.35L10.34 298.3C7.219 301.4 7.219 306.5 10.34 309.6z"/></svg>