<svg xmlns="http://www.w3.org/2000/svg" viewBox="0 0 640 512"><!--! Font Awesome Pro 6.0.0-beta3 by @fontawesome - https://fontawesome.com License - https://fontawesome.com/license (Commercial License) Copyright 2021 Fonticons, Inc. --><path d="M376 287.1H308.1l43.22-100.9c1.219-2.875 .6875-6.158-1.375-8.471c-2.062-2.344-5.25-3.219-8.281-2.344L178.4 225.3c8.031-45.94 12.88-87.79 13.53-115.3c.9062-38.26-24.84-71.38-59.91-77.1C110.9 29.6 89.5 35.38 73.38 49.07C57.25 62.79 48 82.79 48 103.1v56.01c0 4.406 3.594 8.002 8 8.002S64 164.4 64 159.1V103.1c0-16.47 7.188-32.04 19.75-42.69C96.5 50.45 112.8 45.98 129.5 48.73c27.22 4.406 47.19 30.6 46.47 60.91C175.3 138.1 170 182.4 161.4 230.4L51.34 263.4C30.53 269.7 16 289.2 16 310.9v119.5C16 457.7 38.25 480 65.59 480c17.06 0 32.56-8.346 41.5-22.35c28.34-44.1 52.81-133.5 68.09-214.7l154.7-46.41L288.7 292.8C287.6 295.3 287.8 298.1 289.3 300.4c1.5 2.25 4 3.594 6.688 3.594h80c4.406 0 8-3.58 8-7.986C384 291.6 380.4 287.1 376 287.1zM93.63 449c-5.969 9.375-16.47 14.97-28.03 14.97C47.06 463.1 32 448.9 32 430.4V310.9c0-14.72 9.844-27.94 23.97-32.19l102.1-30.63C143.2 325.1 120.2 407.8 93.63 449zM312 367.1h-128c-4.406 0-8 3.594-8 8s3.594 8.002 8 8.002h128c4.406 0 8-3.598 8-8.006C320 371.6 316.4 367.1 312 367.1zM592 320H576V272c0-35.28-28.72-64-64-64s-64 28.72-64 64V320h-16c-26.51 0-48 21.49-48 47.1V464c0 26.51 21.49 48 48 48h160c26.51 0 48-21.49 48-48v-96C640 341.5 618.5 320 592 320zM464 272C464 245.5 485.5 224 512 224s48 21.53 48 48V320h-96V272zM624 464c0 17.64-14.36 32-32 32H432c-17.64 0-32-14.36-32-32v-96c0-17.64 14.36-32 32-32h160c17.64 0 32 14.36 32 32V464z"/></svg>