<svg xmlns="http://www.w3.org/2000/svg" viewBox="0 0 576 512"><!--! Font Awesome Pro 6.0.0-beta3 by @fontawesome - https://fontawesome.com License - https://fontawesome.com/license (Commercial License) Copyright 2021 Fonticons, Inc. --><path d="M288 216c-22.06 0-40.02 17.94-40.02 39.1S265.9 296 288 296s40.02-17.94 40.02-39.1S310.1 216 288 216zM288 279.1c-13.23 0-24-10.78-24-23.1c0-13.22 10.77-24 24-24s24 10.78 24 24C312 269.2 301.2 279.1 288 279.1zM95.67 52.34c-3.125-3.125-8.188-3.125-11.31 0C29.95 106.7 0 179.1 0 256s29.95 149.2 84.36 203.7c1.562 1.562 3.609 2.344 5.656 2.344s4.094-.7815 5.656-2.344c3.125-3.125 3.125-8.188 0-11.31C44.3 396.1 16 328.7 16 255.1S44.3 115 95.67 63.66C98.8 60.53 98.8 55.47 95.67 52.34zM491.6 52.34c-3.125-3.125-8.188-3.125-11.31 0s-3.125 8.188 0 11.31C531.7 115 560 183.3 560 255.1s-28.3 140.1-79.67 192.3c-3.125 3.125-3.125 8.188 0 11.31c1.562 1.562 3.609 2.344 5.656 2.344s4.094-.7815 5.656-2.344C546 405.2 576 332.9 576 256S546 106.7 491.6 52.34zM174.9 131.6c-3.125-3.125-8.188-3.125-11.31 0C130.3 164.8 112 208.1 112 255.1s18.3 91.22 51.55 124.4c1.562 1.563 3.609 2.344 5.656 2.344s4.094-.781 5.656-2.344c3.125-3.125 3.125-8.188 0-11.31C144.6 338.9 128 298.8 128 256s16.64-82.91 46.86-113.1C177.1 139.7 177.1 134.7 174.9 131.6zM401.1 131.6c-3.125 3.125-3.125 8.188 0 11.31C431.4 173.1 448 213.3 448 256s-16.64 82.9-46.86 113.1c-3.125 3.125-3.125 8.188 0 11.31c1.562 1.563 3.609 2.344 5.656 2.344s4.094-.781 5.656-2.344C445.7 347.2 464 302.1 464 255.1s-18.3-91.22-51.55-124.4C409.3 128.4 404.3 128.4 401.1 131.6z"/></svg>