<svg xmlns="http://www.w3.org/2000/svg" viewBox="0 0 640 512"><!--! Font Awesome Pro 6.0.0-beta3 by @fontawesome - https://fontawesome.com License - https://fontawesome.com/license (Commercial License) Copyright 2021 Fonticons, Inc. --><path d="M432 480c0 8.822-7.178 16-16 16h-32c-8.822 0-16-7.178-16-16v-93.87L352 373.4L352 480c0 17.62 14.38 32 32 32h32c17.62 0 32-14.38 32-32L448 449.7l-16-12.72V480zM636.1 497.7L12.99 1.73C11.53 .5664 9.773 0 8.027 0C5.676 0 3.336 1.029 1.738 3.012c-2.75 3.469-2.172 8.5 1.281 11.25l623.1 496C628.5 511.4 630.2 512 631.1 512c2.344 0 4.688-1.031 6.266-3.016C641 505.5 640.4 500.5 636.1 497.7zM528 32c0-8.822 7.178-16 16-16h32c8.822 0 16 7.178 16 16v348.2l16 12.72L608 32c0-17.62-14.38-32-32-32h-32c-17.62 0-32 14.38-32 32L512 316.6l16 12.72V32zM368 160c0-8.822 7.178-16 16-16h32c8.822 0 16 7.178 16 16v93.04L448 265.8L448 160c0-17.62-14.38-32-32-32h-32c-17.62 0-32 14.38-32 32L352 189.5l16 12.72V160zM272 480c0 8.822-7.178 16-16 16H224c-8.822 0-16-7.178-16-16V288c0-8.822 7.178-16 16-16h.4141L209.3 260C199.2 265.4 192 275.7 192 288v192c0 17.62 14.37 32 31.1 32h32c17.62 0 32-14.38 32-32L288 322.6L272 309.8V480zM96 384H64c-17.62 0-32 14.38-32 32v64c0 17.62 14.38 32 32 32H96c17.62 0 32-14.38 32-32v-64C128 398.4 113.6 384 96 384zM112 480c0 8.822-7.178 16-16 16h-32c-8.822 0-16-7.178-16-16v-64c0-8.822 7.178-16 16-16h32c8.822 0 16 7.178 16 16V480z"/></svg>