<svg xmlns="http://www.w3.org/2000/svg" viewBox="0 0 384 512"><!--! Font Awesome Pro 6.1.1 by @fontawesome - https://fontawesome.com License - https://fontawesome.com/license (Commercial License) Copyright 2022 Fonticons, Inc. --><path d="M256 0H64C28.75 0 0 28.75 0 64v384c0 35.25 28.75 64 64 64h256c35.25 0 64-28.75 64-64V128L256 0zM368 448c0 26.47-21.53 48-48 48H64c-26.47 0-48-21.53-48-48V64c0-26.47 21.53-48 48-48h185.4L368 134.6V448zM64 224v192c0 17.75 14.25 32 32 32h192c17.75 0 32-14.25 32-32V224c0-17.75-14.25-32-32-32H96C78.25 192 64 206.3 64 224zM144 432H96c-8.973 0-16-7.029-16-16v-48h64V432zM224 432H160v-64h64V432zM304 416c0 8.971-7.027 16-16 16h-48v-64h64V416zM304 352h-224V288h224V352zM240 208H288c8.973 0 16 7.027 16 16v48h-64V208zM160 208h64v64H160V208zM144 272h-64V224c0-8.973 7.027-16 16-16h48V272z"/></svg>