<svg xmlns="http://www.w3.org/2000/svg" viewBox="0 0 448 512"><!--! Font Awesome Pro 6.1.1 by @fontawesome - https://fontawesome.com License - https://fontawesome.com/license (Commercial License) Copyright 2022 Fonticons, Inc. --><path d="M55.03 359.9c4.375 .3125 8.375-2.594 8.906-6.969l23.88-193.8C91.13 132.3 113.8 112 140.5 112h167.1c26.72 0 49.34 20.31 52.66 47.22l23.88 193.8C384.6 357 388 360 392 360c.3125 0 .6562-.0313 .9687-.0625c4.406-.5313 7.5-4.531 6.969-8.906l-23.88-193.8C371.8 122.3 342.3 96 307.5 96H140.5C105.7 96 76.22 122.3 71.94 157.3l-23.88 193.8C47.53 355.4 50.63 359.4 55.03 359.9zM143.9 157.3l-23.88 193.8c-.5313 4.375 2.562 8.375 6.969 8.906C127.3 359.1 127.7 360 128 360c4 0 7.438-2.969 7.938-7.031l23.88-193.8c.5313-4.375-2.562-8.375-6.969-8.906C148.5 149.8 144.5 152.9 143.9 157.3zM416 384H32c-17.67 0-32 14.33-32 32v32c0 17.67 14.33 32 32 32h384c17.67 0 32-14.33 32-32v-32C448 398.3 433.7 384 416 384zM432 448c0 8.822-7.178 16-16 16H32c-8.822 0-16-7.178-16-16v-32c0-8.822 7.178-16 16-16h384c8.822 0 16 7.178 16 16V448z"/></svg>