<svg xmlns="http://www.w3.org/2000/svg" viewBox="0 0 512 512"><!--! Font Awesome Pro 6.0.0-beta3 by @fontawesome - https://fontawesome.com License - https://fontawesome.com/license (Commercial License) Copyright 2021 Fonticons, Inc. --><path d="M424 144.8V8C424 3.602 420.4 0 416 0c-4.398 0-8 3.602-8 8v136.8C376.5 148.8 352 175.4 352 208s24.47 59.22 56 63.19V504c0 4.398 3.6 8 8 8s8-3.602 8-8V271.2C455.5 267.2 480 240.6 480 208S455.5 148.8 424 144.8zM416 256c-26.47 0-48-21.53-48-48S389.5 160 416 160s48 21.53 48 48S442.5 256 416 256zM104 80.81V8C104 3.602 100.4 0 96 0C91.6 0 88 3.602 88 8v72.81C56.47 84.78 32 111.4 32 144s24.47 59.22 56 63.19V504C88 508.4 91.6 512 96 512s8-3.602 8-8V207.2C135.5 203.2 160 176.6 160 144S135.5 84.78 104 80.81zM96 192C69.53 192 48 170.5 48 144S69.53 96 96 96s48 21.53 48 48S122.5 192 96 192zM264 272.8V8C264 3.602 260.4 0 256 0C251.6 0 248 3.602 248 8v264.8C216.5 276.8 192 303.4 192 336s24.47 59.22 56 63.19V504C248 508.4 251.6 512 256 512s8-3.602 8-8v-104.8C295.5 395.2 320 368.6 320 336S295.5 276.8 264 272.8zM256 384c-26.47 0-48-21.53-48-48S229.5 288 256 288s48 21.53 48 48S282.5 384 256 384z"/></svg>