<svg xmlns="http://www.w3.org/2000/svg" viewBox="0 0 640 512"><!--! Font Awesome Pro 6.0.0-beta3 by @fontawesome - https://fontawesome.com License - https://fontawesome.com/license (Commercial License) Copyright 2021 Fonticons, Inc. --><path d="M440 176h-80C355.6 176 352 179.6 352 184S355.6 192 360 192h69.47l-37.19 133.8c-1.156 4.281 1.312 8.688 5.562 9.875C398.6 335.9 399.3 336 400 336c3.5 0 6.719-2.312 7.719-5.844l40-144c.6562-2.438 .1562-5-1.344-7C444.8 177.2 442.5 176 440 176zM296 176h-80C211.6 176 208 179.6 208 184S211.6 192 216 192h69.47l-37.19 133.8c-1.156 4.281 1.312 8.688 5.562 9.875C254.6 335.9 255.3 336 256 336c3.5 0 6.719-2.312 7.719-5.844l40-144c.6562-2.438 .1562-5-1.344-7C300.8 177.2 298.5 176 296 176zM152 176h-80C67.59 176 64 179.6 64 184S67.59 192 72 192h69.47l-37.19 133.8c-1.156 4.281 1.312 8.688 5.562 9.875C110.6 335.9 111.3 336 112 336c3.5 0 6.719-2.312 7.719-5.844l40-144c.6562-2.438 .1562-5-1.344-7C156.8 177.2 154.5 176 152 176zM592 128C565.5 128 544 149.5 544 176c0 23.77 17.32 43.37 40 47.19V440c0 30.88-25.12 56-56 56h-102.1C439.3 484.3 448 467.2 448 448v-32c35.35 0 64-28.65 64-64V160c0-35.35-28.65-64-64-64V64c0-35.35-28.65-64-64-64H128C92.65 0 64 28.65 64 64v32C28.65 96 0 124.7 0 160v192c0 35.35 28.65 64 64 64v32c0 35.35 28.65 64 64 64h400c39.69 0 72-32.31 72-72V223.2C622.7 219.4 640 199.8 640 176C640 149.5 618.5 128 592 128zM80 64c0-26.47 21.53-48 48-48h256c26.47 0 48 21.53 48 48v32h-352V64zM16 352V160c0-26.47 21.53-48 48-48h384c26.47 0 48 21.53 48 48v192c0 26.47-21.53 48-48 48H64C37.53 400 16 378.5 16 352zM384 496H128c-26.47 0-48-21.53-48-48v-32h352v32C432 474.5 410.5 496 384 496zM592 208c-17.64 0-32-14.36-32-32s14.36-32 32-32s32 14.36 32 32S609.6 208 592 208z"/></svg>