<svg xmlns="http://www.w3.org/2000/svg" viewBox="0 0 640 512"><!--! Font Awesome Pro 6.1.1 by @fontawesome - https://fontawesome.com License - https://fontawesome.com/license (Commercial License) Copyright 2022 Fonticons, Inc. --><path d="M504 368c4.406 0 8-3.594 8-8S508.4 352 504 352H36.81C16.5 352 0 368.5 0 388.8v86.38C0 495.5 16.5 512 36.81 512H504c4.406 0 8-3.594 8-8s-3.594-8-8-8H240v-128H504zM224 496H36.81C25.34 496 16 486.7 16 475.2v-86.38C16 377.3 25.34 368 36.81 368H224V496zM568 352c-4.406 0-8 3.594-8 8v144c0 4.406 3.594 8 8 8S576 508.4 576 504v-144C576 355.6 572.4 352 568 352zM536 352c-4.406 0-8 3.594-8 8v144c0 4.406 3.594 8 8 8S544 508.4 544 504v-144C544 355.6 540.4 352 536 352zM600 352c-4.406 0-8 3.594-8 8v144c0 4.406 3.594 8 8 8S608 508.4 608 504v-144C608 355.6 604.4 352 600 352zM632 352c-4.406 0-8 3.594-8 8v144c0 4.406 3.594 8 8 8S640 508.4 640 504v-144C640 355.6 636.4 352 632 352zM492.4 137.3C464.6 118.8 448 87.75 448 54.31V8C448 3.594 444.4 0 440 0S432 3.594 432 8v46.31c0 38.81 19.28 74.81 51.56 96.34C511.4 169.2 528 200.3 528 233.7V280C528 284.4 531.6 288 536 288S544 284.4 544 280V233.7C544 194.9 524.7 158.9 492.4 137.3zM588.4 137.3C560.6 118.8 544 87.75 544 54.31V8C544 3.594 540.4 0 536 0S528 3.594 528 8v46.31c0 38.81 19.28 74.81 51.56 96.34C607.4 169.2 624 200.3 624 233.7V280C624 284.4 627.6 288 632 288S640 284.4 640 280V233.7C640 194.9 620.7 158.9 588.4 137.3z"/></svg>