<svg xmlns="http://www.w3.org/2000/svg" viewBox="0 0 640 512"><!--! Font Awesome Pro 6.1.1 by @fontawesome - https://fontawesome.com License - https://fontawesome.com/license (Commercial License) Copyright 2022 Fonticons, Inc. --><path d="M32 206c1.688 0 3.375-.5313 4.844-1.625c3.5-2.656 4.188-7.688 1.531-11.22C23.75 173.9 16 151 16 127.1C16 65.81 65.81 16 127.1 16c39.19 0 74.75 20.38 95.09 54.47C223.4 72.5 225.4 73.88 227.7 74.28s4.719-.25 6.5-1.812C254.8 55 279.5 45.75 305.7 45.75c37.19 0 71.81 18.62 92.63 49.81c2.406 3.688 7.375 4.625 11.09 2.219c3.688-2.438 4.656-7.406 2.219-11.09c-23.78-35.66-63.38-56.94-105.9-56.94c-27.03 0-52.66 8.562-74.69 24.88C207.1 20.25 168.9 0 127.1 0C57 0 0 57 0 127.1c0 27.47 8.875 53.69 25.62 75.81C27.19 204.9 29.59 206 32 206zM240.7 186.7c-1.844 4-.0625 8.75 3.938 10.62c4.031 1.75 8.75 .0938 10.62-3.938c17.09-37.16 54.38-61.16 94.97-61.16c24.66 0 47.97 8.688 67.34 25.16l7.219 6.125l4.844-8.125C448.8 123.2 482.3 104 519.3 104C577 104 624 150.1 624 208.7c0 19.25-5.312 37.63-15.75 54.59c-2.312 3.75-1.156 8.688 2.625 11c1.312 .8125 2.75 1.188 4.188 1.188c2.688 0 5.312-1.344 6.812-3.812C633.7 252.4 640 230.6 640 208.7C640 142.1 585.9 88 519.3 88c-39.66 0-75.84 19.09-98.47 51.53C400 124.2 375.8 116.2 350.3 116.2C303.4 116.2 260.4 143.8 240.7 186.7zM522.8 272c-15.34 0-30.5 3.25-45.19 9.688C450.8 236 403 208 351.2 208c-38.03 0-73.72 14.62-101.4 41.34C222.2 222.6 186.4 208 148.4 208C66.56 208 0 276.2 0 360S66.56 512 148.4 512h374.4C587.4 512 640 458.2 640 392S587.4 272 522.8 272zM522.8 496H148.4C75.41 496 16 435 16 360S75.41 224 148.4 224c36.28 0 70.22 15 95.56 42.19L249.8 272.5l5.844-6.312C281 239 314.9 224 351.2 224c48.34 0 92.81 27.53 116 71.84l3.688 7.031l7.062-3.625C492.5 291.8 507.6 288 522.8 288C578.6 288 624 334.7 624 392S578.6 496 522.8 496z"/></svg>