<svg xmlns="http://www.w3.org/2000/svg" viewBox="0 0 640 512"><!--! Font Awesome Pro 6.0.0-beta3 by @fontawesome - https://fontawesome.com License - https://fontawesome.com/license (Commercial License) Copyright 2021 Fonticons, Inc. --><path d="M448 131.5c0-5.734-5.126-8.016-8.055-8.016c-1.365 0-2.747 .3466-4.011 1.075l-87.68 50.52l18.53-69.02c.1874-.6962 .2769-1.396 .2769-2.084c0-4.288-3.465-8.024-8.053-8.024c-3.552 0-6.799 2.365-7.761 5.954L328.6 186.5L232 242.1V131.3l61.66-61.66C295.2 68.09 296 66.05 296 64c0-4.57-3.737-8-8-8c-2.047 0-4.094 .7813-5.656 2.344L232 108.7V8C232 3.594 228.4 0 224 0S216 3.594 216 8v100.7L165.7 58.34C164.1 56.78 162 56 160 56C155.7 56 152 59.43 152 64c0 2.047 .7813 4.094 2.344 5.656L216 131.3v110.8L119.4 186.5L96.75 101.1C95.79 98.36 92.54 95.1 88.99 95.1c-6.123 0-8.052 5.55-8.052 8.026c0 .6875 .0891 1.386 .2756 2.082l18.53 69.02L12.07 124.6c-1.264-.7283-2.647-1.075-4.012-1.075c-2.929 0-8.054 2.281-8.054 8.016c0 2.779 1.446 5.481 4.021 6.965l87.68 50.52L22.55 207.5C18.96 208.5 16.59 211.7 16.59 215.3c0 6.111 5.558 8.036 8.038 8.036c.69 0 1.391-.0892 2.09-.2761l84.69-22.65L207.9 256L111.4 311.6L26.71 288.1C26.02 288.8 25.31 288.7 24.62 288.7c-2.481 0-8.038 1.925-8.038 8.036c0 3.544 2.369 6.786 5.964 7.748l69.15 18.49l-87.68 50.52C1.447 374.1 .0007 377.7 .0007 380.5c0 5.735 5.124 8.016 8.054 8.016c1.365 0 2.748-.3466 4.012-1.075l87.68-50.52l-18.53 69.02c-.1865 .6957-.2756 1.395-.2756 2.082c0 2.476 1.929 8.026 8.052 8.026c3.552 0 6.799-2.365 7.763-5.954l22.69-84.53L216 269.9v110.8l-61.66 61.66C152.8 443.9 152 445.1 152 448c0 4.57 3.737 8 8 8c2.047 0 4.094-.7813 5.656-2.344L216 403.3V504c0 4.406 3.58 8 8.001 8S232 508.4 232 504v-100.7l50.34 50.34C283.9 455.2 285.1 456 288 456c4.263 0 8-3.433 8-8c0-2.047-.7813-4.094-2.344-5.656L232 380.7V269.9l96.55 55.64l22.69 84.53c.9617 3.588 4.209 5.954 7.761 5.954c6.123 0 8.053-5.548 8.053-8.024c0-.6882-.0894-1.388-.2764-2.084l-18.53-69.02l87.68 50.52c1.264 .7283 2.646 1.075 4.011 1.075c2.929 0 8.055-2.281 8.055-8.016c0-2.779-1.446-5.481-4.023-6.966l-87.68-50.52l69.15-18.49c3.9-1.043 5.964-4.53 5.964-7.747c0-6.116-5.562-8.037-8.037-8.037c-.6898 0-1.391 .0892-2.089 .2761l-84.69 22.65L240.1 256l96.51-55.62l84.69 22.65c.6981 .1868 1.399 .2761 2.089 .2761c2.475 0 8.037-1.92 8.037-8.036c0-3.544-2.369-6.786-5.964-7.748l-69.15-18.49l87.68-50.52C446.6 137 448 134.3 448 131.5zM536 120C536 124.4 539.6 128 544 128s8-3.594 8-8V77.87l36.5 21.07C589.8 99.66 591.1 100 592.5 100c2.912 0 8.001-2.29 8.001-7.993c0-2.763-1.436-5.457-4.001-6.944L560 64l36.48-21.06c2.566-1.487 4.001-4.181 4.001-6.944c0-5.698-5.102-8.01-8.022-8.01c-1.356 0-2.728 .3477-3.979 1.079L552 50.13V8C552 3.594 548.4 0 544 0s-8 3.594-8 8v42.13l-36.5-21.07c-1.244-.6965-2.61-1.03-3.96-1.03c-2.927 0-8.041 2.229-8.041 7.961c0 2.763 1.436 5.457 4.001 6.944L527.1 64L491.5 85.06c-2.566 1.487-4.001 4.181-4.001 6.944c0 5.703 5.089 7.993 8.001 7.993c1.359 0 2.734-.3438 4-1.062L536 77.87V120zM592 256l36.48-21.06c2.566-1.487 4.001-4.181 4.001-6.944c0-5.698-5.102-8.01-8.022-8.01c-1.356 0-2.728 .3477-3.979 1.079L584 242.1V200C584 195.6 580.4 192 576 192s-8 3.594-8 8v42.13l-36.5-21.07c-1.244-.6965-2.61-1.03-3.96-1.03c-2.927 0-8.041 2.229-8.041 7.961c0 2.763 1.436 5.457 4.001 6.944L559.1 256L523.5 277.1c-2.566 1.487-4.001 4.181-4.001 6.944c0 5.703 5.089 7.993 8.001 7.993c1.359 0 2.734-.3438 4-1.062L568 269.9V312C568 316.4 571.6 320 576 320s8-3.594 8-8V269.9l36.5 21.07C621.8 291.7 623.1 292 624.5 292c2.912 0 8.001-2.29 8.001-7.993c0-2.763-1.436-5.457-4.001-6.944L592 256z"/></svg>