<svg xmlns="http://www.w3.org/2000/svg" viewBox="0 0 640 512"><!--! Font Awesome Pro 6.1.1 by @fontawesome - https://fontawesome.com License - https://fontawesome.com/license (Commercial License) Copyright 2022 Fonticons, Inc. --><path d="M151.1 16C147.6 16 143.1 19.58 143.1 24V104C143.1 108.4 140.4 112 135.1 112C131.6 112 127.1 108.4 127.1 104V24C127.1 10.75 138.7 0 151.1 0H300.6C315.5 0 329.2 8.285 336.1 21.5L423.1 188.3C425.1 192.2 423.6 197 419.7 199.1C415.8 201.1 410.1 199.6 408.9 195.7L321.9 28.9C317.7 20.97 309.5 16 300.6 16H151.1zM368 400C368 391.2 375.2 384 384 384C392.8 384 400 391.2 400 400C400 408.8 392.8 416 384 416C375.2 416 368 408.8 368 400zM111.1 400C111.1 408.8 104.8 416 95.1 416C87.16 416 79.1 408.8 79.1 400C79.1 391.2 87.16 384 95.1 384C104.8 384 111.1 391.2 111.1 400zM175.1 400C175.1 391.2 183.2 384 191.1 384C200.8 384 207.1 391.2 207.1 400C207.1 408.8 200.8 416 191.1 416C183.2 416 175.1 408.8 175.1 400zM303.1 400C303.1 408.8 296.8 416 287.1 416C279.2 416 271.1 408.8 271.1 400C271.1 391.2 279.2 384 287.1 384C296.8 384 303.1 391.2 303.1 400zM637.2 129.9C640.5 132.7 640.1 137.8 638.1 141.2L552 242.9V397.1L638.1 498.8C640.1 502.2 640.5 507.3 637.2 510.1C633.8 512.1 628.7 512.5 625.9 509.2L537.9 405.2C536.7 403.7 536 401.9 536 400V319.1H446.4C467.1 340.3 480 368.7 480 400C480 461.9 429.9 512 368 512H112C50.14 512 0 461.9 0 400C0 355.3 26.16 316.8 64 298.8V175.1C64 158.3 78.33 143.1 96 143.1H125.3C134.4 143.1 143 147.8 149.1 154.6L211.6 223.1H400C417.7 223.1 432 238.3 432 255.1V303.1H536V239.1C536 238.1 536.7 236.3 537.9 234.8L625.9 130.8C628.7 127.5 633.8 127 637.2 129.9V129.9zM79.1 292.6C90.14 289.6 100.9 288 111.1 288H368C385.2 288 401.5 291.9 416 298.8V256C416 247.2 408.8 240 400 240H207.1C205.7 240 203.6 239 202.1 237.4L137.2 165.3C134.2 161.9 129.8 160 125.3 160H95.1C87.16 160 79.1 167.2 79.1 176V292.6zM368 304H111.1C58.98 304 15.1 346.1 15.1 400C15.1 453 58.98 496 111.1 496H368C421 496 464 453 464 400C464 346.1 421 304 368 304z"/></svg>