<svg xmlns="http://www.w3.org/2000/svg" viewBox="0 0 512 512"><!--! Font Awesome Pro 6.1.1 by @fontawesome - https://fontawesome.com License - https://fontawesome.com/license (Commercial License) Copyright 2022 Fonticons, Inc. --><path d="M408 192c-4.422 0-8 3.594-8 8s3.578 8 8 8c48.53 0 88 39.47 88 88v112c0 48.53-39.47 88-88 88h-304c-48.53 0-88-39.47-88-88v-112c0-48.53 39.47-88 88-88H224c4.422 0 8-3.594 8-8S228.4 192 224 192H104C46.66 192 0 238.7 0 296v112C0 465.3 46.66 512 104 512h304c57.34 0 104-46.66 104-104v-112C512 238.7 465.3 192 408 192zM160 272c-44.11 0-80 35.88-80 80s35.89 80 80 80h192c44.11 0 80-35.88 80-80S396.1 272 352 272H160zM416 352c0 35.28-28.7 64-64 64H160c-35.3 0-64-28.72-64-64s28.7-64 64-64h192C387.3 288 416 316.7 416 352zM320 240c35.35 0 64-28.65 64-64s-28.65-64-64-64s-64 28.65-64 64S284.7 240 320 240zM320 128c26.47 0 48 21.53 48 48S346.5 224 320 224s-48-21.53-48-48S293.5 128 320 128zM208 96C234.5 96 256 74.51 256 48S234.5 0 208 0S160 21.49 160 48S181.5 96 208 96zM208 16c17.64 0 32 14.36 32 32s-14.36 32-32 32s-32-14.36-32-32S190.4 16 208 16zM384 64c17.67 0 32-14.33 32-32s-14.33-32-32-32s-32 14.33-32 32S366.3 64 384 64zM384 16c8.822 0 16 7.178 16 16S392.8 48 384 48S368 40.82 368 32S375.2 16 384 16z"/></svg>