<svg xmlns="http://www.w3.org/2000/svg" viewBox="0 0 512 512"><!--! Font Awesome Pro 6.0.0-beta3 by @fontawesome - https://fontawesome.com License - https://fontawesome.com/license (Commercial License) Copyright 2021 Fonticons, Inc. --><path d="M479.7 234.9l-199-223.9C274.4 4.025 265.4 0 256 0C246.6 0 237.6 4.025 231.4 11.06L32.34 234.9c-46.97 52.83-42.22 133.7 10.62 180.7c24.36 21.67 54.72 32.33 84.97 32.33c35.29 0 70.43-14.51 95.72-42.96L248 377.6V496h-80C163.6 496 160 499.6 160 504S163.6 512 168 512h176c4.422 0 8-3.578 8-8s-3.578-8-8-8h-80v-118.4l24.35 27.38C310.4 429.7 346.1 448 386 448c27.95 0 57.12-9.365 83.03-32.42C521.9 368.6 526.6 287.8 479.7 234.9zM458.4 403.6C437.5 422.2 412.5 432 386 432c-32.22 0-65.06-14.43-85.7-37.67L256 344.5l-44.3 49.81c-21.23 23.89-51.77 37.59-83.76 37.59c-27.43 0-53.83-10.05-74.34-28.29c-22.36-19.87-35.64-47.25-37.4-77.1c-1.756-29.85 8.225-58.6 28.1-80.96l199-223.9C246.5 18.07 251.2 16 256 16c4.844 0 9.467 2.074 12.68 5.693l199 223.9c19.88 22.36 29.86 51.11 28.1 80.96C494.1 356.4 480.8 383.8 458.4 403.6z"/></svg>