<svg xmlns="http://www.w3.org/2000/svg" viewBox="0 0 576 512"><!--! Font Awesome Pro 6.0.0-beta3 by @fontawesome - https://fontawesome.com License - https://fontawesome.com/license (Commercial License) Copyright 2021 Fonticons, Inc. --><path d="M549.7 250.3l-2.719-2.721c-60.01-60.02-102.6-135.3-123.2-217.7c-.0078-.0313 .0078 .0313 0 0c-.2461-.9492-1.174-1.566-1.754-2.371c-.627-.8672-1.019-1.997-1.956-2.557c-.0313-.0195 .0313 .0176 0 0c-.0195-.0117 .0195 .0117 0 0c-.8906-.5059-1.921-.2552-2.876-.4017c-1.047-.1602-2.043-.7207-3.09-.4473c-.0332 .0078-12.47 3.125-12.47 3.125c-74.31 18.57-152.9 18.57-227.2 0c0 0-12.34-3.092-12.36-3.098C161.1 23.84 160 24.37 159 24.5C158 24.62 156.9 24.38 155.1 24.92c-.0195 .0117 .0195-.0117 0 0c-.0313 .0176 .0313-.0195 0 0C155 25.48 154.6 26.61 154 27.48C153.4 28.29 152.5 28.9 152.3 29.85c-.0078 .0313 .0078-.0313 0 0C131.7 112.2 89.07 187.5 29.04 247.6L26.33 250.3c-3.109 3.125-3.109 8.189 0 11.32l2.719 2.719c60.02 60.02 102.6 135.3 123.2 217.7c.0078 .0313-.0078-.0313 0 0c.2461 .9473 1.174 1.564 1.754 2.369c.627 .8672 1.019 1.999 1.956 2.559c.0313 .0176-.0313-.0176 0 0c.0195 .0117-.0195-.0117 0 0C157.2 487.6 158.6 488 160 488c.4531 0 .8535-.2656 1.299-.3418c.2187-.0332 .4199 .1406 .6387 .0918l12.47-3.127c74.31-18.57 152.9-18.57 227.2 0l12.47 3.127C414.7 487.9 415.3 488 415.1 488c1.359 0 2.773-.375 4.023-1.094c.0117-.0078-.0117 .0078 0 0c.0352-.0215-.0352 .0215 0 0c.9375-.5605 1.334-1.697 1.961-2.564c.5801-.8047 1.508-1.422 1.754-2.369c.0078-.0313-.0078 .0313 0 0c20.58-82.38 63.2-157.7 123.2-217.7l2.703-2.688C552.8 258.4 552.8 253.4 549.7 250.3zM413.5 52.32c21.39 73.11 59.69 140.1 111.8 195.6h-89.91c-32.2-32.48-55.14-72.91-66.74-117.1L413.5 52.32zM288 239.8L231.8 141.4c37.04 7.713 75.38 7.713 112.4 .002L288 239.8zM357.9 149.8c11.74 36.29 30.82 69.64 56.14 98.15h-112.2L357.9 149.8zM274.2 247.9H161.1c25.33-28.53 44.4-61.89 56.14-98.16L274.2 247.9zM274.2 263.9l-56.06 98.15C206.4 325.8 187.3 292.4 162 263.9H274.2zM288 272.1l56.2 98.39c-37.04-7.711-75.39-7.711-112.4-.002L288 272.1zM301.8 263.9h112.2c-25.33 28.54-44.4 61.89-56.14 98.15L301.8 263.9zM399.1 43.72l-45.25 79.22l-3.686 .9199c-41.25 10.25-84.84 10.25-126.1 0L221.3 122.9L176 43.72C249.4 61.21 326.5 61.21 399.1 43.72zM162.5 52.32l44.82 78.47C195.7 174.1 172.8 215.4 140.6 247.9H50.66C102.8 192.4 141.1 125.4 162.5 52.32zM162.5 459.5c-21.39-73.11-59.69-140.1-111.8-195.6h89.91c32.2 32.48 55.14 72.91 66.74 117.1L162.5 459.5zM288 454.7c-37.65 0-75.27 4.68-111.1 13.42l45.25-79.22l3.686-.9219c41.25-10.25 84.84-10.25 126.1 0l3.686 .9219l45.25 79.21C363.3 459.4 325.7 454.7 288 454.7zM413.5 459.5l-44.82-78.47c11.59-44.19 34.53-84.61 66.74-117.1h89.91C473.2 319.4 434.9 386.4 413.5 459.5z"/></svg>