<svg xmlns="http://www.w3.org/2000/svg" viewBox="0 0 512 512"><!--! Font Awesome Pro 6.0.0-beta3 by @fontawesome - https://fontawesome.com License - https://fontawesome.com/license (Commercial License) Copyright 2021 Fonticons, Inc. --><path d="M509.7 378.3c3.125 3.125 3.125 8.188 0 11.31l-80 80C428.1 471.2 426.1 472 424 472s-4.094-.7813-5.656-2.344c-3.125-3.125-3.125-8.188 0-11.31L484.7 392h-151.4c-10.53 0-20.84-4.281-28.28-11.72L188.7 264H8C3.594 264 0 260.4 0 256s3.594-8 8-8h180.7l116.3-116.3C312.4 124.3 322.7 120 333.3 120h151.4l-66.34-66.34c-3.125-3.125-3.125-8.188 0-11.31s8.188-3.125 11.31 0l80 80c3.125 3.125 3.125 8.188 0 11.31l-80 80C428.1 215.2 426.1 216 424 216s-4.094-.7813-5.656-2.344c-3.125-3.125-3.125-8.188 0-11.31L484.7 136h-151.4c-6.312 0-12.5 2.562-16.97 7.031L203.3 256l112.1 112.1C320.8 373.4 326.9 376 333.3 376h151.4l-66.34-66.34c-3.125-3.125-3.125-8.188 0-11.31s8.188-3.125 11.31 0L509.7 378.3z"/></svg>