<svg xmlns="http://www.w3.org/2000/svg" viewBox="0 0 448 512"><!--! Font Awesome Pro 6.0.0-beta3 by @fontawesome - https://fontawesome.com License - https://fontawesome.com/license (Commercial License) Copyright 2021 Fonticons, Inc. --><path d="M384 32H64C28.65 32 0 60.65 0 96v320c0 35.35 28.65 64 64 64h320c35.35 0 64-28.65 64-64V96C448 60.65 419.3 32 384 32zM368 464h-288V448c0-61.76 50.24-112 112-112h64c61.76 0 112 50.24 112 112V464zM432 416c0 26.47-21.53 48-48 48V448c0-70.69-57.31-128-128-128H192c-70.69 0-128 57.31-128 128v16c-26.47 0-48-21.53-48-48V96c0-26.47 21.53-48 48-48h320c26.47 0 48 21.53 48 48V416zM224 128C179.8 128 144 163.8 144 208C144 252.2 179.8 288 224 288c44.18 0 80-35.82 80-80C304 163.8 268.2 128 224 128zM224 272c-35.29 0-64-28.71-64-64c0-35.29 28.71-64 64-64s64 28.71 64 64C288 243.3 259.3 272 224 272z"/></svg>