<svg xmlns="http://www.w3.org/2000/svg" viewBox="0 0 448 512"><!--! Font Awesome Pro 6.0.0-beta3 by @fontawesome - https://fontawesome.com License - https://fontawesome.com/license (Commercial License) Copyright 2021 Fonticons, Inc. --><path d="M448 416V96c0-35.35-28.65-64-64-64H64C28.65 32 0 60.65 0 96v320c0 35.35 28.65 64 64 64h320C419.3 480 448 451.3 448 416zM64 464c-26.47 0-48-21.53-48-48V96c0-26.47 21.53-48 48-48h320c26.47 0 48 21.53 48 48v320c0 26.47-21.53 48-48 48H64zM224 348.7V304h104C341.3 304 352 293.3 352 280v-48c0-13.25-10.74-24-24-24H224V163.3c0-21.38-25.85-32.09-40.97-16.97L90.35 239C85.66 243.7 83.32 249.9 83.32 256s2.344 12.28 7.029 16.97l92.68 92.68C198.1 380.8 224 370.1 224 348.7zM194.3 354.3L101.7 261.7C99.62 259.6 99.32 257.2 99.32 256s.3047-3.617 2.344-5.656l92.68-92.68c3.412-3.412 7.232-2.35 8.719-1.736C204.5 156.5 208 158.5 208 163.3V224h120c4.412 0 8 3.588 8 8v48C336 284.4 332.4 288 328 288H208v60.68c0 4.824-3.453 6.777-4.938 7.393C201.6 356.7 197.8 357.8 194.3 354.3z"/></svg>