<svg xmlns="http://www.w3.org/2000/svg" viewBox="0 0 448 512"><!--! Font Awesome Pro 6.0.0-beta3 by @fontawesome - https://fontawesome.com License - https://fontawesome.com/license (Commercial License) Copyright 2021 Fonticons, Inc. --><path d="M292.7 336H152c-4.42 0-8 3.582-8 8C144 348.4 147.6 352 152 352h160c4.42 0 8-3.578 8-8v-160c0-4.422-3.576-8-8-8c-4.418 0-7.998 3.578-7.998 8v140.7L141.7 162.3c-3.115-3.117-8.188-3.129-11.31 0c-3.127 3.125-3.117 8.195 0 11.31L292.7 336zM64 480h320c35.35 0 64-28.66 64-64V96c0-35.35-28.65-64-64-64H64C28.65 32 0 60.65 0 96v320C0 451.3 28.65 480 64 480zM16 96c0-26.47 21.53-48 48-48h320c26.47 0 48 21.53 48 48v320c0 26.47-21.53 48-48 48H64c-26.47 0-48-21.53-48-48V96z"/></svg>