<svg xmlns="http://www.w3.org/2000/svg" viewBox="0 0 448 512"><!--! Font Awesome Pro 6.0.0-beta3 by @fontawesome - https://fontawesome.com License - https://fontawesome.com/license (Commercial License) Copyright 2021 Fonticons, Inc. --><path d="M384 32H64C28.65 32 0 60.65 0 96v320c0 35.35 28.65 64 64 64h320c35.35 0 64-28.65 64-64V96C448 60.65 419.3 32 384 32zM432 416c0 26.47-21.53 48-48 48H64c-26.47 0-48-21.53-48-48V96c0-26.47 21.53-48 48-48h320c26.47 0 48 21.53 48 48V416zM345.7 296.3l-54.23-23.23c-9.656-4.172-21.05-1.422-27.59 6.766l-17.94 21.89C217.4 286.3 193.7 262.6 178.3 234.1l21.91-17.94c8.078-6.609 10.88-17.94 6.781-27.58L183.7 134.3C179.1 123.8 167.7 118.1 156.7 120.6L106.3 132.2C95.53 134.7 88 144.2 88 155.3C88 285.8 194.2 392 324.7 392c11.09 0 20.56-7.531 23.05-18.31l11.62-50.39C361.1 312.2 356.2 300.8 345.7 296.3zM332.2 370.1C331.4 373.6 328.3 376 324.7 376C203 376 104 276.1 104 155.3c0-3.578 2.422-6.625 5.906-7.422l50.39-11.62C160.9 136.1 161.4 136 161.1 136c3 0 5.813 1.781 7.047 4.625l23.27 54.25c1.312 3.109 .4219 6.766-2.188 8.906L158.3 229.8l2.797 5.703C178.8 271.6 208.4 301.2 244.5 318.1l5.703 2.797l26.09-31.88c2.109-2.625 5.734-3.484 8.844-2.141l54.23 23.23c3.406 1.469 5.266 5.141 4.438 8.734L332.2 370.1z"/></svg>