<svg xmlns="http://www.w3.org/2000/svg" viewBox="0 0 448 512"><!--! Font Awesome Pro 6.0.0-beta3 by @fontawesome - https://fontawesome.com License - https://fontawesome.com/license (Commercial License) Copyright 2021 Fonticons, Inc. --><path d="M344 384C348.4 384 352 387.6 352 392C352 396.4 348.4 400 344 400H104C99.58 400 96 396.4 96 392C96 387.6 99.58 384 104 384H344zM122.3 122.3C125.5 119.2 130.5 119.2 133.7 122.3L197.7 186.3C200.8 189.5 200.8 194.5 197.7 197.7C194.5 200.8 189.5 200.8 186.3 197.7L136 147.3V312C136 316.4 132.4 320 128 320C123.6 320 120 316.4 120 312V147.3L69.66 197.7C66.53 200.8 61.47 200.8 58.34 197.7C55.22 194.5 55.22 189.5 58.34 186.3L122.3 122.3zM314.3 122.3C317.5 119.2 322.5 119.2 325.7 122.3L389.7 186.3C392.8 189.5 392.8 194.5 389.7 197.7C386.5 200.8 381.5 200.8 378.3 197.7L328 147.3V312C328 316.4 324.4 320 320 320C315.6 320 312 316.4 312 312V147.3L261.7 197.7C258.5 200.8 253.5 200.8 250.3 197.7C247.2 194.5 247.2 189.5 250.3 186.3L314.3 122.3zM0 96C0 60.65 28.65 32 64 32H384C419.3 32 448 60.65 448 96V416C448 451.3 419.3 480 384 480H64C28.65 480 0 451.3 0 416V96zM16 96V416C16 442.5 37.49 464 64 464H384C410.5 464 432 442.5 432 416V96C432 69.49 410.5 48 384 48H64C37.49 48 16 69.49 16 96z"/></svg>