<svg xmlns="http://www.w3.org/2000/svg" viewBox="0 0 448 512"><!--! Font Awesome Pro 6.0.0-beta3 by @fontawesome - https://fontawesome.com License - https://fontawesome.com/license (Commercial License) Copyright 2021 Fonticons, Inc. --><path d="M384 32H64C28.65 32 0 60.65 0 96v320c0 35.35 28.65 64 64 64h320c35.35 0 64-28.65 64-64V96C448 60.65 419.3 32 384 32zM432 416c0 26.47-21.53 48-48 48H64c-26.47 0-48-21.53-48-48V96c0-26.47 21.53-48 48-48h320c26.47 0 48 21.53 48 48V416zM224 128C153.4 128 96 185.4 96 256s57.41 128 128 128c32.41 0 61.7-12.49 84.27-32.41l30.07 30.07C339.9 383.2 341.9 384 344 384s4.094-.7813 5.656-2.344c3.125-3.125 3.125-8.188 0-11.31l-30.07-30.07C339.5 317.7 352 288.4 352 256C352 185.4 294.6 128 224 128zM308.3 328.1l-38.62-38.62c-3.125-3.125-8.188-3.125-11.31 0s-3.125 8.188 0 11.31l38.62 38.62C277.3 357.3 251.1 368 224 368c-61.75 0-112-50.25-112-112S162.3 144 224 144s112 50.25 112 112C336 283.1 325.3 309.3 308.3 328.1z"/></svg>