<svg xmlns="http://www.w3.org/2000/svg" viewBox="0 0 448 512"><!--! Font Awesome Pro 6.1.1 by @fontawesome - https://fontawesome.com License - https://fontawesome.com/license (Commercial License) Copyright 2022 Fonticons, Inc. --><path d="M197.7 325.7C194.5 328.8 189.5 328.8 186.3 325.7L122.3 261.7C119.2 258.5 119.2 253.5 122.3 250.3C125.5 247.2 130.5 247.2 133.7 250.3L192 308.7L314.3 186.3C317.5 183.2 322.5 183.2 325.7 186.3C328.8 189.5 328.8 194.5 325.7 197.7L197.7 325.7zM0 96C0 60.65 28.65 32 64 32H384C419.3 32 448 60.65 448 96V416C448 451.3 419.3 480 384 480H64C28.65 480 0 451.3 0 416V96zM16 96V416C16 442.5 37.49 464 64 464H384C410.5 464 432 442.5 432 416V96C432 69.49 410.5 48 384 48H64C37.49 48 16 69.49 16 96z"/></svg>