<svg xmlns="http://www.w3.org/2000/svg" viewBox="0 0 448 512"><!--! Font Awesome Pro 6.1.1 by @fontawesome - https://fontawesome.com License - https://fontawesome.com/license (Commercial License) Copyright 2022 Fonticons, Inc. --><path d="M72 160H128V136C128 118.3 142.3 104 160 104C177.7 104 192 118.3 192 136V200C192 217.7 177.7 232 160 232C142.3 232 128 217.7 128 200V176H72C67.58 176 64 172.4 64 168C64 163.6 67.58 160 72 160zM144 200C144 208.8 151.2 216 160 216C168.8 216 176 208.8 176 200V136C176 127.2 168.8 120 160 120C151.2 120 144 127.2 144 136V200zM232 160H376C380.4 160 384 163.6 384 168C384 172.4 380.4 176 376 176H232C227.6 176 224 172.4 224 168C224 163.6 227.6 160 232 160zM72 352C67.58 352 64 348.4 64 344C64 339.6 67.58 336 72 336H224V312C224 294.3 238.3 280 256 280C273.7 280 288 294.3 288 312V376C288 393.7 273.7 408 256 408C238.3 408 224 393.7 224 376V352H72zM240 312V376C240 384.8 247.2 392 256 392C264.8 392 272 384.8 272 376V312C272 303.2 264.8 296 256 296C247.2 296 240 303.2 240 312zM328 352C323.6 352 320 348.4 320 344C320 339.6 323.6 336 328 336H376C380.4 336 384 339.6 384 344C384 348.4 380.4 352 376 352H328zM0 96C0 60.65 28.65 32 64 32H384C419.3 32 448 60.65 448 96V416C448 451.3 419.3 480 384 480H64C28.65 480 0 451.3 0 416V96zM64 464H384C410.5 464 432 442.5 432 416V96C432 69.49 410.5 48 384 48H64C37.49 48 16 69.49 16 96V416C16 442.5 37.49 464 64 464z"/></svg>