<svg xmlns="http://www.w3.org/2000/svg" viewBox="0 0 448 512"><!--! Font Awesome Pro 6.1.1 by @fontawesome - https://fontawesome.com License - https://fontawesome.com/license (Commercial License) Copyright 2022 Fonticons, Inc. --><path d="M96 256C96 238.3 110.3 224 128 224C145.7 224 160 238.3 160 256V352C160 369.7 145.7 384 128 384C110.3 384 96 369.7 96 352V256zM144 352V256C144 247.2 136.8 240 128 240C119.2 240 112 247.2 112 256V352C112 360.8 119.2 368 128 368C136.8 368 144 360.8 144 352zM192 160C192 142.3 206.3 128 224 128C241.7 128 256 142.3 256 160V352C256 369.7 241.7 384 224 384C206.3 384 192 369.7 192 352V160zM240 352V160C240 151.2 232.8 144 224 144C215.2 144 208 151.2 208 160V352C208 360.8 215.2 368 224 368C232.8 368 240 360.8 240 352zM288 320C288 302.3 302.3 288 320 288C337.7 288 352 302.3 352 320V352C352 369.7 337.7 384 320 384C302.3 384 288 369.7 288 352V320zM336 352V320C336 311.2 328.8 304 320 304C311.2 304 304 311.2 304 320V352C304 360.8 311.2 368 320 368C328.8 368 336 360.8 336 352zM0 96C0 60.65 28.65 32 64 32H384C419.3 32 448 60.65 448 96V416C448 451.3 419.3 480 384 480H64C28.65 480 0 451.3 0 416V96zM16 96V416C16 442.5 37.49 464 64 464H384C410.5 464 432 442.5 432 416V96C432 69.49 410.5 48 384 48H64C37.49 48 16 69.49 16 96z"/></svg>