<svg xmlns="http://www.w3.org/2000/svg" viewBox="0 0 448 512"><!--! Font Awesome Pro 6.1.1 by @fontawesome - https://fontawesome.com License - https://fontawesome.com/license (Commercial License) Copyright 2022 Fonticons, Inc. --><path d="M117.8 309.3L224 195.6l106.2 113.7C331.7 311 333.9 311.9 336 311.9c1.969 0 3.906-.7187 5.469-2.156c3.219-3.016 3.406-8.078 .375-11.3l-112-120c-3-3.25-8.688-3.25-11.69 0l-112 120C103.1 301.7 103.3 306.7 106.5 309.7C109.8 312.7 114.8 312.6 117.8 309.3zM64 480h320c35.34 0 64-28.65 64-64V96c0-35.35-28.66-64-64-64H64C28.65 32 0 60.65 0 96v320C0 451.3 28.65 480 64 480zM16 96c0-26.47 21.53-48 48-48h320c26.47 0 48 21.53 48 48v320c0 26.47-21.53 48-48 48H64c-26.47 0-48-21.53-48-48V96z"/></svg>