<svg xmlns="http://www.w3.org/2000/svg" viewBox="0 0 448 512"><!--! Font Awesome Pro 6.1.1 by @fontawesome - https://fontawesome.com License - https://fontawesome.com/license (Commercial License) Copyright 2022 Fonticons, Inc. --><path d="M384 32H64C28.65 32 0 60.65 0 96v320c0 35.35 28.65 64 64 64h320c35.34 0 64-28.65 64-64V96C448 60.65 419.3 32 384 32zM432 416c0 26.47-21.53 48-48 48H64c-26.47 0-48-21.53-48-48V96c0-26.47 21.53-48 48-48h320c26.47 0 48 21.53 48 48V416zM245.7 169.8C240.2 163.6 232.3 160 224 160S207.8 163.6 202.3 169.8L112.7 272.2C105.3 280.7 103.5 292.8 108.2 303.1C112.8 313.4 123.1 320 134.4 320h179.2c11.27 0 21.57-6.631 26.22-16.89c4.672-10.31 2.875-22.44-4.594-30.91L245.7 169.8zM325.3 296.5C323.2 301.1 318.6 304 313.6 304H134.4c-5.023 0-9.574-2.926-11.65-7.5C120.7 291.9 121.4 286.5 124.8 282.8l89.6-102.4C216.8 177.6 220.3 176 224 176s7.199 1.6 9.625 4.375l89.6 102.4C326.6 286.5 327.3 291.9 325.3 296.5z"/></svg>