<svg xmlns="http://www.w3.org/2000/svg" viewBox="0 0 448 512"><!--! Font Awesome Pro 6.1.1 by @fontawesome - https://fontawesome.com License - https://fontawesome.com/license (Commercial License) Copyright 2022 Fonticons, Inc. --><path d="M136 96C140.4 96 144 99.58 144 104V160H168C185.7 160 200 174.3 200 192C200 209.7 185.7 224 168 224H104C86.33 224 72 209.7 72 192C72 174.3 86.33 160 104 160H128V104C128 99.58 131.6 96 136 96zM104 176C95.16 176 88 183.2 88 192C88 200.8 95.16 208 104 208H168C176.8 208 184 200.8 184 192C184 183.2 176.8 176 168 176H104zM136 256C140.4 256 144 259.6 144 264V408C144 412.4 140.4 416 136 416C131.6 416 128 412.4 128 408V264C128 259.6 131.6 256 136 256zM320 256H344C361.7 256 376 270.3 376 288C376 305.7 361.7 320 344 320H280C262.3 320 248 305.7 248 288C248 270.3 262.3 256 280 256H304V104C304 99.58 307.6 96 312 96C316.4 96 320 99.58 320 104V256zM264 288C264 296.8 271.2 304 280 304H344C352.8 304 360 296.8 360 288C360 279.2 352.8 272 344 272H280C271.2 272 264 279.2 264 288zM320 408C320 412.4 316.4 416 312 416C307.6 416 304 412.4 304 408V360C304 355.6 307.6 352 312 352C316.4 352 320 355.6 320 360V408zM384 32C419.3 32 448 60.65 448 96V416C448 451.3 419.3 480 384 480H64C28.65 480 0 451.3 0 416V96C0 60.65 28.65 32 64 32H384zM384 48H64C37.49 48 16 69.49 16 96V416C16 442.5 37.49 464 64 464H384C410.5 464 432 442.5 432 416V96C432 69.49 410.5 48 384 48z"/></svg>