<svg xmlns="http://www.w3.org/2000/svg" viewBox="0 0 448 512"><!--! Font Awesome Pro 6.1.1 by @fontawesome - https://fontawesome.com License - https://fontawesome.com/license (Commercial License) Copyright 2022 Fonticons, Inc. --><path d="M344 255.5H256c-4.406 0-8 3.578-8 8s3.594 8 8 8h79.69c-.8125 9.75-3.062 18.75-6.781 26.84C323.2 310.9 314.6 323.1 304 333.9c-41.13 41.67-108 44.89-152.4 7.078C127.4 320.3 113.3 291.6 112.1 260C110.8 228.8 122.8 198.3 144.8 176.3c42.06-42 109.6-43.92 153.8-4.297c3.312 2.984 8.375 2.703 11.31-.6094c2.938-3.297 2.656-8.359-.625-11.3c-50.59-45.3-127.8-43.13-175.8 4.891C108.3 190.2 94.69 225 96.09 260.6c1.469 36.09 17.5 68.95 45.16 92.52c23.75 20.22 53.13 30.2 82.5 30.2c33.34 0 66.69-12.88 91.63-38.25c11.88-12.05 21.59-25.92 28.09-40.11C349.1 292.7 352 278.7 352 263.5C352 259.1 348.4 255.5 344 255.5zM384 32H64C28.65 32 0 60.65 0 96v320c0 35.35 28.65 64 64 64h320c35.35 0 64-28.65 64-64V96C448 60.65 419.3 32 384 32zM432 416c0 26.47-21.53 48-48 48H64c-26.47 0-48-21.53-48-48V96c0-26.47 21.53-48 48-48h320c26.47 0 48 21.53 48 48V416z"/></svg>