<svg xmlns="http://www.w3.org/2000/svg" viewBox="0 0 448 512"><!--! Font Awesome Pro 6.0.0-beta3 by @fontawesome - https://fontawesome.com License - https://fontawesome.com/license (Commercial License) Copyright 2021 Fonticons, Inc. --><path d="M136 256C131.6 256 128 259.6 128 264v144C128 412.4 131.6 416 136 416s8-3.594 8-8v-144C144 259.6 140.4 256 136 256zM168 160H143.1c0-.0059 0 .0059 0 0L144 104C144 99.59 140.4 96 136 96S128 99.59 128 104l.002 56c0 .0059 0-.0059 0 0L104 160c-17.67 0-32 14.33-32 32.01s14.33 32 32 32h64c17.67 0 32-14.33 32-32S185.7 160 168 160zM168 208h-64c-8.822 0-16-7.171-16-15.99s7.178-16 16-16h64c8.822 0 16 7.178 16 16S176.8 208 168 208zM312 352c-4.422 0-8 3.594-8 8v48c0 4.406 3.578 8 8 8S320 412.4 320 408v-48C320 355.6 316.4 352 312 352zM344 256H320V104C320 99.59 316.4 96 312 96S304 99.59 304 104V256h-24c-17.67 0-32 14.33-32 32s14.33 32 32 32h64c17.67 0 32-14.33 32-32S361.7 256 344 256zM344 304h-64c-8.822 0-16-7.178-16-16s7.178-16 16-16h64c8.822 0 16 7.178 16 16S352.8 304 344 304zM384 32H64C28.65 32 0 60.65 0 96v320c0 35.35 28.65 64 64 64h320c35.35 0 64-28.65 64-64V96C448 60.65 419.3 32 384 32zM432 416c0 26.47-21.53 48-48 48H64c-26.47 0-48-21.53-48-48V96c0-26.47 21.53-48 48-48h320c26.47 0 48 21.53 48 48V416z"/></svg>