<svg xmlns="http://www.w3.org/2000/svg" viewBox="0 0 448 512"><!--! Font Awesome Pro 6.0.0-beta3 by @fontawesome - https://fontawesome.com License - https://fontawesome.com/license (Commercial License) Copyright 2021 Fonticons, Inc. --><path d="M232 176h144C380.4 176 384 172.4 384 168S380.4 160 376 160h-144C227.6 160 224 163.6 224 168S227.6 176 232 176zM160 232c17.67 0 31.99-14.33 31.99-32v-64c0-17.67-14.32-32-31.99-32s-32 14.33-32 32L128 160c-.0059 0 .0059 0 0 0L72 160C67.59 160 64 163.6 64 168S67.59 176 72 176l56.01-.0029c.0059 0-.0059 0 0 0L128 200C128 217.7 142.3 232 160 232zM160 216c-8.822 0-16.01-7.178-16.01-16v-64c0-8.822 7.185-16 16.01-16s16 7.178 16 16v64C176 208.8 168.8 216 160 216zM328 352h48c4.406 0 8-3.578 8-8s-3.594-8-8-8h-48c-4.406 0-8 3.578-8 8S323.6 352 328 352zM256 408c17.67 0 32-14.33 32-32v-64c0-17.67-14.33-32-32-32s-32 14.33-32 32v24H72C67.59 336 64 339.6 64 344S67.59 352 72 352H224v24C224 393.7 238.3 408 256 408zM256 392c-8.822 0-16-7.178-16-16v-64c0-8.822 7.178-16 16-16s16 7.178 16 16v64C272 384.8 264.8 392 256 392zM64 480h320c35.35 0 64-28.65 64-64v-320c0-35.35-28.65-63.1-64-63.1H64c-35.35 0-64 28.65-64 63.1v320C0 451.3 28.65 480 64 480zM64 464c-26.47 0-48-21.53-48-48V96c0-26.47 21.53-48 48-48h320c26.47 0 48 21.53 48 48v320c0 26.47-21.53 48-48 48H64z"/></svg>