<svg xmlns="http://www.w3.org/2000/svg" viewBox="0 0 448 512"><!--! Font Awesome Pro 6.0.0-beta3 by @fontawesome - https://fontawesome.com License - https://fontawesome.com/license (Commercial License) Copyright 2021 Fonticons, Inc. --><path d="M384 32H64C28.65 32 0 60.65 0 96v320c0 35.35 28.65 64 64 64h320c35.35 0 64-28.65 64-64V96C448 60.65 419.3 32 384 32zM432 416c0 26.47-21.53 48-48 48H64c-26.47 0-48-21.53-48-48V96c0-26.47 21.53-48 48-48h320c26.47 0 48 21.53 48 48V416zM333.2 129.1c-3.328-2.906-8.391-2.547-11.28 .8125L224 243.8L126 130.8c-2.891-3.359-7.953-3.719-11.28-.8125c-3.344 2.891-3.703 7.953-.8125 11.28L213.4 256l-99.46 114.8c-2.891 3.328-2.531 8.391 .8125 11.28C116.3 383.4 118.1 384 120 384c2.234 0 4.469-.9375 6.047-2.766L224 268.2l97.95 113C323.5 383.1 325.8 384 328 384c1.859 0 3.719-.6406 5.234-1.953c3.344-2.891 3.703-7.953 .8125-11.28L234.6 256l99.46-114.8C336.9 137.9 336.6 132.8 333.2 129.1z"/></svg>