<svg xmlns="http://www.w3.org/2000/svg" viewBox="0 0 448 512"><!--! Font Awesome Pro 6.1.1 by @fontawesome - https://fontawesome.com License - https://fontawesome.com/license (Commercial License) Copyright 2022 Fonticons, Inc. --><path d="M195.6 295.4l-31.6 31.6C148.8 342.1 159.5 368 180.9 368H312c6.627 0 12.63-2.688 16.97-7.031S335.1 350.6 336 344V212.9c0-21.38-25.85-32.09-40.97-16.97l-31.6 31.6l-73.42-73.42c-9.373-9.371-24.69-9.494-34.06-.1234L122 187.1C112.6 197.3 112.8 212.6 122.1 222L195.6 295.4zM133.3 199.3l33.94-33.94c3.119-3.121 8.193-3.121 11.31 0l84.85 84.85l42.91-42.91c3.41-3.41 7.232-2.352 8.719-1.738c1.484 .6172 4.936 2.57 4.936 7.395V344c0 2.883-1.465 4.781-2.342 5.656C316.8 350.5 314.9 352 312 352H180.9c-4.826 0-6.775-3.453-7.393-4.938c-.6152-1.484-1.676-5.309 1.734-8.719l42.91-42.91L133.3 210.6C130.2 207.5 130.2 202.4 133.3 199.3zM64 480h320c35.35 0 64-28.66 64-64V96c0-35.35-28.65-64-64-64H64C28.65 32 0 60.65 0 96v320C0 451.3 28.65 480 64 480zM16 96c0-26.47 21.53-48 48-48h320c26.47 0 48 21.53 48 48v320c0 26.47-21.53 48-48 48H64c-26.47 0-48-21.53-48-48V96z"/></svg>