<svg xmlns="http://www.w3.org/2000/svg" viewBox="0 0 448 512"><!--! Font Awesome Pro 6.1.1 by @fontawesome - https://fontawesome.com License - https://fontawesome.com/license (Commercial License) Copyright 2022 Fonticons, Inc. --><path d="M206.3 173L224 191L241.7 173C271.1 143.2 318.8 143.2 348.1 173C377.5 202.8 377.5 251.2 348.1 280.1L246.5 384.2C240.3 390.5 232.1 393.6 223.1 393.6C215.9 393.6 207.7 390.5 201.5 384.2L99.87 280.1C70.48 251.2 70.48 202.8 99.87 173C129.2 143.2 176.9 143.2 206.3 173H206.3zM194.9 184.2C171.8 160.8 134.4 160.8 111.3 184.2C88.02 207.8 88.02 246.2 111.3 269.8L212.9 372.1C216 376.1 220 377.6 224 377.6C227.1 377.6 231.1 376.1 235.1 372.1L336.7 269.8C359.1 246.2 359.1 207.8 336.7 184.2C313.6 160.8 276.2 160.8 253.1 184.2L224 213.8L194.9 184.2zM0 96C0 60.65 28.65 32 64 32H384C419.3 32 448 60.65 448 96V416C448 451.3 419.3 480 384 480H64C28.65 480 0 451.3 0 416V96zM16 96V416C16 442.5 37.49 464 64 464H384C410.5 464 432 442.5 432 416V96C432 69.49 410.5 48 384 48H64C37.49 48 16 69.49 16 96z"/></svg>