<svg xmlns="http://www.w3.org/2000/svg" viewBox="0 0 448 512"><!--! Font Awesome Pro 6.1.1 by @fontawesome - https://fontawesome.com License - https://fontawesome.com/license (Commercial License) Copyright 2022 Fonticons, Inc. --><path d="M349.7 261.7c3.125-3.125 3.125-8.188 0-11.31l-120-120C228.1 128.8 226.1 128 224 128S219.9 128.8 218.3 130.3c-3.125 3.125-3.125 8.188 0 11.31L324.7 248H104C99.59 248 96 251.6 96 255.1C96 260.4 99.59 264 104 264h220.7l-106.3 106.3c-3.125 3.125-3.125 8.188 0 11.31s8.188 3.125 11.31 0L349.7 261.7zM448 416V96c0-35.35-28.65-64-64-64H64C28.65 32 0 60.65 0 96v320c0 35.35 28.65 64 64 64h320C419.3 480 448 451.3 448 416zM64 464c-26.47 0-48-21.53-48-48V96c0-26.47 21.53-48 48-48h320c26.47 0 48 21.53 48 48v320c0 26.47-21.53 48-48 48H64z"/></svg>