<svg xmlns="http://www.w3.org/2000/svg" viewBox="0 0 448 512"><!--! Font Awesome Pro 6.1.1 by @fontawesome - https://fontawesome.com License - https://fontawesome.com/license (Commercial License) Copyright 2022 Fonticons, Inc. --><path d="M248 240H153.8l19.03-96H296c4.422 0 8-3.594 8-8S300.4 128 296 128H166.2C162.4 128 159.1 130.7 158.4 134.4l-22.22 112C135.7 248.8 136.3 251.2 137.8 253.1C139.3 254.9 141.6 256 144 256h104c30.88 0 56 25.12 56 56s-25.12 56-56 56H181.4c-17.19 0-32.38-10.94-37.81-27.25c-1.391-4.188-5.922-6.406-10.12-5.062c-4.188 1.406-6.453 5.938-5.062 10.12C136 368.7 157.3 384 181.4 384H248C287.7 384 320 351.7 320 312S287.7 240 248 240zM384 32H64C28.65 32 0 60.65 0 96v320c0 35.35 28.65 64 64 64h320c35.35 0 64-28.65 64-64V96C448 60.65 419.3 32 384 32zM432 416c0 26.47-21.53 48-48 48H64c-26.47 0-48-21.53-48-48V96c0-26.47 21.53-48 48-48h320c26.47 0 48 21.53 48 48V416z"/></svg>