<svg xmlns="http://www.w3.org/2000/svg" viewBox="0 0 448 512"><!--! Font Awesome Pro 6.0.0-beta3 by @fontawesome - https://fontawesome.com License - https://fontawesome.com/license (Commercial License) Copyright 2021 Fonticons, Inc. --><path d="M223.9 176c8.822 0 16-7.178 16-16s-7.178-16-16-16s-16 7.178-16 16S215.1 176 223.9 176zM256 352h-24.02l.0098-135.1c0-.0176 0 .0176 0 0C231.1 211.6 228.4 208 224 208H192c-4.406 0-8 3.594-8 8S187.6 224 192 224h23.98v128H192c-4.406 0-8 3.594-8 8S187.6 368 192 368h64c4.406 0 8-3.594 8-8S260.4 352 256 352zM384 32H64C28.66 32 0 60.66 0 96v320c0 35.34 28.66 64 64 64h320c35.35 0 64-28.66 64-64V96C448 60.66 419.3 32 384 32zM432 416c0 26.47-21.53 48-48 48H64c-26.47 0-48-21.53-48-48V96c0-26.47 21.53-48 48-48h320c26.47 0 48 21.53 48 48V416z"/></svg>