<svg xmlns="http://www.w3.org/2000/svg" viewBox="0 0 448 512"><!--! Font Awesome Pro 6.1.1 by @fontawesome - https://fontawesome.com License - https://fontawesome.com/license (Commercial License) Copyright 2022 Fonticons, Inc. --><path d="M224 304c4.406 0 8-3.578 8-8v-176c0-4.422-3.594-8-8-8S216 115.6 216 120v176C216 300.4 219.6 304 224 304zM384 32H64C28.65 32 0 60.65 0 96v320c0 35.35 28.65 64 64 64h320c35.35 0 64-28.65 64-64V96C448 60.65 419.3 32 384 32zM432 416c0 26.47-21.53 48-48 48H64c-26.47 0-48-21.53-48-48V96c0-26.47 21.53-48 48-48h320c26.47 0 48 21.53 48 48V416zM224 352c-8.836 0-16 7.164-16 16S215.2 384 224 384s16-7.164 16-16S232.8 352 224 352z"/></svg>