<svg xmlns="http://www.w3.org/2000/svg" viewBox="0 0 448 512"><!--! Font Awesome Pro 6.1.1 by @fontawesome - https://fontawesome.com License - https://fontawesome.com/license (Commercial License) Copyright 2022 Fonticons, Inc. --><path d="M293.8 112.3L258.9 224H332.9C343.5 224 352 232.5 352 243.1C352 248.5 349.7 253.6 345.8 257.2L174.7 412.7C172.4 414.8 169.4 416 166.2 416C157.7 416 151.7 407.8 154.2 399.7L189.1 288H114.5C104.3 288 96 279.7 96 269.5C96 264.3 98.18 259.4 102 255.9L273.3 99.29C275.6 97.18 278.6 96 281.8 96C290.3 96 296.3 104.2 293.8 112.3V112.3zM112 269.5C112 270.9 113.1 272 114.5 272H200C202.5 272 204.9 273.2 206.4 275.3C207.1 277.3 208.4 279.1 207.6 282.4L173.3 392.4L334.1 245.4C335.6 244.8 336 243.1 336 243.1C336 241.4 334.6 240 332.9 240H248C245.5 240 243.1 238.8 241.6 236.7C240 234.7 239.6 232 240.4 229.6L274.7 119.7L112.8 267.7C112.3 268.1 112 268.8 112 269.5V269.5zM0 96C0 60.65 28.65 32 64 32H384C419.3 32 448 60.65 448 96V416C448 451.3 419.3 480 384 480H64C28.65 480 0 451.3 0 416V96zM16 96V416C16 442.5 37.49 464 64 464H384C410.5 464 432 442.5 432 416V96C432 69.49 410.5 48 384 48H64C37.49 48 16 69.49 16 96z"/></svg>