<svg xmlns="http://www.w3.org/2000/svg" viewBox="0 0 448 512"><!--! Font Awesome Pro 6.0.0-beta3 by @fontawesome - https://fontawesome.com License - https://fontawesome.com/license (Commercial License) Copyright 2021 Fonticons, Inc. --><path d="M384 32H64C28.65 32 0 60.66 0 96v320c0 35.34 28.65 64 64 64h320c35.34 0 64-28.66 64-64V96C448 60.66 419.3 32 384 32zM432 416c0 26.47-21.53 48-48 48H64c-26.47 0-48-21.53-48-48V96c0-26.47 21.53-48 48-48h320c26.47 0 48 21.53 48 48V416zM294.1 144c-21.42 0-42.96 8.881-58.78 25.21l-11.25 11.53l-11.34-11.53C196.9 152.9 175.3 144 153.9 144c-17.22 0-34.32 5.672-48.14 17.64C70.22 192.4 68.48 247.1 100.5 280.3l110.5 114.2C214.6 398.2 219.2 400 223.1 400s9.349-1.791 12.96-5.525l110.6-114.2c32.07-33.13 30.08-87.99-5.429-118.7C328.2 149.6 311.4 144 294.1 144zM335.1 269.2l-110.4 114.1c-.9391 .9707-2.33 .9687-3.268-.0039l-110.4-114.1C99.6 256.4 92.96 238.6 93.77 220.4C94.59 202.1 102.6 185.5 116.2 173.7C126.6 164.8 139.6 160 153.9 160c17.66 0 34.93 7.375 47.38 20.23L223.1 203.7l22.74-23.48C259.2 167.4 276.5 160 294.1 160c14.27 0 27.29 4.75 37.67 13.73c13.65 11.82 21.62 28.41 22.42 46.71C355 238.6 348.4 256.4 335.1 269.2z"/></svg>