<svg xmlns="http://www.w3.org/2000/svg" viewBox="0 0 448 512"><!--! Font Awesome Pro 6.1.1 by @fontawesome - https://fontawesome.com License - https://fontawesome.com/license (Commercial License) Copyright 2022 Fonticons, Inc. --><path d="M208 352C199.2 352 192 359.2 192 368S199.2 384 208 384s16-7.164 16-16S216.8 352 208 352zM384 32H64C28.65 32 0 60.65 0 96v320c0 35.35 28.65 64 64 64h320c35.35 0 64-28.65 64-64V96C448 60.65 419.3 32 384 32zM432 416c0 26.47-21.53 48-48 48H64c-26.47 0-48-21.53-48-48V96c0-26.47 21.53-48 48-48h320c26.47 0 48 21.53 48 48V416zM256.6 128H191.4C156.4 128 128 156.4 128 191.4V202c0 4.422 3.594 8 8 8s8-3.578 8-8V191.4C144 165.3 165.3 144 191.4 144h65.19C282.7 144 304 165.3 304 191.4c0 17.2-9.344 33.08-24.06 41.27L213.8 265.7C204.3 270.1 198.4 281 198.4 291.9V312c0 4.422 3.593 8 8 8c4.406 0 8-3.578 8-8V291.9c0-5.078 2.75-9.766 6.875-12.06l66.09-33.05C307.5 235.7 320 214.4 320 191.4C320 156.4 291.6 128 256.6 128z"/></svg>