<svg xmlns="http://www.w3.org/2000/svg" viewBox="0 0 512 512"><!--! Font Awesome Pro 6.1.1 by @fontawesome - https://fontawesome.com License - https://fontawesome.com/license (Commercial License) Copyright 2022 Fonticons, Inc. --><path d="M504 496h-239.1c-77.56 0-143.6-54.75-153.7-127.4C106.5 340.8 111 313.3 123.8 286.8c1.031-2.188 1.031-4.75 0-6.938C122.7 277.6 120.7 276 118.3 275.5c-67.75-15.41-111.9-81.5-100.4-150.5C27.13 69.25 74.72 23.84 131 17c38.31-4.719 75.06 6.75 103.6 32.06C262.8 74 279 109.9 279 147.5c0 4.406 3.594 8 8 8s8-3.594 8-8c0-42.19-18.12-82.44-49.72-110.4C213.7 9.094 171.4-4 129.1 1.125C65.88 8.781 12.47 59.78 2.063 122.3C-10.19 196.5 34.75 267.6 105.4 288.6c-11.09 26.69-14.75 54.31-10.91 82.19C105.7 451.3 178.7 512 264.2 512H504c4.406 0 8-3.594 8-8S508.4 496 504 496zM256 456c4.406 0 8-3.594 8-8c0-65.44 17.47-159.6 43.47-234.4C335.1 134.2 368.4 85.97 400 78.91V101c0 4.406 3.594 8 8 8c48.84 0 79.13 39.72 87.5 79.06c1.438 6.844-.2813 13.91-4.688 19.38C486.4 212.9 479.9 216 472.9 216H424C419.6 216 416 219.6 416 224v96.78c0 3.469 2.219 6.531 5.531 7.594c20.94 6.844 43.38 29.22 43.38 51.63c0 19.56-5.688 46.25-21.69 62.38c-3.094 3.125-3.094 8.188 .0625 11.31C444.8 455.2 446.9 456 448.9 456c2.062 0 4.125-.7813 5.688-2.375c19.41-19.56 26.31-50.88 26.31-73.63c0-28.62-24-54.34-48.91-64.78V232h40.91c11.81 0 22.88-5.281 30.34-14.5s10.34-21.16 7.875-32.75C500.1 132.8 462.4 97.03 416 93.31v-23.22c0-4.407-3.594-8.09-8-8.09c-92.44 0-160 253.9-160 385.1C248 452.4 251.6 456 256 456zM431.9 176c8.836 0 15.1-7.164 15.1-16c0-8.838-7.147-16-15.98-16S415.1 151.2 415.1 160C415.1 168.8 423.1 176 431.9 176z"/></svg>