<svg xmlns="http://www.w3.org/2000/svg" viewBox="0 0 512 512"><!--! Font Awesome Pro 6.1.1 by @fontawesome - https://fontawesome.com License - https://fontawesome.com/license (Commercial License) Copyright 2022 Fonticons, Inc. --><path d="M282.6 342.6C279.3 345.8 277.4 350.3 277.4 354.9C277.4 359.5 279.3 363.1 282.6 367.3L315 399.6C317.2 401.1 319.9 403.8 322.8 405.2C325.8 406.5 328.1 407.2 332.2 407.2C335.4 407.2 338.6 406.6 341.6 405.4C344.6 404.2 347.3 402.4 349.5 400.1L410.3 339.7C414.1 335.1 418.5 333 423.4 330.1C428.3 328.1 433.5 327.1 438.8 327.1C444.1 328 449.4 329.1 454.2 331.2C459.1 333.2 463.5 336.2 467.2 340L501.1 378.8C503.3 380.3 503.1 382.2 503.1 384.1C496.9 394.4 487.3 402.7 476.1 408.2C464.9 413.7 452.4 416.1 439.1 415.3C417.9 415.4 396.7 407 380.5 391.1L360.7 411.6C356.1 415.4 352.6 418.3 347.7 420.3C342.9 422.3 337.6 423.4 332.4 423.4C326.9 423.3 321.4 422.2 316.4 419.1C311.3 417.8 306.8 414.6 303 410.6L279.7 387.2C274.2 381.7 266.7 378.6 258.9 378.6C251.1 378.6 243.6 381.7 238.1 387.2L237.7 387.5C234.9 390.2 232.8 393.5 231.3 397C229.8 400.6 229 404.4 229 408.3C229 412.2 229.8 415.1 231.3 419.5C232.8 423.1 234.9 426.4 237.7 429.1L252.3 443.7C259.8 451.2 263.1 461.4 263.1 472C263.1 482.6 259.8 492.8 252.3 500.3L242.9 509.7C241.4 511.2 239.4 512 237.2 512C235.1 512 233.1 511.2 231.6 509.7C230.1 508.2 229.2 506.1 229.2 504C229.2 501.9 230.1 499.8 231.6 498.3L240.1 488.1C245.4 484.5 247.1 478.4 247.1 472C247.1 465.6 245.4 459.5 240.1 455L193.7 407.5C192 405.8 190 404.5 187.8 403.6C185.6 402.7 183.3 402.2 180.9 402.2C177.6 402.3 174.3 403.2 171.5 404.9C168.6 406.6 166.2 408.1 164.6 411.8L133.9 448.9C130.5 453.3 128.5 458.6 128.1 464.2C127.6 469.7 128.8 475.3 131.4 480.2C133.9 485.1 137.8 489.2 142.6 492C147.4 494.8 152.9 496.2 158.5 496H168.1C170.2 496 172.3 496.8 173.8 498.3C175.3 499.8 176.1 501.9 176.1 504C176.1 506.1 175.3 508.2 173.8 509.7C172.3 511.2 170.2 512 168.1 512H158.5C149.1 512.1 141.6 509.9 134.3 505.5C126.1 501.1 121 494.7 117.2 487.1C113.3 479.5 111.6 471 112.3 462.5C113.1 454 116.2 445.9 121.3 439.1L151.9 402.2C155.1 396.4 157.8 389.4 157.2 382.3C156.6 375.3 153.5 368.6 148.5 363.6C143.5 358.6 136.8 355.5 129.8 354.9C122.7 354.3 115.7 356.1 109.9 360.2L73.02 390.8C65.06 396.8 55.37 400 45.41 400C39.35 400 33.36 398.8 27.77 396.5C22.18 394.1 17.12 390.7 12.88 386.4C8.639 382.1 5.303 376.9 3.07 371.3C.8359 365.7-.2508 359.7-.1273 353.6V344C-.1273 341.9 .7156 339.8 2.216 338.3C3.716 336.8 5.751 336 7.873 336C9.994 336 12.03 336.8 13.53 338.3C15.03 339.8 15.87 341.9 15.87 344V353.6C15.7 359.1 17.09 364.6 19.89 369.4C22.69 374.2 26.79 378.1 31.71 380.7C36.63 383.3 42.18 384.4 47.71 383.1C53.25 383.5 58.55 381.6 63.01 378.2L100 347.5C102.9 345.9 105.3 343.5 106.1 340.6C108.7 337.8 109.6 334.5 109.6 331.2C109.6 328.8 109.2 326.5 108.3 324.3C107.4 322.1 106 320.1 104.4 318.4L56.96 271C52.46 266.6 46.36 264 40 264C33.64 264 27.55 266.6 23.04 271L13.63 280.4C12.13 281.1 10.09 282.8 7.969 282.8C5.845 282.8 3.807 281.1 2.305 280.4C.803 278.9-.0412 276.9-.0412 274.8C-.0412 272.7 .8027 270.6 2.305 269.1L11.68 259.7C19.19 252.2 29.36 248 39.97 248C50.58 248 60.75 252.2 68.26 259.7L82.88 274.4C85.61 277.1 88.85 279.3 92.42 280.7C95.99 282.2 99.82 282.1 103.7 282.1C107.5 282.1 111.4 282.2 114.9 280.7C118.5 279.3 121.8 277.1 124.5 274.4L124.9 273.1C127.6 271.2 129.8 267.1 131.3 264.4C132.8 260.8 133.5 257 133.5 253.2C133.5 249.3 132.8 245.5 131.3 241.9C129.8 238.3 127.6 235.1 124.9 232.4L101.5 208.1C97.51 205.2 94.3 200.7 92.1 195.6C89.9 190.6 88.76 185.2 88.74 179.6C88.72 174.4 89.75 169.2 91.77 164.3C93.78 159.5 96.75 155.1 100.5 151.4L120.1 131.5C105.1 115.4 96.74 94.13 96.77 72.06C95.96 59.6 98.42 47.14 103.9 35.92C109.4 24.7 117.7 15.1 128 8.064C129.1 8.035 131.9 8.742 133.3 10.05L171.1 44.8C175.8 48.49 178.8 52.9 180.9 57.78C182.1 62.65 184.1 67.9 184.1 73.2C184.2 78.51 183.2 83.77 181.2 88.68C179.1 93.58 176.2 98.04 172.4 101.8L112 162.6C109.7 164.9 107.9 167.6 106.7 170.5C105.4 173.5 104.8 176.7 104.9 179.9C104.9 183.1 105.6 186.3 106.9 189.3C108.2 192.2 110 194.9 112.4 197.1L144.9 229.4C148.2 232.7 152.6 234.6 157.2 234.6C161.9 234.6 166.3 232.7 169.6 229.4L170.8 228.1C189.5 209.3 147 166.9 272.6 78.62L256.6 20.19C256.2 18.83 256 17.42 256 16C256 11.76 257.7 7.687 260.7 4.686C263.7 1.686 267.8 0 272 0L371.8 7.616C383.4 8.669 394.8 11.11 405.8 14.88C435.1 6.13 465.4 1.13 496 0C500.2 0 504.3 1.686 507.3 4.686C510.3 7.687 512 11.76 512 16C510.9 46.57 505.9 76.87 497.1 106.2C500.9 117.2 503.3 128.6 504.4 140.2L512 238.8C512 239.2 512 239.6 512 240C512 244.2 510.3 248.3 507.3 251.3C504.3 254.3 500.2 256 496 256C494.6 256 493.2 255.9 491.8 255.5L433.4 239.5C346.2 363.4 300.1 324.2 283.9 341.2L282.6 342.6zM131.5 120L160.1 90.27C163.2 88.05 164.1 85.4 166.2 82.49C167.4 79.58 168 76.45 168 73.3C168 70.14 167.4 67.02 166.2 64.1C164.1 61.19 163.2 58.54 160.1 56.32L128.6 27.2C118.4 39.88 112.8 55.7 112.8 72C112.8 89.77 119.5 106.9 131.5 120zM391.9 380.5C404.5 392 420.7 398.6 437.8 399.2C454.8 399.7 471.4 394.1 484.7 383.5L455.6 351.1C453.4 348.8 450.7 347.1 447.8 345.8C444.9 344.6 441.8 344 438.6 344C435.5 344 432.3 344.6 429.4 345.8C426.5 347.1 423.9 348.8 421.6 351.1L391.9 380.5zM496 240L488.4 141.4C488.3 139.6 487.7 137.9 487.5 136.1C476.1 167.5 461.2 197.5 443.1 225.5L496 240zM286.4 68.93C314.4 50.79 344.4 35.9 375.8 24.54C374 24.32 372.4 23.58 370.5 23.58L272 16L286.4 68.93zM272.6 329.9C299.8 302.7 334 352.9 420.3 230.4C465.6 167.7 491.9 93.26 496 16C406.4 16 192.4 100.7 192 215.2C192 219.7 191.2 224.1 189.5 228.3C187.9 232.4 185.4 236.2 182.2 239.4L180.9 240.8C176.9 244.8 171.9 247.7 166.4 249.3C160.9 250.8 155.1 250.1 149.6 249.7C149.6 250.8 149.6 251.1 149.6 253.1C149.5 264.6 145.2 275.7 137.4 284.2C129.6 292.6 118.9 297.9 107.4 298.9L115.6 307.2C121.9 313.5 125.5 322.1 125.5 331C125.5 333.6 125.2 336.1 124.6 338.7H126.9C139.2 338.7 150.1 343.5 159.6 352.2C168.3 360.9 173.2 372.6 173.2 384.9C173.2 385.7 173.2 386.5 173.2 387.2C175.7 386.7 178.3 386.4 180.8 386.4C185.3 386.4 189.7 387.2 193.8 388.1C197.9 390.7 201.7 393.2 204.8 396.4L213.1 404.7C214.2 393.3 219.4 382.6 227.9 374.8C236.3 367 247.4 362.6 258.8 362.5C259.1 362.5 261.1 362.5 262.2 362.5C260.1 356.1 261.1 351.2 262.7 345.7C264.2 340.3 267.2 335.3 271.2 331.2L272.5 329.9L272.6 329.9zM195.3 268.7C198.3 271.7 200 275.8 200 280C200 283.2 199.1 286.3 197.3 288.9C195.5 291.5 193 293.6 190.1 294.8C187.2 295.1 183.1 296.3 180.9 295.7C177.8 295.1 174.9 293.6 172.7 291.3C170.4 289.1 168.9 286.2 168.3 283.1C167.7 280 168 276.8 169.2 273.9C170.4 270.1 172.5 268.5 175.1 266.7C177.7 264.9 180.8 264 184 264C188.2 264 192.3 265.7 195.3 268.7zM243.3 316.7C246.3 319.7 248 323.8 248 328C248 331.2 247.1 334.3 245.3 336.9C243.5 339.5 241 341.6 238.1 342.8C235.2 343.1 231.1 344.3 228.9 343.7C225.8 343.1 222.9 341.6 220.7 339.3C218.4 337.1 216.9 334.2 216.3 331.1C215.7 328 216 324.8 217.2 321.9C218.4 318.1 220.5 316.5 223.1 314.7C225.7 312.9 228.8 312 232 312C236.2 312 240.3 313.7 243.3 316.7z"/></svg>