<svg xmlns="http://www.w3.org/2000/svg" viewBox="0 0 512 512"><!--! Font Awesome Pro 6.1.1 by @fontawesome - https://fontawesome.com License - https://fontawesome.com/license (Commercial License) Copyright 2022 Fonticons, Inc. --><path d="M432 0h-76.25c-30.25 0-57.98 17.1-71.48 44.23l-16.01 32.02c-4 7.873-.75 17.5 7.123 21.37l57.25 28.62c2.293 1.164 4.734 1.715 7.143 1.715c5.859 0 11.52-3.258 14.36-8.84l11.5-23.12h50.37v75.75l-157.3 45.01C229.1 225 203.8 240.4 182.6 261.5L156.1 287.1H112c-8.873 0-15.1 7.125-15.1 16v44.12l-88.99 88.99c-9.375 9.375-9.375 24.5 0 33.87l33.1 33.1C45.72 509.7 51.84 512 57.96 512s12.25-2.344 16.94-7.031l175.6-175.6c9.625-9.625 21.5-16.63 34.62-20.38l84.75-24.25l32.25 18.63c2.533 1.494 5.317 2.202 8.063 2.202c5.52 0 10.88-2.886 13.8-7.975l19.51-33.85l10.51-3C488.3 250.1 512 219.6 512 183.9V79.1C512 35.88 476.1 0 432 0zM496 183.9c0 28.55-18.93 53.64-46.38 61.48l-16.75 4.785L410.1 289.5l-38.13-22.02l-91.29 26.12C265 298.1 250.7 306.5 239.2 318l-175.6 175.6c-3.105 3.105-8.141 3.105-11.25 0l-34-34c-3.104-3.104-3.104-8.139 0-11.24l93.68-93.68l-.002-50.75H162.8l31.18-31.18c19.1-19.1 43.04-33.17 69.21-40.68l157.2-44.1c6.865-1.965 11.6-8.24 11.6-15.38V95.99c0-8.836-7.164-16-16-16h-50.38c-6.064 0-11.61 3.43-14.32 8.859l-11.51 23.08l-57.22-28.53l16.04-32.09C309.4 29.67 331.6 16 355.8 16h76.24C467.3 16 496 44.65 496 79.1V183.9z"/></svg>