<svg xmlns="http://www.w3.org/2000/svg" viewBox="0 0 576 512"><!--! Font Awesome Pro 6.1.1 by @fontawesome - https://fontawesome.com License - https://fontawesome.com/license (Commercial License) Copyright 2022 Fonticons, Inc. --><path d="M576 40c0 4.422-3.594 8-8 8h-128v136C440 188.4 436.4 192 432 192h-136v136c0 4.422-3.594 8-8 8H152v136C152 476.4 148.4 480 144 480H8C3.594 480 0 476.4 0 472s3.594-8 8-8h128v-136C136 323.6 139.6 320 144 320h136V184C280 179.6 283.6 176 288 176h136V40C424 35.58 427.6 32 432 32h136C572.4 32 576 35.58 576 40z"/></svg>