<svg xmlns="http://www.w3.org/2000/svg" viewBox="0 0 576 512"><!--! Font Awesome Pro 6.1.1 by @fontawesome - https://fontawesome.com License - https://fontawesome.com/license (Commercial License) Copyright 2022 Fonticons, Inc. --><path d="M512 32H64C28.65 32 0 60.65 0 96v320c0 35.35 28.65 64 64 64h448c35.35 0 64-28.65 64-64V96C576 60.65 547.3 32 512 32zM560 416c0 26.47-21.53 48-48 48H64c-26.47 0-48-21.53-48-48V96c0-26.47 21.53-48 48-48h448c26.47 0 48 21.53 48 48V416zM384 160h-64c-4.406 0-8 3.578-8 8v176c0 4.422 3.594 8 8 8h64c52.94 0 96-43.06 96-96S436.9 160 384 160zM384 336h-56v-160H384c44.13 0 80 35.89 80 80S428.1 336 384 336zM193.8 248.2L184.3 245.9C143.6 236.2 123.9 227.1 128.7 204.2c4.594-21.55 36.84-32.38 80.66-26.73c9.188 1.172 20.16 3.594 34.47 7.609C248 186.2 252.5 183.8 253.7 179.5c1.219-4.266-1.281-8.672-5.531-9.875C233.1 165.4 221.4 162.8 211.4 161.6C158.4 154.9 119.6 170.2 113.1 200.9C104.1 243.2 151.1 254.7 180.6 261.5l9.594 2.25c44.13 10.3 70.56 18.41 65.13 44.08c-4.594 21.55-36.91 32.2-80.69 26.73c-14.38-1.766-30.75-6.578-45.22-10.83l-7.156-2.094c-4.438-1.297-8.719 1.234-9.906 5.469c-1.219 4.234 1.219 8.672 5.469 9.906l7.094 2.062c15.03 4.422 32.09 9.438 47.75 11.36c8.312 1.062 16.28 1.578 23.84 1.578c40.66 0 68.97-15.02 74.44-40.88C280 268.3 234.2 257.6 193.8 248.2z"/></svg>