<svg xmlns="http://www.w3.org/2000/svg" viewBox="0 0 576 512"><!--! Font Awesome Pro 6.1.1 by @fontawesome - https://fontawesome.com License - https://fontawesome.com/license (Commercial License) Copyright 2022 Fonticons, Inc. --><path d="M176 256C176 194.1 226.1 144 288 144C349.9 144 400 194.1 400 256C400 317.9 349.9 368 288 368C226.1 368 176 317.9 176 256zM315.6 239.7C312.8 235.1 308.9 231.2 304.3 228.4C301.7 226.9 298.9 225.7 295.9 224.1C293.4 224.3 290.7 224 288 224C285.3 224 282.6 224.3 280.1 224.1C277.1 225.7 274.3 226.9 271.7 228.4C267.1 231.2 263.2 235.1 260.4 239.7C258.9 242.3 257.7 245.1 256.1 248.1C256.3 250.6 256 253.3 256 256C256 258.7 256.3 261.4 256.1 263.9C257.7 266.9 258.9 269.7 260.4 272.3C263.2 276.9 267.1 280.8 271.7 283.6C274.3 285.1 277.1 286.3 280.1 287C282.6 287.7 285.3 287.1 288 287.1C290.7 287.1 293.4 287.7 295.9 287C298.9 286.3 301.7 285.1 304.3 283.6C308.9 280.8 312.8 276.9 315.6 272.3C317.1 269.7 318.3 266.9 319 263.9C319.7 261.4 320 258.7 320 255.1C320 253.3 319.7 250.6 319 248.1C318.3 245.1 317.1 242.3 315.6 239.7L315.6 239.7zM226 329.3C240.8 341.8 259.5 349.1 280 351.7V303.3C272.7 302.1 265.1 299.2 260.2 295.1L226 329.3zM315.8 295.1C310 299.2 303.3 302.1 296 303.3V351.7C316.5 349.1 335.2 341.8 349.1 329.3L315.8 295.1zM335.3 264C334.1 271.3 331.2 278 327.1 283.8L361.3 317.1C373.8 303.2 381.1 284.5 383.7 264H335.3zM335.3 248H383.7C381.1 227.5 373.8 208.8 361.3 194L327.1 228.2C331.2 233.1 334.1 240.7 335.3 248zM296 208.7C303.3 209.9 310 212.8 315.8 216.9L349.1 182.7C335.2 170.2 316.5 162 296 160.3V208.7zM280 208.7V160.3C259.5 162 240.8 170.2 226 182.7L260.2 216.9C265.1 212.8 272.7 209.9 280 208.7V208.7zM248.9 228.2L214.7 194C202.2 208.8 194 227.5 192.3 248H240.7C241.9 240.7 244.8 233.1 248.9 228.2H248.9zM240.7 264H192.3C194 284.5 202.2 303.2 214.7 317.1L248.9 283.8C244.8 278 241.9 271.3 240.7 264V264zM16 206L149.2 176.4C176.8 128.4 228.6 96 288 96C347.4 96 399.2 128.4 426.8 176.4L560 206V40C560 35.58 563.6 32 568 32C572.4 32 576 35.58 576 40V472C576 476.4 572.4 480 568 480C563.6 480 560 476.4 560 472V305.1L426.8 335.6C399.2 383.6 347.4 416 288 416C228.6 416 176.8 383.6 149.2 335.6L16 305.1V472C16 476.4 12.42 480 8 480C3.582 480 0 476.4 0 472V40C0 35.58 3.582 32 8 32C12.42 32 16 35.58 16 40V206zM435.9 194.8C443.7 213.7 448 234.3 448 256C448 277.7 443.7 298.3 435.9 317.2L560 289.6V222.4L435.9 194.8zM128 256C128 234.3 132.3 213.7 140.1 194.8L16 222.4V289.6L140.1 317.2C132.3 298.3 128 277.7 128 256V256zM288 400C367.5 400 432 335.5 432 256C432 176.5 367.5 112 288 112C208.5 112 144 176.5 144 256C144 335.5 208.5 400 288 400z"/></svg>