<svg xmlns="http://www.w3.org/2000/svg" viewBox="0 0 576 512"><!--! Font Awesome Pro 6.0.0-beta3 by @fontawesome - https://fontawesome.com License - https://fontawesome.com/license (Commercial License) Copyright 2021 Fonticons, Inc. --><path d="M554.3 193.7c-3.484-10.75-13.05-17.69-24.34-17.69h-166.3l-51.38-158.3C308.9 6.969 299.3 0 288 0S267.1 6.969 263.6 17.72L212.3 175.1H46.02c-11.3 0-20.86 6.938-24.34 17.69c-3.5 10.75 .1562 22 9.297 28.66l134.5 97.81l-51.38 158.3c-2.578 7.938-1.297 16.25 3.516 22.88c8.062 11.06 24.39 14.03 35.89 5.781L288 409.2l134.5 97.84C427 510.3 432.2 512 437.5 512c8.188 0 16-4.031 20.89-10.75c4.812-6.625 6.094-14.94 3.516-22.88l-51.38-158.3l134.5-97.81C554.2 215.7 557.8 204.4 554.3 193.7zM287.1 16L287.1 16C288 15.1 287.1 15.1 287.1 16zM144.1 494.1c-7.316 5.279-17.79-1.564-14.81-10.75L184.3 314L40.38 209.4C32.82 203.9 36.72 191.1 46.02 191.1H223.9l54.97-169.3C279.1 21.96 279.7 21.68 280 21.1V395.2L144.1 494.1zM535.6 209.4L391.7 314l54.97 169.3c3.008 9.285-7.584 15.96-14.78 10.78L296 395.2V21.1c.332 .584 .918 .8652 1.141 1.557l54.97 169.3h177.9C539.3 191.1 543.2 203.9 535.6 209.4z"/></svg>