<svg xmlns="http://www.w3.org/2000/svg" viewBox="0 0 512 512"><!--! Font Awesome Pro 6.1.1 by @fontawesome - https://fontawesome.com License - https://fontawesome.com/license (Commercial License) Copyright 2022 Fonticons, Inc. --><path d="M364.2 267.2l-104.8-15.28L212.6 156.7C208.4 148.2 200.1 143.9 191.9 143.9c-8.188 0-16.29 4.248-20.53 12.8L124.5 251.1L19.71 267.2c-18.87 2.748-26.45 26-12.7 39.25l75.87 74l-17.1 104.6C62.41 500 74.23 512 87.52 512c3.543 0 7.186-.8362 10.69-2.705l93.79-49.38l93.74 49.38c3.352 1.783 6.969 2.675 10.62 2.675c4.783 0 9.596-1.508 13.64-4.414c6.998-5.125 10.62-13.91 9.119-22.41L301.2 380.5l75.92-74C390.7 293.3 383.1 269.1 364.2 267.2zM365.9 295.1l-81.88 79.87l19.3 112.1c.9355 5.305-4.953 9.957-10.16 7.188l-101.2-53.3L90.71 495.2c-5.168 2.76-10.96-1.867-10.06-7.297l19.42-112.9L18.12 295c-4.223-4.068-1.725-11.07 3.949-11.89l113.1-16.46l50.56-102.8C187.4 160.5 190.4 160 191.1 160l6.264 3.859L248.8 266.7l113.1 16.46C367.6 283.1 370.1 291 365.9 295.1zM264 88h64v64c0 4.406 3.598 8.005 8.005 8.005S344 156.4 344 152v-64h64c4.406 0 8.002-3.592 8.002-7.998S412.4 72 408 72h-64v-64c0-4.406-3.59-8-7.996-8S328 3.594 328 8v64h-64c-4.406 0-7.995 3.596-7.995 8.002S259.6 88 264 88zM504 216h-48v-48c0-4.406-3.592-7.996-7.999-7.996S440 163.6 440 168v48h-48c-4.406 0-7.997 3.599-7.997 8.006S387.6 232 392 232h48v48c0 4.406 3.595 8.007 8.001 8.007S456 284.4 456 280v-48h48c4.406 0 8-3.588 8-7.994S508.4 216 504 216z"/></svg>