<svg xmlns="http://www.w3.org/2000/svg" viewBox="0 0 576 512"><!--! Font Awesome Pro 6.1.1 by @fontawesome - https://fontawesome.com License - https://fontawesome.com/license (Commercial License) Copyright 2022 Fonticons, Inc. --><path d="M287.9 435.9L150.1 509.1C142.9 513.4 133.1 512.7 125.6 507.4C118.2 502.1 114.5 492.9 115.1 483.9L142.2 328.4L31.11 218.2C24.65 211.9 22.36 202.4 25.2 193.7C28.03 185.1 35.5 178.8 44.49 177.5L197.7 154.8L266.3 13.52C270.4 5.249 278.7 0 287.9 0C297.1 0 305.5 5.25 309.5 13.52L378.1 154.8L531.4 177.5C540.4 178.8 547.8 185.1 550.7 193.7C553.5 202.4 551.2 211.9 544.8 218.2L433.6 328.4L459.9 483.9C461.4 492.9 457.7 502.1 450.2 507.4C442.8 512.7 432.1 513.4 424.9 509.1L287.9 435.9zM212.1 161.8C209.8 166.6 205.3 169.9 200.1 170.7L46.83 193.3C43.83 193.7 41.34 195.8 40.4 198.7C39.45 201.6 40.22 204.8 42.37 206.9L153.5 316.1C157.2 320.7 158.9 325.9 158 331L131.8 486.6C131.2 489.6 132.5 492.6 134.1 494.4C137.5 496.2 140.7 496.4 143.4 494.1L280.4 421.8C285.1 419.3 290.8 419.3 295.5 421.8L432.4 494.1C435.1 496.4 438.4 496.2 440.9 494.4C443.4 492.6 444.6 489.6 444.1 486.6L417.9 331C416.1 325.9 418.7 320.7 422.4 316.1L533.5 206.9C535.6 204.7 536.4 201.6 535.5 198.7C534.5 195.8 532 193.7 529 193.3L375.8 170.7C370.6 169.9 366 166.6 363.7 161.8L295.1 20.51C293.8 17.75 290.1 15.1 287.9 15.1C284.9 15.1 282.1 17.75 280.7 20.51L212.1 161.8zM31.22 218.1L42.37 206.9z"/></svg>