<svg xmlns="http://www.w3.org/2000/svg" viewBox="0 0 320 512"><!--! Font Awesome Pro 6.1.1 by @fontawesome - https://fontawesome.com License - https://fontawesome.com/license (Commercial License) Copyright 2022 Fonticons, Inc. --><path d="M80 256H248C252.4 256 256 259.6 256 264C256 268.4 252.4 272 248 272H79.83C77.85 339.9 58.11 406.1 22.61 464H312C316.4 464 320 467.6 320 472C320 476.4 316.4 480 312 480H8C3.582 480 0 476.4 0 472C0 470.3 .5197 468.8 1.408 467.5C40.12 409.4 61.7 341.6 63.83 272H8C3.582 272 0 268.4 0 264C0 259.6 3.582 256 8 256H64V143.2C64 81.81 113.8 32 175.2 32C187.2 32 199.1 33.93 210.4 37.71L290.5 64.41C294.7 65.81 296.1 70.34 295.6 74.53C294.2 78.72 289.7 80.99 285.5 79.59L205.4 52.89C195.7 49.65 185.5 48 175.2 48C122.6 48 79.1 90.64 79.1 143.2L80 256z"/></svg>