<svg xmlns="http://www.w3.org/2000/svg" viewBox="0 0 512 512"><!--! Font Awesome Pro 6.0.0-beta3 by @fontawesome - https://fontawesome.com License - https://fontawesome.com/license (Commercial License) Copyright 2021 Fonticons, Inc. --><path d="M164.3 223.1c1.188 .625 2.438 .9062 3.688 .9062c2.875 0 5.688-1.562 7.094-4.312c2.031-3.938 .5-8.748-3.406-10.78C132.3 188.5 117.8 161.6 124.8 121.7c2.75-15.69 11.28-37.78 36.13-53.78c38.91-25.06 105.8-26.31 193.7-3.529c4.25 1.031 8.625-1.469 9.75-5.75c1.094-4.281-1.469-8.625-5.75-9.75c-93.5-24.22-162.9-22.31-206.3 5.562C122.6 73.57 112.4 100 109.1 118.9C100.8 165.5 118.9 199.6 164.3 223.1zM377.4 321.6c-3.5 2.656-4.188 7.688-1.531 11.22c11.81 15.59 15.53 34.75 11.31 58.49c-4.594 25.87-17.84 45.09-39.38 57.12c-55.56 30.1-155 10.59-229.8-18.9c-4.188-1.594-8.75 .375-10.38 4.5c-1.625 4.094 .375 8.75 4.5 10.38C171.8 468 227.1 480 274.5 480c32.34 0 60.06-5.812 81.13-17.56c25.94-14.5 41.84-37.47 47.31-68.28c4.969-28.03 .1562-51.9-14.31-70.99C385.9 319.7 380.1 318.1 377.4 321.6zM504 264H8c-4.418 0-8 3.573-8 7.991s3.582 8.007 8 8.007h496c4.418 0 8-3.589 8-8.007S508.4 264 504 264z"/></svg>