<svg xmlns="http://www.w3.org/2000/svg" viewBox="0 0 512 512"><!--! Font Awesome Pro 6.0.0-beta3 by @fontawesome - https://fontawesome.com License - https://fontawesome.com/license (Commercial License) Copyright 2021 Fonticons, Inc. --><path d="M344 80C348.4 80 352 76.42 352 72S348.4 64 344 64L320 64.01c-2.453 0-4.781 1.115-6.297 3.053L176 243L38.3 67.06C36.78 65.13 34.45 64.01 32 64.01L8 64C3.578 64 0 67.58 0 72S3.578 80 8 80h20.11L165.8 256L28.11 432H8C3.578 432 0 435.6 0 440S3.578 448 8 448L32 448c2.453 0 4.781-1.135 6.297-3.072L176 268.1l137.7 175.1C315.2 446.9 317.5 448 320 448L344 448c4.422 0 8-3.578 8-8s-3.578-8-8-8h-20.11L186.2 256l137.7-176H344zM488 496H464v-136c0-4.422-3.578-8-8-8h-32C419.6 352 416 355.6 416 360s3.578 8 8 8H448v128h-24c-4.422 0-8 3.578-8 8S419.6 512 424 512h64c4.422 0 8-3.578 8-8S492.4 496 488 496z"/></svg>