<svg xmlns="http://www.w3.org/2000/svg" viewBox="0 0 640 512"><!--! Font Awesome Pro 6.1.1 by @fontawesome - https://fontawesome.com License - https://fontawesome.com/license (Commercial License) Copyright 2022 Fonticons, Inc. --><path d="M208.6 161.2C208.6 187.7 187.1 209.2 160.6 209.2C134.1 209.2 112.6 187.7 112.6 161.2C112.6 134.7 134.1 113.2 160.6 113.2C187.1 113.2 208.6 134.7 208.6 161.2zM160.6 193.2C178.3 193.2 192.6 178.9 192.6 161.2C192.6 143.5 178.3 129.2 160.6 129.2C142.1 129.2 128.6 143.5 128.6 161.2C128.6 178.9 142.1 193.2 160.6 193.2zM160 0C162.9 0 165.6 1.615 167 4.205L199.5 64.52L265.2 44.86C268 44.01 271.1 44.78 273.1 46.86C275.2 48.94 275.1 51.1 275.1 54.82L255.5 120.5L315.8 152.1C318.4 154.4 320 157.1 320 159.1C320 162.9 318.4 165.6 315.8 167L255.5 199.5L275.1 265.2C275.1 268 275.2 271.1 273.1 273.1C271.1 275.2 268 275.1 265.2 275.1L199.5 255.5L167 315.8C165.6 318.4 162.9 319.1 160 319.1C157.1 319.1 154.4 318.4 152.1 315.8L120.5 255.5L54.82 275.1C51.1 275.1 48.94 275.2 46.86 273.1C44.78 271.1 44.01 268 44.86 265.2L64.52 199.5L4.206 167C1.616 165.6 .0013 162.9 .0013 159.1C.0013 157.1 1.616 154.4 4.206 152.1L64.52 120.5L44.86 54.82C44.01 51.1 44.78 48.94 46.86 46.86C48.94 44.78 51.1 44.01 54.82 44.86L120.5 64.52L152.1 4.205C154.4 1.615 157.1 0 160 0V0zM160 24.86L131.4 77.85C129.6 81.19 125.7 82.81 122.1 81.72L64.45 64.44L81.72 122.1C82.81 125.7 81.2 129.6 77.85 131.4L24.86 160L77.85 188.6C81.2 190.4 82.81 194.3 81.72 197.9L64.45 255.6L122.1 238.3C125.7 237.2 129.6 238.8 131.4 242.1L160 295.1L188.6 242.1C190.4 238.8 194.3 237.2 197.9 238.3L255.6 255.6L238.3 197.9C237.2 194.3 238.8 190.4 242.1 188.6L295.1 160L242.1 131.4C238.8 129.6 237.2 125.7 238.3 122.1L255.6 64.44L197.9 81.72C194.3 82.81 190.4 81.19 188.6 77.85L160 24.86zM496 496H632C636.4 496 640 499.6 640 504C640 508.4 636.4 512 632 512H8C3.582 512 0 508.4 0 504C0 499.6 3.582 496 8 496H480V260C480 231.3 456.7 208 428 208C399.3 208 376 231.3 376 260V280.5C388.6 281.9 399.8 287 408.3 295.6C418.5 305.9 424 320.6 424 338.1C424 350 417.6 364.9 408.7 379.1C399.7 393.7 387.2 408.9 373.5 421.8C370.4 424.7 365.6 424.7 362.5 421.8C348.8 408.9 336.3 393.7 327.3 379.2C318.4 364.1 312 350.2 312 338.1C312 320.6 317.5 305.9 327.7 295.6C336.2 287 347.4 281.9 360 280.5V260C360 222.4 390.4 192 428 192C448.9 192 467.5 201.4 480 216.2V160C480 129.1 505.1 104 536 104C566.9 104 592 129.1 592 160V216.5C604.6 217.9 615.8 223 624.3 231.6C634.5 241.9 640 256.6 640 274C640 286 633.6 300.9 624.7 315.1C615.7 329.7 603.2 344.9 589.5 357.8C586.4 360.7 581.6 360.7 578.5 357.8C564.8 344.9 552.3 329.7 543.3 315.2C534.4 300.1 528 286.2 528 274C528 256.6 533.5 241.9 543.7 231.6C552.2 223 563.4 217.9 576 216.5V160C576 137.9 558.1 120 536 120C513.9 120 496 137.9 496 160L496 496zM584 232C571.7 232 561.8 236 555.1 242.8C548.4 249.6 544 259.1 544 274C544 281.5 548.3 293.1 556.8 306.7C563.9 318.1 573.4 330 584 340.8C594.6 330 604 318 611.1 306.6C619.7 292.1 624 281.3 624 274C624 259.1 619.6 249.6 612.9 242.8C606.2 236 596.3 232 584 232H584zM395.1 370.6C403.7 356.1 408 345.3 408 338.1C408 323.1 403.6 313.6 396.9 306.8C390.2 300 380.3 296 368 296C355.7 296 345.8 300 339.1 306.8C332.4 313.6 328 323.1 328 338.1C328 345.5 332.3 357.1 340.9 370.7C347.9 382.1 357.4 394 368 404.8C378.6 394 388 382 395.1 370.6H395.1z"/></svg>