<svg xmlns="http://www.w3.org/2000/svg" viewBox="0 0 640 512"><!--! Font Awesome Pro 6.1.1 by @fontawesome - https://fontawesome.com License - https://fontawesome.com/license (Commercial License) Copyright 2022 Fonticons, Inc. --><path d="M571.2 218.6c-8.438 0-16.89 1.594-24.89 4.672c-8.453-36.8-41.7-63.34-81.52-63.34c-37.61 0-70.5 24.38-80.67 58.83C348.4 221.1 320 250.1 320 285.3c0 36.77 30.86 66.67 68.8 66.67h182.4C609.1 351.1 640 322.1 640 285.3C640 248.5 609.1 218.6 571.2 218.6zM571.2 335.1h-182.4c-29.11 0-52.8-22.73-52.8-50.67s23.69-50.66 51.97-50.72c4.281 .9531 9.344-1.844 10.22-6.109c6.234-30.42 34.25-52.5 66.61-52.5c35.36 0 64.31 25.73 67.33 59.84c.2344 2.719 1.859 5.125 4.281 6.391c2.406 1.281 5.328 1.188 7.688-.1562c8.516-4.922 17.64-7.406 27.11-7.406c29.11 0 52.8 22.72 52.8 50.66S600.3 335.1 571.2 335.1zM387.7 378.4c-4.328-.7656-8.516 2.078-9.297 6.453l-19.09 105.6c-.5938 3.297-3.047 4.641-4.078 5.062c-.9844 .4375-3.719 1.203-6.453-.7031l-88.17-61.17c-2.75-1.906-6.375-1.906-9.125 0l-88.17 61.19c-2.75 1.844-5.438 1.094-6.453 .6875c-1.031-.4219-3.484-1.766-4.078-5.062l-19.09-105.6c-.5938-3.281-3.172-5.859-6.453-6.453l-105.6-19.09c-3.297-.5938-4.641-3.047-5.062-4.078s-1.219-3.703 .7031-6.453l61.17-88.17c1.891-2.75 1.891-6.375 0-9.125L17.22 163.3C15.31 160.5 16.11 157.8 16.53 156.8s1.766-3.484 5.062-4.078l105.6-19.09c3.281-.5938 5.859-3.172 6.453-6.453l19.09-105.6c.5938-3.297 3.047-4.641 4.078-5.062C157.9 16.11 160.5 15.34 163.3 17.23l88.17 61.17c2.75 1.906 6.375 1.906 9.125 0l88.16-61.17c2.75-1.922 5.469-1.125 6.469-.7031c1.031 .4219 3.484 1.766 4.078 5.062l19.09 105.6c.7813 4.375 5.016 7.156 9.297 6.453C392 132.9 394.9 128.7 394.1 124.3l-19.09-105.6c-1.375-7.656-6.5-14.02-13.7-17c-7.141-2.969-15.33-2.078-21.72 2.328L256 62.09l-83.61-58C166-.3594 157.9-1.219 150.7 1.75c-7.203 2.984-12.33 9.328-13.7 17l-18.11 100.1l-100.1 18.11c-7.672 1.375-14.02 6.5-17 13.7s-2.109 15.31 2.328 21.7L62.09 256l-58 83.61c-4.453 6.391-5.328 14.5-2.344 21.7s9.328 12.33 17 13.7l100.1 18.11l18.11 100.1c1.375 7.672 6.5 14.02 13.7 17C153.5 511.4 156.5 512 159.4 512c4.562 0 9.094-1.391 12.97-4.078L256 449.9l83.61 58c6.39 4.469 14.52 5.359 21.7 2.344c7.203-2.984 12.33-9.328 13.7-17l19.09-105.6C394.9 383.3 392 379.1 387.7 378.4zM256 160c29.73 0 57.33 13.45 75.69 36.92c2.734 3.5 7.766 4.125 11.22 1.375c3.484-2.719 4.094-7.75 1.375-11.22C322.9 159.7 290.7 144 256 144c-61.75 0-111.1 50.25-111.1 111.1S194.3 367.1 256 367.1c14.95 0 29.47-2.901 43.16-8.62c4.062-1.703 5.984-6.391 4.281-10.47s-6.344-5.969-10.47-4.281C281.3 349.5 268.8 352 256 352c-52.94 0-96-43.06-96-96S203.1 160 256 160z"/></svg>