<svg xmlns="http://www.w3.org/2000/svg" viewBox="0 0 512 512"><!--! Font Awesome Pro 6.0.0-beta3 by @fontawesome - https://fontawesome.com License - https://fontawesome.com/license (Commercial License) Copyright 2021 Fonticons, Inc. --><path d="M256 136C189.7 136 136 189.7 136 256c0 66.27 53.72 120 120 120s120-53.73 120-120C376 189.7 322.3 136 256 136zM256 360c-57.35 0-104-46.65-104-104S198.7 152 256 152S360 198.7 360 256S313.3 360 256 360zM256 112c4.422 0 8-3.578 8-8v-96C264 3.578 260.4 0 256 0S248 3.578 248 8v96C248 108.4 251.6 112 256 112zM256 400c-4.422 0-8 3.578-8 8v96C248 508.4 251.6 512 256 512s8-3.578 8-8v-96C264 403.6 260.4 400 256 400zM504 248h-96c-4.422 0-8 3.578-8 8s3.578 8 8 8h96C508.4 264 512 260.4 512 256S508.4 248 504 248zM112 256c0-4.422-3.578-8-8-8h-96C3.578 248 0 251.6 0 256s3.578 8 8 8h96C108.4 264 112 260.4 112 256zM363.5 156.5c2.047 0 4.094-.7813 5.656-2.344l52.52-52.52c3.125-3.125 3.125-8.188 0-11.31s-8.188-3.125-11.31 0l-52.52 52.52c-3.125 3.125-3.125 8.2 0 11.32C359.4 155.7 361.4 156.5 363.5 156.5zM142.9 357.8l-52.52 52.52c-3.125 3.125-3.125 8.188 0 11.31C91.91 423.2 93.95 424 96 424s4.094-.7813 5.656-2.344l52.52-52.52c3.125-3.125 3.125-8.2 0-11.33S145.1 354.7 142.9 357.8zM369.1 357.8c-3.125-3.125-8.188-3.138-11.31-.0125s-3.125 8.2 0 11.33l52.52 52.52C411.9 423.2 413.1 424 416 424s4.094-.7813 5.656-2.344c3.125-3.125 3.125-8.188 0-11.31L369.1 357.8zM142.9 154.2c1.562 1.562 3.609 2.344 5.656 2.344S152.6 155.7 154.2 154.2c3.125-3.125 3.125-8.2 0-11.32L101.7 90.34c-3.125-3.125-8.188-3.125-11.31 0s-3.125 8.188 0 11.31L142.9 154.2z"/></svg>