<svg xmlns="http://www.w3.org/2000/svg" viewBox="0 0 576 512"><!--! Font Awesome Pro 6.1.1 by @fontawesome - https://fontawesome.com License - https://fontawesome.com/license (Commercial License) Copyright 2022 Fonticons, Inc. --><path d="M568 504H8C3.594 504 0 507.6 0 512s3.594 8 8 8h560c4.406 0 8-3.578 8-8S572.4 504 568 504zM80.22 468.6c2.5 3.625 7.5 4.469 11.12 2.016c3.625-2.516 4.531-7.5 2-11.14l-52.03-75.02c-2.031-2.938-1.188-5.812-.75-6.906c.4687-1.109 1.906-3.734 5.437-4.375L155 353.4c3.281-.5938 5.844-3.172 6.438-6.453l19.72-109C181.8 234.5 184.4 233 185.5 232.6s3.969-1.328 6.938 .75l91 63.16c2.75 1.906 6.375 1.906 9.125 0l91-63.16c2.969-2.094 5.812-1.219 6.938-.75c1.094 .4531 3.719 1.906 4.344 5.422l19.72 109c.5938 3.281 3.156 5.859 6.438 6.453l108.1 19.7c3.532 .6406 4.969 3.266 5.438 4.375c.4375 1.094 1.281 3.969-.75 6.906l-52.03 75.02c-2.531 3.641-1.625 8.625 2 11.14C486.1 471.5 487.6 472 489.2 472c2.531 0 5.031-1.203 6.562-3.438l52.03-75.02c4.531-6.531 5.438-14.81 2.406-22.16s-9.531-12.58-17.34-14l-103.6-18.72l-18.72-103.5c-1.406-7.812-6.625-14.31-13.97-17.36c-7.406-3-15.62-2.141-22.19 2.375L288 280.2l-86.44-60C195 215.6 186.8 214.8 179.4 217.8C172 220.8 166.8 227.3 165.4 235.1l-18.72 103.5L43.13 357.4c-7.812 1.422-14.31 6.656-17.34 14s-2.125 15.62 2.406 22.16L80.22 468.6zM288 360c-58.84 0-108.8 44.28-116.3 103c-.5625 4.375 2.562 8.375 6.938 8.938c4.531 .4844 8.375-2.578 8.938-6.938C194 414.3 237.2 376 288 376s93.97 38.27 100.4 89c.5 4.047 3.969 7 7.938 7c.3125 0 .6562-.0156 1-.0625c4.375-.5625 7.5-4.562 6.938-8.938C396.8 404.3 346.8 360 288 360zM197.4 101.9L280 26.19V216C280 220.4 283.6 224 288 224s8-3.578 8-8V26.19l82.59 75.7C380.1 103.3 382.1 104 384 104c2.156 0 4.312-.875 5.906-2.594c2.969-3.25 2.75-8.312-.5-11.3l-96-88c-3.062-2.812-7.75-2.812-10.81 0l-96 88c-3.25 2.984-3.469 8.047-.5 11.3C189.1 104.7 194.2 104.9 197.4 101.9z"/></svg>