<svg xmlns="http://www.w3.org/2000/svg" viewBox="0 0 512 512"><!--! Font Awesome Pro 6.0.0-beta3 by @fontawesome - https://fontawesome.com License - https://fontawesome.com/license (Commercial License) Copyright 2021 Fonticons, Inc. --><path d="M96 384c-17.67 0-32 14.33-32 32c0 17.67 14.33 32 32 32s32-14.33 32-32C128 398.3 113.7 384 96 384zM96 432c-8.822 0-16-7.178-16-16s7.178-16 16-16s16 7.178 16 16S104.8 432 96 432zM128 48H64C55.16 48 48 55.16 48 64v64c0 8.836 7.164 16 16 16h64c8.836 0 16-7.164 16-16V64C144 55.16 136.8 48 128 48zM128 128H64V64h64V128zM192 32c0-17.67-14.33-32-32-32L32 .0001c-17.67 0-32 14.33-32 32v384c0 53.02 42.98 95.1 96 95.1s96-42.98 96-95.1V32zM176 416c0 44.11-35.89 80-80 80S16 460.1 16 416V32c0-8.822 7.178-16 16-16h128c8.822 0 16 7.178 16 16V416zM128 176H64C55.16 176 48 183.2 48 192v64c0 8.836 7.164 16 16 16h64c8.836 0 16-7.164 16-16V192C144 183.2 136.8 176 128 176zM128 256H64v-64h64V256zM474.7 320H384c-4.406 0-8 3.578-8 8S379.6 336 384 336h90.66C486.4 336 496 345.6 496 357.3v117.3C496 486.4 486.4 496 474.7 496H192c-4.406 0-8 3.578-8 8S187.6 512 192 512h282.7C495.3 512 512 495.3 512 474.7v-117.3C512 336.8 495.3 320 474.7 320zM218.3 406.8c-3.125 3.125-3.125 8.188 0 11.31C219.9 419.7 221.9 420.5 224 420.5s4.094-.7813 5.656-2.344l207.4-207.4C444.1 203.7 448 194.3 448 184.3c0-9.984-3.875-19.36-10.94-26.41l-82.97-82.97c-14.06-14.06-38.72-14.12-52.78 0L218.3 157.9c-3.125 3.125-3.125 8.188 0 11.31s8.188 3.125 11.31 0l82.97-82.95c8.062-8.109 22.09-8.047 30.16 0l82.97 82.97C429.8 173.3 432 178.6 432 184.3c0 5.688-2.219 11.05-6.25 15.08L218.3 406.8z"/></svg>