<svg xmlns="http://www.w3.org/2000/svg" viewBox="0 0 512 512"><!--! Font Awesome Pro 6.0.0-beta3 by @fontawesome - https://fontawesome.com License - https://fontawesome.com/license (Commercial License) Copyright 2021 Fonticons, Inc. --><path d="M502.1 9.05c-11.77-11.73-30.56-12.11-42.81-.8281l-233.6 214.5C223.3 225.8 223.1 230.8 226.1 234.1c3.016 3.281 8.078 3.469 11.3 .4843l233.6-214.5c5.953-5.437 14.1-5.281 20.69 .3594c5.656 5.656 5.812 14.75 .3594 20.69l-167.5 182.2c-2.984 3.25-2.781 8.312 .4844 11.3c1.531 1.406 3.469 2.109 5.406 2.109c2.156 0 4.312-.8749 5.891-2.594l167.5-182.2C515 39.61 514.7 20.8 502.1 9.05zM296.9 256H168.8c-6.078 0-11.81 2.422-16.17 6.796l-141.6 141.9c-14.78 14.8-14.78 38.89-.0156 53.72l42.31 42.4C60.56 508 70.07 512 80.21 512s19.66-3.953 26.81-11.12l206-205.5c6.687-6.546 8.734-16.39 5.187-25.06C314.7 261.6 306.3 256 296.9 256zM22.4 416l79.05-79.24l15.22 15.22L22.07 446.6C13.96 437.1 14.01 424.4 22.4 416zM33.27 458l94.7-94.7l20.69 20.69l-94.73 94.73L33.27 458zM95.7 489.6c-8.101 8.132-21.98 8.199-30.36 .3925l94.64-94.64l15.09 15.08L95.7 489.6zM301.8 284l-115.4 115.1l-73.65-73.64l51.23-51.36c1.344-1.344 3.062-2.094 4.844-2.094h128.1c4.391 0 6.094 3.328 6.5 4.359C303.8 277.4 304.1 280.9 301.8 284z"/></svg>