<svg xmlns="http://www.w3.org/2000/svg" viewBox="0 0 512 512"><!--! Font Awesome Pro 6.1.1 by @fontawesome - https://fontawesome.com License - https://fontawesome.com/license (Commercial License) Copyright 2022 Fonticons, Inc. --><path d="M117.3 230.7c-8.971-8.969-23.56-9.031-32.6 0L67.1 248.3C59.25 256 58 268.3 64.16 277.5l46.6 69.83l-41.66 41.63l-22.28-11.14c-8-4.094-17.78-2.594-24.35 3.922l-16.19 16.19C2.219 401.9 0 407.2 0 412.9c0 5.674 2.219 10.99 6.219 14.89l77.94 77.93C88.13 509.8 93.44 512 99.13 512c5.656 0 10.97-2.234 14.88-6.219l16.22-16.24c6.5-6.484 8.062-16.28 3.969-24.3l-11.19-22.36l41.66-41.63l69.81 46.58c9.219 6.156 21.47 4.922 29.13-2.875l17.66-17.64c8.969-9 8.969-23.63 0-32.61L117.3 230.7zM269.9 416l-17.72 17.7c-2.312 2.375-6.094 2.672-8.875 .8125l-80.75-53.86l-59.03 59.07l16.35 32.74c.9687 1.924 .5938 4.174-1 5.768l-16.28 16.3c-1.906 1.938-5.125 1.969-7.094-.0625l-78.07-78.04C16.53 415.5 16 414.2 16 412.9c0-1.344 .5313-2.594 1.531-3.578l16.25-16.23c1-1 2.25-1.531 3.562-1.531c.75 0 1.5 .1875 2.25 .5625l32.69 16.34l59.03-59.07L77.47 268.7C75.57 265.8 75.94 262.1 78.35 259.7l17.66-17.64c2.719-2.719 7.188-2.75 9.969 0l163.1 163.1C272.7 408.8 272.7 413.3 269.9 416zM505.4 6.529c-5-5.062-12-7.266-19.1-6.312l-86.28 14.61L178.4 236.5c-3.125 3.125-3.125 8.188 0 11.31s8.188 3.125 11.31 0l218.1-218.1l81.07-13.74c2.25-.2813 3.938 .4062 5.312 1.812c1.438 1.422 2.125 3.377 1.875 5.143l-13.78 81.25l-218.1 218.1c-3.125 3.127-3.125 8.189 0 11.31c1.562 1.562 3.594 2.344 5.656 2.344s4.094-.7813 5.656-2.344l221.7-221.7l14.62-86.51C512.8 18.45 510.5 11.54 505.4 6.529z"/></svg>