<svg xmlns="http://www.w3.org/2000/svg" viewBox="0 0 512 512"><!--! Font Awesome Pro 6.1.1 by @fontawesome - https://fontawesome.com License - https://fontawesome.com/license (Commercial License) Copyright 2022 Fonticons, Inc. --><path d="M509.7 98.34l-96-95.1c-3.125-3.125-8.188-3.125-11.31 0s-3.125 8.188 0 11.31L444.7 56L384 116.7l-82.34-82.34c-3.125-3.125-8.188-3.125-11.31 0s-3.125 8.188 0 11.31l176 175.1c3.127 3.127 8.186 3.127 11.31 0c3.125-3.125 3.125-8.188 0-11.31L395.3 127.1L456 67.31l42.34 42.34c3.127 3.127 8.186 3.127 11.31 0C512.8 106.5 512.8 101.5 509.7 98.34zM409.1 217.1l-205.2 205.2c-14.39 14.48-34.53 21.41-54.81 19.3L78.5 433.5l-8.953-71.58c-2.219-20.48 4.812-40.47 19.3-54.84L128.3 267.6l58.04 58.04c3.127 3.127 8.186 3.127 11.31 0c3.125-3.125 3.125-8.188 0-11.31L139.6 256.3L192.3 203.6l58.07 58.07c3.127 3.127 8.186 3.127 11.31 0c3.125-3.125 3.125-8.188 0-11.31L203.6 192.3l90.32-90.38c3.125-3.125 3.125-8.188 0-11.31s-8.188-3.125-11.31 0L77.55 295.8c-17.94 17.8-26.66 42.55-23.89 68.02l9.246 74l-60.56 60.56c-3.125 3.125-3.125 8.188 0 11.31c3.127 3.127 8.186 3.127 11.31 0l60.56-60.56l73.91 9.297c24.38 2.709 49.57-5.35 68-23.89l205.2-205.2c3.125-3.125 3.125-8.188 0-11.31S413.1 214.9 409.1 217.1z"/></svg>