<svg xmlns="http://www.w3.org/2000/svg" viewBox="0 0 512 512"><!--! Font Awesome Pro 6.1.1 by @fontawesome - https://fontawesome.com License - https://fontawesome.com/license (Commercial License) Copyright 2022 Fonticons, Inc. --><path d="M427.2 320c-5.666 0-9.539 5.721-7.436 10.98l44.79 111.1C465.8 446.1 468.8 448 472 448c1 0 1.1-.1875 2.969-.5625c4.094-1.656 6.094-6.312 4.469-10.41l-44.8-111.1C433.4 321.1 430.5 320 427.2 320zM84.8 320c-3.275 0-6.219 1.992-7.436 5.033l-44.8 111.1c-1.625 4.094 .375 8.75 4.469 10.41C37.1 447.8 39 448 40 448c3.188 0 6.188-1.906 7.438-5.031l44.79-111.1C94.34 325.7 90.46 320 84.8 320zM480 224h-85.75l-38.42-96H416c17.67 0 32-14.33 32-32c0-17.67-14.33-32-32-32H96C78.33 64 64 78.33 64 96c0 17.67 14.33 32 32 32h60.18L117.8 224H32C14.33 224 0 238.3 0 256c0 17.67 14.33 32 32 32h448c17.67 0 32-14.33 32-32C512 238.3 497.7 224 480 224zM96 112C87.18 112 80 104.8 80 96S87.18 80 96 80h320c8.822 0 16 7.178 16 16S424.8 112 416 112H96zM173.4 128h165.1l38.4 96H135L173.4 128zM480 272H32C23.18 272 16 264.8 16 256S23.18 240 32 240h448c8.822 0 16 7.178 16 16S488.8 272 480 272z"/></svg>