<svg xmlns="http://www.w3.org/2000/svg" viewBox="0 0 448 512"><!--! Font Awesome Pro 6.1.1 by @fontawesome - https://fontawesome.com License - https://fontawesome.com/license (Commercial License) Copyright 2022 Fonticons, Inc. --><path d="M400 0h-352C21.5 0 0 21.5 0 48v416C0 490.5 21.5 512 48 512h352c26.5 0 48-21.5 48-48v-416C448 21.5 426.5 0 400 0zM432 464c0 17.64-14.36 32-32 32h-352c-17.64 0-32-14.36-32-32v-96h416V464zM432 352h-416V48c0-17.64 14.36-32 32-32h352c17.64 0 32 14.36 32 32V352zM224 464c17.67 0 32-14.33 32-32s-14.33-32-32-32c-17.67 0-32 14.33-32 32S206.3 464 224 464zM224 416c8.822 0 16 7.176 16 15.1S232.8 448 224 448s-16-7.176-16-16S215.2 416 224 416z"/></svg>