<svg xmlns="http://www.w3.org/2000/svg" viewBox="0 0 640 512"><!--! Font Awesome Pro 6.0.0-beta3 by @fontawesome - https://fontawesome.com License - https://fontawesome.com/license (Commercial License) Copyright 2021 Fonticons, Inc. --><path d="M159.1 191.1C71.62 191.1 0 263.6 0 351.1S71.62 512 159.1 512S320 440.4 320 351.1S248.3 191.1 159.1 191.1zM160 496c-76.66 0-138.9-60.38-143.2-136h286.4C298.9 435.6 236.7 496 160 496zM16.81 344C21.05 268.4 83.34 208 160 208s138.9 60.38 143.2 136H16.81zM593.1 46.85c-62.48-62.48-163.8-62.48-226.3 0c-62.48 62.48-62.48 163.9 0 226.3c62.48 62.48 163.8 62.48 226.3 0C655.6 210.7 655.6 109.3 593.1 46.85zM378.2 261.8c-54.21-54.21-55.55-140.9-5.086-197.4l202.5 202.5C519.1 317.4 432.4 316 378.2 261.8zM586.9 255.6l-202.5-202.5c56.47-50.47 143.2-49.13 197.4 5.084C636 112.4 637.4 199.1 586.9 255.6z"/></svg>