<svg xmlns="http://www.w3.org/2000/svg" viewBox="0 0 640 512"><!--! Font Awesome Pro 6.0.0-beta3 by @fontawesome - https://fontawesome.com License - https://fontawesome.com/license (Commercial License) Copyright 2021 Fonticons, Inc. --><path d="M576 64H64C28.8 64 0 92.8 0 128v256c0 35.2 28.8 64 64 64h512c35.2 0 64-28.8 64-64V128C640 92.8 611.2 64 576 64zM624 384c0 26.47-21.53 48-48 48H64c-26.47 0-48-21.53-48-48V128c0-26.47 21.53-48 48-48h512c26.47 0 48 21.53 48 48V384zM72 320h16C92.38 320 96 316.4 96 312v-16C96 291.6 92.38 288 88 288h-16C67.63 288 64 291.6 64 296v16C64 316.4 67.63 320 72 320zM152 320C156.4 320 160 316.4 160 312v-16C160 291.6 156.4 288 152 288h-16C131.6 288 128 291.6 128 296v16C128 316.4 131.6 320 136 320H152zM216 320C220.4 320 224 316.4 224 312v-16C224 291.6 220.4 288 216 288h-16C195.6 288 192 291.6 192 296v16C192 316.4 195.6 320 200 320H216zM280 320C284.4 320 288 316.4 288 312v-16C288 291.6 284.4 288 280 288h-16C259.6 288 256 291.6 256 296v16C256 316.4 259.6 320 264 320H280zM344 288h-16C323.6 288 320 291.6 320 296v16C320 316.4 323.6 320 328 320h16C348.4 320 352 316.4 352 312v-16C352 291.6 348.4 288 344 288zM320 128H96C78.33 128 64 142.3 64 160v64c0 17.67 14.33 32 32 32h224c17.67 0 32-14.33 32-32V160C352 142.3 337.7 128 320 128zM336 224c0 8.822-7.178 16-16 16H96C87.18 240 80 232.8 80 224V160c0-8.822 7.178-16 16-16h224c8.822 0 16 7.178 16 16V224zM344 368h-272C67.58 368 64 371.6 64 376S67.58 384 72 384h272c4.422 0 8-3.594 8-8S348.4 368 344 368zM568 368h-176c-4.422 0-8 3.594-8 8S387.6 384 392 384h176c4.422 0 8-3.594 8-8S572.4 368 568 368z"/></svg>