<svg xmlns="http://www.w3.org/2000/svg" viewBox="0 0 512 512"><!--! Font Awesome Pro 6.0.0-beta3 by @fontawesome - https://fontawesome.com License - https://fontawesome.com/license (Commercial License) Copyright 2021 Fonticons, Inc. --><path d="M322.3 34.31C325.4 31.21 330.5 31.23 333.6 34.37L477.3 179.6C523.6 226.4 523.6 301.6 477.3 348.4L349.5 477.6C346.3 480.8 341.3 480.8 338.1 477.7C335 474.6 334.1 469.5 338.1 466.4L465.1 337.2C506.1 296.6 506.1 231.4 465.1 190.8L322.2 45.63C319.1 42.49 319.2 37.42 322.3 34.31V34.31zM72 144C72 121.9 89.91 104 112 104C134.1 104 152 121.9 152 144C152 166.1 134.1 184 112 184C89.91 184 72 166.1 72 144zM112 168C125.3 168 136 157.3 136 144C136 130.7 125.3 120 112 120C98.75 120 88 130.7 88 144C88 157.3 98.75 168 112 168zM48 32H197.5C214.5 32 230.7 38.74 242.7 50.75L410.7 218.7C435.7 243.7 435.7 284.3 410.7 309.3L277.3 442.7C252.3 467.7 211.7 467.7 186.7 442.7L18.75 274.7C6.743 262.7 0 246.5 0 229.5V80C0 53.49 21.49 32 48 32L48 32zM16 80V229.5C16 242.2 21.06 254.4 30.06 263.4L198.1 431.4C216.8 450.2 247.2 450.2 265.9 431.4L399.4 297.9C418.2 279.2 418.2 248.8 399.4 230.1L231.4 62.06C222.4 53.06 210.2 48 197.5 48H48C30.33 48 16 62.33 16 80V80z"/></svg>