<svg xmlns="http://www.w3.org/2000/svg" viewBox="0 0 320 512"><!--! Font Awesome Pro 6.0.0-beta3 by @fontawesome - https://fontawesome.com License - https://fontawesome.com/license (Commercial License) Copyright 2021 Fonticons, Inc. --><path d="M312 264C312 259.6 308.4 256 304 256h-288C11.59 256 8 259.6 8 264S11.59 272 16 272h127.3l-53.6 67C87 342.5 87.56 347.5 91 350.3C92.47 351.4 94.25 352 96 352c2.344 0 4.656-1.031 6.25-3L160 276.8l57.75 72.19C219.3 350.1 221.7 352 224 352c1.75 0 3.531-.5781 5-1.75c3.438-2.766 4-7.797 1.25-11.25L176.7 272H304C308.4 272 312 268.4 312 264zM37.12 214.1L16.04 63.15C17.63 43.61 73.37 16 160 16s142.4 27.61 143.1 47.15L282.9 214.1C282.2 219.7 285.9 224 290.7 224h.1129c3.965 0 7.323-2.924 7.869-6.852L320 64c0-35.35-71.63-64-160-64S0 28.65 0 64l21.27 153.1C21.82 221.1 25.17 224 29.14 224h.111C34.07 224 37.78 219.7 37.12 214.1zM232 432.6C232.4 436.8 235.9 440 240 440c.2187 0 .4375-.0156 .6562-.0313c4.406-.3594 7.688-4.219 7.312-8.609l-3.46-42.38c-.4023-4.927-5.179-8.286-9.933-6.93c-.0527 .015-.1054 .0299-.1582 .0447c-3.662 1.027-6.123 4.419-5.816 8.21L232 432.6zM153.8 335.8C152.6 337.3 152 339 152 340.8V440C152 444.4 155.6 448 160 448s8-3.578 8-8v-99.16c0-1.817-.6183-3.579-1.753-4.998l0 0C163 331.8 156.1 331.8 153.8 335.8L153.8 335.8zM240.8 72.05c-4.281-.3438-8.312 2.734-8.781 7.125l-13.96 136.1C217.6 219.9 221.3 224 225.1 224h.0016c4.071 0 7.483-3.077 7.902-7.126l14.09-136C248.4 76.42 245.2 72.5 240.8 72.05zM285.1 312.1l18.87 135.9C302.4 468.4 246.6 496 160 496s-142.4-27.61-143.1-47.15l18.87-135.9C35.56 308.2 31.87 304 27.08 304H26.88C22.94 304 19.6 306.9 19.05 310.8L0 448c0 35.35 71.63 64 160 64s160-28.65 160-64l-19.05-137.2C300.4 306.9 297.1 304 293.1 304h-.2005C288.1 304 284.4 308.2 285.1 312.1zM160 64C155.6 64 152 67.58 152 72v144.1C152 220.4 155.6 224 159.9 224h.1111C164.4 224 168 220.4 168 216.1V72C168 67.58 164.4 64 160 64zM72.03 431.4c-.375 4.391 2.906 8.25 7.312 8.609C79.56 439.1 79.78 440 80 440c4.125 0 7.625-3.172 7.969-7.359l3.408-42.36c.3044-3.784-2.149-7.17-5.803-8.201c-.0538-.0152-.1076-.0305-.1613-.0459c-4.758-1.365-9.547 1.997-9.947 6.932L72.03 431.4zM87.97 79.17C87.5 74.8 83.88 71.38 79.19 72.05C74.78 72.5 71.59 76.42 72.03 80.83l14.22 136.1C86.68 220.9 90.09 224 94.16 224h0c4.711 0 8.387-4.076 7.902-8.763L87.97 79.17z"/></svg>