<svg xmlns="http://www.w3.org/2000/svg" viewBox="0 0 448 512"><!--! Font Awesome Pro 6.0.0-beta3 by @fontawesome - https://fontawesome.com License - https://fontawesome.com/license (Commercial License) Copyright 2021 Fonticons, Inc. --><path d="M384 32h-60.38c-4.416 0-8 3.584-8 8s3.584 8 8 8H384c26.5 0 48 21.5 48 48v246.9c-17.18 5.119-36.32 1.791-50.98-9.951l-23.9-19.11c-.5117-.4473-1.088-.7988-1.695-1.088c-2.145-1.023-4.672-1.023-6.848 0c-.6074 .2891-1.184 .6406-1.695 1.088l-23.9 19.11c-20.45 16.38-49.5 16.38-69.95 0l-23.9-19.11c-.5117-.4473-1.088-.7988-1.695-1.088C226.3 312.3 225.2 312 224 312S221.7 312.3 220.6 312.8C219.1 313.1 219.4 313.4 218.9 313.9l-23.9 19.11c-20.45 16.38-49.5 16.38-69.95 0L101.1 313.9C100.6 313.4 100 313.1 99.42 312.8c-2.207-1.055-4.736-1.023-6.879 .0332c-.6094 .2559-1.152 .6074-1.664 1.055l-23.9 19.11C52.32 344.7 33.18 348 16 342.9V96c0-26.5 21.5-48 48-48h64.38c4.416 0 8-3.584 8-8S132.8 32 128.4 32H64C28.64 32 0 60.64 0 96v320c0 35.36 28.64 64 64 64h320c35.36 0 64-28.64 64-64V96C448 60.64 419.4 32 384 32zM432 416c0 26.5-21.5 48-48 48H64c-26.5 0-48-21.5-48-48v-56.54c20.86 4.736 43.39 .0645 60.99-13.98L96 330.2l19.01 15.23c26.3 21.02 63.68 21.02 89.98 0L224 330.2l19.01 15.23c26.3 21.02 63.68 21.02 89.98 0L352 330.2l19.01 15.23c17.6 14.05 40.13 18.72 60.99 13.98V416z"/></svg>