<svg xmlns="http://www.w3.org/2000/svg" viewBox="0 0 576 512"><!--! Font Awesome Pro 6.1.1 by @fontawesome - https://fontawesome.com License - https://fontawesome.com/license (Commercial License) Copyright 2022 Fonticons, Inc. --><path d="M128 256C128 202.1 170.1 160 224 160C277 160 320 202.1 320 256C320 309 277 352 224 352C170.1 352 128 309 128 256zM224 336C268.2 336 304 300.2 304 256C304 211.8 268.2 176 224 176C179.8 176 144 211.8 144 256C144 300.2 179.8 336 224 336zM568 464C572.4 464 576 467.6 576 472C576 476.4 572.4 480 568 480H224C100.3 480 0 379.7 0 256C0 132.3 100.3 32 224 32C347.7 32 448 132.3 448 256C448 350.3 389.8 430.9 307.3 464H568zM224 464C338.9 464 432 370.9 432 256C432 141.1 338.9 48 224 48C109.1 48 16 141.1 16 256C16 370.9 109.1 464 224 464z"/></svg>