<svg xmlns="http://www.w3.org/2000/svg" viewBox="0 0 640 512"><!--! Font Awesome Pro 6.0.0-beta3 by @fontawesome - https://fontawesome.com License - https://fontawesome.com/license (Commercial License) Copyright 2021 Fonticons, Inc. --><path d="M616 480H256c-123.5 0-224-100.5-224-224s100.5-224 224-224s224 100.5 224 224c0 61.88-24.69 119.5-69.53 162.2c-3.188 3.047-3.312 8.125-.25 11.31c3 3.188 8.062 3.312 11.31 .2813C469.6 384 496 322.3 496 256c0-132.3-107.7-240-240-240S16 123.7 16 256s107.7 240 240 240h360c4.406 0 8-3.578 8-8S620.4 480 616 480zM152 256c0 57.34 46.66 104 104 104S360 313.3 360 256S313.3 152 256 152S152 198.7 152 256zM344 256c0 48.53-39.47 88-88 88S168 304.5 168 256S207.5 168 256 168S344 207.5 344 256z"/></svg>