<svg xmlns="http://www.w3.org/2000/svg" viewBox="0 0 512 512"><!--! Font Awesome Pro 6.1.1 by @fontawesome - https://fontawesome.com License - https://fontawesome.com/license (Commercial License) Copyright 2022 Fonticons, Inc. --><path d="M384 32c-35.35 0-64 28.65-64 64c0 35.35 28.65 64 64 64s64-28.65 64-64C448 60.65 419.3 32 384 32zM384 144c-26.47 0-48-21.53-48-48s21.53-48 48-48s48 21.53 48 48S410.5 144 384 144zM184 352.8V296C184 291.6 180.4 288 176 288S168 291.6 168 296v56.81C145.3 356.6 128 376.2 128 400C128 426.5 149.5 448 176 448S224 426.5 224 400C224 376.2 206.7 356.6 184 352.8zM176 432c-17.64 0-32-14.36-32-32s14.36-32 32-32s32 14.36 32 32S193.6 432 176 432zM256 80C256 35.82 220.2 0 176 0S96 35.82 96 80v242.5C76.42 342.6 64 369.7 64 400C64 461.9 114.1 512 176 512s112-50.14 112-112c0-30.3-12.42-57.38-32-77.51V80zM272 400c0 52.93-43.06 96-96 96s-96-43.07-96-96c0-24.57 9.756-48.14 27.47-66.35L112 328.1V80c0-35.29 28.71-64 64-64s64 28.71 64 64v248.1l4.529 4.658C262.2 351.9 272 375.4 272 400z"/></svg>