<svg xmlns="http://www.w3.org/2000/svg" viewBox="0 0 576 512"><!--! Font Awesome Pro 6.1.1 by @fontawesome - https://fontawesome.com License - https://fontawesome.com/license (Commercial License) Copyright 2022 Fonticons, Inc. --><path d="M440 352.8V296c0-4.422-3.592-8-7.998-8S424 291.6 424 296v56.81C401.3 356.6 384 376.2 384 400c0 26.51 21.49 48 48 48S480 426.5 480 400C480 376.2 462.7 356.6 440 352.8zM432 432c-17.64 0-32-14.36-32-32s14.36-32 32-32s32 14.36 32 32S449.6 432 432 432zM512 322.5V80c0-44.18-35.81-79.1-79.1-79.1S352 35.82 352 80v242.5C332.4 342.6 320 369.7 320 400c0 61.86 50.15 112 112 112S544 461.9 544 400C544 369.7 531.6 342.6 512 322.5zM432 496c-52.94 0-96-43.07-96-96c0-24.57 9.756-48.14 27.47-66.35L368 328.1V80c0-35.29 28.71-64 64-64s64 28.71 64 64v248.1l4.529 4.658C518.2 351.9 528 375.4 528 400C528 452.9 484.9 496 432 496zM244 175.5L183.1 210.1v-94.83l45.66-45.66c3.125-3.125 3.125-8.188 0-11.31s-8.188-3.125-11.31 0L183.1 92.69V40c0-4.406-3.594-8-8-8s-8 3.594-8 8v52.69L133.7 58.34c-3.125-3.125-8.188-3.125-11.31 0s-3.125 8.188 0 11.31L167.1 115.3v94.83L85.87 162.7L69.16 100.4C68.02 96.09 63.63 93.56 59.36 94.71C55.1 95.85 52.56 100.2 53.71 104.5L66.28 151.4L20.65 125.1C16.83 122.9 11.92 124.2 9.721 128s-.8867 8.725 2.928 10.93L58.28 165.3L11.36 177.8C7.096 178.1 4.564 183.4 5.707 187.6c1.145 4.27 5.529 6.801 9.797 5.656l62.37-16.71L160 224L77.87 271.4L15.5 254.7c-4.268-1.145-8.652 1.387-9.797 5.656c-1.143 4.27 1.389 8.652 5.656 9.797L58.28 282.7L12.65 309.1C8.834 311.3 7.518 316.2 9.721 320c2.203 3.816 7.113 5.133 10.93 2.93L66.28 296.6L53.71 343.5c-1.143 4.268 1.389 8.652 5.656 9.797c4.27 1.143 8.654-1.389 9.797-5.656l16.71-62.37L167.1 237.9v94.83l-45.66 45.66c-3.125 3.125-3.125 8.188 0 11.31s8.188 3.125 11.31 0l34.34-34.34V408c0 4.406 3.594 8 8 8s8-3.594 8-8v-52.69l34.34 34.34C219.9 391.2 221.9 392 223.1 392s4.094-.7813 5.656-2.344c3.125-3.125 3.125-8.188 0-11.31L183.1 332.7v-94.83L244 272.5C249.3 275.6 256 271.7 256 265.6c0-2.859-1.523-5.5-4-6.93L192 224l60-34.64C254.5 187.9 256 185.3 256 182.4C256 176.3 249.3 172.4 244 175.5z"/></svg>