<svg xmlns="http://www.w3.org/2000/svg" viewBox="0 0 320 512"><!--! Font Awesome Pro 6.1.1 by @fontawesome - https://fontawesome.com License - https://fontawesome.com/license (Commercial License) Copyright 2022 Fonticons, Inc. --><path d="M240 322.5V80c0-44.18-35.82-79.1-79.1-79.1S80 35.82 80 80v242.5c-19.58 20.13-32 47.21-32 77.51c0 61.86 50.14 112 112 112S272 461.9 272 400C272 369.7 259.6 342.6 240 322.5zM160 496c-52.94 0-96-43.07-96-96c0-24.57 9.756-48.14 27.47-66.35L96 328.1V80c0-35.29 28.71-64 64-64s64 28.71 64 64v248.1l4.529 4.658C246.2 351.9 256 375.4 256 400C256 452.9 212.9 496 160 496zM168 352.8V264c0-4.422-3.594-7.1-7.1-7.1S152 259.6 152 264v88.81C129.3 356.6 112 376.2 112 400c0 26.51 21.49 48 48 48S208 426.5 208 400C208 376.2 190.7 356.6 168 352.8zM160 432C142.4 432 128 417.6 128 400s14.36-32 32-32s32 14.36 32 32S177.6 432 160 432z"/></svg>