<svg xmlns="http://www.w3.org/2000/svg" viewBox="0 0 384 512"><!--! Font Awesome Pro 6.0.0-beta3 by @fontawesome - https://fontawesome.com License - https://fontawesome.com/license (Commercial License) Copyright 2021 Fonticons, Inc. --><path d="M0 40C0 35.58 3.582 32 8 32H376C380.4 32 384 35.58 384 40C384 44.42 380.4 48 376 48H8C3.582 48 0 44.42 0 40zM0 168C0 163.6 3.582 160 8 160H376C380.4 160 384 163.6 384 168C384 172.4 380.4 176 376 176H200V472C200 476.4 196.4 480 192 480C187.6 480 184 476.4 184 472V176H8C3.582 176 0 172.4 0 168z"/></svg>