<svg xmlns="http://www.w3.org/2000/svg" viewBox="0 0 576 512"><!--! Font Awesome Pro 6.0.0-beta3 by @fontawesome - https://fontawesome.com License - https://fontawesome.com/license (Commercial License) Copyright 2021 Fonticons, Inc. --><path d="M253.7 250.3l-216-216c-3.125-3.125-8.188-3.125-11.31 0s-3.125 8.188 0 11.31L236.7 256l-210.3 210.3c-3.125 3.125-3.125 8.188 0 11.31C27.91 479.2 29.95 480 32 480s4.094-.7813 5.656-2.344l216-216C256.8 258.5 256.8 253.5 253.7 250.3zM568 464H232C227.6 464 224 467.6 224 472S227.6 480 232 480h336c4.422 0 8-3.578 8-8S572.4 464 568 464z"/></svg>