<svg xmlns="http://www.w3.org/2000/svg" viewBox="0 0 448 512"><!--! Font Awesome Pro 6.0.0-beta3 by @fontawesome - https://fontawesome.com License - https://fontawesome.com/license (Commercial License) Copyright 2021 Fonticons, Inc. --><path d="M440 32H8C3.578 32 0 35.58 0 40v80C0 124.4 3.578 128 8 128S16 124.4 16 120V48h200v224h-48C163.6 272 160 275.6 160 280S163.6 288 168 288h112C284.4 288 288 284.4 288 280S284.4 272 280 272h-48v-224h200v72C432 124.4 435.6 128 440 128S448 124.4 448 120v-80C448 35.58 444.4 32 440 32zM357.7 290.3c-3.125-3.125-8.188-3.125-11.31 0s-3.125 8.188 0 11.31L420.7 376H27.31l74.34-74.34C103.2 300.1 104 298 104 296S103.2 291.9 101.7 290.3c-3.125-3.125-8.188-3.125-11.31 0l-88 88c-3.125 3.125-3.125 8.188 0 11.31l88 88c3.125 3.125 8.188 3.125 11.31 0s3.125-8.188 0-11.31L27.31 392h393.4l-74.34 74.34C344.8 467.9 344 469.1 344 472s.7813 4.094 2.344 5.656c3.125 3.125 8.188 3.125 11.31 0l88-88c3.125-3.125 3.125-8.188 0-11.31L357.7 290.3z"/></svg>