<svg xmlns="http://www.w3.org/2000/svg" viewBox="0 0 384 512"><!--! Font Awesome Pro 6.1.1 by @fontawesome - https://fontawesome.com License - https://fontawesome.com/license (Commercial License) Copyright 2022 Fonticons, Inc. --><path d="M184 352H32C22.06 352 12.68 347.4 6.625 339.5C.5677 331.6-1.481 321.4 1.081 311.8L6.158 292.7C17.11 251.6 42.72 217.5 76.46 195.4L94.4 16H48C43.58 16 40 12.42 40 8C40 3.582 43.58 0 48 0H336C340.4 0 344 3.582 344 8C344 12.42 340.4 16 336 16H289.6L307.5 195.4C341.3 217.5 366.9 251.6 377.8 292.7L382.9 311.8C385.5 321.4 383.4 331.6 377.4 339.5C371.3 347.4 361.9 352 352 352H200V504C200 508.4 196.4 512 191.1 512C187.6 512 183.1 508.4 183.1 504L184 352zM91.62 204.6L85.22 208.8C54.69 228.8 31.53 259.7 21.62 296.8L16.54 315.9C15.26 320.7 16.28 325.8 19.31 329.7C22.34 333.7 27.03 336 32 336H184V232C184 227.6 187.6 224 192 224C196.4 224 200 227.6 200 232V336H352C356.1 336 361.7 333.7 364.7 329.7C367.7 325.8 368.7 320.7 367.5 315.9L362.4 296.8C352.5 259.7 329.3 228.8 298.8 208.8L292.4 204.6L273.5 16H110.5L91.62 204.6zM6.625 339.5L19.31 329.7z"/></svg>