<svg xmlns="http://www.w3.org/2000/svg" viewBox="0 0 576 512"><!--! Font Awesome Pro 6.0.0-beta3 by @fontawesome - https://fontawesome.com License - https://fontawesome.com/license (Commercial License) Copyright 2021 Fonticons, Inc. --><path d="M576 208C549.5 208 528 229.5 528 256C528 282.5 549.5 304 576 304V384C576 419.3 547.3 448 512 448H64C28.65 448 0 419.3 0 384V304C26.51 304 48 282.5 48 256C48 229.5 26.51 208 0 208V128C0 92.65 28.65 64 64 64H512C547.3 64 576 92.65 576 128V208zM64 80C37.49 80 16 101.5 16 128V194C43.6 201.1 64 226.2 64 256C64 285.8 43.6 310.9 16 317.1V384C16 410.5 37.49 432 64 432H512C538.5 432 560 410.5 560 384V317.1C532.4 310.9 512 285.8 512 256C512 226.2 532.4 201.1 560 194V128C560 101.5 538.5 80 512 80H64z"/></svg>