<svg xmlns="http://www.w3.org/2000/svg" viewBox="0 0 128 512"><!--! Font Awesome Pro 6.0.0-beta3 by @fontawesome - https://fontawesome.com License - https://fontawesome.com/license (Commercial License) Copyright 2021 Fonticons, Inc. --><path d="M63.1 48c14.7 0 28.04 6.157 36.59 16.91c9.357 11.72 13.23 27.1 10.62 42.18l-25.24 145.2C83.1 263.7 74.76 272 63.1 272s-20-8.289-21.97-19.73l-25.21-145.2c-2.627-15.1 1.232-30.48 10.6-42.22C35.96 54.16 49.29 48 63.1 48zM63.99 32c-18.46 0-36.93 7.643-49.1 22.93C2.692 70.21-2.372 90.22 1.044 109.9l25.21 145.2C29.55 274.1 45.44 288 63.99 288s34.44-13.89 37.74-32.99l25.24-145.2c3.389-19.6-1.678-39.61-13.88-54.9C100.9 39.64 82.46 32 63.99 32z"/></svg>