<svg xmlns="http://www.w3.org/2000/svg" viewBox="0 0 640 512"><!--! Font Awesome Pro 6.1.1 by @fontawesome - https://fontawesome.com License - https://fontawesome.com/license (Commercial License) Copyright 2022 Fonticons, Inc. --><path d="M512 112C512 120.8 504.8 128 496 128C487.2 128 480 120.8 480 112C480 103.2 487.2 96 496 96C504.8 96 512 103.2 512 112zM512 176C512 184.8 504.8 192 496 192C487.2 192 480 184.8 480 176C480 167.2 487.2 160 496 160C504.8 160 512 167.2 512 176zM480 240C480 231.2 487.2 224 496 224C504.8 224 512 231.2 512 240C512 248.8 504.8 256 496 256C487.2 256 480 248.8 480 240zM512 304C512 312.8 504.8 320 496 320C487.2 320 480 312.8 480 304C480 295.2 487.2 288 496 288C504.8 288 512 295.2 512 304zM279.1 88C291.4 88 301.9 94.05 307.6 103.9L345 168H390.9C409.1 168 426.5 175.2 439.4 188.1C450.4 199.1 450.4 216.9 439.4 227.9C426.5 240.8 409.1 248 390.9 248H339.3L301.9 312.1C296.1 321.1 285.6 328 274.2 328H243.1C232.2 328 224.5 317.3 227.9 306.9L247.6 248H217.8L200.1 270.4C196.4 276.4 189.3 280 181.8 280H168C157.6 280 149.1 270.2 152.5 260.1L165 209.9C165.3 208.7 165.3 207.3 165 206.1L152.5 155.9C149.1 145.8 157.6 135.1 168 135.1H181.8C189.3 135.1 196.4 139.6 200.1 145.6L217.8 167.1H253.3L233.7 109.1C230.2 98.7 237.9 87.1 248.9 87.1L279.1 88zM275.5 184H209.8L188.2 155.2C186.6 153.2 184.3 152 181.8 152H168L180.5 202.2C181.5 206 181.5 209.1 180.5 213.8L168 264H181.8C184.3 264 186.6 262.8 188.2 260.8L209.8 232H269.8L243.1 312H274.2C279.9 312 285.2 308.1 288 304.1L330.1 232H390.9C404.9 232 418.2 226.5 428.1 216.6C432.8 211.9 432.8 204.1 428.1 199.4C418.2 189.5 404.9 184 390.9 184H335.8L293.8 111.9C290.9 107 285.7 104 279.1 104H248.9L275.5 184zM640 96V160C613.5 160 592 181.5 592 208C592 234.5 613.5 256 640 256V320C640 355.3 611.3 384 576 384H160C124.7 384 96 355.3 96 320V96C96 60.65 124.7 32 160 32H576C611.3 32 640 60.65 640 96zM112 320C112 346.5 133.5 368 160 368H576C602.5 368 624 346.5 624 320V269.1C596.4 262.9 576 237.8 576 208C576 178.2 596.4 153.1 624 146V96C624 69.49 602.5 48 576 48H160C133.5 48 112 69.49 112 96V320zM8 88C12.42 88 16 91.58 16 96V376C16 424.6 55.4 464 104 464H552C556.4 464 560 467.6 560 472C560 476.4 556.4 480 552 480H104C46.56 480 0 433.4 0 376V96C0 91.58 3.582 88 8 88zM188.2 155.2L194.4 150.5z"/></svg>