<svg xmlns="http://www.w3.org/2000/svg" viewBox="0 0 448 512"><!--! Font Awesome Pro 6.1.1 by @fontawesome - https://fontawesome.com License - https://fontawesome.com/license (Commercial License) Copyright 2022 Fonticons, Inc. --><path d="M448 160v83.59C448 303.4 399.4 352 339.6 352c-36.88 0-69.84-16.94-90.13-45.3L183.5 214.6C166.2 190.4 138.1 176 108.4 176C57.44 176 16 217.5 16 268.4V352c0 4.422-3.594 8-8 8S0 356.4 0 352V268.4C0 208.6 48.63 160 108.4 160c34.88 0 67.84 16.94 88.13 45.3l65.94 92.09C279.8 321.6 307.9 336 337.6 336C390.6 336 432 294.5 432 243.6V160c0-4.422 3.594-8 8-8S448 155.6 448 160z"/></svg>