<svg xmlns="http://www.w3.org/2000/svg" viewBox="0 0 512 512"><!--! Font Awesome Pro 6.0.0-beta3 by @fontawesome - https://fontawesome.com License - https://fontawesome.com/license (Commercial License) Copyright 2021 Fonticons, Inc. --><path d="M63.98 192c-8.836 0-16 7.162-16 16c0 8.836 7.164 16 16 16s15.1-7.164 15.1-16C79.98 199.2 72.82 192 63.98 192zM144 192C135.2 192 127.1 199.2 127.1 207.1C127.1 216.8 135.2 224 144 224s15.99-7.167 15.99-16C159.1 199.2 152.8 192 144 192zM399.1 0H112C50.25 0 0 86.13 0 192s50.25 192 112 192H399.1c40.76 0 76.41-37.65 96-93.62V472c0 13.23-10.77 24-24 24h-304c-13.23 0-24-10.77-24-24v-48C144 419.6 140.4 416 136 416S128 419.6 128 424v48C128 494.1 145.9 512 168 512h304c22.06 0 40-17.94 40-40V192C512 86.13 461.7 0 399.1 0zM112 368c-52.94 0-96-78.95-96-176s43.06-176 96-176h243.4C315.8 45.63 287.1 113.3 287.1 192s27.78 146.4 67.38 176H112zM400 368c-52.94 0-96-78.95-96-176s43.06-176 96-176s96 78.95 96 176S452.9 368 400 368zM223.1 192c-8.836 0-16.01 7.162-16.01 16c0 8.836 7.174 16 16.01 16s15.99-7.164 15.99-16C239.1 199.2 232.8 192 223.1 192zM400 120c-22.8 0-40 30.95-40 72s17.2 72 40 72S440 233 440 192S422.8 120 400 120zM400 248c-11.33 0-24-23.95-24-56S388.7 136 400 136S423.1 159.1 423.1 192S411.3 248 400 248z"/></svg>