<svg xmlns="http://www.w3.org/2000/svg" viewBox="0 0 448 512"><!--! Font Awesome Pro 6.0.0-beta3 by @fontawesome - https://fontawesome.com License - https://fontawesome.com/license (Commercial License) Copyright 2021 Fonticons, Inc. --><path d="M8 16h432C444.4 16 448 12.42 448 8S444.4 0 440 0H8C3.578 0 0 3.578 0 8S3.578 16 8 16zM415.4 209.4C415.5 208.9 416 208.5 416 208V56c0-4.422-3.578-8-8-8S400 51.58 400 56v146.4C356.3 185.1 289 176 224 176S91.67 185.1 48 202.4V56c0-4.422-3.578-8-8-8S32 51.58 32 56V208c0 .5352 .4668 .8633 .5664 1.369C12.35 219.9 0 232.8 0 248c0 54.34 24.47 103.6 64 139.7V472C64 494.1 81.94 512 104 512h240c22.06 0 40-17.94 40-40v-84.3C423.5 351.6 448 302.3 448 248C448 232.8 435.6 219.9 415.4 209.4zM368 472c0 13.23-10.77 24-24 24h-240c-13.23 0-24-10.77-24-24v-71.02C118.1 430.3 169.2 448 224 448s105-17.73 144-47.02V472zM370.1 378.1c-.2676 .2266-.5234 .3516-.7598 .6113C332.6 411.6 280.9 432 224 432s-108.6-20.39-146.2-53.3c-.2363-.2598-.4922-.3848-.7598-.6113C47.07 351.6 26.4 317 19.1 278.5C56.27 305.6 142 320 224 320s167.7-14.39 204.9-41.55C421.6 317 400.9 351.6 370.1 378.1zM224 304c-122.6 0-208-29.52-208-56S101.4 192 224 192s208 29.52 208 56S346.6 304 224 304zM104 80C99.58 80 96 83.58 96 88S99.58 96 104 96h48C156.4 96 160 92.42 160 88S156.4 80 152 80H104z"/></svg>