<svg xmlns="http://www.w3.org/2000/svg" viewBox="0 0 512 512"><!--! Font Awesome Pro 6.1.1 by @fontawesome - https://fontawesome.com License - https://fontawesome.com/license (Commercial License) Copyright 2022 Fonticons, Inc. --><path d="M473.2 186.9c-2.906-3.438-7.906-3.844-11.28-1.047c-3.375 2.828-3.844 7.875-1.031 11.27C484.2 225.2 496 261.2 496 304.3C496 443.1 360.5 496 275.1 496H236.9C151.5 496 16 443.1 16 304.3c0-43.08 11.78-79.14 35.03-107.2c2.812-3.406 2.344-8.453-1.062-11.27C46.69 183.1 41.53 183.5 38.72 186.9C13.38 217.5 0 258 0 304.3C0 455.6 145.3 512 236.9 512h38.19C366.7 512 512 455.6 512 304.3C512 258.1 498.6 217.5 473.2 186.9zM64 168h83.06L120.8 220.4C119.3 223.5 119.9 227.2 122.3 229.7c2.406 2.422 6.156 2.984 9.219 1.5L256 168.9l124.4 62.22C381.6 231.7 382.8 232 384 232c2.062 0 4.125-.8125 5.656-2.344c2.438-2.438 3.031-6.156 1.5-9.234L364.9 168H448c3.219 0 5.75-2.297 7-5.266s.2187-6.766-2-9.062C436.6 136.8 374.9 83.1 264 80.48V71.99c0-27.57-13.16-53.88-35.19-70.42c-3.562-2.611-8.562-1.908-11.22 1.609C214.9 6.715 215.7 11.73 219.2 14.39C237.2 27.91 248 49.44 248 71.99v8.488C137.2 83.1 75.46 136.8 58.72 154c-2.5 2.203-3.375 5.719-2.188 8.828C57.69 165.9 60.69 168 64 168zM248 96.38V119.1C248 124.4 251.6 128 256 128s8-3.58 8-8.002V96.38C347.9 98.43 401.6 130.1 427.4 152H352c-2.781 0-5.344 1.438-6.812 3.797c-1.438 2.359-1.594 5.297-.3438 7.781l21.28 42.53l-106.6-53.27C258.4 152.3 257.2 152 256 152S253.6 152.3 252.4 152.8L145.9 206.1l21.28-42.53c1.25-2.484 1.094-5.422-.3438-7.781C165.3 153.4 162.8 152 160 152H84.63C110.4 130.1 164.2 98.43 248 96.38z"/></svg>