<svg xmlns="http://www.w3.org/2000/svg" viewBox="0 0 512 512"><!--! Font Awesome Pro 6.0.0-beta3 by @fontawesome - https://fontawesome.com License - https://fontawesome.com/license (Commercial License) Copyright 2021 Fonticons, Inc. --><path d="M502.6 214.6l-77.25-77.25C419.4 131.4 411.2 128 402.7 128H384V72C384 49.94 366.1 32 344 32h-176C145.9 32 128 49.94 128 72V128H109.3C100.8 128 92.63 131.4 86.63 137.4L9.373 214.6C3.371 220.6 0 228.8 0 237.3V416c0 35.35 28.65 64 64 64h384c35.35 0 64-28.65 64-64V237.3C512 228.8 508.6 220.6 502.6 214.6zM144 72c0-13.23 10.78-24 24-24h176c13.22 0 24 10.77 24 24V128h-224V72zM496 416c0 26.47-21.53 48-48 48H64c-26.47 0-48-21.53-48-48v-88h136v48c0 4.422 3.594 8 7.1 8S168 380.4 168 376v-48h176v48c0 4.422 3.594 8 8 8s8-3.578 8-8v-48h136V416zM496 312h-136v-48C360 259.6 356.4 256 352 256s-8 3.578-8 8v48h-176v-48C168 259.6 164.4 256 160 256S152 259.6 152 264v48H16V237.3c0-4.273 1.664-8.291 4.688-11.31l77.25-77.25C100.1 145.7 104.1 144 109.3 144h293.5c4.273 0 8.291 1.664 11.31 4.686l77.26 77.26C494.3 228.1 496 232.1 496 237.3V312z"/></svg>