<svg xmlns="http://www.w3.org/2000/svg" viewBox="0 0 448 512"><!--! Font Awesome Pro 6.0.0-beta3 by @fontawesome - https://fontawesome.com License - https://fontawesome.com/license (Commercial License) Copyright 2021 Fonticons, Inc. --><path d="M393.5 219c-15.1 22.19-25.03 49.72-28.43 86.64c-2.969 32.94-7.623 76.32-17.28 119.5l-6.467 28.6C337.1 468.9 324.5 480 309.2 480c-15.21 0-28.37-10.55-31.99-25.66l-28.31-114.2c-2.967-11.89-13.18-20.19-24.9-20.19c-11.81 0-22.03 8.281-24.87 20.12l-28.37 114.3C167.2 469.5 154 480 138.8 480c-15.46 0-28.71-10.8-32.24-26.27l-6.375-28.61c-9.467-42.22-14.09-84.07-17.4-119.4C79.52 268.8 70.52 241.3 54.46 219C33.84 190.3 27.13 154.9 35.53 119.4C45.21 78.42 77.12 45.06 116.8 34.4c19.31-5.109 39.77-1.891 60.74 9.424l83.17 54.89c3.688 2.438 4.719 7.391 2.281 11.08c-2.5 3.719-7.467 4.688-11.09 2.266L169.4 57.54C152.4 48.46 136.4 45.79 120.9 49.85c-34.05 9.156-61.49 37.89-69.83 73.21c-7.312 30.97-1.5 61.74 16.37 86.61c17.81 24.72 27.74 54.77 31.24 94.57c3.248 34.81 7.811 76.04 17.09 117.4l6.373 28.6c1.844 8.094 8.686 13.77 16.62 13.77c7.779 0 14.56-5.5 16.44-13.38l28.37-114.3c4.531-19.02 21.15-32.35 40.4-32.35c19.09 0 35.71 13.3 40.43 32.35l28.31 114.2c1.906 7.938 8.686 13.44 16.46 13.44c7.842 0 14.78-5.781 16.53-13.75l6.469-28.63c9.467-42.22 14.03-84.93 16.96-117.4c3.686-39.89 13.65-69.94 31.37-94.55c17.9-24.8 23.71-55.57 16.37-86.61c-8.342-35.31-35.78-64.05-69.86-73.22c-20.46-5.438-42.02 .875-66.3 19.22c-3.498 2.656-8.529 1.984-11.19-1.547c-2.654-3.531-1.967-8.547 1.562-11.2c28.03-21.21 54.93-28.61 80.05-21.92c39.71 10.67 71.61 44.03 81.29 84.99C420.9 155 414.2 190.4 393.5 219z"/></svg>