<svg xmlns="http://www.w3.org/2000/svg" viewBox="0 0 640 512"><!--! Font Awesome Pro 6.1.1 by @fontawesome - https://fontawesome.com License - https://fontawesome.com/license (Commercial License) Copyright 2022 Fonticons, Inc. --><path d="M248 96.01h-240c-4.406 0-8 3.578-8 8s3.594 8 8 8h112V408c0 4.422 3.594 8.006 8 8.006S136 412.4 136 408V112h112c4.406 0 8-3.578 8-8S252.4 96.01 248 96.01zM634.6 96.45c-3.156-1.094-6.812-.0469-8.906 2.656L464 306.1L302.3 99.1C300.2 96.37 296.5 95.32 293.4 96.45C290.2 97.55 288 100.6 288 104V408C288 412.4 291.6 416 296 416s8-3.578 8-8V127.3l153.7 197.6c3 3.906 9.625 3.906 12.62 0L624 127.3V408c0 4.422 3.594 8 8 8S640 412.4 640 408V104C640 100.6 637.8 97.55 634.6 96.45z"/></svg>