<svg xmlns="http://www.w3.org/2000/svg" viewBox="0 0 512 512"><!--! Font Awesome Pro 6.1.1 by @fontawesome - https://fontawesome.com License - https://fontawesome.com/license (Commercial License) Copyright 2022 Fonticons, Inc. --><path d="M16 504C16 508.4 12.42 512 8 512C3.582 512 0 508.4 0 504V256C0 114.6 114.6 0 256 0C397.4 0 512 114.6 512 256V504C512 508.4 508.4 512 504 512C499.6 512 496 508.4 496 504V256C496 123.5 388.5 16 256 16C123.5 16 16 123.5 16 256V504zM160 368C160 359.2 167.2 352 176 352C184.8 352 192 359.2 192 368C192 376.8 184.8 384 176 384C167.2 384 160 376.8 160 368zM352 368C352 376.8 344.8 384 336 384C327.2 384 320 376.8 320 368C320 359.2 327.2 352 336 352C344.8 352 352 359.2 352 368zM320 192C337.7 192 352 206.3 352 224V288C352 305.7 337.7 320 320 320H192C174.3 320 160 305.7 160 288V224C160 206.3 174.3 192 192 192H320zM192 208C183.2 208 176 215.2 176 224V288C176 296.8 183.2 304 192 304H248V208H192zM264 208V304H320C328.8 304 336 296.8 336 288V224C336 215.2 328.8 208 320 208H264zM112 208C112 163.8 147.8 128 192 128H320C364.2 128 400 163.8 400 208V368C400 406.2 373.2 438.2 337.4 446.1L389.7 498.3C392.8 501.5 392.8 506.5 389.7 509.7C386.5 512.8 381.5 512.8 378.3 509.7L316.7 448H195.3L133.7 509.7C130.5 512.8 125.5 512.8 122.3 509.7C119.2 506.5 119.2 501.5 122.3 498.3L174.6 446.1C138.8 438.2 112 406.2 112 368V208zM128 208V368C128 403.3 156.7 432 192 432H320C355.3 432 384 403.3 384 368V208C384 172.7 355.3 144 320 144H192C156.7 144 128 172.7 128 208z"/></svg>