<svg xmlns="http://www.w3.org/2000/svg" viewBox="0 0 448 512"><!--! Font Awesome Pro 6.1.1 by @fontawesome - https://fontawesome.com License - https://fontawesome.com/license (Commercial License) Copyright 2022 Fonticons, Inc. --><path d="M115.6 64L143.8 18.8C151.1 7.105 163.9 0 177.7 0H270.3C284.1 0 296.9 7.105 304.2 18.8L332.4 64H440C444.4 64 448 67.58 448 72C448 76.42 444.4 80 440 80H8C3.582 80 0 76.42 0 72C0 67.58 3.582 64 8 64H115.6zM134.4 64H313.6L290.6 27.28C286.2 20.26 278.5 16 270.3 16H177.7C169.5 16 161.8 20.26 157.4 27.28L134.4 64zM39.34 112C43.74 111.7 47.61 114.9 47.97 119.3L76.3 459.3C78.03 480.1 95.36 496 116.2 496H331.8C352.6 496 369.1 480.1 371.7 459.3L400 119.3C400.4 114.9 404.3 111.7 408.7 112C413.1 112.4 416.3 116.3 415.1 120.7L387.6 460.6C385.2 489.7 360.1 512 331.8 512H116.2C87.04 512 62.78 489.7 60.36 460.6L32.03 120.7C31.66 116.3 34.93 112.4 39.34 112H39.34zM197.7 357.7C194.5 360.8 189.5 360.8 186.3 357.7L122.3 293.7C119.2 290.5 119.2 285.5 122.3 282.3C125.5 279.2 130.5 279.2 133.7 282.3L192 340.7L314.3 218.3C317.5 215.2 322.5 215.2 325.7 218.3C328.8 221.5 328.8 226.5 325.7 229.7L197.7 357.7z"/></svg>