<svg xmlns="http://www.w3.org/2000/svg" viewBox="0 0 448 512"><!--! Font Awesome Pro 6.1.1 by @fontawesome - https://fontawesome.com License - https://fontawesome.com/license (Commercial License) Copyright 2022 Fonticons, Inc. --><path d="M177.7 0H270.3C284.1 0 296.9 7.105 304.2 18.8L332.4 64H440C444.4 64 448 67.58 448 72C448 76.42 444.4 80 440 80H8C3.582 80 0 76.42 0 72C0 67.58 3.582 64 8 64H115.6L143.8 18.8C151.1 7.105 163.9 0 177.7 0V0zM177.7 16C169.5 16 161.8 20.26 157.4 27.28L134.4 64H313.6L290.6 27.28C286.2 20.26 278.5 16 270.3 16H177.7zM76.3 459.3C78.03 480.1 95.36 496 116.2 496H331.8C352.6 496 369.1 480.1 371.7 459.3L400 119.3C400.4 114.9 404.3 111.7 408.7 112C413.1 112.4 416.3 116.3 415.1 120.7L387.6 460.6C385.2 489.7 360.1 512 331.8 512H116.2C87.04 512 62.78 489.7 60.36 460.6L32.03 120.7C31.66 116.3 34.93 112.4 39.34 112C43.74 111.7 47.61 114.9 47.97 119.3L76.3 459.3zM213.9 186.6C216.9 189.9 216.7 194.9 213.4 197.9L140.7 263.1H248C287.8 263.1 320 296.2 320 336V376C320 380.4 316.4 384 312 384C307.6 384 304 380.4 304 376V336C304 305.1 278.9 279.1 248 279.1H140.7L213.4 346.1C216.7 349.1 216.9 354.1 213.9 357.4C210.9 360.6 205.9 360.9 202.6 357.9L114.6 277.9C112.1 276.4 112 274.3 112 271.1C112 269.7 112.1 267.6 114.6 266.1L202.6 186.1C205.9 183.1 210.9 183.3 213.9 186.6V186.6z"/></svg>