<svg xmlns="http://www.w3.org/2000/svg" viewBox="0 0 448 512"><!--! Font Awesome Pro 6.0.0-beta3 by @fontawesome - https://fontawesome.com License - https://fontawesome.com/license (Commercial License) Copyright 2021 Fonticons, Inc. --><path d="M408 120c-4.406 0-8 3.578-8 8v312c0 30.88-25.12 56-56 56h-240c-30.88 0-56-25.12-56-56V128c0-4.422-3.594-8-8-8S32 123.6 32 128v312C32 479.7 64.31 512 104 512h240c39.69 0 72-32.3 72-72V128C416 123.6 412.4 120 408 120zM440 64h-116.6l-20.95-41.88C295.6 8.469 281.9 0 266.7 0H181.3C166.1 0 152.4 8.469 145.6 22.11L124.6 64H8C3.594 64 0 67.58 0 72S3.594 80 8 80h432C444.4 80 448 76.42 448 72S444.4 64 440 64zM142.5 64l17.37-34.75C163.1 21.08 172.2 16 181.3 16h85.31c9.156 0 17.38 5.078 21.47 13.27L305.5 64H142.5zM200 191.1c0-2.156-.875-4.312-2.594-5.906C194.2 183.1 189.1 183.3 186.1 186.6L98.11 282.6c-2.812 3.062-2.812 7.75 0 10.81L186.1 389.4c2.984 3.25 8.047 3.469 11.3 .5c3.281-3.062 3.5-8.094 .4844-11.31L122.2 296H256c30.88 0 56 25.12 56 56v32c0 4.422 3.594 8 8 8s8-3.578 8-8v-32c0-39.7-32.31-72-72-72H122.2l75.7-82.6C199.3 195.9 200 193.9 200 191.1z"/></svg>