<svg xmlns="http://www.w3.org/2000/svg" viewBox="0 0 448 512"><!--! Font Awesome Pro 6.0.0-beta3 by @fontawesome - https://fontawesome.com License - https://fontawesome.com/license (Commercial License) Copyright 2021 Fonticons, Inc. --><path d="M440 64h-116.6l-20.95-41.88C295.6 8.469 281.9 0 266.7 0H181.3C166.1 0 152.4 8.469 145.6 22.11L124.6 64H8C3.594 64 0 67.58 0 72S3.594 80 8 80h432C444.4 80 448 76.42 448 72S444.4 64 440 64zM142.5 64l17.37-34.75C163.1 21.08 172.2 16 181.3 16h85.31c9.156 0 17.38 5.078 21.47 13.27L305.5 64H142.5zM407 128c-4.24 0-7.747 3.304-7.999 7.537l-19.31 324.8C378.5 480 361.5 496 341.8 496H106.2c-19.69 0-36.69-15.98-37.91-35.59L48.97 135.5C48.72 131.3 45.21 128 40.97 128C36.36 128 32.7 131.9 32.97 136.5l19.37 324.9C54.09 489.3 78.25 512 106.2 512h235.6c27.97 0 52.13-22.7 53.91-50.66L415 136.5C415.3 131.9 411.6 128 407 128z"/></svg>