<svg xmlns="http://www.w3.org/2000/svg" viewBox="0 0 576 512"><!--! Font Awesome Pro 6.1.1 by @fontawesome - https://fontawesome.com License - https://fontawesome.com/license (Commercial License) Copyright 2022 Fonticons, Inc. --><path d="M177.7 0H270.3C284.1 0 296.9 7.105 304.2 18.8L332.4 64H440C444.4 64 448 67.58 448 72C448 76.42 444.4 80 440 80H8C3.582 80 0 76.42 0 72C0 67.58 3.582 64 8 64H115.6L143.8 18.8C151.1 7.105 163.9 0 177.7 0V0zM177.7 16C169.5 16 161.8 20.26 157.4 27.28L134.4 64H313.6L290.6 27.28C286.2 20.26 278.5 16 270.3 16H177.7zM76.3 459.3C78.03 480.1 95.36 496 116.2 496H311.2C317.3 501.8 323.9 507.1 330.8 512H116.2C87.04 512 62.78 489.7 60.36 460.6L32.03 120.7C31.66 116.3 34.93 112.4 39.34 112C43.74 111.7 47.61 114.9 47.97 119.3L76.3 459.3zM415.1 120.7L409.9 193.4C404.4 194.1 398.1 195 393.6 196.2L400 119.3C400.4 114.9 404.3 111.7 408.7 112C413.1 112.4 416.3 116.3 415.1 120.7V120.7zM431.1 288C436.4 288 439.1 291.6 439.1 296V360H488C492.4 360 496 363.6 496 368C496 372.4 492.4 376 488 376H431.1C427.6 376 423.1 372.4 423.1 368V296C423.1 291.6 427.6 288 431.1 288V288zM288 368C288 288.5 352.5 224 432 224C511.5 224 576 288.5 576 368C576 447.5 511.5 512 432 512C352.5 512 288 447.5 288 368zM432 496C502.7 496 560 438.7 560 368C560 297.3 502.7 240 432 240C361.3 240 304 297.3 304 368C304 438.7 361.3 496 432 496z"/></svg>