<svg xmlns="http://www.w3.org/2000/svg" viewBox="0 0 512 512"><!--! Font Awesome Pro 6.1.1 by @fontawesome - https://fontawesome.com License - https://fontawesome.com/license (Commercial License) Copyright 2022 Fonticons, Inc. --><path d="M498.4 375.4l-85.22-138.6c-2.312-3.734-7.281-4.922-11-2.625c-3.766 2.312-4.938 7.234-2.625 11l85.25 138.7c14.23 22.69 14.95 51 1.859 73.95C473.5 481.3 448.4 496 421.2 496H90.11c-26.8 0-51.52-14.5-64.56-37.91c-13.22-23.12-12.66-51.47 1.469-74l165.1-268.5C205.8 93.31 229.7 80 256 80c26.25 0 50.09 13.23 63.78 35.41l49.3 80.2l-79.69 79.69c-9.348-6.996-20.83-11.38-33.4-11.38C225.1 263.9 200 289.1 200 320s25.07 56 56 56s55.95-24.99 55.95-55.92c0-12.57-4.237-24.13-11.23-33.48l200.9-200.9c3.125-3.125 3.125-8.188 0-11.31s-8.188-3.125-11.31 0l-109.6 109.6l-47.3-76.96c-15.25-24.68-40.98-39.6-69.64-42.03V8c0-4.422-3.389-8-7.811-8S247.8 3.578 247.8 8v57.04C219.2 67.62 193.6 82.57 178.5 107.3l-165.1 268.4c-17.23 27.48-17.91 62.11-1.812 90.3C27.44 494.4 57.52 512 90.11 512h331.1c33 0 63.42-17.8 79.39-46.38C516.6 437.6 515.7 402.1 498.4 375.4zM256 360c-22.05 0-40-17.95-40-40c0-22.06 17.95-40 40-40c22.06 0 40 17.94 40 40C296 342.1 278.1 360 256 360z"/></svg>