<svg xmlns="http://www.w3.org/2000/svg" viewBox="0 0 640 512"><!--! Font Awesome Pro 6.0.0-beta3 by @fontawesome - https://fontawesome.com License - https://fontawesome.com/license (Commercial License) Copyright 2021 Fonticons, Inc. --><path d="M454.3 323.1c-1.827-2.318-3.928-3.119-5.896-3.119c-3.009 0-5.709 1.872-6.65 3.056l-55.25 69.07L320 348.7V277.7c0-16.45-9.859-31.03-25.14-37.14L259.1 226.2c-4.764-1.902-9.724-2.821-14.64-2.821c-13.18 0-26.04 6.601-33.97 18.57l-17.59 34.39C192.3 277.5 191.1 278.8 191.1 279.1c0 2.628 1.294 5.188 3.626 6.71L369.3 400h-17.35c-2.516 0-4.891 1.188-6.406 3.203l-24 32c-1.11 1.482-1.609 3.137-1.609 4.752C319.1 444.1 323.3 448 328 448h208c4.765 0 8.008-3.919 8.008-8.053c0-1.675-.5321-3.385-1.711-4.885L454.3 323.1zM303.1 338.3L210.4 277.2l13.86-27.19C228.8 243.2 236.4 239.4 244.3 239.4c2.967 0 5.965 .5484 8.838 1.692l35.78 14.31c9.156 3.672 15.08 12.42 15.08 22.3V338.3zM344 432l12-16h28c2.438 0 4.734-1.109 6.25-3l57.69-72.13L519.5 432H344zM288 224c17.72 0 32.02-14.29 32.02-32.02S305.7 159.1 288 159.1S256 174.3 256 191.1S270.3 224 288 224zM288 175.1c8.832 0 16.02 7.186 16.02 16.02S296.9 208 288 208c-8.83 0-16.02-7.186-16.02-16.02S279.2 175.1 288 175.1zM204.6 321.5c-1.394-.9707-2.992-1.43-4.572-1.43c-3.376 0-6.669 2.096-7.709 5.773l-32 112c-.1443 .503-.2273 1.14-.2273 1.85C160.1 443 161.9 448 167.1 448c3.484 0 6.688-2.281 7.688-5.797l28.92-101.2l67.39 47.19V440c0 4.422 3.578 8 8 8c4.422 0 8-3.578 8-8V384c0-2.609-1.281-5.062-3.406-6.547L204.6 321.5zM640 463.9c0-9.199-2.645-18.39-7.845-26.36l-271.1-417.1c-8.859-13.6-24.51-20.4-40.17-20.4c-15.66 0-31.31 6.799-40.17 20.4l-271.1 417.1c-5.2 7.978-7.848 17.17-7.848 26.37C-.0001 489.4 20.55 512 48.02 512h543.1C619.2 512 640 489.8 640 463.9zM624 463.9c0 16.9-13.54 32.12-32 32.12H47.1c-18.36 0-32-15.05-32-32.13c0-6.143 1.755-12.27 5.233-17.61L293.2 29.13C298.6 20.91 308.6 15.1 320 15.1c11.4 0 21.41 4.91 26.77 13.14l271.1 417.1C622.2 451.6 624 457.7 624 463.9z"/></svg>