<svg xmlns="http://www.w3.org/2000/svg" viewBox="0 0 640 512"><!--! Font Awesome Pro 6.1.1 by @fontawesome - https://fontawesome.com License - https://fontawesome.com/license (Commercial License) Copyright 2022 Fonticons, Inc. --><path d="M317.7 162.3C320.8 165.5 320.8 170.5 317.7 173.7L237.7 253.7C234.5 256.8 229.5 256.8 226.3 253.7C223.2 250.5 223.2 245.5 226.3 242.3L292.7 176H104C99.58 176 96 172.4 96 168C96 163.6 99.58 160 104 160H292.7L226.3 93.66C223.2 90.53 223.2 85.47 226.3 82.34C229.5 79.22 234.5 79.22 237.7 82.34L317.7 162.3zM0 352V64C0 28.65 28.65 0 64 0H352C387.3 0 416 28.65 416 64V96H474.7C485.4 96 495.5 100.2 503 107.7L596.3 200.1C603.8 208.5 608 218.6 608 229.3V400H632C636.4 400 640 403.6 640 408C640 412.4 636.4 416 632 416H575.6C575.9 418.6 576 421.3 576 424C576 472.6 536.6 512 488 512C439.4 512 400 472.6 400 424C400 421.3 400.1 418.6 400.4 416H239.6C239.9 418.6 240 421.3 240 424C240 472.6 200.6 512 152 512C103.4 512 64 472.6 64 424C64 421.3 64.12 418.6 64.36 416H64C28.65 416 .0003 387.3 .0003 352H0zM352 16H64C37.49 16 16 37.49 16 64V352C16 378.5 37.49 400 64 400H67.31C77.76 363.1 111.7 336 152 336C192.3 336 226.2 363.1 236.7 400H400V64C400 37.49 378.5 16 352 16zM416 112V216H588C587.1 214.7 586.1 213.4 584.1 212.3L491.7 119C487.2 114.5 481.1 112 474.7 112H416zM488 336C528.3 336 562.2 363.1 572.7 400H592V232H416V373.4C431.9 350.8 458.2 336 488 336zM152 496C191.8 496 224 463.8 224 424C224 384.2 191.8 352 152 352C112.2 352 80 384.2 80 424C80 463.8 112.2 496 152 496zM488 352C448.2 352 416 384.2 416 424C416 463.8 448.2 496 488 496C527.8 496 560 463.8 560 424C560 384.2 527.8 352 488 352z"/></svg>