<svg xmlns="http://www.w3.org/2000/svg" viewBox="0 0 640 512"><!--! Font Awesome Pro 6.1.1 by @fontawesome - https://fontawesome.com License - https://fontawesome.com/license (Commercial License) Copyright 2022 Fonticons, Inc. --><path d="M148.9 206.3L19.94 282.3C17.5 283.7 15.1 286.3 15.1 289.1L16 342.4C16 347.7 20.93 351.5 25.99 350.2L148.9 318.6V415.6L98.88 457.3C97.05 458.9 95.1 461.1 95.1 463.5V482.3C95.1 487.7 101.2 491.6 106.4 489.1L192.3 463.5L258.9 489.6C263 491.2 265.1 495.8 263.5 499.9C261.8 504 257.2 506.1 253.1 504.5L191.7 480.5L111.1 505.3C95.62 510 79.1 498.5 79.1 482.3V463.5C79.1 456.4 83.16 449.6 88.63 445.1L132.9 408.1V339.2L29.98 365.7C14.79 369.6 .0006 358.1 .0006 342.4L0 289.1C0 280.6 4.497 272.8 11.82 268.5L132.9 197.2V87.44C132.9 71.25 139.3 50.02 149.2 32.85C154.2 24.2 160.4 16.17 167.5 10.21C174.6 4.261 183.1 0 192.6 0C202.3 0 210.9 4.217 218.1 10.2C225.2 16.17 231.4 24.22 236.3 32.89C246.1 50.09 252.3 71.3 252.3 87.44V188.3L260.1 193C263.9 195.3 265.1 200.2 262.9 204C260.6 207.8 255.7 209 251.9 206.7L236.3 197.4V87.44C236.3 74.61 231.2 56.11 222.4 40.83C218.1 33.26 213.1 26.88 207.8 22.48C202.6 18.09 197.5 15.1 192.6 15.1C188 15.1 183 18.05 177.8 22.46C172.5 26.88 167.5 33.27 163.1 40.86C154.2 56.18 148.9 74.67 148.9 87.44L148.9 206.3zM258.3 320.3C262.5 321.6 264.9 326 263.7 330.3C262.4 334.5 257.9 336.9 253.7 335.6L252.3 335.2V408L260.1 414.1C264.4 417.7 265 422.8 262.2 426.2C259.5 429.7 254.5 430.2 251 427.5L236.3 415.7V313.7L258.3 320.3zM416 396C416 411.5 403.5 424 388 424C372.5 424 360 411.5 360 396C360 380.5 372.5 368 388 368C403.5 368 416 380.5 416 396zM388 384C381.4 384 376 389.4 376 396C376 402.6 381.4 408 388 408C394.6 408 400 402.6 400 396C400 389.4 394.6 384 388 384zM512 396C512 380.5 524.5 368 540 368C555.5 368 568 380.5 568 396C568 411.5 555.5 424 540 424C524.5 424 512 411.5 512 396zM540 408C546.6 408 552 402.6 552 396C552 389.4 546.6 384 540 384C533.4 384 528 389.4 528 396C528 402.6 533.4 408 540 408zM576 464H352V504C352 508.4 348.4 512 344 512C339.6 512 336 508.4 336 504V464C309.5 464 287.1 442.5 287.1 416V176C287.1 149.5 309.5 128 336 128H592C618.5 128 640 149.5 640 176V416C640 442.5 618.5 464 592 464V504C592 508.4 588.4 512 584 512C579.6 512 576 508.4 576 504V464zM592 144H336C318.3 144 303.1 158.3 303.1 176V416C303.1 428.1 311.7 440.2 322.8 445.2C321 441.2 319.1 436.7 319.1 432V376C319.1 354.8 331.8 336.3 349.3 326.8L365 274.2C371.1 253.9 389.8 240 411 240H516.1C538.2 240 556.9 253.9 562.1 274.2L578.7 326.8C596.2 336.3 608 354.8 608 376V432C608 436.7 606.1 441.2 605.2 445.2C616.3 440.2 624 428.1 624 416V176C624 158.3 609.7 144 592 144V144zM576 448C584.8 448 592 440.8 592 432V376C592 353.9 574.1 336 552 336H376C353.9 336 336 353.9 336 376V432C336 440.8 343.2 448 352 448H576zM560 320L547.6 278.8C543.6 265.3 531.1 256 516.1 256H411C396.9 256 384.4 265.3 380.4 278.8L368 320H560z"/></svg>