<svg xmlns="http://www.w3.org/2000/svg" viewBox="0 0 640 512"><!--! Font Awesome Pro 6.1.1 by @fontawesome - https://fontawesome.com License - https://fontawesome.com/license (Commercial License) Copyright 2022 Fonticons, Inc. --><path d="M88 128H224V32C224 14.33 238.3 0 256 0H368.8C380.8 0 392.2 5.428 399.8 14.78L491.8 128H552C582.9 128 608 153.1 608 184V251.8C609.1 253.7 611.9 255.7 613.8 257.7C616.9 260.9 616.7 265.1 613.5 269C610.3 272.1 605.2 271.9 602.2 268.7C571.5 236.2 528.1 216 480 216C421 216 369.2 246.4 339.2 292.4C337.7 294.6 335.2 296 332.5 296H307.5C304.8 296 302.3 294.6 300.8 292.4C270.8 246.4 218.1 216 160 216C111.9 216 68.46 236.2 37.82 268.7C34.78 271.9 29.72 272.1 26.51 269C23.3 265.1 23.15 260.9 26.18 257.7C28.08 255.7 30.02 253.7 32 251.8V184C32 153.1 57.07 128 88 128H88zM256 16C247.2 16 240 23.16 240 32V128H471.2L387.4 24.87C382.8 19.26 375.1 16 368.8 16H256zM48 238C79.02 214.2 117.9 200 160 200C223 200 278.7 231.7 311.8 280H328.2C361.3 231.7 416.1 200 480 200C522.1 200 560.1 214.2 592 238V184C592 161.9 574.1 144 552 144H88C65.91 144 48 161.9 48 184L48 238zM104 376C104 345.1 129.1 320 160 320C190.9 320 216 345.1 216 376C216 406.9 190.9 432 160 432C129.1 432 104 406.9 104 376zM160 336C137.9 336 120 353.9 120 376C120 398.1 137.9 416 160 416C182.1 416 200 398.1 200 376C200 353.9 182.1 336 160 336zM123.1 268.9C128.5 256.7 140.2 248 154 248H166C179.8 248 191.5 256.7 196 268.9C200.9 270.5 205.7 272.5 210.3 274.8C222.1 269.4 236.5 271.5 246.3 281.2L254.8 289.7C264.5 299.5 266.6 313.9 261.2 325.7C263.5 330.3 265.5 335.1 267.1 339.1C279.3 344.5 288 356.2 288 370V382C288 395.8 279.3 407.5 267.1 412C265.5 416.9 263.5 421.7 261.2 426.3C266.6 438.1 264.5 452.5 254.8 462.3L246.3 470.8C236.5 480.5 222.1 482.6 210.3 477.2C205.7 479.5 200.9 481.5 196 483.1C191.5 495.3 179.8 504 166 504H154C140.2 504 128.5 495.3 123.1 483.1C119.1 481.5 114.3 479.5 109.7 477.2C97.89 482.6 83.47 480.5 73.73 470.8L65.25 462.3C55.52 452.5 53.37 438.1 58.78 426.3C56.5 421.7 54.51 416.9 52.86 412C40.68 407.5 32 395.8 32 382V370C32 356.2 40.68 344.5 52.86 339.1C54.51 335.1 56.5 330.3 58.78 325.7C53.37 313.9 55.52 299.5 65.25 289.7L73.73 281.2C83.47 271.5 97.89 269.4 109.7 274.8C114.3 272.5 119.1 270.5 123.1 268.9L123.1 268.9zM154 264C146.3 264 139.8 269.5 138.3 276.8L137.4 281.5L132.7 282.9C125.1 284.9 119.5 287.6 113.5 290.9L109.2 293.2L105.2 290.5C98.98 286.4 90.52 287.1 85.05 292.6L76.56 301C71.09 306.5 70.41 314.1 74.53 321.2L77.2 325.2L74.87 329.5C71.55 335.5 68.86 341.1 66.89 348.7L65.53 353.4L60.8 354.3C53.49 355.8 48 362.3 48 370V382C48 389.7 53.49 396.2 60.8 397.7L65.53 398.6L66.89 403.3C68.86 410 71.55 416.5 74.87 422.5L77.2 426.8L74.53 430.8C70.41 437 71.09 445.5 76.56 450.1L85.05 459.4C90.52 464.9 98.98 465.6 105.2 461.5L109.2 458.8L113.5 461.1C119.5 464.4 125.1 467.1 132.7 469.1L137.4 470.5L138.3 475.2C139.8 482.5 146.3 488 154 488H166C173.7 488 180.2 482.5 181.7 475.2L182.6 470.5L187.3 469.1C194 467.1 200.5 464.4 206.5 461.1L210.8 458.8L214.8 461.5C221 465.6 229.5 464.9 234.1 459.4L243.4 450.1C248.9 445.5 249.6 437 245.5 430.8L242.8 426.8L245.1 422.5C248.4 416.5 251.1 410 253.1 403.3L254.5 398.6L259.2 397.7C266.5 396.2 271.1 389.7 271.1 382V370C271.1 362.3 266.5 355.8 259.2 354.3L254.5 353.4L253.1 348.7C251.1 341.1 248.4 335.5 245.1 329.5L242.8 325.2L245.5 321.2C249.6 314.1 248.9 306.5 243.4 301L234.1 292.6C229.5 287.1 221 286.4 214.8 290.5L210.8 293.2L206.5 290.9C200.5 287.6 194 284.9 187.3 282.9L182.6 281.5L181.7 276.8C180.2 269.5 173.7 264 166 264L154 264zM536 376C536 406.9 510.9 432 480 432C449.1 432 424 406.9 424 376C424 345.1 449.1 320 480 320C510.9 320 536 345.1 536 376zM480 416C502.1 416 520 398.1 520 376C520 353.9 502.1 336 480 336C457.9 336 440 353.9 440 376C440 398.1 457.9 416 480 416zM486 248C499.8 248 511.5 256.7 516 268.9C520.9 270.5 525.7 272.5 530.3 274.8C542.1 269.4 556.5 271.5 566.3 281.2L574.8 289.7C584.5 299.5 586.6 313.9 581.2 325.7C583.5 330.3 585.5 335.1 587.1 339.1C599.3 344.5 608 356.2 608 370V382C608 395.8 599.3 407.5 587.1 412C585.5 416.9 583.5 421.7 581.2 426.3C586.6 438.1 584.5 452.5 574.8 462.3L566.3 470.8C556.5 480.5 542.1 482.6 530.3 477.2C525.7 479.5 520.9 481.5 516 483.1C511.5 495.3 499.8 504 486 504H474C460.2 504 448.5 495.3 443.1 483.1C439.1 481.5 434.3 479.5 429.7 477.2C417.9 482.6 403.5 480.5 393.7 470.8L385.2 462.3C375.5 452.5 373.4 438.1 378.8 426.3C376.5 421.7 374.5 416.9 372.9 412C360.7 407.5 352 395.8 352 382V370C352 356.2 360.7 344.5 372.9 339.1C374.5 335.1 376.5 330.3 378.8 325.7C373.4 313.9 375.5 299.5 385.2 289.7L393.7 281.2C403.5 271.5 417.9 269.4 429.7 274.8C434.3 272.5 439.1 270.5 443.1 268.9C448.5 256.7 460.2 247.1 474 247.1L486 248zM457.4 281.5L452.7 282.9C445.1 284.9 439.5 287.6 433.5 290.9L429.2 293.2L425.2 290.5C418.1 286.4 410.5 287.1 405 292.6L396.6 301C391.1 306.5 390.4 314.1 394.5 321.2L397.2 325.2L394.9 329.5C391.6 335.5 388.9 341.1 386.9 348.7L385.5 353.4L380.8 354.3C373.5 355.8 368 362.3 368 370V382C368 389.7 373.5 396.2 380.8 397.7L385.5 398.6L386.9 403.3C388.9 410 391.6 416.5 394.9 422.5L397.2 426.8L394.5 430.8C390.4 437 391.1 445.5 396.6 450.1L405 459.4C410.5 464.9 418.1 465.6 425.2 461.5L429.2 458.8L433.5 461.1C439.5 464.4 445.1 467.1 452.7 469.1L457.4 470.5L458.3 475.2C459.8 482.5 466.3 488 474 488H486C493.7 488 500.2 482.5 501.7 475.2L502.6 470.5L507.3 469.1C514 467.1 520.5 464.4 526.5 461.1L530.8 458.8L534.8 461.5C541 465.6 549.5 464.9 554.1 459.4L563.4 450.1C568.9 445.5 569.6 437 565.5 430.8L562.8 426.8L565.1 422.5C568.4 416.5 571.1 410 573.1 403.3L574.5 398.6L579.2 397.7C586.5 396.2 592 389.7 592 382V370C592 362.3 586.5 355.8 579.2 354.3L574.5 353.4L573.1 348.7C571.1 341.1 568.4 335.5 565.1 329.5L562.8 325.2L565.5 321.2C569.6 314.1 568.9 306.5 563.4 301L554.1 292.6C549.5 287.1 541 286.4 534.8 290.5L530.8 293.2L526.5 290.9C520.5 287.6 514 284.9 507.3 282.9L502.6 281.5L501.7 276.8C500.2 269.5 493.7 264 486 264H474C466.3 264 459.8 269.5 458.3 276.8L457.4 281.5z"/></svg>