<svg xmlns="http://www.w3.org/2000/svg" viewBox="0 0 640 512"><!--! Font Awesome Pro 6.0.0-beta3 by @fontawesome - https://fontawesome.com License - https://fontawesome.com/license (Commercial License) Copyright 2021 Fonticons, Inc. --><path d="M514.2 192H552C582.9 192 608 217.1 608 248V368H632C636.4 368 640 371.6 640 376C640 380.4 636.4 384 632 384H560C560 437 517 480 464 480C410.1 480 368 437 368 384H272C272 437 229 480 176 480C122.1 480 80 437 80 384H8C3.582 384 0 380.4 0 376C0 371.6 3.582 368 8 368H32V248C32 217.1 57.07 192 88 192H224V72C224 49.91 241.9 32 264 32H368.5C380.7 32 392.3 37.61 399.9 47.21L514.2 192zM240 192H493.8L387.3 57.13C382.8 51.36 375.8 48 368.5 48H264C250.7 48 240 58.75 240 72V192zM48 368H81.33C88.94 322.6 128.4 288 176 288C223.6 288 263.1 322.6 270.7 368H369.3C376.9 322.6 416.4 288 464 288C511.6 288 551.1 322.6 558.7 368H592V248C592 225.9 574.1 208 552 208H88C65.91 208 48 225.9 48 248V368zM176 304C131.8 304 96 339.8 96 384C96 428.2 131.8 464 176 464C220.2 464 256 428.2 256 384C256 339.8 220.2 304 176 304zM464 464C508.2 464 544 428.2 544 384C544 339.8 508.2 304 464 304C419.8 304 384 339.8 384 384C384 428.2 419.8 464 464 464z"/></svg>