<svg xmlns="http://www.w3.org/2000/svg" viewBox="0 0 640 512"><!--! Font Awesome Pro 6.0.0-beta3 by @fontawesome - https://fontawesome.com License - https://fontawesome.com/license (Commercial License) Copyright 2021 Fonticons, Inc. --><path d="M440 192C470.9 192 496 217.1 496 248V344C496 353 493 361.3 488 368H528V200C528 197.9 528.8 195.8 530.3 194.3L626.3 98.34C629.5 95.22 634.5 95.22 637.7 98.34C640.8 101.5 640.8 106.5 637.7 109.7L544 203.3V372.7L637.7 466.3C640.8 469.5 640.8 474.5 637.7 477.7C634.5 480.8 629.5 480.8 626.3 477.7L532.7 384H464C464 437 421 480 368 480C314.1 480 272 437 272 384H224C224 437 181 480 128 480C74.98 480 32 437 32 384L32 383.2C13.74 379.5 0 363.4 0 344V248C0 217.1 25.07 192 56 192H128V72C128 49.91 145.9 32 168 32H270.4C284.1 32 296.9 39.04 304.2 50.64L393.5 192L440 192zM168 48C154.7 48 144 58.75 144 72V192H374.5L290.7 59.18C286.3 52.22 278.6 48 270.4 48H168zM462.5 367.1C472.6 364.3 480 354.1 480 344V248C480 225.9 462.1 208 440 208H56C33.91 208 16 225.9 16 248V344C16 354.1 23.39 364.3 33.48 367.1C41.47 322.1 80.75 288 128 288C175.6 288 215.1 322.6 222.7 368H273.3C280.9 322.6 320.4 288 368 288C415.3 288 454.5 322.1 462.5 367.1V367.1zM128 304C83.82 304 48 339.8 48 384C48 428.2 83.82 464 128 464C172.2 464 208 428.2 208 384C208 339.8 172.2 304 128 304zM368 464C412.2 464 448 428.2 448 384C448 339.8 412.2 304 368 304C323.8 304 288 339.8 288 384C288 428.2 323.8 464 368 464z"/></svg>