<svg xmlns="http://www.w3.org/2000/svg" viewBox="0 0 512 512"><!--! Font Awesome Pro 6.0.0-beta3 by @fontawesome - https://fontawesome.com License - https://fontawesome.com/license (Commercial License) Copyright 2021 Fonticons, Inc. --><path d="M144.7 413.9c9.406-4.094 15.25-13.19 15.25-23.69V295.1h280C479.7 295.1 512 263.7 512 223.1v-183.1c0-4.406-3.594-7.1-7.1-7.1s-7.1 3.594-7.1 7.1v183.1c0 30.87-25.12 55.1-55.1 55.1H159.1V185.7c0-10.5-5.844-19.59-15.25-23.69C135.7 158.1 125.6 159.9 118.3 166.6L8.25 268.9C2.1 273.8 0 280.7 0 287.1c0 7.281 2.1 14.21 8.25 19.12l110.1 102.2C125.6 416.1 135.7 417.9 144.7 413.9zM129.2 397.6L19.12 295.4c-3.1-3.75-3.1-11.09 0-14.78l110.1-102.2C132.9 174.9 136.8 176.1 138.3 176.7c3.562 1.531 5.656 4.906 5.656 9.031v204.5c0 4.125-2.094 7.5-5.656 9.031C136.8 399.9 132.9 401.1 129.2 397.6z"/></svg>