<svg xmlns="http://www.w3.org/2000/svg" viewBox="0 0 640 512"><!--! Font Awesome Pro 6.1.1 by @fontawesome - https://fontawesome.com License - https://fontawesome.com/license (Commercial License) Copyright 2022 Fonticons, Inc. --><path d="M536 496H104C99.59 496 96 499.6 96 504S99.59 512 104 512h432c4.406 0 8-3.578 8-8S540.4 496 536 496zM64 384h512V64H64V384zM80 80h480v288h-480V80zM592 0h-544C21.5 0 0 21.5 0 48v352C0 426.5 21.5 448 48 448h544c26.5 0 48-21.5 48-48v-352C640 21.5 618.5 0 592 0zM624 400c0 17.64-14.36 32-32 32h-544c-17.64 0-32-14.36-32-32v-352c0-17.64 14.36-32 32-32h544c17.64 0 32 14.36 32 32V400zM404.8 128.7l-128 56C273.9 185.9 272 188.8 272 192v72.3C263.5 259.2 252.3 256 240 256C213.5 256 192 270.3 192 288s21.49 32 48 32S288 305.7 288 288V197.2l112-49v84.09C391.5 227.2 380.3 224 368 224C341.5 224 320 238.3 320 256s21.49 32 48 32S416 273.7 416 256V136c0-2.688-1.359-5.219-3.625-6.688C410.2 127.8 407.3 127.6 404.8 128.7zM240 304c-19.53 0-32-9.477-32-16s12.47-16 32-16c19.54 0 32 9.477 32 16S259.5 304 240 304zM368 272c-19.53 0-32-9.477-32-16s12.47-16 32-16c19.54 0 32 9.477 32 16S387.5 272 368 272z"/></svg>