<svg xmlns="http://www.w3.org/2000/svg" viewBox="0 0 640 512"><!--! Font Awesome Pro 6.1.1 by @fontawesome - https://fontawesome.com License - https://fontawesome.com/license (Commercial License) Copyright 2022 Fonticons, Inc. --><path d="M592 0h-544C21.5 0 0 21.5 0 48v352C0 426.5 21.5 448 48 448h544c26.5 0 48-21.5 48-48v-352C640 21.5 618.5 0 592 0zM624 400c0 17.64-14.36 32-32 32h-544c-17.64 0-32-14.36-32-32v-352c0-17.64 14.36-32 32-32h544c17.64 0 32 14.36 32 32V400zM64 384h512V64H64V384zM80 80h480v288h-480V80zM536 496H104C99.59 496 96 499.6 96 504S99.59 512 104 512h432c4.406 0 8-3.578 8-8S540.4 496 536 496z"/></svg>