<svg xmlns="http://www.w3.org/2000/svg" viewBox="0 0 640 512"><!--! Font Awesome Pro 6.0.0-beta3 by @fontawesome - https://fontawesome.com License - https://fontawesome.com/license (Commercial License) Copyright 2021 Fonticons, Inc. --><path d="M456 392c-4.406 0-8 3.578-8 8v72c0 13.23-10.78 24-24 24h-208C202.8 496 192 485.2 192 472V400c0-4.422-3.594-8-8-8S176 395.6 176 400v72C176 494.1 193.9 512 216 512h208c22.06 0 40-17.94 40-40V400C464 395.6 460.4 392 456 392zM464 352h-288c-4.406 0-8 3.578-8 8S171.6 368 176 368h127.3l-53.6 67C247 438.5 247.6 443.5 251 446.3C252.5 447.4 254.3 448 256 448c2.344 0 4.656-1.031 6.25-3L320 372.8l57.75 72.19C379.3 446.1 381.7 448 384 448c1.75 0 3.531-.5781 5-1.75c3.438-2.766 4-7.797 1.25-11.25L336.7 368H464c4.406 0 8-3.578 8-8S468.4 352 464 352zM608.7 173.7l-71.03-126.8C521.5 17.95 490.8 0 457.7 0H182.3C149.2 0 118.5 17.95 102.3 46.88L31.31 173.7C21.28 191.5 16 211.8 16 232.3V376C16 398.1 33.94 416 56 416h32C110.1 416 128 398.1 128 376V246.1l48-81.61V320c0 4.422 3.594 8 8 8S192 324.4 192 320V136c0-3.609-2.406-6.766-5.906-7.719c-3.531-.9844-7.188 .5469-9 3.656l-64 108.8C112.4 241.1 112 243.4 112 244.8V376c0 13.23-10.78 24-24 24h-32C42.78 400 32 389.2 32 376V232.3C32 214.5 36.59 196.1 45.25 181.5l71.03-126.8C129.7 30.83 154.1 16 182.3 16h52.84l76.74 145.8L248.9 284.3c-2 3.922-.4687 8.75 3.469 10.77c3.812 1.984 8.719 .5 10.78-3.453L404.9 16h52.81c27.34 0 52.66 14.83 66.03 38.69l71.03 126.8C603.4 196.1 608 214.5 608 232.3V376c0 13.23-10.78 24-24 24h-32c-13.22 0-24-10.77-24-24V244.1c0-1.438-.375-2.844-1.125-4.078l-64-108.1c-1.812-3.078-5.375-4.594-9-3.641C450.4 129.2 448 132.4 448 136V320c0 4.422 3.594 8 8 8S464 324.4 464 320V165.2L512 246.3V376c0 22.06 17.94 40 40 40h32c22.06 0 40-17.94 40-40V232.3C624 211.8 618.7 191.5 608.7 173.7zM320.8 144.4L253.3 16h133.6L320.8 144.4z"/></svg>