<svg xmlns="http://www.w3.org/2000/svg" viewBox="0 0 512 512"><!--! Font Awesome Pro 6.0.0-beta3 by @fontawesome - https://fontawesome.com License - https://fontawesome.com/license (Commercial License) Copyright 2021 Fonticons, Inc. --><path d="M505.6 240.3L421.3 154.5C416.8 150 411.4 148 405.1 148C394.8 148 384 156.9 384 170.3V248h-120V128h77.75c19.78 0 29.69-23.52 15.7-37.28l-85.75-84.32c-4.338-4.266-10.02-6.395-15.71-6.395s-11.36 2.129-15.7 6.395L154.5 90.72C140.6 104.5 150.5 128 170.2 128H248v120H128V170.3C128 156.9 117.2 148 106 148c-5.367 0-10.84 2.023-15.29 6.547L6.396 240.3C2.133 244.6 0 250.3 0 256s2.133 11.36 6.396 15.7l84.33 85.75C95.17 361.1 100.6 364 106 364C117.2 364 128 355.1 128 341.8V264h120V384H170.2c-19.78 0-29.69 23.52-15.7 37.28l85.75 84.32c4.338 4.266 10.02 6.4 15.7 6.4s11.37-2.135 15.7-6.4l85.75-84.32C371.4 407.5 361.5 384 341.8 384H264V264H384v77.75C384 355.1 394.8 364 405.1 364c5.365 0 10.83-2.023 15.28-6.547l84.33-85.75C509.9 267.4 512 261.7 512 256S509.9 244.6 505.6 240.3zM170.2 112c-3.705 0-5.219-2.352-5.793-3.75C163.8 106.7 163.5 104.3 165.8 102.1l85.75-84.33C253.1 16.23 255 16 256 16s2.887 .2344 4.482 1.805l85.75 84.33c2.25 2.211 1.955 4.547 1.312 6.117C346.1 109.6 345.5 112 341.8 112H170.2zM112 341.8C112 346.3 108.3 348 106 348c-1.439 0-2.707-.5781-3.877-1.766L17.81 260.5C16.24 258.9 16 256.1 16 256s.2363-2.883 1.805-4.484l84.33-85.75C103.3 164.6 104.6 164 106 164C108.3 164 112 165.7 112 170.3V341.8zM341.8 400c3.705 0 5.221 2.352 5.793 3.75c.6426 1.57 .9375 3.906-1.312 6.117l-85.75 84.33C258.9 495.8 256.1 496 256 496s-2.885-.2344-4.482-1.805l-85.75-84.33c-2.248-2.211-1.955-4.547-1.312-6.117C165 402.4 166.5 400 170.2 400H341.8zM494.2 260.5l-84.33 85.75C408.7 347.4 407.4 348 405.1 348C403.7 348 400 346.3 400 341.8v-171.5C400 165.7 403.7 164 405.1 164c1.438 0 2.707 .5781 3.875 1.766l84.32 85.75C495.8 253.1 496 255 496 256S495.8 258.9 494.2 260.5z"/></svg>