<svg xmlns="http://www.w3.org/2000/svg" viewBox="0 0 512 512"><!--! Font Awesome Pro 6.1.1 by @fontawesome - https://fontawesome.com License - https://fontawesome.com/license (Commercial License) Copyright 2022 Fonticons, Inc. --><path d="M440 279c-4.406 0-8 3.578-8 8V440c0 30.88-25.12 56-56 56h-304c-30.88 0-56-25.12-56-56v-304c0-30.88 25.12-56 56-56h152.3c4.406 0 8-3.578 8-8S228.7 64 224.3 64H72C32.31 64 0 96.3 0 136v304C0 479.7 32.31 512 72 512h304c39.69 0 72-32.3 72-72V287C448 282.6 444.4 279 440 279zM488 0h-142.2c-22.92 0-34.4 27.71-18.19 43.92l64.59 64.59l-229.8 229.8c-3.125 3.125-3.125 8.188 0 11.31C163.9 351.2 165.9 352 168 352s4.094-.7813 5.656-2.344l229.8-229.8l64.59 64.59C473.3 189.7 479.8 192 486.1 192C499.3 192 512 181.7 512 166.2V24C512 10.75 501.3 0 488 0zM496 166.2C496 172.1 490.2 176 486.1 176c-2.516 0-4.766-.9746-6.691-2.898l-140.5-140.5c-4.148-4.148-2.855-8.795-2.109-10.6C337.5 20.2 339.9 16 345.8 16H488c4.41 0 8 3.59 8 8V166.2z"/></svg>