<svg xmlns="http://www.w3.org/2000/svg" viewBox="0 0 384 512"><!--! Font Awesome Pro 6.0.0-beta3 by @fontawesome - https://fontawesome.com License - https://fontawesome.com/license (Commercial License) Copyright 2021 Fonticons, Inc. --><path d="M18.36 383.5l45.25 45.25c12.5 12.5 32.76 12.5 45.25 0l135.8-135.8l67.88 67.88c9.148 9.148 22.91 11.89 34.87 6.938c3.964-1.643 7.467-4.02 10.38-6.936c5.888-5.888 9.372-13.97 9.372-22.63V111.1c0-8.839-3.58-16.84-9.369-22.63C351.1 83.58 343.1 80 335.1 80H108.9c-8.661-.0014-16.74 3.484-22.63 9.372C83.33 92.29 80.95 95.79 79.31 99.75C74.36 111.7 77.1 125.5 86.24 134.6l67.88 67.88L18.36 338.3C5.864 350.8 5.865 371 18.36 383.5zM29.67 372.2c-6.238-6.238-6.238-16.39 0-22.63l147.1-147.1L97.56 123.3C92.97 118.7 91.6 111.9 94.09 105.9c.8079-1.951 1.976-3.7 3.466-5.19c3.022-3.022 7.039-4.686 11.32-4.686h226.3c4.276 0 8.295 1.663 11.32 4.683c3.019 3.019 4.682 7.038 4.682 11.31v226.3c0 4.276-1.663 8.295-4.685 11.32c-1.49 1.49-3.24 2.657-5.198 3.469c-5.991 2.48-12.84 1.119-17.43-3.472l-79.2-79.2L97.56 417.5c-6.238 6.238-16.39 6.238-22.63 0L29.67 372.2z"/></svg>