<svg xmlns="http://www.w3.org/2000/svg" viewBox="0 0 384 512"><!--! Font Awesome Pro 6.1.1 by @fontawesome - https://fontawesome.com License - https://fontawesome.com/license (Commercial License) Copyright 2022 Fonticons, Inc. --><path d="M8 48.03h368c4.418 0 8-3.582 8-8s-3.582-8-8-8H8c-4.418 0-8 3.582-8 8S3.582 48.03 8 48.03zM56 319.9L128 319.9v128.1c0 17.69 14.33 32.02 32 32.02h64c17.67 0 32-14.34 32-32.02V319.9l72-.0311c9.578 0 18.25-5.709 22.05-14.51c3.781-8.803 1.984-19.03-4.594-26l-136-144.1C204.9 130.5 198.5 128 192 128S179.1 130.5 174.5 135.3l-136 144.1C31.97 286.3 30.17 296.6 33.95 305.4C37.75 314.2 46.42 319.9 56 319.9zM50.18 290.3l135.1-144.1C187.5 144.9 189.6 144 192 144s4.527 .8164 5.816 2.184l135.1 144.1c2.201 2.332 2.801 5.75 1.541 8.686C334.1 301.1 331.2 303.9 328 303.9H240v144.1c0 8.836-7.178 16.02-16 16.02H160c-8.822 0-16-7.188-16-16.02V303.9H56c-3.197 0-6.084-1.902-7.346-4.826C47.38 296.1 47.98 292.7 50.18 290.3z"/></svg>