<svg xmlns="http://www.w3.org/2000/svg" viewBox="0 0 448 512"><!--! Font Awesome Pro 6.0.0-beta3 by @fontawesome - https://fontawesome.com License - https://fontawesome.com/license (Commercial License) Copyright 2021 Fonticons, Inc. --><path d="M96 128C96 57.31 153.3 0 224 0C294.7 0 352 57.31 352 128V144C352 214.7 294.7 272 224 272C153.3 272 96 214.7 96 144V128zM334.9 112H312C289.9 112 269 101.8 255.4 84.49L250.1 89.86C231.2 113.1 201.7 128 170.5 128H112V144C112 205.9 162.1 256 224 256C285.9 256 336 205.9 336 144V128C336 122.6 335.6 117.2 334.9 112L334.9 112zM312 96H331.4C324.6 73.21 310.7 53.46 292.4 39.29L265.8 71.75L267.2 73.6C277.8 87.7 294.4 96 312 96H312zM278.1 30.4C262.7 21.23 243.1 16 224 16C167.6 16 120.9 57.72 113.1 112H170.5C196.9 112 221.9 100.2 238.6 79.72L278.1 30.4zM176.9 308.3C178.3 305.7 181 304 184 304H264C266.1 304 269.7 305.7 271.1 308.3C272.5 311 272.3 314.2 270.5 316.6L233.3 368.7L256.5 415.1L303.6 320.9C384.7 329.3 448 397.9 448 481.3C448 498.2 434.2 511.1 417.3 511.1H30.72C13.75 511.1 0 498.2 0 481.3C0 397.9 63.28 329.3 144.4 320.9L191.5 415.1L214.7 368.7L177.5 316.6C175.7 314.2 175.5 311 176.9 308.3H176.9zM199.5 320L224 354.2L248.5 320H199.5zM135.3 338.3C67.45 350.6 16 409.9 16 481.3C16 489.4 22.59 495.1 30.72 495.1H214.1L135.3 338.3zM200.5 432.9L224 480L247.5 432.9L224 385.9L200.5 432.9zM432 481.3C432 409.9 380.5 350.6 312.7 338.3L233.9 495.1H417.3C425.4 495.1 432 489.4 432 481.3H432z"/></svg>