<svg xmlns="http://www.w3.org/2000/svg" viewBox="0 0 640 512"><!--! Font Awesome Pro 6.1.1 by @fontawesome - https://fontawesome.com License - https://fontawesome.com/license (Commercial License) Copyright 2022 Fonticons, Inc. --><path d="M512 160c44.18 0 80-35.82 80-80S556.2 0 512 0c-44.18 0-80 35.82-80 80S467.8 160 512 160zM512 16c35.29 0 64 28.71 64 64s-28.71 64-64 64s-64-28.71-64-64S476.7 16 512 16zM319.9 128c48.5 0 87.96 39.48 87.96 88c0 11.7-2.396 22.82-6.559 33.04l12.87 10.23C420.2 246.1 423.8 231.5 423.8 216c0-57.44-46.54-104-103.1-104c-23.94 0-45.72 8.424-63.29 22.03l12.78 10.15C283.7 134.1 301 128 319.9 128zM480 192c-5.969 0-11.97 .7031-17.84 2.094c-4.297 1.016-6.953 5.328-5.938 9.625C457.2 208 461.5 210.8 465.8 209.7C470.5 208.6 475.3 208 480 208h76.5C593.7 208 624 240.3 624 280C624 284.4 620.8 288 616.9 288h-166.6l20.13 16h146.5C629.6 304 640 293.2 640 280C640 231.5 602.5 192 556.5 192H480zM493.9 465.8C495 472.2 496 478.6 496 485.3C496 491.2 490.4 496 483.6 496H156.4C149.6 496 144 491.2 144 485.3C144 420.6 200.6 368 270.1 368H369.9c.3926 0 .7559 .1035 1.146 .1074L350.8 352H270.1C191.6 352 128 411.7 128 485.3C128 500.1 140.7 512 156.4 512h327.2C499.3 512 512 500.1 512 485.3c0-1.938-.5195-3.738-.6074-5.654L493.9 465.8zM128 16c35.29 0 64 28.71 64 64c0 .8594-.2207 1.656-.2539 2.508l14.81 11.78C207.4 89.63 208 84.89 208 80C208 35.82 172.2 0 128 0C116.7 0 106 2.393 96.26 6.611l14.97 11.9C116.6 17.04 122.2 16 128 16zM200 296C200 291.6 196.4 288 192 288H23.09C19.19 288 16 284.4 16 280c0-39.7 30.28-72 67.5-72H160c3.768 0 7.531 .6211 11.27 1.318L149.5 192H83.5C37.45 192 0 231.5 0 280C0 293.2 10.36 304 23.09 304H192C196.4 304 200 300.4 200 296zM12.99 1.734c-1.463-1.164-3.217-1.73-4.963-1.73c-2.352 0-4.689 1.027-6.287 3.012c-2.75 3.469-2.172 8.5 1.281 11.25l623.1 496C628.5 511.4 630.2 512 631.1 512c2.344 0 4.688-1.031 6.266-3.016c2.75-3.469 2.172-8.5-1.281-11.25L12.99 1.734z"/></svg>