<svg xmlns="http://www.w3.org/2000/svg" viewBox="0 0 640 512"><!--! Font Awesome Pro 6.0.0-beta3 by @fontawesome - https://fontawesome.com License - https://fontawesome.com/license (Commercial License) Copyright 2021 Fonticons, Inc. --><path d="M224 256c70.7 0 128-57.31 128-128S294.7 0 224 0C153.3 0 96 57.31 96 128S153.3 256 224 256zM224 16c61.76 0 112 50.24 112 112S285.8 240 224 240S112 189.8 112 128S162.2 16 224 16zM496 384c-8.836 0-16 7.162-16 16c0 8.836 7.164 16 16 16s16-7.164 16-16C512 391.2 504.8 384 496 384zM320 496H41.44C27.41 496 16 485.2 16 472C16 388.2 87.41 320 175.2 320h97.69c15.34 0 30.5 2.062 44.97 6.156c4.375 1.25 8.688-1.281 9.875-5.5c1.219-4.25-1.25-8.688-5.5-9.875C306.3 306.3 289.7 304 272.8 304H175.2C78.56 304 0 379.4 0 472C0 494.1 18.59 512 41.44 512H320c4.406 0 8-3.594 8-8S324.4 496 320 496zM576 288h-16V208c0-35.28-28.72-64-64-64s-64 28.72-64 64V288H416c-35.35 0-64 28.65-64 64v96c0 35.35 28.65 64 64 64h160c35.35 0 64-28.65 64-64v-96C640 316.7 611.3 288 576 288zM448 208C448 181.5 469.5 160 496 160S544 181.5 544 208V288h-96V208zM624 448c0 26.47-21.53 48-48 48h-160c-26.47 0-48-21.53-48-48v-96c0-26.47 21.53-48 48-48h160c26.47 0 48 21.53 48 48V448z"/></svg>