<svg xmlns="http://www.w3.org/2000/svg" viewBox="0 0 640 512"><!--! Font Awesome Pro 6.1.1 by @fontawesome - https://fontawesome.com License - https://fontawesome.com/license (Commercial License) Copyright 2022 Fonticons, Inc. --><path d="M632 0C636.4 0 640 3.582 640 8C640 12.42 636.4 16 632 16H8C3.582 16 0 12.42 0 8C0 3.582 3.582 0 8 0H632zM632 496C636.4 496 640 499.6 640 504C640 508.4 636.4 512 632 512H8C3.582 512 0 508.4 0 504C0 499.6 3.582 496 8 496H632zM369.6 288C422.6 288 465.6 330.1 465.6 384C465.6 401.7 451.3 416 433.6 416H209.6C191.9 416 177.6 401.7 177.6 384C177.6 330.1 220.6 288 273.6 288H369.6zM449.6 384C449.6 339.8 413.8 304 369.6 304H273.6C229.4 304 193.6 339.8 193.6 384C193.6 392.8 200.8 400 209.6 400H433.6C442.4 400 449.6 392.8 449.6 384zM401.6 176C401.6 220.2 365.8 256 321.6 256C277.4 256 241.6 220.2 241.6 176C241.6 131.8 277.4 96 321.6 96C365.8 96 401.6 131.8 401.6 176zM321.6 112C286.3 112 257.6 140.7 257.6 176C257.6 211.3 286.3 240 321.6 240C356.9 240 385.6 211.3 385.6 176C385.6 140.7 356.9 112 321.6 112zM83.2 160C83.2 124.7 111.9 96 147.2 96C182.5 96 211.2 124.7 211.2 160C211.2 195.3 182.5 224 147.2 224C111.9 224 83.2 195.3 83.2 160V160zM147.2 208C173.7 208 195.2 186.5 195.2 160C195.2 133.5 173.7 112 147.2 112C120.7 112 99.2 133.5 99.2 160C99.2 186.5 120.7 208 147.2 208zM64 336H152C156.4 336 160 339.6 160 344C160 348.4 156.4 352 152 352H64C46.33 352 32 337.7 32 320C32 284.7 60.65 256 96 256H192C198.3 256 204.5 256.9 210.3 258.7C214.5 259.9 216.9 264.4 215.7 268.6C214.4 272.8 209.1 275.2 205.7 273.1C201.4 272.7 196.8 272 191.1 272H95.1C69.49 272 47.1 293.5 47.1 320C47.1 328.8 55.16 336 63.1 336L64 336zM496 224C460.7 224 432 195.3 432 160C432 124.7 460.7 96 496 96C531.3 96 560 124.7 560 160C560 195.3 531.3 224 496 224zM544 160C544 133.5 522.5 112 496 112C469.5 112 448 133.5 448 160C448 186.5 469.5 208 496 208C522.5 208 544 186.5 544 160zM595.2 320C595.2 293.5 573.7 272 547.2 272H451.2C446.4 272 441.8 272.7 437.5 273.1C433.2 275.2 428.8 272.8 427.5 268.6C426.3 264.4 428.7 259.9 432.9 258.7C438.7 256.9 444.9 255.1 451.2 255.1H547.2C582.5 255.1 611.2 284.7 611.2 319.1C611.2 337.7 596.9 352 579.2 352H491.2C486.8 352 483.2 348.4 483.2 344C483.2 339.6 486.8 336 491.2 336H579.2C588 336 595.2 328.8 595.2 319.1L595.2 320z"/></svg>