<svg xmlns="http://www.w3.org/2000/svg" viewBox="0 0 640 512"><!--! Font Awesome Pro 6.0.0-beta3 by @fontawesome - https://fontawesome.com License - https://fontawesome.com/license (Commercial License) Copyright 2021 Fonticons, Inc. --><path d="M480 192c-5.969 0-11.97 .7031-17.84 2.094c-4.297 1.016-6.953 5.328-5.938 9.625c1.006 4.303 5.324 7.074 9.689 5.92C471.6 208.1 478 208 483.9 208h72.63C593.7 208 624 240.3 624 280C624 284.4 620.8 288 616.9 288H600c-4.418 0-8 3.582-8 8s3.582 8 8 8h16.91C629.6 304 640 293.2 640 280C640 231.5 602.5 192 556.5 192H480zM319.9 320c57.41 0 103.1-46.56 103.1-104c0-57.44-46.54-104-103.1-104c-57.41 0-103.1 46.56-103.1 104C215.9 273.4 262.5 320 319.9 320zM319.9 128c48.5 0 87.96 39.48 87.96 88S368.4 304 319.9 304S231.9 264.5 231.9 216S271.4 128 319.9 128zM512 160c44.18 0 80-35.82 80-80S556.2 0 512 0c-44.18 0-80 35.82-80 80S467.8 160 512 160zM512 16c35.29 0 64 28.71 64 64s-28.71 64-64 64s-64-28.71-64-64S476.7 16 512 16zM624 376h-40V336c0-8.836-7.162-16-16-16h-48c-8.836 0-16 7.164-16 16v40H464c-8.836 0-16 7.164-16 16v48c0 8.836 7.164 16 16 16h40v40c0 8.836 7.164 16 16 16h48c8.838 0 16-7.164 16-16v-40h40c8.838 0 16-7.164 16-16v-48C640 383.2 632.8 376 624 376zM624 440h-56v56h-48v-56H464v-48h56V336h48v56h56V440zM464.8 496h-308.3C149.6 496 144 491.2 144 485.3C144 420.6 200.6 368 270.1 368H369.9c14.61 0 28.63 2.342 41.69 6.617c3.734 1.223 7.886-.3223 9.618-3.85c.0234-.0488-.0254 .0469 0 0c2.188-4.416 .1631-9.75-4.517-11.29C402 354.7 386.3 352 369.9 352H270.1C191.6 352 128 411.7 128 485.3C128 500.1 140.7 512 156.4 512h308.4c4.828 0 8.561-4.365 7.783-9.133c-.0098-.0527 .0098 .0527 0 0C471.9 498.1 468.7 496 464.8 496zM128 160c44.18 0 80-35.82 80-80S172.2 0 128 0C83.82 0 48 35.82 48 80S83.82 160 128 160zM128 16c35.29 0 64 28.71 64 64s-28.71 64-64 64s-64-28.71-64-64S92.71 16 128 16zM200 296C200 291.6 196.4 288 192 288H23.09C19.19 288 16 284.4 16 280c0-39.7 30.28-72 67.5-72H160c4.734 0 9.5 .5625 14.16 1.656C178.5 210.8 182.8 208 183.8 203.7c1.016-4.297-1.641-8.609-5.938-9.625C171.1 192.7 165.1 192 160 192H83.5C37.45 192 0 231.5 0 280C0 293.2 10.36 304 23.09 304H192C196.4 304 200 300.4 200 296z"/></svg>