<svg xmlns="http://www.w3.org/2000/svg" viewBox="0 0 640 512"><!--! Font Awesome Pro 6.0.0-beta3 by @fontawesome - https://fontawesome.com License - https://fontawesome.com/license (Commercial License) Copyright 2021 Fonticons, Inc. --><path d="M224 256c70.7 0 128-57.31 128-128S294.7 0 224 0C153.3 0 96 57.31 96 128S153.3 256 224 256zM224 16c61.76 0 112 50.24 112 112S285.8 240 224 240S112 189.8 112 128S162.2 16 224 16zM272.8 304H175.2C78.56 304 0 379.4 0 472C0 494.1 18.59 512 41.44 512h365.1C429.4 512 448 494.1 448 472C448 379.4 369.4 304 272.8 304zM406.6 496H41.44C27.41 496 16 485.2 16 472C16 388.2 87.41 320 175.2 320h97.69C360.6 320 432 388.2 432 472C432 485.2 420.6 496 406.6 496zM637.7 146.3c-3.125-3.125-8.188-3.125-11.31 0L504 268.7l-58.34-58.34c-3.125-3.125-8.188-3.125-11.31 0s-3.125 8.188 0 11.31l64 64C499.9 287.2 501.9 288 504 288s4.094-.7813 5.656-2.344l128-128C640.8 154.5 640.8 149.5 637.7 146.3z"/></svg>