<svg xmlns="http://www.w3.org/2000/svg" viewBox="0 0 448 512"><!--! Font Awesome Pro 6.1.1 by @fontawesome - https://fontawesome.com License - https://fontawesome.com/license (Commercial License) Copyright 2022 Fonticons, Inc. --><path d="M96 128C96 57.31 153.3 0 224 0C294.7 0 352 57.31 352 128V144C352 214.7 294.7 272 224 272C153.3 272 96 214.7 96 144V128zM334.9 112H312C289.9 112 269 101.8 255.4 84.49L250.1 89.86C231.2 113.1 201.7 128 170.5 128H112V144C112 205.9 162.1 256 224 256C285.9 256 336 205.9 336 144V128C336 122.6 335.6 117.2 334.9 112L334.9 112zM312 96H331.4C324.6 73.21 310.7 53.46 292.4 39.29L265.8 71.75L267.2 73.6C277.8 87.7 294.4 96 311.1 96H312zM278.1 30.4C262.7 21.23 243.1 16 224 16C167.6 16 120.9 57.72 113.1 112H170.5C196.9 112 221.9 100.2 238.6 79.72L278.1 30.4zM448 480C448 497.7 433.7 512 416 512H32C14.33 512 0 497.7 0 480V472C0 388.2 61.33 318.8 141.6 306.1L224 416L306.4 306.1C386.7 318.8 448 388.2 448 472V480zM134.7 323.6C66.79 338.8 16 399.5 16 472V480C16 488.8 23.16 496 32 496H416C424.8 496 432 488.8 432 480V472C432 399.5 381.2 338.8 313.3 323.6L236.8 425.6C233.8 429.6 229 432 224 432C218.1 432 214.2 429.6 211.2 425.6L134.7 323.6z"/></svg>