<svg xmlns="http://www.w3.org/2000/svg" viewBox="0 0 640 512"><!--! Font Awesome Pro 6.0.0-beta3 by @fontawesome - https://fontawesome.com License - https://fontawesome.com/license (Commercial License) Copyright 2021 Fonticons, Inc. --><path d="M432 256c64.62 0 116.4-54.71 111.7-120.3c-3.445-47.64-38.17-88.11-84.4-100.1c-26.62-6.918-51.32-3.184-72.75 6.594c-3.914 1.789-5.566 6.359-3.695 10.23c.1055 .2187 .2109 .4414 .3164 .6602c1.76 3.684 6.051 5.445 9.762 3.742c14.72-6.77 31.25-10.18 48.96-8.227C490 53.84 527.8 95.26 528 143.7C528.2 196.8 485 240 432 240c-19.32 0-37.13-5.961-52.16-15.88c-3.369-2.219-7.834-1.074-10.13 2.242c-.1445 .2109-.2891 .418-.4355 .625c-2.473 3.543-1.535 8.344 2.08 10.71C388.8 249.1 409.5 256 432 256zM479.1 320H448c-4.418 0-8 3.582-8 8S443.6 336 448 336h31.1c79.5 0 144.2 64.75 144 144.3C623.1 488.1 616.7 496 608 496H496c-4.418 0-8 3.582-8 8S491.6 512 496 512h112C625.7 512 640 497.6 640 479.1C639.9 391.7 568.3 320 479.1 320zM272.8 304H175.2C78.56 304 0 379.4 0 472C0 494.1 18.59 512 41.44 512h365.1C429.4 512 448 494.1 448 472C448 379.4 369.4 304 272.8 304zM406.6 496H41.44C27.41 496 16 485.2 16 472C16 388.2 87.41 320 175.2 320h97.69C360.6 320 432 388.2 432 472C432 485.2 420.6 496 406.6 496zM104 128h240C348.4 128 352 124.4 352 120v-112c0-2.812-1.469-5.406-3.875-6.875c-2.406-1.406-5.406-1.5-7.875-.1875L284 30.94l-56.25-30c-2.312-1.25-5.188-1.25-7.5 0L164 30.94l-56.25-30C105.3-.375 102.3-.2813 99.88 1.125C97.47 2.594 96 5.188 96 8v112C96 124.4 99.59 128 104 128zM112 21.34l48.25 25.72c2.312 1.25 5.188 1.25 7.5 0L224 17.06l56.25 30c2.312 1.25 5.188 1.25 7.5 0L336 21.34V112h-224V21.34zM335.8 159.5C331.9 218.1 282.8 264 224 264S116.1 218.1 112.2 159.5C111.1 155.3 108.4 152 104.3 152c-.1562 0-.3438 0-.5313 .0313c-4.406 .2813-7.75 4.094-7.438 8.5C100.7 227.5 156.8 280 224 280s123.3-52.47 127.7-119.5c.3125-4.406-3.031-8.219-7.438-8.5C339.6 151.2 336 155.1 335.8 159.5z"/></svg>