<svg xmlns="http://www.w3.org/2000/svg" viewBox="0 0 448 512"><!--! Font Awesome Pro 6.0.0-beta3 by @fontawesome - https://fontawesome.com License - https://fontawesome.com/license (Commercial License) Copyright 2021 Fonticons, Inc. --><path d="M319.9 352l-68.26 102.1l-18.69-37.33l37.25-52.06c1.785-2.469 2.035-5.688 .6582-8.344S266.7 352 263.7 352H183.6c-3.004 0-5.758 1.688-7.135 4.344c-1.379 2.656-1.127 5.906 .625 8.344l37.25 52.06L195.7 453.9L128.1 352C57.3 352 0 409.3 0 480c0 17.67 14.32 32 32.03 32h383.9C433.7 512 448 497.7 448 480C448 409.3 390.7 352 319.9 352zM199.1 368h48.98l-24.48 34.25L199.1 368zM32.05 496c-8.836 0-16.03-7.178-16.03-16c0-58.93 45.83-107.4 103.8-111.7L204.4 496H32.05zM223.6 496l-17.73-26.75l17.73-35.38l17.77 35.51L223.6 496zM415.9 496h-173l85.26-127.7C386.1 372.6 431.1 421.1 431.1 480C431.1 488.8 424.8 496 415.9 496zM224 136c13.22 0 45.5-23.83 45.5-68c0-6.266-3.719-11.88-9.531-14.31L229.1 41.2c-3.468-1.453-8.468-1.469-11.94-.0156l-30 12.5C182.3 56.11 178.5 61.72 178.5 68C178.5 112.2 210.8 136 224 136zM223.8 55.97L253.5 68c0 34.83-24.69 51.31-29.25 52.02C219.2 119.3 194.7 102.8 194.5 68.34L223.8 55.97zM69.93 112.2v26.75c0 3.156 1.848 6 4.727 7.312C118.3 165.7 169.8 176 223.6 176s105.4-10.31 148.1-29.78c2.881-1.312 4.727-4.156 4.727-7.312V112.2l19.62-19.62c6.104-6.094 9.484-14.22 9.484-22.88c0-14.88-10.08-27.78-24.54-31.38l-148.6-37.06c-6.322-1.625-13.08-1.625-19.41 0L65.36 38.28c-14.46 3.594-24.54 16.5-24.54 31.38c0 8.656 3.381 16.78 9.484 22.88L69.93 112.2zM69.24 53.78l148.6-37.06c3.789-.9375 7.795-.9375 11.64 0l148.6 37.06c7.293 1.844 12.39 8.375 12.39 15.88c0 4.375-1.691 8.469-4.789 11.56l-21.97 21.97c-1.502 1.5-2.348 3.531-2.348 5.656v24.81C320.8 150.9 273.3 160 223.6 160C173.1 160 126.5 150.9 85.95 133.7V108.8c0-2.125-.8438-4.156-2.348-5.656L61.63 81.22C58.53 78.13 56.84 74.03 56.84 69.66C56.84 62.16 61.95 55.63 69.24 53.78zM335.8 192c0 61.75-50.28 112-112.1 112C161.8 304 111.5 253.8 111.5 192c0-4.406-3.6-8-8.012-8C99.04 184 95.44 187.6 95.44 192c0 70.59 57.5 128 128.2 128s128.3-57.41 128.3-128c0-4.406-3.715-8-8.127-8C339.4 184 335.8 187.6 335.8 192z"/></svg>