<svg xmlns="http://www.w3.org/2000/svg" viewBox="0 0 448 512"><!--! Font Awesome Pro 6.1.1 by @fontawesome - https://fontawesome.com License - https://fontawesome.com/license (Commercial License) Copyright 2022 Fonticons, Inc. --><path d="M320 352H128c-70.69 0-128 57.31-128 128c0 17.67 14.33 32 32 32h384c17.67 0 32-14.33 32-32C448 409.3 390.7 352 320 352zM155.3 496L224 427.3L292.7 496H155.3zM416 496h-100.7l-85.66-85.66c-3.125-3.125-8.188-3.125-11.31 0L132.7 496H32c-8.822 0-16-7.178-16-16c0-61.76 50.24-112 112-112h192c61.76 0 112 50.24 112 112C432 488.8 424.8 496 416 496zM89.3 293.9L207.8 320h32.31l118.5-26.09c15.48-3.408 26.17-17.43 25.24-33.11l-6.906-117C372.8 63.19 305.5 0 224 0C157.4 0 101 42.44 80 101.8V16h24c4.418 0 8-3.582 8-8S108.4 0 104 0h-32C67.58 0 64 3.582 64 8v256l.1777-2.211C63.77 277 74.16 290.6 89.3 293.9zM362.1 161.7C346.2 167.9 280 198.3 280 270.9c0 4.422 3.594 8 8 8s8-3.578 8-8c0-58.17 48.48-84.34 67.06-92.28l4.908 83.17c.4648 7.859-4.881 14.81-12.71 16.54L256 300.1V182.1l105.6-28.15L362.1 161.7zM224 16c61.46 0 113.4 40.25 130.7 96H93.25C110.6 56.27 162.5 16 224 16zM89.48 128h269c.5879 3.254 1.146 6.512 1.498 9.846l-114.1 30.42C242.4 169.2 240 172.4 240 176v127.7L238.4 304H209.6L208 303.7V176c0-3.625-2.438-6.797-5.938-7.734L87.98 137.8C88.33 134.5 88.89 131.3 89.48 128zM84.94 178.6C103.5 186.5 152 212.7 152 270.9c0 4.422 3.594 8 8 8s8-3.578 8-8c0-72.54-66.16-102.9-82.06-109.2L86.39 153.1L192 182.1v117.1L92.74 278.3c-7.83-1.723-13.18-8.678-12.71-16.54L84.94 178.6z"/></svg>