<svg xmlns="http://www.w3.org/2000/svg" viewBox="0 0 640 512"><!--! Font Awesome Pro 6.0.0-beta3 by @fontawesome - https://fontawesome.com License - https://fontawesome.com/license (Commercial License) Copyright 2021 Fonticons, Inc. --><path d="M413.8 495C411.5 495.7 409.1 496 406.6 496H41.44C27.41 496 16 485.2 16 472C16 388.2 87.41 320 175.2 320h97.69c15.34 0 30.5 2.062 44.97 6.156c4.406 1.25 8.688-1.281 9.875-5.5c1.219-4.25-1.25-8.688-5.5-9.875C306.3 306.3 289.7 304 272.8 304H175.2C78.56 304 0 379.4 0 472C0 494.1 18.59 512 41.44 512h365.1c3.969 0 7.875-.5313 11.59-1.594c4.25-1.188 6.75-5.594 5.531-9.844C422.5 496.3 418.1 493.8 413.8 495zM224 256c70.7 0 128-57.31 128-128S294.7 0 224 0C153.3 0 96 57.31 96 128S153.3 256 224 256zM224 16c61.76 0 112 50.24 112 112S285.8 240 224 240S112 189.8 112 128S162.2 16 224 16zM631.8 380.6l-20.45-11.82c1.717-11.18 1.805-21.48 0-33.53l20.45-11.82c6.693-3.83 9.844-11.88 7.453-19.15c-6.496-19.51-16.68-37.22-30.29-52.62c-2.912-3.215-7.494-5.176-12.22-5.176c-2.723 0-5.492 .6484-8.025 2.08l-20.95 12.13c-8.719-6.869-18.28-12.39-28.57-16.5V219.1c0-7.684-5.373-14.41-12.77-15.99c-11.45-2.385-21.78-3.207-30.66-3.207c-14.11 0-24.57 2.07-30.11 3.236c-7.398 1.547-12.77 8.277-12.77 15.96v24.19c-10.26 4.111-19.83 9.631-28.54 16.5L403.4 248.6c-2.361-1.402-5.217-2.129-8.135-2.129c-4.426 0-8.998 1.676-12.2 5.225c-13.58 15.37-23.76 33.08-30.26 52.62c-2.391 7.234 .7598 15.29 7.426 19.12l20.47 11.82c-1.803 12.04-1.721 22.34 0 33.53l-20.45 11.82c-6.693 3.828-9.844 11.88-7.453 19.14c6.498 19.51 16.68 37.22 30.29 52.62c2.289 2.553 6.92 5.273 12.27 5.273c2.557 0 5.275-.6211 7.98-2.176l20.73-11.96c8.803 6.953 18.42 12.53 28.77 16.67v23.88c0 7.688 5.371 14.39 12.8 15.96c11.42 2.381 21.75 3.201 30.64 3.201c14.09 0 24.58-2.061 30.14-3.229c7.367-1.549 12.74-8.25 12.74-15.94v-23.88c10.35-4.139 19.99-9.713 28.8-16.67l20.67 11.94c2.414 1.396 5.285 2.127 8.203 2.127c4.404 0 8.916-1.668 12.13-5.225c13.58-15.37 23.76-33.08 30.26-52.62C641.6 392.5 638.4 384.4 631.8 380.6zM596.6 441.6l-30.07-17.37l-8.52 6.729c-7.553 5.967-15.9 10.8-24.82 14.37l-10.06 4.023l-.0332 34.99c-4.107 .8633-13.73 2.887-26.84 2.887c-9.045 0-18.25-.9648-27.44-3.166v-34.71l-10.06-4.023c-8.881-3.551-17.22-8.385-24.79-14.37l-8.518-6.727l-30.39 17.55c-12.16-13.76-21.27-29.6-26.81-47.32l29.91-17.3l-1.66-10.81c-1.523-9.914-1.521-18.51 .0098-28.73l1.613-10.78l-30.16-17.49c5.818-17.49 14.93-33.33 27.39-46.92l30.29 17.55l8.529-6.719c7.477-5.893 15.75-10.67 24.59-14.22l10.05-4.025l.0664-35.32c4.111-.8652 13.74-2.893 26.81-2.893c9.037 0 18.26 .9648 27.43 3.197v35.02l10.06 4.02c8.846 3.533 17.12 8.314 24.61 14.21l8.527 6.717l30.59-17.73c12.16 13.76 21.28 29.6 26.82 47.32l-29.87 17.28l1.611 10.77c1.531 10.22 1.533 18.81 .0098 28.73l-1.66 10.81l30.19 17.52C618.2 412.2 609.1 427.1 596.6 441.6zM496 304c-26.51 0-48 21.49-48 48s21.49 48 48 48S544 378.5 544 352S522.5 304 496 304zM496 384c-17.64 0-32-14.36-32-32s14.36-32 32-32s32 14.36 32 32S513.6 384 496 384z"/></svg>