<svg xmlns="http://www.w3.org/2000/svg" viewBox="0 0 448 512"><!--! Font Awesome Pro 6.1.1 by @fontawesome - https://fontawesome.com License - https://fontawesome.com/license (Commercial License) Copyright 2022 Fonticons, Inc. --><path d="M69.93 112.2v26.75c0 3.156 1.847 6 4.726 7.312C118.3 165.7 169.8 176 223.6 176s105.4-10.31 148.1-29.78c2.88-1.312 4.726-4.156 4.726-7.312V112.2l19.63-19.62c6.104-6.094 9.484-14.22 9.484-22.88c0-14.88-10.08-27.78-24.54-31.38l-148.6-37.06c-6.323-1.625-13.08-1.625-19.41 0L65.36 38.28c-14.46 3.594-24.54 16.5-24.54 31.38c0 8.656 3.38 16.78 9.484 22.88L69.93 112.2zM69.24 53.78l148.6-37.06c3.787-.9375 7.794-.9375 11.64 0l148.6 37.06c7.293 1.844 12.39 8.375 12.39 15.88c0 4.375-1.69 8.469-4.789 11.56l-21.97 21.97c-1.502 1.5-2.348 3.531-2.348 5.656v24.81C320.8 150.9 273.3 160 223.6 160S126.5 150.9 85.95 133.7V108.8c0-2.125-.8451-4.156-2.348-5.656L61.63 81.22C58.53 78.13 56.84 74.03 56.84 69.66C56.84 62.16 61.94 55.63 69.24 53.78zM220.1 111.2C221.2 111.7 222.4 112 223.6 112s2.441-.2813 3.568-.8438l64.1-32c3.975-1.969 5.571-6.781 3.6-10.72c-2.003-3.969-6.855-5.469-10.74-3.594L223.6 95.06L163.1 64.84C159.3 62.94 154.4 64.47 152.4 68.44C150.4 72.38 151.1 77.19 155.1 79.16L220.1 111.2zM335.8 192c0 61.75-50.28 112-112.1 112S111.5 253.8 111.5 192c0-4.406-3.6-8-8.013-8C99.04 184 95.44 187.6 95.44 192c0 70.59 57.5 128 128.2 128s128.3-57.41 128.3-128c0-4.406-3.715-8-8.128-8C339.4 184 335.8 187.6 335.8 192zM319.9 352l-96.26 80L128.1 352C57.3 352 0 409.3 0 480c0 17.67 14.32 32 32.03 32h383.9C433.7 512 448 497.7 448 480C448 409.3 390.7 352 319.9 352zM215.6 496H32.05c-8.836 0-16.03-7.178-16.03-16c0-59.86 47.28-108.9 106.5-111.9l90.8 76.11c.6964 .584 1.528 .8672 2.291 1.314V496zM415.9 496h-184.3v-50.43c.7473-.4375 1.563-.7109 2.248-1.281l91.53-76.15c59.25 2.939 106.5 51.99 106.5 111.9C431.1 488.8 424.8 496 415.9 496zM375.9 432h-48.08c-4.425 0-8.013 3.582-8.013 8S323.4 448 327.8 448h48.08c4.425 0 8.013-3.582 8.013-8S380.3 432 375.9 432z"/></svg>