<svg xmlns="http://www.w3.org/2000/svg" viewBox="0 0 640 512"><!--! Font Awesome Pro 6.0.0-beta3 by @fontawesome - https://fontawesome.com License - https://fontawesome.com/license (Commercial License) Copyright 2021 Fonticons, Inc. --><path d="M320 16c70.58 0 128 57.42 128 128c0 35.71-14.77 67.97-38.43 91.21l12.69 10.09c25.78-26.02 41.74-61.78 41.74-101.3c0-79.53-64.47-143.1-143.1-143.1c-51.29 0-96.03 27.02-121.5 67.4L211.2 77.5C233.7 40.78 273.9 16 320 16zM95.1 496C87.18 496 80 488.8 80 480c0-79.4 64.6-144 144-144h80.93l-20.03-15.1l-60.9-.0002c-88.36 0-160 71.63-160 159.1C63.1 497.7 78.33 512 95.1 512h430.3l-20.13-16H95.1zM636.1 497.7L12.99 1.73C11.53 .5664 9.771 0 8.025 0C5.674 0 3.336 1.027 1.738 3.012c-2.75 3.469-2.172 8.5 1.281 11.25l623.1 496C628.5 511.4 630.2 512 631.1 512c2.344 0 4.688-1.031 6.266-3.016C641 505.5 640.4 500.5 636.1 497.7z"/></svg>