<svg xmlns="http://www.w3.org/2000/svg" viewBox="0 0 448 512"><!--! Font Awesome Pro 6.1.1 by @fontawesome - https://fontawesome.com License - https://fontawesome.com/license (Commercial License) Copyright 2022 Fonticons, Inc. --><path d="M200 160C200 182.1 182.1 200 160 200C137.9 200 120 182.1 120 160C120 137.9 137.9 120 160 120C182.1 120 200 137.9 200 160zM160 184C173.3 184 184 173.3 184 160C184 146.7 173.3 136 160 136C146.7 136 136 146.7 136 160C136 173.3 146.7 184 160 184zM248 160C248 137.9 265.9 120 288 120C310.1 120 328 137.9 328 160C328 182.1 310.1 200 288 200C265.9 200 248 182.1 248 160zM288 136C274.7 136 264 146.7 264 160C264 173.3 274.7 184 288 184C301.3 184 312 173.3 312 160C312 146.7 301.3 136 288 136zM240 248H296C300.4 248 304 251.6 304 256C304 260.4 300.4 264 296 264H240C235.6 264 232 260.4 232 256C232 251.6 235.6 248 240 248zM152 264C147.6 264 144 260.4 144 256C144 251.6 147.6 248 152 248H208C212.4 248 216 251.6 216 256C216 260.4 212.4 264 208 264H152zM224 0C228.4 0 232 3.582 232 8V64H312C351.8 64 384 96.24 384 136V248C384 287.8 351.8 320 312 320H136C96.24 320 64 287.8 64 248V136C64 96.24 96.24 64 136 64H216V8C216 3.582 219.6 0 224 0zM136 80C105.1 80 80 105.1 80 136V248H112C116.4 248 120 251.6 120 256C120 260.4 116.4 264 112 264H82.32C89.2 287.1 110.6 304 136 304H312C337.4 304 358.8 287.1 365.7 264H336C331.6 264 328 260.4 328 256C328 251.6 331.6 248 336 248H368V136C368 105.1 342.9 80 312 80H136zM16 136C16 131.6 19.58 128 24 128C28.42 128 32 131.6 32 136V248C32 252.4 28.42 256 24 256C19.58 256 16 252.4 16 248V136zM424 128C428.4 128 432 131.6 432 136V248C432 252.4 428.4 256 424 256C419.6 256 416 252.4 416 248V136C416 131.6 419.6 128 424 128zM48 512C21.49 512 0 490.5 0 464V448C0 394.1 42.98 352 96 352H352C405 352 448 394.1 448 448V464C448 490.5 426.5 512 400 512H48zM16 464C16 481.7 30.33 496 48 496H96V448C96 430.3 110.3 416 128 416H320C337.7 416 352 430.3 352 448V496H400C417.7 496 432 481.7 432 464V448C432 403.8 396.2 368 352 368H96C51.82 368 16 403.8 16 448V464zM112 496H152V432H128C119.2 432 112 439.2 112 448V496zM168 432V496H216V432H168zM232 432V496H280V432H232zM296 432V496H336V448C336 439.2 328.8 432 320 432H296z"/></svg>