<svg xmlns="http://www.w3.org/2000/svg" viewBox="0 0 512 512"><!--! Font Awesome Pro 6.1.1 by @fontawesome - https://fontawesome.com License - https://fontawesome.com/license (Commercial License) Copyright 2022 Fonticons, Inc. --><path d="M359.6 313.9c-15.86-5.094-33.36 .2187-43.42 12.97l-61.09 77.44l-59.28-77.44C185.8 314.1 168.3 308.9 152.4 313.9c-72.62 22.75-120.1 86.94-120.4 159.8C32.19 494.8 50.79 512 73.43 512h365.1c22.64 0 41.23-17.22 41.42-38.38C480.6 400.8 432.2 336.6 359.6 313.9zM73.43 496c-13.67 0-25.31-10.31-25.42-22.5c-.5625-65.72 43.3-123.8 109.2-144.4c15.12-4.594 24.38 5.496 26.01 7.562L305.2 496H73.43zM438.6 496h-113.2l-60.2-78.63l63.62-80.59c5.1-7.594 16.47-10.56 26.08-7.656c65.86 20.62 109.7 78.66 109.2 144.4C463.9 485.7 452.2 496 438.6 496zM65.6 180.8C67.18 182.9 69.58 184 72 184c1.672 0 3.359-.5313 4.797-1.594l52.7-39.53C136.1 206.5 190.4 256 256 256c70.69 0 127.1-57.31 127.1-128c0-70.69-57.31-128-127.1-128c-65.59 0-119 49.53-126.5 113.1L76.8 73.59C73.3 71.03 68.27 71.66 65.6 75.19c-2.641 3.562-1.922 8.562 1.609 11.22L122.7 128L67.21 169.6C63.68 172.3 62.96 177.3 65.6 180.8zM256 16c59.02 0 107 46.03 111.2 104h-23.19c0-22.06-17.94-40-39.1-40H208c-22.06 0-39.1 17.94-39.1 40H144.8C148.1 62.03 196.1 16 256 16zM327.1 120H184c0-13.22 10.76-23.1 23.1-23.1h95.1C317.2 96 327.1 106.8 327.1 120zM367.2 136C363 193.1 315 240 256 240c-59.01 0-107-46.03-111.2-104H367.2z"/></svg>