<svg xmlns="http://www.w3.org/2000/svg" viewBox="0 0 448 512"><!--! Font Awesome Pro 6.0.0-beta3 by @fontawesome - https://fontawesome.com License - https://fontawesome.com/license (Commercial License) Copyright 2021 Fonticons, Inc. --><path d="M272.8 304H175.2C78.56 304 0 379.4 0 472C0 494.1 18.59 512 41.44 512h365.1C429.4 512 448 494.1 448 472C448 379.4 369.4 304 272.8 304zM406.6 496H41.44C27.41 496 16 485.2 16 472C16 388.2 87.41 320 175.2 320h97.69C360.6 320 432 388.2 432 472C432 485.2 420.6 496 406.6 496zM318.9 360c-3.5 0-6.875 1.562-9.188 4.281c-20.94 24.22-33.59 55.81-37.66 94.06c-.4062 4.688 2.062 9.344 6.406 11.69c4.219 2.094 9 1.688 12.97-1.219c17.72-13.78 26.72-19.47 31.44-22c2.906 3.344 7.719 9.375 15.5 20.38C340.6 470.2 344.2 472 348 472l3.938-.5938C356.8 469.7 360 465.1 360 459.6c-1.188-36.88-11.81-68.72-31.62-94.66C326.5 362.2 323.3 360.4 318.9 360zM330.2 431.4l-2.281-2.031l-6.75 .7187c-5.844 1.812-16.38 8.5-31.97 20.28c4.312-28.53 14.19-52.59 29.38-71.75c13.59 19.25 21.81 42.09 24.53 67.91C337.5 439.1 333.2 434 330.2 431.4zM101.5 162.9C116.8 216.5 165.5 256 224 256c58.5 0 107.2-39.51 122.5-93.11C359.1 156.2 368 143.3 368 128V96c0-21.7-17.41-39.21-38.97-39.79C306 22.5 267.9 0 224 0C180.1 0 141.1 22.5 118.1 56.21C97.41 56.79 80 74.3 80 96v32C80 143.3 88.91 156.2 101.5 162.9zM224 240c-47.53 0-87.48-30.11-103.7-72h207.3C311.5 209.9 271.5 240 224 240zM224 16c34.09 0 64.02 15.88 84.55 40H139.4C159.1 31.88 189.9 16 224 16zM96 96c0-13.22 10.78-24 24-24h208C341.2 72 352 82.78 352 96v32c0 13.22-10.78 24-24 24h-208C106.8 152 96 141.2 96 128V96zM128 120h192c4.406 0 8-3.594 8-8S324.4 104 320 104H128c-4.406 0-8 3.594-8 8S123.6 120 128 120z"/></svg>