<svg xmlns="http://www.w3.org/2000/svg" viewBox="0 0 448 512"><!--! Font Awesome Pro 6.0.0-beta3 by @fontawesome - https://fontawesome.com License - https://fontawesome.com/license (Commercial License) Copyright 2021 Fonticons, Inc. --><path d="M384 128h32c17.67 0 32-14.33 32-32V64c0-17.67-14.33-32-32-32h-32c-17.67 0-32 14.33-32 32v8H96V64c0-17.67-14.33-32-32-32H32C14.33 32 0 46.33 0 64v32c0 17.67 14.33 32 32 32h8v256H32c-17.67 0-32 14.33-32 32v32c0 17.67 14.33 32 32 32h32c17.67 0 32-14.33 32-32v-8h256V448c0 17.67 14.33 32 32 32h32c17.67 0 32-14.33 32-32v-32c0-17.67-14.33-32-32-32h-32c-1.594 0-2.961 .6816-4.492 .9062l-56.07-88.13C330.9 290.9 336 282.2 336 272v-32c0-10.22-5.104-18.92-12.57-24.78l56.07-88.13C381 127.3 382.4 128 384 128zM368 64c0-8.822 7.178-16 16-16h32c8.822 0 16 7.178 16 16v32c0 8.822-7.178 16-16 16h-32c-8.822 0-16-7.178-16-16V64zM32 112C23.18 112 16 104.8 16 96V64c0-8.822 7.178-16 16-16h32c8.822 0 16 7.178 16 16v32c0 8.822-7.178 16-16 16H32zM80 448c0 8.822-7.178 16-16 16H32c-8.822 0-16-7.178-16-16v-32c0-8.822 7.178-16 16-16h32c8.822 0 16 7.178 16 16V448zM416 400c8.822 0 16 7.178 16 16v32c0 8.822-7.178 16-16 16h-32c-8.822 0-16-7.178-16-16v-32c0-8.822 7.178-16 16-16H416zM320 240v32C320 280.8 312.8 288 304 288h-32C263.2 288 256 280.8 256 272v-32C256 231.2 263.2 224 272 224h32C312.8 224 320 231.2 320 240zM308.5 208.9C306.1 208.7 305.6 208 304 208h-32c-17.67 0-32 14.33-32 32v32c0 17.67 14.33 32 32 32h32c1.592 0 2.959-.6816 4.488-.9062l56.08 88.12C357.1 397.1 352 405.8 352 416v8H96V416c0-17.67-14.33-32-32-32H56V128H64c17.67 0 32-14.33 32-32V88h256V96c0 10.23 5.105 18.93 12.57 24.78L308.5 208.9z"/></svg>