<svg xmlns="http://www.w3.org/2000/svg" viewBox="0 0 640 512"><!--! Font Awesome Pro 6.1.1 by @fontawesome - https://fontawesome.com License - https://fontawesome.com/license (Commercial License) Copyright 2022 Fonticons, Inc. --><path d="M264 408h-80v-56.4C277.5 347.4 352 270.5 352 176c0-97.2-78.8-176-176-176s-176 78.8-176 176c0 94.5 74.54 171.4 168 175.6V408h-80c-4.406 0-8 3.594-8 8s3.594 8 8 8h80v80C168 508.4 171.6 512 176 512s8-3.594 8-8v-80h80c4.406 0 8-3.594 8-8S268.4 408 264 408zM176 336c-88.22 0-160-71.78-160-160s71.78-160 160-160s160 71.78 160 160S264.2 336 176 336zM632 0h-144C483.6 0 480 3.578 480 8s3.578 8 8 8h124.7l-94.23 94.23c-31.31-28.61-72.89-46.2-118.5-46.2c-5.656 0-11.18 .2195-16.68 .7508c-4.406 .4375-7.625 4.344-7.219 8.719c.4375 4.406 4.312 7.781 8.719 7.219C389.8 80.25 394.8 80 400 80c88.22 0 160 71.78 160 160s-71.78 160-160 160c-39.44 0-77.31-14.47-106.7-40.75c-3.25-2.875-8.312-2.625-11.31 .625c-2.938 3.312-2.656 8.344 .625 11.31C314.1 400.1 356.6 416 400 416C497 416 576 337 576 240c0-45.64-17.62-87.15-46.23-118.5L624 27.31V152C624 156.4 627.6 160 632 160S640 156.4 640 152v-144C640 3.578 636.4 0 632 0z"/></svg>