<svg xmlns="http://www.w3.org/2000/svg" viewBox="0 0 512 512"><!--! Font Awesome Pro 6.1.1 by @fontawesome - https://fontawesome.com License - https://fontawesome.com/license (Commercial License) Copyright 2022 Fonticons, Inc. --><path d="M216 32h-208C3.594 32 0 35.59 0 40S3.594 48 8 48h208C220.4 48 224 44.41 224 40S220.4 32 216 32zM184 80C179.6 80 176 83.59 176 88v160h-128v-160c0-4.406-3.594-8-8-8S32 83.59 32 88v312C32 444.1 67.88 480 112 480S192 444.1 192 400V88C192 83.59 188.4 80 184 80zM176 400c0 35.28-28.72 64-64 64s-64-28.72-64-64V264h128V400zM504 32h-208C291.6 32 288 35.59 288 40s3.594 8 8 8h208C508.4 48 512 44.41 512 40S508.4 32 504 32zM472 80c-4.406 0-8 3.594-8 8v160h-128v-160c0-4.406-3.594-8-8-8S320 83.59 320 88v312c0 44.13 35.88 80 80 80s80-35.88 80-80V88C480 83.59 476.4 80 472 80zM464 400c0 35.28-28.72 64-64 64s-64-28.72-64-64V264h128V400z"/></svg>