<svg xmlns="http://www.w3.org/2000/svg" viewBox="0 0 512 512"><!--! Font Awesome Pro 6.0.0-beta3 by @fontawesome - https://fontawesome.com License - https://fontawesome.com/license (Commercial License) Copyright 2021 Fonticons, Inc. --><path d="M439 197.3L380.2 256H130.7l183.7-183.4c3.125-3.125 3.125-8.188 0-11.31c-3.094-3.094-8.156-3.156-11.31 0l-269.9 269.6c-40.34 40.34-44.37 104-9.156 144.9C43.78 498.8 72.53 512 103.2 512c27.87 0 54.03-10.81 73.68-30.47l273.4-272.9c3.125-3.125 3.125-8.188 0-11.31C447.3 194.2 442.2 194.2 439 197.3zM165.6 470.2C148.1 486.8 126.8 496 102.8 496c-25.59 0-49.9-11.19-66.68-30.72c-29.78-34.59-26.12-88.66 8.343-123.1L114.7 272h249.5L165.6 470.2zM509.7 178.3l-175.1-176c-3.125-3.125-8.187-3.125-11.31 0s-3.125 8.188 0 11.31l175.1 176C499.9 191.2 501.9 192 504 192c2.062 0 4.093-.7813 5.656-2.344C512.8 186.5 512.8 181.5 509.7 178.3z"/></svg>