<svg xmlns="http://www.w3.org/2000/svg" viewBox="0 0 576 512"><!--! Font Awesome Pro 6.0.0-beta3 by @fontawesome - https://fontawesome.com License - https://fontawesome.com/license (Commercial License) Copyright 2021 Fonticons, Inc. --><path d="M274.3 162.3L112 324.7V216c0-4.422-3.578-7.99-8-7.99S96 211.6 96 216v128C96 348.4 99.58 352 104 352h128c4.422 0 8-3.566 8-7.988S236.4 336 232 336H123.3l162.3-162.3c3.125-3.125 3.125-8.188 0-11.31S277.5 159.2 274.3 162.3zM336 64h-288C21.49 64 0 85.49 0 112v288C0 426.5 21.49 448 48 448h288c26.51 0 48-21.49 48-48v-288C384 85.49 362.5 64 336 64zM368 400c0 17.64-14.36 32-32 32h-288c-17.64 0-32-14.36-32-32v-288c0-17.64 14.36-32 32-32h288c17.64 0 32 14.36 32 32V400zM555.7 100.5c-12.75-6.734-28.16-5.859-39.97 2.25l-96.13 63.81c-3.656 2.453-4.656 7.422-2.219 11.09c2.438 3.703 7.406 4.641 11.09 2.25L524.7 116c7.125-4.859 15.88-5.391 23.56-1.359C555.6 118.5 560 125.7 560 133.9v244.1c0 8.203-4.406 15.42-11.78 19.3c-7.625 4.047-16.5 3.5-23.69-1.453l-96.13-63.73c-3.625-2.406-8.625-1.453-11.06 2.25c-2.438 3.688-1.438 8.641 2.25 11.09l96 63.66c6.594 4.531 14.25 6.844 21.97 6.844c6.188 0 12.41-1.5 18.09-4.5C568.4 404.8 576 392.2 576 377.1V133.9C576 119.7 568.4 107.2 555.7 100.5z"/></svg>