<svg xmlns="http://www.w3.org/2000/svg" viewBox="0 0 640 512"><!--! Font Awesome Pro 6.1.1 by @fontawesome - https://fontawesome.com License - https://fontawesome.com/license (Commercial License) Copyright 2022 Fonticons, Inc. --><path d="M463.1 96.01c8.834 0 16-7.168 16-16C479.1 71.17 472.8 64 463.1 64c-8.836 0-16 7.17-16 16C447.1 88.84 455.1 96.01 463.1 96.01zM527.1 32c8.836 0 16-7.168 16-16c0-8.834-7.166-16-16-16c-8.834 0-16 7.166-16 16C511.1 24.83 519.2 32 527.1 32zM249.1 404.2l-13.22-13.25c-7.938-7.938-20.47-9.219-29.83-2.969L138.4 433c-6.016 4.125-9.781 10.5-10.3 17.28C127.4 457.5 129.9 464.5 134.1 469.4l35.53 35.56C174.9 509.5 180.9 512 187.1 512c.8125 0 1.641-.0313 2.453-.125c6.969-.5625 13.33-4.312 17.53-10.38l44.95-67.5C258.3 424.7 257 412.1 249.1 404.2zM238.7 425.1L193.8 492.5c-1.391 2-3.422 3.25-5.797 3.438c-2.281 .1875-4.469-.5313-6.109-2.219l-35.75-35.75c-1.594-1.562-2.359-3.719-2.109-6.219c.1719-2.156 1.422-4.188 3.328-5.5l67.5-44.97C216.2 400.4 217.7 400 219.1 400c1.969 0 3.891 .75 5.391 2.25l13.23 13.25C240.4 418.1 240.8 422.1 238.7 425.1zM624 96.01c-8.832 0-15.1 7.164-15.1 15.1C608 120.8 615.2 128 624 128S640 120.8 640 112C640 103.2 632.8 96.01 624 96.01zM491.3 252.8c-6.93-22.23-18.75-42.12-33.92-58.89l180.2-180.2c3.125-3.125 3.125-8.188 0-11.31s-8.188-3.125-11.31 0l-180.2 180.2c-16.76-15.13-36.62-26.92-58.82-33.83c-2.047-.6562-3.781-1.125-5.125-1.438C345.4 138.6 310.3 147 286 170.3c-2.25 2.188-3.031 5.469-2 8.406C286.4 185.7 287.7 193 287.8 200.4c.1094 26.41-14.27 50.63-37.52 63.28C227 276.4 198.8 275.3 176.8 260.9C173.1 259.1 170.3 259.2 167.6 261.2c-2.703 2-5.266 4.156-8.125 6.75c-32.14 32-40.33 83.03-21.38 133.2c1.578 4.125 6.156 6.25 10.31 4.625c4.141-1.562 6.219-6.156 4.656-10.31c-16.69-44.16-9.906-88.66 17.38-115.9c.8594-.7813 1.703-1.5 2.562-2.25c26.17 14.69 58.19 14.97 84.94 .4375c28.42-15.47 46-45.13 45.86-77.5c-.1094-7.406-1.156-14.69-3.094-21.66c20.06-17 48.09-22.69 77.8-15.75c1.062 .25 2.422 .6562 4 1.125c19.69 6.145 37.32 16.56 52.26 29.89l-88.45 88.45c-3.125 3.125-3.125 8.188 0 11.31C347.9 295.2 349.1 296 352 296s4.094-.7813 5.656-2.344l88.46-88.46c13.38 14.96 23.81 32.61 29.95 52.33c.4844 1.594 .8594 2.906 1.109 4c6.875 29.53 1.125 57.5-15.8 77.59c-33.89-9-70.36 3.188-91.92 31.28c-21.36 28-23.72 66.06-6.5 96.38c-.7187 .875-1.438 1.688-2.172 2.469c-27.62 27.59-72.08 34.44-116.1 17.69c-4.094-1.625-8.75 .5-10.33 4.625c-1.562 4.125 .5156 8.75 4.641 10.31c17.81 6.781 35.73 10.09 52.92 10.09c31 0 59.53-10.81 80.33-31.59c2.438-2.594 4.609-5.312 6.766-8.156c2.062-2.688 2.188-6.406 .3125-9.25c-16.73-25.38-15.61-58.69 2.797-82.84c18.48-24.09 50.31-33.88 79.28-24.31c2.938 .9687 6.156 .1562 8.297-2.062c23.17-24.22 31.56-59.16 23.03-95.84C492.5 256.6 491.1 254.8 491.3 252.8zM559.1 160c-8.834 0-16 7.168-16 16.01c0 8.834 7.17 16.01 16 16.01C568.8 192 576 184.8 576 176C576 167.2 568.8 160 559.1 160zM349.7 2.344c-3.125-3.125-8.188-3.125-11.31 0l-336 336c-3.125 3.125-3.125 8.188 0 11.31C3.906 351.2 5.953 352 8 352s4.094-.7813 5.656-2.344l336-336C352.8 10.53 352.8 5.469 349.7 2.344z"/></svg>