<svg xmlns="http://www.w3.org/2000/svg" viewBox="0 0 640 512"><!--! Font Awesome Pro 6.0.0-beta3 by @fontawesome - https://fontawesome.com License - https://fontawesome.com/license (Commercial License) Copyright 2021 Fonticons, Inc. --><path d="M143.1 160c-44.18 0-80 35.82-80 80s35.82 79.1 80 79.1c44.18 0 80-35.82 80-79.1S188.2 160 143.1 160zM144 304c-35.29 0-64-28.71-64-64s28.71-64 64-64c35.29 0 64 28.71 64 64S179.3 304 144 304zM495.1 96C416.6 96 352 160.6 352 240c0 56.07 32.53 104.2 79.41 128H208.6C255.5 344.2 288 296.1 288 240C288 160.6 223.4 96 144 96S0 160.6 0 240s64.59 144 143.1 144h352C575.4 384 640 319.4 640 240S575.4 96 495.1 96zM16 240c0-70.59 57.42-128 128-128s128 57.41 128 128s-57.42 128-128 128S16 310.6 16 240zM496 368c-70.58 0-128-57.41-128-128s57.42-128 128-128s128 57.41 128 128S566.6 368 496 368zM495.1 160c-44.18 0-80 35.82-80 80s35.82 79.1 80 79.1c44.18 0 80-35.82 80-79.1S540.2 160 495.1 160zM496 304c-35.29 0-64-28.71-64-64s28.71-64 64-64c35.29 0 64 28.71 64 64S531.3 304 496 304z"/></svg>