<svg xmlns="http://www.w3.org/2000/svg" viewBox="0 0 640 512"><!--! Font Awesome Pro 6.1.1 by @fontawesome - https://fontawesome.com License - https://fontawesome.com/license (Commercial License) Copyright 2022 Fonticons, Inc. --><path d="M301.2 34.98c-4.289-1.969-8.623-2.902-13.16-2.902c-7.496 0-14.92 2.551-20.82 7.634L164.2 159.1H32c-17.67 0-32 14.33-32 32v128c0 17.67 14.33 32 32 32h132.2l102.1 120.3C273.1 477.4 280.5 479.8 288 479.8c4.531 0 8.881-.8666 13.16-2.835C312.5 471.8 320 460.4 320 447.9V64.12C320 51.62 312.5 40.2 301.2 34.98zM304 447.1c0 6.223-3.656 11.92-9.309 14.53C292.6 463.5 290.3 463.1 288 463.1c-3.477 0-6.844-1.133-9.582-3.207l-106.9-124.8H32c-8.824 0-16-7.178-16-16v-128c0-8.822 7.176-16 16-16h139.6l106.8-124.8c2.742-2.072 6.102-3.203 9.57-3.203c2.324 0 4.586 .4961 6.703 1.467C300.3 52.07 304 57.77 304 63.99V447.1zM540.2 45.53c-3.375-2.781-8.438-2.313-11.25 1.125c-2.812 3.406-2.312 8.438 1.125 11.25C589.8 106.8 624 178.1 624 255.1s-34.22 149.2-93.91 198.1c-3.438 2.813-3.938 7.844-1.125 11.25c1.594 1.938 3.875 2.938 6.188 2.938c1.781 0 3.594-.5938 5.062-1.813C603.6 414.5 640 337.8 640 255.1S603.6 97.46 540.2 45.53zM478.1 120.4c-3.344-2.781-8.438-2.313-11.25 1.125c-2.812 3.406-2.312 8.438 1.125 11.25C506.4 163.6 528 208.5 528 255.1s-21.56 92.44-59.16 123.3c-3.438 2.813-3.938 7.844-1.125 11.25c1.594 1.938 3.875 2.938 6.188 2.938c1.781 0 3.594-.5938 5.062-1.813C520.3 357.7 544 308.3 544 255.1S520.3 154.2 478.1 120.4zM407.2 195.5c-2.812 3.406-2.312 8.469 1.125 11.25C423.4 219 432 236.1 432 255.1s-8.625 36.97-23.69 49.28c-3.438 2.781-3.938 7.844-1.125 11.25c1.562 1.938 3.875 2.938 6.188 2.938c1.781 0 3.594-.5938 5.062-1.813C437.2 302.3 448 279.8 448 255.1s-10.78-46.31-29.56-61.65C415 191.6 409.9 192 407.2 195.5z"/></svg>