<svg xmlns="http://www.w3.org/2000/svg" viewBox="0 0 576 512"><!--! Font Awesome Pro 6.0.0-beta3 by @fontawesome - https://fontawesome.com License - https://fontawesome.com/license (Commercial License) Copyright 2021 Fonticons, Inc. --><path d="M301.2 34.85c-4.289-1.969-8.639-2.848-13.17-2.848c-7.496 0-14.92 2.632-20.82 7.714L164.2 159.1H32c-17.67 0-32 14.33-32 32v128c0 17.67 14.33 32 32 32h132.2l102.1 120.3c5.906 5.094 13.32 7.719 20.82 7.719c4.529 0 8.894-.875 13.17-2.844c11.34-5.219 18.82-16.66 18.82-29.16V64C319.1 51.5 312.5 40.07 301.2 34.85zM303.1 448c0 6.223-3.656 11.92-9.309 14.53C292.6 463.5 290.3 464 287.1 464c-3.477 0-6.844-1.133-9.582-3.207L171.6 335.1H32c-8.824 0-16-7.178-16-16v-128c0-8.822 7.176-16 16-16h139.6l106.8-124.8C281.2 49.13 284.5 48 287.1 48c2.322 0 4.584 .4961 6.701 1.467c5.656 2.602 9.312 8.305 9.312 14.53V448zM491.3 255.1l66.34-66.34c3.125-3.125 3.125-8.188 0-11.31s-8.188-3.125-11.31 0L480 244.7l-66.34-66.34c-3.125-3.125-8.188-3.125-11.31 0s-3.125 8.188 0 11.31l66.34 66.34l-66.34 66.34c-3.125 3.125-3.125 8.188 0 11.31c3.127 3.127 8.186 3.127 11.31 0L480 267.3l66.34 66.34c3.127 3.127 8.186 3.127 11.31 0c3.125-3.125 3.125-8.188 0-11.31L491.3 255.1z"/></svg>