<svg xmlns="http://www.w3.org/2000/svg" viewBox="0 0 448 512"><!--! Font Awesome Pro 6.0.0-beta3 by @fontawesome - https://fontawesome.com License - https://fontawesome.com/license (Commercial License) Copyright 2021 Fonticons, Inc. --><path d="M301.2 34.84c-4.289-1.969-8.623-2.842-13.16-2.842c-7.496 0-14.92 2.632-20.82 7.714L164.2 159.1H32c-17.67 0-32 14.33-32 32v128c0 17.67 14.33 32 32 32h132.2l102.1 120.3C273.1 477.4 280.5 480 288 480c4.531 0 8.881-.8687 13.16-2.837C312.5 471.9 320 460.5 320 448V64C320 51.5 312.5 40.06 301.2 34.84zM304 447.1c0 6.223-3.656 11.92-9.309 14.53C292.6 463.5 290.3 463.1 288 463.1c-3.477 0-6.844-1.133-9.582-3.207l-106.9-124.8H32c-8.824 0-16-7.178-16-16v-128c0-8.822 7.176-16 16-16h139.6l106.8-124.8c2.742-2.072 6.102-3.203 9.57-3.203c2.324 0 4.586 .4961 6.703 1.467C300.3 52.07 304 57.77 304 63.99V447.1zM407.2 195.5c-2.812 3.406-2.312 8.469 1.125 11.25C423.4 219 432 236.1 432 255.1s-8.625 36.97-23.69 49.28c-3.438 2.781-3.938 7.844-1.125 11.25c1.562 1.938 3.875 2.938 6.188 2.938c1.781 0 3.594-.5938 5.062-1.813C437.2 302.3 448 279.8 448 256s-10.78-46.32-29.56-61.66C415 191.6 409.9 192 407.2 195.5z"/></svg>