<svg xmlns="http://www.w3.org/2000/svg" viewBox="0 0 512 512"><!--! Font Awesome Pro 6.0.0-beta3 by @fontawesome - https://fontawesome.com License - https://fontawesome.com/license (Commercial License) Copyright 2021 Fonticons, Inc. --><path d="M500.6 39l-27.56-27.58C465.4 3.809 455.4 0 445.4 0c-9.982 0-19.96 3.807-27.58 11.42L11.42 417.8c-15.23 15.23-15.23 39.92-.002 55.15l27.57 27.58C46.61 508.2 56.59 512 66.57 512c9.982 0 19.96-3.807 27.58-11.42L500.6 94.15C515.8 78.92 515.8 54.23 500.6 39zM82.83 489.3C78.49 493.6 72.71 496 66.57 496s-11.92-2.393-16.26-6.738l-27.57-27.58c-8.967-8.969-8.967-23.56 .002-32.53l261.6-261.5l60.1 60.1L82.83 489.3zM489.3 82.84l-133.6 133.6l-60.1-60.1l133.6-133.6C433.5 18.39 439.3 16 445.4 16c6.145 0 11.92 2.393 16.26 6.734l27.57 27.58C498.2 59.28 498.2 73.87 489.3 82.84z"/></svg>