<svg xmlns="http://www.w3.org/2000/svg" viewBox="0 0 640 512"><!--! Font Awesome Pro 6.1.1 by @fontawesome - https://fontawesome.com License - https://fontawesome.com/license (Commercial License) Copyright 2022 Fonticons, Inc. --><path d="M329.1 20.38C323.3 17.99 316.7 17.99 310.9 20.38L40.82 131.2C25.8 137.3 16 151.1 16 168.2V503.1C16 508.4 12.42 511.1 8 511.1C3.582 511.1 0 508.4 0 503.1V168.2C0 145.5 13.73 125 34.74 116.4L304.8 5.579C314.5 1.588 325.5 1.588 335.2 5.579L605.3 116.4C626.3 125 640 145.5 640 168.2V503.1C640 508.4 636.4 511.1 632 511.1C627.6 511.1 624 508.4 624 503.1V168.2C624 151.1 614.2 137.3 599.2 131.2L329.1 20.38zM536 511.1L103.1 512C99.58 512 95.1 508.4 95.1 503.1V215.1C95.1 202.7 106.7 191.1 119.1 191.1H520C533.3 191.1 544 202.7 544 215.1V503.1C544 508.4 540.4 511.1 536 511.1V511.1zM119.1 207.1C115.6 207.1 111.1 211.6 111.1 215.1V288H528V215.1C528 211.6 524.4 207.1 520 207.1H119.1zM111.1 304V400H528V304H111.1zM528 496V416H111.1V496H528z"/></svg>