<svg xmlns="http://www.w3.org/2000/svg" viewBox="0 0 384 512"><!--! Font Awesome Pro 6.1.1 by @fontawesome - https://fontawesome.com License - https://fontawesome.com/license (Commercial License) Copyright 2022 Fonticons, Inc. --><path d="M200 252L260.8 297.6C264.3 300.3 265 305.3 262.4 308.8C259.8 312.3 254.7 313.1 251.2 310.4L187.2 262.4C185.2 260.9 184 258.5 184 256V160C184 155.6 187.6 152 192 152C196.4 152 200 155.6 200 160V252zM64 56C64 25.07 89.07 0 120 0H264C294.9 0 320 25.07 320 56V112H318.1C358.9 147.2 384 198.7 384 256C384 312.9 359.3 363.1 320 399.1V456C320 486.9 294.9 512 264 512H120C89.07 512 64 486.9 64 456V399.1C24.72 363.1 0 312.9 0 256C0 198.7 25.14 147.2 65 112H64V56zM120 16C97.91 16 80 33.91 80 56V100C111.5 77.36 150.2 64 192 64C233.8 64 272.5 77.36 304 100V56C304 33.91 286.1 16 264 16H120zM304 411.1C272.5 434.6 233.8 448 192 448C150.2 448 111.5 434.6 80 411.1V456C80 478.1 97.91 496 120 496H264C286.1 496 304 478.1 304 456V411.1zM192 80C94.8 80 16 158.8 16 256C16 353.2 94.8 432 192 432C289.2 432 368 353.2 368 256C368 158.8 289.2 80 192 80z"/></svg>