<svg xmlns="http://www.w3.org/2000/svg" viewBox="0 0 576 512"><!--! Font Awesome Pro 6.1.1 by @fontawesome - https://fontawesome.com License - https://fontawesome.com/license (Commercial License) Copyright 2022 Fonticons, Inc. --><path d="M8.587 127.7C39.81 125.4 69.87 110.2 96.03 83.66C124.9 112.7 158 128 192.2 128h.375c34.13-.1094 66.97-15.4 95.44-44.32C316.9 112.7 350 128 384.2 128h.375c34.13-.1094 66.97-15.4 95.44-44.32c26.28 26.39 56.31 41.55 87.35 43.96c5.156 .6406 8.25-2.984 8.594-7.375c.3438-4.422-2.938-8.293-7.344-8.625c-29.28-2.289-57.88-17.86-82.72-45.04C484.4 64.94 482.3 64 480 64s-4.406 .957-5.938 2.633c-26.66 29.53-57.63 45.2-89.5 45.31l-.4916-.0169c-31.94 0-63.04-15.67-90.17-45.32C292.4 64.94 290.2 64 287.1 64C285.7 64 283.6 64.96 282.1 66.63C255.4 96.16 224.4 111.8 192.6 111.9L192.1 111.9c-31.94 0-63.05-15.67-90.17-45.32C100.4 64.94 98.25 64 95.1 64C93.75 64 91.59 64.96 90.06 66.63C65.4 93.92 36.81 109.5 7.4 111.7c-4.406 .332-7.719 4.188-7.375 8.609C.3683 124.7 3.368 127.8 8.587 127.7zM568.6 271.6c-29.28-2.289-57.88-17.86-82.72-45.04C484.4 224.9 482.3 224 480 224s-4.406 .957-5.938 2.633c-26.66 29.53-57.63 45.2-89.5 45.31h-.3438c-31.94 0-63.19-15.68-90.31-45.34C292.4 224.9 290.2 224 287.1 224C285.7 224 283.6 224.1 282.1 226.6C255.4 256.2 224.4 271.8 192.6 271.9H192.2c-31.94 0-63.19-15.68-90.31-45.34C100.4 224.9 98.25 224 95.1 224S91.59 224.1 90.06 226.6C65.4 253.9 36.81 269.5 7.4 271.7c-4.406 .332-7.719 4.188-7.375 8.609c.3438 4.41 3.344 7.547 8.563 7.422C39.81 285.4 69.87 270.2 96.03 243.7C124.9 272.7 158 288 192.2 288h.375c34.13-.1094 66.97-15.4 95.44-44.32C316.9 272.7 350 288 384.2 288h.375c34.13-.1094 66.97-15.4 95.44-44.32c26.28 26.39 56.31 41.55 87.35 43.96c5.156 .6406 8.25-2.984 8.594-7.375C576.3 275.8 573 271.1 568.6 271.6zM568.6 431.6c-29.28-2.289-57.88-17.86-82.72-45.04C484.4 384.9 482.3 384 480 384s-4.406 .957-5.938 2.633c-26.66 29.53-57.63 45.2-89.5 45.31h-.3438c-31.94 0-63.19-15.68-90.31-45.34C292.4 384.9 290.2 384 287.1 384c-2.25 0-4.406 .957-5.938 2.633c-26.66 29.53-57.63 45.2-89.5 45.31H192.2c-31.94 0-63.19-15.68-90.31-45.34C100.4 384.9 98.25 384 95.1 384S91.59 384.1 90.06 386.6c-24.66 27.29-53.25 42.88-82.66 45.04c-4.406 .332-7.719 4.188-7.375 8.609c.3438 4.41 3.344 7.547 8.563 7.422c31.22-2.32 61.28-17.49 87.44-44.04c28.91 29.05 61.83 44.34 96.02 44.34L192.6 448c34.13-.1094 66.97-15.4 95.44-44.32C316.9 432.7 349.9 448 384.1 448h.5363c34.13-.1094 66.97-15.4 95.44-44.32c26.28 26.39 56.31 41.55 87.35 43.96c5.156 .6406 8.25-2.984 8.594-7.375C576.3 435.8 573 431.1 568.6 431.6z"/></svg>