<svg xmlns="http://www.w3.org/2000/svg" viewBox="0 0 640 512"><!--! Font Awesome Pro 6.1.1 by @fontawesome - https://fontawesome.com License - https://fontawesome.com/license (Commercial License) Copyright 2022 Fonticons, Inc. --><path d="M615.7 271.6C610 290.4 557.9 456 463.4 456c-81.75 0-118.5-104.8-151-197.3C281.8 171.2 246.1 72 176.6 72c-67.34 0-117.8 108.8-136.9 173C38.41 249.2 33.94 251.8 29.72 250.4C25.47 249.1 23.06 244.7 24.34 240.4C29.97 221.6 82.06 56 176.6 56c81.75 0 118.5 104.8 151 197.3C358.3 340.8 393 440 463.4 440c67.34 0 117.8-108.8 136.9-173c1.25-4.219 5.812-6.781 9.938-5.375C614.5 262.9 616.9 267.3 615.7 271.6z"/></svg>