<svg xmlns="http://www.w3.org/2000/svg" viewBox="0 0 512 512"><!--! Font Awesome Pro 6.0.0-beta3 by @fontawesome - https://fontawesome.com License - https://fontawesome.com/license (Commercial License) Copyright 2021 Fonticons, Inc. --><path d="M509.4 430.1l-78.42-267.5C424.1 142.1 406.1 128 384.7 128h-65.03c10.13-13.4 16.38-29.9 16.38-48C336 35.82 300.2 0 256 0S175.1 35.82 175.1 80c0 18.1 6.254 34.6 16.38 48H127.3C105.9 128 87.04 142.1 81.04 162.6L2.613 430.1C-9.395 471 21.48 512 64.37 512h383.3C490.5 512 521.4 471 509.4 430.1zM192 80c0-35.29 28.71-64 64-64s64 28.71 64 64c0 19.21-8.68 36.26-22.12 48H214.1C200.7 116.3 192 99.21 192 80zM486.4 476.6C477.2 488.9 463.1 496 447.6 496H64.37c-15.43 0-29.56-7.055-38.78-19.35c-9.113-12.17-11.89-27.5-7.623-42.06L96.39 167.1C100.4 153.5 113.1 144 127.3 144h257.3c14.25 0 26.98 9.482 30.96 23.06l78.42 267.5C498.3 449.1 495.5 464.5 486.4 476.6z"/></svg>