<svg xmlns="http://www.w3.org/2000/svg" viewBox="0 0 640 512"><!--! Font Awesome Pro 6.1.1 by @fontawesome - https://fontawesome.com License - https://fontawesome.com/license (Commercial License) Copyright 2022 Fonticons, Inc. --><path d="M480 128c-91.09 0-176.7 35.47-241.1 99.87l-85.66 82.69c-6.312 6.094-14.62 9.437-23.41 9.437C111.2 320 96 304.8 96 286.2c0-31.56 12.28-61.21 34.58-83.52l9.811-9.811l56.75 13.61c2.092 .4258 4.203 .6334 6.301 .6334c8.359 0 16.53-3.307 22.6-9.383l57.28-57.28c9.016-9.016 4.332-24.48-8.221-26.96L191.3 96.7L174.5 12.9C172.9 4.821 165.9 .002 158.8 0C154.8 0 150.8 1.474 147.6 4.682L90.28 61.96C82.68 69.56 79.41 80.43 81.53 90.86l13.61 56.74L49.13 193.6C17.44 225.3 0 267.4 0 312.3c0 92.5 75.25 167.7 167.8 167.7H544c52.94 0 96-43.06 96-95.1V288C640 199.8 568.2 128 480 128zM624 384c0 44.11-35.89 79.1-80 79.1H167.8C84.07 464 16 395.9 16 312.3c0-40.54 15.78-78.65 44.44-107.3L112.8 152.6L97.21 87.68C96.15 82.46 97.79 77.08 101.6 73.27l57.23-57.22l17.77 88.54l6.846 6.846l88.57 17.7l-57.28 57.27C211.7 189.4 207.6 191.1 203.4 191.1c-1.037 0-2.08-.1016-2.568-.1914L135.4 175.2L119.3 191.4C93.95 216.7 80 250.4 80 286.2c0 27.47 22.35 49.81 49.81 49.81c12.96 0 25.22-4.945 34.52-13.93l85.86-82.88C311.6 177.8 393.2 144 480 144c79.4 0 144 64.6 144 143.1V384zM384 272c-8.836 0-16 7.162-16 15.1c0 8.836 7.164 15.1 16 15.1s16-7.164 16-15.1C400 279.2 392.8 272 384 272z"/></svg>