<svg xmlns="http://www.w3.org/2000/svg" viewBox="0 0 512 512"><!--! Font Awesome Pro 6.0.0-beta3 by @fontawesome - https://fontawesome.com License - https://fontawesome.com/license (Commercial License) Copyright 2021 Fonticons, Inc. --><path d="M72.3 395.2c4.977 0 8.004-4.191 8.004-8.021c0-9.188-35.78-32.97-37.21-74.77c.7656-24 14.7-50.22 39.42-74.41c11.73 10.88 39.39 40.13 39.47 74.13c-.3431 9.732-2.721 15.07-2.721 17.72c0 3.849 3.004 7.962 7.874 7.962c3.618 0 6.945-2.33 7.879-5.96c1.797-7 2.75-13.06 2.969-19.47C137.9 260.1 87.37 219.2 82.31 219.2c-9.089 0-53.75 47.09-55.22 93.25C28.41 351.4 63.67 395.2 72.3 395.2zM200.1 374.2c-6.234 0-12.64 .875-20.16 2.75c-3.635 .9022-6.065 4.17-6.065 7.757c0 3.925 3.096 8.002 7.915 8.002c2.75 0 8.803-2.509 18.04-2.509c30.94 1.033 58.06 23.1 73.92 39.35c-23.94 24.38-50.66 38.72-73.64 39.57c-42.94-1.416-66.72-37.42-75.37-37.42c-2.923 0-7.993 2.206-7.993 7.966c0 9.474 43.89 44.15 83.39 45.45c52.26-1.944 92.61-51.65 92.61-55.57c0-1.92-.6914-3.844-2.078-5.37C274.3 406.1 240.8 375.6 200.1 374.2zM273.2 194.3c4.939 0 7.995-4.144 7.995-8.004c0-9.253-35.77-32.93-37.2-74.75c.7813-24.03 14.72-50.25 39.41-74.44c11.75 10.97 39.41 40.32 39.5 74.1c-.3767 9.86-2.736 15.09-2.736 17.77c0 3.955 3.153 7.993 7.933 7.993c3.556 0 6.891-2.351 7.819-5.983c1.797-7 2.75-13.09 2.984-19.5c-.1445-52.01-50.71-93.24-55.69-93.24c-9.063 0-53.73 47.11-55.22 93.33C229.3 150.7 264.6 194.3 273.2 194.3zM177.2 290.3c4.937 0 7.995-4.143 7.995-8.004c0-9.252-35.77-32.93-37.2-74.75c.7813-24.03 14.72-50.26 39.41-74.45C199.1 144.1 226.8 173.4 226.9 207.2C226.5 217.1 224.1 222.3 224.1 224.1c0 3.913 3.111 8.002 7.938 8.002c3.542 0 6.9-2.39 7.814-5.992c1.797-7 2.75-13.09 2.984-19.5c-.1449-52.13-50.75-93.23-55.72-93.23c-9.082 0-53.7 47.19-55.18 93.33C133.3 246.7 168.6 290.3 177.2 290.3zM305 269.4c-6.297 0-12.89 .9062-20.19 2.75c-3.618 .9244-6.032 4.172-6.032 7.74c0 3.942 3.09 8.042 7.892 8.042c2.846 0 8.408-2.53 18.06-2.53c30.94 1.031 58.08 23.1 73.94 39.32c-23.94 24.41-50.64 38.72-73.64 39.56c-42.96-1.415-66.76-37.43-75.35-37.43c-2.924 0-8.008 2.217-8.008 7.977c0 9.455 43.8 44.15 83.38 45.45c40.34-1.438 74.05-32.06 90.55-50.19c1.385-1.518 2.08-3.443 2.08-5.372C397.7 320.3 356.3 271.1 305 269.4zM401 173.4c-6.297 0-12.89 .9062-20.19 2.75c-3.618 .9244-6.032 4.171-6.032 7.739c0 4.016 3.152 8.034 7.909 8.034c2.832 0 8.432-2.521 18.04-2.521c30.94 1.031 58.08 23.1 73.94 39.32c-23.94 24.41-50.64 38.72-73.64 39.56c-42.95-1.415-66.76-37.42-75.36-37.42c-2.917 0-8.004 2.193-8.004 7.965c0 9.455 43.8 44.15 83.38 45.45c40.34-1.438 74.05-32.06 90.55-50.19c1.385-1.518 2.08-3.443 2.08-5.372C493.7 224.3 452.3 175.1 401 173.4zM512 8C512 3.43 508.3 0 504 0c-2.047 0-4.094 .7813-5.656 2.344l-496 496C.7813 499.9 0 501.1 0 504C0 506.9 2.281 512 8 512c2.062 0 4.094-.7813 5.656-2.344l496-496C511.2 12.09 512 10.05 512 8zM360 64c2.062 0 4.094-.7813 5.656-2.344l40-40C407.2 20.09 408 18.05 408 16c0-4.57-3.737-8-8-8c-2.047 0-4.094 .7813-5.656 2.344l-40 40C352.8 51.91 352 53.95 352 56C352 58.91 354.3 64 360 64zM496 104c-2.047 0-4.094 .7813-5.656 2.344l-40 40C448.8 147.9 448 149.1 448 152C448 154.9 450.3 160 456 160c2.062 0 4.094-.7813 5.656-2.344l40-40C503.2 116.1 504 114 504 112C504 107.4 500.3 104 496 104z"/></svg>