<svg xmlns="http://www.w3.org/2000/svg" viewBox="0 0 448 512"><!--! Font Awesome Pro 6.0.0-beta3 by @fontawesome - https://fontawesome.com License - https://fontawesome.com/license (Commercial License) Copyright 2021 Fonticons, Inc. --><path d="M364 104C392.7 104 416 80.72 416 52S392.7 0 364 0S312 23.28 312 52S335.3 104 364 104zM364 16c19.85 0 36 16.15 36 36S383.8 88 364 88c-19.85 0-36-16.15-36-36S344.1 16 364 16zM431.5 227.1C426.5 225.1 420.7 224 414.9 224h-115.8c44.01-45.81 39.8-41.21 41.95-44.06c3.371-4.473 6.283-9.371 7.727-14.78c7.088-26.6-8.733-50.89-26.77-57.44l-116-56.5c-4.441-2.156-9.239-3.223-14.02-3.225c-6.791 0-13.54 2.156-19.17 6.412l-64 48C94.65 113 91.78 133.1 102.4 147.2c6.277 8.389 15.88 12.79 25.6 12.79c6.684 0 13.43-2.082 19.18-6.387l48.41-36.28l49.7 24.14L219.8 167C216.2 170.6 216.8 176.5 220.1 179.3c3.174 2.115 7.398 1.697 10.09-1l25.55-25.54c7.777-7.777 5.57-20.9-4.324-25.71L202.6 102.9C199 101.2 192.2 99.84 185.1 104.5L137.6 140.8C131.7 145.2 121.4 145.8 115.2 137.6c-5.285-7.021-3.906-17.03 3.221-22.36l64.05-48.04c.2012-.1523 7.457-5.975 16.54-1.568l116 56.5c19.91 9.686 25.73 31.38 11.72 50.06l-39.15 40.75c-6.303 6.561-3.617 16.33-3.182 17.36C286.9 236.2 292.7 240 299.1 240h116.9c10.06 0 17.67 9.211 15.69 19.14l-32.04 160.2c-4.119 20.68-35.54 14.56-31.34-6.455l24.34-121.7C394.7 281.2 387 272 376.1 272H344c-4.418 0-8 3.582-8 8S339.6 288 344 288h32.97l-24.34 121.7C348.3 431.1 365.4 448 384 448c14.94 0 28.31-10.5 31.34-25.72l32-160C450 249 444.1 235.1 431.5 227.1zM160 192c-88.37 0-160 71.63-160 160s71.64 160 160 160s160-71.63 160-160S248.4 192 160 192zM160 496c-79.4 0-144-64.6-144-144S80.6 208 160 208s144 64.6 144 144S239.4 496 160 496zM160 248c-57.34 0-104 46.66-104 104S102.7 456 160 456s104-46.66 104-104S217.3 248 160 248zM160 440c-48.53 0-88-39.47-88-88S111.5 264 160 264s88 39.47 88 88S208.5 440 160 440z"/></svg>