<svg xmlns="http://www.w3.org/2000/svg" viewBox="0 0 448 512"><!--! Font Awesome Pro 6.1.1 by @fontawesome - https://fontawesome.com License - https://fontawesome.com/license (Commercial License) Copyright 2022 Fonticons, Inc. --><path d="M416 52C416 80.72 392.7 104 364 104C335.3 104 312 80.72 312 52C312 23.28 335.3 0 364 0C392.7 0 416 23.28 416 52zM364 16C344.1 16 328 32.12 328 52C328 71.88 344.1 88 364 88C383.9 88 400 71.88 400 52C400 32.12 383.9 16 364 16zM56 352C56 294.6 102.6 248 160 248C217.4 248 264 294.6 264 352C264 409.4 217.4 456 160 456C102.6 456 56 409.4 56 352zM160 264C111.4 264 72 303.4 72 352C72 400.6 111.4 440 160 440C208.6 440 248 400.6 248 352C248 303.4 208.6 264 160 264zM320 352C320 440.4 248.4 512 160 512C71.63 512 0 440.4 0 352C0 263.6 71.63 192 160 192C248.4 192 320 263.6 320 352zM160 208C80.47 208 16 272.5 16 352C16 431.5 80.47 496 160 496C239.5 496 304 431.5 304 352C304 272.5 239.5 208 160 208zM388.6 293.1C391.6 297.8 392.8 302.7 391.7 307.5L368.4 412.5C366.5 421.2 371.9 429.7 380.5 431.6C389.2 433.5 397.7 428.1 399.6 419.5L431.6 275.5C432.7 270.7 431.5 265.8 428.5 261.1C425.4 258.2 420.9 256 416 256H326.3C323.1 250.5 319.7 245.1 315.1 240H416C425.7 240 434.9 244.4 440.1 251.1C447 259.5 449.3 269.5 447.2 278.9L415.2 422.9C411.4 440.2 394.3 451.1 377.1 447.2C359.8 443.4 348.9 426.3 352.8 409.1L376.1 304H345.1C344.6 298.6 342.9 293.2 341.1 288H376.1C380.1 288 385.6 290.2 388.6 293.1H388.6zM337.4 181.4L301.1 221.8C297.4 217.8 293.7 214.1 289.7 210.4L325.5 170.7C339.8 154.8 334.7 129.5 315.3 120.4L198.8 65.52C193.5 63 187.1 63.65 182.4 67.2L118.4 115.2C111.3 120.5 109.9 130.5 115.2 137.6C120.5 144.7 130.5 146.1 137.6 140.8L186.2 104.4C190.9 100.8 197.2 100.2 202.6 102.7L253.4 126.6C258.2 128.8 261.5 133.2 262.4 138.3C263.3 143.5 261.6 148.7 257.1 152.4L235.1 175.2C229.7 172.1 224.2 170.9 218.6 169.1L246.6 141.1L195.8 117.2L147.2 153.6C133.1 164.2 113 161.3 102.4 147.2C91.8 133.1 94.66 113 108.8 102.4L172.8 54.4C182.3 47.29 194.9 46 205.6 51.05L322.1 105.9C351.3 119.6 358.9 157.5 337.4 181.4V181.4z"/></svg>