<svg xmlns="http://www.w3.org/2000/svg" viewBox="0 0 640 512"><!--! Font Awesome Pro 6.1.1 by @fontawesome - https://fontawesome.com License - https://fontawesome.com/license (Commercial License) Copyright 2022 Fonticons, Inc. --><path d="M319.1 352c-35.34 0-64 28.66-64 63.1c0 35.34 28.66 64 64 64s64-28.66 64-64C383.1 380.7 355.3 352 319.1 352zM319.1 463.1c-26.47 0-48-21.53-48-48c0-26.47 21.54-47.1 48.01-47.1s47.99 21.53 47.99 47.1C367.1 442.5 346.5 463.1 319.1 463.1zM320 192C244.9 192 174.3 221.2 121.2 274.3c-3.125 3.124-3.125 8.188 0 11.31c3.125 3.125 8.188 3.125 11.31 0C182.6 235.6 249.2 208 320 208s137.4 27.58 187.5 77.65C509 287.2 511.1 287.1 513.1 287.1s4.094-.7809 5.656-2.345c3.125-3.124 3.125-8.188 0-11.31C465.7 221.2 395.1 192 320 192z"/></svg>