<svg xmlns="http://www.w3.org/2000/svg" viewBox="0 0 512 512"><!--! Font Awesome Pro 6.0.0-beta3 by @fontawesome - https://fontawesome.com License - https://fontawesome.com/license (Commercial License) Copyright 2021 Fonticons, Inc. --><path d="M100.4 271.1H187.6L248.3 37.99C249.2 34.46 252.4 32 256 32C259.6 32 262.8 34.46 263.7 37.99L324.4 271.1H411.6L472.3 37.99C473.4 33.72 477.7 31.15 482 32.26C486.3 33.36 488.9 37.73 487.7 42.01L428.1 271.1H504C508.4 271.1 512 275.6 512 279.1C512 284.4 508.4 287.1 504 287.1H423.1L375.7 474C374.8 477.5 371.6 480 368 480C364.4 480 361.2 477.5 360.3 474L312 287.1H199.1L151.7 474C150.8 477.5 147.6 480 144 480C140.4 480 137.2 477.5 136.3 474L88.03 287.1H8C3.582 287.1 0 284.4 0 279.1C0 275.6 3.582 271.1 8 271.1H83.88L24.26 42.01C23.15 37.73 25.72 33.36 29.99 32.26C34.27 31.15 38.64 33.72 39.74 37.99L100.4 271.1zM104.6 287.1L144 440.1L183.4 287.1H104.6zM204.1 271.1H307.9L256 71.88L204.1 271.1zM328.6 287.1L368 440.1L407.4 287.1H328.6z"/></svg>