<svg xmlns="http://www.w3.org/2000/svg" viewBox="0 0 448 512"><!--! Font Awesome Pro 6.0.0-beta3 by @fontawesome - https://fontawesome.com License - https://fontawesome.com/license (Commercial License) Copyright 2021 Fonticons, Inc. --><path d="M290.3 385.1L224 407.6l-66.19-22.5c-7-2.281-14.75-1-20.7 3.312C131.3 392.7 128 399.1 128 406.1v83.91c0 6.906 3.281 13.28 8.984 17.47c5.906 4.344 13.64 5.594 20.94 3.406L224 488.5l66.19 22.41C292.5 511.7 294.9 512 297.3 512c4.844 0 9.641-1.5 13.64-4.406C316.7 503.4 320 496.1 320 489.1v-83.91c0-6.938-3.281-13.31-9-17.5C305.1 384.2 297.4 382.9 290.3 385.1zM304 489.1c0 2.531-1.75 4.094-2.516 4.656c-1.859 1.344-4.172 1.781-6.281 1.031L224 471.6l-71.03 24.03c-2.172 .6562-4.641 .3125-6.516-1.062C145.5 493.9 144 492.4 144 489.1v-83.91c0-2.469 1.578-4 2.516-4.688c1.859-1.344 4.188-1.781 6.266-1.062L224 424.5l71.11-24.13c2.188-.6875 4.625-.25 6.422 1.062C302.5 402.1 304 403.6 304 406.1V489.1zM447.1 224c0-15.78-6.843-30.59-18.61-40.9c6.953-13.91 7.548-30.2 1.454-44.89c-6.188-14.78-18.39-25.9-33.5-30.77c1.203-15.78-4.199-31.01-15.03-41.83c-10.84-10.88-25.99-16.11-41.77-14.96c-4.891-15.22-16.03-27.47-30.81-33.54c-14.44-6.031-30.7-5.403-44.83 1.535c-10.3-11.81-25.12-18.66-40.92-18.66c-15.78 0-30.58 6.844-40.88 18.63c-13.97-6.969-30.26-7.628-44.88-1.535C123.4 23.34 112.3 35.63 107.5 50.66C91.72 49.22 76.5 54.76 65.72 65.58C54.77 76.39 49.44 91.66 50.73 107.4C35.53 112.3 23.24 123.4 17.19 138.2C11.11 152.7 11.81 168.9 18.77 183C6.906 193.3 .0006 208.1 .0006 223.1c0 15.75 6.843 30.53 18.61 40.88c-6.953 13.91-7.591 30.18-1.482 44.86c6.141 14.6 18.4 25.58 33.58 30.42c-1.406 16.1 3.89 31.15 14.1 42.15c9 9.125 21.05 14.45 34.81 15.35c.1875 .0313 .3594 .0313 .5469 .0313c4.172 0 7.688-3.25 7.969-7.469c.2969-4.406-3.047-8.219-7.453-8.5c-6.828-.4687-16.62-2.688-24.55-10.72c-8.969-8.875-12.44-21.69-9.516-35.16c.4687-2.125 .0469-4.344-1.172-6.156s-3.125-3.031-5.266-3.406c-13.45-2.344-24.09-10.62-29.17-22.69c-5-12.03-3.594-25.56 3.766-36.25C36.91 265.6 37.36 263.4 36.95 261.3C36.53 259.2 35.3 257.3 33.5 256.1C22.55 248.9 16 236.9 16 223.1c0-12.94 6.578-24.94 17.58-32.1c1.797-1.188 3.047-3.031 3.484-5.125C37.48 184.7 37.05 182.5 35.86 180.7c-7.375-10.94-8.797-24.5-3.812-36.38c4.953-12.09 15.8-20.69 29.03-23C63.22 120.9 65.13 119.7 66.34 117.9S67.98 113.8 67.52 111.7C64.61 98.47 68.08 85.82 77.06 76.94C85.94 68.07 98.69 64.72 111.9 67.41C114.1 67.88 116.3 67.44 118.1 66.22c1.812-1.25 3.031-3.156 3.391-5.312C123.7 47.88 132.2 37 144.4 31.88c11.91-5 25.5-3.562 36.28 3.812c1.766 1.25 3.969 1.594 6.062 1.25c2.109-.4062 3.969-1.656 5.141-3.438C199.1 22.53 211.1 16 224 16s24.94 6.531 32.13 17.5c1.172 1.781 3.016 3 5.109 3.438c2.109 .4062 4.281 0 6.047-1.219c10.91-7.312 24.52-8.812 36.38-3.812c12.08 4.938 20.67 15.81 23 29.06c.375 2.156 1.594 4.031 3.406 5.25c1.797 1.219 4.016 1.625 6.141 1.188c13.16-2.812 26.11 .7813 34.86 9.531c8.859 8.844 12.33 21.56 9.516 34.85c-.4531 2.125-.0156 4.344 1.203 6.125C383 119.7 384.9 120.9 387 121.3c13.14 2.312 24 10.91 29.06 23.03c5 12.03 3.594 25.6-3.766 36.28c-1.234 1.75-1.688 3.939-1.281 6.064c.4219 2.125 1.672 3.969 3.469 5.156C425.5 199 432 211 432 223.1c0 12.91-6.453 24.85-17.28 32c-1.781 1.188-3.031 3.062-3.438 5.156c-.4062 2.125 .0625 4.312 1.281 6.062c7.406 10.75 8.859 24.28 3.891 36.22c-5.031 12.06-15.66 20.35-29.17 22.72c-2.156 .375-4.047 1.594-5.266 3.406s-1.641 4.031-1.172 6.156c2.906 13.41-.5625 26.22-9.547 35.19c-8.141 8.158-17.86 10.31-24.56 10.69c-4.422 .2813-7.781 4.062-7.531 8.469c.2656 4.406 3.891 7.562 8.438 7.531c13.61-.8125 25.71-6.109 34.98-15.39c10.95-10.94 16.3-26.27 15.01-42.14c15.25-4.875 27.52-15.85 33.62-30.48c6.078-14.62 5.398-30.9-1.617-44.87C441.3 254.5 447.1 239.7 447.1 224zM316.2 192.1c-1.031-3.312-1.359-7-1.75-10.66c-.7344-7.031-1.578-14.97-6.156-21.59c-4.75-6.781-11.98-10.19-18.38-13.22c-3.141-1.469-6.297-2.906-8.844-4.781c-2.375-1.812-4.719-4.531-7.219-7.406C269.2 129.1 264 123.9 256.3 121.3c-7.484-2.471-15.12-.8438-21.86 .5938c-7.5 1.625-13.31 1.625-20.81 0C206.8 120.4 199.2 118.8 191.7 121.3C184 123.9 178.8 129.1 174.2 135.3c-2.5 2.875-4.844 5.594-7.234 7.406C164.5 144.6 161.3 146.1 157.8 147.7C151.5 150.7 144.4 154 139.7 160.8c-4.547 6.594-5.391 14.53-6.125 21.56C133.2 185.1 132.8 189.7 131.8 192.9C130.8 196 129.1 199.1 127.4 202.2C123.9 208.4 120 215.5 120 224c0 8.469 3.922 15.59 7.391 21.84c1.703 3.096 3.453 6.127 4.422 9.189c1.031 3.312 1.359 7 1.75 10.66c.7344 7.031 1.578 14.97 6.156 21.6c4.75 6.781 11.98 10.19 18.38 13.22C161.2 301.1 164.4 303.4 166.9 305.3C169.3 307.1 171.7 309.8 174.2 312.7C178.8 318.1 184 324.1 191.7 326.7c2.812 .9375 5.641 1.281 8.438 1.281c4.656 0 9.219-.9687 13.42-1.875c7.5-1.625 13.31-1.625 20.81 0c6.734 1.438 14.33 3.125 21.91 .5625c7.688-2.625 12.92-8.656 17.53-14c2.5-2.877 4.844-5.596 7.234-7.408c2.422-1.844 5.656-3.375 9.078-4.969c6.297-2.969 13.42-6.312 18.16-13.06c4.547-6.594 5.391-14.53 6.125-21.56c.3906-3.625 .7187-7.312 1.734-10.62c1-3.125 2.734-6.125 4.438-9.221C324.1 239.6 328 232.5 328 224c0-8.471-3.922-15.6-7.391-21.85C318.9 199.1 317.2 196 316.2 192.1zM306.6 238.1c-2.219 4.031-4.383 8.062-5.68 12.13c0 .0313 0 0 0 0c-1.406 4.562-1.914 9.25-2.383 13.78c-.5938 5.594-1.156 10.88-3.344 14.06c-2.266 3.252-6.922 5.408-11.84 7.752c-4.016 1.875-8.172 3.844-11.94 6.688c-3.719 2.812-6.734 6.312-9.672 9.688c-3.594 4.188-7 8.125-10.53 9.312c-3.344 1.127-8.266 .0313-13.42-1.062c-8.812-1.875-18.75-1.875-27.56 0C205.1 311.6 200.2 312.6 196.8 311.6C193.3 310.4 189.9 306.4 186.3 302.2C183.3 298.9 180.3 295.4 176.5 292.5c-3.422-2.531-7.5-4.5-11.59-6.438C159.9 283.7 155.1 281.4 152.8 278.1c-2.219-3.219-2.781-8.5-3.375-14.09C149 259.5 148.5 254.9 147.1 250.2C145.8 246.2 143.6 242.2 141.4 238.1C138.6 233.1 136 228.3 136 223.1S138.6 214.9 141.4 209.9c2.219-4.031 4.375-8.031 5.688-12.16C148.5 193.2 149 188.5 149.5 183.1C150.1 178.4 150.6 173.3 152.8 170.1C155 166.9 159.7 164.5 164.7 162.2c4.016-1.875 8.172-3.844 11.94-6.688C180.3 152.7 183.3 149.2 186.3 145.8c3.594-4.188 7-8.125 10.53-9.312c1-.3438 2.141-.4687 3.391-.4687c2.922 0 6.406 .75 10.03 1.531c8.812 1.875 18.75 1.875 27.56 0c5.172-1.094 10.05-2.125 13.38-1.094c3.578 1.219 6.984 5.156 10.58 9.344c2.938 3.375 5.953 6.877 9.75 9.752c3.422 2.531 7.5 4.5 11.59 6.438c5.031 2.375 9.781 4.625 12.08 7.906c2.219 3.219 2.781 8.5 3.375 14.09c.4687 4.533 .9687 9.189 2.391 13.81c1.297 4.062 3.453 8.062 5.672 12.09c2.781 5.031 5.405 9.763 5.405 14.11S309.4 233.1 306.6 238.1z"/></svg>