<svg xmlns="http://www.w3.org/2000/svg" viewBox="0 0 512 512"><!--! Font Awesome Pro 6.0.0-beta3 by @fontawesome - https://fontawesome.com License - https://fontawesome.com/license (Commercial License) Copyright 2021 Fonticons, Inc. --><path d="M507.6 122.8c-1.836-7.641-8.649-12.07-15.63-12.07c-4.062 0-8.181 1.497-11.41 4.73l-76.55 76.56l-83.1-.0002l0-83.1l76.55-76.56c8.791-8.789 4.75-24.14-7.336-27.04C377.3 1.532 364.8 .002 351.1 0c-12.62 0-25.51 1.493-38.7 4.65C251.9 19.35 203.9 71.55 194.1 133.1c-4.236 26.86-1.736 52.71 6.002 76.17l-178.1 178.1c-28.12 28.12-28.12 73.69 0 101.8C35.16 504.1 53.56 512 71.1 512s36.84-7.031 50.91-21.09l178.1-178.1c32.78 10.81 60.98 8.398 76.17 6.004c62.41-9.84 114.6-57.8 129.3-119.2C513.7 172.1 513.3 146.5 507.6 122.8zM491.8 195.1c-13.2 55.16-59.91 98.19-116.2 107.1c-5.85 .9212-31.72 6.791-78.03-8.48l-185.9 185.9c-21.88 21.88-57.28 21.91-79.18 0c-21.88-21.88-21.91-57.28 0-79.19l185.9-185.9c-15.37-46.6-9.708-70.23-8.479-78.03c8.883-56.34 51.91-103.1 107.1-116.2c16.62-3.977 41.84-6.999 68.3-.0703l-81.24 81.24v106.6h106.6l81.42-81.48C497.4 148.9 497.3 171.9 491.8 195.1zM79.99 415.1c-8.836 0-16 7.162-16 16c0 8.836 7.165 16 16 16c8.836 0 16-7.164 16-16C95.99 423.2 88.82 415.1 79.99 415.1z"/></svg>