<svg xmlns="http://www.w3.org/2000/svg" viewBox="0 0 576 512"><!--! Font Awesome Pro 6.0.0-beta3 by @fontawesome - https://fontawesome.com License - https://fontawesome.com/license (Commercial License) Copyright 2021 Fonticons, Inc. --><path d="M104 368c4.406 0 8-3.594 8-8v-288c0-13.22 10.78-24 24-24h304c13.22 0 24 10.78 24 24v288c0 4.406 3.594 8 8 8S480 364.4 480 360v-288C480 49.94 462.1 32 440 32h-304C113.9 32 96 49.94 96 72v288C96 364.4 99.59 368 104 368zM56 416c0 4.406 3.594 8 8 8h448c4.406 0 8-3.594 8-8s-3.594-8-8-8H64C59.59 408 56 411.6 56 416zM536 352h-16C515.6 352 512 355.6 512 360s3.594 8 8 8h16c13.22 0 24 10.78 24 24v48c0 13.22-10.78 24-24 24H40c-13.22 0-24-10.78-24-24v-48c0-13.22 10.78-24 24-24h16C60.41 368 64 364.4 64 360S60.41 352 56 352h-16C17.94 352 0 369.9 0 392v48C0 462.1 17.94 480 40 480h496c22.06 0 40-17.94 40-40v-48C576 369.9 558.1 352 536 352zM210.3 285.7c3.127 3.125 8.186 3.125 11.31 0L288 219.3l66.34 66.34c3.127 3.125 8.186 3.125 11.31 0c3.125-3.125 3.125-8.188 0-11.31L299.3 208l66.34-66.34c3.125-3.125 3.125-8.188 0-11.31s-8.188-3.125-11.31 0L288 196.7L221.7 130.3c-3.125-3.125-8.188-3.125-11.31 0s-3.125 8.188 0 11.31L276.7 208L210.3 274.3C207.2 277.5 207.2 282.5 210.3 285.7z"/></svg>