<svg xmlns="http://www.w3.org/2000/svg" viewBox="0 0 320 512"><!--! Font Awesome Pro 6.1.1 by @fontawesome - https://fontawesome.com License - https://fontawesome.com/license (Commercial License) Copyright 2022 Fonticons, Inc. --><path d="M160 234.4L305.5 35.28C308.1 31.71 313.2 30.93 316.7 33.54C320.3 36.15 321.1 41.15 318.5 44.72L175.8 240H280C284.4 240 288 243.6 288 248C288 252.4 284.4 256 280 256H168V336H280C284.4 336 288 339.6 288 344C288 348.4 284.4 352 280 352H168V472C168 476.4 164.4 480 160 480C155.6 480 152 476.4 152 472V352H39.1C35.58 352 31.1 348.4 31.1 344C31.1 339.6 35.58 336 39.1 336H152V256H39.1C35.58 256 31.1 252.4 31.1 248C31.1 243.6 35.58 240 39.1 240H144.2L1.541 44.72C-1.065 41.15-.2867 36.15 3.28 33.54C6.848 30.93 11.85 31.71 14.46 35.28L160 234.4z"/></svg>