<svg xmlns="http://www.w3.org/2000/svg" viewBox="0 0 512 512"><!--! Font Awesome Pro 6.1.1 by @fontawesome - https://fontawesome.com License - https://fontawesome.com/license (Commercial License) Copyright 2022 Fonticons, Inc. --><path d="M256 0C114.6 0 0 114.6 0 256s114.6 256 256 256s256-114.6 256-256S397.4 0 256 0zM16 256c0-132.3 107.7-240 240-240c63.97 0 116 52.03 116 116S319.1 248 256 248c-72.78 0-132 59.22-132 132c0 40.28 18.52 75.95 47.06 100.2C80.58 445.8 16 358.4 16 256zM256 496c-63.97 0-116-52.03-116-116S192 264 256 264c72.78 0 132-59.22 132-132c0-40.28-18.52-75.95-47.06-100.2C431.4 66.22 496 153.6 496 256C496 388.3 388.3 496 256 496zM256 168c22.09 0 40-17.91 40-40S278.1 88 256 88S216 105.9 216 128S233.9 168 256 168zM256 104c13.23 0 24 10.77 24 24S269.2 152 256 152C242.8 152 232 141.2 232 128S242.8 104 256 104zM256 344c-22.09 0-40 17.91-40 40s17.91 40 40 40s40-17.91 40-40S278.1 344 256 344zM256 408c-13.23 0-24-10.77-24-24s10.77-24 24-24c13.23 0 24 10.77 24 24S269.2 408 256 408z"/></svg>