<?xml version="1.0" encoding="utf-8"?>
<!-- Generated by IcoMoon.io -->
<!DOCTYPE svg PUBLIC "-//W3C//DTD SVG 1.1//EN" "http://www.w3.org/Graphics/SVG/1.1/DTD/svg11.dtd">
<svg version="1.1" xmlns="http://www.w3.org/2000/svg" xmlns:xlink="http://www.w3.org/1999/xlink" width="120" height="112" viewBox="0 0 120 112">
	<path d="M56 56q0-6.625-4.687-11.313t-11.313-4.687-11.313 4.687-4.687 11.313 4.687 11.313 11.313 4.687 11.313-4.687 4.687-11.313zM104 88q0-3.25-2.375-5.625t-5.625-2.375-5.625 2.375-2.375 5.625q0 3.313 2.344 5.656t5.656 2.344 5.656-2.344 2.344-5.656zM104 24q0-3.25-2.375-5.625t-5.625-2.375-5.625 2.375-2.375 5.625q0 3.313 2.344 5.656t5.656 2.344 5.656-2.344 2.344-5.656zM80 50.313v11.562q0 0.625-0.438 1.219t-1 0.656l-9.687 1.5q-0.688 2.188-2 4.75 2.125 3 5.625 7.187 0.438 0.625 0.438 1.25 0 0.75-0.438 1.187-1.438 1.875-5.156 5.594t-4.906 3.719q-0.688 0-1.313-0.438l-7.187-5.625q-2.313 1.187-4.813 1.937-0.688 6.75-1.438 9.687-0.438 1.5-1.875 1.5h-11.625q-0.688 0-1.25-0.469t-0.625-1.094l-1.438-9.563q-2.125-0.625-4.687-1.937l-7.375 5.562q-0.438 0.438-1.25 0.438-0.688 0-1.313-0.5-9-8.313-9-10 0-0.563 0.438-1.187 0.625-0.875 2.563-3.313t2.937-3.812q-1.438-2.75-2.188-5.125l-9.5-1.5q-0.625-0.062-1.062-0.594t-0.438-1.219v-11.562q0-0.625 0.438-1.219t1-0.656l9.687-1.5q0.688-2.188 2-4.75-2.125-3-5.625-7.187-0.438-0.688-0.438-1.25 0-0.75 0.438-1.25 1.375-1.875 5.125-5.562t4.938-3.687q0.688 0 1.313 0.438l7.187 5.625q2.125-1.125 4.813-2 0.688-6.75 1.438-9.625 0.438-1.5 1.875-1.5h11.625q0.688 0 1.25 0.469t0.625 1.094l1.438 9.563q2.125 0.625 4.687 1.937l7.375-5.562q0.5-0.438 1.25-0.438 0.688 0 1.313 0.5 9 8.313 9 10 0 0.563-0.438 1.187-0.75 1-2.625 3.375t-2.812 3.75q1.438 3 2.125 5.125l9.5 1.438q0.625 0.125 1.062 0.656t0.438 1.219zM120 83.625v8.75q0 1-9.313 1.937-0.75 1.688-1.875 3.25 3.188 7.062 3.188 8.625 0 0.25-0.25 0.438-7.625 4.437-7.75 4.437-0.5 0-2.875-2.937t-3.25-4.25q-1.25 0.125-1.875 0.125t-1.875-0.125q-0.875 1.313-3.25 4.25t-2.875 2.937q-0.125 0-7.75-4.437-0.25-0.187-0.25-0.438 0-1.563 3.188-8.625-1.125-1.563-1.875-3.25-9.313-0.937-9.313-1.937v-8.75q0-1 9.313-1.937 0.813-1.812 1.875-3.25-3.188-7.062-3.188-8.625 0-0.25 0.25-0.438 0.25-0.125 2.188-1.25t3.687-2.125 1.875-1q0.5 0 2.875 2.906t3.25 4.219q1.25-0.125 1.875-0.125t1.875 0.125q3.188-4.437 5.75-7l0.375-0.125q0.25 0 7.75 4.375 0.25 0.187 0.25 0.438 0 1.563-3.188 8.625 1.062 1.438 1.875 3.25 9.313 0.937 9.313 1.937zM120 19.625v8.75q0 1-9.313 1.937-0.75 1.688-1.875 3.25 3.188 7.062 3.188 8.625 0 0.25-0.25 0.438-7.625 4.437-7.75 4.437-0.5 0-2.875-2.937t-3.25-4.25q-1.25 0.125-1.875 0.125t-1.875-0.125q-0.875 1.313-3.25 4.25t-2.875 2.937q-0.125 0-7.75-4.437-0.25-0.187-0.25-0.438 0-1.563 3.188-8.625-1.125-1.563-1.875-3.25-9.313-0.937-9.313-1.937v-8.75q0-1 9.313-1.937 0.813-1.812 1.875-3.25-3.188-7.062-3.188-8.625 0-0.25 0.25-0.438 0.25-0.125 2.188-1.25t3.687-2.125 1.875-1q0.5 0 2.875 2.906t3.25 4.219q1.25-0.125 1.875-0.125t1.875 0.125q3.188-4.437 5.75-7l0.375-0.125q0.25 0 7.75 4.375 0.25 0.187 0.25 0.438 0 1.563-3.188 8.625 1.062 1.438 1.875 3.25 9.313 0.937 9.313 1.937z" fill="#333333" />
</svg>
