<svg xmlns="http://www.w3.org/2000/svg" viewBox="0 0 640 512"><!--! Font Awesome Pro 6.1.1 by @fontawesome - https://fontawesome.com License - https://fontawesome.com/license (Commercial License) Copyright 2022 Fonticons, Inc. --><path d="M288 176V336C288 415.5 223.5 480 144 480C64.47 480 0 415.5 0 336V176C0 96.47 64.47 32 144 32C223.5 32 288 96.47 288 176zM32 336C32 397.9 82.14 448 144 448C205.9 448 256 397.9 256 336V176C256 114.1 205.9 64 144 64C82.14 64 32 114.1 32 176V336zM640 176V336C640 415.5 575.5 480 496 480C416.5 480 352 415.5 352 336V176C352 96.47 416.5 32 496 32C575.5 32 640 96.47 640 176zM384 336C384 397.9 434.1 448 496 448C557.9 448 608 397.9 608 336V176C608 114.1 557.9 64 496 64C434.1 64 384 114.1 384 176V336z"/></svg>