<svg xmlns="http://www.w3.org/2000/svg" viewBox="0 0 320 512"><!--! Font Awesome Pro 6.0.0-beta3 by @fontawesome - https://fontawesome.com License - https://fontawesome.com/license (Commercial License) Copyright 2021 Fonticons, Inc. --><path d="M320 352c0 70.59-57.42 128-128 128H93.09c-41.94 0-79.02-26.72-92.27-66.5c-2.797-8.375 1.734-17.44 10.11-20.25c8.422-2.812 17.44 1.75 20.23 10.12C40.08 430.1 64.95 448 93.09 448H192c52.94 0 96-43.06 96-96s-43.06-96-96-96H80C73.41 256 67.5 251.1 65.09 245.8c-2.391-6.125-.7813-13.09 4.047-17.56L247.1 64H16C7.156 64 0 56.84 0 48S7.156 32 16 32h272c6.594 0 12.5 4.031 14.91 10.19c2.391 6.125 .7813 13.09-4.047 17.56L120.9 224H192C262.6 224 320 281.4 320 352z"/></svg>