<svg xmlns="http://www.w3.org/2000/svg" viewBox="0 0 640 512"><!--! Font Awesome Pro 6.1.1 by @fontawesome - https://fontawesome.com License - https://fontawesome.com/license (Commercial License) Copyright 2022 Fonticons, Inc. --><path d="M32 16C32 7.164 39.16 0 48 0H464C472.8 0 480 7.164 480 16C480 24.84 472.8 32 464 32H48C39.16 32 32 24.84 32 16zM16 80C16 71.16 23.16 64 32 64H480C488.8 64 496 71.16 496 80C496 88.84 488.8 96 480 96H32C23.16 96 16 88.84 16 80zM452.2 128C485.1 128 510.1 156.3 507.1 189.1L507.7 192.4C503.8 192.1 499.9 192 496 192C489.1 192 482.2 192.4 475.5 193.2L476.1 186.2C477.4 172.1 466.3 160 452.2 160H59.8C45.69 160 34.62 172.1 35.9 186.2L60.63 458.2C61.75 470.5 72.12 480 84.53 480H360.2C370.3 492.1 381.9 502.9 394.8 512H84.53C55.57 512 31.38 489.9 28.76 461.1L4.031 189.1C1.05 156.3 26.87 128 59.8 128L452.2 128zM256 192C304.1 192 348.8 209.6 378.1 237.3C370.2 244.5 362.9 252.4 356.3 260.9C334 239.3 299.3 223.1 256 223.1C178.3 223.1 128 273.3 128 319.1C128 366.7 178.3 416 256 416C281.7 416 304.4 410.6 323.2 401.7C325.3 412.4 328.3 422.7 332.2 432.6C309.6 442.4 283.6 448 256 448C167.6 448 96 390.7 96 319.1C96 249.3 167.6 191.1 256 191.1V192zM232 324C232 312.1 242.7 304 256 304C269.3 304 280 312.1 280 324C280 335 269.3 344 256 344C242.7 344 232 335 232 324zM440 344C440 313.1 465.1 288 496 288C526.9 288 552 313.1 552 344C552 374.9 526.9 400 496 400C465.1 400 440 374.9 440 344zM496 368C509.3 368 520 357.3 520 344C520 330.7 509.3 320 496 320C482.7 320 472 330.7 472 344C472 357.3 482.7 368 496 368zM640 368C640 447.5 575.5 512 496 512C416.5 512 352 447.5 352 368C352 288.5 416.5 224 496 224C575.5 224 640 288.5 640 368zM524.2 448H467.8C455.4 448 443.9 453.5 436 462.6C453.3 473.6 473.9 480 496 480C518.1 480 538.7 473.6 555.1 462.6C548.2 453.5 536.6 448 524.2 448H524.2zM608 368C608 306.1 557.9 256 496 256C434.1 256 384 306.1 384 368C384 396.2 394.5 422.1 411.7 441.8C425.6 425.6 445.9 416 467.8 416H524.2C546.1 416 566.4 425.6 580.3 441.8C597.5 422.1 608 396.2 608 368H608z"/></svg>