<svg xmlns="http://www.w3.org/2000/svg" viewBox="0 0 512 512"><!--! Font Awesome Pro 6.0.0-beta3 by @fontawesome - https://fontawesome.com License - https://fontawesome.com/license (Commercial License) Copyright 2021 Fonticons, Inc. --><path d="M499.3 142.8C490.5 133.3 478.7 128 466 128H45.1C33.34 128 21.53 133.3 12.78 142.8c-9.188 10.03-13.78 23.7-12.59 37.5l24.5 287.9C26.81 493.2 46.5 512 70.5 512h371c23.72 0 43.78-19.27 45.69-43.75l24.63-287.9C513 166.5 508.4 152.8 499.3 142.8zM455.3 465.7C454.7 473.7 448.6 480 441.5 480H70.5c-7.125 0-13.25-6.359-13.94-14.47L32.06 177.6C31.65 172.7 33.22 167.9 36.37 164.5C37.87 162.8 41.15 160 45.1 160h420c3.625 0 7.031 1.562 9.656 4.422c3.156 3.422 4.719 8.219 4.281 13.17L455.3 465.7zM256 299.1c-14.5 0-26.25 10.12-26.13 22.62S241.8 344 256 344c14.25 0 26-9.875 26.13-22.25C282.3 309.5 270.5 299.1 256 299.1zM256 192c-92.88 0-164.4 61.88-159.8 134.4C100.5 395 172 448 256 448s155.5-53 159.8-121.6C420.4 253.9 348.9 192 256 192zM256 416c-67.35 0-124.7-41.09-127.8-91.66C126.5 297.4 139.8 277.1 151.4 264.9C175.7 238.9 213.9 224 256 224c42.14 0 80.28 14.9 104.7 40.87c11.51 12.27 24.88 32.55 23.16 59.53C380.7 374.9 323.4 416 256 416zM47.1 32h416c8.844 0 16-7.157 16-16S472.8 0 464 0H47.1C39.15 0 31.1 7.156 31.1 16S39.15 32 47.1 32zM31.1 96H480c8.844 0 16-7.156 16-16S488.8 64 480 64H31.1c-8.844 0-16 7.156-16 16S23.15 96 31.1 96z"/></svg>