<svg xmlns="http://www.w3.org/2000/svg" viewBox="0 0 640 512"><!--! Font Awesome Pro 6.0.0-beta3 by @fontawesome - https://fontawesome.com License - https://fontawesome.com/license (Commercial License) Copyright 2021 Fonticons, Inc. --><path d="M633.9 483.4C640.9 488.9 642 498.1 636.6 505.9C631.1 512.9 621 514 614.1 508.6L6.086 28.56C-.8493 23.08-2.033 13.02 3.443 6.086C8.918-.8493 18.98-2.033 25.91 3.443L633.9 483.4zM528 336H524.6L484.1 303.1H528C536.8 303.1 544 311.2 544 319.1C544 328.8 536.8 336 528 336zM528 207.1H362.5L321.1 175.1H528C536.8 175.1 544 183.2 544 191.1C544 200.8 536.8 207.1 528 207.1zM111.1 207.1C103.2 207.1 95.1 200.8 95.1 191.1C95.1 183.2 103.2 175.1 111.1 175.1H115.4L155.9 207.1H111.1zM544 63.1C544 72.84 536.8 79.1 528 79.1H200.4L159.8 47.1H528C536.8 47.1 544 55.16 544 63.1zM111.1 336C103.2 336 95.1 328.8 95.1 319.1C95.1 311.2 103.2 303.1 111.1 303.1H277.5L318 336H111.1zM439.6 432L480.2 464H111.1C103.2 464 95.1 456.8 95.1 448C95.1 439.2 103.2 432 111.1 432H439.6z"/></svg>