<svg xmlns="http://www.w3.org/2000/svg" viewBox="0 0 448 512"><!--! Font Awesome Pro 6.1.1 by @fontawesome - https://fontawesome.com License - https://fontawesome.com/license (Commercial License) Copyright 2022 Fonticons, Inc. --><path d="M75.89 85.29C69.98 78.73 59.86 78.2 53.29 84.1C46.75 90.04 46.23 100.1 52.11 106.7L186.5 256l-134.4 149.3c-5.596 6.23-5.73 16.35 1.188 22.62c6.562 5.906 16.69 5.375 22.59-1.188l144-159.1c5.469-6.125 5.469-15.31 0-21.44L75.89 85.29zM411.9 245.3L267.9 85.29c-5.906-6.562-16.03-7.094-22.59-1.188c-6.549 5.938-7.064 16.03-1.188 22.62L378.5 256l-134.4 149.3c-5.596 6.23-5.73 16.35 1.188 22.62c6.562 5.906 16.69 5.375 22.59-1.188l144-159.1C417.4 260.6 417.4 251.4 411.9 245.3z"/></svg>