<svg xmlns="http://www.w3.org/2000/svg" viewBox="0 0 448 512"><!--! Font Awesome Pro 6.0.0-beta3 by @fontawesome - https://fontawesome.com License - https://fontawesome.com/license (Commercial License) Copyright 2021 Fonticons, Inc. --><path d="M324.5 402.4c1.219 7.908 8.031 13.56 15.8 13.56c.8125 0 1.625-.0625 2.453-.1875c8.734-1.344 14.72-9.531 13.37-18.25c-3.844-24.94-10.61-49.44-20.11-72.88c-3.328-8.188-12.7-12.25-20.84-8.812c-8.188 3.312-12.12 12.62-8.812 20.81C314.1 357.8 321 379.1 324.5 402.4zM432 447.1H41.89l196.4-392.9c3.953-7.906 .75-17.52-7.156-21.47c-7.922-3.906-17.5-.75-21.47 7.156l-207.1 416c-2.484 4.969-2.219 10.85 .7031 15.56S10.46 480 16 480H432c8.844 0 16-7.156 16-16C448 455.2 440.8 447.1 432 447.1zM208.8 190.3C203.4 197.3 204.7 207.4 211.7 212.8c20.94 16.03 39.64 34.75 55.59 55.64c3.156 4.109 7.922 6.281 12.73 6.281c3.391 0 6.797-1.078 9.703-3.281c7.016-5.375 8.359-15.41 3-22.44c-17.69-23.14-38.39-43.86-61.56-61.61C224.2 182 214.1 183.3 208.8 190.3z"/></svg>