<svg xmlns="http://www.w3.org/2000/svg" viewBox="0 0 384 512"><!--! Font Awesome Pro 6.1.1 by @fontawesome - https://fontawesome.com License - https://fontawesome.com/license (Commercial License) Copyright 2022 Fonticons, Inc. --><path d="M181.3 251.9c6.125 5.469 15.31 5.469 21.44 0l159.1-144c6.562-5.906 7.094-16.03 1.188-22.59c-5.938-6.549-16.03-7.064-22.62-1.188L192 218.5L42.73 84.11C36.5 78.51 26.38 78.38 20.1 85.29C14.2 91.86 14.73 101.1 21.29 107.9L181.3 251.9zM341.3 276.1L192 410.5L42.73 276.1C36.5 270.5 26.38 270.4 20.1 277.3C14.2 283.9 14.73 293.1 21.29 299.9l159.1 144c6.125 5.469 15.31 5.469 21.44 0l159.1-144c6.562-5.906 7.094-16.03 1.188-22.59C357.1 270.7 347.9 270.2 341.3 276.1z"/></svg>