<svg xmlns="http://www.w3.org/2000/svg" viewBox="0 0 640 512"><!--! Font Awesome Pro 6.1.1 by @fontawesome - https://fontawesome.com License - https://fontawesome.com/license (Commercial License) Copyright 2022 Fonticons, Inc. --><path d="M128 16C128 7.164 135.2 0 144 0C152.8 0 160 7.164 160 16V145.4L196.7 108.7C202.9 102.4 213.1 102.4 219.3 108.7C225.6 114.9 225.6 125.1 219.3 131.3L155.3 195.3C149.1 201.6 138.9 201.6 132.7 195.3L68.69 131.3C62.44 125.1 62.44 114.9 68.69 108.7C74.93 102.4 85.07 102.4 91.31 108.7L128 145.4L128 16zM443.3 108.7L480 145.4V16C480 7.164 487.2 0 496 0C504.8 0 512 7.164 512 16V145.4L548.7 108.7C554.9 102.4 565.1 102.4 571.3 108.7C577.6 114.9 577.6 125.1 571.3 131.3L507.3 195.3C501.1 201.6 490.9 201.6 484.7 195.3L420.7 131.3C414.4 125.1 414.4 114.9 420.7 108.7C426.9 102.4 437.1 102.4 443.3 108.7H443.3zM368 192C368 218.5 346.5 240 320 240C293.5 240 272 218.5 272 192C272 165.5 293.5 144 320 144C346.5 144 368 165.5 368 192zM320 176C311.2 176 304 183.2 304 192C304 200.8 311.2 208 320 208C328.8 208 336 200.8 336 192C336 183.2 328.8 176 320 176zM418.4 384.4L376 315.5V400C376 417.7 361.7 432 344 432H296C278.3 432 264 417.7 264 400V315.5L221.6 384.4C221.5 384.7 221.3 384.9 221.1 385.2C222.3 386.8 223.3 388.4 224.4 390.1L269.6 463.6C274.3 471.1 271.9 480.1 264.4 485.6C256.9 490.3 247 487.9 242.4 480.4L200 411.5V480C200 497.7 185.7 512 168 512H120C102.3 512 88 497.7 88 480V411.5L45.63 480.4C40.1 487.9 31.14 490.3 23.62 485.6C16.09 480.1 13.74 471.1 18.38 463.6L63.63 390.1C78.19 366.4 103.1 352 131.8 352H156.2C170.9 352 184.9 355.1 197.1 363.2L239.6 294.1C254.2 270.4 279.1 256 307.8 256H332.2C360 256 385.8 270.4 400.4 294.1L442.9 363.2C455.1 355.1 469.2 352 483.8 352H508.2C536 352 561.8 366.4 576.4 390.1L621.6 463.6C626.3 471.1 623.9 480.1 616.4 485.6C608.9 490.3 599 487.9 594.4 480.4L552 411.5V480C552 497.7 537.7 512 520 512H472C454.3 512 440 497.7 440 480V411.5L397.6 480.4C392.1 487.9 383.1 490.3 375.6 485.6C368.1 480.1 365.7 471.1 370.4 463.6L415.6 390.1C416.7 388.4 417.8 386.8 418.9 385.2C418.7 384.9 418.5 384.7 418.4 384.4H418.4zM344 400V289.5C340.2 288.5 336.3 288 332.2 288H307.8C303.7 288 299.8 288.5 296 289.5V400H344zM120 385.5V480H168V385.5C164.2 384.5 160.3 384 156.2 384H131.8C127.7 384 123.8 384.5 120 385.5zM520 480V385.5C516.2 384.5 512.3 384 508.2 384H483.8C479.8 384 475.8 384.5 472 385.5V480H520zM96 288C96 261.5 117.5 240 144 240C170.5 240 192 261.5 192 288C192 314.5 170.5 336 144 336C117.5 336 96 314.5 96 288zM144 304C152.8 304 160 296.8 160 288C160 279.2 152.8 272 144 272C135.2 272 128 279.2 128 288C128 296.8 135.2 304 144 304zM544 288C544 314.5 522.5 336 496 336C469.5 336 448 314.5 448 288C448 261.5 469.5 240 496 240C522.5 240 544 261.5 544 288zM496 272C487.2 272 480 279.2 480 288C480 296.8 487.2 304 496 304C504.8 304 512 296.8 512 288C512 279.2 504.8 272 496 272V272z"/></svg>