<svg xmlns="http://www.w3.org/2000/svg" viewBox="0 0 512 512"><!--! Font Awesome Pro 6.0.0-beta3 by @fontawesome - https://fontawesome.com License - https://fontawesome.com/license (Commercial License) Copyright 2021 Fonticons, Inc. --><path d="M478.3 200.4l-79.1-160.3c-5.438-10.84-23.19-10.84-28.62 0l-79.1 160.3c-3.953 7.922-.75 17.53 7.156 21.51c7.906 4.004 17.52 .7187 21.47-7.172l11.58-23.19h108.2l11.58 23.19c3.096 6.168 12.08 11.91 21.47 7.172C479.1 217.9 482.3 208.3 478.3 200.4zM345.9 159.5l38.11-76.34l38.11 76.34H345.9zM447.1 447.9h-94.7l107.2-134.2c3.844-4.82 4.578-11.39 1.922-16.96c-2.672-5.543-8.262-8.867-14.42-8.867H319.1c-8.844 0-16 6.957-16 15.82s7.156 16.02 16 16.02h94.7l-107.2 134.2c-3.844 4.82-4.578 11.39-1.922 16.96C308.2 476.5 313.8 480 319.1 480h127.1c8.844 0 15.1-7.168 15.1-16.03C463.1 455.1 456.8 447.9 447.1 447.9zM139.3 36.69c-6.25-6.25-16.38-6.25-22.62 0l-96 96c-6.25 6.25-6.25 16.38 0 22.62s16.38 6.25 22.62 0L112 86.63V464c0 8.844 7.156 16 16 16S144 472.8 144 464V86.63l68.69 68.69C215.8 158.4 219.9 160 224 160s8.188-1.562 11.31-4.688c6.25-6.25 6.25-16.38 0-22.62L139.3 36.69z"/></svg>