<svg xmlns="http://www.w3.org/2000/svg" viewBox="0 0 576 512"><!--! Font Awesome Pro 6.1.1 by @fontawesome - https://fontawesome.com License - https://fontawesome.com/license (Commercial License) Copyright 2022 Fonticons, Inc. --><path d="M52.69 411.3C46.44 405.1 46.44 394.9 52.69 388.7C58.93 382.4 69.06 382.4 75.31 388.7L144 457.4V272H16C7.164 272 0 264.8 0 256C0 247.2 7.164 240 16 240H400V54.63L331.3 123.3C325.1 129.6 314.9 129.6 308.7 123.3C302.4 117.1 302.4 106.9 308.7 100.7L404.7 4.686C410.9-1.562 421.1-1.562 427.3 4.686L523.3 100.7C529.6 106.9 529.6 117.1 523.3 123.3C517.1 129.6 506.9 129.6 500.7 123.3L432 54.63V240H560C568.8 240 576 247.2 576 256C576 264.8 568.8 272 560 272H175.1V457.4L244.7 388.7C250.9 382.4 261.1 382.4 267.3 388.7C273.6 394.9 273.6 405.1 267.3 411.3L171.3 507.3C165.1 513.6 154.9 513.6 148.7 507.3L52.69 411.3zM143.1 47.1C143.1 39.16 151.2 31.1 159.1 31.1C168.8 31.1 175.1 39.16 175.1 47.1V192H143.1V47.1zM432 320V464C432 472.8 424.8 480 416 480C407.2 480 400 472.8 400 464V320H432z"/></svg>