<svg xmlns="http://www.w3.org/2000/svg" viewBox="0 0 512 512"><!--! Font Awesome Pro 6.1.1 by @fontawesome - https://fontawesome.com License - https://fontawesome.com/license (Commercial License) Copyright 2022 Fonticons, Inc. --><path d="M480 256C480 132.3 379.7 32 256 32C247.2 32 240 24.84 240 16C240 7.164 247.2 0 256 0C397.4 0 512 114.6 512 256C512 397.4 397.4 512 256 512C247.2 512 240 504.8 240 496C240 487.2 247.2 480 256 480C379.7 480 480 379.7 480 256zM346.6 244C350 247.1 352 251.4 352 256C352 260.6 350 264.9 346.6 267.1L202.6 395.1C196 401.8 185.9 401.2 180 394.6C174.2 388 174.8 377.9 181.4 372L293.9 271.1H16C7.164 271.1 0 264.8 0 255.1C0 247.2 7.164 239.1 16 239.1H293.9L181.4 139.1C174.8 134.1 174.2 123.1 180 117.4C185.9 110.8 196 110.2 202.6 116L346.6 244z"/></svg>