<svg xmlns="http://www.w3.org/2000/svg" viewBox="0 0 448 512"><!--! Font Awesome Pro 6.1.1 by @fontawesome - https://fontawesome.com License - https://fontawesome.com/license (Commercial License) Copyright 2022 Fonticons, Inc. --><path d="M432 64C423.2 64 416 71.16 416 80v352c0 8.844 7.156 16 16 16s16-7.156 16-16v-352C448 71.16 440.8 64 432 64zM219.3 100.7c-6.25-6.25-16.38-6.25-22.62 0s-6.25 16.38 0 22.62L313.4 240H16C7.156 240 0 247.2 0 256s7.156 16 16 16h297.4l-116.7 116.7c-6.25 6.25-6.25 16.38 0 22.62s16.38 6.25 22.62 0l144-144C366.4 264.2 368 260.1 368 256s-1.562-8.188-4.688-11.31L219.3 100.7z"/></svg>