<svg xmlns="http://www.w3.org/2000/svg" viewBox="0 0 576 512"><!--! Font Awesome Pro 6.1.1 by @fontawesome - https://fontawesome.com License - https://fontawesome.com/license (Commercial License) Copyright 2022 Fonticons, Inc. --><path d="M16 64C7.164 64 0 56.84 0 48C0 39.16 7.164 32 16 32H560C568.8 32 576 39.16 576 48C576 56.84 568.8 64 560 64H16zM116.7 116.7C122.9 110.4 133.1 110.4 139.3 116.7L251.3 228.7C257.6 234.9 257.6 245.1 251.3 251.3C245.1 257.6 234.9 257.6 228.7 251.3L144 166.6V464C144 472.8 136.8 480 128 480C119.2 480 112 472.8 112 464V166.6L27.31 251.3C21.07 257.6 10.94 257.6 4.686 251.3C-1.562 245.1-1.562 234.9 4.686 228.7L116.7 116.7zM324.7 228.7L436.7 116.7C442.9 110.4 453.1 110.4 459.3 116.7L571.3 228.7C577.6 234.9 577.6 245.1 571.3 251.3C565.1 257.6 554.9 257.6 548.7 251.3L464 166.6V464C464 472.8 456.8 480 448 480C439.2 480 432 472.8 432 464V166.6L347.3 251.3C341.1 257.6 330.9 257.6 324.7 251.3C318.4 245.1 318.4 234.9 324.7 228.7V228.7z"/></svg>