<svg xmlns="http://www.w3.org/2000/svg" viewBox="0 0 512 512"><!--! Font Awesome Pro 6.0.0-beta3 by @fontawesome - https://fontawesome.com License - https://fontawesome.com/license (Commercial License) Copyright 2021 Fonticons, Inc. --><path d="M208 288h-160C39.16 288 32 295.2 32 304S39.16 320 48 320h121.4l-148.7 148.7c-6.25 6.25-6.25 16.38 0 22.62s16.38 6.25 22.62 0L192 342.6V464C192 472.8 199.2 480 208 480S224 472.8 224 464v-160C224 295.2 216.8 288 208 288zM304 224h160C472.8 224 480 216.8 480 208S472.8 192 464 192h-121.4l148.7-148.7c6.25-6.25 6.25-16.38 0-22.62s-16.38-6.25-22.62 0L320 169.4V48C320 39.16 312.8 32 304 32S288 39.16 288 48v160C288 216.8 295.2 224 304 224zM342.6 320H464c8.844 0 16-7.156 16-16S472.8 288 464 288h-160C295.2 288 288 295.2 288 304v160c0 8.844 7.156 16 16 16s16-7.156 16-16v-121.4l148.7 148.7c6.25 6.25 16.38 6.25 22.62 0s6.25-16.38 0-22.62L342.6 320zM208 32C199.2 32 192 39.16 192 48v121.4L43.31 20.69c-6.25-6.25-16.38-6.25-22.62 0s-6.25 16.38 0 22.62L169.4 192H48C39.16 192 32 199.2 32 208S39.16 224 48 224h160C216.8 224 224 216.8 224 208v-160C224 39.16 216.8 32 208 32z"/></svg>