<svg xmlns="http://www.w3.org/2000/svg" viewBox="0 0 640 512"><!--! Font Awesome Pro 6.0.0-beta3 by @fontawesome - https://fontawesome.com License - https://fontawesome.com/license (Commercial License) Copyright 2021 Fonticons, Inc. --><path d="M640 432C640 440.8 632.8 448 624 448C615.2 448 608 440.8 608 432V80C608 71.16 615.2 64 624 64C632.8 64 640 71.16 640 80V432zM544 256C544 260.1 542.4 264.2 539.3 267.3L395.3 411.3C389.1 417.6 378.9 417.6 372.7 411.3C366.4 405.1 366.4 394.9 372.7 388.7L489.4 272H16C7.156 272 0 264.8 0 256C0 247.2 7.156 240 16 240H489.4L372.7 123.3C366.4 117.1 366.4 106.9 372.7 100.7C378.9 94.44 389.1 94.44 395.3 100.7L539.3 244.7C542.4 247.8 544 251.9 544 256V256z"/></svg>