<svg xmlns="http://www.w3.org/2000/svg" viewBox="0 0 448 512"><!--! Font Awesome Pro 6.1.1 by @fontawesome - https://fontawesome.com License - https://fontawesome.com/license (Commercial License) Copyright 2022 Fonticons, Inc. --><path d="M443.3 244.7l-144-144c-6.25-6.25-16.38-6.25-22.62 0s-6.25 16.38 0 22.62L393.4 240H96C87.16 240 80 247.2 80 256S87.16 272 96 272h297.4l-116.7 116.7c-6.25 6.25-6.25 16.38 0 22.62s16.38 6.25 22.62 0l144-144C446.4 264.2 448 260.1 448 256S446.4 247.8 443.3 244.7zM16 64C7.156 64 0 71.16 0 80v352C0 440.8 7.156 448 16 448S32 440.8 32 432v-352C32 71.16 24.84 64 16 64z"/></svg>