<svg xmlns="http://www.w3.org/2000/svg" viewBox="0 0 576 512"><!--! Font Awesome Pro 6.1.1 by @fontawesome - https://fontawesome.com License - https://fontawesome.com/license (Commercial License) Copyright 2022 Fonticons, Inc. --><path d="M288 48V256H432V54.63L363.3 123.3C357.1 129.6 346.9 129.6 340.7 123.3C334.4 117.1 334.4 106.9 340.7 100.7L436.7 4.687C442.9-1.562 453.1-1.562 459.3 4.687L555.3 100.7C561.6 106.9 561.6 117.1 555.3 123.3C549.1 129.6 538.9 129.6 532.7 123.3L464 54.63V256H512C547.3 256 576 284.7 576 320V425C570.7 421.9 564.8 419.6 558.5 418.1C553.7 416.1 548.8 415.4 544 413.3V320C544 302.3 529.7 288 512 288H64C46.33 288 32 302.3 32 320V413.3C27.21 415.4 22.32 416.1 17.49 418.1C11.19 419.6 5.326 421.9 0 425V320C0 284.7 28.65 256 64 256V48C64 21.49 85.49 0 112 0H240C266.5 0 288 21.49 288 48L288 48zM96 48V256H256V48C256 39.16 248.8 32 240 32H112C103.2 32 96 39.16 96 48zM250.1 458.8C259.9 452.1 268.2 444.8 276.1 436.9C282.6 430.4 293.3 430.4 299.8 436.9C307.8 444.8 315.1 452.1 325.8 458.8C342.3 470 363.1 479.1 383.1 479.1C404.9 479.1 425.6 470 442.2 458.8C451.9 452.1 460.2 444.8 468.1 436.9C474.6 430.4 485.3 430.4 491.8 436.9C499.8 444.8 507.1 452.1 517.8 458.8C530.6 467.5 545.9 475.4 561.9 478.6C569.6 480.1 576 486.4 576 494.2C576 504 567.1 512.1 558.3 510.4C535.2 506.5 514.7 495.4 499.8 485.2C491.8 479.8 485.1 474.4 479.1 469.1C474.8 474.4 468.1 479.8 460.2 485.2C441.5 497.9 414.3 511.1 383.1 511.1C353.7 511.1 326.4 497.9 307.8 485.2C299.8 479.8 293.1 474.4 287.1 469.1C282.8 474.4 276.1 479.8 268.2 485.2C249.5 497.9 222.3 511.1 191.1 511.1C161.7 511.1 134.4 497.9 115.8 485.2C107.8 479.8 101.1 474.4 95.96 469.1C90.82 474.4 84.12 479.8 76.19 485.2C61.25 495.4 40.81 506.5 17.69 510.4C8.016 512.1 .0006 504 .0006 494.2C.0006 486.4 6.422 480.1 14.13 478.6C30.07 475.4 45.38 467.5 58.16 458.8C67.94 452.1 76.16 444.8 84.07 436.9C90.64 430.4 101.3 430.4 107.8 436.9C115.8 444.8 124.1 452.2 133.8 458.8C150.3 470 171.1 479.1 191.1 479.1C212.9 479.1 233.6 470 250.1 458.8H250.1z"/></svg>