<svg xmlns="http://www.w3.org/2000/svg" viewBox="0 0 384 512"><!--! Font Awesome Pro 6.0.0-beta3 by @fontawesome - https://fontawesome.com License - https://fontawesome.com/license (Commercial License) Copyright 2021 Fonticons, Inc. --><path d="M347.3 171.3c-6.25 6.25-16.38 6.25-22.62 0L208 54.63V432c0 44.13-35.89 80-80 80H16C7.156 512 0 504.8 0 496S7.156 480 16 480H128c26.47 0 48-21.53 48-48V54.63L59.31 171.3c-6.25 6.25-16.38 6.25-22.62 0s-6.25-16.38 0-22.62l144-144C183.8 1.562 187.9 0 192 0c4.094 0 8.188 1.562 11.31 4.688l144 144C353.6 154.9 353.6 165.1 347.3 171.3z"/></svg>