<svg xmlns="http://www.w3.org/2000/svg" viewBox="0 0 512 512"><!--! Font Awesome Pro 6.0.0-beta3 by @fontawesome - https://fontawesome.com License - https://fontawesome.com/license (Commercial License) Copyright 2021 Fonticons, Inc. --><path d="M336 224l96-.0039c8.844 0 16-7.152 16-15.1S440.8 192 432 192h-32V48C400 39.16 392.8 32 384 32h-32c-8.844 0-16 7.156-16 16S343.2 64 352 64h16v128h-32C327.2 192 320 199.2 320 208S327.2 224 336 224zM384 256c-44.13 0-80 35.88-80 80S339.9 416 384 416c16.73 0 32.25-5.199 45.11-14.01C421.3 428.5 396.1 448 368 448c-8.844 0-16 7.156-16 16s7.156 16 16 16c52.94 0 96-43.06 96-96v-48C464 291.9 428.1 256 384 256zM384 384c-26.47 0-48-21.53-48-48S357.5 288 384 288s48 21.53 48 48S410.5 384 384 384zM224 352c-4.094 0-8.188 1.562-11.31 4.688L144 425.4V48C144 39.16 136.8 32 128 32S112 39.16 112 48v377.4l-68.69-68.69c-6.25-6.25-16.38-6.25-22.62 0s-6.25 16.38 0 22.62l96 96c6.25 6.25 16.38 6.25 22.62 0l96-96c6.25-6.25 6.25-16.38 0-22.62C232.2 353.6 228.1 352 224 352z"/></svg>