<svg xmlns="http://www.w3.org/2000/svg" viewBox="0 0 512 512"><!--! Font Awesome Pro 6.1.1 by @fontawesome - https://fontawesome.com License - https://fontawesome.com/license (Commercial License) Copyright 2022 Fonticons, Inc. --><path d="M336 192h63.1c26.4 0 48-21.6 48-48v-64c0-26.4-21.6-48-48-48H336C309.6 32 288 53.6 288 80v64C288 170.4 309.6 192 336 192zM320 80C320 71.33 327.3 64 336 64h63.1c8.674 0 16 7.328 16 16v64c0 8.672-7.326 16-16 16H336C327.3 160 320 152.7 320 144V80zM464 256h-128C309.5 256 288 277.5 288 304v128c0 26.51 21.49 48 48 48h128c26.51 0 48-21.49 48-48v-128C512 277.5 490.5 256 464 256zM480 432c0 8.824-7.178 16-16 16h-128c-8.822 0-16-7.176-16-16v-128C320 295.2 327.2 288 336 288h128C472.8 288 480 295.2 480 304V432zM139.3 36.69c-6.25-6.25-16.38-6.25-22.62 0l-96 96c-6.25 6.25-6.25 16.38 0 22.62s16.38 6.25 22.62 0L112 86.63V464C112 472.8 119.2 480 128 480s16-7.156 16-16V86.63l68.69 68.69C215.8 158.4 219.9 160 224 160s8.188-1.562 11.31-4.688c6.25-6.25 6.25-16.38 0-22.62L139.3 36.69z"/></svg>