<svg xmlns="http://www.w3.org/2000/svg" viewBox="0 0 576 512"><!--! Font Awesome Pro 6.0.0-beta3 by @fontawesome - https://fontawesome.com License - https://fontawesome.com/license (Commercial License) Copyright 2021 Fonticons, Inc. --><path d="M304 336h192c8.844 0 16-7.156 16-16s-7.156-16-16-16h-192c-8.844 0-15.1 7.156-15.1 16S295.2 336 304 336zM304 208h128C440.8 208 448 200.8 448 192s-7.156-16-16-16h-128c-8.844 0-15.1 7.156-15.1 16S295.2 208 304 208zM304 80h64c8.844 0 16-7.156 16-16S376.8 48 368 48h-64c-8.844 0-15.1 7.156-15.1 16S295.2 80 304 80zM560 432h-256c-8.844 0-15.1 7.156-15.1 16S295.2 464 304 464h256c8.844 0 16-7.156 16-16S568.8 432 560 432zM139.3 36.69c-6.25-6.25-16.38-6.25-22.62 0l-96 96c-6.25 6.25-6.25 16.38 0 22.62s16.38 6.25 22.62 0L112 86.63V464c0 8.844 7.157 16 16 16S144 472.8 144 464V86.63l68.69 68.69C215.8 158.4 219.9 160 224 160s8.188-1.562 11.31-4.688c6.25-6.25 6.25-16.38 0-22.62L139.3 36.69z"/></svg>