<svg xmlns="http://www.w3.org/2000/svg" viewBox="0 0 512 512"><!--! Font Awesome Pro 6.1.1 by @fontawesome - https://fontawesome.com License - https://fontawesome.com/license (Commercial License) Copyright 2022 Fonticons, Inc. --><path d="M148.7 443.3l-144-144C1.563 296.2 0 292.1 0 288s1.562-8.188 4.688-11.31l144-144c6.25-6.25 16.38-6.25 22.62 0s6.25 16.38 0 22.62L54.63 272H432C458.5 272 480 250.5 480 224V48C480 39.16 487.2 32 496 32S512 39.16 512 48v175.1C512 268.1 476.1 304 432 304H54.63l116.7 116.7c6.25 6.25 6.25 16.38 0 22.62S154.9 449.6 148.7 443.3z"/></svg>