<svg xmlns="http://www.w3.org/2000/svg" viewBox="0 0 512 512"><!--! Font Awesome Pro 6.0.0-beta3 by @fontawesome - https://fontawesome.com License - https://fontawesome.com/license (Commercial License) Copyright 2021 Fonticons, Inc. --><path d="M336 223.1l96 .0059c26.51 0 48-21.49 48-48.01V80c0-26.51-21.49-48-48-48h-96c-26.51 0-48 21.49-48 48v95.99C288 202.5 309.5 223.1 336 223.1zM320 80c0-8.824 7.178-16 16-16h96c8.822 0 16 7.176 16 16v95.99c0 8.824-7.178 16-16 16h-96c-8.822 0-16-7.176-16-16V80zM492.1 438.9l-83.13-137.1c-5.562-9.188-15.28-13.76-24.97-13.76s-19.34 4.573-24.91 13.76l-83.25 137.1c-11 18.25 2.75 41.13 25 41.13h166.3C489.4 480 503.1 457.1 492.1 438.9zM307.8 448l76.29-125.6l76.18 125.6H307.8zM224 352c-4.094 0-8.188 1.562-11.31 4.688L144 425.4V48c0-8.844-7.156-15.1-16-15.1S112 39.16 112 48v377.4l-68.69-68.69c-6.25-6.25-16.38-6.25-22.62 0s-6.25 16.38 0 22.62l96 96c6.25 6.25 16.38 6.25 22.62 0l96-96c6.25-6.25 6.25-16.38 0-22.62C232.2 353.6 228.1 352 224 352z"/></svg>