<svg xmlns="http://www.w3.org/2000/svg" viewBox="0 0 512 512"><!--! Font Awesome Pro 6.1.1 by @fontawesome - https://fontawesome.com License - https://fontawesome.com/license (Commercial License) Copyright 2022 Fonticons, Inc. --><path d="M444.9 256c15.5-20.25 26.56-40.63 31.68-60c6-22.62 4-43.38-6-60.25c-18.25-30.5-60.38-42.88-113.5-38.38C333.9 37.75 297.6 0 256 0S178.1 37.75 155 97.38c-53.25-4.5-95.38 7.875-113.5 38.38C31.38 152.6 29.38 173.4 35.38 196C40.5 215.4 51.56 235.8 67.06 256C51.56 276.3 40.5 296.6 35.38 316c-6 22.62-4 43.38 6 60.25c15.88 26.5 49.63 39.5 93.13 39.5c6.375 0 13.5-1.25 20.25-1.75C177.1 473.9 214.3 512 256 512s77.1-38.13 101.3-97.1c6.75 .4997 13.88 1.75 20.25 1.75c43.5 0 77.25-13 93-39.5c10.12-16.88 12.12-37.63 6.125-60.25C471.5 296.6 460.4 276.3 444.9 256zM68.88 359.8c-5.5-9.25-6.375-21.25-2.625-35.5C69.1 310.5 77.88 295.9 88.63 281c13.5 13.88 28 26.62 43.25 38.38c2.625 21.62 6.875 43 12.62 64C106.8 385.3 79.13 376.9 68.88 359.8zM128.4 274.8C121.6 268.5 115.3 262.3 109.3 256c6-6.25 12.38-12.5 19.12-18.75C128.3 243.5 128 249.6 128 256S128.3 268.5 128.4 274.8zM131.9 192.5C116.6 204.3 102.1 217.1 88.63 231C77.88 216.1 69.1 201.4 66.25 187.8C62.5 173.5 63.38 161.5 68.88 152.3c9.25-15.5 32.75-24 65.25-24c3.25 0 6.875 .25 10.38 .375C138.8 149.6 134.5 171 131.9 192.5zM343.8 167c-8.375-5.25-16.88-10.5-25.88-15.5C311.5 147.9 305 144.6 298.6 141.4c12-3.625 24.25-6.5 36.5-8.875C337.1 142 341.9 157.4 343.8 167zM256 32c24.12 0 49.5 26 68.25 70C300.9 106.8 278.1 113.5 256 122.3C233.9 113.5 211.1 106.8 187.8 102C206.5 58 231.9 32 256 32zM176.9 132.5c12.25 2.375 24.5 5.25 36.5 8.875C207 144.6 200.5 148 194.1 151.5c-9 5-17.5 10.25-25.88 15.5C170.1 157.4 173.1 142 176.9 132.5zM168.3 345c8.375 5.25 16.88 10.5 25.88 15.5c6.75 3.75 13.38 6.5 20.12 9.875c-12.25 3.75-24.75 6.75-37.38 9.125C173.4 368.1 170.6 356.6 168.3 345zM256 480c-24.12 0-49.75-26.25-68.38-70.5C211 404.8 233.9 398 256 389.3c22.12 8.75 45 15.5 68.38 20.25C305.8 453.8 280.1 480 256 480zM335.1 379.5c-12.62-2.375-25-5.375-37.25-9.125c6.625-3.375 13.38-6.125 20-9.875c9-5 17.5-10.25 25.88-15.5C341.4 357.1 338.4 368.6 335.1 379.5zM349.9 302c-15.25 11.12-31.12 21.37-47.5 30.5c-15.12 8.375-30.5 16-46.38 22.62c-15.88-6.625-31.25-14.25-46.38-22.62c-16.38-9.125-32.25-19.38-47.5-30.38C160.8 287.4 160 272 160 256s.7443-31.38 2.119-45.1c15.25-11.13 31.12-21.38 47.5-30.5C224.8 171 240.1 163.5 256 156.8C271.9 163.5 287.3 171 302.4 179.5c16.38 9.125 32.25 19.38 47.5 30.38C351.3 224.6 351.1 240 351.1 256S351.3 287.4 349.9 302zM377.1 128.3c32.38 0 55.88 8.5 65.13 24c5.5 9.25 6.375 21.25 2.625 35.5c-3.75 13.62-11.62 28.38-22.38 43.25c-13.5-13.88-28-26.75-43.25-38.38c-2.625-21.62-6.875-43-12.62-63.88C371 128.5 374.6 128.3 377.1 128.3zM383.6 237.3C390.4 243.5 396.8 249.8 402.8 256c-6 6.25-12.38 12.5-19.12 18.75C383.8 268.5 384 262.4 384 256S383.8 243.5 383.6 237.3zM443.1 359.8c-10.25 17.12-37.88 25.5-75.63 23.62c5.75-21 10-42.38 12.62-64c15.25-11.62 29.75-24.5 43.25-38.38c10.75 14.88 18.62 29.5 22.38 43.25C449.5 338.5 448.6 350.5 443.1 359.8zM256 232C242.8 232 232 242.8 232 256S242.8 280 256 280S280 269.3 280 256S269.3 232 256 232z"/></svg>