<svg xmlns="http://www.w3.org/2000/svg" viewBox="0 0 448 512"><!--! Font Awesome Pro 6.1.1 by @fontawesome - https://fontawesome.com License - https://fontawesome.com/license (Commercial License) Copyright 2022 Fonticons, Inc. --><path d="M315.8 224H432C440.8 224 448 231.2 448 240C448 248.8 440.8 256 432 256H329.4L356.4 320H432C440.8 320 448 327.2 448 336C448 344.8 440.8 352 432 352H369.1L414.7 457.8C418.2 465.9 414.4 475.3 406.2 478.7C398.1 482.2 388.7 478.4 385.3 470.2L335.2 352H112.8L62.74 470.2C59.29 478.4 49.9 482.2 41.77 478.7C33.63 475.3 29.82 465.9 33.26 457.8L78.01 352H16C7.164 352 0 344.8 0 336C0 327.2 7.164 320 16 320H91.55L118.6 256H16C7.164 256 0 248.8 0 240C0 231.2 7.164 224 16 224H132.2L209.3 41.77C211.8 35.85 217.6 32 224 32C230.4 32 236.2 35.85 238.7 41.77L315.8 224zM281.1 224L223.1 89.06L166.9 224H281.1zM153.4 256L126.3 320H321.7L294.6 256H153.4z"/></svg>