<svg xmlns="http://www.w3.org/2000/svg" viewBox="0 0 512 512"><!--! Font Awesome Pro 6.0.0-beta3 by @fontawesome - https://fontawesome.com License - https://fontawesome.com/license (Commercial License) Copyright 2021 Fonticons, Inc. --><path d="M512 142.3c0-72.05-56.44-142.3-140.5-142.3c-39.21 0-78.71 15.73-108.1 45.17C232.4 76.31 192.1 97.3 150.6 108.9C115.4 118.6 .0005 170.8 .0005 306.7c0 113.8 92.76 205.3 205.1 205.3c52.37 0 104.7-20.04 144.7-60.13c67.65-67.87 42.56-130 115.1-203.7l4.357-4.371C498 215.8 512 179.1 512 142.3zM479.1 142.3c0 29.51-11.7 58.04-32.57 78.98l-4.357 4.371c-32.82 32.93-57.16 76.5-72.33 129.5C356.6 404.6 304.3 480 205.1 480c-75.36 0-173-60.5-173-173.3c0-80.95 55.22-147.2 127.1-166.9C287.8 104.5 283.4 32 371.5 32C439.4 32 479.1 89.86 479.1 142.3zM247 176c-68.1 0-134.9 65.3-134.9 135.4c0 59.15 44.98 88.59 88.34 88.59c.0313 0 0 0 0 0c69 0 134.9-65.3 134.9-135.4C335.3 205.4 290.4 176 247 176zM303.6 264.7c0 50.51-49.57 102.7-103.7 102.7c-43.79 0-56.09-33.89-56.09-56.1C143.8 260.2 194.8 208 247 208C281.5 208 303.6 231.7 303.6 264.7z"/></svg>