<svg xmlns="http://www.w3.org/2000/svg" viewBox="0 0 384 512"><!--! Font Awesome Pro 6.0.0-beta3 by @fontawesome - https://fontawesome.com License - https://fontawesome.com/license (Commercial License) Copyright 2021 Fonticons, Inc. --><path d="M192 104C143.4 104 104 143.3 104 192c0 48.58 39.39 88 87.1 88S279.1 240.6 279.1 192C279.1 143.3 240.6 104 192 104zM192 248C161.1 248 136 222.9 136 192c0-30.88 25.12-56 55.1-56S247.1 161.1 247.1 192C247.1 222.9 222.9 248 192 248zM384 192c0-16.5-17.27-30.52-21.34-45.73c-4.207-15.75 3.608-36.5-4.369-50.29c-8.086-13.98-30.03-17.52-41.37-28.87c-11.35-11.35-14.88-33.29-28.87-41.39c-13.76-7.963-34.62-.1888-50.29-4.378C222.5 17.27 208.5 0 192 0C175.5 0 161.5 17.27 146.3 21.34C130.5 25.54 109.7 17.74 95.98 25.71C81.1 33.79 78.46 55.74 67.11 67.08C55.77 78.43 33.82 81.96 25.73 95.95C17.74 109.7 25.55 130.5 21.35 146.2C17.27 161.5 0 175.5 0 192c0 16.5 17.27 30.52 21.34 45.73c4.207 15.75-3.612 36.5 4.365 50.29C33.8 302 55.74 305.5 67.08 316.9c11.35 11.35 14.88 33.29 28.86 41.39c13.74 7.951 34.62 .1803 50.29 4.38C161.5 366.7 175.5 384 192 384c16.5 0 30.52-17.27 45.74-21.34c15.72-4.207 36.5 3.603 50.29-4.368c13.98-8.088 17.52-30.03 28.87-41.38c11.35-11.35 33.29-14.88 41.39-28.86c7.981-13.79 .1698-34.54 4.377-50.29C366.7 222.5 384 208.5 384 192zM331.7 229.5c-4.404 16.49-1.34 32.1-1.695 42.27c-7.858 4.969-23.64 10.38-35.78 22.52c-12.03 12.03-17.59 27.99-22.5 35.75c-9.195 .4141-25.54-2.775-42.28 1.703c-16.71 4.467-29.4 15.76-37.48 19.79c-8.029-4.002-20.8-15.34-37.48-19.79c-16.71-4.477-33.04-1.301-42.29-1.717C107.3 322.2 101.8 306.4 89.71 294.3C77.6 282.1 61.86 276.8 53.94 271.7C53.59 262.5 56.7 246.1 52.25 229.5c-4.465-16.71-15.77-29.39-19.8-37.48c3.996-8.025 15.33-20.77 19.8-37.5c4.434-16.6 1.33-32.88 1.697-42.27c7.854-4.971 23.64-10.37 35.78-22.52C101.8 77.68 107.3 61.72 112.2 53.95c9.194-.377 25.64 2.738 42.28-1.701c16.74-4.475 29.33-15.74 37.48-19.79c8.027 3.992 20.77 15.33 37.49 19.8c16.74 4.471 33.01 1.295 42.28 1.711c4.84 7.65 10.45 23.71 22.51 35.76c12.03 12.04 28 17.61 35.77 22.52c.3555 9.273-2.752 25.64 1.693 42.28c4.469 16.71 15.77 29.38 19.79 37.47C347.6 200 336.2 212.8 331.7 229.5zM303.7 399.7c-1.813-8.656-10.16-14.23-18.94-12.39c-8.625 1.797-14.19 10.27-12.38 18.92l17.47 73.84l-90.66-45.33c-4.5-2.25-9.813-2.25-14.31 0l-88.88 46.72l15.69-75.23c1.813-8.656-3.75-17.12-12.38-18.92c-8.688-1.844-17.16 3.734-18.94 12.39l-15.69 75.25c-2.438 11.64 1.938 23.38 11.34 30.62c9.438 7.234 21.84 8.438 32.5 3.125L192 466.1l83.5 41.75C279.9 510.9 284.6 512 289.3 512c6.625 0 13.16-2.172 18.69-6.406c9.406-7.25 13.78-18.98 11.34-30.64L303.7 399.7z"/></svg>