<svg xmlns="http://www.w3.org/2000/svg" viewBox="0 0 512 512"><!--! Font Awesome Pro 6.0.0-beta3 by @fontawesome - https://fontawesome.com License - https://fontawesome.com/license (Commercial License) Copyright 2021 Fonticons, Inc. --><path d="M101 13.61C99.03 5.105 92.19 0 85.06 0C81.31 0 77.38 1.479 74.25 4.729C28.63 50.85 0 117.6 0 192s28.62 141.1 74.25 187.3C77.38 382.5 81.31 384 85.06 384c7.125 0 13.97-5.105 15.97-13.61C114.4 314.8 156.3 272.9 208 265.5V233.3C117.1 246.1 85.63 318.5 78.63 335.5C48.75 295.9 32 244.9 32 192s16.75-103.9 46.63-143.5C85.63 65.5 117.1 137.9 208 150.8V118.5C156.3 111.1 114.4 69.23 101 13.61zM512 160.9c-6.75-61.75-35.13-116.6-74.25-156.1C434.6 1.5 430.8 0 427 0c-7.125 0-14 5.125-16 13.62C397.6 69.25 355.8 111.1 304 118.5v32.25c90.88-12.88 122.4-85.25 129.4-102.3c21.75 28.88 36.62 63.75 43 101.4L435.4 192l41 42.13c-6.375 37.63-21.25 72.5-43 101.5C426.4 318.5 394.9 246.1 304 233.3V265.5c51.75 7.375 93.63 49.25 107 104.9c2 8.5 8.727 13.63 15.85 13.63c3.75 0 7.773-1.502 10.9-4.752C476.9 339.8 505.3 284.9 512 223.1L480 192L512 160.9zM256 32c-8.836 0-16 7.161-16 15.1v448C240 504.8 247.2 512 256 512s16-7.164 16-15.1V48C272 39.16 264.8 32 256 32z"/></svg>