<svg xmlns="http://www.w3.org/2000/svg" viewBox="0 0 512 512"><!--! Font Awesome Pro 6.1.1 by @fontawesome - https://fontawesome.com License - https://fontawesome.com/license (Commercial License) Copyright 2022 Fonticons, Inc. --><path d="M.6624 223.1C.4243 221.1 .2502 218.3 .1405 215.4C.0467 212.9 0 210.5 0 208V192H.1405C2.742 117.9 41.34 52.95 98.99 14.1C112.2 5.175 129.8 9.784 138.9 22.92L256 192L416 192V144C416 117.5 437.5 96 464 96H496C504.8 96 512 103.2 512 112C512 120.8 504.8 128 496 128H464C455.2 128 448 135.2 448 144V216H447.8C447.7 218.7 447.6 221.3 447.3 224C445.5 246.2 439.8 268 430.5 288.5C419.1 313.1 402.3 336.9 381.4 356C360.5 375.2 335.8 390.3 308.8 400.5C281.9 410.8 253 416 224 416C194.1 416 166.1 410.8 139.2 400.5C112.2 390.3 87.52 375.2 66.61 356C45.7 336.9 28.94 313.1 17.45 288.5C8.178 268 2.506 246.2 .6627 223.1H.6624zM217.1 192L113.7 42.8C66.27 76.16 34.68 130.4 32.16 192H217.1zM46.61 275.4C56.26 296.7 70.41 316.1 88.24 332.5C106.1 348.8 127.2 361.8 150.5 370.6C173.8 379.4 198.8 384 223.1 384C249.2 384 274.2 379.4 297.5 370.6C320.8 361.8 341.9 348.8 359.8 332.5C377.6 316.1 391.7 296.7 401.4 275.4C408.8 258.9 413.4 241.6 415.2 224H256C255.9 224 255.9 224 255.8 224H32.79C34.55 241.6 39.2 258.9 46.62 275.4H46.61zM31.1 464C31.1 437.5 53.49 416 79.1 416C106.5 416 127.1 437.5 127.1 464C127.1 490.5 106.5 512 79.1 512C53.49 512 31.1 490.5 31.1 464zM79.1 480C88.84 480 95.1 472.8 95.1 464C95.1 455.2 88.84 448 79.1 448C71.16 448 63.1 455.2 63.1 464C63.1 472.8 71.16 480 79.1 480zM416 464C416 490.5 394.5 512 368 512C341.5 512 320 490.5 320 464C320 437.5 341.5 416 368 416C394.5 416 416 437.5 416 464zM368 448C359.2 448 352 455.2 352 464C352 472.8 359.2 480 368 480C376.8 480 384 472.8 384 464C384 455.2 376.8 448 368 448z"/></svg>