<svg xmlns="http://www.w3.org/2000/svg" viewBox="0 0 320 512"><!--! Font Awesome Pro 6.0.0-beta3 by @fontawesome - https://fontawesome.com License - https://fontawesome.com/license (Commercial License) Copyright 2021 Fonticons, Inc. --><path d="M257.4 64c-6.75 0-13.41 2.344-18.91 6.875L64 214.2V80C64 71.16 56.84 64 48 64S32 71.16 32 80v352C32 440.8 39.16 448 48 448S64 440.8 64 432V297.8l174.5 143.3C243.1 445.7 250.6 448 257.4 448C267.7 448 288 439.9 288 415.1V96.03C288 72.13 267.7 64 257.4 64zM256 416.4L64.52 256L256 95.59V416.4z"/></svg>