<svg xmlns="http://www.w3.org/2000/svg" viewBox="0 0 448 512"><!--! Font Awesome Pro 6.1.1 by @fontawesome - https://fontawesome.com License - https://fontawesome.com/license (Commercial License) Copyright 2022 Fonticons, Inc. --><path d="M96 360c-13.25 0-24 10.74-24 24c0 13.25 10.75 24 24 24c13.26 0 24-10.75 24-24C120 370.7 109.3 360 96 360zM352 368H176C167.2 368 160 375.2 160 384s7.156 16 16 16H352c8.844 0 16-7.156 16-16S360.8 368 352 368zM101.3 288c4.094 0 8.188-1.562 11.31-4.688l58.67-58.67c6.25-6.25 6.25-16.38 0-22.62s-16.38-6.25-22.62 0L101.3 249.4L83.31 231.4c-6.25-6.25-16.38-6.25-22.62 0s-6.25 16.38 0 22.62l29.33 29.33C93.14 286.4 97.23 288 101.3 288zM96 152c13.26 0 24-10.75 24-24c0-13.26-10.74-24-24-24C82.75 104 72 114.7 72 128C72 141.3 82.75 152 96 152zM352 240H208C199.2 240 192 247.2 192 256s7.156 16 16 16H352c8.844 0 16-7.156 16-16S360.8 240 352 240zM384 0H64C28.65 0 0 28.65 0 64v384c0 35.35 28.65 64 64 64h320c35.35 0 64-28.65 64-64V64C448 28.65 419.3 0 384 0zM416 448c0 17.64-14.36 32-32 32H64c-17.64 0-32-14.36-32-32V64c0-17.64 14.36-32 32-32h320c17.64 0 32 14.36 32 32V448zM352 112H176C167.2 112 160 119.2 160 128s7.156 16 16 16H352c8.844 0 16-7.156 16-16S360.8 112 352 112z"/></svg>