<svg xmlns="http://www.w3.org/2000/svg" viewBox="0 0 640 512"><!--! Font Awesome Pro 6.0.0-beta3 by @fontawesome - https://fontawesome.com License - https://fontawesome.com/license (Commercial License) Copyright 2021 Fonticons, Inc. --><path d="M160 80C115.9 80 80 115.9 80 160c0 8.844 7.156 16 16 16S112 168.8 112 160c0-26.47 21.53-48 48-48c8.844 0 16-7.156 16-16S168.8 80 160 80zM160 0C71.78 0 0 74.84 0 166.8c0 69.53 76.04 164.7 126.8 201.5l-35.69 54.92c-3.219 4.906-3.469 11.19-.6562 16.34S98.66 448 104.5 448h110.9c5.875 0 11.25-3.219 14.06-8.375s2.562-11.44-.6562-16.34l-35.69-54.92C243.1 331.5 320 236.4 320 166.8C320 74.84 248.2 0 160 0zM133.1 416l20.8-32h10.4l20.8 32H133.1zM161.4 352H161C139.3 346.2 32 239.5 32 166.8C32 92.5 89.41 32 160 32s128 60.5 128 134.8C288 239.5 180.7 346.2 161.4 352zM432 224c0-26.47 21.53-48 48-48c8.844 0 16-7.156 16-16S488.8 144 480 144c-44.13 0-80 35.88-80 80c0 8.844 7.156 16 16 16S432 232.8 432 224zM640 230.8C640 138.8 568.2 64 480 64c-39.56 0-77.53 15.19-106.9 42.72c-6.438 6.062-6.781 16.19-.75 22.62c6.094 6.531 16.19 6.75 22.62 .75C418.4 108.1 448.6 96 480 96c70.59 0 128 60.5 128 134.8C608 303.4 500.9 410 481.5 416h-.5098c-14.75-3.977-84.6-66.21-115.9-134.7c-3.688-8.062-13.28-11.5-21.22-7.906C335.9 277.1 332.3 286.6 336 294.7c23.8 52.07 74.26 109.1 111.1 137.3l-35.94 55.3c-3.219 4.906-3.469 11.19-.6562 16.34S418.7 512 424.5 512h110.9c5.875 0 11.25-3.219 14.06-8.375s2.562-11.44-.6562-16.34l-35.69-54.92C563.1 395.5 640 300.4 640 230.8zM453.1 480l20.8-32h10.4l20.8 32H453.1z"/></svg>