<svg xmlns="http://www.w3.org/2000/svg" viewBox="0 0 512 512"><!--! Font Awesome Pro 6.0.0-beta3 by @fontawesome - https://fontawesome.com License - https://fontawesome.com/license (Commercial License) Copyright 2021 Fonticons, Inc. --><path d="M256 0C114.8 0 0 114.8 0 256s114.8 256 256 256s256-114.8 256-256S397.2 0 256 0zM256 480c-123.5 0-224-100.5-224-224c0-56 20.81-107.1 54.91-146.5L201.4 224H128C110.3 224 96 238.3 96 256v32c0 17.66 14.34 32 32 32h169.4l105.1 105.1C363.1 459.2 312 480 256 480zM233.4 256l32 32H128V256H233.4zM425.1 402.5L341.5 318.9C347.6 316.6 352 310.9 352 304C352 295.2 344.8 288 336 288h-25.38l-32-32H336C344.8 256 352 248.8 352 240S344.8 224 336 224H246.6L109.5 86.91C148.9 52.81 199.1 32 256 32c123.5 0 224 100.5 224 224C480 312 459.2 363.1 425.1 402.5zM400 224C391.2 224 384 231.2 384 240v64c0 8.844 7.156 16 16 16S416 312.8 416 304v-64C416 231.2 408.8 224 400 224zM398.9 193.1c8.844 0 16-7.156 16-16c0-35.28-31.44-64-70.06-64h-34.75c-11.41 0-22.16-4.281-29.44-11.78c-5.746-5.902-8.807-13.33-8.592-20.89l.0918-2.795l-.5859-.0195C270.4 70.14 264.3 64.22 256.5 64h-.4518C247.4 64 240.3 70.88 240 79.56c-.4375 16.31 5.844 31.97 17.66 44.09c13.28 13.66 32.38 21.47 52.38 21.47h34.75c21 0 38.06 14.34 38.06 32C382.9 185.1 390 193.1 398.9 193.1z"/></svg>