<svg xmlns="http://www.w3.org/2000/svg" viewBox="0 0 512 512"><!--! Font Awesome Pro 6.0.0-beta3 by @fontawesome - https://fontawesome.com License - https://fontawesome.com/license (Commercial License) Copyright 2021 Fonticons, Inc. --><path d="M176 257.9L238.1 320H208V368C208 376.8 200.8 384 192 384C183.2 384 176 376.8 176 368V257.9zM0 256C0 114.6 114.6 0 256 0C397.4 0 512 114.6 512 256C512 397.4 397.4 512 256 512C114.6 512 0 397.4 0 256zM256 480C312.1 480 363.4 459.4 402.7 425.3L86.7 109.3C52.62 148.6 32 199.9 32 256C32 379.7 132.3 480 256 480H256zM331.1 309.4L425.3 402.7C459.4 363.4 480 312.1 480 255.1C480 132.3 379.7 31.1 256 31.1C199.9 31.1 148.6 52.62 109.3 86.7L176 153.4V151.1C176 138.7 186.7 127.1 200 127.1H288C341 127.1 384 170.1 384 223.1C384 261.2 362.9 293.4 331.1 309.4V309.4zM307.6 284.1C333.3 276.7 352 252.5 352 224C352 188.7 323.3 160 288 160H208V185.4L307.6 284.1z"/></svg>