<svg xmlns="http://www.w3.org/2000/svg" viewBox="0 0 640 512"><!--! Font Awesome Pro 6.1.1 by @fontawesome - https://fontawesome.com License - https://fontawesome.com/license (Commercial License) Copyright 2022 Fonticons, Inc. --><path d="M248 208C248 194.7 258.7 184 272 184C285.3 184 296 194.7 296 208C296 221.3 285.3 232 272 232C258.7 232 248 221.3 248 208zM392 208C392 221.3 381.3 232 368 232C354.7 232 344 221.3 344 208C344 194.7 354.7 184 368 184C381.3 184 392 194.7 392 208zM248 304C248 290.7 258.7 280 272 280C285.3 280 296 290.7 296 304C296 317.3 285.3 328 272 328C258.7 328 248 317.3 248 304zM392 304C392 317.3 381.3 328 368 328C354.7 328 344 317.3 344 304C344 290.7 354.7 280 368 280C381.3 280 392 290.7 392 304zM560 96C604.2 96 640 131.8 640 176V336C640 380.2 604.2 416 560 416H80C35.82 416 0 380.2 0 336V176C0 131.8 35.82 96 80 96H560zM480 384H560C586.5 384 608 362.5 608 336V176C608 149.5 586.5 128 560 128H480V384zM448 128H192V384H448V128zM160 384V128H80C53.49 128 32 149.5 32 176V336C32 362.5 53.49 384 80 384H160z"/></svg>