<svg xmlns="http://www.w3.org/2000/svg" viewBox="0 0 576 512"><!--! Font Awesome Pro 6.1.1 by @fontawesome - https://fontawesome.com License - https://fontawesome.com/license (Commercial License) Copyright 2022 Fonticons, Inc. --><path d="M48 32C39.16 32 32 39.16 32 48V144C32 152.8 24.84 160 16 160C7.164 160 0 152.8 0 144V48C0 21.49 21.49 0 48 0H144C152.8 0 160 7.164 160 16C160 24.84 152.8 32 144 32H48zM160 144V368C160 376.8 152.8 384 144 384C135.2 384 128 376.8 128 368V144C128 135.2 135.2 128 144 128C152.8 128 160 135.2 160 144zM192 144C192 135.2 199.2 128 208 128C216.8 128 224 135.2 224 144V368C224 376.8 216.8 384 208 384C199.2 384 192 376.8 192 368V144zM416 144C416 135.2 423.2 128 432 128C440.8 128 448 135.2 448 144V368C448 376.8 440.8 384 432 384C423.2 384 416 376.8 416 368V144zM288 144V368C288 376.8 280.8 384 272 384C263.2 384 256 376.8 256 368V144C256 135.2 263.2 128 272 128C280.8 128 288 135.2 288 144zM336 144C336 135.2 343.2 128 352 128C360.8 128 368 135.2 368 144V368C368 376.8 360.8 384 352 384C343.2 384 336 376.8 336 368V144zM544 48C544 39.16 536.8 32 528 32H432C423.2 32 416 24.84 416 16C416 7.164 423.2 0 432 0H528C554.5 0 576 21.49 576 48V144C576 152.8 568.8 160 560 160C551.2 160 544 152.8 544 144V48zM144 480C152.8 480 160 487.2 160 496C160 504.8 152.8 512 144 512H48C21.49 512 0 490.5 0 464V368C0 359.2 7.164 352 16 352C24.84 352 32 359.2 32 368V464C32 472.8 39.16 480 48 480H144zM544 368C544 359.2 551.2 352 560 352C568.8 352 576 359.2 576 368V464C576 490.5 554.5 512 528 512H432C423.2 512 416 504.8 416 496C416 487.2 423.2 480 432 480H528C536.8 480 544 472.8 544 464V368z"/></svg>