<svg xmlns="http://www.w3.org/2000/svg" viewBox="0 0 640 512"><!--! Font Awesome Pro 6.0.0-beta3 by @fontawesome - https://fontawesome.com License - https://fontawesome.com/license (Commercial License) Copyright 2021 Fonticons, Inc. --><path d="M64 48C64 39.16 71.16 32 80 32C88.84 32 96 39.16 96 48V192H64V48zM64 464V320H96V464C96 472.8 88.84 480 80 480C71.16 480 64 472.8 64 464zM144 480C135.2 480 128 472.8 128 464V320H160V464C160 472.8 152.8 480 144 480zM144 32C152.8 32 160 39.16 160 48V192H128V48C128 39.16 135.2 32 144 32zM192 464V320H224V464C224 472.8 216.8 480 208 480C199.2 480 192 472.8 192 464zM208 32C216.8 32 224 39.16 224 48V192H192V48C192 39.16 199.2 32 208 32zM288 464V320H320V464C320 472.8 312.8 480 304 480C295.2 480 288 472.8 288 464zM304 32C312.8 32 320 39.16 320 48V192H288V48C288 39.16 295.2 32 304 32zM352 464V320H384V464C384 472.8 376.8 480 368 480C359.2 480 352 472.8 352 464zM368 32C376.8 32 384 39.16 384 48V192H352V48C352 39.16 359.2 32 368 32zM448 464V320H480V464C480 472.8 472.8 480 464 480C455.2 480 448 472.8 448 464zM464 32C472.8 32 480 39.16 480 48V192H448V48C448 39.16 455.2 32 464 32zM544 464V320H576V464C576 472.8 568.8 480 560 480C551.2 480 544 472.8 544 464zM560 32C568.8 32 576 39.16 576 48V192H544V48C544 39.16 551.2 32 560 32zM16 240H624C632.8 240 640 247.2 640 256C640 264.8 632.8 272 624 272H16C7.164 272 0 264.8 0 256C0 247.2 7.164 240 16 240z"/></svg>