<svg xmlns="http://www.w3.org/2000/svg" viewBox="0 0 640 512"><!--! Font Awesome Pro 6.1.1 by @fontawesome - https://fontawesome.com License - https://fontawesome.com/license (Commercial License) Copyright 2022 Fonticons, Inc. --><path d="M627.3 60.18l-23.63-32.5c-22.63-31.12-64.75-35.87-93.63-14.87L307.8 159.7c-45.63 33.12-87.37 71.25-124.4 113.7c-29 33.37-72.53 78.59-130.3 120.6l-21.63 15.75c-.25-.375-11.25-17.5-25.5-6.248c-6.875 5.498-8 15.62-2.5 22.5l64 79.99c5.25 6.5 15.25 8.25 22.5 2.5c.5-.375 12.88-9.498 .125-25.5l18.12-13.25c66.01-47.87 122.4-72.46 155.2-86.46c51.88-21.1 101.2-49.88 146.9-82.1l202.3-146.7C642.3 131.8 648.9 90.05 627.3 60.18zM70.12 458l-18.62-23.25c28.88-20.87 71.75-50.62 125-106.2l32.25 44.37C140.6 405.8 99.25 436.8 70.12 458zM593.7 127.7c-247 179.1-243.1 182.5-359.9 233.7L195 308.3c84.88-94.99 86.51-90.12 333.8-269.5c14.88-10.75 37-8.75 49 7.623l23.5 32.5C612.8 94.54 609.3 116.3 593.7 127.7zM496.1 352C451.1 352 416 387.9 416 432c0 44.13 35.97 80 80.09 80s79.91-35.88 79.91-80C576 387.9 540.2 352 496.1 352zM496 480c-26.5 0-48-21.5-48-48c0-26.5 21.5-47.1 48-47.1c26.5 0 48 21.5 48 47.1C544 458.5 522.5 480 496 480z"/></svg>