<svg xmlns="http://www.w3.org/2000/svg" viewBox="0 0 640 512"><!--! Font Awesome Pro 6.0.0-beta3 by @fontawesome - https://fontawesome.com License - https://fontawesome.com/license (Commercial License) Copyright 2021 Fonticons, Inc. --><path d="M638.6 287.2L568.2 129.8c-5.375-12.38-17.75-19.5-30.62-19.5c-5.75 0-11.75 1.5-17.12 4.625l-104.9 60.37L383.1 64L333.9 112H306.1L255.1 64L224.4 175.2L119.5 114.9c-5.375-3.125-11.37-4.625-17.12-4.625c-12.88 0-25.25 7.125-30.62 19.5L1.375 287.2C-4.25 300 8.375 313.1 22 308.8L38.5 303.5c6.75-2.25 13.87-3.375 20.1-3.375c21.88 0 42.87 10.38 55.5 28.5L153.4 384l12.37-11.88c13-12.5 30.12-18.75 46.1-18.75c20.12 0 40.25 8.75 53.37 25.62L319.1 448l53.87-69c13.25-16.88 33.25-25.62 53.37-25.62c16.88 0 33.1 6.25 46.1 18.75L486.6 384l38.37-55.38c12.62-18.12 33.62-28.5 55.5-28.5c7 0 14.12 1.125 20.1 3.375l16.5 5.25C631.6 313.1 644.2 300 638.6 287.2zM580.5 268.1c-33.5 0-64.63 16-83.25 42.75l-17.25 25c-15.75-9.375-33.88-14.38-52.75-14.38c-31.87 0-61 14-80 38.38l-27.25 34.75l-27.25-34.75c-19-24.38-48.13-38.38-80-38.38c-18.88 0-37 5-52.75 14.38l-17.25-25C124.1 284.1 92.1 268.1 59.5 268.1c-4.625 0-9.25 .375-13.75 1L102.4 142.2L245.7 225L271.9 124.9L292.9 144h54.25l21-19.12l26.12 100.1l143.4-82.75l56.63 126.9C589.7 268.5 585.1 268.1 580.5 268.1z"/></svg>