<svg xmlns="http://www.w3.org/2000/svg" viewBox="0 0 512 512"><!--! Font Awesome Pro 6.0.0-beta3 by @fontawesome - https://fontawesome.com License - https://fontawesome.com/license (Commercial License) Copyright 2021 Fonticons, Inc. --><path d="M464 320c-8.844 0-16 7.156-16 16v32c0 44.11-35.89 80-80 80h-224C99.89 448 64 412.1 64 368v-32C64 327.2 56.84 320 48 320S32 327.2 32 336v32c0 30.4 12.27 57.93 32 78.13V496C64 504.8 71.16 512 80 512C88.84 512 96 504.8 96 496v-27.23C110.6 475.8 126.8 480 144 480h224c17.24 0 33.39-4.242 48-11.23V496c0 8.836 7.164 16 16 16c8.838 0 16-7.164 16-16v-49.87c19.73-20.2 32-47.74 32-78.13v-32C480 327.2 472.8 320 464 320zM496 256H64V61.25C64 45.13 77.13 32 93.25 32C100.1 32 108.5 35.13 113.9 40.56l25.32 25.32C121.6 93.88 124.8 131.3 149.2 155.7l12.88 12.88C158.9 174.6 159.6 182.2 164.7 187.3C167.8 190.4 171.9 192 176 192s8.188-1.562 11.31-4.688l96-96c6.25-6.25 6.25-16.38 0-22.62c-5.104-5.104-12.69-5.811-18.74-2.582L251.7 53.22C237.5 39.07 218.1 32 200.5 32C187 32 173.6 35.83 161.9 43.26L136.6 17.94C125 6.375 109.6 0 93.25 0C59.48 0 32 27.47 32 61.25v194.8L16 256C7.164 256 0 263.2 0 272S7.164 288 16 288h480C504.8 288 512 280.8 512 272S504.8 256 496 256zM171.8 75.85C179.5 68.21 189.6 64 200.5 64s20.96 4.207 28.61 11.85l12.23 12.23L184.1 145.3L171.8 133.1C156.1 117.3 156.1 91.62 171.8 75.85z"/></svg>