<svg xmlns="http://www.w3.org/2000/svg" viewBox="0 0 576 512"><!--! Font Awesome Pro 6.1.1 by @fontawesome - https://fontawesome.com License - https://fontawesome.com/license (Commercial License) Copyright 2022 Fonticons, Inc. --><path d="M208 128H80C53.49 128 32 149.5 32 176V336C32 362.5 53.49 384 80 384H208.5C209.1 396 214.8 407 222 416H80C35.82 416 0 380.2 0 336V176C0 131.8 35.82 96 80 96H208L208 128zM336 96H432C476.2 96 512 131.8 512 176V336C512 380.2 476.2 416 432 416H321.1C329.2 407 334 396 335.5 384H432C458.5 384 480 362.5 480 336V176C480 149.5 458.5 128 432 128H336L336 96zM560 192C568.8 192 576 199.2 576 208V304C576 312.8 568.8 320 560 320C551.2 320 544 312.8 544 304V208C544 199.2 551.2 192 560 192zM296 376C296 389.3 285.3 400 272 400C258.7 400 248 389.3 248 376C248 362.7 258.7 352 272 352C285.3 352 296 362.7 296 376zM288 304C288 312.8 280.8 320 272 320C263.2 320 256 312.8 256 304V112C256 103.2 263.2 96 272 96C280.8 96 288 103.2 288 112V304z"/></svg>