<svg xmlns="http://www.w3.org/2000/svg" viewBox="0 0 576 512"><!--! Font Awesome Pro 6.0.0-beta3 by @fontawesome - https://fontawesome.com License - https://fontawesome.com/license (Commercial License) Copyright 2021 Fonticons, Inc. --><path d="M560 192C551.2 192 544 199.2 544 208v96c0 8.844 7.156 16 16 16S576 312.8 576 304v-96C576 199.2 568.8 192 560 192zM448 96H64C28.65 96 0 124.7 0 160v192c0 35.35 28.65 64 64 64h384c35.35 0 64-28.65 64-64V160C512 124.7 483.3 96 448 96zM480 352c0 17.64-14.36 32-32 32H64c-17.64 0-32-14.36-32-32V160c0-17.64 14.36-32 32-32h384c17.64 0 32 14.36 32 32V352zM160 160H96C78.33 160 64 174.3 64 192v128c0 17.67 14.33 32 32 32h64c17.67 0 32-14.33 32-32V192C192 174.3 177.7 160 160 160zM160 320H96V192h64V320z"/></svg>