<svg xmlns="http://www.w3.org/2000/svg" viewBox="0 0 512 512"><!--! Font Awesome Pro 6.0.0-beta3 by @fontawesome - https://fontawesome.com License - https://fontawesome.com/license (Commercial License) Copyright 2021 Fonticons, Inc. --><path d="M288 208C288 252.2 252.2 288 208 288C163.8 288 128 252.2 128 208C128 163.8 163.8 128 208 128C252.2 128 288 163.8 288 208zM208 160C181.5 160 160 181.5 160 208C160 234.5 181.5 256 208 256C234.5 256 256 234.5 256 208C256 181.5 234.5 160 208 160zM128 512C92.65 512 64 483.3 64 448V358.1C24.55 320.2 0 266.1 0 208C0 93.12 93.12 0 208 0C322.9 0 416 93.12 416 208C416 266.1 391.4 320.2 352 358.1V448C352 459.7 348.9 470.6 343.4 480H416C433.7 480 448 465.7 448 448V445.3C429.4 438.7 416 420.9 416 400C416 373.5 437.5 352 464 352C490.5 352 512 373.5 512 400C512 420.9 498.6 438.7 480 445.3V448C480 483.3 451.3 512 416 512H128zM208 384C305.2 384 384 305.2 384 208C384 110.8 305.2 32 208 32C110.8 32 32 110.8 32 208C32 305.2 110.8 384 208 384zM96 383.3V448C96 465.7 110.3 480 128 480H288C305.7 480 320 465.7 320 448V383.3C287.7 404 249.2 416 208 416C166.8 416 128.3 404 96 383.3zM464 416C472.8 416 480 408.8 480 400C480 391.2 472.8 384 464 384C455.2 384 448 391.2 448 400C448 408.8 455.2 416 464 416z"/></svg>