<svg xmlns="http://www.w3.org/2000/svg" viewBox="0 0 640 512"><!--! Font Awesome Pro 6.1.1 by @fontawesome - https://fontawesome.com License - https://fontawesome.com/license (Commercial License) Copyright 2022 Fonticons, Inc. --><path d="M544 320L560 320C586.5 320 608 341.5 608 368V432C608 458.5 586.5 480 560 480H496C469.5 480 448 458.5 448 432V368C448 341.5 469.5 320 496 320L512 320C512 242.5 466.1 175.7 399.1 145.4C399.2 171.3 378 192 352 192H288C261.1 192 240.8 171.3 240 145.4C173.9 175.7 128 242.5 128 320L144 320C170.5 320 192 341.5 192 368V432C192 458.5 170.5 480 144 480H80C53.49 480 32 458.5 32 432V368C32 341.5 53.49 320 80 320L96 320C96 238.5 139.5 167.2 204.6 128H125.1C118.9 155.6 93.82 176 64 176C28.65 176 0 147.3 0 112C0 76.65 28.65 48 64 48C93.82 48 118.9 68.4 125.1 96H240V80C240 53.49 261.5 32 288 32H352C378.5 32 400 53.49 400 80V96H514C521.1 68.4 546.2 48 576 48C611.3 48 640 76.65 640 112C640 147.3 611.3 176 576 176C546.2 176 521.1 155.6 514 128H435.4C500.5 167.2 544 238.5 544 320zM352 64H288C279.2 64 272 71.16 272 80V144C272 152.8 279.2 160 288 160H352C360.8 160 368 152.8 368 144V80C368 71.16 360.8 64 352 64zM496 352C487.2 352 480 359.2 480 368V432C480 440.8 487.2 448 496 448H560C568.8 448 576 440.8 576 432V368C576 359.2 568.8 352 560 352H496zM80 352C71.16 352 64 359.2 64 368V432C64 440.8 71.16 448 80 448H144C152.8 448 160 440.8 160 432V368C160 359.2 152.8 352 144 352H80zM64 80C46.33 80 32 94.33 32 112C32 129.7 46.33 144 64 144C81.67 144 96 129.7 96 112C96 94.33 81.67 80 64 80zM576 80C558.3 80 544 94.33 544 112C544 129.7 558.3 144 576 144C593.7 144 608 129.7 608 112C608 94.33 593.7 80 576 80z"/></svg>