<svg xmlns="http://www.w3.org/2000/svg" viewBox="0 0 640 512"><!--! Font Awesome Pro 6.1.1 by @fontawesome - https://fontawesome.com License - https://fontawesome.com/license (Commercial License) Copyright 2022 Fonticons, Inc. --><path d="M313.4 3.021C317.5 6.028 320 10.86 320 16V192H368C376.8 192 384 199.2 384 208C384 216.8 376.8 224 368 224H240C231.2 224 224 216.8 224 208C224 199.2 231.2 192 240 192H288V38.2L261.1 47.18C252.7 49.97 243.6 45.44 240.8 37.06C238 28.68 242.6 19.62 250.9 16.82L298.9 .8212C303.8-.8051 309.2 .0128 313.4 3.02V3.021zM89.36 291C93.53 294 96 298.9 96 304V480H144C152.8 480 160 487.2 160 496C160 504.8 152.8 512 144 512H16C7.164 512 0 504.8 0 496C0 487.2 7.164 480 16 480H64V326.2L37.06 335.2C28.68 337.1 19.62 333.4 16.82 325.1C14.03 316.7 18.56 307.6 26.94 304.8L74.94 288.8C79.82 287.2 85.18 288 89.36 291H89.36zM112 .0004C156.2 .0004 192 35.82 192 80V144C192 188.2 156.2 224 112 224H80C35.82 224 0 188.2 0 144V80C0 35.82 35.82 .0004 80 .0004H112zM32 144C32 170.5 53.49 192 80 192H112C138.5 192 160 170.5 160 144V80C160 53.49 138.5 32 112 32H80C53.49 32 32 53.49 32 80V144zM192 368C192 323.8 227.8 288 272 288H304C348.2 288 384 323.8 384 368V432C384 476.2 348.2 512 304 512H272C227.8 512 192 476.2 192 432V368zM272 320C245.5 320 224 341.5 224 368V432C224 458.5 245.5 480 272 480H304C330.5 480 352 458.5 352 432V368C352 341.5 330.5 320 304 320H272zM528 192C572.2 192 608 227.8 608 272V320C625.7 320 640 334.3 640 352V480C640 497.7 625.7 512 608 512H448C430.3 512 416 497.7 416 480V352C416 334.3 430.3 320 448 320V272C448 227.8 483.8 192 528 192zM528 224C501.5 224 480 245.5 480 272V320H576V272C576 245.5 554.5 224 528 224zM448 352V480H608V352H448z"/></svg>