<svg xmlns="http://www.w3.org/2000/svg" viewBox="0 0 512 512"><!--! Font Awesome Pro 6.0.0-beta3 by @fontawesome - https://fontawesome.com License - https://fontawesome.com/license (Commercial License) Copyright 2021 Fonticons, Inc. --><path d="M304 120C304 106.7 314.7 96 328 96C341.3 96 352 106.7 352 120C352 133.3 341.3 144 328 144C314.7 144 304 133.3 304 120zM28.44 160H192C209.7 160 224 145.7 224 128V104C224 46.56 270.6 0 328 0C372.3 0 410.2 27.75 425.2 66.84L504.2 114.3C509.1 117.2 512 122.4 512 128C512 133.6 509.1 138.8 504.2 141.7L432 185.1V200C432 288.6 378.6 364.8 302.3 398.1L350.1 488.5C354.3 496.3 351.3 506 343.5 510.1C335.7 514.3 325.1 511.3 321.9 503.5L271.7 408.7C253.9 413.5 235.3 416 216 416H215.8L254.1 488.5C258.3 496.3 255.3 506 247.5 510.1C239.7 514.3 229.1 511.3 225.9 503.5L177.8 412.6C76.7 394.6 0 306.2 0 200V188.4C0 172.7 12.74 160 28.44 160L28.44 160zM32 192V200C32 301.6 114.4 384 216 384C317.6 384 400 301.6 400 200V104C400 64.24 367.8 32 328 32C288.2 32 256 64.24 256 104V128C256 163.3 227.3 192 192 192H32zM432 108.3V147.7L464.9 128L432 108.3z"/></svg>