<svg xmlns="http://www.w3.org/2000/svg" viewBox="0 0 640 512"><!--! Font Awesome Pro 6.1.1 by @fontawesome - https://fontawesome.com License - https://fontawesome.com/license (Commercial License) Copyright 2022 Fonticons, Inc. --><path d="M272 224h-160C80.64 224 52.48 236.9 32 257.6V80C32 53.5 53.44 32 80 32h296C398.1 32 416 49.92 416 72c0 8.832 7.039 16 16 16S448 80.83 448 72C448 32.22 415.7 0 376 0H80C35.84 0 0 35.81 0 80v256C0 397.9 50.24 448 112 448H256c8.961 0 16-7.168 16-16S264.1 416 256 416H112C67.84 416 32 380.2 32 336S67.84 256 112 256h160C280.1 256 288 248.8 288 240S280.1 224 272 224zM613.4 240.6c-16.32-32.35-39.36-66.43-66.56-92.22c-6.078-5.824-15.68-5.857-21.76-.0332C514.6 158.3 504.6 170.7 496 181.9c-19.2-23.58-39.36-45.41-61.12-65.6c-6.078-5.695-15.68-5.727-21.76-.0313c-36.48 33.73-67.52 72.06-89.6 108.8C302.1 261.4 288 298 288 328C288 427.7 365.4 512 464 512c97.6 0 176-84.19 176-184C640 305.1 629.4 272.5 613.4 240.6zM464 480c-79.36 0-144-68.22-144-152c0-21.44 10.56-52.03 31.04-86.5C369.3 211.1 394.2 179.2 424 150.1c21.12 20.71 40.96 43.14 59.2 67.52C486.1 221.6 490.9 223.9 495.7 224c5.121 .0645 9.922-2.176 12.8-6.049C512 213.8 515.2 209.5 518.4 205.3C524.2 197.6 529.9 190 536 183C555.2 204 572.2 229.8 584.1 254.9C600 285.4 608 312.6 608 328C608 411.7 542.4 480 464 480zM112 320C103 320 96 327.2 96 336S103 352 112 352h128C248.1 352 256 344.8 256 336S248.1 320 240 320H112zM548.2 313.5c-1.922-3.84-4.48-8.928-8.32-14.11c-2.879-3.873-7.359-6.24-12.16-6.369c-5.121-.1602-9.602 1.889-12.8 5.568l-23.36 27.17l-17.28-22.27c-15.04-19.04-30.72-38.91-32.64-41.47C438.4 258.2 433.9 256 429.1 256s-9.602 2.176-12.48 5.92c-15.04 18.4-26.88 33.79-35.2 47.9C373.1 324.3 368 338.3 368 353.1c0 28.67 10.56 52.58 28.8 69.18C414.7 439.6 439 448 464.1 448c21.44 0 40.32-5.984 57.92-17.7l.3203-.1934c37.12-26.11 46.4-77.15 24.96-116.5V313.5zM504.1 403.8C492.5 412 479.7 416 464.1 416c-19.2 0-35.2-6.145-46.4-16.45C407.4 389.4 400 374.3 400 353.1c0-8.289 2.559-16.74 8.961-28.06c4.801-8.096 11.2-17.15 19.84-28.16l20.16 25.5l20.48 25.95l6.398 8.479l1.922 2.336l.6367 .6406v.1914c2.883 3.777 7.363 6.018 12.16 6.145c4.801 .0957 9.602-1.951 12.48-5.6l20.8-24.13C532.8 361.1 525.1 389.6 504.1 403.8z"/></svg>