<svg xmlns="http://www.w3.org/2000/svg" viewBox="0 0 512 512"><!--! Font Awesome Pro 6.1.1 by @fontawesome - https://fontawesome.com License - https://fontawesome.com/license (Commercial License) Copyright 2022 Fonticons, Inc. --><path d="M496 480h-480C7.125 480 0 487.1 0 496S7.125 512 16 512h480c8.875 0 16-7.125 16-16S504.9 480 496 480zM16 352h64.38c-7.25-9.375-12.25-20.38-14.75-32H16C7.125 320 0 327.1 0 336S7.125 352 16 352zM496 320H222.4c-2.5 11.62-7.5 22.62-14.75 32H496c8.875 0 16-7.125 16-16S504.9 320 496 320zM496 0h-480C7.125 0 0 7.125 0 16v64C0 88.88 7.125 96 16 96H128v64H16C7.125 160 0 167.1 0 176S7.125 192 16 192H128v67C105.1 266.8 92.75 289.2 96.75 312.2C100.6 335.4 120.6 352.1 144 352.1s43.38-16.75 47.25-39.88C195.2 289.2 181.1 266.8 160 259V96h336C504.9 96 512 88.88 512 80v-64C512 7.125 504.9 0 496 0zM144 320C135.1 320 128 312.9 128 304S135.1 288 144 288S160 295.1 160 304S152.9 320 144 320zM480 64H32V32h448V64zM496 160H192v32h304C504.9 192 512 184.9 512 176S504.9 160 496 160z"/></svg>