<svg xmlns="http://www.w3.org/2000/svg" viewBox="0 0 448 512"><!--! Font Awesome Pro 6.0.0-beta3 by @fontawesome - https://fontawesome.com License - https://fontawesome.com/license (Commercial License) Copyright 2021 Fonticons, Inc. --><path d="M112 120C112 133.3 101.3 144 88 144C74.75 144 64 133.3 64 120C64 106.7 74.75 96 88 96C101.3 96 112 106.7 112 120zM336 120C336 106.7 346.7 96 360 96C373.3 96 384 106.7 384 120C384 133.3 373.3 144 360 144C346.7 144 336 133.3 336 120zM112 392C112 405.3 101.3 416 88 416C74.75 416 64 405.3 64 392C64 378.7 74.75 368 88 368C101.3 368 112 378.7 112 392zM336 392C336 378.7 346.7 368 360 368C373.3 368 384 378.7 384 392C384 405.3 373.3 416 360 416C346.7 416 336 405.3 336 392zM384 32C419.3 32 448 60.65 448 96V416C448 451.3 419.3 480 384 480H64C28.65 480 0 451.3 0 416V96C0 60.65 28.65 32 64 32H384zM384 64H64C46.33 64 32 78.33 32 96V416C32 433.7 46.33 448 64 448H384C401.7 448 416 433.7 416 416V96C416 78.33 401.7 64 384 64z"/></svg>