<svg xmlns="http://www.w3.org/2000/svg" viewBox="0 0 576 512"><!--! Font Awesome Pro 6.0.0-beta3 by @fontawesome - https://fontawesome.com License - https://fontawesome.com/license (Commercial License) Copyright 2021 Fonticons, Inc. --><path d="M381.1 244.8c-4.688-12.49-16.62-20.75-29.97-20.75L227.8 223.1l88.84-177.7c6.844-13.69 3.031-30.28-9.062-39.64C301.8 2.209 294.9 0 287.1 0C280.4 0 272.9 2.666 266.9 7.926L10.95 231.9C.9162 240.7-2.647 254.8 2.041 267.3c4.688 12.48 16.62 20.75 29.97 20.75L156.2 287.1l-88.84 177.7c-6.844 13.69-3.031 30.28 9.062 39.64C82.22 509.8 89.13 512 96 512c7.531 0 15.06-2.656 21.06-7.922l255.1-223.1C383.1 271.3 386.6 257.2 381.1 244.8zM96 479.1l88.84-177.7C189.8 292.4 189.3 280.6 183.4 271.2C177.6 261.7 167.3 255.1 156.2 255.1L32.02 255.1l255.1-223.1c.0039-.002-.0176 0 0 0c0 0-.002 0 0 0L199.2 209.7C194.2 219.6 194.7 231.4 200.6 240.8S216.7 255.1 227.8 255.1l124.2-.0059L96 479.1zM574.3 488.8l-96-192c-5.438-10.84-23.19-10.84-28.62 0l-96 192c-3.938 7.906-.75 17.52 7.156 21.47c7.938 3.953 17.5 .7656 21.47-7.156L401.9 464h124.2l19.58 39.16C548.5 508.8 554.2 512 560 512c2.406 0 4.844-.5469 7.156-1.688C575.1 506.4 578.3 496.8 574.3 488.8zM417.9 432L464 339.8L510.1 432H417.9z"/></svg>