<svg xmlns="http://www.w3.org/2000/svg" viewBox="0 0 512 512"><!--! Font Awesome Pro 6.1.1 by @fontawesome - https://fontawesome.com License - https://fontawesome.com/license (Commercial License) Copyright 2022 Fonticons, Inc. --><path d="M475.3 228.7l-64-64c-6.25-6.25-16.38-6.25-22.62 0s-6.25 16.38 0 22.62L409.4 208L364 253.4c-12.88-13.88-27.49-26-43.99-35.5L320 80C320 71.16 312.8 64 304 64S288 71.16 288 80v156.4l16 9.25C333.9 262.9 356.8 289.3 370.3 320h-292.5C91.25 289.3 114.1 262.9 144 245.6L160 236.4V80C160 71.16 152.8 64 144 64S128 71.16 128 80l.0045 137.9C70.63 251.1 32 313 32 384c0 43.07 14.29 82.87 38.35 114.9C75.73 506 87.33 512 96.28 512h255.4c9.023 0 20.65-6.02 26.07-13.24C401.7 466.8 416 427 416 384c0-39-12.01-75.13-32.01-105.4l48-48l20.69 20.69c6.246 6.246 16.37 6.254 22.62 0C481.6 245.1 481.6 234.9 475.3 228.7zM351.8 480H96.88C75.38 451.9 64 419.3 64 384c0-10.88 1.5-21.5 3.625-32h312.8C382.5 362.5 384 373.1 384 384C384 419.3 372.6 452.8 351.8 480zM111.1 32h224.1c8.775 0 15.97-7.21 15.97-15.99S344.8 0 336 0L111.1 .1667c-8.775 0-15.99 7.21-15.99 15.99S103.2 32 111.1 32z"/></svg>