<svg xmlns="http://www.w3.org/2000/svg" viewBox="0 0 448 512"><!--! Font Awesome Pro 6.1.1 by @fontawesome - https://fontawesome.com License - https://fontawesome.com/license (Commercial License) Copyright 2022 Fonticons, Inc. --><path d="M448 368v-320C448 21.49 426.5 0 400 0h-320C35.82 0 0 35.82 0 80V448c0 35.35 28.65 64 64 64h368c8.844 0 16-7.156 16-16S440.8 480 432 480H416v-66.95C434.6 406.4 448 388.8 448 368zM32 80C32 53.49 53.49 32 80 32H96v352H64c-11.71 0-22.55 3.389-32 8.9V80zM384 480H64c-17.64 0-32-14.36-32-32s14.36-32 32-32h320V480zM400 384H128V32h272C408.8 32 416 39.17 416 48v320C416 376.8 408.8 384 400 384z"/></svg>