<svg xmlns="http://www.w3.org/2000/svg" viewBox="0 0 576 512"><!--! Font Awesome Pro 6.0.0-beta3 by @fontawesome - https://fontawesome.com License - https://fontawesome.com/license (Commercial License) Copyright 2021 Fonticons, Inc. --><path d="M576 272v-224C576 21.49 554.5 0 528 0h-256C227.8 0 192 35.82 192 80V352c0 35.35 28.66 64 64 64h304c8.844 0 16-7.156 16-16S568.8 384 560 384H544V317.1C562.6 310.4 576 292.8 576 272zM512 384H256c-17.64 0-32-14.36-32-32s14.36-32 32-32h256V384zM528 288H256C244.3 288 233.5 291.4 224 296.9V80C224 53.49 245.5 32 272 32h256C536.8 32 544 39.16 544 48v224C544 280.8 536.8 288 528 288zM368 480H352v-16c0-8.838-7.164-16-16-16S320 455.2 320 464V480H65.81c-15.95 0-30.77-10.85-33.37-26.59C29.14 433.4 44.59 416 64 416h80C152.8 416 160 408.8 160 400C160 391.2 152.8 384 144 384H64c-11.71 0-22.55 3.389-32 8.9V176C32 149.5 53.49 128 80 128h64C152.8 128 160 120.8 160 112C160 103.2 152.8 96 144 96h-64C35.82 96 0 131.8 0 176V448c0 35.35 28.66 64 64 64h304c8.844 0 16-7.156 16-16S376.8 480 368 480z"/></svg>