<svg xmlns="http://www.w3.org/2000/svg" viewBox="0 0 512 512"><!--! Font Awesome Pro 6.1.1 by @fontawesome - https://fontawesome.com License - https://fontawesome.com/license (Commercial License) Copyright 2022 Fonticons, Inc. --><path d="M415 247.8L352 232V192c0-17.67-14.33-32-32-32H240C231.2 160 224 167.2 224 176S231.2 192 240 192H320v32H240C231.2 224 224 231.2 224 240S231.2 256 240 256H320l87.25 22.75C450.1 289.5 480 327.8 480 371.9V384H32V128h320c17.67 0 32-14.33 32-32V32c0-17.67-14.33-32-32-32H32C14.33 0 0 14.33 0 32v434.7c0 8.5 3.322 16.49 9.322 22.49l13.43 13.39C28.75 508.6 36.75 512 45.25 512h37.49c8.488 0 16.63-3.373 22.63-9.375L128 480l22.62 22.62C156.6 508.6 164.8 512 173.3 512h37.49c8.373 0 16.41-3.314 22.34-9.219L256 480l22.62 22.62C284.6 508.6 292.8 512 301.3 512h37.27c8.516 0 16.69-3.371 22.72-9.375L384 480l22.62 22.62C412.6 508.6 420.8 512 429.3 512h37.49c8.5 0 16.5-3.375 22.5-9.375l13.38-13.29C508.6 483.3 512 475.2 512 466.7v-94.76C512 313.2 472 262 415 247.8zM32 32h320v64H32V32zM480 466.8L466.8 480h-37.5l-22.62-22.62C400.6 451.4 392.5 448 384 448s-16.62 3.375-22.62 9.375L338.8 480h-37.5l-22.62-22.62C272.6 451.4 264.5 448 256 448s-16.62 3.375-22.62 9.375L210.8 480h-37.5l-22.62-22.62C144.6 451.4 136.5 448 128 448s-16.62 3.375-22.62 9.375L82.75 480h-37.5L32 466.8V416h448V466.8z"/></svg>