<svg xmlns="http://www.w3.org/2000/svg" viewBox="0 0 512 512"><!--! Font Awesome Pro 6.0.0-beta3 by @fontawesome - https://fontawesome.com License - https://fontawesome.com/license (Commercial License) Copyright 2021 Fonticons, Inc. --><path d="M480 480v-56.45c0-24.24-13.7-46.4-35.38-57.24l-121.2-60.62c-21.68-10.84-35.38-33-35.38-57.24V32c0-17.67-14.33-32-32-32h-192C44.76 0 29.86 16.87 32.25 35.97l24.44 161.5c4.816 38.53 .9414 77.66-11.34 114.5c-8.84 26.52-13.35 54.29-13.35 82.24V496c0 8.844 7.156 16 16 16h96c8.844 0 16-7.156 16-16v-39.5l109 48.56C279.3 509.7 290.3 512 301.6 512h178.4c8.844 0 16-7.156 16-16S488.8 480 480 480zM128 480h-64v-32h64V480zM301.6 480c-6.812 0-13.38-1.406-19.56-4.156l-125.9-56.09C150.3 417.3 143.1 416 137.5 416H64.01v-21.8c0-24.56 3.938-48.82 11.7-72.12c13.71-41.12 18.11-85.58 12.73-128.6L64.01 32h64v208c0 8.844 7.156 16 16 16s16-7.156 16-16V32h96v216.4c0 36.6 20.33 69.5 53.07 85.87l121.2 60.62c10.91 5.455 17.69 16.42 17.69 28.62V480H301.6z"/></svg>