<svg xmlns="http://www.w3.org/2000/svg" viewBox="0 0 448 512"><!--! Font Awesome Pro 6.1.1 by @fontawesome - https://fontawesome.com License - https://fontawesome.com/license (Commercial License) Copyright 2022 Fonticons, Inc. --><path d="M248 160C248 173.3 237.3 184 224 184C210.7 184 200 173.3 200 160C200 146.7 210.7 136 224 136C237.3 136 248 146.7 248 160zM104 256C104 242.7 114.7 232 128 232C141.3 232 152 242.7 152 256C152 269.3 141.3 280 128 280C114.7 280 104 269.3 104 256zM248 256C248 269.3 237.3 280 224 280C210.7 280 200 269.3 200 256C200 242.7 210.7 232 224 232C237.3 232 248 242.7 248 256zM296 256C296 242.7 306.7 232 320 232C333.3 232 344 242.7 344 256C344 269.3 333.3 280 320 280C306.7 280 296 269.3 296 256zM248 352C248 365.3 237.3 376 224 376C210.7 376 200 365.3 200 352C200 338.7 210.7 328 224 328C237.3 328 248 338.7 248 352zM0 96C0 60.65 28.65 32 64 32H384C419.3 32 448 60.65 448 96V416C448 451.3 419.3 480 384 480H64C28.65 480 0 451.3 0 416V96zM32 96V416C32 433.7 46.33 448 64 448H384C401.7 448 416 433.7 416 416V96C416 78.33 401.7 64 384 64H64C46.33 64 32 78.33 32 96z"/></svg>