<svg xmlns="http://www.w3.org/2000/svg" viewBox="0 0 448 512"><!--! Font Awesome Pro 6.1.1 by @fontawesome - https://fontawesome.com License - https://fontawesome.com/license (Commercial License) Copyright 2022 Fonticons, Inc. --><path d="M42.41 222.6C40.4 221.7 38.6 220.4 37.12 218.8C35.64 217.2 34.5 215.3 33.79 213.2C33.07 211.1 32.79 208.9 32.96 206.8C37.25 158.1 59.25 114.6 94.64 82.21C130 49.85 176.2 31.91 224.2 31.91C272.1 31.91 318.4 49.85 353.8 82.21C389.1 114.6 411.1 158.1 415.4 206.8C415.8 210.1 414.4 215.2 411.7 218.4C408.9 221.7 404.1 223.7 400.7 224C396.5 224.4 392.3 223 389 220.3C385.8 217.5 383.8 213.6 383.4 209.3C379.8 169.6 361.4 132.7 331.9 105.8C302.5 78.9 263.1 63.99 224.1 63.99C184.2 63.99 145.7 78.9 116.3 105.8C86.79 132.7 68.42 169.6 64.77 209.3C64.43 213.3 62.6 217.1 59.63 219.8C56.67 222.5 52.79 224 48.77 223.1C46.58 223.1 44.41 223.5 42.41 222.6zM394.9 375.6C365.4 401.7 327.4 416.1 288 416L347.9 485.3C349.1 487.6 351.3 490.4 351.8 493.5C352.3 496.5 351.9 499.7 350.6 502.5C349.4 505.3 347.3 507.7 344.7 509.4C342.1 511.1 339.1 512 336 512H112C108.9 512 105.9 511.1 103.3 509.4C100.7 507.7 98.62 505.3 97.36 502.5C96.1 499.7 95.69 496.5 96.17 493.5C96.66 490.4 98.02 487.6 100.1 485.3L160 416C120.6 416.1 82.61 401.7 53.12 375.6C23.64 349.5 4.739 313.5 .0026 274.4C-.312 272.1-.1338 269.8 .5251 267.6C1.184 265.4 2.309 263.3 3.824 261.6C5.339 259.8 7.209 258.4 9.309 257.5C11.41 256.5 13.69 256 16 255.1H432C434.3 256 436.6 256.5 438.7 257.5C440.8 258.4 442.7 259.8 444.2 261.6C445.7 263.3 446.8 265.4 447.5 267.6C448.1 269.8 448.3 272.1 448 274.4C443.3 313.5 424.4 349.5 394.9 375.6zM245.7 416H202.3L147 480H300.1L245.7 416zM366.8 357.3C389.3 339.9 405.5 315.5 412.8 287.1H35.2C42.49 315.5 58.69 339.9 81.26 357.2C103.8 374.6 131.5 384 160 384H288C316.5 384 344.2 374.6 366.8 357.3z"/></svg>