<svg xmlns="http://www.w3.org/2000/svg" viewBox="0 0 576 512"><!--! Font Awesome Pro 6.1.1 by @fontawesome - https://fontawesome.com License - https://fontawesome.com/license (Commercial License) Copyright 2022 Fonticons, Inc. --><path d="M208 96C208 87.16 215.2 80 224 80H256C264.8 80 272 87.16 272 96C272 104.8 264.8 112 256 112H224C215.2 112 208 104.8 208 96zM112 160C112 151.2 119.2 144 128 144H160C168.8 144 176 151.2 176 160C176 168.8 168.8 176 160 176H128C119.2 176 112 168.8 112 160zM16 224C16 215.2 23.16 208 32 208H64C72.84 208 80 215.2 80 224C80 232.8 72.84 240 64 240H32C23.16 240 16 232.8 16 224zM16 315.4C16 300.3 28.28 288 43.43 288H532.6C547.7 288 560 300.3 560 315.4C560 388.3 512.6 450.2 446.9 471.8C447.6 474.4 448 477.2 448 480C448 497.7 433.7 512 416 512H160C142.3 512 128 497.7 128 480C128 477.2 128.4 474.4 129.1 471.8C63.4 450.2 16 388.3 16 315.4H16zM139.1 441.4C155.2 446.7 164.3 463.6 159.1 479.1L416 480C411.7 463.6 420.8 446.7 436.9 441.4C488.5 424.4 526 376.7 527.9 320H48.08C49.1 376.7 87.52 424.4 139.1 441.4V441.4zM256 208C264.8 208 272 215.2 272 224C272 232.8 264.8 240 256 240H224C215.2 240 208 232.8 208 224C208 215.2 215.2 208 224 208H256zM400 224C400 215.2 407.2 208 416 208H448C456.8 208 464 215.2 464 224C464 232.8 456.8 240 448 240H416C407.2 240 400 232.8 400 224zM544 208C552.8 208 560 215.2 560 224C560 232.8 552.8 240 544 240H512C503.2 240 496 232.8 496 224C496 215.2 503.2 208 512 208H544zM304 224C304 215.2 311.2 208 320 208H352C360.8 208 368 215.2 368 224C368 232.8 360.8 240 352 240H320C311.2 240 304 232.8 304 224zM160 208C168.8 208 176 215.2 176 224C176 232.8 168.8 240 160 240H128C119.2 240 112 232.8 112 224C112 215.2 119.2 208 128 208H160zM352 144C360.8 144 368 151.2 368 160C368 168.8 360.8 176 352 176H320C311.2 176 304 168.8 304 160C304 151.2 311.2 144 320 144H352zM400 160C400 151.2 407.2 144 416 144H448C456.8 144 464 151.2 464 160C464 168.8 456.8 176 448 176H416C407.2 176 400 168.8 400 160zM256 144C264.8 144 272 151.2 272 160C272 168.8 264.8 176 256 176H224C215.2 176 208 168.8 208 160C208 151.2 215.2 144 224 144H256zM352 80C360.8 80 368 87.16 368 96C368 104.8 360.8 112 352 112H320C311.2 112 304 104.8 304 96C304 87.16 311.2 80 320 80H352z"/></svg>