<svg xmlns="http://www.w3.org/2000/svg" viewBox="0 0 576 512"><!--! Font Awesome Pro 6.1.1 by @fontawesome - https://fontawesome.com License - https://fontawesome.com/license (Commercial License) Copyright 2022 Fonticons, Inc. --><path d="M221.3 106.6C217.1 107.8 212.5 107.2 208.7 104.1C199.2 99.28 187.1 96 176 96C145.1 96 119.2 117.1 113.3 147.2C111.7 154.8 104.1 160.2 97.2 160C96.8 160 96.4 160 96 160C69.49 160 48 181.5 48 208C48 216.8 40.84 224 32 224C23.16 224 16 216.8 16 208C16 167.5 46.13 133.1 85.22 128.7C98.19 91.06 133.9 64 176 64C188.4 64 200.2 66.34 211 70.6C228.5 47.19 256.5 32 288 32C319.5 32 347.5 47.19 364.1 70.6C375.8 66.34 387.7 64 400 64C442.1 64 477.8 91.06 490.8 128.7C529.9 133.1 560 167.5 560 208C560 216.8 552.8 224 544 224C535.2 224 528 216.8 528 208C528 181.5 506.5 160 480 160C479.6 160 479.2 160 478.8 160C471 160.2 464.3 154.8 462.7 147.2C456.8 117.1 430.1 96 400 96C388 96 376.8 99.28 367.3 104.1C363.5 107.2 358.9 107.8 354.7 106.6C350.5 105.4 346.9 102.5 344.9 98.61C334.2 78.01 312.7 64 287.1 64C263.3 64 241.8 78.01 231.1 98.61C229.1 102.5 225.5 105.4 221.3 106.6H221.3zM532.6 256C547.7 256 560 268.3 560 283.4C560 356.3 512.6 418.2 446.9 439.8C447.6 442.4 448 445.2 448 448C448 465.7 433.7 480 416 480H160C142.3 480 128 465.7 128 448C128 445.2 128.4 442.4 129.1 439.8C63.4 418.2 16 356.3 16 283.4C16 268.3 28.28 256 43.43 256H532.6zM416 447.1C411.7 431.6 420.8 414.7 436.9 409.4C488.5 392.4 526 344.7 527.9 288H48.08C49.1 344.7 87.52 392.4 139.1 409.4C155.2 414.7 164.3 431.6 159.1 447.1H416z"/></svg>