<svg xmlns="http://www.w3.org/2000/svg" viewBox="0 0 576 512"><!--! Font Awesome Pro 6.0.0-beta3 by @fontawesome - https://fontawesome.com License - https://fontawesome.com/license (Commercial License) Copyright 2021 Fonticons, Inc. --><path d="M119.1 224C106.7 224 96 234.7 96 248S106.7 272 119.1 272C133.3 272 144 261.3 144 248S133.3 224 119.1 224zM200 240C186.7 240 176 250.7 176 264S186.7 288 200 288S224 277.3 224 264S213.3 240 200 240zM200 160C186.7 160 176 170.7 176 184S186.7 208 200 208S224 197.3 224 184S213.3 160 200 160zM208 96C93.13 96 0 189.1 0 304S93.13 512 208 512S416 418.9 416 304S322.9 96 208 96zM208 480C110.1 480 32 401 32 304S110.1 128 208 128S384 206.1 384 304S305 480 208 480zM549 264.7c-12.53-29.3-24.38-56.98-24.38-83.7c0-10.59 3.875-21 8.344-33.05c6.094-16.39 13.66-36.78 13.66-64.44c0-54.75-37.53-83.47-74.75-83.55c-37.06 0-74.56 28.7-74.56 83.55c0 27.66 7.562 48.05 13.66 64.44c4.469 12.05 8.344 22.45 8.344 33.05c0 2.57-.5781 5.188-.7871 7.773c8.775 16.01 15.58 33.2 20.54 51.17C444.6 224.3 448.9 208.3 450.3 192h43.4c2.551 29.34 14.14 57.78 25.93 85.33C532.2 306.6 544 334.3 544 361c0 45.33-18.06 81.2-33.38 111.6C508.3 477.2 503.8 480 498.8 480h-53.63c-4.938 0-9.438-2.828-12.34-8.562c-6.547-12.91-13.64-27.48-19.67-43.44c-6.564 10.84-13.82 21.2-21.97 30.83c4.604 10.18 9.348 19.65 13.73 28.3C412.8 502.5 428.2 512 445.2 512h53.63c17.06 0 32.53-9.562 41.16-26.56C555.2 455.3 576 413.1 576 361C576 327.8 562.3 295.7 549 264.7zM495.5 160h-46.97c-6.131-24.69-19.17-44.08-19.17-76.45C429.3 47.94 450.7 32 471.1 32c21.25 .0469 42.69 16 42.69 51.55C514.7 116.1 501.8 134.8 495.5 160z"/></svg>