<svg xmlns="http://www.w3.org/2000/svg" viewBox="0 0 448 512"><!--! Font Awesome Pro 6.1.1 by @fontawesome - https://fontawesome.com License - https://fontawesome.com/license (Commercial License) Copyright 2022 Fonticons, Inc. --><path d="M394.9 375.6C365.4 401.7 327.4 416.1 288 416L347.9 485.3C349.1 487.6 351.3 490.4 351.8 493.5C352.3 496.6 351.9 499.7 350.6 502.5C349.4 505.3 347.3 507.7 344.7 509.4C342.1 511.1 339.1 512 336 512H112C108.9 512 105.9 511.1 103.3 509.4C100.7 507.7 98.62 505.3 97.36 502.5C96.1 499.7 95.69 496.6 96.17 493.5C96.66 490.4 98.02 487.6 100.1 485.3L160 416C120.6 416.1 82.61 401.7 53.12 375.6C23.64 349.5 4.739 313.5 .0026 274.4C-.312 272.1-.1338 269.8 .5251 267.6C1.184 265.4 2.309 263.3 3.824 261.6C5.339 259.8 7.209 258.4 9.309 257.5C11.41 256.5 13.69 256 16 256H432C434.3 256 436.6 256.5 438.7 257.5C440.8 258.4 442.7 259.8 444.2 261.6C445.7 263.3 446.8 265.4 447.5 267.6C448.1 269.8 448.3 272.1 448 274.4C443.3 313.5 424.4 349.5 394.9 375.6zM245.7 416H202.3L147 480H300.1L245.7 416zM366.8 357.3C389.3 339.9 405.5 315.5 412.8 288H35.2C42.49 315.5 58.69 339.9 81.26 357.2C103.8 374.6 131.5 384 160 384H288C316.5 384 344.2 374.6 366.8 357.3zM9.356 222.6C7.27 221.6 5.413 220.2 3.911 218.5C2.409 216.7 1.297 214.7 .6499 212.5C.0032 210.3-.1629 207.1 .1629 205.7C3.999 180.1 15.48 156.3 33.09 137.3C50.71 118.4 73.64 105.2 98.88 99.46C105.4 71.28 121.2 46.14 143.9 28.12C166.5 10.11 194.6 .2876 223.5 .2579C252.4 .2281 280.5 9.992 303.1 27.96C325.8 45.93 341.7 71.04 348.3 99.2C373.7 104.8 396.9 117.9 414.7 136.9C432.5 155.1 444.1 179.1 448 205.7C448.3 208 448.2 210.3 447.5 212.6C446.8 214.8 445.7 216.8 444.2 218.5C442.7 220.3 440.8 221.7 438.7 222.6C436.6 223.5 434.3 224 432 224C428.2 224.1 424.5 222.8 421.6 220.3C418.7 217.9 416.8 214.5 416.2 210.8C412.9 187.8 401.4 166.8 383.8 151.6C366.3 136.4 343.8 128.1 320.6 128.1C297.4 128.1 274.1 136.4 257.4 151.6C239.9 166.8 228.4 187.8 225.1 210.8C224.5 214.5 222.5 217.9 219.6 220.3C216.7 222.7 213.1 224 209.3 224C206.1 224 204.7 223.5 202.6 222.6C200.4 221.6 198.6 220.3 197 218.5C195.5 216.8 194.4 214.7 193.7 212.5C193.1 210.2 192.9 207.9 193.3 205.6C195.4 192.5 199.5 179.8 205.4 167.1C194.2 152.4 178.6 140.5 160.5 133.9C142.5 127.3 122.9 126.2 104.3 130.8C85.63 135.4 68.78 145.5 55.9 159.7C43.02 173.1 34.7 191.7 32 210.8C31.35 214.5 29.38 217.9 26.45 220.3C23.51 222.8 19.81 224.1 16 224C13.71 224 11.44 223.5 9.357 222.6L9.356 222.6zM168.6 49.77C152.4 61.31 140.2 77.6 133.7 96.39C150.1 97.18 167.9 101.4 183.4 108.9C198.1 116.4 212.9 126.9 224.3 139.9C235.7 126.9 249.6 116.4 265.1 108.1C280.7 101.5 297.6 97.32 314.8 96.58C308.3 77.7 296 61.34 279.7 49.76C263.5 38.19 243.1 31.98 224 32C204.1 32.02 184.8 38.23 168.6 49.77z"/></svg>