<svg xmlns="http://www.w3.org/2000/svg" viewBox="0 0 576 512"><!--! Font Awesome Pro 6.1.1 by @fontawesome - https://fontawesome.com License - https://fontawesome.com/license (Commercial License) Copyright 2022 Fonticons, Inc. --><path d="M528 160h-32C487.2 160 480 167.2 480 176S487.2 192 496 192h32C536.8 192 544 199.2 544 208V320H32V208C32 199.2 39.19 192 48 192h32C88.84 192 96 184.8 96 176S88.84 160 80 160h-32C21.53 160 0 181.5 0 208v256C0 490.5 21.53 512 48 512h480c26.47 0 48-21.53 48-48v-256C576 181.5 554.5 160 528 160zM544 464c0 8.828-7.188 16-16 16h-480C39.19 480 32 472.8 32 464V352h512V464zM144 256h288C440.8 256 448 248.8 448 240v-192C448 21.53 426.5 0 400 0h-224C149.5 0 128 21.53 128 48v192C128 248.8 135.2 256 144 256zM160 48C160 39.17 167.2 32 176 32h224C408.8 32 416 39.17 416 48V224H160V48z"/></svg>