<svg xmlns="http://www.w3.org/2000/svg" viewBox="0 0 512 512"><!--! Font Awesome Pro 6.1.1 by @fontawesome - https://fontawesome.com License - https://fontawesome.com/license (Commercial License) Copyright 2022 Fonticons, Inc. --><path d="M144 320h224c10.33 0 19.48-6.578 22.84-16.62l55.94-175.8c2.422-7.297 1.188-15.38-3.312-21.61C438.1 99.72 431.7 96 424 96h-85.41c-19.92 0-37.53-12.69-43.83-31.59C281.9 25.89 246 0 205.4 0H88C80.67 0 73.84 3.281 69.28 8.984c-4.594 5.719-6.312 13.11-4.766 19.98l56.05 272.2C123 312.3 132.7 320 144 320zM205.4 32c26.81 0 50.53 17.09 59 42.52C275.1 106.5 304.9 128 338.6 128h74.47l-50.91 160H150.5L97.81 32H205.4zM464 224H448c-8.844 0-16 7.156-16 16S439.2 256 448 256h16C472.8 256 480 263.2 480 272V384H32V272C32 263.2 39.19 256 48 256H64c8.844 0 16-7.156 16-16S72.84 224 64 224H48C21.53 224 0 245.5 0 272v192C0 490.5 21.53 512 48 512h416c26.47 0 48-21.53 48-48v-192C512 245.5 490.5 224 464 224zM480 464c0 8.828-7.188 16-16 16h-416C39.19 480 32 472.8 32 464V416h448V464z"/></svg>