<svg xmlns="http://www.w3.org/2000/svg" viewBox="0 0 448 512"><!--! Font Awesome Pro 6.1.1 by @fontawesome - https://fontawesome.com License - https://fontawesome.com/license (Commercial License) Copyright 2022 Fonticons, Inc. --><path d="M342.4 32C367.7 32 390.6 46.9 400.9 70.01L442.5 163.6C446.1 171.8 448 180.6 448 189.6V416C448 451.3 419.3 480 384 480H64C28.65 480 0 451.3 0 416V189.6C0 180.6 1.879 171.8 5.516 163.6L47.11 70.01C57.38 46.89 80.3 32 105.6 32H342.4zM405.9 160L371.7 83C366.5 71.45 355.1 64 342.4 64H270L288 160H405.9zM255.4 160L237.4 64H210.6L192.6 160H255.4zM256 192H192V256H256V192zM160 192H32V416C32 433.7 46.33 448 64 448H384C401.7 448 416 433.7 416 416V192H288V256C288 273.7 273.7 288 256 288H192C174.3 288 160 273.7 160 256V192zM160 160L178 64H105.6C92.95 64 81.49 71.45 76.35 83L42.13 160H160z"/></svg>