<svg xmlns="http://www.w3.org/2000/svg" viewBox="0 0 640 512"><!--! Font Awesome Pro 6.1.1 by @fontawesome - https://fontawesome.com License - https://fontawesome.com/license (Commercial License) Copyright 2022 Fonticons, Inc. --><path d="M592 32H304C295.2 32 288 39.16 288 48V128H256V48C256 21.49 277.5 0 304 0H592C618.5 0 640 21.49 640 48V464C640 490.5 618.5 512 592 512H381.3C383 506.1 384 501.6 384 496V480H592C600.8 480 608 472.8 608 464V48C608 39.16 600.8 32 592 32zM555.3 316.7C561.6 322.9 561.6 333.1 555.3 339.3C549.1 345.6 538.9 345.6 532.7 339.3L496 302.6V432C496 440.8 488.8 448 480 448C471.2 448 464 440.8 464 432V302.6L427.3 339.3C421.1 345.6 410.9 345.6 404.7 339.3C398.4 333.1 398.4 322.9 404.7 316.7L468.7 252.7C474.9 246.4 485.1 246.4 491.3 252.7L555.3 316.7zM240 320C248.8 320 256 327.2 256 336C256 344.8 248.8 352 240 352H144C135.2 352 128 344.8 128 336C128 327.2 135.2 320 144 320H240zM0 192C0 174.3 14.33 160 32 160H352C369.7 160 384 174.3 384 192V256C384 273.7 369.7 288 352 288V480C352 497.7 337.7 512 320 512H64C46.33 512 32 497.7 32 480V288C14.33 288 0 273.7 0 256V192zM352 192H32V256H352V192zM64 480H320V288H64V480z"/></svg>