<svg xmlns="http://www.w3.org/2000/svg" viewBox="0 0 512 512"><!--! Font Awesome Pro 6.1.1 by @fontawesome - https://fontawesome.com License - https://fontawesome.com/license (Commercial License) Copyright 2022 Fonticons, Inc. --><path d="M121.4 60.93c7.125-5.188 8.719-15.19 3.531-22.31C119.7 31.4 109.8 29.9 102.6 35.03C98.44 38.06 0 110.8 0 256s98.44 217.9 102.6 220.1c2.844 2.031 6.094 3.031 9.344 3.031c4.938 0 9.812-2.313 12.97-6.625c5.188-7.125 3.594-17.13-3.531-22.31C117.8 448.4 32 384.3 32 255.1S117.8 63.62 121.4 60.93zM409.4 35.03c-7.156-5.094-17.06-3.563-22.31 3.594c-5.188 7.125-3.594 17.13 3.531 22.31C394.3 63.62 480 127.7 480 255.1s-85.75 192.4-89.41 195.1c-7.125 5.188-8.719 15.19-3.531 22.31c3.156 4.344 8.031 6.625 12.97 6.625c3.25 0 6.5-1 9.344-3.031C413.6 473.9 512 401.2 512 256S413.6 38.06 409.4 35.03z"/></svg>