<svg xmlns="http://www.w3.org/2000/svg" viewBox="0 0 256 512"><!--! Font Awesome Pro 6.1.1 by @fontawesome - https://fontawesome.com License - https://fontawesome.com/license (Commercial License) Copyright 2022 Fonticons, Inc. --><path d="M210.2 256C178.6 280.8 160 318.7 160 359.5V400c0 26.47-21.53 48-48 48h-64C39.18 448 32 455.2 32 464S39.18 480 48 480h64c44.11 0 80-35.89 80-80v-40.45c0-38.03 21.13-72.22 55.17-89.24C252.6 267.6 256 262.1 256 256s-3.383-11.56-8.844-14.31C213.1 224.7 192 190.5 192 152.5V112C192 67.89 156.1 32 112 32h-64C39.18 32 32 39.18 32 48S39.18 64 48 64h64C138.5 64 160 85.53 160 112v40.45C160 193.3 178.6 231.2 210.2 256z"/></svg>