<svg xmlns="http://www.w3.org/2000/svg" viewBox="0 0 640 512"><!--! Font Awesome Pro 6.0.0-beta3 by @fontawesome - https://fontawesome.com License - https://fontawesome.com/license (Commercial License) Copyright 2021 Fonticons, Inc. --><path d="M336 272C336 280.8 328.8 288 319.1 288C311.2 288 303.1 280.8 303.1 272V144C303.1 135.2 311.2 128 319.1 128C328.8 128 336 135.2 336 144V272zM295.1 352C295.1 338.7 306.7 328 319.1 328C333.3 328 344 338.7 344 352C344 365.3 333.3 376 319.1 376C306.7 376 295.1 365.3 295.1 352zM95.1 256C95.1 132.3 196.3 32 319.1 32C443.7 32 544 132.3 544 256C544 379.7 443.7 480 319.1 480C196.3 480 95.1 379.7 95.1 256zM319.1 448C426 448 512 362 512 256C512 149.1 426 64 319.1 64C213.1 64 127.1 149.1 127.1 256C127.1 362 213.1 448 319.1 448zM31.1 256C31.1 313.3 48.69 366.6 77.46 411.4C82.24 418.8 80.08 428.7 72.64 433.5C65.21 438.3 55.31 436.1 50.54 428.7C18.55 378.8 0 319.6 0 256C0 192.4 18.55 133.2 50.54 83.34C55.31 75.9 65.21 73.74 72.64 78.52C80.08 83.29 82.24 93.19 77.46 100.6C48.69 145.4 31.1 198.7 31.1 256zM640 256C640 319.6 621.4 378.8 589.5 428.7C584.7 436.1 574.8 438.3 567.4 433.5C559.9 428.7 557.8 418.8 562.5 411.4C591.3 366.6 608 313.3 608 256C608 198.7 591.3 145.4 562.5 100.6C557.8 93.19 559.9 83.29 567.4 78.52C574.8 73.74 584.7 75.9 589.5 83.34C621.4 133.2 640 192.4 640 256V256z"/></svg>