<svg xmlns="http://www.w3.org/2000/svg" viewBox="0 0 512 512"><!--! Font Awesome Pro 6.1.1 by @fontawesome - https://fontawesome.com License - https://fontawesome.com/license (Commercial License) Copyright 2022 Fonticons, Inc. --><path d="M256 32C102.9 32 0 115.2 0 192.1c0 34.84 26.67 60.29 64 62.59v178.4C64 459.4 84.63 480 109.1 480h292C427.4 480 448 459.4 448 434V255.6c37.33-2.293 64-27.75 64-62.59C512 115.2 409.1 32 256 32zM442.7 224C427.9 224 416 235.9 416 250.7v183.3C416 441.7 409.7 448 401.1 448h-292C102.3 448 96 441.7 96 434v-183.3C96 235.9 84.07 224 69.34 224C47 224 32 211.5 32 192.1C32 140.3 111.8 64 256 64s224 76.25 224 128.1C480 211.5 465 224 442.7 224z"/></svg>