<svg xmlns="http://www.w3.org/2000/svg" viewBox="0 0 576 512"><!--! Font Awesome Pro 6.1.1 by @fontawesome - https://fontawesome.com License - https://fontawesome.com/license (Commercial License) Copyright 2022 Fonticons, Inc. --><path d="M560 32C568.8 32 576 39.16 576 48C576 56.84 568.8 64 560 64H496V128H560C568.8 128 576 135.2 576 144C576 152.8 568.8 160 560 160H16C7.164 160 0 152.8 0 144C0 135.2 7.164 128 16 128H80V64H16C7.164 64 0 56.84 0 48C0 39.16 7.164 32 16 32H560zM464 64H368V128H464V64zM240 64V128H336V64H240zM208 64H112V128H208V64zM32 240C85.02 240 128 282.1 128 336V432C128 440.8 135.2 448 144 448H176C184.8 448 192 440.8 192 432V336C192 282.1 234.1 240 288 240C341 240 384 282.1 384 336V432C384 440.8 391.2 448 400 448H432C440.8 448 448 440.8 448 432V336C448 282.1 490.1 240 544 240H560C568.8 240 576 247.2 576 256C576 264.8 568.8 272 560 272H544C508.7 272 480 300.7 480 336V432C480 458.5 458.5 480 432 480H400C373.5 480 352 458.5 352 432V336C352 300.7 323.3 272 288 272C252.7 272 224 300.7 224 336V432C224 458.5 202.5 480 176 480H144C117.5 480 96 458.5 96 432V336C96 300.7 67.35 272 32 272H16C7.164 272 0 264.8 0 256C0 247.2 7.164 240 16 240H32z"/></svg>