<svg xmlns="http://www.w3.org/2000/svg" viewBox="0 0 640 512"><!--! Font Awesome Pro 6.1.1 by @fontawesome - https://fontawesome.com License - https://fontawesome.com/license (Commercial License) Copyright 2022 Fonticons, Inc. --><path d="M495.1 351.1c-44.13 0-79.1 35.92-79.1 79.91s35.87 80.09 79.1 80.09s79.1-36.1 79.1-80.09S540.2 351.1 495.1 351.1zM496 479.5c-26.5 0-48-21.43-48-47.85s21.5-47.85 48-47.85s48 21.43 48 47.85S522.5 479.5 496 479.5zM304.2 332.1C304.1 332.1 289.8 415.1 242.3 452.1c-35.5 27.6-148.6 29.29-207.2 27.1c1.375-6.98 3.188-15.7 5.406-25.55l81.21-94.08c14.36-16.64-3.072-40.96-23.37-33.71l-20.12 7.168c12.15-26.58 22.69-38.97 30.09-44.73c47.62-37.03 132.9-32.21 133.9-32.14c21.71 .5117 22.61-30.61 2.031-31.93C240.1 224 145.1 218.5 88.69 263c-19.65 15.25-37.15 45.22-53.53 91.61c-4.457 12.59 7.736 24.89 20.47 20.4l15.12-5.387l-57.09 66.1c-1.688 1.969-2.875 4.328-3.469 6.859c-6.562 28.51-9.938 49.05-9.938 49.05c-1.994 11.84 8.104 18.12 14.75 18.55C21.44 510.6 44.72 512 74.97 512c60.68 0 149.5-5.422 187-34.66c57.4-44.75 73.18-136.1 73.81-139.9C339.2 316.6 307.8 311.1 304.2 332.1zM636.5 5.992c-5.531-6.859-15.53-8.016-22.5-2.5L381.9 189.1l-40.4-51.23c0-.0156 .0313 .0156 0 0c-11.8-14.84-35.84-12.91-44.47 5.359L273.5 194.5C270.1 199.1 271.7 206.4 275.5 211.1l80.99 102.7c1.143 1.453 6.902 7.789 15.91 5.734l54.71-11.72c18.95-3.883 27.43-26.48 15.31-42.03l-40.65-51.54l232.3-185.8C640.9 22.95 641.1 12.89 636.5 5.992zM411.6 278.4L375.4 286.2l-68.78-87.2l15.59-33.88L411.6 278.4z"/></svg>