<svg xmlns="http://www.w3.org/2000/svg" viewBox="0 0 384 512"><!--! Font Awesome Pro 6.0.0-beta3 by @fontawesome - https://fontawesome.com License - https://fontawesome.com/license (Commercial License) Copyright 2021 Fonticons, Inc. --><path d="M320 0H64C28.8 0 0 28.8 0 64v224c0 53.02 42.98 96 96 96h32v60.66c0 31.88 21.82 61.38 53.29 66.47C221.4 517.6 256 486.9 256 448v-64h32c53.02 0 96-42.98 96-96V64C384 28.8 355.2 0 320 0zM288 352h-64v96c0 17.62-14.38 32-32 32s-32-14.38-32-32v-96H96c-35.2 0-64-28.8-64-64h320C352 323.2 323.2 352 288 352zM352 256H32V64c0-17.67 14.33-32 32-32h32v112C96 152.8 103.2 160 112 160S128 152.8 128 144V32h64v80C192 120.8 199.2 128 208 128S224 120.8 224 112V32h96c17.67 0 32 14.33 32 32V256z"/></svg>