<svg xmlns="http://www.w3.org/2000/svg" viewBox="0 0 384 512"><!--! Font Awesome Pro 6.1.1 by @fontawesome - https://fontawesome.com License - https://fontawesome.com/license (Commercial License) Copyright 2022 Fonticons, Inc. --><path d="M0 304V64C0 28.65 28.65 0 64 0H320C355.3 0 384 28.65 384 64V304C384 348.2 348.2 384 304 384H256V448C256 483.3 227.3 512 192 512C156.7 512 128 483.3 128 448V384H80C35.82 384 0 348.2 0 304zM304 352C330.5 352 352 330.5 352 304V288H32V304C32 330.5 53.49 352 80 352H160V448C160 465.7 174.3 480 192 480C209.7 480 224 465.7 224 448V352H304zM352 64C352 46.33 337.7 32 320 32H224V112C224 120.8 216.8 128 208 128C199.2 128 192 120.8 192 112V32H128V144C128 152.8 120.8 160 112 160C103.2 160 96 152.8 96 144V32H64C46.33 32 32 46.33 32 64V256H352V64z"/></svg>