<svg xmlns="http://www.w3.org/2000/svg" viewBox="0 0 640 512"><!--! Font Awesome Pro 6.1.1 by @fontawesome - https://fontawesome.com License - https://fontawesome.com/license (Commercial License) Copyright 2022 Fonticons, Inc. --><path d="M633.9 483.4C640.9 488.9 642 498.1 636.6 505.9C631.1 512.9 621 514 614.1 508.6L6.086 28.56C-.8493 23.08-2.033 13.02 3.443 6.086C8.918-.8493 18.98-2.033 25.91 3.443L633.9 483.4zM560 304H484.1L448 275.5V264C448 224.2 415.8 192 376 192H342.2L301.7 160H376C398.9 160 420.2 167.4 437.4 180L516.7 100.7C522.9 94.44 533.1 94.44 539.3 100.7C545.6 106.9 545.6 117.1 539.3 123.3L459.1 202.6C472.6 219.8 480 241.1 480 264V272H560C568.8 272 576 279.2 576 288C576 296.8 568.8 304 560 304H560zM411.4 409.7L436.6 429.6C407.4 460.6 365.1 480 320 480C273.4 480 231.5 460.1 202.3 428.4L123.3 507.3C117.1 513.6 106.9 513.6 100.7 507.3C94.44 501.1 94.44 490.9 100.7 484.7L182.9 402.5C168.4 378.4 160 350.2 160 320V304H80C71.16 304 64 296.8 64 288C64 279.2 71.16 272 80 272H160V264C160 247.1 163.6 232.8 170.1 219.2L196.2 239.8C193.5 247.4 192 255.5 192 264V320C192 385.3 240.9 439.1 304 447V324.9L336 350.2V447C365.4 443.3 391.6 429.7 411.4 409.7V409.7zM224 96C224 42.98 266.1 .0006 320 .0006C373 .0006 416 42.98 416 96V99.56C416 115.3 403.3 128 387.6 128H261.2L224 98.67V96zM256 96H384C384 60.65 355.3 32 320 32C284.7 32 256 60.65 256 96z"/></svg>