<svg xmlns="http://www.w3.org/2000/svg" viewBox="0 0 576 512"><!--! Font Awesome Pro 6.1.1 by @fontawesome - https://fontawesome.com License - https://fontawesome.com/license (Commercial License) Copyright 2022 Fonticons, Inc. --><path d="M187.4 136H218.9L224.3 108.9C226 100.2 234.5 94.58 243.1 96.31C251.8 98.05 257.4 106.5 255.7 115.1L247.7 155.1C246.2 162.6 239.6 168 232 168H192V217.8L237.1 232.8C242.8 234.7 246.1 239.7 247.8 245.7L255.8 301.7C257.1 310.5 251 318.6 242.3 319.8C233.5 321.1 225.4 315 224.2 306.3L217.6 260.1L186.6 249.7C176.7 272.3 154.2 288 128 288C101.8 288 79.3 272.3 69.39 249.7L38.44 260.1L31.84 306.3C30.59 315 22.49 321.1 13.74 319.8C4.993 318.6-1.086 310.5 .1642 301.7L8.164 245.7C9.021 239.7 13.19 234.7 18.94 232.8L64 217.8V168H24C16.38 168 9.81 162.6 8.314 155.1L.3139 115.1C-1.419 106.5 4.2 98.05 12.87 96.31C21.53 94.58 29.96 100.2 31.69 108.9L37.12 136H68.66C74.5 121.6 85.45 109.8 99.27 102.8L65.26 22.23C61.83 14.08 65.64 4.7 73.78 1.264C81.92-2.173 91.31 1.641 94.74 9.782L128 88.58L161.3 9.782C164.7 1.641 174.1-2.173 182.2 1.264C190.4 4.7 194.2 14.09 190.7 22.23L156.7 102.8C170.6 109.8 181.5 121.6 187.4 136L187.4 136zM160 224V160C160 142.3 145.7 128 128 128C110.3 128 96 142.3 96 160V224C96 241.7 110.3 256 128 256C145.7 256 160 241.7 160 224zM502.3 323.5L529.6 339.2L547.8 318.4C553.7 311.8 563.8 311.2 570.4 316.1C577.1 322.8 577.7 332.9 571.9 339.6L544.9 370.2C539.9 375.9 531.5 377.3 524.9 373.5L490.3 353.5L465.4 396.6L496.9 432.2C500.9 436.7 502 443.1 499.8 448.7L478.7 501.2C475.4 509.4 466.1 513.4 457.9 510.1C449.7 506.8 445.7 497.5 449 489.3L466.4 446L444.8 421.6C424.9 436.2 397.5 438.5 374.9 425.4C352.2 412.3 340.5 387.4 343.2 362.1L311.3 356.4L282.5 393.2C276.1 400.1 266.9 401.3 259.1 395.9C253 390.4 251.8 380.4 257.3 373.4L292.2 328.9C295.9 324.1 302.1 321.9 308 323.1L354.5 332.6L379.4 289.5L344.8 269.5C338.2 265.7 335.2 257.7 337.6 250.5L350.7 211.9C353.5 203.5 362.6 199 370.1 201.8C379.4 204.7 383.9 213.8 381 222.1L372.2 248.3L399.5 264.1C411.7 254.5 427.1 249.8 442.6 250.7L453.4 163.9C454.5 155.1 462.5 148.9 471.3 149.1C480 151.1 486.3 159.1 485.2 167.8L474.6 252.7L542.8 201.1C549.8 195.8 559.9 197.2 565.2 204.2C570.5 211.3 569.1 221.3 562.1 226.6L492.3 279.4C500.8 292.3 504.4 308 502.3 323.5L502.3 323.5zM434.6 386L466.6 330.6C475.4 315.3 470.2 295.7 454.9 286.9C439.6 278 419.1 283.3 411.1 298.6L379.1 354C370.3 369.3 375.6 388.9 390.9 397.7C406.2 406.6 425.7 401.3 434.6 386z"/></svg>