<svg xmlns="http://www.w3.org/2000/svg" viewBox="0 0 640 512"><!--! Font Awesome Pro 6.1.1 by @fontawesome - https://fontawesome.com License - https://fontawesome.com/license (Commercial License) Copyright 2022 Fonticons, Inc. --><path d="M32 64V448C32 465.7 46.33 480 64 480H128V416C128 380.7 156.7 352 192 352C227.3 352 256 380.7 256 416V480H320C332.1 480 342.6 473.3 348.1 463.4C354.1 472.7 361 481.5 368.7 489.5C356.1 503.3 339.5 512 320 512H64C28.65 512 0 483.3 0 448V64C0 28.65 28.65 0 64 0H320C355.3 0 384 28.65 384 64V232.2C371.9 242.3 361.1 253.9 352 266.8V64C352 46.33 337.7 32 320 32H64C46.33 32 32 46.33 32 64V64zM224 416C224 398.3 209.7 384 192 384C174.3 384 160 398.3 160 416V480H224V416zM64 120C64 106.7 74.75 96 88 96H136C149.3 96 160 106.7 160 120V168C160 181.3 149.3 192 136 192H88C74.75 192 64 181.3 64 168V120zM96 128V160H128V128H96zM296 96C309.3 96 320 106.7 320 120V168C320 181.3 309.3 192 296 192H248C234.7 192 224 181.3 224 168V120C224 106.7 234.7 96 248 96H296zM288 160V128H256V160H288zM64 248C64 234.7 74.75 224 88 224H136C149.3 224 160 234.7 160 248V296C160 309.3 149.3 320 136 320H88C74.75 320 64 309.3 64 296V248zM96 256V288H128V256H96zM296 224C309.3 224 320 234.7 320 248V296C320 309.3 309.3 320 296 320H248C234.7 320 224 309.3 224 296V248C224 234.7 234.7 224 248 224H296zM288 288V256H256V288H288zM563.3 324.7C569.6 330.9 569.6 341.1 563.3 347.3L491.3 419.3C485.1 425.6 474.9 425.6 468.7 419.3L428.7 379.3C422.4 373.1 422.4 362.9 428.7 356.7C434.9 350.4 445.1 350.4 451.3 356.7L480 385.4L540.7 324.7C546.9 318.4 557.1 318.4 563.3 324.7H563.3zM352 368C352 288.5 416.5 224 496 224C575.5 224 640 288.5 640 368C640 447.5 575.5 512 496 512C416.5 512 352 447.5 352 368zM496 480C557.9 480 608 429.9 608 368C608 306.1 557.9 256 496 256C434.1 256 384 306.1 384 368C384 429.9 434.1 480 496 480z"/></svg>