<svg xmlns="http://www.w3.org/2000/svg" viewBox="0 0 640 512"><!--! Font Awesome Pro 6.1.1 by @fontawesome - https://fontawesome.com License - https://fontawesome.com/license (Commercial License) Copyright 2022 Fonticons, Inc. --><path d="M136 96C149.3 96 160 106.7 160 120V168C160 181.3 149.3 192 136 192H88C74.75 192 64 181.3 64 168V120C64 106.7 74.75 96 88 96H136zM128 160V128H96V160H128zM224 120C224 106.7 234.7 96 248 96H296C309.3 96 320 106.7 320 120V168C320 181.3 309.3 192 296 192H248C234.7 192 224 181.3 224 168V120zM256 128V160H288V128H256zM136 224C149.3 224 160 234.7 160 248V296C160 309.3 149.3 320 136 320H88C74.75 320 64 309.3 64 296V248C64 234.7 74.75 224 88 224H136zM128 288V256H96V288H128zM224 248C224 234.7 234.7 224 248 224H296C309.3 224 320 234.7 320 248V296C320 309.3 309.3 320 296 320H248C234.7 320 224 309.3 224 296V248zM256 256V288H288V256H256zM0 448V64C0 28.65 28.65 0 64 0H320C355.3 0 384 28.65 384 64V448C384 483.3 355.3 512 320 512H64C28.65 512 0 483.3 0 448zM320 32H64C46.33 32 32 46.33 32 64V448C32 465.7 46.33 480 64 480H128V416C128 380.7 156.7 352 192 352C227.3 352 256 380.7 256 416V480H320C337.7 480 352 465.7 352 448V64C352 46.33 337.7 32 320 32zM160 416V480H224V416C224 398.3 209.7 384 192 384C174.3 384 160 398.3 160 416zM624 192C632.8 192 640 199.2 640 208V224C640 248.6 630.8 271 615.6 288H624C632.8 288 640 295.2 640 304V320C640 344.6 630.8 367 615.6 384H624C632.8 384 640 391.2 640 400V416C640 469 597 512 544 512H512C458.1 512 416 469 416 416V400C416 391.2 423.2 384 432 384H440.4C425.2 367 416 344.6 416 320V304C416 295.2 423.2 288 432 288H440.4C425.2 271 416 248.6 416 224V208C416 199.2 423.2 192 432 192H448C481.4 192 510.8 209 528 234.9C545.2 209 574.6 192 608 192H624zM544 288C579.3 288 608 259.3 608 224C572.7 224 544 252.7 544 288zM512 288C512 252.7 483.3 224 448 224C448 259.3 476.7 288 512 288zM519.6 320C522.6 323.4 525.4 327.1 528 330.9C530.6 327.1 533.4 323.4 536.4 320H519.6zM536.4 416H519.6C522.6 419.4 525.4 423.1 528 426.9C530.6 423.1 533.4 419.4 536.4 416H536.4zM608 320C572.7 320 544 348.7 544 383.1C579.3 383.1 608 355.3 608 320zM512 384C512 348.7 483.3 320 448 320C448 355.3 476.7 384 512 384zM544 480C579.3 480 608 451.3 608 416C572.7 416 544 444.7 544 480zM512 480C512 444.7 483.3 416 448 416C448 451.3 476.7 480 512 480zM528 32C536.8 32 544 39.16 544 48V160C544 168.8 536.8 176 528 176C519.2 176 512 168.8 512 160V48C512 39.16 519.2 32 528 32zM608 96V144C608 152.8 600.8 160 592 160C583.2 160 576 152.8 576 144V96C576 87.16 583.2 80 592 80C600.8 80 608 87.16 608 96zM448 144V96C448 87.16 455.2 80 464 80C472.8 80 480 87.16 480 96V144C480 152.8 472.8 160 464 160C455.2 160 448 152.8 448 144z"/></svg>