<svg xmlns="http://www.w3.org/2000/svg" viewBox="0 0 512 512"><!--! Font Awesome Pro 6.1.1 by @fontawesome - https://fontawesome.com License - https://fontawesome.com/license (Commercial License) Copyright 2022 Fonticons, Inc. --><path d="M256 480C379.7 480 480 379.7 480 256C480 132.3 379.7 32 256 32C132.3 32 32 132.3 32 256C32 266.4 32.71 276.6 34.07 286.6L24.45 290.2C16.61 293 9.781 297.9 4.505 304.1C1.548 288.5 0 272.4 0 256C0 114.6 114.6 0 256 0C397.4 0 512 114.6 512 256C512 397.4 397.4 512 256 512C239.6 512 223.5 510.5 207.9 507.5C214.1 502.2 218.1 495.4 221.8 487.6L225.4 477.9C235.4 479.3 245.6 480 256 480V480zM260 383.9C328.9 381.8 384 325.3 384 256C384 185.3 326.7 128 256 128C186.7 128 130.2 183.1 128.1 251.1L96.18 263.7C96.06 261.2 95.1 258.6 95.1 255.1C95.1 167.6 167.6 95.1 255.1 95.1C344.4 95.1 416 167.6 416 255.1C416 344.4 344.4 416 255.1 416C253.4 416 250.8 415.9 248.3 415.8L260 383.9zM191.8 476.5C189.5 482.7 183.7 486.8 177.1 486.1C170.5 487.1 164.5 483.1 162 477.1L131.5 403.1L27.31 507.3C21.07 513.6 10.94 513.6 4.686 507.3C-1.562 501.1-1.562 490.9 4.686 484.7L108.9 380.5L34.95 349.1C28.85 347.5 24.92 341.5 25.04 334.9C25.17 328.3 29.32 322.5 35.51 320.2L250.5 240.1C256.3 238.8 262.9 240.3 267.3 244.7C271.7 249.1 273.2 255.7 271 261.5L191.8 476.5zM152 368.7L175.1 426.9L229 282.1L85.07 336L143.3 360C147.2 361.6 150.4 364.8 152 368.7L152 368.7z"/></svg>