<svg xmlns="http://www.w3.org/2000/svg" viewBox="0 0 640 512"><!--! Font Awesome Pro 6.1.1 by @fontawesome - https://fontawesome.com License - https://fontawesome.com/license (Commercial License) Copyright 2022 Fonticons, Inc. --><path d="M148.7 267.3C145.7 264.3 144 260.2 144 255.1V31.1C144 26.55 145.4 21.2 148.1 16.45C150.7 11.69 154.6 7.698 159.2 4.836C163.8 1.975 169.1 .3433 174.5 .0956C179.1-.1521 185.4 .9929 190.3 3.421L222.3 19.42C227.6 22.05 232.1 26.12 235.2 31.17C238.4 36.23 240 42.05 240 47.1V255.1C240 260.2 238.3 264.3 235.3 267.3C232.3 270.3 228.2 271.1 224 271.1C219.8 271.1 215.7 270.3 212.7 267.3C209.7 264.3 208 260.2 208 255.1V47.1L176 31.1V255.1C176 260.2 174.3 264.3 171.3 267.3C168.3 270.3 164.2 271.1 160 271.1C155.8 271.1 151.7 270.3 148.7 267.3V267.3zM85.69 204.3C82.8 201.9 80.85 198.5 80.2 194.8L56.2 58.78C55.62 55.54 56.06 52.19 57.46 49.21C58.86 46.23 61.14 43.75 64 42.11L104.1 19.2C107.7 17.31 111.1 16.92 115.9 18.11C119.9 19.29 123.2 21.95 125.3 25.54C127.3 29.13 127.9 33.37 126.9 37.37C125.9 41.37 123.3 44.82 119.8 47.01L89.6 64.32L111.6 189.2C112.3 193.4 111.4 197.7 109 201.1C106.6 204.6 102.9 206.1 98.79 207.8C97.87 207.9 96.94 208 96 207.1C92.23 208 88.58 206.7 85.69 204.3zM266.9 63.04C262.9 61.7 259.6 58.81 257.7 55.02C255.8 51.22 255.4 46.82 256.8 42.8C258.1 38.77 261 35.44 264.8 33.54C268.6 31.64 273 31.33 277 32.67L325 48.67C328.9 49.94 332.1 52.64 334.1 56.2C335.1 59.77 336.5 63.94 335.5 67.87L303.5 195.9C302.6 199.3 300.6 202.4 297.8 204.6C295 206.8 291.6 207.1 288 207.1C286.7 208 285.3 207.8 284 207.5C279.9 206.5 276.4 203.9 274.2 200.2C272 196.6 271.4 192.2 272.4 188.1L300.8 74.53L266.9 63.2L266.9 63.04zM359.5 157.5C357.7 156.4 356.2 154.1 354.9 153.2C353.7 151.5 352.9 149.6 352.4 147.5C351.9 145.5 351.9 143.4 352.2 141.3L360 95.1C360.3 93.84 360.1 91.76 362 89.87C363.1 87.99 364.6 86.35 366.3 85.05C368.1 83.75 370.1 82.82 372.2 82.32C374.3 81.81 376.5 81.74 378.6 82.11C380.8 82.48 382.8 83.28 384.6 84.47C386.4 85.65 388 87.2 389.2 89.01C390.4 90.81 391.2 92.85 391.6 94.99C392 97.12 391.1 99.32 391.5 101.4L383.7 146.7C383.1 150.4 381.2 153.8 378.3 156.2C375.4 158.7 371.8 159.1 368 159.1C367.1 160 366.2 159.9 365.3 159.8C363.2 159.4 361.3 158.7 359.5 157.5L359.5 157.5zM22.38 188.4C19.53 186.1 17.57 182.8 16.84 179.2L.3232 99.2C-.5254 95.04 .3127 90.71 2.653 87.17C4.994 83.63 8.645 81.17 12.8 80.32C16.96 79.47 21.29 80.31 24.83 82.65C28.37 84.99 30.83 88.64 31.68 92.8L48.16 172.8C48.58 174.9 48.59 176.1 48.2 179C47.8 181.1 46.99 183.1 45.83 184.8C44.68 186.6 43.18 188.1 41.44 189.3C39.7 190.4 37.74 191.3 35.68 191.7C34.63 191.9 33.56 191.1 32.48 191.1C28.8 191.1 25.23 190.7 22.38 188.4H22.38zM624 415.3C624 415.5 624 415.8 624 415.1V459.1C623.1 473.8 618.5 486.1 608.8 496.7C599 506.5 585.8 511.1 572 511.1H324C310.2 511.1 297 506.5 287.3 496.7C277.5 486.1 272 473.8 272 459.1V415.1C272 415.8 272.1 415.5 272.2 415.3C261.8 404.8 255.1 390.7 255.1 376C255.1 361.3 261.8 347.2 272.2 336.7C272.1 336.5 272 336.2 272 335.1V295.1C272.2 283.5 274.1 271.3 280.1 259.9C285.1 248.5 292.5 238.3 301.6 229.8C341.9 194.2 393.1 175.1 447.7 175.1H448.4C502.1 175.1 554.2 194.3 594.4 229.8C603.5 238.3 610.9 248.5 615.9 259.9C621 271.3 623.8 283.5 624 295.1V335.1C624 336.2 624 336.5 624 336.7C634.3 347.2 640.1 361.3 640 375.1C640.1 390.7 634.3 404.8 624 415.3H624zM304 320.8C306.6 320.3 309.3 320.1 312 319.1H584C586.7 320.1 589.4 320.3 592 320.8V295.1C591.8 287.7 589.8 279.6 586.4 272.1C582.9 264.6 577.1 257.9 571.8 252.4C537.5 222.1 493.6 207.2 448.4 207.1H447.7C402.5 207.2 358.5 222.1 324.2 252.4C318 257.9 313.1 264.6 309.6 272.1C306.2 279.6 304.2 287.7 304 295.1V320.8zM592 431.2C589.4 431.7 586.7 431.9 584 431.1H312C309.3 431.9 306.6 431.7 304 431.2V459.1C304 465.3 306.1 470.4 309.9 474.1C313.6 477.9 318.7 479.1 324 479.1H572C577.3 479.1 582.4 477.9 586.1 474.1C589.9 470.4 592 465.3 592 459.1V431.2zM600.1 392.1C605.5 388.5 608 382.4 608 375.1C608 369.6 605.5 363.5 600.1 359C596.5 354.5 590.4 351.1 584 351.1H312C305.6 351.1 299.5 354.5 295 359C290.5 363.5 288 369.6 288 375.1C288 382.4 290.5 388.5 295 392.1C299.5 397.5 305.6 399.1 312 399.1H584C590.4 399.1 596.5 397.5 600.1 392.1zM356.7 283.3C353.7 280.3 352 276.2 352 271.1C352 268.8 352.9 265.7 354.7 263.1C356.5 260.5 358.1 258.4 361.9 257.2C364.8 256 368 255.7 371.1 256.3C374.2 256.9 377.1 258.4 379.3 260.7C381.6 262.9 383.1 265.8 383.7 268.9C384.3 271.1 383.1 275.2 382.8 278.1C381.6 281 379.5 283.5 376.9 285.3C374.3 287.1 371.2 287.1 368 287.1C363.8 287.1 359.7 286.3 356.7 283.3zM436.7 267.3C433.7 264.3 432 260.2 432 255.1C432 252.8 432.9 249.7 434.7 247.1C436.5 244.5 438.1 242.4 441.9 241.2C444.8 240 448 239.7 451.1 240.3C454.2 240.9 457.1 242.4 459.3 244.7C461.6 246.9 463.1 249.8 463.7 252.9C464.3 255.1 463.1 259.2 462.8 262.1C461.6 265 459.5 267.5 456.9 269.3C454.3 271.1 451.2 271.1 448 271.1C443.8 271.1 439.7 270.3 436.7 267.3zM516.7 283.3C513.7 280.3 512 276.2 512 271.1C512 268.8 512.9 265.7 514.7 263.1C516.5 260.5 518.1 258.4 521.9 257.2C524.8 256 528 255.7 531.1 256.3C534.2 256.9 537.1 258.4 539.3 260.7C541.6 262.9 543.1 265.8 543.7 268.9C544.3 271.1 543.1 275.2 542.8 278.1C541.6 281 539.5 283.5 536.9 285.3C534.3 287.1 531.2 287.1 528 287.1C523.8 287.1 519.7 286.3 516.7 283.3H516.7zM251.3 484.7C254.3 487.7 256 491.8 256 495.1C256 500.2 254.3 504.3 251.3 507.3C248.3 510.3 244.2 511.1 240 511.1H80C76.43 511.1 72.97 510.8 70.16 508.6C67.34 506.4 65.35 503.3 64.48 499.9L.4835 243.9C-.0966 241.5-.1273 238.1 .3936 236.6C.9146 234.2 1.974 231.9 3.492 230C4.975 228.1 6.876 226.6 9.045 225.5C11.22 224.5 13.6 223.1 16 223.1H48C50.7 224.2 53.33 224.9 55.72 226.1C58.12 227.4 60.22 229.1 61.89 231.3L83.97 253.3C108.5 276.2 138.6 292 171.3 299.3C187.8 301.1 204.6 301.8 220.1 298.7C223.1 298.1 225.4 297.9 227.6 298.2C229.8 298.5 231.9 299.3 233.8 300.4C235.7 301.6 237.4 303.1 238.7 304.9C239.9 306.8 240.8 308.8 241.2 311C241.7 313.2 241.6 315.5 241.1 317.6C240.6 319.8 239.7 321.9 238.4 323.6C237 325.4 235.4 326.9 233.4 328C231.5 329.1 229.3 329.8 227.1 330C204.6 334.4 181.4 334.3 158.9 329.6C123.3 322.6 90.64 305.2 64.1 279.6L41.38 255.1H36.52L92.52 479.1H240C244.2 479.1 248.3 481.7 251.3 484.7H251.3z"/></svg>