<svg xmlns="http://www.w3.org/2000/svg" viewBox="0 0 512 512"><!--! Font Awesome Pro 6.1.1 by @fontawesome - https://fontawesome.com License - https://fontawesome.com/license (Commercial License) Copyright 2022 Fonticons, Inc. --><path d="M49.45 250.1C44.81 248.2 40.83 244.4 37.81 239.9C34.79 235.4 32.79 230.3 31.95 224.1C31.12 219.6 31.48 214.2 32.99 208.1C44.73 158.7 73.16 113.8 113.6 81.63C154.1 49.5 204.3 32.01 256 32.01C307.7 32.01 357.9 49.5 398.4 81.63C438.8 113.8 467.3 158.7 479 208.1C480.5 214.2 480.9 219.6 480 224.1C479.2 230.3 477.2 235.4 474.2 239.9C471.2 244.4 467.2 248.2 462.6 250.1C457.9 253.7 452.7 255.5 447.3 256H64.67C59.29 255.5 54.09 253.7 49.45 250.1zM133.6 106.3C98.73 133.9 74.3 172.5 64.29 215.8C63.87 217.3 63.82 218.8 64.14 220.3C64.46 221.8 65.13 223.2 66.11 224.4L447.3 224C447.8 221.3 447.1 218.5 447.7 215.8C437.7 172.5 413.3 133.9 378.5 106.3C343.6 78.75 300.4 63.82 256 64C211.6 63.82 168.4 78.75 133.6 106.3zM340.7 155.3C337.7 152.3 336 148.2 336 144C336 140.8 336.9 137.7 338.7 135.1C340.5 132.5 342.1 130.4 345.9 129.2C348.8 128 352 127.7 355.1 128.3C358.2 128.9 361.1 130.4 363.3 132.7C365.6 134.9 367.1 137.8 367.7 140.9C368.3 143.1 367.1 147.2 366.8 150.1C365.6 153 363.5 155.5 360.9 157.3C358.3 159.1 355.2 160 352 160C347.8 160 343.7 158.3 340.7 155.3V155.3zM244.7 123.3C241.7 120.3 240 116.2 240 112C240 108.8 240.9 105.7 242.7 103.1C244.5 100.5 246.1 98.43 249.9 97.22C252.8 96.01 256 95.69 259.1 96.31C262.2 96.93 265.1 98.45 267.3 100.7C269.6 102.9 271.1 105.8 271.7 108.9C272.3 111.1 271.1 115.2 270.8 118.1C269.6 121 267.5 123.5 264.9 125.3C262.3 127.1 259.2 128 256 128C251.8 128 247.7 126.3 244.7 123.3V123.3zM148.7 155.3C145.7 152.3 144 148.2 144 144C144 140.8 144.9 137.7 146.7 135.1C148.5 132.5 150.1 130.4 153.9 129.2C156.8 128 160 127.7 163.1 128.3C166.2 128.9 169.1 130.4 171.3 132.7C173.6 134.9 175.1 137.8 175.7 140.9C176.3 143.1 175.1 147.2 174.8 150.1C173.6 153 171.5 155.5 168.9 157.3C166.3 159.1 163.2 160 160 160C155.8 160 151.7 158.3 148.7 155.3L148.7 155.3zM475.3 356.7C478.3 359.7 480 363.8 480 368V416C480 432.1 473.3 449.3 461.3 461.3C449.3 473.3 432.1 480 416 480H96C79.03 480 62.75 473.3 50.75 461.3C38.74 449.3 32 432.1 32 416V368C32 363.8 33.69 359.7 36.69 356.7C39.69 353.7 43.76 352 48 352H464C468.2 352 472.3 353.7 475.3 356.7zM448 384H64V416C64 424.5 67.37 432.6 73.37 438.6C79.37 444.6 87.51 448 96 448H416C424.5 448 432.6 444.6 438.6 438.6C444.6 432.6 448 424.5 448 416V384zM491.3 292.7C494.3 295.7 496 299.8 496 304C496 308.2 494.3 312.3 491.3 315.3C488.3 318.3 484.2 320 480 320H32C27.76 320 23.69 318.3 20.69 315.3C17.69 312.3 16 308.2 16 304C16 299.8 17.69 295.7 20.69 292.7C23.69 289.7 27.76 288 32 288H480C484.2 288 488.3 289.7 491.3 292.7z"/></svg>