<svg xmlns="http://www.w3.org/2000/svg" viewBox="0 0 512 512"><!--! Font Awesome Pro 6.0.0-beta3 by @fontawesome - https://fontawesome.com License - https://fontawesome.com/license (Commercial License) Copyright 2021 Fonticons, Inc. --><path d="M192 80C192 71.16 199.2 64 208 64H304C312.8 64 320 71.16 320 80C320 88.84 312.8 96 304 96H208C199.2 96 192 88.84 192 80zM104 352C104 338.7 114.7 328 128 328C141.3 328 152 338.7 152 352C152 365.3 141.3 376 128 376C114.7 376 104 365.3 104 352zM360 352C360 338.7 370.7 328 384 328C397.3 328 408 338.7 408 352C408 365.3 397.3 376 384 376C370.7 376 360 365.3 360 352zM480 336V392C480 414.3 466.9 433.6 448 442.6V496C448 504.8 440.8 512 432 512C423.2 512 416 504.8 416 496V448H96V496C96 504.8 88.84 512 80 512C71.16 512 64 504.8 64 496V442.6C45.08 433.6 32 414.3 32 392V336C32 307.6 44.36 282 64 264.4V84.26C64 76.59 65.76 66.87 72.62 58.79C94.5 33.02 152.4 0 256 0C366.9 0 419.2 32.88 439.9 59.11C446.2 67.13 448 76.53 448 84.26V264.4C467.6 282 480 307.6 480 336zM256 32C158.3 32 110.9 63.2 97.01 79.5C96.79 79.76 96 80.99 96 84.26V128H416V84.26C416 81.04 415.2 79.52 414.8 78.95C402.3 63.11 361.1 32 256 32V32zM128 240H240V160H96V245.5C106 241.9 116.8 240 128 240zM272 240H384C395.2 240 405.1 241.9 416 245.5V160H272V240zM64 392C64 405.3 74.75 416 88 416H424C437.3 416 448 405.3 448 392V336C448 300.7 419.3 272 384 272H128C92.65 272 64 300.7 64 336V392zM32 240C32 248.8 24.84 256 16 256C7.164 256 0 248.8 0 240V144C0 135.2 7.164 128 16 128C24.84 128 32 135.2 32 144V240zM512 240C512 248.8 504.8 256 496 256C487.2 256 480 248.8 480 240V144C480 135.2 487.2 128 496 128C504.8 128 512 135.2 512 144V240z"/></svg>