<svg xmlns="http://www.w3.org/2000/svg" viewBox="0 0 384 512"><!--! Font Awesome Pro 6.0.0-beta3 by @fontawesome - https://fontawesome.com License - https://fontawesome.com/license (Commercial License) Copyright 2021 Fonticons, Inc. --><path d="M222.1 480c-138.3 0-222.1-116.4-222.1-223.1C.096 149.6 83.17 32 222.1 32C309.5 32 384 89.73 384 108.9c0 4.39-3.476 15.1-15.98 15.1C350.2 124.9 318.5 64 222.1 64C103.8 64 31.96 163.6 31.96 256c0 92.74 72.66 192 190.2 192c96.54 0 128.2-60.89 145.9-60.89C380.4 387.1 384 398.4 384 403.1C384 422.1 310.3 480 222.1 480z"/></svg>