<svg xmlns="http://www.w3.org/2000/svg" viewBox="0 0 448 512"><!--! Font Awesome Pro 6.1.1 by @fontawesome - https://fontawesome.com License - https://fontawesome.com/license (Commercial License) Copyright 2022 Fonticons, Inc. --><path d="M384 0H64C28.65 0 0 28.65 0 64v384c0 35.35 28.65 64 64 64h320c35.35 0 64-28.65 64-64V64C448 28.65 419.3 0 384 0zM416 448c0 17.67-14.33 32-32 32H64c-17.67 0-32-14.33-32-32V272h384V448zM416 240H32V64c0-17.67 14.33-32 32-32h320c17.67 0 32 14.33 32 32V240zM304 96h-160C135.2 96 128 103.2 128 112v32C128 152.8 135.2 160 144 160S160 152.8 160 144V128h128v16C288 152.8 295.2 160 304 160S320 152.8 320 144v-32C320 103.2 312.8 96 304 96zM144 416C152.8 416 160 408.8 160 400V384h128v16c0 8.844 7.156 16 16 16s16-7.156 16-16v-32c0-8.844-7.156-16-16-16h-160C135.2 352 128 359.2 128 368v32C128 408.8 135.2 416 144 416z"/></svg>