<svg xmlns="http://www.w3.org/2000/svg" viewBox="0 0 384 512"><!--! Font Awesome Pro 6.1.1 by @fontawesome - https://fontawesome.com License - https://fontawesome.com/license (Commercial License) Copyright 2022 Fonticons, Inc. --><path d="M320 0H64C28.66 0 0 28.66 0 64v384c0 35.34 28.66 64 64 64h256c35.34 0 64-28.66 64-64V64C384 28.66 355.3 0 320 0zM352 448c0 17.64-14.36 32-32 32H64c-17.64 0-32-14.36-32-32V160h320V448zM352 128H32V64c0-17.64 14.36-32 32-32h256c17.64 0 32 14.36 32 32V128zM80 432h128c8.844 0 16-7.156 16-16s-7.156-16-16-16h-128C71.16 400 64 407.2 64 416S71.16 432 80 432zM288 440c13.25 0 24-10.75 24-24s-10.75-24-24-24s-24 10.75-24 24S274.7 440 288 440zM288 344c13.25 0 24-10.75 24-24S301.3 296 288 296S264 306.7 264 320S274.7 344 288 344zM288 248c13.25 0 24-10.75 24-24S301.3 200 288 200S264 210.7 264 224S274.7 248 288 248zM192 344c13.25 0 24-10.75 24-24S205.3 296 192 296S168 306.7 168 320S178.7 344 192 344zM192 248c13.25 0 24-10.75 24-24S205.3 200 192 200S168 210.7 168 224S178.7 248 192 248zM96 344c13.25 0 24-10.75 24-24S109.3 296 96 296S72 306.7 72 320S82.75 344 96 344zM96 248c13.25 0 24-10.75 24-24S109.3 200 96 200S72 210.7 72 224S82.75 248 96 248z"/></svg>