<svg xmlns="http://www.w3.org/2000/svg" viewBox="0 0 576 512"><!--! Font Awesome Pro 6.0.0-beta3 by @fontawesome - https://fontawesome.com License - https://fontawesome.com/license (Commercial License) Copyright 2021 Fonticons, Inc. --><path d="M112 0C120.8 0 128 7.164 128 16V64H320V16C320 7.164 327.2 0 336 0C344.8 0 352 7.164 352 16V64H384C419.3 64 448 92.65 448 128V192H32V448C32 465.7 46.33 480 64 480H296.2C306.3 492.1 317.9 502.9 330.8 512H64C28.65 512 0 483.3 0 448V128C0 92.65 28.65 64 64 64H96V16C96 7.164 103.2 0 112 0zM384 96H64C46.33 96 32 110.3 32 128V160H416V128C416 110.3 401.7 96 384 96zM488 344C488 374.9 462.9 400 432 400C401.1 400 376 374.9 376 344C376 313.1 401.1 288 432 288C462.9 288 488 313.1 488 344zM432 320C418.7 320 408 330.7 408 344C408 357.3 418.7 368 432 368C445.3 368 456 357.3 456 344C456 330.7 445.3 320 432 320zM288 368C288 288.5 352.5 224 432 224C511.5 224 576 288.5 576 368C576 447.5 511.5 512 432 512C352.5 512 288 447.5 288 368zM432 480C454.1 480 474.7 473.6 491.1 462.6C484.1 453.5 472.6 448 460.2 448H403.8C391.4 448 379.9 453.5 372 462.6C389.3 473.6 409.9 480 432 480H432zM460.2 416C482.1 416 502.4 425.6 516.3 441.8C533.5 422.1 544 396.2 544 368C544 306.1 493.9 256 432 256C370.1 256 320 306.1 320 368C320 396.2 330.5 422.1 347.7 441.8C361.6 425.6 381.9 416 403.8 416H460.2z"/></svg>