<svg xmlns="http://www.w3.org/2000/svg" viewBox="0 0 448 512"><!--! Font Awesome Pro 6.1.1 by @fontawesome - https://fontawesome.com License - https://fontawesome.com/license (Commercial License) Copyright 2022 Fonticons, Inc. --><path d="M246.6 336L299.3 388.7C305.6 394.9 305.6 405.1 299.3 411.3C293.1 417.6 282.9 417.6 276.7 411.3L224 358.6L171.3 411.3C165.1 417.6 154.9 417.6 148.7 411.3C142.4 405.1 142.4 394.9 148.7 388.7L201.4 336L148.7 283.3C142.4 277.1 142.4 266.9 148.7 260.7C154.9 254.4 165.1 254.4 171.3 260.7L224 313.4L276.7 260.7C282.9 254.4 293.1 254.4 299.3 260.7C305.6 266.9 305.6 277.1 299.3 283.3L246.6 336zM128 64H320V16C320 7.164 327.2 0 336 0C344.8 0 352 7.164 352 16V64H384C419.3 64 448 92.65 448 128V448C448 483.3 419.3 512 384 512H64C28.65 512 0 483.3 0 448V128C0 92.65 28.65 64 64 64H96V16C96 7.164 103.2 0 112 0C120.8 0 128 7.164 128 16V64zM32 448C32 465.7 46.33 480 64 480H384C401.7 480 416 465.7 416 448V192H32V448zM32 128V160H416V128C416 110.3 401.7 96 384 96H64C46.33 96 32 110.3 32 128z"/></svg>