<svg xmlns="http://www.w3.org/2000/svg" viewBox="0 0 448 512"><!--! Font Awesome Pro 6.1.1 by @fontawesome - https://fontawesome.com License - https://fontawesome.com/license (Commercial License) Copyright 2022 Fonticons, Inc. --><path d="M250.4 235.3C269.1 216.6 299.5 216.6 318.2 235.3L324.7 241.8C343.4 260.5 343.4 290.9 324.7 309.6L201.6 432.7C197.4 436.9 192 439.9 186.2 441.2L136 452.7C118.8 456.7 103.3 441.2 107.3 423.1L118.8 373.8C120.1 367.1 123.1 362.6 127.3 358.4L250.4 235.3zM295.6 257.9C289.4 251.7 279.2 251.7 272.1 257.9L260.8 270.2L289.8 299.2L302.1 287C308.3 280.8 308.3 270.6 302.1 264.4L295.6 257.9zM267.2 321.8L238.2 292.8L149.1 380.1L141.3 418.7L179 410L267.2 321.8zM112 0C120.8 0 128 7.164 128 16V64H320V16C320 7.164 327.2 0 336 0C344.8 0 352 7.164 352 16V64H384C419.3 64 448 92.65 448 128V448C448 483.3 419.3 512 384 512H64C28.65 512 0 483.3 0 448V128C0 92.65 28.65 64 64 64H96V16C96 7.164 103.2 0 112 0zM416 192H32V448C32 465.7 46.33 480 64 480H384C401.7 480 416 465.7 416 448V192zM384 96H64C46.33 96 32 110.3 32 128V160H416V128C416 110.3 401.7 96 384 96z"/></svg>