<svg xmlns="http://www.w3.org/2000/svg" viewBox="0 0 576 512"><!--! Font Awesome Pro 6.1.1 by @fontawesome - https://fontawesome.com License - https://fontawesome.com/license (Commercial License) Copyright 2022 Fonticons, Inc. --><path d="M112 0C120.8 0 128 7.164 128 16V64H320V16C320 7.164 327.2 0 336 0C344.8 0 352 7.164 352 16V64H384C419.3 64 448 92.65 448 128V192H32V448C32 465.7 46.33 480 64 480H296.2C306.3 492.1 317.9 502.9 330.8 512H64C28.65 512 0 483.3 0 448V128C0 92.65 28.65 64 64 64H96V16C96 7.164 103.2 0 112 0zM384 96H64C46.33 96 32 110.3 32 128V160H416V128C416 110.3 401.7 96 384 96zM432 287.1C440.8 287.1 448 295.2 448 303.1V351.1H496C504.8 351.1 512 359.2 512 367.1C512 376.8 504.8 383.1 496 383.1H448V431.1C448 440.8 440.8 447.1 432 447.1C423.2 447.1 416 440.8 416 431.1V383.1H368C359.2 383.1 352 376.8 352 367.1C352 359.2 359.2 351.1 368 351.1H416V303.1C416 295.2 423.2 287.1 432 287.1zM288 368C288 288.5 352.5 224 432 224C511.5 224 576 288.5 576 368C576 447.5 511.5 512 432 512C352.5 512 288 447.5 288 368zM432 480C493.9 480 544 429.9 544 368C544 306.1 493.9 256 432 256C370.1 256 320 306.1 320 368C320 429.9 370.1 480 432 480z"/></svg>