<svg xmlns="http://www.w3.org/2000/svg" viewBox="0 0 448 512"><!--! Font Awesome Pro 6.0.0-beta3 by @fontawesome - https://fontawesome.com License - https://fontawesome.com/license (Commercial License) Copyright 2021 Fonticons, Inc. --><path d="M384 0h-320c-35.35 0-64 28.65-64 64v288c0 35.35 28.65 64 64 64h43.7l-36.26 43.5c-8.031 9.656-9.719 22.72-4.391 34.09C72.38 504.9 83.48 512 96.03 512h255.9c12.55 0 23.66-7.062 28.98-18.41c5.328-11.38 3.641-24.44-4.391-34.09L340.3 416h43.7c35.35 0 64-28.65 64-64V64C448 28.65 419.3 0 384 0zM351.1 480H96.03l53.35-64h149.2L351.1 480zM416 352c0 17.64-14.36 32-32 32H64c-17.64 0-32-14.36-32-32V64c0-17.64 14.36-32 32-32h320c17.64 0 32 14.36 32 32V352zM224 80c-70.69 0-127.1 57.31-127.1 128c0 70.69 57.31 128 127.1 128c70.69 0 128-57.31 128-128C352 137.3 294.7 80 224 80zM224 304c-52.93 0-96-43.07-96-96c0-52.94 43.07-96 96-96c52.94 0 96 43.06 96 96C320 260.9 276.9 304 224 304z"/></svg>