<svg xmlns="http://www.w3.org/2000/svg" viewBox="0 0 512 512"><!--! Font Awesome Pro 6.0.0-beta3 by @fontawesome - https://fontawesome.com License - https://fontawesome.com/license (Commercial License) Copyright 2021 Fonticons, Inc. --><path d="M352 176c-8.844 0-16 7.156-16 16v25.72C315.7 194.6 287.1 181 256 181c-33.16 0-63.91 15-84.34 41.14C166.2 229.1 167.5 239.2 174.4 244.6C181.4 250 191.4 248.8 196.9 241.9C224.1 205.9 283.9 205.4 313.3 240H288c-8.844 0-16 7.156-16 16s7.156 16 16 16h64c8.844 0 16-7.156 16-16V192C368 183.2 360.8 176 352 176zM315.1 334.1C287 370.1 228.1 370.6 198.8 336H224c8.844 0 16-7.156 16-16S232.8 304 224 304H160c-8.844 0-16 7.156-16 16v64c0 8.844 7.156 16 16 16s16-7.156 16-16v-25.72C196.3 381.4 224.9 395 256 395c33.16 0 63.91-15 84.34-41.14c5.438-6.969 4.203-17.03-2.75-22.47C330.6 325.9 320.6 327.2 315.1 334.1zM448 96h-72l-8.457-22.51C358.2 48.55 334.3 32 307.6 32H204.4C177.7 32 153.9 48.51 144.5 73.45L136 96H64C28.65 96 0 124.7 0 160v256c0 35.35 28.65 64 64 64h384c35.35 0 64-28.65 64-64V160C512 124.7 483.3 96 448 96zM480 416c0 17.6-14.4 32-32 32H64c-17.6 0-32-14.4-32-32V160c0-17.6 14.4-32 32-32h94.25l16.11-43.18C179 72.3 190.1 64 204.3 64h103.3c13.36 0 25.31 8.301 29.98 20.82L353.8 128H448c17.6 0 32 14.4 32 32V416z"/></svg>