<svg xmlns="http://www.w3.org/2000/svg" viewBox="0 0 512 512"><!--! Font Awesome Pro 6.0.0-beta3 by @fontawesome - https://fontawesome.com License - https://fontawesome.com/license (Commercial License) Copyright 2021 Fonticons, Inc. --><path d="M256 320c79.5 0 144-64.5 144-144c0-33.25-33.38-102-80-144c-13.38 12-25.5 24.75-36.13 37.5C266.4 46 244.6 22.25 220 0c-63.13 57-108 131.3-108 176C112 255.5 176.5 320 256 320zM220.2 44.38c14.12 14.38 27 29.38 38.13 44.25L282.4 121l26-31c3.5-4.25 7.25-8.375 11-12.38C350 114.5 368 159.3 368 176c0 61.75-50.25 112-112 112s-112-50.25-112-112C144 148.3 172 94.38 220.2 44.38zM501.5 480.1L302.5 408l199-72.97c8.281-3.062 12.55-12.25 9.5-20.53c-3.047-8.312-12.17-12.53-20.53-9.531L256 390.9L21.52 304.1c-8.297-3-17.48 1.219-20.53 9.531c-3.047 8.281 1.219 17.47 9.5 20.53L209.5 408l-199 72.97c-8.281 3.062-12.55 12.25-9.5 20.53C3.359 508 9.484 512 16 512c1.828 0 3.688-.3125 5.516-.9687L256 425.1l234.5 85.98C492.3 511.7 494.2 512 496 512c6.516 0 12.64-4 15.02-10.5C514.1 493.2 509.8 484 501.5 480.1z"/></svg>