<svg xmlns="http://www.w3.org/2000/svg" viewBox="0 0 640 512"><!--! Font Awesome Pro 6.0.0-beta3 by @fontawesome - https://fontawesome.com License - https://fontawesome.com/license (Commercial License) Copyright 2021 Fonticons, Inc. --><path d="M589.3 82.75C601.3 94.75 608 111 608 128V384C608 400.1 601.3 417.3 589.3 429.3C577.3 441.3 560.1 448 544 448H32C15.03 448-1.252 441.3-13.25 429.3C-25.26 417.3-32 400.1-32 384V222.4C-13.93 218.7 2.31 208.9 13.97 194.6C25.64 180.3 32 162.4 32 144V128H48C66.44 128 84.32 121.6 98.61 109.1C112.9 98.31 122.7 82.07 126.4 64H544C560.1 64 577.3 70.74 589.3 82.75zM62.98 158.1C61.23 170.5 57.66 181.6 52.42 192H128V125.2C110.7 143.5 87.83 155.4 62.98 158.1zM0 320H128V224H29.25C20.71 232.6 10.83 239.8 0 245.2V320zM128 416V352H0V384C0 392.5 3.372 400.6 9.372 406.6C15.37 412.6 23.51 416 32 416H128zM288 352H160V416H288V352zM288 224H160V320H288V224zM288 96H160V192H288V96zM576 128C576 119.5 572.6 111.4 566.6 105.4C560.6 99.37 552.5 96 544 96H320V416H544C552.5 416 560.6 412.6 566.6 406.6C572.6 400.6 576 392.5 576 384V128z"/></svg>