<svg xmlns="http://www.w3.org/2000/svg" viewBox="0 0 512 512"><!--! Font Awesome Pro 6.1.1 by @fontawesome - https://fontawesome.com License - https://fontawesome.com/license (Commercial License) Copyright 2022 Fonticons, Inc. --><path d="M256 32C132.3 32 32 132.3 32 256V496C32 504.8 24.84 512 16 512C7.164 512 0 504.8 0 496V256C0 114.6 114.6 0 256 0C397.4 0 512 114.6 512 256V496C512 504.8 504.8 512 496 512C487.2 512 480 504.8 480 496V256C480 132.3 379.7 32 256 32zM208 400C208 413.3 197.3 424 184 424C170.7 424 160 413.3 160 400C160 386.7 170.7 376 184 376C197.3 376 208 386.7 208 400zM304 400C304 386.7 314.7 376 328 376C341.3 376 352 386.7 352 400C352 413.3 341.3 424 328 424C314.7 424 304 413.3 304 400zM121.4 329.1L144.7 257.2C151.1 237.4 169.6 224 190.4 224H321.6C342.4 224 360.9 237.4 367.3 257.2L390.6 329.1C405.9 339.1 416 356.4 416 376V496C416 504.8 408.8 512 400 512C391.2 512 384 504.8 384 496V480H128V496C128 504.8 120.8 512 112 512C103.2 512 96 504.8 96 496V376C96 356.4 106.1 339.1 121.4 329.1V329.1zM158 320H353.1L336.8 267.1C334.7 260.5 328.6 256 321.6 256H190.4C183.4 256 177.3 260.5 175.2 267.1L158 320zM128 448H384V376C384 362.7 373.3 352 360 352H152C138.7 352 128 362.7 128 376V448z"/></svg>