<svg xmlns="http://www.w3.org/2000/svg" viewBox="0 0 640 512"><!--! Font Awesome Pro 6.0.0-beta3 by @fontawesome - https://fontawesome.com License - https://fontawesome.com/license (Commercial License) Copyright 2021 Fonticons, Inc. --><path d="M632.5 194.5C640 199.2 642.2 209.1 637.5 216.5C632.8 224 622.9 226.2 615.5 221.5L320 34.92L24.55 221.5C17.07 226.2 7.193 224 2.474 216.5C-2.244 209.1-.0131 199.2 7.458 194.5L311.5 2.472C316.7-.8241 323.3-.8241 328.5 2.472L632.5 194.5zM184 376C184 362.7 194.7 352 208 352C221.3 352 232 362.7 232 376C232 389.3 221.3 400 208 400C194.7 400 184 389.3 184 376zM456 376C456 389.3 445.3 400 432 400C418.7 400 408 389.3 408 376C408 362.7 418.7 352 432 352C445.3 352 456 362.7 456 376zM252.2 176H387.8C416.4 176 441.5 194.9 449.3 222.4L470.1 298.1C495.4 311.8 512 337.1 512 368V496C512 504.8 504.8 512 496 512C487.2 512 480 504.8 480 496V464H160V496C160 504.8 152.8 512 144 512C135.2 512 128 504.8 128 496V368C128 337.1 144.6 311.8 169 298.1L190.7 222.4C198.5 194.9 223.6 176 252.2 176V176zM252.2 208C237.9 208 225.4 217.5 221.4 231.2L205.2 288C206.1 288 207.1 288 208 288H432C432.9 288 433.9 288 434.8 288L418.6 231.2C414.6 217.5 402.1 208 387.8 208H252.2zM480 368C480 341.5 458.5 320 432 320H208C181.5 320 160 341.5 160 368V432H480V368z"/></svg>