<svg xmlns="http://www.w3.org/2000/svg" viewBox="0 0 640 512"><!--! Font Awesome Pro 6.0.0-beta3 by @fontawesome - https://fontawesome.com License - https://fontawesome.com/license (Commercial License) Copyright 2021 Fonticons, Inc. --><path d="M32 288V384H320.7C321.7 394.1 323.7 405.7 326.6 416H32V464C32 472.8 24.84 480 16 480C7.164 480 0 472.8 0 464V288C0 252.3 19.44 221.2 48.29 204.7L82.99 89.01C93.14 55.17 124.3 32 159.6 32H352.4C387.7 32 418.9 55.17 429 89.01L460.1 195.5C436.7 200.4 414.3 210.3 394.8 224H96C88.58 224 81.46 225.3 74.83 227.6L74.73 227.9L74.27 227.8C49.62 236.7 32 260.3 32 288H32zM85.33 192.6C88.83 192.2 92.39 192 96 192H416C419.6 192 423.2 192.2 426.7 192.6L398.4 98.21C392.3 77.9 373.6 64 352.4 64H159.6C138.4 64 119.7 77.9 113.6 98.21L85.33 192.6zM80 296C80 282.7 90.75 272 104 272C117.3 272 128 282.7 128 296C128 309.3 117.3 320 104 320C90.75 320 80 309.3 80 296zM543.9 286.1C548.2 290.7 549.2 296.9 546.5 301.8L516.4 356H552C557.2 356 561.8 359.3 563.4 364.2C565 369.1 563.3 374.5 559.2 377.6L463.2 449.6C458.7 452.1 452.4 452.8 448.1 449C443.8 445.3 442.8 439.1 445.5 434.2L475.6 380H440C434.8 380 430.2 376.7 428.6 371.8C426.1 366.9 428.7 361.5 432.8 358.4L528.8 286.4C533.3 283 539.6 283.2 543.9 286.1V286.1zM640 368C640 447.5 575.5 512 496 512C416.5 512 352 447.5 352 368C352 288.5 416.5 224 496 224C575.5 224 640 288.5 640 368zM496 256C434.1 256 384 306.1 384 368C384 429.9 434.1 480 496 480C557.9 480 608 429.9 608 368C608 306.1 557.9 256 496 256z"/></svg>