<svg xmlns="http://www.w3.org/2000/svg" viewBox="0 0 448 512"><!--! Font Awesome Pro 6.1.1 by @fontawesome - https://fontawesome.com License - https://fontawesome.com/license (Commercial License) Copyright 2022 Fonticons, Inc. --><path d="M240 104C240 112.8 232.8 120 223.1 120C215.2 120 207.1 112.8 207.1 104V24C207.1 15.16 215.2 8 223.1 8C232.8 8 240 15.16 240 24V104zM87.1 376C87.1 362.7 98.75 352 111.1 352C125.3 352 135.1 362.7 135.1 376C135.1 389.3 125.3 400 111.1 400C98.75 400 87.1 389.3 87.1 376zM360 376C360 389.3 349.3 400 336 400C322.7 400 312 389.3 312 376C312 362.7 322.7 352 336 352C349.3 352 360 362.7 360 376zM156.2 176H291.8C320.4 176 345.5 194.9 353.3 222.4L374.1 298.1C399.4 311.8 416 337.1 416 368V496C416 504.8 408.8 512 400 512C391.2 512 384 504.8 384 496V464H63.1V496C63.1 504.8 56.84 512 47.1 512C39.16 512 31.1 504.8 31.1 496V368C31.1 337.1 48.56 311.8 73.04 298.1L94.67 222.4C102.5 194.9 127.6 176 156.2 176V176zM156.2 208C141.9 208 129.4 217.5 125.4 231.2L109.2 288C110.1 288 111.1 288 111.1 288H336C336.9 288 337.9 288 338.8 288L322.6 231.2C318.6 217.5 306.1 208 291.8 208H156.2zM384 368C384 341.5 362.5 320 336 320H111.1C85.49 320 63.1 341.5 63.1 368V432H384V368zM12.69 44.69C18.93 38.44 29.06 38.44 35.31 44.69L83.31 92.69C89.56 98.93 89.56 109.1 83.31 115.3C77.07 121.6 66.94 121.6 60.69 115.3L12.69 67.31C6.438 61.07 6.438 50.94 12.69 44.69V44.69zM412.7 44.69C418.9 38.44 429.1 38.44 435.3 44.69C441.6 50.93 441.6 61.07 435.3 67.31L387.3 115.3C381.1 121.6 370.9 121.6 364.7 115.3C358.4 109.1 358.4 98.94 364.7 92.69L412.7 44.69z"/></svg>