<svg xmlns="http://www.w3.org/2000/svg" viewBox="0 0 384 512"><!--! Font Awesome Pro 6.0.0-beta3 by @fontawesome - https://fontawesome.com License - https://fontawesome.com/license (Commercial License) Copyright 2021 Fonticons, Inc. --><path d="M208 352H224C232.8 352 240 359.2 240 368C240 376.8 232.8 384 224 384H160C151.2 384 144 376.8 144 368C144 359.2 151.2 352 160 352H176V331.9C168.5 334.6 160.4 336 152 336C112.2 336 80 303.8 80 264C80 235.7 96.3 211.3 120 199.5C120.3 159.1 152.4 128 192 128C231.6 128 263.7 159.1 263.1 199.5C287.7 211.3 304 235.7 304 264C304 303.8 271.8 336 232 336C223.6 336 215.5 334.6 208 331.9V352zM152.6 207.2L155.2 221.5L141.2 225.5C124.3 230.2 112 245.7 112 264C112 286.1 129.9 304 152 304C163.2 304 173.3 299.4 180.6 291.1L192 280.3L203.4 291.1C210.7 299.4 220.8 304 232 304C254.1 304 272 286.1 272 264C272 245.7 259.7 230.2 242.8 225.5L228.8 221.5L231.4 207.2C231.8 204.9 232 202.5 232 200C232 177.9 214.1 160 192 160C169.9 160 152 177.9 152 200C152 202.5 152.2 204.9 152.6 207.2V207.2zM320 0C355.3 0 384 28.65 384 64V448C384 483.3 355.3 512 320 512H64C28.65 512 0 483.3 0 448V64C0 28.65 28.65 0 64 0H320zM320 32H64C46.33 32 32 46.33 32 64V448C32 465.7 46.33 480 64 480H320C337.7 480 352 465.7 352 448V64C352 46.33 337.7 32 320 32z"/></svg>