<svg xmlns="http://www.w3.org/2000/svg" viewBox="0 0 640 512"><!--! Font Awesome Pro 6.1.1 by @fontawesome - https://fontawesome.com License - https://fontawesome.com/license (Commercial License) Copyright 2022 Fonticons, Inc. --><path d="M256 320h288c35.35 0 64-28.65 64-64V96c0-35.35-28.65-63.1-64-63.1H256c-35.35 0-64 28.65-64 63.1V256C192 291.3 220.7 320 256 320zM368 64h64v82.11l-23.12-15.42c-5.375-3.594-12.38-3.594-17.75 0L368 146.1V64zM224 96c0-17.64 14.36-32 32-32h80v112c0 5.906 3.25 11.33 8.453 14.11c5.188 2.781 11.52 2.469 16.42-.7969L400 163.2l39.13 26.08C441.8 191.1 444.9 192 448 192c2.594 0 5.188-.625 7.547-1.891C460.8 187.3 464 181.9 464 176V64H544c17.64 0 32 14.36 32 32v160c0 17.64-14.36 32-32 32H256C238.4 288 224 273.6 224 256V96zM624 384H128V48C128 21.49 106.5 0 80 0h-64C7.156 0 0 7.156 0 16S7.156 32 16 32h64C88.84 32 96 39.16 96 48V384c0 17.67 14.33 32 32 32h24.88c-8.404 14.44-11.86 32.12-5.859 51.24c7.027 22.4 26.86 40.01 50.02 43.85C237.2 517.8 272 486.9 272 448c0-11.72-3.379-22.55-8.877-32h177.8C435.4 425.4 432 436.3 432 448c0 38.91 34.79 69.71 74.93 63.1c23.17-3.816 43.01-21.44 50.04-43.84C562.1 448.1 559.5 430.4 551.1 416H624c8.844 0 16-7.156 16-16S632.8 384 624 384zM208 480c-17.64 0-32-14.36-32-32s14.36-32 32-32s32 14.36 32 32S225.6 480 208 480zM496 480c-17.64 0-32-14.36-32-32s14.36-32 32-32s32 14.36 32 32S513.6 480 496 480z"/></svg>