<svg xmlns="http://www.w3.org/2000/svg" viewBox="0 0 640 512"><!--! Font Awesome Pro 6.1.1 by @fontawesome - https://fontawesome.com License - https://fontawesome.com/license (Commercial License) Copyright 2022 Fonticons, Inc. --><path d="M64 16C64 7.164 71.16 0 80 0H144C151.5 0 157.9 5.17 159.6 12.45L164 32H605.8C626.1 32 642.3 52.25 636.6 72.66L582.6 264.7C578.7 278.5 566.1 288 551.8 288H222.2L236.8 352H560C568.8 352 576 359.2 576 368C576 376.8 568.8 384 560 384H224C216.5 384 210.1 378.8 208.4 371.5L131.2 32H80C71.16 32 64 24.84 64 16zM605.8 64H171.3L214.1 256H551.8L605.8 64zM304 456C304 486.9 278.9 512 248 512C217.1 512 192 486.9 192 456C192 425.1 217.1 400 248 400C278.9 400 304 425.1 304 456zM248 432C234.7 432 224 442.7 224 456C224 469.3 234.7 480 248 480C261.3 480 272 469.3 272 456C272 442.7 261.3 432 248 432zM464 456C464 425.1 489.1 400 520 400C550.9 400 576 425.1 576 456C576 486.9 550.9 512 520 512C489.1 512 464 486.9 464 456zM520 480C533.3 480 544 469.3 544 456C544 442.7 533.3 432 520 432C506.7 432 496 442.7 496 456C496 469.3 506.7 480 520 480zM112 128C120.8 128 128 135.2 128 144C128 152.8 120.8 160 112 160H16C7.164 160 0 152.8 0 144C0 135.2 7.164 128 16 128H112zM128 192C136.8 192 144 199.2 144 208C144 216.8 136.8 224 128 224H16C7.164 224 0 216.8 0 208C0 199.2 7.164 192 16 192H128zM144 256C152.8 256 160 263.2 160 272C160 280.8 152.8 288 144 288H16C7.164 288 0 280.8 0 272C0 263.2 7.164 256 16 256H144z"/></svg>