<svg xmlns="http://www.w3.org/2000/svg" viewBox="0 0 640 512"><!--! Font Awesome Pro 6.1.1 by @fontawesome - https://fontawesome.com License - https://fontawesome.com/license (Commercial License) Copyright 2022 Fonticons, Inc. --><path d="M79.1 0C87.47 0 93.95 5.17 95.6 12.45L100 32H541.8C562.1 32 578.3 52.25 572.6 72.66L537.6 196.9C527.3 194.4 516.6 192.9 505.7 192.3L541.8 64H107.3L150.1 256H360.2C352.1 265.8 345 276.6 339.2 288H158.2L172.8 352H320.7C320.2 357.3 320 362.6 320 368C320 373.4 320.2 378.7 320.7 384H160C152.5 384 146.1 378.8 144.4 371.5L67.23 32H16C7.164 32 0 24.84 0 16C0 7.164 7.164 .0003 16 .0003L79.1 0zM127.1 456C127.1 425.1 153.1 400 183.1 400C214.9 400 239.1 425.1 239.1 456C239.1 486.9 214.9 512 183.1 512C153.1 512 127.1 486.9 127.1 456zM183.1 480C197.3 480 207.1 469.3 207.1 456C207.1 442.7 197.3 432 183.1 432C170.7 432 159.1 442.7 159.1 456C159.1 469.3 170.7 480 183.1 480zM518.6 368L555.3 404.7C561.6 410.9 561.6 421.1 555.3 427.3C549.1 433.6 538.9 433.6 532.7 427.3L496 390.6L459.3 427.3C453.1 433.6 442.9 433.6 436.7 427.3C430.4 421.1 430.4 410.9 436.7 404.7L473.4 368L436.7 331.3C430.4 325.1 430.4 314.9 436.7 308.7C442.9 302.4 453.1 302.4 459.3 308.7L496 345.4L532.7 308.7C538.9 302.4 549.1 302.4 555.3 308.7C561.6 314.9 561.6 325.1 555.3 331.3L518.6 368zM640 368C640 447.5 575.5 512 496 512C416.5 512 352 447.5 352 368C352 288.5 416.5 224 496 224C575.5 224 640 288.5 640 368zM496 256C434.1 256 384 306.1 384 368C384 429.9 434.1 480 496 480C557.9 480 608 429.9 608 368C608 306.1 557.9 256 496 256z"/></svg>