<svg xmlns="http://www.w3.org/2000/svg" viewBox="0 0 576 512"><!--! Font Awesome Pro 6.0.0-beta3 by @fontawesome - https://fontawesome.com License - https://fontawesome.com/license (Commercial License) Copyright 2021 Fonticons, Inc. --><path d="M512 32H64C28.65 32 0 60.65 0 96v320c0 35.35 28.65 64 64 64h448c35.35 0 64-28.65 64-64V96C576 60.65 547.3 32 512 32zM544 416c0 17.64-14.36 32-32 32H64c-17.64 0-32-14.36-32-32V160h512V416zM544 128H32V96c0-17.64 14.36-32 32-32h448c17.64 0 32 14.36 32 32V128zM124.8 400h326.4c4.828 0 9.406-2.188 12.45-5.938C484.8 367.8 496 336.7 496 304s-11.19-63.84-32.36-90.06C460.6 210.2 456 208 451.2 208H124.8c-4.828 0-9.406 2.188-12.45 5.938C91.19 240.2 80 271.3 80 304s11.19 63.84 32.36 90.06C115.4 397.8 119.1 400 124.8 400zM384 336c17.67 0 32-14.33 32-32c0-17.67-14.33-32-32-32v-32h59.25C456.8 259.1 464 281.1 464 304s-7.156 44.88-20.75 64H384V336zM224 240h128v128H224V240zM132.8 240H192v32c-17.67 0-32 14.33-32 32c0 17.67 14.33 32 32 32v32H132.8C119.2 348.9 112 326.9 112 304S119.2 259.1 132.8 240z"/></svg>