<svg xmlns="http://www.w3.org/2000/svg" viewBox="0 0 576 512"><!--! Font Awesome Pro 6.0.0-beta3 by @fontawesome - https://fontawesome.com License - https://fontawesome.com/license (Commercial License) Copyright 2021 Fonticons, Inc. --><path d="M512 32H64C28.65 32 0 60.65 0 96v320c0 35.35 28.65 64 64 64h448c35.35 0 64-28.65 64-64V96C576 60.65 547.3 32 512 32zM544 416c0 17.64-14.36 32-32 32H64c-17.64 0-32-14.36-32-32V160h512V416zM544 128H32V96c0-17.64 14.36-32 32-32h448c17.64 0 32 14.36 32 32V128zM352 384h96c17.67 0 32-14.33 32-32V256c0-17.67-14.33-32-32-32h-96c-17.67 0-32 14.33-32 32v96C320 369.7 334.3 384 352 384zM352 256h96v96h-96V256zM176 400c53.02 0 96-42.98 96-96s-42.98-96-96-96s-96 42.98-96 96S122.1 400 176 400zM176 240c35.29 0 64 28.71 64 64c0 35.29-28.71 64-64 64s-64-28.71-64-64C112 268.7 140.7 240 176 240zM176 328c13.26 0 24-10.75 24-24c0-13.26-10.74-24-24-24c-13.25 0-24 10.74-24 24C152 317.3 162.7 328 176 328z"/></svg>