<svg xmlns="http://www.w3.org/2000/svg" viewBox="0 0 640 512"><!--! Font Awesome Pro 6.1.1 by @fontawesome - https://fontawesome.com License - https://fontawesome.com/license (Commercial License) Copyright 2022 Fonticons, Inc. --><path d="M576 32.75V32l-.5 .375C548.9 12.25 516 .0003 480 .0003s-68.88 12.25-95.5 32.37L384 32v.75c-38.63 29.12-64 75.13-64 127.3c0 .375 .125 .7498 .125 1.125C197.2 168.3 125.4 249.3 96 304.3V176C96 131.9 60.13 96 16 96C7.125 96 0 103.1 0 112S7.125 128 16 128C42.5 128 64 149.5 64 176v256C64 476.2 99.82 512 144 512h207.3c18.32 0 33.12-15.11 32.71-33.43c-.7148-32.36-25.7-58.1-57.36-62.2L416 376.6V464c0 26.4 21.6 48 48 48S512 490.4 512 464V316.8c74.5-15.25 128-80.75 128-156.7C640 107.9 614.6 61.88 576 32.75zM480 32c24.38 0 48.25 7.125 68.75 20.38L512 80h-64l-36.75-27.62C431.8 39.13 455.6 32 480 32zM544 96v64c0 35.38-28.62 64-64 64s-64-28.62-64-64V96l21.38 16h85.25L544 96zM479.1 464c0 8.836-7.149 16-15.99 16s-16.01-7.164-16.01-16L448 352c0-11.58-11.92-19.33-22.5-14.62l-122.2 54.37c-3.615-35.24-25.29-65.79-56.83-80.66c-9.281-4.377-20.28 .4883-22.77 10.45c-1.867 7.459 1.947 14.93 8.809 18.34C254.8 350.1 272 370.2 272 395.1V448H320c17.62 0 32 14.38 32 32H143.1c-25.48 0-47.69-19.85-47.96-45.32c-.7031-64.13 45.36-232.5 227.4-242.1C338.9 266.9 404.3 320 480 320L479.1 464zM480 288c-70.63-.125-127.9-57.38-128-128c0-32.13 12.38-61.25 32-83.75V160c0 53 43 96 96 96S576 213 576 160V76.25C595.6 98.75 608 127.9 608 160C607.9 230.6 550.6 287.9 480 288zM432 160c0 8.875 7.125 16 16 16s16-7.125 16-16S456.9 144 448 144c-4.25 0-8.375 1.625-11.38 4.625S432 155.8 432 160zM512 176c8.875 0 16-7.125 16-16S520.9 144 512 144S496 151.1 496 160c0 4.25 1.625 8.375 4.625 11.38S507.8 176 512 176zM176 80h32v32c0 8.844 7.149 16 15.99 16S240 120.8 240 112v-32h32c8.844 0 15.99-7.156 15.99-15.1S280.8 48 272 48h-32v-32c0-8.844-7.164-15.1-16.01-15.1S208 7.156 208 16v32h-32c-8.844 0-16.01 7.156-16.01 16S167.2 80 176 80z"/></svg>