<svg xmlns="http://www.w3.org/2000/svg" viewBox="0 0 448 512"><!--! Font Awesome Pro 6.1.1 by @fontawesome - https://fontawesome.com License - https://fontawesome.com/license (Commercial License) Copyright 2022 Fonticons, Inc. --><path d="M136 32C136 18.75 146.7 8 160 8C173.3 8 184 18.75 184 32C184 45.25 173.3 56 160 56C146.7 56 136 45.25 136 32zM320 80C320 106.5 298.5 128 272 128C245.5 128 224 106.5 224 80C224 53.49 245.5 32 272 32C298.5 32 320 53.49 320 80zM272 64C263.2 64 256 71.16 256 80C256 88.84 263.2 96 272 96C280.8 96 288 88.84 288 80C288 71.16 280.8 64 272 64zM16 192C7.164 192 0 184.8 0 176C0 167.2 7.164 160 16 160H432C440.8 160 448 167.2 448 176C448 184.8 440.8 192 432 192H392.8C417.8 228.1 448 283.9 448 334.4C448 371.8 436.1 403.8 416 429.9V496C416 504.8 408.8 512 400 512C391.2 512 384 504.8 384 496V461.8C341.7 494.6 283.4 512 224 512C164.6 512 106.3 494.6 64 461.8V496C64 504.8 56.84 512 48 512C39.16 512 32 504.8 32 496V429.9C11.93 403.8 0 371.8 0 334.4C0 283.9 30.22 228.1 55.17 192H16zM60.11 244.9C43.73 275 32 307.1 32 334.4C32 379.5 53.37 414.8 88.07 439.9C123.5 465.5 172.6 480 224 480C275.4 480 324.5 465.5 359.9 439.9C394.6 414.8 416 379.5 416 334.4C416 307.1 404.3 275 387.9 244.9C376 223 362.8 204.3 353.1 192H94.9C85.2 204.3 71.1 223 60.11 244.9H60.11z"/></svg>