<svg xmlns="http://www.w3.org/2000/svg" viewBox="0 0 256 512"><!--! Font Awesome Pro 6.1.1 by @fontawesome - https://fontawesome.com License - https://fontawesome.com/license (Commercial License) Copyright 2022 Fonticons, Inc. --><path d="M208 480h-64v-130.1c62.91-8.131 112-61.9 112-128.1c0-35.09-13.27-130.1-33.02-215.6C222.1 2.562 218.9 0 215.2 0H40.81C37.09 0 33.86 2.562 33.02 6.188C13.27 91.69 0 186.7 0 221.8c0 66.16 49.09 119.9 112 128.1V480h-64C39.16 480 32 487.2 32 496C32 504.8 39.16 512 48 512h160c8.836 0 16-7.164 16-16C224 487.2 216.8 480 208 480zM195.1 32c7.057 32.58 13.06 65.88 17.75 96H42.29c4.688-30.13 10.69-63.42 17.75-96H195.1zM32 221.8C32 209.1 34.1 186.9 37.66 160h180.7C221.9 186.9 224 209.1 224 221.8c0 51.53-39.66 94.34-90.29 97.46c-7.01 .4316-4.297 .4375-11.41 0C71.66 316.2 32 273.3 32 221.8z"/></svg>