<svg xmlns="http://www.w3.org/2000/svg" viewBox="0 0 448 512"><!--! Font Awesome Pro 6.0.0-beta3 by @fontawesome - https://fontawesome.com License - https://fontawesome.com/license (Commercial License) Copyright 2021 Fonticons, Inc. --><path d="M240 32C266.5 32 288 53.49 288 80V432C288 458.5 266.5 480 240 480H208C181.5 480 160 458.5 160 432V80C160 53.49 181.5 32 208 32H240zM240 64H208C199.2 64 192 71.16 192 80V432C192 440.8 199.2 448 208 448H240C248.8 448 256 440.8 256 432V80C256 71.16 248.8 64 240 64zM80 224C106.5 224 128 245.5 128 272V432C128 458.5 106.5 480 80 480H48C21.49 480 0 458.5 0 432V272C0 245.5 21.49 224 48 224H80zM80 256H48C39.16 256 32 263.2 32 272V432C32 440.8 39.16 448 48 448H80C88.84 448 96 440.8 96 432V272C96 263.2 88.84 256 80 256zM320 144C320 117.5 341.5 96 368 96H400C426.5 96 448 117.5 448 144V432C448 458.5 426.5 480 400 480H368C341.5 480 320 458.5 320 432V144zM352 144V432C352 440.8 359.2 448 368 448H400C408.8 448 416 440.8 416 432V144C416 135.2 408.8 128 400 128H368C359.2 128 352 135.2 352 144z"/></svg>