<svg xmlns="http://www.w3.org/2000/svg" viewBox="0 0 512 512"><!--! Font Awesome Pro 6.1.1 by @fontawesome - https://fontawesome.com License - https://fontawesome.com/license (Commercial License) Copyright 2022 Fonticons, Inc. --><path d="M16 32C24.84 32 32 39.16 32 48V400C32 426.5 53.49 448 80 448H496C504.8 448 512 455.2 512 464C512 472.8 504.8 480 496 480H80C35.82 480 0 444.2 0 400V48C0 39.16 7.164 32 16 32zM128 304C128 277.5 149.5 256 176 256C202.5 256 224 277.5 224 304C224 330.5 202.5 352 176 352C149.5 352 128 330.5 128 304zM176 323.2C186.6 323.2 195.2 314.6 195.2 304C195.2 293.4 186.6 284.8 176 284.8C165.4 284.8 156.8 293.4 156.8 304C156.8 314.6 165.4 323.2 176 323.2zM416 288C416 323.3 387.3 352 352 352C316.7 352 288 323.3 288 288C288 252.7 316.7 224 352 224C387.3 224 416 252.7 416 288zM352 256C334.3 256 320 270.3 320 288C320 305.7 334.3 320 352 320C369.7 320 384 305.7 384 288C384 270.3 369.7 256 352 256zM192 176C192 149.5 213.5 128 240 128C266.5 128 288 149.5 288 176C288 202.5 266.5 224 240 224C213.5 224 192 202.5 192 176zM240 195.2C250.6 195.2 259.2 186.6 259.2 176C259.2 165.4 250.6 156.8 240 156.8C229.4 156.8 220.8 165.4 220.8 176C220.8 186.6 229.4 195.2 240 195.2zM448 128C448 163.3 419.3 192 384 192C348.7 192 320 163.3 320 128C320 92.65 348.7 64 384 64C419.3 64 448 92.65 448 128zM384 96C366.3 96 352 110.3 352 128C352 145.7 366.3 160 384 160C401.7 160 416 145.7 416 128C416 110.3 401.7 96 384 96z"/></svg>