<svg xmlns="http://www.w3.org/2000/svg" viewBox="0 0 512 512"><!--! Font Awesome Pro 6.0.0-beta3 by @fontawesome - https://fontawesome.com License - https://fontawesome.com/license (Commercial License) Copyright 2021 Fonticons, Inc. --><path d="M32 400C32 426.5 53.49 448 80 448H496C504.8 448 512 455.2 512 464C512 472.8 504.8 480 496 480H80C35.82 480 0 444.2 0 400V48C0 39.16 7.164 32 16 32C24.84 32 32 39.16 32 48V400zM320 192L359.6 152.4C372.7 139.3 394.4 140.1 406.5 154.2L468.4 226.5C475.9 235.2 480 246.3 480 257.8V352C480 369.7 465.7 384 448 384H128C110.3 384 96 369.7 96 352V243.9C96 231.2 101.1 218.9 110.1 209.9L201.4 118.6C213.9 106.1 234.1 106.1 246.6 118.6L320 192zM224 141.3L132.7 232.6C129.7 235.6 128 239.6 128 243.9V352H448V257.8C448 253.9 446.6 250.2 444.1 247.3L382.2 175.1L342.6 214.6C336.6 220.6 328.5 223.1 320 223.1C311.5 223.1 303.4 220.6 297.4 214.6L224 141.3z"/></svg>