<svg xmlns="http://www.w3.org/2000/svg" viewBox="0 0 512 512"><!--! Font Awesome Pro 6.1.1 by @fontawesome - https://fontawesome.com License - https://fontawesome.com/license (Commercial License) Copyright 2022 Fonticons, Inc. --><path d="M16 32C24.84 32 32 39.16 32 48V400C32 426.5 53.49 448 80 448H496C504.8 448 512 455.2 512 464C512 472.8 504.8 480 496 480H80C35.82 480 0 444.2 0 400V48C0 39.16 7.164 32 16 32zM144 256C152.8 256 160 263.2 160 272V368C160 376.8 152.8 384 144 384C135.2 384 128 376.8 128 368V272C128 263.2 135.2 256 144 256zM256 368C256 376.8 248.8 384 240 384C231.2 384 224 376.8 224 368V144C224 135.2 231.2 128 240 128C248.8 128 256 135.2 256 144V368zM336 192C344.8 192 352 199.2 352 208V368C352 376.8 344.8 384 336 384C327.2 384 320 376.8 320 368V208C320 199.2 327.2 192 336 192zM448 368C448 376.8 440.8 384 432 384C423.2 384 416 376.8 416 368V112C416 103.2 423.2 96 432 96C440.8 96 448 103.2 448 112V368z"/></svg>