<svg xmlns="http://www.w3.org/2000/svg" viewBox="0 0 640 512"><!--! Font Awesome Pro 6.1.1 by @fontawesome - https://fontawesome.com License - https://fontawesome.com/license (Commercial License) Copyright 2022 Fonticons, Inc. --><path d="M532.2 224.3c-19.52 0-42.82 3.748-70.4 13.42c-36.15-148.4-164.5-237.7-173.9-237.7c-33.7 0-7.135 110.2-108.2 238.2c-28.25-10.07-52.05-13.96-71.92-13.96c-101.3 0-107.8 92.77-107.8 109.8c0 25.75 24.51 177.1 191.1 177.1c166.5 0 192-149.8 192-177.1c0-60.31-37.04-109.8-107.1-109.8c-14.55 0-31.21 2.081-50.16 7.144c21-30.87 51.75-89.18 72.74-186.8c34.06 28.62 102.5 96.3 129.1 190.9c-4.815-1.562-7.542-3.2-11.74-3.2c-6.875 0-13.28 4.537-15.33 11.47c-.4472 1.515-.6604 3.044-.6604 4.547c0 15.88 13.45 14.29 41.72 26.34l6.281 2.672L454.3 274.6c29.25-12.46 55.35-18.72 77.51-18.72c1.816 0 76.22-3.583 76.22 78.16C607.1 355.9 586.6 480 447.1 480c-39.31 0-56.87-10.43-64-10.43c-8.905 0-15.1 7.252-15.1 16.05c0 6.604 4.133 12.78 10.72 15.07c21.53 7.5 44.79 11.31 69.23 11.31c166.5 0 192.1-149.8 192.1-177.1C640 316.8 633.4 224.3 532.2 224.3zM275.8 255.9c1.816 0 76.21-3.585 76.21 78.16C352 355.9 330.6 480 192 480c-139.2 0-160-123.7-160-145.9c0-69.41 53.07-78.16 76.23-78.16c22.16 0 48.25 6.25 77.5 18.72l6.281 2.672L198.3 274.6C227.5 262.1 253.6 255.9 275.8 255.9z"/></svg>