<svg xmlns="http://www.w3.org/2000/svg" viewBox="0 0 320 512"><!--! Font Awesome Pro 6.0.0-beta3 by @fontawesome - https://fontawesome.com License - https://fontawesome.com/license (Commercial License) Copyright 2021 Fonticons, Inc. --><path d="M272 448H47.1C21.53 448 0 469.5 0 495.1C0 504.8 7.156 512 16 512S32 504.8 32 496C32 487.2 39.19 480 48 480h224c8.812 0 16 7.188 16 16c0 8.844 7.156 16 16 16s16-7.156 16-16C320 469.5 298.5 448 272 448zM80 208C71.16 208 64 215.2 64 224s7.156 16 16 16h19.97l-35.56 156.5C62.22 406 69.3 416 80 416c7.312 0 13.91-5.031 15.59-12.47L132.8 240h54.48l37.17 163.5C226.1 410.1 232.7 416 240 416c10.91 0 17.74-10.18 15.59-19.53L220 240H240C248.8 240 256 232.8 256 224s-7.156-16-16-16h-5.254C252.8 189.3 264 163.1 264 136C264 78.66 217.3 32 159.1 32S56 78.66 56 136c0 27.97 11.23 53.29 29.25 72H80zM160 64c39.69 0 72 32.31 72 72S199.7 208 160 208S88 175.7 88 136S120.3 64 160 64z"/></svg>