<svg xmlns="http://www.w3.org/2000/svg" viewBox="0 0 512 512"><!--! Font Awesome Pro 6.0.0-beta3 by @fontawesome - https://fontawesome.com License - https://fontawesome.com/license (Commercial License) Copyright 2021 Fonticons, Inc. --><path d="M498.6 428.4L480 419.1V408c0-13.23-10.77-24-24-24h-112C330.8 384 320 394.8 320 408v11.06l-18.58 9.344C293.3 432.3 288 440.7 288 449.9V488c0 13.23 10.77 24 24 24h176c13.23 0 24-10.77 24-24v-38.13C512 440.8 506.8 432.3 498.6 428.4zM480 480h-160v-25.12l32-16.09V416h96v22.79l32 16.09V480zM56.88 224H48.97C40.1 224 33.55 229.4 32.23 237.3C30.55 247.3 38.3 256 48 256h16.01L64 284.5c-.0625 16.62-1.307 33.16-3.266 49.62C59.6 343.6 67.06 352 76.65 352c8.205 0 15.02-6.195 15.97-14.35C94.69 320 96 302.3 96 284.5V256h64v28.5c0 17.82 1.312 35.53 3.377 53.15C164.3 345.8 171.1 352 179.3 352c9.592 0 17.05-8.355 15.92-17.88C193.3 317.7 192.1 301.1 192 284.5L192 256h15.02c7.979 0 15.42-5.4 16.74-13.27C225.4 232.7 217.7 224 208 224H199.1l31.75-84.75c5.197-13.69 .5488-29.54-12.61-38.22C212.1 97.53 206.6 96 200.2 96H144V64h15.02c7.979 0 15.42-5.4 16.74-13.27C177.4 40.74 169.7 32 160 32h-16L144 16.97c0-7.979-5.4-15.42-13.27-16.74C120.7-1.449 112 6.303 112 16V32H96.86C88.88 32 81.55 37.4 80.23 45.26C78.55 55.26 86.31 64 96.01 64h16v32H55.77C49.42 96 43.03 97.53 37.73 101c-13.16 8.689-17.81 24.54-12.61 38.22L56.88 224zM201 128l-36 96H91.13l-36-96H201zM242.6 428.4L224 419.1V408C224 394.8 213.2 384 200 384h-144C42.77 384 32 394.8 32 408v11.06l-18.58 9.344C5.266 432.3 0 440.7 0 449.9V488C0 501.2 10.77 512 24 512h208C245.2 512 256 501.2 256 488v-38.13C256 440.8 250.8 432.3 242.6 428.4zM224 480H32v-25.12l32-16.09V416h128v22.79l32 16.09V480zM496 160h-192C295.2 160 288 167.2 288 176V256c0 5.344 2.672 10.34 7.125 13.31L336 296.6V352c0 8.844 7.156 16 16 16s16-7.156 16-16V288c0-5.344-2.672-10.34-7.125-13.31L320 247.4V192h32v16C352 216.8 359.2 224 368 224S384 216.8 384 208V192h32v16C416 216.8 423.2 224 432 224S448 216.8 448 208V192h32v55.44l-40.88 27.25C434.7 277.7 432 282.7 432 288v64c0 8.844 7.156 16 16 16s16-7.156 16-16V296.6l40.88-27.25C509.3 266.3 512 261.3 512 256V176C512 167.2 504.8 160 496 160z"/></svg>