<svg xmlns="http://www.w3.org/2000/svg" viewBox="0 0 448 512"><!--! Font Awesome Pro 6.0.0-beta3 by @fontawesome - https://fontawesome.com License - https://fontawesome.com/license (Commercial License) Copyright 2021 Fonticons, Inc. --><path d="M352 112H96C87.16 112 80 119.2 80 128v256c0 8.836 7.164 16 16 16h256c8.836 0 16-7.164 16-16V128C368 119.2 360.8 112 352 112zM144 368h-32v-32h32V368zM144 304h-32v-32h32V304zM144 240h-32v-32h32V240zM144 176h-32v-32h32V176zM208 368h-32v-32h32V368zM208 304h-32v-32h32V304zM208 240h-32v-32h32V240zM208 176h-32v-32h32V176zM272 368h-32v-32h32V368zM272 304h-32v-32h32V304zM272 240h-32v-32h32V240zM272 176h-32v-32h32V176zM336 368h-32v-32h32V368zM336 304h-32v-32h32V304zM336 240h-32v-32h32V240zM336 176h-32v-32h32V176zM384 32H64C28.65 32 0 60.65 0 96v320c0 35.35 28.65 64 64 64h320c35.35 0 64-28.65 64-64V96C448 60.65 419.3 32 384 32zM416 416c0 17.64-14.36 32-32 32H64c-17.64 0-32-14.36-32-32V96c0-17.64 14.36-32 32-32h320c17.64 0 32 14.36 32 32V416z"/></svg>