<svg xmlns="http://www.w3.org/2000/svg" viewBox="0 0 640 512"><!--! Font Awesome Pro 6.1.1 by @fontawesome - https://fontawesome.com License - https://fontawesome.com/license (Commercial License) Copyright 2022 Fonticons, Inc. --><path d="M637.7 102.9C639.9 109.1 640.5 117.4 639.6 124.8C638.8 132.1 636.4 139.2 632.7 145.6C628.1 151.1 624 157.5 618.1 161.1L176.7 505.8C171.4 509.8 164.9 512 158.2 512C152.1 512 146.2 510.2 141.2 506.8C136.1 503.3 132.3 498.5 130.1 492.8C127.8 487.1 127.4 480.9 128.8 475C130.2 469.1 133.3 463.7 137.8 459.6L548.1 78.56C553.6 73.51 559.1 69.64 566.1 67.19C573.1 64.74 581.4 63.76 588.8 64.32C596.2 64.75 603.4 66.67 609.1 69.97C616.6 73.27 622.4 77.88 627.2 83.52C632 89.17 635.6 95.76 637.7 102.9L637.7 102.9zM604.1 129.7C606.6 127.1 607.6 124.1 608 120.1C608.3 117.9 608 114.9 607.1 111.9C606.2 109 604.7 106.4 602.7 104.1C600.7 101.7 598.2 99.77 595.5 98.38C592.7 96.99 589.7 96.18 586.7 95.1C583.5 95.69 580.4 96.06 577.5 97.1C574.5 98.14 571.8 99.82 569.6 102L189.6 455.2L598.6 136.5C601.2 134.7 603.4 132.4 604.1 129.7zM415.8 50.46C416.4 57.85 415.5 65.28 413.2 72.31C410.9 79.34 407.1 85.82 402.2 91.36L52.7 501.6C49.89 504.9 46.4 507.5 42.49 509.3C38.57 511.1 34.32 511.1 30.02 512C23.11 512 16.41 509.7 11.07 505.3C5.11 500.4 1.243 493.4 .2568 485.7C-.7298 478 1.238 470.3 5.761 464L317.1 22.56C322.3 16.56 327.8 11.51 334.2 7.714C340.5 3.917 347.6 1.456 354.9 .4798C362.2-.5109 369.6 .0363 376.7 2.086C383.8 4.136 390.4 7.644 396 12.38C401.7 17.06 406.4 22.85 409.8 29.4C413.2 35.94 415.2 43.11 415.8 50.46H415.8zM382.7 62.43C383.8 59.48 384.2 56.35 383.1 53.24C383.8 50.12 382.9 47.08 381.5 44.3C380.1 41.52 378.1 39.06 375.7 37.06C373.4 35.18 370.7 33.78 367.8 32.95C364.1 32.12 361.1 31.88 359 32.22C356 32.6 353.2 33.59 350.6 35.14C347.1 36.68 345.8 38.74 344 41.18L55.46 449.1L378 70.4C380.1 68.09 381.7 65.38 382.7 62.43H382.7z"/></svg>