<svg xmlns="http://www.w3.org/2000/svg" viewBox="0 0 512 512"><!--! Font Awesome Pro 6.0.0-beta3 by @fontawesome - https://fontawesome.com License - https://fontawesome.com/license (Commercial License) Copyright 2021 Fonticons, Inc. --><path d="M256 0C114.6 0 0 114.6 0 256s114.6 256 256 256s256-114.6 256-256S397.4 0 256 0zM256 480c-123.5 0-224-100.5-224-224s100.5-224 224-224s224 100.5 224 224S379.5 480 256 480zM352 352H194.8l169.4-197.6c4.062-4.75 5-11.41 2.375-17.09C363.9 131.6 358.3 128 352 128H160C151.2 128 144 135.2 144 144S151.2 160 160 160h157.2l-169.4 197.6c-4.062 4.75-5 11.41-2.375 17.09C148.1 380.4 153.8 384 160 384h192c8.844 0 16-7.156 16-16S360.8 352 352 352z"/></svg>