<svg xmlns="http://www.w3.org/2000/svg" viewBox="0 0 512 512"><!--! Font Awesome Pro 6.1.1 by @fontawesome - https://fontawesome.com License - https://fontawesome.com/license (Commercial License) Copyright 2022 Fonticons, Inc. --><path d="M369.5 276.3C369.5 276.3 369.5 276.3 369.5 276.3l-47.91-20.53c-15.17-6.328-32.97-1.859-43.25 10.75l-6.719 8.188C258.1 265.5 246.5 253.9 237.4 240.4l8.266-6.781c12.86-10.62 17.11-28.06 10.55-43.41L235.7 142.5c-7.141-16.52-25.06-25.5-42.58-21.52L148.9 131.2C131.9 135.1 120 149.1 120 167.5C120 291.3 220.7 392 344.5 392c17.45 0 32.39-11.88 36.31-28.88l10.2-44.28C395.1 301.3 385.1 283.5 369.5 276.3zM349.7 355.9C349.1 358.4 347 360 344.5 360C238.4 360 152 273.6 152 167.5c0-2.469 1.625-4.5 4.094-5.062l44.25-10.27C200.7 152 201.1 152 201.5 152c2.062 0 4.016 1.234 4.844 3.125l20.44 47.7c.9531 2.234 .3906 4.594-1.453 6.109L206.3 224.5C200.4 229.4 198.7 237.8 202.4 244.5c15 27.58 37.53 50.09 65.13 65.13c6.781 3.688 15.17 2 20.03-3.906l15.58-19.02c1.406-1.734 3.984-2.328 6.016-1.516l47.66 20.44c2.328 1.031 3.609 3.562 3.047 6L349.7 355.9zM256 0c-141.4 0-256 114.6-256 256c0 141.4 114.6 256 256 256s256-114.6 256-256C512 114.6 397.4 0 256 0zM256 480c-123.5 0-224-100.5-224-224s100.5-224 224-224s224 100.5 224 224S379.5 480 256 480z"/></svg>