<svg xmlns="http://www.w3.org/2000/svg" viewBox="0 0 512 512"><!--! Font Awesome Pro 6.0.0-beta3 by @fontawesome - https://fontawesome.com License - https://fontawesome.com/license (Commercial License) Copyright 2021 Fonticons, Inc. --><path d="M325.6 144c-22.88 0-44.36 10.72-58.36 25.22L256.1 180.8L244.8 169.2C231.2 154.1 209.3 144 186.3 144C170.5 144 154.4 149.1 139.9 161.6C104.6 192.3 102.8 247.3 134.3 280.3l109 114.1c7 7.375 18.51 7.455 25.63 .0797l108.7-114.2c31.62-33.13 29.75-88-5.625-118.6C357.6 149.1 341.4 144 325.6 144zM355 258.1l-99 103.8l-99-103.8C140.3 240.6 136.6 206.5 160.4 186c8.25-7.125 17.38-9.875 26.38-9.875c13.88 0 27.25 6.875 35.5 15.62L256 227l33.75-35.25c8.125-8.625 21.62-15.5 35.5-15.5c9 0 18.12 2.75 26.25 9.875C375.4 206.5 371.8 240.5 355 258.1zM256 0C114.6 0 0 114.6 0 256s114.6 256 256 256s256-114.6 256-256S397.4 0 256 0zM256 480c-123.5 0-224-100.5-224-224s100.5-224 224-224s224 100.5 224 224S379.5 480 256 480z"/></svg>