<svg xmlns="http://www.w3.org/2000/svg" viewBox="0 0 512 512"><!--! Font Awesome Pro 6.1.1 by @fontawesome - https://fontawesome.com License - https://fontawesome.com/license (Commercial License) Copyright 2022 Fonticons, Inc. --><path d="M256 0C114.6 0 0 114.6 0 256s114.6 256 256 256s256-114.6 256-256S397.4 0 256 0zM256 480c-123.5 0-224-100.5-224-224s100.5-224 224-224s224 100.5 224 224S379.5 480 256 480zM331.8 249.9C344.2 236.9 352 219.4 352 200C352 160.2 319.8 128 280 128H192C174.3 128 160 142.3 160 160v192c0 17.67 14.33 32 32 32h104c39.77 0 72-32.24 72-72C368 285.3 353.3 262.3 331.8 249.9zM192 160h88C302.1 160 320 177.9 320 200S302.1 240 280 240H192V160zM296 352H192V272h104c22.06 0 40 17.94 40 40S318.1 352 296 352z"/></svg>