<svg xmlns="http://www.w3.org/2000/svg" viewBox="0 0 640 512"><!--! Font Awesome Pro 6.1.1 by @fontawesome - https://fontawesome.com License - https://fontawesome.com/license (Commercial License) Copyright 2022 Fonticons, Inc. --><path d="M256 480C322.3 480 381.9 451.2 422.1 405.3C428.9 398.7 438.1 398.2 445.6 404.1C452.1 409.1 452.7 420.1 446.8 426.7C399.1 479 331.8 512 256 512C114.6 512 0 397.4 0 256C0 114.6 114.6 0 256 0C364.9 0 457.1 68.05 494.9 163.9C498.1 172.1 494 181.4 485.8 184.6C477.5 187.8 468.3 183.7 465.1 175.4C432.7 91.49 351.3 32 255.1 32C132.3 32 31.1 132.3 31.1 256C31.1 379.7 132.3 480 255.1 480L256 480zM272 272C272 280.8 264.8 288 256 288C247.2 288 240 280.8 240 272V144C240 135.2 247.2 128 256 128C264.8 128 272 135.2 272 144V272zM232 352C232 338.7 242.7 328 256 328C269.3 328 280 338.7 280 352C280 365.3 269.3 376 256 376C242.7 376 232 365.3 232 352zM619.3 180.7C625.6 186.9 625.6 197.1 619.3 203.3L491.3 331.3C485.1 337.6 474.9 337.6 468.7 331.3L404.7 267.3C398.4 261.1 398.4 250.9 404.7 244.7C410.9 238.4 421.1 238.4 427.3 244.7L480 297.4L596.7 180.7C602.9 174.4 613.1 174.4 619.3 180.7H619.3z"/></svg>