<svg xmlns="http://www.w3.org/2000/svg" viewBox="0 0 512 512"><!--! Font Awesome Pro 6.0.0-beta3 by @fontawesome - https://fontawesome.com License - https://fontawesome.com/license (Commercial License) Copyright 2021 Fonticons, Inc. --><path d="M256 0C114.6 0 0 114.6 0 256s114.6 256 256 256s256-114.6 256-256S397.4 0 256 0zM256 480c-123.5 0-224-100.5-224-224s100.5-224 224-224s224 100.5 224 224S379.5 480 256 480zM324.7 188.1c6.281 6.25 16.42 6.203 22.64-.0469c6.234-6.266 6.203-16.41-.0469-22.64C297.2 115.6 215.7 115.6 165.6 165.5C141.4 189.6 128 221.8 128 256s13.33 66.36 37.59 90.55c25.05 24.92 57.94 37.39 90.83 37.39s65.78-12.47 90.83-37.39c6.25-6.234 6.281-16.38 .0469-22.64c-6.25-6.234-16.39-6.312-22.64-.0469c-37.63 37.47-98.84 37.45-136.5 .0156C170 305.7 160 281.6 160 256s10.02-49.73 28.23-67.86C225.9 150.7 287.1 150.7 324.7 188.1z"/></svg>