<svg xmlns="http://www.w3.org/2000/svg" viewBox="0 0 512 512"><!--! Font Awesome Pro 6.1.1 by @fontawesome - https://fontawesome.com License - https://fontawesome.com/license (Commercial License) Copyright 2022 Fonticons, Inc. --><path d="M256 0C114.6 0 0 114.6 0 256s114.6 256 256 256s256-114.6 256-256S397.4 0 256 0zM256 480c-123.5 0-224-100.5-224-224s100.5-224 224-224s224 100.5 224 224S379.5 480 256 480zM352 128c-8.844 0-16 7.156-16 16v180.8L172.1 133.6C167.8 128.5 160.7 126.6 154.5 129C148.2 131.3 144 137.3 144 144v224C144 376.8 151.2 384 160 384s16-7.156 16-16V187.3l163.9 191.2C342.1 382 347.4 384 352 384c1.859 0 3.734-.3281 5.547-1C363.8 380.7 368 374.7 368 368v-224C368 135.2 360.8 128 352 128z"/></svg>