<svg xmlns="http://www.w3.org/2000/svg" viewBox="0 0 512 512"><!--! Font Awesome Pro 6.0.0-beta3 by @fontawesome - https://fontawesome.com License - https://fontawesome.com/license (Commercial License) Copyright 2021 Fonticons, Inc. --><path d="M331.3 180.7c-6.25-6.25-16.38-6.25-22.62 0L256 233.4L203.3 180.7c-6.25-6.25-16.38-6.25-22.62 0s-6.25 16.38 0 22.62L233.4 256L180.7 308.7c-6.25 6.25-6.25 16.38 0 22.62c6.246 6.246 16.37 6.254 22.62 0L256 278.6l52.69 52.69c6.246 6.246 16.37 6.254 22.62 0c6.25-6.25 6.25-16.38 0-22.62L278.6 256l52.69-52.69C337.6 197.1 337.6 186.9 331.3 180.7zM256 0C114.6 0 0 114.6 0 256s114.6 256 256 256S512 397.4 512 256S397.4 0 256 0zM256 480c-123.5 0-224-100.5-224-224s100.5-224 224-224s224 100.5 224 224S379.5 480 256 480z"/></svg>