<svg xmlns="http://www.w3.org/2000/svg" viewBox="0 0 512 512"><!--! Font Awesome Pro 6.0.0-beta3 by @fontawesome - https://fontawesome.com License - https://fontawesome.com/license (Commercial License) Copyright 2021 Fonticons, Inc. --><path d="M278.7 169.4c-12.49-12.5-32.86-12.5-45.35 0l-95.95 96C117.4 285.5 131.5 320 159.1 320h192c28.36 0 42.73-34.5 22.61-54.63L278.7 169.4zM160 288l96-96l96 96H160zM256 0C114.6 0 0 114.6 0 256s114.6 256 256 256s256-114.6 256-256S397.4 0 256 0zM256 480c-123.5 0-224-100.5-224-224s100.5-224 224-224s224 100.5 224 224S379.5 480 256 480z"/></svg>