<svg xmlns="http://www.w3.org/2000/svg" viewBox="0 0 512 512"><!--! Font Awesome Pro 6.0.0-beta3 by @fontawesome - https://fontawesome.com License - https://fontawesome.com/license (Commercial License) Copyright 2021 Fonticons, Inc. --><path d="M256 160C203.1 160 160 203 160 256c0 52.95 43.05 96 96 96s96-43.05 96-96C352 203 308.9 160 256 160zM256 320c-35.33 0-64-28.67-64-64c0-35.33 28.67-64 64-64s64 28.67 64 64C320 291.3 291.3 320 256 320zM256 0C114.6 0 0 114.6 0 256s114.6 256 256 256s256-114.6 256-256S397.4 0 256 0zM256 480c-123.5 0-224-100.5-224-224s100.5-224 224-224s224 100.5 224 224S379.5 480 256 480z"/></svg>