<svg xmlns="http://www.w3.org/2000/svg" viewBox="0 0 512 512"><!--! Font Awesome Pro 6.1.1 by @fontawesome - https://fontawesome.com License - https://fontawesome.com/license (Commercial License) Copyright 2022 Fonticons, Inc. --><path d="M232 160C232 146.7 242.7 136 256 136C269.3 136 280 146.7 280 160C280 173.3 269.3 184 256 184C242.7 184 232 173.3 232 160zM352 240C360.8 240 368 247.2 368 256C368 264.8 360.8 272 352 272H160C151.2 272 144 264.8 144 256C144 247.2 151.2 240 160 240H352zM280 352C280 365.3 269.3 376 256 376C242.7 376 232 365.3 232 352C232 338.7 242.7 328 256 328C269.3 328 280 338.7 280 352zM512 256C512 397.4 397.4 512 256 512C114.6 512 0 397.4 0 256C0 114.6 114.6 0 256 0C397.4 0 512 114.6 512 256zM256 32C132.3 32 32 132.3 32 256C32 379.7 132.3 480 256 480C379.7 480 480 379.7 480 256C480 132.3 379.7 32 256 32z"/></svg>