<svg xmlns="http://www.w3.org/2000/svg" viewBox="0 0 512 512"><!--! Font Awesome Pro 6.0.0-beta3 by @fontawesome - https://fontawesome.com License - https://fontawesome.com/license (Commercial License) Copyright 2021 Fonticons, Inc. --><path d="M320 128H192C174.3 128 160 142.4 160 160v208c0 6.156 3.531 11.75 9.062 14.42c5.562 2.672 12.09 1.891 16.94-1.922L256 324.5l69.1 56.02C328.9 382.8 332.4 384 336 384c2.344 0 4.719-.5156 6.938-1.578C348.5 379.8 352 374.2 352 368V160C352 142.4 337.7 128 320 128zM320 334.7L265.1 291.5C263.1 289.2 259.5 288 256 288S248.9 289.2 245.1 291.5L192 334.7V160h128V334.7zM256 0C114.6 0 0 114.6 0 256c0 141.4 114.6 256 256 256s256-114.6 256-256C512 114.6 397.4 0 256 0zM256 480c-123.5 0-224-100.5-224-224s100.5-224 224-224s224 100.5 224 224S379.5 480 256 480z"/></svg>