<svg xmlns="http://www.w3.org/2000/svg" viewBox="0 0 512 512"><!--! Font Awesome Pro 6.0.0-beta3 by @fontawesome - https://fontawesome.com License - https://fontawesome.com/license (Commercial License) Copyright 2021 Fonticons, Inc. --><path d="M208 96C216.8 96 224 103.2 224 112V128H288V112C288 103.2 295.2 96 304 96C312.8 96 320 103.2 320 112V128H336C362.5 128 384 149.5 384 176V336C384 362.5 362.5 384 336 384H176C149.5 384 128 362.5 128 336V176C128 149.5 149.5 128 176 128H192V112C192 103.2 199.2 96 208 96zM160 192H352V176C352 167.2 344.8 160 336 160H176C167.2 160 160 167.2 160 176V192zM160 224V336C160 344.8 167.2 352 176 352H336C344.8 352 352 344.8 352 336V224H160zM512 256C512 397.4 397.4 512 256 512C114.6 512 0 397.4 0 256C0 114.6 114.6 0 256 0C397.4 0 512 114.6 512 256zM256 32C132.3 32 32 132.3 32 256C32 379.7 132.3 480 256 480C379.7 480 480 379.7 480 256C480 132.3 379.7 32 256 32z"/></svg>