<svg xmlns="http://www.w3.org/2000/svg" viewBox="0 0 512 512"><!--! Font Awesome Pro 6.1.1 by @fontawesome - https://fontawesome.com License - https://fontawesome.com/license (Commercial License) Copyright 2022 Fonticons, Inc. --><path d="M363.1 131.2l-44.19-10.25c-17.52-3.984-35.44 5-42.58 21.52L255.8 190.3c-6.562 15.34-2.312 32.78 10.55 43.41l8.266 6.781C265.5 253.9 253.9 265.5 240.4 274.7L233.7 266.5C223.4 253.9 205.6 249.4 190.4 255.8L142.5 276.3c-.0156 .0156 .0313-.0156 0 0c-16.47 7.172-25.55 25.06-21.54 42.56l10.2 44.28C135.1 380.1 150 392 167.5 392C291.3 392 392 291.3 392 167.5C392 149.1 380.1 135.1 363.1 131.2zM167.5 360c-2.5 0-4.562-1.625-5.125-4.062L152.1 311.7c-.5625-2.438 .7187-4.969 3.047-6l47.66-20.44C204.9 284.4 207.5 285 208.9 286.7l15.58 19.02c4.859 5.906 13.25 7.594 20.03 3.906c27.59-15.03 50.13-37.55 65.13-65.13c3.672-6.75 2.031-15.16-3.906-20.03l-18.98-15.56c-1.844-1.516-2.406-3.875-1.453-6.109l20.44-47.7C306.5 153.2 308.5 152 310.5 152c.375 0 .75 .0469 1.125 .1406l44.25 10.27C358.4 162.1 360 165 360 167.5C360 273.6 273.6 360 167.5 360zM256 0c-141.4 0-256 114.6-256 256c0 141.4 114.6 256 256 256s256-114.6 256-256C512 114.6 397.4 0 256 0zM256 480c-123.5 0-224-100.5-224-224s100.5-224 224-224s224 100.5 224 224S379.5 480 256 480z"/></svg>