<svg xmlns="http://www.w3.org/2000/svg" viewBox="0 0 512 512"><!--! Font Awesome Pro 6.1.1 by @fontawesome - https://fontawesome.com License - https://fontawesome.com/license (Commercial License) Copyright 2022 Fonticons, Inc. --><path d="M256 0C114.6 0 0 114.6 0 256s114.6 256 256 256s256-114.6 256-256S397.4 0 256 0zM256 480c-123.5 0-224-100.5-224-224s100.5-224 224-224s224 100.5 224 224S379.5 480 256 480zM270.3 120.8c-5.438-10.84-23.19-10.84-28.62 0l-112 224c-3.953 7.906-.75 17.52 7.156 21.47c7.906 3.922 17.52 .75 21.47-7.156l19.89-39.79C179.3 319.6 180.2 320 181.3 320h149.3c1.107 0 2.078-.4141 3.123-.6289l19.89 39.79C356.5 364.8 362.1 368 368 368c2.406 0 4.844-.5469 7.141-1.688c7.906-3.953 11.11-13.56 7.156-21.47L270.3 120.8zM193.9 288L256 163.8L318.1 288H193.9z"/></svg>