<svg xmlns="http://www.w3.org/2000/svg" viewBox="0 0 512 512"><!--! Font Awesome Pro 6.1.1 by @fontawesome - https://fontawesome.com License - https://fontawesome.com/license (Commercial License) Copyright 2022 Fonticons, Inc. --><path d="M201.4 144L212.7 132.7C215.7 129.7 219.8 128 223.1 128H288C292.2 128 296.3 129.7 299.3 132.7L310.6 144H352C360.8 144 368 151.2 368 160C368 168.8 360.8 176 352 176H349.9L337.1 354.1C336.9 370.9 322.9 384 306.1 384H205.9C189.1 384 175.1 370.9 174 354.1L162.1 176H159.1C151.2 176 143.1 168.8 143.1 160C143.1 151.2 151.2 144 159.1 144H201.4zM317.8 176H194.2L205.9 352H306.1L317.8 176zM512 256C512 397.4 397.4 512 256 512C114.6 512 0 397.4 0 256C0 114.6 114.6 0 256 0C397.4 0 512 114.6 512 256zM256 32C132.3 32 32 132.3 32 256C32 379.7 132.3 480 256 480C379.7 480 480 379.7 480 256C480 132.3 379.7 32 256 32z"/></svg>