<svg xmlns="http://www.w3.org/2000/svg" viewBox="0 0 512 512"><!--! Font Awesome Pro 6.1.1 by @fontawesome - https://fontawesome.com License - https://fontawesome.com/license (Commercial License) Copyright 2022 Fonticons, Inc. --><path d="M256 191L273.7 173C275.3 171.4 276.1 169.9 278.7 168.4C308.2 143.3 352.3 144.8 380.1 173C409.5 202.8 409.5 251.2 380.1 280.1L289.7 372.8C280.3 382.3 268.1 387 255.9 386.1C243.7 386.9 231.6 382.2 222.3 372.8L131.9 280.1C102.5 251.2 102.5 202.8 131.9 173C159.7 144.8 203.8 143.3 233.3 168.4C235 169.9 236.7 171.4 238.3 173L256 191zM266.9 350.3L357.3 258.5C374.4 241.2 374.4 212.8 357.3 195.5C340.5 178.4 313.4 178.4 296.5 195.5L256 236.6L215.5 195.5C198.6 178.4 171.5 178.4 154.7 195.5C137.6 212.8 137.6 241.2 154.7 258.5L245.1 350.3C248.2 353.5 252.1 354.1 255.1 354.1C259.9 354.1 263.8 353.5 266.9 350.3V350.3zM512 256C512 397.4 397.4 512 256 512C114.6 512 0 397.4 0 256C0 114.6 114.6 0 256 0C397.4 0 512 114.6 512 256zM256 32C132.3 32 32 132.3 32 256C32 379.7 132.3 480 256 480C379.7 480 480 379.7 480 256C480 132.3 379.7 32 256 32z"/></svg>