<svg xmlns="http://www.w3.org/2000/svg" viewBox="0 0 512 512"><!--! Font Awesome Pro 6.1.1 by @fontawesome - https://fontawesome.com License - https://fontawesome.com/license (Commercial License) Copyright 2022 Fonticons, Inc. --><path d="M256 0C114.6 0 0 114.6 0 256s114.6 256 256 256s256-114.6 256-256S397.4 0 256 0zM256 480c-123.5 0-224-100.5-224-224s100.5-224 224-224s224 100.5 224 224S379.5 480 256 480zM265.4 192.1l48.19-36.14c7.062-5.312 8.5-15.34 3.219-22.41C313.7 130.2 308.8 128 304 128c-3.344 0-6.719 1.031-9.594 3.188L204.8 198.4C163.2 229.6 160 277.7 160 288c0 52.94 43.06 96 96 96s96-43.06 96-96C352 238.3 313.9 197.8 265.4 192.1zM256 352c-35.35 0-64-28.65-64-64c0-35.35 28.65-64 64-64s64 28.65 64 64C320 323.3 291.3 352 256 352z"/></svg>