<svg xmlns="http://www.w3.org/2000/svg" viewBox="0 0 512 512"><!--! Font Awesome Pro 6.0.0-beta3 by @fontawesome - https://fontawesome.com License - https://fontawesome.com/license (Commercial License) Copyright 2021 Fonticons, Inc. --><path d="M127.7 283C116 283 105.8 274.7 103.5 263.2C101.1 251.8 107.2 240.1 117.1 235.5L338.5 141C348 137.1 358.7 139.1 365.8 146.3C372.9 153.4 375 164.1 371 173.5L276.5 394C272.6 403.1 263.6 409 253.7 409C252.1 409 250.5 408.9 248.8 408.5C237.3 406.2 229 395.1 229 384.2V283H127.7zM260.1 251V348.1L334.5 177.6L163.1 251H260.1zM512 256C512 397.4 397.4 512 256 512C114.6 512 0 397.4 0 256C0 114.6 114.6 0 256 0C397.4 0 512 114.6 512 256zM256 32C132.3 32 32 132.3 32 256C32 379.7 132.3 480 256 480C379.7 480 480 379.7 480 256C480 132.3 379.7 32 256 32z"/></svg>