<svg xmlns="http://www.w3.org/2000/svg" viewBox="0 0 512 512"><!--! Font Awesome Pro 6.0.0-beta3 by @fontawesome - https://fontawesome.com License - https://fontawesome.com/license (Commercial License) Copyright 2021 Fonticons, Inc. --><path d="M256 0C114.6 0 0 114.6 0 256s114.6 256 256 256s256-114.6 256-256S397.4 0 256 0zM256 480c-123.5 0-224-100.5-224-224s100.5-224 224-224s224 100.5 224 224S379.5 480 256 480zM336 128h-160C167.2 128 160 135.2 160 144v224C160 376.8 167.2 384 176 384S192 376.8 192 368V288h112C312.8 288 320 280.8 320 272S312.8 256 304 256H192V160h144C344.8 160 352 152.8 352 144S344.8 128 336 128z"/></svg>