<svg xmlns="http://www.w3.org/2000/svg" viewBox="0 0 512 512"><!--! Font Awesome Pro 6.1.1 by @fontawesome - https://fontawesome.com License - https://fontawesome.com/license (Commercial License) Copyright 2022 Fonticons, Inc. --><path d="M360 192H288V163.3c0-16.25-9.688-30.75-24.69-36.97c-14.95-6.188-32-2.812-43.48 8.562l-96.11 92.81C108.6 242.8 108.4 268.1 123.9 284.5l95.8 92.5c11.48 11.47 28.59 14.88 43.59 8.688C278.3 379.4 288 364.9 288 348.7V320h72c22.06 0 40-17.94 40-40v-48C400 209.9 382.1 192 360 192zM368 280C368 284.4 364.4 288 360 288H256v60.69c0 6.414-8.047 11.26-13.86 5.471l-95.8-92.5c-4.205-4.164-1.797-9.531-.2031-11.12l96-92.69C246.1 152.1 256 155.9 256 163.3V224h104c4.406 0 8 3.594 8 8V280zM256 0C114.6 0 0 114.6 0 256s114.6 256 256 256s256-114.6 256-256S397.4 0 256 0zM256 480c-123.5 0-224-100.5-224-224s100.5-224 224-224s224 100.5 224 224S379.5 480 256 480z"/></svg>