<svg xmlns="http://www.w3.org/2000/svg" viewBox="0 0 512 512"><!--! Font Awesome Pro 6.0.0-beta3 by @fontawesome - https://fontawesome.com License - https://fontawesome.com/license (Commercial License) Copyright 2021 Fonticons, Inc. --><path d="M347.1 288H164.6C148.2 288 140.1 307.9 151.8 319.4L243 410.6C246.4 414.1 251.1 416 256 416s9.594-2 13.09-5.375l91.03-91.25C371.8 307.9 363.5 288 347.1 288zM256 378.4L197.6 320h116.6L256 378.4zM269.1 101.4C265.6 97.1 260.9 95.1 256 95.1S246.4 97.87 243 101.4L151.8 192.6C140.1 204.1 148.2 224 164.6 224h182.6c16.38 0 24.62-19.88 13-31.38L269.1 101.4zM197.6 192L256 133.6L314.3 192H197.6zM256 0c-141.4 0-256 114.6-256 256s114.6 256 256 256s256-114.6 256-256S397.4 0 256 0zM256 480c-123.5 0-224-100.5-224-224s100.5-224 224-224s224 100.5 224 224S379.5 480 256 480z"/></svg>