<svg xmlns="http://www.w3.org/2000/svg" viewBox="0 0 512 512"><!--! Font Awesome Pro 6.1.1 by @fontawesome - https://fontawesome.com License - https://fontawesome.com/license (Commercial License) Copyright 2022 Fonticons, Inc. --><path d="M348.7 224H320V152c0-22.06-17.94-40-40-40h-48C209.9 112 192 129.9 192 152V224H163.3C147.1 224 132.6 233.7 126.3 248.7c-6.188 14.95-2.812 32 8.562 43.48l92.81 96.11c15.12 15.12 41.25 15.33 56.75-.2031l92.5-95.8c11.47-11.48 14.88-28.59 8.688-43.59C379.4 233.7 364.9 224 348.7 224zM354.2 269.9l-92.5 95.8c-4.162 4.203-9.533 1.797-11.12 .2031l-92.69-96C152.1 265 155.9 256 163.3 256H224L223.1 152c0-4.406 3.594-8 8.001-8h48c4.406 0 7.999 3.594 7.999 8L288 256h60.69C355.1 256 359.9 264 354.2 269.9zM256 0C114.6 0 0 114.6 0 256s114.6 256 256 256s256-114.6 256-256S397.4 0 256 0zM256 480c-123.5 0-224-100.5-224-224s100.5-224 224-224s224 100.5 224 224S379.5 480 256 480z"/></svg>