<svg xmlns="http://www.w3.org/2000/svg" viewBox="0 0 512 512"><!--! Font Awesome Pro 6.0.0-beta3 by @fontawesome - https://fontawesome.com License - https://fontawesome.com/license (Commercial License) Copyright 2021 Fonticons, Inc. --><path d="M272 136c-8.836 0-16 7.162-16 16v208c0 8.836 7.164 16 16 16s16-7.164 16-16v-208C288 143.2 280.8 136 272 136zM208 200C199.2 200 192 207.2 192 216v80c0 8.836 7.164 16 16 16S224 304.8 224 296v-80C224 207.2 216.8 200 208 200zM144 160C135.2 160 128 167.2 128 176v160C128 344.8 135.2 352 144 352S160 344.8 160 336v-160C160 167.2 152.8 160 144 160zM400 224C391.2 224 384 231.2 384 240v32C384 280.8 391.2 288 400 288S416 280.8 416 272v-32C416 231.2 408.8 224 400 224zM256 0C114.6 0 0 114.6 0 256s114.6 256 256 256s256-114.6 256-256S397.4 0 256 0zM256 480c-123.5 0-224-100.5-224-224s100.5-224 224-224s224 100.5 224 224S379.5 480 256 480zM336 184c-8.836 0-16 7.162-16 16v112c0 8.836 7.164 16 16 16s16-7.164 16-16v-112C352 191.2 344.8 184 336 184z"/></svg>