<svg xmlns="http://www.w3.org/2000/svg" viewBox="0 0 512 512"><!--! Font Awesome Pro 6.0.0-beta3 by @fontawesome - https://fontawesome.com License - https://fontawesome.com/license (Commercial License) Copyright 2021 Fonticons, Inc. --><path d="M256 0C114.6 0 0 114.6 0 256s114.6 256 256 256s256-114.6 256-256S397.4 0 256 0zM256 480c-123.5 0-224-100.5-224-224s100.5-224 224-224s224 100.5 224 224S379.5 480 256 480zM256 128C203.1 128 160 171.1 160 224v64c0 52.94 43.06 96 96 96s96-43.06 96-96V224C352 171.1 308.9 128 256 128zM320 288c0 35.28-28.72 64-64 64s-64-28.72-64-64V224c0-35.28 28.72-64 64-64s64 28.72 64 64V288z"/></svg>