<svg xmlns="http://www.w3.org/2000/svg" viewBox="0 0 512 512"><!--! Font Awesome Pro 6.0.0-beta3 by @fontawesome - https://fontawesome.com License - https://fontawesome.com/license (Commercial License) Copyright 2021 Fonticons, Inc. --><path d="M336 192C327.2 192 320 199.2 320 208v89.38L187.3 164.7C184.2 161.6 180.1 160 176 160S167.8 161.6 164.7 164.7c-6.25 6.25-6.25 16.38 0 22.62l132.4 132.4L207.1 320C199.1 320 191.1 327.2 192 336C192 344.9 199.2 352 208 352l128-.375C344.9 351.6 352 344.4 352 335.6V208C352 199.2 344.8 192 336 192zM256 0C114.6 0 0 114.6 0 256s114.6 256 256 256s256-114.6 256-256S397.4 0 256 0zM256 480c-123.5 0-224-100.5-224-224s100.5-224 224-224s224 100.5 224 224S379.5 480 256 480z"/></svg>