<svg xmlns="http://www.w3.org/2000/svg" viewBox="0 0 512 512"><!--! Font Awesome Pro 6.0.0-beta3 by @fontawesome - https://fontawesome.com License - https://fontawesome.com/license (Commercial License) Copyright 2021 Fonticons, Inc. --><path d="M284.3 123.7C269.2 108.6 243 108.4 227.5 123.9l-92.5 95.8C123.6 231.2 120.2 248.3 126.3 263.3C132.6 278.3 147.1 288 163.3 288H192v72c0 22.06 17.94 40 40 40h48c22.06 0 40-17.94 40-40V288h28.69c16.25 0 30.75-9.688 36.97-24.69c6.188-14.95 2.812-32-8.562-43.48L284.3 123.7zM348.7 256H288l.0006 104c0 4.406-3.594 8-8.001 8h-48c-4.406 0-7.999-3.594-7.999-8L224 256H163.3C156.9 256 152.1 247.1 157.8 242.1l92.5-95.8c4.162-4.203 9.533-1.797 11.12-.2031l92.69 96C359 246.1 356.1 256 348.7 256zM256 0C114.6 0 0 114.6 0 256s114.6 256 256 256s256-114.6 256-256S397.4 0 256 0zM256 480c-123.5 0-224-100.5-224-224s100.5-224 224-224s224 100.5 224 224S379.5 480 256 480z"/></svg>