<svg xmlns="http://www.w3.org/2000/svg" viewBox="0 0 384 512"><!--! Font Awesome Pro 6.0.0-beta3 by @fontawesome - https://fontawesome.com License - https://fontawesome.com/license (Commercial License) Copyright 2021 Fonticons, Inc. --><path d="M320 64c-8.844 0-16 7.156-16 16S311.2 96 320 96c17.64 0 32 14.34 32 32v320c0 17.66-14.36 32-32 32H64c-17.64 0-32-14.34-32-32V128c0-17.66 14.36-32 32-32c8.844 0 16-7.156 16-16S72.84 64 64 64C28.7 64 0 92.72 0 128v320c0 35.28 28.7 64 64 64h256c35.3 0 64-28.72 64-64V128C384 92.72 355.3 64 320 64zM112 128h160C280.8 128 288 120.8 288 112S280.8 96 272 96h-24.88C252.6 86.55 256 75.72 256 64c0-35.35-28.65-64-64-64S128 28.65 128 64c0 11.72 3.379 22.55 8.877 32H112C103.2 96 96 103.2 96 112S103.2 128 112 128zM192 32c17.64 0 32 14.36 32 32s-14.36 32-32 32S160 81.64 160 64S174.4 32 192 32zM80 416c0 8.836 7.164 16 16 16s16-7.164 16-16c0-26.51 21.49-48 48-48h64c26.51 0 48 21.49 48 48c0 8.836 7.164 16 16 16s16-7.164 16-16c0-44.18-35.82-80-80-80H160C115.8 336 80 371.8 80 416zM256 240c0-35.35-28.65-64-64-64s-64 28.65-64 64s28.65 64 64 64S256 275.3 256 240zM160 240c0-17.64 14.36-32 32-32s32 14.36 32 32s-14.36 32-32 32S160 257.6 160 240z"/></svg>