<svg xmlns="http://www.w3.org/2000/svg" viewBox="0 0 384 512"><!--! Font Awesome Pro 6.1.1 by @fontawesome - https://fontawesome.com License - https://fontawesome.com/license (Commercial License) Copyright 2022 Fonticons, Inc. --><path d="M304 336h-128C167.2 336 160 343.2 160 352s7.156 16 16 16h128c8.844 0 16-7.156 16-16S312.8 336 304 336zM304 240h-96C199.2 240 192 247.2 192 256s7.156 16 16 16h96C312.8 272 320 264.8 320 256S312.8 240 304 240zM96 328c-13.25 0-24 10.74-24 24c0 13.25 10.75 24 24 24c13.26 0 24-10.75 24-24C120 338.7 109.3 328 96 328zM320 64c-8.844 0-16 7.156-16 16S311.2 96 320 96c17.64 0 32 14.34 32 32v320c0 17.66-14.36 32-32 32H64c-17.64 0-32-14.34-32-32V128c0-17.66 14.36-32 32-32c8.844 0 16-7.156 16-16S72.84 64 64 64C28.7 64 0 92.72 0 128v320c0 35.28 28.7 64 64 64h256c35.3 0 64-28.72 64-64V128C384 92.72 355.3 64 320 64zM112 128h160C280.8 128 288 120.8 288 112S280.8 96 272 96h-24.88C252.6 86.55 256 75.72 256 64c0-35.35-28.65-64-64-64S128 28.65 128 64c0 11.72 3.379 22.55 8.877 32H112C103.2 96 96 103.2 96 112S103.2 128 112 128zM192 32c17.64 0 32 14.36 32 32s-14.36 32-32 32S160 81.64 160 64S174.4 32 192 32zM68.25 229.2c-6 6.5-5.594 16.59 .9062 22.59l34.66 32C106.9 286.6 110.8 288 114.7 288c4.203 0 8.406-1.656 11.55-4.938l61.33-64c6.125-6.375 5.906-16.5-.4844-22.62c-6.359-6.094-16.48-5.906-22.61 .5L113.1 249.6L90.84 228.3C84.39 222.3 74.22 222.6 68.25 229.2z"/></svg>