<svg xmlns="http://www.w3.org/2000/svg" viewBox="0 0 512 512"><!--! Font Awesome Pro 6.1.1 by @fontawesome - https://fontawesome.com License - https://fontawesome.com/license (Commercial License) Copyright 2022 Fonticons, Inc. --><path d="M272 400C272 408.8 264.8 416 256 416C247.2 416 240 408.8 240 400V256C240 252.8 240.9 249.8 242.7 247.1L306.7 151.1C311.6 143.8 321.5 141.8 328.9 146.7C336.2 151.6 338.2 161.5 333.3 168.9L272 260.8L272 400zM256 512C114.6 512 0 397.4 0 256C0 114.6 114.6 0 256 0C397.4 0 512 114.6 512 256C512 397.4 397.4 512 256 512zM480 256C480 132.3 379.7 32 256 32C132.3 32 32 132.3 32 256C32 379.7 132.3 480 256 480C379.7 480 480 379.7 480 256z"/></svg>