<svg xmlns="http://www.w3.org/2000/svg" viewBox="0 0 512 512"><!--! Font Awesome Pro 6.1.1 by @fontawesome - https://fontawesome.com License - https://fontawesome.com/license (Commercial License) Copyright 2022 Fonticons, Inc. --><path d="M240 260.8L178.7 168.9C173.8 161.5 175.8 151.6 183.1 146.7C190.5 141.8 200.4 143.8 205.3 151.1L269.3 247.1C271.1 249.8 272 252.8 272 256V400C272 408.8 264.8 416 255.1 416C247.2 416 239.1 408.8 239.1 400L240 260.8zM0 256C0 114.6 114.6 0 256 0C397.4 0 512 114.6 512 256C512 397.4 397.4 512 256 512C114.6 512 0 397.4 0 256zM256 480C379.7 480 480 379.7 480 256C480 132.3 379.7 32 256 32C132.3 32 32 132.3 32 256C32 379.7 132.3 480 256 480z"/></svg>