<svg xmlns="http://www.w3.org/2000/svg" viewBox="0 0 576 512"><!--! Font Awesome Pro 6.1.1 by @fontawesome - https://fontawesome.com License - https://fontawesome.com/license (Commercial License) Copyright 2022 Fonticons, Inc. --><path d="M328.7 38.37C338.3 34.27 348.9 32 360 32C393.7 32 422.5 52.82 434.3 82.28H441.1C480.3 82.28 512 114 512 153.1C512 192.3 480.3 223.1 441.1 223.1H134.9C95.72 223.1 63.1 192.3 63.1 153.1C63.1 114 95.72 82.28 134.9 82.28H146.3C156.3 35.27 198 0 247.1 0C280.6 0 309.6 14.98 328.7 38.37V38.37zM160.2 114.3H134.9C113.4 114.3 95.1 131.7 95.1 153.1C95.1 174.6 113.4 191.1 134.9 191.1H441.1C462.6 191.1 480 174.6 480 153.1C480 131.7 462.6 114.3 441.1 114.3H422.5C415 114.3 408.5 109 406.9 101.7C402.2 80.14 382.1 64 360 64C349.9 64 340.6 67.11 332.8 72.41C329.2 74.92 324.7 75.81 320.3 74.86C316 73.9 312.3 71.2 310 67.38C297.4 46.17 274.4 32 247.1 32C209.8 32 178.6 61.74 176.1 99.31C175.6 107.7 168.6 114.3 160.2 114.3H160.2zM77.31 376.9C72.41 384.2 62.48 386.2 55.12 381.3C47.77 376.4 45.79 366.5 50.69 359.1L114.7 263.1C119.6 255.8 129.5 253.8 136.9 258.7C144.2 263.6 146.2 273.5 141.3 280.9L77.31 376.9zM250.1 458.8C259.9 452.1 268.2 444.8 276.1 436.9C282.6 430.4 293.3 430.4 299.8 436.9C307.8 444.8 315.1 452.1 325.8 458.8C342.3 470 363.1 479.1 383.1 479.1C404.9 479.1 425.6 470 442.2 458.8C451.9 452.1 460.2 444.8 468.1 436.9C474.6 430.4 485.3 430.4 491.8 436.9C499.8 444.8 507.1 452.1 517.8 458.8C530.6 467.5 545.9 475.4 561.9 478.6C569.6 480.1 576 486.4 576 494.2C576 504 567.1 512.1 558.3 510.4C535.2 506.5 514.7 495.4 499.8 485.2C491.8 479.8 485.1 474.4 479.1 469.1C474.8 474.4 468.1 479.8 460.2 485.2C441.5 497.9 414.3 511.1 383.1 511.1C353.7 511.1 326.4 497.9 307.8 485.2C299.8 479.8 293.1 474.4 287.1 469.1C282.8 474.4 276.1 479.8 268.2 485.2C249.5 497.9 222.3 511.1 191.1 511.1C161.7 511.1 134.4 497.9 115.8 485.2C107.8 479.8 101.1 474.4 95.96 469.1C90.82 474.4 84.12 479.8 76.19 485.2C61.25 495.4 40.81 506.5 17.69 510.4C8.015 512.1 0 504 0 494.2C0 486.4 6.421 480.1 14.13 478.6C30.07 475.4 45.38 467.5 58.16 458.8C67.94 452.1 76.16 444.8 84.07 436.9C90.64 430.4 101.3 430.4 107.8 436.9C115.8 444.8 124.1 452.2 133.8 458.8C150.3 470 171.1 479.1 191.1 479.1C212.9 479.1 233.6 470 250.1 458.8H250.1zM472.9 258.7C480.2 263.6 482.2 273.5 477.3 280.9L413.3 376.9C408.4 384.2 398.5 386.2 391.1 381.3C383.8 376.4 381.8 366.5 386.7 359.1L450.7 263.1C455.6 255.8 465.5 253.8 472.9 258.7zM189.3 376.9C184.4 384.2 174.5 386.2 167.1 381.3C159.8 376.4 157.8 366.5 162.7 359.1L226.7 263.1C231.6 255.8 241.5 253.8 248.9 258.7C256.2 263.6 258.2 273.5 253.3 280.9L189.3 376.9zM360.9 258.7C368.2 263.6 370.2 273.5 365.3 280.9L301.3 376.9C296.4 384.2 286.5 386.2 279.1 381.3C271.8 376.4 269.8 366.5 274.7 359.1L338.7 263.1C343.6 255.8 353.5 253.8 360.9 258.7z"/></svg>