<svg xmlns="http://www.w3.org/2000/svg" viewBox="0 0 576 512"><!--! Font Awesome Pro 6.0.0-beta3 by @fontawesome - https://fontawesome.com License - https://fontawesome.com/license (Commercial License) Copyright 2021 Fonticons, Inc. --><path d="M80 352C53.5 352 32 373.5 32 400S53.5 448 80 448S128 426.5 128 400S106.5 352 80 352zM80 416C71.25 416 64 408.8 64 400S71.25 384 80 384S96 391.3 96 400S88.75 416 80 416zM378.5 293.5c-12.25-12.25-29.25-17.88-46.25-16.25c-21.88-26.62-66.75-26.62-88.5 0c-16.88-1.625-34 4-46.25 16.25s-18 29.25-16.25 46.25C167.9 350.8 160 366.8 160 384s7.875 33.25 21.25 44.25c-1.75 17 4 34 16.25 46.25S228 493.5 244 491.1C254.9 504.3 270.8 512 288 512s33.13-7.75 44-20.88c16.25 2.375 34.25-4.375 46.5-16.62s18-29.25 16.25-46.25C408.1 417.3 416 401.3 416 384s-7.875-33.25-21.25-44.25C396.5 322.8 390.8 305.8 378.5 293.5zM369.8 406.8l-12 6.125l4.125 12.88c3 9.5 .875 19.5-5.875 26.12c-4.875 4.875-11.38 7.625-18.38 7.625c-2 0-4.5-.75-7.875-1.75l-12.75-4l-6.25 12c-9.125 17.62-36.13 17.62-45.38 0l-6.125-12l-12.88 4c-3.125 1-5.75 1.75-7.75 1.75c-6.875 0-13.5-2.75-18.38-7.625c-6.75-6.625-9-16.62-6-26.12l4.125-12.88L206.5 406.8C197.8 402.1 192.3 393.4 192.3 384s5.5-18.12 14.25-22.75l11.88-6.125l-4.125-12.88c-3-9.5-.75-19.5 6-26.12c6.625-6.75 16.62-8.875 26.12-5.875l12.88 4l6.125-11.88c9.25-17.62 36.25-17.62 45.38 0L317 314.3l12.75-4c9.5-3 19.5-.875 26.25 5.875c6.75 6.625 8.875 16.62 5.875 26.12l-4.125 12.88l12 6.125C378.5 365.9 384 374.6 384 384S378.5 402.1 369.8 406.8zM544 216c0-54.75-42.63-99.75-96.25-103.8c-4-44.88-41.88-80.25-87.75-80.25c-17.75 0-34.75 5.253-49.25 15.25C288.3 17.75 253.5 0 216 0C149.8 0 96 53.75 96 120v.375C52.32 138.6 24.94 184.1 33.6 234.2C42.44 284.5 88.13 320 139.2 320H144C152.8 320 160 312.8 160 304C160 295.2 152.8 288 144 288H138.4C105.4 288 75.05 266.8 66.51 234.9C55.95 195.4 79.85 156.9 117.3 146.8C124.9 144.7 129.9 137.4 129 129.5c-.2441-2.102-1.178-9.225-.9043-14.3C130.6 68.93 169.1 32 216 32c32.25 0 61.75 17.88 77.25 46.75c5.125 9.701 18.3 11.43 25.75 3.375c12.77-13.8 30.54-20.19 49.26-17.54c25.35 3.586 44.32 25.32 47.34 50.74c.6309 5.307 .5137 5.064-.3516 11.55c-1.281 10.25 7.332 19.01 17.61 17.97c4.783-.4844 4.979-.6797 6.598-.7129c28.72-.5684 55.48 15.53 66.44 42.09C527.3 238 489.4 288.1 440 288.1C440 288.1 434.1 288 432 288C423.2 288 416 295.2 416 304c0 8.836 7.164 16 16 16c2.979 0 8 .125 8 .125C497.3 320 544 273.3 544 216zM496 352c-26.5 0-48 21.5-48 48s21.5 48 48 48s48-21.5 48-48S522.5 352 496 352zM496 416c-8.75 0-16-7.25-16-16s7.25-16 16-16s16 7.25 16 16S504.8 416 496 416z"/></svg>