<svg xmlns="http://www.w3.org/2000/svg" viewBox="0 0 512 512"><!--! Font Awesome Pro 6.1.1 by @fontawesome - https://fontawesome.com License - https://fontawesome.com/license (Commercial License) Copyright 2022 Fonticons, Inc. --><path d="M414.7 112.2C407.2 66.75 367.6 32 320 32c-18.97 0-37.09 5.469-52.59 15.69C246.7 18.22 212.6 0 176 0C114.3 0 64 50.25 64 112c0 2.719 .0938 5.438 .3125 8.188C25.84 136.1 0 173.7 0 216C0 273.3 46.66 320 104 320h304C465.3 320 512 273.3 512 216C512 160.9 468.9 115.7 414.7 112.2zM408 288h-304C64.31 288 32 255.7 32 216c0-32.59 22.19-61.13 53.97-69.38c8.219-2.156 13.34-10.34 11.66-18.66C96.56 122.8 96 117.5 96 112C96 67.88 131.9 32 176 32c30.97 0 59.41 18.31 72.47 46.63c2.188 4.781 6.594 8.188 11.78 9.062c5.188 1.094 10.47-.75 14.16-4.531C286.6 70.81 302.8 64 320 64c35.28 0 64 28.72 64 64c0 8.844 7.156 16 16 16h8C447.7 144 480 176.3 480 216S447.7 288 408 288zM242.8 358.9c-10.69 15.47-45.5 67.94-45.5 94.44C197.3 485.7 223.7 512 256 512s58.66-26.31 58.66-58.66c0-26.5-34.81-78.97-45.5-94.44C263.2 350.3 248.8 350.3 242.8 358.9zM256 480c-14.69 0-26.66-11.97-26.66-26.66c0-8.562 12.25-32.69 26.66-56.06c14.41 23.38 26.66 47.5 26.66 56.06C282.7 468 270.7 480 256 480zM82.84 358.9c-10.69 15.47-45.5 67.94-45.5 94.44C37.34 485.7 63.66 512 96 512s58.66-26.31 58.66-58.66c0-26.5-34.81-78.97-45.5-94.44C103.2 350.3 88.78 350.3 82.84 358.9zM96 480c-14.69 0-26.66-11.97-26.66-26.66c0-8.562 12.25-32.69 26.66-56.06c14.41 23.38 26.66 47.5 26.66 56.06C122.7 468 110.7 480 96 480zM402.8 358.9c-10.69 15.47-45.5 67.94-45.5 94.44C357.3 485.7 383.7 512 416 512s58.66-26.31 58.66-58.66c0-26.5-34.81-78.97-45.5-94.44C423.2 350.3 408.8 350.3 402.8 358.9zM416 480c-14.69 0-26.66-11.97-26.66-26.66c0-8.562 12.25-32.69 26.66-56.06c14.41 23.38 26.66 47.5 26.66 56.06C442.7 468 430.7 480 416 480z"/></svg>