<svg xmlns="http://www.w3.org/2000/svg" viewBox="0 0 640 512"><!--! Font Awesome Pro 6.0.0-beta3 by @fontawesome - https://fontawesome.com License - https://fontawesome.com/license (Commercial License) Copyright 2021 Fonticons, Inc. --><path d="M446.5 321.2c-6.99-37.04-39.49-65.16-78.53-65.16c-12.03 0-23.75 2.701-34.42 7.88C315.7 239.2 286.8 224 255.9 224c-52.95 0-96.02 43.08-96.02 96.04c0 1.809 .0645 3.641 .1934 5.508c-37.93 13.16-64.21 49.07-64.21 90.42C95.9 468.9 138.1 512 191.9 512h240.1c52.88 0 95.95-43.07 95.95-95.96C527.1 368.1 492.5 328.2 446.5 321.2zM432 480H194.2c-32.89 0-62.1-23.84-65.87-56.51c-3.941-34.19 19.38-64.5 52.33-70.31c8.951-1.629 14.92-10.37 13.01-19.26c-1.125-5.004-1.752-9.629-1.752-13.88C191.9 284.6 220.7 256 255.9 256c24.63 0 47.27 14.51 57.77 37.02c4.322 9.344 16.27 12.15 24.29 5.699c12.89-10.31 29.38-13.37 44.93-8.248c20.1 6.619 32.94 26.38 32.94 47.54c0 7.596 6.158 14.04 13.75 14.04c32.17 0 61.02 22.75 65.59 54.58C500.9 446.1 470.4 480 432 480zM95.1 320c-36.73 0-66.4-31.21-63.85-68.47C34.48 217.6 64.28 192 98.31 192h15.45c7.547 0 14.04-5.344 15.49-12.75C135.2 149.5 161.7 128 191.1 128c30.25 0 56.76 21.5 62.76 51.25C256.2 186.7 262.7 192 270.2 192H288c24.61 0 45.8 14.16 56.5 34.61c7.619-1.641 15.47-2.604 23.43-2.604c3.559 0 6.931 .4824 10.42 .8105C365.3 187.3 329.9 160 288 160H282.5c-13.25-37.75-49.5-64-90.49-64c-40.1 0-77.26 26.25-90.51 64H98.87c-50.79 0-94.94 38.26-98.61 88.92c-3.715 51.21 33.24 94.44 81.69 101.7C88.79 339.1 97.57 328.9 107.7 320H95.1zM636.6 248.1c-5.094-8.406-14.5-12.69-24.2-10.75c-31 5.812-62.52-2.281-86.56-22.25c-23.78-19.72-37.42-48.63-37.42-79.38c0-37.13 20.2-71.59 52.61-89.88c8.672-4.781 13.23-14.19 11.61-23.97c-1.625-9.812-9-17.25-18.56-18.97C524.1 .9687 513.7 0 503.1 0c-82.51 0-151.2 58.92-166.1 137.9c10.75 4.516 20.81 10.49 29.92 17.72C373.7 85.86 433.8 31.35 505.1 32c-30.45 25.5-48.63 63.41-48.63 103.7c0 40.28 17.86 78.22 49 104c24.98 20.69 55.66 32 88.2 31.44c-20.97 18.28-46.95 29.75-75.05 32.91l-21.61 2.352c12.4 7.453 23.36 16.88 32.58 27.89c41.26-6.492 78.48-27.14 105.1-59.71C640.1 266.9 641.7 256.5 636.6 248.1z"/></svg>