<svg xmlns="http://www.w3.org/2000/svg" viewBox="0 0 512 512"><!--! Font Awesome Pro 6.1.1 by @fontawesome - https://fontawesome.com License - https://fontawesome.com/license (Commercial License) Copyright 2022 Fonticons, Inc. --><path d="M414.7 112.2C407.2 66.75 367.6 32 320 32c-18.97 0-37.09 5.469-52.59 15.69C246.7 18.22 212.6 0 176 0C114.3 0 64 50.25 64 112c0 2.719 .0902 5.438 .309 8.188C25.84 136.1 0 173.7 0 216C0 273.3 46.66 320 104 320h304C465.3 320 512 273.3 512 216C512 160.9 468.9 115.7 414.7 112.2zM408 288h-304C64.31 288 32 255.7 32 216c0-32.59 22.19-61.13 53.97-69.38c8.219-2.156 13.34-10.34 11.66-18.66C96.56 122.8 96 117.5 96 112C96 67.88 131.9 32 176 32c30.97 0 59.41 18.31 72.47 46.63c2.188 4.781 6.594 8.188 11.78 9.062c5.188 1.094 10.47-.75 14.16-4.531C286.6 70.81 302.8 64 320 64c35.28 0 64 28.72 64 64c0 8.844 7.156 16 16 16h8C447.7 144 480 176.3 480 216S447.7 288 408 288zM439.2 353.7c-7.922-3.969-17.5-.7187-21.47 7.156l-64 128c-3.953 7.906-.75 17.5 7.156 21.47C363.1 511.5 365.6 512 367.1 512c5.875 0 11.51-3.25 14.32-8.844l64-128C450.3 367.3 447.1 357.7 439.2 353.7zM321.8 353.7c-7.922-3.969-17.5-.7187-21.47 7.156l-64 128c-3.953 7.906-.75 17.5 7.156 21.47C245.8 511.5 248.3 512 250.7 512c5.875 0 11.52-3.25 14.33-8.844l64-128C332.9 367.3 329.7 357.7 321.8 353.7zM204.5 353.7c-7.922-3.969-17.5-.7187-21.47 7.156l-64 128c-3.953 7.906-.75 17.5 7.156 21.47C128.5 511.5 130.9 512 133.3 512c5.875 0 11.52-3.25 14.33-8.844l64-128C215.6 367.3 212.4 357.7 204.5 353.7zM87.16 353.7c-7.922-3.969-17.5-.7187-21.47 7.156l-64 128c-3.953 7.906-.75 17.5 7.156 21.47C11.14 511.5 13.58 512 15.98 512c5.875 0 11.52-3.25 14.33-8.844l64-128C98.27 367.3 95.06 357.7 87.16 353.7z"/></svg>