<svg xmlns="http://www.w3.org/2000/svg" viewBox="0 0 640 512"><!--! Font Awesome Pro 6.0.0-beta3 by @fontawesome - https://fontawesome.com License - https://fontawesome.com/license (Commercial License) Copyright 2021 Fonticons, Inc. --><path d="M571.8 238.8C574.5 228.9 576 218.6 576 208C576 146.1 525.9 96 464 96c-16.75 0-32.88 3.625-48 10.75C384.4 61.75 331.8 32 272 32C177.6 32 100.2 106.4 96.2 200.1C39.2 220.1 0 274.3 0 336C0 415.6 64.38 480 144 480H512c70.75 0 128-57.25 128-128C640 305 614.3 261.3 571.8 238.8zM507.5 448H149.5c-58.31 0-110.9-42.16-116.9-100.2C26.8 291.2 63.27 241.9 114.3 227.1c8.369-2.291 13.78-10.26 13.73-18.94C128 208.7 128 208.4 128 208C127.1 147.3 165.1 91.38 222.7 72.19c71.47-23.82 139.2 6.727 172.3 60.89c5.984 9.803 18.35 11.99 28.22 6.111c16.88-10.06 37.78-14.07 59.94-8.988c26.85 6.154 49.45 27 57.26 53.41c5.799 19.61 4.307 38.74-2.508 55.16c-4.137 9.969 2.061 20.75 11.98 24.1c37.34 15.97 62.42 55.06 57.5 99.25C601.9 412.3 557.1 448 507.5 448zM399.1 272h-160C231.2 272 224 279.2 224 288c0 8.834 7.154 15.1 15.1 15.1h160C408.8 303.1 416 296.8 416 288S408.8 272 399.1 272z"/></svg>