<svg xmlns="http://www.w3.org/2000/svg" viewBox="0 0 576 512"><!--! Font Awesome Pro 6.0.0-beta3 by @fontawesome - https://fontawesome.com License - https://fontawesome.com/license (Commercial License) Copyright 2021 Fonticons, Inc. --><path d="M414.7 304.2C407.2 258.8 367.6 224 320 224c-18.97 0-37.09 5.469-52.59 15.69C246.7 210.2 212.6 192 176 192C114.3 192 64 242.3 64 304c0 2.719 .0938 5.438 .3125 8.188C25.84 328.1 0 365.7 0 408C0 465.3 46.66 512 104 512h304c57.34 0 104-46.66 104-104C512 352.9 468.9 307.7 414.7 304.2zM408 480h-304C64.31 480 32 447.7 32 408c0-32.59 22.19-61.13 53.97-69.38c8.219-2.156 13.34-10.34 11.66-18.66C96.56 314.8 96 309.5 96 304C96 259.9 131.9 224 176 224c30.97 0 59.41 18.31 72.47 46.63c2.188 4.781 6.594 8.188 11.78 9.062c5.188 1.094 10.47-.75 14.16-4.531C286.6 262.8 302.8 256 320 256c35.28 0 63.94 28.82 63.94 64.11C383.9 328.9 391.2 336 400 336h8c39.69 0 72 32.31 72 72S447.7 480 408 480zM256 172c4.5 0 9-1.906 12.16-5.594C341.3 81 447.6 32 560 32C568.8 32 576 24.98 576 16.13S568.8 0 560 0c-121.7 0-236.1 53.09-316.2 145.6C238.1 152.3 238.9 162.4 245.6 168.2C248.6 170.8 252.3 172 256 172zM560 96c-80.38 0-157.2 29.91-216.3 84.22c-6.531 5.969-6.938 16.09-.9687 22.59C345.9 206.3 350.2 208 354.5 208c3.875 0 7.75-1.406 10.81-4.219C418.5 154.9 487.7 128 560 128C568.8 128 576 120.8 576 112S568.8 96 560 96zM560 192c-42.91 0-84.59 12.19-120.6 35.22c-7.438 4.75-9.625 14.66-4.844 22.09C437.6 254.1 442.8 256.7 448 256.7c2.969 0 5.938-.8125 8.625-2.531C487.5 234.4 523.2 224 560 224C568.8 224 576 216.8 576 208S568.8 192 560 192z"/></svg>