<svg xmlns="http://www.w3.org/2000/svg" viewBox="0 0 640 512"><!--! Font Awesome Pro 6.0.0-beta3 by @fontawesome - https://fontawesome.com License - https://fontawesome.com/license (Commercial License) Copyright 2021 Fonticons, Inc. --><path d="M368 352h-96C263.2 352 256 359.2 256 368C256 376.8 263.2 384 272 384h96c8.836 0 16-7.164 16-16C384 359.2 376.8 352 368 352zM288 304C288 295.2 280.8 288 272 288h-128C135.2 288 128 295.2 128 304C128 312.8 135.2 320 144 320h128C280.8 320 288 312.8 288 304zM208 352h-32C167.2 352 160 359.2 160 368C160 376.8 167.2 384 176 384h32C216.8 384 224 376.8 224 368C224 359.2 216.8 352 208 352zM464 352h-32c-8.836 0-16 7.162-16 16c0 8.836 7.164 16 16 16h32c8.836 0 16-7.164 16-16C480 359.2 472.8 352 464 352zM571.8 238.8C574.5 228.9 576 218.6 576 208C576 146.1 525.9 96 464 96c-16.75 0-32.88 3.609-48 10.75C384.4 61.77 331.8 32 272 32C177.6 32 100.2 106.4 96.2 200.1C39.2 220.1 0 274.2 0 336C0 415.6 64.38 480 144 480H512c70.75 0 128-57.25 128-128C640 305 614.3 261.3 571.8 238.8zM507.6 448H149.5c-58.31 0-110.9-42.17-116.9-100.2c-5.812-56.64 30.66-105.9 81.69-119.9C122.6 225.7 128.1 217.7 128 209.1v-1C128 147.4 165.1 91.39 222.7 72.22c71.47-23.8 139.2 6.719 172.3 60.91c6 9.781 18.38 12 28.22 6.109c16.91-10.08 37.81-14.08 59.94-9c26.84 6.156 49.44 27.02 57.25 53.42c5.812 19.61 4.344 38.75-2.5 55.16c-4.125 9.984 2.062 20.73 11.97 25c37.34 15.97 62.44 55.06 57.53 99.23C601.9 412.3 557.2 448 507.6 448zM496 287.1h-160c-8.836 0-16 7.164-16 16c0 8.838 7.164 16 16 16h160c8.836 0 16-7.162 16-16C512 295.2 504.8 287.1 496 287.1z"/></svg>