<svg xmlns="http://www.w3.org/2000/svg" viewBox="0 0 640 512"><!--! Font Awesome Pro 6.0.0-beta3 by @fontawesome - https://fontawesome.com License - https://fontawesome.com/license (Commercial License) Copyright 2021 Fonticons, Inc. --><path d="M402.3 188.8c-8.625-6-19.62-7.438-29.5-3.688l-96 36C264.3 225.8 256 237.8 256 251.1v73.72C248.7 321.8 240.6 320 232 320c-30.88 0-56 21.53-56 48S201.1 416 232 416S288 394.5 288 368V251.1l96-35.97v77.72C376.7 289.8 368.6 288 360 288C329.1 288 304 309.5 304 336s25.12 48 56 48S416 362.5 416 336V215.1C416 204.6 410.8 194.8 402.3 188.8zM232 384c-12.78 0-24-7.474-24-16S219.2 352 232 352s24 7.453 24 15.98S244.8 384 232 384zM360 352c-12.78 0-24-7.474-24-16S347.2 320 360 320s24 7.453 24 15.98S372.8 352 360 352zM571.8 238.8C574.5 228.9 576 218.6 576 208C576 146.1 525.9 96 464 96c-16.75 0-32.88 3.625-48 10.75C384.4 61.75 331.8 32 272 32C177.6 32 100.2 106.4 96.2 200.1C39.2 220.1 0 274.3 0 336C0 415.6 64.38 480 144 480H512c70.75 0 128-57.25 128-128C640 305 614.3 261.3 571.8 238.8zM507.5 448H149.5c-58.31 0-110.9-42.16-116.9-100.2C26.79 291.2 63.27 241.9 114.3 227.1c8.367-2.291 13.78-10.26 13.73-18.94C128 208.7 128 208.4 128 208C127.1 147.3 165.1 91.38 222.7 72.19c71.47-23.82 139.2 6.727 172.3 60.89c5.984 9.803 18.35 11.99 28.22 6.111c16.88-10.06 37.78-14.07 59.94-8.988c26.85 6.154 49.45 27 57.26 53.41c5.799 19.61 4.307 38.74-2.508 55.16c-4.137 9.969 2.061 20.75 11.98 24.1c37.34 15.97 62.42 55.06 57.5 99.25C601.9 412.3 557.1 448 507.5 448z"/></svg>