<svg xmlns="http://www.w3.org/2000/svg" viewBox="0 0 512 512"><!--! Font Awesome Pro 6.1.1 by @fontawesome - https://fontawesome.com License - https://fontawesome.com/license (Commercial License) Copyright 2022 Fonticons, Inc. --><path d="M497.6 255.7c9.156-13.56 14.09-29.75 14.09-46.78C511.7 164.3 477.2 128 434.9 128c-20.88 0-50.38 14.66-86.41 35.53C369.3 127.5 384 98 384 77.13C384 34.59 347.7 0 303.1 0c-17.06 0-33.69 5.156-47.34 14.44C242.2 5.281 225.1 .3438 208.9 .3438C164.3 .3438 128 34.78 128 77.13C128 98 142.7 127.5 163.5 163.5C127.5 142.7 97.1 128 77.13 128C34.59 128 0 164.3 0 208.9C0 226 5.156 242.6 14.44 256.3C5.281 269.8 .3438 286 .3438 303.1C.3438 347.7 34.78 384 77.13 384c20.87 0 50.38-14.66 86.41-35.53C142.7 384.5 128 414 128 434.9C128 477.4 164.3 512 208.9 512c17.06 0 33.69-5.156 47.34-14.44c13.56 9.156 29.75 14.09 46.78 14.09C347.7 511.7 384 477.2 384 434.9c0-20.88-14.66-50.38-35.53-86.41C384.5 369.3 413.1 384 434.9 384C477.4 384 512 347.7 512 303.1C512 286 506.8 269.4 497.6 255.7zM434.9 352c-18.34 0-65.03-27.88-92.94-44.53c-11.91-7.125-22.53-13.44-30.5-17.62c-6.219-3.312-13.84-2.094-18.75 2.844c-4.969 4.969-6.125 12.56-2.844 18.75c4.188 7.969 10.5 18.59 17.62 30.5C324.1 369.8 352 416.5 352 434.9c0 24.69-21.97 44.78-48.94 44.78c-13.66 0-26.31-5.031-35.63-14.12c-6.25-6.125-16.22-6.031-22.47 .0938C235.8 474.8 222.6 480 208.9 480C181.1 480 160 459.8 160 434.9c0-18.34 27.88-65.03 44.53-92.94c7.125-11.91 13.44-22.53 17.62-30.5c3.281-6.188 2.125-13.78-2.844-18.75C216.3 289.6 212.2 288 208 288C205.5 288 202.9 288.6 200.6 289.8c-7.969 4.188-18.59 10.5-30.5 17.62C142.2 324.1 95.47 352 77.13 352c-24.69 0-44.78-21.97-44.78-48.94c0-13.66 5.031-26.31 14.12-35.63c6.125-6.25 6.062-16.25-.0938-22.47C37.25 235.8 32 222.6 32 208.9C32 181.1 52.25 160 77.13 160c18.34 0 65.03 27.88 92.94 44.53c11.91 7.125 22.53 13.44 30.5 17.62c6.156 3.25 13.81 2.062 18.75-2.844c4.969-4.969 6.125-12.56 2.844-18.75c-4.188-7.969-10.5-18.59-17.62-30.5C187.9 142.2 160 95.47 160 77.13c0-24.69 21.97-44.78 48.94-44.78c13.66 0 26.31 5.031 35.63 14.12c6.281 6.188 16.25 6.094 22.47-.0938C276.3 37.25 289.4 32 303.1 32C330 32 352 52.25 352 77.13c0 18.34-27.88 65.03-44.53 92.94c-7.125 11.91-13.44 22.53-17.62 30.5c-.0918 .1719-.0098 .373-.0938 .5469c-1.301 2.689-1.736 5.568-1.441 8.479c.0625 .623 .207 1.139 .3418 1.75c.627 2.904 1.779 5.717 4.037 7.975c2.254 2.254 5.059 3.406 7.957 4.035c.6172 .1387 1.135 .2773 1.764 .3418C302.9 223.7 303.5 224 304 224c2.385 0 4.699-.6914 6.891-1.752c.1738-.084 .375 0 .5469-.0918c7.969-4.188 18.59-10.5 30.5-17.62C369.8 187.9 416.5 160 434.9 160c24.69 0 44.78 21.97 44.78 48.94c0 13.66-5.031 26.31-14.12 35.63c-6.125 6.25-6.062 16.25 .0938 22.47C474.8 276.3 480 289.4 480 303.1C480 330 459.8 352 434.9 352z"/></svg>