<svg xmlns="http://www.w3.org/2000/svg" viewBox="0 0 448 512"><!--! Font Awesome Pro 6.1.1 by @fontawesome - https://fontawesome.com License - https://fontawesome.com/license (Commercial License) Copyright 2022 Fonticons, Inc. --><path d="M96 353.6C132.5 361 160 393.3 160 432C160 476.2 124.2 512 80 512C35.82 512 0 476.2 0 432C0 393.3 27.48 361 64 353.6V158.4C27.48 150.1 0 118.7 0 80C0 35.82 35.82 0 80 0C124.2 0 160 35.82 160 80C160 118.7 132.5 150.1 96 158.4V353.6zM80 32C53.49 32 32 53.49 32 80C32 106.5 53.49 128 80 128C106.5 128 128 106.5 128 80C128 53.49 106.5 32 80 32zM80 384C53.49 384 32 405.5 32 432C32 458.5 53.49 480 80 480C106.5 480 128 458.5 128 432C128 405.5 106.5 384 80 384zM288 432C288 387.8 323.8 352 368 352C412.2 352 448 387.8 448 432C448 476.2 412.2 512 368 512C323.8 512 288 476.2 288 432zM368 480C394.5 480 416 458.5 416 432C416 405.5 394.5 384 368 384C341.5 384 320 405.5 320 432C320 458.5 341.5 480 368 480zM400 64C400 81.67 385.7 96 368 96C350.3 96 336 81.67 336 64C336 46.33 350.3 32 368 32C385.7 32 400 46.33 400 64zM336 224C336 206.3 350.3 192 368 192C385.7 192 400 206.3 400 224C400 241.7 385.7 256 368 256C350.3 256 336 241.7 336 224z"/></svg>