<svg xmlns="http://www.w3.org/2000/svg" viewBox="0 0 640 512"><!--! Font Awesome Pro 6.0.0-beta3 by @fontawesome - https://fontawesome.com License - https://fontawesome.com/license (Commercial License) Copyright 2021 Fonticons, Inc. --><path d="M171.1 117.4c-5.875-6.625-16-7.156-22.58-1.344l-144 127.1C1.953 247.1 0 251.4 0 256s1.953 8.938 5.375 11.97l144 127.1C152.4 398.7 156.2 400 160 400c4.406 0 8.797-1.812 11.95-5.375c5.875-6.594 5.281-16.72-1.328-22.59L40.08 256l130.5-116C177.2 134.1 177.8 123.1 171.1 117.4zM634.6 244l-144-127.1C484 110.2 473.9 110.8 468 117.4c-5.875 6.594-5.281 16.72 1.328 22.59l130.5 116l-130.5 116c-6.609 5.875-7.203 15.1-1.328 22.59C471.2 398.2 475.6 400 480 400c3.781 0 7.578-1.344 10.62-4.031l144-127.1C638 264.9 640 260.6 640 256S638 247.1 634.6 244zM405.1 .816c-8.438-2.781-17.44 1.781-20.23 10.12l-160 479.1c-2.797 8.375 1.734 17.44 10.11 20.25C236.6 511.8 238.3 512 240 512c6.703 0 12.94-4.25 15.17-10.94l160-479.1C417.1 12.69 413.4 3.628 405.1 .816z"/></svg>