<svg xmlns="http://www.w3.org/2000/svg" viewBox="0 0 640 512"><!--! Font Awesome Pro 6.1.1 by @fontawesome - https://fontawesome.com License - https://fontawesome.com/license (Commercial License) Copyright 2022 Fonticons, Inc. --><path d="M415.2 21.06L255.2 501.1C252.4 509.4 243.3 513.1 234.9 511.2C226.6 508.4 222 499.3 224.8 490.9L384.8 10.94C387.6 2.554 396.7-1.977 405.1 .8175C413.4 3.612 417.1 12.67 415.2 21.06L415.2 21.06zM170.6 139.9L40.08 256L170.6 372C177.2 377.9 177.8 388 171.1 394.6C166.1 401.2 155.1 401.8 149.4 395.9L5.371 267.1C1.955 264.9 .0003 260.6 0 256C-.0003 251.4 1.954 247.1 5.37 244L149.4 116C155.1 110.2 166.1 110.8 171.1 117.4C177.8 123.1 177.2 134.1 170.6 139.9L170.6 139.9zM490.6 116L634.6 244C638 247.1 640 251.4 640 255.1C640 260.6 638 264.9 634.6 267.1L490.6 395.9C484 401.8 473.9 401.2 468 394.6C462.2 388 462.8 377.9 469.4 372L599.9 255.1L469.4 139.9C462.8 134.1 462.2 123.1 468 117.4C473.9 110.8 484 110.2 490.6 116H490.6z"/></svg>