<svg xmlns="http://www.w3.org/2000/svg" viewBox="0 0 448 512"><!--! Font Awesome Pro 6.0.0-beta3 by @fontawesome - https://fontawesome.com License - https://fontawesome.com/license (Commercial License) Copyright 2021 Fonticons, Inc. --><path d="M402.7 112.8L303.9 13.5C295.1 4.75 283.6 0 271.4 0H176.6C164.4 0 152.9 4.75 144.1 13.5L45.35 112.8c-11.25 11.38-15.88 28-12 43.63l79.88 320.8C118.2 497.6 136.6 512 157.7 512h132.5c21.13 0 39.51-14.38 44.51-34.88l79.89-320.8C418.5 140.8 413.9 124.1 402.7 112.8zM303.8 469.4C302.3 475.6 296.6 480 290.3 480H157.7c-6.375 0-12-4.375-13.5-10.62L64.35 148.6C63.23 143.9 64.6 138.8 68.1 135.3l98.64-99.13C169.5 33.5 172.1 32 176.6 32h94.76c3.75 0 7.125 1.5 9.75 4l98.76 99.25c3.502 3.5 4.877 8.625 3.752 13.38L303.8 469.4z"/></svg>