<svg xmlns="http://www.w3.org/2000/svg" viewBox="0 0 512 512"><!--! Font Awesome Pro 6.1.1 by @fontawesome - https://fontawesome.com License - https://fontawesome.com/license (Commercial License) Copyright 2022 Fonticons, Inc. --><path d="M428.1 242.3C418.1 252.2 403.2 260.4 386.2 267C352.1 280.2 306.1 288 255.1 288C205.9 288 159.9 280.2 125.8 267C108.8 260.4 93.92 252.2 83.04 242.3C72.15 232.3 63.1 219.4 63.1 204C63.1 188.6 72.15 175.7 83.04 165.7C93.92 155.8 108.8 147.6 125.8 140.1C159.9 127.8 205.9 120 255.1 120C306.1 120 352.1 127.8 386.2 140.1C403.2 147.6 418.1 155.8 428.1 165.7C439.8 175.7 448 188.6 448 204C448 219.4 439.8 232.3 428.1 242.3V242.3zM137.3 170.8C122.5 176.6 111.6 183 104.6 189.3C97.7 195.7 96 200.6 96 204C96 207.4 97.7 212.3 104.6 218.7C111.6 224.1 122.5 231.4 137.3 237.2C166.9 248.6 208.9 256 256 256C303.1 256 345.1 248.6 374.7 237.2C389.5 231.4 400.4 224.1 407.4 218.7C414.3 212.3 416 207.4 416 204C416 200.6 414.3 195.7 407.4 189.3C400.4 183 389.5 176.6 374.7 170.8C345.1 159.4 303.1 152 256 152C208.9 152 166.9 159.4 137.3 170.8zM0 208C0 128.5 114.6 64 256 64C397.4 64 512 128.5 512 208V320C512 390.7 397.4 448 256 448C114.6 448 0 390.7 0 320V208zM421.3 281.9C463 258.5 480 231.1 480 208C480 184.9 463 157.5 421.3 134.1C380.6 111.2 322.2 95.1 256 95.1C189.8 95.1 131.4 111.2 90.67 134.1C48.96 157.5 32 184.9 32 207.1C32 231.1 48.96 258.5 90.67 281.9C131.4 304.8 189.8 319.1 256 319.1C322.2 319.1 380.6 304.8 421.3 281.9V281.9zM176 409.2C196 412.7 217.5 414.1 240 415.7V351.7C217.8 350.1 196.3 348.6 176 344.8V409.2zM144 337.5C126.8 332.8 110.8 327.1 96 320.4V385.1C110.2 391.7 126.3 397.4 144 402.1V337.5zM32 320C32 332.9 40.51 349.9 64 366.8V303.2C51.78 295.5 41.03 286.9 32 277.8V320zM272 351.7V415.7C294.5 414.1 315.1 412.7 336 409.2V344.8C315.7 348.6 294.2 350.1 272 351.7V351.7zM480 277.8C470.1 286.9 460.2 295.5 448 303.2V366.8C471.5 349.9 480 332.9 480 320V277.8zM368 402.1C385.7 397.4 401.8 391.7 416 385.1V320.4C401.3 327.1 385.2 332.8 368 337.5V402.1z"/></svg>