<svg xmlns="http://www.w3.org/2000/svg" viewBox="0 0 384 512"><!--! Font Awesome Pro 6.1.1 by @fontawesome - https://fontawesome.com License - https://fontawesome.com/license (Commercial License) Copyright 2022 Fonticons, Inc. --><path d="M178.3 83.04C188.2 93.92 196.4 108.8 203 125.8C216.2 159.9 224 205.9 224 256C224 306.1 216.2 352.1 203 386.2C196.4 403.2 188.2 418.1 178.3 428.1C168.3 439.8 155.4 448 140 448C124.6 448 111.7 439.8 101.7 428.1C91.78 418.1 83.56 403.2 76.99 386.2C63.81 352.1 56 306.1 56 256C56 205.9 63.81 159.9 76.99 125.8C83.56 108.8 91.78 93.92 101.7 83.04C111.7 72.15 124.6 64 140 64C155.4 64 168.3 72.15 178.3 83.04V83.04zM106.8 374.7C112.6 389.5 119 400.4 125.3 407.4C131.7 414.3 136.6 416 140 416C143.4 416 148.3 414.3 154.7 407.4C160.1 400.4 167.4 389.5 173.2 374.7C184.6 345.1 192 303.1 192 256C192 208.9 184.6 166.9 173.2 137.3C167.4 122.5 160.1 111.6 154.7 104.6C148.3 97.7 143.4 95.1 140 95.1C136.6 95.1 131.7 97.7 125.3 104.6C119 111.6 112.6 122.5 106.8 137.3C95.41 166.9 88 208.9 88 256C88 303.1 95.41 345.1 106.8 374.7V374.7zM144 512C64.47 512 0 397.4 0 256C0 114.6 64.47 0 144 0H256C326.7 0 384 114.6 384 256C384 397.4 326.7 512 256 512H144zM217.9 90.67C194.5 48.96 167.1 32 144 32C120.9 32 93.53 48.96 70.07 90.67C47.17 131.4 32 189.8 32 256C32 322.2 47.17 380.6 70.07 421.3C93.53 463 120.9 480 144 480C167.1 480 194.5 463 217.9 421.3C240.8 380.6 256 322.2 256 256C256 189.8 240.8 131.4 217.9 90.67V90.67zM345.2 336C348.7 315.1 350.1 294.5 351.7 272H287.7C286.1 294.2 284.6 315.7 280.8 336H345.2zM273.5 368C268.8 385.2 263.1 401.3 256.4 416H321.1C327.7 401.8 333.4 385.7 338.1 368H273.5zM256 480C268.9 480 285.9 471.5 302.8 448H239.3C231.5 460.2 222.9 470.1 213.8 480H256zM287.7 240H351.7C350.1 217.5 348.7 196 345.2 176H280.8C284.6 196.3 286.1 217.8 287.7 240V240zM213.8 32C222.9 41.03 231.5 51.78 239.3 64H302.8C285.9 40.51 268.9 32 256 32H213.8zM338.1 144C333.4 126.3 327.7 110.2 321.1 96H256.4C263.1 110.8 268.8 126.8 273.5 144H338.1z"/></svg>