<svg xmlns="http://www.w3.org/2000/svg" viewBox="0 0 640 512"><!--! Font Awesome Pro 6.1.1 by @fontawesome - https://fontawesome.com License - https://fontawesome.com/license (Commercial License) Copyright 2022 Fonticons, Inc. --><path d="M0 96C0 60.65 28.65 32 64 32H576C611.3 32 640 60.65 640 96V416C640 451.3 611.3 480 576 480H64C28.65 480 0 451.3 0 416V96zM448 448H576C593.7 448 608 433.7 608 416V96C608 78.33 593.7 64 576 64H448V448zM416 64H224V448H416V64zM192 448V64H64C46.33 64 32 78.33 32 96V416C32 433.7 46.33 448 64 448H192z"/></svg>