<svg xmlns="http://www.w3.org/2000/svg" viewBox="0 0 512 512"><!--! Font Awesome Pro 6.0.0-beta3 by @fontawesome - https://fontawesome.com License - https://fontawesome.com/license (Commercial License) Copyright 2021 Fonticons, Inc. --><path d="M192 216c13.25 0 24-10.75 24-24S205.3 168 192 168S168 178.8 168 192S178.8 216 192 216zM320 216c13.25 0 24-10.75 24-24S333.3 168 320 168S296 178.8 296 192S306.8 216 320 216zM331.8 285.3C313 307.4 285.4 320 256 320S199 307.4 180.3 285.4C174.5 278.8 164.4 278 157.8 283.6c-6.875 5.75-7.5 15.75-1.875 22.62c24.88 29 61.36 45.75 100.1 45.75s75.27-16.75 100.3-45.87c5.75-6.75 4.875-16.88-1.875-22.62C347.8 277.8 337.6 278.6 331.8 285.3zM256 31.1c-141.4 0-255.1 93.13-255.1 208c0 47.62 19.91 91.25 52.91 126.3c-14.87 39.5-45.87 72.88-46.37 73.25c-6.623 7-8.373 17.25-4.623 26C5.816 474.3 14.38 480 24 480c61.49 0 109.1-25.75 139.1-46.25c28.1 9 60.16 14.25 92.9 14.25c141.4 0 255.1-93.13 255.1-207.1S397.4 31.1 256 31.1zM256 416c-28.25 0-56.24-4.25-83.24-12.75c-9.516-3.068-19.92-1.461-28.07 4.338c-22.1 16.25-58.54 35.29-102.7 39.66c11.1-15.12 29.75-40.5 40.74-69.63l.1289-.3398c4.283-11.27 1.791-23.1-6.43-32.82C47.51 313.1 32.06 277.6 32.06 240c0-97 100.5-176 223.1-176c123.5 0 223.1 79 223.1 176S379.5 416 256 416z"/></svg>