<svg xmlns="http://www.w3.org/2000/svg" viewBox="0 0 192 512"><!--! Font Awesome Pro 6.1.1 by @fontawesome - https://fontawesome.com License - https://fontawesome.com/license (Commercial License) Copyright 2022 Fonticons, Inc. --><path d="M156.4 327.4c-8.773-24.27-33.94-39.39-58.1-39.39c-.002 0 .0039 0 0 0c-9.959 .002-19.91 2.39-28.8 7.544c-15.66 9.051-26.41 24.44-29.45 42.25l-22.57 131.7c-2.986 17.32 6.9 34.29 23.49 40.31C44.12 511.3 48.34 511.1 52.51 511.1c12.67 0 24.82-6.604 31.51-18.03l67.69-115.4C160.8 363 162.5 344.4 156.4 327.4zM124.1 362.4l-67.71 115.4c-.793 1.355-2.105 1.98-4.18 1.98c-.4004 0-.8262-.0234-1.283-.0684c-2.016-.7305-3.221-2.746-2.861-4.822l22.57-131.7c1.434-8.383 6.508-15.65 13.96-19.96C88.29 321.1 92.59 320 97.36 320c12.71 0 25.13 7.857 28.91 18.31C129.2 346.3 128.4 355.1 124.1 362.4z"/></svg>