<svg xmlns="http://www.w3.org/2000/svg" viewBox="0 0 512 512"><!--! Font Awesome Pro 6.1.1 by @fontawesome - https://fontawesome.com License - https://fontawesome.com/license (Commercial License) Copyright 2022 Fonticons, Inc. --><path d="M298.3 182.2C285.5 188.5 271.2 192 255.1 192C240.8 192 226.5 188.5 213.7 182.2L142.2 307.4C176.1 325.6 214.8 336 255.1 336C344.8 336 422.4 287.8 463.9 215.1C468.3 208.3 478.1 205.7 485.8 210.2C493.4 214.6 496 224.4 491.6 232C444.6 313.3 356.7 368 255.1 368C209 368 164.9 356.1 126.3 335.2L29.89 503.9C25.51 511.6 15.73 514.3 8.06 509.9C.3882 505.5-2.277 495.7 2.107 488.1L99.15 318.2C67.07 295.6 40.13 266.1 20.4 232C15.97 224.4 18.59 214.6 26.24 210.2C33.88 205.7 43.67 208.3 48.1 215.1C65.01 245.2 87.91 270.6 115.1 290.3L187.6 163.4C170.5 146.1 159.1 122.3 159.1 96C159.1 42.98 202.1 0 255.1 0C309 0 352 42.98 352 96C352 122.3 341.5 146.1 324.4 163.4L372.7 248.1C377.1 255.7 374.5 265.5 366.8 269.9C359.1 274.3 349.3 271.6 344.1 263.9L298.3 182.2zM255.1 32C220.7 32 191.1 60.65 191.1 96C191.1 131.3 220.7 160 255.1 160C291.3 160 320 131.3 320 96C320 60.65 291.3 32 255.1 32zM408.1 375.9C404.6 368.3 407.2 358.5 414.9 354.1C422.6 349.7 432.4 352.4 436.7 360.1L509.9 488.1C514.3 495.7 511.6 505.5 503.9 509.9C496.3 514.3 486.5 511.6 482.1 503.9L408.1 375.9z"/></svg>