<svg xmlns="http://www.w3.org/2000/svg" viewBox="0 0 640 512"><!--! Font Awesome Pro 6.1.1 by @fontawesome - https://fontawesome.com License - https://fontawesome.com/license (Commercial License) Copyright 2022 Fonticons, Inc. --><path d="M128 288h160c35.35 0 64-28.65 64-64V64c0-35.35-28.65-64-64-64H128C92.65 0 64 28.65 64 64v160C64 259.3 92.65 288 128 288zM96 64c0-17.64 14.36-32 32-32h160c17.64 0 32 14.36 32 32v160c0 17.64-14.36 32-32 32H128C110.4 256 96 241.6 96 224V64zM448 288h64c35.35 0 64-28.65 64-64V128c0-35.35-28.65-64-64-64h-64c-35.35 0-64 28.65-64 64v96C384 259.3 412.7 288 448 288zM416 128c0-17.64 14.36-32 32-32h64c17.64 0 32 14.36 32 32v96c0 17.64-14.36 32-32 32h-64c-17.64 0-32-14.36-32-32V128zM544 320H96c-53 0-96 43-96 96s43 96 96 96h448c53 0 96-43 96-96S597 320 544 320zM544 480H96c-35.25 0-64-28.75-64-64s28.75-64 64-64h448c35.25 0 64 28.75 64 64S579.3 480 544 480zM128 392c-13.25 0-24 10.74-24 24c0 13.25 10.75 24 24 24S152 429.3 152 416C152 402.7 141.3 392 128 392zM320 392c-13.25 0-24 10.74-24 24c0 13.25 10.75 24 24 24s24-10.75 24-24C344 402.7 333.3 392 320 392zM512 392c-13.25 0-24 10.74-24 24c0 13.25 10.75 24 24 24s24-10.75 24-24C536 402.7 525.3 392 512 392z"/></svg>