<svg xmlns="http://www.w3.org/2000/svg" viewBox="0 0 512 512"><!--! Font Awesome Pro 6.1.1 by @fontawesome - https://fontawesome.com License - https://fontawesome.com/license (Commercial License) Copyright 2022 Fonticons, Inc. --><path d="M184 192c0-13.25-10.75-24-24-24s-24 10.75-24 24s10.75 24 24 24S184 205.3 184 192zM288 232c-13.25 0-24 10.75-24 24s10.75 24 24 24s24-10.75 24-24S301.3 232 288 232zM192 328c-13.25 0-24 10.75-24 24s10.75 24 24 24s24-10.75 24-24S205.3 328 192 328zM352 328c-13.25 0-24 10.75-24 24s10.75 24 24 24s24-10.75 24-24S365.3 328 352 328zM494.6 255.9c-65.63-.8203-118.6-54.14-118.6-119.9c-65.74 0-119.1-52.97-119.8-118.6C250 16.47 243.7 16 237.5 16c-19.34 0-38.54 4.573-56 13.48L116.7 62.41C93.35 74.36 74.36 93.35 62.41 116.7L29.6 181.2C17.64 204.7 13.42 231.2 17.53 257.2l11.37 71.48c4.102 25.9 16.29 49.8 34.81 68.32l51.36 51.39c18.52 18.4 42.27 30.64 68.18 34.75l71.84 11.37C261.5 495.5 268 496 274.5 496c19.34 0 38.71-4.573 56.17-13.48l64.81-33.05c23.32-11.84 42.31-30.82 54.14-54.14l32.93-64.57C494.3 307.7 498.5 281.4 494.6 255.9zM454 316.2l-32.96 64.63c-8.703 17.15-22.94 31.38-40.14 40.12l-64.81 33.05C303.3 460.5 288.9 464 274.5 464c-5.004 0-9.811-.3711-14.45-1.131l-71.83-11.37c-19.23-3.045-36.75-11.96-50.56-25.68l-51.36-51.47c-13.83-13.83-22.76-31.36-25.83-50.72l-11.36-71.44C46.08 232.8 49.18 213.3 58.12 195.7l32.76-64.47C99.84 113.8 113.8 99.83 131.2 90.93l64.85-32.95c9.895-5.047 20.71-8.256 31.72-9.453c12.9 58.74 60.05 104.1 119.1 116.6c11.65 59 57.88 106.2 116.6 119.2C462.2 295.4 459.1 306.3 454 316.2z"/></svg>