<svg xmlns="http://www.w3.org/2000/svg" viewBox="0 0 512 512"><!--! Font Awesome Pro 6.0.0-beta3 by @fontawesome - https://fontawesome.com License - https://fontawesome.com/license (Commercial License) Copyright 2021 Fonticons, Inc. --><path d="M512 157.2V112C512 50.25 461.8 0 400 0h-64c-6.875 0-13 4.406-15.19 10.94c-2.156 6.531 .0625 13.73 5.594 17.86l64 48c7.062 5.297 17.09 3.938 22.41-3.203c5.281-7.062 3.844-17.09-3.219-22.39L384 32h16c38.63 0 70.97 27.53 78.41 64H384c-9.094 0-17.78-3.891-23.84-10.66c-5.906-6.609-16-7.156-22.59-1.281c-6.594 5.891-7.156 16.02-1.281 22.59C348.4 120.2 365.8 128 383.1 128H480v29.17c0 5.797-3.156 11.16-8.25 13.98l-85.52 47.52c-18.82-14.17-41.47-23.17-66.23-25.51L320 144C320 135.2 312.8 128 304 128S288 135.2 288 144V192H224.1L224 144C224 135.2 216.8 128 208 128S192 135.2 192 144l.001 49.17C167.2 195.5 144.6 204.5 125.8 218.7L40.25 171.2C35.16 168.3 32 162.1 32 157.2V128h96c18.22 0 35.59-7.781 47.72-21.34c5.875-6.578 5.312-16.7-1.281-22.59C167.8 78.19 157.8 78.73 151.8 85.34C145.8 92.11 137.1 96 128 96H33.59C41.03 59.53 73.38 32 112 32H128L102.4 51.2c-7.062 5.297-8.5 15.33-3.219 22.39c5.344 7.109 15.38 8.484 22.41 3.203l64-48c5.531-4.125 7.75-11.33 5.594-17.86C189 4.406 182.9 0 176 0h-64C50.25 0 0 50.25 0 112v45.17c0 17.42 9.469 33.5 24.69 41.95L101.9 242.1C94.66 251.2 88.14 261.1 83.5 272H51.78L23.16 257.7c-7.906-3.891-17.5-.7656-21.47 7.156C-2.25 272.8 .9375 282.4 8.844 286.3l32 16C43.06 303.4 45.53 304 48 304h27.07c-.9277 6.297-1.908 12.58-1.908 19.14c0 2.91 .9768 5.617 1.649 8.4l-15.88 5.291c-2.344 .7813-4.5 2.109-6.25 3.859l-32 32c-6.25 6.25-6.25 16.38 0 22.62C23.81 398.4 27.91 400 32 400s8.188-1.562 11.31-4.688l29.34-29.33l21.14-7.049l30.71 30.71l-33.56 11.19c-2.344 .7813-4.5 2.109-6.25 3.859l-32 32c-6.25 6.25-6.25 16.38 0 22.62C55.81 462.4 59.91 464 64 464s8.188-1.562 11.31-4.688l29.34-29.33l45.14-15.05l16.84 16.84l-30.85 18.51C130.9 453.2 128 458.4 128 464v32C128 504.8 135.2 512 144 512S160 504.8 160 496v-22.94L201.8 448h108.5L352 473.1V496c0 8.844 7.156 16 16 16s16-7.156 16-16v-32c0-5.625-2.938-10.83-7.781-13.72l-30.85-18.51l16.84-16.84l45.13 15.05l29.34 29.33C439.8 462.4 443.9 464 448 464s8.188-1.562 11.31-4.688c6.25-6.25 6.25-16.38 0-22.62l-32-32c-1.75-1.75-3.906-3.078-6.25-3.859l-33.56-11.19l30.71-30.71l21.14 7.049l29.34 29.33C471.8 398.4 475.9 400 480 400s8.188-1.562 11.31-4.688c6.25-6.25 6.25-16.38 0-22.62l-32-32c-1.75-1.75-3.906-3.078-6.25-3.859l-15.88-5.291c.6719-2.783 1.668-5.49 1.668-8.4c0-6.555-1-12.84-1.928-19.14H464c2.469 0 4.938-.5781 7.156-1.688l32-16c7.906-3.953 11.09-13.56 7.156-21.47c-3.969-7.922-13.53-11.08-21.47-7.156L460.2 272H428.5c-4.641-10.95-11.16-20.76-18.45-29.95l77.26-42.93C502.5 190.7 512 174.6 512 157.2zM405.5 326.4l-88.29 88.29C316.4 415.5 315.2 416 313.1 416H198c-1.203 0-2.381-.4883-3.232-1.34l-88.29-88.29c-.8633-.8633-1.34-2.014-1.34-3.234C105.1 268.5 149.6 224 204.3 224h103.4c54.66 0 99.14 44.47 99.14 99.14C406.9 324.4 406.4 325.5 405.5 326.4z"/></svg>