<svg xmlns="http://www.w3.org/2000/svg" viewBox="0 0 512 512"><!--! Font Awesome Pro 6.1.1 by @fontawesome - https://fontawesome.com License - https://fontawesome.com/license (Commercial License) Copyright 2022 Fonticons, Inc. --><path d="M416 236.5c0-12.35-4.711-24.7-14.13-34.12l-34.82-34.83l140.3-140.3C510.4 24.18 512 20.09 512 16C512 7.473 505.1 0 496 0c-4.094 0-8.185 1.561-11.31 4.686l-140.3 140.3L309.6 110.2c-9.439-9.441-21.81-14.17-34.17-14.17c-12.34 0-24.67 4.705-34.09 14.12c-246.7 246.7-241.4 235.5-241.4 256.7C-.0004 473.9 112.2 512 145.1 512c9.84 0 19.59-4.166 27.13-11.71l229.7-229.6C411.3 261.2 416 248.9 416 236.5zM149.6 477.7c-1.627 1.627-3.252 2.273-3.252 2.369c0 .0059-.0126-.0019 0 0c-41.13-2.845-114.3-40.23-114.3-113.2c0-1.085 .7056-2.82 2.32-4.438L192 204.7V288c0 17.67 14.33 32 32 32h83.25L149.6 477.7zM379.2 248L339.3 288L224 287.1L224 172.7l40-39.99c3.062-3.064 7.135-4.752 11.46-4.752c4.354 0 8.453 1.703 11.54 4.793l92.23 92.24C383.4 229.2 384 234 384 236.5C384 240.9 382.3 244.9 379.2 248zM431.1 352c-44.25 0-80 35.75-80 79.1S387.7 512 431.1 512c44.25 0 80-35.75 80-79.1S476.2 352 431.1 352zM431.1 480c-26.47 0-48-21.53-48-48s21.53-48 48-48s48 21.53 48 48S458.4 480 431.1 480z"/></svg>