<svg xmlns="http://www.w3.org/2000/svg" viewBox="0 0 576 512"><!--! Font Awesome Pro 6.0.0-beta3 by @fontawesome - https://fontawesome.com License - https://fontawesome.com/license (Commercial License) Copyright 2021 Fonticons, Inc. --><path d="M544 96c-17.67 0-32 14.33-32 32c0 7.559 3.008 14.21 7.391 19.69l-104.5 83.58c-5.955 4.764-12.99 7.019-19.94 7.019c-11.61 0-22.98-6.296-28.68-17.7L302.2 92.33C312.6 87.07 320 76.51 320 64c0-17.67-14.33-32-32-32S256 46.33 256 64c0 12.51 7.367 23.07 17.83 28.33L209.7 220.6C204 231.1 192.6 238.3 181 238.3c-6.945 0-13.98-2.255-19.94-7.019L56.61 147.7C60.99 142.2 64 135.6 64 128c0-17.67-14.33-32-32-32S0 110.3 0 128c0 17.67 14.33 32 32 32c1.99 0 3.721-.7852 5.611-1.133l48.83 268.6C91.98 457.9 118.5 480 149.4 480h277.2c30.93 0 57.43-22.12 62.97-52.55l48.83-268.6C540.3 159.2 542 160 544 160c17.67 0 32-14.33 32-32C576 110.3 561.7 96 544 96zM458.1 421.7C455.3 436.9 442.1 448 426.6 448H149.4c-15.47 0-28.71-11.05-31.48-26.28L78.78 206.4l62.32 49.86c11.31 9.049 25.49 14.03 39.93 14.03c24.43 0 46.39-13.56 57.3-35.39L288 135.6l49.67 99.35c10.91 21.83 32.87 35.39 57.3 35.39c14.44 0 28.62-4.984 39.93-14.03l62.32-49.86L458.1 421.7z"/></svg>