<svg xmlns="http://www.w3.org/2000/svg" viewBox="0 0 640 512"><!--! Font Awesome Pro 6.1.1 by @fontawesome - https://fontawesome.com License - https://fontawesome.com/license (Commercial License) Copyright 2022 Fonticons, Inc. --><path d="M440 96C440 109.3 429.3 120 416 120C402.7 120 392 109.3 392 96C392 82.75 402.7 72 416 72C429.3 72 440 82.75 440 96zM3.299 409.7C-2.075 402.7-.7434 392.7 6.272 387.3L320 146.1V96C320 42.98 362.1 0 416 0C444.4 0 469.1 12.36 487.6 31.1H560C604.2 31.1 640 67.82 640 111.1L512 143.1V192C512 270.8 464.5 338.5 396.6 368.1L446.8 489.9C450.2 498.1 446.3 507.4 438.1 510.8C429.9 514.2 420.6 510.3 417.2 502.1L366.3 378.4C351.4 382.1 335.1 384 320 384H307.2L350.8 489.9C354.2 498.1 350.3 507.4 342.1 510.8C333.9 514.2 324.6 510.3 321.2 502.1L272.6 384H63.2L25.73 412.7C18.71 418.1 8.672 416.7 3.298 409.7H3.299zM506.5 63.1C510.1 74.01 512 84.78 512 96V111L601.9 88.54C593.7 73.9 577.1 63.1 560 63.1H506.5zM205.9 315.2C268 302.1 313.6 249.1 319.4 187.8L132.7 330.8L205.9 315.2zM480 192V96C480 60.65 451.3 32 416 32C380.7 32 352 60.65 352 96L352 174.4C352 257.5 293.8 329.3 212.5 346.5L186.8 352H320C408.4 352 480 280.4 480 192V192z"/></svg>