<svg xmlns="http://www.w3.org/2000/svg" viewBox="0 0 512 512"><!--! Font Awesome Pro 6.1.1 by @fontawesome - https://fontawesome.com License - https://fontawesome.com/license (Commercial License) Copyright 2022 Fonticons, Inc. --><path d="M474.7 37.48C449.7 12.49 416.9 0 384.2 0s-65.56 12.49-90.54 37.48L169.2 161.8C166.3 160.9 163.3 159.1 160.1 159.1c-17.68 0-32.01 14.33-32.01 32c0 3.242 .9496 6.189 1.846 9.139L37.51 293.5c-50.02 50-50.02 131 0 181C62.49 499.5 95.29 512 128.1 512c31.01 0 61.83-11.59 86.24-33.98c3.132 1.023 6.321 1.979 9.795 1.979c17.68 0 32.01-14.33 32.01-32c0-3.242-.9496-6.191-1.846-9.139l184.8-184.7c2.95 .8965 5.899 1.844 9.142 1.844c17.68 0 32.01-14.33 32.01-32c0-3.475-.9535-6.662-1.977-9.795C524.3 163.1 523.4 86.13 474.7 37.48zM452.1 195.9l-256.1 256C177.8 470 153.7 480 128.1 480c-25.66 0-49.77-9.982-67.9-28.11c-37.45-37.43-37.45-98.34 0-135.8l256.1-256C334.4 41.98 358.5 32 384.2 32c25.67 0 49.78 9.979 67.9 28.1C489.5 97.54 489.5 158.4 452.1 195.9zM160.1 299.1c-11.04 0-20.01 8.969-20.01 20s8.972 20 20.01 20s20.01-8.969 20.01-20S171.1 299.1 160.1 299.1zM320.1 235.1c-11.04 0-20.01 8.969-20.01 20s8.972 20 20.01 20c11.04 0 20.01-8.969 20.01-20S331.2 235.1 320.1 235.1zM352.1 107.1c-11.04 0-20.01 8.969-20.01 20s8.972 20 20.01 20c11.04 0 20.01-8.969 20.01-20S363.2 107.1 352.1 107.1z"/></svg>