<svg xmlns="http://www.w3.org/2000/svg" viewBox="0 0 448 512"><!--! Font Awesome Pro 6.1.1 by @fontawesome - https://fontawesome.com License - https://fontawesome.com/license (Commercial License) Copyright 2022 Fonticons, Inc. --><path d="M432 96h-17.79l-21.08-63.22C386.6 13.19 368.3 0 347.6 0H100.4C79.72 0 61.44 13.19 54.84 32.81L33.79 96H16C7.156 96 0 103.2 0 112S7.156 128 16 128h416C440.8 128 448 120.8 448 112S440.8 96 432 96zM67.54 96l17.65-53.03C87.41 36.41 93.5 32 100.4 32h247.2c6.906 0 13 4.406 15.19 10.94L380.5 96H67.54zM385.6 160.1c-8.625-1.156-16.62 5.531-17.5 14.31L363.1 224H84.87L79.91 174.4C79.03 165.6 71 158.9 62.41 160.1c-8.781 .875-15.22 8.719-14.31 17.5l29.12 291.2C79.66 493.4 100.2 512 124.1 512h198.1c24.78 0 45.31-18.59 47.75-43.22l29.12-291.2C400.8 168.8 394.4 160.1 385.6 160.1zM338.1 465.6C338.1 473.8 331.3 480 323 480H124.1c-8.25 0-15.09-6.188-15.94-14.41L104.1 416h239.9L338.1 465.6zM347.1 384H100.9L88.07 256h271.9L347.1 384z"/></svg>