<svg xmlns="http://www.w3.org/2000/svg" viewBox="0 0 448 512"><!--! Font Awesome Pro 6.1.1 by @fontawesome - https://fontawesome.com License - https://fontawesome.com/license (Commercial License) Copyright 2022 Fonticons, Inc. --><path d="M376.5 322.4C378.3 323.6 379.9 325 381.1 326.7C382.3 328.5 383.2 330.4 383.7 332.5C384.1 334.5 384.2 336.7 383.8 338.8L360.9 476.4C359.2 486.3 354.1 495.4 346.4 501.9C338.7 508.4 328.9 512 318.8 512H129.2C119.1 512 109.4 508.5 101.7 501.1C93.95 495.5 88.79 486.5 87.1 476.5L64.16 338.8C63.82 336.7 63.88 334.6 64.36 332.5C64.83 330.5 65.71 328.5 66.93 326.8C68.15 325.1 69.7 323.7 71.48 322.5C73.27 321.4 75.25 320.7 77.33 320.3C79.4 319.1 81.52 320.1 83.57 320.5C85.62 321 87.55 321.9 89.26 323.1C90.97 324.3 92.43 325.9 93.54 327.7C94.65 329.4 95.4 331.4 95.74 333.5L118.7 471.1C119.1 473.6 120.4 475.9 122.3 477.5C124.2 479.1 126.7 480 129.2 480H161.9L144.2 337.1C143.7 333.8 144.9 329.5 147.5 326.2C150.1 322.8 153.9 320.6 158.1 320.1C162.3 319.6 166.6 320.8 169.9 323.4C173.3 325.1 175.5 329.8 176 334L194.1 480H253.9L272.1 333.9C272.4 331.8 273.1 329.8 274.1 327.1C275.1 326.2 276.5 324.6 278.2 323.3C279.8 321.1 281.7 321 283.8 320.5C285.8 319.9 287.9 319.8 290 320C292.1 320.3 294.1 320.9 295.9 321.1C297.8 323 299.4 324.4 300.7 326.1C301.9 327.7 302.9 329.6 303.5 331.7C304 333.7 304.2 335.8 303.9 337.9L286.1 479.9H318.8C321.3 479.9 323.8 479 325.7 477.4C327.6 475.7 328.9 473.5 329.3 470.1L352.3 333.4C352.1 329.2 355.3 325.5 358.7 322.1C362.2 320.5 366.5 319.5 370.7 320.2C372.7 320.6 374.7 321.3 376.5 322.4L376.5 322.4zM447.4 196.1C449.2 211.8 446.6 227.6 439.7 241.8C432.8 255.9 422 267.8 408.6 276C395.1 284.2 379.6 288.4 363.9 288H84.13C65.89 288.3 48.07 282.6 33.4 271.7C18.74 260.9 8.033 245.5 2.944 228C-2.648 207.7-.2571 186 9.626 167.4C19.51 148.8 36.14 134.7 56.1 128L95.46 117.2C98.4 100.3 107.2 85.05 120.3 74.02C133.4 62.99 149.1 56.93 167.1 56.9H200.4C203.9 56.94 207.3 55.94 210.1 54.02C212.1 52.11 215.2 49.37 216.4 46.18C217.8 43.02 218.2 39.53 217.5 36.16C216.8 32.8 215.1 29.71 212.7 27.33C210.4 25.09 208.9 22.24 208.3 19.13C207.7 16.02 207.1 12.8 209.2 9.873C210.4 6.946 212.5 4.445 215.1 2.687C217.7 .9296 220.8-.0057 223.1 0C256.1 .089 288.7 12.75 312.6 35.4C336.6 58.06 351 88.1 352.1 121.9L378.1 125.8C397.1 128.5 416.1 138.4 429.1 153.6C439.1 165.7 445.5 180.5 447.4 196.1H447.4zM414.2 219.6C416.2 212.8 416.7 205.7 415.7 198.6C414.7 191.6 412.2 184.9 408.3 178.9C404.4 172.1 399.2 167.1 393.2 164.2C387.1 160.5 380.3 158.1 373.3 157.2L285.6 143.8C283.5 143.5 281.4 142.8 279.6 141.7C277.7 140.7 276.1 139.2 274.9 137.5C273.6 135.8 272.7 133.9 272.2 131.8C271.6 129.8 271.5 127.6 271.9 125.5C272.2 123.4 272.9 121.4 274.1 119.6C275.2 117.7 276.6 116.2 278.4 114.9C280.1 113.7 282.1 112.8 284.1 112.3C286.2 111.9 288.4 111.8 290.5 112.2L320.7 116.8C318.2 97.8 310.1 79.94 297.5 65.46C284.9 50.99 268.3 40.54 249.8 35.42C250.3 43.28 249 51.17 245.1 58.43C242.3 67.51 236 75.27 227.9 80.7C219.8 86.13 210.2 88.97 200.4 88.86H167.1C156.3 88.91 145.9 93.23 138.3 100.9C130.6 108.6 126.3 118.9 126.3 129.8C126.3 130.1 126.1 130.4 126.1 130.8C125.1 131.9 125.8 132.1 125.4 134C125.2 134.1 124.9 135.9 124.5 136.8C124 137.7 123.4 138.5 122.8 139.3C122.2 140.1 121.5 140.9 120.8 141.6C120 142.2 119.2 142.8 118.4 143.3C117.4 143.9 116.4 144.4 115.4 144.7C115 144.9 114.8 145.2 114.4 145.2L65.41 158.6C53.38 162.9 43.43 171.6 37.57 182.9C31.71 194.2 30.37 207.4 33.82 219.6C37.07 230.4 43.75 239.7 52.84 246.3C61.93 252.9 72.92 256.3 84.13 255.1H363.9C375.1 256.3 386 252.9 395.1 246.4C404.2 239.8 410.9 230.5 414.2 219.8L414.2 219.6z"/></svg>