<svg xmlns="http://www.w3.org/2000/svg" viewBox="0 0 512 512"><!--! Font Awesome Pro 6.1.1 by @fontawesome - https://fontawesome.com License - https://fontawesome.com/license (Commercial License) Copyright 2022 Fonticons, Inc. --><path d="M399.1 159.1C391.2 159.1 384 167.3 384 176S391.3 192 400 192s15.1-7.25 15.1-16S408.7 159.1 399.1 159.1zM488.8 133.2l-92-25.75l11.12-5.624c12.5-6.321 23.16-15.76 30.94-27.41l13.57-20.31C457.3 46.83 455.3 36.91 448 32c-7.371-4.949-17.36-2.945-22.26 4.463l-13.34 20.12c-4.719 7.117-11.17 12.85-18.8 16.68L351 94.63l-33.75-9.5l8.266-10.39C332.3 66.22 336 55.63 336 44.75V16C336 7.199 328.8 0 320 0s-15.94 7.197-15.94 15.1L304 44.75c0 3.633-1.234 7.159-3.5 9.1l-16.75 21l-16.12-4.498c-6.958-1.942-11.76-8.278-11.76-15.5L256 15.1C256 7.197 248.7 0 239.9 0s-16 7.199-16 16v39.75c0 21.51 14.3 40.41 35 46.25l78.88 22.25L304 192H96C42.98 192 0 234.1 0 288c0 17.67 14.33 32 31.1 32L32 347.6l-11.88 31.75c-4.625 12.25-5.375 25.5-2.25 38l19.44 61.2C43.64 498.5 62.15 512 83.06 512h15.68c31.19 0 54.1-29.29 46.59-59.56l-12.08-48.69L152.6 352H256v112c0 26.51 21.49 47.1 47.1 47.1L336 512c26.51 0 48-21.49 48-48V320l32-64h48C490.5 256 512 234.5 512 208V164.1C512 149.7 502.4 137.2 488.8 133.2zM480.1 208c0 8.75-7.375 16-16.12 16h-67.75L352 312.4V464c0 8.836-7.164 16-16 16h-32c-8.836 0-16-7.221-16-16.06V320H130.4l-30.62 81.75l12.51 56.82C116 468.1 108.3 480 97.21 480H83.08c-6.971 0-13.14-4.514-15.25-11.16l-19.08-60.09c-1.375-6-.875-12.25 1.375-18.12l14-37.25V288H32c0-35.25 28.75-64 64-64h227.8l33.75-67.38c6.869-13.71 22.5-20.63 37.27-16.49l73.6 20.62c6.951 1.947 11.76 8.283 11.76 15.5V208z"/></svg>