<svg xmlns="http://www.w3.org/2000/svg" viewBox="0 0 576 512"><!--! Font Awesome Pro 6.1.1 by @fontawesome - https://fontawesome.com License - https://fontawesome.com/license (Commercial License) Copyright 2022 Fonticons, Inc. --><path d="M427.3 203.3L374.6 256L427.3 308.7C433.6 314.9 433.6 325.1 427.3 331.3C421.1 337.6 410.9 337.6 404.7 331.3L351.1 278.6L299.3 331.3C293.1 337.6 282.9 337.6 276.7 331.3C270.4 325.1 270.4 314.9 276.7 308.7L329.4 256L276.7 203.3C270.4 197.1 270.4 186.9 276.7 180.7C282.9 174.4 293.1 174.4 299.3 180.7L351.1 233.4L404.7 180.7C410.9 174.4 421.1 174.4 427.3 180.7C433.6 186.9 433.6 197.1 427.3 203.3zM512 64C547.3 64 576 92.65 576 128V384C576 419.3 547.3 448 512 448H205.3C188.3 448 172 441.3 160 429.3L9.372 278.6C3.371 272.6 0 264.5 0 256C0 247.5 3.372 239.4 9.372 233.4L160 82.75C172 70.74 188.3 64 205.3 64L512 64zM544 128C544 110.3 529.7 96 512 96H205.3C196.8 96 188.6 99.37 182.6 105.4L31.1 256L182.6 406.6C188.6 412.6 196.8 416 205.3 416H512C529.7 416 544 401.7 544 384V128z"/></svg>