<svg xmlns="http://www.w3.org/2000/svg" viewBox="0 0 576 512"><!--! Font Awesome Pro 6.1.1 by @fontawesome - https://fontawesome.com License - https://fontawesome.com/license (Commercial License) Copyright 2022 Fonticons, Inc. --><path d="M183.8 197.1L256 293.4C263.3 289.9 271.4 288 280 288H360C390.9 288 416 313.1 416 344V424C416 454.9 390.9 480 360 480H280C249.1 480 224 454.9 224 424V344C224 333.3 226.1 323.4 232.2 314.9L159.1 218.6C152.7 222.1 144.6 224 136 224H56C25.07 224 0 198.9 0 168V88C0 57.07 25.07 32 56 32H136C166.9 32 192 57.07 192 88V112H384V88C384 57.07 409.1 32 440 32H520C550.9 32 576 57.07 576 88V168C576 198.9 550.9 224 520 224H440C409.1 224 384 198.9 384 168V144H192V168C192 178.7 189 188.6 183.8 197.1V197.1zM136 64H56C42.75 64 32 74.75 32 88V168C32 181.3 42.75 192 56 192H136C149.3 192 160 181.3 160 168V88C160 74.75 149.3 64 136 64zM440 192H520C533.3 192 544 181.3 544 168V88C544 74.75 533.3 64 520 64H440C426.7 64 416 74.75 416 88V168C416 181.3 426.7 192 440 192zM360 320H280C266.7 320 256 330.7 256 344V424C256 437.3 266.7 448 280 448H360C373.3 448 384 437.3 384 424V344C384 330.7 373.3 320 360 320z"/></svg>