<svg xmlns="http://www.w3.org/2000/svg" viewBox="0 0 448 512"><!--! Font Awesome Pro 6.0.0-beta3 by @fontawesome - https://fontawesome.com License - https://fontawesome.com/license (Commercial License) Copyright 2021 Fonticons, Inc. --><path d="M112 320C112 346.5 133.5 368 160 368H256V336C256 309.5 277.5 288 304 288H400C426.5 288 448 309.5 448 336V432C448 458.5 426.5 480 400 480H304C277.5 480 256 458.5 256 432V400H160C115.8 400 80 364.2 80 320V224H48C21.49 224 0 202.5 0 176V80C0 53.49 21.49 32 48 32H144C170.5 32 192 53.49 192 80V176C192 202.5 170.5 224 144 224H112V320zM144 64H48C39.16 64 32 71.16 32 80V176C32 184.8 39.16 192 48 192H144C152.8 192 160 184.8 160 176V80C160 71.16 152.8 64 144 64zM288 432C288 440.8 295.2 448 304 448H400C408.8 448 416 440.8 416 432V336C416 327.2 408.8 320 400 320H304C295.2 320 288 327.2 288 336V432z"/></svg>