<svg xmlns="http://www.w3.org/2000/svg" viewBox="0 0 576 512"><!--! Font Awesome Pro 6.0.0-beta3 by @fontawesome - https://fontawesome.com License - https://fontawesome.com/license (Commercial License) Copyright 2021 Fonticons, Inc. --><path d="M32 256C14.33 256 0 270.3 0 288c0 17.67 14.33 32 32 32s32-14.33 32-32C64 270.3 49.67 256 32 256zM84.35 446.4c-12.5 12.5-12.5 32.76 0 45.26c12.5 12.5 32.76 12.5 45.26 0c12.5-12.5 12.5-32.76 0-45.26C117.1 433.9 96.85 433.9 84.35 446.4zM129.6 129.6c12.5-12.5 12.5-32.76 0-45.25c-12.5-12.5-32.76-12.5-45.26 0c-12.5 12.5-12.5 32.76 0 45.25C96.85 142.1 117.1 142.1 129.6 129.6zM288 64c17.67 0 32-14.33 32-32c0-17.67-14.33-32-32-32C270.3 0 256 14.33 256 32C256 49.67 270.3 64 288 64zM446.4 446.4c-12.5 12.5-12.5 32.76 0 45.26c12.5 12.5 32.76 12.5 45.26 0c12.5-12.5 12.5-32.76 0-45.26S458.9 433.9 446.4 446.4zM448 287.1c-.0014-88.36-71.65-159.1-160-159.1s-159.1 71.63-159.1 159.1c-.0014 88.37 71.63 160 159.1 160S447.1 376.3 448 287.1zM287.1 416c-65.1 0-118.4-49.03-126.4-112l126.4-.0004c8.844 0 16-7.156 15.1-15.1c.0014-8.843-7.154-15.1-15.1-15.1L161.6 271.1C169.6 209 222.9 160 287.1 159.1c70.58 .0014 128 57.42 128 128C416 358.6 358.6 416 287.1 416zM544 256c-17.67 0-32 14.33-32 32c0 17.67 14.33 32 32 32s32-14.33 32-32C576 270.3 561.7 256 544 256zM446.4 84.35c-12.5 12.5-12.5 32.76 0 45.25c12.5 12.5 32.76 12.5 45.26 0c12.5-12.5 12.5-32.76 0-45.25C479.2 71.86 458.9 71.86 446.4 84.35z"/></svg>