<svg xmlns="http://www.w3.org/2000/svg" viewBox="0 0 512 512"><!--! Font Awesome Pro 6.0.0-beta3 by @fontawesome - https://fontawesome.com License - https://fontawesome.com/license (Commercial License) Copyright 2021 Fonticons, Inc. --><path d="M497.1 222.1l-208.1-208.1c-9.354-9.355-21.63-14.03-33.89-14.03S231.5 4.674 222.1 14.03L14.03 222.1C4.677 231.5 .0006 243.7 .0004 255.1C.0001 268.3 4.676 280.5 14.03 289.9l208.1 208.1C231.5 507.3 243.7 511.1 256 511.1s24.52-4.679 33.87-14.03l208.1-208.1c9.353-9.356 14.03-21.61 14.03-33.87C511.1 243.7 507.3 231.5 497.1 222.1zM475.3 267.2l-208.1 208.1C263.2 479.4 258.5 480 256 480s-7.191-.6055-11.24-4.66L36.66 267.3c-6.201-6.203-6.201-16.29-.002-22.49l208.1-208.1C248.8 32.61 253.5 32 256 32s7.191 .6055 11.24 4.66l208.1 208.1C481.5 250.1 481.5 261 475.3 267.2zM315.3 148.7c-6.25-6.25-16.38-6.25-22.62 0s-6.25 16.38 0 22.62L345.4 224H240C213.5 224 192 245.5 192 272v64C192 344.8 199.2 352 208 352S224 344.8 224 336l-.0002-64C223.1 263.2 231.2 256 240 256h105.4l-52.69 52.69c-6.25 6.25-6.25 16.38 0 22.62C295.8 334.4 299.9 336 304 336s8.188-1.562 11.31-4.688l80-80c6.25-6.25 6.25-16.38 0-22.62L315.3 148.7z"/></svg>