<svg xmlns="http://www.w3.org/2000/svg" viewBox="0 0 512 512"><!--! Font Awesome Pro 6.0.0-beta3 by @fontawesome - https://fontawesome.com License - https://fontawesome.com/license (Commercial License) Copyright 2021 Fonticons, Inc. --><path d="M512 256c0-8.643-3.305-17.32-9.868-23.88l-222.2-222.3C273.3 3.26 264.6 0 256 0S238.7 3.26 232.1 9.887L9.868 232.1C3.305 238.7 0 247.4 0 256s3.305 17.27 9.868 23.84l222.2 222.3C238.7 508.7 247.2 512 256 512s17.26-3.26 23.89-9.887l222.2-222.3C508.7 273.4 512 264.7 512 256zM239.1 464.9L61.23 285.9l178.8 76.64V464.9zM239.1 327.8L43.72 243.7L239.1 47.26V327.8zM272 464.9v-102.3l178.8-76.64L272 464.9zM272 327.8v-280.6L468.3 243.7L272 327.8z"/></svg>