<svg xmlns="http://www.w3.org/2000/svg" viewBox="0 0 512 512"><!--! Font Awesome Pro 6.0.0-beta3 by @fontawesome - https://fontawesome.com License - https://fontawesome.com/license (Commercial License) Copyright 2021 Fonticons, Inc. --><path d="M512 309.1c0-7.05-2.318-14.15-7.127-20.07l-224-277.1C274.5 3.1 265.2 0 256 0C246.8 0 237.5 3.1 231.1 11.88l-224 277.1C2.318 294.9 0 302 0 309.1c0 9.625 4.319 19.15 12.62 25.43l224 170.1C242.4 509.9 249.1 512 256 512c6.875 0 13.62-2.135 19.37-6.51l224-170.1C507.7 328.2 512 318.7 512 309.1zM32.01 309.1L240 51.75v416L32.01 309.1zM271.1 467.9v-416l207.1 257.3L271.1 467.9z"/></svg>