<svg xmlns="http://www.w3.org/2000/svg" viewBox="0 0 512 512"><!--! Font Awesome Pro 6.0.0-beta3 by @fontawesome - https://fontawesome.com License - https://fontawesome.com/license (Commercial License) Copyright 2021 Fonticons, Inc. --><path d="M512 282.6c0-7.59-2.683-15.19-8.118-21.32l-224.1-250.6C273.5 3.5 264.8 0 256 0S238.5 3.5 232.2 10.62L8.151 261.3C2.671 267.4 0 274.1 0 282.5C0 291.4 3.662 300.2 10.8 306.5l224.1 197.5C240.9 509.4 248.5 512 256 512c7.5 0 15.12-2.615 21.12-7.99l224.1-197.5C508.4 300.2 512 291.4 512 282.6zM256 298L180.2 247.4l75.87-177l75.87 177L256 298zM148.8 239.8L47.79 265L221 71.12L148.8 239.8zM363.3 239.8L291 71.12L464.5 265L363.3 239.8zM49.04 297.6L157.3 270.5l82.75 55.25v140.3L49.04 297.6zM272 465.9v-140.1l82.75-55.25l108.1 27.12L272 465.9z"/></svg>