<svg xmlns="http://www.w3.org/2000/svg" viewBox="0 0 640 512"><!--! Font Awesome Pro 6.0.0-beta3 by @fontawesome - https://fontawesome.com License - https://fontawesome.com/license (Commercial License) Copyright 2021 Fonticons, Inc. --><path d="M539.3 144h-62.42C483.9 132.2 488 118.3 488 104c0-39.7-28.42-72-63.36-72C394.1 32 373.2 41.84 320 128.9C266.8 41.84 245.9 32 215.4 32C180.4 32 152 64.3 152 104c0 14.34 4.072 28.19 11.16 40H96c-53.02 0-96 48.47-96 128S42.98 416 96 416l144-30.86V464c0 5.531 2.875 10.69 7.594 13.62c4.688 2.844 10.59 3.156 15.56 .6875L320 449.9l56.84 28.44C379.1 479.4 381.6 480 384 480c2.938 0 5.844-.8125 8.406-2.375C397.1 474.7 400 469.5 400 464v-78.48L539.3 416C594.9 416 640 351.5 640 272C640 192.5 594.9 144 539.3 144zM240 352.4l-146.8 31.46C63.7 381.2 32 335.1 32 272c0-56.52 26.32-96 64-96h144V352.4zM215.4 144C198.1 144 184 126.1 184 104S198.1 64 215.4 64c14.05 0 27.44 .1953 76.38 80H215.4zM368 438.1l-40.84-20.44c-4.5-2.25-9.812-2.25-14.31 0L272 438.1V176h96V438.1zM348.3 144c48.95-79.8 62.34-80 76.38-80C441.9 64 456 81.95 456 104S441.9 144 424.6 144H348.3zM542.2 383.9L400 352.8V176h139.3C580.4 176 608 214.6 608 272C608 331.1 578.2 381.3 542.2 383.9z"/></svg>