<svg xmlns="http://www.w3.org/2000/svg" viewBox="0 0 512 512"><!--! Font Awesome Pro 6.1.1 by @fontawesome - https://fontawesome.com License - https://fontawesome.com/license (Commercial License) Copyright 2022 Fonticons, Inc. --><path d="M159.1 200c-13.25 0-24 10.74-24 24c0 13.25 10.75 24 24 24s24-10.75 24-24C183.1 210.8 173.2 200 159.1 200zM287.1 296c-13.25 0-24 10.74-24 24c0 13.25 10.75 24 24 24s24-10.75 24-24C311.1 306.8 301.2 296 287.1 296zM463.9 184.1l-62.88-21.25c-13-4.375-22.5-13.63-25.38-24.5l-15-56.26c-6.25-23.38-25.62-41.38-51.63-48.13C280.2 27.31 250.1 34.94 230.6 54.94L187.4 99.19C178.1 108.6 163.9 113.7 149.2 112.4L81.86 107.2c-31.38-2.5-60.5 12.13-74.25 37C-4.012 165.3-2.262 189.8 12.36 209.6L48.49 258.3c6.875 9.127 7.875 20 3 29.88l-26.75 52.88c-10.62 21.25-8.25 45.25 6.5 64.38c17.88 23 49.25 33.63 80.13 27l65.63-14.12c14.5-3.127 29.62-.125 40.63 8l50.88 38c14 10.25 31 15.75 48.38 15.62c12 0 23.75-2.5 34.75-7.5c23.38-10.62 38.5-31 40.25-54.38l4.375-57.38c.875-10.88 8.375-21 20-26.88l58.13-29.5c24.88-12.62 39.23-36.23 37.48-61.61C509.1 216.6 491.6 194.5 463.9 184.1zM459.9 275.8l-58.13 29.5c-21.75 11-35.75 30.75-37.38 53.01l-4.375 57.38c-1.25 16.63-15.5 24.88-21.62 27.63c-16.75 7.625-36.63 5.875-50.75-4.627l-51-38c-13.62-10.13-31-15.63-48.5-15.63c-6 0-12 .625-17.88 2L104.6 401.2c-23 5-40.13-5.125-48-15.38c-4.125-5.375-10.12-16.5-3.125-30.38l26.5-52.88c10.5-20.63 8.25-44.38-5.75-63.38L38.11 190.5c-9.75-13-5.75-24.88-2.5-30.75c7.75-14 25.38-21.88 43.75-20.63l67.38 5.25c24.25 1.875 47.75-6.625 63.5-22.75l43.25-44.25c11.38-11.63 30-16.13 47.5-11.63c14.75 3.875 25.5 13.5 28.75 25.63l15 56.13c5.75 21.25 23 38.75 46.13 46.5l62.75 21.38c15.62 5.25 25.38 16.38 26.38 29.75C480.9 257.5 473.4 268.1 459.9 275.8zM303.1 192c-8.875 0-15.1 7.122-15.1 15.1c0 8.875 7.125 15.1 15.1 15.1s15.1-7.124 15.1-15.1C319.1 199.1 312.9 192 303.1 192z"/></svg>