<svg xmlns="http://www.w3.org/2000/svg" viewBox="0 0 576 512"><!--! Font Awesome Pro 6.1.1 by @fontawesome - https://fontawesome.com License - https://fontawesome.com/license (Commercial License) Copyright 2022 Fonticons, Inc. --><path d="M208 176c-4.094 0-8.188 1.562-11.31 4.688c-6.25 6.25-6.25 16.38 0 22.62l80 80c6.25 6.25 16.38 6.25 22.62 0l80-80c6.25-6.25 6.25-16.38 0-22.62s-16.38-6.25-22.62 0L304 233.4V16C304 7.156 296.8 0 288 0S272 7.156 272 16v217.4L219.3 180.7C216.2 177.6 212.1 176 208 176zM512 0h-144C359.2 0 352 7.162 352 16C352 24.84 359.2 32 368 32H512c17.67 0 32 14.33 32 32v288c0 17.67-14.33 32-32 32H64c-17.67 0-32-14.33-32-32V64c0-17.67 14.33-32 32-32h144C216.8 32 224 24.84 224 16C224 7.162 216.8 0 208 0H64C28.65 0 0 28.65 0 64v288c0 35.35 28.65 64 64 64h149.7l-19.2 64H144C135.2 480 128 487.2 128 496S135.2 512 144 512h288c8.836 0 16-7.164 16-16S440.8 480 432 480h-50.49l-19.2-64H512c35.35 0 64-28.65 64-64V64C576 28.65 547.3 0 512 0zM227.9 480l19.2-64h81.79l19.2 64H227.9z"/></svg>