<svg xmlns="http://www.w3.org/2000/svg" viewBox="0 0 640 512"><!--! Font Awesome Pro 6.1.1 by @fontawesome - https://fontawesome.com License - https://fontawesome.com/license (Commercial License) Copyright 2022 Fonticons, Inc. --><path d="M544 32c17.64 0 32 14.36 32 32v288c0 1.273-.582 2.357-.7266 3.592l27.49 21.7C606.1 369.5 608 360.1 608 352V64c0-35.35-28.65-64-64-64H124.9l40.53 32H544zM464 480h-50.49l-18.96-63.22L353 384H96c-17.64 0-32-14.36-32-32V155.8L32 130.6V352c0 35.35 28.65 64 64 64h149.7l-19.2 64H176C167.2 480 160 487.2 160 496S167.2 512 176 512h288c8.836 0 16-7.164 16-16S472.8 480 464 480zM259.9 480l19.2-64h81.79l19.2 64H259.9zM633.9 483.4L25.92 3.42c-6.938-5.453-17-4.25-22.48 2.641c-5.469 6.938-4.281 17 2.641 22.48l608 480C617 510.9 620.5 512 623.1 512c4.734 0 9.422-2.094 12.58-6.078C642 498.1 640.8 488.9 633.9 483.4z"/></svg>