<svg xmlns="http://www.w3.org/2000/svg" viewBox="0 0 448 512"><!--! Font Awesome Pro 6.1.1 by @fontawesome - https://fontawesome.com License - https://fontawesome.com/license (Commercial License) Copyright 2022 Fonticons, Inc. --><path d="M432 240h-416C7.156 240 0 247.2 0 256s7.156 16 16 16h416C440.8 272 448 264.8 448 256S440.8 240 432 240zM224 192c35.35 0 64-28.65 64-64s-28.65-64-64-64S160 92.65 160 128S188.7 192 224 192zM224 96c17.64 0 32 14.36 32 32s-14.36 32-32 32S192 145.6 192 128S206.4 96 224 96zM224 320c-35.35 0-64 28.65-64 64s28.65 64 64 64s64-28.65 64-64S259.3 320 224 320zM224 416c-17.64 0-32-14.36-32-32s14.36-32 32-32s32 14.36 32 32S241.6 416 224 416z"/></svg>