<svg xmlns="http://www.w3.org/2000/svg" viewBox="0 0 576 512"><!--! Font Awesome Pro 6.1.1 by @fontawesome - https://fontawesome.com License - https://fontawesome.com/license (Commercial License) Copyright 2022 Fonticons, Inc. --><path d="M575 330.5c-3.078-8.312-12.25-12.52-20.55-9.484l-223.9 82.5C319 373.4 290.1 352 256 352c-5.018 0-9.889 .5918-14.65 1.477L141.8 54.7C130.9 21.98 100.4 0 65.88 0H15.1C7.155 0 0 7.157 0 16S7.156 32 16 32h49.88c20.69 0 38.98 13.19 45.55 32.83l100.2 300.6C190.2 379.8 176 404.2 176 432C176 476.2 211.8 512 256 512c42.91 0 77.64-33.87 79.63-76.29l229.9-84.7C573.8 347.1 578.1 338.8 575 330.5zM256 480c-26.47 0-48-21.53-48-48s21.54-47.1 48-47.1S304 405.5 304 432S282.5 480 256 480zM286.7 302.7c6.545 19.64 24.84 32.83 45.53 32.83c5.154 0 10.26-.832 15.18-2.471l131.3-43.76c12.16-4.055 22.02-12.6 27.75-24.07c5.734-11.47 6.658-24.48 2.605-36.64l-43.76-131.3c-6.545-19.64-24.84-32.83-45.53-32.83c-5.154 0-10.26 .832-15.18 2.471L273.3 110.7c-12.16 4.055-22.02 12.6-27.75 24.07C239.8 146.2 238.9 159.3 242.9 171.4L286.7 302.7zM274.2 149.1c1.939-3.879 5.139-6.654 9.252-8.025l131.3-43.76c1.654-.5508 3.359-.8301 5.068-.8301c6.895 0 12.99 4.4 15.18 10.95l43.76 131.3c1.371 4.115 1.072 8.34-.8672 12.22c-1.939 3.879-5.139 6.654-9.252 8.025l-131.3 43.76c-1.656 .5527-3.361 .832-5.07 .832c-6.895 0-12.99-4.4-15.18-10.95L273.3 161.3C271.9 157.2 272.2 152.1 274.2 149.1z"/></svg>