<svg xmlns="http://www.w3.org/2000/svg" viewBox="0 0 512 512"><!--! Font Awesome Pro 6.0.0-beta3 by @fontawesome - https://fontawesome.com License - https://fontawesome.com/license (Commercial License) Copyright 2021 Fonticons, Inc. --><path d="M436.9 136.9l-9.347-7.969c9.409-21.31 24.88-46.75 46.14-75.87c8.659-11.97 8.347-27.28-.719-38.97c-8.409-10.84-21.38-15.81-35.51-13.62c-41.95 6.594-82.28 19.12-120 37.31c-35.86-25.09-63.78-37.82-107.5-37.82L201.6 .0062c-82.1 0-153.4 55.94-167.3 132.1C29.9 157.1 31.4 181.5 38.75 205.5L21.21 217.2C3.673 228.9-4.048 250.3 2.079 270.4c6.158 20.41 24.13 33.59 45.77 33.59H399.1c8.847 0 16.01-7.156 16.01-15.1c0-8.844-7.159-15.1-16.01-15.1H47.84c-11 0-14.38-8.312-15.13-10.84C31.09 255.8 31.9 248.5 38.97 243.8l38.54-25.66L72.82 206.2C64.1 183.8 61.72 161.1 65.79 138.7c11.03-60.81 69.43-106.7 135.8-106.7h8.315c38.58 0 60.99 11.53 96.72 37.37l7.94 5.75l8.722-4.469c37.2-18.1 77.31-31.97 119.1-38.53c3.783-.5937 4.72 .875 5.408 2.156c-26.45 36.25-44.77 67.78-54.39 93.75L389.6 138.5l26.79 22.94c22.26 18.72 63.65 53.53 63.65 126.6c0 70.59-57.43 127.1-128 127.1H296.6l-31.17-48.06c-7.44-9.969-19.69-15.94-32.79-15.94H171.9c-10.91 0-20.6 5.812-25.29 15.19c-4.376 8.75-3.407 19.09 2.501 26.94l28.38 37.87l-28.35 37.81c-5.908 7.906-6.877 18.25-2.47 26.1C151.3 506.2 161.1 512 172 512H232.7c13.1 0 25.29-5.969 33.35-16.81l30.56-47.19h55.31C440.2 448 512 376.2 512 288C512 200 461.3 157.4 436.9 136.9zM239.8 476.9c-1.407 1.844-4.22 3.062-7.159 3.062H181.5l35.98-47.1l-35.98-47.1l51.19-.0008c2.938 0 5.707 1.22 6.489 2.188l29.67 45.81L239.8 476.9zM127.9 152c0 13.26 10.75 24 24.01 24c13.26 0 24.01-10.75 24.01-24c0-13.26-10.75-23.1-24.01-23.1C138.6 128 127.9 138.7 127.9 152z"/></svg>