<svg xmlns="http://www.w3.org/2000/svg" viewBox="0 0 576 512"><!--! Font Awesome Pro 6.1.1 by @fontawesome - https://fontawesome.com License - https://fontawesome.com/license (Commercial License) Copyright 2022 Fonticons, Inc. --><path d="M560 480H480V80C480 35.88 444.1 0 400 0h-224C131.9 0 96 35.88 96 80V480H16C7.164 480 0 487.2 0 496C0 504.8 7.164 512 16 512h544c8.836 0 16-7.164 16-16C576 487.2 568.8 480 560 480zM448 480H128V80C128 53.53 149.5 32 176 32h224C426.5 32 448 53.53 448 80V480zM384 232c-13.25 0-24 10.75-24 24S370.7 280 384 280S408 269.3 408 256S397.3 232 384 232z"/></svg>