<svg xmlns="http://www.w3.org/2000/svg" viewBox="0 0 512 512"><!--! Font Awesome Pro 6.0.0-beta3 by @fontawesome - https://fontawesome.com License - https://fontawesome.com/license (Commercial License) Copyright 2021 Fonticons, Inc. --><path d="M248 159.3c-4.97 0-9.862-2.313-12.99-6.626C220.6 132.6 208.5 111.2 199.2 88.71c-3.001 6.907-5.798 13.94-7.986 20.41C188.3 117.5 179.2 121.9 170.9 119.1C162.5 116.3 158 107.2 160.8 98.81c7.377-21.69 19.65-46.75 27.44-59.29C191.7 34.14 197.1 31.39 204.1 32.11c6.283 .9063 11.44 5.407 13.16 11.53c9.08 32.35 23.79 62.72 43.7 90.32c5.173 7.188 3.563 17.19-3.61 22.35C254.6 158.4 251.3 159.3 248 159.3zM359.1 159.1c0 13.13 10.88 24 24.01 24s24.01-10.88 24.01-24c0-13.31-10.88-24-24.01-24S359.1 146.7 359.1 159.1zM512 63.97l-32 95.95l.002 128.2c0 88.37-71.62 159.9-160 159.9l-53.17 .1683l-63.89 54.75C200.4 505.2 191.2 512.6 177.7 511.1c-105.5-4.358-154.6-55.85-174.6-86.64c-7.013-10.78-1.653-25.19 10.83-28.31l128.6-32.18C41.64 283.2 31.32 195.1 31.94 153.1C32.45 112.1 41.76 75.1 57.76 41.09c5.826-12.38 23.7-11.86 29.21 .6633c57.44 130.6 185.3 155.4 200.1 158.2v-40.39c0-52.79 42.8-95.59 95.6-95.59c.1426 0 .2924 .0163 .435 .0163L512 63.97zM467.6 95.93h-83.64l-.3653 .0371c-35.09 .2031-63.65 28.84-63.65 64.09v78.13C299.1 235.8 156.3 226.2 74.15 87.05C67.65 108.6 64.15 130.7 63.9 153.4c-1.625 122.9 100.9 188.3 148.5 227l-170.8 42.75c21.51 24.5 62.76 53.75 137.4 56.88c.7502 0 76.02-63.88 76.02-63.88h64.89c70.64 0 128-57.51 128-128V154.7L467.6 95.93z"/></svg>