<svg xmlns="http://www.w3.org/2000/svg" viewBox="0 0 448 512"><!--! Font Awesome Pro 6.1.1 by @fontawesome - https://fontawesome.com License - https://fontawesome.com/license (Commercial License) Copyright 2022 Fonticons, Inc. --><path d="M201.4 374.6L73.38 246.6C64.22 237.5 61.47 223.7 66.44 211.8C71.38 199.8 83.06 192 96 192H160V48C160 21.49 181.5 0 208 0H240C266.5 0 288 21.49 288 48V192H352C364.9 192 376.6 199.8 381.6 211.8C386.5 223.7 383.8 237.5 374.6 246.6L246.6 374.6C240.4 380.9 232.2 384 224 384C215.8 384 207.6 380.9 201.4 374.6V374.6zM224 351.1L352 223.1L256 224V48C256 39.18 248.8 32 240 32H208C199.2 32 192 39.18 192 48V224H96L224 351.1zM368 512H80C35.87 512 0 476.1 0 432V336C0 327.2 7.156 320 16 320C24.84 320 32 327.2 32 336V432C32 458.5 53.53 480 80 480H368C394.5 480 416 458.5 416 432V336C416 327.2 423.2 320 432 320C440.8 320 448 327.2 448 336V432C448 476.1 412.1 512 368 512z"/></svg>