<svg xmlns="http://www.w3.org/2000/svg" viewBox="0 0 384 512"><!--! Font Awesome Pro 6.1.1 by @fontawesome - https://fontawesome.com License - https://fontawesome.com/license (Commercial License) Copyright 2022 Fonticons, Inc. --><path d="M358.6 157.3l-67.88-67.88C284.5 83.13 276.3 80 268.1 80s-16.38 3.125-22.63 9.375L119.1 215.7L57.21 153.8C50.8 147.4 42.22 144 33.5 144c-4.316 0-8.668 .8359-12.81 2.551C8.158 151.7 0 163.9 0 177.5v236.1c0 9.254 3.75 17.63 9.812 23.7C15.88 444.3 24.25 448 33.51 448h236.1c13.56 0 25.77-8.156 30.96-20.69c5.184-12.52 2.314-26.94-7.268-36.52l-61.92-61.92l126.4-126.4C371.1 190 371.1 169.8 358.6 157.3zM335.1 179.9l-148.1 148.1l84.54 84.55c.4297 .4297 .5605 1.09 .3281 1.648C271.7 415.6 271.1 416 270.5 416H33.51L32 414.5V177.5C32 176.9 32.36 176.4 32.94 176.1l1.645 .332l84.54 84.54l148.1-148.1L335.1 179.9z"/></svg>