<svg xmlns="http://www.w3.org/2000/svg" viewBox="0 0 320 512"><!--! Font Awesome Pro 6.0.0-beta3 by @fontawesome - https://fontawesome.com License - https://fontawesome.com/license (Commercial License) Copyright 2021 Fonticons, Inc. --><path d="M136 0h47.1c22.06 0 39.1 17.97 39.1 40.03l.0012 280.3l39.1 .1514c15.91 0 30.31 9.438 36.65 24c6.375 14.62 3.5 31.56-7.343 43.22l-103.1 112.1c-7.533 8.158-18.42 12.24-29.31 12.23c-10.89-.002-21.78-4.08-29.34-12.23l-103.1-112.1c-10.84-11.66-13.72-28.59-7.343-43.22c6.343-14.56 20.75-24 36.65-24l39.1-.1514l.0008-280.3C96 17.97 113.9 0 136 0zM160 480.6c1.312 0 3.781-.3438 5.844-2.562l104-112.1c4.7-5.109 1.142-13.47-5.875-13.47h-71.1l-.0002-312.5C191.1 35.59 188.4 32 183.1 32H136C131.6 32 128 35.59 128 40.03l.0002 312.5H56c-7.022 0-10.57 8.363-5.875 13.47l103.1 112.1C156.2 480.2 158.7 480.6 160 480.6z"/></svg>