<svg xmlns="http://www.w3.org/2000/svg" viewBox="0 0 640 512"><!--! Font Awesome Pro 6.0.0-beta3 by @fontawesome - https://fontawesome.com License - https://fontawesome.com/license (Commercial License) Copyright 2021 Fonticons, Inc. --><path d="M535.6 251.8c-37.84-21.48-55.67-33.55-55.67-51.42L479.1 192h16.95l28.6 21.99C533.8 220.5 543.1 224 554.8 224h29.25c21.04 0 39.93-14.15 45.93-34.41l7.398-25.2c5.859-19.78 1.898-41.45-10.62-57.89l-56.86-74.85C554.9 11.84 531 0 506.1 0h-168.8C323.7 0 311.6 8.572 307.1 21.38C302.6 34.2 306.7 48.46 317.3 56.96l18.1 14.53l-11.66 4.814C311.7 81.27 303.8 93.03 303.9 106.1S311.9 130.8 324 135.6l28.01 11.2v90.96c0 16.77 .5098 33.65 2.17 50.25H172.2l62.05-51.72C239.7 231.8 241.5 224.3 238.8 217.9S229.6 207.6 222.6 208.1L94.99 219.7l99.1-88.06l102 58.31C303.8 194.2 313.5 191.6 317.9 183.9c4.391-7.656 1.719-17.44-5.953-21.84l-112-64C194 94.69 186.5 95.47 181.4 100l-144 128c-5.172 4.594-6.797 12-4.062 18.31c2.75 6.344 9.109 9.906 16.14 9.594l124.9-11.34L117.8 291.7C112.6 296 110.7 303.1 113 309.4C115.3 315.8 121.3 320 128.1 320h231.3c5.566 23.76 15.17 46.25 32.17 65.92c-62.21 4.053-179.7 16.83-367.2 63.01c-15.71 3.869-26.07 18.86-24.12 34.93C2.184 499.9 15.82 512 32 512H506.9c42.06 0 83.75-20.48 108.8-53.44c23.08-30.36 29.97-68.09 19.39-106.2C620.5 299.1 573.4 273.3 535.6 251.8zM506.9 480H32c230.5-56.75 352.6-62.38 400.5-64c15.5-.5 21.25-20.88 8.25-29.38c-49-32.25-56.72-80.88-56.72-148.9V136c0-6.625-3.875-12.5-10-14.88l-38.13-15.25l36.63-15.12c5.25-2.125 9-6.875 9.75-12.5c.875-5.5-1.375-11.12-5.75-14.75L337.3 32h168.8c14.88 0 29.25 7.125 38.25 19l56.88 74.88c6.377 8.375 8.377 19.38 5.377 29.5L599.3 180.5C597.3 187.3 591 192 584 192h-29.25c-3.5 0-6.875-1.125-9.75-3.375l-33-25.38C509.3 161.1 505.9 160 502.3 160H470.7l-27.31-27.31c-6.25-6.25-16.38-6.25-22.62 0s-6.25 16.38 0 22.62l27.15 27.15v17.91c0 38.38 34.88 58.25 71.88 79.25c36.13 20.5 73.5 41.88 84.5 81.25C623.6 430.8 563.1 480 506.9 480zM480.9 86.31l32 16C515.2 103.5 517.6 104 520 104c5.875 0 11.52-3.25 14.33-8.844c3.953-7.906 .75-17.5-7.156-21.47l-32-16c-7.891-3.969-17.5-.7187-21.47 7.156C469.8 72.75 472.1 82.34 480.9 86.31z"/></svg>