<svg xmlns="http://www.w3.org/2000/svg" viewBox="0 0 448 512"><!--! Font Awesome Pro 6.1.1 by @fontawesome - https://fontawesome.com License - https://fontawesome.com/license (Commercial License) Copyright 2022 Fonticons, Inc. --><path d="M64 32C93.82 32 118.9 52.4 125.1 80H322C329.1 52.4 354.2 32 384 32C419.3 32 448 60.65 448 96C448 125.8 427.6 150.9 400 157.1V354C427.6 361.1 448 386.2 448 416C448 451.3 419.3 480 384 480C354.2 480 329.1 459.6 322 432H125.1C118.9 459.6 93.82 480 64 480C28.65 480 0 451.3 0 416C0 386.2 20.4 361.1 48 354V157.1C20.4 150.9 0 125.8 0 96C0 60.65 28.65 32 64 32V32zM64 128C81.67 128 96 113.7 96 96C96 78.33 81.67 64 64 64C46.33 64 32 78.33 32 96C32 113.7 46.33 128 64 128zM125.1 400H322C327.8 377.5 345.5 359.8 368 354V157.1C345.5 152.2 327.8 134.5 322 112H125.1C120.2 134.5 102.5 152.2 80 157.1V354C102.5 359.8 120.2 377.5 125.1 400V400zM64 384C46.33 384 32 398.3 32 416C32 433.7 46.33 448 64 448C81.67 448 96 433.7 96 416C96 398.3 81.67 384 64 384zM352 416C352 433.7 366.3 448 384 448C401.7 448 416 433.7 416 416C416 398.3 401.7 384 384 384C366.3 384 352 398.3 352 416zM416 96C416 78.33 401.7 64 384 64C366.3 64 352 78.33 352 96C352 113.7 366.3 128 384 128C401.7 128 416 113.7 416 96z"/></svg>