<svg xmlns="http://www.w3.org/2000/svg" viewBox="0 0 448 512"><!--! Font Awesome Pro 6.0.0-beta3 by @fontawesome - https://fontawesome.com License - https://fontawesome.com/license (Commercial License) Copyright 2021 Fonticons, Inc. --><path d="M384 352c-6.25 0-12.25 1.25-18 2.875l-32.37-54C345 289.2 352 273.5 352 256s-7-33.25-18.38-44.88l32.37-54C371.8 158.8 377.8 160 384 160c35.38 0 64-28.62 64-64s-28.62-64-64-64c-29.75 0-54.63 20.5-61.75 48H125.8C118.6 52.5 93.75 32 64 32C28.62 32 0 60.62 0 96c0 29.75 20.5 54.62 48 61.75v196.5C20.5 361.4 0 386.2 0 416c0 35.38 28.62 64 64 64c29.75 0 54.62-20.5 61.75-48h196.5c7.125 27.5 32 48 61.75 48c35.38 0 64-28.62 64-64S419.4 352 384 352zM80 354.2V157.8C102.4 152 119.9 134.4 125.8 112h196.5c2.875 11 8.375 21 16.13 28.88l-32.38 54C300.2 193.2 294.2 192 288 192c-35.38 0-64 28.62-64 64s28.62 64 64 64c6.25 0 12.25-1.25 17.1-2.875l32.38 54C330.6 379 325.1 389 322.2 400H125.8C119.9 377.6 102.4 360.1 80 354.2zM288 288c-17.62 0-32-14.38-32-32s14.38-32 32-32s32 14.38 32 32S305.6 288 288 288zM384 64c17.62 0 32 14.38 32 32s-14.38 32-32 32s-32-14.38-32-32S366.4 64 384 64zM32 96c0-17.62 14.38-32 32-32s32 14.38 32 32S81.62 128 64 128S32 113.6 32 96zM64 448c-17.62 0-32-14.38-32-32s14.38-32 32-32s32 14.38 32 32S81.62 448 64 448zM384 448c-17.62 0-32-14.38-32-32s14.38-32 32-32s32 14.38 32 32S401.6 448 384 448z"/></svg>