<svg xmlns="http://www.w3.org/2000/svg" viewBox="0 0 448 512"><!--! Font Awesome Pro 6.0.0-beta3 by @fontawesome - https://fontawesome.com License - https://fontawesome.com/license (Commercial License) Copyright 2021 Fonticons, Inc. --><path d="M443.3 36.69c-6.25-6.25-16.35-6.25-22.6 .0002l-119.9 119.9l-83.31-83.2C210.1 66.88 202.4 63.63 193.9 63.63c-8.5 0-17.12 3.25-23.62 9.75L19.62 223.1C6.999 236.5 0 253.5 0 271.3v141.9C0 450.1 29.87 480 66.87 480h141.9c17.62 0 34.63-7.002 47.26-19.63l150.7-150.6c12.1-13.12 12.1-34.25 0-47.38l-83.29-83.19l119.8-119.1C449.5 52.98 449.6 42.94 443.3 36.69zM233.4 437.8C226.7 444.4 218.1 448 208.7 448H66.87c-19.25 0-34.87-15.62-34.87-34.88V271.3c0-9.25 3.625-18 10.25-24.62l59.37-59.38l191.1 191.1L233.4 437.8zM383.1 287.1l-68.75 68.63L124.2 164.6L192.9 96C192.1 95.88 193.2 95.63 193.9 95.63L194.9 96l189.1 189.1C384.6 285.6 384.6 286.6 383.1 287.1z"/></svg>