<svg xmlns="http://www.w3.org/2000/svg" viewBox="0 0 384 512"><!--! Font Awesome Pro 6.1.1 by @fontawesome - https://fontawesome.com License - https://fontawesome.com/license (Commercial License) Copyright 2022 Fonticons, Inc. --><path d="M192 400C200.8 400 208 407.2 208 416C208 424.8 200.8 432 192 432C130.1 432 80 381.9 80 319.1C80 311.2 87.16 303.1 96 303.1C104.8 303.1 112 311.2 112 319.1C112 364.2 147.8 400 192 400zM368 319.1C368 417.2 289.2 496 192 496C94.8 496 16 417.2 16 319.1C16 245.9 118.3 89.43 166.9 19.3C179.2 1.585 204.8 1.585 217.1 19.3C265.7 89.43 368 245.9 368 319.1zM321.5 263.4C311.8 238.9 298.2 211.6 282.8 183.7C252.4 128.8 216.1 74.13 192 39.32C167.9 74.13 131.6 128.8 101.2 183.7C85.77 211.6 72.17 238.9 62.51 263.4C52.57 288.5 48 307.6 48 319.1C48 399.5 112.5 464 192 464C271.5 464 336 399.5 336 319.1C336 307.6 331.4 288.5 321.5 263.4V263.4z"/></svg>