<svg xmlns="http://www.w3.org/2000/svg" viewBox="0 0 640 512"><!--! Font Awesome Pro 6.0.0-beta3 by @fontawesome - https://fontawesome.com License - https://fontawesome.com/license (Commercial License) Copyright 2021 Fonticons, Inc. --><path d="M576 128C576 119.2 568.8 112 560 112h-42.77C506.4 65.5 465.2 32 416 32C358.7 32 312 78.66 312 136c0 20.19 8.078 40.88 24 61.59V224c0 8.812-7.172 16-16 16h-14.61c-29.52 0-72.86-11.66-90.3-28.97C205.7 201.7 191.8 198.9 179.4 204.1C167.5 209 160 219.9 160 232.4c0 87.34 75.97 158.4 169.4 158.4c8.844 0 16-7.156 16-16s-7.156-16-16-16c-75.73 0-137.4-56.72-136.9-125.2C219.1 260.1 274.5 272 305.4 272h14.61c26.47 0 48-21.53 48-48V192c0-3.719-1.297-7.312-3.656-10.19C350.8 165.5 344 150.1 344 136c0-39.69 32.3-72 72-72c37.51 0 68.34 28.12 71.7 65.44C488.5 137.7 495.4 144 503.6 144h38.59c-7.859 35.56-41.06 64-78.23 64h-10.61c-5.594 0-10.78 2.906-13.67 7.688c-4.75 7.844-7.703 18.91-7.703 28.94c0 17.66 9.094 34.31 24.36 44.53c28.11 18.72 42.72 48.78 39.11 80.38C490.6 411.3 443.5 448 394.6 448H303.4c-108.3 0-199.4-78.06-207.2-176H120c8.844 0 16-7.156 16-16s-7.156-16-16-16H96.16c-9.188 0-17.97 3.781-24.09 10.38C66.3 256.6 63.44 264.5 64.05 272.8C73.36 388.9 178.5 480 303.4 480h91.25c65.12 0 125.9-48.91 132.6-106.8c5.016-43.78-14.86-85.16-53.11-110.6c-6.344-4.25-10.14-10.97-10.14-17.94c0-1.406 .1719-3.031 .4687-4.625C523.9 239.7 576 187.5 576 128zM432 128c0-8.875-7.126-16-15.1-16c-8.875 0-16 7.125-16 16S407.1 144 416 144C424.9 144 432 136.9 432 128z"/></svg>