<svg xmlns="http://www.w3.org/2000/svg" viewBox="0 0 640 512"><!--! Font Awesome Pro 6.1.1 by @fontawesome - https://fontawesome.com License - https://fontawesome.com/license (Commercial License) Copyright 2022 Fonticons, Inc. --><path d="M624 240H608V160c0-26.51-21.49-48-48-48h-32c-5.625 0-11 1.25-16 2.875V96c0-26.51-21.49-48-48-48h-32C405.5 48 384 69.49 384 96v144H256V96c0-26.51-21.49-48-48-48h-32C149.5 48 128 69.49 128 96v18.88C123 113.1 117.6 112 112 112h-32C53.49 112 32 133.5 32 160v80H16C7.199 240 0 247.2 0 256c0 8.797 7.199 16 16 16H32V352c0 26.51 21.49 48 48 48h32c5.625 0 11-1.25 16-2.875V416c0 26.51 21.49 48 48 48h32C234.5 464 256 442.5 256 416V272h128V416c0 26.51 21.49 48 48 48h32c26.51 0 48-21.49 48-48v-18.88C517 398.9 522.4 400 528 400h32c26.51 0 48-21.49 48-48V272h16C632.8 272 640 264.8 640 256C640 247.2 632.8 240 624 240zM128 352c0 8.75-7.25 16-16 16h-32C71.25 368 64 360.8 64 352V160c0-8.75 7.25-16 16-16h32C120.8 144 128 151.3 128 160V352zM224 416c0 8.75-7.25 16-16 16h-32C167.3 432 160 424.8 160 416V96c0-8.75 7.25-16 16-16h32C216.8 80 224 87.25 224 96V416zM480 416c0 8.75-7.25 16-16 16h-32c-8.75 0-16-7.25-16-16V96c0-8.75 7.25-16 16-16h32C472.8 80 480 87.25 480 96V416zM576 352c0 8.75-7.25 16-16 16h-32c-8.75 0-16-7.25-16-16V160c0-8.75 7.25-16 16-16h32C568.8 144 576 151.3 576 160V352z"/></svg>