<svg xmlns="http://www.w3.org/2000/svg" viewBox="0 0 384 512"><!--! Font Awesome Pro 6.1.1 by @fontawesome - https://fontawesome.com License - https://fontawesome.com/license (Commercial License) Copyright 2022 Fonticons, Inc. --><path d="M192 0C86 0 0 86 0 192v176C0 447.5 64.5 512 144 512s144-64.5 144-144v-9.875C345.4 324.9 384 263 384 192C384 86 298 0 192 0zM271.1 330.4C262.1 336.2 256 346.7 256 358.1V368c0 61.76-50.24 112-112 112S32 429.8 32 368V192c0-88.22 71.78-160 160-160s160 71.78 160 160C352 248.8 321.3 301.8 271.1 330.4zM280.1 99.11c-26.05-24.69-59.87-37.34-94.96-34.94C118.3 67.67 64 128.1 64 198.8V240C64 248.8 71.16 256 80 256h6.062C100.4 256 112 267.6 112 281.9c0 6.906-2.703 13.44-7.594 18.34l-38.06 38.06c-6.25 6.25-6.25 16.38 0 22.62c3.125 3.125 7.219 4.688 11.31 4.688s8.188-1.562 11.31-4.688l38.08-38.06C137.1 311.9 144 297.4 144 281.9c0-28.56-20.77-52.38-48-57.09V198.8c0-53.97 40.73-100 90.95-102.7c26.47-1.531 51.58 7.656 71.11 26.19C277.4 140.7 288 165.4 288 192c0 8.844 7.156 16 16 16S320 200.8 320 192C320 156.5 305.8 123.5 280.1 99.11z"/></svg>