<svg xmlns="http://www.w3.org/2000/svg" viewBox="0 0 640 512"><!--! Font Awesome Pro 6.1.1 by @fontawesome - https://fontawesome.com License - https://fontawesome.com/license (Commercial License) Copyright 2022 Fonticons, Inc. --><path d="M256 467.5l-48.38-71.64c-3-4.376-8-7.002-13.25-7.002c-1 0-2 .125-3 .3751L106.6 405.6l16.38-84.77c1.25-6.377-1.375-12.75-6.75-16.38L44.62 256.1l71.62-48.39c5.25-3.626 8-10 6.75-16.38L106.6 106.5l84.75 16.38C197.6 124 204.1 121.4 207.8 116.2L256 44.64L280.1 81.54c5.257 7.766 15.99 9.178 23.21 3.195l.329-.2721C310.8 79.32 312 70.25 307.5 63.55L269.2 7.002C266.2 2.626 261.3 0 256 0C250.8 0 245.8 2.626 242.8 7.002L187 89.4l-97.75-18.75c-5.125-1-10.51 .616-14.26 4.367S69.62 84.15 70.62 89.27l18.75 97.77L7 242.8C2.625 245.8 0 250.8 0 256c0 5.251 2.625 10.28 7 13.28l82.38 55.76l-18.88 97.77c-1 5.126 .8437 10.36 4.469 14.11c3.75 3.751 9.156 5.519 14.28 4.519l97.63-18.88l55.88 82.4C245.8 509.4 250.7 512 255.9 512c5.375 0 10.33-2.626 13.21-7.002l38.08-56.36c4.605-6.816 3.143-15.94-3.215-21.16c-7.141-5.878-18.07-4.397-23.24 3.274L256 467.5zM241.1 170.1l.2634-.6427c5.026-12.21-6.691-24.86-19.3-20.94C205.5 154.5 189.1 163.6 176.8 176.8C139 214.7 133.2 270.8 162.2 320.1C169.5 332.3 179.8 342.5 192 349.8c10.08 5.947 20.46 10.39 30.93 13.39c12.41 3.557 23.5-9.272 18.53-21.19l-.2609-.6277c-1.823-4.404-5.382-7.879-9.958-9.207c-7.413-2.152-15.13-5.358-22.1-10c-7.5-4.376-14-10.88-18.37-18.38C164 259.8 178.8 220.2 199.5 199.4c8.045-7.939 19.03-15.14 32.1-19.32C235.1 178.7 239.4 175.2 241.1 170.1zM448 64.02c-106 0-191.1 85.97-191.1 191.1c0 106 85.99 192 191.1 192c105.1 0 192-86.01 192-192C640 149.1 553.1 64.02 448 64.02zM448 416.1c-88.25 0-159.1-71.81-159.1-160.1S359.8 96.02 448 96.02s160 71.77 160 160S536.3 416.1 448 416.1z"/></svg>