<svg xmlns="http://www.w3.org/2000/svg" viewBox="0 0 512 512"><!--! Font Awesome Pro 6.1.1 by @fontawesome - https://fontawesome.com License - https://fontawesome.com/license (Commercial License) Copyright 2022 Fonticons, Inc. --><path d="M512 16C512 7.473 505.1 0 496 0c-4.094 0-8.188 1.562-11.31 4.688l-26.1 26.1C444.9 21.47 428.4 16 410.7 16h-106.7c-17.67 0-32 14.33-32 32c0 9.361 1.516 18.38 4.312 26.81C185.7 146.5 123.8 177.1 100.8 186.1C31.93 214.6 .0005 275.1 .0005 337.4c0 141.1 129.2 174.7 172.6 174.7c57.68 0 108.2-13.32 213.2-172.9c21.93-33.59 41.11-67.46 59.27-101.5C451.2 239 457.5 240 464 240c17.67 0 32-14.33 32-32V101.3c0-17.76-5.477-34.25-14.79-47.92l26.1-26.1C510.4 24.19 512 20.09 512 16zM359.1 321.5C267.6 460.5 226.8 480 172.6 480c-49.81 0-94.85-25.7-120.5-68.75C17.63 353.4 22.56 253.2 112.4 215.9c18.08-7.078 81.9-36.09 179.9-113c9.904 11.72 22.72 20.91 37.54 25.96c8.52 25 28.33 44.81 53.33 53.33c5.996 17.6 17.68 32.5 32.73 42.83C397.8 258.7 379.1 290.9 359.1 321.5zM464 208c-29.45 0-53.33-23.88-53.33-53.33c-29.46 0-53.33-23.88-53.33-53.33c-29.46 0-53.33-23.88-53.33-53.33h106.7c29.46 0 53.33 23.88 53.33 53.33V208z"/></svg>