<svg xmlns="http://www.w3.org/2000/svg" viewBox="0 0 448 512"><!--! Font Awesome Pro 6.1.1 by @fontawesome - https://fontawesome.com License - https://fontawesome.com/license (Commercial License) Copyright 2022 Fonticons, Inc. --><path d="M48.01 351.1h351.1c41.62 0 63.49-49.63 35.37-80.38l-175.1-192.1C249.9 69.16 236.9 64.01 224 64.01c-12.94 0-25.87 5.156-35.37 15.47L12.64 271.6C-15.48 302.2 6.393 351.1 48.01 351.1zM36.24 293.2l175.9-192.1C216.3 96.67 221.4 96 224 96c2.65 0 7.711 .668 11.78 5.082l175.1 192.1c6.328 6.92 4.062 14.36 2.795 17.24c-1.266 2.871-5.217 9.551-14.55 9.551H48.01c-9.326 0-13.28-6.713-14.55-9.598C32.2 307.5 29.94 300.1 36.24 293.2zM432 416h-416c-8.844 0-15.99 7.164-15.99 16.01S7.156 448 16 448h416c8.844 0 15.99-7.148 15.99-15.99S440.8 416 432 416z"/></svg>