<svg xmlns="http://www.w3.org/2000/svg" viewBox="0 0 640 512"><!--! Font Awesome Pro 6.0.0-beta3 by @fontawesome - https://fontawesome.com License - https://fontawesome.com/license (Commercial License) Copyright 2021 Fonticons, Inc. --><path d="M528 32h-72.94C437.5 12.5 412.3 0 384 0s-53.45 12.5-71.03 32H176C78.97 32 0 110.1 0 208V352c0 8.844 7.156 16 16 16S32 360.9 32 352V208C32 128.6 96.59 64 176 64h117.9C290.3 74.06 288 84.72 288 96c0 41.47 26.81 78 65.28 90.97C358.3 208.2 377.3 224 400 224h32C440.8 224 448 216.8 448 208S440.8 192 432 192h-32C391.2 192 384 184.8 384 174.4c0-7.625-5.375-14.16-12.81-15.69C341.5 152.7 320 126.3 320 96c0-35.28 28.72-64 64-64s64 28.72 64 64c0 8.844 7.156 16 16 16S480 104.8 480 96c0-11.28-2.311-21.94-5.896-32H528C572.1 64 608 99.88 608 144v224c0 26.47-21.53 48-48 48S512 394.5 512 368c0-8.844-7.156-15.98-16-15.98S480 359.2 480 368c0 44.13 35.94 80 80.07 80S640 412.1 640 368v-224C640 82.25 589.8 32 528 32zM544 144c0-8.837-7.164-15.1-16-15.1S512 135.2 512 144c0 8.836 7.164 15.99 16 15.99S544 152.9 544 144zM576 288c0-8.844-7.156-16-16-16h-128C423.2 272 416 279.2 416 288v176c0 8.812-7.188 16-16 16h-32c-8.812 0-16-7.188-16-16v-74.73c12.24-8.643 21.76-18.95 27.06-30.71c3.625-8.031 .0313-17.53-8.031-21.16c-7.969-3.625-17.5-.0625-21.16 8.031C341.4 364.1 305.7 384 256 384s-85.44-19.88-93.88-38.56c-3.656-8.094-13.19-11.66-21.16-8.031c-8.062 3.625-11.66 13.12-8.031 21.16C138.2 370.3 147.8 380.6 160 389.3V464C160 472.8 152.8 480 144 480h-32C103.2 480 96 472.8 96 464v-224C96 231.2 88.84 224 80 224S64 231.2 64 240v224C64 490.5 85.53 512 112 512h32C170.5 512 192 490.5 192 464v-58.52C210.9 412.1 232.7 416 256 416s45.1-3.854 64-10.52V464c0 26.47 21.53 48 48 48h32c26.47 0 48-21.53 48-48v-160h112C568.8 304 576 296.8 576 288z"/></svg>