<svg xmlns="http://www.w3.org/2000/svg" viewBox="0 0 640 512"><!--! Font Awesome Pro 6.0.0-beta3 by @fontawesome - https://fontawesome.com License - https://fontawesome.com/license (Commercial License) Copyright 2021 Fonticons, Inc. --><path d="M496 448H128c-35.35 0-64-28.65-64-64V112C64 103.2 56.84 96 48 96S32 103.2 32 112V384c0 53.02 42.98 96 96 96h368c8.836 0 16-7.164 16-16S504.8 448 496 448zM576 32H192C156.7 32 128 60.65 128 96v224c0 35.35 28.65 64 64 64h384c35.35 0 64-28.65 64-64V96C640 60.65 611.3 32 576 32zM608 320c0 17.64-14.36 32-32 32H192c-17.64 0-32-14.36-32-32V139.1L336 272c14.12 10.61 31.06 15.91 48 15.91S417.9 282.6 432 272L608 139.1V320zM608 100l-195.2 146.4c-17 12.72-40.63 12.72-57.63 0L160 100V96c0-17.64 14.36-32 32-32h384c17.64 0 32 14.36 32 32V100z"/></svg>