<svg xmlns="http://www.w3.org/2000/svg" viewBox="0 0 640 512"><!--! Font Awesome Pro 6.0.0-beta3 by @fontawesome - https://fontawesome.com License - https://fontawesome.com/license (Commercial License) Copyright 2021 Fonticons, Inc. --><path d="M80 160C88.84 160 96 152.8 96 144V64c0-17.67 14.33-32 32-32h256c17.67 0 32 14.33 32 32h32c0-35.35-28.65-64-64-64H128C92.65 0 64 28.65 64 64v80C64 152.8 71.16 160 80 160zM576 96H256C220.7 96 192 124.7 192 160h32c0-17.67 14.33-32 32-32h320c17.67 0 32 14.33 32 32v192c0 17.67-14.33 32-32 32h-144c-8.836 0-16 7.162-16 16c0 8.836 7.164 16 16 16H576c35.35 0 64-28.65 64-64V160C640 124.7 611.3 96 576 96zM560 256C568.9 256 576 248.9 576 240v-64C576 167.1 568.9 160 560 160h-64C487.1 160 480 167.1 480 176v64C480 248.9 487.1 256 496 256H560zM512 192h32v32h-32V192zM320 192H64C28.65 192 0 220.7 0 256v192c0 35.35 28.65 64 64 64h256c35.35 0 64-28.65 64-64V256C384 220.7 355.3 192 320 192zM352 448c0 17.67-14.33 32-32 32H64c-17.67 0-32-14.33-32-32V313.6C44.75 323.3 64 339.3 128 384c12.75 9.625 38.38 32 64 32s51.25-22.38 64-32c64-44.75 83.25-60.75 96-70.38V448zM352 275.3c-25.62 19.12-22.38 19.12-115.3 86.38C227.3 364.8 208 384 192 384s-35.25-19.25-44.75-25.62C54.38 291.3 57.63 291.3 32 272V256c0-17.67 14.33-32 32-32h256c17.67 0 32 14.33 32 32V275.3z"/></svg>