<svg xmlns="http://www.w3.org/2000/svg" viewBox="0 0 576 512"><!--! Font Awesome Pro 6.0.0-beta3 by @fontawesome - https://fontawesome.com License - https://fontawesome.com/license (Commercial License) Copyright 2021 Fonticons, Inc. --><path d="M512 0c-35.35 0-64 28.65-64 64s28.65 64 64 64s64-28.65 64-64S547.3 0 512 0zM512 96c-17.64 0-32-14.36-32-32s14.36-32 32-32s32 14.36 32 32S529.6 96 512 96zM528 164h-10.67c-3.463 0-6.832 1.123-9.602 3.199l-190.9 143.2c-17 12.72-40.63 12.72-57.63 0L64 164V128c0-17.67 14.33-32 32-32h304C408.8 96 416 88.84 416 80C416 71.16 408.8 64 400 64H96C60.65 64 32 92.65 32 128v256c0 35.35 28.65 64 64 64h384c35.35 0 64-28.65 64-64V180C544 171.2 536.8 164 528 164zM512 384c0 17.64-14.36 32-32 32H96c-17.64 0-32-14.36-32-32V203.1L240 336c14.12 10.61 31.06 16.01 48 16.01S321.9 346.6 336 336L512 203.1V384z"/></svg>