<svg xmlns="http://www.w3.org/2000/svg" viewBox="0 0 512 512"><!--! Font Awesome Pro 6.0.0-beta3 by @fontawesome - https://fontawesome.com License - https://fontawesome.com/license (Commercial License) Copyright 2021 Fonticons, Inc. --><path d="M496 448l-172.3-.0313l174.2-173.1c9.31-9.375 13.97-21.69 13.97-34s-4.658-24.63-13.97-34l-159.1-160C328.6 36.66 316.3 32 303.1 32c-12.31 0-24.63 4.656-33.1 13.97L13.97 301.1C4.658 311.4 0 323.7 0 335.1s4.658 24.63 13.97 34l95.1 96c8.997 9 21.1 14 33.85 14h352.1c.0547 0-.0546 0 0 0C504.8 479.1 512 472.8 512 464C512 455.2 504.8 448 496 448zM292.6 68.72c3.124-3.125 7.185-4.688 11.25-4.688s8.123 1.562 11.25 4.688l159.1 160c3.124 3.125 4.686 7.188 4.686 11.25s-1.562 8.125-4.686 11.25l-116.6 116.8L175.9 185.3L292.6 68.72zM271.9 447.1h-127.1c-4.249 0-8.372-1.625-11.25-4.75l-95.97-96c-3.124-3.125-4.686-7.188-4.686-11.25s1.562-8.125 4.686-11.25l116.6-116.8l182.6 182.6l-52.73 52.63C280.3 446.3 276.1 447.1 271.9 447.1z"/></svg>