<svg xmlns="http://www.w3.org/2000/svg" viewBox="0 0 640 512"><!--! Font Awesome Pro 6.0.0-beta3 by @fontawesome - https://fontawesome.com License - https://fontawesome.com/license (Commercial License) Copyright 2021 Fonticons, Inc. --><path d="M240 112c30.95-.1172 56-25.14 56-56C296 25.13 270.9 .1152 240 0C209.1 .1152 184 25.13 184 56C184 86.86 209.1 111.9 240 112zM240 32c13.25 .1133 24 10.86 24 24c0 13.18-10.82 23.95-23.88 24C226.8 79.95 216 69.18 216 56C216 42.86 226.8 32.11 240 32zM186.5 288C189.9 284.1 192 280.5 192 275.9V225.9c0-25.63 19.27-48.16 44.85-49.81c14.97-.9668 28.52 5.021 37.9 15.01C280.5 197.2 290.2 197.3 296.5 191.8c6.781-5.932 7.418-16.4 1.213-22.93C281.7 152 258.5 142.1 232.9 144.3C191.2 147.9 160 184.5 160 226.4v49.63C160 289.7 176.2 297 186.5 288zM560 128H448c-19.38 0-38.09 7.031-52.69 19.8L161.9 352H80C35.81 352 0 387.8 0 432S35.81 512 80 512H192c19.38 0 38.09-7.031 52.69-19.8L478.1 288H560C604.2 288 640 252.2 640 208S604.2 128 560 128zM560 256h-93.96l-242.4 212.1C214.9 475.8 203.6 480 192 480H80C53.53 480 32 458.5 32 432S53.53 384 80 384h93.96l242.4-212.1C425.1 164.2 436.4 160 448 160h112C586.5 160 608 181.5 608 208S586.5 256 560 256z"/></svg>