<svg xmlns="http://www.w3.org/2000/svg" viewBox="0 0 512 512"><!--! Font Awesome Pro 6.0.0-beta3 by @fontawesome - https://fontawesome.com License - https://fontawesome.com/license (Commercial License) Copyright 2021 Fonticons, Inc. --><path d="M187.3 204.1c-6.25-6.262-16.38-6.262-22.63 0L53.98 315c-14.35 14.37-22.25 33.49-22.25 53.82v38.28L2.314 455.9c-3.812 6.324-2.844 14.42 2.377 19.63l31.72 31.78C39.51 510.4 43.6 512 47.73 512c2.844 0 5.719-.752 8.281-2.318l48.7-29.46h38.19c20.29 0 39.38-7.922 53.73-22.29l110.7-110.9c6.252-6.262 6.252-16.41 0-22.67L187.3 204.1zM173.1 435.3c-8.312 8.312-19.35 12.9-31.1 12.9H100.2c-2.906 0-5.783 .7988-8.283 2.316L50.17 475.8l-13.97-14.03l25.22-41.85c1.5-2.504 2.312-5.369 2.312-8.297v-42.74c0-11.77 4.562-22.84 12.88-31.15l99.34-99.53l97.48 97.48L173.1 435.3zM481 30.11c-40.01-40.14-109.9-40.14-149.9 0L216.4 145l-13.06-13.08c-6.252-6.264-16.38-6.264-22.63 0c-6.252 6.262-6.252 16.41 0 22.67l176 176.3c3.125 3.131 7.221 4.697 11.31 4.697s8.189-1.566 11.31-4.697c6.25-6.262 6.25-16.41 0-22.67l-13.06-13.09l114.7-114.9C522.3 138.9 522.3 71.5 481 30.11zM458.4 157.6l-114.7 114.9L239 167.7l114.7-114.9c27.94-28.02 76.7-28.02 104.6 0C487.2 81.68 487.2 128.7 458.4 157.6z"/></svg>