<svg xmlns="http://www.w3.org/2000/svg" viewBox="0 0 640 512"><!--! Font Awesome Pro 6.0.0-beta3 by @fontawesome - https://fontawesome.com License - https://fontawesome.com/license (Commercial License) Copyright 2021 Fonticons, Inc. --><path d="M633.9 483.4L25.9 3.42C18.1-2.033 8.936-.8301 3.436 6.061c-5.469 6.938-4.281 17 2.656 22.49l608 480C617 510.9 620.5 512 624 512c4.719 0 9.406-2.094 12.56-6.078C642 498.1 640.8 488.9 633.9 483.4zM272.9 137.2l30.91 24.41C309.1 160.7 314.4 160 320 160c50.78 0 92.04 39.74 95.36 89.74l30.82 24.33C447 268.1 448 262.2 448 256.1C448 185.4 390.7 128 320 128C303.3 128 287.5 131.4 272.9 137.2zM320 64c106.5 0 204.3 71.98 255 187.3c.3945 1.08 .9238 3.713 .9785 4.443c-.0547 1.145-.5859 3.783-.7695 4.361c-12.84 29.22-28.69 55.61-46.88 78.79l25.05 19.78c20.06-25.52 37.33-54.3 51.13-85.7c1.906-4.43 3.469-12.07 3.469-17.02c0-4.977-1.562-12.6-3.469-17.03C550.3 115.5 442.9 32 320 32c-48.13 0-93.8 12.96-134.9 35.95l27.74 21.9C246.4 73.33 282.6 64 320 64zM105.1 163.5C99.09 158 89.05 159.2 83.5 166C77.98 172.9 79.11 182.1 85.1 188.5l320 256C408.1 446.9 412.5 448 415.1 448c4.703 0 9.344-2.062 12.52-6c5.516-6.906 4.391-16.97-2.5-22.5L105.1 163.5zM65.1 216.3C59.11 210.8 49.05 211.9 43.5 218.8c-5.516 6.906-4.391 16.97 2.5 22.5l288 230.4c2.953 2.359 6.485 3.5 9.985 3.5c4.703 0 9.344-2.062 12.52-6c5.516-6.906 4.391-16.97-2.5-22.5L65.1 216.3zM57.1 297.9c-6.906-5.5-16.95-4.344-22.5 2.5c-5.516 6.906-4.391 16.97 2.5 22.5l192 153.6C232.1 478.9 236.5 480 239.1 480c4.703 0 9.344-2.062 12.52-6c5.516-6.906 4.391-16.97-2.5-22.5L57.1 297.9z"/></svg>