<svg xmlns="http://www.w3.org/2000/svg" viewBox="0 0 640 512"><!--! Font Awesome Pro 6.1.1 by @fontawesome - https://fontawesome.com License - https://fontawesome.com/license (Commercial License) Copyright 2022 Fonticons, Inc. --><path d="M3.443 6.086C8.918-.8493 18.98-2.033 25.91 3.443L633.9 483.4C640.9 488.9 642 498.1 636.6 505.9C631.1 512.9 621 514 614.1 508.6L6.086 28.56C-.8493 23.08-2.033 13.02 3.443 6.086V6.086zM605.5 268.3C595.3 292.9 577.2 325.3 551.6 357.3L526.5 337.5C550.1 307.1 566.8 278.1 576 256C562.7 223.1 533.9 175.1 490.8 136C447.7 95.99 390.4 64 320 64C280.2 64 244.6 74.21 213.4 90.31L186.1 68.78C224 46.8 268.8 31.1 320 31.1C400.8 31.1 465.5 68.84 512.6 112.6C559.4 156 590.7 207.1 605.5 243.7C608.8 251.6 608.8 260.4 605.5 268.3L605.5 268.3zM448 255.1C448 262.3 447.5 268.4 446.7 274.5L415.8 250.1C412.8 199.8 371 159.1 319.1 159.1C314.4 159.1 308.8 160.5 303.5 161.4L272.6 137.1C287.3 131.2 303.3 127.1 319.1 127.1C390.7 127.1 448 185.3 448 255.1V255.1zM425.1 419.5C432.9 425 434 435.1 428.5 441.1C422.1 448.9 412.9 450 406 444.5L86 188.5C79.1 182.1 77.99 172.9 83.51 166C89.03 159.1 99.09 157.1 105.1 163.5L425.1 419.5zM67.51 238C73.03 231.1 83.09 229.1 89.99 235.5L339.1 435.5C346.9 441 348 451.1 342.5 457.1C336.1 464.9 326.9 466 320 460.5L70 260.5C63.1 254.1 61.99 244.9 67.51 238V238zM229.1 435.5C236.9 441 238 451.1 232.5 457.1C226.1 464.9 216.9 466 210 460.5L86 361.3C79.1 355.8 77.99 345.7 83.51 338.8C89.03 331.9 99.09 330.8 105.1 336.3L229.1 435.5z"/></svg>