<svg xmlns="http://www.w3.org/2000/svg" viewBox="0 0 576 512"><!--! Font Awesome Pro 6.1.1 by @fontawesome - https://fontawesome.com License - https://fontawesome.com/license (Commercial License) Copyright 2022 Fonticons, Inc. --><path d="M416 256C416 326.7 358.7 384 288 384C217.3 384 160 326.7 160 256C160 185.3 217.3 128 288 128C358.7 128 416 185.3 416 256zM288 160C234.1 160 192 202.1 192 256C192 309 234.1 352 288 352C341 352 384 309 384 256C384 202.1 341 160 288 160zM480.6 112.6C527.4 156 558.7 207.1 573.5 243.7C576.8 251.6 576.8 260.4 573.5 268.3C558.7 304 527.4 355.1 480.6 399.4C433.5 443.2 368.8 480 288 480C207.2 480 142.5 443.2 95.42 399.4C48.62 355.1 17.34 304 2.461 268.3C-.8205 260.4-.8205 251.6 2.461 243.7C17.34 207.1 48.62 156 95.42 112.6C142.5 68.84 207.2 32 288 32C368.8 32 433.5 68.84 480.6 112.6V112.6zM32 256C45.33 288 74.13 336 117.2 376C160.3 416 217.6 448 288 448C358.4 448 415.7 416 458.8 376C501.9 336 530.7 288 544 256C530.7 223.1 501.9 175.1 458.8 136C415.7 95.99 358.4 64 288 64C217.6 64 160.3 95.99 117.2 136C74.13 175.1 45.33 223.1 32 256V256z"/></svg>