<svg xmlns="http://www.w3.org/2000/svg" viewBox="0 0 576 512"><!--! Font Awesome Pro 6.1.1 by @fontawesome - https://fontawesome.com License - https://fontawesome.com/license (Commercial License) Copyright 2022 Fonticons, Inc. --><path d="M65.98 285.9C67.14 294.6 60.99 302.7 52.23 303.9C43.47 305 35.42 298.9 34.26 290.1C32.77 278.9 32 267.6 32 256C32 114.6 146.6 0 288 0C429.4 0 544 114.6 544 256C544 267.6 543.2 278.9 541.7 290.1C540.6 298.9 532.5 305 523.8 303.9C515 302.7 508.9 294.6 510 285.9C511.3 276.1 512 266.1 512 256C512 132.3 411.7 32 288 32C164.3 32 64 132.3 64 256C64 266.1 64.67 276.1 65.98 285.9zM288 480C303.4 480 318.3 478.5 332.8 475.5C341.5 473.8 349.9 479.4 351.7 488C353.4 496.7 347.8 505.1 339.2 506.9C322.6 510.2 305.5 512 288 512C270.5 512 253.4 510.2 236.8 506.9C228.2 505.1 222.6 496.7 224.3 488C226.1 479.4 234.5 473.8 243.2 475.5C257.7 478.5 272.6 480 287.1 480H288zM195.7 379.4C197.1 380.5 198.5 381.7 199.8 383C218.5 401.8 218.5 432.2 199.8 450.9C197.1 453.6 194.1 455.9 190.1 457.9C192.2 471.5 187.6 485.7 177.1 496.2C159.3 514.1 130.8 514.9 111.9 498.6C88.47 508.9 60.15 504.4 40.97 485.3C21.78 466.1 17.33 437.8 27.59 414.3C11.35 395.5 12.18 366.1 30.06 349.1C40.55 338.6 54.69 333.1 68.37 335.2C70.3 332.1 72.61 329.2 75.31 326.5C94.06 307.7 124.4 307.7 143.2 326.5C144.5 327.8 145.7 329.1 146.9 330.6L213.1 290.3C220.3 286.5 228.3 287.5 233.5 292.7C238.7 297.9 239.7 305.9 235.9 312.2L195.7 379.4zM134.2 367.8C129.5 365.8 125.1 361.7 124.8 356.7C124.2 353.9 122.8 351.3 120.6 349.1C114.3 342.8 104.2 342.8 97.94 349.1C95.6 351.4 94.15 354.3 93.56 357.3C92.6 362.1 89.45 366.3 85.02 368.5C80.6 370.7 75.39 370.7 70.93 368.6C64.96 365.7 57.6 366.8 52.69 371.7C46.44 377.1 46.44 388.1 52.69 394.3C53.73 395.4 54.87 396.2 56.06 396.9C60.07 399.2 62.89 403.1 63.79 407.7C64.7 412.2 63.61 416.9 60.8 420.6C51.18 433.1 52.12 451.1 63.59 462.6C75.07 474.1 93.13 475 105.7 465.4C109.3 462.6 114 461.5 118.6 462.4C123.1 463.3 126.1 466.2 129.3 470.2C129.1 471.4 130.8 472.5 131.9 473.5C138.1 479.8 148.3 479.8 154.5 473.5C159.4 468.6 160.5 461.3 157.6 455.3C155.5 450.8 155.5 445.6 157.7 441.2C159.1 436.8 164.1 433.6 168.9 432.7C171.9 432.1 174.8 430.6 177.1 428.3C183.4 422 183.4 411.9 177.1 405.7C174.9 403.5 172.3 402 169.5 401.4C164.5 400.2 160.4 396.8 158.4 392.1C156.4 387.3 156.8 381.1 159.4 377.6L175.6 350.6L148.6 366.8C144.3 369.4 138.9 369.8 134.2 367.8H134.2zM427.4 331.4C428.5 330 429.7 328.7 431 327.3C449.8 308.6 480.2 308.6 498.9 327.3C501.6 330 503.9 332.1 505.8 336.1C519.5 334.9 533.7 339.5 544.2 349.1C562 367.9 562.9 396.3 546.6 415.2C556.9 438.6 552.4 466.1 533.3 486.1C514.1 505.3 485.8 509.8 462.3 499.5C443.5 515.8 414.1 514.9 397.1 497C386.6 486.6 381.1 472.4 383.2 458.7C380.1 456.8 377.2 454.5 374.5 451.8C355.7 433.1 355.7 402.7 374.5 383.9C375.8 382.6 377.1 381.4 378.6 380.3L338.3 313.1C334.5 306.8 335.5 298.8 340.7 293.6C345.9 288.4 353.9 287.4 360.2 291.2L427.4 331.4zM415.8 392.9C413.8 397.6 409.7 401.1 404.7 402.3C401.9 402.9 399.3 404.3 397.1 406.5C390.8 412.8 390.8 422.9 397.1 429.2C399.4 431.5 402.3 432.1 405.3 433.6C410.1 434.5 414.3 437.7 416.5 442.1C418.7 446.5 418.7 451.7 416.6 456.2C413.7 462.2 414.8 469.5 419.7 474.4C425.1 480.7 436.1 480.7 442.3 474.4C443.4 473.4 444.2 472.2 444.9 471C447.2 467 451.1 464.2 455.7 463.3C460.2 462.4 464.9 463.5 468.6 466.3C481.1 475.9 499.1 474.1 510.6 463.5C522.1 452 523 433.1 513.4 421.4C510.6 417.8 509.5 413.1 510.4 408.6C511.3 404 514.2 400.1 518.2 397.8C519.4 397.1 520.5 396.3 521.5 395.2C527.8 388.1 527.8 378.8 521.5 372.6C516.6 367.7 509.3 366.6 503.3 369.5C498.8 371.6 493.6 371.6 489.2 369.4C484.8 367.2 481.6 363 480.7 358.2C480.1 355.2 478.6 352.3 476.3 349.1C470 343.7 459.9 343.7 453.7 349.1C451.4 352.2 450 354.8 449.4 357.6C448.2 362.6 444.8 366.7 440 368.7C435.3 370.7 429.1 370.3 425.6 367.7L398.6 351.5L414.8 378.5C417.4 382.9 417.8 388.2 415.8 392.9V392.9zM128 240C128 231.2 135.2 224 144 224H240C248.8 224 256 231.2 256 240C256 248.8 248.8 256 240 256H144C135.2 256 128 248.8 128 240zM320 240C320 231.2 327.2 224 336 224H432C440.8 224 448 231.2 448 240C448 248.8 440.8 256 432 256H336C327.2 256 320 248.8 320 240zM347.3 187.3C341.1 193.6 330.9 193.6 324.7 187.3C318.4 181.1 318.4 170.9 324.7 164.7C336.7 152.7 369.7 126.6 410.9 112.8C419.3 110 428.4 114.6 431.2 122.9C433.1 131.3 429.4 140.4 421.1 143.2C385.5 155 356.6 177.1 347.3 187.3H347.3zM154.9 143.2C146.6 140.4 142 131.3 144.8 122.9C147.6 114.6 156.7 110 165.1 112.8C206.3 126.6 239.3 152.7 251.3 164.7C257.6 170.9 257.6 181.1 251.3 187.3C245.1 193.6 234.9 193.6 228.7 187.3C219.4 177.1 190.5 155 154.9 143.2V143.2z"/></svg>