<svg xmlns="http://www.w3.org/2000/svg" viewBox="0 0 512 512"><!--! Font Awesome Pro 6.0.0-beta3 by @fontawesome - https://fontawesome.com License - https://fontawesome.com/license (Commercial License) Copyright 2021 Fonticons, Inc. --><path d="M260.2 288C310.9 288 352 329.1 352 379.8C352 390.1 342.1 400 331.8 400H180.2C169 400 160 390.1 160 379.8C160 329.1 201.1 288 251.8 288H260.2zM251.8 320C222.8 320 198.6 340.6 193.2 368H318.8C313.4 340.6 289.2 320 260.2 320H251.8zM100.7 132.7C106.9 126.4 117.1 126.4 123.3 132.7L160 169.4L196.7 132.7C202.9 126.4 213.1 126.4 219.3 132.7C225.6 138.9 225.6 149.1 219.3 155.3L182.6 192L219.3 228.7C225.6 234.9 225.6 245.1 219.3 251.3C213.1 257.6 202.9 257.6 196.7 251.3L160 214.6L123.3 251.3C117.1 257.6 106.9 257.6 100.7 251.3C94.44 245.1 94.44 234.9 100.7 228.7L137.4 192L100.7 155.3C94.44 149.1 94.44 138.9 100.7 132.7zM292.7 132.7C298.9 126.4 309.1 126.4 315.3 132.7L352 169.4L388.7 132.7C394.9 126.4 405.1 126.4 411.3 132.7C417.6 138.9 417.6 149.1 411.3 155.3L374.6 192L411.3 228.7C417.6 234.9 417.6 245.1 411.3 251.3C405.1 257.6 394.9 257.6 388.7 251.3L352 214.6L315.3 251.3C309.1 257.6 298.9 257.6 292.7 251.3C286.4 245.1 286.4 234.9 292.7 228.7L329.4 192L292.7 155.3C286.4 149.1 286.4 138.9 292.7 132.7zM512 256C512 397.4 397.4 512 256 512C114.6 512 0 397.4 0 256C0 114.6 114.6 0 256 0C397.4 0 512 114.6 512 256zM256 32C132.3 32 32 132.3 32 256C32 379.7 132.3 480 256 480C379.7 480 480 379.7 480 256C480 132.3 379.7 32 256 32z"/></svg>