<svg xmlns="http://www.w3.org/2000/svg" viewBox="0 0 640 512"><!--! Font Awesome Pro 6.0.0-beta3 by @fontawesome - https://fontawesome.com License - https://fontawesome.com/license (Commercial License) Copyright 2021 Fonticons, Inc. --><path d="M232.3 182.8C235.8 170 248.9 162.4 261.7 165.8C274.5 169.3 282.1 182.4 278.7 195.2C275.3 208 262.1 215.6 249.3 212.2C236.5 208.8 228.9 195.6 232.3 182.8V182.8zM433.2 236.6C429.8 249.5 416.6 257.1 403.8 253.6C391 250.2 383.4 237 386.9 224.2C390.3 211.4 403.5 203.8 416.3 207.3C429.1 210.7 436.7 223.8 433.2 236.6zM291 348.2C332.9 359.4 368.1 346.3 390.8 330.9C398.1 325.1 408 327.9 413 335.2C417.1 342.5 416 352.5 408.7 357.4C380.6 376.5 335.9 393.4 282.7 379.1C229.5 364.8 199.3 327.9 184.4 297.3C180.6 289.4 183.9 279.8 191.8 275.1C199.8 272.1 209.4 275.4 213.2 283.4C225.2 308 249.1 336.1 291 348.2H291zM0 496C0 487.2 7.164 480 16 480H40.91C82.23 480 108.9 406.6 90.55 369.5C63.89 315.7 55.95 252.3 72.72 189.7C109.3 53.18 249.7-27.87 386.3 8.723C522.8 45.32 603.9 185.7 567.3 322.3C566.9 323.8 566.4 325.3 566 326.8C558.4 353.4 576.4 383.1 604 384H624C632.8 384 640 391.2 640 400C640 408.8 632.8 416 624 416H560C542.3 416 528 430.3 528 448C528 465.7 542.3 480 560 480C568.8 480 576 487.2 576 496C576 504.8 568.8 512 560 512H325.8C322.1 512.1 318.3 512.1 314.5 512H16C7.164 512 0 504.8 0 496V496zM325.1 480L325.5 480H504.6C499.1 470.6 496 459.7 496 448C496 417.2 517.7 391.5 546.7 385.4C546 384.5 545.4 383.5 544.8 382.6C533.2 364.4 528.7 340.7 535.3 317.1C535.6 316.7 536 315.3 536.4 313.1C568.4 194.5 497.5 71.65 377.1 39.63C258.5 7.614 135.7 78.53 103.6 198C88.95 252.8 95.88 308.2 119.2 355.3C134 385.2 129.2 423.2 117.7 450.9C113.8 460.2 108.2 470.5 100.8 480H314.8L315.2 480C318.5 480.1 321.8 480.1 325.1 480H325.1z"/></svg>