<svg xmlns="http://www.w3.org/2000/svg" viewBox="0 0 512 512"><!--! Font Awesome Pro 6.0.0-beta3 by @fontawesome - https://fontawesome.com License - https://fontawesome.com/license (Commercial License) Copyright 2021 Fonticons, Inc. --><path d="M256 416.1C192.2 416.1 137.3 378 113.2 323.5C108.1 311.8 120 301.1 132.3 304.7C169.6 315.9 211.6 322.1 256 322.1C300.5 322.1 342.5 315.9 379.8 304.7C392.1 301.1 404 311.8 398.9 323.5C374.8 378 319.9 416.1 256 416.1V416.1zM166.1 345.8C188.7 369.4 220.6 384.1 256 384.1C291.5 384.1 323.4 369.4 345.1 345.8C317.4 351.3 287.2 354.1 256 354.1C224.9 354.1 194.7 351.3 166.1 345.8zM200.4 208C200.4 221.3 189.6 232 176.4 232C163.1 232 152.4 221.3 152.4 208C152.4 194.7 163.1 184 176.4 184C189.6 184 200.4 194.7 200.4 208zM278.4 236.8C271.3 231.5 269.9 221.5 275.2 214.4C305.6 173.9 366.4 173.9 396.8 214.4C402.1 221.5 400.7 231.5 393.6 236.8C386.5 242.1 376.5 240.7 371.2 233.6C353.6 210.1 318.4 210.1 300.8 233.6C295.5 240.7 285.5 242.1 278.4 236.8zM512 256C512 397.4 397.4 512 256 512C114.6 512 0 397.4 0 256C0 114.6 114.6 0 256 0C397.4 0 512 114.6 512 256zM256 32C132.3 32 32 132.3 32 256C32 379.7 132.3 480 256 480C379.7 480 480 379.7 480 256C480 132.3 379.7 32 256 32z"/></svg>