<svg xmlns="http://www.w3.org/2000/svg" viewBox="0 0 512 512"><!--! Font Awesome Pro 6.0.0-beta3 by @fontawesome - https://fontawesome.com License - https://fontawesome.com/license (Commercial License) Copyright 2021 Fonticons, Inc. --><path d="M141.5 339.9C148.2 334.1 158.3 334.8 164.1 341.5C182 362.2 212.6 384 256 384C299.4 384 329.1 362.2 347.9 341.5C353.7 334.8 363.8 334.1 370.5 339.9C377.2 345.7 377.9 355.8 372.1 362.5C349.8 388.1 311.1 416 256 416C200.9 416 162.2 388.1 139.9 362.5C134.1 355.8 134.8 345.7 141.5 339.9zM320.4 224C320.4 210.7 331.1 200 344.4 200C357.6 200 368.4 210.7 368.4 224C368.4 237.3 357.6 248 344.4 248C331.1 248 320.4 237.3 320.4 224zM192.4 224C192.4 237.3 181.6 248 168.4 248C155.1 248 144.4 237.3 144.4 224C144.4 210.7 155.1 200 168.4 200C181.6 200 192.4 210.7 192.4 224zM493.4 160H496C504.8 160 512 167.2 512 176C512 182.1 508.5 187.5 503.5 190.2C509 211.2 512 233.2 512 256C512 397.4 397.4 512 256 512C114.6 512 0 397.4 0 256C0 233.2 2.971 211.2 8.546 190.2C3.464 187.5 0 182.1 0 176C0 167.2 7.164 160 16 160H18.61C56.59 66.18 148.6 0 256 0C363.4 0 455.4 66.18 493.4 160zM256 480C379.7 480 480 379.7 480 256C480 233.8 476.8 212.3 470.7 192H463.4C463.8 194.6 464 197.3 464 200V248C464 278.9 438.9 304 408 304H328C297.1 304 272 278.9 272 248V200C272 197.3 272.2 194.6 272.6 192H239.4C239.8 194.6 240 197.3 240 200V248C240 278.9 214.9 304 184 304H104C73.07 304 48 278.9 48 248V200C48 197.3 48.19 194.6 48.57 192H41.28C35.24 212.3 32 233.8 32 256C32 379.7 132.3 480 256 480zM224 160H288V160.8C298.2 150.4 312.3 144 328 144H408C423.3 144 437.1 150.1 447.2 160H458.4C422.5 84.32 345.4 32 256 32C166.6 32 89.51 84.32 53.56 160H64.81C74.91 150.1 88.74 144 104 144H184C199.7 144 213.8 150.4 224 160.8V160zM304 248C304 261.3 314.7 272 328 272H408C421.3 272 432 261.3 432 248V200C432 186.7 421.3 176 408 176H328C314.7 176 304 186.7 304 200V248zM104 176C90.75 176 80 186.7 80 200V248C80 261.3 90.75 272 104 272H184C197.3 272 208 261.3 208 248V200C208 186.7 197.3 176 184 176H104z"/></svg>