<svg xmlns="http://www.w3.org/2000/svg" viewBox="0 0 512 512"><!--! Font Awesome Pro 6.0.0-beta3 by @fontawesome - https://fontawesome.com License - https://fontawesome.com/license (Commercial License) Copyright 2021 Fonticons, Inc. --><path d="M76.79 390.4C82.1 397.5 80.68 407.5 73.61 412.8C66.55 418.1 56.52 416.7 51.21 409.6C19.06 366.8 0 313.6 0 256C0 114.6 114.6 0 256 0C397.4 0 512 114.6 512 256C512 321.6 487.3 381.4 446.8 426.7C440.9 433.3 430.8 433.8 424.2 427.9C417.6 422 417.1 411.9 422.1 405.3C458.4 365.7 480 313.4 480 256C480 132.3 379.7 32 256 32C132.3 32 32 132.3 32 256C32 306.5 48.66 352.1 76.79 390.4H76.79zM321.9 222.1C322.1 223.1 323.1 224.2 324.9 225.3C340.6 221.6 357.7 225.8 369.9 238.1C382.2 250.3 386.4 267.4 382.7 283.1C383.8 284 384.9 285 385.9 286.1C404.1 304.2 404.7 333.2 387.8 352C404.7 370.8 404.1 399.8 385.9 417.9L329.1 474.7C305.3 498.6 272.9 512 239.2 512C168.9 512 111.1 455.1 111.1 384.8V298.4C111.1 269.7 135.3 246.4 163.1 246.4C181.9 246.4 197.6 255.4 206.1 269.1L254.1 222.1C272.8 203.3 303.2 203.3 321.9 222.1V222.1zM299.3 267.3C305.6 261.1 305.6 250.9 299.3 244.7C298.7 244 297.9 243.4 297.2 242.9C290.1 238.5 282.3 239.1 276.7 244.7L197.7 323.7C192.6 328.8 184 325.2 184 318.1V298.4C184 297.4 183.9 296.4 183.8 295.4C183.7 294.6 183.5 293.7 183.2 292.9C180.8 284.5 173.1 278.4 163.1 278.4C152.1 278.4 143.1 287.4 143.1 298.4V384.8C143.1 437.4 186.6 480 239.2 480C264.4 480 288.7 469.1 306.5 452.1L363.3 395.3C368.9 389.7 369.5 381 365.1 374.8C364.6 374.1 363.1 373.3 363.3 372.7C357.1 366.4 346.9 366.4 340.7 372.7L321.4 392C318.8 394.6 314.6 394.6 312 392C309.4 389.4 309.4 385.2 312 382.6L363.3 331.3C368.9 325.7 369.5 317 365.1 310.8C364.6 310.1 363.1 309.3 363.3 308.7C357.1 302.4 346.9 302.4 340.7 308.7L289.4 360C286.8 362.6 282.6 362.6 280 360C277.4 357.4 277.4 353.2 280 350.6L347.3 283.3C350.4 280.2 352 276.1 352 272C352 267.9 350.4 263.8 347.3 260.7C344.2 257.6 340.1 256 336 256C331.9 256 327.8 257.6 324.7 260.7L257.4 328C254.8 330.6 250.6 330.6 248 328C245.4 325.4 245.4 321.2 247.1 318.6L299.3 267.3zM220.5 110C226 116.9 224.9 126.1 217.1 132.5L137.1 196.5C131.1 202 121 200.9 115.5 193.1C109.1 187.1 111.1 177 118 171.5L198 107.5C204.9 101.1 214.1 103.1 220.5 110V110zM294 132.5C287.1 126.1 285.1 116.9 291.5 110C297 103.1 307.1 101.1 313.1 107.5L393.1 171.5C400.9 177 402 187.1 396.5 193.1C390.1 200.9 380.9 202 374 196.5L294 132.5z"/></svg>