<svg xmlns="http://www.w3.org/2000/svg" viewBox="0 0 512 512"><!--! Font Awesome Pro 6.1.1 by @fontawesome - https://fontawesome.com License - https://fontawesome.com/license (Commercial License) Copyright 2022 Fonticons, Inc. --><path d="M385.5 288C399.7 288 410.1 300.3 407.3 314C389.2 381.1 328.3 432 256 432C183.7 432 122.8 381.1 104.7 314C101.1 300.3 112.3 288 126.5 288H385.5zM371.7 320H140.3C158.9 367.2 204 400 256 400C308 400 353.1 367.2 371.7 320H371.7zM150.8 145.7L214.8 177.7C220.2 180.4 223.6 185.9 223.6 192C223.6 198.1 220.2 203.6 214.8 206.3L150.8 238.3C142.9 242.3 133.3 239.1 129.3 231.2C125.4 223.3 128.6 213.6 136.5 209.7L171.9 191.1L136.5 174.3C128.6 170.4 125.4 160.7 129.3 152.8C133.3 144.9 142.9 141.7 150.8 145.7V145.7zM340.1 192L375.5 209.7C383.4 213.6 386.6 223.3 382.7 231.2C378.7 239.1 369.1 242.3 361.2 238.3L297.2 206.3C291.8 203.6 288.4 198.1 288.4 192C288.4 185.9 291.8 180.4 297.2 177.7L361.2 145.7C369.1 141.7 378.7 144.9 382.7 152.8C386.6 160.7 383.4 170.4 375.5 174.3L340.1 192zM512 256C512 397.4 397.4 512 256 512C114.6 512 0 397.4 0 256C0 114.6 114.6 0 256 0C397.4 0 512 114.6 512 256zM256 32C132.3 32 32 132.3 32 256C32 379.7 132.3 480 256 480C379.7 480 480 379.7 480 256C480 132.3 379.7 32 256 32z"/></svg>