<svg xmlns="http://www.w3.org/2000/svg" viewBox="0 0 512 512"><!--! Font Awesome Pro 6.0.0-beta3 by @fontawesome - https://fontawesome.com License - https://fontawesome.com/license (Commercial License) Copyright 2021 Fonticons, Inc. --><path d="M141.5 339.9C148.2 334.1 158.3 334.8 164.1 341.5C182 362.2 212.6 384 256 384C299.4 384 329.1 362.2 347.9 341.5C353.7 334.8 363.8 334.1 370.5 339.9C377.2 345.7 377.9 355.8 372.1 362.5C349.8 388.1 311.1 416 256 416C200.9 416 162.2 388.1 139.9 362.5C134.1 355.8 134.8 345.7 141.5 339.9H141.5zM0 256C0 114.6 114.6 0 256 0C397.4 0 512 114.6 512 256C512 397.4 397.4 512 256 512C114.6 512 0 397.4 0 256zM256 480C379.7 480 480 379.7 480 256C480 239.6 478.2 223.5 474.9 208.1L470.5 234.5C465.3 265.4 438.6 288 407.3 288H328.7C297.4 288 270.7 265.4 265.5 234.5L257.5 186.5C256.9 182.1 256.7 179.5 256.6 176H255.4C255.3 179.5 255.1 182.1 254.5 186.5L246.5 234.5C241.3 265.4 214.6 288 183.3 288H104.7C73.38 288 46.68 265.4 41.53 234.5L37.13 208.1C33.77 223.5 32 239.6 32 256C32 379.7 132.3 480 256 480zM265.2 144C276.2 125 296.7 112 320.7 112H415.3C419.1 112 424.4 112.5 428.8 113.4C387.7 63.68 325.5 32 256 32C186.5 32 124.3 63.68 83.25 113.4C87.56 112.5 92.05 112 96.66 112H191.3C215.3 112 235.8 125 246.8 144H265.2zM297.1 229.3C298.9 240.3 306.3 249.2 315.1 253.4L361.4 208H336C329.5 208 323.7 204.1 321.2 198.1C318.7 192.1 320.1 185.3 324.7 180.7L361.4 144H320.7C300.9 144 285.8 161.8 289.1 181.3L297.1 229.3zM407.3 256C422.1 256 436.3 244.7 438.9 229.3L446.9 181.3C450.2 161.8 435.1 144 415.3 144H406.6L374.6 176H400C406.5 176 412.3 179.9 414.8 185.9C417.3 191.9 415.9 198.7 411.3 203.3L358.6 256L407.3 256zM96.66 144C76.89 144 61.85 161.8 65.1 181.3L73.1 229.3C74.93 240.3 82.26 249.2 91.99 253.4L137.4 208H112C105.5 208 99.69 204.1 97.22 198.1C94.74 192.1 96.11 185.3 100.7 180.7L137.4 144H96.66zM187.3 203.3L134.6 256H183.3C198.1 256 212.3 244.7 214.9 229.3L222.9 181.3C226.2 161.8 211.1 144 191.3 144H182.6L150.6 176H175.1C182.5 176 188.3 179.9 190.8 185.9C193.3 191.9 191.9 198.7 187.3 203.3L187.3 203.3z"/></svg>