<svg xmlns="http://www.w3.org/2000/svg" viewBox="0 0 640 512"><!--! Font Awesome Pro 6.1.1 by @fontawesome - https://fontawesome.com License - https://fontawesome.com/license (Commercial License) Copyright 2022 Fonticons, Inc. --><path d="M90.24 184.6C81.1 181.4 77.89 172.1 81.07 163.9C118 68.05 211.1 0 319.1 0C428.9 0 521.1 68.05 558.9 163.9C562.1 172.1 558 181.4 549.8 184.6C541.5 187.8 532.2 183.7 529.1 175.4C496.7 91.49 415.3 32 319.1 32C224.7 32 143.3 91.49 110.9 175.4C107.7 183.7 98.49 187.8 90.24 184.6H90.24zM319.1 480C330.1 480 340.1 479.3 349.9 478C358.6 476.9 366.7 483 367.9 491.8C369 500.5 362.9 508.6 354.1 509.7C342.9 511.2 331.6 512 319.1 512C308.4 512 297.1 511.2 285.9 509.7C277.1 508.6 270.1 500.5 272.1 491.8C273.3 483 281.4 476.9 290.1 478C299.9 479.3 309.9 480 319.1 480H319.1zM287.5 396.6C281.5 461.3 227.1 512 160.8 512C127.1 512 94.72 498.6 70.86 474.7L14.06 417.9C-4.052 399.8-4.665 370.8 12.22 352C-4.665 333.2-4.052 304.2 14.06 286.1C15.1 285 16.18 284 17.29 283.1C13.59 267.4 17.84 250.3 30.06 238.1C42.28 225.8 59.44 221.6 75.1 225.3C76.03 224.2 77.02 223.1 78.06 222.1C96.8 203.3 127.2 203.3 145.9 222.1L193 269.1C202.4 255.4 218.1 246.4 236 246.4C264.7 246.4 288 269.7 288 298.4V363.8C297.8 366.5 308.4 368 319.1 368C331.6 368 342.2 366.5 352 363.8V298.4C352 269.7 375.3 246.4 404 246.4C421.9 246.4 437.6 255.4 446.1 269.1L494.1 222.1C512.8 203.3 543.2 203.3 561.9 222.1C562.1 223.1 563.1 224.2 564.9 225.3C580.6 221.6 597.7 225.8 609.9 238.1C622.2 250.3 626.4 267.4 622.7 283.1C623.8 284 624.9 285 625.9 286.1C644.1 304.2 644.7 333.2 627.8 352C644.7 370.8 644.1 399.8 625.9 417.9L569.1 474.7C545.3 498.6 512.9 512 479.2 512C412.9 512 358.5 461.3 352.5 396.6C342.4 398.8 331.6 400 319.1 400C308.4 400 297.6 398.8 287.5 396.6H287.5zM546.5 452.1L603.3 395.3C608.9 389.7 609.5 381 605.1 374.8C604.6 374.1 603.1 373.3 603.3 372.7C597.1 366.4 586.9 366.4 580.7 372.7L561.4 392C558.8 394.6 554.6 394.6 552 392C549.4 389.4 549.4 385.2 552 382.6L603.3 331.3C608.9 325.7 609.5 317 605.1 310.8C604.6 310.1 603.1 309.3 603.3 308.7C597.1 302.4 586.9 302.5 580.7 308.7L529.4 360C526.8 362.6 522.6 362.6 520 360C517.4 357.4 517.4 353.2 520 350.6L587.3 283.3C590.4 280.2 592 276.1 592 272C592 267.9 590.4 263.8 587.3 260.7C584.2 257.6 580.1 256 576 256C571.9 256 567.8 257.6 564.7 260.7L497.4 328C494.8 330.6 490.6 330.6 488 328C485.4 325.4 485.4 321.2 488 318.6L539.3 267.3C545.6 261.1 545.6 250.9 539.3 244.7C538.7 244 537.9 243.4 537.2 242.9C530.1 238.5 522.3 239.1 516.7 244.7L437.7 323.7C432.6 328.8 424 325.2 424 318.1V298.4C424 297.4 423.9 296.4 423.8 295.4C423.7 294.6 423.5 293.7 423.2 292.9C420.8 284.5 413.1 278.4 404 278.4C392.1 278.4 384 287.4 384 298.4V384.8C384 437.4 426.6 480 479.2 480C504.4 480 528.7 469.1 546.5 452.1L546.5 452.1zM152 318.6C154.6 321.2 154.6 325.4 152 328C149.4 330.6 145.2 330.6 142.6 328L75.31 260.7C72.19 257.6 68.1 256 64 256C59.91 256 55.81 257.6 52.69 260.7C49.56 263.8 48 267.9 48 272C48 276.1 49.57 280.2 52.69 283.3L120 350.6C122.6 353.2 122.6 357.4 120 360C117.4 362.6 113.2 362.6 110.6 360L59.31 308.7C53.07 302.4 42.94 302.4 36.69 308.7C36.02 309.3 35.43 310.1 34.91 310.8C30.51 317 31.11 325.7 36.7 331.3L88 382.6C90.59 385.2 90.59 389.4 88 392C85.41 394.6 81.22 394.6 78.63 392L59.31 372.7C53.07 366.4 42.94 366.4 36.69 372.7C36.02 373.3 35.43 374.1 34.91 374.8C30.51 381 31.1 389.7 36.69 395.3L93.49 452.1C111.3 469.1 135.6 480 160.8 480C213.4 480 256 437.4 256 384.8V298.4C256 287.4 247 278.4 236 278.4C226.9 278.4 219.2 284.5 216.8 292.9C216.5 293.7 216.3 294.6 216.2 295.4C216.1 296.4 216 297.4 216 298.4V318.1C216 325.2 207.4 328.8 202.3 323.7L123.3 244.7C117.7 239.1 109 238.5 102.8 242.9C102.1 243.4 101.3 244 100.7 244.7C94.44 250.9 94.44 261.1 100.7 267.3L152 318.6zM220.5 178.5C214.2 185.7 209.7 195.3 207.5 203.9C205.4 212.5 196.7 217.7 188.1 215.5C179.5 213.4 174.3 204.7 176.5 196.1C179.7 183.4 186.3 169 196.3 157.5C206.4 145.9 221.2 136 239.1 136C258.8 136 273.6 145.9 283.7 157.5C293.7 169 300.3 183.4 303.5 196.1C305.7 204.7 300.5 213.4 291.9 215.5C283.3 217.7 274.6 212.5 272.5 203.9C270.3 195.3 265.8 185.7 259.5 178.5C253.4 171.4 246.8 168 240 168C233.2 168 226.6 171.4 220.5 178.5H220.5zM348.1 215.5C339.5 213.4 334.3 204.7 336.5 196.1C339.7 183.4 346.3 169 356.3 157.5C366.4 145.9 381.2 136 400 136C418.8 136 433.6 145.9 443.7 157.5C453.7 169 460.3 183.4 463.5 196.1C465.7 204.7 460.5 213.4 451.9 215.5C443.3 217.7 434.6 212.5 432.5 203.9C430.3 195.3 425.8 185.7 419.5 178.5C413.4 171.4 406.8 168 400 168C393.2 168 386.6 171.4 380.5 178.5C374.2 185.7 369.7 195.3 367.5 203.9C365.4 212.5 356.7 217.7 348.1 215.5H348.1z"/></svg>