<svg xmlns="http://www.w3.org/2000/svg" viewBox="0 0 512 512"><!--! Font Awesome Pro 6.0.0-beta3 by @fontawesome - https://fontawesome.com License - https://fontawesome.com/license (Commercial License) Copyright 2021 Fonticons, Inc. --><path d="M195.2 233.6C177.6 210.1 142.4 210.1 124.8 233.6C119.5 240.7 109.5 242.1 102.4 236.8C95.33 231.5 93.9 221.5 99.2 214.4C129.6 173.9 190.4 173.9 220.8 214.4C226.1 221.5 224.7 231.5 217.6 236.8C210.5 242.1 200.5 240.7 195.2 233.6zM294.4 236.8C287.3 231.5 285.9 221.5 291.2 214.4C321.6 173.9 382.4 173.9 412.8 214.4C418.1 221.5 416.7 231.5 409.6 236.8C402.5 242.1 392.5 240.7 387.2 233.6C369.6 210.1 334.4 210.1 316.8 233.6C311.5 240.7 301.5 242.1 294.4 236.8zM320 328V352C320 387.3 291.3 416 256 416C220.7 416 192 387.3 192 352V328C192 292.7 220.7 264 256 264C291.3 264 320 292.7 320 328zM288 352V328C288 310.3 273.7 296 256 296C238.3 296 224 310.3 224 328V352C224 369.7 238.3 384 256 384C273.7 384 288 369.7 288 352zM0 256C0 114.6 114.6 0 256 0C397.4 0 512 114.6 512 256C512 397.4 397.4 512 256 512C114.6 512 0 397.4 0 256zM384 439.8C442 399.4 480 332.1 480 256C480 132.3 379.7 32 256 32C132.3 32 32 132.3 32 256C32 332.1 69.97 399.4 128 439.8V272C128 263.2 135.2 256 144 256C152.8 256 160 263.2 160 272V458.4C189.1 472.3 221.6 480 256 480C290.4 480 322.9 472.3 352 458.4V272C352 263.2 359.2 256 368 256C376.8 256 384 263.2 384 272V439.8z"/></svg>