<svg xmlns="http://www.w3.org/2000/svg" viewBox="0 0 512 512"><!--! Font Awesome Pro 6.0.0-beta3 by @fontawesome - https://fontawesome.com License - https://fontawesome.com/license (Commercial License) Copyright 2021 Fonticons, Inc. --><path d="M385.5 288C399.7 288 410.1 300.3 407.3 314C389.2 381.1 328.3 432 256 432C183.7 432 122.8 381.1 104.7 314C101.1 300.3 112.3 288 126.5 288H385.5zM371.7 320H140.3C158.9 367.2 204 400 256 400C308 400 353.1 367.2 371.7 320H371.7zM200.4 192C200.4 205.3 189.6 216 176.4 216C163.1 216 152.4 205.3 152.4 192C152.4 178.7 163.1 168 176.4 168C189.6 168 200.4 178.7 200.4 192zM312.4 192C312.4 178.7 323.1 168 336.4 168C349.6 168 360.4 178.7 360.4 192C360.4 205.3 349.6 216 336.4 216C323.1 216 312.4 205.3 312.4 192zM512 256C512 397.4 397.4 512 256 512C114.6 512 0 397.4 0 256C0 114.6 114.6 0 256 0C397.4 0 512 114.6 512 256zM256 32C132.3 32 32 132.3 32 256C32 379.7 132.3 480 256 480C379.7 480 480 379.7 480 256C480 132.3 379.7 32 256 32z"/></svg>