<svg xmlns="http://www.w3.org/2000/svg" viewBox="0 0 512 512"><!--! Font Awesome Pro 6.0.0-beta3 by @fontawesome - https://fontawesome.com License - https://fontawesome.com/license (Commercial License) Copyright 2021 Fonticons, Inc. --><path d="M255.1 420.3C237.2 420.3 219.3 423.7 203.1 429.7C191.9 433.9 179.5 432.1 170.7 425.3C166.2 421.8 162.4 416.7 160.8 410.1C159.2 403.5 160.3 396.7 163.5 390.7C180.9 358 215.9 335.1 256 335.1C296.1 335.1 331.2 358 348.5 390.7C351.7 396.7 352.9 403.5 351.3 410.2C349.7 416.7 345.8 421.8 341.3 425.3C332.5 432.1 320.1 433.9 308.9 429.8C292.7 423.7 274.9 420.3 255.1 420.3L255.1 420.3zM196.4 398.1C214.1 391.8 235 388.3 255.1 388.3C276.1 388.3 297.1 391.8 315.6 398.2C302.7 380 280.9 367.1 256 367.1C231.1 367.1 209.4 380 196.4 398.1V398.1zM200.4 272C200.4 285.3 189.6 296 176.4 296C163.1 296 152.4 285.3 152.4 272C152.4 258.7 163.1 248 176.4 248C189.6 248 200.4 258.7 200.4 272zM312.4 272C312.4 258.7 323.1 248 336.4 248C349.6 248 360.4 258.7 360.4 272C360.4 285.3 349.6 296 336.4 296C323.1 296 312.4 285.3 312.4 272zM192 160C187.6 160 183.2 160.3 178.1 160.9C157.8 163.7 138.4 173.2 122.9 187.7C116.5 193.7 106.3 193.4 100.3 186.9C94.28 180.5 94.62 170.3 101.1 164.3C121.1 145.6 146.6 132.9 174.8 129.1C180.4 128.4 186.2 128 192 128C200.8 128 208 135.2 208 144C208 152.8 200.8 160 192 160zM333 160.9C328.8 160.3 324.4 160 320 160C311.2 160 304 152.8 304 144C304 135.2 311.2 128 320 128C325.8 128 331.6 128.4 337.2 129.1C365.4 132.9 390.9 145.6 410.9 164.3C417.4 170.3 417.7 180.5 411.7 186.9C405.7 193.4 395.5 193.7 389.1 187.7C373.6 173.2 354.2 163.7 333 160.9zM512 256C512 397.4 397.4 512 256 512C114.6 512 0 397.4 0 256C0 114.6 114.6 0 256 0C397.4 0 512 114.6 512 256zM256 32C132.3 32 32 132.3 32 256C32 379.7 132.3 480 256 480C379.7 480 480 379.7 480 256C480 132.3 379.7 32 256 32z"/></svg>