<svg xmlns="http://www.w3.org/2000/svg" viewBox="0 0 512 512"><!--! Font Awesome Pro 6.0.0-beta3 by @fontawesome - https://fontawesome.com License - https://fontawesome.com/license (Commercial License) Copyright 2021 Fonticons, Inc. --><path d="M256 380.8L295.1 354.7C300.5 351.1 307.5 351.1 312.9 354.7L353.1 381.5L376.8 369.7C384.7 365.7 394.4 368.9 398.3 376.8C402.3 384.7 399.1 394.4 391.2 398.3L359.2 414.3C354 416.9 347.9 416.5 343.1 413.3L304 387.2L264.9 413.3C259.5 416.9 252.5 416.9 247.1 413.3L207.1 387.2L168.9 413.3C164.1 416.5 157.1 416.9 152.8 414.3L120.8 398.3C112.9 394.4 109.7 384.7 113.7 376.8C117.6 368.9 127.3 365.7 135.2 369.7L158.8 381.5L199.1 354.7C204.5 351.1 211.5 351.1 216.9 354.7L256 380.8zM150.8 209.7L214.8 241.7C220.2 244.4 223.6 249.9 223.6 256C223.6 262.1 220.2 267.6 214.8 270.3L150.8 302.3C142.9 306.3 133.3 303.1 129.3 295.2C125.4 287.3 128.6 277.6 136.5 273.7L171.9 255.1L136.5 238.3C128.6 234.4 125.4 224.7 129.3 216.8C133.3 208.9 142.9 205.7 150.8 209.7V209.7zM340.1 256L375.5 273.7C383.4 277.6 386.6 287.3 382.7 295.2C378.7 303.1 369.1 306.3 361.2 302.3L297.2 270.3C291.8 267.6 288.4 262.1 288.4 256C288.4 249.9 291.8 244.4 297.2 241.7L361.2 209.7C369.1 205.7 378.7 208.9 382.7 216.8C386.6 224.7 383.4 234.4 375.5 238.3L340.1 256zM512 256C512 397.4 397.4 512 256 512C114.6 512 0 397.4 0 256C0 114.6 114.6 0 256 0C397.4 0 512 114.6 512 256zM256 32C132.3 32 32 132.3 32 256C32 379.7 132.3 480 256 480C379.7 480 480 379.7 480 256C480 132.3 379.7 32 256 32z"/></svg>