<svg xmlns="http://www.w3.org/2000/svg" viewBox="0 0 512 512"><!--! Font Awesome Pro 6.0.0-beta3 by @fontawesome - https://fontawesome.com License - https://fontawesome.com/license (Commercial License) Copyright 2021 Fonticons, Inc. --><path d="M152.4 256C152.4 242.7 163.1 232 176.4 232C189.6 232 200.4 242.7 200.4 256C200.4 269.3 189.6 280 176.4 280C163.1 280 152.4 269.3 152.4 256zM360.4 256C360.4 269.3 349.6 280 336.4 280C323.1 280 312.4 269.3 312.4 256C312.4 242.7 323.1 232 336.4 232C349.6 232 360.4 242.7 360.4 256zM122.9 187.7C116.5 193.7 106.3 193.4 100.3 186.9C94.28 180.5 94.62 170.3 101.1 164.3C121.1 145.6 146.6 132.9 174.8 129.1C180.4 128.4 186.2 128 192 128C200.8 128 208 135.2 208 144C208 152.8 200.8 160 192 160C187.6 160 183.2 160.3 178.1 160.9C157.8 163.7 138.4 173.2 122.9 187.7zM304 144C304 135.2 311.2 128 320 128C325.8 128 331.6 128.4 337.2 129.1C365.4 132.9 390.9 145.6 410.9 164.3C417.4 170.3 417.7 180.5 411.7 186.9C405.7 193.4 395.5 193.7 389.1 187.7C373.6 173.2 354.2 163.7 333 160.9C328.8 160.3 324.4 160 320 160C311.2 160 304 152.8 304 144zM320 384C320 419.3 291.3 448 256 448C220.7 448 192 419.3 192 384C192 348.7 220.7 320 256 320C291.3 320 320 348.7 320 384zM256 352C238.3 352 224 366.3 224 384C224 401.7 238.3 416 256 416C273.7 416 288 401.7 288 384C288 366.3 273.7 352 256 352zM512 256C512 397.4 397.4 512 256 512C114.6 512 0 397.4 0 256C0 114.6 114.6 0 256 0C397.4 0 512 114.6 512 256zM256 32C132.3 32 32 132.3 32 256C32 379.7 132.3 480 256 480C379.7 480 480 379.7 480 256C480 132.3 379.7 32 256 32z"/></svg>