<svg xmlns="http://www.w3.org/2000/svg" viewBox="0 0 512 512"><!--! Font Awesome Pro 6.0.0-beta3 by @fontawesome - https://fontawesome.com License - https://fontawesome.com/license (Commercial License) Copyright 2021 Fonticons, Inc. --><path d="M176.4 183.1C176.4 197.3 165.6 207.1 152.4 207.1C139.1 207.1 128.4 197.3 128.4 183.1C128.4 170.7 139.1 159.1 152.4 159.1C165.6 159.1 176.4 170.7 176.4 183.1zM160 352C160 343.2 167.2 336 176 336C193.7 336 221.3 339.5 248.2 349.9C274.1 360.3 303.1 378.3 318.3 408.8C322.3 416.7 319.1 426.4 311.2 430.3C303.3 434.3 293.6 431.1 289.7 423.2C279.3 402.5 259.4 388.5 236.6 379.7C213.9 370.9 190.3 368 176 368C167.2 368 160 360.8 160 352L160 352zM281.1 124.5C275.1 130 265 128.9 259.5 121.1C253.1 115.1 255.1 105 262 99.51L285.2 80.92C298.9 69.97 315.9 63.1 333.5 63.1C348.7 63.1 363.6 68.51 376.3 76.97L384.9 82.69C392.2 87.59 394.2 97.52 389.3 104.9C384.4 112.2 374.5 114.2 367.1 109.3L358.5 103.6C351.1 98.64 342.4 95.1 333.5 95.1C323.2 95.1 313.2 99.49 305.2 105.9L281.1 124.5zM288.4 215.1C288.4 202.7 299.1 191.1 312.4 191.1C325.6 191.1 336.4 202.7 336.4 215.1C336.4 229.3 325.6 239.1 312.4 239.1C299.1 239.1 288.4 229.3 288.4 215.1zM493.1 475.3L504.5 482.4C511.1 487.1 514.3 496.1 509.6 504.5C504.9 511.1 495 514.3 487.5 509.6L476.2 502.5C454.3 488.8 437.4 469.1 427.2 446.3C381.9 487.2 321.8 512 256 512C114.6 512 0 397.4 0 256C0 114.6 114.6 0 256 0C397.4 0 512 114.6 512 256C512 318.8 489.4 376.3 451.9 420.9C458.4 443.2 472.9 462.7 493.1 475.3L493.1 475.3zM448 371.4C468.3 337.7 480 298.2 480 255.1C480 132.3 379.7 31.1 256 31.1C132.3 31.1 32 132.3 32 255.1C32 379.7 132.3 480 256 480C319.3 480 376.5 453.7 417.2 411.5C416.4 405.7 416 399.9 416 393.9V287.5C397.6 316.6 365.1 336 328 336C270.6 336 224 289.4 224 231.1C224 174.6 270.6 127.1 328 127.1C377.3 127.1 418.5 162.2 429.3 208.2C430.2 208.1 431.1 207.1 432 207.1C440.8 207.1 448 215.2 448 223.1V371.4zM328 303.1C367.8 303.1 400 271.8 400 231.1C400 192.2 367.8 159.1 328 159.1C288.2 159.1 256 192.2 256 231.1C256 271.8 288.2 303.1 328 303.1z"/></svg>