<svg xmlns="http://www.w3.org/2000/svg" viewBox="0 0 512 512"><!--! Font Awesome Pro 6.0.0-beta3 by @fontawesome - https://fontawesome.com License - https://fontawesome.com/license (Commercial License) Copyright 2021 Fonticons, Inc. --><path d="M256 400C244.6 400 236.6 405.4 231.9 410.7C225.1 417.3 215.9 417.8 209.3 411.9C202.7 405.1 202.2 395.9 208.1 389.3C217.3 379.1 233.3 368 256 368C278.7 368 294.7 379.1 303.9 389.3C309.8 395.9 309.3 405.1 302.7 411.9C296.1 417.8 286 417.3 280.1 410.7C275.4 405.4 267.4 400 256 400H256zM384 240C384 257.7 369.7 272 352 272C334.3 272 320 257.7 320 240C337.7 240 352 225.7 352 208C369.7 208 384 222.3 384 240zM351.4 107.6L352.9 112.8C359.9 137.4 381 155.5 406.5 158.7L417.1 160.1C426.8 161.2 432.1 169.2 431.9 177.1C430.9 186.1 423.1 192 416 192C426 205.4 432 221.1 432 240C432 284.2 396.2 320 352 320C307.8 320 272 284.2 272 240C272 198.5 303.5 164.4 343.1 160.4C333.9 149.6 326.3 136.3 322.1 121.6L320.6 116.4C318.2 107.9 323.1 99.04 331.6 96.62C340.1 94.19 348.1 99.11 351.4 107.6V107.6zM352 192C325.5 192 304 213.5 304 240C304 266.5 325.5 288 352 288C378.5 288 400 266.5 400 240C400 213.5 378.5 192 352 192zM128 240C145.7 240 160 225.7 160 208C177.7 208 192 222.3 192 240C192 257.7 177.7 272 160 272C142.3 272 128 257.7 128 240zM189.9 121.6C185.7 136.3 178.1 149.6 168 160.4C208.5 164.4 240 198.5 240 240C240 284.2 204.2 320 160 320C115.8 320 80 284.2 80 240C80 221.1 85.95 205.4 95.99 192C88.04 192 81.14 186.1 80.12 177.1C79.03 169.2 85.25 161.2 94.02 160.1L105.5 158.7C130.1 155.5 152.1 137.4 159.1 112.8L160.6 107.6C163 99.11 171.9 94.19 180.4 96.62C188.9 99.04 193.8 107.9 191.4 116.4L189.9 121.6zM160 288C186.5 288 208 266.5 208 240C208 213.5 186.5 192 160 192C133.5 192 112 213.5 112 240C112 266.5 133.5 288 160 288zM512 256C512 397.4 397.4 512 256 512C114.6 512 0 397.4 0 256C0 114.6 114.6 0 256 0C397.4 0 512 114.6 512 256zM256 32C132.3 32 32 132.3 32 256C32 379.7 132.3 480 256 480C379.7 480 480 379.7 480 256C480 132.3 379.7 32 256 32z"/></svg>