<svg xmlns="http://www.w3.org/2000/svg" viewBox="0 0 576 512"><!--! Font Awesome Pro 6.1.1 by @fontawesome - https://fontawesome.com License - https://fontawesome.com/license (Commercial License) Copyright 2022 Fonticons, Inc. --><path d="M168.5 445.5C176 450.2 178.2 460.1 173.5 467.6C168.8 475.1 158.9 477.3 151.5 472.6C79.71 427.3 32 347.2 32 256C32 114.6 146.6 0 288 0C429.4 0 544 114.6 544 256C544 347.2 496.3 427.3 424.5 472.6C417.1 477.3 407.2 475.1 402.5 467.6C397.8 460.1 399.1 450.2 407.5 445.5C470.3 405.8 512 335.8 512 256C512 132.3 411.7 32 288 32C164.3 32 64 132.3 64 256C64 335.8 105.7 405.8 168.5 445.5zM256 144C256 99.82 291.8 64 336 64C380.2 64 416 99.82 416 144C416 188.2 380.2 224 336 224C291.8 224 256 188.2 256 144zM336 192C362.5 192 384 170.5 384 144C384 117.5 362.5 96 336 96C332.1 96 328.3 96.47 324.6 97.35C335.9 100.1 344 111.5 344 124C344 139.5 331.5 152 316 152C303.5 152 292.1 143.9 289.4 132.6C288.5 136.3 288 140.1 288 144C288 170.5 309.5 192 336 192zM200 224C200 237.3 189.3 248 176 248C162.7 248 152 237.3 152 224C152 210.7 162.7 200 176 200C189.3 200 200 210.7 200 224zM104 224C104 184.2 136.2 152 176 152C215.8 152 248 184.2 248 224C248 263.8 215.8 296 176 296C136.2 296 104 263.8 104 224zM176 264C198.1 264 216 246.1 216 224C216 201.9 198.1 184 176 184C153.9 184 136 201.9 136 224C136 246.1 153.9 264 176 264zM195.5 390.7C192.2 387.9 189 384.1 185.1 381.9C175.1 371.8 179.5 355.6 191.8 348.5L416.2 218.9C428.5 211.9 444.3 216.9 448 230.6C465.6 295.7 440.9 366.2 383.6 403.7C383.9 406 384 408.3 384 410.6V416C384 469 341 512 288 512C234.1 512 192 469 192 416V410.6C192 403.6 193.2 396.9 195.5 390.7L195.5 390.7zM370.9 373.6C408.6 346.2 427.1 299.5 420.2 253.6L249.7 352C250 352 250.3 352 250.6 352H252.6C265.9 352 278.3 356.6 288 364.5C297.7 356.6 310.1 352 323.4 352H325.4C343.7 352 360.1 360.4 370.9 373.6L370.9 373.6zM323.4 384C316.7 384 310.6 386.7 306.2 391.2L305.9 391.5C304.3 393.2 302.9 395.1 301.8 397.2C300.9 399 300.2 400.9 299.8 402.9C296.1 415.5 279 415.5 276.2 402.9C275.8 400.9 275.1 399 274.2 397.2C273.1 395.1 271.7 393.2 270.1 391.5L269.8 391.2C265.4 386.7 259.3 384 252.6 384H250.6C235.9 384 224 395.9 224 410.6V416C224 451.3 252.7 480 288 480C323.3 480 352 451.3 352 416V410.6C352 395.9 340.1 384 325.4 384H323.4z"/></svg>