<svg xmlns="http://www.w3.org/2000/svg" viewBox="0 0 640 512"><!--! Font Awesome Pro 6.0.0-beta3 by @fontawesome - https://fontawesome.com License - https://fontawesome.com/license (Commercial License) Copyright 2021 Fonticons, Inc. --><path d="M543.2 274.5C543.7 268.4 544 262.2 544 256C544 132.3 443.7 32 319.1 32C196.3 32 95.1 132.3 95.1 256C95.1 262.2 96.25 268.4 96.75 274.5C86.27 272 75.35 271.4 64.53 272.6C64.18 267.1 63.1 261.6 63.1 256C63.1 114.6 178.6 0 319.1 0C461.4 0 576 114.6 576 256C576 261.6 575.8 267.1 575.5 272.6C564.6 271.4 553.7 272 543.2 274.5L543.2 274.5zM401.2 498.9C375.7 507.4 348.4 512 319.1 512C291.6 512 264.4 507.4 238.9 498.9C237.3 486.7 235.2 474.5 232.5 462.3C259.4 473.7 288.9 480 319.1 480C351.1 480 380.7 473.7 407.6 462.2C404.8 474.5 402.7 486.7 401.2 498.9V498.9zM211.4 135.1C230.9 126.5 253.2 124.7 272.4 135.2C291.8 145.8 301.7 165.5 303.6 186.4C305.6 207.2 299.8 230.3 287 251.3C274.2 272.3 256.1 288.3 236.6 296.9C217.1 305.5 194.8 307.3 175.6 296.8C156.2 286.2 146.3 266.5 144.4 245.6C142.4 224.8 148.2 201.7 160.1 180.7C173.8 159.7 191.9 143.7 211.4 135.1V135.1zM224.3 164.4C211.3 170.1 197.1 181.5 188.3 197.4C178.6 213.3 175 229.6 176.2 242.6C177.4 255.7 183.1 264.4 190.9 268.7C199 273.1 210.5 273.4 223.7 267.6C236.7 261.9 250 250.5 259.7 234.6C269.4 218.7 272.1 202.4 271.8 189.4C270.6 176.3 264.9 167.6 257 163.3C248.1 158.9 237.5 158.6 224.3 164.4V164.4zM479 180.7C491.8 201.7 497.6 224.8 495.6 245.6C493.7 266.5 483.8 286.2 464.4 296.8C445.2 307.3 422.9 305.5 403.4 296.9C383.9 288.3 365.8 272.3 352.1 251.3C340.2 230.3 334.4 207.2 336.4 186.4C338.3 165.5 348.2 145.8 367.6 135.2C386.8 124.7 409.1 126.5 428.6 135.1C448.1 143.7 466.2 159.7 479 180.7V180.7zM382.9 163.3C375.1 167.6 369.4 176.3 368.2 189.4C367 202.4 370.6 218.7 380.3 234.6C389.1 250.5 403.3 261.9 416.3 267.6C429.5 273.4 440.1 273.1 449 268.7C456.9 264.4 462.6 255.7 463.8 242.6C464.1 229.6 461.4 213.3 451.7 197.4C442 181.5 428.7 170.1 415.7 164.4C402.5 158.6 391 158.9 382.9 163.3V163.3zM255.1 352C255.1 316.7 284.7 288 319.1 288C355.3 288 384 316.7 384 352V384C384 419.3 355.3 448 319.1 448C284.7 448 255.1 419.3 255.1 384V352zM319.1 320C302.3 320 287.1 334.3 287.1 352V384C287.1 401.7 302.3 416 319.1 416C337.7 416 352 401.7 352 384V352C352 334.3 337.7 320 319.1 320zM182.6 415.6C196.3 447.4 205.1 481.3 207.4 512H65.82C62.99 470.2 47.86 428.5 25.78 395.1C19.19 385.2 16 373.9 16 362.8C15.1 343.6 25.47 324.8 42.86 313.6C65.33 299 94.13 301.6 113.6 317.8C143 342.3 166.5 378.2 182.6 415.6V415.6zM52.45 377.4L52.47 377.4C77.68 415.6 95.02 463.4 97.88 511.1L175.3 512C172.1 486 165.4 456.5 153.2 428.2C138.4 393.9 117.6 362.8 93.15 342.4C84.1 334.9 70.62 333.7 60.25 340.4C52.27 345.6 47.1 354.1 48 362.8C48 367.8 49.42 372.8 52.45 377.4V377.4zM614.3 395.1C592.2 428.5 577.1 470.2 574.2 512H432.6C434.1 481.3 443.8 447.4 457.4 415.6C473.5 378.2 496.1 342.3 526.4 317.8C545.9 301.6 574.7 299 597.2 313.6C615.4 325.4 624.9 345.4 623.1 365.5C623.5 375.8 620.3 385.1 614.3 395.1L614.3 395.1zM592 364C592.4 354.9 588.2 345.8 579.8 340.4C569.4 333.7 555.9 334.9 546.9 342.4C522.5 362.8 501.6 393.9 486.8 428.2C474.7 456.5 467 486 464.7 512L542.2 511.1C545 463.4 562.4 415.6 587.6 377.4L587.6 377.4C590.4 373.2 591.8 368.6 592 364z"/></svg>