<svg xmlns="http://www.w3.org/2000/svg" viewBox="0 0 512 512"><!--! Font Awesome Pro 6.0.0-beta3 by @fontawesome - https://fontawesome.com License - https://fontawesome.com/license (Commercial License) Copyright 2021 Fonticons, Inc. --><path d="M344 288C374.9 288 400 313.1 400 344C400 374.9 374.9 400 344 400H168C137.1 400 112 374.9 112 344C112 313.1 137.1 288 168 288H344zM168 320C154.7 320 144 330.7 144 344C144 357.3 154.7 368 168 368H176V320H168zM208 368H240V320H208V368zM304 320H272V368H304V320zM336 368H344C357.3 368 368 357.3 368 344C368 330.7 357.3 320 344 320H336V368zM200.4 208C200.4 221.3 189.6 232 176.4 232C163.1 232 152.4 221.3 152.4 208C152.4 194.7 163.1 184 176.4 184C189.6 184 200.4 194.7 200.4 208zM312.4 208C312.4 194.7 323.1 184 336.4 184C349.6 184 360.4 194.7 360.4 208C360.4 221.3 349.6 232 336.4 232C323.1 232 312.4 221.3 312.4 208zM0 256C0 114.6 114.6 0 256 0C397.4 0 512 114.6 512 256C512 397.4 397.4 512 256 512C114.6 512 0 397.4 0 256zM256 32C132.3 32 32 132.3 32 256C32 379.7 132.3 480 256 480C379.7 480 480 379.7 480 256C480 132.3 379.7 32 256 32z"/></svg>