<svg xmlns="http://www.w3.org/2000/svg" viewBox="0 0 576 512"><!--! Font Awesome Pro 6.1.1 by @fontawesome - https://fontawesome.com License - https://fontawesome.com/license (Commercial License) Copyright 2022 Fonticons, Inc. --><path d="M112.2 448c8.834 0 15.99-7.162 15.99-15.1s-7.158-16-15.99-16c-8.832 0-15.99 7.164-15.99 16S103.3 448 112.2 448zM128.2 368c0 8.832 7.162 15.1 15.99 15.1c8.834 0 15.99-7.164 15.99-15.1c0-8.838-7.158-16-15.99-16C135.3 352 128.2 359.2 128.2 368zM80.19 352c-8.834 0-15.1 7.164-15.1 16c0 8.832 7.16 15.1 15.99 15.1c8.832 0 15.99-7.164 15.99-15.1C96.18 359.2 89.02 352 80.19 352zM573.3 350.7C568.9 351.2 564.6 352 560 352C498.1 352 448 301.9 448 240c0-4.615 .8145-9.006 1.357-13.47C441.8 224.8 435.5 224 431.2 224H416c-6.146 .1699-11.69 .0469-15.21 .8438c-9.309 2.107-15.9 7.826-21.18 12.42c-2.342 2.031-4.748 4.141-6.309 4.891c-1.75 .8438-4.967 1.453-8.123 2.047c-6.748 1.281-15.15 2.859-22.37 8.719c-7.309 5.875-10.74 13.84-13.49 20.23c-1.281 2.953-2.592 6-3.779 7.5s-3.842 3.469-6.373 5.375c-5.561 4.125-12.43 9.25-16.49 17.72c-3.998 8.375-3.748 16.98-3.529 23.92c.0938 3.266 .1875 6.656-.25 8.594c-.4375 1.842-1.969 4.764-3.436 7.576c-3.25 6.188-7.311 13.89-7.342 23.38c-.0313 9.154 3.842 16.75 6.936 22.84c1.5 2.969 3.061 6.031 3.529 8.094c.4375 2.109 .3125 5.562 .1562 8.906c-.2813 6.873-.625 15.42 3.217 23.72c4 8.625 10.9 13.88 16.43 18.09c2.5 1.891 5.061 3.859 6.154 5.281c1.219 1.562 2.531 4.672 3.811 7.672c2.688 6.391 6.061 14.36 13.25 20.27c7.246 5.967 15.65 7.639 22.4 8.998c3.094 .6094 6.279 1.234 7.936 2.078c1.625 .8125 4.061 2.984 6.436 5.094c5.186 4.625 11.65 10.38 20.8 12.58c9.027 2.125 17.3-.0625 23.96-1.812c3.061-.8125 6.217-1.656 8.121-1.656c.0313 0 .0313 0 .0313 0c1.688 .0156 4.748 .8594 7.686 1.688C443.8 510.4 449.5 512 455.7 512c2.438 0 4.998-.2344 7.592-.8281c9.309-2.109 15.9-7.828 21.18-12.42c2.342-2.031 4.748-4.141 6.311-4.891c1.748-.8438 4.967-1.453 8.121-2.047c6.748-1.281 15.15-2.859 22.37-8.717c7.309-5.875 10.75-13.84 13.49-20.23c1.281-2.953 2.594-6 3.779-7.5c1.188-1.5 3.844-3.469 6.373-5.375c5.561-4.123 12.43-9.248 16.49-17.72c3.998-8.359 3.748-16.98 3.529-23.9c-.0938-3.281-.1875-6.672 .25-8.609c.4375-1.844 1.969-4.766 3.436-7.578C571.9 385.1 575.1 378.3 576 368.8C576 364.6 575.1 358.3 573.3 350.7zM534 392.6c-1.375 5.969-1.188 11.69-1.031 16.73c.0625 3.092 .2187 7.779-.4375 9.139c-.623 1.328-4.311 4.062-6.715 5.875c-4.029 3-8.592 6.391-12.4 11.2c-3.779 4.781-6.029 10.02-8.027 14.64c-1.219 2.828-3.062 7.094-4.217 8.016c-1.062 .8281-5.561 1.672-8.248 2.172c-4.936 .9375-10.53 2-16.09 4.688c-5.404 2.609-9.621 6.297-13.37 9.547c-2.312 2-5.779 5.031-7.248 5.359c-1.373 .4687-5.779-.9062-8.652-1.703c-4.811-1.359-11.03-2.688-16.37-2.891c-6.092 0-11.56 1.453-16.37 2.734c-2.779 .75-7.09 1.906-8.277 1.609c-1.344-.3438-4.842-3.469-6.967-5.344c-3.748-3.344-7.996-7.125-13.43-9.844c-5.467-2.734-11.03-3.844-15.93-4.828c-2.748-.5469-7.309-1.453-8.371-2.328c-1.094-.9219-2.969-5.359-4.092-8.016c-1.969-4.639-4.188-9.904-7.936-14.76c-3.717-4.781-8.184-8.188-12.12-11.19c-2.561-1.953-6.09-4.641-6.746-6.062c-.5938-1.297-.4062-6.109-.2813-8.967c.1875-5.109 .4375-10.91-.9062-17.02c-1.312-6.109-3.936-11.27-6.248-15.81c-1.404-2.701-3.467-6.795-3.467-8.232c0-1.625 2.125-5.625 3.654-8.547c2.312-4.406 4.936-9.391 6.311-15.33c1.375-5.969 1.188-11.69 1.031-16.73c-.0625-3.094-.2187-7.781 .4375-9.141c.625-1.328 4.311-4.062 6.715-5.875c4.031-3 8.592-6.391 12.4-11.2c3.779-4.779 6.029-10.01 8.027-14.64c1.219-2.828 3.062-7.094 4.219-8.016c1.061-.8281 5.559-1.672 8.246-2.172c4.936-.9375 10.53-2 16.09-4.688c5.404-2.609 9.621-6.297 13.37-9.545c2.312-2 5.779-5.031 7.248-5.359c.5547-.1172 4.561-.1543 9.764-.1562c7.162 64.05 55.93 115.3 118.9 125.7C535.3 387 534.3 391.4 534 392.6zM169.4 256.3C170.7 256.7 174.3 259.8 176.4 261.7C180.1 264.1 184.3 268.8 189.8 271.5c5.467 2.719 11.03 3.828 15.93 4.812c2.75 .5469 7.311 1.469 8.373 2.328C215.2 279.6 217 283.1 218.2 286.6C220.1 291.3 222.4 296.6 226.1 301.4c3.656 4.734 8.061 8.156 11.93 11.17C240.2 314.2 242.4 315.8 244.2 317.8C250 324.4 260.1 324.1 266.7 319.2C273.3 313.3 273.1 303.2 268.1 296.6c-2.998-3.391-6.654-6.359-10.4-9.266c-2.498-1.938-5.061-3.938-6.248-5.469C250.2 280.3 248.9 277.2 247.6 274.2C244.9 267.8 241.6 259.8 234.4 253.9C227.2 247.1 218.8 246.3 212 244.1c-3.092-.625-6.279-1.25-7.934-2.078C202.5 242.1 200 239.9 197.7 237.8C192.5 233.2 186 227.4 176.8 225.2C167.8 223 159.5 225.2 152.9 226.1C149.8 227.8 146.7 228.7 144.8 228.7c-.0313 0-.0313 0-.0313 0C143 228.6 139.1 227.8 137 226.1C130.4 225.1 121.1 222.7 112.6 224.8C103.4 226.1 96.78 232.7 91.53 237.3c-2.344 2.031-4.781 4.141-6.342 4.891C83.44 242.1 80.22 243.6 77.06 244.2C70.32 245.5 61.91 247.1 54.7 252.9C47.39 258.8 43.95 266.7 41.17 273.1c-1.279 2.953-2.592 6.016-3.779 7.516S33.58 284.1 31.02 286C25.49 290.2 18.62 295.3 14.56 303.7c-4 8.359-3.75 16.95-3.531 23.86c.0938 3.281 .1875 6.672-.2813 8.703c-.4375 1.842-1.967 4.764-3.436 7.576C4.063 350.1 .0313 357.7 0 367.1c-.0625 9.201 3.812 16.81 6.936 22.94c1.5 2.953 3.061 6 3.529 8.062c.4375 2.094 .3125 5.547 .1562 8.906c-.2813 6.857-.6562 15.4 3.219 23.76c3.998 8.594 10.9 13.83 16.4 18.03c2.5 1.906 5.092 3.875 6.186 5.297c1.219 1.562 2.531 4.672 3.812 7.672c2.686 6.391 6.059 14.36 13.21 20.25c7.248 5.967 15.65 7.654 22.43 8.998c3.061 .625 6.246 1.25 7.902 2.078c1.625 .8125 4.092 3 6.436 5.094c5.186 4.641 11.65 10.39 20.8 12.59c8.996 2.125 17.3-.0625 23.99-1.812c3.061-.8281 7.623-2.188 8.121-1.656c1.719 .0156 4.781 .8594 7.717 1.688C155.7 510.4 161.3 512 167.6 512c2.436 0 4.998-.2344 7.59-.8281c9.309-2.109 15.9-7.828 21.18-12.42c2.344-2.031 4.748-4.141 6.342-4.906c1.717-.8281 4.936-1.453 8.059-2.031c6.748-1.281 15.15-2.859 22.4-8.717c7.309-5.875 10.75-13.84 13.49-20.23c1.281-2.953 2.594-6 3.75-7.469c1.279-1.609 3.936-3.656 6.496-5.625c3.656-2.795 7.811-5.982 11.4-10.28c5.654-6.766 4.748-16.86-2-22.53c-6.746-5.672-16.84-4.75-22.55 2c-1.312 1.594-3.748 3.453-6.342 5.438c-3.904 3.016-8.34 6.422-12.09 11.14c-3.779 4.781-6.027 10.02-8.027 14.64c-1.219 2.828-3.061 7.094-4.186 8c-1.062 .8281-5.592 1.688-8.279 2.188c-4.936 .9375-10.53 2-16.09 4.688c-5.404 2.609-9.623 6.297-13.37 9.547c-2.311 2-5.779 5.031-7.246 5.359c-1.438 .4687-5.779-.9062-8.654-1.703c-4.779-1.344-10.15-2.859-16.18-2.891c-6.777-.5469-11.71 1.438-16.55 2.734c-2.781 .7344-6.779 2.031-8.279 1.609C117.1 479.4 113.6 476.2 111.5 474.3c-3.75-3.328-7.998-7.109-13.43-9.828c-5.467-2.734-11.06-3.844-15.96-4.828c-2.717-.5469-7.246-1.453-8.34-2.328c-1.094-.9219-2.967-5.359-4.092-8.016c-1.969-4.639-4.186-9.904-7.936-14.76c-3.717-4.781-8.184-8.188-12.15-11.2c-2.562-1.953-6.123-4.656-6.748-6.047c-.5938-1.297-.4062-6.078-.2813-8.936c.2187-5.125 .4687-10.92-.875-17.05c-1.311-6.109-3.936-11.27-6.279-15.81c-1.279-2.529-3.436-6.779-3.436-8.232c0-1.625 2.094-5.609 3.623-8.531c2.344-4.422 4.967-9.422 6.311-15.3c1.375-5.984 1.219-11.73 1.062-16.79C42.89 323.6 42.77 318.9 43.42 317.6c.625-1.344 4.311-4.078 6.717-5.875c4.029-3 8.559-6.406 12.37-11.2c3.748-4.779 6.029-9.998 8.029-14.61c1.217-2.828 3.092-7.109 4.248-8.047c1.062-.8281 5.561-1.672 8.246-2.172c4.936-.9375 10.53-2 16.09-4.688c5.404-2.609 9.652-6.312 13.4-9.561c2.281-2 5.748-5.031 7.186-5.344C121.2 255.6 125.5 256.1 128.4 257.8c4.779 1.328 10.15 2.844 16.15 2.875c6.092-.4375 11.75-1.453 16.59-2.734C163.9 257.2 168.2 256 169.4 256.3zM368.1 352c-8.834 0-15.1 7.164-15.1 16c0 8.832 7.16 15.1 15.99 15.1c8.832 0 15.99-7.164 15.99-15.1C384.1 359.2 376.9 352 368.1 352zM400.1 416c-8.832 0-15.1 7.164-15.1 16s7.162 15.1 15.99 15.1c8.834 0 15.99-7.162 15.99-15.1S408.9 416 400.1 416zM256.1 144c0-8.838-7.158-16-15.99-16c-8.834 0-15.1 7.164-15.1 16c0 8.834 7.16 15.1 15.99 15.1C248.1 160 256.1 152.9 256.1 144zM304.7 36.67c5.936 .3906 11.75-1.438 16.59-2.734c2.779-.7344 7.09-1.891 8.277-1.609c1.344 .3438 4.842 3.469 6.967 5.344c3.748 3.344 7.996 7.123 13.43 9.842c5.467 2.734 11.03 3.844 15.93 4.828c2.748 .5469 7.311 1.469 8.371 2.328c1.094 .9219 2.969 5.359 4.094 8.016c1.967 4.641 4.186 9.906 7.934 14.77c3.717 4.779 8.184 8.186 12.12 11.19c2.561 1.953 6.09 4.641 6.777 6.078c.5625 1.297 .375 6.094 .25 8.953c-.1875 5.109-.4375 10.91 .9062 17.01c1.312 6.109 3.936 11.27 6.248 15.81C414 139.2 416.1 143.3 416.1 144.7c0 1.625-2.123 5.625-3.654 8.545c-2.312 4.406-4.936 9.391-6.311 15.34c-1.375 5.969-1.25 11.73-1.125 16.81l.0313 4.936c-.1875 8.844 6.842 16.14 15.68 16.33h.3125c8.686 0 15.81-6.953 15.99-15.67l-.0625-6.279c-.0625-3.391-.125-6.906 .3438-8.953c.4375-1.859 1.969-4.781 3.436-7.594c3.25-6.188 7.311-13.89 7.342-23.37c.0313-9.156-3.842-16.75-6.936-22.84c-1.498-2.969-3.061-6.029-3.529-8.092c-.4375-2.109-.3125-5.562-.1562-8.922c.2813-6.859 .625-15.42-3.217-23.7c-4-8.623-10.9-13.87-16.43-18.09c-2.5-1.891-5.061-3.859-6.154-5.281c-1.219-1.562-2.529-4.672-3.811-7.672c-2.688-6.391-6.061-14.36-13.25-20.26c-7.246-5.953-15.65-7.641-22.4-8.984c-3.062-.6094-6.248-1.25-7.936-2.094C362.6 18.06 360.2 15.88 357.8 13.78c-5.186-4.625-11.65-10.37-20.8-12.58c-9.092-2.203-17.31 .0313-23.96 1.812c-3.123 .8281-7.684 1.859-8.152 1.656c-1.688-.0156-4.748-.8594-7.686-1.688C290.5 1.074 282.1-1.301 272.8 .8555C263.5 2.965 256.9 8.682 251.7 13.28C249.3 15.31 246.9 17.42 245.3 18.17C243.6 19.01 240.4 19.62 237.2 20.21C230.5 21.49 222.1 23.07 214.9 28.93C207.5 34.81 204.1 42.77 201.4 49.16c-1.281 2.953-2.592 6-3.779 7.5S193.7 60.13 191.2 62.04C185.6 66.16 178.8 71.29 174.7 79.76c-3.998 8.375-3.748 16.98-3.529 23.92C171.3 106.9 171.4 110.3 170.9 112.3C170.5 114.1 168.1 117 167.5 119.8C164.3 126 160.2 133.7 160.2 143.2C160.1 152.4 164 159.1 167.1 166.1c1.498 2.969 3.061 6.031 3.498 8.047c.4687 2.219 .375 5.609 .2187 9.188c0 .0625-.0938 3.25-.0938 3.328c-.1875 8.779 6.779 14.53 15.59 14.79C195.5 200.6 202.5 193.2 202.8 184.4c.1875-5.125 .375-10.92-.9375-17.08C200.5 161.3 197.9 156.1 195.6 151.6C194.2 148.8 192.1 144.8 192.1 143.3c0-1.625 2.123-5.625 3.654-8.547C198.1 130.4 200.7 125.4 202.1 119.4c1.375-5.967 1.188-11.69 1.031-16.73C203.1 99.62 202.9 94.93 203.6 93.57C204.2 92.24 207.9 89.51 210.3 87.69c4.031-3 8.592-6.391 12.4-11.2c3.779-4.781 6.029-10.02 8.027-14.64C231.9 59.02 233.8 54.76 234.9 53.84C236 53.01 240.5 52.16 243.2 51.66c4.936-.9375 10.53-2 16.09-4.688c5.404-2.609 9.621-6.295 13.37-9.545c2.312-2 5.779-5.031 7.248-5.359c1.375-.4687 5.779 .9062 8.652 1.719C293.3 35.12 298.7 36.63 304.7 36.67z"/></svg>