<svg xmlns="http://www.w3.org/2000/svg" viewBox="0 0 512 512"><!--! Font Awesome Pro 6.1.1 by @fontawesome - https://fontawesome.com License - https://fontawesome.com/license (Commercial License) Copyright 2022 Fonticons, Inc. --><path d="M346.5 120c-18.13 0-36.25 2-53.88 6l9.25-91.75c.8751-8.75-2-17.38-7.875-23.88C288 3.75 279.5 0 270.5 0c-1.375 0-2.625 .125-4 .25c-83.5 10.5-146.5 81.5-146.5 165.3c0 18.13 2 36.25 6 53.88L34.25 210.1H33.5L31.12 210c-8.875 0-17.38 3.875-23.25 10.5C1.872 227.4-.8781 236.5 .2469 245.5c10.5 83.5 81.5 146.5 165.3 146.5c18.13 0 36.25-2 53.88-6l-9.25 91.75c-.875 8.75 2 17.38 7.875 23.88c7 7.625 17.25 11.38 27.5 10.13c83.5-10.5 146.5-81.5 146.5-165.3c0-18.13-2-36.25-6-53.88l91.75 9.25h.75l2.375 .125c8.875 0 17.38-3.875 23.13-10.5c6.125-6.875 8.875-16 7.75-25C501.3 183 430.3 120 346.5 120zM340.3 255.9l8.625 23.88c7.375 20.25 11.13 42.75 11.13 66.75c0 67.63-51 125-118 134.5l14.13-140.8l-23.88 8.625c-20.25 7.375-42.75 11.13-66.75 11.13c-67.63 0-125-51-134.5-118l140.8 14.13L162.1 232.3C155.7 212 151.1 189.5 151.1 165.5c0-67.5 50.63-124.8 117.9-133.4L255.9 171.8l23.88-8.625c20.25-7.375 42.75-11.13 66.75-11.13c67.63 0 125 51 134.5 118L340.3 255.9zM256 231.1c-13.22 0-24 10.78-24 24s10.78 24 24 24s24-10.78 24-24S269.2 231.1 256 231.1z"/></svg>