<svg xmlns="http://www.w3.org/2000/svg" viewBox="0 0 512 512"><!--! Font Awesome Pro 6.0.0-beta3 by @fontawesome - https://fontawesome.com License - https://fontawesome.com/license (Commercial License) Copyright 2021 Fonticons, Inc. --><path d="M512 416.1C511.1 433.6 497.6 448 480 448h-64c-17.45 0-31.72-14.09-31.1-31.48C383.7 398.9 371.2 384 353.5 384h-19.29C312.1 422.1 271.3 448 224 448s-88.07-25.9-110.2-64H16C7.164 384 0 376.8 0 368C0 359.2 7.164 352 16 352h117.9C147.2 389.2 182.3 416 224 416s76.85-26.83 90.1-64H352c35.29 0 64 28.71 64 64h64c0-70.58-57.42-128-128-128h-37.9C300.8 250.8 265.7 224 224 224S147.2 250.8 133.9 288H16C7.164 288 0 280.8 0 272C0 263.2 7.164 256 16 256h97.75C133.4 222.3 167.6 198.2 208 193.1V144h-128C71.16 144 64 136.8 64 128s7.082-15.97 15.93-15.97L208 112v-32C208 71.16 215.2 64 224 64s16 7.156 16 16v32l128 .04C376.8 112 384 119.2 384 128s-7.156 16-16 16h-128v49.09C280.4 198.2 314.6 222.3 334.2 256H352C440.4 256 512.1 327.6 512 416.1z"/></svg>