<svg xmlns="http://www.w3.org/2000/svg" viewBox="0 0 512 512"><!--! Font Awesome Pro 6.0.0-beta3 by @fontawesome - https://fontawesome.com License - https://fontawesome.com/license (Commercial License) Copyright 2021 Fonticons, Inc. --><path d="M434.8 390.9C424.4 406.1 400 443.6 400 464c0 26.47 21.53 48 48 48s48-21.53 48-48c0-20.41-24.36-57.91-34.83-73.09C455.2 382.3 440.8 382.3 434.8 390.9zM448 480c-8.812 0-16-7.188-16-16c.1406-4.875 6.797-18.81 16-34.34c9.203 15.53 15.86 29.47 16 34.34C464 472.8 456.8 480 448 480zM352 160h-17.75C314.6 126.3 280.4 102.2 240 97.09V64h128C376.8 64 384 56.84 384 48s-7.148-15.97-15.99-15.97L240 32V16C240 7.156 232.8 0 224 0S208 7.156 208 16V32L79.99 32.03C71.15 32.03 64 39.16 64 48S71.16 64 80 64h128v33.09C167.6 102.2 133.4 126.3 113.8 160H16C7.164 160 0 167.2 0 176C0 184.8 7.164 192 16 192h117.9C147.2 154.8 182.3 128 224 128s76.85 26.83 90.1 64H352c70.58 0 128 57.42 128 128h-64c0-35.29-28.71-64-64-64h-37.9C300.8 293.2 265.7 320 224 320S147.2 293.2 133.9 256H16C7.164 256 0 263.2 0 272C0 280.8 7.164 288 16 288h97.75C135.9 326.1 176.7 352 224 352s88.07-25.9 110.2-64h19.29c17.64 0 30.18 14.88 30.46 32.52C384.3 337.9 398.5 352 416 352h64c17.57 0 31.98-14.24 32-31.81C512.1 231.7 440.4 160 352 160z"/></svg>