<svg xmlns="http://www.w3.org/2000/svg" viewBox="0 0 512 512"><!--! Font Awesome Pro 6.0.0-beta3 by @fontawesome - https://fontawesome.com License - https://fontawesome.com/license (Commercial License) Copyright 2021 Fonticons, Inc. --><path d="M464 192H176C170.4 192 165 193.2 160 194.9V64c0-17.67 14.33-32 32-32h217.4L448 70.63V144C448 152.8 455.2 160 464 160S480 152.8 480 144V70.63C480 62.14 476.6 54 470.6 48L432 9.375C425.1 3.371 417.9 0 409.4 0H192C156.7 0 128 28.65 128 64v66.94C122.1 129.2 117.6 128 112 128h-64C21.49 128 0 149.5 0 176v288C0 490.5 21.49 512 48 512h64c12.35 0 23.49-4.795 32-12.46C152.5 507.2 163.7 512 176 512h288c26.51 0 48-21.49 48-48v-224C512 213.5 490.5 192 464 192zM128 464C128 472.8 120.8 480 112 480h-64C39.18 480 32 472.8 32 464v-288C32 167.2 39.18 160 48 160h64C120.8 160 128 167.2 128 176V464zM480 464c0 8.822-7.178 16-16 16h-288C167.2 480 160 472.8 160 464v-224C160 231.2 167.2 224 176 224h288C472.8 224 480 231.2 480 240V464zM272 280c-13.31 0-24 10.69-24 24s10.69 24 24 24s24-10.69 24-24S285.3 280 272 280zM272 376c-13.31 0-24 10.69-24 24s10.69 24 24 24s24-10.69 24-24S285.3 376 272 376zM368 280c-13.31 0-24 10.69-24 24s10.69 24 24 24s24-10.69 24-24S381.3 280 368 280zM368 376c-13.31 0-24 10.69-24 24s10.69 24 24 24s24-10.69 24-24S381.3 376 368 376z"/></svg>