<svg xmlns="http://www.w3.org/2000/svg" viewBox="0 0 512 512"><!--! Font Awesome Pro 6.1.1 by @fontawesome - https://fontawesome.com License - https://fontawesome.com/license (Commercial License) Copyright 2022 Fonticons, Inc. --><path d="M418.7 272H317.1C314.3 286.5 305.6 298.1 293.9 307.6L366.9 490.1C368.8 494.1 368.2 500.6 365.2 504.1C362.3 509.4 357.3 512 352 512H160C154.7 512 149.7 509.4 146.8 504.1C143.8 500.6 143.2 494.1 145.1 490.1L218.1 307.6C206.4 298.1 197.7 286.5 194 272H93.27C89.1 283.8 80.47 293.5 69.4 298.1C74.34 319.4 82.54 338.5 93.41 355.7C99.13 353.3 105.4 352 112 352C138.5 352 160 373.5 160 400C160 426.5 138.5 448 112 448C85.49 448 64 426.5 64 400C64 391.9 65.99 384.3 69.5 377.7C54.56 355.3 43.54 329.1 37.44 302.8C16.01 298 0 278.9 0 256C0 233.5 15.47 214.6 36.35 209.4C41.1 181.2 52.96 154.8 68.13 131.5C65.48 125.6 64 118.9 64 112C64 85.49 85.49 64 112 64C118.7 64 125 65.36 130.8 67.81C154.4 51.87 181.2 40.31 209.1 34.29C215.9 14.46 234.3 0 256 0C277.7 0 296.1 14.46 302 34.29C330.8 40.31 357.6 51.87 381.2 67.81C386.1 65.36 393.3 64 400 64C426.5 64 448 85.49 448 112C448 118.9 446.5 125.6 443.9 131.5C459 154.8 470 181.2 475.7 209.4C496.5 214.6 512 233.5 512 256C512 278.9 495.1 298 474.6 302.8C468.5 329.1 457.4 355.3 442.5 377.7C446 384.3 448 391.9 448 400C448 426.5 426.5 448 400 448C373.5 448 352 426.5 352 400C352 373.5 373.5 352 400 352C406.6 352 412.9 353.3 418.6 355.7C429.5 338.5 437.7 319.4 442.6 298.1C431.5 293.5 422.9 283.8 418.7 272L418.7 272zM256 32C247.2 32 240 39.16 240 48C240 56.84 247.2 64 256 64C264.8 64 272 56.84 272 48C272 39.16 264.8 32 256 32zM154.8 90.33C158.1 96.84 160 104.2 160 112C160 119.4 158.3 126.4 155.3 132.7L223.5 200.9C228.6 197.9 234.1 195.5 240 194V93.27C227.3 88.77 216.1 79.04 211.8 66.67C191.3 71.49 172.2 79.56 154.8 90.33H154.8zM272 194C277.9 195.5 283.4 197.9 288.5 200.9L356.7 132.7C353.7 126.4 352 119.4 352 112C352 104.2 353.9 96.84 357.2 90.33C339.8 79.56 320.7 71.49 300.2 66.67C295 79.04 284.7 88.77 272 93.27L272 194zM311.1 223.5C314.2 228.6 316.5 234.1 317.1 240H418.7C423 227.9 432.1 217.1 443.6 212.5C439.1 192 431.4 172.7 420.9 155.2C414.6 158.3 407.5 160 400 160C392.6 160 385.6 158.3 379.3 155.3L311.1 223.5zM256 320C253.2 320 250.5 319.8 247.8 319.5L183.6 480H328.4L264.2 319.5C261.5 319.8 258.8 320 256 320H256zM194 240C195.5 234.1 197.9 228.6 200.9 223.5L132.7 155.3C126.4 158.3 119.4 160 112 160C104.5 160 97.39 158.3 91.06 155.2C80.6 172.7 72.85 192 68.39 212.5C79.94 217.1 88.98 227.9 93.27 240H194zM448 256C448 264.8 455.2 272 464 272C472.8 272 480 264.8 480 256C480 247.2 472.8 240 464 240C455.2 240 448 247.2 448 256zM64 256C64 247.2 56.84 240 48 240C39.16 240 32 247.2 32 256C32 264.8 39.16 272 48 272C56.84 272 64 264.8 64 256zM112 96C103.2 96 96 103.2 96 112C96 120.8 103.2 128 112 128C120.8 128 128 120.8 128 112C128 103.2 120.8 96 112 96zM400 128C408.8 128 416 120.8 416 112C416 103.2 408.8 96 400 96C391.2 96 384 103.2 384 112C384 120.8 391.2 128 400 128zM400 384C391.2 384 384 391.2 384 400C384 408.8 391.2 416 400 416C408.8 416 416 408.8 416 400C416 391.2 408.8 384 400 384zM112 416C120.8 416 128 408.8 128 400C128 391.2 120.8 384 112 384C103.2 384 96 391.2 96 400C96 408.8 103.2 416 112 416zM256 288C273.7 288 288 273.7 288 256C288 238.3 273.7 224 256 224C238.3 224 224 238.3 224 256C224 273.7 238.3 288 256 288z"/></svg>