<svg xmlns="http://www.w3.org/2000/svg" viewBox="0 0 512 512"><!--! Font Awesome Pro 6.1.1 by @fontawesome - https://fontawesome.com License - https://fontawesome.com/license (Commercial License) Copyright 2022 Fonticons, Inc. --><path d="M432.1 351.9c-44.14 0-80.05 35.85-80.05 80.01s35.91 80.01 80.05 80.01c44.09 0 79.95-35.85 79.95-80.01S476.1 351.9 432.1 351.9zM432 479.1c-26.5 0-48.05-21.55-48.05-48.04c0-26.49 21.55-48.04 48.05-48.04c26.44 0 47.95 21.55 47.95 48.04C479.1 458.4 458.5 479.1 432 479.1zM511.1 53.41c-2.375-12.17-9.359-22.64-19.64-29.49l-24.94-16.61c-20.28-13.51-49.83-7.694-63.47 12.42L159.1 379.3c-7.922 11.32-20.89 12.42-27.19 8.851c-10.36-5.848-10.12-16.51-9.984-18.61c.3594-4.91 .6094-5.63 10.11-19.2l2.516-3.628c19.27-27.58 12.52-65.71-15.02-85.01C105.8 252 90.55 248.4 75.37 251.1C54.71 254.8 40.04 268.1 34.63 276.7L25.44 289.9c-14.59 20.95-23.27 45.47-25.06 70.87c-3.984 55.23 23.45 106.5 71.62 133.8c20.2 11.42 43.28 17.31 66.92 17.31c70.59 0 110.1-48.33 120.6-63.37l244.5-360.3C510.1 77.93 513.5 65.58 511.1 53.41zM233.2 430.3c-8.141 11.63-39.02 49.66-94.14 49.66c-18.12 0-35.86-4.597-51.27-13.32c-37.3-21.11-58.55-60.8-55.47-103.6c1.406-19.67 8.109-38.62 19.41-54.83l9.203-13.2c2.203-3.159 10.3-10.7 20.08-12.42c1.391-.2502 2.781-.3753 4.156-.3753c5.359 0 10.62 1.845 16.02 5.63c13.11 9.195 16.31 27.33 7.141 40.47l-2.516 3.597c-10.12 14.51-14.77 21.14-15.78 35.25c-1.156 15.79 5.109 36.94 26.12 48.79c19.8 11.32 51.11 7.506 69.3-18.51l168.5-248.3l46.39 34.82L233.2 430.3zM477.6 70.18l-59.23 87.28L371.9 122.6l57.62-84.9c4.156-6.099 13.02-7.913 19.25-3.784l24.95 16.61c3.125 2.095 5.25 5.285 5.969 8.976C480.5 63.27 479.7 67.05 477.6 70.18z"/></svg>