<svg xmlns="http://www.w3.org/2000/svg" viewBox="0 0 448 512"><!--! Font Awesome Pro 6.1.1 by @fontawesome - https://fontawesome.com License - https://fontawesome.com/license (Commercial License) Copyright 2022 Fonticons, Inc. --><path d="M179.2 377.6C182.3 381.7 187 384 192 384c.4687 0 .9687-.0156 1.438-.0625c5.531-.5 10.41-3.828 12.88-8.781L256 275.8l17.69 35.38C276.4 316.6 281.9 320 288 320h64c8.844 0 16-7.156 16-16S360.8 288 352 288h-54.13l-27.56-55.16c-5.438-10.84-23.19-10.84-28.62 0l-52.41 104.8L156.8 294.4C153.8 290.4 149 288 144 288h-128C7.156 288 0 295.2 0 304S7.156 320 16 320h120L179.2 377.6zM429.3 125.3l-106.5-106.5C310.7 6.742 294.5 0 277.5 0H128C92.65 0 64 28.65 64 64v160c0 8.836 7.164 16 16 16C88.84 240 96 232.8 96 224V64c0-17.67 14.33-32 32-32h128v112C256 170.5 277.5 192 304 192H416v256c0 17.67-14.33 32-32 32H128c-17.67 0-32-14.33-32-32v-64c0-8.836-7.162-16-16-16C71.16 368 64 375.2 64 384l.0065 64c0 35.35 28.65 64 64 64H384c35.35 0 64-28.65 64-64V170.5C448 153.5 441.3 137.3 429.3 125.3zM304 160C295.2 160 288 152.8 288 144V34.08c4.477 1.566 8.666 3.846 12.12 7.299l106.5 106.5C410.1 151.3 412.4 155.5 413.9 160H304z"/></svg>