<svg xmlns="http://www.w3.org/2000/svg" viewBox="0 0 384 512"><!--! Font Awesome Pro 6.1.1 by @fontawesome - https://fontawesome.com License - https://fontawesome.com/license (Commercial License) Copyright 2022 Fonticons, Inc. --><path d="M365.3 125.3l-106.5-106.5C246.7 6.742 230.5 0 213.5 0L64-.0001c-35.35 0-64 28.65-64 64l.0065 384c0 35.35 28.65 64 64 64H320c35.35 0 64-28.65 64-64v-277.5C384 153.5 377.3 137.3 365.3 125.3zM224 34.08c4.477 1.566 8.666 3.846 12.12 7.299l106.5 106.5C346.1 151.3 348.4 155.5 349.9 160H240C231.2 160 224 152.8 224 144V34.08zM352 448c0 17.67-14.33 32-32 32H64c-17.67 0-32-14.33-32-32V64c0-17.67 14.33-32 32-32h128v112C192 170.5 213.5 192 240 192H352V448zM144 128h-64C71.16 128 64 135.2 64 144S71.16 160 80 160h64C152.8 160 160 152.8 160 144S152.8 128 144 128zM144 64h-64C71.16 64 64 71.16 64 80S71.16 96 80 96h64C152.8 96 160 88.84 160 80S152.8 64 144 64zM144 192h-64C71.16 192 64 199.2 64 208S71.16 224 80 224h64C152.8 224 160 216.8 160 208S152.8 192 144 192zM144 256h-64C71.16 256 64 263.2 64 272V320c0 26.47 21.53 48 48 48S160 346.5 160 320V272C160 263.2 152.8 256 144 256zM128 320c0 8.828-7.188 16-16 16S96 328.8 96 320V288h32V320z"/></svg>