<svg xmlns="http://www.w3.org/2000/svg" viewBox="0 0 576 512"><!--! Font Awesome Pro 6.1.1 by @fontawesome - https://fontawesome.com License - https://fontawesome.com/license (Commercial License) Copyright 2022 Fonticons, Inc. --><path d="M304 480H64c-17.67 0-32-14.33-32-32V64c0-17.67 14.33-32 32-32h128v112C192 170.5 213.5 192 240 192h122.5C374.4 192 384 182.4 384 170.5c0-16.97-6.742-33.25-18.74-45.25L258.7 18.75C246.7 6.742 230.5 0 213.5 0H64C28.65 0 .0007 28.65 .0007 64l.0059 384c0 35.35 28.65 64 64 64H304c8.836 0 16-7.164 16-16C320 487.2 312.8 480 304 480zM224 34.08c4.477 1.566 8.664 3.846 12.12 7.299l106.5 106.5C346.1 151.3 348.4 155.5 349.9 160H240C231.2 160 224 152.8 224 144V34.08zM528 320L528 256c0-35.28-28.72-64-64-64s-64 28.72-64 64v64c-26.51 0-48 21.49-48 48v96c0 26.51 21.49 48 48 48h128c26.51 0 48-21.49 48-48v-96C576 341.5 554.5 320 528 320zM432 256c0-17.66 14.34-32 32-32s32 14.34 32 32v64h-64V256zM544 464c0 8.822-7.178 16-16 16h-128c-8.822 0-16-7.178-16-16v-96c0-8.822 7.178-16 16-16h128c8.822 0 16 7.178 16 16V464z"/></svg>