<svg xmlns="http://www.w3.org/2000/svg" viewBox="0 0 384 512"><!--! Font Awesome Pro 6.1.1 by @fontawesome - https://fontawesome.com License - https://fontawesome.com/license (Commercial License) Copyright 2022 Fonticons, Inc. --><path d="M365.3 125.3l-106.5-106.5C246.7 6.742 230.5 0 213.5 0H64C28.65 0 0 28.66 0 64l.0065 384c0 35.34 28.65 64 64 64H320c35.35 0 64-28.66 64-64V170.5C384 153.5 377.3 137.3 365.3 125.3zM224 34.08c4.477 1.562 8.666 3.844 12.12 7.297l106.5 106.5C346.1 151.3 348.4 155.5 349.9 160H240C231.2 160 224 152.8 224 144V34.08zM352 448c0 17.64-14.36 32-32 32H64c-17.64 0-32-14.36-32-32V64c0-17.64 14.36-32 32-32h128v112C192 170.5 213.5 192 240 192H352V448zM224 240C224 231.2 216.8 224 208 224h-32C167.2 224 160 231.2 160 240V288H112C103.2 288 96 295.2 96 303.1V336c0 8.836 7.164 15.1 16 15.1l48 .0006v47.1C160 408.8 167.2 416 176 416h32c8.836 0 16-7.166 16-16v-47.1l48-.0006c8.836 0 16-7.162 16-15.1V303.1C288 295.2 280.8 288 272 288H224V240z"/></svg>