<svg xmlns="http://www.w3.org/2000/svg" viewBox="0 0 512 512"><!--! Font Awesome Pro 6.1.1 by @fontawesome - https://fontawesome.com License - https://fontawesome.com/license (Commercial License) Copyright 2022 Fonticons, Inc. --><path d="M243.1 339.2c10.35-10.58 14.41-26.13 10.6-40.52C251 285.2 250.1 290.8 254.6 277.3c3.844-14.56-.2813-30.14-10.72-40.58C234 226.8 234.1 228.4 231.4 214.9C227.7 200.4 216.5 188.1 202.1 185.1C188.7 181.4 190.5 182.6 180.7 172.4c-10.53-10.69-25.85-14.89-40.35-11.03c-13.36 3.654-11.29 3.646-24.63 0C101.2 157.5 85.87 161.8 75.33 172.4C65.46 182.6 67.26 181.4 53.86 185.1c-14.35 3.891-25.6 15.33-29.29 29.86C21.01 228.4 21.97 226.8 12.14 236.7c-10.44 10.44-14.57 26.02-10.72 40.58C5.037 290.8 4.982 285.2 1.447 298.7c-3.814 14.39 .25 29.94 10.6 40.52c10.04 10.09 8.904 8.18 12.47 22.03c3.875 14.42 15.16 25.8 29.44 29.67c5.164 1.424 7.836 2.188 10.03 3.115V496c0 5.547 2.877 10.69 7.596 13.61c4.689 2.875 10.6 3.156 15.57 .7031L128 489.9l40.85 20.42C171.1 511.4 173.6 512 176 512c2.938 0 5.844-.7969 8.406-2.391C189.1 506.7 192 501.5 192 496v-101.1c2.197-.9297 4.869-1.691 10.03-3.115c14.28-3.877 25.57-15.25 29.44-29.67C235.1 347.4 233.9 349.3 243.1 339.2zM160 470.1l-24.85-12.42c-4.502-2.25-9.814-2.25-14.31 0l-24.85 12.42v-55.32c6.422 1.434 13.16 1.549 19.69-.2305c13.69-3.682 11.03-3.656 24.63 0c6.537 1.779 13.27 1.664 19.69 .2305V470.1zM222.4 302.1c2.328 8.818 3.051 10.34-3.938 17.41c-11.5 11.61-12.94 14.19-17.88 33.46c-1.557 5.934-6.199 6.881-10.31 8.016c-15.82 4.344-18.35 5.844-30.07 17.7c-5.387 5.457-6.715 6.299-14.69 4.094c-15.88-4.35-18.98-4.371-34.94 0c-7.975 2.205-9.301 1.363-14.69-4.094c-11.72-11.86-14.25-13.36-30.07-17.7c-4.117-1.135-8.758-2.082-10.31-8.016c-4.939-19.27-6.377-21.85-17.88-33.46C30.59 312.5 31.31 310.9 33.64 302.1C37.08 289.3 37.08 286.4 33.61 273.8C31.38 265.5 30.52 263.6 37.17 256.9c11.75-11.91 13.22-14.45 17.44-30.42c2.139-8.055 2.697-9.232 11.13-11.53c15.91-4.344 18.44-5.844 30.1-17.75c5.346-5.414 6.725-6.238 14.72-4.047c16.07 4.393 18.81 4.393 34.88 0c8-2.191 9.377-1.367 14.72 4.047c11.66 11.91 14.19 13.41 30.1 17.75C198.7 217.3 199.3 218.5 201.4 226.5C205.6 242.5 207.1 245 218.8 256.9c6.654 6.697 5.787 8.58 3.562 16.81C218.9 286.4 218.9 289.3 222.4 302.1zM493.3 125.3l-106.5-106.5C374.7 6.742 358.5 0 341.5 0L191.1-.0001c-35.35 0-64 28.65-64 64L128 112C128 120.8 135.2 128 144 128C152.8 128 160 120.8 160 112V64c0-17.67 14.33-32 32-32h128v112C320 170.5 341.5 192 368 192H480v256c0 17.67-14.33 32-32 32H240C231.2 480 224 487.2 224 496C224 504.8 231.2 512 240 512l207.1-.0001c35.35 0 64-28.65 64-64v-277.5C512 153.5 505.3 137.3 493.3 125.3zM368 160C359.2 160 352 152.8 352 144V34.08c4.477 1.566 8.666 3.846 12.12 7.299l106.5 106.5C474.1 151.3 476.4 155.5 477.9 160H368z"/></svg>