<svg xmlns="http://www.w3.org/2000/svg" viewBox="0 0 384 512"><!--! Font Awesome Pro 6.0.0-beta3 by @fontawesome - https://fontawesome.com License - https://fontawesome.com/license (Commercial License) Copyright 2021 Fonticons, Inc. --><path d="M365.3 125.3l-106.5-106.5C246.7 6.742 230.5 0 213.5 0H64C28.65 0 0 28.65 0 64l.0065 384c0 35.35 28.65 64 64 64H320c35.35 0 64-28.65 64-64V170.5C384 153.5 377.3 137.3 365.3 125.3zM224 34.08c4.477 1.566 8.666 3.846 12.12 7.299l106.5 106.5C346.1 151.3 348.4 155.5 349.9 160H240C231.2 160 224 152.8 224 144V34.08zM352 448c0 17.64-14.36 32-32 32H64c-17.64 0-32-14.36-32-32V64c0-17.64 14.36-32 32-32h128v112C192 170.5 213.5 192 240 192H352V448zM224.8 293.1l32 96C259 395.6 265.1 400 272 400s13-4.406 15.19-10.94l32-96c2.781-8.391-1.75-17.45-10.12-20.23c-8.312-2.734-17.41 1.734-20.25 10.11L272 333.4l-16.81-50.47c-2.812-8.391-11.84-12.86-20.25-10.11C226.6 275.6 222 284.7 224.8 293.1zM182.6 304H192c8.844 0 16-7.156 16-16S200.8 272 192 272H182.6C161.3 272 144 289.3 144 310.6c0 10.2 4.125 20.16 11.31 27.31l18.78 18.77C175.3 357.9 176 359.6 176 361.4C176 365 173 368 169.4 368H160c-8.844 0-16 7.156-16 16s7.156 16 16 16h9.375C190.7 400 208 382.7 208 361.4c0-10.2-4.125-20.16-11.31-27.31L177.9 315.3C176.7 314.1 176 312.4 176 310.6C176 306.1 178.1 304 182.6 304zM112 304C120.8 304 128 296.8 128 288S120.8 272 112 272C85.53 272 64 293.5 64 320v32c0 26.47 21.53 48 48 48C120.8 400 128 392.8 128 384s-7.156-16-16-16C103.2 368 96 360.8 96 352v-32C96 311.2 103.2 304 112 304z"/></svg>