<svg xmlns="http://www.w3.org/2000/svg" viewBox="0 0 384 512"><!--! Font Awesome Pro 6.1.1 by @fontawesome - https://fontawesome.com License - https://fontawesome.com/license (Commercial License) Copyright 2022 Fonticons, Inc. --><path d="M365.3 125.3l-106.5-106.5C246.7 6.742 230.5 0 213.5 0H64C28.65 0 0 28.65 0 64l.0065 384c0 35.35 28.65 64 64 64H320c35.35 0 64-28.65 64-64V170.5C384 153.5 377.3 137.3 365.3 125.3zM224 34.08c4.477 1.566 8.666 3.846 12.12 7.299l106.5 106.5C346.1 151.3 348.4 155.5 349.9 160H240C231.2 160 224 152.8 224 144V34.08zM352 448c0 17.64-14.36 32-32 32H64c-17.64 0-32-14.36-32-32V64c0-17.64 14.36-32 32-32h128v112C192 170.5 213.5 192 240 192H352V448zM80 96h64C152.8 96 160 88.84 160 80S152.8 64 144 64h-64C71.16 64 64 71.16 64 80S71.16 96 80 96zM80 160h64C152.8 160 160 152.8 160 144S152.8 128 144 128h-64C71.16 128 64 135.2 64 144S71.16 160 80 160zM180.6 363.4l-13.88-41.63C163.5 311.9 154.4 305.3 144 305.3s-19.5 6.625-22.75 16.5L103 376.4C101.5 380.9 97.25 384 92.38 384H80C71.13 384 64 391.1 64 400S71.13 416 80 416h12.38c18.62 0 35.13-11.88 41-29.5L144 354.6L160.9 405c2 6.25 7.5 10.5 14 11H176c5.1 0 11.62-3.375 14.25-8.875l7.75-15.38c2.75-5.5 7.875-6.125 10-6.125s7.25 .625 10.12 6.5C225.5 406.9 240.4 416 256.8 416H304c8.875 0 16-7.125 16-16S312.9 384 304 384h-47.25c-4.125 0-8.125-2.5-10.12-6.5C234.8 353.6 200.4 347.1 180.6 363.4z"/></svg>