<svg xmlns="http://www.w3.org/2000/svg" viewBox="0 0 576 512"><!--! Font Awesome Pro 6.0.0-beta3 by @fontawesome - https://fontawesome.com License - https://fontawesome.com/license (Commercial License) Copyright 2021 Fonticons, Inc. --><path d="M525.4 340.4c-6.307-9.857-20.58-9.857-26.89 0C479.8 369.7 448 423.1 448 448C448 483.4 476.6 512 512 512s64-28.6 64-63.97C576 423.1 544.2 369.7 525.4 340.4zM512 480c-17.62 0-32-14.38-32-32c.25-9.75 13.62-37.63 32-68.75c18.5 31.12 31.75 59 32 68.75C544 465.6 529.6 480 512 480zM502.6 217L294.1 9.371C288.7 3.121 280.5 0 272.3 0c-8.125 0-16.4 3.121-22.53 9.371L156.9 102.3L62.63 8C56.4 1.777 46.22 1.777 40 8c-6.221 6.223-6.221 16.4 0 22.62l94.25 94.25L28.13 231c-37.5 37.38-37.5 98.25 0 135.8l117.1 117.1C164 502.6 188.6 512 213.1 512c24.62 0 49.13-9.375 67.88-28.12l221.6-221.6C515.1 249.9 515.1 229.5 502.6 217zM258.4 461.3C246.4 473.4 230.3 480 213.1 480C196.1 480 180 473.4 168 461.3L50.75 344C43.88 337.1 39 328.9 35.88 320h363.8L258.4 461.3zM431.6 288H33c2.25-13 8.25-25 17.75-34.38L156.9 147.5l87.88 87.75c6.25 6.25 16.38 6.25 22.5 0c6.25-6.25 6.25-16.38 0-22.5L179.5 124.9L272.3 32L480 239.6L431.6 288z"/></svg>