<svg xmlns="http://www.w3.org/2000/svg" viewBox="0 0 512 512"><!--! Font Awesome Pro 6.0.0-beta3 by @fontawesome - https://fontawesome.com License - https://fontawesome.com/license (Commercial License) Copyright 2021 Fonticons, Inc. --><path d="M502.6 217L294.1 9.375C288.7 3.125 280.5 0 272.3 0c-8.125 0-16.4 3.125-22.52 9.375L156.9 102.2L62.62 7.1C56.4 1.778 46.22 1.778 40 7.1C33.78 14.22 33.78 24.4 39.1 30.62L134.2 124.9L28.13 230.1c-37.5 37.38-37.5 98.25 0 135.7l117.1 117.1C164 502.6 188.6 512 213.1 512c24.63 0 49.13-9.375 67.88-28.12l221.6-221.6C515.1 249.9 515.1 229.5 502.6 217zM258.4 461.2C246.4 473.4 230.3 480 213.1 480C196.1 480 180 473.4 168 461.2L50.75 344c-6.875-6.875-11.75-15.12-14.88-24h363.8L258.4 461.2zM431.6 288H33c2.25-13 8.25-25 17.75-34.38l106.1-106.1l87.88 87.75c6.25 6.25 16.37 6.25 22.5 0c6.25-6.25 6.25-16.37 0-22.5L179.5 124.9L272.2 32L480 239.6L431.6 288z"/></svg>