<svg xmlns="http://www.w3.org/2000/svg" viewBox="0 0 576 512"><!--! Font Awesome Pro 6.0.0-beta3 by @fontawesome - https://fontawesome.com License - https://fontawesome.com/license (Commercial License) Copyright 2021 Fonticons, Inc. --><path d="M112 32h128C248.8 32 256 24.84 256 16C256 7.162 248.8 0 240 0h-128C103.2 0 96 7.162 96 16C96 24.84 103.2 32 112 32zM336 480H320V96h16C344.8 96 352 88.84 352 80C352 71.16 344.8 64 336 64h-320C7.164 64 0 71.16 0 80C0 88.84 7.164 96 16 96H32v384H16C7.164 480 0 487.2 0 496C0 504.8 7.164 512 16 512h320c8.836 0 16-7.164 16-16C352 487.2 344.8 480 336 480zM288 480H64V96h224V480zM528 128h-160C359.2 128 352 135.2 352 144S359.2 160 368 160h160C536.8 160 544 167.2 544 176v128c0 8.828-7.188 16-16 16c-26.47 0-48 21.53-48 48v32c0 8.828-7.188 16-16 16h-96c-8.844 0-16 7.156-16 16s7.156 16 16 16h96c26.47 0 48-21.53 48-48v-32c0-8.828 7.188-16 16-16c26.47 0 48-21.53 48-48v-128C576 149.5 554.5 128 528 128zM384 376c0 4.418 3.582 8 8 8h16c4.418 0 8-3.582 8-8v-16c0-4.42-3.582-8-8-8h-16C387.6 352 384 355.6 384 360V376zM504 224C508.4 224 512 220.4 512 216v-16C512 195.6 508.4 192 504 192h-16C483.6 192 480 195.6 480 200v16C480 220.4 483.6 224 488 224H504zM392 224h16C412.4 224 416 220.4 416 216v-16C416 195.6 412.4 192 408 192h-16C387.6 192 384 195.6 384 200v16C384 220.4 387.6 224 392 224z"/></svg>