<svg xmlns="http://www.w3.org/2000/svg" viewBox="0 0 576 512"><!--! Font Awesome Pro 6.0.0-beta3 by @fontawesome - https://fontawesome.com License - https://fontawesome.com/license (Commercial License) Copyright 2021 Fonticons, Inc. --><path d="M224 363.8V263.3L32.7 32h446.6l.6934-.2422l-121.4 146.3c-5.273 6.359-4.838 15.69 1.002 21.53c6.662 6.664 17.62 6.154 23.63-1.1l121.4-146.3C521.1 31.28 506.8 0 479.3 0H32.7C5.213 0-9.965 31.28 7.375 52.19L192 274.8V368c0 7.828 3.812 15.17 10.25 19.66l28.58 19.1C241.4 415.1 256 407.5 256 394.5c0-5.223-2.549-10.12-6.826-13.11L224 363.8zM432 224C352.5 224 288 288.5 288 368s64.46 144 144 144C511.5 512 576 447.5 576 368S511.5 224 432 224zM432 480C370.2 480 320 429.8 320 368S370.2 256 432 256C493.8 256 544 306.2 544 368S493.8 480 432 480zM436.4 352.6c-14.24-4.135-27.01-6.697-25.47-15.89c1.375-7.891 15.28-9.938 28.12-7.953c5 .7969 10.5 2.516 15.72 4.312c8.375 2.938 17.44-1.5 20.38-9.859c2.875-8.359-1.531-17.47-9.875-20.36c-5.697-1.988-11.57-3.441-17.22-4.621V288c0-8.844-7.156-16-16-16s-16 7.156-16 16v9.418c-19.75 3.785-33.53 15.77-36.63 33.82c-6.281 36.17 28.34 46.33 43.13 50.67c18.27 5.277 32.21 7.758 30.53 17.39c-1.344 7.922-15.09 10.02-28.22 7.922c-4.891-.7344-8.639-1.818-24.84-7.625c-8.219-2.891-17.47 1.406-20.44 9.734c-2.938 8.328 1.406 17.47 9.75 20.42c7.553 2.725 16.9 6.141 26.72 8.166V448c0 8.844 7.156 16 16 16s16-7.156 16-16v-9.777c19.56-3.854 33.48-15.5 36.59-33.47C490.9 368.2 456.8 358.4 436.4 352.6z"/></svg>