<svg xmlns="http://www.w3.org/2000/svg" viewBox="0 0 640 512"><!--! Font Awesome Pro 6.0.0-beta3 by @fontawesome - https://fontawesome.com License - https://fontawesome.com/license (Commercial License) Copyright 2021 Fonticons, Inc. --><path d="M352 440.6l-64-44.79V312.3L256 287V400c0 7.828 3.812 15.17 10.25 19.66l80 55.98C350.5 478.6 355.3 480 359.9 480C372.3 480 384 470.2 384 455.1v-67.91l-32-25.27V440.6zM543.3 64l.6934-.2422l-144.1 173.8l25.12 19.84l143.6-173.2C585.1 63.28 570.8 32 543.3 32H139.6l40.53 32H543.3zM633.9 483.4L25.92 3.42c-6.938-5.453-17-4.25-22.48 2.641c-5.469 6.938-4.281 17 2.641 22.48l608 480C617 510.9 620.5 512 623.1 512c4.734 0 9.422-2.094 12.58-6.078C642 498.1 640.8 488.9 633.9 483.4z"/></svg>