<svg xmlns="http://www.w3.org/2000/svg" viewBox="0 0 512 512"><!--! Font Awesome Pro 6.1.1 by @fontawesome - https://fontawesome.com License - https://fontawesome.com/license (Commercial License) Copyright 2022 Fonticons, Inc. --><path d="M256 169.9C227.8 170.4 203.1 179.5 184.6 198.2c-17.1 17.1-27.62 41.87-27.25 67.37c.75 50.25-3.875 100.5-13.1 149.4c-1.875 8.749 3.75 17.12 12.37 18.1c8.5 1.625 17.12-3.875 18.87-12.5c10.62-51.12 15.5-103.7 14.75-156.4C189.1 248.3 195.5 232.5 207.3 220.8c18.62-18.62 42.25-18.87 48.75-18.87c37.12 .6249 66.37 30.25 66.1 66.12c.75 50.37-2.1 100.9-11.12 149.1c-1.5 8.749 4.375 16.1 13.12 18.5c.9997 .125 1.75 .125 2.75 .125c7.625 0 14.37-5.5 15.75-13.37c8.375-50.1 12.25-103.5 11.5-155.7C354.1 214.5 310.3 170.8 256 169.9zM255.9 256c-8.75 .125-15.87 7.374-15.75 16.25c1.125 73.37-8.125 144.1-27.75 215.1l-1.25 4.25C209.3 498.3 212.9 512 226.6 512c6.1 0 13.37-4.625 15.37-11.62l1.25-4.375c20.37-73.12 30.12-147.7 28.87-224.2C272 262.9 264 255.9 255.9 256zM112.6 149.8C87.51 180.8 74.01 219.9 74.63 260c.625 39.5-2.625 79.12-9.625 117.5c-1.625 8.749 4.125 17.12 12.87 18.62c.1 .25 1.875 .25 2.875 .25c7.625 0 14.37-5.375 15.75-13.12C103.9 342.8 107.3 301.1 106.6 259.5C106 226.5 116.8 195.5 137.5 170c5.625-6.874 4.5-16.1-2.375-22.5C128.4 141.9 118.3 142.9 112.6 149.8zM511.9 252.9c-.25-16.5-2.156-33.13-5.781-49.26c-1.875-8.499-10.34-13.99-18.97-12.11c-8.625 1.875-14.15 10.37-12.27 18.99c3.125 13.1 4.771 28.5 5.021 42.88c.125 7.624 .125 15.25 .125 22.87c-.125 8.874 6.1 16.12 15.87 16.12c8.75 0 15.1-6.999 16.12-15.87C512 268.6 512 260.8 511.9 252.9zM252.7 .0269C182.7-1.223 118.5 24.1 70.47 72.99C24.1 119.4-.8685 180.8 .1314 246.3C.2564 253.8 .2564 261.3 .0064 268.9c-.25 8.749 6.75 16.12 15.5 16.37h.5c8.625 0 15.75-6.874 15.1-15.5c.25-7.999 .2477-15.99 .1227-23.99C31.25 189 52.91 135.7 93.03 95.55C134.8 53.8 191.1 31.14 252.2 32.02c74.62 1.125 144.7 38.15 187.6 99.27c5.125 7.249 15.16 9.114 22.28 3.989c7.25-4.1 8.971-15.1 3.846-22.35C417.2 43.43 337.6 1.277 252.7 .0269zM253.9 85.04C238.6 84.79 223.5 86.41 208.8 89.91c-8.625 1.1-13.1 10.62-11.87 19.25c1.1 8.624 10.75 13.87 19.25 11.87c12.12-2.875 24.1-4.25 37.25-3.1c82.75 1.25 151.1 67.49 152.4 147.9c.625 39.62-1.375 79.62-5.75 118.7c-.1 8.749 5.25 16.62 13.1 17.62c.6253 .125 1.25 .125 1.875 .125c7.1 0 14.87-5.1 15.87-14.12c4.625-40.5 6.625-81.87 5.1-122.9C436.3 166.9 353.8 86.54 253.9 85.04z"/></svg>