<svg xmlns="http://www.w3.org/2000/svg" viewBox="0 0 384 512"><!--! Font Awesome Pro 6.0.0-beta3 by @fontawesome - https://fontawesome.com License - https://fontawesome.com/license (Commercial License) Copyright 2021 Fonticons, Inc. --><path d="M215.1 23.88c0-14.8-11.83-23.88-24.04-23.88c-7.428 0-15 3.39-20.11 10.85C48.01 191.9 224 200 224 288c0 35.34-28.66 63.99-63.98 63.99c-.2852 0-.5742-.0019-.8594-.0058C123.1 351.5 96 322.2 96 287V201.5c0-14.52-11.85-24.04-24.17-24.04c-6.098 0-12.31 2.327-17.26 7.536C27.82 213.2 0 261.3 0 319.1C0 425.9 86.13 512 192 512s192-86.13 192-192C384 149.7 215.1 127 215.1 23.88zM192 480c-88.22 0-160-71.78-160-160c0-42.98 17.88-76.42 32-96.13v63.17c0 52.8 42.51 96.29 96.02 96.94C212.9 383.1 256 340.9 256 288c0-44.4-28.76-72.34-54.14-96.1c-37.22-36.17-64.82-62.98-15.63-143.6c8.922 45.89 43.16 77.52 76.42 108.3C306.6 196.3 352 238.2 352 320C352 408.2 280.2 480 192 480z"/></svg>