<svg xmlns="http://www.w3.org/2000/svg" viewBox="0 0 640 512"><!--! Font Awesome Pro 6.1.1 by @fontawesome - https://fontawesome.com License - https://fontawesome.com/license (Commercial License) Copyright 2022 Fonticons, Inc. --><path d="M166.6 255.9c1.594 0 3.266-.1367 4.875-.6367c8.422-2.656 13.08-11.66 10.41-20.09C177.1 222.9 176 210.5 176 198.2c0-34.22 36.38-100.1 104.1-161.1c21.78 19.25 41.77 40.06 58.3 60.72c2.938 3.656 7.344 5.844 12.03 6c4.75 .2813 9.219-1.781 12.36-5.281c8.75-9.719 18.22-19.16 28.25-28.22C435.9 112.8 464 172.5 464 197.1c0 12.28-1.938 24.78-5.781 37.22c-2.594 8.438 2.141 17.41 10.58 20c8.422 2.625 17.39-2.125 20.02-10.56C493.6 229.1 496 213.4 496 197.1c0-38.78-38.86-114.5-94.63-161.2c-5.938-4.938-14.62-4.969-20.56 .0313c-10.23 8.625-20.02 17.66-29.22 26.97c-18.02-20.75-38.94-41.25-61.27-60c-5.938-5-14.62-5-20.56 0C195.7 65.84 144 145.8 144 198.2c0 15.59 2.469 31.28 7.344 46.66C153.5 251.7 159.8 255.9 166.6 255.9zM396.2 239.8c8.625 1.562 16.94-4.531 18.34-13.25c3.594-22.38 .4062-45.81-9.016-66.13c-2.188-4.656-4.703-9.656-7.328-14.62c-2.531-4.812-7.328-8.031-12.73-8.5c-5.656-.4687-10.7 1.812-14.05 6.094l-23.39 30.03c-17.39-25-46.52-66.78-49.73-71.06C295.3 98.34 290.5 96 285.5 96C280.5 96.03 275.7 98.44 272.7 102.5C243.3 142.2 224 170.7 224 204.1c0 8.031 .7031 15.62 2.031 22.78C227.5 234.6 234.2 240 241.8 240c.9687 0 1.938-.0938 2.922-.2813C253.4 238.1 259.1 229.8 257.5 221.1C256.5 215.8 256 210.1 256 204.1c0-18.16 9.172-36.06 29.36-64.66c13.09 18.72 33.63 48.19 48.8 70.03c2.906 4.188 7.625 6.719 12.7 6.875c5.5 .375 9.938-2.156 13.06-6.156l20.45-26.25c3.672 11.97 4.594 24.94 2.578 37.5C381.5 230.2 387.5 238.4 396.2 239.8zM528 288c-32.8 0-63.56 14.62-84.53 38.88c-25.47-43.34-72-70.88-123.5-70.88s-98 27.53-123.5 70.88C175.6 302.6 144.8 288 112 288C50.25 288 0 338.3 0 400S50.25 512 112 512h416c61.75 0 112-50.25 112-112S589.8 288 528 288zM528 480h-416C67.89 480 32 444.1 32 400S67.89 320 112 320c30.95 0 59.41 18.31 72.48 46.66c2.766 6 9.094 10.03 15.42 9.281c6.562-.375 12.23-4.719 14.3-10.94C229.5 318.9 271.1 288 320 288s90.55 30.94 105.8 77c2.062 6.219 7.734 10.56 14.3 10.94c6.547 .75 12.67-3.281 15.42-9.281C468.6 338.3 497 320 528 320c44.11 0 80 35.88 80 80S572.1 480 528 480z"/></svg>