<svg xmlns="http://www.w3.org/2000/svg" viewBox="0 0 384 512"><!--! Font Awesome Pro 6.0.0-beta3 by @fontawesome - https://fontawesome.com License - https://fontawesome.com/license (Commercial License) Copyright 2021 Fonticons, Inc. --><path d="M214 8.775C207.9 2.926 199.1 0 191.1 0S176.1 2.924 169.1 8.77C69.46 105.3 0 226.2 0 300.5C0 425 79 512 192 512s192-87 192-211.5C384 225.1 314.1 105 214 8.775zM192 480c-95.7 0-160-72.14-160-179.5c0-55.67 56.17-168.8 159.9-268.5c.0078-.0039-.0449 0 0 0C283.2 119.7 352 235.1 352 300.5C352 407.9 287.7 480 192 480zM252.1 212.9c-26.5-22.62-51.63-44-51.63-77.63c0-4.5-3.75-6.25-5.375-6.75C194.2 128.2 193.1 128 191.9 128C189.4 128 186.6 128.9 184.5 131.6C111.4 231.2 224 224 224 296C224 327 198.9 352 168 352C137 352 112 327 112 296V256c0-2.125-.875-4.125-2.375-5.625C108.1 248.8 106 248 104 248S99.94 248.8 98.38 250.4C89.88 258.6 64 286 64 330.1C64 395.1 121.4 448 192 448s128-52.88 128-117.9C320 271 285.5 241.5 252.1 212.9zM192 416c-45.26 0-83.31-28.17-93.39-65.93C114.7 370.7 139.8 384 168 384C216.5 384 256 344.5 256 296c0-20.68-6.092-36.89-14.54-50.06C268.2 269.3 288 290.6 288 330.1C288 377.5 244.9 416 192 416z"/></svg>