<svg xmlns="http://www.w3.org/2000/svg" viewBox="0 0 512 512"><!--! Font Awesome Pro 6.1.1 by @fontawesome - https://fontawesome.com License - https://fontawesome.com/license (Commercial License) Copyright 2022 Fonticons, Inc. --><path d="M320.1 32.05C336.6 32.05 368 44.94 368 80.07V144c0 8.843 7.156 15.1 16 15.1s16-7.156 16-15.1V80.07C400 21.33 347.1 0 320.2 0c-6.516 0-13.08 .8069-19.58 2.453L237.6 18.23C144.8 41.42 80 124.4 80 219.1v68.02c-26.51 0-48 21.49-48 47.1v127.1C32 490.5 53.49 512 80 512h32C138.5 512 160 490.5 160 464V336C160 309.5 138.5 288 112 288V219.1c0-80.9 54.81-151.1 133.3-170.7l63.03-15.78C312.3 32.53 316.2 32.05 320.1 32.05zM128 336v127.1c0 8.821-7.178 15.1-16 15.1h-32c-8.822 0-16-7.177-16-15.1v-127.1c0-8.821 7.178-15.1 16-15.1h32C120.8 320 128 327.2 128 336zM442.4 449.3C467.9 422.1 496 383.5 496 337.3c0-77.46-87.63-145.3-112-145.3c-24.86 0-112 68.32-112 145.3c0 46.18 28.1 85.62 53.62 111.9l-8.633 13.6c-3.315 5.221-4.984 11.18-4.984 17.15C312 498.4 327.1 512 344 512h80c17.09 0 31.1-13.77 31.1-31.1c0-5.971-1.669-11.93-4.984-17.15L442.4 449.3zM344 480l22.84-35.98C343.3 424.1 304 383.9 304 337.3c0-66.27 80-113.3 80-113.3s80 47.07 80 113.3c0 46.52-39.35 86.76-62.84 106.7L424 480H344zM384 288c-13.25 0-24 10.75-24 23.1c0 13.25 10.75 23.1 24 23.1s24-10.75 24-23.1C408 298.8 397.3 288 384 288z"/></svg>