<svg xmlns="http://www.w3.org/2000/svg" viewBox="0 0 576 512"><!--! Font Awesome Pro 6.1.1 by @fontawesome - https://fontawesome.com License - https://fontawesome.com/license (Commercial License) Copyright 2022 Fonticons, Inc. --><path d="M392 256C392 242.7 402.7 232 416 232C429.3 232 440 242.7 440 256C440 269.3 429.3 280 416 280C402.7 280 392 269.3 392 256zM4.216 336.1L50 256L4.216 175.9C-2.97 163.3-.8133 147.5 9.474 137.3C19.76 127.1 35.61 125.1 48.12 132.4L137.8 184.7C150 170.1 164.3 155.3 180.5 141.5C219.7 108.5 272.6 80 336 80C399.4 80 452.3 108.5 491.5 141.5C530.5 174.5 558.3 213.1 572.4 241.3C577.2 250.5 577.2 261.5 572.4 270.7C558.3 298 530.5 337.5 491.5 370.5C452.3 403.5 399.4 432 336 432C272.6 432 219.7 403.5 180.5 370.5C164.3 356.7 150 341.9 137.8 327.3L48.12 379.6C35.61 386.9 19.76 384.9 9.474 374.7C-.813 364.5-2.97 348.7 4.216 336.1L4.216 336.1zM201.2 346C236.7 376 282.5 400 336 400C389.5 400 435.3 376 470.8 346C506.4 316 531.6 280 544 256C531.6 231.1 506.4 195.1 470.8 166C435.3 135.1 389.5 112 336 112C282.5 112 236.7 135.1 201.2 166C186.5 178.4 173.5 191.8 162.4 205.2L145.1 225.1L32 159.1L86.86 255.1L32 352L145.1 286L162.4 306.8C173.5 320.2 186.5 333.6 201.2 346V346z"/></svg>