<svg xmlns="http://www.w3.org/2000/svg" viewBox="0 0 512 512"><!--! Font Awesome Pro 6.0.0-beta3 by @fontawesome - https://fontawesome.com License - https://fontawesome.com/license (Commercial License) Copyright 2021 Fonticons, Inc. --><path d="M400.6 208l103.9-123.4c8.018-9.52 9.788-22.82 4.538-34.11S492.4 32 480 32H32V16C32 7.164 24.84 0 16 0S0 7.164 0 16v480C0 504.8 7.164 512 16 512S32 504.8 32 496V384h448c12.45 0 23.76-7.219 29.01-18.5s3.479-24.59-4.539-34.11L400.6 208zM32 352V64h448l-121.3 144L480 352H32z"/></svg>