<svg xmlns="http://www.w3.org/2000/svg" viewBox="0 0 576 512"><!--! Font Awesome Pro 6.1.1 by @fontawesome - https://fontawesome.com License - https://fontawesome.com/license (Commercial License) Copyright 2022 Fonticons, Inc. --><path d="M504.4 0c-7 0-14.25 1.5-21.25 4.625c-50.5 22.62-87.75 30.25-119 30.25c-66.13 0-104.5-34.5-180.9-34.5c-31.62 0-70.13 6.5-119.4 23.25V16c0-8.75-7.25-16-16-16s-16 7.25-16 16l.0833 480c0 8.797 7.199 16 16 16s15.92-7.203 15.92-16v-92.38c44.25-15.88 81.63-22 114.5-22C259.6 381.6 316.1 416 397.5 416c35.25 0 75.13-6.5 123.6-25C535.1 385.6 544 373.1 544 359.8V33.38C543.9 13 525.3 0 504.4 0zM496.1 33.75c9.375-4.125 15.62-.5 15.62 5.625v60.39C481.7 109.4 455.7 114.7 432 117.4V56.98C452.1 51.55 473.1 44.07 496.1 33.75zM511.8 187.8C481.7 197.4 455.7 202.7 432 205.4V149.7c23.75-2.562 49.85-7.523 79.75-16.52V187.8zM511.8 275.5C481.7 285.2 455.7 290.4 432 293.1v-55.39c23.75-2.562 49.85-7.523 79.75-16.52V275.5zM400 207.4c-35.51 .3828-65.9-5.281-96-12.23V140.2c28.62 6.516 59.24 12.03 96 11.52V207.4zM272 187.8c-29.19-6.516-60.04-11.67-96-11.27V120.5c35.51-.3594 65.88 5.328 96 12.29V187.8zM272 220.8v54.8c-29.19-6.516-60.04-11.67-96-11.27V208.5C211.5 208.1 241.9 213.8 272 220.8zM304 228.2c28.62 6.516 59.24 12.03 96 11.52V295.2c-35.51 .3828-65.9-5.281-96-12.23V228.2zM400 63.8v55.61c-35.51 .3828-65.9-5.281-96-12.23V58.69c18.09 4.648 37.33 8.188 60 8.188C375.7 66.88 387.7 65.66 400 63.8zM272 49.48v50.34c-29.19-6.516-60.04-11.67-96-11.27V32.79c2.332-.0781 4.842-.4141 7.125-.4141C217.7 32.38 244.7 40.9 272 49.48zM63.75 369.4V57.25C93.2 46.53 119.7 39.73 144 35.94v54.5C119.9 92.95 93.77 97.82 64 106.8v33.34c30.16-9.688 56.21-14.91 80-17.6v55.91C119.9 180.9 93.77 185.8 64 194.8v33.34c30.16-9.688 56.21-14.91 80-17.6v55.68C119.9 268.7 93.77 273.6 64 282.5v33.34c30.16-9.688 56.21-14.91 80-17.6v53.42C118.1 354.5 91.52 360.2 63.75 369.4zM178.3 349.6c-.7441 0-1.506 .0938-2.25 .1016V296.3c35.51-.3594 65.88 5.324 96 12.28v53.54C243.4 355.3 213.2 349.6 178.3 349.6zM397.4 384C364.1 384 334.3 377.3 304 369.8V315.9c28.62 6.516 59.24 12.03 96 11.52v56.41C399.1 383.9 398.3 384 397.4 384zM511.8 359.5C511.2 361.5 474.7 375.5 432 381.3v-55.87c23.75-2.562 49.85-7.523 79.75-16.52V359.5z"/></svg>