<svg xmlns="http://www.w3.org/2000/svg" viewBox="0 0 640 512"><!--! Font Awesome Pro 6.1.1 by @fontawesome - https://fontawesome.com License - https://fontawesome.com/license (Commercial License) Copyright 2022 Fonticons, Inc. --><path d="M288 208H256C229.5 208 208 229.5 208 256S229.5 304 256 304h32c26.5 0 48-21.5 48-48S314.5 208 288 208zM287.1 272H255.1c-8.875 0-16-7.125-16-16c0-8.875 7.125-16 16-16h32c8.875 0 16 7.125 16 16C303.1 264.9 296.9 272 287.1 272zM607.1 96h-32c-59 0-116.5 17-166.6 48H64c-35.38 0-64 28.62-64 64v96c0 35.38 28.62 64 64 64h345.4c50.13 31 107.6 48 166.6 48h32c17.62 0 32-14.38 32-32V128C639.1 110.4 625.6 96 607.1 96zM512 376.5c-30.38-7.25-59.25-19.25-85.75-35.75L418.5 336H63.1C46.37 336 32 321.6 32 304v-96c0-17.62 14.37-32 31.1-32H418.5l7.75-4.75C452.8 154.8 481.6 142.8 512 135.5V376.5zM608 384h-32c-10.75 0-21.38-.625-32-1.875v-252.2C554.6 128.6 565.3 128 576 128h32V384z"/></svg>