<svg xmlns="http://www.w3.org/2000/svg" viewBox="0 0 448 512"><!--! Font Awesome Pro 6.0.0-beta3 by @fontawesome - https://fontawesome.com License - https://fontawesome.com/license (Commercial License) Copyright 2021 Fonticons, Inc. --><path d="M319.1 169V79.98C319.1 71.16 312.8 64 303.1 64c-8.826 0-15.98 7.152-15.99 15.98L287.1 169c-.0039 11.73 6.369 22.57 16.71 28.11c58.13 31.16 94.99 91.71 95.09 154.9c-29.77 .1523-68.83-2.418-116.1-29.87C211 279.1 131.7 277.3 52.67 313.6c11.22-49.61 43.46-92.69 90.21-117.2c10.54-5.51 17.1-16.43 17.11-28.32L159.1 79.99C159.1 71.16 152.8 64 144 64C135.2 64 127.1 71.16 127.1 79.98v88.14C61.62 202.9 16 271.9 16 352c0 53.75 20.38 102.8 53.99 139.8C81.87 504.9 99.12 512 116.1 512h213.1c17.37 0 34.41-6.621 46.16-19.41c33.03-35.93 53.56-83.51 54.83-135.1C433.7 276.8 387.2 205.1 319.1 169zM354.6 469.8C348.9 476.2 340 480 330.1 480H116.1c-9.197 0-17.68-3.543-23.31-9.77c-29.46-32.42-45.67-74.5-45.67-118.3c0-.0625 0 .0625 0 0c76.2-41.41 150.1-42.49 219.6-2.032c52.7 30.59 97.04 33.87 129.1 34.08C390.8 415.7 376.5 445.5 354.6 469.8zM112 32h224C344.8 32 352 24.84 352 16S344.8 0 336 0h-224C103.2 0 96 7.156 96 16S103.2 32 112 32z"/></svg>