<svg xmlns="http://www.w3.org/2000/svg" viewBox="0 0 576 512"><!--! Font Awesome Pro 6.0.0-beta3 by @fontawesome - https://fontawesome.com License - https://fontawesome.com/license (Commercial License) Copyright 2021 Fonticons, Inc. --><path d="M432 224C352.5 224 288 288.5 288 368s64.47 144 144 144s144-64.47 144-144S511.5 224 432 224zM432 480c-61.76 0-112-50.24-112-112S370.2 256 432 256S544 306.2 544 368S493.8 480 432 480zM488.5 311.5c-6.242-6.242-16.37-6.231-22.61 .0113l-33.91 33.91l-33.91-33.91c-6.242-6.242-16.37-6.253-22.62-.0106s-6.233 16.37 .009 22.62l33.91 33.91l-33.91 33.91c-6.242 6.242-6.252 16.37-.0098 22.62s16.37 6.232 22.62-.0106l33.91-33.91l33.91 33.91c6.242 6.242 16.38 6.254 22.62 .0113c6.242-6.242 6.232-16.37-.0098-22.62l-33.91-33.91l33.91-33.91C494.8 327.8 494.8 317.7 488.5 311.5zM266.7 448H80C53.49 448 32 426.5 32 400v-288c0-20.83 13.42-38.43 32-45.05V160c0 17.67 14.33 32 32 32h192c17.67 0 32-14.33 32-32V72.02c2.664 1.758 5.166 3.771 7.438 6.043l74.5 74.5c6.127 6.137 10.4 13.63 12.52 21.81c1.848 7.113 8.137 12.15 15.48 12.15c10.61 0 18.14-10.1 15.46-20.37c-3.545-13.58-10.64-26.03-20.84-36.21l-74.5-74.5C334.9 40.33 314.9 32 293.5 32H80C35.82 32 0 67.82 0 112v288C0 444.2 35.82 480 80 480h186.7c12.71 0 20.34-14.1 13.4-24.74C277.1 450.7 272.1 448 266.7 448zM96 64h192v96H96V64zM224 272c11.95 0 22.85 4.402 31.23 11.66c7.73 6.701 19.33 5.115 24.43-3.758C279.7 279.8 279.8 279.7 279.8 279.6c3.711-6.434 2.199-14.56-3.355-19.49C262.5 247.7 244.2 240 224 240c-44.03 0-79.84 35.73-80 79.7c-.1445 39.62 30.22 74.11 69.47 79.56c11.34 1.576 22.14 .5313 32.16-2.402c6.994-2.045 11.73-8.553 11.4-15.83c-.0078-.1484-.0137-.2988-.0195-.4473c-.4531-10.34-10.47-17.04-20.45-14.29c-7.441 2.059-15.61 2.344-24.08 .3301c-17.66-4.201-31.77-18.69-35.44-36.47C170.7 299.3 194.2 272 224 272z"/></svg>