<svg xmlns="http://www.w3.org/2000/svg" viewBox="0 0 512 512"><!--! Font Awesome Pro 6.0.0-beta3 by @fontawesome - https://fontawesome.com License - https://fontawesome.com/license (Commercial License) Copyright 2021 Fonticons, Inc. --><path d="M448 96h-176L226.7 50.75C214.7 38.74 198.5 32 181.5 32H64C28.65 32 0 60.65 0 96v320c0 35.35 28.65 64 64 64h384c35.35 0 64-28.65 64-64V160C512 124.7 483.3 96 448 96zM480 416c0 17.64-14.36 32-32 32H64c-17.64 0-32-14.36-32-32V96c0-17.64 14.36-32 32-32h117.5c8.549 0 16.58 3.328 22.63 9.375L258.7 128H448c17.64 0 32 14.36 32 32V416zM255.9 219.7c-42.64-43-76.29-26.04-90.17-14.41c-27.51 23-28.89 64.13-4.252 89l84.79 85.63c5.502 5.5 13.92 5.5 19.42 0l84.87-85.63c24.64-24.88 23.14-66-4.377-89C332.3 193.6 298.4 176.7 255.9 219.7zM327.9 271.7l-72.03 72.63L184.1 271.7c-10.38-10.38-12.38-30 2-42c13.76-11.5 31.26-3.377 38.52 3.75l31.39 31.75l31.39-31.75c7.129-7.252 24.64-15.25 38.39-3.75C340.2 241.7 338.2 261.4 327.9 271.7z"/></svg>