<svg xmlns="http://www.w3.org/2000/svg" viewBox="0 0 512 512"><!--! Font Awesome Pro 6.0.0-beta3 by @fontawesome - https://fontawesome.com License - https://fontawesome.com/license (Commercial License) Copyright 2021 Fonticons, Inc. --><path d="M448 96h-176L226.7 50.75C214.7 38.74 198.5 32 181.5 32H64C28.65 32 0 60.65 0 96v320c0 35.35 28.65 64 64 64h384c35.35 0 64-28.65 64-64V160C512 124.7 483.3 96 448 96zM480 416c0 17.64-14.36 32-32 32H64c-17.64 0-32-14.36-32-32V96c0-17.64 14.36-32 32-32h117.5c8.549 0 16.58 3.328 22.63 9.375L258.7 128H448c17.64 0 32 14.36 32 32V416zM256 288c35.35 0 64-28.65 64-64s-28.65-64-64-64S192 188.7 192 224S220.7 288 256 288zM256 192c17.64 0 32 14.36 32 32s-14.36 32-32 32S224 241.6 224 224S238.4 192 256 192zM288 320H224c-44.18 0-80 35.82-80 80C144 408.8 151.2 416 160 416s16-7.164 16-16C176 373.5 197.5 352 224 352h64c26.51 0 48 21.49 48 48c0 8.836 7.164 16 16 16s16-7.164 16-16C368 355.8 332.2 320 288 320z"/></svg>