<svg xmlns="http://www.w3.org/2000/svg" viewBox="0 0 576 512"><!--! Font Awesome Pro 6.1.1 by @fontawesome - https://fontawesome.com License - https://fontawesome.com/license (Commercial License) Copyright 2022 Fonticons, Inc. --><path d="M528 32h-96l-17.94-17.94C405.1 5.057 392.8 0 380.1 0H336C309.5 0 288 21.49 288 48v128C288 202.5 309.5 224 336 224h192C554.5 224 576 202.5 576 176v-96C576 53.49 554.5 32 528 32zM544 176C544 184.8 536.8 192 528 192h-192C327.2 192 320 184.8 320 176v-128C320 39.18 327.2 32 336 32h44.12c4.273 0 8.293 1.664 11.31 4.686L418.7 64H528C536.8 64 544 71.18 544 80V176zM528 320h-96l-17.94-17.94C405.1 293.1 392.8 288 380.1 288H336C309.5 288 288 309.5 288 336v128c0 26.51 21.49 48 48 48h192c26.51 0 48-21.49 48-48v-96C576 341.5 554.5 320 528 320zM544 464c0 8.822-7.178 16-16 16h-192c-8.822 0-16-7.178-16-16v-128c0-8.822 7.178-16 16-16h44.12c4.273 0 8.293 1.664 11.31 4.686L418.7 352H528c8.822 0 16 7.178 16 16V464zM240 128C248.8 128 256 120.8 256 112S248.8 96 240 96H32V16C32 7.156 24.84 0 16 0S0 7.156 0 16v352C0 394.5 21.53 416 48 416h192C248.8 416 256 408.8 256 400S248.8 384 240 384h-192C39.17 384 32 376.8 32 368V128H240z"/></svg>