<svg xmlns="http://www.w3.org/2000/svg" viewBox="0 0 512 512"><!--! Font Awesome Pro 6.1.1 by @fontawesome - https://fontawesome.com License - https://fontawesome.com/license (Commercial License) Copyright 2022 Fonticons, Inc. --><path d="M448 96h-176L226.7 50.75C214.7 38.74 198.5 32 181.5 32H64C28.65 32 0 60.65 0 96v320c0 35.35 28.65 64 64 64h384c35.35 0 64-28.65 64-64V160C512 124.7 483.3 96 448 96zM384 128v150.1l-40.84-20.42c-4.5-2.25-9.812-2.25-14.31 0L288 278.1V128H384zM480 416c0 17.64-14.36 32-32 32H64c-17.64 0-32-14.36-32-32V96c0-17.64 14.36-32 32-32h117.5c8.549 0 16.58 3.328 22.63 9.375l52.34 52.34C256.3 126.5 256 127.2 256 128v175.1c0 5.547 2.875 10.7 7.594 13.62c4.688 2.906 10.56 3.172 15.56 .7031L336 289.9l56.84 28.42C395.1 319.4 397.6 320 400 320c2.938 0 5.844-.7969 8.406-2.391C413.1 314.7 416 309.5 416 303.1V128h32c17.64 0 32 14.36 32 32V416z"/></svg>