<svg xmlns="http://www.w3.org/2000/svg" viewBox="0 0 448 512"><!--! Font Awesome Pro 6.0.0-beta3 by @fontawesome - https://fontawesome.com License - https://fontawesome.com/license (Commercial License) Copyright 2021 Fonticons, Inc. --><path d="M448 48V384c-63.09 22.54-82.34 32-119.5 32c-62.82 0-86.6-32-149.3-32c-26.17 0-45.32 5.429-63.23 11.81C106.2 399.3 96 392.1 96 381.7c0-6.259 3.891-11.85 9.753-14.04C126.8 359.8 147.1 352 179.2 352c62.73 0 86.51 32 149.3 32C358.4 384 377.1 377.7 416 363.6v-272C377.1 105.7 358.4 112 328.5 112c-62.82 0-86.6-32-149.3-32C116.3 80 94.83 112 32 112v352C32 472.8 24.84 480 16 480S0 472.8 0 464v-416C0 39.16 7.164 32 16 32S32 39.16 32 48v32c62.83 0 84.33-32 147.2-32c62.73 0 86.51 32 149.3 32C365.7 80 384.9 70.54 448 48z"/></svg>