<svg xmlns="http://www.w3.org/2000/svg" viewBox="0 0 512 512"><!--! Font Awesome Pro 6.1.1 by @fontawesome - https://fontawesome.com License - https://fontawesome.com/license (Commercial License) Copyright 2022 Fonticons, Inc. --><path d="M181.8 220.9c6.781 5.594 16.88 4.625 22.53-2.203c5.594-6.828 4.594-16.91-2.219-22.52L49.53 70.88C44.03 66.34 37.38 64 30.63 64C14.5 64 0 77.44 0 96.03v319.9C0 434.6 14.5 448 30.63 448c6.75 0 13.41-2.344 18.91-6.875l152.6-125.3c6.812-5.609 7.812-15.69 2.219-22.52C198.7 286.4 188.6 285.5 181.8 291.1L32 416.4V95.59L181.8 220.9zM500.3 230.8l-194.8-159.1C300 66.34 293.4 64 286.6 64c-10.35 0-30.6 8.122-30.6 32.03v319.9C256 439.9 276.3 448 286.6 448c6.75 0 13.41-2.344 18.91-6.875l194.8-159.1C507.8 275.1 512 265.9 512 256S507.8 236.9 500.3 230.8zM288 416.4V95.59L479.5 256L288 416.4z"/></svg>