<svg xmlns="http://www.w3.org/2000/svg" viewBox="0 0 448 512"><!--! Font Awesome Pro 6.0.0-beta3 by @fontawesome - https://fontawesome.com License - https://fontawesome.com/license (Commercial License) Copyright 2021 Fonticons, Inc. --><path d="M223.9 480c-119.2 0-223.9-95.52-223.9-224.1c0-129.5 105.7-223.9 223.1-223.9c88.61 0 162.1 57.43 162.1 77.09c0 11.44-10.3 15.7-15.89 15.7c-17.4 0-50.25-60.82-147.1-60.82c-108.2 0-191.1 87.67-191.1 191.1c0 104.8 84.35 192 191.1 192c122.1 0 182.8-105.4 192.3-157.1l-.0469-2.908l-191.4 0c-2.773 0-16.84-2.189-16.84-16.01c0-8.848 7.158-16.01 16-16.01h208.1C440.8 255.1 448 263.2 448 271.1C448 372.6 350.5 480 223.9 480z"/></svg>