<svg xmlns="http://www.w3.org/2000/svg" viewBox="0 0 640 512"><!--! Font Awesome Pro 6.1.1 by @fontawesome - https://fontawesome.com License - https://fontawesome.com/license (Commercial License) Copyright 2022 Fonticons, Inc. --><path d="M448 64H192C85.96 64 0 149.1 0 256s85.96 192 192 192h256c106 0 192-85.96 192-192S554 64 448 64zM448 416H192c-88.22 0-160-71.78-160-160s71.78-160 160-160h256c88.22 0 160 71.78 160 160S536.2 416 448 416zM431.1 280c-13.28 0-23.1 10.72-23.1 24s10.72 24 23.1 24s23.1-10.72 23.1-24S445.2 280 431.1 280zM495.1 184c-13.28 0-23.1 10.72-23.1 24s10.72 24 23.1 24s23.1-10.72 23.1-24S509.2 184 495.1 184zM256 240H208V192c0-8.844-7.18-16-16.02-16S176 183.2 176 192v48H128C119.2 240 111.1 247.2 111.1 256S119.2 272 128 272h48V320c0 8.844 7.132 16 15.98 16S208 328.8 208 320V272H256c8.844 0 15.98-7.156 15.98-16S264.8 240 256 240z"/></svg>