<svg xmlns="http://www.w3.org/2000/svg" viewBox="0 0 512 512"><!--! Font Awesome Pro 6.1.1 by @fontawesome - https://fontawesome.com License - https://fontawesome.com/license (Commercial License) Copyright 2022 Fonticons, Inc. --><path d="M95.1 0H255.1C291.3 0 320 28.65 320 64V256H336C380.2 256 416 291.8 416 336V384C416 401.7 430.3 416 448 416C465.7 416 480 401.7 480 384V224C444.7 224 416 195.3 416 160V84.37L389.2 59.79C382.7 53.82 382.2 43.7 388.2 37.19C394.2 30.67 404.3 30.23 410.8 36.21L491.2 109.9C504.5 122.1 512 139.2 512 157.1V384C512 419.3 483.3 448 448 448C412.7 448 384 419.3 384 384V336C384 309.5 362.5 288 336 288H320V480H336C344.8 480 352 487.2 352 496C352 504.8 344.8 512 336 512H16C7.164 512 0 504.8 0 496C0 487.2 7.164 480 16 480H32V64C32 28.65 60.65 .0003 96 .0003L95.1 0zM255.1 32H95.1C78.33 32 63.1 46.33 63.1 64V192H288V64C288 46.33 273.7 32 255.1 32zM288 224H63.1V480H288V224zM480 192V157.1C480 148.1 476.2 139.6 469.6 133.5L448 113.7V160C448 177.7 462.3 192 480 192V192z"/></svg>