<svg xmlns="http://www.w3.org/2000/svg" viewBox="0 0 576 512"><!--! Font Awesome Pro 6.0.0-beta3 by @fontawesome - https://fontawesome.com License - https://fontawesome.com/license (Commercial License) Copyright 2021 Fonticons, Inc. --><path d="M224 352C224 316.7 252.7 288 288 288C297.3 288 306.2 290 314.2 293.6L403.5 182C409 175.1 419.1 173.1 425.1 179.5C432.9 185 434 195.1 428.5 201.1L339.2 313.6C347.2 324.3 352 337.6 352 352C352 387.3 323.3 416 287.1 416C252.7 416 223.1 387.3 223.1 352L224 352zM288 384C305.7 384 320 369.7 320 352C320 334.3 305.7 320 288 320C270.3 320 256 334.3 256 352C256 369.7 270.3 384 288 384zM74.13 480C58.11 480 42.9 472.1 35.21 458.1C12.76 417.1 0 370 0 320C0 160.9 128.9 32 288 32C447.1 32 576 160.9 576 320C576 370 563.2 417.1 540.8 458.1C533.1 472.1 517.9 480 501.9 480H74.13zM32 320C32 364.5 43.34 406.3 63.27 442.7C64.6 445.2 68.16 448 74.13 448H501.9C507.8 448 511.4 445.2 512.7 442.7C532.7 406.3 544 364.5 544 320C544 178.6 429.4 64 288 64C146.6 64 32 178.6 32 320V320z"/></svg>