<svg xmlns="http://www.w3.org/2000/svg" viewBox="0 0 512 512"><!--! Font Awesome Pro 6.1.1 by @fontawesome - https://fontawesome.com License - https://fontawesome.com/license (Commercial License) Copyright 2022 Fonticons, Inc. --><path d="M192 352C192 316.7 220.7 288 256 288C261.3 288 266.4 288.6 271.3 289.8L353.9 136.4C358.1 128.6 367.8 125.7 375.6 129.9C383.4 134.1 386.3 143.8 382.1 151.6L299.5 305C312.1 316.7 320 333.4 320 352C320 387.3 291.3 416 256 416C220.7 416 192 387.3 192 352H192zM256 384C273.7 384 288 369.7 288 352C288 334.3 273.7 320 256 320C238.3 320 224 334.3 224 352C224 369.7 238.3 384 256 384zM0 256C0 114.6 114.6 0 256 0C397.4 0 512 114.6 512 256C512 397.4 397.4 512 256 512C114.6 512 0 397.4 0 256zM256 480C379.7 480 480 379.7 480 256C480 132.3 379.7 32 256 32C132.3 32 32 132.3 32 256C32 379.7 132.3 480 256 480z"/></svg>