<svg xmlns="http://www.w3.org/2000/svg" viewBox="0 0 640 512"><!--! Font Awesome Pro 6.1.1 by @fontawesome - https://fontawesome.com License - https://fontawesome.com/license (Commercial License) Copyright 2022 Fonticons, Inc. --><path d="M256 480C288.2 480 318.8 473.2 346.5 460.1C352.3 470.3 358.1 479 366.4 487C332.1 503 295.5 512 256 512C114.6 512 0 397.4 0 256C0 114.6 114.6 0 256 0C375.4 0 475.6 81.67 503.1 192.2C501.3 192.1 498.7 192 496 192C487.6 192 479.3 192.6 471.2 193.7C444.3 100.3 358.1 32 256 32C132.3 32 32 132.3 32 256C32 379.7 132.3 480 256 480zM192 352C192 322.2 212.4 297.1 239.1 290L239.1 95.1C239.1 87.16 247.2 79.1 255.1 79.1C264.8 79.1 271.1 87.16 271.1 95.1L271.1 290C299.6 297.1 320 322.2 320 352C320 387.3 291.3 416 256 416C220.7 416 192 387.3 192 352V352zM256 384C273.7 384 288 369.7 288 352C288 334.3 273.7 320 256 320C238.3 320 224 334.3 224 352C224 369.7 238.3 384 256 384zM120 144C120 130.7 130.7 120 144 120C157.3 120 168 130.7 168 144C168 157.3 157.3 168 144 168C130.7 168 120 157.3 120 144zM120 256C120 269.3 109.3 280 96 280C82.75 280 72 269.3 72 256C72 242.7 82.75 232 96 232C109.3 232 120 242.7 120 256zM392 144C392 157.3 381.3 168 368 168C354.7 168 344 157.3 344 144C344 130.7 354.7 120 368 120C381.3 120 392 130.7 392 144zM576 367.1C576 376.8 568.8 383.1 560 383.1H432C423.2 383.1 416 376.8 416 367.1C416 359.2 423.2 351.1 432 351.1H560C568.8 351.1 576 359.2 576 367.1zM352 368C352 288.5 416.5 224 496 224C575.5 224 640 288.5 640 368C640 447.5 575.5 512 496 512C416.5 512 352 447.5 352 368zM496 480C557.9 480 608 429.9 608 368C608 306.1 557.9 256 496 256C434.1 256 384 306.1 384 368C384 429.9 434.1 480 496 480z"/></svg>