<svg xmlns="http://www.w3.org/2000/svg" viewBox="0 0 512 512"><!--! Font Awesome Pro 6.1.1 by @fontawesome - https://fontawesome.com License - https://fontawesome.com/license (Commercial License) Copyright 2022 Fonticons, Inc. --><path d="M256 416C220.7 416 192 387.3 192 352C192 316.7 220.7 288 256 288C273.5 288 289.4 295 300.9 306.4L407.8 242.3C415.3 237.7 425.2 240.2 429.7 247.8C434.3 255.3 431.8 265.2 424.2 269.7L317.4 333.8C319.1 339.6 320 345.7 320 352C320 387.3 291.3 416 255.1 416H256zM288 352C288 334.3 273.7 320 256 320C238.3 320 224 334.3 224 352C224 369.7 238.3 384 256 384C273.7 384 288 369.7 288 352zM256 512C114.6 512 0 397.4 0 256C0 114.6 114.6 0 256 0C397.4 0 512 114.6 512 256C512 397.4 397.4 512 256 512zM480 256C480 132.3 379.7 32 256 32C132.3 32 32 132.3 32 256C32 379.7 132.3 480 256 480C379.7 480 480 379.7 480 256z"/></svg>