<svg xmlns="http://www.w3.org/2000/svg" viewBox="0 0 512 512"><!--! Font Awesome Pro 6.0.0-beta3 by @fontawesome - https://fontawesome.com License - https://fontawesome.com/license (Commercial License) Copyright 2021 Fonticons, Inc. --><path d="M512 208.3c0-9.103-7.43-16-15.99-16c-4.091 0-8.183 1.562-11.31 4.688l-12.7 12.7L302.4 40l12.68-12.69C318.2 24.19 319.8 20.09 319.8 16c0-9.103-7.43-16-15.99-16c-4.091 0-8.183 1.562-11.31 4.688l-143.9 144C145.5 151.8 143.9 155.9 143.9 160c0 9.103 7.43 16 15.99 16c4.091 0 8.183-1.562 11.31-4.688l12.68-12.69l73.39 73.44l-75.46 78.11L172.4 300.7c-8.456-8.437-19.56-12.67-30.64-12.67c-11.13 0-22.26 4.234-30.73 12.67l-98.31 98.38C4.232 407.6 0 418.7 0 429.8s4.232 22.23 12.7 30.7l38.76 38.78C59.65 507.5 70.55 512 82.14 512c11.6 0 22.5-4.5 30.69-12.72l98.31-98.34c8.464-8.469 12.7-19.59 12.7-30.7S219.6 348 211.1 339.5l-6.711-6.719l75.47-78.12l73.56 73.6l-12.66 12.67c-3.123 3.125-4.685 7.219-4.685 11.31c0 9.103 7.43 16 15.99 16c4.092 0 8.183-1.562 11.31-4.688l143.9-144C510.4 216.5 512 212.4 512 208.3zM191.9 370.2c0 2.922-1.113 5.844-3.338 8.078l-98.32 98.34c-2.139 2.156-5.095 3.234-8.054 3.234c-2.959 0-5.923-1.078-8.078-3.234l-38.76-38.78c-2.225-2.234-3.338-5.156-3.338-8.078s1.113-5.844 3.338-8.078l98.31-98.38c2.218-2.219 5.138-3.312 8.074-3.312c2.92 0 5.856 1.094 8.089 3.344l38.74 38.78C190.7 364.4 191.9 367.3 191.9 370.2zM206.5 136l73.33-73.38l169.6 169.7l-73.33 73.38L206.5 136z"/></svg>