<svg xmlns="http://www.w3.org/2000/svg" viewBox="0 0 448 512"><!--! Font Awesome Pro 6.0.0-beta3 by @fontawesome - https://fontawesome.com License - https://fontawesome.com/license (Commercial License) Copyright 2021 Fonticons, Inc. --><path d="M191.1 78.99c-8.752 0-16 7.267-16 16.04s7.25 16.04 16 16.04c8.75 0 15.1-7.267 15.1-16.04S200.7 78.99 191.1 78.99zM224 335.6C223.1 335.6 224 335.6 224 335.6c-8.75 0-16.01 7.267-16.01 16.04c0 8.77 7.256 16.04 16.01 16.04c.002 0-.002 0 0 0c8.75 0 16.01-7.267 16.01-16.04C240 342.9 232.7 335.6 224 335.6zM224 271.4C223.1 271.4 224 271.4 224 271.4c-8.75 0-16.01 7.269-16.01 16.04S215.3 303.5 224 303.5c.002 0-.002 0 0 0c8.75 0 16.01-7.267 16.01-16.04S232.7 271.4 224 271.4zM224 207.3C223.1 207.3 224 207.3 224 207.3c-8.75 0-16.01 7.267-16.01 16.04C207.1 232.1 215.3 239.4 224 239.4c.002 0-.002 0 0 0c8.75 0 16.01-7.267 16.01-16.04C240 214.6 232.7 207.3 224 207.3zM430.9 226.9c-6.656-41.66-44.44-73.06-87.94-73.06h-11.87c4.469-12.51 6.781-25.82 6.781-39.4c0-30.85-11.81-59.86-33.25-81.69c-42.87-43.65-118.2-43.72-161.2 0c-21.44 21.83-33.25 50.83-33.25 81.69c0 13.58 2.312 26.89 6.781 39.4H105.1c-43.5 0-81.28 31.4-87.94 73.04c-4.062 25.54 2.969 51.4 19.31 70.94c14.56 17.48 35.12 28.33 57.34 30.52l-30.56 37.38c-15.66 19.03-23.16 44.29-20.5 69.31c2.531 23.68 13.72 44.4 31.22 58.18c34.16 27.99 90.44 22.49 119.5-12.76L224 443.1l30.62 37.41C271.1 500.5 295.2 512 320.9 512c19.5 0 38.37-6.672 52.87-18.56c17.75-13.99 28.94-34.7 31.47-58.4c2.656-25.01-4.844-50.27-20.47-69.25l-30.59-37.43c22.22-2.193 42.78-13.05 57.34-30.52C427.9 278.3 434.9 252.4 430.9 226.9zM387 277.3C386.1 277.3 387 277.3 387 277.3c-10.28 12.36-25.3 19.44-41.17 19.44h-22.97c-6.719 0-12.66 4.213-14.97 10.49c-2.844 5.654-2.156 12.45 1.844 17.37l50.34 61.61c10.25 12.42 15.09 29 13.37 45.48c-1.594 14.99-8.5 27.97-19.66 36.76c-21.06 17.32-56.41 13.77-74.47-8.253l-33.12-40.47C240.7 412.1 232.6 409.1 224 409.1s-16.69 3.853-22.25 10.6l-33.06 40.4c-18.12 22.05-53.09 25.87-74.75 8.081c-10.91-8.582-17.81-21.56-19.41-36.54c-1.719-16.49 3.125-33.08 13.41-45.54l50.31-61.56c3.062-3.759 3.75-9.584 2.625-14.64C140.8 309.2 140.6 308.4 140.3 307.7C138.1 301.1 132 296.7 125.1 296.7H102.2c-15.87 0-30.87-7.079-41.19-19.45C50.6 264.8 46.13 248.3 48.75 231.1c4.156-26.23 28.37-46.03 56.31-46.03h37.72c5.906 0 11.31-3.257 14.09-8.472c2.781-5.199 2.5-11.53-.7813-16.46C146.1 147.3 142.2 131.2 142.2 114.5c0-22.38 8.531-43.4 24.06-59.17c30.87-31.45 84.81-31.35 115.6 0c15.53 15.77 24.06 36.79 24.06 59.17c0 16.73-4.812 32.83-13.94 46.54c-3.281 4.933-3.562 11.26-.7813 16.46c2.781 5.215 8.187 8.472 14.09 8.472h37.72c27.94 0 52.16 19.8 56.31 46.04C401.9 248.3 397.4 264.8 387 277.3zM256 78.99c-8.75 0-15.1 7.267-15.1 16.04s7.25 16.04 15.1 16.04c8.752 0 16-7.267 16-16.04S264.8 78.99 256 78.99z"/></svg>