<svg xmlns="http://www.w3.org/2000/svg" viewBox="0 0 512 512"><!--! Font Awesome Pro 6.0.0-beta3 by @fontawesome - https://fontawesome.com License - https://fontawesome.com/license (Commercial License) Copyright 2021 Fonticons, Inc. --><path d="M511.1 128.3c-4.219-38.23-23.08-72.53-53.09-96.59c-30.03-24.06-67.77-35.09-105.8-30.76c-43.67 4.826-82.24 28.87-105.8 65.98C241.7 74.35 243.9 84.24 251.3 88.98c7.438 4.795 17.34 2.545 22.08-4.922c18.34-28.87 48.35-47.57 82.3-51.32c29.83-3.344 58.97 5.219 82.33 23.92c23.34 18.72 38 45.39 41.28 75.12c6.188 56.04-30.45 108.1-85.2 121.2c-8.594 2.047-13.91 10.67-11.86 19.26c1.75 7.359 8.312 12.3 15.55 12.3c1.234 0 2.484-.1406 3.719-.4375C471.1 267.3 519.1 200.3 511.1 128.3zM319.1 128H32.02c-9 0-17.62 3.877-23.75 10.5c-6 6.75-8.998 15.63-8.123 24.62l31.99 319.1C33.77 499.5 47.52 512 64.02 512h223.1c16.5 0 30.25-12.5 31.87-28.87l32-319.1c.875-8.998-2.124-17.87-8.124-24.62C337.6 131.9 328.1 128 319.1 128zM288 480h-224L44.78 288h262.5L288 480zM310.4 256H41.65L32.03 160h288L310.4 256z"/></svg>