<svg xmlns="http://www.w3.org/2000/svg" viewBox="0 0 512 512"><!--! Font Awesome Pro 6.1.1 by @fontawesome - https://fontawesome.com License - https://fontawesome.com/license (Commercial License) Copyright 2022 Fonticons, Inc. --><path d="M512 15.1C512 7.533 505.2 0 496 0c-5.871 0-11.51 3.219-14.33 8.83l-178.6 357.2L62.01 299.7C57.68 298.5 53.29 297.9 48.95 297.9C18.36 297.9 0 323.8 0 347v115.8C0 489.1 22.03 512 49.11 512h187.1c18.3 0 34.75-10.17 42.94-26.53l231.2-462.3C511.5 20.84 512 18.4 512 15.1zM250.5 471.1c-2.775 5.543-8.129 8.854-14.32 8.854H49.11c-9.433 0-17.11-7.676-17.11-17.11v-14.89l47.1 .0009c8.844 0 15.1-7.156 15.1-16s-7.156-16-15.1-16l-47.1-.0013v-16l48 .0027c8.844 0 15.1-7.157 15.1-16s-7.156-16-15.1-16l-47.1-.0019l-.0311-20.98c0-10.13 8.411-17.11 16.98-17.11c1.545 0 3.123 .2148 4.574 .6094l234.1 64.7L250.5 471.1z"/></svg>