<svg xmlns="http://www.w3.org/2000/svg" viewBox="0 0 448 512"><!--! Font Awesome Pro 6.1.1 by @fontawesome - https://fontawesome.com License - https://fontawesome.com/license (Commercial License) Copyright 2022 Fonticons, Inc. --><path d="M352 96H96C78.33 96 64 110.3 64 128v256c0 17.67 14.33 32 32 32h256c17.67 0 32-14.33 32-32V128C384 110.3 369.7 96 352 96zM136 384H96V272h40V384zM136 240H96V128h40V240zM208 384H168V272H208V384zM208 240H168V128H208V240zM280 384H240V272h40V384zM280 240H240V128h40V240zM352 384h-40V272H352V384zM352 240h-40V128H352V240zM384 32H64C28.65 32 0 60.65 0 96v320c0 35.35 28.65 64 64 64h320c35.35 0 64-28.65 64-64V96C448 60.65 419.3 32 384 32zM416 416c0 17.64-14.36 32-32 32H64c-17.64 0-32-14.36-32-32V96c0-17.64 14.36-32 32-32h320c17.64 0 32 14.36 32 32V416z"/></svg>