<svg xmlns="http://www.w3.org/2000/svg" viewBox="0 0 512 512"><!--! Font Awesome Pro 6.0.0-beta3 by @fontawesome - https://fontawesome.com License - https://fontawesome.com/license (Commercial License) Copyright 2021 Fonticons, Inc. --><path d="M0 16C0 7.164 7.164 0 16 0H496C504.8 0 512 7.164 512 16C512 24.84 504.8 32 496 32H16C7.164 32 0 24.84 0 16zM32 128C32 110.3 46.33 96 64 96H128C145.7 96 160 110.3 160 128V192C160 209.7 145.7 224 128 224H64C46.33 224 32 209.7 32 192V128zM64 192H128V128H64V192zM32 416C32 398.3 46.33 384 64 384H128C145.7 384 160 398.3 160 416V480C160 497.7 145.7 512 128 512H64C46.33 512 32 497.7 32 480V416zM64 480H128V416H64V480zM288 96C305.7 96 320 110.3 320 128V192C320 209.7 305.7 224 288 224H224C206.3 224 192 209.7 192 192V128C192 110.3 206.3 96 224 96H288zM288 128H224V192H288V128zM192 416C192 398.3 206.3 384 224 384H288C305.7 384 320 398.3 320 416V480C320 497.7 305.7 512 288 512H224C206.3 512 192 497.7 192 480V416zM224 480H288V416H224V480zM448 96C465.7 96 480 110.3 480 128V192C480 209.7 465.7 224 448 224H384C366.3 224 352 209.7 352 192V128C352 110.3 366.3 96 384 96H448zM448 128H384V192H448V128zM352 416C352 398.3 366.3 384 384 384H448C465.7 384 480 398.3 480 416V480C480 497.7 465.7 512 448 512H384C366.3 512 352 497.7 352 480V416zM384 480H448V416H384V480zM496 288C504.8 288 512 295.2 512 304C512 312.8 504.8 320 496 320H16C7.164 320 0 312.8 0 304C0 295.2 7.164 288 16 288H496z"/></svg>