<svg xmlns="http://www.w3.org/2000/svg" viewBox="0 0 448 512"><!--! Font Awesome Pro 6.0.0-beta3 by @fontawesome - https://fontawesome.com License - https://fontawesome.com/license (Commercial License) Copyright 2021 Fonticons, Inc. --><path d="M0 80C0 53.49 21.49 32 48 32H144C170.5 32 192 53.49 192 80V176C192 202.5 170.5 224 144 224H48C21.49 224 0 202.5 0 176V80zM32 80V176C32 184.8 39.16 192 48 192H144C152.8 192 160 184.8 160 176V80C160 71.16 152.8 64 144 64H48C39.16 64 32 71.16 32 80zM0 336C0 309.5 21.49 288 48 288H144C170.5 288 192 309.5 192 336V432C192 458.5 170.5 480 144 480H48C21.49 480 0 458.5 0 432V336zM32 336V432C32 440.8 39.16 448 48 448H144C152.8 448 160 440.8 160 432V336C160 327.2 152.8 320 144 320H48C39.16 320 32 327.2 32 336zM400 32C426.5 32 448 53.49 448 80V176C448 202.5 426.5 224 400 224H304C277.5 224 256 202.5 256 176V80C256 53.49 277.5 32 304 32H400zM400 64H304C295.2 64 288 71.16 288 80V176C288 184.8 295.2 192 304 192H400C408.8 192 416 184.8 416 176V80C416 71.16 408.8 64 400 64zM256 336C256 309.5 277.5 288 304 288H400C426.5 288 448 309.5 448 336V432C448 458.5 426.5 480 400 480H304C277.5 480 256 458.5 256 432V336zM288 336V432C288 440.8 295.2 448 304 448H400C408.8 448 416 440.8 416 432V336C416 327.2 408.8 320 400 320H304C295.2 320 288 327.2 288 336z"/></svg>