<svg xmlns="http://www.w3.org/2000/svg" viewBox="0 0 448 512"><!--! Font Awesome Pro 6.1.1 by @fontawesome - https://fontawesome.com License - https://fontawesome.com/license (Commercial License) Copyright 2022 Fonticons, Inc. --><path d="M88 32C110.1 32 128 49.91 128 72V120C128 142.1 110.1 160 88 160H40C17.91 160 0 142.1 0 120V72C0 49.91 17.91 32 40 32H88zM88 64H40C35.58 64 32 67.58 32 72V120C32 124.4 35.58 128 40 128H88C92.42 128 96 124.4 96 120V72C96 67.58 92.42 64 88 64zM88 192C110.1 192 128 209.9 128 232V280C128 302.1 110.1 320 88 320H40C17.91 320 0 302.1 0 280V232C0 209.9 17.91 192 40 192H88zM88 224H40C35.58 224 32 227.6 32 232V280C32 284.4 35.58 288 40 288H88C92.42 288 96 284.4 96 280V232C96 227.6 92.42 224 88 224zM0 392C0 369.9 17.91 352 40 352H88C110.1 352 128 369.9 128 392V440C128 462.1 110.1 480 88 480H40C17.91 480 0 462.1 0 440V392zM32 392V440C32 444.4 35.58 448 40 448H88C92.42 448 96 444.4 96 440V392C96 387.6 92.42 384 88 384H40C35.58 384 32 387.6 32 392zM248 32C270.1 32 288 49.91 288 72V120C288 142.1 270.1 160 248 160H200C177.9 160 160 142.1 160 120V72C160 49.91 177.9 32 200 32H248zM248 64H200C195.6 64 192 67.58 192 72V120C192 124.4 195.6 128 200 128H248C252.4 128 256 124.4 256 120V72C256 67.58 252.4 64 248 64zM160 232C160 209.9 177.9 192 200 192H248C270.1 192 288 209.9 288 232V280C288 302.1 270.1 320 248 320H200C177.9 320 160 302.1 160 280V232zM192 232V280C192 284.4 195.6 288 200 288H248C252.4 288 256 284.4 256 280V232C256 227.6 252.4 224 248 224H200C195.6 224 192 227.6 192 232zM248 352C270.1 352 288 369.9 288 392V440C288 462.1 270.1 480 248 480H200C177.9 480 160 462.1 160 440V392C160 369.9 177.9 352 200 352H248zM248 384H200C195.6 384 192 387.6 192 392V440C192 444.4 195.6 448 200 448H248C252.4 448 256 444.4 256 440V392C256 387.6 252.4 384 248 384zM320 72C320 49.91 337.9 32 360 32H408C430.1 32 448 49.91 448 72V120C448 142.1 430.1 160 408 160H360C337.9 160 320 142.1 320 120V72zM352 72V120C352 124.4 355.6 128 360 128H408C412.4 128 416 124.4 416 120V72C416 67.58 412.4 64 408 64H360C355.6 64 352 67.58 352 72zM408 192C430.1 192 448 209.9 448 232V280C448 302.1 430.1 320 408 320H360C337.9 320 320 302.1 320 280V232C320 209.9 337.9 192 360 192H408zM408 224H360C355.6 224 352 227.6 352 232V280C352 284.4 355.6 288 360 288H408C412.4 288 416 284.4 416 280V232C416 227.6 412.4 224 408 224zM320 392C320 369.9 337.9 352 360 352H408C430.1 352 448 369.9 448 392V440C448 462.1 430.1 480 408 480H360C337.9 480 320 462.1 320 440V392zM352 392V440C352 444.4 355.6 448 360 448H408C412.4 448 416 444.4 416 440V392C416 387.6 412.4 384 408 384H360C355.6 384 352 387.6 352 392z"/></svg>