<svg xmlns="http://www.w3.org/2000/svg" viewBox="0 0 512 512"><!--! Font Awesome Pro 6.1.1 by @fontawesome - https://fontawesome.com License - https://fontawesome.com/license (Commercial License) Copyright 2022 Fonticons, Inc. --><path d="M207.3 36.71C209.9 45.18 205 54.09 196.6 56.61C182.3 60.85 168.7 66.57 155.1 73.59C158.6 80.56 160 88.12 160 96C160 131.3 131.3 160 96 160C88.12 160 80.56 158.6 73.59 155.1C66.57 168.7 60.85 182.3 56.61 196.6C54.09 205 45.18 209.9 36.71 207.3C28.24 204.8 23.42 195.9 25.94 187.4C31.18 169.9 38.37 153.1 47.26 137.5C37.75 126.3 32 111.8 32 96C32 60.65 60.66 32 96 32C111.8 32 126.3 37.74 137.5 47.26C153.1 38.37 169.9 31.17 187.4 25.94C195.9 23.42 204.8 28.24 207.3 36.71V36.71zM96 127.1C113.7 127.1 128 113.7 128 95.1C128 78.33 113.7 63.1 96 63.1C78.33 63.1 64 78.33 64 95.1C64 113.7 78.33 127.1 96 127.1zM304.7 36.71C307.2 28.24 316.1 23.42 324.6 25.94C342.1 31.18 358.9 38.37 374.5 47.26C385.7 37.74 400.2 32 416 32C451.3 32 480 60.65 480 96C480 111.8 474.3 126.3 464.7 137.5C473.6 153.1 480.8 169.9 486.1 187.4C488.6 195.9 483.8 204.8 475.3 207.3C466.8 209.9 457.9 205 455.4 196.6C451.2 182.3 445.4 168.7 438.4 155.1C431.4 158.6 423.9 160 416 160C380.7 160 352 131.3 352 96C352 88.12 353.4 80.56 356 73.59C343.3 66.57 329.7 60.85 315.4 56.61C306.1 54.09 302.1 45.18 304.7 36.71H304.7zM416 127.1C433.7 127.1 448 113.7 448 95.1C448 78.33 433.7 63.1 416 63.1C398.3 63.1 384 78.33 384 95.1C384 113.7 398.3 127.1 416 127.1V127.1zM36.71 304.7C45.18 302.1 54.09 306.1 56.61 315.4C60.85 329.7 66.57 343.3 73.59 356C80.56 353.4 88.12 352 96 352C131.3 352 160 380.7 160 416C160 423.9 158.6 431.4 155.1 438.4C168.7 445.4 182.3 451.2 196.6 455.4C205 457.9 209.9 466.8 207.3 475.3C204.8 483.8 195.9 488.6 187.4 486.1C169.9 480.8 153.1 473.6 137.5 464.7C126.3 474.3 111.8 480 96 480C60.66 480 32 451.3 32 416C32 400.2 37.75 385.7 47.26 374.5C38.37 358.9 31.18 342.1 25.94 324.6C23.42 316.1 28.24 307.2 36.71 304.7V304.7zM96 384C78.33 384 64 398.3 64 416C64 433.7 78.33 448 96 448C113.7 448 128 433.7 128 416C128 398.3 113.7 384 96 384zM475.3 304.7C483.8 307.2 488.6 316.1 486.1 324.6C480.8 342.1 473.6 358.9 464.7 374.5C474.3 385.7 480 400.2 480 416C480 451.3 451.3 480 416 480C400.2 480 385.7 474.3 374.5 464.7C358.9 473.6 342.1 480.8 324.6 486.1C316.1 488.6 307.2 483.8 304.7 475.3C302.1 466.8 306.1 457.9 315.4 455.4C329.7 451.2 343.3 445.4 356 438.4C353.4 431.4 352 423.9 352 416C352 380.7 380.7 352 416 352C423.9 352 431.4 353.4 438.4 356C445.4 343.3 451.2 329.7 455.4 315.4C457.9 306.1 466.8 302.1 475.3 304.7V304.7zM416 384C398.3 384 384 398.3 384 416C384 433.7 398.3 448 416 448C433.7 448 448 433.7 448 416C448 398.3 433.7 384 416 384V384zM144.8 168.8C144.8 159.1 151.1 152.8 160.8 152.8H206.4C220.1 152.8 232.8 164.6 232.8 179.2V224.8C232.8 233.6 225.6 240.8 216.8 240.8C207.1 240.8 200.8 233.6 200.8 224.8V211.5C190.8 223.9 184.8 239.6 184.8 256.8C184.8 284.8 200.7 309 224.1 320.1C231.9 324.1 235.1 334.6 231 342.5C227 350.4 217.4 353.5 209.5 349.4C175.9 332.3 152.8 297.2 152.8 256.8C152.8 229.2 163.6 203.1 181.2 185.4C181.4 185.2 181.6 184.1 181.8 184.8H160.8C151.1 184.8 144.8 177.6 144.8 168.8H144.8zM307.2 360.8C292.6 360.8 280.8 348.1 280.8 334.4V288.8C280.8 279.1 287.1 272.8 296.8 272.8C305.6 272.8 312.8 279.1 312.8 288.8V300.5C322.8 288.1 328.8 272.4 328.8 255.2C328.8 227.2 312.9 202.1 289.5 191C281.6 187 278.5 177.4 282.6 169.5C286.6 161.7 296.2 158.5 304.1 162.6C337.7 179.7 360.8 214.8 360.8 255.2C360.8 282.8 349.1 308 332.4 326.6C331.6 327.4 330.8 328.2 329.9 328.8H352.8C361.6 328.8 368.8 335.1 368.8 344.8C368.8 353.6 361.6 360.8 352.8 360.8H307.2z"/></svg>