<svg xmlns="http://www.w3.org/2000/svg" viewBox="0 0 576 512"><!--! Font Awesome Pro 6.1.1 by @fontawesome - https://fontawesome.com License - https://fontawesome.com/license (Commercial License) Copyright 2022 Fonticons, Inc. --><path d="M544 112h-18.26C518.6 84.45 493.8 64 464 64H128V48C128 39.16 120.8 32 112 32S96 39.16 96 48V64C42.98 64 0 106.1 0 160c0 47.94 35.24 87.33 81.16 94.5l-47.91 184.7C27.41 459.6 42.76 480 64.02 480h103.8c14.29 0 26.84-9.469 30.77-23.21L227.1 352H288v16c0 8.836 7.164 16 16 16s16-7.164 16-16v-64C320 295.2 312.8 288 304 288S288 295.2 288 304V320H235.8l17.4-64H464c29.79 0 54.6-20.45 61.74-48H544c17.67 0 32-14.33 32-32v-32C576 126.3 561.7 112 544 112zM167.9 448L64.22 447.2L113.8 256h106.2L167.9 448zM544 176h-43.03l-6.211 23.98C491.1 214.1 478.4 224 464 224H96C60.71 224 32 195.3 32 160s28.71-64 64-64h368c14.45 0 27.1 9.879 30.76 24.02L500.1 144H544V176zM448 144H96C87.16 144 80 151.2 80 160S87.16 176 96 176h352c8.844 0 16-7.156 16-16S456.8 144 448 144z"/></svg>