<svg xmlns="http://www.w3.org/2000/svg" viewBox="0 0 576 512"><!--! Font Awesome Pro 6.1.1 by @fontawesome - https://fontawesome.com License - https://fontawesome.com/license (Commercial License) Copyright 2022 Fonticons, Inc. --><path d="M544 64h-32V48C512 39.16 504.8 32 496 32S480 39.16 480 48V64H43.17C19.33 64 0 83.33 0 107.2v89.66C0 220.7 19.33 240 43.17 240c21.26 0 36.61 20.35 30.77 40.79l-40.69 158.4C27.41 459.7 42.76 480 64.02 480h119.8c14.29 0 26.84-9.469 30.77-23.21L242.4 352h78.58c20.69 0 39-13.19 45.53-32.81L392.9 240h41.87c8.486 0 16.62-3.373 22.63-9.373L480 208h64c17.67 0 32-14.33 32-32V96C576 78.33 561.7 64 544 64zM183.9 448l-119.6-.832l40.46-157.6C109.6 272.6 106.9 255 98.12 240h140.8L183.9 448zM336.1 309.1C333.9 315.6 327.8 320 320.9 320H250.8L272 240h87.12L336.1 309.1zM544 176h-77.26l-31.1 32H43.17C37 208 32 203 32 196.8V107.2C32 101 37 96 43.17 96H544V176z"/></svg>