<svg xmlns="http://www.w3.org/2000/svg" viewBox="0 0 640 512"><!--! Font Awesome Pro 6.0.0-beta3 by @fontawesome - https://fontawesome.com License - https://fontawesome.com/license (Commercial License) Copyright 2021 Fonticons, Inc. --><path d="M531.9 231.1h-62.84l146.5-139.5c4.734-4.529 6.234-11.46 3.812-17.52C616.9 67.97 611.1 64 604.5 64H384c-8.844 0-16 7.152-16 15.99s7.156 15.99 16 15.99h180.5l-146.5 139.5c-4.734 4.529-6.234 11.46-3.812 17.52c2.438 6.09 8.312 10.06 14.86 10.06h102.8C573.9 263.1 608 297.4 608 339.5s-34.13 76.33-76.06 76.33h-82.92c-22.64 0-42.67-14.49-49.83-36.04c-2.781-8.37-11.84-12.93-20.23-10.12c-8.391 2.78-12.92 11.84-10.14 20.24c11.53 34.64 43.75 57.9 80.2 57.9h82.92C591.5 447.8 640 399.2 640 339.5C640 279.7 591.5 231.1 531.9 231.1zM304 64.22c-8.844 0-16 7.152-16 15.99v159.9H32V80.21c0-8.839-7.156-15.99-16-15.99S0 71.37 0 80.21v351.8C0 440.8 7.156 448 16 448S32 440.8 32 432V272.1h256v159.9C288 440.8 295.2 448 304 448s16-7.152 16-15.99V80.21C320 71.37 312.8 64.22 304 64.22z"/></svg>