<svg xmlns="http://www.w3.org/2000/svg" viewBox="0 0 640 512"><!--! Font Awesome Pro 6.1.1 by @fontawesome - https://fontawesome.com License - https://fontawesome.com/license (Commercial License) Copyright 2022 Fonticons, Inc. --><path d="M624 64.22c-8.844 0-16 7.152-16 15.99v187.7h-194.1l33.86-184.8c1.594-8.683-4.156-17.02-12.86-18.61c-8.641-1.374-17.03 4.185-18.61 12.87l-37.33 203.7c-.8594 4.654 .4062 9.463 3.438 13.12c3.047 3.654 7.547 5.747 12.3 5.747H608v132.1C608 440.8 615.2 448 624 448s16-7.152 16-15.99V80.21C640 71.37 632.8 64.22 624 64.22zM304 64C295.2 64 288 71.15 288 79.99v159.9H32V79.99C32 71.15 24.84 64 16 64S0 71.15 0 79.99V431.8c0 8.839 7.156 15.99 16 15.99S32 440.6 32 431.8V271.9h256v159.9c0 8.839 7.156 15.99 16 15.99s16-7.152 16-15.99V79.99C320 71.15 312.8 64 304 64z"/></svg>