<svg xmlns="http://www.w3.org/2000/svg" viewBox="0 0 512 512"><!--! Font Awesome Pro 6.0.0-beta3 by @fontawesome - https://fontawesome.com License - https://fontawesome.com/license (Commercial License) Copyright 2021 Fonticons, Inc. --><path d="M511.9 191.1c-.0938-30.83-25.34-55.98-56.16-55.98c-7.695 0-23.78 1.151-23.78 16.73c0 9.793 8.218 16.05 15.99 16.05c2.886 0 3.756-.7368 7.474-.7368c12.75 0 24.31 10.65 24.34 23.92L480 341.1c0 57.64-34.06 109.7-84.75 129.5c-6.332 2.47-10.2 8.512-10.2 14.9c0 8.678 7.025 16 16.01 16C410.7 501.5 512 458.6 512 341.1L511.9 191.1zM399.8 191.9c-.0488-30.85-25.17-55.94-56-55.94c-30.88 0-56 25.13-56 56.02v9.225l-95.13-96.05C181.7 94.22 166.8 88 151.5 88c-35.37 0-48.89 28.91-50.89 33.55C96.31 120.5 91.91 120 87.49 120c-13.76 0-26.89 5.004-36.96 14.09c-4.331 3.906-18.53 18.07-18.53 41.6c0 4.353 .5135 8.67 1.505 12.86C9.673 198.8 .001 222 .001 239.8c0 14.78 5.929 29.15 16.39 39.63l9.346 9.354C.6921 304.8 .0117 330.9 .0117 335.8c0 15.59 6.473 31.21 19.08 42.27l104.6 92.63C154.3 497.4 193.2 512 233.5 512C329.4 512 400 433.2 400 341.1L399.8 191.9zM233.5 480c-32.56 0-64-11.82-88.56-33.31l-104.7-92.73c-5.417-4.751-8.186-11.4-8.186-18.08c0-13.22 10.7-24.01 24-24.01c5.615 0 11.26 1.959 15.81 5.932l52.19 49.41c1.729 1.621 3.932 2.426 6.135 2.426c4.806 0 8.972-3.871 8.972-8.979c0-2.298-.876-4.596-2.628-6.349L39.03 256.8C34.34 252.1 32 245.9 32 239.8c0-12.5 9.741-23.72 23.49-23.72c6.678 0 13.44 2.682 18.44 7.688l95.81 95.89c1.943 1.943 4.488 2.914 7.031 2.914c5.326 0 9.945-4.289 9.945-9.952c0-2.547-.9707-5.094-2.912-7.036L71.03 192.7C66.34 188 63.1 181.9 63.1 175.7c0-12.49 9.739-23.72 23.49-23.72c6.676 0 13.44 2.682 18.44 7.688l111.8 111.9c1.941 1.943 4.486 2.914 7.031 2.914c5.326 0 9.945-4.289 9.945-9.952c0-2.547-.9707-5.095-2.912-7.038L135 160.7C130.3 156 128 149.9 128 143.7C128 131.2 137.7 120 151.5 120c6.678 0 13.44 2.682 18.44 7.688l133.7 135c1.928 1.928 4.297 2.793 6.621 2.793c4.865 0 9.533-3.781 9.533-9.492l.1367-64c0-13.27 10.61-24.02 23.87-24.02c13.24 0 23.98 10.73 24 23.98L368 341.1C368 415.4 312.4 480 233.5 480zM383.4 96c5.125 0 10.16-2.453 13.25-7.016l32.56-48c1.854-2.746 2.744-5.865 2.744-8.951c0-8.947-7.273-16.04-15.97-16.04c-5.125 0-10.17 2.465-13.27 7.02l-32.56 48C368.3 73.76 367.4 76.88 367.4 79.97C367.4 88.88 374.7 96 383.4 96zM243.3 88.98C246.4 93.55 251.4 96 256.6 96c8.762 0 15.99-7.117 15.99-16.03c0-3.088-.8906-6.205-2.744-8.951l-32.56-48C234.2 18.46 229.1 15.98 223.1 15.98c-8.664 0-15.98 7.074-15.98 16.05c0 3.086 .8906 6.205 2.744 8.951L243.3 88.98zM320 96c8.844 0 16-7.156 16-16v-64C336 7.156 328.8 0 320 0s-16 7.156-16 16v64C304 88.84 311.2 96 320 96z"/></svg>