<svg xmlns="http://www.w3.org/2000/svg" viewBox="0 0 448 512"><!--! Font Awesome Pro 6.1.1 by @fontawesome - https://fontawesome.com License - https://fontawesome.com/license (Commercial License) Copyright 2022 Fonticons, Inc. --><path d="M388.6 86.86c-4.469 0-8.906 .5313-13.25 1.547c-10.28-18.39-29.88-30.5-51.88-30.5c-9 0-17.69 2.031-25.56 5.781c-9.406-20.48-30.09-34.73-54.06-34.73c-6.781 0-13.41 1.172-19.69 3.406C214.2 13.11 194.2 0 171.4 0C138.7 0 112 26.66 112 59.42v115.8c0 8.844 7.156 16 16 16s16-7.156 16-16V59.42C144 44.3 156.3 32 171.4 32c14.25 0 26.16 11.23 27.16 25.58c.5893 8.251 7.414 14.89 15.98 14.89c11.85 0 12.58-11.51 29.24-11.51c15.12 0 27.44 12.3 27.44 27.42V93.39c0 5.138 3.986 16.01 15.99 16.01c15.99 0 13.5-19.49 36.2-19.49c13.16 0 24.47 9.406 26.91 22.36c1.07 5.713 6.31 13.04 15.75 13.04c8.638 0 10.03-6.205 21.91-6.205C402.5 119.1 416 131 416 146.3v108.9c0 41.84-29.41 76.48-56.91 94.94C354.7 353.1 352 358.1 352 363.4V496c0 8.844 7.156 16 16 16s16-7.156 16-16v-124.3c32.13-24.09 64-65.77 64-116.5V146.3C448 113.5 421.3 86.86 388.6 86.86zM96.97 321.2C76.31 306.2 64 281.1 64 256.5V192.6c0-8.641 3.875-16.7 10.62-22.11l15.37-12.31C93.95 155 95.1 150.4 95.1 145.7c0-8.427-6.726-15.99-15.99-15.99c-3.528 0-7.077 1.155-10.02 3.516l-15.37 12.31C40.25 157 32 174.2 32 192.6v63.89c0 35.66 17.22 69.52 47.31 91.38L128 377.1V496C128 504.8 135.2 512 144 512S160 504.8 160 496v-128c0-5.625-2.938-10.83-7.781-13.72L96.97 321.2z"/></svg>