<svg xmlns="http://www.w3.org/2000/svg" viewBox="0 0 640 512"><!--! Font Awesome Pro 6.1.1 by @fontawesome - https://fontawesome.com License - https://fontawesome.com/license (Commercial License) Copyright 2022 Fonticons, Inc. --><path d="M320 416c8.844 0 16-7.156 16-16v-32h32c8.844 0 16-7.156 16-16s-7.156-16-16-16h-32v-32C336 295.2 328.8 288 320 288S304 295.2 304 304v32h-32C263.2 336 256 343.2 256 352s7.156 16 16 16h32v32C304 408.8 311.2 416 320 416zM80 224C88.84 224 96 216.8 96 208V160h32c8.844 0 16-7.156 16-16S136.8 128 128 128H96V80C96 71.16 88.84 64 80 64S64 71.16 64 80V128H16C7.156 128 .0078 135.2 .0078 143.1S7.156 160 16 160H64v48C64 216.8 71.16 224 80 224zM624 416H576v-48c0-8.844-7.146-16-15.99-16S544 359.2 544 368V416h-48c-8.844 0-15.99 7.152-15.99 15.1S487.2 448 496 448H544v48c0 8.844 7.166 16 16.01 16S576 504.8 576 496V448h48c8.844 0 15.99-7.152 15.99-15.1S632.8 416 624 416zM456.9 459.7C445.1 459.7 428.8 480 383.1 480H282.2c-37.26 0-72.42-18.12-94.36-48.89L101.2 317.2c-3.536-4.652-5.278-10.15-5.278-15.5c0-13.31 10.56-22.41 22.26-22.41c5.763 0 13.05 2.263 18.88 9.938l34.2 44.98c6.248 8.222 15.89 12.87 25.56 12.87c4.032 0 27.2-2.604 27.2-26.13C224 320.7 224 320.3 224 320V88.95c0-12.42 9.247-24.95 24-24.95C261.2 63.1 272 74.77 272 88v151.2c0 2.773 2.19 16.83 16 16.83c8.843 0 15.85-7.157 15.85-16l.1328-152.2c0-.1055 0 .1055 0 0L303.1 56.95c0-12.42 9.247-24.95 24.01-24.95c13.24 0 24 10.77 24 24v183.2c0 2.773 2.205 16.83 16.02 16.83c8.845 0 15.94-7.157 15.94-16l.0439-151.1c0-12.42 9.248-24.95 24-24.95c13.24 0 24 10.77 24 24v150.7c0 2.773 2.188 16.84 16 16.84c8.845 0 16-7.155 16-15.1V136.3c0-12.48 9.295-24.98 24-24.98c13.23 0 24 10.8 24 24.06V300.1c0 8.822 7.152 15.97 15.97 15.97S544 308.9 544 300.1V137.4c0-21.74-16.47-58.06-56.01-58.06c-8.624 0-16.8 1.954-24.09 5.454C462.2 55.38 437.8 32 407.1 32c-9.658 0-18.77 2.469-26.71 6.781C373.1 16.3 352.7 0 327.8 0C302.9 0 282.1 16.55 274.9 39.17c-8.012-4.43-17.08-7.174-26.87-7.174C208.4 31.1 192 68.61 192 90.79v217.1l-30.24-39c-10.27-13.43-26.38-21.52-43.31-21.52c-29.56 0-54.45 23.06-54.45 54.46c0 12.14 3.856 24.46 11.72 34.79l86.36 113.5C189.7 488.9 234.6 512 282.2 512h101.8c32.16 0 88.77-15.15 88.77-36.42C472.8 469.5 468.1 459.7 456.9 459.7z"/></svg>