<svg xmlns="http://www.w3.org/2000/svg" viewBox="0 0 512 512"><!--! Font Awesome Pro 6.1.1 by @fontawesome - https://fontawesome.com License - https://fontawesome.com/license (Commercial License) Copyright 2022 Fonticons, Inc. --><path d="M375.1 480H270.1c-33.64 0-61-27.06-61-60.31v-7.328c-18.33-10.7-30-30.25-30-51.73v-14.78c0-4.922 .625-9.781 1.828-14.5c0 0-119.2 8.316-120.5 8.316C38.14 339.7 0 321.7 0 279.3c0-31.46 24.63-57.81 56.65-60.06l99.63-7.016L69.97 180.9C58.2 176.7 29.93 160.3 29.93 124.4C29.93 91.29 57.13 64 90.99 64c6.984 0 14.09 1.197 21.02 3.723l149.3 55.02c1.371-3.35 21.83-27.7 24.22-30.64c14.48-17.84 36.09-28.08 59.27-28.08h50.33c27.84 0 53.42 14.1 66.75 39.16l33.56 60.91C506.3 183.7 512 205.8 512 228.2v117.7C512 419.8 450.1 480 375.1 480zM210.7 297.3c8.917 0 15.1 7.265 15.1 16c0 13.56-14.71 13.31-14.71 32.56v14.78c0 29.22 30.28 21.18 30.28 41.65c0 .3791-.0135 .7605-.0407 1.143l-.2344 16.27c0 15.61 13.02 28.31 29 28.31h105c57.34 0 104-45.83 104-102.2v-117.7c0-16.94-4.344-33.77-12.56-48.64l-33.56-60.91c-7.688-13.94-22.53-22.61-38.72-22.61h-50.33c-13.48 0-26.03 5.922-34.42 16.25L292.5 134.3l71.34 26.28c6.472 2.389 10.47 8.505 10.47 15.02c0 8.767-7.098 16.03-15.96 16.03c-1.851 0-3.735-.3261-5.577-1.015L101 97.77c-3.302-1.203-6.693-1.773-10.03-1.773c-15.96 0-29.03 12.68-29.03 28.4c0 5.798 2.731 20.63 18.9 26.46l157.2 57.02c6.4 2.321 10.55 8.39 10.55 15.04c0 13.06-12.25 15.78-14.87 15.96L58.9 251.2c-14.97 1.066-26.9 13.91-26.9 28.5c0 15.25 12.92 28.02 29.24 28.02c.5921 0 1.188-.017 1.787-.0514C63.03 307.6 210.3 297.3 210.7 297.3z"/></svg>