<svg xmlns="http://www.w3.org/2000/svg" viewBox="0 0 448 512"><!--! Font Awesome Pro 6.0.0-beta3 by @fontawesome - https://fontawesome.com License - https://fontawesome.com/license (Commercial License) Copyright 2021 Fonticons, Inc. --><path d="M448 285V376c0 74.98-60.19 136-134.2 136H196.2c-22.31 0-44.47-5.703-64.09-16.52l-60.88-33.58C47 448.6 32 423 32 395.2v-50.33c0-23.16 10.22-44.75 28.28-59.42L96 257.4v40.67L80.25 310.4C69.94 318.8 64 331.3 64 344.8v50.33c0 16.2 8.656 31.03 22.62 38.72l60.88 33.58C162.4 475.7 179.2 480 196.2 480h117.7C370.2 480 416 433.3 416 376V285C416 269 403.3 256 387.7 256c0 0-16.87 .2559-17 .2559C350 256.3 357.4 224 328.6 224h-14.78c-10.99 0-13.6 5.012-21.72 5.012C275.5 229 278.6 208 254.8 208h-17.25c-16.82 0-17.63 11.69-29.56 11.69C199.3 219.7 192 212.6 192 203.7V56C192 42.75 181.3 32 168 32C154.7 32 144 42.75 144 56L143.1 336c0 8.836-7.164 16-16 16s-16.01-7.167-16.01-16L112 56c0-34.72 31.76-62.16 67.76-54.8C205.9 6.561 224 30.88 224 57.6v119.1C228.4 176.5 232.9 176 237.5 176h17.25c16.03 0 31.06 6.375 42.19 17.53C302.5 191.8 308.1 192 313.8 192h14.78c21.47 0 41.03 13.67 51.72 32h7.344C420.9 224 448 251.4 448 285z"/></svg>