<svg xmlns="http://www.w3.org/2000/svg" viewBox="0 0 512 512"><!--! Font Awesome Pro 6.1.1 by @fontawesome - https://fontawesome.com License - https://fontawesome.com/license (Commercial License) Copyright 2022 Fonticons, Inc. --><path d="M271.9 384c-8.75 0-15.93 7.25-15.93 16s7.25 16 16 16c8.75 0 15.93-7.25 15.93-16S280.6 384 271.9 384zM271.9 320c-8.75 0-16 7.25-16 16s7.185 16 15.93 16c8.75 0 15.1-7.25 15.1-16S280.7 320 271.9 320zM207.9 288C199.1 288 191.9 295.3 191.9 304S199.1 320 207.9 320c8.75 0 15.1-7.25 15.1-16S216.6 288 207.9 288zM207.9 416c-8.75 0-15.1 7.25-15.1 16S199.1 448 207.9 448c8.75 0 15.1-7.25 15.1-16S216.6 416 207.9 416zM367.9 352c-8.75 0-15.1 7.25-15.1 16s7.25 16 15.1 16s15.1-7.25 15.1-16S376.6 352 367.9 352zM399.9 288c-8.75 0-16 7.25-16 16s7.25 16 16 16s15.1-7.25 15.1-16S408.6 288 399.9 288zM335.9 416c-8.75 0-15.1 7.25-15.1 16s7.25 16 15.1 16c8.75 0 16-7.25 16-16S344.6 416 335.9 416zM335.9 320c8.75 0 16-7.25 16-16s-7.25-16-16-16c-8.75 0-15.1 7.25-15.1 16S327.1 320 335.9 320zM423.1 79.3c-8.625 0-16.8 1.953-24.1 5.453C398.2 55.38 373.8 32 343.1 32c-9.658 0-18.77 2.469-26.71 6.781C309.1 16.3 288.1 0 264.1 0C239.1 0 218.1 16.55 210.9 39.17C202.9 34.74 193.8 32 184 32C153.1 32 128 57.13 128 88v219.9l-30.24-39c-10.27-13.43-26.38-21.52-43.31-21.52C24.89 247.4 0 270.4 0 301.8c0 12.14 3.856 24.46 11.72 34.79l86.36 113.5C125.7 488.9 170.6 512 218.2 512h101.8C408.2 512 480 440.1 480 351.8v-216.4C480 104.5 454.9 79.3 423.1 79.3zM447.1 351.8C447.1 422.5 390.6 480 319.1 480H218.2c-37.26 0-72.42-18.12-94.36-48.89L37.19 317.2c-3.536-4.652-5.278-10.15-5.278-15.5c0-13.31 10.56-22.41 22.26-22.41c7.047 0 13.82 3.304 18.13 8.953l34.94 45.97c6.248 8.222 15.89 12.87 25.56 12.87c4.032 0 27.2-2.604 27.2-26.13c0-.3269-.0056-.6556-.0168-.9861V88c0-13.23 10.77-24 23.1-24s23.1 10.77 23.1 24L208.1 240c0 8.844 7.049 16 15.89 16c8.844 0 16.11-7.156 16.11-16L239.1 87.85c0-.1055 0 .1055 0 0L239.1 56c0-13.23 10.77-24 24-24c13.24 0 24 10.77 24 24l.0736 184c0 8.844 7.103 16 15.95 16c8.846 0 16.06-7.156 16.06-16l-.0692-152c0-13.23 10.77-24 24-24c13.24 0 24 10.77 24 24v151.6c0 8.844 7.156 16 16 16c8.844 0 16-7.156 16-16V135.4c0-13.27 10.77-24.06 24-24.06s24 10.8 24 24.06V351.8z"/></svg>