<svg xmlns="http://www.w3.org/2000/svg" viewBox="0 0 640 512"><!--! Font Awesome Pro 6.0.0-beta3 by @fontawesome - https://fontawesome.com License - https://fontawesome.com/license (Commercial License) Copyright 2021 Fonticons, Inc. --><path d="M473.5 176H384c-8.844 0-16 7.156-16 16s7.156 16 16 16h89.5C477.1 208 480 210.9 480 214.5v45C480 263.1 477.1 266 473.5 266H464c-8.844 0-16 7.156-16 16v45c0 16.53-11.61 29-27 29H416c-8.844 0-16 7.156-16 16c0 24.28-19.73 44.03-44 44.03L240 416c-2.781 0-5.516 .7187-7.938 2.094l-112 64C112.4 486.5 109.7 496.3 114.1 503.9C117.1 509.1 122.4 512 128 512c2.688 0 5.428-.6875 7.928-2.094L244.3 448L356 448c36.69 0 67.39-26.12 74.47-60.78C458.9 382.7 480 357.9 480 327V297.4c18.14-3.094 32-18.92 32-37.94v-45C512 193.3 494.7 176 473.5 176zM126 266.8c0-43.7 21.77-82.88 58.22-104.8c7.562-4.562 10.02-14.39 5.469-21.97C185.1 132.5 175.3 129.1 167.8 134.6C124.3 160.7 97.28 206.1 94.31 257.3L8.125 306.1c-7.703 4.375-10.41 14.12-6.047 21.81C5.016 333.1 10.44 336 16.02 336c2.672 0 5.375-.6562 7.859-2.062L126 276.1V266.8zM280 288c30.88 0 56-25.12 56-56V154c0-8.844-7.156-16-16-16s-16 7.156-16 16V232C304 245.2 293.2 256 280 256S256 245.2 256 232V118c0-4.812 2.438-9.203 6.531-11.75C290.1 89.09 321.9 80 354.4 80l61.6-.0034c.0039 0-.0039 0 0 0c.002 0-.002 0 0 0c.0137 0-.0137 0 0 0c2.703-.0098 5.166-.8599 7.394-2.049c.2617-.1387 .5625-.0742 .8203-.2285l80-48c7.578-4.547 10.03-14.38 5.484-21.95c-4.547-7.562-14.39-10.03-21.95-5.484L411.6 48h-57.15c-38.5 0-76.14 10.77-108.8 31.12C232.1 87.55 224 102.1 224 118V232C224 262.9 249.1 288 280 288zM637.5 183.5C632.9 176 622.1 173.8 615.5 178.5l-63.81 40.19c-7.469 4.703-9.719 14.58-5 22.06c3.031 4.828 8.234 7.469 13.55 7.469c2.906 0 5.859-.7969 8.516-2.469l63.81-40.19C640 200.8 642.3 190.1 637.5 183.5z"/></svg>