<svg xmlns="http://www.w3.org/2000/svg" viewBox="0 0 512 512"><!--! Font Awesome Pro 6.0.0-beta3 by @fontawesome - https://fontawesome.com License - https://fontawesome.com/license (Commercial License) Copyright 2021 Fonticons, Inc. --><path d="M226.1 480H135.1c-74.98 0-136-60.19-136-134.2V228.2c0-22.31 5.703-44.47 16.52-64.09l33.58-60.88C63.41 79 88.98 64 116.8 64h50.33c23.16 0 44.75 10.22 59.42 28.28L254.6 128H213.1L201.6 112.3C193.2 101.9 180.7 96 167.2 96H116.8C100.6 96 85.81 104.7 78.12 118.6L44.55 179.5C36.34 194.4 31.1 211.2 31.1 228.2v117.7C31.1 402.2 78.66 448 135.1 448h90.1c15.98 0 29-12.69 29-28.31c0 0-.2559-16.87-.2559-17c0-20.64 32.26-13.24 32.26-42.06v-14.78c0-10.99-5.012-13.6-5.012-21.72c0-16.65 21.01-13.5 21.01-37.35V269.5c0-16.82-11.69-17.63-11.69-29.56C292.3 231.3 299.4 224 308.3 224h147.7c13.25 0 24-10.74 24-24c0-13.25-10.75-24-24-24L175.1 175.1c-8.836 0-16-7.164-16-16s7.167-16.01 16-16.01L455.1 144c34.72 0 62.16 31.76 54.8 67.76C505.4 237.9 481.1 256 454.4 256h-119.1c1.047 4.406 1.594 8.938 1.594 13.53v17.25c0 16.03-6.375 31.06-17.53 42.19c1.688 5.5 1.531 11.12 1.531 16.88v14.78c0 21.47-13.67 41.03-32 51.72v7.344C287.1 452.9 260.6 480 226.1 480z"/></svg>