<svg xmlns="http://www.w3.org/2000/svg" viewBox="0 0 512 512"><!--! Font Awesome Pro 6.1.1 by @fontawesome - https://fontawesome.com License - https://fontawesome.com/license (Commercial License) Copyright 2022 Fonticons, Inc. --><path d="M392 176.1c-9.785 0-18.85 2.744-26.87 7.174c-7.195-22.62-28.15-39.17-53.13-39.17c-5.525 0-10.76 1.051-15.81 2.549c0 0 7.808-89.09 7.808-90.73c0-21.37-16.72-55.91-55.72-55.91c-28.59 0-53.48 21.86-56.06 51.04L180.2 186.5L123.8 50.12c-8.923-21.5-29.84-34.53-51.84-34.53c-29.49 0-55.93 23.37-55.93 55.93c0 7.28 1.437 14.56 4.303 21.49l72.23 174.4c-26.08 8.406-44.52 32.87-44.52 60.69v63.98c0 19.89 8.998 38.29 24.72 50.5l46.03 35.8C146.7 500 181.6 512 216.9 512h79.06C379.8 512 448 443.8 448 360V232.1C448 201.2 422.9 176.1 392 176.1zM288 200c0-13.23 10.78-24 24-24s24 10.77 24 24v96c0 13.23-10.78 24-24 24S288 309.2 288 296V200zM224.1 53.85c1.094-12.5 11.68-21.88 23.94-21.88c12.79 0 23.97 10.31 23.97 23.96c0 .7104-.0313 1.425-.0943 2.141L261.4 176.4c-3.393 7.213-5.434 15.17-5.434 23.65v37.75L255.1 248.6c-9.529-5.328-20.38-8.396-31.67-8.396c-4.216 0-8.495 .4278-12.79 1.325L207.4 242.2L224.1 53.85zM49.87 80.75C48.63 77.78 48.01 74.67 48.01 71.56c0-12.57 9.966-23.99 24.02-23.99c9.43 0 18.33 5.603 22.17 14.81L170.7 247.1c.4121 .9863 1.146 1.693 1.721 2.551L124.1 260L49.87 80.75zM296 480H216.9c-28.28 0-56.18-9.561-78.56-26.93l-46.03-35.79c-7.717-6.014-12.34-15.46-12.34-25.26v-63.98c0-14.1 10.62-28.15 25.28-31.29L217.2 272.8c2.201-.4537 4.399-.672 6.566-.672c15.79 0 32.22 12.48 32.22 31.98c0 14.74-10.29 28.03-25.28 31.25l-74.06 15.86c-7.528 1.603-12.67 8.238-12.67 15.62c0 9.759 8.252 16.02 16.01 16.02c1.109 0 2.229-.1203 3.344-.3708l74.06-15.86c16.94-3.633 30.8-13.73 39.72-27.1c9.6 7.715 21.62 12.53 34.87 12.53c9.785 0 18.85-2.744 26.87-7.174c7.193 22.62 28.15 39.16 53.13 39.16c7.822 0 15.26-1.635 22.03-4.545C404.7 436.4 355.5 480 296 480zM416 328c0 13.23-10.78 23.99-24 23.99c-13.22 0-24.1-10.85-24.1-24.08l.1064-95.89c0-13.23 10.78-23.99 23.1-23.99c13.22 0 24 10.76 24 23.99V328z"/></svg>