<svg xmlns="http://www.w3.org/2000/svg" viewBox="0 0 512 512"><!--! Font Awesome Pro 6.1.1 by @fontawesome - https://fontawesome.com License - https://fontawesome.com/license (Commercial License) Copyright 2022 Fonticons, Inc. --><path d="M463.1 128c-11.61 0-22.27 4.144-30.58 11.03l-35.85-98.49c-7.053-19.38-25.35-32.39-45.52-32.39c-2.883 0-5.797 .2656-8.721 .8222c-8.738 1.658-16.71 5.644-23.16 11.41C311.2 7.847 296.6 .0039 280.1 0c-2.883 0-5.813 .2676-8.738 .8241c-13.91 2.64-25.9 11.19-32.87 23.45C234.5 32.78 232.4 42.44 233.2 51.98C232.8 51.96 232.3 51.96 231.8 51.96c-2.881 0-5.791 .2636-8.713 .8183C209.1 55.42 197.1 63.97 190.2 76.23C185.3 84.74 183.3 94.4 184 103.9C183.6 103.9 183.1 103.9 182.6 103.9c-2.883 0-5.799 .2676-8.723 .8222C155.3 108.2 140.2 122.2 135.8 141.5c-2.154 9.4-.9805 19.27 2.318 28.34L139.1 172.5c3.613 9.925 15.58 13.83 24.35 7.933c7.068-4.75 9.273-14.15 5.055-21.55L167.7 157.4C164.3 148.3 169.8 138.1 179.8 136.2c.9199-.1758 1.84-.2597 2.748-.2597c1.635 0 3.172 .33 4.613 .9081C195.8 140.3 202.5 137.1 204.7 137.2C216.2 133.1 222.5 120.8 218.3 109.4L216.9 105.4C213.5 96.3 219 86.11 229 84.21c.9199-.1758 1.838-.2578 2.746-.2578c6.813 0 13.05 4.732 15.45 11.34l12.99 35.7c1.678 4.607 5.375 8.193 10.04 9.726c12.69 4.173 24.6-8.118 20.04-20.67l-24.23-66.57c-3.322-9.13 2.188-19.32 12.16-21.22c.9219-.1758 1.84-.2597 2.75-.2597c6.811 .002 13.04 4.734 15.45 11.34l40.49 111.2c.1445 .3984 2.893 9.032 13.31 10.32c11.72 1.449 20.7-10.42 16.66-21.52l-29.74-81.71c-3.324-9.132 2.186-19.32 12.16-21.22c.9199-.1758 1.84-.2597 2.748-.2597c6.813 0 13.05 4.732 15.45 11.34l53.74 147.6c1.016 2.789 2.904 5.177 5.385 6.808c9.176 6.033 21.38-.5488 21.38-11.53V176.9c0-7.968 5.445-15.35 13.31-16.64c10.03-1.631 18.69 6.06 18.69 15.78v128.3c0 8.704 7.068 15.75 15.77 15.73l.4687-.002c8.676-.0195 15.7-7.056 15.7-15.73L512 176C511.1 149.6 490.5 128 463.1 128zM359.1 203.9L247.2 166.8C242.8 165.2 237.3 164.2 231.7 164.2c-20.1 0-38.23 12.69-45.11 31.58C183.2 205.2 182.9 215 185.2 224h-104.3c-24.15 0-44.43 16.89-48.22 40.17C31.2 272.1 32.22 281.8 35.42 289.8c-17.92 4.939-31.73 19.57-34.79 38.36c-2.277 13.99 1.658 28.17 10.79 38.91c6.338 7.452 14.69 12.7 23.92 15.22c-1.238 3.127-2.158 6.425-2.717 9.862c-2.277 13.99 1.658 28.17 10.79 38.91c6.338 7.452 14.69 12.7 23.92 15.22c-1.238 3.127-2.158 6.425-2.717 9.862c-2.277 13.99 1.658 28.17 10.79 38.91C84.57 505.8 97.9 512 111.1 512h208c70.58 0 128-57.41 128-127.1v-58.51C447.1 270.1 412.6 221.2 359.1 203.9zM415.1 384c0 53.01-42.98 95.99-96 95.99H111.1c-9.717 0-17.41-8.663-15.78-18.69c1.281-7.866 8.668-13.31 16.64-13.31h79.14c8.836 0 16-7.163 16-15.1c0-8.835-7.164-15.1-16-15.1H79.1c-9.717 0-17.41-8.663-15.78-18.69c1.281-7.866 8.668-13.31 16.64-13.31h111.1c8.836 0 16-7.163 16-15.1c0-8.835-7.164-15.1-16-15.1H47.1c-9.717 0-17.41-8.663-15.78-18.69c1.281-7.866 8.668-13.31 16.64-13.31h143.1c8.836 0 16-7.163 16-15.1c0-8.835-7.164-15.1-16-15.1H79.1c-9.717 0-17.41-8.663-15.78-18.69C65.5 261.5 72.88 256 80.86 256h179.7c8.979 0 11.14-12.52 2.688-15.53L226.2 227.3c-8.303-3.023-12.58-12.2-9.563-20.51c2.365-6.497 8.5-10.53 15.04-10.53c1.816 0 3.664 .3125 5.471 .9687l112.8 37.1c39.39 12.95 66 49.73 66 91.19V384z"/></svg>