<svg xmlns="http://www.w3.org/2000/svg" viewBox="0 0 576 512"><!--! Font Awesome Pro 6.0.0-beta3 by @fontawesome - https://fontawesome.com License - https://fontawesome.com/license (Commercial License) Copyright 2021 Fonticons, Inc. --><path d="M558.2 333.6c-9.5-8.619-22-13.37-35.12-13.37c-12.5 0-24.88 4.248-34.62 12.12l-61.45 49.21c-1.928 1.545-4.324 2.385-6.795 2.385h-41.62c4.625-9.619 6.5-20.74 4.75-32.23C379.4 323.7 353.7 304 325.6 304H181.2c-20.75 0-40.1 6.746-57.5 19.24l-38.5 28.73H16c-8.801 0-16 7.195-16 15.99S7.198 383.1 15.1 383.1l80.01 .0114l46.86-35.29c11.12-8.244 24.62-12.74 38.37-12.74h146.7c13.25 0 24 10.74 24 23.99s-10.75 23.98-24 23.98H239.1c-8.75 0-16 7.246-16 15.99c0 8.746 7.25 15.99 16 15.99h180.2c9.625 0 19-3.248 26.62-9.246l61.62-49.22c4.25-3.373 9.5-5.248 14.62-5.248c5 0 9.875 1.75 13.75 5.248c10.12 9.119 9.375 24.48-.875 32.61l-100.7 80.58c-7.584 6.064-17.01 9.369-26.72 9.369H16c-8.801 0-16 7.189-16 15.98S7.198 512 15.1 512h392.5c17 0 33.38-5.871 46.62-16.37l100.9-80.7c12.25-9.744 19.5-24.36 19.1-39.98C576.5 359.3 569.1 344.2 558.2 333.6zM192 192h32v32c0 17.67 14.33 32 32 32h64c17.67 0 32-14.33 32-32V192h32c17.67 0 32-14.33 32-32V96c0-17.67-14.33-32-32-32h-32V32c0-17.67-14.33-32-32-32H256C238.3 0 224 14.33 224 32v32H192C174.3 64 160 78.33 160 96v64C160 177.7 174.3 192 192 192zM192 96h64V32h64v64h64v64h-64v64H256V160H192V96z"/></svg>