<svg xmlns="http://www.w3.org/2000/svg" viewBox="0 0 448 512"><!--! Font Awesome Pro 6.0.0-beta3 by @fontawesome - https://fontawesome.com License - https://fontawesome.com/license (Commercial License) Copyright 2021 Fonticons, Inc. --><path d="M432 144h-85.73l21.32-92.4c1.969-8.609-3.375-17.2-12-19.19c-8.688-2.031-17.19 3.39-19.19 11.1l-22.98 99.59H186.3l21.32-92.4c1.969-8.609-3.375-17.2-12-19.19c-8.719-2.031-17.19 3.39-19.19 11.1L153.4 144H48c-8.844 0-16 7.144-16 15.99C32 168.8 39.16 176 48 176h98.04L109.1 336H16c-8.844 0-16 7.151-16 15.99s7.156 16 16 16h85.73L80.41 460.4c-1.969 8.609 3.375 17.2 12 19.19C93.63 479.9 94.81 480 96 480c7.281 0 13.88-4.1 15.59-12.41l22.98-99.59h127.2l-21.32 92.4c-1.969 8.609 3.375 17.2 12 19.19C253.6 479.9 254.8 480 256 480c7.281 0 13.88-4.1 15.59-12.41l22.98-99.59H400c8.844 0 16-7.161 16-16s-7.156-15.99-16-15.99h-98.04l36.92-159.1H432c8.844 0 16-7.168 16-16.01C448 151.2 440.8 144 432 144zM269.1 336H141.1L178.9 176h127.2L269.1 336z"/></svg>