<svg xmlns="http://www.w3.org/2000/svg" viewBox="0 0 640 512"><!--! Font Awesome Pro 6.0.0-beta3 by @fontawesome - https://fontawesome.com License - https://fontawesome.com/license (Commercial License) Copyright 2021 Fonticons, Inc. --><path d="M626.4 226.5c-3.375-1.5-7.125-2.375-10.87-2.375c-7.1 0-15.5 3.5-20.37 9.625c-.375 .4999-23.37 30.87-85.1 55.5C498.9 218.8 465.5 32 400.4 32c-15.62 0-29.5 7.375-41.12 17.5c-22.37 19.75-56.12 19.75-78.5 0C269.1 39.38 255.2 32 239.6 32c-65.25 0-98.5 187-108.7 257.1C68.88 264.9 45.75 234.8 44.88 233.8C40 227.5 32.5 223.9 24.63 224C20.88 224 17.25 224.8 13.88 226.2C2.752 231.2-2.623 242.9 1.252 253.5C2.002 255.5 75.37 448 319.1 448s318-192.5 318.8-194.5C642.6 243 637.2 231.5 626.4 226.5zM239.6 64C245.6 64 252.5 67.25 259.9 73.75c34.37 30.12 85.87 30.12 120.2 0C387.6 67.25 394.4 64 400.4 64c13.87 0 43.25 53.75 65.25 160.8c-37.1 10-85.37 17.25-145.6 17.25S212.4 234.8 174.4 224.8C196.4 117.8 225.7 64 239.6 64zM168.5 256.5C208.7 266.8 258.1 274 319.1 274c61.62 0 111.2-7.25 151.6-17.5c2.375 13.75 4.625 28 6.75 43.25c-39.87 11.75-91.72 20.24-158.3 20.24S201.5 311.5 161.6 299.8C163.8 284.5 166 270.2 168.5 256.5zM319.1 416c-150.9 0-229.5-78.75-264.7-130.2C96.63 315 177.3 352 319.1 352s223.7-37.5 264.9-66.5C549.6 337.1 470.1 416 319.1 416z"/></svg>