<svg xmlns="http://www.w3.org/2000/svg" viewBox="0 0 512 512"><!--! Font Awesome Pro 6.0.0-beta3 by @fontawesome - https://fontawesome.com License - https://fontawesome.com/license (Commercial License) Copyright 2021 Fonticons, Inc. --><path d="M416 32c-20.88 .125-41.13 7-57.75 19.75C334.9 20.5 297.1 0 256 0C213.1 0 177.1 20.5 153.8 51.75c-29-22.25-68-25.1-100.6-9.75C20.38 58.13-.125 91.5 0 128c0 32.86 39.66 152.8 56.54 202.3C60.96 343.3 73.11 352 86.82 352h338.4c13.71 0 25.86-8.68 30.28-21.66C472.3 280.8 512 160.9 512 128C512 75 469 32 416 32zM426.1 320h-54.55l28.18-140.9c1.734-8.656-3.891-17.09-12.55-18.81c-8.719-1.844-17.09 3.875-18.83 12.56L338.9 320H272V151.2c0-8.844-7.156-16-16-16s-16 7.156-16 16V320H173.1L143.7 172.9C141.1 164.2 133.6 158.5 124.9 160.3C116.2 162 110.6 170.5 112.3 179.1L140.5 320H85.94C67.92 262.3 32 145 32 128c0-35.38 28.62-64 64-64c13.88 .125 27.38 4.75 38.38 13.25l25.75 19.5l19.25-25.88C197.9 46.13 225.8 32 256 32s58.13 14.12 76.63 38.88l19.25 25.88l25.75-19.5C388.6 68.75 402.1 64.13 416 64c35.38 0 64 28.62 64 64C480 145 444.1 262.3 426.1 320zM432 384c-8.844 0-16 7.156-16 16v64c0 8.812-7.172 16-16 16h-288C103.2 480 96 472.8 96 464v-64C96 391.2 88.84 384 80 384S64 391.2 64 400v64C64 490.5 85.53 512 112 512h288c26.47 0 48-21.53 48-48v-64C448 391.2 440.8 384 432 384z"/></svg>