<svg xmlns="http://www.w3.org/2000/svg" viewBox="0 0 640 512"><!--! Font Awesome Pro 6.1.1 by @fontawesome - https://fontawesome.com License - https://fontawesome.com/license (Commercial License) Copyright 2022 Fonticons, Inc. --><path d="M567.1 335.1c0-13.25-10.75-23.1-24-23.1c-12.16 0-21.8 9.132-23.38 20.86l32.07 25.32C561.6 354.7 567.1 346.1 567.1 335.1zM200 32h34.08c57.19 0 110.1 27.91 143.9 74.66c12.52 17.8 29.11 66.75 42.45 106.1c6.949 20.52 13.62 40.11 20.03 56.79l37.48 29.59c2.783-7.434 2.933-15.96-.6923-24.11c-20.94-47.12-48.47-151.7-73.11-186.7C365.7 33.59 302.6 0 234.1 0H197.7C170.1 0 143.6 5.791 119.4 16.04l30.16 23.82C165.6 34.93 182.5 32 200 32zM607.1 311.1c13.25 0 24-10.75 24-23.1s-10.75-23.1-24-23.1s-23.1 10.75-23.1 23.1S594.7 311.1 607.1 311.1zM607.1 359.1c-12.93 0-23.32 10.23-23.82 23.04l29.96 23.66c10.2-2.768 17.86-11.63 17.86-22.7C631.1 370.7 621.2 359.1 607.1 359.1zM633.9 483.4l-608-480c-6.938-5.453-17-4.25-22.48 2.641c-5.469 6.938-4.281 17 2.641 22.48l608 480C617 510.9 620.5 512 623.1 512c4.734 0 9.422-2.094 12.58-6.078C642 498.1 640.8 488.9 633.9 483.4zM44.63 252.7C25.37 206.5 29.58 161 48.75 123.4L22.82 102.9C9.453 127.5 1.215 155.2 .1309 184.8c-2.18 59.68 23.03 113.4 63.87 150L64 496C64 504.8 71.16 512 80 512C88.84 512 96 504.8 96 496v-175.5L90.88 315.1C71.24 298.3 54.78 277.1 44.63 252.7zM399.1 400h-62.25c-7.971 0-15.36-5.449-16.63-13.32C318.6 376.7 326.3 368 336 368h22.58l-36.79-29.05c-18.42 6.295-32.66 22.37-33.71 42.46C286.6 409.1 308.6 432 336 432h48V448c0 17.67-14.35 31.1-32.02 31.1L304 480C295.2 480 288 487.2 288 496C288 504.8 295.2 512 304 512h48c35.35 0 64-28.65 64-64v-32c0-1.123-.4199-2.109-.6406-3.168L399.1 400z"/></svg>