<svg xmlns="http://www.w3.org/2000/svg" viewBox="0 0 512 512"><!--! Font Awesome Pro 6.0.0-beta3 by @fontawesome - https://fontawesome.com License - https://fontawesome.com/license (Commercial License) Copyright 2021 Fonticons, Inc. --><path d="M462.3 62.71c-54.5-46.51-136.1-38.97-186.6 13.28l-19.7 20.59L236.3 75.1C195.6 33.87 113.3 8.709 49.76 62.71C-13.11 116.2-16.33 212.5 39.79 270.5l193.3 199.7C239.4 476.7 247.8 480 255.9 480c8.25 0 16.32-3.25 22.57-9.752l193.5-199.8C528.4 212.5 525.1 116.2 462.3 62.71zM449.3 248.2l-192.9 199.9l-193.6-199.9C24.39 208.7 16.39 133.2 70.52 87.09c54.75-46.88 119.3-12.88 142.8 11.5l62.84 64.14l-106.5 46.61C164.9 211.4 161.5 215.5 160.4 220.4C159.3 225.4 160.5 230.6 163.9 234.4l96 112C263 350.1 267.5 352 272 352c3.688 0 7.391-1.266 10.41-3.859c6.719-5.75 7.5-15.84 1.734-22.55L202.2 230l108.2-47.34c4.844-2.125 8.328-6.5 9.312-11.69c.9844-5.203-.6719-10.55-4.406-14.28l-36.99-36.99l20.45-21.11c23.12-24 88.13-58 142.8-11.5C495.5 133.1 487.6 208.6 449.3 248.2z"/></svg>