<svg xmlns="http://www.w3.org/2000/svg" viewBox="0 0 512 512"><!--! Font Awesome Pro 6.1.1 by @fontawesome - https://fontawesome.com License - https://fontawesome.com/license (Commercial License) Copyright 2022 Fonticons, Inc. --><path d="M255.1 96L267.1 84.02C300.6 51.37 347 36.51 392.6 44.1C461.5 55.58 512 115.2 512 185.1V190.9C512 232.4 494.8 272.1 464.4 300.4L283.7 469.1C276.2 476.1 266.3 480 256 480C245.7 480 235.8 476.1 228.3 469.1L47.59 300.4C17.23 272.1 0 232.4 0 190.9V185.1C0 115.2 50.52 55.58 119.4 44.1C164.1 36.51 211.4 51.37 244 84.02L255.1 96zM255.1 141.3L221.4 106.6C196.1 81.31 160 69.77 124.7 75.66C71.21 84.58 31.1 130.9 31.1 185.1V190.9C31.1 223.6 45.55 254.7 69.42 277L250.1 445.7C251.7 447.2 253.8 448 255.1 448C258.2 448 260.3 447.2 261.9 445.7L442.6 277C466.4 254.7 480 223.6 480 190.9V185.1C480 130.9 440.8 84.58 387.3 75.66C351.1 69.77 315.9 81.31 290.6 106.6L255.1 141.3z"/></svg>