<svg xmlns="http://www.w3.org/2000/svg" viewBox="0 0 576 512"><!--! Font Awesome Pro 6.1.1 by @fontawesome - https://fontawesome.com License - https://fontawesome.com/license (Commercial License) Copyright 2022 Fonticons, Inc. --><path d="M320 35.57V3.114C432 20.69 519.9 110.9 534 224H501.7C488.1 128.6 414.3 52.57 320 35.57V35.57zM320 508.9V476.4C414.3 459.4 488.1 383.4 501.7 288H534C519.9 401.1 432 491.3 320 508.9H320zM25.98 288H58.27C72.68 388.8 154.1 467.9 256 478.7V510.9C136.4 499.8 40.75 406.5 25.98 288V288zM256 1.117V33.28C154.1 44.13 72.68 123.3 58.27 224H25.98C40.75 105.6 136.5 12.23 256 1.117V1.117zM208 240H368V144C368 135.2 375.2 128 384 128C392.8 128 400 135.2 400 144V368C400 376.8 392.8 384 384 384C375.2 384 368 376.8 368 368V272H208V368C208 376.8 200.8 384 192 384C183.2 384 176 376.8 176 368V144C176 135.2 183.2 128 192 128C200.8 128 208 135.2 208 144V240z"/></svg>