<svg xmlns="http://www.w3.org/2000/svg" viewBox="0 0 512 512"><!--! Font Awesome Pro 6.1.1 by @fontawesome - https://fontawesome.com License - https://fontawesome.com/license (Commercial License) Copyright 2022 Fonticons, Inc. --><path d="M280.1 137.4L255.8 123.6V240.6H287.8C296.7 240.6 303.8 247.7 303.8 256.6C303.8 265.4 296.7 272.6 287.8 272.6H255.8V400.6C255.8 409.4 248.7 416.6 239.8 416.6C231 416.6 223.8 409.4 223.8 400.6V96.34C223.8 94.77 224 93.18 224.5 91.63C224.1 89.71 225.9 87.94 227 86.4C228.2 84.9 229.5 83.64 231 82.65C233.6 80.98 236.6 80 239.8 80H239.9C240.4 80 240.9 80.03 241.4 80.07C243.8 80.3 246.1 81.09 248.1 82.31L295.9 109.6C300.9 112.4 304 117.7 304 123.5C304 135.8 290.7 143.5 280.1 137.4H280.1zM343.9 137L415.9 178.1C423.6 182.5 426.3 192.3 421.9 199.9C417.5 207.6 407.7 210.3 400.1 205.9L383.8 196.6V352.6C383.8 361.4 376.7 368.6 367.8 368.6C359 368.6 351.8 361.4 351.8 352.6V178.4L328.1 164.8C323.1 161.9 320 156.6 320 150.9C320 138.6 333.3 130.9 343.9 137V137zM175.8 128.6C184.7 128.6 191.8 135.7 191.8 144.6V368.6C191.8 376.4 186.2 383.1 178.4 384.4C170.7 385.6 163.2 381.1 160.7 373.6L127.8 275.2V336.6C127.8 345.4 120.7 352.6 111.8 352.6C103 352.6 95.85 345.4 95.85 336.6V176.6C95.85 168.7 101.5 162 109.3 160.8C117 159.5 124.5 164.1 127 171.5L159.8 269.1V144.6C159.8 135.7 167 128.6 175.8 128.6V128.6zM223.8 16.57C243.6 5.142 268 5.142 287.8 16.57L447.7 108.9C467.5 120.3 479.7 141.4 479.7 164.3V348.9C479.7 371.7 467.5 392.9 447.7 404.3L287.8 496.6C268 508 243.6 508 223.8 496.6L64 404.3C44.2 392.9 32 371.7 32 348.9V164.3C32 141.4 44.2 120.3 64 108.9L223.8 16.57zM271.8 44.29C261.9 38.57 249.7 38.57 239.8 44.29L80 136.6C70.1 142.3 64 152.9 64 164.3V348.9C64 360.3 70.1 370.9 80 376.6L239.8 468.9C249.7 474.6 261.9 474.6 271.8 468.9L431.7 376.6C441.6 370.9 447.7 360.3 447.7 348.9V164.3C447.7 152.9 441.6 142.3 431.7 136.6L271.8 44.29z"/></svg>