<svg xmlns="http://www.w3.org/2000/svg" viewBox="0 0 576 512"><!--! Font Awesome Pro 6.0.0-beta3 by @fontawesome - https://fontawesome.com License - https://fontawesome.com/license (Commercial License) Copyright 2021 Fonticons, Inc. --><path d="M528.6 75.88l-60.5-60.5C457.9 5.125 444.5 0 430.1 0c-12.87 0-25.12 4.625-34.75 13.12l-285.6 248.6c-10.37 9.125-14.37 23.38-10.37 36.5l12.5 41l-36.5 36.63c-6.75 6.75-6.75 17.62 0 24.38l1.01 1.01l-70.85 73.6C-7.278 488.6 2.419 512 21.76 512h72.54c4.232 0 8.291-1.684 11.29-4.686l37.65-39.95L143.9 468c6.75 6.75 17.75 6.75 24.5 0l36.37-36.5l40.1 12.62c18 5.5 31.37-4.625 36.5-10.38l248.6-285.9C549.2 127 548.2 95.5 528.6 75.88zM87.37 480h-41.5l53.89-56.2l20.77 20.81L87.37 480zM258.2 412.5c-.625 .75-1.5 1-2.375 1H254.1l-59.25-18.25L156.1 435l-46.87-46.88l39.75-39.75L130.9 289c-.375-1.125 0-2.375 .75-3l44.1-39.25l120.7 120.9L258.2 412.5zM506.7 126.9l-188.4 216.5L200.7 225.8l216.6-188.6c4.5-4 17.62-9.625 28.12 .875l60.5 60.5C513.6 106.3 513.1 118.5 506.7 126.9z"/></svg>