<svg xmlns="http://www.w3.org/2000/svg" viewBox="0 0 448 512"><!--! Font Awesome Pro 6.1.1 by @fontawesome - https://fontawesome.com License - https://fontawesome.com/license (Commercial License) Copyright 2022 Fonticons, Inc. --><path d="M448 238.2c0-242.4-217.9-238.2-224-238.2c-6.188 0-223.1-4.254-223.1 238.2c0 49.81 9.681 108.8 32.62 177.8C64.5 512 224 512 224 512s159.5 .0008 191.4-96.01C438.3 346.9 448 287.1 448 238.2zM416.3 237.8c0 44.72-8.652 99.99-31.27 168.1C364.9 466.3 261.9 479.9 224 480c-37.99-.1191-140.1-13.66-161.1-74.1C40.37 337.8 31.72 282.6 31.72 237.8C31.72 85.23 132.1 32 224 32C315.9 32 416.3 85.23 416.3 237.8zM288 95.98c8.873 0 15.1-7.135 15.1-16.01S296.9 63.97 288 63.97c-8.875 0-16 7.133-16 16.01S279.1 95.98 288 95.98zM159.1 95.98c8.877 0 16-7.125 16-16c0-8.875-7.124-16.01-16-16.01c-8.875 0-16 7.126-16 16C143.1 88.85 151.1 95.98 159.1 95.98zM160 159.1H96c-26.47 0-48 21.53-48 48C48 252.1 83.89 288 128 288s80-35.91 80-80.03C208 181.5 186.5 159.1 160 159.1zM128 256C101.5 256 80 234.4 80 207.1c0-8.812 7.172-16 16-16h64c8.828 0 16 7.188 16 16C176 234.4 154.5 256 128 256zM175.1 431.1c-8.877 0-16 7.124-16 16c0 8.875 7.124 16 16 16c8.875 0 15.1-7.125 15.1-15.1C191.1 439.1 184.9 431.1 175.1 431.1zM176 399.1c8.869 0 15.1-7.122 15.1-15.99s-7.128-15.1-15.1-15.1c-8.871 0-15.1 7.124-15.1 15.99S167.1 399.1 176 399.1zM176 335.1c8.867 0 15.1-7.123 15.1-15.99c0-8.869-7.128-15.1-15.1-15.1c-8.869 0-15.99 7.124-15.99 15.99C160 328.9 167.1 335.1 176 335.1zM224 111.1c-8.875 0-16 7.126-16 16s7.125 16 16 16s16-7.125 16-16S232.9 111.1 224 111.1zM272 431.1c-8.871 0-15.1 7.127-15.1 16s7.127 15.1 15.1 15.1c8.873 0 15.1-7.125 15.1-15.1S280.9 431.1 272 431.1zM272 367.1c-8.873 0-15.1 7.125-15.1 16S263.1 399.1 272 399.1c8.875 0 16-7.125 16-16S280.9 367.1 272 367.1zM272 335.1c8.869 0 15.99-7.127 15.99-15.99c0-8.869-7.125-15.99-15.99-15.99c-8.867 0-15.1 7.128-15.1 15.1C256 328.9 263.1 335.1 272 335.1zM352 159.1h-64c-26.47 0-48 21.53-48 48C240 252.1 275.9 288 320 288s80-35.91 80-80.03C400 181.5 378.5 159.1 352 159.1zM320 256c-26.47 0-48-21.56-48-48.03c0-8.812 7.172-16 16-16h64c8.828 0 16 7.188 16 16C368 234.4 346.5 256 320 256z"/></svg>