<svg xmlns="http://www.w3.org/2000/svg" viewBox="0 0 512 512"><!--! Font Awesome Pro 6.0.0-beta3 by @fontawesome - https://fontawesome.com License - https://fontawesome.com/license (Commercial License) Copyright 2021 Fonticons, Inc. --><path d="M356.1 204.8c16.16-5.625 29.16-17.22 36.6-32.59c7.438-15.41 8.438-32.78 2.844-48.9c-5.969-17.16-19-30.1-35.78-38.03c-8.219-3.437-17.53 .4062-20.94 8.562c-3.438 8.156 .4063 17.53 8.563 20.94c8.407 3.531 14.94 10.47 17.91 19.03c2.813 8.093 2.313 16.75-1.406 24.47c-3.719 7.687-10.22 13.5-18.28 16.28c-16.72 5.875-34.94-3.031-40.72-19.69c-2.938-8.374-12.19-12.75-20.38-9.874c-8.344 2.937-12.78 12.03-9.875 20.37c9.219 26.4 34.03 42.97 60.53 42.97C343 208.3 350.1 207.2 356.1 204.8zM154.1 204.8c6.938 2.406 13.97 3.531 20.94 3.531c26.5 0 51.31-16.56 60.53-42.97c2.906-8.343-1.531-17.44-9.875-20.37C218.4 142.1 209.1 146.5 206.2 154.9C200.4 171.5 182.1 180.4 165.5 174.6C157.4 171.8 150.9 165.1 147.2 158.3C143.5 150.6 142.1 141.9 145.8 133.8C148.8 125.2 155.3 118.3 163.7 114.8c8.157-3.406 12-12.78 8.563-20.94c-3.375-8.125-12.75-11.97-20.94-8.562C134.5 92.31 121.5 106.1 115.5 123.3c-5.594 16.12-4.594 33.5 2.844 48.9C125.8 187.6 138.8 199.2 154.1 204.8zM319.1 63.1C319.1 28.72 291.3 0 255.1 0S191.1 28.72 191.1 63.1s28.72 63.1 64 63.1S319.1 99.28 319.1 63.1zM255.1 95.99c-17.66 0-32.01-14.34-32.01-31.1s14.34-31.1 32-31.1s32 14.34 32 31.1S273.7 95.99 255.1 95.99zM245.1 258.5c1.375-11.09-3.125-21.65-12.06-28.31C224 223.5 212 222.1 201.6 226.7c-31.31 13.81-64.82 21.06-97.13 21.06c-1.375 0-2.938 0-4.031-.0313c-9.407 0-18.28 4.5-23.84 12.09C70.95 267.5 69.39 277.4 72.33 286.1c4.031 12.56 6.938 25.72 8.657 39.22c.7813 5.968-3.531 11.5-9.813 12.62C58.45 340.2 45.54 341.4 32.64 341.4c-.9375 0-.6563-.0625-2.844-.0313c-9.563 0-18.63 4.625-24.25 12.37c-5.5 7.625-7.032 17.44-4.031 26.37c10.19 29.78 13.5 61.78 9.844 94.93c-1.344 11.75 3.469 22.1 12.88 30.09C30.2 509.7 37.29 512 44.54 512c4.469 0 9.032-.9062 13.44-2.719c30.72-12.97 62.38-19.53 94.07-19.53c1.156 0 2.469 .0625 3.406 .0313c9.438 0 18.34-4.5 23.94-12.12c5.594-7.625 7.188-17.47 4.219-26.37c-4.063-12.12-7-25.25-8.75-39.06c-.7813-5.875 3.563-11.37 9.907-12.5c14.13-2.531 27.53-3.406 41.16-3.562c9.813 .4375 18.81-4.531 24.47-12.34c5.531-7.625 7.063-17.41 4.094-26.31C244.1 326.8 240.9 292.6 245.1 258.5zM100.4 279.8C100.4 279.8 100.4 279.8 100.4 279.8L100.4 279.8zM179.1 368.2c-23.19 4.125-39 25.25-36.03 48.09c1.844 14.47 4.844 28.4 8.969 41.43c-36.03 .0313-71.94 7.375-108.9 20.9c4-36.65 .5938-72.03-10.19-105.2c14.59-.0313 29.35-1.344 43.85-3.969c23.13-4.125 38.88-25.34 35.91-48.22C110.9 307.1 107.1 293.2 103.9 279.8h.5313c36.5 0 74.19-8.093 108.7-23.72c-4.313 37.03-.9063 74.28 9.875 108.1C208.8 364.2 194.1 365.5 179.1 368.2zM506.4 353.8c-5.625-7.75-14.69-12.37-24.41-12.37c-13.25-.0625-27.59-.9999-41.25-3.437c-6.25-1.125-10.56-6.656-9.782-12.66c1.719-13.47 4.625-26.62 8.625-39.03c2.969-8.906 1.406-18.78-4.188-26.4c-5.563-7.593-14.44-12.09-23.84-12.09h-.4688c-33.47 1.062-68.22-6.718-100.7-21.03c-8.125-3.562-17.53 .0625-21.09 8.156c-3.594 8.093 .0938 17.53 8.157 21.09c35.38 15.62 73.35 23.81 110.1 23.81h.5313c-4.094 13.37-7.063 27.28-8.875 41.4c-2.969 22.9 12.78 44.12 35.88 48.25c14.53 2.625 29.28 3.937 43.88 3.969c-10.78 33.22-14.28 68.65-12.56 106.4c-34.69-14.62-70.5-21.1-106.5-22.03c4.125-13.03 7.125-26.94 8.938-41.28c.625-4.375 1.781-19.75-9.907-33.22c-11-12.69-29.41-19.12-54.63-19.12H303.1c-8.844 .0313-16 7.187-15.97 16.03c.0313 8.843 7.188 15.97 16 15.97c14.94 0 26.31 2.937 30.78 8.093c2.906 3.375 2.469 7.25 2.344 8.031c-1.75 13.78-4.688 26.9-8.75 39.03c-2.969 8.906-1.375 18.75 4.219 26.37c5.656 7.75 14.25 12.37 24.34 12.12c33.31 .125 65.41 6.125 97.16 19.53C458.4 511.1 462.1 512 467.4 512c7.219 0 14.31-2.312 20.31-6.843c9.407-7.093 14.22-18.34 12.88-29.1c-3.656-33.25-.3438-65.25 9.907-95.15C513.5 371.2 511.9 361.4 506.4 353.8z"/></svg>