<svg xmlns="http://www.w3.org/2000/svg" viewBox="0 0 576 512"><!--! Font Awesome Pro 6.0.0-beta3 by @fontawesome - https://fontawesome.com License - https://fontawesome.com/license (Commercial License) Copyright 2021 Fonticons, Inc. --><path d="M569.6 460.8c-57.63-77-57.62-140.9-57.62-140.9v-64c0-84-46.29-122.1-101.2-182.8l39.77-39.75c12.5-12.38 3.627-33.5-13.87-33.5H287.6c-95.63 0-223.6 109.5-223.6 256v64c0 0-.0194 63.85-57.65 140.9c-15.75 21-.3776 51.15 25.1 51.15h511.3C570 511.1 585.4 481.8 569.6 460.8zM191.1 480v-160c0-53 43-96 96.01-96c52.88 0 96.01 43 96.01 96v160H191.1zM416 480l.1779-160c0-70.75-57.37-128-128-128c-70.76 0-128 57.25-128 128l-.1973 160H31.98c63.26-84.5 64.01-157 64.01-160V256c0-129.1 114.5-224 191.6-224h119.3l-40.38 40.38c0 0 32.88 35.62 38.63 41.75C450.3 162.1 480 193.9 480 256v64c0 3 .7501 75.5 63.63 160H416z"/></svg>