<svg xmlns="http://www.w3.org/2000/svg" viewBox="0 0 576 512"><!--! Font Awesome Pro 6.1.1 by @fontawesome - https://fontawesome.com License - https://fontawesome.com/license (Commercial License) Copyright 2022 Fonticons, Inc. --><path d="M480 80c-8.875 0-16 7.126-16 16s7.125 15.1 16 15.1s16-7.126 16-16S488.9 80 480 80zM566.8 63.75c5.854-10.11 8.875-21.78 8.459-33.95C574.6 13.04 560 0 543.3 0l-111.2 .001c-69.13 0-125.4 55.25-127.6 123.9v4.125L159.1 128c-35.49 0-66.13 19.43-82.74 48.15C34.43 177.7 0 212.7 0 256v47.1c0 8.836 7.164 15.1 15.1 15.1S32 312.8 32 304V256C32 234.7 46.07 216.8 65.36 210.6C63.85 221.1 63.1 222.7 63.1 224c0 31.1 8.876 50.75 24.5 68.63l-22 74.25c-3 10.75-3.375 21.1-.75 32.75l18.17 75.59C89.11 496.8 108.4 512 130.6 512h24.34c31.28 0 54.21-29.44 46.54-59.77l-16.59-65.61l19.25-53.75L288 351.5v112.5c0 26.51 21.49 47.1 48 47.1L368 512c26.51 0 48-21.49 48-47.1v-140.2c20.5-21.5 32-49.75 32-79.5V193.8l14.5 21.75c19.12 28.62 50 20.62 55.5 18.75l25.5-8.625C562.9 219.1 576 200.8 576 180.3V86.25C576 76.63 572.3 70.38 566.8 63.75zM544 180.1c0 6.875-4.375 12.1-10.88 15.12l-25.5 8.75c-9.375 3.25-16.12-2.75-18.5-6.25L464 160L416 144v100.2c0 26.62-12.62 50.12-32 65.5l.0001 154.2c0 8.836-7.164 16-16 16h-32c-8.836 0-16-7.164-16-15.1v-138.2L183.6 295.5L151.5 385l18.97 75.08c2.553 10.11-5.088 19.92-15.51 19.92H130.6c-7.396 0-13.83-5.07-15.56-12.26l-18.21-75.76c-1.268-5.27-1.125-10.78 .4102-15.98l27.62-93.5C107.5 270.4 96 256 96 224C96 188.7 124.7 160 160 160l176-.0007L336 128c0-53.02 42.98-95.1 96-95.1h111.3c0 13.25-8.125 24.62-19.75 29.5L544 86.25V180.1z"/></svg>