<svg xmlns="http://www.w3.org/2000/svg" viewBox="0 0 512 512"><!--! Font Awesome Pro 6.1.1 by @fontawesome - https://fontawesome.com License - https://fontawesome.com/license (Commercial License) Copyright 2022 Fonticons, Inc. --><path d="M508.7 320.9l-59.51-155.5c-12.33-34.17-38.87-62.4-72.24-77.44c14.51-15.09 24.92-34.61 15.78-69.6c-1.869-6.775-6.551-12.44-12.87-15.64C376.4 .918 372.5 0 368.7 0c-2.92 0-5.791 .502-8.531 1.494c-32.48 12.15-62.09 22.24-90.72 31.1C95.69 92.7 0 125.3 0 394.3v53.72C0 483.3 28.65 512 64 512h203.9c35.1 0 57.65-36.9 41.87-68.14l-23.34-50.92c-2.99-5.689-8.422-8.975-14.37-8.975c-2.59 0-5.174 .6465-7.475 1.869c-7.748 4.092-10.77 13.77-6.717 21.57l23.27 50.71C286.5 468.7 278.7 480 267.9 480H64c-17.67 0-32-14.33-32-32v-53.72c0-246.6 77.85-272.8 248.4-330.3c25.11-8.455 53.27-17.94 83.15-28.83c3.734 26.73-12.28 36.14-26.56 44.54l-37.4 22.1l41.45 8.002c35.9 6.971 65.89 32.61 78.25 66.92l59.69 155.1c2.154 5.439 .9434 11.97-2.912 15.96l-35.75 30.44c-3.307 3.271-7.082 4.836-11.09 4.836h-48.69c-4.836 0-9.379-2.344-12.15-6.27l-39.31-44.86c.3516-.2852 .6953-.5781 1.037-.8789c6.623-5.875 7.25-16 1.41-22.59c-3.02-3.438-7.402-5.424-12-5.424c-3.92 0-7.686 1.438-10.61 4.053c-14.59 12.86-33.39 19.96-52.89 19.96c-41.32 0-76.34-32.2-79.72-73.31C175.7 246.3 168.9 239.1 160.6 239.1H160.2l-1.389 .1094C154.8 240.4 150.9 242.4 148.2 245.6C145.4 248.9 144.1 253.1 144.4 257.3c4.742 57.56 53.77 102.7 111.6 102.7c15.31 0 30.93-3.467 45.56-10.07l41.22 47c8.248 11.7 22.54 19.07 37.72 19.07h48.69c12.39 0 24.39-4.903 32.9-13.45l35.93-30.62C511.6 358 515.6 338.2 508.7 320.9zM360 208c0-13.26-10.75-24-24-24s-24 10.74-24 24c0 13.25 10.75 24 24 24S360 221.3 360 208z"/></svg>