<svg xmlns="http://www.w3.org/2000/svg" viewBox="0 0 576 512"><!--! Font Awesome Pro 6.0.0-beta3 by @fontawesome - https://fontawesome.com License - https://fontawesome.com/license (Commercial License) Copyright 2021 Fonticons, Inc. --><path d="M320 160C266.1 160 224 202.1 224 256s42.98 96 96 96s96-42.98 96-96S373 160 320 160zM320 320c-35.36 0-64-28.64-64-64s28.64-64 64-64s64 28.64 64 64S355.4 320 320 320zM320 80C222.8 80 144 158.8 144 256s78.78 176 176 176s176-78.78 176-176S417.2 80 320 80zM320 400c-79.52 0-144-64.48-144-144S240.5 112 320 112s144 64.48 144 144S399.5 400 320 400zM608 352h-32V256c0-141.4-114.6-256-256-256C178.6 0 64 114.6 64 256s114.6 256 256 256c54.37 0 104.8-16.96 146.3-45.89c7.23-5.055 9.023-15.04 3.967-22.27C465.2 436.6 455.2 434.8 448 439.9C411.7 465.2 367.6 480 320 480c-123.7 0-224-100.3-224-224s100.3-224 224-224c123.7 0 224 100.3 224 224v96h-32c-8.832 0-16 7.168-16 16S503.2 384 512 384h1.889l14.24 113.1C529.1 505.1 535.9 512 544 512h32c8.064 0 14.88-6.016 15.87-14.02L606.1 384H608c8.832 0 16-7.168 16-16S616.8 352 608 352zM561.9 480h-3.777l-12-96h27.78L561.9 480z"/></svg>