<svg xmlns="http://www.w3.org/2000/svg" viewBox="0 0 640 512"><!--! Font Awesome Pro 6.1.1 by @fontawesome - https://fontawesome.com License - https://fontawesome.com/license (Commercial License) Copyright 2022 Fonticons, Inc. --><path d="M336 80V112H368C376.8 112 384 119.2 384 128C384 136.8 376.8 144 368 144H336V176C336 184.8 328.8 192 320 192C311.2 192 304 184.8 304 176V144H272C263.2 144 256 136.8 256 128C256 119.2 263.2 112 272 112H304V80C304 71.16 311.2 64 320 64C328.8 64 336 71.16 336 80zM160 64C160 28.65 188.7 0 224 0H416C451.3 0 480 28.65 480 64V96H576C611.3 96 640 124.7 640 160V448C640 483.4 611.3 512 576 512H64C28.65 512 0 483.4 0 448V160C0 124.7 28.65 96 64 96H160V64zM480 480H576C593.7 480 608 465.7 608 448V320H528C519.2 320 512 312.8 512 304C512 295.2 519.2 288 528 288H608V224H528C519.2 224 512 216.8 512 208C512 199.2 519.2 192 528 192H608V160C608 142.3 593.7 128 576 128H480V480zM64 128C46.33 128 32 142.3 32 160V192H112C120.8 192 128 199.2 128 208C128 216.8 120.8 224 112 224H32V288H112C120.8 288 128 295.2 128 304C128 312.8 120.8 320 112 320H32V448C32 465.7 46.33 480 64 480H160V128H64zM352 480V416C352 398.3 337.7 384 320 384C302.3 384 288 398.3 288 416V480H352zM448 480V64C448 46.33 433.7 32 416 32H224C206.3 32 192 46.33 192 64V480H256V416C256 380.7 284.7 352 320 352C355.3 352 384 380.7 384 416V480H448z"/></svg>