<svg xmlns="http://www.w3.org/2000/svg" viewBox="0 0 384 512"><!--! Font Awesome Pro 6.1.1 by @fontawesome - https://fontawesome.com License - https://fontawesome.com/license (Commercial License) Copyright 2022 Fonticons, Inc. --><path d="M368 0C376.8 0 384 7.164 384 16C384 24.84 376.8 32 368 32H352V76.67C352 108.3 341.6 139 322.4 164.1L252.1 256L322.4 347.9C341.6 372.1 352 403.7 352 435.3V480H368C376.8 480 384 487.2 384 496C384 504.8 376.8 512 368 512H16C7.164 512 0 504.8 0 496C0 487.2 7.164 480 16 480H32V435.3C32 403.7 42.41 372.1 61.61 347.9L131.9 256L61.61 164.1C42.41 139 32 108.3 32 76.67V32H16C7.164 32 0 24.84 0 16C0 7.164 7.164 0 16 0L368 0zM320 32H64V76.67C64 101.3 72.09 125.2 87.03 144.7L164.7 246.3C169.1 252 169.1 259.1 164.7 265.7L87.03 367.3C72.09 386.8 64 410.7 64 435.3V480H320V435.3C320 410.7 311.9 386.8 296.1 367.3L219.3 265.7C214.9 259.1 214.9 252 219.3 246.3L296.1 144.7C311.9 125.2 320 101.3 320 76.67V32z"/></svg>