<svg xmlns="http://www.w3.org/2000/svg" viewBox="0 0 640 512"><!--! Font Awesome Pro 6.1.1 by @fontawesome - https://fontawesome.com License - https://fontawesome.com/license (Commercial License) Copyright 2022 Fonticons, Inc. --><path d="M384 288C384 270.3 398.3 256 416 256H480C497.7 256 512 270.3 512 288V352C512 369.7 497.7 384 480 384H416C398.3 384 384 369.7 384 352V288zM416 352H480V288H416V352zM276.8 236.1L404.8 119.6C429.2 97.21 466.8 97.21 491.2 119.6L619.2 236.1C632.5 249.1 640 266.2 640 284.2V448C640 483.3 611.3 512 576 512H319.1C284.7 512 255.1 483.3 255.1 448V284.2C255.1 266.2 263.5 249.1 276.8 236.1V236.1zM319.1 480H576C593.7 480 608 465.7 608 448V284.2C608 275.2 604.2 266.6 597.6 260.6L469.6 143.2C457.4 132 438.6 132 426.4 143.2L298.4 260.6C291.8 266.6 287.1 275.2 287.1 284.2V448C287.1 465.7 302.3 480 319.1 480H319.1zM31.1 203.8C31.1 207.8 33.44 211.5 36.04 214.5L91.96 277.4C94.56 280.3 96 284.1 96 288V496C96 504.8 88.84 512 80 512C71.16 512 64 504.8 64 496V294.1L12.12 235.7C4.314 226.9 0 215.6 0 203.8V48C0 21.49 21.49 0 48 0H304C330.5 0 352 21.49 352 48V124.6L320 153.9V48C320 39.16 312.8 32 304 32H256V96C256 104.8 248.8 112 240 112C231.2 112 224 104.8 224 96V32H128V96C128 104.8 120.8 112 112 112C103.2 112 96 104.8 96 96V32H48C39.16 32 32 39.16 32 48L31.1 203.8zM223.1 192V240C223.1 248.8 216.8 256 207.1 256H143.1C135.2 256 127.1 248.8 127.1 240V192C127.1 165.5 149.5 144 175.1 144C202.5 144 223.1 165.5 223.1 192zM191.1 224V192C191.1 183.2 184.8 176 175.1 176C167.2 176 159.1 183.2 159.1 192V224H191.1z"/></svg>