<svg xmlns="http://www.w3.org/2000/svg" viewBox="0 0 576 512"><!--! Font Awesome Pro 6.1.1 by @fontawesome - https://fontawesome.com License - https://fontawesome.com/license (Commercial License) Copyright 2022 Fonticons, Inc. --><path d="M277.4 4.002C283.5-1.334 292.5-1.334 298.6 4.002L384 79.37V56C384 42.75 394.7 31.1 408 31.1H488C501.3 31.1 512 42.75 512 56V192.3L570.6 244C577.2 249.8 577.8 259.1 571.1 266.6C566.2 273.2 556 273.8 549.4 267.1L512 234.1V432C512 476.2 476.2 512 432 512H144C99.82 512 64 476.2 64 432V234.1L26.59 267.1C19.96 273.8 9.849 273.2 4.003 266.6C-1.844 259.1-1.212 249.8 5.414 244L277.4 4.002zM480 164.1V64H416V107.6L480 164.1zM96 206.7V432C96 458.5 117.5 480 144 480H274.1L226.7 408.9C221.8 401.5 223.8 391.6 231.1 386.7L310.9 333.5L228.7 251.3C222.4 245.1 222.4 234.9 228.7 228.7C234.9 222.4 245.1 222.4 251.3 228.7L347.3 324.7C350.7 328.1 352.4 332.8 351.9 337.6C351.4 342.3 348.9 346.7 344.9 349.3L262.2 404.4L312.6 480H432C458.5 480 480 458.5 480 432V206.7L288 37.34L96 206.7z"/></svg>