<svg xmlns="http://www.w3.org/2000/svg" viewBox="0 0 576 512"><!--! Font Awesome Pro 6.1.1 by @fontawesome - https://fontawesome.com License - https://fontawesome.com/license (Commercial License) Copyright 2022 Fonticons, Inc. --><path d="M560 416c-8.799 0-16 7.199-16 16c0 26.51-21.49 48-48 48H416v-16c0-8.836-7.164-16-16-16s-15.1 7.164-15.1 16L384 480H128v-16C128 455.2 120.8 448 112 448s-15.1 7.164-15.1 16L96 480H16c-8.799 0-15.1 7.199-15.1 15.1S7.201 512 16 512H496c44.18 0 80-35.82 80-80C576 423.2 568.8 416 560 416zM96 416H448c35.2 0 64-28.8 64-64l.0001-37c0-44.02-30.01-82.42-72.72-93.12L320 192V16c0-8.801-7.199-16-16-16C295.2 0 288 7.199 288 16V32H281.9C222.5 32 163.8 43.33 108.7 65.37L62.17 83.98C43.95 91.27 32 108.9 32 128.5L32 352C32 387.3 60.75 416 96 416zM64 128.6c0-6.535 3.977-12.41 10.04-14.85l40.4-16.2C169.6 75.38 228.5 64 288 64v64H240C231.2 128 224 135.2 224 143.1S231.2 160 240 160H288v32H240C231.2 192 224 199.2 224 207.1S231.2 224 240 224h76.13l115.5 28.88C460.1 259.1 480 285.5 480 314.8V352c0 17.6-14.4 32-32 32H96c-17.6 0-32-14.4-32-32V128.6z"/></svg>