<svg xmlns="http://www.w3.org/2000/svg" viewBox="0 0 512 512"><!--! Font Awesome Pro 6.1.1 by @fontawesome - https://fontawesome.com License - https://fontawesome.com/license (Commercial License) Copyright 2022 Fonticons, Inc. --><path d="M473.7 4.136C493.5 .1759 512 15.32 512 35.51V167.1H511.8C511.9 169.3 512 170.7 512 171.1C512 200.7 483.3 223.1 448 223.1C412.7 223.1 384 200.7 384 171.1C384 143.3 412.7 119.1 448 119.1C459.7 119.1 470.6 122.5 480 126.1V35.52L352 61.12V199.1H351.8C351.9 201.3 352 202.7 352 203.1C352 232.7 323.3 255.1 288 255.1C252.7 255.1 224 232.7 224 203.1C224 175.3 252.7 151.1 288 151.1C299.7 151.1 310.6 154.5 320 158.1V61.12C320 45.86 330.8 32.73 345.7 29.74L473.7 4.136zM473.1 160.1C467.5 155.6 458.8 151.1 448 151.1C437.2 151.1 428.5 155.6 422.9 160.1C417.5 164.5 416 168.9 416 171.1C416 175.1 417.5 179.5 422.9 183.9C428.5 188.4 437.2 191.1 448 191.1C458.8 191.1 467.5 188.4 473.1 183.9C478.5 179.5 480 175.1 480 171.1C480 168.9 478.5 164.5 473.1 160.1zM313.1 192.1C307.5 187.6 298.8 183.1 288 183.1C277.2 183.1 268.5 187.6 262.9 192.1C257.5 196.5 256 200.9 256 203.1C256 207.1 257.5 211.5 262.9 215.9C268.5 220.4 277.2 223.1 288 223.1C298.8 223.1 307.5 220.4 313.1 215.9C318.5 211.5 320 207.1 320 203.1C320 200.9 318.5 196.5 313.1 192.1V192.1zM59.72 6.047C82.48 2.253 105.7 9.682 121.1 25.99L128 32L133.1 26.01C150.3 9.687 173.5 2.252 196.3 6.047C230.7 11.79 256 41.61 256 76.54V79.45C256 100.2 247.4 120 232.2 134.2L141.8 218.5C138.1 222 133.1 224 128 224C122.9 224 117.9 222 114.2 218.5L23.79 134.2C8.617 120 0 100.2 0 79.45V76.55C0 41.61 25.26 11.79 59.72 6.047V6.047zM99.38 48.63C90.37 39.62 77.55 35.52 64.98 37.61C45.95 40.78 32 57.25 32 76.54V79.45C32 91.34 36.94 102.7 45.63 110.8L128 187.7L210.4 110.8C219.1 102.7 224 91.34 224 79.45V76.54C224 57.25 210.1 40.78 191 37.61C178.4 35.52 165.6 39.62 156.6 48.63L128 77.26L99.38 48.63zM208 392C208 427.3 179.3 456 144 456C108.7 456 80 427.3 80 392C80 356.7 108.7 328 144 328C179.3 328 208 356.7 208 392zM144 424C161.7 424 176 409.7 176 392C176 374.3 161.7 360 144 360C126.3 360 112 374.3 112 392C112 409.7 126.3 424 144 424zM208.8 273.7L216 288H240C266.5 288 288 309.5 288 336V464C288 490.5 266.5 512 240 512H48C21.49 512 0 490.5 0 464V336C0 309.5 21.49 288 48 288H71.1L79.16 273.7C84.58 262.8 95.66 255.1 107.8 255.1H180.2C192.3 255.1 203.4 262.8 208.8 273.7L208.8 273.7zM48 320C39.16 320 32 327.2 32 336V464C32 472.8 39.16 480 48 480H240C248.8 480 256 472.8 256 464V336C256 327.2 248.8 320 240 320H196.2L180.2 287.1H107.8L91.78 320H48zM390.6 368H480C486.5 368 492.3 371.9 494.8 377.9C497.3 383.9 495.9 390.7 491.3 395.3L379.3 507.3C373.1 513.6 362.9 513.6 356.7 507.3C350.4 501.1 350.4 490.9 356.7 484.7L441.4 400H352C345.5 400 339.7 396.1 337.2 390.1C334.7 384.1 336.1 377.3 340.7 372.7L452.7 260.7C458.9 254.4 469.1 254.4 475.3 260.7C481.6 266.9 481.6 277.1 475.3 283.3L390.6 368z"/></svg>