<svg xmlns="http://www.w3.org/2000/svg" viewBox="0 0 576 512"><!--! Font Awesome Pro 6.0.0-beta3 by @fontawesome - https://fontawesome.com License - https://fontawesome.com/license (Commercial License) Copyright 2021 Fonticons, Inc. --><path d="M256 128h64c17.67 0 32-14.33 32-32V32c0-17.67-14.33-32-32-32H256C238.3 0 224 14.33 224 32v64C224 113.7 238.3 128 256 128zM256 32h64v64H256V32zM288 320c35.35 0 64-28.65 64-64s-28.65-64-64-64S224 220.7 224 256S252.7 320 288 320zM288 224c17.64 0 32 14.36 32 32s-14.36 32-32 32S256 273.6 256 256S270.4 224 288 224zM512 64h-112C391.2 64 384 71.16 384 79.1S391.2 96 399.1 96H512c17.67 0 32 14.33 32 32v320c0 17.67-14.33 32-32 32H64c-17.67 0-32-14.33-32-32V128c0-17.67 14.33-32 32-32h112C184.8 96 192 88.84 192 80S184.8 64 176 64H64C28.65 64 0 92.65 0 128v320c0 35.35 28.65 64 64 64h448c35.35 0 64-28.65 64-64V128C576 92.65 547.3 64 512 64zM192 448c8.836 0 16-7.164 16-16C208 405.5 229.5 384 256 384h64c26.51 0 48 21.49 48 48c0 8.836 7.164 16 16 16s16-7.164 16-16c0-44.18-35.82-80-80-80H256c-44.18 0-80 35.82-80 80C176 440.8 183.2 448 192 448z"/></svg>