<svg xmlns="http://www.w3.org/2000/svg" viewBox="0 0 448 512"><!--! Font Awesome Pro 6.0.0-beta3 by @fontawesome - https://fontawesome.com License - https://fontawesome.com/license (Commercial License) Copyright 2021 Fonticons, Inc. --><path d="M96 152c13.26 0 24-10.75 24-24s-10.74-24-24-24c-13.25 0-24 10.75-24 24S82.75 152 96 152zM282.6 139.9c-11.28-15.81-38.5-15.94-49.1-.0313L188.6 201.3L181.6 192.4C170.2 177.9 144.6 177.8 133.2 192.4L70.16 272.8c-7.123 9.131-8.154 21.55-2.623 31.56C72.78 313.1 83.06 320 94.38 320h259.2c11 0 21.17-5.805 26.54-15.09c0-.0313-.0313 .0313 0 0c5.656-9.883 5.078-21.84-1.578-31.15L282.6 139.9zM98.19 287.9l58.25-75.61l20.09 25.66C180.9 243.5 194.1 248.6 202.1 237.4l54.44-78.75l92.68 129.2H98.19zM384 32H64C28.65 32 0 60.65 0 96v320c0 35.35 28.65 64 64 64h320c35.35 0 64-28.65 64-64V96C448 60.65 419.3 32 384 32zM416 416c0 17.64-14.36 32-32 32H64c-17.64 0-32-14.36-32-32v-32h384V416zM416 352H32V96c0-17.64 14.36-32 32-32h320c17.64 0 32 14.36 32 32V352z"/></svg>