<svg xmlns="http://www.w3.org/2000/svg" viewBox="0 0 576 512"><!--! Font Awesome Pro 6.0.0-beta3 by @fontawesome - https://fontawesome.com License - https://fontawesome.com/license (Commercial License) Copyright 2021 Fonticons, Inc. --><path d="M464 448H96c-35.35 0-64-28.65-64-64V112C32 103.2 24.84 96 16 96S0 103.2 0 112V384c0 53.02 42.98 96 96 96h368c8.836 0 16-7.164 16-16S472.8 448 464 448zM512 32H160C124.7 32 96 60.65 96 96v224c0 35.35 28.65 64 64 64h352c35.35 0 64-28.65 64-64V96C576 60.65 547.3 32 512 32zM416 352H256v-16C256 309.5 277.5 288 304 288h64c26.51 0 48 21.49 48 48V352zM544 320c0 17.64-14.36 32-32 32h-64v-16C448 291.8 412.2 256 368 256h-64C259.8 256 224 291.8 224 336V352H160c-17.64 0-32-14.36-32-32V96c0-17.64 14.36-32 32-32h352c17.64 0 32 14.36 32 32V320zM336 96c-35.35 0-64 28.65-64 64s28.65 64 64 64s64-28.65 64-64S371.4 96 336 96zM336 192c-17.64 0-32-14.36-32-32s14.36-32 32-32s32 14.36 32 32S353.6 192 336 192z"/></svg>