<svg xmlns="http://www.w3.org/2000/svg" viewBox="0 0 576 512"><!--! Font Awesome Pro 6.0.0-beta3 by @fontawesome - https://fontawesome.com License - https://fontawesome.com/license (Commercial License) Copyright 2021 Fonticons, Inc. --><path d="M32 80C32 53.49 53.49 32 80 32H144C170.5 32 192 53.49 192 80V199.4L305.8 123.6C332.4 105.8 368 124.9 368 156.8V207.5L480.6 126.4C507.1 107.3 544 126.2 544 158.9V416C544 451.3 515.3 480 480 480H96C60.65 480 32 451.3 32 416V80zM80 64C71.16 64 64 71.16 64 80V416C64 433.7 78.33 448 96 448H480C497.7 448 512 433.7 512 416V158.9C512 152.3 504.6 148.6 499.3 152.4L361.3 251.7C356.5 255.2 350 255.7 344.7 252.1C339.4 250.2 336 244.7 336 238.7V156.8C336 150.5 328.9 146.6 323.6 150.2L184.9 242.6C179.1 245.9 173.7 246.2 168.5 243.4C163.2 240.7 160 235.2 160 229.3V80C160 71.16 152.8 64 144 64L80 64z"/></svg>