<svg xmlns="http://www.w3.org/2000/svg" viewBox="0 0 576 512"><!--! Font Awesome Pro 6.0.0-beta3 by @fontawesome - https://fontawesome.com License - https://fontawesome.com/license (Commercial License) Copyright 2021 Fonticons, Inc. --><path d="M32 232c-13.26 0-24 10.75-24 24s10.74 24 24 24s24-10.75 24-24S45.26 232 32 232zM32 328c-13.26 0-24 10.74-24 24c0 13.25 10.74 24 24 24s24-10.75 24-24C56 338.7 45.26 328 32 328zM32 424c-13.26 0-24 10.74-24 24c0 13.25 10.74 24 24 24S56 461.3 56 448C56 434.7 45.26 424 32 424zM127.1 376c-13.25 0-23.1 10.74-23.1 24C104 413.3 114.7 424 127.1 424c13.26 0 24-10.75 24-23.1C151.1 386.7 141.3 376 127.1 376zM127.1 280c-13.25 0-23.1 10.74-23.1 24c0 13.25 10.74 23.1 23.1 23.1c13.26 0 24-10.75 24-23.1C151.1 290.7 141.3 280 127.1 280zM363.3 116.7c-4-4-9.938-5.594-15.31-4.188c-5.5 1.438-9.812 5.656-11.38 11.09l-28.69 100.4L239.9 224c-26.47 0-47.98 21.53-47.98 47.1v159.1C191.9 458.5 213.4 480 239.9 480h192.5c35.63 0 66.4-22.91 76.62-57.03l34.31-114.4c1.719-5.625 .1562-11.75-4-15.91L363.3 116.7zM478.4 413.8C472.2 434.3 453.7 448 432.4 448H239.1c-8.812 0-16-7.188-16-16V272c0-8.812 7.188-16 16-16h79.1c7.156 0 13.41-4.75 15.38-11.59l24.53-85.87l150 150L478.4 413.8zM563.5 64.38l-143.1-32c-8.094-1.781-16.06 2.781-18.66 10.56l-16 48c-2.781 8.375 1.75 17.44 10.12 20.25c8.406 2.812 17.44-1.75 20.25-10.12l11.44-34.31l114.3 25.41l-28.53 128.4c-1.906 8.625 3.531 17.16 12.16 19.09c1.156 .25 2.344 .375 3.469 .375c7.344 0 13.97-5.062 15.62-12.53l32-143.1C577.5 74.85 572.1 66.32 563.5 64.38z"/></svg>