<svg xmlns="http://www.w3.org/2000/svg" viewBox="0 0 640 512"><!--! Font Awesome Pro 6.0.0-beta3 by @fontawesome - https://fontawesome.com License - https://fontawesome.com/license (Commercial License) Copyright 2021 Fonticons, Inc. --><path d="M96 176C96 167.2 103.2 160 112 160H144C152.8 160 160 167.2 160 176V320H176C184.8 320 192 327.2 192 336C192 344.8 184.8 352 176 352H112C103.2 352 96 344.8 96 336C96 327.2 103.2 320 112 320H128V192H112C103.2 192 96 184.8 96 176zM252.3 218.2C246.6 225 236.5 225.9 229.8 220.3C222.1 214.6 222.1 204.5 227.7 197.8L240.1 182.9C260.1 157.8 298.4 154.9 322.1 176.4C347.1 197.4 349.6 233.1 328.6 258.1L275 319.1H336C344.8 319.1 352 327.2 352 336C352 344.8 344.8 352 336 352H240C233.7 352 228 348.3 225.4 342.6C222.8 336.9 223.8 330.3 227.9 325.5L304.5 237.2C313.9 226.3 312.7 209.9 301.9 200.4C290.9 190.8 274.1 192.1 264.7 203.4L252.3 218.2zM576 64C611.3 64 640 92.65 640 128V384C640 419.3 611.3 448 576 448H64C28.65 448 0 419.3 0 384V128C0 92.65 28.65 64 64 64H576zM576 96H64C46.33 96 32 110.3 32 128V384C32 401.7 46.33 416 64 416H576C593.7 416 608 401.7 608 384V128C608 110.3 593.7 96 576 96z"/></svg>