<svg xmlns="http://www.w3.org/2000/svg" viewBox="0 0 448 512"><!--! Font Awesome Pro 6.0.0-beta3 by @fontawesome - https://fontawesome.com License - https://fontawesome.com/license (Commercial License) Copyright 2021 Fonticons, Inc. --><path d="M258.1 352.5c33.82-47.02 39.45-101.8 13.49-151.9c-4.125-7.844-13.75-10.91-21.59-6.844c-7.844 4.094-10.91 13.75-6.844 21.59C266.9 261.2 257.1 310.6 217 352H131.3c-72.49 0-131.4 59.05-131.3 131.6C.041 499.3 13.02 512 28.76 512h326.5c15.74 0 28.71-12.69 28.75-28.43C384.2 412.9 328 355.4 258.1 352.5zM32.01 480c1.875-53.5 45.63-96 99.26-96h121.5c53.63 0 97.38 42.5 99.26 96H32.01zM299.4 32c-15.38 0-30 2.5-43.88 6.25C228.3 14.62 190.5 0 148.6 0c-75.26 0-137.5 47.25-148.4 108.9C-.498 113.6 .877 118.6 4.002 122.3C7.252 126 11.88 128.1 16.75 128h73.51C58.01 177.9 55.13 238.5 85.01 281.1C92.14 291.4 104.6 288.6 110.3 283L233.3 160h198c4.877 .125 9.502-2 12.75-5.75c3.125-3.625 4.5-8.625 3.75-13.38C436.9 79.25 374.7 32 299.4 32zM220 128L102.3 245.8C84.77 200 106.8 133.1 162.7 101.6C169.7 97.51 172.7 89 169.6 81.55C165.9 72.75 155.3 68.89 147.1 73.73C136.4 80.02 126.4 87.46 117.3 96H37.38c16.38-37.5 60.76-64 111.3-64c32.75 0 63.26 10.75 85.88 30.38l12.75 11C258 70.63 278.8 64 299.4 64c50.51 0 94.88 26.5 111.3 64H220z"/></svg>