<svg xmlns="http://www.w3.org/2000/svg" viewBox="0 0 320 512"><!--! Font Awesome Pro 6.1.1 by @fontawesome - https://fontawesome.com License - https://fontawesome.com/license (Commercial License) Copyright 2022 Fonticons, Inc. --><path d="M48 16C48 7.164 55.16 0 64 0H256C264.8 0 272 7.164 272 16C272 24.84 264.8 32 256 32H64C55.16 32 48 24.84 48 16zM144 432H136C91.82 432 56 396.2 56 352C56 343.2 63.16 336 72 336H96C122.2 336 145.4 348.6 160 367.1C174.6 348.6 197.8 336 224 336H248C256.8 336 264 343.2 264 352C264 396.2 228.2 432 184 432H176V448C176 456.8 168.8 464 160 464C151.2 464 144 456.8 144 448V432zM178.7 400H184C204.9 400 222.7 386.6 229.3 368H224C203.1 368 185.3 381.4 178.7 400zM96 368H90.73C97.32 386.6 115.1 400 136 400H141.3C134.7 381.4 116.9 368 96 368zM184 224H136C91.82 224 56 188.2 56 144C56 135.2 63.16 128 72 128H96C122.2 128 145.4 140.6 160 159.1C174.6 140.6 197.8 128 224 128H248C256.8 128 264 135.2 264 144C264 188.2 228.2 224 184 224zM178.7 192H184C204.9 192 222.7 178.6 229.3 160H224C203.1 160 185.3 173.4 178.7 192zM96 160H90.73C97.32 178.6 115.1 192 136 192H141.3C134.7 173.4 116.9 160 96 160zM184 328H136C91.82 328 56 292.2 56 248C56 239.2 63.16 232 72 232H96C122.2 232 145.4 244.6 160 263.1C174.6 244.6 197.8 232 224 232H248C256.8 232 264 239.2 264 248C264 292.2 228.2 328 184 328zM178.7 296H184C204.9 296 222.7 282.6 229.3 264H224C203.1 264 185.3 277.4 178.7 296zM96 264H90.73C97.32 282.6 115.1 296 136 296H141.3C134.7 277.4 116.9 264 96 264zM256 64C291.3 64 320 92.65 320 128V448C320 483.3 291.3 512 256 512H64C28.65 512 0 483.3 0 448V128C0 92.65 28.65 64 64 64H256zM256 96H64C46.33 96 32 110.3 32 128V448C32 465.7 46.33 480 64 480H256C273.7 480 288 465.7 288 448V128C288 110.3 273.7 96 256 96z"/></svg>