<svg xmlns="http://www.w3.org/2000/svg" viewBox="0 0 640 512"><!--! Font Awesome Pro 6.1.1 by @fontawesome - https://fontawesome.com License - https://fontawesome.com/license (Commercial License) Copyright 2022 Fonticons, Inc. --><path d="M16 272C7.164 272 0 264.8 0 256C0 247.2 7.164 240 16 240H32V176C32 149.5 53.49 128 80 128H98.75C111.5 128 123.7 133.1 132.7 142.1L166.6 176H192V32C183.2 32 176 24.84 176 16C176 7.164 183.2 0 192 0H304C312.8 0 320 7.164 320 16C320 24.84 312.8 32 304 32H287.4L392.1 176H490.2C495.1 176 501.7 177 507 179.1L614.6 219.4C629.9 225.1 640 239.7 640 256C640 272.3 629.9 286.9 614.6 292.6L507 332.9C501.7 334.1 495.1 336 490.2 336H392.1L287.4 480H304C312.8 480 320 487.2 320 496C320 504.8 312.8 512 304 512H192C183.2 512 176 504.8 176 496C176 487.2 183.2 480 192 480V336H166.6L132.7 369.9C123.7 378.9 111.5 384 98.75 384H80C53.49 384 32 362.5 32 336V272L16 272zM224 176H352.6L247.9 32H224V176zM153.4 208L110.1 164.7C107.1 161.7 102.1 160 98.75 160H80C71.16 160 64 167.2 64 176V240H144C152.8 240 160 247.2 160 256C160 264.8 152.8 272 144 272H64V336C64 344.8 71.16 352 80 352H98.75C102.1 352 107.1 350.3 110.1 347.3L153.4 304H490.2C492.1 304 494 303.7 495.8 302.1L603.4 262.6C606.2 261.6 608 258.1 608 255.1C608 253 606.2 250.4 603.4 249.4L495.8 209C494 208.3 492.1 207.1 490.2 207.1L153.4 208zM247.9 480L352.6 336H224V480H247.9z"/></svg>