<svg xmlns="http://www.w3.org/2000/svg" viewBox="0 0 448 512"><!--! Font Awesome Pro 6.1.1 by @fontawesome - https://fontawesome.com License - https://fontawesome.com/license (Commercial License) Copyright 2022 Fonticons, Inc. --><path d="M214.1 256.5L102.6 368L155.3 420.7C161.6 426.9 161.6 437.1 155.3 443.3C149.1 449.6 138.9 449.6 132.7 443.3L79.1 390.6L38.63 432L91.31 484.7C97.56 490.9 97.56 501.1 91.31 507.3C85.07 513.6 74.94 513.6 68.69 507.3L4.686 443.3C-1.562 437.1-1.562 426.9 4.686 420.7L191.5 233.9C171.8 209.2 159.1 178 159.1 144C159.1 64.47 224.5 0 304 0C383.5 0 448 64.47 448 144C448 223.5 383.5 288 304 288C270 288 238.8 276.2 214.1 256.5V256.5zM304 255.1C365.9 255.1 416 205.9 416 143.1C416 82.14 365.9 31.1 304 31.1C242.1 31.1 191.1 82.14 191.1 143.1C191.1 205.9 242.1 255.1 304 255.1z"/></svg>