<svg xmlns="http://www.w3.org/2000/svg" viewBox="0 0 640 512"><!--! Font Awesome Pro 6.1.1 by @fontawesome - https://fontawesome.com License - https://fontawesome.com/license (Commercial License) Copyright 2022 Fonticons, Inc. --><path d="M639.1 128C639.1 198.7 582.7 256 511.1 256C441.3 256 383.1 198.7 383.1 128L287.1 128V192C287.1 200.8 280.8 208 271.1 208C263.2 208 255.1 200.8 255.1 192V128H191.1L191.1 192C191.1 200.8 184.8 208 175.1 208C167.2 207.1 159.1 200.8 159.1 191.1L159.1 111.1C159.1 103.2 167.2 95.1 175.1 95.1H388C402.2 40.79 452.4 0 511.1 0C582.7 0 639.1 57.31 639.1 128L639.1 128zM511.1 32C458.1 32 415.1 74.98 415.1 128C415.1 181 458.1 224 511.1 224C565 224 607.1 181 607.1 128C607.1 74.98 565 32 511.1 32zM0 384C0 313.3 57.31 256 128 256C198.7 256 256 313.3 256 384L351.1 384V320C351.1 311.2 359.2 304 367.1 304C376.8 304 383.1 311.2 383.1 320V384H447.1L447.1 320C447.1 311.2 455.2 304 464 304C472.8 304 479.1 311.2 479.1 320L479.1 400C479.1 408.8 472.8 416 463.1 416H251.1C237.8 471.2 187.6 512 128 512C57.31 512 .0003 454.7 .0003 384L0 384zM128 480C181 480 224 437 224 384C224 330.1 181 288 128 288C74.98 288 32 330.1 32 384C32 437 74.98 480 128 480z"/></svg>