<svg xmlns="http://www.w3.org/2000/svg" viewBox="0 0 576 512"><!--! Font Awesome Pro 6.1.1 by @fontawesome - https://fontawesome.com License - https://fontawesome.com/license (Commercial License) Copyright 2022 Fonticons, Inc. --><path d="M180 184h24c6.629 0 12-5.373 12-12v-24c0-6.627-5.371-12-12-12h-24c-6.627 0-12 5.373-12 12v24C168 178.6 173.4 184 180 184zM276 280h24c6.629 0 12-5.373 12-12v-24c0-6.627-5.371-12-12-12h-24c-6.627 0-12 5.373-12 12v24C264 274.6 269.4 280 276 280zM180 280h24c6.629 0 12-5.373 12-12v-24c0-6.627-5.371-12-12-12h-24c-6.627 0-12 5.373-12 12v24C168 274.6 173.4 280 180 280zM372 184h24c6.629 0 12-5.373 12-12v-24c0-6.627-5.371-12-12-12h-24c-6.627 0-12 5.373-12 12v24C360 178.6 365.4 184 372 184zM276 184h24c6.629 0 12-5.373 12-12v-24c0-6.627-5.371-12-12-12h-24c-6.627 0-12 5.373-12 12v24C264 178.6 269.4 184 276 184zM108 328h-24c-6.627 0-12 5.373-12 12v24c0 6.627 5.373 12 12 12h24c6.629 0 12-5.373 12-12v-24C120 333.4 114.6 328 108 328zM372 280h24c6.629 0 12-5.373 12-12v-24c0-6.627-5.371-12-12-12h-24c-6.627 0-12 5.373-12 12v24C360 274.6 365.4 280 372 280zM108 136h-24c-6.627 0-12 5.373-12 12v24c0 6.627 5.373 12 12 12h24c6.629 0 12-5.373 12-12v-24C120 141.4 114.6 136 108 136zM492 232h-24c-6.627 0-12 5.373-12 12v24c0 6.627 5.373 12 12 12h24c6.629 0 12-5.373 12-12v-24C504 237.4 498.6 232 492 232zM108 232h-24c-6.627 0-12 5.373-12 12v24c0 6.627 5.373 12 12 12h24c6.629 0 12-5.373 12-12v-24C120 237.4 114.6 232 108 232zM512 64H64C28.65 64 0 92.65 0 128v256c0 35.35 28.65 64 64 64h448c35.35 0 64-28.65 64-64V128C576 92.65 547.3 64 512 64zM544 384c0 17.64-14.36 32-32 32H64c-17.64 0-32-14.36-32-32V128c0-17.64 14.36-32 32-32h448c17.64 0 32 14.36 32 32V384zM492 136h-24c-6.627 0-12 5.373-12 12v24c0 6.627 5.373 12 12 12h24c6.629 0 12-5.373 12-12v-24C504 141.4 498.6 136 492 136zM400 336h-224C167.2 336 160 343.2 160 352s7.156 16 16 16h224c8.844 0 16-7.156 16-16S408.8 336 400 336zM492 328h-24c-6.627 0-12 5.373-12 12v24c0 6.627 5.373 12 12 12h24c6.629 0 12-5.373 12-12v-24C504 333.4 498.6 328 492 328z"/></svg>