<svg xmlns="http://www.w3.org/2000/svg" viewBox="0 0 512 512"><!--! Font Awesome Pro 6.0.0-beta3 by @fontawesome - https://fontawesome.com License - https://fontawesome.com/license (Commercial License) Copyright 2021 Fonticons, Inc. --><path d="M505.3 274.5l-48.38-96.75C451.4 166.9 440.4 160 428.2 160H128V144c0-39.75 29.25-72.63 67.38-78.75C202.3 83.25 219.6 96 240 96h64C330.5 96 352 74.5 352 48S330.5 0 304 0h-64C218.6 0 200.8 14 194.5 33.38C139.1 40.13 96 86.88 96 144V160H83.75C71.63 160 60.62 166.9 55.12 177.8L6.75 274.5C2.25 283.4 0 293.1 0 303.1V352c0 17.62 14.38 32 32 32h208v96h-96C135.2 480 128 487.2 128 495.1C128 504.8 135.2 512 144 512h224c8.801 0 16-7.203 16-16c0-8.801-7.199-16-16-16h-96v-96H480c17.62 0 32-14.38 32-32V303.1C512 293.1 509.8 283.4 505.3 274.5zM240 32h64C312.9 32 320 39.12 320 47.1S312.9 64 304 64h-64C231.1 64 224 56.87 224 47.1S231.1 32 240 32zM83.75 192h344.5l48 96H35.75L83.75 192zM480 352H32v-32h448V352z"/></svg>