<svg xmlns="http://www.w3.org/2000/svg" viewBox="0 0 576 512"><!--! Font Awesome Pro 6.1.1 by @fontawesome - https://fontawesome.com License - https://fontawesome.com/license (Commercial License) Copyright 2022 Fonticons, Inc. --><path d="M366.3 322.1c-6.125 6.376-5.906 16.5 .4687 22.63c1.031 1.016 1.562 2.219 1.562 3.672c0 1.375-.5312 2.578-1.594 3.594l-53.78 51.7c-51.19 49.21-118.1 76.31-190.8 76.31c-29.19 0-58.18-4.532-86.06-13.46c-2.125-.6876-3.531-2.125-3.969-4.126c-.375-1.625 .125-3.204 1.531-4.532l231.4-222.4C271.5 229.4 271.6 219.2 265.5 212.9C259.4 206.5 249.3 206.3 242.9 212.4l-231.3 222.3c-9.562 9.111-13.53 22.14-10.62 34.77c2.906 12.94 12.31 23.19 25.31 27.46C57.4 506.1 89.68 512 122.2 512c80.15 0 155.8-30.27 212.1-85.25l53.78-51.69c7.343-7.079 11.41-16.55 11.41-26.57c.0625-10.2-3.1-19.74-11.44-26.86C382.5 315.5 372.4 315.7 366.3 322.1zM560.6 42.96L530.7 14.24c-19.78-18.96-51.1-19.02-71.9 0L294.1 171.6c-4.437 4.329-6.968 10.35-6.968 16.5c0 6.251 2.594 12.31 7.062 16.58l95.4 91.79c4.344 4.126 9.1 6.392 15.94 6.392c5.156 0 10.25-1.766 14.41-5.063l30.78-24.86c9.906-9.486 15.37-22.19 15.37-35.8V208.9l93.65-94.19C570.5 105.2 576 92.42 576 78.8C576 65.19 570.5 52.46 560.6 42.96zM538.2 91.88l-103.2 103.8v41.47c0 4.86-1.906 9.236-4.469 11.77l-23.56 18.99l-82.93-79.79l156.9-150.8c7.5-7.157 20.16-7.142 27.59-.0156l29.94 28.77c3.625 3.454 5.531 7.845 5.531 12.7C544 83.69 542.1 88.13 538.2 91.88zM496 63.94c-8.836 0-15.1 7.163-15.1 16c0 8.837 7.164 16 15.1 16s15.1-7.165 15.1-16C512 71.1 504.8 63.94 496 63.94zM432 127.9c-8.836 0-15.1 7.163-15.1 16c0 8.837 7.164 16 15.1 16s15.1-7.165 15.1-16C448 135.1 440.8 127.9 432 127.9z"/></svg>