<svg xmlns="http://www.w3.org/2000/svg" viewBox="0 0 512 512"><!--! Font Awesome Pro 6.0.0-beta3 by @fontawesome - https://fontawesome.com License - https://fontawesome.com/license (Commercial License) Copyright 2021 Fonticons, Inc. --><path d="M510.1 125.3C504.7 161.8 488.5 195.9 463.6 223.2L363.9 332C352.5 344.5 336.5 351.1 319.6 352.7C302.6 353.5 286.1 347.5 273.5 336L226.1 292.5L27.75 506.9C24.86 509.1 20.86 511.8 16.61 511.1C12.37 512.2 8.236 510.6 5.121 507.7C2.007 504.9 .1658 500.9 .0038 496.6C-.1581 492.4 1.372 488.2 4.257 485.1L441.2 10.4C444.8 6.545 449.2 3.614 454.1 1.864C459.1 .113 464.3-.4044 469.5 .3565C474.7 1.118 479.6 3.134 483.8 6.229C488 9.324 491.4 13.4 493.7 18.11C509.7 51.39 515.5 88.72 510.1 125.3H510.1zM478.5 120.5C482.9 90.31 478.1 59.46 464.8 31.1L247.9 269L295.1 312.4C298.2 315.2 301.9 317.4 305.8 318.9C309.8 320.3 313.1 320.9 318.2 320.8C322.4 320.6 326.5 319.6 330.3 317.8C334.1 316 337.5 313.5 340.4 310.4L439.9 201.4C460.6 178.9 474 150.7 478.5 120.5z"/></svg>