<svg xmlns="http://www.w3.org/2000/svg" viewBox="0 0 640 512"><!--! Font Awesome Pro 6.0.0-beta3 by @fontawesome - https://fontawesome.com License - https://fontawesome.com/license (Commercial License) Copyright 2021 Fonticons, Inc. --><path d="M566.8 275.4c55.05-42.81 54.85-132-.4336-203.2C530.2 25.56 480.5 0 435.1 0c-23.85 0-46.54 7.045-65.5 21.79c-10.78 8.41-19.68 18.86-26.4 31.08C319.9 95.07 296.5 124.5 269.4 145.6L263.2 150.4C236.9 170.8 220.2 200.2 216.1 233.2c-3.759 29.91 .0264 56.66 17.99 84.39l-196.4 166.2c-6.75 5.719-7.594 15.81-1.875 22.56C38.95 510.1 43.48 512 48.01 512c3.656 0 7.344-1.25 10.34-3.781l196.3-166.1c20.54 18.28 48.36 30.81 85.06 30.81c26.7 0 53.6-8.506 76.28-26.14l6.237-4.873c27.08-21.04 61.41-36.49 107.1-48.63C543.7 289.8 555.1 283.8 566.8 275.4zM402.5 316.7l-6.18 4.83c-16.34 12.71-35.92 19.43-56.62 19.43c-19.32 0-103.8-14.73-91.85-103.8c3.061-24.48 15.48-46.31 34.92-61.42l6.328-4.9c30.63-23.85 56.73-56.43 82.14-102.6c4.594-8.361 10.66-15.51 17.99-21.23C402.1 37.07 417.5 32 435.1 32c37.29 0 76.93 22.37 106.1 59.83c44.27 56.95 46.93 126.5 6.119 158.2c-7.443 5.758-15.9 9.891-25.18 12.3C471.2 275.6 433.2 292.9 402.5 316.7z"/></svg>