<svg xmlns="http://www.w3.org/2000/svg" viewBox="0 0 512 512"><!--! Font Awesome Pro 6.1.1 by @fontawesome - https://fontawesome.com License - https://fontawesome.com/license (Commercial License) Copyright 2022 Fonticons, Inc. --><path d="M352 96H272V128H464C472.8 128 480 135.2 480 144C480 152.8 472.8 160 464 160H48C39.16 160 32 152.8 32 144C32 135.2 39.16 128 48 128H240V16C240 7.164 247.2 0 256 0H352C360.8 0 368 7.164 368 16V80C368 88.84 360.8 96 352 96zM272 64H336V32H272V64zM48 368C48 359.2 55.16 352 64 352V192H96V352H176V192H208V352H304V192H336V352H416V192H448V352C456.8 352 464 359.2 464 368C464 376.8 456.8 384 448 384H64C55.16 384 48 376.8 48 368zM24 432C24 423.2 31.16 416 40 416H472C480.8 416 488 423.2 488 432C488 440.8 480.8 448 472 448H40C31.16 448 24 440.8 24 432zM0 496C0 487.2 7.164 480 16 480H496C504.8 480 512 487.2 512 496C512 504.8 504.8 512 496 512H16C7.164 512 0 504.8 0 496z"/></svg>