<svg xmlns="http://www.w3.org/2000/svg" viewBox="0 0 640 512"><!--! Font Awesome Pro 6.1.1 by @fontawesome - https://fontawesome.com License - https://fontawesome.com/license (Commercial License) Copyright 2022 Fonticons, Inc. --><path d="M512 63.1c17.64 0 32 14.34 32 32v234.9l23.8 18.79c4.812-2.758 8.197-7.736 8.197-13.69v-240c0-35.28-28.7-64-64-64H165.4l40.53 32H512zM64 447.1c-17.64 0-32-14.36-32-32h361.5l-40.53-32L16 383.1c-8.75 0-16 7.25-16 16v16c0 35.25 28.75 64 64 64l410.6-.0029l-40.53-32H64zM96 335.1V181.1l-32-25.26v180.2c0 8.844 7.156 16 16 16S96 344.8 96 335.1zM633.9 483.4L25.92 3.42c-6.938-5.453-17-4.25-22.48 2.641c-5.469 6.938-4.281 17 2.641 22.48l608 480C617 510.9 620.5 512 623.1 512c4.734 0 9.422-2.094 12.58-6.078C642 498.1 640.8 488.9 633.9 483.4z"/></svg>