<svg xmlns="http://www.w3.org/2000/svg" viewBox="0 0 512 512"><!--! Font Awesome Pro 6.1.1 by @fontawesome - https://fontawesome.com License - https://fontawesome.com/license (Commercial License) Copyright 2022 Fonticons, Inc. --><path d="M479.6 213.2c-3.609-32.92-32.6-47.47-39.05-51.41c12.47-42.66-3.938-66.28-14.22-76.12c-2.993-3.159-26.01-28.87-76.13-14.22c-3.939-6.453-18.49-35.44-51.41-39.05C259.1 28.04 242.9 57.63 223.8 91.5c-6.509-5.259-26.22-20.19-50.97-15.42c-64.54 12.8-48.57 103-47.59 112.1c-32.32-9.037-64.76 12.05-64.76 57.2c0 33.8 25.16 63.77 18.71 80.72c-11.28 31.27-9.918 59.61 2.525 80.66l-45.04 45.04c-6.25 6.25-6.25 16.37 0 22.62C39.81 478.4 43.91 480 47.1 480c4.094 0 8.188-1.562 11.31-4.687l45.08-45.08c11.28 6.646 24.52 10.31 39.34 10.31c12.84 0 26.74-2.561 41.25-7.789c17.39-6.605 46.34 18.7 80.73 18.7c47.04 0 65.74-34.23 57.21-64.75c3.422 .3379 16.34 2.447 32.33 2.447c30.53 0 72.27-7.682 80.67-50.03c1.203-6.234 4.375-26.47-15.42-50.97C452.6 270.1 484.1 253.7 479.6 213.2zM407.6 258.7c-3.804 2.138 1.969-1.112-35.8 20.16l23.79 29.43c5.035 6.232 10.67 15.59 8.924 24.63c-1.316 6.633-4.811 24.25-49.28 24.25c-11.05 0-20.46-1.205-25.51-1.853c-5.059-.6052 2.392 .1605-50.24-5.045c13.15 47.03 16.77 52.22 10.31 60.74c-4.143 5.459-12.7 8.465-24.1 8.465c-10.86 0-23.17-4.875-35.07-9.59c-15.01-5.945-36.3-14.93-56.51-7.217c-29.24 10.54-44.79 3.756-45.64 3.49l186.8-186.8c6.25-6.25 6.25-16.37 0-22.62s-16.38-6.25-22.62 0l-186.9 186.9c-3.912-12.27-2.938-27.91 3.287-45.19c7.637-20.06-.1523-39.71-7.021-57.04c-4.717-11.9-9.592-24.2-9.592-35.06c0-9.967 2.359-17.94 6.645-22.45c9.461-9.967 22.57-2.514 62.56 8.666C154.9 164.1 146.1 113.1 178.9 107.5C189.1 105.4 200.8 114 203.7 116.4l29.43 23.77c21.27-37.76 18.02-31.99 20.16-35.8c17.3-30.77 24.79-40.36 37.93-40.35c16.06 0 23.53 10.47 31.62 24.15l12.77 20.92l23.52-6.875c27.25-7.965 39.15 .4779 45.03 6.621c5.4 5.17 13.31 17.77 5.637 44.03l-6.879 23.53c23.65 14.43 19.97 12.2 23.17 14.09c9.924 5.781 20.26 13.42 21.67 26.29C449.5 232.1 443.1 238.8 407.6 258.7z"/></svg>