<svg xmlns="http://www.w3.org/2000/svg" viewBox="0 0 512 512"><!--! Font Awesome Pro 6.0.0-beta3 by @fontawesome - https://fontawesome.com License - https://fontawesome.com/license (Commercial License) Copyright 2021 Fonticons, Inc. --><path d="M465.1 175.1l-23.84-14.44l7.328-66.39c1.758-16.13-10.47-31.88-28.54-31.88c-1.041 0-2.098 .0508-3.176 .1582l-66.39 7.328L336.9 45.89C331.8 37.36 322.7 32.11 312.7 32c-9.188 0-19.14 4.812-24.5 13.34L250.5 104.3C245.4 90.3 233 85.43 223.3 85.43c-3.967 0-7.498 .8066-9.936 2.137L201.3 94.02L170.6 59.23C165.1 52.45 157 48.52 148.2 48.52c-8.75 0-16.95 3.828-21.98 10.17L95 94.02L82.97 87.56c-3.01-1.627-6.416-2.389-9.932-2.389c-15.4 0-32.89 14.59-28.35 34.98L70.39 245.1l-21 8.969c-23.19 9.953-23.19 42.88 0 52.83l93.18 39.95l-105.9 105.9C33.56 455.8 32 459.9 32 463.1c0 4.094 1.562 8.188 4.688 11.31C39.81 478.4 43.91 480 48 480s8.188-1.562 11.31-4.688l105.9-105.9l39.95 93.18C209.7 473.2 220.1 480 231.6 480s21.88-6.781 26.36-17.39l8.969-21l124.7 25.7c2.08 .457 4.16 .6738 6.211 .6738c18.57 0 34.91-17.75 27.91-35.67l-7.766-15.31l34.78-30.73c14.55-11.7 14.11-33.25 .3281-44.51l-35.11-31.06l6.453-12.03c5.578-10.28 .9844-30.73-16.73-37.19l59.06-37.63c9.023-5.742 13.4-15.2 13.23-24.6C479.8 189.9 475.1 180.5 465.1 175.1zM390.5 234.5L335.8 269.3l56.94 20.73l-14.91 27.8l51.99 45.97l-51.55 45.56l12.73 25.1l-143.2-29.52l-16.23 38.01l-37.79-88.15c-1.062-2.477-3.047-5.508-5.336-8.637l126.9-126.9c6.25-6.25 6.25-16.37 0-22.63c-6.25-6.25-16.38-6.25-22.62 0l-126.9 126.9c-3-2.18-5.996-4.232-8.617-5.355L69 280.5l38-16.23L77.52 120.1l24.7 13.25l45.92-52.04L194.1 134.2l27.83-14.93l20.8 56.73L312.3 67l22.24 36.9l82.69-9.131l-9.123 82.65l36.9 22.34L390.5 234.5z"/></svg>