<svg xmlns="http://www.w3.org/2000/svg" viewBox="0 0 448 512"><!--! Font Awesome Pro 6.0.0-beta3 by @fontawesome - https://fontawesome.com License - https://fontawesome.com/license (Commercial License) Copyright 2021 Fonticons, Inc. --><path d="M416 176h-176V96c0-17.69-14.36-32-31.1-32C199.7 64 191.5 67.25 185.4 73.38l-176 160C3.125 239.6 0 247.8 0 256s3.125 16.38 9.375 22.62l176 160C191.5 444.7 199.7 448 208 448C225.6 448 240 433.7 240 416v-80H416c17.67 0 32-14.33 32-32v-96C448 190.3 433.7 176 416 176zM416 304H208l-1.1 110.9L32.06 256L208 96V208H416V304z"/></svg>