<svg xmlns="http://www.w3.org/2000/svg" viewBox="0 0 512 512"><!--! Font Awesome Pro 6.1.1 by @fontawesome - https://fontawesome.com License - https://fontawesome.com/license (Commercial License) Copyright 2022 Fonticons, Inc. --><path d="M504.3 238.4l-112-104C385.3 127.9 375.2 126.2 366.4 130S352 142.5 352 152L352 240H160l.001-88c0-9.547-5.656-18.19-14.41-22S126.7 127.9 119.7 134.4l-112 104C2.558 243.2 0 249.6 0 255.1s2.558 12.85 7.673 17.6l112 104c6.984 6.484 17.17 8.219 25.92 4.406s14.41-12.45 14.41-22L160 272h192l.001 88c0 9.547 5.656 18.19 14.41 22s18.94 2.078 25.92-4.406l112-104C509.4 268.8 512 262.4 512 255.1S509.4 243.2 504.3 238.4zM128 341.7L35.75 256L128 170.3V341.7zM384 341.7V170.3L476.2 256L384 341.7z"/></svg>