<svg xmlns="http://www.w3.org/2000/svg" viewBox="0 0 448 512"><!--! Font Awesome Pro 6.0.0-beta3 by @fontawesome - https://fontawesome.com License - https://fontawesome.com/license (Commercial License) Copyright 2021 Fonticons, Inc. --><path d="M41.94 206.8l352 143.1c1.984 .8125 4.031 1.188 6.062 1.188c6.297 0 12.28-3.75 14.81-9.938c3.344-8.186-.5781-17.53-8.75-20.87L90.25 192l315.8-129.2c8.172-3.342 12.09-12.69 8.75-20.87c-3.359-8.186-12.73-12.15-20.88-8.748l-352 143.1C35.92 179.7 32 185.5 32 192C32 198.5 35.92 204.4 41.94 206.8zM432 448h-416c-8.844 0-16 7.156-16 16C0 472.8 7.156 480 16 480h416c8.844 0 16-7.156 16-15.1C448 455.2 440.8 448 432 448z"/></svg>