<svg xmlns="http://www.w3.org/2000/svg" viewBox="0 0 384 512"><!--! Font Awesome Pro 6.1.1 by @fontawesome - https://fontawesome.com License - https://fontawesome.com/license (Commercial License) Copyright 2022 Fonticons, Inc. --><path d="M255.9 415.1H128.1c-8.846 0-15.98 7.179-15.97 16.03L112.1 454.3c.0098 6.273 1.81 12.47 5.284 17.69l17.14 25.69c5.225 7.855 17.2 14.28 26.64 14.28h61.67c9.418 0 21.39-6.436 26.61-14.28l17.08-25.68c2.953-4.441 5.341-12.37 5.348-17.7l-.0521-22.33C271.8 423.2 264.7 415.1 255.9 415.1zM239.9 454.4l-16.11 24.45c-.4766 .4336-1.686 1.082-.8672 1.117l-60.29 .1172c-.4238-.1055-1.138-.2793-1.423-.2793c-.1406 0-.1348-.2265 0 0l-17.1-25.48l-.0098-6.37h95.94l.0039 5.179C239.9 453.6 239.7 454.4 239.9 454.4C239.9 454.4 239.8 454.5 239.9 454.4zM315.8 51.3c-33.33-33.22-78.22-52.47-124.3-51.28C94.7 .2944 16 79.89 16 177.4c0 42.9 15.47 84.34 43.55 116.6c13.33 15.31 35.84 49.59 43.73 76.02c1.078 8.687 8.844 14.62 17.64 13.72c8.703-.9687 14.98-8.968 14.11-17.65l-.6094-3.312c-10.31-34.97-36-72.84-50.73-89.77C60.67 246.5 48 212.6 48 177.4c0-81.24 63.05-145.1 143.5-145.3H192c38.13 0 74.05 14.87 101.2 41.93C320.8 101.5 336 138.2 336 177.4c0 35.18-12.67 69.15-35.67 95.62c-14.75 16.94-40.44 54.81-50.75 89.77l-.625 3.343c-1.047 8.749 4.938 17.59 13.67 18.69c.7813 .0938 1.531 .1562 2.281 .1562c7.797 0 14.36-5.124 15.36-13.12c8.344-28.25 30.86-62.52 44.2-77.84C352.5 261.7 368 220.3 368 177.4C368 129.7 349.5 84.89 315.8 51.3zM208 80.01c0-8.843-7.156-16-16-16c-61.75 0-112 50.24-112 111.1C80 184.8 87.16 192 96 192s16-7.158 16-16c0-44.1 35.88-79.1 80-79.1C200.8 96.01 208 88.86 208 80.01z"/></svg>