<svg xmlns="http://www.w3.org/2000/svg" viewBox="0 0 640 512"><!--! Font Awesome Pro 6.0.0-beta3 by @fontawesome - https://fontawesome.com License - https://fontawesome.com/license (Commercial License) Copyright 2021 Fonticons, Inc. --><path d="M233.4 105.9L258.4 125.7C273 107.7 295.1 96.01 319.1 96.01c8.844 0 15.1-7.155 15.1-15.1c0-8.84-7.15-16-15.99-16C284.9 64.01 253.9 80.59 233.4 105.9zM383.9 415.1H256.2c-8.846 0-16.15 7.186-16.14 16.03l.0367 22.33c.0098 6.27 1.869 12.46 5.344 17.68l17.14 25.69c5.225 7.855 17.2 14.28 26.64 14.28h61.66c9.418 0 21.39-6.436 26.61-14.28l17.08-25.68c2.953-4.441 5.34-12.37 5.348-17.7l-.0492-22.33C399.8 423.2 392.7 415.1 383.9 415.1zM367.9 454.4l-16.11 24.45C351.3 479.3 350.1 479.1 350.9 480l-60.29 .1172c-.4238-.1016-1.138-.2773-1.423-.2773c-.1406 0-.1348-.2266 0 0l-17.1-25.48l-.0098-6.367h95.94l.0039 5.18C367.9 453.6 367.7 454.4 367.9 454.4C367.9 454.4 367.8 454.5 367.9 454.4zM263 366.1l-.6094-3.312c-10.31-34.97-36-72.84-50.73-89.77c-10.5-12.07-18.54-25.84-24.52-40.45L146 200.1C150.5 234.7 164.5 267.5 187.5 293.1c13.33 15.31 35.84 49.59 43.73 76.02c1.078 8.688 8.844 14.62 17.64 13.71C257.6 382.8 263.9 374.8 263 366.1zM319.5 32.05H320c38.13 0 74.05 14.88 101.2 41.94C448.8 101.5 464 138.2 464 177.4c0 31.72-10.77 62.14-29.65 87.28l25.03 19.77C482.7 253.7 496 216.3 496 177.4c0-47.71-18.55-92.49-52.22-126.1c-33.33-33.22-78.2-52.47-124.3-51.28C264.4 .1732 215.3 26.06 183.1 66.22l25.03 19.77C234.2 53.28 273.8 32.19 319.5 32.05zM638 488.3c-1.002-1.828-2.377-3.484-4.111-4.855L25.9 3.234C23.25 1.148 20.09 .3242 16.95 .1328C16.36 .1016 15.78-.0234 15.19 .0039C13.7 .0859 12.27 .4883 10.85 .9727C10.17 1.207 9.457 1.297 8.811 1.621C6.801 2.633 4.928 4.004 3.436 5.875C2.068 7.613 1.117 9.547 .5684 11.55C.0195 13.55-.1289 15.63 .1113 17.67s.8691 4.027 1.869 5.852c1.002 1.824 2.377 3.48 4.111 4.852l608 480.2C617 510.9 620.5 512 624 512c4.719 0 9.406-2.094 12.56-6.078c2.734-3.473 3.805-7.727 3.324-11.79C639.6 492.1 639 490.1 638 488.3z"/></svg>