<svg xmlns="http://www.w3.org/2000/svg" viewBox="0 0 640 512"><!--! Font Awesome Pro 6.1.1 by @fontawesome - https://fontawesome.com License - https://fontawesome.com/license (Commercial License) Copyright 2022 Fonticons, Inc. --><path d="M146.7 250.9l22.34-61.42c3.031-8.312-1.266-17.5-9.562-20.5C151.2 165.1 142 170.2 139 178.5L116.6 239.1C112.2 239.2 107.9 238.7 103.7 238.7c-21.08 0-49.62 9.367-65.84 53.98c-13.71 37.72-.1523 89.42 10.03 114c3.432 8.297 10.19 14.77 18.63 17.84c3.541 1.281 7.244 1.922 10.93 1.922c5.105 0 10.19-1.219 14.81-3.633c23.61-12.32 67.21-43.23 80.93-80.95c8.152-22.42 8.947-41.52 2.43-58.39C170.3 269.7 160.6 258.8 146.7 250.9zM143.1 330.1c-9.744 26.8-44.97 52.73-65.66 63.52c-8.918-21.56-19.27-64.06-9.523-90.86C76 281.4 87.57 270.7 103.7 270.7c5.326 0 11.15 1.168 17.5 3.48C146.8 283.5 153.8 301.6 143.1 330.1zM637.5 71.67c-4.82-7.531-15.2-9.906-23.14-5.375C547.5 104.9 437.5 127.1 320 127.1S92.47 104.9 25.6 66.3c-7.945-4.531-18.32-2.156-23.14 5.375c-4.834 7.562-2.301 17.41 5.643 22C80.02 135.2 196.6 159.1 320 159.1s239.1-24.78 311.9-66.31C639.8 89.08 642.4 79.23 637.5 71.67zM336 257.3V191.1c0-8.844-7.156-16-16-16s-16 7.156-16 16v65.34c-35.39 6.219-56.03 33.84-56.03 76.53c0 40.14 30.42 84.09 48.39 103.7C302.4 444.2 311.1 448 320.1 448s17.41-3.773 23.47-10.4c17.97-19.65 48.39-63.61 48.39-103.7C391.1 291.2 371.4 263.6 336 257.3zM319.1 416c-15.75-17.22-40-53.62-40-82.14c0-31.41 12.78-45.87 40.03-45.87s39.97 14.59 39.97 45.87C359.1 362.4 335.7 398.8 319.1 416zM536.3 238.7c-4.195 0-8.537 .4844-12.95 1.266L501 178.5c-3.016-8.312-12.16-12.57-20.5-9.562c-8.297 3-12.59 12.19-9.562 20.5l22.34 61.42c-13.86 7.953-23.57 18.87-28.89 32.65c-6.518 16.87-5.723 35.96 2.43 58.39c13.71 37.72 57.32 68.63 80.93 80.95c4.621 2.414 9.703 3.633 14.81 3.633c3.689 0 7.393-.6406 10.93-1.922c8.441-3.07 15.2-9.547 18.63-17.84c10.18-24.61 23.74-76.31 10.03-114C585.9 248.1 557.4 238.7 536.3 238.7zM562.5 394.5c-20.69-10.8-55.92-36.72-65.66-63.52c-10.69-29.39-3.691-47.46 21.92-56.77c6.357-2.312 12.18-3.48 17.5-3.48c16.12 0 27.69 10.72 35.76 32.92C581.8 330.4 571.5 372.9 562.5 394.5z"/></svg>