<svg xmlns="http://www.w3.org/2000/svg" viewBox="0 0 448 512"><!--! Font Awesome Pro 6.0.0-beta3 by @fontawesome - https://fontawesome.com License - https://fontawesome.com/license (Commercial License) Copyright 2021 Fonticons, Inc. --><path d="M80 320C88.96 320 96 312.8 96 304V192c0-70.69 57.28-128 128-128s128 57.31 128 128v112c0 8.832 7.039 16 16 16S384 312.8 384 304V192c0-88.35-71.68-160-160-160S64 103.6 64 192v112C64 312.8 71.04 320 80 320zM400 352h-352C21.44 352 0 373.5 0 400v32C0 458.5 21.44 480 48 480h352c26.56 0 48-21.5 48-48v-32C448 373.5 426.6 352 400 352zM416 432c0 8.832-7.039 16-16 16h-352C39.04 448 32 440.8 32 432v-32C32 391.2 39.04 384 48 384h352c8.961 0 16 7.168 16 16V432zM128 176C128 184.8 135 192 144 192S160 184.8 160 176C160 149.5 181.4 128 208 128C216.1 128 224 120.8 224 112S216.1 96 208 96C163.8 96 128 131.9 128 176z"/></svg>