<svg xmlns="http://www.w3.org/2000/svg" viewBox="0 0 640 512"><!--! Font Awesome Pro 6.0.0-beta3 by @fontawesome - https://fontawesome.com License - https://fontawesome.com/license (Commercial License) Copyright 2021 Fonticons, Inc. --><path d="M535 94.3l64-32c8-3.938 11.2-13.57 7.359-21.47c-4.16-7.904-13.76-11.1-21.44-7.137l-64 32c-8 3.938-11.2 13.57-7.359 21.47C517.8 95.07 527.4 98.27 535 94.3zM176 352C184.1 352 192 344.8 192 336V224c0-70.69 57.28-128 128-128s128 57.31 128 128v112c0 8.832 7.039 16 16 16s16-7.168 16-16V224c0-88.35-71.68-160-160-160S160 135.6 160 224v112C160 344.8 167 352 176 352zM224 208C224 216.8 231 224 240 224S256 216.8 256 208C256 181.5 277.4 160 304 160C312.1 160 320 152.8 320 144S312.1 128 304 128C259.8 128 224 163.9 224 208zM80 192h-64C7.039 192 0 199.2 0 208S7.039 224 16 224h64C88.96 224 96 216.8 96 208S88.96 192 80 192zM624 192h-64C551 192 544 199.2 544 208S551 224 560 224h64C632.1 224 640 216.8 640 208S632.1 192 624 192zM40.96 62.3l64 32c7.68 3.967 17.28 .7676 21.44-7.137c3.84-7.904 .6406-17.54-7.359-21.47l-64-32C47.36 29.73 37.76 32.93 33.6 40.83C29.76 48.74 32.96 58.37 40.96 62.3zM496 384h-352C117.4 384 96 405.5 96 432v32C96 490.5 117.4 512 144 512h352c26.56 0 48-21.5 48-48v-32C544 405.5 522.6 384 496 384zM512 464c0 8.832-7.039 16-16 16h-352C135 480 128 472.8 128 464v-32C128 423.2 135 416 144 416h352c8.961 0 16 7.168 16 16V464z"/></svg>