<svg xmlns="http://www.w3.org/2000/svg" viewBox="0 0 384 512"><!--! Font Awesome Pro 6.1.1 by @fontawesome - https://fontawesome.com License - https://fontawesome.com/license (Commercial License) Copyright 2022 Fonticons, Inc. --><path d="M30.93 469.7C27.76 477.1 18.5 482.1 10.25 478.9C2.005 475.8-2.109 466.5 1.063 458.3L161.1 42.25C164.2 34.01 173.5 29.89 181.7 33.06C189.1 36.24 194.1 45.49 190.9 53.74L30.93 469.7zM275.6 32.41C284.2 34.39 289.6 42.98 287.6 51.59L191.6 467.6C189.6 476.2 181 481.6 172.4 479.6C163.8 477.6 158.4 469 160.4 460.4L256.4 44.4C258.4 35.79 266.1 30.42 275.6 32.41V32.41zM367.1 31.1C376.8 31.1 383.1 39.16 383.1 47.1V463.1C383.1 472.8 376.8 479.1 367.1 479.1C359.2 479.1 351.1 472.8 351.1 463.1V47.1C351.1 39.16 359.2 31.1 367.1 31.1V31.1z"/></svg>