<svg xmlns="http://www.w3.org/2000/svg" viewBox="0 0 576 512"><!--! Font Awesome Pro 6.1.1 by @fontawesome - https://fontawesome.com License - https://fontawesome.com/license (Commercial License) Copyright 2022 Fonticons, Inc. --><path d="M187.3 116.7C193.6 122.9 193.6 133.1 187.3 139.3C181.1 145.6 170.9 145.6 164.7 139.3L111.1 86.63V425.4L164.7 372.7C170.9 366.4 181.1 366.4 187.3 372.7C193.6 378.9 193.6 389.1 187.3 395.3L107.3 475.3C101.1 481.6 90.94 481.6 84.69 475.3L4.686 395.3C-1.562 389.1-1.562 378.9 4.686 372.7C10.93 366.4 21.06 366.4 27.31 372.7L80 425.4V86.63L27.31 139.3C21.07 145.6 10.94 145.6 4.686 139.3C-1.562 133.1-1.562 122.9 4.686 116.7L84.69 36.69C90.93 30.44 101.1 30.44 107.3 36.69L187.3 116.7zM560 79.1C568.8 79.1 576 87.16 576 95.1C576 104.8 568.8 111.1 560 111.1H272C263.2 111.1 256 104.8 256 95.1C256 87.16 263.2 79.1 272 79.1H560zM560 239.1C568.8 239.1 576 247.2 576 255.1C576 264.8 568.8 271.1 560 271.1H272C263.2 271.1 256 264.8 256 255.1C256 247.2 263.2 239.1 272 239.1H560zM256 416C256 407.2 263.2 400 272 400H560C568.8 400 576 407.2 576 416C576 424.8 568.8 432 560 432H272C263.2 432 256 424.8 256 416z"/></svg>