<svg xmlns="http://www.w3.org/2000/svg" viewBox="0 0 640 512"><!--! Font Awesome Pro 6.1.1 by @fontawesome - https://fontawesome.com License - https://fontawesome.com/license (Commercial License) Copyright 2022 Fonticons, Inc. --><path d="M633.9 483.4C640.9 488.9 642 498.1 636.6 505.9C631.1 512.9 621 514 614.1 508.6L6.086 28.56C-.8493 23.08-2.033 13.02 3.443 6.086C8.918-.8493 18.98-2.033 25.91 3.443L633.9 483.4zM640 256C640 306.2 616.9 350.1 580.7 380.3L554.8 359.9C587 336.6 608 298.8 608 256C608 185.3 550.7 128 480 128H368C359.2 128 352 120.8 352 112C352 103.2 359.2 96 368 96H480C568.4 96 640 167.6 640 256H640zM368 416C359.2 416 352 408.8 352 400C352 391.2 359.2 384 368 384H378.8L419.4 416H368zM448 272H443.6L403 240H448C456.8 240 464 247.2 464 256C464 264.8 456.8 272 448 272zM196.4 240L236.1 272H192C183.2 272 176 264.8 176 256C176 247.2 183.2 240 192 240H196.4zM272 128H261.2L220.6 96H272C280.8 96 288 103.2 288 112C288 120.8 280.8 128 272 128zM32 256C32 326.7 89.31 384 160 384H272C280.8 384 288 391.2 288 400C288 408.8 280.8 416 272 416H160C71.64 416 .0006 344.4 .0006 256C.0006 205.8 23.11 161 59.26 131.7L85.17 152.1C52.96 175.4 32 213.2 32 256H32z"/></svg>