<svg xmlns="http://www.w3.org/2000/svg" viewBox="0 0 640 512"><!--! Font Awesome Pro 6.0.0-beta3 by @fontawesome - https://fontawesome.com License - https://fontawesome.com/license (Commercial License) Copyright 2021 Fonticons, Inc. --><path d="M480 96h-96c-8.844 0-16 7.156-16 16S375.2 128 384 128h96c70.59 0 128 57.42 128 128s-57.41 128-128 128h-96c-8.844 0-16 7.156-16 16S375.2 416 384 416h96c88.22 0 160-71.78 160-160S568.2 96 480 96zM256 384H160c-70.59 0-128-57.42-128-128s57.41-128 128-128h96c8.844 0 16-7.156 16-16S264.8 96 256 96H160C71.78 96 0 167.8 0 256s71.78 160 160 160h96c8.844 0 16-7.156 16-16S264.8 384 256 384zM176 256c0 8.844 7.156 16 16 16h256c8.844 0 16-7.156 16-16S456.8 240 448 240H192C183.2 240 176 247.2 176 256z"/></svg>