<svg xmlns="http://www.w3.org/2000/svg" viewBox="0 0 640 512"><!--! Font Awesome Pro 6.1.1 by @fontawesome - https://fontawesome.com License - https://fontawesome.com/license (Commercial License) Copyright 2022 Fonticons, Inc. --><path d="M0 256C0 167.6 71.63 96 160 96H272C280.8 96 288 103.2 288 112C288 120.8 280.8 128 272 128H160C89.31 128 32 185.3 32 256C32 326.7 89.31 384 160 384H272C280.8 384 288 391.2 288 400C288 408.8 280.8 416 272 416H160C71.63 416 0 344.4 0 256zM480 416H368C359.2 416 352 408.8 352 400C352 391.2 359.2 384 368 384H480C550.7 384 608 326.7 608 256C608 185.3 550.7 128 480 128H368C359.2 128 352 120.8 352 112C352 103.2 359.2 96 368 96H480C568.4 96 640 167.6 640 256C640 344.4 568.4 416 480 416zM448 240C456.8 240 464 247.2 464 256C464 264.8 456.8 272 448 272H192C183.2 272 176 264.8 176 256C176 247.2 183.2 240 192 240H448z"/></svg>