<svg xmlns="http://www.w3.org/2000/svg" viewBox="0 0 640 512"><!--! Font Awesome Pro 6.0.0-beta3 by @fontawesome - https://fontawesome.com License - https://fontawesome.com/license (Commercial License) Copyright 2021 Fonticons, Inc. --><path d="M385.6 107.3l44.85-44.87c40.57-40.54 106.6-40.54 147.1 0c40.54 40.56 40.54 106.6 0 147.1l-94.04 94.04l25.29 19.97l91.37-91.38c53.03-53.04 53.03-139.3 0-192.4c-53.04-53.04-139.3-53.01-192.4 0l-44.85 44.87c-6.252 6.25-6.252 16.38 0 22.63C369.2 113.5 379.4 113.5 385.6 107.3zM337.6 174.4c8.992 8.996 15.98 19.35 20.1 30.44l40.74 32.16c-2.543-31.29-15.65-61.77-39.11-85.23c-31.76-31.76-75.41-44.08-116.7-37.8L283.9 145.9C303.6 149.7 322.3 159.2 337.6 174.4zM302.4 337.6c-9-9.004-15.99-19.37-21.01-30.46l-40.72-32.15c2.541 31.3 15.65 61.78 39.11 85.25c26.52 26.52 61.36 39.78 96.19 39.78c6.891 0 13.74-.9297 20.57-1.967l-40.45-31.93C336.5 362.3 317.7 352.8 302.4 337.6zM254.4 404.7l-44.85 44.87c-40.57 40.54-106.6 40.54-147.1 0c-40.54-40.56-40.54-106.6 0-147.1l94.04-94.05L131.2 188.4L39.77 279.8c-53.03 53.04-53.03 139.3 0 192.4C66.29 498.7 101.1 512 135.1 512c34.84 0 69.67-13.27 96.19-39.78l44.85-44.87c6.252-6.252 6.252-16.38 0-22.63C270.8 398.5 260.6 398.5 254.4 404.7zM25.92 3.42c-6.938-5.453-17-4.25-22.48 2.641c-5.469 6.938-4.281 17 2.641 22.48l608 480C617 510.9 620.5 512 623.1 512c4.734 0 9.422-2.094 12.58-6.078c5.469-6.938 4.281-17-2.641-22.49L25.92 3.42z"/></svg>