<svg xmlns="http://www.w3.org/2000/svg" viewBox="0 0 512 512"><!--! Font Awesome Pro 6.0.0-beta3 by @fontawesome - https://fontawesome.com License - https://fontawesome.com/license (Commercial License) Copyright 2021 Fonticons, Inc. --><path d="M76.29 154.2C73.41 157.7 69.22 159.8 64.72 159.1C60.23 160.2 55.86 158.5 52.69 155.3L4.686 107.3C-1.562 101.1-1.562 90.94 4.686 84.69C10.93 78.44 21.06 78.44 27.31 84.69L62.92 120.3L131.7 37.76C137.4 30.97 147.5 30.05 154.2 35.71C161 41.37 161.9 51.45 156.3 58.24L76.29 154.2zM76.29 314.2C73.41 317.7 69.22 319.8 64.72 319.1C60.23 320.2 55.86 318.5 52.69 315.3L4.686 267.3C-1.562 261.1-1.562 250.9 4.686 244.7C10.93 238.4 21.06 238.4 27.31 244.7L62.92 280.3L131.7 197.8C137.4 190.1 147.5 190.1 154.2 195.7C161 201.4 161.9 211.5 156.3 218.2L76.29 314.2zM191.1 96C191.1 87.16 199.2 80 207.1 80H496C504.8 80 512 87.16 512 96C512 104.8 504.8 112 496 112H207.1C199.2 112 191.1 104.8 191.1 96zM191.1 256C191.1 247.2 199.2 240 207.1 240H496C504.8 240 512 247.2 512 256C512 264.8 504.8 272 496 272H207.1C199.2 272 191.1 264.8 191.1 256zM159.1 416C159.1 407.2 167.2 400 175.1 400H496C504.8 400 512 407.2 512 416C512 424.8 504.8 432 496 432H175.1C167.2 432 159.1 424.8 159.1 416zM63.1 448C46.33 448 31.1 433.7 31.1 416C31.1 398.3 46.33 384 63.1 384C81.67 384 95.1 398.3 95.1 416C95.1 433.7 81.67 448 63.1 448z"/></svg>