<svg xmlns="http://www.w3.org/2000/svg" viewBox="0 0 512 512"><!--! Font Awesome Pro 6.1.1 by @fontawesome - https://fontawesome.com License - https://fontawesome.com/license (Commercial License) Copyright 2022 Fonticons, Inc. --><path d="M16 223.1h256c8.801 0 16-7.201 16-16c0-8.801-7.199-16-16-16h-256c-8.799 0-16 7.201-16 16C0 216.8 7.201 223.1 16 223.1zM16 95.99h256c8.801 0 16-7.201 16-16c0-8.801-7.199-16-16-16h-256c-8.799 0-16 7.199-16 16C0 88.79 7.201 95.99 16 95.99zM144 319.1h-128c-8.799 0-16 7.201-16 16c0 8.801 7.201 16 16 16h128c8.801 0 16-7.201 16-16C160 327.2 152.8 319.1 144 319.1zM498.8 6.162C493.3 2.176 486.6 .0156 480 0c-3.354-.0078-6.727 .5195-10 1.611l-96.62 31.88C360.8 37.74 352 49.99 352 63.99v312.1c-20.38-14.88-48.63-24.13-80-24.13c-61.88 0-112 35.88-112 80C160 476.1 210.1 512 272 512s112-35.88 112-80V191.1l106.1-35.38C503.1 152.2 512 139.1 512 126.2V31.96C512 21.71 507.1 12.16 498.8 6.162zM272 479.1c-47.13 0-80-25.25-80-48c0-22.75 32.88-47.1 80-47.1s80 25.25 80 48C352 454.7 319.1 479.1 272 479.1zM480 126.2l-96 32l.0469-94.17L383.5 63.99L480 31.99V126.2z"/></svg>