<svg xmlns="http://www.w3.org/2000/svg" viewBox="0 0 512 512"><!--! Font Awesome Pro 6.0.0-beta3 by @fontawesome - https://fontawesome.com License - https://fontawesome.com/license (Commercial License) Copyright 2021 Fonticons, Inc. --><path d="M432 0c-4.781 0-9.344 2.156-12.38 5.859s-4.25 8.578-3.312 13.28l16 80c1.75 8.703 10.53 14.27 18.81 12.55c8.688-1.734 14.31-10.16 12.56-18.83l-11.25-56.3C468.7 44.25 480 60.83 480 80V128c0 17.64-14.34 32-32 32s-32-14.36-32-32V80C416 71.16 408.8 64 400 64S384 71.16 384 80V128c0 17.32 6.977 33 18.19 44.54l-26.85 18.79C367.3 197 357.8 200 347.8 200h-13.69C330.2 173.8 317.8 153.1 304 137.9V80c0-17.64 14.34-32 32-32C344.8 48 352 40.84 352 32s-7.156-16-16-16c-35.28 0-64 28.7-64 64v30.9c-4.662-2.926-8.264-4.926-8.844-5.215C260.9 104.6 258.5 104 256 104S251.1 104.6 248.8 105.7C248.3 105.1 244.7 107.1 240 110.9V80c0-35.3-28.72-64-64-64C167.2 16 160 23.16 160 32s7.156 16 16 16c17.66 0 32 14.36 32 32v57.91C194.2 153.1 181.8 173.8 177.9 200H164.2c-9.938 0-19.44-3-27.53-8.672L109.8 172.5C121 161 128 145.3 128 128V80C128 71.16 120.8 64 112 64S96 71.16 96 80V128c0 17.64-14.34 32-32 32S32 145.6 32 128V80c0-19.17 11.28-35.75 27.56-43.44L48.31 92.86C46.56 101.5 52.19 109.1 60.88 111.7c8.281 1.719 17.06-3.844 18.81-12.55l16-80c.9375-4.703-.2813-9.578-3.312-13.28S84.78 0 79.1 0C35.87 0 0 35.89 0 79.1V128c0 35.3 28.72 64 64 64c5.186 0 10.16-.7891 14.99-1.959l39.29 27.51C131.8 227 147.7 232 164.2 232H176V256H143.1C135.7 256 128.3 254.3 121.7 250.9l-34.5-17.25c-7.875-3.891-17.5-.7656-21.47 7.156C61.75 248.8 64.94 258.4 72.84 262.3l34.5 17.25C118.4 285.1 130.8 288 143.1 288H176v16H122.4c-5.156 0-10.25-.8281-15.16-2.453L69.06 288.8c-8.344-2.734-17.44 1.719-20.25 10.11C46.03 307.3 50.56 316.4 58.94 319.2l38.16 12.73C105.3 334.6 113.8 336 122.4 336H176V352H175.1c-12.34 0-24.72 2.922-35.75 8.438l-18.5 9.25c-7.906 3.953-11.09 13.56-7.156 21.47C116.5 396.8 122.2 400 128 400c2.406 0 4.844-.5469 7.156-1.688l18.5-9.25C160.3 385.8 167.7 384 175.1 384h3.734c.8594 3.975 1.629 7.973 2.922 11.84l13.22 39.7C169.1 444.3 152 468.1 152 496c0 8.844 7.156 16 16 16h176c8.844 0 16-7.156 16-16c0-27.94-18-51.73-42.97-60.45l13.22-39.7C331.5 391.1 332.3 387.1 333.2 384h3.734c7.406 0 14.81 1.75 21.44 5.062l18.5 9.25C379.2 399.5 381.6 400 384 400c5.844 0 11.5-3.234 14.31-8.844c3.938-7.906 .75-17.52-7.156-21.47l-18.5-9.25C361.6 354.9 349.3 352 336.9 352H336v-16h53.63c8.594 0 17.09-1.385 25.28-4.104l38.16-12.72c8.375-2.781 12.91-11.84 10.12-20.23c-2.812-8.391-11.91-12.84-20.25-10.11l-38.16 12.71C399.9 303.2 394.8 304 389.6 304H336V288h32.91c12.34 0 24.72-2.922 35.75-8.438l34.5-17.25c7.906-3.953 11.09-13.56 7.156-21.47c-3.969-7.922-13.59-11.05-21.47-7.156l-34.5 17.25C383.7 254.3 376.3 256 368.9 256H336V232h11.81c16.53 0 32.41-5 45.91-14.45l39.29-27.51C437.8 191.2 442.8 192 448 192c35.28 0 64-28.7 64-64V79.1C512 35.89 476.1 0 432 0zM208 216c0-41.27 33.03-67.59 48-77.39C270.1 148.4 304 174.7 304 216v81.69C297.1 300.4 280.3 304 256 304S214.9 300.4 208 297.7V216zM208 331.1C223.7 334.1 241.1 336 256 336c13.1 0 32.35-1.025 48-4.861v14.55C297.1 348.4 280.3 352 256 352s-41.08-3.57-48-6.312V331.1zM301.4 379.7c-.498 1.998-.8223 4.037-1.477 5.996l-3.66 10.97C284.9 398.7 270.5 399.7 256 399.7s-28.93-1.018-40.25-3.053l-3.66-10.97c-.6543-1.959-.9785-3.998-1.477-5.996C225.7 383 242.8 384 256 384S286.3 383 301.4 379.7zM323.7 480H188.3c5.625-9.562 16.22-16 28.84-16c5.625 0 10.81-2.938 13.72-7.75c2.875-4.797 3.062-10.78 .4062-15.73c-.0938-.2187-2.125-3.719-2.25-3.938l-1.996-5.982C236.1 431.5 245.9 432 256 432s19.88-.5059 28.93-1.404l-1.996 5.982c-.125 .2187-2.156 3.719-2.25 3.938c-2.656 4.953-2.469 10.94 .4062 15.73C284 461.1 289.2 464 294.8 464C307.4 464 318 470.4 323.7 480z"/></svg>