<svg xmlns="http://www.w3.org/2000/svg" viewBox="0 0 640 512"><!--! Font Awesome Pro 6.1.1 by @fontawesome - https://fontawesome.com License - https://fontawesome.com/license (Commercial License) Copyright 2022 Fonticons, Inc. --><path d="M633.9 483.4C640.9 488.9 642 498.1 636.6 505.9C631.1 512.9 621 514 614.1 508.6L6.086 28.56C-.8493 23.08-2.033 13.02 3.443 6.086C8.918-.8493 18.98-2.033 25.91 3.443L633.9 483.4zM395.5 397.1L422.4 418.4C397 434.5 367.6 444.7 336 447.3V496C336 504.8 328.8 512 319.1 512C311.2 512 303.1 504.8 303.1 496V447.3C210.7 439.6 136.4 365.3 128.7 272H79.1C71.16 272 63.1 264.8 63.1 256C63.1 247.2 71.16 240 79.1 240H128.7C129.1 224 133.2 208.6 138.2 194L165.2 215.3C161.8 228.3 159.1 241.1 159.1 256C159.1 344.4 231.6 416 319.1 416C347.3 416 372.1 409.2 395.5 397.1V397.1zM303.1 16C303.1 7.164 311.2 .0006 319.1 .0006C328.8 .0006 336 7.164 336 16V64.66C429.3 72.35 503.6 146.7 511.3 240H560C568.8 240 576 247.2 576 256C576 264.8 568.8 272 560 272H511.3C510 287.1 506.8 303.4 501.8 317.1L474.8 296.7C478.2 283.7 480 270.1 480 256C480 167.6 408.4 96 319.1 96C292.7 96 267 102.8 244.5 114.9L217.6 93.58C242.1 77.53 272.4 67.26 303.1 64.66V16zM319.1 352C268.1 352 227.2 312.2 224.2 261.9L279.9 305.9C280.2 306.1 280.5 306.4 280.8 306.6L336.5 350.6C331.2 351.5 325.6 352 320 352L319.1 352zM319.1 160C371 160 412.8 199.8 415.8 250.1L360.1 206.1C359.8 205.9 359.5 205.6 359.2 205.4L303.5 161.4C308.8 160.5 314.4 160 319.1 160V160z"/></svg>