<svg xmlns="http://www.w3.org/2000/svg" viewBox="0 0 448 512"><!--! Font Awesome Pro 6.0.0-beta3 by @fontawesome - https://fontawesome.com License - https://fontawesome.com/license (Commercial License) Copyright 2021 Fonticons, Inc. --><path d="M176 240C184.8 240 192 247.2 192 256V288H256V256C256 247.2 263.2 240 272 240C280.8 240 288 247.2 288 256V288H320C328.8 288 336 295.2 336 304C336 312.8 328.8 320 320 320H288V384H320C328.8 384 336 391.2 336 400C336 408.8 328.8 416 320 416H288V448C288 456.8 280.8 464 272 464C263.2 464 256 456.8 256 448V416H192V448C192 456.8 184.8 464 176 464C167.2 464 160 456.8 160 448V416H128C119.2 416 112 408.8 112 400C112 391.2 119.2 384 128 384H160V320H128C119.2 320 112 312.8 112 304C112 295.2 119.2 288 128 288H160V256C160 247.2 167.2 240 176 240zM192 384H256V320H192V384zM96 192V128C96 57.31 153.3 0 224 0C294.7 0 352 57.31 352 128V192H368C412.2 192 448 227.8 448 272V432C448 476.2 412.2 512 368 512H80C35.82 512 0 476.2 0 432V272C0 227.8 35.82 192 80 192H96zM128 192H320V128C320 74.98 277 32 224 32C170.1 32 128 74.98 128 128V192zM32 432C32 458.5 53.49 480 80 480H368C394.5 480 416 458.5 416 432V272C416 245.5 394.5 224 368 224H80C53.49 224 32 245.5 32 272V432z"/></svg>