<svg xmlns="http://www.w3.org/2000/svg" viewBox="0 0 576 512"><!--! Font Awesome Pro 6.1.1 by @fontawesome - https://fontawesome.com License - https://fontawesome.com/license (Commercial License) Copyright 2022 Fonticons, Inc. --><path d="M448 320C448 306.7 458.7 296 472 296C485.3 296 496 306.7 496 320C496 333.3 485.3 344 472 344C458.7 344 448 333.3 448 320zM336 32C468.6 32 576 139.5 576 272V319.7L576 320C576 369.8 538.1 410.7 489.7 415.5L510.3 456.8C514.3 464.7 511.1 474.4 503.2 478.3C495.3 482.3 485.6 479.1 481.7 471.2L454.1 416H317.9L285.9 471.9C281.5 479.6 271.7 482.3 264.1 477.9C256.4 473.5 253.7 463.7 258.1 456.1L281 416H248.8C233.3 416 217.9 414.4 202.8 411.2L156.9 473.5C151.6 480.6 141.6 482.1 134.5 476.9C127.4 471.6 125.9 461.6 131.1 454.5L170 401.7C165.2 399.9 160.4 397.9 155.6 395.7L104.7 372.4L28.8 473.6C23.5 480.7 13.47 482.1 6.401 476.8C-.6683 471.5-2.101 461.5 3.201 454.4L74.9 358.8L72.98 357.9C48.01 346.5 32 321.6 32 294.1C32 255.4 63.4 224 102.1 224H176L243.2 134.4C246.3 130.2 251.3 127.9 256.4 128C261.6 128.2 266.4 130.8 269.3 135.1L309.9 195.9L355.1 134.5C358.4 130.1 363.6 127.7 369.1 128C374.5 128.4 379.4 131.5 382 136.3L429.9 224H480C503.9 224 525.7 232.7 542.5 247.2C530.3 143.1 442.5 64 336 64H304C295.2 64 288 56.84 288 48C288 39.16 295.2 32 304 32L336 32zM192 256L124.3 346.2L168.9 366.6C194 378.1 221.2 384 248.8 384H463.7C463.7 383.1 463.8 383.1 463.9 383.1C464.1 383.1 464.2 383.1 464.3 384H480C515.3 384 543.9 355.4 544 320.1L544 320V319.7C543.9 284.5 515.3 256 480 256L192 256zM102.1 256C81.08 256 64 273.1 64 294.1C64 309.1 72.71 322.6 86.29 328.8L94.55 332.6L152 256L102.1 256zM289.7 223.3L255.2 171.7L216 224H289.2L289.7 223.3zM365.1 173.7L328.9 224H393.4L365.1 173.7z"/></svg>