<svg xmlns="http://www.w3.org/2000/svg" viewBox="0 0 512 512"><!--! Font Awesome Pro 6.1.1 by @fontawesome - https://fontawesome.com License - https://fontawesome.com/license (Commercial License) Copyright 2022 Fonticons, Inc. --><path d="M315.3 196.7C321.6 202.9 321.6 213.1 315.3 219.3L235.3 299.3C229.1 305.6 218.9 305.6 212.7 299.3C206.4 293.1 206.4 282.9 212.7 276.7L265.4 224H112C103.2 224 96 216.8 96 208C96 199.2 103.2 192 112 192H265.4L212.7 139.3C206.4 133.1 206.4 122.9 212.7 116.7C218.9 110.4 229.1 110.4 235.3 116.7L315.3 196.7zM0 208C0 93.12 93.12 0 208 0C322.9 0 416 93.12 416 208C416 259.7 397.2 306.1 365.1 343.3L507.3 484.7C513.6 490.9 513.6 501.1 507.3 507.3C501.1 513.6 490.9 513.6 484.7 507.3L343.3 365.1C306.1 397.2 259.7 416 208 416C93.12 416 0 322.9 0 208zM208 384C305.2 384 384 305.2 384 208C384 110.8 305.2 32 208 32C110.8 32 32 110.8 32 208C32 305.2 110.8 384 208 384z"/></svg>