<svg xmlns="http://www.w3.org/2000/svg" viewBox="0 0 512 512"><!--! Font Awesome Pro 6.0.0-beta3 by @fontawesome - https://fontawesome.com License - https://fontawesome.com/license (Commercial License) Copyright 2021 Fonticons, Inc. --><path d="M212.3 192.6l-6.891-1.969C171.8 180.7 169 174 171.1 162.1c2.828-16.47 26.16-20.38 48.06-16.91c8.031 1.219 17.31 4.25 23.59 6.438c8.328 2.812 17.45-1.562 20.36-9.906c2.891-8.344-1.547-17.44-9.891-20.34C241.4 117.3 232 114.8 224 113.6c-.0273-.0039 .0273 .0039 0 0L224 96c0-8.844-7.156-16-16-16S192 87.16 192 96v16.91C163.7 116.6 143.8 132.3 139.6 156.7c-7.891 45.63 35.83 58.47 56.84 64.63l7.109 2.062C240.1 233.8 247.4 239.2 244.9 253.9C242.1 270.4 218.8 274.3 196.8 270.8C187.1 269.3 175.4 265.1 165.1 261.4L160 259.6C151.6 256.5 142.6 260.1 139.6 269.3c-2.953 8.344 1.391 17.47 9.703 20.44L154.2 291.5c11.7 4.25 25.03 9.035 37.72 10.94c.0332 .0078-.0332-.0078 0 0L192 320c0 8.844 7.156 16 16 16S224 328.8 224 320V303.2c28.35-3.625 48.21-19.45 52.42-43.85C284.4 213.2 241 200.8 212.3 192.6zM507.3 484.7l-141.5-141.5C397 306.8 416 259.7 416 208C416 93.13 322.9 0 208 0S0 93.13 0 208S93.13 416 208 416c51.68 0 98.85-18.96 135.2-50.15l141.5 141.5C487.8 510.4 491.9 512 496 512s8.188-1.562 11.31-4.688C513.6 501.1 513.6 490.9 507.3 484.7zM208 384C110.1 384 32 305 32 208S110.1 32 208 32S384 110.1 384 208S305 384 208 384z"/></svg>