<svg xmlns="http://www.w3.org/2000/svg" viewBox="0 0 512 512"><!--! Font Awesome Pro 6.1.1 by @fontawesome - https://fontawesome.com License - https://fontawesome.com/license (Commercial License) Copyright 2022 Fonticons, Inc. --><path d="M128 224C128 215.2 135.2 208 144 208C152.8 208 160 215.2 160 224V288C160 296.8 152.8 304 144 304C135.2 304 128 296.8 128 288V224zM192 128C192 119.2 199.2 112 208 112C216.8 112 224 119.2 224 128V288C224 296.8 216.8 304 208 304C199.2 304 192 296.8 192 288V128zM256 192C256 183.2 263.2 176 272 176C280.8 176 288 183.2 288 192V288C288 296.8 280.8 304 272 304C263.2 304 256 296.8 256 288V192zM0 208C0 93.12 93.12 0 208 0C322.9 0 416 93.12 416 208C416 259.7 397.2 306.1 365.1 343.3L507.3 484.7C513.6 490.9 513.6 501.1 507.3 507.3C501.1 513.6 490.9 513.6 484.7 507.3L343.3 365.1C306.1 397.2 259.7 416 208 416C93.12 416 0 322.9 0 208zM208 384C305.2 384 384 305.2 384 208C384 110.8 305.2 32 208 32C110.8 32 32 110.8 32 208C32 305.2 110.8 384 208 384z"/></svg>