<svg xmlns="http://www.w3.org/2000/svg" viewBox="0 0 512 512"><!--! Font Awesome Pro 6.1.1 by @fontawesome - https://fontawesome.com License - https://fontawesome.com/license (Commercial License) Copyright 2022 Fonticons, Inc. --><path d="M336 192C344.8 192 352 184.8 352 176V84.82C371.7 101.8 399.1 112 430.3 112h48.59c10.88 0 21.03-4.75 27.22-12.69c5.25-6.781 7.062-15.3 5-23.36C499.8 31.94 451.7 0 396.7 0H336C327.2 0 320 7.156 320 16v160C320 184.8 327.2 192 336 192zM396.7 32c38.88 0 72.66 19.95 82.31 48h-48.63c-38.56 0-68.13-19.42-76.19-48H396.7zM509.4 263c-9.412-59.93-49.02-107.2-102.4-131.9C396.3 126.2 384 134 384 145.8c0 6.162 3.477 11.87 9.068 14.46c44.61 20.65 77.12 59.6 84.68 107.7c8.268 52.64-6.281 103.1-40.96 144.5C400.1 455.4 345.9 480 288 480c-103.5 0-193.7-27.42-238.2-43.77C38.97 432.3 32 422.7 32 411.9c0-6.91 2.949-13.63 8.092-18.45C71.67 363.9 96.75 326.4 121 290.1c44.08-65.9 83.31-124 154.8-140.9C282.1 147.5 288 141 288 133.6c0-10.47-9.842-18.12-20.03-15.68c-128.4 30.77-166.1 174.6-249.7 252.1C6.514 381 0 396.2 0 411.9c0 24.13 15.28 45.79 38.73 54.39C88.42 484.5 181.1 512 287.1 512C423.2 512 530.4 396.9 509.4 263z"/></svg>