<svg xmlns="http://www.w3.org/2000/svg" viewBox="0 0 512 512"><!--! Font Awesome Pro 6.0.0-beta3 by @fontawesome - https://fontawesome.com License - https://fontawesome.com/license (Commercial License) Copyright 2021 Fonticons, Inc. --><path d="M192 304c-8.836 0-16 7.164-16 16s7.164 16 16 16s16-7.164 16-16S200.8 304 192 304zM256 240C247.2 240 240 247.2 240 256S247.2 272 256 272s16-7.164 16-16S264.8 240 256 240zM256 304c-8.836 0-16 7.164-16 16s7.164 16 16 16s16-7.164 16-16S264.8 304 256 304zM192 240C183.2 240 176 247.2 176 256S183.2 272 192 272S208 264.8 208 256S200.8 240 192 240zM192 176C183.2 176 176 183.2 176 192S183.2 208 192 208S208 200.8 208 192S200.8 176 192 176zM256 176C247.2 176 240 183.2 240 192S247.2 208 256 208s16-7.164 16-16S264.8 176 256 176zM320 304c-8.836 0-16 7.164-16 16s7.164 16 16 16s16-7.164 16-16S328.8 304 320 304zM256 80C158.8 80 80 158.8 80 256s78.8 176 176 176c97.2 0 176-78.8 176-176S353.2 80 256 80zM271.7 398.4C270.8 390.4 264.3 384 256 384s-14.85 6.359-15.68 14.41C168.4 390.5 112 330 112 256s56.37-134.5 128.3-142.4C241.2 121.6 247.7 128 256 128s14.85-6.359 15.68-14.41C343.6 121.5 400 181.1 400 256S343.6 390.5 271.7 398.4zM320 176c-8.836 0-16 7.164-16 16s7.164 16 16 16s16-7.164 16-16S328.8 176 320 176zM320 240c-8.836 0-16 7.164-16 16s7.164 16 16 16s16-7.164 16-16S328.8 240 320 240zM256 0C114.8 0 0 114.8 0 256s114.8 256 256 256s256-114.8 256-256S397.2 0 256 0zM256 480c-123.5 0-224-100.5-224-224s100.5-224 224-224s224 100.5 224 224S379.5 480 256 480z"/></svg>