<svg xmlns="http://www.w3.org/2000/svg" viewBox="0 0 512 512"><!--! Font Awesome Pro 6.0.0-beta3 by @fontawesome - https://fontawesome.com License - https://fontawesome.com/license (Commercial License) Copyright 2021 Fonticons, Inc. --><path d="M421.4 0c-23.12 0-46.23 8.89-63.98 26.51l-42.18 42.13l-25.33-25.33c-18.69-18.72-49.19-18.72-67.88 0L116.7 148.7c-6.25 6.25-6.25 16.38 0 22.62C119.8 174.4 123.9 176 128 176s8.188-1.562 11.31-4.688l105.4-105.4c6.25-6.25 16.38-6.25 22.62 0l25.34 25.34L93.99 290c-52.5 52.5-85.6 121.4-93.85 195.1C-1.484 499.5 9.852 512 23.98 512c.875 0 1.785-.0146 2.66-.1396c73.87-8.25 142.8-41.23 195.3-93.85l263.5-263.5C542.6 97.39 501.4 0 421.4 0zM199.2 395.4c-44.46 44.57-102.8 73.88-166 83.34c9.193-62.62 38.58-121.3 83.42-166.1l70.65-70.69l82.7 82.7L199.2 395.4zM462.8 131.9l-170.1 170.1L209.9 219.3l170-170.1C391.1 38.11 405.8 32 421.4 32c28.69 0 46.68 18.75 53.95 36.31C484.7 90.88 479.1 114.6 462.8 131.9z"/></svg>