<svg xmlns="http://www.w3.org/2000/svg" viewBox="0 0 640 512"><!--! Font Awesome Pro 6.1.1 by @fontawesome - https://fontawesome.com License - https://fontawesome.com/license (Commercial License) Copyright 2022 Fonticons, Inc. --><path d="M623.1 0C632.8 0 639.1 7.164 639.1 16V104C639.1 112.8 632.8 120 623.1 120C615.2 120 607.1 112.8 607.1 104V54.63L530.8 131.8C549.2 157.9 559.1 189.7 559.1 224C559.1 306.1 496.9 375.2 415.1 383.2V416H455.1C464.8 416 471.1 423.2 471.1 432C471.1 440.8 464.8 448 455.1 448H415.1V496C415.1 504.8 408.8 512 399.1 512C391.2 512 383.1 504.8 383.1 496V448H343.1C335.2 448 327.1 440.8 327.1 432C327.1 423.2 335.2 416 343.1 416H383.1V383.2C303.1 375.2 239.1 306.1 239.1 224C239.1 135.6 311.6 64 399.1 64C442.5 64 481.1 80.57 509.8 107.6L585.4 32H527.1C519.2 32 511.1 24.84 511.1 16C511.1 7.164 519.2 0 527.1 0H623.1zM399.1 96C329.3 96 271.1 153.3 271.1 224C271.1 294.7 329.3 352 399.1 352C470.7 352 527.1 294.7 527.1 224C527.1 153.3 470.7 96 399.1 96V96zM175.1 8C182.2 8 187.9 11.64 190.5 17.32L222.6 87.16L282.1 72.46C266.5 84.61 252.8 99.11 241.6 115.4L217.5 121.4C210 123.2 202.3 119.5 199.1 112.5L175.1 62.31L152.9 112.5C149.7 119.5 141.1 123.2 134.5 121.4L80.86 108.1L105.7 157.5C109.2 164.4 107.3 172.7 101.2 177.4L57.36 211.1L111.5 222.4C118.1 223.1 124.3 230.7 124.2 238.4L123.2 293.6L165.8 258.4C171.7 253.5 180.3 253.5 186.2 258.4L217.7 284.5C224.9 306.1 235.8 326.1 249.8 343.6C244.8 344.1 239.3 343.9 235.2 340.5L175.1 291.5L116.8 340.5C111.1 344.5 105.3 345.3 99.63 342.6C94 339.9 90.47 334.1 90.58 327.9L91.96 251L16.73 235.3C10.61 233.1 5.8 229.3 4.41 223.2C3.019 217.1 5.303 210.7 10.26 206.9L71.21 160.1L36.62 91.44C33.8 85.86 34.5 79.15 38.39 74.27C42.29 69.38 48.68 67.21 54.74 68.71L129.4 87.16L161.5 17.32C164.1 11.64 169.7 7.999 175.1 7.999L175.1 8z"/></svg>