<svg xmlns="http://www.w3.org/2000/svg" viewBox="0 0 384 512"><!--! Font Awesome Pro 6.1.1 by @fontawesome - https://fontawesome.com License - https://fontawesome.com/license (Commercial License) Copyright 2022 Fonticons, Inc. --><path d="M316.5 211.6c-30.29-30.29-68.88-47.19-108.5-50.78v-16.76h48c8.844 0 15.1-7.156 15.1-15.1s-7.156-15.1-15.1-15.1h-48V49.31l54 43.2c2.953 2.344 6.484 3.5 9.984 3.5c4.703 0 9.344-2.062 12.52-5.1c5.516-6.906 4.391-16.97-2.5-22.5L202 3.516c-5.844-4.687-14.16-4.687-20 0L101.1 67.51c-6.891 5.531-8.016 15.59-2.5 22.5c5.531 6.875 15.58 7.1 22.5 2.5l54-43.2v62.7H127.1c-8.844 0-15.1 7.156-15.1 15.1s7.156 15.1 15.1 15.1h48v16.76C136.4 164.4 97.84 181.3 67.55 211.6c-68.73 68.73-68.73 180.2 0 248.9c68.73 68.73 180.2 68.73 248.9 0C385.2 391.7 385.2 280.3 316.5 211.6zM293.8 437.8c-56.15 56.14-147.5 56.14-203.6 0c-56.14-56.14-56.14-147.5 0-203.6c56.15-56.14 147.5-56.14 203.6 0C349.1 290.3 349.1 381.7 293.8 437.8z"/></svg>