<svg xmlns="http://www.w3.org/2000/svg" viewBox="0 0 576 512"><!--! Font Awesome Pro 6.0.0-beta3 by @fontawesome - https://fontawesome.com License - https://fontawesome.com/license (Commercial License) Copyright 2021 Fonticons, Inc. --><path d="M288 64C39.52 64 0 182.1 0 273.5C0 379.5 78.8 448 176 448c27.33 0 51.21-6.516 66.11-36.79l19.93-40.5C268.3 358.6 278.1 352.4 288 352.1c9.9 .3711 19.7 6.501 25.97 18.63l19.93 40.5C348.8 441.5 372.7 448 400 448c97.2 0 176-68.51 176-174.5C576 182.1 536.5 64 288 64zM400 416c-23.88 0-31.09-6.104-37.39-18.92l-20.21-41.05c-11.19-21.67-31.08-35.1-53.2-35.93L288 320.1l-1.199 .043c-22.12 .8301-42.01 14.26-53.48 36.48l-19.92 40.49C207.1 409.9 199.9 416 176 416C91.21 416 32 357.4 32 273.5C32 197.3 58.54 96 288 96s256 101.3 256 177.5C544 357.4 484.8 416 400 416zM160 192C124.7 192 96 220.7 96 256s28.65 64 64 64c35.35 0 64-28.65 64-64S195.3 192 160 192zM160 288C142.4 288 128 273.6 128 256s14.36-32 32-32s32 14.36 32 32S177.6 288 160 288zM416 192c-35.35 0-64 28.65-64 64s28.65 64 64 64c35.35 0 64-28.65 64-64S451.3 192 416 192zM416 288c-17.64 0-32-14.36-32-32s14.36-32 32-32s32 14.36 32 32S433.6 288 416 288z"/></svg>