<svg xmlns="http://www.w3.org/2000/svg" viewBox="0 0 576 512"><!--! Font Awesome Pro 6.0.0-beta3 by @fontawesome - https://fontawesome.com License - https://fontawesome.com/license (Commercial License) Copyright 2021 Fonticons, Inc. --><path d="M448 224V128c0-35.35-28.65-64-64-64H64C28.65 64 0 92.65 0 128v96c0 35.35 28.65 64 64 64h78.03c29.37 0 54.96-19.99 62.09-48.48l4.359-17.43C210.5 214 217.2 209.1 224 209.1s13.5 4.04 15.52 12.12l4.359 17.43C251 268 276.6 288 305.1 288H384C419.3 288 448 259.3 448 224zM274.9 231.8L270.6 214.3C265.1 192.6 246.4 177.1 224 177.1s-41.13 14.61-46.57 36.36L173.1 231.8C169.5 246 156.7 256 142 256H64C46.36 256 32 241.6 32 224V128c0-17.64 14.36-32 32-32h320c17.64 0 32 14.36 32 32v96c0 17.64-14.36 32-32 32h-78.03C291.3 256 278.5 246 274.9 231.8zM560 32C551.2 32 544 39.16 544 48V384c0 52.94-43.06 96-96 96s-96-43.06-96-96v-16c0-8.844-7.156-16-16-16S320 359.2 320 368V384c0 70.59 57.41 128 128 128s128-57.41 128-128V48C576 39.16 568.8 32 560 32z"/></svg>