<svg xmlns="http://www.w3.org/2000/svg" viewBox="0 0 640 512"><!--! Font Awesome Pro 6.1.1 by @fontawesome - https://fontawesome.com License - https://fontawesome.com/license (Commercial License) Copyright 2022 Fonticons, Inc. --><path d="M432 192C440.8 192 448 199.2 448 208C448 216.8 440.8 224 432 224H208C199.2 224 192 216.8 192 208C192 199.2 199.2 192 208 192H432zM192 272C192 263.2 199.2 256 208 256H432C440.8 256 448 263.2 448 272C448 280.8 440.8 288 432 288H208C199.2 288 192 280.8 192 272zM400 320C408.8 320 416 327.2 416 336C416 344.8 408.8 352 400 352H240C231.2 352 224 344.8 224 336C224 327.2 231.2 320 240 320H400zM206.5 111.9L243.6 87.12C266.2 72.05 292.8 64 320 64C347.2 64 373.8 72.05 396.4 87.12L433.5 111.9C449.3 122.4 467.8 128 486.8 128H592C618.5 128 640 149.5 640 176V261C640 312.4 605 357.2 555.2 369.7L469 391.2C429.4 426.5 377.2 448 320 448C262.8 448 210.6 426.5 170.1 391.2L84.84 369.7C34.98 357.2 0 312.4 0 261V176C0 149.5 21.49 128 48 128H153.2C172.2 128 190.7 122.4 206.5 111.9V111.9zM320 96C299.1 96 278.7 102.2 261.4 113.8L224.2 138.5C203.2 152.5 178.5 160 153.2 160H128V224C128 330 213.1 416 320 416C426 416 512 330 512 224V160H486.8C461.5 160 436.8 152.5 415.8 138.5L378.6 113.8C361.3 102.2 340.9 96 320 96zM32 176V261C32 297.8 56.98 329.8 92.6 338.7L134.1 349C110 313.3 96 270.3 96 224V160H48C39.16 160 32 167.2 32 176V176zM608 261V176C608 167.2 600.8 160 592 160H544V224C544 270.3 529.9 313.3 505.9 349L547.4 338.7C583 329.8 608 297.8 608 261V261z"/></svg>