<svg xmlns="http://www.w3.org/2000/svg" viewBox="0 0 448 512"><!--! Font Awesome Pro 6.1.1 by @fontawesome - https://fontawesome.com License - https://fontawesome.com/license (Commercial License) Copyright 2022 Fonticons, Inc. --><path d="M348.7 153.9l44.68 44.68c6.156 6.125 14.28 9.375 22.59 9.375c4.125 0 8.312-.8125 12.28-2.453C440.3 200.5 448 188.1 448 175.1V64c0-17.64-14.34-32-32-32h-111.1c-13 0-24.59 7.766-29.56 19.77s-2.25 25.69 6.938 34.86l44.67 44.67L224 233.4L121.9 131.3L166.6 86.63c6.125-6.156 9.375-14.28 9.375-22.59c0-4.125-.8125-8.312-2.453-12.28C168.5 39.75 156.1 32 143.1 32H32C14.36 32 0 46.34 0 64v111.1c0 13 7.766 24.59 19.77 29.56s25.69 2.25 34.86-6.938l44.67-44.67L201.4 256l-102.1 102.1L54.63 313.4C48.47 307.3 40.34 304 32.03 304c-4.125 0-8.312 .8125-12.28 2.453C7.75 311.5 0 323 0 336V448c0 17.64 14.34 32 32 32h111.1c13 0 24.59-7.766 29.56-19.77s2.25-25.69-6.938-34.86l-44.67-44.67L224 278.6l102.1 102.1l-44.68 44.68c-6.125 6.156-9.375 14.28-9.375 22.59c0 4.125 .8125 8.312 2.453 12.28C279.5 472.3 291 480 304 480H416c17.64 0 32-14.34 32-32v-111.1c0-13-7.766-24.59-19.77-29.56s-25.69-2.25-34.86 6.938l-44.67 44.67L246.6 256L348.7 153.9zM32.01 176C32.01 176 32.01 176.1 32.01 176L32 64h111.1L32.01 176zM144 447.1C144 447.1 144.1 447.1 144 447.1L32 448v-111.1L144 447.1zM415.1 335.1C415.1 335.1 415.1 335.9 415.1 335.1L416 448h-111.1L415.1 335.1zM303.1 64.01C303.1 64.01 303.9 64.01 303.1 64.01L416 64v111.1L303.1 64.01z"/></svg>