<svg xmlns="http://www.w3.org/2000/svg" viewBox="0 0 512 512"><!--! Font Awesome Pro 6.1.1 by @fontawesome - https://fontawesome.com License - https://fontawesome.com/license (Commercial License) Copyright 2022 Fonticons, Inc. --><path d="M425.1 4.688C422.1 1.688 418 0 413.8 0c-4.25 0-8.314 1.688-11.31 4.688l-86.13 86.13C318.7 102.9 320 115.3 320 128c0 106-85.96 192-192 192c-12.73 0-25.16-1.307-37.2-3.672l-86.11 86.11C1.688 405.4 0 409.5 0 413.8s1.688 8.314 4.689 11.32C62.64 483 138.8 512 214.9 512c76.15 0 152.3-28.98 210.2-86.93C540.1 309.2 540.1 120.6 425.1 4.688zM102 350.4C110.6 351.4 119.2 352 128 352c123.5 0 224-100.5 224-224c0-8.793-.6406-17.43-1.631-25.96l17.57-17.57c67.35 78.99 63.87 198.1-10.74 272.7c-38.01 38.01-88.56 58.94-142.3 58.94c-48.38 0-94.07-17.08-130.5-48.17L102 350.4zM402.5 402.4c-99.56 99.62-259.4 103.3-363.5 10.97l22.84-22.84c42.48 37.1 96.16 57.55 153.1 57.55c62.27 0 120.8-24.26 164.9-68.32c87.11-87.11 90.54-226.4 10.74-317.1l22.86-22.86C505.7 143 502.1 302.8 402.5 402.4z"/></svg>