<svg xmlns="http://www.w3.org/2000/svg" viewBox="0 0 576 512"><!--! Font Awesome Pro 6.1.1 by @fontawesome - https://fontawesome.com License - https://fontawesome.com/license (Commercial License) Copyright 2022 Fonticons, Inc. --><path d="M320 32H64C46.33 32 32 46.33 32 64V448C32 465.7 46.33 480 64 480H296.2C305.1 491.8 317.3 502.3 329.7 511.3C326.6 511.7 323.3 512 320 512H64C28.65 512 0 483.3 0 448V64C0 28.65 28.65 0 64 0H320C355.3 0 384 28.65 384 64V198.6C372.8 201.8 362.1 206 352 211.2V64C352 46.33 337.7 32 320 32V32zM64 144C64 135.2 71.16 128 80 128H304C312.8 128 320 135.2 320 144C320 152.8 312.8 160 304 160H80C71.16 160 64 152.8 64 144zM272 224C280.8 224 288 231.2 288 240C288 248.8 280.8 256 272 256H80C71.16 256 64 248.8 64 240C64 231.2 71.16 224 80 224H272zM208 320C216.8 320 224 327.2 224 336C224 344.8 216.8 352 208 352H80C71.16 352 64 344.8 64 336C64 327.2 71.16 320 80 320H208zM432 288C445.3 288 456 298.7 456 312C456 325.3 445.3 336 432 336C418.7 336 408 325.3 408 312C408 298.7 418.7 288 432 288zM415.1 416V384C407.2 383.1 400 376.8 400 368C400 359.2 407.2 352 416 352H431.1C440.8 352 447.1 359.2 447.1 368L448 416C456.8 416 464 423.2 464 432C464 440.8 456.8 448 448 448H416C407.2 448 400 440.8 400 432C400 423.2 407.2 416 415.1 416zM432 512C352.5 512 288 447.5 288 368C288 288.5 352.5 224 432 224C511.5 224 576 288.5 576 368C576 447.5 511.5 512 432 512zM544 368C544 306.1 493.9 256 432 256C370.1 256 320 306.1 320 368C320 429.9 370.1 480 432 480C493.9 480 544 429.9 544 368z"/></svg>