<svg xmlns="http://www.w3.org/2000/svg" viewBox="0 0 512 512"><!--! Font Awesome Pro 6.1.1 by @fontawesome - https://fontawesome.com License - https://fontawesome.com/license (Commercial License) Copyright 2022 Fonticons, Inc. --><path d="M448 0H64C28.75 0 0 28.75 0 63.1v287.1C0 387.2 28.75 415.1 64 415.1h96v83.1c0 9.838 11.03 15.5 19.12 9.649L304 415.1H448c35.25 0 64-28.75 64-63.1V63.1C512 28.75 483.3 0 448 0zM480 352c0 17.6-14.4 32-32 32h-144.1c-6.928 0-13.67 2.248-19.21 6.406L192 460v-60c0-8.838-7.164-16-16-16H64c-17.6 0-32-14.4-32-32V64c0-17.6 14.4-32 32-32h384c17.6 0 32 14.4 32 32V352zM260.2 192.5L252.9 190.5C218.8 180.1 214.3 174.4 216.5 162.2c3-16.64 28.03-20.52 51.47-17.05c6.562 .9687 14.53 3.047 25.06 6.516C301.4 154.5 310.5 149.9 313.2 141.5c2.781-8.391-1.781-17.44-10.19-20.2c-12.31-4.047-22.59-6.57-31-7.82V96c0-8.844-7.181-16-16.02-16S240 87.16 240 96v16.8C210.3 116.3 189.4 132.1 185 156.5C176.7 202.4 222.3 215.2 244.3 221.3L251.8 223.4c38.22 10.41 46.41 16.08 43.81 30.38c-3 16.64-27.97 20.61-51.53 17.03C236.2 269.7 230.6 268.1 205.1 259.5C196.8 256.6 187.7 261.2 184.9 269.6C182.1 277.9 186.6 287 194.9 289.8c29.34 9.969 36.57 11.45 45.09 12.67V320c0 8.844 7.131 16 15.98 16s16.02-7.156 16.02-16V303.2c29.72-3.51 50.59-19.29 55.03-43.72C335.5 213 290.2 200.7 260.2 192.5z"/></svg>