<svg xmlns="http://www.w3.org/2000/svg" viewBox="0 0 512 512"><!--! Font Awesome Pro 6.0.0-beta3 by @fontawesome - https://fontawesome.com License - https://fontawesome.com/license (Commercial License) Copyright 2021 Fonticons, Inc. --><path d="M127.1 151.1c13.25 0 24-10.74 24-23.1c0-13.26-10.75-23.1-24-23.1s-24 10.74-24 23.1C103.1 141.3 114.7 151.1 127.1 151.1zM314.6 140.6c-11.28-15.75-38.5-15.88-50-.0313L220.6 201.8L213.6 192.9c-11.44-14.41-36.97-14.5-48.41 .0313L102.2 272.9C95.06 282 94.03 294.4 99.56 304.4C104.8 314 115.1 320 126.4 320h259.2c11 0 21.17-5.781 26.55-15.03c0-.0313-.0313 .0313 0 0c5.656-9.844 5.078-21.75-1.578-31.03L314.6 140.6zM130.2 288l58.25-75.31l20.09 25.56c4.348 5.521 17.6 10.61 25.59-.5313l54.44-78.44L381.3 288H130.2zM447.1 .0041h-384c-35.25 0-64 28.75-64 63.1v287.1c0 35.25 28.75 63.1 64 63.1h96v83.98c0 9.838 11.03 15.55 19.12 9.7l124.9-93.68h144c35.25 0 64-28.75 64-63.1V63.1C511.1 28.75 483.2 .0041 447.1 .0041zM480 352c0 17.6-14.4 32-32 32h-144.1c-6.928 0-13.67 2.248-19.21 6.406L192 460v-60c0-8.838-7.164-16-16-16H64c-17.6 0-32-14.4-32-32V64c0-17.6 14.4-32 32-32h384c17.6 0 32 14.4 32 32V352z"/></svg>