<svg xmlns="http://www.w3.org/2000/svg" viewBox="0 0 512 512"><!--! Font Awesome Pro 6.1.1 by @fontawesome - https://fontawesome.com License - https://fontawesome.com/license (Commercial License) Copyright 2022 Fonticons, Inc. --><path d="M447.1 .0041h-384c-35.25 0-64 28.75-64 63.1v287.1c0 35.25 28.75 63.1 64 63.1h96v83.98c0 9.838 11.03 15.55 19.12 9.7l124.9-93.68h144c35.25 0 64-28.75 64-63.1V63.1C511.1 28.75 483.2 .0041 447.1 .0041zM480 352c0 17.6-14.4 32-32 32h-144.1c-6.928 0-13.67 2.248-19.21 6.406L192 460v-60c0-8.838-7.164-16-16-16H64c-17.6 0-32-14.4-32-32V64c0-17.6 14.4-32 32-32h384c17.6 0 32 14.4 32 32V352zM327.1 112c-30.93 0-56 25.07-56 55.1s25.07 55.1 56 55.1c8.627 0 16.65-2.112 23.95-5.596V224c0 26.47-21.53 48-48 48c-8.844 0-16 7.156-16 16s7.184 15.1 16.03 15.1C348.1 303.1 383.9 268.1 383.9 224l.0471-55.1C383.1 137.1 358.9 112 327.1 112zM327.9 192c-13.23 0-24-10.77-24-24c0-13.23 10.77-24 24-24c13.23 0 24 10.77 24 24C351.9 181.2 341.2 192 327.9 192zM183.1 112c-30.93 0-56 25.07-56 55.1s25.07 55.1 56 55.1c8.627 0 16.65-2.112 23.95-5.596V224c0 26.47-21.53 48-48 48c-8.844 0-16 7.156-16 16s7.184 15.1 16.03 15.1C204.1 303.1 239.9 268.1 239.9 224l.0471-55.1C239.1 137.1 214.9 112 183.1 112zM183.9 192c-13.23 0-24-10.77-24-24c0-13.23 10.77-24 24-24c13.23 0 24 10.77 24 24C207.9 181.2 197.2 192 183.9 192z"/></svg>