<svg xmlns="http://www.w3.org/2000/svg" viewBox="0 0 640 512"><!--! Font Awesome Pro 6.1.1 by @fontawesome - https://fontawesome.com License - https://fontawesome.com/license (Commercial License) Copyright 2022 Fonticons, Inc. --><path d="M608 159.1c-18.85 0-25.44 13.31-27.03 16H544V63.99C544 28.75 515.3 0 480 0H160C124.8 0 96 28.75 96 63.99v112H59.03C57.44 173.3 50.85 159.1 32 159.1c-18.3 0-32 14.97-32 32c0 17.06 13.72 31.1 32 31.1c18.85 0 25.43-13.3 27.03-15.1H96v143.1c0 35.25 28.75 63.1 64 63.1l64 .0098v83.99C224 507.1 229.8 512 236 512c2.402 0 4.846-.7012 7.096-2.328L368 415.1l112-.0098c35.25 0 64-28.75 64-63.1V207.1h36.98C582.6 210.7 589.2 223.1 608 223.1c18.3 0 32-14.96 32-31.1C640 174.9 626.3 159.1 608 159.1zM512 351.1c0 17.6-14.4 31.1-32 31.1h-112.1c-6.928 0-13.67 2.246-19.21 6.404L256 459.1v-59.1c0-8.838-7.164-15.1-16-15.1H160c-17.6 0-32-14.4-32-31.1V288h384V351.1zM512 256H128V128h384V256zM512 96H128V63.99c0-17.6 14.4-31.1 32-31.1h320c17.6 0 32 14.4 32 31.1V96zM224 223.1c17.67 0 32-14.33 32-32c0-17.67-14.33-32-32-32s-32 14.33-32 32C192 209.7 206.3 223.1 224 223.1zM416 223.1c17.67 0 32-14.33 32-32c0-17.67-14.33-32-32-32s-32 14.33-32 32C384 209.7 398.3 223.1 416 223.1z"/></svg>