<svg xmlns="http://www.w3.org/2000/svg" viewBox="0 0 512 512"><!--! Font Awesome Pro 6.0.0-beta3 by @fontawesome - https://fontawesome.com License - https://fontawesome.com/license (Commercial License) Copyright 2021 Fonticons, Inc. --><path d="M448 0H64C28.75 0 0 28.75 0 63.1v287.1c0 35.25 28.75 63.1 64 63.1h96v83.1c0 9.838 11.02 15.55 19.12 9.7L304 415.1H448c35.25 0 64-28.75 64-63.1V63.1C512 28.75 483.3 0 448 0zM480 352c0 17.6-14.4 32-32 32h-144.1c-6.926 0-13.67 2.248-19.21 6.406L192 460v-60c0-8.838-7.164-16-16-16H64c-17.6 0-32-14.4-32-32V64c0-17.6 14.4-32 32-32h384c17.6 0 32 14.4 32 32V352zM336 192h-64V127.1C272 119.2 264.8 112 256 112S240 119.2 240 127.1V192h-64C167.2 192 160 199.2 160 208c0 8.834 7.156 15.1 16 15.1h64V288C240 296.8 247.2 304 256 304c8.836 0 16-7.16 16-15.1V223.1h64c8.84 0 16-7.16 16-15.1S344.8 192 336 192z"/></svg>