<svg xmlns="http://www.w3.org/2000/svg" viewBox="0 0 512 512"><!--! Font Awesome Pro 6.0.0-beta3 by @fontawesome - https://fontawesome.com License - https://fontawesome.com/license (Commercial License) Copyright 2021 Fonticons, Inc. --><path d="M510.1 31.85c-9.873 32.38-33.87 109.1-58.87 167.3c2.1 1 5.499 1.75 7.999 2.5c8.749 2.625 15.1 9.125 19.5 17.63c3.499 8.625 3.125 18.25-1.125 26.38c-22.62 43.25-81.24 150-139.5 208.3c-77.61 77.5-203.3 77.5-280.1 0c-77.36-77.38-77.36-203.4 0-280.8c58.37-58.38 165.1-117 208.3-139.5c8.124-4.375 17.87-4.875 26.37-1.25c8.499 3.625 14.1 10.75 17.75 19.63c.6249 2.375 1.5 5 2.375 7.875c58.49-25.25 135.1-49 167.3-58.88c8.749-2.5 18.12-.125 24.5 6.25C511.2 13.73 513.6 23.1 510.1 31.85zM476.1 35.85c-40.49 12.5-115.4 36.63-166.7 60.75L292.5 104.5c0 0-10.62-36.38-12.62-43c-40.62 22.25-144.1 79.13-199.2 134.1c-64.86 64.88-64.86 170.6 0 235.6s170.7 64.88 235.6 0c55.12-55.13 111.9-158.6 133.7-200.5c-5.999-.7501-14.75-3.375-24.37-6.125L407.6 219.4l7.874-16.88C439.3 151.5 463.7 76.23 476.1 35.85zM327.9 311.1c0 70.5-57.37 127.9-127.1 127.9s-127.1-57.25-127.1-127.9c0-70.75 57.37-128 127.1-128S327.1 241.5 327.9 311.1zM295.9 311.1c0-53-42.99-96-95.98-96s-95.98 43-95.98 96s42.99 96 95.98 96S295.1 364.1 295.9 311.1zM207.9 279.1c0 13.25-10.75 24-23.1 24c-13.25 0-23.1-10.75-23.1-24s10.75-24 23.1-24c6.374 0 12.5 2.5 16.1 7C205.4 267.5 207.9 273.6 207.9 279.1zM239.9 351.1c0 8.875-7.045 16.01-15.92 16.01c-8.874 0-15.1-7.125-15.1-16c0-8.75 7.047-16.01 15.92-16.01C232.7 336.1 239.9 343.2 239.9 351.1z"/></svg>