<svg xmlns="http://www.w3.org/2000/svg" viewBox="0 0 384 512"><!--! Font Awesome Pro 6.1.1 by @fontawesome - https://fontawesome.com License - https://fontawesome.com/license (Commercial License) Copyright 2022 Fonticons, Inc. --><path d="M192 352c53 0 96-43 96-96V96c0-53-43-96-96-96s-96 43-96 96v160C96 309 139 352 192 352zM128 98.92C128 65.53 152.3 35.61 185.5 32.32C223.7 28.54 256 58.62 256 96l-48 0c-8.799 0-16 7.199-16 16c0 8.799 7.201 16 16 16L256 128v32h-48C199.2 160 192 167.2 192 176C192 184.8 199.2 192 208 192H256v32h-48C199.2 224 192 231.2 192 240C192 248.8 199.2 256 208 256H256c0 37.38-32.34 67.46-70.47 63.68C152.3 316.4 128 286.5 128 253.1V98.92zM336 192C327.2 192 320 199.2 320 208V256c0 73.5-62.25 132.6-136.8 127.8C115.3 379.1 64 319.6 64 251.5V208C64 199.2 56.8 192 48 192C39.2 192 32 199.2 32 208v42.38c0 83.38 61.63 156.1 144 164.4V480h-64C103.2 480 96 487.2 96 496C96 504.8 103.2 512 112 512h160c8.801 0 16-7.201 16-16c0-8.801-7.199-16-16-16h-64v-65C288.8 406.9 352 338.8 352 256V208C352 199.2 344.8 192 336 192z"/></svg>