<svg xmlns="http://www.w3.org/2000/svg" viewBox="0 0 384 512"><!--! Font Awesome Pro 6.0.0-beta3 by @fontawesome - https://fontawesome.com License - https://fontawesome.com/license (Commercial License) Copyright 2021 Fonticons, Inc. --><path d="M192 392c-13.31 0-24 10.69-24 24s10.69 24 24 24s24-10.69 24-24S205.3 392 192 392zM288 0H96C60.65 0 32 28.65 32 64v384c0 35.35 28.65 64 64 64h192c35.35 0 64-28.65 64-64V64C352 28.65 323.3 0 288 0zM320 448c0 17.64-14.36 32-32 32H96c-17.64 0-32-14.36-32-32V64c0-17.64 14.36-32 32-32h192c17.64 0 32 14.36 32 32V448z"/></svg>