<svg xmlns="http://www.w3.org/2000/svg" viewBox="0 0 384 512"><!--! Font Awesome Pro 6.0.0-beta3 by @fontawesome - https://fontawesome.com License - https://fontawesome.com/license (Commercial License) Copyright 2021 Fonticons, Inc. --><path d="M288 0H96C60.65 0 32 28.65 32 64v384c0 35.35 28.65 64 64 64h192c35.35 0 64-28.65 64-64V64C352 28.65 323.3 0 288 0zM320 448c0 17.64-14.36 32-32 32H96c-17.64 0-32-14.36-32-32v-96h256V448zM320 320H64V64c0-17.64 14.36-32 32-32h192c17.64 0 32 14.36 32 32V320zM160 432h64c8.836 0 16-7.164 16-16c0-8.838-7.164-16-16-16H160c-8.836 0-16 7.162-16 16C144 424.8 151.2 432 160 432z"/></svg>