<svg xmlns="http://www.w3.org/2000/svg" viewBox="0 0 576 512"><!--! Font Awesome Pro 6.0.0-beta3 by @fontawesome - https://fontawesome.com License - https://fontawesome.com/license (Commercial License) Copyright 2021 Fonticons, Inc. --><path d="M512 32H64C28.65 32 0 60.65 0 96v320c0 35.35 28.65 64 64 64h448c35.35 0 64-28.65 64-64V96C576 60.65 547.3 32 512 32zM544 416c0 17.64-14.36 32-32 32H64c-17.64 0-32-14.36-32-32V288l150.1-.0313l27.62 55.17C212.4 348.6 217.1 352 224 352h.6562c6.312-.2813 11.84-4.219 14.19-10.06L286.6 222.5l18.19 54.56C307 283.6 313.1 288 320 288h96c8.844 0 16-7.156 16-16S424.8 256 416 256h-84.47l-28.34-85.06C301.1 164.6 295.2 160.2 288.5 160C281.8 160.3 275.7 163.8 273.2 170.1L222.4 296.1L206.3 264.8C203.6 259.5 198.2 256.1 192.2 256h-160L32 96c0-17.64 14.36-32 32-32h448c17.64 0 32 14.36 32 32V416z"/></svg>