<svg xmlns="http://www.w3.org/2000/svg" viewBox="0 0 576 512"><!--! Font Awesome Pro 6.1.1 by @fontawesome - https://fontawesome.com License - https://fontawesome.com/license (Commercial License) Copyright 2022 Fonticons, Inc. --><path d="M96 32C60.65 32 32 60.65 32 96V368C32 429.9 82.14 480 144 480H160V416C160 322.8 216.9 242.1 297.8 209.2C301.1 219.2 307.4 228.6 313.9 237.2C242.5 265.2 192 334.7 192 416V480H416V432C416 387.8 380.2 352 336 352H304C295.2 352 288 344.8 288 336C288 327.2 295.2 320 304 320H336C367.3 320 395.7 332.9 416 353.6V288C427.7 288 438.1 286.4 449.7 283.5L536.9 376.1C562 402.8 576 438.1 576 474.8V496C576 504.8 568.8 512 560 512C551.2 512 544 504.8 544 496V474.8C544 446.2 533.1 418.8 513.6 398L448 328.3V480H480C488.8 480 496 487.2 496 496C496 504.8 488.8 512 480 512H144C64.47 512 0 447.5 0 368V96C0 42.98 42.98 0 96 0H128C181 0 224 42.98 224 96C224 149 181 192 128 192H112C103.2 192 96 184.8 96 176C96 167.2 103.2 160 112 160H128C163.3 160 192 131.3 192 96C192 60.65 163.3 32 128 32H96zM400 112C400 120.8 392.8 128 384 128C375.2 128 368 120.8 368 112C368 103.2 375.2 96 384 96C392.8 96 400 103.2 400 112zM432 112C432 103.2 439.2 96 448 96C456.8 96 464 103.2 464 112C464 120.8 456.8 128 448 128C439.2 128 432 120.8 432 112zM321.3 176H320C284.7 176 256 147.3 256 112C256 76.65 284.7 48 320 48H332.8C349.4 19.31 380.5 0 416 0C451.5 0 482.6 19.31 499.2 48H512C547.3 48 576 76.65 576 112C576 147.3 547.3 176 512 176H510.7C503.1 221.4 463.6 256 416 256C368.4 256 328.9 221.4 321.3 176zM416 32C380.7 32 352 60.65 352 96V160C352 195.3 380.7 224 416 224C451.3 224 480 195.3 480 160V96C480 60.65 451.3 32 416 32zM320 96C320 90.55 320.5 85.2 321.3 80H320C302.3 80 288 94.33 288 112C288 129.7 302.3 144 320 144V96zM512 80H510.7C511.5 85.2 512 90.55 512 96V144C529.7 144 544 129.7 544 112C544 94.33 529.7 80 512 80z"/></svg>