<svg xmlns="http://www.w3.org/2000/svg" viewBox="0 0 512 512"><!--! Font Awesome Pro 6.0.0-beta3 by @fontawesome - https://fontawesome.com License - https://fontawesome.com/license (Commercial License) Copyright 2021 Fonticons, Inc. --><path d="M496.4 192.8H15.61C6.99 192.8 0 199.8 0 208.4C0 217 6.99 224 15.61 224h16.38l.0065 32c0 81.38 50.74 150.9 122.2 178.8c-12.75 16.75-21.62 36.63-24.88 58.5C127.9 503 135.4 512 145.2 512h221.5c9.875 0 17.38-9 15.88-18.75c-3.25-21.88-12.12-41.75-24.88-58.5C429.2 406.9 479.1 337.4 479.1 256l-.0104-32h16.4c8.621 0 15.61-6.99 15.61-15.61C511.1 199.8 505 192.8 496.4 192.8zM447.1 256c0 66.25-39.1 124.8-101.9 149l-39.5 15.38l25.62 33.75c6.125 8 10.88 16.75 14.25 25.88H165.6c3.25-9.125 8-17.88 14.12-25.88l25.75-33.75L165.9 405C103.1 380.8 63.99 322.3 63.99 256V224h383.1V256zM278.9 160.9c3.461 0 6.85-1.123 9.619-3.199l162.7-122c17.62-13.25 39.25 11.25 23.5 27l-70.91 70.92c-10.08 10.08-2.941 27.31 11.31 27.31c4.242 0 8.312-1.686 11.31-4.686l70.91-70.92c24.12-24.12 17.5-64.75-13-80C477.5 1.75 469.7 0 461.1 0c-10.62 0-21.12 3.375-29.87 10l-162.8 122.1C257 141.3 263.5 160.9 278.9 160.9z"/></svg>