<svg xmlns="http://www.w3.org/2000/svg" viewBox="0 0 640 512"><!--! Font Awesome Pro 6.1.1 by @fontawesome - https://fontawesome.com License - https://fontawesome.com/license (Commercial License) Copyright 2022 Fonticons, Inc. --><path d="M204.5 6.305L252.5 70.18C256.2 75.16 256.8 81.92 254 87.52L227.4 140.7L271.1 185.4V175.9C271.1 152.1 289.3 132.4 311.1 128.6V63.81C311.1 59.39 315.6 55.81 319.1 55.81C324.4 55.81 327.1 59.39 327.1 63.81V128.6C350.7 132.4 367.1 152.1 367.1 175.9V185.4L412.6 140.7L385.1 87.52C383.2 81.92 383.8 75.16 387.5 70.18L435.5 6.305C440.8-.784 450.7-2.091 457.6 3.384C464.5 8.86 465.8 19.05 460.5 26.13L418.6 81.84L446 136.5C449.2 142.9 447.1 150.6 443 155.6L397.9 200.7L560.6 226.2C605.1 232.1 640 272.5 640 320.3C640 404.9 542.4 447.2 485.4 387.4L367.1 280.4V304.3L411.1 356.1C414.4 359.9 415.8 363.7 415.8 367.5V425.9L460.5 485.4C465.8 492.4 464.5 502.6 457.6 508.1C450.7 513.6 440.8 512.3 435.5 505.2L387.5 441.3C385.4 438.5 384.2 434.1 384.2 431.4V373.5L367.1 354.1V399.5C367.1 425.1 346.5 447.5 319.1 447.5C293.5 447.5 271.1 425.1 271.1 399.5V354.1L255.8 373.5V431.4C255.8 434.1 254.6 438.5 252.5 441.3L204.5 505.2C199.2 512.3 189.3 513.6 182.4 508.1C175.5 502.6 174.2 492.4 179.5 485.4L224.2 425.9V367.5C224.2 363.7 225.6 359.9 228 356.1L271.1 304.3V280.4L154.6 387.4C97.58 447.2 .0003 404.9 0 320.3C0 272.5 34.02 232.1 79.35 226.2L242.1 200.7L196.1 155.6C192 150.6 190.8 142.9 193.1 136.5L221.4 81.84L179.5 26.13C174.2 19.05 175.5 8.86 182.4 3.384C189.3-2.091 199.2-.7836 204.5 6.305V6.305zM271.1 237.1V230.6L270.1 228.7L84.29 257.8C84.03 257.8 83.77 257.9 83.5 257.9C55.22 261.6 31.1 287.4 31.1 320.3C31.1 379.3 96.59 401.9 131.5 365.4C132 364.8 132.5 364.3 133.1 363.8L271.1 237.1zM508.5 365.4C543.4 401.9 608 379.3 608 320.3C608 287.4 584.8 261.6 556.5 257.9C556.2 257.9 555.1 257.8 555.7 257.8L369.9 228.7L367.1 230.6V237L506.9 363.8C507.5 364.3 507.1 364.8 508.5 365.4V365.4zM303.1 399.5C303.1 408.3 311.2 415.5 319.1 415.5C328.8 415.5 335.1 408.3 335.1 399.5V175.9C335.1 167.1 328.8 159.9 319.1 159.9C311.2 159.9 303.1 167.1 303.1 175.9V399.5z"/></svg>