<svg xmlns="http://www.w3.org/2000/svg" viewBox="0 0 640 512"><!--! Font Awesome Pro 6.1.1 by @fontawesome - https://fontawesome.com License - https://fontawesome.com/license (Commercial License) Copyright 2022 Fonticons, Inc. --><path d="M8.55 394.4L225.2 49.01C231.9 38.42 243.5 32 255.1 32C268.5 32 280.1 38.42 286.7 49.01L412.7 249.7L460.9 170.7C464.1 164.1 472.2 160 480 160C487.8 160 495 164.1 499.1 170.7L631.1 387.1C636.9 396.6 640 407.7 640 418.9C640 452.6 612.6 480 578.9 480H55.91C25.03 480 0 454.1 0 424.1C0 413.6 2.964 403.3 8.551 394.4L8.55 394.4zM476.3 411.4L259.6 66.02C258.9 64.76 257.5 64 255.1 64C254.5 64 253.1 64.76 252.4 66.02L35.66 411.4C33.27 415.2 31.1 419.6 31.1 424.1C31.1 437.3 42.7 448 55.91 448H456.1C469.3 448 480 437.3 480 424.1C480 419.6 478.7 415.2 476.3 411.4H476.3zM431.7 280L503.4 394.4C509 403.3 512 413.6 512 424.1C512 432.6 510.1 440.7 506.6 448H578.9C594.1 448 608 434.1 608 418.9C608 413.5 606.5 408.3 603.7 403.7L480 200.9L431.7 280z"/></svg>