<svg xmlns="http://www.w3.org/2000/svg" viewBox="0 0 512 512"><!--! Font Awesome Pro 6.0.0-beta3 by @fontawesome - https://fontawesome.com License - https://fontawesome.com/license (Commercial License) Copyright 2021 Fonticons, Inc. --><path d="M144.4 160C117.1 160 96.53 181.5 96.53 208S117.1 256 144.4 256s47.84-21.53 47.84-48S170.8 160 144.4 160zM144.4 224C135.6 224 128.4 216.8 128.4 208S135.6 192 144.4 192s15.95 7.172 15.95 16S153.2 224 144.4 224zM488.5 242.1l-6.206-28.02C458.7 107.7 364.6 32 256 32S53.32 107.7 29.75 214.1L23.55 242.1C14.69 282.1 45.01 320 85.81 320h90.28l-15.4 105c-2.025 13.81 2.056 27.78 11.15 38.36C180.9 473.9 194.1 480 208 480h95.93c13.92 0 27.1-6.062 36.19-16.62c9.095-10.58 13.18-24.55 11.15-38.36L335.9 320h90.28C466.1 320 497.3 282.1 488.5 242.1zM431.4 192c0 17.64-14.3 32-31.89 32s-31.89-14.36-31.89-32s14.3-32 31.89-32S431.4 174.4 431.4 192zM256 64c4.561 0 8.902 .8457 13.39 1.143C261.8 92.49 236.9 112 208.2 112c-19.14 0-36.63-8.566-48.8-23.23C188.1 72.94 221.1 64 256 64zM316 442.5C312.1 446 308.7 448 303.1 448H208c-4.703 0-9.001-1.969-12.05-5.547c-3.083-3.578-4.392-8.109-3.706-12.78L208.3 320h95.34l16.06 109.7C320.4 434.3 319.1 438.9 316 442.5zM451.1 276C444.1 283.6 435.9 288 426.2 288H85.81C76.09 288 67.02 283.6 60.93 276C54.85 268.4 52.57 258.6 54.68 249.1l6.206-28.02c10.41-47.01 36.37-86.66 71.68-114.4C150.8 130.3 178.2 144 208.2 144c44.46 0 83.05-31.14 93.03-74.29c39.53 9.086 74.77 29.45 101.6 58.62C401.7 128.3 400.6 128 399.5 128c-35.16 0-63.79 28.7-63.79 64s28.62 64 63.79 64c22.08 0 41.57-11.34 53.02-28.5l4.775 21.56C459.4 258.6 457.2 268.4 451.1 276z"/></svg>