<svg xmlns="http://www.w3.org/2000/svg" viewBox="0 0 640 512"><!--! Font Awesome Pro 6.0.0-beta3 by @fontawesome - https://fontawesome.com License - https://fontawesome.com/license (Commercial License) Copyright 2021 Fonticons, Inc. --><path d="M633.9 483.4L25.92 3.42c-6.938-5.453-17-4.25-22.48 2.641c-5.469 6.938-4.281 17 2.641 22.48l608 480C617 510.9 620.5 512 623.1 512c4.734 0 9.422-2.094 12.58-6.078C642 498.1 640.8 488.9 633.9 483.4zM320 376.1c-20.38-14.88-48.63-24.13-80-24.13c-61.88 0-112 35.88-112 80C128 476.1 178.1 512 240 512s111.1-35.88 111.1-80L352 362.8l-32-25.26V376.1zM240 479.1c-47.13 0-79.1-25.25-79.1-48c0-22.75 32.87-48 79.1-48s80 25.25 80 48C320 454.7 287.1 479.1 240 479.1zM352 191.1l138.1-35.38C503.1 152.2 512 139.1 512 126.2V31.98c0-10.25-4.938-19.81-13.19-25.81c-8.375-6-19.06-7.801-28.81-4.551l-128.6 31.88C328.8 37.74 320 49.99 320 63.99v110.4l32 25.26V191.1zM351.5 63.99l128.5-32.03L480 126.2l-128 32l.0467-94.17L351.5 63.99z"/></svg>