<svg xmlns="http://www.w3.org/2000/svg" viewBox="0 0 448 512"><!--! Font Awesome Pro 6.1.1 by @fontawesome - https://fontawesome.com License - https://fontawesome.com/license (Commercial License) Copyright 2022 Fonticons, Inc. --><path d="M243.5 255.1H352V47.1C352 39.16 359.2 31.1 368 31.1C376.8 31.1 384 39.16 384 47.1V255.1H432C440.8 255.1 448 263.2 448 271.1C448 280.8 440.8 287.1 432 287.1H384V464C384 470.1 379.5 477.2 372.8 479.3C366.1 481.4 358.8 478.9 354.8 473.1L226.7 288H96V464C96 472.8 88.84 480 80 480C71.16 480 64 472.8 64 464V288H16C7.164 288 0 280.8 0 272C0 263.2 7.164 256 16 256H64V47.1C64 41 68.55 34.81 75.23 32.73C81.91 30.64 89.17 33.14 93.16 38.89L243.5 255.1zM265.6 287.1L352 412.8V287.1H265.6zM204.5 255.1L96 99.22V255.1H204.5z"/></svg>