<svg xmlns="http://www.w3.org/2000/svg" viewBox="0 0 640 512"><!--! Font Awesome Pro 6.0.0-beta3 by @fontawesome - https://fontawesome.com License - https://fontawesome.com/license (Commercial License) Copyright 2021 Fonticons, Inc. --><path d="M237.8 480H68.98c-72.05-91.91-16.78-198.7-16.19-199.8C56.82 272.5 60.51 264.6 63.98 256h259.1c8.846 0 16-7.156 16-16S331.1 224 323.1 224H319.9V128c0-70.59-57.42-128-128-128S63.88 57.41 63.88 128v96H52.97C46.25 224 40.25 228.2 37.94 234.5C33.81 245.8 29.41 255.9 24.5 265.3c-23.94 45.09-49.6 153.5 24.66 241.1C52.22 509.9 56.69 512 61.38 512h176.4c8.846 0 16-7.156 16-16S246.6 480 237.8 480zM95.89 128c0-52.94 43.07-96 96.02-96S287.9 75.06 287.9 128v96H95.89V128zM636.7 486.3C610.7 452.3 596.4 410.3 596.4 368v-14.22C596.4 282.2 536.1 224 463.1 224s-132.4 58.22-132.4 129.8V368c0 42.34-14.32 84.34-40.32 118.3c-3.72 4.812-4.345 11.34-1.657 16.81C292.3 508.5 297.8 512 303.9 512h320.1c6.095 0 11.66-3.469 14.35-8.906C641 497.6 640.4 491.1 636.7 486.3zM333.7 480c19.41-34.09 29.88-72.91 29.88-112v-14.22C363.6 299.9 408.6 256 463.1 256s100.4 43.88 100.4 97.78V368c0 39.09 10.47 77.91 29.88 112H333.7zM527.1 337.6c-20.47 0-39.45-9.938-50.79-26.59c-5.939-8.75-20.5-8.75-26.44 0c-11.35 16.66-30.32 26.59-50.79 26.59c-8.846 0-16 7.156-16 16c0 43.22 35.88 78.41 80.02 78.41s80.02-35.19 80.02-78.41C543.1 344.8 536.8 337.6 527.1 337.6zM463.1 400c-21.35 0-39.48-13.53-45.7-32.19c17.19-3.375 33.01-11.5 45.7-23.34c12.69 11.84 28.51 19.97 45.7 23.34C503.4 386.5 485.3 400 463.1 400zM255.9 100.6c-20.63 0-39.7-9.469-50.98-25.28c-6.001-8.438-20.07-8.438-26.07 0C167.6 91.09 148.5 100.6 127.9 100.6c-8.846 0-16 7.156-16 16C111.9 158.2 147.8 192 191.9 192s80.02-33.84 80.02-75.44C271.9 107.7 264.8 100.6 255.9 100.6zM191.9 160C170.9 160 153.1 147.8 146.6 130.8C163.6 127.5 179.3 119.8 191.9 108.4C204.5 119.8 220.2 127.5 237.3 130.8C230.8 147.8 212.9 160 191.9 160z"/></svg>