<svg xmlns="http://www.w3.org/2000/svg" viewBox="0 0 512 512"><!--! Font Awesome Pro 6.1.1 by @fontawesome - https://fontawesome.com License - https://fontawesome.com/license (Commercial License) Copyright 2022 Fonticons, Inc. --><path d="M208 448H64c-17.67 0-32-14.33-32-32V96c0-17.67 14.33-32 32-32h320c17.67 0 32 14.33 32 32v112C416 216.8 423.2 224 432 224S448 216.8 448 208V96c0-35.35-28.65-64-64-64H64C28.65 32 0 60.65 0 96v320c0 35.35 28.65 64 64 64h144C216.8 480 224 472.8 224 464C224 455.2 216.8 448 208 448zM368 256C376.8 256 384 248.8 384 240V128c0-17.67-14.33-32-32-32H224C215.2 96 208 103.2 208 112v98.94C186.6 218.6 172 240.8 176.1 265.8C180.6 284.1 195.3 299 213.5 302.9C244.5 309.5 272 285.9 272 256c0-20.83-13.42-38.43-32-45.06V128H352v112C352 248.8 359.2 256 368 256zM224 272C215.2 272 208 264.8 208 256S215.2 240 224 240S240 247.2 240 256S232.8 272 224 272zM480 448c-17.67 0-32 14.33-32 32s14.33 32 32 32c17.67 0 32-14.33 32-32S497.7 448 480 448zM496 352c-79.41 0-144 64.59-144 144c0 8.844 7.156 16 16 16s16-7.156 16-16c0-61.75 50.25-112 112-112c8.844 0 16-7.156 16-16S504.8 352 496 352zM496 304C504.8 304 512 296.8 512 288s-7.156-16-16-16c-123.5 0-224 100.5-224 224c0 8.844 7.156 16 16 16s16-7.156 16-16C304 390.1 390.1 304 496 304zM240 384H96V128h47.17c7.969 0 15.35-5.455 16.62-13.32C161.4 104.6 153.7 96 144 96H96C78.33 96 64 110.3 64 128v256c0 17.67 14.33 32 32 32h144c8.836 0 16-7.164 16-16C256 391.2 248.8 384 240 384z"/></svg>