<svg xmlns="http://www.w3.org/2000/svg" viewBox="0 0 640 512"><!--! Font Awesome Pro 6.0.0-beta3 by @fontawesome - https://fontawesome.com License - https://fontawesome.com/license (Commercial License) Copyright 2021 Fonticons, Inc. --><path d="M368 448H64c-17.67 0-32-14.33-32-32V96c0-17.67 14.33-32 32-32h320c17.67 0 32 14.33 32 32v64c0 8.836 7.164 16 16 16S448 168.8 448 160V96c0-35.35-28.65-64-64-64H64C28.65 32 0 60.65 0 96v320c0 35.35 28.65 64 64 64h304c8.836 0 16-7.164 16-16C384 455.2 376.8 448 368 448zM368 320c-8.836 0-16 7.162-16 16V384H96V128h47.17c7.969 0 15.35-5.455 16.62-13.32C161.4 104.6 153.7 96 144 96H96C78.33 96 64 110.3 64 128v256c0 17.67 14.33 32 32 32h256c17.67 0 32-14.33 32-32v-48C384 327.2 376.8 320 368 320zM368 224C376.8 224 384 216.8 384 208V128c0-17.67-14.33-32-32-32H224C215.2 96 208 103.2 208 112v98.94C186.6 218.6 172 240.8 176.1 265.8C180.6 284.1 195.3 299 213.5 302.9C244.5 309.5 272 285.9 272 256c0-20.83-13.42-38.43-32-45.06V128H352v80C352 216.8 359.2 224 368 224zM224 272C215.2 272 208 264.8 208 256S215.2 240 224 240S240 247.2 240 256S232.8 272 224 272zM624 256h-33.96l-15.18-37.94C572.4 211.1 566.5 208 560 208h-96c-6.547 0-12.42 3.984-14.86 10.06L433.1 256H400C391.2 256 384 263.2 384 272C384 280.8 391.2 288 400 288h7.061c-.002 .4512-.1914 .8555-.1543 1.312l15.94 193.3C424.2 499.1 438.2 512 454.7 512h114.5c16.55 0 30.55-12.91 31.89-29.38l15.94-193.3C617.1 288.9 616.9 288.5 616.9 288H624C632.8 288 640 280.8 640 272C640 263.2 632.8 256 624 256zM474.8 240h74.34L555.6 256h-87.14L474.8 240zM569.3 480h-114.5l-15.83-192h146.2L569.3 480z"/></svg>