<svg xmlns="http://www.w3.org/2000/svg" viewBox="0 0 448 512"><!--! Font Awesome Pro 6.1.1 by @fontawesome - https://fontawesome.com License - https://fontawesome.com/license (Commercial License) Copyright 2022 Fonticons, Inc. --><path d="M448 352c0 8.844-7.156 15.1-16 15.1H165.9l-72.76 105.1C90.06 477.6 85.06 480 80 480c-3.156 0-6.344-.9062-9.094-2.844c-7.281-5.031-9.094-14.1-4.062-22.25l60.17-86.9H16c-8.844 0-16-7.156-16-15.1c0-8.844 7.156-15.99 16-15.99l133.2-.0046l110.8-159.1L16 176c-8.844 0-16-7.158-16-16c0-8.844 7.156-15.1 16-15.1h266.1l72.76-105.1c5-7.312 15.09-9.094 22.25-4.062c7.281 5.031 9.094 14.1 4.062 22.25l-60.17 86.9H432c8.844 0 16 7.156 16 15.1c0 8.844-7.156 16-16 16l-133.2-.0016l-110.8 159.1L432 336C440.8 336 448 343.2 448 352z"/></svg>