<svg xmlns="http://www.w3.org/2000/svg" viewBox="0 0 448 512"><!--! Font Awesome Pro 6.1.1 by @fontawesome - https://fontawesome.com License - https://fontawesome.com/license (Commercial License) Copyright 2022 Fonticons, Inc. --><path d="M384 32H64.01C28.66 32 .0065 60.65 .0065 96L0 416c0 35.35 28.65 64 64 64h229.5c16.97 0 33.25-6.742 45.26-18.75l90.51-90.51C441.3 358.7 448 342.5 448 325.5V96C448 60.65 419.3 32 384 32zM320 434.7V368c0-8.828 7.188-16 16-16h66.75L320 434.7zM416 320h-80c-26.47 0-48 21.53-48 48V448H64c-17.64 0-32-14.36-32-32V96c0-17.64 14.36-32 32-32h320c17.64 0 32 14.36 32 32V320zM304 192H256V144C256 135.2 248.8 128 240 128h-32C199.2 128 192 135.2 192 144V192H144C135.2 192 128 199.2 128 207.1V240c0 8.836 7.164 15.1 16 15.1L192 255.1V303.1C192 312.8 199.2 320 208 320h32c8.836 0 16-7.166 16-16V255.1l48-.0013c8.836 0 16-7.162 16-15.1V207.1C320 199.2 312.8 192 304 192z"/></svg>