<svg xmlns="http://www.w3.org/2000/svg" viewBox="0 0 512 512"><!--! Font Awesome Pro 6.0.0-beta3 by @fontawesome - https://fontawesome.com License - https://fontawesome.com/license (Commercial License) Copyright 2021 Fonticons, Inc. --><path d="M416 0H128C92.65 0 64 28.65 64 64v48H16C7.166 112 0 119.2 0 128c0 8.832 7.166 16 16 16H64v96H16C7.166 240 0 247.2 0 256c0 8.832 7.166 16 16 16H64v96H16C7.166 368 0 375.2 0 384c0 8.832 7.166 16 16 16H64V448c0 35.35 28.65 64 64 64h288c35.35 0 64-28.65 64-64V64C480 28.65 451.3 0 416 0zM128 480c-17.64 0-32-14.36-32-32v-48h34.67c8.834 0 16-7.168 16-16c0-8.834-7.166-16-16-16H96v-96h34.67c8.834 0 16-7.168 16-16c0-8.834-7.166-16-16-16H96v-96h34.67c8.834 0 16-7.168 16-16c0-8.834-7.166-16-16-16H96V64c0-17.64 14.36-32 32-32h64v448H128zM448 448c0 17.64-14.36 32-32 32H224V32h192c17.64 0 32 14.36 32 32V448z"/></svg>