<svg xmlns="http://www.w3.org/2000/svg" viewBox="0 0 448 512"><!--! Font Awesome Pro 6.0.0-beta3 by @fontawesome - https://fontawesome.com License - https://fontawesome.com/license (Commercial License) Copyright 2021 Fonticons, Inc. --><path d="M384 32H64.01C28.66 32 .0065 60.65 .0065 96L0 415.1C0 451.3 28.65 480 64 480h213.5c16.97 0 33.25-6.742 45.26-18.75l106.5-106.5C441.3 342.7 448 326.5 448 309.5V96C448 60.66 419.3 32 384 32zM416 309.5c0 8.547-3.328 16.58-9.371 22.62l-106.5 106.5C294.1 444.7 286 448 277.5 448H64c-17.64 0-32-14.36-32-32V96c0-17.64 14.36-32 32-32h320c17.64 0 32 14.36 32 32V309.5zM368 288h-64C277.5 288 256 309.5 256 336v64c0 8.836 7.164 16 16 16s16-7.164 16-16v-64c0-8.836 7.164-16 16-16h64c8.836 0 16-7.164 16-16S376.8 288 368 288z"/></svg>