<svg xmlns="http://www.w3.org/2000/svg" viewBox="0 0 512 512"><!--! Font Awesome Pro 6.1.1 by @fontawesome - https://fontawesome.com License - https://fontawesome.com/license (Commercial License) Copyright 2022 Fonticons, Inc. --><path d="M64 352C28.65 352 0 323.3 0 288V64C0 28.65 28.65 0 64 0H288C323.3 0 352 28.65 352 64V160H448C483.3 160 512 188.7 512 224V448C512 483.3 483.3 512 448 512H224C188.7 512 160 483.3 160 448V352H64zM192 320V448C192 465.7 206.3 480 224 480H448C465.7 480 480 465.7 480 448V224C480 206.3 465.7 192 448 192H320V64C320 46.33 305.7 32 288 32H64C46.33 32 32 46.33 32 64V288C32 305.7 46.33 320 64 320H192z"/></svg>