<svg xmlns="http://www.w3.org/2000/svg" viewBox="0 0 640 512"><!--! Font Awesome Pro 6.1.1 by @fontawesome - https://fontawesome.com License - https://fontawesome.com/license (Commercial License) Copyright 2022 Fonticons, Inc. --><path d="M64 0C93.82 0 118.9 20.4 125.1 48H322C329.1 20.4 354.2 0 384 0C419.3 0 448 28.65 448 64C448 93.82 427.6 118.9 400 125.1V226C427.6 233.1 448 258.2 448 288C448 323.3 419.3 352 384 352C354.2 352 329.1 331.6 322 304H125.1C118.9 331.6 93.82 352 64 352C28.65 352 0 323.3 0 288C0 258.2 20.4 233.1 48 226V125.1C20.4 118.9 0 93.82 0 64C0 28.65 28.65 0 64 0V0zM322 80H125.1C120.2 102.5 102.5 120.2 80 125.1V226C102.5 231.8 120.2 249.5 125.1 272H322C327.8 249.5 345.5 231.8 368 226V125.1C345.5 120.2 327.8 102.5 322 80zM416 288C416 270.3 401.7 256 384 256C366.3 256 352 270.3 352 288C352 305.7 366.3 320 384 320C401.7 320 416 305.7 416 288zM32 288C32 305.7 46.33 320 64 320C81.67 320 96 305.7 96 288C96 270.3 81.67 256 64 256C46.33 256 32 270.3 32 288zM416 64C416 46.33 401.7 32 384 32C366.3 32 352 46.33 352 64C352 81.67 366.3 96 384 96C401.7 96 416 81.67 416 64zM32 64C32 81.67 46.33 96 64 96C81.67 96 96 81.67 96 64C96 46.33 81.67 32 64 32C46.33 32 32 46.33 32 64zM514 208C521.1 180.4 546.2 160 576 160C611.3 160 640 188.7 640 224C640 253.8 619.6 278.9 592 285.1V386C619.6 393.1 640 418.2 640 448C640 483.3 611.3 512 576 512C546.2 512 521.1 491.6 514 464H317.1C310.9 491.6 285.8 512 256 512C220.7 512 192 483.3 192 448C192 418.2 212.4 393.1 240 386V352C240 343.2 247.2 336 256 336C264.8 336 272 343.2 272 352V386C294.5 391.8 312.2 409.5 317.1 432H514C519.8 409.5 537.5 391.8 560 386V285.1C537.5 280.2 519.8 262.5 514 240H480C471.2 240 464 232.8 464 224C464 215.2 471.2 208 480 208H514zM544 224C544 241.7 558.3 256 576 256C593.7 256 608 241.7 608 224C608 206.3 593.7 192 576 192C558.3 192 544 206.3 544 224zM576 416C558.3 416 544 430.3 544 448C544 465.7 558.3 480 576 480C593.7 480 608 465.7 608 448C608 430.3 593.7 416 576 416zM224 448C224 465.7 238.3 480 256 480C273.7 480 288 465.7 288 448C288 430.3 273.7 416 256 416C238.3 416 224 430.3 224 448z"/></svg>