<svg xmlns="http://www.w3.org/2000/svg" viewBox="0 0 576 512"><!--! Font Awesome Pro 6.1.1 by @fontawesome - https://fontawesome.com License - https://fontawesome.com/license (Commercial License) Copyright 2022 Fonticons, Inc. --><path d="M430.4 4.707C473-6.729 516.9 18.6 528.3 61.28L569.8 215.8C581.2 258.5 555.9 302.4 513.2 313.8L497.7 317.9C480.7 322.5 463.1 312.4 458.5 295.3L429.2 185.8L96 272.2V480H132.5L200 277.3L236.1 267.7L208.9 352H335.1L301.5 250.1L332.5 242.9L411.5 480H560C568.8 480 576 487.2 576 496C576 504.8 568.8 512 560 512H16C7.164 512 0 504.8 0 496C0 487.2 7.164 480 16 480H64V176C64 167.2 71.16 160 80 160C88.84 160 96 167.2 96 176V239.2L223.8 206L256.8 106.9C258.1 100.4 265.1 96 271.1 96C278.9 96 285 100.4 287.2 106.9L312.5 183L420.9 154.9L392.3 48.04C387.7 30.97 397.8 13.42 414.9 8.848L430.4 4.707zM438.6 35.62L423.2 39.76L489.4 287L504.9 282.9C530.5 276 545.7 249.7 538.8 224.1L497.4 69.56C490.6 43.95 464.3 28.76 438.6 35.62H438.6zM281.5 191.1L271.1 162.6L260.7 196.5L281.5 191.1zM377.8 480L345.8 384H198.2L166.2 480H377.8z"/></svg>