<svg xmlns="http://www.w3.org/2000/svg" viewBox="0 0 512 512"><!--! Font Awesome Pro 6.0.0-beta3 by @fontawesome - https://fontawesome.com License - https://fontawesome.com/license (Commercial License) Copyright 2021 Fonticons, Inc. --><path d="M429.2 191.8c-32.97 0-65.25 13.38-88.56 36.69c-17.36 17.36-41.39 27.31-65.94 27.31H219.8c17.35-17.88 28.2-41.68 28.2-68c0-55.14-46.66-100-104-100c-32.86 0-63.11 14.47-82.97 39.69c-5.469 6.953-4.281 17 2.656 22.47c6.969 5.5 17.03 4.266 22.47-2.656c13.77-17.48 34.84-27.5 57.84-27.5c39.7 0 72 30.5 72 68S183.7 255.9 143.1 255.9c-8.844 0-16 7.034-16 15.88s7.156 16 16 16c1.848 0 3.572-.4336 5.396-.5254C150.3 287.4 151.1 287.8 151.1 287.8c58.31 0 104 42.17 104 96c0 52.94-48.19 96-107.4 96c-56.91 0-108.2-48.59-116.7-110.6c-1.203-8.75-9.188-15.03-18.03-13.66c-8.75 1.203-14.87 9.266-13.66 18.03c10.67 77.52 75.88 138.3 148.4 138.3c76.88 0 139.4-57.3 139.4-127.9c0-38.83-17.85-72.84-45.97-96.12h32.72c32.97 0 65.25-13.38 88.56-36.69c17.36-17.36 41.39-27.31 68.69-27.31c26.47 0 48 21.6 48 48.06l-.0009 127.9c0 26.47-21.53 48-47.1 48h-24.45c-18.28 0-34.73-10.17-42.92-26.53l-14.31-28.62c-3.953-7.906-13.59-11.08-21.47-7.156c-7.906 3.953-11.11 13.56-7.156 21.47l14.31 28.62c13.66 27.28 41.06 44.22 71.55 44.22l24.45 .0918c44.11 0 80-35.89 80-80l-.0009-128.1C511.1 227.7 476.1 191.8 429.2 191.8zM282.2 142.7l39.69 15.42c16.48 6.422 33.73 9.594 50.97 9.594c24.94 0 49.83-6.656 72.3-19.73l10.91-6.359c7.625-4.453 10.2-14.25 5.766-21.89c-4.469-7.609-14.23-10.17-21.89-5.766l-10.91 6.359c-29.95 17.45-63.89 20.25-95.55 7.984L293.8 112.9c-8.219-3.219-17.5 .875-20.7 9.109S273.1 139.5 282.2 142.7zM347.6 103.6c5.688 5.516 13 8.325 20.31 8.325c7.375 0 14.76-2.856 20.58-8.497l27.39-27.41c5.203-5.547 8.078-12.7 8.078-20.16s-2.875-14.61-8.438-20.53l-27.41-27.39c-11.09-10.41-28.84-10.77-40.69 .3594l-27.39 27.41c-5.203 5.547-8.078 12.7-8.078 20.16s2.875 14.61 8.438 20.53L347.6 103.6zM367.1 32.97l22.84 22.84l-22.84 22.84l-22.84-22.84L367.1 32.97z"/></svg>