<svg xmlns="http://www.w3.org/2000/svg" viewBox="0 0 640 512"><!--! Font Awesome Pro 6.0.0-beta3 by @fontawesome - https://fontawesome.com License - https://fontawesome.com/license (Commercial License) Copyright 2021 Fonticons, Inc. --><path d="M432 96h192C632.8 96 640 88.84 640 80C640 71.16 632.8 64 624 64h-192C423.2 64 416 71.16 416 80C416 88.84 423.2 96 432 96zM624 416h-129.7c-14.47 0-28.03-6.406-37.19-17.59L207.6 93.34C192.3 74.69 169.8 64 145.7 64H16C7.156 64 0 71.16 0 80S7.156 96 16 96h129.7c14.47 0 28.03 6.406 37.19 17.59l249.6 305.1C447.7 437.3 470.3 448 494.3 448H624c8.844 0 16-7.156 16-16S632.8 416 624 416z"/></svg>