<svg xmlns="http://www.w3.org/2000/svg" viewBox="0 0 512 512"><!--! Font Awesome Pro 6.1.1 by @fontawesome - https://fontawesome.com License - https://fontawesome.com/license (Commercial License) Copyright 2022 Fonticons, Inc. --><path d="M32 64C32 55.16 39.16 48 48 48H464C472.8 48 480 55.16 480 64C480 72.84 472.8 80 464 80H48C39.16 80 32 72.84 32 64zM224 192C224 183.2 231.2 176 240 176H464C472.8 176 480 183.2 480 192C480 200.8 472.8 208 464 208H240C231.2 208 224 200.8 224 192zM464 304C472.8 304 480 311.2 480 320C480 328.8 472.8 336 464 336H240C231.2 336 224 328.8 224 320C224 311.2 231.2 304 240 304H464zM32 448C32 439.2 39.16 432 48 432H464C472.8 432 480 439.2 480 448C480 456.8 472.8 464 464 464H48C39.16 464 32 456.8 32 448zM133.8 165.6C144.3 156.1 159.1 164.4 159.1 177.9V334.1C159.1 347.6 144.3 355 133.8 346.4L38.1 268.4C31.23 261.1 31.23 250 38.1 243.6L133.8 165.6zM127.1 211.8L74.34 256L127.1 300.2V211.8z"/></svg>