<svg xmlns="http://www.w3.org/2000/svg" viewBox="0 0 448 512"><!--! Font Awesome Pro 6.1.1 by @fontawesome - https://fontawesome.com License - https://fontawesome.com/license (Commercial License) Copyright 2022 Fonticons, Inc. --><path d="M432 0h-416C7.199 0 0 7.199 0 16C0 24.8 7.199 32 16 32h416C440.8 32 448 24.8 448 16C448 7.199 440.8 0 432 0zM224 96C135.6 96 64 167.6 64 256v96c0 88.38 71.63 160 160 160S384 440.4 384 352V256C384 167.6 312.4 96 224 96zM352 352c0 70.75-57.25 128-128 128s-128-57.25-128-128V256c0-70.75 57.25-127.1 128-127.1S352 185.3 352 256V352z"/></svg>