<svg xmlns="http://www.w3.org/2000/svg" viewBox="0 0 384 512"><!--! Font Awesome Pro 6.0.0-beta3 by @fontawesome - https://fontawesome.com License - https://fontawesome.com/license (Commercial License) Copyright 2021 Fonticons, Inc. --><path d="M104.5 264.2C90.38 248.8 101.3 224 122.2 224H261.8C282.7 224 293.6 248.8 279.5 264.2L203.8 346.8C200.8 350.1 196.5 352 192 352C187.5 352 183.2 350.1 180.2 346.8L104.5 264.2zM192 312.3L243.6 256H140.4L192 312.3zM0 448V64C0 28.65 28.65 0 64 0H245.5C262.5 0 278.7 6.743 290.7 18.75L365.3 93.26C377.3 105.3 384 121.5 384 138.5V448C384 483.3 355.3 512 320 512H64C28.65 512 0 483.3 0 448zM352 138.5C352 130 348.6 121.9 342.6 115.9L268.1 41.37C262.1 35.37 253.1 32 245.5 32H64C46.33 32 32 46.33 32 64V448C32 465.7 46.33 480 64 480H320C337.7 480 352 465.7 352 448V138.5z"/></svg>