<svg xmlns="http://www.w3.org/2000/svg" viewBox="0 0 576 512"><!--! Font Awesome Pro 6.0.0-beta3 by @fontawesome - https://fontawesome.com License - https://fontawesome.com/license (Commercial License) Copyright 2021 Fonticons, Inc. --><path d="M575.1 64.84C575.1 28.18 546.3 0 511.1 0c-16.61 0-33.22 6.32-45.87 18.96L195 289.2C191.5 288.7 187.9 287.1 184.3 287.1c-.0313 0 0 0 0 0c-57.5 0-103.7 46.51-103.7 103.9c0 7.199 .5757 8.954 .5757 13.2c0 23.95-18.84 42.94-49.15 42.94C14.32 447.1 0 462.3 0 479.1S14.32 512 32 512h53.72c96.19 0 201.1-22.29 201.1-119.1c0-3.818-.1967-7.639-.5861-11.44l270.8-270.8C569.7 98.07 575.1 81.45 575.1 64.84zM255.5 392.3c0 74.56-95.23 87.7-169.8 87.7H32c26.8 0 81.16-16.56 81.16-74.89c0-5.81-.5799-7.691-.5799-13.28c0-58.18 55.02-73.57 75.76-71.64l66.98 66.98C255.4 388.9 255.5 390.6 255.5 392.3zM267.1 354.6l-46.5-46.5l64-64.01l46.5 46.5L267.1 354.6zM544 64.84c0 8.423-3.203 16.84-9.609 23.25l-179.8 179.8l-46.5-46.5l179.8-179.8c6.406-6.406 14.83-9.609 23.25-9.609C529.1 31.98 544 46.39 544 64.84zM498.9 338.9l-62.38-62.41l-22.63 22.63l62.4 62.4c4.291 4.291 7.262 9.686 8.594 15.6l22.04 98.01c-104.4-22.4-104.3-21.78-112.4-29.9l-63.36-63.36l-12.31 12.31c-.0625 6.348-1.035 12.52-1.932 18.7c59.35 59.34 63.23 66.7 85.21 71.88c38.15 8.982 122.7 26.93 122.7 26.93C525.1 511.9 527 512 528.1 512c8.744 0 15.95-7.205 15.95-15.95c0-1.046-.1036-2.116-.3193-3.197l-27.6-122.8C513.4 358.3 507.5 347.5 498.9 338.9zM162.2 258.2C169.1 257.1 175.9 256 183 255.1l11.14-11.13L145.1 196.7l82.76-82.76l48.16 48.16l22.63-22.63L178.8 18.75C166.3 6.25 149.9 0 133.6 0C117.2 0 100.8 6.252 88.3 18.75L50.79 56.26c-12.52 12.52-18.79 28.91-18.79 45.3C31.1 135.7 42.96 138.9 162.2 258.2zM64.03 101.6c0-8.199 3.129-16.41 9.383-22.66l37.51-37.51C116.1 35.33 125 32 133.6 32s16.58 3.33 22.63 9.375L206.1 91.31L123.3 174.1L73.32 124C67.13 117.9 64.03 109.7 64.03 101.6z"/></svg>