<svg xmlns="http://www.w3.org/2000/svg" viewBox="0 0 512 512"><!--! Font Awesome Pro 6.1.1 by @fontawesome - https://fontawesome.com License - https://fontawesome.com/license (Commercial License) Copyright 2022 Fonticons, Inc. --><path d="M416 64V96C416 131.3 387.3 160 352 160H64C28.65 160 0 131.3 0 96V64C0 28.65 28.65 0 64 0H352C387.3 0 416 28.65 416 64zM352 32H64C46.33 32 32 46.33 32 64V96C32 113.7 46.33 128 64 128H352C369.7 128 384 113.7 384 96V64C384 46.33 369.7 32 352 32zM208 288C208 252.7 236.7 224 272 224H448C465.7 224 480 209.7 480 192V128C480 110.3 465.7 96 448 96V64C483.3 64 512 92.65 512 128V192C512 227.3 483.3 256 448 256H272C254.3 256 240 270.3 240 288V320C266.5 320 288 341.5 288 368V464C288 490.5 266.5 512 240 512H208C181.5 512 160 490.5 160 464V368C160 341.5 181.5 320 208 320V288zM240 352H208C199.2 352 192 359.2 192 368V464C192 472.8 199.2 480 208 480H240C248.8 480 256 472.8 256 464V368C256 359.2 248.8 352 240 352z"/></svg>