<svg xmlns="http://www.w3.org/2000/svg" viewBox="0 0 512 512"><!--! Font Awesome Pro 6.0.0-beta3 by @fontawesome - https://fontawesome.com License - https://fontawesome.com/license (Commercial License) Copyright 2021 Fonticons, Inc. --><path d="M186.2 297.7C180.6 293.3 173.7 290.5 166.7 290.5c-1.82 0-3.645 .1875-5.453 .5879c-18.98 4.187-36.44 13.44-50.47 27.56c-22.4 22.51-32.32 52.9-29.74 82.38c2.254 25.82-16.99 46.1-49.03 46.1C14.34 448 0 462.3 0 480C0 497.7 14.34 512 32.04 512h53.78c54.6 0 133.1-7.569 172.3-46.92c19.24-19.36 28.68-44.46 29.23-69.84c.2227-10.23-4.174-20.06-12.17-26.45L186.2 297.7zM235.4 442.5c-23.7 23.82-78.23 37.48-149.6 37.48l-53.78 .0039c25.05 0 47.15-9.056 62.22-25.5c13.9-15.17 20.54-35.15 18.69-56.28c-1.856-21.25 5.635-42.04 20.56-57.04c8.901-8.955 20.19-15.3 32.76-18.42l89.06 71.79C254.9 412.1 247.9 430 235.4 442.5zM496.9 21.59c-10.91-12.7-26.03-20.3-42.44-21.39c-16.7-1.344-32.56 4.281-45.13 15.58L224.5 181.5C217.6 187.8 211.5 195.2 206.8 202.7C197.2 218.2 192 236.4 192 255.3C191.1 264.1 199.2 271.3 207.1 271.3c8.829 0 16-7.156 16.02-15.98c.0156-12.86 3.469-25.2 10.03-35.75c3.125-5.078 7.282-10.03 11.92-14.25l184.7-165.7c6.032-5.406 13.72-8.078 21.49-7.468c7.907 .5156 15.16 4.187 20.41 10.3c8.797 10.27 9.923 25.48 2.75 37.03l-131.8 212c-9.126 14.69-23.35 24.1-40.03 28.1c-8.579 2.078-13.88 10.72-11.81 19.31c1.766 7.328 8.329 12.25 15.55 12.25c1.234 0 2.5-.1406 3.766-.4375c24.89-5.1 46.11-21.34 59.72-43.23l131.8-212C517 73.08 514.7 42.35 496.9 21.59z"/></svg>