<svg xmlns="http://www.w3.org/2000/svg" viewBox="0 0 640 512"><!--! Font Awesome Pro 6.0.0-beta3 by @fontawesome - https://fontawesome.com License - https://fontawesome.com/license (Commercial License) Copyright 2021 Fonticons, Inc. --><path d="M192 288h256c35.35 0 64-28.65 64-64V64c0-35.35-28.65-64-64-64H192C156.7 0 128 28.65 128 64v160C128 259.3 156.7 288 192 288zM272 32h96v70.13l-40.84-20.44c-4.5-2.25-9.812-2.25-14.31 0L272 102.1V32zM160 64c0-17.64 14.36-32 32-32h48v96c0 5.531 2.875 10.69 7.594 13.62c4.656 2.812 10.59 3.156 15.56 .6875L320 113.9l56.84 28.44C379.1 143.4 381.6 144 384 144c2.938 0 5.844-.8125 8.406-2.375C397.1 138.7 400 133.5 400 128V32H448c17.64 0 32 14.36 32 32v160c0 17.64-14.36 32-32 32H192C174.4 256 160 241.6 160 224V64zM624 480h-64v-96h64c8.844 0 16-7.156 16-16S632.8 352 624 352h-608C7.156 352 0 359.2 0 368S7.156 384 16 384h64v96h-64C7.156 480 0 487.2 0 496S7.156 512 16 512h608c8.844 0 16-7.156 16-16S632.8 480 624 480zM304 480h-192v-96h192V480zM528 480h-192v-96h192V480z"/></svg>