<svg xmlns="http://www.w3.org/2000/svg" viewBox="0 0 640 512"><!--! Font Awesome Pro 6.1.1 by @fontawesome - https://fontawesome.com License - https://fontawesome.com/license (Commercial License) Copyright 2022 Fonticons, Inc. --><path d="M128 168C114.7 168 104 178.7 104 192S114.7 216 128 216c13.26 0 24-10.75 24-24S141.3 168 128 168zM378.6 187.9c-11.28-15.81-38.5-15.94-49.1-.0313L284.6 249.3L277.6 240.4C266.2 225.9 240.6 225.8 229.2 240.4l-63.03 80.35c-7.123 9.131-8.154 21.55-2.623 31.56C168.8 361.1 179.1 368 190.4 368h259.2c11 0 21.17-5.805 26.54-15.09c0-.0313-.0313 .0313 0 0c5.656-9.883 5.078-21.84-1.578-31.15L378.6 187.9zM194.2 335.9l58.25-75.61l20.09 25.66C276.9 291.5 290.1 296.6 298.1 285.4l54.44-78.75l92.68 129.2H194.2zM592.1 64c-4.559 0-9.221 .6582-13.88 2.057C493.1 91.32 406.1 103.1 320 103.1S146 91.32 61.8 66.06C57.14 64.66 52.47 64 47.91 64C22.33 63.1 0 84.74 0 112v319.9C0 459.3 22.33 480 47.91 480c4.559 0 9.221-.6602 13.88-2.057C146 452.7 233 440 320 440s173.1 12.63 258.2 37.9C582.9 479.3 587.5 480 592.1 480C617.7 480 640 459.3 640 431.1V112C640 84.74 617.7 64 592.1 64zM608 431.1C608 441.9 599.7 448 592.1 448c-1.545 0-3.123-.2383-4.691-.709C500.6 421.3 410.6 408 320 408s-180.6 13.21-267.4 39.25C51.04 447.8 49.46 448 47.91 448C40.26 448 32 441.9 32 431.1V112c0-5.568 2.582-9.266 4.75-11.39C39.77 97.69 43.83 96 47.91 96c1.551 0 3.131 .2383 4.697 .709C139.4 122.8 229.4 135.1 320 135.1s180.6-13.21 267.4-39.25C588.1 96.24 590.5 96 592.1 96C599.7 96 608 102.1 608 112V431.1z"/></svg>