<svg xmlns="http://www.w3.org/2000/svg" viewBox="0 0 512 512"><!--! Font Awesome Pro 6.1.1 by @fontawesome - https://fontawesome.com License - https://fontawesome.com/license (Commercial License) Copyright 2022 Fonticons, Inc. --><path d="M498.1 5.629C492.7 1.891 486.4 0 480 0c-5.461 0-10.94 1.399-15.88 4.223l-448 255.1C5.531 266.3-.6875 277.8 .0625 289.1s8.375 22.86 19.62 27.55l103.2 43.01l61.85 146.5C186.2 510.6 189.2 512 191.1 512c2.059 0 4.071-.8145 5.555-2.24l85.75-82.4l120.4 50.16c4.293 1.793 8.5 2.472 12.29 2.472c6.615 0 12.11-2.093 15.68-4.097c8.594-4.828 14.47-13.31 15.97-23.05l64-415.1C513.5 24.72 508.3 12.58 498.1 5.629zM32 288l380.1-217.2l-288.2 255.5L32 288zM200.7 462.3L151.1 344.9l229.5-203.4l-169.5 233.1c-2.906 4-3.797 9.094-2.438 13.84c1.374 4.75 4.844 8.594 9.438 10.41l34.4 13.76L200.7 462.3zM416.7 443.3l-167.7-66.56l225.7-310.3L416.7 443.3z"/></svg>