<svg xmlns="http://www.w3.org/2000/svg" viewBox="0 0 384 512"><!--! Font Awesome Pro 6.0.0-beta3 by @fontawesome - https://fontawesome.com License - https://fontawesome.com/license (Commercial License) Copyright 2021 Fonticons, Inc. --><path d="M192 512c-70.58 0-128-57.42-128-128V96c0-52.94 43.06-96 96-96s96 43.06 96 96v256c0 35.3-28.7 64-64 64s-64-28.7-64-64V144C128 135.2 135.2 128 144 128S160 135.2 160 144V352c0 17.64 14.36 32 32 32s32-14.36 32-32V96c0-35.3-28.7-64-64-64S96 60.7 96 96v288c0 52.94 43.06 96 96 96s96-43.06 96-96V144C288 135.2 295.2 128 304 128S320 135.2 320 144V384C320 454.6 262.6 512 192 512z"/></svg>