<svg xmlns="http://www.w3.org/2000/svg" viewBox="0 0 512 512"><!--! Font Awesome Pro 6.0.0-beta3 by @fontawesome - https://fontawesome.com License - https://fontawesome.com/license (Commercial License) Copyright 2021 Fonticons, Inc. --><path d="M511.3 208C512.1 216.8 504.8 224 496 224H462.9L347 346.7C350.2 353.1 352 360.3 352 368V464C352 490.5 330.5 512 304 512H207.1C181.5 512 159.1 490.5 159.1 464V368C159.1 360.3 161.8 353.1 164.1 346.7L49.1 224H15.1C7.163 224-.063 216.8 .6886 208C8.68 114.4 86.57 0 255.1 0H256.1C425.5 .0525 503.3 114.4 511.3 208H511.3zM272 224V320H304C311.2 320 317.1 321.6 324.1 324.4L418.9 224H272zM239.1 224H93.12L187.9 324.4C194 321.6 200.8 320 207.1 320H239.1V224zM207.1 352C199.2 352 191.1 359.2 191.1 368V464C191.1 472.8 199.2 480 207.1 480H304C312.8 480 320 472.8 320 464V368C320 359.2 312.8 352 304 352H207.1zM35.23 192H112.4C115.5 133.2 135.6 81.2 165.5 46.21C86.76 73.52 46.36 135.7 35.23 192zM180.5 79.14C160.9 107.5 147.1 146.9 144.5 192H367.5C364.9 146.9 351.1 107.5 331.5 79.14C309.5 47.36 282.3 32 255.1 32C229.7 32 202.5 47.36 180.5 79.14H180.5zM346.5 46.21C376.4 81.2 396.5 133.2 399.6 192H476.8C465.6 135.7 425.2 73.52 346.5 46.21V46.21z"/></svg>