<svg xmlns="http://www.w3.org/2000/svg" viewBox="0 0 512 512"><!--! Font Awesome Pro 6.1.1 by @fontawesome - https://fontawesome.com License - https://fontawesome.com/license (Commercial License) Copyright 2022 Fonticons, Inc. --><path d="M150.6 201.4C144.6 195.3 136.4 192 127.9 192c-2.234 0-4.482 .2269-6.711 .6996c-10.62 2.312-19.37 9.844-23.19 20.03l-95.1 256c-4.406 11.75-1.531 25 7.344 33.88C15.47 508.7 23.66 512 32 512c3.781 0 7.594-.6563 11.25-2.031l255.1-96c10.19-3.812 17.72-12.56 20.03-23.19c2.281-10.62-.9683-21.72-8.656-29.41L150.6 201.4zM32 479.1l28.71-76.66l47.93 47.93L32 479.1zM141.5 438.9l-68.51-68.51l22.54-60.2l106.2 106.2L141.5 438.9zM234.6 404L107.9 277.3l19.98-53.26c.0293-.0078-.0254 0 0 0l160.1 159.1L234.6 404zM496 256h-10.88c-50.63 0-98.06 25.78-130.2 70.69c-5.125 7.219-3.469 17.19 3.719 22.34C361.5 351 364.8 352 368 352c4.969 0 9.906-2.344 13.03-6.688C407 308.9 444.1 288 485.1 288H496C504.8 288 512 280.8 512 272S504.8 256 496 256zM176 160C179.2 160 182.5 159 185.3 157C230.2 124.9 256 77.5 256 26.88V16c0-8.844-7.156-16-15.1-16c-8.844 0-16 7.156-16 16v10.88c0 40.16-20.88 78.09-57.31 104.1C159.5 136.1 157.8 146.1 162.1 153.3C166.1 157.7 171 160 176 160zM64 56c13.26 0 24-10.75 24-24c0-13.26-10.74-24-24-24c-13.25 0-23.1 10.74-23.1 24C40.01 45.25 50.75 56 64 56zM480 424c-13.25 0-24 10.74-24 24c0 13.25 10.75 24 24 24c13.26 0 24-10.75 24-24C504 434.7 493.3 424 480 424zM480 136c-13.25 0-24 10.74-24 24c0 13.25 10.75 24 24 24c13.26 0 24-10.75 24-24C504 146.7 493.3 136 480 136zM382.7 175.1c19.84-23.5 18.41-46 17.25-64.06c-1-16.12-1.75-27.75 9.781-41.44c11.47-13.59 22.81-14.62 38.5-16.03c17.88-1.625 40.09-3.656 60.03-27.28c5.719-6.75 4.844-16.84-1.906-22.53c-6.688-5.656-16.81-4.844-22.53 1.906c-11.47 13.59-22.81 14.62-38.5 16.03c-17.88 1.625-40.09 3.656-60.03 27.28c-19.84 23.5-18.41 46-17.25 64.06c1 16.12 1.75 27.75-9.781 41.44c-11.44 13.53-22.75 14.56-38.44 15.97c-17.88 1.594-40.09 3.594-60 27.22c-5.719 6.75-4.844 16.84 1.906 22.53C264.7 222.8 268.3 224 272 224c4.531 0 9.062-1.938 12.22-5.688c11.44-13.53 22.75-14.56 38.44-15.97C340.5 200.8 362.8 198.8 382.7 175.1z"/></svg>