<svg xmlns="http://www.w3.org/2000/svg" viewBox="0 0 512 512"><!--! Font Awesome Pro 6.1.1 by @fontawesome - https://fontawesome.com License - https://fontawesome.com/license (Commercial License) Copyright 2022 Fonticons, Inc. --><path d="M256 0C114.6 0 0 114.6 0 256s114.6 256 256 256s256-114.6 256-256S397.4 0 256 0zM480 256c0 47.13-14.71 90.84-39.67 126.1L272 248.3V32.81C388 41.07 480 137.9 480 256zM240 32.81v215.5l-168.3 134.7C46.71 346.8 32 303.1 32 256C32 137.9 123.1 41.07 240 32.81zM91.81 407.9L240 289.3v189.9C181.6 475 129.3 448.4 91.81 407.9zM272 479.2v-189.9l148.2 118.6C382.7 448.4 330.4 475 272 479.2z"/></svg>