<svg xmlns="http://www.w3.org/2000/svg" viewBox="0 0 640 512"><!--! Font Awesome Pro 6.1.1 by @fontawesome - https://fontawesome.com License - https://fontawesome.com/license (Commercial License) Copyright 2022 Fonticons, Inc. --><path d="M319.9 332C308.9 332 299.9 340.1 299.9 352c0 11.03 8.97 20 20 20c11.04 0 20-8.969 20-20C339.9 340.1 330.1 332 319.9 332zM319.9 396C308.9 396 299.9 404.1 299.9 416s8.97 20 20 20c11.04 0 20-8.969 20-20S330.1 396 319.9 396zM255.9 396c-11.04 0-20 8.969-20 20s8.969 20 20 20c11.03 0 20-8.969 20-20S266.1 396 255.9 396zM31.97 367.2c0-97.45 83.62-82.3 83.62-157.7c0-22.7-8.193-29.03-8.193-57.1c0-43.22 23.98-83.49 63.26-101l36.36-16.23C211.8 32.1 216.9 31.97 221.9 31.97c15.38 0 30.58 9.468 37.71 25.17c0 0 19.2 42.48 20.07 44.69c2.467 6.335 8.5 10.21 14.88 10.21c8.734 0 16.04-7.101 16.04-16.03c0-2.883-.5082-5.218-4.571-14.04L288.8 43.9C276.3 16.46 249.5-.0009 221.9-.0009c-9.397 0-18.88 1.907-27.92 5.938L157.6 22.17C106.6 44.93 75.4 96.94 75.4 152.5c0 32.01 8.158 40.47 8.158 56.99c0 49.44-83.56 49.16-83.56 157.8c0 21.05 4.395 42.45 13.6 62.69l17.29 38.04c17.34 38.22 54.38 43.88 65.01 43.88c8.826 0 15.93-7.207 15.93-15.99c0-26.65-35.09-4.264-51.81-41.11l-17.29-38.05C35.45 400.8 31.97 383.8 31.97 367.2zM479.1 172c-11.03 0-20 8.969-20 20s8.969 20 20 20c11.04 0 20-8.969 20-20S491 172 479.1 172zM543.1 108c-11.03 0-20 8.969-20 20s8.97 20 20 20c11.04 0 20-8.969 20-20S555 108 543.1 108zM543.1 172c-11.03 0-20 8.969-20 20s8.97 20 20 20c11.04 0 20-8.969 20-20S555 172 543.1 172zM638.3 89.83c-1.438-47.19-41.01-86.73-88.18-88.19c0 0-54.61-1.628-56.24-1.628c-86.96 0-157.4 62.09-167.9 146.9c-1.833 14.93-11.41 46.35-51.29 51.28c-84.61 10.41-146.9 81.88-146.9 167.4c0 1.774 .0268 3.555 .0809 5.341l1.594 51.28c1.438 47.19 41.01 86.73 88.18 88.19c0 0 54.95 1.641 56.73 1.641c85.46 0 156.9-62.28 167.4-146.9c4.971-39.9 36.31-49.46 51.3-51.31c84.61-10.41 146.9-81.88 146.9-167.4c0-1.773-.0268-3.552-.0807-5.337L638.3 89.83zM607.1 146.7c0 70.24-49.32 126.8-118.9 135.4c-22.86 2.835-71.66 18.95-79.12 79.14c-8.631 69.74-66.22 118.7-136.2 118.7c-1.254 0-55.1-1.61-55.1-1.61c-30.6-.9219-56.23-26.58-57.17-57.17c0 0-1.665-54.38-1.665-55.91c0-70.24 49.32-126.8 118.9-135.4c60.15-7.461 76.35-56.3 79.12-79.14c8.564-69.48 65.14-118.8 135.4-118.8c1.531 0 3.062 .0313 4.594 .0781l51.33 1.562c30.6 .9219 56.23 26.58 57.17 57.16C606.3 90.8 607.1 145.2 607.1 146.7z"/></svg>