<svg xmlns="http://www.w3.org/2000/svg" viewBox="0 0 512 512"><!--! Font Awesome Pro 6.1.1 by @fontawesome - https://fontawesome.com License - https://fontawesome.com/license (Commercial License) Copyright 2022 Fonticons, Inc. --><path d="M498.6 13.39C489.7 4.594 477.4 .1875 465.1 0c-67.25 1.672-192.5 16.91-275.8 100.2L100.2 189.3c-83.28 83.28-98.53 208.6-100.2 275.8c-.2812 12.44 4.594 24.64 13.44 33.47C22.01 507.1 33.73 512 45.79 512c.375 0 .75-.0156 1.125-.0156c67.22-1.672 192.5-16.91 275.8-100.2l89.09-89.1c83.28-83.27 98.53-208.5 100.2-275.8C512.3 34.45 507.4 22.22 498.6 13.39zM389.2 300l-89.09 89.1c-78.25 78.25-203.6 89.61-253.1 90.85c-2.687 .5313-7.343-1.328-10.06-4.031c-2.687-2.703-4.125-6.281-4.031-10.05c1.25-50.31 12.62-175.8 90.84-253.1l89.09-89.1c78.25-78.22 203.6-89.58 253.1-90.82c.0938-.0156 .2187-.0156 .3438-.0156c3.656 0 7.093 1.438 9.718 4.047C478.6 38.74 480.1 42.31 479.1 46.11C478.7 96.41 467.4 221.8 389.2 300zM144 304c-35.35 0-64 28.65-64 64s28.65 64 64 64c35.35 0 64-28.65 64-64S179.4 304 144 304zM144 400c-17.64 0-32-14.36-32-32s14.36-32 32-32s32 14.36 32 32S161.6 400 144 400zM256 192C220.6 192 192 220.6 192 256c0 35.35 28.65 64 64 64s64-28.65 64-64C320 220.6 291.4 192 256 192zM256 288C238.4 288 224 273.6 224 256s14.36-32 32-32s32 14.36 32 32S273.6 288 256 288zM368 80C332.6 80 304 108.6 304 144s28.65 64 64 64C403.4 208 432 179.4 432 144S403.4 80 368 80zM368 176C350.4 176 336 161.6 336 144s14.36-32 32-32C385.6 112 400 126.4 400 144S385.6 176 368 176z"/></svg>