<svg xmlns="http://www.w3.org/2000/svg" viewBox="0 0 512 512"><!--! Font Awesome Pro 6.1.1 by @fontawesome - https://fontawesome.com License - https://fontawesome.com/license (Commercial License) Copyright 2022 Fonticons, Inc. --><path d="M512 16C512 6.861 504.5 0 496 0c-4.094 0-8.188 1.562-11.31 4.688L429.2 60.17C405.5 41.19 377 32 348.2 32C311.5 32 274.5 46.75 246.9 74.35C217.8 103.5 180.9 123.2 141.2 134.1c-33.07 9.063-141.2 58.05-141.2 185.4c0 106.7 86.96 192.5 192.2 192.5c37.68 0 150.1-19.78 184.2-138.8c35.9-125.4 103.6-110.9 103.6-207.7c0-29.19-9.411-58.39-28.22-82.62l55.57-55.57C510.4 24.19 512 20.09 512 16zM447.1 165.4c0 79.48-64.99 68.48-102.4 198.1C332.5 410.2 284.1 480 192.2 480c-69.78 0-160.2-56.03-160.2-160.5c0-74.86 51.04-136.3 117.7-154.6C271.1 131.7 266.7 64 348.2 64c21.58 0 41.43 6.758 58.05 19.08l-17.61 17.61C385.6 103.8 384 107.9 384 112C384 121.1 391.5 128 400 128c4.094 0 8.188-1.562 11.31-4.688l17.33-17.33C436 116.3 447.1 136.7 447.1 165.4z"/></svg>