<svg xmlns="http://www.w3.org/2000/svg" viewBox="0 0 512 512"><!--! Font Awesome Pro 6.1.1 by @fontawesome - https://fontawesome.com License - https://fontawesome.com/license (Commercial License) Copyright 2022 Fonticons, Inc. --><path d="M373.2 16.97C395.1-4.901 430.5-4.901 452.4 16.97L495 59.6C516.9 81.47 516.9 116.9 495 138.8L182.3 451.6C170.9 462.9 156.9 471.2 141.5 475.8L20.52 511.3C14.9 512.1 8.827 511.5 4.687 507.3C.5466 503.2-1.002 497.1 .6506 491.5L36.23 370.5C40.76 355.1 49.09 341.1 60.44 329.7L373.2 16.97zM429.8 39.6C420.4 30.22 405.2 30.22 395.8 39.6L341 94.4L417.6 170.1L472.4 116.2C481.8 106.8 481.8 91.6 472.4 82.23L429.8 39.6zM66.93 379.5L39.63 472.4L132.4 445.1C142.7 442 152.1 436.5 159.6 428.9L394.1 193.6L318.4 117L83.07 352.4C75.5 359.9 69.95 369.3 66.93 379.5V379.5zM173.3 27.31L244.1 98.18L221.5 120.8L189.7 88.97L155.3 123.3C149.1 129.6 138.9 129.6 132.7 123.3C126.4 117.1 126.4 106.9 132.7 100.7L167 66.34L150.6 49.94C138.1 37.44 117.9 37.44 105.4 49.94L49.94 105.4C37.44 117.9 37.44 138.1 49.94 150.6L120.8 221.5L98.18 244.1L27.31 173.3C2.32 148.3 2.32 107.7 27.31 82.75L82.75 27.31C107.7 2.32 148.3 2.32 173.3 27.31V27.31zM338.7 484.7L267.9 413.8L290.5 391.2L361.4 462.1C373.9 474.6 394.1 474.6 406.6 462.1L462.1 406.6C474.6 394.1 474.6 373.9 462.1 361.4L445.7 344.1L411.3 379.3C405.1 385.6 394.9 385.6 388.7 379.3C382.4 373.1 382.4 362.9 388.7 356.7L423 322.3L391.2 290.5L413.8 267.9L484.7 338.7C509.7 363.7 509.7 404.3 484.7 429.3L429.3 484.7C404.3 509.7 363.7 509.7 338.7 484.7V484.7z"/></svg>