<svg xmlns="http://www.w3.org/2000/svg" viewBox="0 0 512 512"><!--! Font Awesome Pro 6.0.0-beta3 by @fontawesome - https://fontawesome.com License - https://fontawesome.com/license (Commercial License) Copyright 2021 Fonticons, Inc. --><path d="M511.1 69.79c0-11.26-4.295-22.52-12.89-31.11L473.3 12.89c-8.592-8.592-19.85-12.89-31.11-12.89c-11.26 0-22.52 4.296-31.11 12.89L215.7 208.3c-3.072 3.072-5.164 6.984-6.016 11.24L192.2 306.8C192.1 307.6 191.1 308.3 191.1 309c0 6.012 4.953 10.96 10.97 10.96c.7187 0 1.453-.0713 2.198-.2197l87.29-17.46c4.258-.8516 8.168-2.945 11.24-6.016l195.4-195.4C507.7 92.31 511.1 81.05 511.1 69.79zM476.5 78.28l-193.3 193.3L229.8 282.2l10.69-53.43l193.3-193.3c3.059-3.059 6.629-3.516 8.484-3.516c1.857 0 5.428 .457 8.486 3.516l25.79 25.79C479.5 64.36 480 67.93 480 69.79S479.5 75.22 476.5 78.28zM256 464c-114.7 0-208-93.31-208-208S141.3 48 256 48c22.49 0 44.11 3.695 64.41 10.33l24.91-24.91C317.7 22.28 287.6 16 256 16C123.7 16 16 123.7 16 256s107.7 240 240 240c8.844 0 16-7.156 16-16S264.8 464 256 464zM453.7 191.6C460.3 211.9 464 233.5 464 256c0 61.75-50.25 112-112 112c-29.19 0-55.57-11.49-75.53-29.85l-36.44 7.283C266.4 378.4 306.6 400 352 400c79.41 0 144-64.59 144-144c0-31.57-6.284-61.67-17.41-89.31L453.7 191.6z"/></svg>