<svg xmlns="http://www.w3.org/2000/svg" viewBox="0 0 640 512"><!--! Font Awesome Pro 6.0.0-beta3 by @fontawesome - https://fontawesome.com License - https://fontawesome.com/license (Commercial License) Copyright 2021 Fonticons, Inc. --><path d="M560 256C551.2 256 544 263.2 544 272V448c0 17.67-14.33 32-32 32H64c-17.67 0-32-14.33-32-32V192c0-17.67 14.33-32 32-32h240C312.8 160 320 152.8 320 144S312.8 128 304 128H63.1C28.65 128 0 156.7 0 192v256c0 35.35 28.65 64 63.1 64h447.1c35.35 0 63.1-28.65 63.1-63.1L576 272C576 263.2 568.8 256 560 256zM640 76.14c0-12.28-4.686-24.57-14.06-33.94l-28.13-28.14C588.4 4.688 576.2 0 563.9 0s-24.57 4.688-33.94 14.06l-207.5 207.5C313.5 230.5 307.4 241.9 304.9 254.3l-16.66 83.35c-.162 .8104-.2393 1.612-.2393 2.396C288 346.6 293.4 352 299.1 352c.7852 0 1.586-.0781 2.398-.2402l83.35-16.67c12.39-2.479 23.77-8.566 32.7-17.5l207.5-207.5C635.3 100.7 640 88.42 640 76.14zM395.8 294.1c-4.48 4.48-10.13 7.506-16.35 8.748L325.5 314.5l10.78-53.93c1.244-6.219 4.27-11.88 8.754-16.36l146.3-146.3l50.76 50.76L395.8 294.1zM603.3 87.45l-38.62 38.62l-50.76-50.76l38.62-38.62C556.6 32.61 561.4 32 563.9 32s7.236 .6094 11.31 4.686l28.13 28.14C607.4 68.9 608 73.66 608 76.14C608 78.61 607.4 83.38 603.3 87.45zM104 320c0 13.25 10.75 24 24 24S152 333.3 152 320c0-13.26-10.75-24-24-24S104 306.7 104 320zM200 320c0 13.25 10.75 24 24 24S248 333.3 248 320c0-13.26-10.75-24-24-24S200 306.7 200 320z"/></svg>