<svg xmlns="http://www.w3.org/2000/svg" viewBox="0 0 512 512"><!--! Font Awesome Pro 6.0.0-beta3 by @fontawesome - https://fontawesome.com License - https://fontawesome.com/license (Commercial License) Copyright 2021 Fonticons, Inc. --><path d="M432 320c-8.836 0-16 7.164-16 16V448c0 17.67-14.33 32-32 32H64c-17.67 0-32-14.33-32-32V128c0-17.67 14.33-32 32-32h112C184.8 96 192 88.84 192 80S184.8 64 176 64H63.1C28.65 64 0 92.65 0 128v320c0 35.35 28.65 64 63.1 64h319.1c35.35 0 63.1-28.65 63.1-64L448 336C448 327.2 440.8 320 432 320zM497.9 42.19l-28.13-28.14c-9.373-9.373-21.66-14.06-33.94-14.06s-24.57 4.688-33.94 14.06L162.4 253.6C153.5 262.5 147.4 273.9 144.9 286.3l-16.66 83.35c-1.516 7.584 4.378 14.36 11.72 14.36c.7852 0 1.586-.0764 2.399-.2385l83.35-16.67c12.39-2.479 23.77-8.566 32.7-17.5l239.5-239.5C516.7 91.33 516.7 60.94 497.9 42.19zM235.8 326.1c-4.48 4.48-10.13 7.506-16.35 8.748l-53.93 10.79L176.3 292.6c1.244-6.219 4.27-11.88 8.754-16.36l178.3-178.3l50.76 50.76L235.8 326.1zM475.3 87.45l-38.62 38.62l-50.76-50.76l38.62-38.62c4.076-4.076 8.838-4.686 11.31-4.686s7.236 .6094 11.31 4.686l28.13 28.14C479.4 68.9 480 73.66 480 76.14C480 78.61 479.4 83.37 475.3 87.45z"/></svg>