<svg xmlns="http://www.w3.org/2000/svg" viewBox="0 0 512 512"><!--! Font Awesome Pro 6.0.0-beta3 by @fontawesome - https://fontawesome.com License - https://fontawesome.com/license (Commercial License) Copyright 2021 Fonticons, Inc. --><path d="M496 73.72l-58.23-58.3C427.5 5.12 413.3 0 399.2 0c-14.15 0-28.26 5.118-38.42 15.29L283.8 88.51L138 134.4C115.8 140.7 98.11 157.6 90.63 179.1L.2983 501.8c-.7812 2.801 0 5.786 2.047 7.837C3.861 511.2 5.908 512 8.001 512c.7187 0 1.453-.0939 2.172-.297l321.8-90.55c22.02-7.383 38.92-25.14 45.16-47.24l45.86-146l72.1-76.9C506.3 140.7 512 126.1 512 112.4C512 97.75 506.3 84.03 496 73.72zM346.4 365.2c-3.385 12.01-12.56 21.57-23.02 25.12l-249.2 70.11l101.5-101.5C185.2 364.6 196.2 368 208 368c35.3 0 64-28.7 64-64s-28.7-64-64-64s-64 28.7-64 64c0 11.83 3.447 22.79 9.066 32.31l-101.6 101.6l69.51-247.8C125.1 177.9 134.7 168.6 147.7 164.9l141.9-44.67l101.7 101.7L346.4 365.2zM176 304c0-17.64 14.36-32 32-32s32 14.36 32 32s-14.36 32-32 32S176 321.6 176 304zM472.8 128.1L409.9 195.3l-93.55-93.55l67.05-63.81C387.1 34.15 392.9 32 399.2 32c6.326 0 12.15 2.201 15.99 6.041l58.23 58.3C477.7 100.7 480 106.2 480 112.4C480 118.5 477.7 124.1 472.8 128.1z"/></svg>