<svg xmlns="http://www.w3.org/2000/svg" viewBox="0 0 512 512"><!--! Font Awesome Pro 6.0.0-beta3 by @fontawesome - https://fontawesome.com License - https://fontawesome.com/license (Commercial License) Copyright 2021 Fonticons, Inc. --><path d="M493.2 56.26l-37.51-37.51c-12.5-12.5-28.88-18.75-45.26-18.75c-16.38 0-32.76 6.248-45.26 18.75L34.46 349.5l-8.752 16.35l-25.4 126.1C-1.717 502.1 6.143 512 15.93 512c1.047 0 2.115-.1045 3.197-.3193l126.1-25.4l16.35-8.75L493.3 146.7C518.3 121.7 518.2 81.26 493.2 56.26zM143.2 451.6l-7.996 4.279l-98.78 19.76l19.75-98.79l4.279-7.998l254.9-254.9l82.76 82.76L143.2 451.6zM470.6 124.1l-49.93 49.93l-82.77-82.77l49.93-49.93C393.9 35.33 401.9 32 410.5 32c8.547 0 16.58 3.328 22.63 9.373L470.6 78.89C476.7 84.93 480 92.97 480 101.5C480 110.1 476.7 118.1 470.6 124.1zM101.5 237.3L124.1 214.6L36.69 127.2c-6.238-6.238-6.238-16.39 0-22.63l67.88-67.88c6.238-6.238 16.39-6.238 22.63 0l33.94 33.94L115.8 115.9c-6.254 6.254-6.214 16.4 .0395 22.66s16.37 6.254 22.63 0l45.25-45.26L214.6 124.1l22.63-22.63L149.8 14.06c-18.75-18.75-49.14-18.75-67.88 0L14.06 81.94c-18.74 18.74-18.74 49.14 0 67.88L101.5 237.3zM410.5 274.8L387.9 297.4l30.86 30.86l-45.26 45.25c-6.254 6.254-6.254 16.37 0 22.63c6.252 6.254 16.42 6.302 22.68 .0478l45.21-45.3l33.94 33.94c6.238 6.238 6.236 16.39-.002 22.63l-67.88 67.88c-6.238 6.238-16.39 6.238-22.63 0l-87.42-87.43l-22.63 22.62l87.43 87.43c18.74 18.74 49.14 18.74 67.88 0l67.88-67.88c18.75-18.74 18.75-49.14 .002-67.88L410.5 274.8z"/></svg>