<svg xmlns="http://www.w3.org/2000/svg" viewBox="0 0 576 512"><!--! Font Awesome Pro 6.1.1 by @fontawesome - https://fontawesome.com License - https://fontawesome.com/license (Commercial License) Copyright 2022 Fonticons, Inc. --><path d="M400 143.1C454.3 143.1 501.9 107.8 516.4 55.51L528.6 11.71C530.9 3.2 539.8-1.784 548.3 .5803C556.8 2.945 561.8 11.76 559.4 20.28L547.3 64.07C534.9 108.4 503.8 143.6 464 161.1V495.1C464 504.8 456.8 511.1 448 511.1C439.2 511.1 432 504.8 432 495.1V351.1H368V495.1C368 504.8 360.8 511.1 352 511.1C343.2 511.1 336 504.8 336 495.1V161.1C296.2 143.6 265.1 108.4 252.7 64.07L240.6 20.28C238.2 11.76 243.2 2.945 251.7 .58C260.2-1.785 269.1 3.2 271.4 11.71L283.6 55.51C298.1 107.8 345.7 143.1 400 143.1V143.1zM400 175.1C389.1 175.1 378.4 174.8 368 172.6V319.1H432V172.6C421.6 174.8 410.9 175.1 400 175.1V175.1zM140.8 171.7L191.1 239.1H239.1C248.8 239.1 255.1 247.2 255.1 255.1C255.1 264.8 248.8 271.1 239.1 271.1H183.1C178.1 271.1 174.2 269.6 171.2 265.6L115.2 190.9C108.1 181.5 97.08 175.1 85.33 175.1C64.71 175.1 47.1 192.7 48 213.3L48 319.1H112V279.1C112 271.2 119.2 263.1 128 263.1C136.8 263.1 144 271.2 144 279.1V495.1C144 504.8 136.8 511.1 128 511.1C119.2 511.1 112 504.8 112 495.1V351.1H48L48 495.1C48 504.8 40.84 511.1 32 511.1C23.17 511.1 16 504.8 16 495.1L16 213.3C15.1 175 47.04 143.1 85.33 143.1C107.2 143.1 127.7 154.3 140.8 171.7V171.7zM24 55.1C24 25.07 49.08-.0034 80-.0034C110.9-.0034 136 25.07 136 55.1C136 86.92 110.9 111.1 80 111.1C49.08 111.1 24 86.92 24 55.1zM80 79.1C93.26 79.1 104 69.25 104 55.1C104 42.74 93.26 31.1 80 31.1C66.75 31.1 56 42.74 56 55.1C56 69.25 66.75 79.1 80 79.1zM456 55.1C456 86.92 430.9 111.1 400 111.1C369.1 111.1 344 86.92 344 55.1C344 25.07 369.1-.0034 400-.0034C430.9-.0034 456 25.07 456 55.1zM400 31.1C386.7 31.1 376 42.74 376 55.1C376 69.25 386.7 79.1 400 79.1C413.3 79.1 424 69.25 424 55.1C424 42.74 413.3 31.1 400 31.1V31.1z"/></svg>