<svg xmlns="http://www.w3.org/2000/svg" viewBox="0 0 640 512"><!--! Font Awesome Pro 6.1.1 by @fontawesome - https://fontawesome.com License - https://fontawesome.com/license (Commercial License) Copyright 2022 Fonticons, Inc. --><path d="M479.1 112c30.88 0 55.1-25.12 55.1-56S510.9 0 479.1 0c-30.87 0-56 25.12-56 56S449.1 112 479.1 112zM479.1 32c13.22 0 24 10.77 24 24s-10.78 24-24 24s-24-10.77-24-24S466.8 32 479.1 32zM160 112c30.87 0 55.1-25.12 55.1-56S190.9 0 160 0C129.1 0 104 25.12 104 56S129.1 112 160 112zM160 32c13.22 0 23.1 10.77 23.1 24S173.2 80 160 80s-24-10.77-24-24S146.8 32 160 32zM208 240c-8.844 0-16 7.156-16 16v80h-63.1V256c0-8.844-7.156-16-15.1-16c-8.844 0-16 7.156-16 16v240c0 8.844 7.156 16 16 16c8.842 0 15.1-7.156 15.1-16v-128h63.1v128c0 8.844 7.156 16 16 16s16-7.156 16-16V256C224 247.2 216.8 240 208 240zM534.3 248.8c-3.969-7.922-13.53-11.09-21.47-7.156c-7.906 3.953-11.09 13.56-7.156 21.47L558.1 368h-156.2l52.44-104.8c3.938-7.906 .75-17.52-7.154-21.47c-7.906-3.906-17.47-.7344-21.47 7.156l-63.1 128c-2.469 4.953-2.219 10.84 .6875 15.56C365.3 397.1 370.5 400 375.1 400h39.1v96c0 8.844 7.156 16 16 16s16-7.156 16-16v-96h63.1v96c0 8.844 7.154 16 15.1 16s16-7.156 16-16v-96h39.1c5.531 0 10.69-2.875 13.62-7.594c2.906-4.719 3.156-10.61 .6875-15.56L534.3 248.8zM613.1 280.2l-61.72-111.1C538.2 143.8 511.4 128 482.3 128h-4.688c-29.03 0-55.84 15.77-69.94 41.16L345.1 280.2c-4.281 7.719-1.5 17.45 6.219 21.75c7.625 4.25 17.44 1.547 21.78-6.219l61.72-111.1C444.2 169.5 460.2 160 477.7 160h4.688c17.44 0 33.5 9.453 41.94 24.69l61.72 111.1C588.9 301 594.4 304 599.1 304c2.656 0 5.312-.6406 7.781-2.016C615.5 297.7 618.3 287.1 613.1 280.2zM240.3 169.2C226.2 143.8 199.4 128 170.3 128H149.7C120.6 128 93.82 143.8 79.73 169.2L18.01 280.2c-4.281 7.719-1.5 17.45 6.219 21.75C31.85 306.2 41.67 303.5 46.01 295.8l61.72-111.1C116.2 169.5 132.2 160 149.7 160h20.69c17.44 0 33.5 9.453 41.94 24.69L274 295.8C276.9 301 282.4 304 288 304c2.656 0 5.312-.6406 7.781-2.016c7.717-4.297 10.5-14.03 6.216-21.75L240.3 169.2z"/></svg>