<svg xmlns="http://www.w3.org/2000/svg" viewBox="0 0 576 512"><!--! Font Awesome Pro 6.1.1 by @fontawesome - https://fontawesome.com License - https://fontawesome.com/license (Commercial License) Copyright 2022 Fonticons, Inc. --><path d="M446.8 310.1c1.617-3.91 1.617-8.309 0-12.22c-.8145-1.969-1.992-3.742-3.477-5.223l-63.98-63.98c-6.25-6.25-16.38-6.25-22.62 0s-6.25 16.38 0 22.62L393.4 288H182.6l36.69-36.69c6.25-6.25 6.25-16.38 0-22.62s-16.38-6.25-22.62 0L132.7 292.7C131.2 294.1 130 295.9 129.2 297.9c-1.617 3.91-1.617 8.309 0 12.22C130 312.1 131.2 313.9 132.7 315.3l63.98 63.98C199.8 382.4 203.9 384 208 384s8.188-1.562 11.31-4.688c6.25-6.25 6.25-16.38 0-22.62L182.6 320h210.8l-36.69 36.69c-6.25 6.25-6.25 16.38 0 22.62C359.8 382.4 363.9 384 368 384s8.188-1.562 11.31-4.688l63.98-63.98C444.8 313.9 445.1 312.1 446.8 310.1zM96 128c35.38 0 64-28.62 64-64S131.4 0 96 0S32 28.62 32 64S60.63 128 96 128zM96 32c17.64 0 32 14.36 32 32S113.6 96 96 96S64 81.64 64 64S78.36 32 96 32zM144 384C135.2 384 128 391.2 128 400v96C128 504.8 135.2 512 144 512S160 504.8 160 496v-96C160 391.2 152.8 384 144 384zM137.8 216.3C142.3 223.7 151.9 226.2 159.4 221.8c7.656-4.422 10.28-14.2 5.844-21.86C151 175.3 124.5 160 96 160H80C35.82 160 0 195.8 0 240V320c0 17.67 14.33 32 31.1 32L32 496C32 504.8 39.16 512 48 512S64 504.8 64 496v-160C64 327.2 56.84 320 48 320H32V240c0-26.51 21.49-47.1 48-47.1l19.27 0C115.7 192 129.2 202.2 137.8 216.3zM480 128c35.38 0 64-28.62 64-64s-28.62-64-64-64s-64 28.62-64 64S444.6 128 480 128zM480 32c17.64 0 32 14.36 32 32s-14.36 32-32 32s-32-14.36-32-32S462.4 32 480 32zM432 384c-8.844 0-16 7.156-16 16v96c0 8.844 7.156 16 16 16s16-7.156 16-16v-96C448 391.2 440.8 384 432 384zM496 160H480c-28.47 0-55.03 15.31-69.28 39.97c-4.438 7.656-1.812 17.44 5.844 21.86c7.499 4.413 17.16 1.908 21.68-5.544c8.507-14.05 22.01-24.28 38.43-24.28L496 192C522.5 192 544 213.5 544 240V320h-16c-8.837 0-16 7.163-16 16v160c0 8.844 7.156 16 16 16s16-7.156 16-16V352c17.67 0 32-14.33 32-32V240C576 195.8 540.2 160 496 160z"/></svg>