<svg xmlns="http://www.w3.org/2000/svg" viewBox="0 0 512 512"><!--! Font Awesome Pro 6.0.0-beta3 by @fontawesome - https://fontawesome.com License - https://fontawesome.com/license (Commercial License) Copyright 2021 Fonticons, Inc. --><path d="M413.4 356.9c-73.86 77.07-204.7 123.1-350.1 123.1C46.06 479.1 32 466.5 32 449.1c0-16.55 14.06-30.02 31.34-30.02c112.1 0 153.5-91.36 186.8-164.9c9.094-20.05 17.67-38.99 27-54.99c4.453-7.625 1.891-17.42-5.75-21.88C263.8 173.8 253.1 176.3 249.5 183.9C239.3 201.3 230.4 220.1 220.9 241.1c-32.48 71.75-66.08 145.1-157.6 145.1C28.42 387.1 0 415.8 0 449.1S28.42 512 63.34 512c153.9 0 293.4-49.69 373.2-132.9c6.125-6.391 5.906-16.52-.4687-22.63C429.6 350.4 419.5 350.6 413.4 356.9zM481.2 161.2c-4.422-6.004-9.727-11.74-15.8-17.32c18.84-43.01 17.96-92.83-3.125-135c-3.969-7.891-13.55-11.06-21.47-7.156c-7.906 3.953-11.11 13.56-7.156 21.47c15.66 31.31 16.71 67.72 4.818 100.3l-1.459-.959c-22.52-14.83-45.06-23.5-67.08-25.75c-37.25-3.703-76.39 6.656-107.3 28.63c-4.719 3.359-7.25 8.985-6.625 14.73c.6094 5.75 4.281 10.72 9.609 13l64.11 27.49v81.58c0 8.844 7.156 16 16 16h81.53l27.48 64.13c2.281 5.313 7.25 8.985 13 9.594c.5781 .0625 1.141 .0938 1.703 .0938c5.141 0 10.02-2.484 13.05-6.735C501.8 318.2 512 286.7 512 254.3C512 220.6 501.4 188.4 481.2 161.2zM471.3 299.5l-16.38-38.2C451 252.1 442 246.2 432 246.2h-70.19V175.1c0-9.953-5.906-18.95-15.12-22.94l-38.03-16.31c18.47-7.188 38.55-10.13 58.08-8.11c16.8 1.719 34.55 8.657 52.72 20.63l5.672 3.735c13.5 8.891 23.42 17.78 30.34 27.19C471.5 201.9 480 227.5 480 254.3C480 269.8 477 285.1 471.3 299.5z"/></svg>