<svg xmlns="http://www.w3.org/2000/svg" viewBox="0 0 640 512"><!--! Font Awesome Pro 6.1.1 by @fontawesome - https://fontawesome.com License - https://fontawesome.com/license (Commercial License) Copyright 2022 Fonticons, Inc. --><path d="M448 56C448 86.93 422.9 112 392 112C361.1 112 336 86.93 336 56C336 25.07 361.1 0 392 0C422.9 0 448 25.07 448 56zM392 32C378.7 32 368 42.75 368 56C368 69.25 378.7 80 392 80C405.3 80 416 69.25 416 56C416 42.75 405.3 32 392 32zM82.5 376C82.5 346.5 106.5 322.5 136 322.5C165.5 322.5 189.5 346.5 189.5 376C189.5 405.5 165.5 429.5 136 429.5C106.5 429.5 82.5 405.5 82.5 376L82.5 376zM135.1 354.5C124.1 354.5 114.5 364.1 114.5 376C114.5 387.9 124.1 397.5 136 397.5C147.9 397.5 157.5 387.9 157.5 376C157.5 364.1 147.9 354.5 136 354.5L135.1 354.5zM94.04 262.5C100.5 249.2 114.2 240 129.1 240H141.1C157.8 240 171.5 249.2 177.1 262.5C180.9 263.6 183.8 264.8 186.6 266.1C200.6 261.2 216.7 264.4 227.9 275.6L236.4 284.1C247.6 295.3 250.8 311.4 245.9 325.4C247.2 328.2 248.4 331.1 249.5 334C262.8 340.5 271.1 354.2 271.1 370V382C271.1 397.8 262.8 411.5 249.5 417.1C248.4 420.9 247.2 423.8 245.9 426.6C250.8 440.6 247.6 456.7 236.4 467.9L227.9 476.4C216.7 487.6 200.6 490.8 186.6 485.9C183.8 487.2 180.9 488.4 177.1 489.5C171.5 502.8 157.8 512 142 512H130C114.2 512 100.5 502.8 94.04 489.5C91.1 488.4 88.23 487.2 85.41 485.9C71.4 490.8 55.26 487.6 44.08 476.4L35.59 467.9C24.41 456.7 21.24 440.6 26.06 426.6C24.76 423.8 23.56 420.9 22.48 417.1C9.17 411.5 0 397.8 0 382V370C0 354.2 9.17 340.5 22.48 334C23.56 331.1 24.76 328.2 26.06 325.4C21.24 311.4 24.41 295.3 35.59 284.1L44.08 275.6C55.26 264.4 71.4 261.2 85.41 266.1C88.23 264.8 91.1 263.6 94.04 262.5H94.04zM129.1 272C126.1 272 122.9 274.7 122.2 278.4L120.2 287.9L110.1 290.6C104.8 292.4 98.86 294.8 93.3 297.9L84.82 302.5L76.76 297.2C73.66 295.1 69.43 295.5 66.7 298.2L58.22 306.7C55.49 309.4 55.13 313.7 57.19 316.8L62.54 324.8L57.89 333.3C54.84 338.9 52.37 344.8 50.56 350.1L47.85 360.2L38.38 362.2C34.74 362.9 31.1 366.1 31.1 370V382C31.1 385.9 34.74 389.1 38.38 389.8L47.85 391.8L50.56 401C52.37 407.2 54.84 413.1 57.89 418.7L62.54 427.2L57.19 435.2C55.13 438.3 55.49 442.6 58.22 445.3L66.7 453.8C69.43 456.5 73.66 456.9 76.76 454.8L84.82 449.5L93.3 454.1C98.86 457.2 104.8 459.6 110.1 461.4L120.2 464.1L122.2 473.6C122.9 477.3 126.1 480 129.1 480H141.1C145.9 480 149.1 477.3 149.8 473.6L151.8 464.1L161 461.4C167.2 459.6 173.1 457.2 178.7 454.1L187.2 449.5L195.2 454.8C198.3 456.9 202.6 456.5 205.3 453.8L213.8 445.3C216.5 442.6 216.9 438.3 214.8 435.2L209.5 427.2L214.1 418.7C217.2 413.1 219.6 407.2 221.4 401L224.1 391.8L233.6 389.8C237.3 389.1 239.1 385.9 239.1 382V370C239.1 366.1 237.3 362.9 233.6 362.2L224.1 360.2L221.4 350.1C219.6 344.8 217.2 338.9 214.1 333.3L209.5 324.8L214.8 316.8C216.9 313.7 216.5 309.4 213.8 306.7L205.3 298.2C202.6 295.5 198.3 295.1 195.2 297.2L187.2 302.5L178.7 297.9C173.1 294.8 167.2 292.4 161 290.6L151.8 287.9L149.8 278.4C149.1 274.7 145.9 271.1 141.1 271.1L129.1 272zM450.5 376C450.5 346.5 474.5 322.5 504 322.5C533.5 322.5 557.5 346.5 557.5 376C557.5 405.5 533.5 429.5 504 429.5C474.5 429.5 450.5 405.5 450.5 376L450.5 376zM504 354.5C492.1 354.5 482.5 364.1 482.5 376C482.5 387.9 492.1 397.5 504 397.5C515.9 397.5 525.5 387.9 525.5 376C525.5 364.1 515.9 354.5 504 354.5L504 354.5zM462 262.5C468.5 249.2 482.2 240 498 240H510C525.8 240 539.5 249.2 545.1 262.5C548.9 263.6 551.8 264.8 554.6 266.1C568.6 261.2 584.7 264.4 595.9 275.6L604.4 284.1C615.6 295.3 618.8 311.4 613.9 325.4C615.2 328.2 616.4 331.1 617.5 334C630.8 340.5 640 354.2 640 370V382C640 397.8 630.8 411.5 617.5 417.1C616.4 420.9 615.2 423.8 613.9 426.6C618.8 440.6 615.6 456.7 604.4 467.9L595.9 476.4C584.7 487.6 568.6 490.8 554.6 485.9C551.8 487.2 548.9 488.4 545.1 489.5C539.5 502.8 525.8 512 510 512H498C482.2 512 468.5 502.8 462 489.5C459.1 488.4 456.2 487.2 453.4 485.9C439.4 490.8 423.3 487.6 412.1 476.4L403.6 467.9C392.4 456.7 389.2 440.6 394.1 426.6C392.8 423.8 391.6 420.9 390.5 417.1C377.2 411.5 368 397.8 368 382V370C368 354.2 377.2 340.5 390.5 334C391.6 331.1 392.8 328.2 394.1 325.4C389.2 311.4 392.4 295.3 403.6 284.1L412.1 275.6C423.3 264.4 439.4 261.2 453.4 266.1C456.2 264.8 459.1 263.6 462 262.5H462zM498 272C494.1 272 490.9 274.7 490.2 278.4L488.2 287.9L478.1 290.6C472.8 292.4 466.9 294.8 461.3 297.9L452.8 302.5L444.8 297.2C441.7 295.1 437.4 295.5 434.7 298.2L426.2 306.7C423.5 309.4 423.1 313.7 425.2 316.8L430.5 324.8L425.9 333.3C422.8 338.9 420.4 344.8 418.6 350.1L415.9 360.2L406.4 362.2C402.7 362.9 400 366.1 400 370V382C400 385.9 402.7 389.1 406.4 389.8L415.9 391.8L418.6 401C420.4 407.2 422.8 413.1 425.9 418.7L430.5 427.2L425.2 435.2C423.1 438.3 423.5 442.6 426.2 445.3L434.7 453.8C437.4 456.5 441.7 456.9 444.8 454.8L452.8 449.5L461.3 454.1C466.9 457.2 472.8 459.6 478.1 461.4L488.2 464.1L490.2 473.6C490.9 477.3 494.1 480 498 480H510C513.9 480 517.1 477.3 517.8 473.6L519.8 464.1L529 461.4C535.2 459.6 541.1 457.2 546.7 454.1L555.2 449.5L563.2 454.8C566.3 456.9 570.6 456.5 573.3 453.8L581.8 445.3C584.5 442.6 584.9 438.3 582.8 435.2L577.5 427.2L582.1 418.7C585.2 413.1 587.6 407.2 589.4 401L592.1 391.8L601.6 389.8C605.3 389.1 608 385.9 608 382V370C608 366.1 605.3 362.9 601.6 362.2L592.1 360.2L589.4 350.1C587.6 344.8 585.2 338.9 582.1 333.3L577.5 324.8L582.8 316.8C584.9 313.7 584.5 309.4 581.8 306.7L573.3 298.2C570.6 295.5 566.3 295.1 563.2 297.2L555.2 302.5L546.7 297.9C541.1 294.8 535.2 292.4 529 290.6L519.8 287.9L517.8 278.4C517.1 274.7 513.9 271.1 510 271.1L498 272zM330.2 166.7C324.2 161.3 315.2 161.2 309.1 166.4L250 217.1C242 223.9 242.7 236.4 251.4 242.4L345.1 306.8C349.4 309.8 352 314.7 352 320V416C352 424.8 344.8 432 336 432C327.2 432 320 424.8 320 416V328.4L233.2 268.8C207.3 250.9 205.3 213.3 229.2 192.8L288.2 142.1C306.6 126.4 333.7 126.8 351.6 142.9L406.1 192H480C488.8 192 496 199.2 496 208C496 216.8 488.8 224 480 224H400C396 224 392.2 222.5 389.3 219.9L330.2 166.7zM273.6 114.1L179.3 200.2C172.8 205.1 162.1 205.6 156.1 199.4L108.7 149.1C102.2 142.4 102.8 131.6 109.1 125.7L172.8 73.54C197.6 52.92 233.9 54.02 257.5 76.1L273.8 91.45C280.7 97.86 280.6 108.7 273.6 114.1H273.6zM169.3 166L239.3 102.9L235.6 99.44C223.8 88.4 205.7 87.85 193.2 98.16L143.7 139.3L169.3 166z"/></svg>