<svg xmlns="http://www.w3.org/2000/svg" viewBox="0 0 640 512"><!--! Font Awesome Pro 6.1.1 by @fontawesome - https://fontawesome.com License - https://fontawesome.com/license (Commercial License) Copyright 2022 Fonticons, Inc. --><path d="M240 0C248.8 0 256 7.164 256 16V26.81C256 82.25 226.8 132.6 180.8 160.5L248.1 263.1L307.4 257.2C320.6 255.9 333.3 262.8 339.2 274.7L382.3 360.8C386.3 368.7 383.1 378.4 375.2 382.3C367.3 386.3 357.6 383.1 353.7 375.2L310.6 289L246.2 295.5L188.7 340.1L285.4 487.2C290.2 494.6 288.2 504.5 280.8 509.4C273.4 514.2 263.5 512.2 258.6 504.8L79.76 232.6C69.65 250.7 63.1 271.5 63.1 293.2V367.1C63.1 376.8 56.84 383.1 47.1 383.1C39.16 383.1 31.1 376.8 31.1 367.1V293.2C31.1 225.9 75.08 166.1 138.9 144.8C142.1 143.8 145.2 142.6 148.2 141.3C148.4 141.2 148.6 141 148.8 140.9C150.5 139.8 152.2 139.1 154 138.7C196.4 118.1 223.1 74.86 223.1 26.81V16C223.1 7.164 231.2 0 239.1 0L240 0zM171.1 313.3L218.5 276.4L151.6 174.3C150.7 174.6 149.9 174.9 149.1 175.2C130.1 181.5 113.5 192 100.1 205.5C100.6 206.1 100.1 206.6 101.4 207.2L171.1 313.3zM0 88C0 57.07 25.07 32 56 32C86.93 32 112 57.07 112 88C112 118.9 86.93 144 56 144C25.07 144 0 118.9 0 88zM56 112C69.25 112 80 101.3 80 88C80 74.75 69.25 64 56 64C42.75 64 32 74.75 32 88C32 101.3 42.75 112 56 112zM464 291.5L406.1 338.7L379.4 283.4L379.1 251L358.6 246.5C345.4 231.6 325.7 223.4 305.2 225.1L293.4 226.1C292.1 225.1 292.6 224.2 292.4 223.2C291 217.1 293.3 210.7 298.3 206.9L359.2 160.1L324.6 91.44C321.8 85.86 322.5 79.15 326.4 74.27C330.3 69.38 336.7 67.21 342.7 68.71L417.4 87.16L449.5 17.32C452.1 11.64 457.8 7.1 464 7.1C470.3 7.1 475.9 11.64 478.5 17.32L510.6 87.16L585.3 68.71C591.3 67.21 597.7 69.38 601.6 74.27C605.5 79.15 606.2 85.86 603.4 91.44L568.8 160.1L629.7 206.9C634.7 210.7 636.1 217.1 635.6 223.2C634.2 229.3 629.4 233.1 623.3 235.3L548 251L549.4 327.9C549.5 334.1 545.1 339.9 540.4 342.6C534.7 345.3 528 344.5 523.2 340.5L464 291.5zM464 62.31L440.9 112.5C437.7 119.5 429.1 123.2 422.5 121.4L368.9 108.1L393.7 157.5C397.2 164.4 395.3 172.7 389.2 177.4L345.4 211.1L399.5 222.4C406.1 223.1 412.3 230.7 412.2 238.4L411.2 293.6L453.8 258.4C459.7 253.5 468.3 253.5 474.2 258.4L516.8 293.6L515.8 238.4C515.7 230.7 521 223.1 528.5 222.4L582.6 211.1L538.8 177.4C532.7 172.7 530.8 164.4 534.3 157.5L559.1 108.1L505.5 121.4C498 123.2 490.3 119.5 487.1 112.5L464 62.31z"/></svg>