<svg xmlns="http://www.w3.org/2000/svg" viewBox="0 0 448 512"><!--! Font Awesome Pro 6.1.1 by @fontawesome - https://fontawesome.com License - https://fontawesome.com/license (Commercial License) Copyright 2022 Fonticons, Inc. --><path d="M231.6 180.9C211 157.5 181.4 144 150.2 144c-39.23 0-75.45 21.31-94.52 55.61L2.016 296.2C-2.281 303.1 .5 313.7 8.234 317.1C10.69 319.4 13.36 320 15.98 320c5.625 0 11.08-2.969 14-8.234l53.67-96.61C87.05 209.1 91.23 203.6 96 198.7V256c0 25.03 11.95 48.97 32 64l96 72l.0056 103.1C224 504.8 231.2 512 240 512s16-7.156 16-16V384c0-5.031-2.375-9.781-6.406-12.8l-102.4-76.8C135.2 285.4 128 271 128 256V179.6C135.1 177.4 142.5 176 150.2 176c21.94 0 42.83 9.469 57.28 25.98l84.47 96.55c5.828 6.656 15.92 7.328 22.58 1.516c6.656-5.828 7.328-15.94 1.516-22.58L231.6 180.9zM152 112c30.88 0 56-25.12 56-56S182.9 0 152 0S96 25.12 96 56S121.1 112 152 112zM152 32C165.2 32 176 42.77 176 56S165.2 80 152 80S128 69.23 128 56S138.8 32 152 32zM115.9 352.5c-8.641-2.234-17.27 3.062-19.39 11.64l-32 128c-2.156 8.562 3.062 17.25 11.64 19.39C77.42 511.8 78.73 512 80.02 512c7.172 0 13.69-4.844 15.5-12.12l32-128C129.7 363.3 124.5 354.6 115.9 352.5zM445.7 487.8l-96-160c-4.547-7.578-14.34-10.03-21.95-5.484c-7.578 4.547-10.03 14.38-5.484 21.95l96 160c3 5 8.288 7.742 13.73 7.742c2.797 0 5.649-.7109 8.227-2.258C447.8 505.2 450.3 495.3 445.7 487.8z"/></svg>