<svg xmlns="http://www.w3.org/2000/svg" viewBox="0 0 640 512"><!--! Font Awesome Pro 6.1.1 by @fontawesome - https://fontawesome.com License - https://fontawesome.com/license (Commercial License) Copyright 2022 Fonticons, Inc. --><path d="M312 111.8c30.91 0 56-25.09 56-56s-25.09-56-56-56S256 24.93 256 55.84S281.1 111.8 312 111.8zM312 31.84c13.25 0 24 10.75 24 24s-10.75 24-24 24S288 69.09 288 55.84S298.8 31.84 312 31.84zM560-.1602h-96c-26.5 0-48 21.5-48 48v144c0 8.832 7.168 16 16 16s16-7.168 16-16v-144c0-8.832 7.168-16 16-16h96c8.832 0 16 7.168 16 16v416c0 8.832-7.168 16-16 16h-96c-8.832 0-16-7.168-16-16v-112c0-8.832-7.168-16-16-16s-16 7.168-16 16v112c0 26.5 21.5 48 48 48h96c26.5 0 48-21.5 48-48v-416C608 21.34 586.5-.1602 560-.1602zM448 271.8c0-8.832-7.168-16-16-16h-67.94l-18.21-63.78C337.8 163.9 314.9 142.3 286.3 135.1L251.7 128.3L251.2 128.2L209.4 118.9c-23.65-5.279-48.42 .4805-67.33 15.62L86.02 179.4C79.1 184.9 77.98 194.9 83.52 201.8c5.504 6.912 15.58 8.031 22.46 2.496l56.06-44.83C173.4 150.4 188.3 146.9 202.5 150.1L226.3 155.4L187.2 256.2C178.5 278.4 187.5 303.7 208.4 315.4l80.38 45.22c6.752 3.809 9.824 11.94 7.232 19.26l-39.04 110.7C253.1 498.8 258.3 508 266.7 510.9c8.32 2.943 17.47-1.408 20.42-9.76l39.04-110.6c7.744-21.98-1.408-46.37-21.73-57.82L224 287.5c-6.943-3.904-9.951-12.32-7.039-19.74l40.96-105.3l21.38 4.768c17.22 3.809 30.91 16.74 35.74 33.66l18.24 63.78c3.904 13.73 16.48 23.2 30.75 23.2H432C440.8 287.8 448 280.7 448 271.8zM183.2 321.5c-7.904-3.967-17.54-.7676-21.47 7.137l-23.17 46.34c-2.719 5.408-8.256 8.832-14.3 8.832H48c-8.832 0-16 7.168-16 16s7.168 16 16 16h76.22c18.18 0 34.82-10.27 42.94-26.53l23.14-46.3C194.3 335.1 191.1 325.5 183.2 321.5z"/></svg>