<svg xmlns="http://www.w3.org/2000/svg" viewBox="0 0 576 512"><!--! Font Awesome Pro 6.0.0-beta3 by @fontawesome - https://fontawesome.com License - https://fontawesome.com/license (Commercial License) Copyright 2021 Fonticons, Inc. --><path d="M560 480h-544c-8.844 0-15.1 7.156-15.1 16S7.159 512 16 512h543.1c8.844 0 15.1-7.156 15.1-16S568.8 480 560 480zM287.1 176c48.6 0 87.1-39.4 87.1-88S336.6 0 287.1 0S200 39.4 200 88S239.4 176 287.1 176zM288 32c30.88 0 56 25.12 56 56S318.9 144 288 144S232 118.9 232 88S257.1 32 288 32zM48 352c3.219 0 6.469-.9687 9.312-2.984C58.03 348.5 107.1 314 176 291.4L176 432C176 440.8 183.2 448 192 448s16-7.156 16-16V282.3C233.3 276.1 260.2 272 288 272c27.74 0 54.73 4.107 80 10.28V432c0 8.844 7.156 16 16 16s15.1-7.156 15.1-16L400 291.4c68.81 22.65 117.1 57.09 118.7 57.61c7.219 5.125 17.19 3.406 22.31-3.75c5.125-7.188 3.469-17.17-3.719-22.3C532.6 319.6 419.6 240 288 240s-244.6 79.59-249.3 82.98C31.5 328.1 29.84 338.1 34.97 345.3C38.09 349.7 43.03 352 48 352zM304 368c0 8.836 7.164 16 16 16s16-7.164 16-16c0-8.838-7.164-16-16-16S304 359.2 304 368zM80 256c8.836 0 15.1-7.164 15.1-16c0-8.838-7.164-16-15.1-16S64 231.2 64 240C64 248.8 71.17 256 80 256zM463.1 256c8.836 0 15.1-7.164 15.1-16c0-8.838-7.164-16-15.1-16s-15.1 7.162-15.1 16C447.1 248.8 455.2 256 463.1 256z"/></svg>