<svg xmlns="http://www.w3.org/2000/svg" viewBox="0 0 576 512"><!--! Font Awesome Pro 6.0.0-beta3 by @fontawesome - https://fontawesome.com License - https://fontawesome.com/license (Commercial License) Copyright 2021 Fonticons, Inc. --><path d="M256 128c35.35 0 63.1-28.65 63.1-64s-28.65-64-63.1-64S192 28.65 192 64S220.7 128 256 128zM256 32c17.64 0 31.1 14.36 31.1 32S273.6 96 256 96S224 81.64 224 64S238.4 32 256 32zM215.8 370l-143.1-80C67.44 287.6 62.16 287.3 57.63 289.3c-4.562 1.969-7.937 5.969-9.156 10.8l-47.1 192c-2.125 8.562 3.062 17.25 11.66 19.39C13.44 511.8 14.73 512 16.01 512c7.187 0 13.72-4.844 15.53-12.12l42.94-171.8l117.5 65.31V496c0 8.844 7.156 16 15.1 16s15.1-7.156 15.1-16l-.0041-112C224 378.1 220.8 372.8 215.8 370zM574.2 488.5L482.4 311.5c-7.531-14.14-21.81-22.95-38.22-23.56c-17.37-1.109-31.37 7.141-40.03 20.86l-30.25 49.13l-69.94-37.65c.0313-1.062-.0625-2.141-.2813-3.234L287.8 231.1c-5.937-31.83-25.34-59.5-53.25-75.92L169.9 118.1C144.5 103.1 114.7 98.84 86.04 106C65.01 111.3 47.41 125.4 37.76 144.7L17.69 184.8C13.82 192.6 16.82 201.1 24.41 206.1l332.7 179.1l-7.623 12.38h-27.87c-19.16 0-36.22 11.83-42.44 29.45L256.9 490.6c-1.719 4.891-.9687 10.31 2.031 14.55s7.875 6.75 13.06 6.75h287.1c5.594 0 10.78-2.906 13.66-7.688C576.6 499.4 576.8 493.5 574.2 488.5zM53.26 185.3l13.12-26.25c5.469-10.97 15.47-18.98 27.41-21.97c20.47-5.078 41.78-2.062 59.94 8.656L218.3 183.7c19.94 11.72 33.81 31.47 38.06 54.22l11.84 63.11L53.26 185.3zM294.6 479.9l14.81-42.2c1.688-4.828 6.625-8.078 12.25-8.078h36.78c5.531 0 10.69-2.875 13.62-7.594l59.31-96.31c3.562-5.609 9.406-5.797 11.69-5.812c4.875 .1875 9.062 2.656 11.06 6.469l79.59 153.5H294.6z"/></svg>