<svg xmlns="http://www.w3.org/2000/svg" viewBox="0 0 512 512"><!--! Font Awesome Pro 6.0.0-beta3 by @fontawesome - https://fontawesome.com License - https://fontawesome.com/license (Commercial License) Copyright 2021 Fonticons, Inc. --><path d="M510.5 73.33c-1.781-3.891-5.047-6.891-9.062-8.344l-76.24-27.72l5.789-15.71c3.047-8.297-1.188-17.48-9.484-20.55c-8.25-3.047-17.47 1.188-20.55 9.484l-5.836 15.84l-69.68-25.34c-8.328-3.047-17.38 1.203-20.45 9.406l-48 127.1c-1.5 4-1.328 8.436 .4531 12.31c1.781 3.891 5.047 6.891 9.062 8.344l70.3 25.56l-14.55 39.49L264.2 209.6L222.1 167.4c-15.11-15.11-35.2-23.44-56.58-23.44H133.6c-29.05 0-55.84 15.78-69.94 41.17L2.02 296.2C-2.277 303.1 .5039 313.7 8.238 317.1c2.453 1.375 5.125 2.016 7.75 2.016c5.625 0 11.08-2.969 14-8.234L80.03 221.7l.0547 112.7l-16 159.1c-.875 8.797 5.531 16.64 14.33 17.52C78.96 511.1 79.49 512 80.02 512c8.125 0 15.08-6.156 15.91-14.41l16.08-161.6V181.5c6.629-3.373 13.93-5.488 21.62-5.488h31.86c3.592 0 7.094 .4844 10.52 1.248v142.7c0 2.906 .7813 5.75 2.281 8.234l45.72 76.2V496c0 8.844 7.156 16 16 16s16-7.156 16-16v-95.1c0-2.906-.7813-5.75-2.281-8.234L208 315.6V198.6l36.69 36.69c2.047 2.047 4.625 3.5 7.438 4.203l59.04 14.76l-22.18 60.19c-3.047 8.297 1.188 17.48 9.484 20.55c1.828 .6719 3.688 .9844 5.531 .9844c6.516 0 12.62-4 15.02-10.47l47.89-129.1l75.62 27.5c1.812 .6562 3.656 .9687 5.469 .9687c6.484 0 12.58-3.969 14.98-10.38l48-127.1C512.5 81.64 512.3 77.2 510.5 73.33zM438.6 187.6L292.7 134.5l36.77-98.03l145.9 53.06L438.6 187.6zM136 112c30.88 0 56-25.12 56-55.1c0-30.87-25.12-55.1-56-55.1s-56 25.12-56 55.1C80 86.89 105.1 112 136 112zM136 32.02c13.23 0 24 10.76 24 23.1s-10.77 24-24 24s-24-10.77-24-24S122.8 32.02 136 32.02z"/></svg>