<svg xmlns="http://www.w3.org/2000/svg" viewBox="0 0 576 512"><!--! Font Awesome Pro 6.1.1 by @fontawesome - https://fontawesome.com License - https://fontawesome.com/license (Commercial License) Copyright 2022 Fonticons, Inc. --><path d="M103.1 56C103.1 25.07 129.1 0 159.1 0C190.9 0 215.1 25.07 215.1 56C215.1 86.93 190.9 112 159.1 112C129.1 112 103.1 86.93 103.1 56zM159.1 80C173.3 80 183.1 69.25 183.1 56C183.1 42.75 173.3 32 159.1 32C146.7 32 135.1 42.75 135.1 56C135.1 69.25 146.7 80 159.1 80zM127.1 352V496C127.1 504.8 120.8 512 111.1 512C103.2 512 95.1 504.8 95.1 496V202.1L46.11 295.5C41.95 303.3 32.25 306.3 24.46 302.1C16.67 297.9 13.72 288.3 17.89 280.5L76.73 170.3C90.64 144.3 117.8 128 147.3 128H172.7C202.2 128 229.4 144.3 243.3 170.3L291.9 261.4C284.4 271.2 277.1 281.9 272.6 293.2L224 202.2V496C224 504.8 216.8 512 208 512C199.2 512 192 504.8 192 496V352L127.1 352zM127.1 320H192V164C186 161.4 179.5 160 172.7 160H147.3C140.5 160 133.1 161.4 127.1 164V320zM408 424C408 410.7 418.7 400 432 400C445.3 400 456 410.7 456 424C456 437.3 445.3 448 432 448C418.7 448 408 437.3 408 424zM431.1 288C440.8 288 447.1 295.2 447.1 304V368C447.1 376.8 440.8 384 431.1 384C423.2 384 415.1 376.8 415.1 368V304C415.1 295.2 423.2 288 431.1 288zM576 368C576 447.5 511.5 512 432 512C352.5 512 288 447.5 288 368C288 288.5 352.5 224 432 224C511.5 224 576 288.5 576 368zM432 256C370.1 256 320 306.1 320 368C320 429.9 370.1 480 432 480C493.9 480 544 429.9 544 368C544 306.1 493.9 256 432 256z"/></svg>