<svg xmlns="http://www.w3.org/2000/svg" viewBox="0 0 512 512"><!--! Font Awesome Pro 6.1.1 by @fontawesome - https://fontawesome.com License - https://fontawesome.com/license (Commercial License) Copyright 2022 Fonticons, Inc. --><path d="M507.3 228.7L485.4 206.8c-39.5-39.5-83.81-74.1-131.7-102.8c-7.859-4.735-16.44-8.063-25.48-9.86l-35.14-7.031c-15.95-3.188-29.09-14.13-35.14-29.24l-19.13-47.81c-3.281-8.219-12.64-12.22-20.8-8.922C209.9 4.437 205.9 13.75 209.1 21.95l19.13 47.81c10.08 25.2 31.98 43.42 58.59 48.74l11.64 2.328L241.5 159.9c-20.98 14.98-33.5 39.33-33.5 65.1v51.53L122.9 304.9c-8.375 2.781-12.91 11.84-10.11 20.24c2.234 6.703 8.469 10.94 15.17 10.94c1.672 0 3.375-.2657 5.063-.8282l96-32c6.531-2.172 10.94-8.282 10.94-15.17V224.1c0-15.47 7.516-30.06 19.84-38.88l77.19-52.86c.4766-.3262 .7266-.8242 1.156-1.189c16.04 9.662 31.5 20.23 46.64 31.23L279.8 226.3c-4.563 2.734-7.469 7.578-7.75 12.89c-.2656 5.328 2.125 10.44 6.391 13.63l55.19 41.39l-28.98 101.4c-2.422 8.485 2.5 17.34 11 19.78c1.469 .4062 2.938 .6094 4.406 .6094c6.953 0 13.36-4.578 15.38-11.61l32-112c1.812-6.375-.4844-13.22-5.797-17.19l-44.95-33.72l95.52-57.32c17.6 14.27 34.63 29.25 50.65 45.28l21.88 21.88c3.125 3.125 7.219 4.688 11.31 4.688c4.094 0 8.188-1.563 11.31-4.688C513.6 245.1 513.6 234.1 507.3 228.7zM422.8 113.2c30.88 0 56-25.13 56-56s-25.13-56-56-56c-30.88 0-56 25.13-56 56S391.9 113.2 422.8 113.2zM422.8 33.22c13.23 0 24 10.77 24 24s-10.77 24-24 24c-13.23 0-24-10.77-24-24S409.6 33.22 422.8 33.22zM474.7 473.2c-27.38 9.578-57.28 8.985-84.27-1.625L96.1 356.4c-25.05-9.844-46.16-27.41-61.08-50.85L29.48 295.4C24.71 287.9 14.82 285.7 7.387 290.5C-.051 295.3-2.239 305.2 2.512 312.6l6.422 10.08c18.56 29.17 44.97 51.1 76.38 63.42l293.5 115.3C396.7 508.5 415.8 512 434.8 512c17.05 0 34.13-2.844 50.45-8.547c8.344-2.922 12.75-12.05 9.844-20.39C492.2 474.7 483.1 470.3 474.7 473.2z"/></svg>