<svg xmlns="http://www.w3.org/2000/svg" viewBox="0 0 576 512"><!--! Font Awesome Pro 6.1.1 by @fontawesome - https://fontawesome.com License - https://fontawesome.com/license (Commercial License) Copyright 2022 Fonticons, Inc. --><path d="M143.1 32C152.8 32 159.1 39.16 159.1 48V88.99C159.1 152.4 201.9 208.2 262.7 225.1C310.6 239.9 361.4 239.9 409.3 225.1L523.5 192.6C532 190.2 540.9 195 543.4 203.5C545.8 212 540.1 220.9 532.5 223.4L418.2 256.7C401.3 261.6 384.1 264.1 366.8 266.8L352.8 378.6C343.2 375.1 333.7 370.2 324.8 364.1C324.1 363.6 323.3 363.1 322.6 362.6L334.3 268.4C307.2 268.3 280.1 264.4 253.8 256.7C248.2 255 242.7 253.1 237.4 251L218.2 380.3C209.7 382.1 200.9 384.5 192 384.5C189.8 384.5 187.6 384.3 185.3 384.1L207.3 235.4C158.8 203.7 127.1 149.2 127.1 88.99V48C127.1 39.16 135.2 32 143.1 32L143.1 32zM255.1 128C255.1 92.65 284.7 64 320 64C355.3 64 384 92.65 384 128C384 163.3 355.3 192 320 192C284.7 192 255.1 163.3 255.1 128zM320 160C337.7 160 352 145.7 352 128C352 110.3 337.7 96 320 96C302.3 96 287.1 110.3 287.1 128C287.1 145.7 302.3 160 320 160zM250.1 426.8C259.9 420.1 268.2 412.8 276.1 404.9C282.6 398.4 293.3 398.4 299.8 404.9C307.8 412.8 315.1 420.1 325.8 426.8C342.3 438 363.1 447.1 383.1 447.1C404.9 447.1 425.6 438 442.2 426.8C451.9 420.1 460.2 412.8 468.1 404.9C474.6 398.4 485.3 398.4 491.8 404.9C499.8 412.8 507.1 420.1 517.8 426.8C530.6 435.5 545.9 443.4 561.9 446.6C569.6 448.1 576 454.4 576 462.2C576 472 567.1 480.1 558.3 478.4C535.2 474.5 514.7 463.4 499.8 453.2C491.8 447.8 485.1 442.4 479.1 437.1C474.8 442.4 468.1 447.8 460.2 453.2C441.5 465.9 414.3 479.1 383.1 479.1C353.7 479.1 326.4 465.9 307.8 453.2C299.8 447.8 293.1 442.4 287.1 437.1C282.8 442.4 276.1 447.8 268.2 453.2C249.5 465.9 222.3 479.1 191.1 479.1C161.7 479.1 134.4 465.9 115.8 453.2C107.8 447.8 101.1 442.4 95.96 437.1C90.82 442.4 84.12 447.8 76.19 453.2C61.25 463.4 40.81 474.5 17.69 478.4C8.015 480.1 0 472 0 462.2C0 454.4 6.421 448.1 14.13 446.6C30.07 443.4 45.38 435.5 58.16 426.8C67.94 420.1 76.16 412.8 84.07 404.9C90.64 398.4 101.3 398.4 107.8 404.9C115.8 412.8 124.1 420.2 133.8 426.8C150.3 438 171.1 447.1 191.1 447.1C212.9 447.1 233.6 438 250.1 426.8H250.1z"/></svg>