<svg xmlns="http://www.w3.org/2000/svg" viewBox="0 0 640 512"><!--! Font Awesome Pro 6.1.1 by @fontawesome - https://fontawesome.com License - https://fontawesome.com/license (Commercial License) Copyright 2022 Fonticons, Inc. --><path d="M88 112c30.88 0 56-25.12 56-56S118.9 0 88 0S32 25.12 32 56S57.13 112 88 112zM88 32C101.3 32 112 42.75 112 56S101.3 80 88 80S64 69.25 64 56S74.75 32 88 32zM16 368C7.156 368 0 375.2 0 384v112C0 504.8 7.156 512 16 512S32 504.8 32 496V384C32 375.2 24.84 368 16 368zM288 336c8.836 0 16-7.164 16-16c0-8.838-7.164-16-16-16S272 311.2 272 320C272 328.8 279.2 336 288 336zM608 .0048h-96c-17.67 0-32 14.33-32 31.1v26.8c0 3.439 .5547 6.857 1.643 10.12L528 208L192 256H179.8C173.7 256 168.2 252.6 165.5 247.2L124 164.2C112.8 141.8 90.41 128 65.44 128C29.34 128 0 157.3 0 193.4v91.84c0 17.28 9.375 33.31 24.47 41.84l95.34 53.62C124.9 383.6 128 388.9 128 394.7V496c0 8.844 7.156 15.1 16 15.1S160 504.8 160 496v-101.3c0-17.28-9.375-33.31-24.47-41.84L40.19 299.3C35.13 296.4 32 291.1 32 285.3V193.4C32 175 47 160 65.44 160c12.75 0 24.22 7.062 29.94 18.5l41.47 82.97C145 277.8 161.5 288 179.8 288L192 287.1v208C192 504.8 199.2 512 208 512S224 504.8 224 496V416h384v80c0 8.836 7.164 16 16 16s16-7.164 16-15.1V32C640 14.33 625.7 .0048 608 .0048zM608 384H224V283.8l384-54.86V384zM608 196.6l-47.8 6.828L512 58.81V32h96V196.6z"/></svg>