<svg xmlns="http://www.w3.org/2000/svg" viewBox="0 0 384 512"><!--! Font Awesome Pro 6.1.1 by @fontawesome - https://fontawesome.com License - https://fontawesome.com/license (Commercial License) Copyright 2022 Fonticons, Inc. --><path d="M248 56C248 86.93 222.9 112 191.1 112C161.1 112 135.1 86.93 135.1 56C135.1 25.07 161.1 0 191.1 0C222.9 0 248 25.07 248 56zM191.1 32C178.7 32 167.1 42.75 167.1 56C167.1 69.25 178.7 80 191.1 80C205.3 80 216 69.25 216 56C216 42.75 205.3 32 191.1 32zM79.1 202.2L30.12 295.5C25.95 303.3 16.26 306.3 8.464 302.1C.6701 297.9-2.273 288.3 1.891 280.5L60.73 170.3C74.65 144.3 101.8 128 131.3 128H165.5C188.1 128 211.2 138.3 226.4 156.2L316.2 261.6C321.9 268.4 321.1 278.5 314.4 284.2C307.6 289.9 297.5 289.1 291.8 282.4L208 183.9V496C208 504.8 200.8 512 192 512C183.2 512 176 504.8 176 496V352H111.1V496C111.1 504.8 104.8 512 95.1 512C87.16 512 79.1 504.8 79.1 496V202.2zM111.1 320H176V161.2C172.6 160.4 169.1 160 165.5 160H131.3C124.5 160 117.1 161.4 111.1 164V320zM336 352C327.2 352 320 359.2 320 368V376C320 384.8 312.8 392 304 392C295.2 392 288 384.8 288 376V368C288 341.5 309.5 320 336 320C362.5 320 384 341.5 384 368V496C384 504.8 376.8 512 368 512C359.2 512 352 504.8 352 496V368C352 359.2 344.8 352 336 352z"/></svg>