<svg xmlns="http://www.w3.org/2000/svg" viewBox="0 0 448 512"><!--! Font Awesome Pro 6.1.1 by @fontawesome - https://fontawesome.com License - https://fontawesome.com/license (Commercial License) Copyright 2022 Fonticons, Inc. --><path d="M304 80C304 124.2 268.2 160 224 160C179.8 160 144 124.2 144 80C144 35.82 179.8 0 224 0C268.2 0 304 35.82 304 80zM224 32C197.5 32 176 53.49 176 80C176 106.5 197.5 128 224 128C250.5 128 272 106.5 272 80C272 53.49 250.5 32 224 32zM49.63 354.4C36 374.8 43.85 402.6 66.15 412.9L214.7 481.5C222.7 485.2 226.2 494.7 222.5 502.7C218.8 510.7 209.3 514.2 201.3 510.5L52.74 441.1C12.59 423.4-1.522 373.4 23 336.7L76.69 256.1C103.4 216.1 148.4 192 196.5 192H264.6C304.4 192 342.4 208.4 369.6 237.4L425.1 296.5C451.4 324.5 451.1 368.3 424.3 395.9L347.5 475.1C341.3 481.5 331.2 481.6 324.9 475.5C318.5 469.3 318.4 459.2 324.5 452.9L401.3 373.6C416.2 358.3 416.4 333.1 401.8 318.4L346.3 259.3C325.1 236.8 295.5 224 264.6 224H196.5C159.1 224 124.1 242.7 103.3 273.9L49.63 354.4zM192 363.4C212.4 396.1 248.3 416 286.9 416H288C296.8 416 304 423.2 304 432C304 440.8 296.8 448 288 448H286.9C237.3 448 191.2 422.4 164.9 380.4C161.7 375.3 160 369.4 160 363.4V319.1C160 311.2 167.2 303.1 176 303.1C184.8 303.1 192 311.2 192 319.1V363.4zM224 336C224 309.5 245.5 288 272 288C298.5 288 320 309.5 320 336C320 362.5 298.5 384 272 384C245.5 384 224 362.5 224 336zM272 352C280.8 352 288 344.8 288 336C288 327.2 280.8 320 272 320C263.2 320 256 327.2 256 336C256 344.8 263.2 352 272 352z"/></svg>