<svg xmlns="http://www.w3.org/2000/svg" viewBox="0 0 512 512"><!--! Font Awesome Pro 6.0.0-beta3 by @fontawesome - https://fontawesome.com License - https://fontawesome.com/license (Commercial License) Copyright 2021 Fonticons, Inc. --><path d="M431.1 0c-53.94 0-71.3 121.8-76.25 174.2c-.8438 8.797 5.609 16.61 14.41 17.44c9.016 1.047 16.61-5.625 17.44-14.41C397.1 67.75 424.1 32 432 32C446.4 32 480 108.2 480 256s-33.64 224-48 224c-7.219 0-31.81-32.59-43.06-132.4c-1-8.781-8.875-15.17-17.7-14.11c-8.781 1-15.09 8.922-14.11 17.7c6.781 60.05 25.51 160.8 74.87 160.8C486.1 511.1 512 379.3 512 255.1S486.1 0 431.1 0zM221.2 153.3c2.014 .8574 4.201 1.25 6.158 2.229c21.09 10.53 38.5 27.95 49.03 49.05l20.44 40.83C305 261.8 321.5 272 339.8 272H400c8.844 0 15.1-7.163 15.1-16.01S408.8 240 400 240h-60.11c-6.125 0-11.62-3.43-14.34-8.898l-20.52-40.79c-13.62-27.23-36.09-49.73-63.34-63.36C222.1 117.2 200.2 112 178.3 112H138.7c-10.31 0-20.56 3.422-28.78 9.609L54.41 163.2c-7.062 5.297-8.5 15.33-3.219 22.39c5.312 7.094 15.34 8.5 22.41 3.203l55.5-41.59C131.8 145.1 135.2 144 138.7 144h39.69c3.738 0 7.396 .916 11.12 1.301L154.4 215.5C136.8 250.6 147.8 294.2 180.1 316.8l105.4 73.78l-28.84 101c-2.438 8.484 2.469 17.34 10.97 19.78C269.1 511.8 270.6 512 272 512c6.969 0 13.38-4.578 15.38-11.61l32-112c1.875-6.562-.5938-13.58-6.188-17.5L198.4 290.6c-19.38-13.55-26-39.69-15.44-60.8L221.2 153.3zM135.2 337.7c-7.906-3.906-17.47-.7344-21.47 7.156L102.1 368H16c-8.844 0-16 7.163-16 16.01S7.156 400 16 400h96c6.062 0 11.59-3.422 14.31-8.844l16-32C146.3 351.3 143.1 341.6 135.2 337.7zM280 112c30.88 0 56-25.12 56-56S310.9 0 280 0S224 25.12 224 56S249.1 112 280 112zM280 32c13.22 0 24 10.77 24 24S293.2 80 280 80S256 69.23 256 56S266.8 32 280 32z"/></svg>