<svg xmlns="http://www.w3.org/2000/svg" viewBox="0 0 576 512"><!--! Font Awesome Pro 6.1.1 by @fontawesome - https://fontawesome.com License - https://fontawesome.com/license (Commercial License) Copyright 2022 Fonticons, Inc. --><path d="M240 336C231.2 336 224 343.2 224 352v144C224 504.8 231.2 512 240 512S256 504.8 256 496V352C256 343.2 248.8 336 240 336zM64 128c35.35 0 64-28.65 64-64S99.35 0 64 0S.002 28.65 .002 64S28.65 128 64 128zM64 32c17.64 0 32 14.36 32 32S81.64 96 64 96S32 81.64 32 64S46.36 32 64 32zM528 0h-256C245.5 0 224 21.53 224 48V192c0 8.844 7.156 16 16 16S256 200.8 256 192V48C256 39.17 263.2 32 272 32h64l.2656 221.1l-32 176c-1.594 8.688 4.172 17.02 12.88 18.59C318.1 447.9 319.1 448 320 448c7.594 0 14.34-5.406 15.73-13.14L368 256V32h32v400c0 8.844 7.156 16 16 16s16-7.156 16-16V32h32v400c0 8.844 7.156 16 16 16s16-7.156 16-16V32h32C536.8 32 544 39.17 544 48v448c0 8.844 7.156 16 16 16s16-7.156 16-16v-448C576 21.53 554.5 0 528 0zM240 240H178.1c-5.594 0-10.86-2.984-13.73-7.766L142.2 195.2C129.1 173.5 105.3 160 80 160H64C28.7 160 .025 188.8 .025 224.1L0 496C0 504.8 7.156 512 16 512s15.94-7.156 15.94-16L32 224c0-17.64 14.36-32 32-32h16c14.14 0 27.47 7.531 34.75 19.67l22.2 37.05C145.6 263.1 161.4 272 178.1 272H240C248.8 272 256 264.8 256 256S248.8 240 240 240zM121.7 343.9C115.4 335.6 112 325.3 112 314.9V256c0-8.844-7.156-16-16-16S80 247.2 80 256v58.94c0 17.27 5.734 34.38 16.14 48.19l22.17 29.39C124.6 400.8 128 411.1 128 421.4V496C128 504.8 135.2 512 144 512S160 504.8 160 496v-74.56c0-17.27-5.734-34.38-16.14-48.19L121.7 343.9z"/></svg>