<svg xmlns="http://www.w3.org/2000/svg" viewBox="0 0 576 512"><!--! Font Awesome Pro 6.1.1 by @fontawesome - https://fontawesome.com License - https://fontawesome.com/license (Commercial License) Copyright 2022 Fonticons, Inc. --><path d="M344 112c30.88 0 56-25.12 56-56S374.9 0 344 0S288 25.12 288 56S313.1 112 344 112zM344 32c13.23 0 24 10.77 24 24S357.2 80 344 80S320 69.23 320 56S330.8 32 344 32zM156.7 183.1l31.36-31.36c13.16-13.14 32.89-17.56 50.38-11.16l1.422 .5176l-94.98 284.1c-2.797 8.391 1.734 17.45 10.11 20.23C156.6 447.7 158.3 448 160 448c6.703 0 12.94-4.234 15.17-10.94l94.71-284.1l36.71 13.37c11.56 4.219 20.97 12.61 26.48 23.64l36.61 73.2C372.4 268.6 377.9 272 384 272h64c8.844 0 16-7.156 16-16S456.8 240 448 240h-54.11l-32.19-64.36c-9.188-18.38-24.88-32.38-44.17-39.39L249.3 111.4C220.2 100.8 187.3 108.1 165.4 130L134 161.4c-6.25 6.25-6.25 16.38 0 22.62S150.4 190.2 156.7 183.1zM331.8 447.5C333.2 447.8 334.6 448 336 448c7.047 0 13.52-4.703 15.44-11.84l20.38-75.63c1.688-6.25-.5781-12.92-5.719-16.86l-68.38-52.38c-7.016-5.344-17.05-4.031-22.44 2.969C269.9 301.3 271.3 311.3 278.3 316.7l59.88 45.86l-17.59 65.28C318.3 436.4 323.3 445.2 331.8 447.5zM432.2 317.7l-16 112c-1.25 8.75 4.828 16.86 13.58 18.11C430.5 447.1 431.3 448 432 448c7.844 0 14.69-5.75 15.83-13.73l16-112c1.25-8.75-4.828-16.86-13.58-18.11C441.5 302.9 433.4 308.1 432.2 317.7zM76.13 447.5C77.42 447.8 78.73 448 80.02 448c7.172 0 13.69-4.844 15.5-12.12l48-192c2.156-8.562-3.062-17.25-11.64-19.39C123.3 222.2 114.6 227.5 112.5 236.1l-48 192C62.33 436.7 67.55 445.4 76.13 447.5zM560 400c-8.844 0-16 7.156-16 16c0 35.3-28.7 64-64 64H16C7.156 480 0 487.2 0 496S7.156 512 16 512H480c52.94 0 96-43.06 96-96C576 407.2 568.8 400 560 400z"/></svg>