<svg xmlns="http://www.w3.org/2000/svg" viewBox="0 0 640 512"><!--! Font Awesome Pro 6.1.1 by @fontawesome - https://fontawesome.com License - https://fontawesome.com/license (Commercial License) Copyright 2022 Fonticons, Inc. --><path d="M627 257.4C545.1 173.1 436.1 128 320 128c-116.1 0-225.2 45.97-307 129.4C-1.656 272.3-4.219 295.2 6.75 313l50.06 81.63c11.38 18.62 34.23 26.31 54.58 18.16l100.3-40.88c18.19-7.469 29.53-26.53 27.56-46.28L234.2 273.1c55.81-16.78 115.9-16.8 171.8 .0156l-5.047 51.56c-2.094 19.91 9.297 39 27.66 46.41l100.2 40.81c5.438 2.219 11.06 3.281 16.62 3.281c15.03 0 29.5-7.75 37.83-21.34L633.3 313C644.2 295.2 641.6 272.3 627 257.4zM605.1 296.3l-50.11 81.72c-3.203 5.25-9.578 7.438-15.12 5.156l-100.2-40.84c-5.156-2.062-8.469-7.719-7.859-13.53l6.312-64.47c.7187-7.359-3.688-14.25-10.66-16.67c-34.95-12.16-71.66-18.23-108.4-18.23c-36.69 0-73.38 6.062-108.3 18.22C204.8 250 200.4 256.9 201.1 264.3l6.281 64.53c.5781 5.812-2.672 11.41-7.859 13.53l-100.1 40.78c-5.609 2.312-12.08 .125-15.3-5.188L34.02 296.2c-3.25-5.25-2.5-12 1.812-16.39C111.6 202.6 212.5 160 319.1 160s208.4 42.55 284.2 119.8C608.5 284.2 609.2 290.1 605.1 296.3z"/></svg>