<svg xmlns="http://www.w3.org/2000/svg" viewBox="0 0 512 512"><!--! Font Awesome Pro 6.1.1 by @fontawesome - https://fontawesome.com License - https://fontawesome.com/license (Commercial License) Copyright 2022 Fonticons, Inc. --><path d="M156.3 195.6c16.84 1.703 33.28-8.139 39.59-23.98L227.6 92.33c6.779-17.39 .25-37.12-15.5-46.89L148.9 5.951c-15.28-9.609-34.87-7.422-47.71 5.391C35.93 76.59 0 163.5 0 255.1c0 92.52 35.93 179.4 101.2 244.6C108.7 508.1 118.5 512 128.4 512c7.031 0 14.12-1.938 20.44-5.938l63.24-39.53c15.81-9.875 22.28-29.59 15.38-46.96L195.9 340.6c-6.312-16-22.75-25.97-39.62-24.06L119.3 320.2c-11.78-41.79-11.78-86.49 0-128.3L156.3 195.6zM92.77 342.5c2.438 7.061 9.467 11.75 16.75 10.75l50.06-4.969c2.375-.375 5.498 1.375 6.592 4.062l31.59 79.02c1.156 2.906 .0313 6.344-2.594 8l-63.31 39.56c-2.562 1.562-5.844 1.281-8.062-.9687C64.59 418.8 31.1 339.1 31.1 255.1c0-83.98 32.59-162.8 91.8-222c1.281-1.297 2.938-1.969 4.594-1.969c1.188 0 2.375 .3438 3.5 1.031l63.28 39.56c2.688 1.672 3.781 5.094 2.656 8L166.2 159.7c-1 2.453-3.404 4.047-6.029 4.047C159.9 163.8 159.5 163.7 159.5 163.7L109.5 158.8c-7.75-.6094-14.31 3.719-16.75 10.75C73.74 225.3 73.74 286.8 92.77 342.5zM401.7 35.2c-7.094-5.25-17.12-3.875-22.41 3.188c-5.312 7.062-3.906 17.09 3.156 22.41C444.4 107.4 480 178.5 480 256c0 77.47-35.56 148.6-97.59 195.2c-7.062 5.312-8.469 15.34-3.156 22.41C382.4 477.8 387.2 480 392 480c3.344 0 6.719-1.031 9.625-3.219C471.8 424.1 512 343.6 512 255.1C512 168.4 471.8 87.91 401.7 35.2zM333.2 98.81c-7.312-5-17.25-3.141-22.25 4.125c-5 7.297-3.156 17.25 4.125 22.25C358.2 154.8 384 203.7 384 256c0 52.25-25.78 101.2-68.94 130.8c-7.281 5-9.125 14.97-4.125 22.25C314 413.6 319 416 324.1 416c3.125 0 6.281-.9062 9.062-2.812C385 377.6 416 318.8 416 255.1C416 193.2 385 134.4 333.2 98.81zM272.1 177.8c-7.875-3.953-17.47-.9219-21.53 6.969c-4.031 7.859-.9062 17.5 6.969 21.53C276.3 215.9 288 234.9 288 256c0 21.09-11.69 40.16-30.47 49.75c-7.875 4.031-11 13.66-6.969 21.53C253.4 332.8 259 336 264.8 336c2.469 0 4.938-.5625 7.281-1.75c29.56-15.09 47.91-45.07 47.91-78.26C319.1 222.8 301.7 192.9 272.1 177.8z"/></svg>