<svg xmlns="http://www.w3.org/2000/svg" viewBox="0 0 640 512"><!--! Font Awesome Pro 6.1.1 by @fontawesome - https://fontawesome.com License - https://fontawesome.com/license (Commercial License) Copyright 2022 Fonticons, Inc. --><path d="M626.1 353.4c-81.85-83.45-190.9-129.4-306.1-129.4c-116.1 0-225.1 45.97-306.1 129.4c-14.64 14.92-17.2 37.78-6.234 55.59l50.06 81.62c11.37 18.62 34.23 26.31 54.58 18.16l100.2-40.87c18.19-7.468 29.53-26.53 27.56-46.28l-5.031-51.67c55.81-16.78 115.9-16.8 171.8 .0156l-5.047 51.56c-2.094 19.91 9.296 38.1 27.65 46.4l100.2 40.81C534.1 510.9 539.8 512 545.3 512c15.03 0 29.5-7.75 37.83-21.34l50.09-81.68C644.2 391.1 641.6 368.3 626.1 353.4zM605.1 392.2l-50.11 81.71c-3.203 5.25-9.578 7.437-15.12 5.156l-100.2-40.84c-5.156-2.062-8.468-7.718-7.859-13.53l6.312-64.46c.7187-7.359-3.687-14.25-10.66-16.67c-34.95-12.16-71.65-18.23-108.4-18.23c-36.69 0-73.37 6.062-108.3 18.22c-6.968 2.422-11.37 9.312-10.66 16.66l6.281 64.53c.5781 5.812-2.672 11.41-7.859 13.53l-100.1 40.78c-5.609 2.312-12.08 .125-15.3-5.187l-50.09-81.68c-3.25-5.25-2.5-11.1 1.812-16.39c75.79-77.26 176.7-119.8 284.2-119.8s208.4 42.54 284.1 119.8C608.5 380.2 609.2 386.9 605.1 392.2zM112 159.1c8.843 0 15.1-7.156 15.1-15.1V54.62l98.74 98.74c24.53 24.55 58.53 38.62 93.24 38.62s68.72-14.08 93.24-38.62l110.1-110.1c6.25-6.25 6.25-16.37 0-22.62c-6.25-6.25-16.37-6.25-22.62 0l-110.1 110.1c-37.19 37.19-104.1 37.19-141.2 0L150.7 31.1h89.37c8.843 0 15.1-7.156 15.1-15.1S248.9 0 240 0H112C103.2 0 96.03 7.156 96.03 15.1v127.1C96.03 152.8 103.2 159.1 112 159.1z"/></svg>