<svg xmlns="http://www.w3.org/2000/svg" viewBox="0 0 640 512"><!--! Font Awesome Pro 6.1.1 by @fontawesome - https://fontawesome.com License - https://fontawesome.com/license (Commercial License) Copyright 2022 Fonticons, Inc. --><path d="M620.1 169.1c-12.67-9.125-28.41-11.53-43.27-6.594l-128 42.66C429.2 211.7 416 230 416 250.7v157.1C406.6 402.1 395.7 400 384 400c-35.35 0-64 25.07-64 56S348.7 512 384 512s64-25.07 64-56v-117.2l160-53.33v58.28C598.6 338.1 587.7 336 576 336c-35.35 0-64 25.07-64 56S540.7 448 576 448s64-25.07 64-56V208C640 192.4 632.7 178.2 620.1 169.1zM384 480c-17.35 0-32-10.99-32-24s14.65-24 32-24s32 10.99 32 24S401.3 480 384 480zM576 416c-17.35 0-32-10.99-32-24s14.65-24 32-24s32 10.99 32 24S593.3 416 576 416zM608 251.8l-160 53.33V250.7c0-6.891 4.391-13 10.94-15.19l128-42.64c4.938-1.688 10.19-.8438 14.42 2.188C605.6 198.1 608 202.8 608 208V251.8zM336.5 205.9c4.348 5.545 17.6 10.65 25.59-.5332l54.44-78.75l25.27 35.24c4.087 5.698 11.41 8.071 18.06 5.854c10.22-3.407 14.29-15.76 8.007-24.52l-25.31-35.3c-11.28-15.81-38.5-15.94-49.1-.0313l-44.03 61.43l-6.969-8.941c-12.25-15.72-36.02-15.76-48.32-.0759l-63.11 80.46C223 249.9 222 262.3 227.5 272.3C232.8 281.1 243.1 288 254.4 288h113.6C376.8 288 384 280.8 384 272s-7.163-16.03-16-16.03L258.2 255.9l58.25-75.61L336.5 205.9zM224 352h144C376.8 352 384 344.8 384 336S376.8 320 368 320H224c-17.67 0-32-14.33-32-32V64c0-17.67 14.33-32 32-32h320c17.67 0 32 14.33 32 32v48C576 120.8 583.2 128 592 128S608 120.8 608 112V64c0-35.35-28.65-64-64-64H224C188.7 0 160 28.65 160 64v224C160 323.3 188.7 352 224 352zM280 96c0-13.25-10.74-24-24-24C242.7 72 232 82.75 232 96S242.7 120 256 120C269.3 120 280 109.3 280 96zM128 96H64C28.65 96 0 124.7 0 160v224c0 35.35 28.65 64 64 64h208C280.8 448 288 440.8 288 432S280.8 416 272 416H128V96zM96 416H64c-17.64 0-32-14.36-32-32v-32h64V416zM96 320H32V224h64V320zM96 192H32V160c0-17.64 14.36-32 32-32h32V192z"/></svg>