<svg xmlns="http://www.w3.org/2000/svg" viewBox="0 0 512 512"><!--! Font Awesome Pro 6.0.0-beta3 by @fontawesome - https://fontawesome.com License - https://fontawesome.com/license (Commercial License) Copyright 2021 Fonticons, Inc. --><path d="M432 240H256v-224C256 7.162 248.8 0 240 0S224 7.162 224 16V64H71.78C32.19 64 0 96.19 0 135.8c0 30.97 19.72 58.31 49.09 68.13L96 219.5V472C96 494.1 113.9 512 136 512h64c22.06 0 40-17.94 40-40c0-35.28 28.72-64 64-64s64 28.72 64 64c0 22.06 17.94 40 40 40h64c22.06 0 40-17.94 40-40V320C512 275.9 476.1 240 432 240zM232.8 270.3c.1426 .0703 .2969 .0371 .4395 .1035C235.3 271.4 237.6 272 240 272h192c22.85 0 41.94 16.07 46.76 37.49l-7.604-3.801c-4.5-2.25-9.812-2.25-14.31 0L432 318.1l-24.84-12.44c-4.5-2.25-9.812-2.25-14.31 0L368 318.1l-24.84-12.44c-4.5-2.25-9.812-2.25-14.31 0L304 318.1l-24.84-12.44c-4.5-2.25-9.812-2.25-14.31 0L240 318.1L215.2 305.7c-4.5-2.25-9.812-2.25-14.31 0L176 318.1L151.2 305.7c-4.5-2.25-9.812-2.25-14.31 0L128 310.1v-44.22l16-8.01l24.84 12.44c4.5 2.25 9.812 2.25 14.31 0L208 257.9L232.8 270.3zM117.1 192.8L59.22 173.5C42.94 168.1 32 152.9 32 135.8C32 113.8 49.84 96 71.78 96H224v134.1L215.2 225.7c-4.5-2.25-9.812-2.25-14.31 0L176 238.1L151.2 225.7c-4.5-2.25-9.812-2.25-14.31 0L128 230.1V208C128 201.1 123.6 195 117.1 192.8zM208 472C208 476.4 204.4 480 200 480h-64C131.6 480 128 476.4 128 472v-46.12l16-8.01l24.84 12.44c4.5 2.25 9.812 2.25 14.31 0L208 417.9l13.11 6.564C213 438.5 208 454.6 208 472zM480 472c0 4.406-3.594 8-8 8h-64c-4.406 0-8-3.594-8-8c0-17.38-5-33.48-13.11-47.56L400 417.9l24.84 12.44c4.5 2.25 9.812 2.25 14.31 0L464 417.9l16 8.01V472zM480 390.1l-8.844-4.422c-4.5-2.25-9.812-2.25-14.31 0L432 398.1l-24.84-12.44c-4.5-2.25-9.812-2.25-14.31 0l-27 13.5C349.1 384.9 327.7 376 304 376s-45.09 8.934-61.84 23.19l-27-13.5c-4.5-2.25-9.812-2.25-14.31 0L176 398.1l-24.84-12.44c-4.5-2.25-9.812-2.25-14.31 0L128 390.1v-44.22l16-8.01l24.84 12.44c4.5 2.25 9.812 2.25 14.31 0L208 337.9l24.84 12.44c4.5 2.25 9.812 2.25 14.31 0L272 337.9l24.84 12.44c4.5 2.25 9.812 2.25 14.31 0L336 337.9l24.84 12.44c4.5 2.25 9.812 2.25 14.31 0L400 337.9l24.84 12.44c4.5 2.25 9.812 2.25 14.31 0L464 337.9l16 8.01V390.1zM176 168c13.25 0 24-10.75 24-24c0-13.26-10.75-24-24-24S152 130.7 152 144C152 157.3 162.7 168 176 168z"/></svg>