<svg xmlns="http://www.w3.org/2000/svg" viewBox="0 0 640 512"><!--! Font Awesome Pro 6.0.0-beta3 by @fontawesome - https://fontawesome.com License - https://fontawesome.com/license (Commercial License) Copyright 2021 Fonticons, Inc. --><path d="M624 0h-19.62c-58.72 0-112.9 25.97-144.9 69.5l-122.5 166.6l-4.777-3.008C326.1 229.7 321.1 228.1 315.2 228.1c-9.787 0-19.41 4.48-25.66 12.85L240 307.3V248c0-22.06-17.94-40-40-40h-160C17.94 208 0 225.9 0 248v140.9C0 456.8 55.22 512 123.1 512h23.47c51.92 0 99.67-26.07 127.7-69.73l99.89-143.2c5.004-7.174 6.852-16.09 5.115-24.66c-1.738-8.572-6.908-16.06-14.31-20.72l-.8555-.5391l121.1-164.7C511.3 53.09 555.8 32 604.4 32H624C632.8 32 640 24.84 640 16S632.8 0 624 0zM247.4 424.1C225.2 459.4 187.5 480 146.6 480H123.1C72.88 480 32 439.1 32 388.9V248C32 243.6 35.59 240 40 240h160c4.406 0 8 3.594 8 8v83.38c0 10.34 6.625 19.5 16.44 22.78c2.471 .8086 5.014 1.201 7.533 1.201c7.416 0 14.63-3.402 19.25-9.607l63.97-85.63l32.75 20.62L247.4 424.1z"/></svg>