<svg xmlns="http://www.w3.org/2000/svg" viewBox="0 0 512 512"><!--! Font Awesome Pro 6.0.0-beta3 by @fontawesome - https://fontawesome.com License - https://fontawesome.com/license (Commercial License) Copyright 2021 Fonticons, Inc. --><path d="M496 160C487.2 160 480 167.2 480 176V192h-208V112h96C376.8 112 384 104.8 384 96s-7.168-16-16-16h-96v-32C272 39.17 264.8 32 256 32S240 39.17 240 48v32h-96C135.2 80 128 87.17 128 96s7.168 16 16 16h96V192H32V176C32 167.2 24.83 160 16 160S0 167.2 0 176v288C0 472.8 7.168 480 16 480S32 472.8 32 464V448h448v16c0 8.832 7.168 16 16 16s16-7.168 16-16v-288C512 167.2 504.8 160 496 160zM480 416H32V224h448V416z"/></svg>