<svg xmlns="http://www.w3.org/2000/svg" viewBox="0 0 512 512"><!--! Font Awesome Pro 6.1.1 by @fontawesome - https://fontawesome.com License - https://fontawesome.com/license (Commercial License) Copyright 2022 Fonticons, Inc. --><path d="M96.01 79.99c0-8.832-7.168-16-16-16s-16 7.168-16 16s7.168 16 16 16S96.01 88.82 96.01 79.99zM432 95.99c8.832 0 16-7.168 16-16s-7.168-16-16-16s-16 7.168-16 16S423.2 95.99 432 95.99zM80.01 415.1c-8.832 0-16 7.168-16 16s7.168 16 16 16s16-7.168 16-16S88.84 415.1 80.01 415.1zM256 95.99c-88.35 0-160 71.65-160 160s71.65 160 160 160s160-71.65 160-160S344.4 95.99 256 95.99zM256 383.1c-70.69 0-128-57.31-128-128c0-70.69 57.31-128 128-128s128 57.31 128 128C384 326.7 326.7 383.1 256 383.1zM432 415.1c-8.832 0-16 7.168-16 16s7.168 16 16 16s16-7.168 16-16S440.8 415.1 432 415.1zM468.8 367c17.34-33.18 27.17-70.94 27.17-111s-9.824-77.82-27.17-111l22.08-22.08c28.13-28.13 28.13-73.7 0-101.8c-28.13-28.13-73.7-28.13-101.8 0l-22.08 22.08c-33.18-17.34-70.94-27.17-111-27.17S178.2 25.82 145 43.16L122.9 21.08c-28.13-28.13-73.7-28.13-101.8 0c-28.13 28.13-28.13 73.7 0 101.8l22.08 22.08c-17.34 33.18-27.17 70.94-27.17 111s9.824 77.82 27.17 111l-22.08 22.08c-28.13 28.13-28.13 73.7 0 101.8c28.13 28.13 73.7 28.13 101.8 0L145 468.8c33.18 17.34 70.94 27.17 111 27.17s77.82-9.824 111-27.17l22.08 22.08c28.13 28.13 73.7 28.13 101.8 0c28.13-28.13 28.13-73.7 0-101.8L468.8 367zM468.3 468.3c-15.62 15.62-40.96 15.62-56.57 0l-22.08-22.08l-16.61-16.61l-20.83 10.88c-28.74 15.01-61.41 23.52-96.19 23.52s-67.46-8.512-96.19-23.52l-20.83-10.88l-16.61 16.61L100.3 468.3c-15.62 15.62-40.96 15.62-56.57 0c-15.62-15.62-15.62-40.96 0-56.58l38.69-38.69l-10.88-20.83C56.52 323.4 48.01 290.8 48.01 255.1c0-34.79 8.512-67.46 23.52-96.19l10.88-20.83L43.72 100.3c-15.62-15.62-15.62-40.96 0-56.58c15.62-15.62 40.96-15.62 56.57 0l38.69 38.69l20.83-10.88c28.74-15.01 61.41-23.52 96.19-23.52s67.46 8.512 96.19 23.52l20.83 10.88l38.69-38.69c15.62-15.62 40.96-15.62 56.57 0c15.62 15.62 15.62 40.96 0 56.58l-38.69 38.69l10.88 20.83c15.01 28.74 23.52 61.41 23.52 96.19c0 34.78-8.512 67.46-23.52 96.19l-10.88 20.83l38.69 38.69C483.9 427.3 483.9 452.7 468.3 468.3z"/></svg>