<svg xmlns="http://www.w3.org/2000/svg" viewBox="0 0 640 512"><!--! Font Awesome Pro 6.1.1 by @fontawesome - https://fontawesome.com License - https://fontawesome.com/license (Commercial License) Copyright 2022 Fonticons, Inc. --><path d="M176 153.1V112.1C176 74.04 207 0 256 0C304 0 336 74.04 336 112.1V154.1L422.4 208.1C411.5 213.1 401.1 219.3 391.6 226.3L304 171.1V112.1C304 81.04 278 33.02 256 33.02C233 33.02 208 81.04 208 113.1V172.1L32 282.1V347.2L208 292.1V392.2L144 440.2V480.2L256 448.2L358.1 477.4C366.4 487.9 375.9 497.4 386.4 505.7C378.5 511.4 368.8 513.2 360 511.2L256 480.2L152 510.2C142 513.3 132 511.2 124 505.2C116 499.2 112 490.2 112 480.2V440.2C112 430.2 116 421.2 124 415.2L176 376.2V335.2L41 378.2C31 381.2 20 379.2 12 373.2C4 367.2 0 357.2 0 347.2V282.1C0 271.1 6 259.1 16 254.1L176 153.1zM563.3 324.7C569.6 330.9 569.6 341.1 563.3 347.3L491.3 419.3C485.1 425.6 474.9 425.6 468.7 419.3L428.7 379.3C422.4 373.1 422.4 362.9 428.7 356.7C434.9 350.4 445.1 350.4 451.3 356.7L480 385.4L540.7 324.7C546.9 318.4 557.1 318.4 563.3 324.7H563.3zM352 368C352 288.5 416.5 224 496 224C575.5 224 640 288.5 640 368C640 447.5 575.5 512 496 512C416.5 512 352 447.5 352 368zM496 480C557.9 480 608 429.9 608 368C608 306.1 557.9 256 496 256C434.1 256 384 306.1 384 368C384 429.9 434.1 480 496 480z"/></svg>