<svg xmlns="http://www.w3.org/2000/svg" viewBox="0 0 640 512"><!--! Font Awesome Pro 6.1.1 by @fontawesome - https://fontawesome.com License - https://fontawesome.com/license (Commercial License) Copyright 2022 Fonticons, Inc. --><path d="M576 347.2C576 352.7 574.5 358.2 571.8 363L544 341.1V282.1L368 171.1V112.1C368 81.04 342 33.02 319.1 33.02C296.1 33.02 271.1 81.04 271.1 113.1V126.4L240.7 101.6C245.4 61.97 275.2 0 319.1 0C368 0 400 74.04 400 112.1V154.1L560 254.1C568.1 260.1 576 270.1 576 282.1V347.2zM147.5 211.5L174.6 232.1L95.1 282.1V347.2L255.9 297.2L271.1 309.8V392.2L207.1 440.2V480.2L319.1 448.2L432 480.2V436.2L464 461.4V480.2C464 490.2 458.1 500.2 450.1 505.2C442.1 511.2 432.1 513.3 424 511.2L319.1 480.2L215.1 510.2C205.1 513.3 195.1 511.2 187.1 505.2C179.1 499.2 175.1 490.2 175.1 480.2V440.2C175.1 430.2 179.1 421.2 187.1 415.2L239.1 376.2V335.2L104.1 378.2C94.1 381.2 83.1 379.2 75.1 373.2C67.1 367.2 63.1 357.2 63.1 347.2V282.1C63.1 271.1 69.1 259.1 79.1 254.1L147.5 211.5zM633.9 483.4C640.9 488.9 642 498.1 636.6 505.9C631.1 512.9 621 514 614.1 508.6L6.086 28.56C-.8493 23.08-2.033 13.02 3.443 6.087C8.918-.849 18.98-2.033 25.91 3.443L633.9 483.4z"/></svg>