<svg xmlns="http://www.w3.org/2000/svg" viewBox="0 0 512 512"><!--! Font Awesome Pro 6.1.1 by @fontawesome - https://fontawesome.com License - https://fontawesome.com/license (Commercial License) Copyright 2022 Fonticons, Inc. --><path d="M256 0C304 0 336 74.04 336 112.1V154.1L496 254.1C504.1 260.1 512 270.1 512 282.1V347.2C512 357.2 507 367.2 499 373.2C491 379.2 480 381.2 471 378.2L336 335.2V376.2L387 416.2C395 422.2 400 431.2 400 441.2V480.2C400 490.2 395 500.2 387 505.2C379 511.3 368.1 513.3 360 511.3L256 480.2L152 510.2C142 513.3 132 511.3 124 505.2C116 499.2 112 490.2 112 480.2V440.2C112 430.2 116 421.2 124 415.2L176 376.2V335.2L41 378.2C31 381.2 20 379.2 12 373.2C4 367.2 0 357.2 0 347.2V282.1C0 271.1 6 259.1 16 254.1L176 153.1V112.1C176 74.04 207 0 256 0V0zM256 33.02C233 33.02 208 81.04 208 113.1V172.1L32 282.1V347.2L208 292.1V392.2L144 440.2V480.2L256 448.2L368 480.2V440.2L304 392.2V292.1L480 347.2V282.1L304 171.1V112.1C304 81.04 278 33.02 256 33.02V33.02z"/></svg>