<svg xmlns="http://www.w3.org/2000/svg" viewBox="0 0 640 512"><!--! Font Awesome Pro 6.0.0-beta3 by @fontawesome - https://fontawesome.com License - https://fontawesome.com/license (Commercial License) Copyright 2021 Fonticons, Inc. --><path d="M624.3 18.08C627.4 19.41 630.3 21.36 632.6 23.79C635 26.23 636.9 29.11 638.2 32.27C639.4 35.43 640 38.81 640 42.21V480C640 484.2 638.3 488.3 635.3 491.3C632.3 494.3 628.2 496 624 496C619.8 496 615.7 494.3 612.7 491.3C609.7 488.3 608 484.2 608 480V320H562.9C556.1 319.9 549.4 318.5 543.2 315.8C536.9 313.1 531.2 309.1 526.5 304.2C521.8 299.3 518.1 293.6 515.6 287.2C513.1 280.9 511.9 274.1 512 267.3L512.4 158.2C512.2 128.3 520.8 99 537.3 74.03C553.7 49.05 577.2 29.51 604.8 17.89C607.8 16.64 611.1 16 614.4 16C617.8 16.04 621.2 16.74 624.3 18.08V18.08zM608 51.78C588.7 61.98 572.5 77.32 561.4 96.09C550.2 114.9 544.4 136.4 544.6 158.2L544 267.5C543.1 270.3 544.5 273 545.5 275.6C546.6 278.2 548.2 280.5 550.1 282.5C551.8 284.2 553.8 285.6 555.1 286.5C558.2 287.5 560.6 287.1 562.9 288H608V51.78zM145.9 209.9C136.9 218.9 124.7 224 112 224H96V480C96 484.2 94.31 488.3 91.31 491.3C88.31 494.3 84.24 496 80 496C75.76 496 71.69 494.3 68.69 491.3C65.69 488.3 64 484.2 64 480V224H48C35.27 224 23.06 218.9 14.06 209.9C5.057 200.9 0 188.7 0 176V32C0 27.76 1.686 23.69 4.686 20.69C7.687 17.69 11.76 16 16 16C20.24 16 24.31 17.69 27.31 20.69C30.31 23.69 32 27.76 32 32V176C32 180.2 33.69 184.3 36.69 187.3C39.69 190.3 43.76 192 48 192H64V32C64 27.76 65.69 23.69 68.69 20.69C71.69 17.69 75.76 16 80 16C84.24 16 88.31 17.69 91.31 20.69C94.31 23.69 96 27.76 96 32V192H112C116.2 192 120.3 190.3 123.3 187.3C126.3 184.3 128 180.2 128 176V32C128 27.76 129.7 23.69 132.7 20.69C135.7 17.69 139.8 16 144 16C148.2 16 152.3 17.69 155.3 20.69C158.3 23.69 160 27.76 160 32V176C160 188.7 154.9 200.9 145.9 209.9zM437.8 154.2C464.8 181.2 480 217.8 480 256C480 284.5 471.6 312.3 455.7 336C439.9 359.7 417.4 378.1 391.1 389C364.8 399.9 335.8 402.8 307.9 397.2C279.1 391.7 254.3 377.1 234.2 357.8C214 337.7 200.3 312 194.8 284.1C189.2 256.2 192.1 227.2 202.1 200.9C213.9 174.6 232.3 152.1 255.1 136.3C279.7 120.4 307.5 112 336 112C374.2 112 410.8 127.2 437.8 154.2L437.8 154.2zM415.2 335.2C436.2 314.2 448 285.7 448 256C448 233.9 441.4 212.2 429.1 193.8C416.8 175.4 399.3 161 378.9 152.5C358.4 144.1 335.9 141.8 314.1 146.2C292.4 150.5 272.5 161.1 256.8 176.8C241.1 192.5 230.5 212.4 226.2 234.2C221.8 255.9 224 278.4 232.5 298.9C241 319.3 255.4 336.8 273.8 349.1C292.2 361.4 313.8 368 336 368C365.7 368 394.2 356.2 415.2 335.2zM542.7 358.2C544 359.9 544.1 361.8 545.5 363.8C546.1 365.9 546.2 367.1 545.1 370.1C545.7 372.2 545 374.2 544 376C522.1 413.9 490.3 445.1 451.9 466.2C413.6 487.3 370.2 497.5 326.5 495.7C282.8 493.1 240.4 480.3 203.9 456.2C167.4 432.1 138.2 398.4 119.4 358.9C118.3 356.1 117.6 354.9 117.4 352.7C117.2 350.5 117.4 348.3 118 346.2C118.7 344.1 119.8 342.1 121.2 340.5C122.7 338.8 124.4 337.5 126.4 336.5C128.4 335.6 130.5 335.1 132.7 334.1C134.9 334.9 137.1 335.3 139.2 336.1C141.2 336.9 143.1 338.1 144.6 339.7C146.2 341.2 147.4 343.1 148.2 345.1C164.5 379.4 189.8 408.5 221.4 429.5C253 450.4 289.8 462.2 327.7 463.8C365.6 465.3 403.2 456.4 436.4 438.2C469.6 419.9 497.2 392.8 516.2 360C518.3 356.3 521.8 353.7 525.9 352.6C529.1 351.5 534.3 352 538 354.1C539.8 355.2 541.5 356.6 542.7 358.2V358.2zM195.5 95.9C191.3 95.4 187.5 93.24 184.8 89.91C182.2 86.57 181 82.33 181.5 78.11C182 73.9 184.2 70.05 187.5 67.43C229.8 34.1 282.1 15.98 336 15.98C389.9 15.98 442.2 34.1 484.5 67.43C487.8 70.05 489.1 73.9 490.5 78.11C490.1 82.33 489.8 86.57 487.2 89.91C484.5 93.24 480.7 95.4 476.5 95.9C472.2 96.4 468 95.21 464.7 92.58C427.8 64.23 382.5 48.86 336 48.86C289.5 48.86 244.2 64.23 207.3 92.58C203.1 95.21 199.8 96.4 195.5 95.9z"/></svg>