<svg xmlns="http://www.w3.org/2000/svg" viewBox="0 0 512 512"><!--! Font Awesome Pro 6.1.1 by @fontawesome - https://fontawesome.com License - https://fontawesome.com/license (Commercial License) Copyright 2022 Fonticons, Inc. --><path d="M160 48C160 39.16 167.2 32 176 32C220.2 32 256 67.82 256 112V136C256 144.8 248.8 152 240 152C195.8 152 160 116.2 160 72V48zM192 66.73V72C192 92.9 205.4 110.7 224 117.3V112C224 91.1 210.6 73.32 192 66.73zM112 64C120.8 64 128 71.16 128 80C128 88.84 120.8 96 112 96H48C39.16 96 32 88.84 32 80C32 71.16 39.16 64 48 64H112zM144 144C152.8 144 160 151.2 160 160C160 168.8 152.8 176 144 176H16C7.164 176 0 168.8 0 160C0 151.2 7.164 144 16 144H144zM32 240C32 231.2 39.16 224 48 224H112C120.8 224 128 231.2 128 240C128 248.8 120.8 256 112 256H48C39.16 256 32 248.8 32 240zM368 112V136C368 144.8 360.8 152 352 152C307.8 152 272 116.2 272 72V48C272 39.16 279.2 32 288 32C332.2 32 368 67.82 368 112zM336 117.3V112C336 91.1 322.6 73.32 304 66.73V72C304 92.9 317.4 110.7 336 117.3zM384 48C384 39.16 391.2 32 400 32C444.2 32 480 67.82 480 112V136C480 144.8 472.8 152 464 152C419.8 152 384 116.2 384 72V48zM416 66.73V72C416 92.9 429.4 110.7 448 117.3V112C448 91.1 434.6 73.32 416 66.73zM352 168C360.8 168 368 175.2 368 184V208C368 252.2 332.2 288 288 288C279.2 288 272 280.8 272 272V248C272 203.8 307.8 168 352 168zM336 208V202.7C317.4 209.3 304 227.1 304 248V253.3C322.6 246.7 336 228.9 336 208zM256 208C256 252.2 220.2 288 176 288C167.2 288 160 280.8 160 272V248C160 203.8 195.8 168 240 168C248.8 168 256 175.2 256 184V208zM192 248V253.3C210.6 246.7 224 228.9 224 208V202.7C205.4 209.3 192 227.1 192 248zM464 168C472.8 168 480 175.2 480 184V208C480 252.2 444.2 288 400 288C391.2 288 384 280.8 384 272V248C384 203.8 419.8 168 464 168zM448 208V202.7C429.4 209.3 416 227.1 416 248V253.3C434.6 246.7 448 228.9 448 208zM480 320C497.7 320 512 334.3 512 352C512 411.7 471.1 461.9 415.8 476C415.9 477.3 416 478.7 416 480C416 497.7 401.7 512 384 512H128C110.3 512 96 497.7 96 480C96 478.7 96.08 477.3 96.24 476C40.91 461.9 0 411.7 0 352C0 334.3 14.33 320 32 320H480zM128 480H384L383.1 479.1C382 463.1 392.2 449 407.8 445C449.3 434.4 480 396.8 480 352H31.1C31.1 396.8 62.65 434.4 104.2 445C119.8 449 129.1 463.1 128 479.1L128 480z"/></svg>