<svg xmlns="http://www.w3.org/2000/svg" viewBox="0 0 512 512"><!--! Font Awesome Pro 6.0.0-beta3 by @fontawesome - https://fontawesome.com License - https://fontawesome.com/license (Commercial License) Copyright 2021 Fonticons, Inc. --><path d="M52.51 71.41C46.36 66.31 39.22 64 32.22 64C15.71 64 0 76.81 0 96.03v319.9C0 435.2 15.71 448 32.22 448c7.002 0 14.15-2.305 20.29-7.406l192-159.1c15.25-12.87 15.25-36.37 0-49.24L52.51 71.41zM32 415.1L31.78 96.18c.0586-.0527 .1816-.1113 .291-.1465l191.1 160L32 415.1zM368 64C359.2 64 352 71.16 352 80v352c0 8.836 7.164 16 16 16s16-7.164 16-16v-352C384 71.16 376.8 64 368 64zM496 64C487.2 64 480 71.16 480 80v352c0 8.836 7.164 16 16 16s16-7.164 16-16v-352C512 71.16 504.8 64 496 64z"/></svg>