<svg xmlns="http://www.w3.org/2000/svg" viewBox="0 0 576 512"><!--! Font Awesome Pro 6.1.1 by @fontawesome - https://fontawesome.com License - https://fontawesome.com/license (Commercial License) Copyright 2022 Fonticons, Inc. --><path d="M96 0C104.8 0 112 7.164 112 16V112H80V16C80 7.164 87.16 0 96 0zM288 0C296.8 0 304 7.164 304 16V112H272V16C272 7.164 279.2 0 288 0zM368 144C376.8 144 384 151.2 384 160C384 168.8 376.8 176 368 176H352V211.2C340.6 217 329.8 224.1 320 232.2V176H64V240C64 310.7 121.3 368 192 368C215.7 368 237.8 361.6 256.9 350.4C256.3 356.2 256 362 256 368C256 374.2 256.3 380.3 256.9 386.3C241.7 393 225.3 397.5 208 399.2V496C208 504.8 200.8 512 192 512C183.2 512 176 504.8 176 496V399.2C95.15 391.2 32 322.1 32 240V176H16C7.164 176 0 168.8 0 160C0 151.2 7.164 144 16 144H368zM479.9 286.1C484.2 290.7 485.2 296.9 482.5 301.8L452.4 356H488C493.2 356 497.8 359.3 499.4 364.2C501 369.1 499.3 374.5 495.2 377.6L399.2 449.6C394.7 452.1 388.4 452.8 384.1 449C379.8 445.3 378.8 439.1 381.5 434.2L411.6 380H376C370.8 380 366.2 376.7 364.6 371.8C362.1 366.9 364.7 361.5 368.8 358.4L464.8 286.4C469.3 283 475.6 283.2 479.9 286.1V286.1zM576 368C576 447.5 511.5 512 432 512C352.5 512 288 447.5 288 368C288 288.5 352.5 224 432 224C511.5 224 576 288.5 576 368zM432 256C370.1 256 320 306.1 320 368C320 429.9 370.1 480 432 480C493.9 480 544 429.9 544 368C544 306.1 493.9 256 432 256z"/></svg>