<svg xmlns="http://www.w3.org/2000/svg" viewBox="0 0 448 512"><!--! Font Awesome Pro 6.0.0-beta3 by @fontawesome - https://fontawesome.com License - https://fontawesome.com/license (Commercial License) Copyright 2021 Fonticons, Inc. --><path d="M432 160H96V144c0-39.75 29.25-72.63 67.38-78.75C170.3 83.25 187.6 96 208 96h62.39c24.41 0 46.15-17.54 49.22-41.75C323.3 24.97 300.6 0 272 0h-64C186.6 0 168.8 14 162.5 33.38C107.1 40.13 64 86.88 64 144V160H16C7.199 160 0 167.2 0 176C0 184.8 7.199 192 16 192h416C440.8 192 448 184.8 448 176C448 167.2 440.8 160 432 160zM208 32h64C280.9 32 288 39.13 288 48S280.9 64 272 64h-64C199.1 64 192 56.88 192 48S199.1 32 208 32zM385.8 224.1c-9.109-.9062-16.72 5.344-17.7 14.09l-26.22 230.7C341.2 475.2 335.6 480 328.9 480H119.1c-6.688 0-12.28-4.781-13.02-11.12L79.89 238.2C78.91 229.4 71.22 223.2 62.19 224.1C53.41 225.1 47.11 233 48.11 241.8l26.22 230.7C76.89 495 96.14 512 119.1 512h209.8c22.98 0 42.23-16.97 44.8-39.5l26.22-230.7C400.9 233 394.6 225.1 385.8 224.1z"/></svg>