<svg xmlns="http://www.w3.org/2000/svg" viewBox="0 0 512 512"><!--! Font Awesome Pro 6.0.0-beta3 by @fontawesome - https://fontawesome.com License - https://fontawesome.com/license (Commercial License) Copyright 2021 Fonticons, Inc. --><path d="M257.2 22.67C310.5 59.49 315.3 139.8 278.7 206.2L278.3 206.9L277.8 207.6C277.2 208.5 277.5 209.5 278.2 210C278.4 210.2 278.5 210.2 278.6 210.2C278.7 210.3 278.8 210.3 278.9 210.3C278.9 210.2 279 210.2 279.1 210.1C279.3 210.1 279.4 209.9 279.6 209.7L279.1 209.1L280.4 208.6C328.3 150.6 403.8 126.1 456.9 164.2C520.8 209.6 528.1 304.3 482 373.9C398.6 497.1 224.9 558.9 101.5 470.4C101.5 470.4 101.5 470.4 101.5 470.4C-21.87 382.3-27.38 196.3 56.06 73.06C56.06 73.07 56.05 73.08 56.04 73.09L69.33 81.1L56.08 73.03C56.08 73.04 56.07 73.05 56.06 73.06C103.1 2.894 192.9-22.8 257.2 22.67L257.2 22.67zM238.8 48.84C192.6 16.11 122.2 31.91 82.62 90.91L82.58 90.97C5.729 204.5 14.97 369.3 120.1 444.4C224.2 519 378.6 469.5 455.5 355.1C495.1 297.3 484.9 223.3 438.3 190.3L438.2 190.3C404.8 166.2 347.9 177.5 305.5 228.5C294.8 243.2 274.4 246.8 259.4 235.1C244.7 225.4 241.2 205.2 250.1 190.2C283.1 131.4 273.1 72.44 238.1 48.96L238.8 48.84zM110.8 457.4L101.5 470.4z"/></svg>