<svg xmlns="http://www.w3.org/2000/svg" viewBox="0 0 512 512"><!--! Font Awesome Pro 6.0.0-beta3 by @fontawesome - https://fontawesome.com License - https://fontawesome.com/license (Commercial License) Copyright 2021 Fonticons, Inc. --><path d="M472.7 348.3c6.727-12.65 10.33-26.86 10.33-41.65c0-39.51-25.7-73.13-61.26-85.03c2.24-7.496 3.395-15.37 3.395-23.47c0-37.01-24.53-68.41-58.19-78.77C367.2 116.7 367.3 114 367.3 111.3C367.3 49.94 317.4 0 256 0C255.7 0 254.1 .0195 253.7 .0313C242.8 .3867 232.8 6.326 227.2 15.77c-5.564 9.445-5.908 21.08-.9102 30.83C229.7 53.32 231.5 60.5 231.5 67.93c0 26.36-21.44 47.8-47.8 47.8H169.2c-45.44 0-82.4 36.96-82.4 82.4c0 8.1 1.154 15.97 3.393 23.47C54.63 233.5 28.93 267.1 28.93 306.6c0 14.79 3.605 28.99 10.33 41.64C15.3 364.4 0 391.7 0 422.4C0 471.8 40.21 512 89.63 512h332.7C471.8 512 512 471.8 512 422.4C512 391.7 496.7 364.4 472.7 348.3zM422.4 480H89.63C57.86 480 32 454.1 32 422.4c0-28.37 20.42-52.21 48.53-56.7c6.494-1.059 8.539-9.358 3.34-13.31c-14.58-11.1-22.94-27.75-22.94-45.72c0-31.78 25.86-57.63 57.63-57.63h12.78c6.927 0 10.07-8.605 4.9-13.1C124.1 226.1 118.8 212.7 118.8 198.1c0-27.8 22.6-50.4 50.4-50.4H183.7c43.1 0 79.8-35.8 79.8-79.8c0-12.5-2.975-24.73-8.705-35.92c42.01-1.361 80.57 33.62 80.57 79.32c0 8.617-1.633 17.5-4.855 26.38c-1.869 5.142 .3608 10.02 12.32 10.02c27.79 0 50.4 22.61 50.4 50.4c0 14.55-6.199 27.97-17.44 37.77C370.6 240.4 373.7 249 380.7 249h12.78c31.78 0 57.63 25.86 57.63 57.63c0 17.97-8.355 34.62-22.94 45.72c-5.194 3.952-3.163 12.25 3.34 13.31C459.6 370.2 480 394 480 422.4C480 454.1 454.1 480 422.4 480z"/></svg>