<svg xmlns="http://www.w3.org/2000/svg" viewBox="0 0 448 512"><!--! Font Awesome Pro 6.0.0-beta3 by @fontawesome - https://fontawesome.com License - https://fontawesome.com/license (Commercial License) Copyright 2021 Fonticons, Inc. --><path d="M310.6 352l100.7-100.7c6.25-6.25 6.25-16.38 0-22.62s-16.38-6.25-22.62 0L288 329.4L182.6 224H192c52.94 0 96-43.06 96-96s-43.06-96-96-96H80C53.53 32 32 53.53 32 80v224C32 312.8 39.16 320 48 320S64 312.8 64 304V224h73.38l128 128l-100.7 100.7c-6.25 6.25-6.25 16.38 0 22.62C167.8 478.4 171.9 480 176 480s8.188-1.562 11.31-4.688L288 374.6l100.7 100.7C391.8 478.4 395.9 480 400 480s8.188-1.562 11.31-4.688c6.25-6.25 6.25-16.38 0-22.62L310.6 352zM64 80C64 71.19 71.17 64 80 64H192c35.3 0 64 28.72 64 64s-28.7 64-64 64H64V80z"/></svg>