<svg xmlns="http://www.w3.org/2000/svg" viewBox="0 0 384 512"><!--! Font Awesome Pro 6.1.1 by @fontawesome - https://fontawesome.com License - https://fontawesome.com/license (Commercial License) Copyright 2022 Fonticons, Inc. --><path d="M379.3 100.7l-48-48C328.3 49.69 324.3 48 320 48h-80V32c0-17.67-14.33-32-32-32h-96c-17.67 0-32 14.33-32 32v96.41C48.9 130.6 23.49 154.7 20.63 186.2l-20.36 256C-3.139 479.7 26.37 512 64.01 512h191.1c37.63 0 67.14-32.31 63.74-69.79l-20.36-256C296.5 154.7 271.1 130.6 240 128.4V80h73.38l43.31 43.31C359.8 126.4 363.9 128 368 128s8.188-1.562 11.31-4.688C385.6 117.1 385.6 106.9 379.3 100.7zM112 32h96v96h-96V32zM267.5 188.7l20.39 256.4c.8242 9.064-2.102 17.76-8.24 24.48C273.5 476.3 265.1 480 255.1 480H64.01c-9.102 0-17.49-3.701-23.63-10.42c-6.139-6.721-9.064-15.41-8.211-24.84l20.33-255.6C53.92 173.5 66.4 161.1 82.19 160h155.6C253.6 161.1 266.1 173.5 267.5 188.7zM226.7 293.3h-40v-40C186.7 245.1 180.7 240 173.3 240h-26.67c-7.363 0-13.33 5.969-13.33 13.33v40H93.33c-7.363 0-13.33 5.969-13.33 13.33v26.67c0 7.363 5.971 13.33 13.33 13.33h40v40c0 7.363 5.969 13.33 13.33 13.33h26.67c7.363 0 13.33-5.971 13.33-13.33v-40h40c7.363 0 13.33-5.971 13.33-13.33V306.7C239.1 299.3 234 293.3 226.7 293.3z"/></svg>