<svg xmlns="http://www.w3.org/2000/svg" viewBox="0 0 640 512"><!--! Font Awesome Pro 6.1.1 by @fontawesome - https://fontawesome.com License - https://fontawesome.com/license (Commercial License) Copyright 2022 Fonticons, Inc. --><path d="M576 176c-18.53 0-36.09 10-48.16 27.42C526.9 204.8 524.3 208 520.4 208C515.8 208 512 204.3 512 199.6V112C512 85.53 490.5 64 464 64l-87.64 0C354.1 63.1 336 82.11 336 104.4c0 13.19 6.859 25.83 18.36 33.8C359.5 141.7 368 149.2 368 160c0 17.34-21.98 32-48 32S272 177.3 272 160c0-10.8 8.547-18.31 13.67-21.86C297.1 130.2 304 117.5 304 104.4c0-22.25-18.11-40.36-40.36-40.36L176 64C149.5 64 128 85.53 128 112v87.64C128 204.3 124.3 208 119.6 208c-3.891 0-6.531-3.203-7.484-4.578C100.1 186 82.53 176 64 176C28.7 176 .0004 211.9 .0004 256S28.7 336 64 336c18.55 0 36.09-9.1 48.14-27.42C113.1 307.2 115.7 304 119.6 304C124.3 304 128 307.7 128 312.4V400C128 426.5 149.5 448 176 448h87.64C285.9 448 304 429.9 304 407.6c0-13.19-6.859-25.83-18.36-33.8C280.5 370.3 272 362.8 272 352c0-17.34 21.98-32 48-32s48 14.66 48 32c0 10.8-8.547 18.31-13.67 21.86C342.9 381.8 336 394.5 336 407.6C336 429.9 354.1 448 376.4 448H464c26.47 0 48-21.53 48-48V312.4C512 307.7 515.8 304 520.4 304c3.906 0 6.547 3.203 7.484 4.547C539.9 326 557.5 336 576 336c35.3 0 64-35.89 64-80S611.3 176 576 176zM576 304c-10.8 0-18.31-8.547-21.86-13.67C546.2 278.9 533.5 272 520.4 272C498.1 272 480 290.1 480 312.4V400c0 8.828-7.172 16-16 16h-87.64C371.8 416 368 412.3 368 407.6c0-3.906 3.203-6.547 4.547-7.484C389.1 388.1 400 370.5 400 352c0-35.3-35.89-64-80-64s-80 28.7-80 64c0 18.55 9.1 36.09 27.42 48.14C268.8 401.1 272 403.7 272 407.6C272 412.3 268.3 416 263.6 416H176C167.2 416 160 408.8 160 400V312.4C160 290.1 141.9 272 119.6 272c-13.19 0-25.83 6.859-33.8 18.36C82.31 295.5 74.8 304 64 304C46.66 304 32 282 32 256s14.66-48 32-48c10.8 0 18.31 8.547 21.84 13.64C93.8 233.1 106.4 240 119.6 240C141.9 240 160 221.9 160 199.6V112C160 103.2 167.2 96 176 96h87.64C268.3 96 272 99.75 272 104.4c0 3.906-3.203 6.547-4.547 7.484C249.1 123.9 240 141.5 240 160c0 35.3 35.89 64 80 64s80-28.7 80-64c0-18.55-10-36.09-27.42-48.14C371.2 110.9 368 108.3 368 104.4C368 99.75 371.8 96 376.4 96H464C472.8 96 480 103.2 480 112v87.64C480 221.9 498.1 240 520.4 240c13.2 0 25.84-6.859 33.8-18.36C557.7 216.5 565.2 208 576 208c17.34 0 32 21.98 32 48S593.3 304 576 304z"/></svg>