<svg xmlns="http://www.w3.org/2000/svg" viewBox="0 0 448 512"><!--! Font Awesome Pro 6.1.1 by @fontawesome - https://fontawesome.com License - https://fontawesome.com/license (Commercial License) Copyright 2022 Fonticons, Inc. --><path d="M382.7 413.9c40.33-40.53 65.31-96.35 65.31-157.9c0-123.5-100.5-224-223.1-224s-223.1 100.5-223.1 224s100.5 224 223.1 224c50.47 0 96.94-16.99 134.4-45.26l61.42 71.66C423 510.1 427.5 512 431.1 512c4.943 0 16-3.738 16-16.01c0-3.688-1.269-7.391-3.862-10.4L382.7 413.9zM223.1 448c-105.9 0-191.1-86.13-191.1-192s86.12-192 191.1-192s191.1 86.13 191.1 192c0 51.85-20.74 98.88-54.26 133.5l-109.6-127.9c-3.153-3.678-7.63-5.55-12.14-5.55c-12.32 0-16.01 11.07-16.01 15.96c0 3.688 1.269 7.391 3.862 10.4l109.7 128C305.7 433.9 266.5 448 223.1 448z"/></svg>