<svg xmlns="http://www.w3.org/2000/svg" viewBox="0 0 576 512"><!--! Font Awesome Pro 6.0.0-beta3 by @fontawesome - https://fontawesome.com License - https://fontawesome.com/license (Commercial License) Copyright 2021 Fonticons, Inc. --><path d="M480 288c-35.35 0-64 28.65-64 64s28.65 64 64 64c11.72 0 22.55-3.379 32-8.877V416c0 35.3-28.7 64-64 64c-8.844 0-16 7.156-16 16S439.2 512 448 512c52.94 0 96-43.06 96-96v-64C544 316.7 515.3 288 480 288zM480 384c-17.64 0-32-14.36-32-32s14.36-32 32-32s32 14.36 32 32S497.6 384 480 384zM320 160c0-35.35-28.65-64-64-64C244.3 96 233.4 99.38 224 104.9V96c0-35.3 28.7-64 64-64c8.844 0 16-7.156 16-16S296.8 0 288 0C235.1 0 192 43.06 192 96v64c0 35.35 28.65 64 64 64S320 195.3 320 160zM224 160c0-17.64 14.36-32 32-32s32 14.36 32 32S273.6 192 256 192S224 177.6 224 160zM96 96C84.28 96 73.45 99.38 64 104.9V96c0-35.3 28.7-64 64-64c8.844 0 16-7.156 16-16S136.8 0 128 0C75.06 0 32 43.06 32 96v64c0 35.35 28.65 64 64 64s64-28.65 64-64S131.3 96 96 96zM96 192C78.36 192 64 177.6 64 160s14.36-32 32-32s32 14.36 32 32S113.6 192 96 192zM320 288c-35.35 0-64 28.65-64 64s28.65 64 64 64c11.72 0 22.55-3.379 32-8.877V416c0 35.3-28.7 64-64 64c-8.844 0-16 7.156-16 16S279.2 512 288 512c52.94 0 96-43.06 96-96v-64C384 316.7 355.3 288 320 288zM320 384c-17.64 0-32-14.36-32-32s14.36-32 32-32s32 14.36 32 32S337.6 384 320 384z"/></svg>