<svg xmlns="http://www.w3.org/2000/svg" viewBox="0 0 320 512"><!--! Font Awesome Pro 6.0.0-beta3 by @fontawesome - https://fontawesome.com License - https://fontawesome.com/license (Commercial License) Copyright 2021 Fonticons, Inc. --><path d="M205 286.7c64.4-6.629 114.1-60.45 114.1-126.6C319.1 89.51 262.5 32 191.9 32H15.1C7.156 32 0 39.16 0 48v416C0 472.8 7.156 480 15.1 480c8.844 0 15.1-7.156 15.1-16V288h135.4l123.2 184.9C293.8 477.5 298.8 480 304 480c3.047 0 6.125-.875 8.859-2.688c7.359-4.906 9.344-14.84 4.437-22.19L205 286.7zM31.1 64h159.1c52.94 0 95.1 43.06 95.1 96s-43.06 96-95.1 96h-159.1V64z"/></svg>