<svg xmlns="http://www.w3.org/2000/svg" viewBox="0 0 640 512"><!--! Font Awesome Pro 6.1.1 by @fontawesome - https://fontawesome.com License - https://fontawesome.com/license (Commercial License) Copyright 2022 Fonticons, Inc. --><path d="M512 224c-8.875 0-16 7.125-16 16S503.1 256 512 256s16-7.125 16-16S520.9 224 512 224zM602.9 191.2c-.625-.5-58.5-36-58.5-36c-2.5-1.625-9.75-5.125-18.38-7.5c-1.249-7.5-2.874-14.75-4.874-22.13C515.3 103.8 492.5 32 446.6 32c-38 0-44.25 41.88-44.5 43.38c-32.13-17.25-55.5-13.25-69.75 1C323.8 85.12 311.9 104.8 328 139.8C297 123.4 266.5 112 240 112c-45.75 0-86.25 18.38-117.9 52.38C108.6 151.2 90.88 144 72 144c-19.25 0-37.38 7.5-51 21.12c-28 28-28 73.75 0 101.8C34.62 280.5 52.75 288 72 288c12.75 0 24.75-3.625 35.5-9.75c3.625 6.25 7.625 12.38 12.88 18l54 58.5l-25 13.5C136 377.1 128 392.1 128 408.2V432c0 17.25 8.875 32.75 23.88 41.5C159.4 477.9 167.7 480 175.9 480c8.125 0 16.46-2.125 23.83-6.375l55.25-31.5l25.5 27.63C286.5 476.2 295 480 304 480h160c17.62 0 32-14.38 32-32c0-35.25-28.75-64-64-64H384l70.38-32h97C600.3 352 640 312.2 640 263.4C640 234.8 626.1 207.8 602.9 191.2zM96.25 246.9C71.75 266.1 49.38 250 43.62 244.2c-15.62-15.62-15.62-40.87 0-56.5c15.62-15.63 41-15.63 56.62 0C101.5 189 102.5 190.5 103.5 192C95.75 209.4 93.12 228.5 96.25 246.9zM183.9 445.9C173.4 451.9 160 444.2 160 432v-23.75c0-5.375 2.625-10.37 5.75-12.62l31-16.62l36 39L183.9 445.9zM551.4 320l-103.4-.0018L384 346.6v-2.25c0-49.75-33.38-93.1-81.25-107.6L260.4 224.6c-20.5-5.875-29.13 25-8.75 30.75L293.1 267.5C328.1 277.2 352 308.9 352 344.4V416h80c17.62 0 31.98 14.38 31.98 32L304 448L143.9 274.5C121.5 250.2 121.1 213.1 143 188.5C163.1 165.8 194.3 144 239.9 144C297.2 144 392.8 219.2 448 256c0-31.12-.5-30.75 3.5-43c-15.25-3.5-37.75-17.88-59.13-39.25c-31-31-47.62-64.38-37.38-74.75c10.75-10.75 45.13 7.875 74.75 37.38C433 139.6 436 142.9 438.9 146.2C427.2 101.6 430.8 64 446.6 64c13.88 0 32.88 30 43.62 70c4 15.25 6.25 29.87 6.875 42.5c14.25-1 25.03 3.351 30.65 6.101l56.48 34.66C599.1 227.9 608 244.1 608 263.4C608 294.6 582.6 320 551.4 320z"/></svg>