<svg xmlns="http://www.w3.org/2000/svg" viewBox="0 0 448 512"><!--! Font Awesome Pro 6.0.0-beta3 by @fontawesome - https://fontawesome.com License - https://fontawesome.com/license (Commercial License) Copyright 2021 Fonticons, Inc. --><path d="M224 155.4c0-26.72-31.79-83.96-50.56-115.4C170.3 34.64 165.1 32 160 32C154.9 32 149.7 34.64 146.6 39.93C127.8 71.4 96 128.6 96 155.4C96 193.3 124.7 224 160 224S224 193.3 224 155.4zM160 192C142.4 192 128 175.6 128 155.4C128 148.9 135.1 125.6 160 80.68C184.9 125.6 192 148.9 192 155.4C192 175.6 177.6 192 160 192zM64 224C58.86 224 53.71 226.6 50.56 231.9C31.79 263.4 0 320.6 0 347.4C0 385.3 28.65 416 64 416s64-30.73 64-68.64c0-26.72-31.79-83.96-50.56-115.4C74.29 226.6 69.15 224 64 224zM64 384c-17.64 0-32-16.44-32-36.64C32 340.9 39.07 317.6 64 272.7c24.94 44.94 32 68.21 32 74.68C96 367.6 81.64 384 64 384zM334.6 135.5C331.1 130.5 325.6 128 320 128s-11.14 2.502-14.59 7.506C271.8 184.1 192 305.2 192 358.3C192 425.5 249.3 480 320 480s128-54.51 128-121.7C448 305.2 368.2 184.1 334.6 135.5zM320 448c-52.93 0-96-40.26-96-89.74c0-27.77 37.28-100.3 96-187.4c58.72 87.12 96 159.6 96 187.4C416 407.7 372.9 448 320 448z"/></svg>