<svg xmlns="http://www.w3.org/2000/svg" viewBox="0 0 640 512"><!--! Font Awesome Pro 6.1.1 by @fontawesome - https://fontawesome.com License - https://fontawesome.com/license (Commercial License) Copyright 2022 Fonticons, Inc. --><path d="M295.5 15.2C305.7-5.415 334.9-4.753 344.6 15.32L364.5 55.48L408.6 61.84C430.6 65.25 440.1 92.48 423.9 108.7L423.7 108.9L391.8 139.7L399.4 183.7C402.8 205.8 379.9 222.9 359.6 212.7L359.3 212.5L320.2 192L280.4 213C260.1 223.2 237.2 206.1 240.6 184.1L240.7 183.8L248.2 139.1L216.1 108.7C199.9 92.48 209.4 65.25 231.4 61.84L231.6 61.82L275.5 55.48L295.5 15.24L295.5 15.2zM296.8 84.75L245 92.21L282.6 128.8L273.7 180.4L320.2 155.8L366.3 180.1L357.4 128.4L394.9 92.21L343.2 84.75L319.1 37.79L296.8 84.75zM192 368V464C192 490.5 170.5 512 144 512H48C21.49 512 0 490.5 0 464V368C0 341.5 21.49 320 48 320H144C170.5 320 192 341.5 192 368zM32 464C32 472.8 39.16 480 48 480H144C152.8 480 160 472.8 160 464V368C160 359.2 152.8 352 144 352H48C39.16 352 32 359.2 32 368V464zM416 464C416 490.5 394.5 512 368 512H272C245.5 512 224 490.5 224 464V304C224 277.5 245.5 256 272 256H368C394.5 256 416 277.5 416 304V464zM256 464C256 472.8 263.2 480 272 480H368C376.8 480 384 472.8 384 464V304C384 295.2 376.8 288 368 288H272C263.2 288 256 295.2 256 304V464zM592 384C618.5 384 640 405.5 640 432V464C640 490.5 618.5 512 592 512H496C469.5 512 448 490.5 448 464V432C448 405.5 469.5 384 496 384H592zM480 464C480 472.8 487.2 480 496 480H592C600.8 480 608 472.8 608 464V432C608 423.2 600.8 416 592 416H496C487.2 416 480 423.2 480 432V464z"/></svg>