<svg xmlns="http://www.w3.org/2000/svg" viewBox="0 0 576 512"><!--! Font Awesome Pro 6.1.1 by @fontawesome - https://fontawesome.com License - https://fontawesome.com/license (Commercial License) Copyright 2022 Fonticons, Inc. --><path d="M112 160c-8.875 0-15.99 7.119-15.99 15.99c0 8.875 7.117 15.99 15.99 15.99s15.99-7.118 15.99-15.99C127.1 167.1 120.9 160 112 160zM552.9 97.78l-96 48C451.4 148.4 448 154 448 160h-32V79.99c0-8.875-7.125-16-16-16S384 71.16 384 80.03v80h-32V48.03c0-8.875-7.125-16-16-16S320 39.16 320 48.03v49.75c-21-21.63-49.88-33.78-80-33.78L195.4 64.03L54.5 1.406C49.5-.844 43.88-.344 39.25 2.656C34.75 5.531 32 10.66 32 16.03v81.88C11.5 118.7 0 146.8 0 176c0 60.5 48 109.4 108 111.6l-69.5 120.4c-6.375 11-8.125 24.13-4.875 36.38C37 456.8 45 467.3 56 473.5l55.5 32c11 6.375 24.12 8.125 36.38 4.875C160.2 507.2 170.8 499 177 488l127.4-220.6C309.1 263.5 315.2 259.2 320 254.3v49.75c0 8.875 7.125 16 16 16S352 312.9 352 304V192h32v80C384 280.9 391.1 288 400 288S416 280.9 416 272V192h32c0 6 3.375 11.5 8.875 14.25l96 48c4.875 2.5 10.88 2.25 15.5-.625C573.1 250.8 576 245.5 576 240V112c0-5.5-2.875-10.62-7.625-13.62C563.8 95.53 557.8 95.28 552.9 97.78zM64 40.66l52.63 23.38L112 64.01C95.38 64.14 79 67.86 64 75.23V40.66zM149.4 471.9C145.6 478.6 136.2 483 127.5 477.9l-55.38-32c-9.013-5.107-9.729-15.51-6-21.88l78.63-136h110.7L149.4 471.9zM240 256h-128c-44.12 0-80-35.88-80-80s35.88-80 80-80h128c44.13 0 80 35.88 80 80S284.1 256 240 256zM544 214.2l-64-32V169.9l64-32V214.2zM176 160c-8.875 0-16 7.125-16 16c0 8.875 7.125 16 16 16S192 184.9 192 176C192 167.1 184.9 160 176 160zM240 160c-8.875 0-16 7.111-16 15.99c0 8.875 7.125 16.01 16 16.01S256 184.9 256 176C256 167.2 248.9 160 240 160z"/></svg>