<svg xmlns="http://www.w3.org/2000/svg" viewBox="0 0 384 512"><!--! Font Awesome Pro 6.1.1 by @fontawesome - https://fontawesome.com License - https://fontawesome.com/license (Commercial License) Copyright 2022 Fonticons, Inc. --><path d="M288 143.1C296.8 143.1 304 151.2 304 159.1C304 168.8 296.8 175.1 288 175.1H96C87.16 175.1 80 168.8 80 159.1C80 151.2 87.16 143.1 96 143.1H288zM80 352C80 343.2 87.16 336 96 336H288C296.8 336 304 343.2 304 352C304 360.8 296.8 368 288 368H96C87.16 368 80 360.8 80 352zM288 239.1C296.8 239.1 304 247.2 304 255.1C304 264.8 296.8 271.1 288 271.1H96C87.16 271.1 80 264.8 80 255.1C80 247.2 87.16 239.1 96 239.1H288zM79.27 50.1L124.7 4.687C130.9-1.562 141.1-1.562 147.3 4.687L192 49.37L236.7 4.687C242.9-1.562 253.1-1.562 259.3 4.687L304.7 50.1L357.5 3.959C362.2-.175 368.9-1.164 374.6 1.43C380.3 4.024 384 9.722 384 16V496C384 502.3 380.3 507.1 374.6 510.6C368.9 513.2 362.2 512.2 357.5 508L304.7 461.9L259.3 507.3C253.1 513.6 242.9 513.6 236.7 507.3L192 462.6L147.3 507.3C141.1 513.6 130.9 513.6 124.7 507.3L79.27 461.9L26.54 508C21.81 512.2 15.11 513.2 9.388 510.6C3.671 507.1 0 502.3 0 496V16C0 9.722 3.672 4.024 9.388 1.43C15.11-1.164 21.81-.175 26.54 3.959L79.27 50.1zM69.46 427.1C75.8 422.4 85.36 422.7 91.31 428.7L136 473.4L180.7 428.7C186.9 422.4 197.1 422.4 203.3 428.7L248 473.4L292.7 428.7C298.6 422.7 308.2 422.4 314.5 427.1L352 460.7V51.26L314.5 84.04C308.2 89.59 298.6 89.27 292.7 83.31L248 38.63L203.3 83.31C197.1 89.56 186.9 89.56 180.7 83.31L136 38.63L91.31 83.31C85.36 89.27 75.8 89.59 69.46 84.04L32 51.26V460.7L69.46 427.1z"/></svg>