<svg xmlns="http://www.w3.org/2000/svg" viewBox="0 0 512 512"><!--! Font Awesome Pro 6.1.1 by @fontawesome - https://fontawesome.com License - https://fontawesome.com/license (Commercial License) Copyright 2022 Fonticons, Inc. --><path d="M315.1 173.4L379.1 245.4C385.3 251.4 385.3 260.6 379.1 266.6L315.1 338.6C310.1 345.2 299.1 345.8 293.4 339.1C286.8 334.1 286.2 323.1 292 317.4L346.6 255.1L292 194.6C286.2 188 286.8 177.9 293.4 172C299.1 166.2 310.1 166.8 315.1 173.4V173.4zM165.4 256L219.1 317.4C225.8 323.1 225.2 334.1 218.6 339.1C212 345.8 201.9 345.2 196 338.6L132 266.6C126.7 260.6 126.7 251.4 132 245.4L196 173.4C201.9 166.8 212 166.2 218.6 172C225.2 177.9 225.8 188 219.1 194.6L165.4 256zM448 32C483.3 32 512 60.65 512 96V416C512 451.3 483.3 480 448 480H64C28.65 480 0 451.3 0 416V96C0 60.65 28.65 32 64 32H448zM448 64H64C46.33 64 32 78.33 32 96V416C32 433.7 46.33 448 64 448H448C465.7 448 480 433.7 480 416V96C480 78.33 465.7 64 448 64z"/></svg>