<svg xmlns="http://www.w3.org/2000/svg" viewBox="0 0 512 512"><!--! Font Awesome Pro 6.1.1 by @fontawesome - https://fontawesome.com License - https://fontawesome.com/license (Commercial License) Copyright 2022 Fonticons, Inc. --><path d="M122.4 147.9L234.4 243.9C237.1 246.9 240 251.3 240 256C240 260.7 237.1 265.1 234.4 268.1L122.4 364.1C115.7 369.9 105.6 369.1 99.85 362.4C94.1 355.7 94.88 345.6 101.6 339.9L199.4 256L101.6 172.1C94.88 166.4 94.1 156.3 99.85 149.6C105.6 142.9 115.7 142.1 122.4 147.9V147.9zM400 352C408.8 352 416 359.2 416 368C416 376.8 408.8 384 400 384H224C215.2 384 208 376.8 208 368C208 359.2 215.2 352 224 352H400zM448 32C483.3 32 512 60.65 512 96V416C512 451.3 483.3 480 448 480H64C28.65 480 0 451.3 0 416V96C0 60.65 28.65 32 64 32H448zM448 64H64C46.33 64 32 78.33 32 96V416C32 433.7 46.33 448 64 448H448C465.7 448 480 433.7 480 416V96C480 78.33 465.7 64 448 64z"/></svg>