<svg xmlns="http://www.w3.org/2000/svg" viewBox="0 0 640 512"><!--! Font Awesome Pro 6.1.1 by @fontawesome - https://fontawesome.com License - https://fontawesome.com/license (Commercial License) Copyright 2022 Fonticons, Inc. --><path d="M152 168C182.9 168 208 193.1 208 224C208 254.9 182.9 280 152 280H112V328C112 336.8 104.8 344 96 344C87.16 344 80 336.8 80 328V184C80 175.2 87.16 168 96 168H152zM176 224C176 210.7 165.3 200 152 200H112V248H152C165.3 248 176 237.3 176 224zM240 184C240 175.2 247.2 168 256 168H312C342.9 168 368 193.1 368 224C368 245.9 355.4 264.8 337.1 274L365.6 319.5C370.3 327 367.1 336.9 360.5 341.6C352.1 346.2 343.1 343.1 338.4 336.5L303.1 280H271.1V328C271.1 336.8 264.8 344 255.1 344C247.2 344 239.1 336.8 239.1 328L240 184zM272 248H312C325.3 248 336 237.3 336 224C336 210.7 325.3 200 312 200H272V248zM560 248V264C560 308.2 524.2 344 480 344C435.8 344 400 308.2 400 264V248C400 203.8 435.8 168 480 168C524.2 168 560 203.8 560 248zM432 264C432 290.5 453.5 312 480 312C506.5 312 528 290.5 528 264V248C528 221.5 506.5 200 480 200C453.5 200 432 221.5 432 248V264zM0 96C0 60.65 28.65 32 64 32H576C611.3 32 640 60.65 640 96V416C640 451.3 611.3 480 576 480H64C28.65 480 0 451.3 0 416V96zM32 96V416C32 433.7 46.33 448 64 448H576C593.7 448 608 433.7 608 416V96C608 78.33 593.7 64 576 64H64C46.33 64 32 78.33 32 96z"/></svg>