<svg xmlns="http://www.w3.org/2000/svg" viewBox="0 0 448 512"><!--! Font Awesome Pro 6.0.0-beta3 by @fontawesome - https://fontawesome.com License - https://fontawesome.com/license (Commercial License) Copyright 2021 Fonticons, Inc. --><path d="M16 32H64v48C55.16 80 48 87.16 48 96c0 8.836 7.164 16 16 16h320c8.836 0 16-7.164 16-16c0-8.838-7.164-16-16-16V32h48C440.8 32 448 24.84 448 16C448 7.162 440.8 0 432 0h-416C7.164 0 0 7.162 0 16C0 24.84 7.164 32 16 32zM96 32h256v48H96V32zM384 144H64C55.16 144 48 151.2 48 160c0 8.836 7.164 16 16 16h320c8.836 0 16-7.164 16-16C400 151.2 392.8 144 384 144zM432 480H384v-48c8.836 0 16-7.164 16-16c0-8.838-7.164-16-16-16H64c-8.836 0-16 7.162-16 16c0 8.836 7.164 16 16 16V480H16C7.164 480 0 487.2 0 496C0 504.8 7.164 512 16 512h416c8.836 0 16-7.164 16-16C448 487.2 440.8 480 432 480zM352 480H96v-48h256V480zM384 272H64C55.16 272 48 279.2 48 288c0 8.836 7.164 16 16 16h320c8.836 0 16-7.164 16-16C400 279.2 392.8 272 384 272zM432 208H64C55.16 208 48 215.2 48 224c0 8.836 7.164 16 16 16h368C440.8 240 448 232.8 448 224C448 215.2 440.8 208 432 208zM384 336H64c-8.836 0-16 7.162-16 16c0 8.836 7.164 16 16 16h320c8.836 0 16-7.164 16-16C400 343.2 392.8 336 384 336z"/></svg>