<svg xmlns="http://www.w3.org/2000/svg" viewBox="0 0 512 512"><!--! Font Awesome Pro 6.1.1 by @fontawesome - https://fontawesome.com License - https://fontawesome.com/license (Commercial License) Copyright 2022 Fonticons, Inc. --><path d="M256 0C114.6 0 0 114.6 0 256s114.6 256 256 256s256-114.6 256-256S397.4 0 256 0zM256 480c-123.5 0-224-100.5-224-224s100.5-224 224-224s224 100.5 224 224S379.5 480 256 480zM368 216C368 167.5 328.5 128 280 128H208C181.5 128 160 149.5 160 176v192C160 376.8 167.2 384 176 384S192 376.8 192 368v-64h86.95l43.33 72.22C325.3 381.2 330.6 384 336 384c2.812 0 5.656-.7187 8.219-2.281c7.594-4.531 10.06-14.38 5.5-21.94l-37.29-62.15C344.9 284.7 368 253.1 368 216zM280 272H192v-96C192 167.2 199.2 160 208 160h72c30.88 0 56 25.12 56 56S310.9 272 280 272z"/></svg>