<svg xmlns="http://www.w3.org/2000/svg" viewBox="0 0 576 512"><!--! Font Awesome Pro 6.1.1 by @fontawesome - https://fontawesome.com License - https://fontawesome.com/license (Commercial License) Copyright 2022 Fonticons, Inc. --><path d="M400 224H188.2l158.1-131.7c6.781-5.656 7.688-15.75 2.031-22.53c-5.688-6.812-15.78-7.687-22.53-2.031l-192 159.1C130.1 230.8 128 235.2 128 239.1c0 4.75 2.094 9.253 5.75 12.28l192 159.1c3 2.5 6.625 3.719 10.25 3.719c4.562 0 9.125-1.969 12.28-5.75c5.656-6.781 4.75-16.87-2.031-22.53L188.2 256H400c79.41 0 144 64.59 144 143.1v31.1C544 440.8 551.2 448 560 448s16-7.156 16-15.1v-31.1C576 302.1 497 224 400 224zM41 240l177.3-147.7c6.781-5.656 7.688-15.75 2.031-22.53c-5.656-6.812-15.75-7.687-22.53-2.031l-192 159.1C2.094 230.8 0 235.2 0 239.1c0 4.75 2.094 9.253 5.75 12.28l192 159.1c3 2.5 6.625 3.719 10.25 3.719c4.562 0 9.125-1.969 12.28-5.75c5.656-6.781 4.75-16.87-2.031-22.53L41 240z"/></svg>