<svg xmlns="http://www.w3.org/2000/svg" viewBox="0 0 640 512"><!--! Font Awesome Pro 6.0.0-beta3 by @fontawesome - https://fontawesome.com License - https://fontawesome.com/license (Commercial License) Copyright 2021 Fonticons, Inc. --><path d="M319.1 0C311.2 0 304 7.199 304 16v480c0 8.799 7.199 16 15.1 16s15.1-7.201 15.1-16v-480C335.1 7.199 328.8 0 319.1 0zM224.3 169.2C210.2 143.8 183.4 128 154.3 128H133.7C104.6 128 77.82 143.8 63.73 169.2L2.01 280.2c-4.281 7.719-1.5 17.45 6.219 21.75c7.625 4.25 17.44 1.547 21.78-6.219l61.72-111.1C100.2 169.5 116.2 160 133.7 160h20.69C171.8 160 187.8 169.5 196.3 184.7l61.72 111.1C260.9 301 266.4 304 272 304c2.656 0 5.312-.6406 7.781-2.016c7.719-4.297 10.5-14.03 6.219-21.75L224.3 169.2zM144 112c30.87 0 55.1-25.12 55.1-56S174.9 0 144 0S88.01 25.12 88.01 56S113.1 112 144 112zM144 32c13.22 0 23.1 10.77 23.1 24S157.2 80 144 80c-13.22 0-23.1-10.77-23.1-24S130.8 32 144 32zM192 240C183.2 240 176 247.2 176 256v80H112V256c0-8.844-7.156-16-15.1-16S80.01 247.2 80.01 256v240c0 8.844 7.156 16 15.1 16s15.1-7.156 15.1-16v-128h63.1v128c0 8.844 7.156 16 15.1 16c8.843 0 15.1-7.156 15.1-16V256C208 247.2 200.8 240 192 240zM550.3 248.8c-3.969-7.922-13.53-11.09-21.47-7.156c-7.906 3.953-11.09 13.56-7.156 21.47L574.1 368h-156.2l52.44-104.8c3.937-7.906 .75-17.52-7.156-21.47c-7.906-3.906-17.47-.7344-21.47 7.156l-63.1 128c-2.469 4.953-2.219 10.84 .6875 15.56C381.3 397.1 386.5 400 391.1 400h39.1v96c0 8.844 7.156 16 15.1 16s15.1-7.156 15.1-16v-96h63.1v96c0 8.844 7.156 16 15.1 16c8.843 0 15.1-7.156 15.1-16v-96h39.1c5.531 0 10.69-2.875 13.62-7.594c2.906-4.719 3.156-10.61 .6875-15.56L550.3 248.8zM629.1 280.2l-61.72-111.1C554.2 143.8 527.4 128 498.3 128h-4.687c-29.03 0-55.84 15.77-69.94 41.16l-61.72 111.1c-4.281 7.719-1.5 17.45 6.219 21.75c7.625 4.25 17.44 1.547 21.78-6.219l61.72-111.1C460.2 169.5 476.2 160 493.7 160H498.3c17.44 0 33.5 9.453 41.94 24.69l61.72 111.1C604.9 301 610.4 304 615.1 304c2.656 0 5.312-.6406 7.781-2.016C631.5 297.7 634.3 287.1 629.1 280.2zM495.1 112c30.87 0 55.1-25.12 55.1-56S526.9 0 495.1 0S439.1 25.12 439.1 56S465.1 112 495.1 112zM495.1 32c13.22 0 23.1 10.77 23.1 24S509.2 80 495.1 80s-23.1-10.77-23.1-24S482.8 32 495.1 32z"/></svg>