<svg xmlns="http://www.w3.org/2000/svg" viewBox="0 0 448 512"><!--! Font Awesome Pro 6.1.1 by @fontawesome - https://fontawesome.com License - https://fontawesome.com/license (Commercial License) Copyright 2022 Fonticons, Inc. --><path d="M438.4 281.9L254.4 497.9C246.8 506.9 235.7 512 224 512C212.3 512 201.2 506.9 193.6 497.9L9.55 281.9C-3.183 266.1-3.183 245 9.55 230.1L193.6 14.06C201.2 5.14 212.3 0 224 0C235.7 0 246.9 5.14 254.4 14.06L438.4 230.1C451.2 245 451.2 266.1 438.4 281.9zM230.1 34.81C228.6 33.03 226.3 32 224 32C221.7 32 219.4 33.03 217.9 34.81L33.91 250.8C31.36 253.8 31.36 258.2 33.91 261.2L217.9 477.2C219.4 478.1 221.7 480 224 480C226.3 480 228.6 478.1 230.1 477.2L414.1 261.2C416.6 258.2 416.6 253.8 414.1 250.8L230.1 34.81z"/></svg>