<svg xmlns="http://www.w3.org/2000/svg" viewBox="0 0 512 512"><!--! Font Awesome Pro 6.1.1 by @fontawesome - https://fontawesome.com License - https://fontawesome.com/license (Commercial License) Copyright 2022 Fonticons, Inc. --><path d="M384 256c0-8.188-3.125-16.38-9.375-22.62l-128-128C237.5 96.22 223.7 93.47 211.8 98.44C199.8 103.4 192 115.1 192 128v64H48C21.49 192 0 213.5 0 240v32C0 298.5 21.49 320 48 320H192v64c0 12.94 7.797 24.62 19.75 29.56c11.97 4.969 25.72 2.219 34.88-6.938l128-128C380.9 272.4 384 264.2 384 256zM224 384V288H48C39.18 288 32 280.8 32 272v-32C32 231.2 39.18 224 48 224H224L223.1 128l128 128L224 384zM432 32h-96C327.2 32 320 39.16 320 48S327.2 64 336 64h96C458.5 64 480 85.53 480 112v288c0 26.47-21.53 48-48 48h-96c-8.844 0-16 7.156-16 16s7.156 16 16 16h96c44.13 0 80-35.88 80-80v-288C512 67.88 476.1 32 432 32z"/></svg>