<svg xmlns="http://www.w3.org/2000/svg" viewBox="0 0 448 512"><!--! Font Awesome Pro 6.1.1 by @fontawesome - https://fontawesome.com License - https://fontawesome.com/license (Commercial License) Copyright 2022 Fonticons, Inc. --><path d="M356.5 283.3c7.312-6.875 11.5-16.84 11.5-27.34c0-10.5-4.188-20.47-11.66-27.5l-132.9-122.2C212.5 95.94 196.5 93.12 182.7 99.06c-13.78 6-22.69 19.53-22.69 34.53l.1031 58.4L44.83 191.1c-24.72 0-44.83 20.09-44.83 44.81v38.38c0 24.72 20.11 44.81 44.83 44.81l115.3-.0009l-.1031 58.41c0 15 8.906 28.53 22.75 34.53c13.8 5.938 29.78 3.125 40.55-7.062L356.5 283.3zM195.4 383.6c-2.094-.9062-3.438-2.938-3.438-5.156V287.1H44.83c-7.078 0-12.83-5.75-12.83-12.81V236.8c0-7.062 5.75-12.81 12.83-12.81h147.2V133.6c0-2.219 1.344-4.25 3.375-5.156c2.078-.875 4.469-.4375 6.266 1.25l132.9 122.2c1.812 1.75 1.656 6.594 .1562 8.031l-133.2 122.5C199.8 383.1 197.5 384.4 195.4 383.6zM415.1 79.1v352c0 8.844 7.156 16 16 16s16-7.156 16-16v-352c0-8.844-7.156-16-16-16S415.1 71.16 415.1 79.1z"/></svg>