<svg xmlns="http://www.w3.org/2000/svg" viewBox="0 0 512 512"><!--! Font Awesome Pro 6.1.1 by @fontawesome - https://fontawesome.com License - https://fontawesome.com/license (Commercial License) Copyright 2022 Fonticons, Inc. --><path d="M256 64C87.88 64 0 128.4 0 192v114.1C0 384.5 114.6 448 256 448s256-63.5 256-141.9V192C512 128.4 424.1 64 256 64zM480 306.1C480 358.1 388 416 256 416s-224-57.88-224-109.9V256c39.38 36.63 114.5 64 224 64s184.6-27.38 224-64V306.1zM89.38 256C130.2 236.4 189.8 224 256 224s125.8 12.38 166.6 32C381.6 275.6 322.2 288 256 288S130.4 275.6 89.38 256zM454.3 236.6C411.2 210.2 345 192 256 192S100.8 210.2 57.75 236.6C41.38 223.4 32 208.1 32 192c0-53 100.2-96 224-96s224 43 224 96C480 208.1 470.6 223.4 454.3 236.6z"/></svg>