<svg xmlns="http://www.w3.org/2000/svg" viewBox="0 0 640 512"><!--! Font Awesome Pro 6.1.1 by @fontawesome - https://fontawesome.com License - https://fontawesome.com/license (Commercial License) Copyright 2022 Fonticons, Inc. --><path d="M16 32C24.84 32 32 39.16 32 48V80H608V48C608 39.16 615.2 32 624 32C632.8 32 640 39.16 640 48V464C640 472.8 632.8 480 624 480C615.2 480 608 472.8 608 464V304H32V464C32 472.8 24.84 480 16 480C7.164 480 0 472.8 0 464V48C0 39.16 7.164 32 16 32zM608 272V112H569.9L489.9 272H608zM70.11 272L150.1 112H32V272H70.11zM406.1 112H313.9L233.9 272H326.1L406.1 112zM441.9 112L361.9 272H454.1L534.1 112H441.9zM105.9 272H198.1L278.1 112H185.9L105.9 272z"/></svg>