<svg xmlns="http://www.w3.org/2000/svg" viewBox="0 0 640 512"><!--! Font Awesome Pro 6.1.1 by @fontawesome - https://fontawesome.com License - https://fontawesome.com/license (Commercial License) Copyright 2022 Fonticons, Inc. --><path d="M422.4 32C449.3 32 473.3 48.79 482.5 74.04L514.3 160.8C503.4 162.2 492.1 165.1 483.3 169.3L452.5 85.02C447.9 72.4 435.9 64 422.4 64H336V112C336 120.8 328.8 128 320 128C311.2 128 304 120.8 304 112V64H217.6C204.1 64 192.1 72.4 187.5 85.02L70.59 405C62.96 425.9 78.41 448 100.6 448H304V400C304 391.2 311.2 384 320 384C328.8 384 336 391.2 336 400V448H384V480H100.6C56.19 480 25.27 435.8 40.53 394L157.5 74.04C166.7 48.79 190.7 32 217.6 32L422.4 32zM336 304C336 312.8 328.8 320 320 320C311.2 320 304 312.8 304 304V208C304 199.2 311.2 192 320 192C328.8 192 336 199.2 336 208V304zM528 192C572.2 192 608 227.8 608 272V320C625.7 320 640 334.3 640 352V480C640 497.7 625.7 512 608 512H448C430.3 512 416 497.7 416 480V352C416 334.3 430.3 320 448 320V272C448 227.8 483.8 192 528 192zM528 224C501.5 224 480 245.5 480 272V320H576V272C576 245.5 554.5 224 528 224zM448 352V480H608V352H448z"/></svg>