<svg xmlns="http://www.w3.org/2000/svg" viewBox="0 0 640 512"><!--! Font Awesome Pro 6.1.1 by @fontawesome - https://fontawesome.com License - https://fontawesome.com/license (Commercial License) Copyright 2022 Fonticons, Inc. --><path d="M93.31 107.1L192 255.1V116.8C192 101 212.5 94.79 221.3 107.1L320 255.1V116.8C320 101 340.5 94.79 349.3 107.1L448 255.1V116.8C448 101 468.5 94.79 477.3 107.1L606.8 302.2C621 323.5 605.8 351.1 580.2 351.1H64V116.8C64 101 84.53 94.79 93.31 107.1H93.31zM580.2 319.1L480 169.7V319.1H580.2zM352 169.7V319.1H452.2L352 169.7zM224 169.7V319.1H324.2L224 169.7zM96 169.7V319.1H196.2L96 169.7zM624 415.1C632.8 415.1 640 423.2 640 431.1C640 440.8 632.8 447.1 624 447.1H16C7.164 447.1 0 440.8 0 431.1C0 423.2 7.164 415.1 16 415.1H624z"/></svg>