<svg xmlns="http://www.w3.org/2000/svg" viewBox="0 0 640 512"><!--! Font Awesome Pro 6.1.1 by @fontawesome - https://fontawesome.com License - https://fontawesome.com/license (Commercial License) Copyright 2022 Fonticons, Inc. --><path d="M480 192C488.8 192 496 199.2 496 208V304C496 312.8 488.8 320 480 320C471.2 320 464 312.8 464 304V208C464 199.2 471.2 192 480 192zM640 64V448C640 483.3 611.3 512 576 512H384C348.7 512 320 483.3 320 448V64C320 28.65 348.7 0 384 0H576C611.3 0 640 28.65 640 64zM576 32H496V96C496 104.8 488.8 112 480 112C471.2 112 464 104.8 464 96V32H384C366.3 32 352 46.33 352 64V448C352 465.7 366.3 480 384 480H464V416C464 407.2 471.2 400 480 400C488.8 400 496 407.2 496 416V480H576C593.7 480 608 465.7 608 448V64C608 46.33 593.7 32 576 32zM16 96H288V128H240V192H288V224H16C7.164 224 0 216.8 0 208C0 199.2 7.164 192 16 192H80V128H16C7.164 128 0 120.8 0 112C0 103.2 7.164 96 16 96zM208 128H112V192H208V128zM264 288H288V320H264C233.1 320 208 345.1 208 376V464C208 490.5 186.5 512 160 512H128C101.5 512 80 490.5 80 464V376C80 345.1 54.93 320 24 320H16C7.164 320 0 312.8 0 304C0 295.2 7.164 288 16 288H24C72.6 288 112 327.4 112 376V464C112 472.8 119.2 480 128 480H160C168.8 480 176 472.8 176 464V376C176 327.4 215.4 288 264 288z"/></svg>