<svg xmlns="http://www.w3.org/2000/svg" viewBox="0 0 512 512"><!--! Font Awesome Pro 6.1.1 by @fontawesome - https://fontawesome.com License - https://fontawesome.com/license (Commercial License) Copyright 2022 Fonticons, Inc. --><path d="M255.1 80C172.3 80 101.6 135.9 79.31 212.5C76.84 220.1 67.96 225.8 59.47 223.4C50.99 220.9 46.11 212 48.58 203.5C74.74 113.7 157.7 48 255.1 48C339.6 48 412.1 95.5 448 164.1V112C448 103.2 455.2 96 464 96C472.8 96 480 103.2 480 112V208C480 216.8 472.8 224 464 224H448.4C448.2 224 447.9 224 447.7 224H368C359.2 224 352 216.8 352 208C352 199.2 359.2 192 368 192H425.4C397.4 126.2 332.1 80 255.1 80V80zM272 272C272 280.8 264.8 288 256 288C247.2 288 240 280.8 240 272V144C240 135.2 247.2 128 256 128C264.8 128 272 135.2 272 144V272zM232 352C232 338.7 242.7 328 256 328C269.3 328 280 338.7 280 352C280 365.3 269.3 376 256 376C242.7 376 232 365.3 232 352zM48 416C39.16 416 32 408.8 32 400V304C32 295.2 39.16 288 48 288H63.59C63.83 287.1 64.07 287.1 64.32 288H144C152.8 288 160 295.2 160 304C160 312.8 152.8 320 144 320H86.61C114.6 385.8 179.9 432 255.1 432C339.7 432 410.4 376.1 432.7 299.5C435.2 291 444 286.2 452.5 288.6C461 291.1 465.9 299.1 463.4 308.5C437.3 398.3 354.3 464 255.1 464C172.4 464 99.9 416.5 64 347V400C64 408.8 56.84 416 48 416V416z"/></svg>