<svg xmlns="http://www.w3.org/2000/svg" viewBox="0 0 512 512"><!--! Font Awesome Pro 6.0.0-beta3 by @fontawesome - https://fontawesome.com License - https://fontawesome.com/license (Commercial License) Copyright 2021 Fonticons, Inc. --><path d="M232 368c0 13.25 10.75 24 24 24s24-10.75 24-24s-10.75-24-24-24S232 354.7 232 368zM452.5 296.8c-8.438-2.312-17.34 2.406-19.84 10.91C409.9 385.6 337.3 440 256 440c-76.82 0-145.4-48.89-171.9-120H144C152.8 320 160 312.8 160 304S152.8 288 144 288H47.1C39.15 288 32 295.2 32 304v96C32 408.8 39.16 416 48 416S64 408.8 64 400v-45.81C100.4 425 174.4 472 256 472c95.41 0 180.7-63.88 207.4-155.4C465.8 308.2 460.1 299.3 452.5 296.8zM464 96C455.2 96 448 103.2 448 112v45.81C411.6 86.98 337.6 40 256 40c-95.41 0-180.7 63.88-207.4 155.4C46.16 203.8 51.03 212.7 59.53 215.2c8.375 2.344 17.34-2.438 19.84-10.91C102.1 126.4 174.7 72 256 72c76.82 0 145.4 48.89 171.9 120H368C359.2 192 352 199.2 352 208S359.2 224 367.1 224h96.01C472.8 224 480 216.8 480 208v-96C480 103.2 472.8 96 464 96zM272 288V128c0-8.844-7.156-16-16-16S240 119.2 240 128v160c0 8.844 7.156 16 16 16S272 296.8 272 288z"/></svg>