<svg xmlns="http://www.w3.org/2000/svg" viewBox="0 0 640 512"><!--! Font Awesome Pro 6.1.1 by @fontawesome - https://fontawesome.com License - https://fontawesome.com/license (Commercial License) Copyright 2022 Fonticons, Inc. --><path d="M624 64C632.8 64 640 71.16 640 80C640 88.84 632.8 96 624 96H608V160H624C632.8 160 640 167.2 640 176C640 184.8 632.8 192 624 192H608V240H624C632.8 240 640 247.2 640 256C640 264.8 632.8 272 624 272H608V320H624C632.8 320 640 327.2 640 336C640 344.8 632.8 352 624 352H608V416H624C632.8 416 640 423.2 640 432C640 440.8 632.8 448 624 448H16C7.164 448 0 440.8 0 432C0 423.2 7.164 416 16 416H32V352H16C7.164 352 0 344.8 0 336C0 327.2 7.164 320 16 320H32V272H16C7.164 272 0 264.8 0 256C0 247.2 7.164 240 16 240H32V192H16C7.164 192 0 184.8 0 176C0 167.2 7.164 160 16 160H32V96H16C7.164 96 0 88.84 0 80C0 71.16 7.164 64 16 64H624zM64 96V416H128V96H64zM512 416H576V96H512V416zM480 96H160V416H480V96z"/></svg>