<svg xmlns="http://www.w3.org/2000/svg" viewBox="0 0 512 512"><!--! Font Awesome Pro 6.1.1 by @fontawesome - https://fontawesome.com License - https://fontawesome.com/license (Commercial License) Copyright 2022 Fonticons, Inc. --><path d="M29.25 413.3C4.26 388.3 4.26 347.7 29.25 322.7L322.7 29.25C347.7 4.261 388.3 4.261 413.3 29.25L482.7 98.75C507.7 123.7 507.7 164.3 482.7 189.3L189.3 482.7C164.3 507.7 123.7 507.7 98.74 482.7L29.25 413.3zM51.88 390.6L121.4 460.1C133.9 472.6 154.1 472.6 166.6 460.1L460.1 166.6C472.6 154.1 472.6 133.9 460.1 121.4L390.6 51.88C378.1 39.39 357.9 39.39 345.4 51.88L305.9 91.31L347.3 132.7C353.6 138.9 353.6 149.1 347.3 155.3C341.1 161.6 330.9 161.6 324.7 155.3L283.3 113.9L241.9 155.3L283.3 196.7C289.6 202.9 289.6 213.1 283.3 219.3C277.1 225.6 266.9 225.6 260.7 219.3L219.3 177.9L177.9 219.3L219.3 260.7C225.6 266.9 225.6 277.1 219.3 283.3C213.1 289.6 202.9 289.6 196.7 283.3L155.3 241.9L113.9 283.3L155.3 324.7C161.6 330.9 161.6 341.1 155.3 347.3C149.1 353.6 138.9 353.6 132.7 347.3L91.31 305.9L51.88 345.4C39.38 357.9 39.38 378.1 51.88 390.6V390.6z"/></svg>