<svg xmlns="http://www.w3.org/2000/svg" viewBox="0 0 512 512"><!--! Font Awesome Pro 6.0.0-beta3 by @fontawesome - https://fontawesome.com License - https://fontawesome.com/license (Commercial License) Copyright 2021 Fonticons, Inc. --><path d="M464 288H224V48C224 21.6 202.4 0 176 0h-128C21.6 0 0 21.6 0 48v416C0 490.4 21.6 512 48 512h416c26.4 0 48-21.6 48-48v-128C512 309.6 490.4 288 464 288zM480 464c0 8.672-7.326 16-16 16h-416C39.33 480 32 472.7 32 464v-416C32 39.33 39.33 32 48 32h128C184.7 32 192 39.33 192 48v47.1H112c-8.799 0-16 7.199-16 16s7.201 16 16 16L192 128v64H112C103.2 192 96 199.2 96 208S103.2 224 112 224H192v64H112C103.2 288 96 295.2 96 304S103.2 320 112 320H192v80C192 408.8 199.2 416 208 416S224 408.8 224 400V320h64v80c0 8.799 7.199 16 16 16s16-7.201 16-16V320h64v80c0 8.799 7.199 16 16 16s16-7.201 16-16V320h48c8.674 0 16 7.326 16 16V464z"/></svg>