<svg xmlns="http://www.w3.org/2000/svg" viewBox="0 0 256 512"><!--! Font Awesome Pro 6.1.1 by @fontawesome - https://fontawesome.com License - https://fontawesome.com/license (Commercial License) Copyright 2022 Fonticons, Inc. --><path d="M192 0C227.3 0 256 28.65 256 64V448C256 483.3 227.3 512 192 512H64C28.65 512 0 483.3 0 448V64C0 28.65 28.65 0 64 0H192zM192 32H64C46.33 32 32 46.33 32 64V448C32 465.7 46.33 480 64 480H192C209.7 480 224 465.7 224 448V416H160C151.2 416 144 408.8 144 400C144 391.2 151.2 384 160 384H224V320H160C151.2 320 144 312.8 144 304C144 295.2 151.2 288 160 288H224V224H160C151.2 224 144 216.8 144 208C144 199.2 151.2 192 160 192H224V128H160C151.2 128 144 120.8 144 112C144 103.2 151.2 96 160 96H224V64C224 46.33 209.7 32 192 32z"/></svg>