<svg xmlns="http://www.w3.org/2000/svg" viewBox="0 0 384 512"><!--! Font Awesome Pro 6.0.0-beta3 by @fontawesome - https://fontawesome.com License - https://fontawesome.com/license (Commercial License) Copyright 2021 Fonticons, Inc. --><path d="M212.1 480c-69.26 0-142.4-25.94-169.8-36.69c-8.23-3.25-12.27-12.53-9.042-20.75c3.217-8.25 12.49-12.28 20.72-9.062c95.41 37.5 182.9 44.97 228.3 19.53c20-11.19 31.81-28.34 36.1-52.4c11.54-64.75-41.65-84.4-130.6-109.1c-80.16-22.25-171-47.47-153.5-145.6c5.122-28.75 21.8-53.53 46.96-69.75c46.19-29.75 119.3-32.12 217.6-7.062c8.558 2.187 13.73 10.91 11.54 19.47c-2.202 8.531-10.92 13.72-19.44 11.53C179.6 51.8 124.8 66.11 98.48 83.11c-22.58 14.56-30.3 34.4-32.81 48.5C54.13 196.4 107.3 216 196.3 240.7c80.16 22.25 171 47.47 153.5 145.6c-5.997 33.62-23.49 58.78-51.97 74.72C273 474.9 242.9 480 212.1 480z"/></svg>