<svg xmlns="http://www.w3.org/2000/svg" viewBox="0 0 640 512"><!--! Font Awesome Pro 6.1.1 by @fontawesome - https://fontawesome.com License - https://fontawesome.com/license (Commercial License) Copyright 2022 Fonticons, Inc. --><path d="M143.9 168.1C125.9 141.4 110.6 118.8 109.9 117.5L99.5 103.3l-9.1 14.5C69.62 146.3 56.62 167 56.25 192h32.12c.25-9.625 3.875-19.12 11.5-32C106.1 169.1 113.6 180.4 121.5 192h70.5L159.1 144L143.9 168.1zM635.2 132.8l-43.25-59.38C585.1 67.38 577.9 64 569.4 64h-46.87c-16.1 0-33.25 6.75-45.25 18.75L247.1 296C238.9 305 224.5 305.9 214.5 298C204.4 290.1 201.7 276 208.2 265L213.7 256h10.25C232.8 256 239.1 248.8 239.1 240S232.8 224 223.1 224H15.1c-8.844 0-16 7.156-16 15.1S7.156 256 15.1 256H12.87c-6.75 34.75-12.88 73.25-12.88 95.1c0 70.25 57.37 159.1 159.1 159.1c94.5 0 103.7-35.75 375.1-351.1h87.1C638.2 160 645.4 142.8 635.2 132.8zM521.4 128c0 0-100.2 117.1-134.5 157.6C233.1 466.3 220.1 480 159.1 480c-83.5 0-127.1-74.38-127.1-128c0-21.12 6.5-60.88 13.62-96h132.2C168.9 277.3 172.7 301.9 189.4 318.6c10.75 10.75 25.37 16.88 40.62 16.88c15.37 0 29.75-6 39.75-16l230.1-214.1C505.9 99.38 513.1 96 522.5 96h46.37l23.37 32H521.4zM37.37 192L37.25 191.5C33.62 180.1 31.1 170.4 31.1 160.9c0-23.75 23.1-71.5 64.12-115.6c10.1 11.75 21.25 24.12 30.75 37l24.37 33.63c0 0 30.62-37.38 32.87-40c25.12 32.63 39.87 70.5 39.87 85c0 9.5-1.625 19.25-5.25 30.62L218.6 192h32.87C254.1 182 255.1 171.8 255.1 160.9c0-30.38-29.75-93.13-71.12-131.6C173.4 39.88 162.6 51.38 152.7 63.5C135.9 40.63 116.9 19.25 95.1 0C39.87 52.13 0 120 0 160.9C0 171.8 1.875 182 4.5 192H37.37zM119.1 303.1c-13.25 0-23.1 10.75-23.1 24S106.7 352 119.1 352s23.1-10.75 23.1-24S133.2 303.1 119.1 303.1z"/></svg>