<svg xmlns="http://www.w3.org/2000/svg" viewBox="0 0 512 512"><!--! Font Awesome Pro 6.0.0-beta3 by @fontawesome - https://fontawesome.com License - https://fontawesome.com/license (Commercial License) Copyright 2021 Fonticons, Inc. --><path d="M272 320c-8.844 0-15.1 7.156-15.1 16c0 105.3-129.9 133.6-198.6 141.2l129.9-129.9c6.25-6.25 6.25-16.38 0-22.62c-6.25-6.25-16.37-6.25-22.62 0l-159.1 160c-4.578 4.562-5.953 11.47-3.469 17.44C3.691 508.1 9.535 512 16 512c94.08 0 271.1-36.78 271.1-176C288 327.2 280.8 320 272 320zM511.4 65.22c-2.625-21.28-13.66-39.85-31.09-52.25C468.1 4.221 453.7 0 439.1 0c-22.07 0-44.44 9.725-60.1 28.1L182.2 249.1C176.2 256.2 174.8 265.9 178.7 274.3S190.8 288 200 288h127.8c11.37 0 22.19-5 29.69-13.72l136.3-150.3C507.6 107.8 514 86.41 511.4 65.22zM470.2 102.4l-136.9 150.1C331.9 255.1 329.9 256 327.9 256H218.1l184.4-207.1C412.4 38.3 425.8 32 439.1 32c8.353 0 16.16 2.424 22.63 7.045c10.16 7.232 16.35 17.64 17.89 30.11C481.2 81.45 477.5 93.84 470.2 102.4z"/></svg>