<svg xmlns="http://www.w3.org/2000/svg" viewBox="0 0 512 512"><!--! Font Awesome Pro 6.0.0-beta3 by @fontawesome - https://fontawesome.com License - https://fontawesome.com/license (Commercial License) Copyright 2021 Fonticons, Inc. --><path d="M128 16C128 7.164 135.2 0 144 0C152.8 0 160 7.164 160 16V48C160 56.84 152.8 64 144 64C135.2 64 128 56.84 128 48V16zM320 16C320 7.164 327.2 0 336 0C344.8 0 352 7.164 352 16V48C352 56.84 344.8 64 336 64C327.2 64 320 56.84 320 48V16zM224 16V48C224 56.84 216.8 64 208 64C199.2 64 192 56.84 192 48V16C192 7.164 199.2 0 208 0C216.8 0 224 7.164 224 16zM400 16C400 7.164 407.2 0 416 0C424.8 0 432 7.164 432 16V272C432 280.8 424.8 288 416 288C407.2 288 400 280.8 400 272V16zM512 16V272C512 280.8 504.8 288 496 288C487.2 288 480 280.8 480 272V16C480 7.164 487.2 0 496 0C504.8 0 512 7.164 512 16zM64 200C64 177.9 81.91 160 104 160H248C270.1 160 288 177.9 288 200V408C288 430.1 270.1 448 248 448H104C81.91 448 64 430.1 64 408V200zM96 200V408C96 412.4 99.58 416 104 416H248C252.4 416 256 412.4 256 408V200C256 195.6 252.4 192 248 192H104C99.58 192 96 195.6 96 200zM288 96C323.3 96 352 124.7 352 160V448C352 483.3 323.3 512 288 512H64C28.65 512 0 483.3 0 448V160C0 124.7 28.65 96 64 96H288zM288 128H64C46.33 128 32 142.3 32 160V448C32 465.7 46.33 480 64 480H288C305.7 480 320 465.7 320 448V160C320 142.3 305.7 128 288 128z"/></svg>