<svg xmlns="http://www.w3.org/2000/svg" viewBox="0 0 640 512"><!--! Font Awesome Pro 6.1.1 by @fontawesome - https://fontawesome.com License - https://fontawesome.com/license (Commercial License) Copyright 2022 Fonticons, Inc. --><path d="M470.8 113.1L588.6 136.6C618.5 142.6 640 168.8 640 199.4V272C640 241.2 627.5 213.2 607.4 192.1C604.8 180.6 595.1 170.5 582.3 167.1L460.9 143.7C458.4 143.2 456.1 142.2 454.2 140.6L319.1 36.27L185.8 140.6C183.9 142.2 181.6 143.2 179.1 143.7L57.72 167.1C42.77 170.1 32 184.1 32 199.4V448C32 465.7 46.33 480 64 480H256V384C256 348.7 284.7 319.1 320 319.1C355.3 319.1 384 348.7 384 384V480C384 491.7 387.1 502.6 392.6 512H64C28.65 512 0 483.3 0 448V199.4C0 168.8 21.53 142.6 51.45 136.6L169.2 113.1L310.2 3.37C315.1-1.123 324-1.123 329.8 3.37L470.8 113.1zM352 480V384C352 366.3 337.7 352 319.1 352C302.3 352 287.1 366.3 287.1 384V480H352zM95.1 224C95.1 206.3 110.3 192 127.1 192H159.1C177.7 192 191.1 206.3 191.1 224V256C191.1 273.7 177.7 288 159.1 288H127.1C110.3 288 95.1 273.7 95.1 256V224zM159.1 224H127.1V256H159.1V224zM95.1 352C95.1 334.3 110.3 320 127.1 320H159.1C177.7 320 191.1 334.3 191.1 352V416C191.1 433.7 177.7 448 159.1 448H127.1C110.3 448 95.1 433.7 95.1 416V352zM159.1 352H127.1V416H159.1V352zM336 176H344C352.8 176 360 183.2 360 192C360 200.8 352.8 208 344 208H319.1C311.2 208 303.1 200.8 303.1 192V160C303.1 151.2 311.2 144 319.1 144C328.8 144 336 151.2 336 160V176zM223.1 192C223.1 138.1 266.1 96 319.1 96C373 96 416 138.1 416 192C416 245 373 288 319.1 288C266.1 288 223.1 245 223.1 192zM319.1 256C355.3 256 384 227.3 384 192C384 156.7 355.3 128 319.1 128C284.7 128 255.1 156.7 255.1 192C255.1 227.3 284.7 256 319.1 256zM528 192C572.2 192 608 227.8 608 272V320C625.7 320 640 334.3 640 352V480C640 497.7 625.7 512 608 512H448C430.3 512 416 497.7 416 480V352C416 334.3 430.3 320 448 320V272C448 227.8 483.8 192 528 192zM528 224C501.5 224 480 245.5 480 272V320H576V272C576 245.5 554.5 224 528 224zM608 352H448V480H608V352z"/></svg>