<svg xmlns="http://www.w3.org/2000/svg" viewBox="0 0 640 512"><!--! Font Awesome Pro 6.1.1 by @fontawesome - https://fontawesome.com License - https://fontawesome.com/license (Commercial License) Copyright 2022 Fonticons, Inc. --><path d="M310.2 3.37C315.1-1.123 324-1.123 329.8 3.37L470.8 113.1L588.6 136.6C618.5 142.6 640 168.8 640 199.4V266.8C630.9 253.9 620.1 242.3 608 232.2V199.4C608 184.1 597.2 170.1 582.3 167.1L460.9 143.7C458.4 143.2 456.1 142.2 454.2 140.6L319.1 36.27L185.8 140.6C183.9 142.2 181.6 143.2 179.1 143.7L57.72 167.1C42.77 170.1 32 184.1 32 199.4V448C32 465.7 46.33 480 64 480H256V384C256 348.7 284.7 319.1 320 319.1H326.6C323.7 330.3 321.7 341 320.7 352H320C302.3 352 288 366.3 288 384V480H360.2C370.3 492.1 381.9 502.9 394.8 512H64C28.65 512 0 483.3 0 448V199.4C0 168.8 21.53 142.6 51.45 136.6L169.2 113.1L310.2 3.37zM159.1 192C177.7 192 191.1 206.3 191.1 224V256C191.1 273.7 177.7 288 159.1 288H127.1C110.3 288 95.1 273.7 95.1 256V224C95.1 206.3 110.3 192 127.1 192H159.1zM127.1 256H159.1V224H127.1V256zM95.1 352C95.1 334.3 110.3 320 127.1 320H159.1C177.7 320 191.1 334.3 191.1 352V416C191.1 433.7 177.7 448 159.1 448H127.1C110.3 448 95.1 433.7 95.1 416V352zM159.1 352H127.1V416H159.1V352zM319.1 248C328.8 248 336 255.2 336 264C336 272.8 328.8 280 319.1 280C266.1 280 223.1 237 223.1 184C223.1 130.1 266.1 88 319.1 88C373 88 416 130.1 416 184C416 192.8 408.8 200 400 200C391.2 200 384 192.8 384 184C384 148.7 355.3 120 319.1 120C284.7 120 255.1 148.7 255.1 184C255.1 219.3 284.7 248 319.1 248zM319.1 144C328.8 144 336 151.2 336 160V176H344C352.8 176 360 183.2 360 192C360 200.8 352.8 208 344 208H319.1C311.2 208 303.1 200.8 303.1 192V160C303.1 151.2 311.2 144 319.1 144zM555.3 404.7C561.6 410.9 561.6 421.1 555.3 427.3C549.1 433.6 538.9 433.6 532.7 427.3L496 390.6L459.3 427.3C453.1 433.6 442.9 433.6 436.7 427.3C430.4 421.1 430.4 410.9 436.7 404.7L473.4 368L436.7 331.3C430.4 325.1 430.4 314.9 436.7 308.7C442.9 302.4 453.1 302.4 459.3 308.7L496 345.4L532.7 308.7C538.9 302.4 549.1 302.4 555.3 308.7C561.6 314.9 561.6 325.1 555.3 331.3L518.6 368L555.3 404.7zM640 368C640 447.5 575.5 512 496 512C416.5 512 352 447.5 352 368C352 288.5 416.5 224 496 224C575.5 224 640 288.5 640 368zM496 256C434.1 256 384 306.1 384 368C384 429.9 434.1 480 496 480C557.9 480 608 429.9 608 368C608 306.1 557.9 256 496 256z"/></svg>