<svg xmlns="http://www.w3.org/2000/svg" viewBox="0 0 512 512"><!--! Font Awesome Pro 6.0.0-beta3 by @fontawesome - https://fontawesome.com License - https://fontawesome.com/license (Commercial License) Copyright 2021 Fonticons, Inc. --><path d="M354.3 291.8c-3.001-2.542-6.662-3.784-10.31-3.784c-6.734 0-16.01 5.332-16.01 16c0 4.56 1.937 9.088 5.692 12.25l151.1 128C488.7 446.8 492.3 448 495.1 448C502.8 448 512 442.7 512 432c0-4.56-1.937-9.088-5.692-12.25L354.3 291.8zM506.3 92.23C510.1 89.07 512 84.54 512 79.98c0-10.72-9.189-15.97-16.02-15.97c-3.641 0-7.298 1.231-10.3 3.75l-198.7 167.3L208.1 168.7C217.1 151.1 223.1 132.8 223.1 112c0-61.86-50.14-112-111.1-112S-.0001 50.14-.0001 112S50.14 224 111.1 224c29.52 0 56.16-11.65 76.17-30.31L262.2 256L188.2 318.3C168.2 299.6 141.5 288 111.1 288c-61.85 0-111.1 50.14-111.1 112S50.14 512 111.1 512s111.1-50.14 111.1-112c0-20.77-6.039-39.98-15.89-56.65L506.3 92.23zM111.1 192C67.89 192 31.1 156.1 31.1 112S67.89 32 111.1 32s79.1 35.89 79.1 80S156.1 192 111.1 192zM111.1 480c-44.11 0-79.1-35.89-79.1-80S67.89 320 111.1 320s79.1 35.89 79.1 80S156.1 480 111.1 480z"/></svg>