<svg xmlns="http://www.w3.org/2000/svg" viewBox="0 0 384 512"><!--! Font Awesome Pro 6.1.1 by @fontawesome - https://fontawesome.com License - https://fontawesome.com/license (Commercial License) Copyright 2022 Fonticons, Inc. --><path d="M240 64C231.2 64 224 71.16 224 80v64C224 152.8 231.2 160 240 160S256 152.8 256 144v-64C256 71.16 248.8 64 240 64zM176 64C167.2 64 160 71.16 160 80v64C160 152.8 167.2 160 176 160S192 152.8 192 144v-64C192 71.16 184.8 64 176 64zM304 64C295.2 64 288 71.16 288 80v64C288 152.8 295.2 160 304 160S320 152.8 320 144v-64C320 71.16 312.8 64 304 64zM320 0H154.5C137.5 0 121.3 6.742 109.3 18.74L18.75 109.3C6.742 121.3 0 137.5 0 154.5V448c0 35.2 28.8 64 64 64h256c35.2 0 64-28.8 64-64V64C384 28.8 355.2 0 320 0zM352 448c0 17.6-14.4 32-32 32H64c-17.6 0-32-14.4-32-32V154.5c0-8.486 3.371-16.62 9.373-22.63l90.5-90.5C137.9 35.37 146 32 154.5 32H320c17.6 0 32 14.4 32 32V448z"/></svg>