<svg xmlns="http://www.w3.org/2000/svg" viewBox="0 0 512 512"><!--! Font Awesome Pro 6.0.0-beta3 by @fontawesome - https://fontawesome.com License - https://fontawesome.com/license (Commercial License) Copyright 2021 Fonticons, Inc. --><path d="M493.6 222.1l-45.59-45.59v-64.47c0-26.51-21.49-47.1-48-47.1h-64.47l-45.59-45.59C280.6 9.039 268.3 4.354 256 4.354c-12.28 0-24.57 4.686-33.94 14.06L176.5 64H111.1c-26.51 0-48 21.49-48 47.1v64.47L18.41 222.1c-18.75 18.74-18.75 49.14 0 67.88l45.59 45.59v64.47c0 26.51 21.49 47.1 48 47.1h64.47l45.59 45.59C231.4 502.1 243.7 507.6 256 507.6c12.29 0 24.57-4.687 33.94-14.06l45.59-45.59h64.47c26.51 0 48-21.49 48-47.1v-64.47l45.59-45.59C512.3 271.2 512.3 240.8 493.6 222.1zM470.1 267.3L416 322.3V400c0 8.822-7.178 16-16 16h-77.72l-54.96 54.96C263.2 475 258.5 475.6 256 475.6s-7.236-.6094-11.31-4.688L189.7 416H112C103.2 416 96 408.8 96 400v-77.72L41.04 267.3C36.96 263.2 36.35 258.5 36.35 256s.6094-7.236 4.688-11.31L96 189.7V112C96 103.2 103.2 96 112 96h77.72l54.96-54.96C248.8 36.96 253.5 36.35 256 36.35s7.236 .6074 11.31 4.688L322.3 96H400C408.8 96 416 103.2 416 112v77.73l54.96 54.96C475 248.8 475.6 253.5 475.6 256S475 263.2 470.1 267.3z"/></svg>