<svg xmlns="http://www.w3.org/2000/svg" viewBox="0 0 512 512"><!--! Font Awesome Pro 6.1.1 by @fontawesome - https://fontawesome.com License - https://fontawesome.com/license (Commercial License) Copyright 2022 Fonticons, Inc. --><path d="M168.7 169.8C175.2 145.2 197.4 128 222.9 128H280C315.5 128 344 157 344 192.3C344 216.3 330.6 238.5 309.1 249.4L272 268.3V288C272 296.8 264.8 304 256 304C247.2 304 240 296.8 240 288V258.5C240 252.5 243.4 247 248.7 244.3L294.5 220.9C305.2 215.5 312 204.3 312 192.3C312 174.5 297.6 160 280 160H222.9C211.1 160 202.4 167.4 199.7 177.9L199.5 178.6C197.2 187.1 188.5 192.3 179.9 190C171.4 187.8 166.3 179 168.5 170.5L168.7 169.8zM280 352C280 365.3 269.3 376 256 376C242.7 376 232 365.3 232 352C232 338.7 242.7 328 256 328C269.3 328 280 338.7 280 352zM64 176V112C64 85.49 85.49 64 112 64H175.1L222.1 17.94C240.8-.8035 271.2-.8035 289.9 17.94L336 64H400C426.5 64 448 85.49 448 112V176L493.6 221.6C512.3 240.3 512.3 270.7 493.6 289.5L448 335.1V400C448 426.5 426.5 448 400 448H335.1L289.9 493.1C271.2 511.9 240.8 511.9 222.1 493.1L176.9 448H112C85.49 448 64 426.5 64 400V335.1L18.41 289.5C-.3328 270.7-.3328 240.3 18.41 221.6L64 176zM112 96C103.2 96 96 103.2 96 112V176C96 184.5 92.63 192.6 86.63 198.6L41.04 244.2C34.79 250.5 34.79 260.6 41.04 266.8L86.63 312.4C92.63 318.4 96 326.6 96 335.1V400C96 408.8 103.2 416 112 416H176.9C185.4 416 193.6 419.4 199.6 425.4L244.7 470.5C250.9 476.7 261.1 476.7 267.3 470.5L312.4 425.4C318.4 419.4 326.6 416 335.1 416H400C408.8 416 416 408.8 416 400V335.1C416 326.6 419.4 318.4 425.4 312.4L470.1 266.8C477.2 260.6 477.2 250.5 470.1 244.2L425.4 198.6C419.4 192.6 416 184.5 416 176V112C416 103.2 408.8 96 400 96H336C327.5 96 319.4 92.63 313.4 86.63L267.3 40.57C261.1 34.32 250.9 34.32 244.7 40.57L198.6 86.63C192.6 92.63 184.5 96 175.1 96L112 96zM18.41 289.5L41.04 266.8z"/></svg>