<svg xmlns="http://www.w3.org/2000/svg" viewBox="0 0 576 512"><!--! Font Awesome Pro 6.0.0-beta3 by @fontawesome - https://fontawesome.com License - https://fontawesome.com/license (Commercial License) Copyright 2021 Fonticons, Inc. --><path d="M0 400v31.1C0 440.8 7.156 448 16 448S32 440.8 32 432v-31.1c0-79.41 64.59-143.1 144-143.1h211.8l-158.1 131.7c-6.781 5.656-7.688 15.75-2.031 22.53C230.9 414 235.4 416 240 416c3.625 0 7.25-1.219 10.25-3.719l192-159.1C445.9 249.3 448 244.7 448 239.1c0-4.75-2.094-9.247-5.75-12.28l-192-159.1C243.5 62.07 233.4 62.95 227.7 69.76C222.1 76.54 222.1 86.63 229.8 92.29l158.1 131.7H176C78.97 224 0 302.1 0 400zM357.8 387.7c-6.781 5.656-7.688 15.75-2.031 22.53c3.156 3.781 7.719 5.75 12.28 5.75c3.625 0 7.25-1.219 10.25-3.719l192-159.1C573.9 249.3 576 244.7 576 239.1c0-4.75-2.094-9.247-5.75-12.28l-192-159.1c-6.781-5.656-16.88-4.781-22.53 2.031c-5.656 6.781-4.75 16.87 2.031 22.53L535 240L357.8 387.7z"/></svg>