<svg xmlns="http://www.w3.org/2000/svg" viewBox="0 0 384 512"><!--! Font Awesome Pro 6.1.1 by @fontawesome - https://fontawesome.com License - https://fontawesome.com/license (Commercial License) Copyright 2022 Fonticons, Inc. --><path d="M187.3 68.69C193.6 74.93 193.6 85.07 187.3 91.31L91.31 187.3C85.07 193.6 74.93 193.6 68.69 187.3C62.44 181.1 62.44 170.9 68.69 164.7L164.7 68.69C170.9 62.44 181.1 62.44 187.3 68.69V68.69zM123.3 283.3C117.1 289.6 106.9 289.6 100.7 283.3C94.44 277.1 94.44 266.9 100.7 260.7L260.7 100.7C266.9 94.44 277.1 94.44 283.3 100.7C289.6 106.9 289.6 117.1 283.3 123.3L123.3 283.3zM0 64C0 28.65 28.65 0 64 0H320C355.3 0 384 28.65 384 64V348.1C384 360.8 378.9 373.1 369.9 382.1L254.1 497.9C245.1 506.9 232.8 512 220.1 512H64C28.65 512 0 483.3 0 448V64zM352 64C352 46.33 337.7 32 320 32H64C46.33 32 32 46.33 32 64V448C32 465.7 46.33 480 64 480H192V368C192 341.5 213.5 320 240 320H352V64zM351.5 352H240C231.2 352 224 359.2 224 368V479.5C226.8 478.8 229.4 477.4 231.4 475.3L347.3 359.4C349.4 357.4 350.8 354.8 351.5 352V352z"/></svg>