<svg xmlns="http://www.w3.org/2000/svg" viewBox="0 0 512 512"><!--! Font Awesome Pro 6.0.0-beta3 by @fontawesome - https://fontawesome.com License - https://fontawesome.com/license (Commercial License) Copyright 2021 Fonticons, Inc. --><path d="M466.5 83.71l-192-80.01c-5.875-2.5-12.17-3.701-18.46-3.701S243.5 1.203 237.6 3.703L45.61 83.71C27.73 91.08 16 108.6 16 127.1C16 385.4 205.5 512 255.1 512C305.2 512 496 387.3 496 127.1C496 108.6 484.3 91.08 466.5 83.71zM463.9 128.3c0 225.3-166.2 351.7-207.8 351.7C213.3 479.1 48 352.2 48 128c0-6.5 3.875-12.25 9.75-14.75l192-80c1.973-.8275 4.109-1.266 6.258-1.266c2.071 0 4.154 .4072 6.117 1.266l192 80C463.3 117.1 463.9 125.8 463.9 128.3z"/></svg>