<svg xmlns="http://www.w3.org/2000/svg" viewBox="0 0 512 512"><!--! Font Awesome Pro 6.1.1 by @fontawesome - https://fontawesome.com License - https://fontawesome.com/license (Commercial License) Copyright 2022 Fonticons, Inc. --><path d="M466.5 83.69l-192-80.01C268.6 1.188 262.3 0 256.1 0S243.5 1.188 237.6 3.688l-192 80.01C27.72 91.07 16 108.6 16 127.1C16 385.4 205.4 512 255.1 512C305.2 512 496 387.3 496 127.1C496 108.6 484.3 91.07 466.5 83.69zM463.9 128.3c0 225.3-166.2 351.7-207.8 351.7C213.3 479.1 48 352.2 48 128c0-6.5 3.875-12.25 9.75-14.75l192-80c1.973-.8275 4.109-1.266 6.258-1.266c2.071 0 4.154 .4072 6.117 1.266l192 80C463.3 117.1 463.9 125.8 463.9 128.3zM256 152c-30.88 0-56 25.12-56 56c0 25.28 16.95 46.45 40 53.39V336c0 8.844 7.156 16 16 16s16-7.156 16-16V261.4C295 254.5 312 233.3 312 208C312 177.1 286.9 152 256 152zM256 232c-13.22 0-24-10.78-24-24S242.8 184 256 184s24 10.78 24 24S269.2 232 256 232z"/></svg>