<svg xmlns="http://www.w3.org/2000/svg" viewBox="0 0 576 512"><!--! Font Awesome Pro 6.1.1 by @fontawesome - https://fontawesome.com License - https://fontawesome.com/license (Commercial License) Copyright 2022 Fonticons, Inc. --><path d="M231 7.839C247 1.066 265.1 1.067 281 7.841L457.7 82.79C479.7 92.12 496.2 113.8 496 139.1C495.5 239.2 454.7 420.7 282.4 503.2C265.7 511.1 246.3 511.1 229.6 503.2C57.25 420.7 16.49 239.2 15.1 139.1C15.87 113.8 32.32 92.12 54.3 82.79L231 7.839zM47.1 139.8C48.1 159.8 49.93 183.1 54.27 208H239.1V38.8L66.79 112.3C55.51 117 47.94 127.7 47.1 139.8H47.1zM61.06 240C82.34 324.6 133.3 420.1 239.1 472.6V240H61.06zM271.1 240V472.6C378.7 420.1 429.7 324.6 450.1 240H271.1zM457.8 208C462.1 183.1 463.9 159.8 464 139.8C464.1 127.7 456.5 117 445.2 112.3L271.1 38.77V208H457.8z"/></svg>