<svg xmlns="http://www.w3.org/2000/svg" viewBox="0 0 512 512"><!--! Font Awesome Pro 6.0.0-beta3 by @fontawesome - https://fontawesome.com License - https://fontawesome.com/license (Commercial License) Copyright 2021 Fonticons, Inc. --><path d="M466.5 83.71l-192-80C268.6 1.202 262.3 0 256 0S243.5 1.202 237.6 3.702l-192 80C27.73 91.08 16 108.6 16 127.1c0 257.5 189.5 384 239.1 384c49.26 0 240-124.7 240-384C496 108.6 484.2 91.08 466.5 83.71zM255.9 32L255.9 32C255.9 32 255.8 32 255.9 32zM48 128c0-6.5 3.875-12.25 9.75-14.75L240 37.31v436.9C145.1 430.6 48 298.1 48 128zM463.9 128.3c0 170-97.14 302.4-191.9 345.1V37.37l182.1 75.88C463.3 117.1 463.9 125.8 463.9 128.3z"/></svg>