<svg xmlns="http://www.w3.org/2000/svg" viewBox="0 0 384 512"><!--! Font Awesome Pro 6.0.0-beta3 by @fontawesome - https://fontawesome.com License - https://fontawesome.com/license (Commercial License) Copyright 2021 Fonticons, Inc. --><path d="M336 112v-96C336 7.162 328.8 0 320 0s-16 7.162-16 16v32C304 109.9 253.9 160 192 160S80 109.9 80 48v-32C80 7.162 72.84 0 64 0S48 7.162 48 16v96C48 163.9 31.16 214.5 0 256v208C0 490.5 21.49 512 48 512h288c26.51 0 48-21.49 48-48V256C352.8 214.5 336 163.9 336 112zM32 266.3c26.3-38.26 42.51-83.15 46.83-129.3C105.2 170.5 146.1 192 192 192s86.78-21.54 113.2-55.05c1.59 16.99 5.311 33.64 10.03 50.02L32 389.2V266.3zM352 464c0 8.822-7.178 16-16 16h-288C39.18 480 32 472.8 32 464v-35.42l294.3-210.2C333.4 235.1 341.7 251.3 352 266.3V464z"/></svg>