<svg xmlns="http://www.w3.org/2000/svg" viewBox="0 0 512 512"><!--! Font Awesome Pro 6.1.1 by @fontawesome - https://fontawesome.com License - https://fontawesome.com/license (Commercial License) Copyright 2022 Fonticons, Inc. --><path d="M483.9 27.26c-36.25-36.35-99.5-36.35-135.8 0C329.1 45.42 320 69.57 320 95.26c0 20.27 6.219 39.57 17.73 55.72l-21.2 21.25l-42.49-42.58c-24.56-24.49-64.29-24.49-88.86 0L142.8 172.2C130.2 184.8 123.5 202.2 124.5 220.1C106.7 219.1 89.32 225.7 76.78 238.4L34.42 280.1c-24.56 24.49-24.56 64.3 0 88.91l42.38 42.51l-72.11 72.24c-6.25 6.26-6.25 16.4 0 22.66C7.813 510.4 11.91 512 16 512s8.188-1.566 11.31-4.697l72.1-72.22l42.42 42.56c11.78 11.8 27.7 18.33 44.37 18.33s32.58-6.529 44.37-18.33l42.49-42.57c12.66-12.56 19.3-30.01 18.3-47.85c17.8 1.006 35.22-5.65 47.75-18.33l42.48-42.45C393.4 314.6 400 298.6 400 281.9c0-16.58-6.643-32.65-18.42-44.46l-42.41-42.5l31.59-31.64c3-3.006 4.688-7.074 4.688-11.33s-1.688-8.328-4.688-11.33C358.7 128.5 352 112.4 352 95.26c0-17.12 6.656-33.22 18.75-45.33c24.19-24.23 66.31-24.23 90.5 0C473.3 62.04 480 78.13 480 95.26c0 17.12-6.656 33.21-18.75 45.33c-6.25 6.262-6.25 16.4 0 22.67s16.38 6.262 22.62 0C502 145.1 512 120.9 512 95.26C512 69.57 502 45.42 483.9 27.26zM250.4 412.3l-42.48 42.57c-11.91 11.93-31.36 11.96-43.36 0c-26.95-26.87-80.73-80.73-107.5-107.8c-11.93-12.03-11.91-31.52 0-43.45l42.48-42.57c11.91-11.93 31.36-11.96 43.36 0C169.8 288 223.6 341.9 250.4 368.9C262.3 380.9 262.3 400.4 250.4 412.3zM358.8 303.7l-42.36 42.45c-12.03 12.06-31.46 12.06-43.36 0L165.5 238.4c-12.03-11.93-12.03-31.4 0-43.45l42.36-42.45c12.03-12.05 31.46-12.05 43.49 0l107.4 107.6C370.8 272.2 370.8 291.7 358.8 303.7z"/></svg>