<svg xmlns="http://www.w3.org/2000/svg" viewBox="0 0 512 512"><!--! Font Awesome Pro 6.1.1 by @fontawesome - https://fontawesome.com License - https://fontawesome.com/license (Commercial License) Copyright 2022 Fonticons, Inc. --><path d="M432 96C440.8 96 448 103.2 448 112C448 120.8 440.8 128 432 128H368C359.2 128 352 120.8 352 112C352 103.2 359.2 96 368 96H432zM432 192H368C359.2 192 352 184.8 352 176C352 167.2 359.2 160 368 160H432C440.8 160 448 167.2 448 176C448 184.8 440.8 192 432 192zM432 224C440.8 224 448 231.2 448 240C448 248.8 440.8 256 432 256H368C359.2 256 352 248.8 352 240C352 231.2 359.2 224 368 224H432zM448 32C483.3 32 512 60.65 512 96V416C512 451.3 483.3 480 448 480H64C28.65 480 0 451.3 0 416V96C0 60.65 28.65 32 64 32H448zM32 96V416C32 433.7 46.33 448 64 448H288V64H64C46.33 64 32 78.33 32 96zM448 64H320V448H448C465.7 448 480 433.7 480 416V96C480 78.33 465.7 64 448 64z"/></svg>