<svg xmlns="http://www.w3.org/2000/svg" viewBox="0 0 512 512"><!--! Font Awesome Pro 6.1.1 by @fontawesome - https://fontawesome.com License - https://fontawesome.com/license (Commercial License) Copyright 2022 Fonticons, Inc. --><path d="M80 0C88.84 0 96 7.164 96 16V64H496C504.8 64 512 71.16 512 80C512 88.84 504.8 96 496 96H96V496C96 504.8 88.84 512 80 512C71.16 512 64 504.8 64 496V96H16C7.164 96 0 88.84 0 80C0 71.16 7.164 64 16 64H64V16C64 7.164 71.16 0 80 0zM128 160C128 142.3 142.3 128 160 128H448C465.7 128 480 142.3 480 160V352C480 369.7 465.7 384 448 384H160C142.3 384 128 369.7 128 352V160zM160 352H448V160H160V352z"/></svg>