<svg xmlns="http://www.w3.org/2000/svg" viewBox="0 0 640 512"><!--! Font Awesome Pro 6.0.0-beta3 by @fontawesome - https://fontawesome.com License - https://fontawesome.com/license (Commercial License) Copyright 2021 Fonticons, Inc. --><path d="M624 400c-8.844 0-16 7.156-16 16c0 35.28-28.72 64-64 64H16C7.156 480 0 487.2 0 496S7.156 512 16 512H544c52.94 0 96-43.06 96-96C640 407.2 632.8 400 624 400zM140.3 416L432 416c17.67 0 32-14.32 32-31.1V312.6c0-17.02-9.014-32.77-23.69-41.39L362.3 225.3l53.23-205.3c2.219-8.531-2.938-17.28-11.5-19.5C402.6 .1641 401.3 0 399.9 0c-7.184 0-13.57 4.799-15.44 12l-5.186 20L186.2 32.01c-15.2 0-28.3 10.69-31.35 25.59l-61.53 300.8C87.22 388.1 109.1 416 140.3 416zM186.2 64h58.51L240.5 77.91C226.9 123.4 198.3 162.8 160.3 190.5L186.2 64zM151.5 233.8C208.9 202.6 252.3 149.8 271.2 87.1L278.1 64h92.96l-24.89 96L304 160c-8.836 0-16 7.162-16 16c0 8.836 7.164 16 16 16l33.85 .001l-8.297 32L288 224c-8.836 0-16 7.162-16 16c0 8.836 7.164 16 16 16l63.29 .001l72.81 42.77C428.1 301.6 432 306.9 432 312.6V384H140.3c-6.607 0-10.6-3.686-12.39-5.883s-4.604-6.85-3.279-13.32L151.5 233.8z"/></svg>