<svg xmlns="http://www.w3.org/2000/svg" viewBox="0 0 640 512"><!--! Font Awesome Pro 6.0.0-beta3 by @fontawesome - https://fontawesome.com License - https://fontawesome.com/license (Commercial License) Copyright 2021 Fonticons, Inc. --><path d="M415.1 96.03H224c-35.35 0-64 28.62-64 63.97V288c0 21.22 10.3 40.02 26.19 51.66c24.44 17.91 43.72 41.88 49.67 71.59l15.01 74.1C253.8 501.3 267 512 282.3 512h75.48c15.27 0 28.4-10.78 31.4-25.75l15.01-74.1c5.947-29.71 25.24-53.68 49.67-71.59C469.7 328 480 309.2 480 288V160C480 124.7 451.3 96.03 415.1 96.03zM448 288c0 10.32-4.775 19.75-13.1 25.85c-33.65 24.66-55.14 56.17-62.13 91.12L357.7 480l-75.46-.0313l-15.01-75c-6.996-34.95-28.48-66.46-62.13-91.12C196.8 307.7 192 298.3 192 288V160c0-17.64 14.36-32 32-32h192c17.64 0 32 14.36 32 32V288zM112 160H83.08C54.91 160 32 137.1 32 108.9C32 102.4 33.23 96 35.66 89.94l27.2-68c3.281-8.188-.7187-17.5-8.922-20.78C45.78-2.125 36.42 1.844 33.14 10.06l-27.2 68C1.1 87.94 0 98.31 0 108.9C0 154.7 37.27 192 83.08 192H112C120.8 192 128 184.8 128 176S120.8 160 112 160zM634.1 78.06l-27.2-68c-3.281-8.219-12.64-12.16-20.8-8.906c-8.203 3.281-12.31 12.41-9.027 20.6l27.31 68.18C606.8 96 608 102.4 608 108.9C608 137.1 585.1 160 556.9 160H528C519.2 160 512 167.2 512 176S519.2 192 528 192h28.92C602.7 192 640 154.7 640 108.9C640 98.31 637.1 87.94 634.1 78.06zM256 232c-13.25 0-24 10.74-24 23.1c0 13.25 10.75 23.1 24 23.1s24-10.75 24-23.1C280 242.7 269.3 232 256 232zM384 232c-13.25 0-24 10.74-24 23.1c0 13.25 10.75 23.1 24 23.1s24-10.75 24-23.1C408 242.7 397.3 232 384 232z"/></svg>