<svg xmlns="http://www.w3.org/2000/svg" viewBox="0 0 448 512"><!--! Font Awesome Pro 6.1.1 by @fontawesome - https://fontawesome.com License - https://fontawesome.com/license (Commercial License) Copyright 2022 Fonticons, Inc. --><path d="M208 136C208 149.3 197.3 160 184 160C170.7 160 160 149.3 160 136C160 122.7 170.7 112 184 112C197.3 112 208 122.7 208 136zM240 136C240 122.7 250.7 112 264 112C277.3 112 288 122.7 288 136C288 149.3 277.3 160 264 160C250.7 160 240 149.3 240 136zM272 288H176C149.5 288 128 266.5 128 240V223.4C98.54 199.1 80 165.9 80 128C80 57.31 144.5 0 224 0C303.5 0 368 57.31 368 128C368 165.9 349.5 199.1 320 223.4V240C320 266.5 298.5 288 272 288zM336 128C336 78.42 289.5 32 224 32C158.5 32 112 78.42 112 128C112 154.1 125.1 180.2 147.9 198.4L160 207.1V239.1C160 248.8 167.2 255.1 176 255.1H272C280.8 255.1 288 248.8 288 239.1V207.1L300.1 198.4C322.9 180.2 336 154.1 336 128V128zM438.7 318.5L262.2 400L438.7 481.5C446.7 485.2 450.2 494.7 446.5 502.7C442.8 510.7 433.3 514.2 425.3 510.5L224 417.6L22.7 510.5C14.68 514.2 5.176 510.7 1.473 502.7C-2.23 494.7 1.272 485.2 9.295 481.5L185.8 400L9.295 318.5C1.272 314.8-2.23 305.3 1.473 297.3C5.176 289.3 14.68 285.8 22.7 289.5L224 382.4L425.3 289.5C433.3 285.8 442.8 289.3 446.5 297.3C450.2 305.3 446.7 314.8 438.7 318.5z"/></svg>