<svg xmlns="http://www.w3.org/2000/svg" viewBox="0 0 512 512"><!--! Font Awesome Pro 6.0.0-beta3 by @fontawesome - https://fontawesome.com License - https://fontawesome.com/license (Commercial License) Copyright 2021 Fonticons, Inc. --><path d="M112 16C112 7.201 104.8 0 96 0C87.2 0 80 7.201 80 16v56h32V16zM96 72c-39.76 0-72 32.24-72 72c0 34.25 23.96 62.78 56 70.07V496C80 504.8 87.2 512 96 512c8.799 0 16-7.201 16-16V214.1C144 206.8 168 178.2 168 144C168 104.2 135.8 72 96 72zM96 184c-22.06 0-40-17.94-40-40S73.94 104 96 104S136 121.9 136 144S118.1 184 96 184zM432 137.9V16C432 7.201 424.8 0 416 0c-8.799 0-16 7.201-16 16v121.9C367.1 145.2 344 173.8 344 208s23.96 62.78 56 70.07V496c0 8.799 7.199 16 16 16c8.799 0 16-7.201 16-16V278.1C464 270.8 488 242.2 488 208S464 145.2 432 137.9zM416 248c-22.06 0-40-17.94-40-40S393.9 168 416 168s40 17.94 40 40S438.1 248 416 248zM256 264c-39.76 0-72 32.24-72 72c0 34.25 23.96 62.78 56 70.07V496c0 8.799 7.199 16 16 16c8.799 0 16-7.201 16-16v-89.93C304 398.8 328 370.2 328 336C328 296.2 295.8 264 256 264zM256 376c-22.06 0-40-17.94-40-40S233.9 296 256 296s40 17.94 40 40S278.1 376 256 376zM272 16C272 7.201 264.8 0 256 0C247.2 0 240 7.201 240 16v248h32V16z"/></svg>