<svg xmlns="http://www.w3.org/2000/svg" viewBox="0 0 512 512"><!--! Font Awesome Pro 6.0.0-beta3 by @fontawesome - https://fontawesome.com License - https://fontawesome.com/license (Commercial License) Copyright 2021 Fonticons, Inc. --><path d="M208 240h-192C7.156 240 0 247.2 0 256s7.156 16 16 16h192C216.8 272 224 264.8 224 256S216.8 240 208 240zM496 240H416V160c0-35.35-28.65-64-64-64h-32c-35.35 0-64 28.65-64 64v192c0 35.35 28.65 64 64 64h32c35.35 0 64-28.65 64-64V272h80C504.8 272 512 264.8 512 256S504.8 240 496 240zM384 352c0 17.64-14.36 32-32 32h-32c-17.64 0-32-14.36-32-32V160c0-17.64 14.36-32 32-32h32c17.64 0 32 14.36 32 32V352z"/></svg>