<svg xmlns="http://www.w3.org/2000/svg" viewBox="0 0 512 512"><!--! Font Awesome Pro 6.0.0-beta3 by @fontawesome - https://fontawesome.com License - https://fontawesome.com/license (Commercial License) Copyright 2021 Fonticons, Inc. --><path d="M496 352L158.4 352C150.1 315.5 118.7 288 80 288C35.82 288 0 323.8 0 368S35.82 448 80 448c38.7 0 70.97-27.49 78.39-64l337.6-.0313C504.8 383.1 512 376.8 512 368C512 359.2 504.8 352 496 352zM80 416C53.53 416 32 394.5 32 368S53.53 320 80 320S128 341.5 128 368S106.5 416 80 416zM16 160h337.6C361 196.5 393.3 224 432 224C476.2 224 512 188.2 512 144S476.2 64 432 64c-38.7 0-70.97 27.48-78.39 64H16C7.201 128 0 135.2 0 144C0 152.8 7.201 160 16 160zM432 96C458.5 96 480 117.5 480 144S458.5 192 432 192S384 170.5 384 144S405.5 96 432 96z"/></svg>