<svg xmlns="http://www.w3.org/2000/svg" viewBox="0 0 640 512"><!--! Font Awesome Pro 6.0.0-beta3 by @fontawesome - https://fontawesome.com License - https://fontawesome.com/license (Commercial License) Copyright 2021 Fonticons, Inc. --><path d="M160 176H96C87.16 176 80 183.2 80 192S87.16 208 96 208h43.5L112.5 316.1c-2.125 8.562 3.062 17.25 11.66 19.41C125.4 335.8 126.7 336 128 336c7.188 0 13.72-4.844 15.53-12.12l32-128c1.188-4.781 .125-9.844-2.906-13.72S164.9 176 160 176zM288 176H224C215.2 176 208 183.2 208 192S215.2 208 224 208h43.5L240.5 316.1c-2.125 8.562 3.062 17.25 11.66 19.41C253.4 335.8 254.7 336 256 336c7.188 0 13.72-4.844 15.53-12.12l32-128c1.188-4.781 .125-9.844-2.906-13.72S292.9 176 288 176zM592 128C565.5 128 544 149.5 544 176c0 20.87 13.4 38.45 32 45.06V432c0 26.47-21.53 48-48 48H448v-64c35.35 0 64-28.65 64-64V160c0-35.35-28.65-64-64-64V64c0-35.35-28.65-64-64-64H128C92.65 0 64 28.65 64 64v32C28.65 96 0 124.7 0 160v192c0 35.35 28.65 64 64 64v32c0 35.35 28.65 64 64 64h400c44.13 0 80-35.88 80-80V221.1C626.6 214.5 640 196.9 640 176C640 149.5 618.5 128 592 128zM96 64c0-17.64 14.36-32 32-32h256c17.64 0 32 14.36 32 32v32H96V64zM64 384c-17.64 0-32-14.36-32-32V160c0-17.64 14.36-32 32-32h384c17.64 0 32 14.36 32 32v192c0 17.64-14.36 32-32 32H64zM416 448c0 17.67-14.33 32-32 32H128c-17.67 0-32-14.33-32-32v-32h320V448zM592 192C583.2 192 576 184.8 576 176S583.2 160 592 160S608 167.2 608 176S600.8 192 592 192zM416 176h-64c-8.844 0-16 7.156-16 16s7.156 16 16 16h43.5l-27.03 108.1c-2.125 8.562 3.062 17.25 11.66 19.41C381.4 335.8 382.7 336 384 336c7.188 0 13.72-4.844 15.53-12.12l32-128c1.188-4.781 .125-9.844-2.906-13.72S420.9 176 416 176z"/></svg>