<svg xmlns="http://www.w3.org/2000/svg" viewBox="0 0 448 512"><!--! Font Awesome Pro 6.0.0-beta3 by @fontawesome - https://fontawesome.com License - https://fontawesome.com/license (Commercial License) Copyright 2021 Fonticons, Inc. --><path d="M176 32h92.37L164 149.4C159.8 154.1 158.8 160.8 161.4 166.6C164 172.3 169.7 176 176 176h127.1c8.844 0 15.1-7.156 15.1-16s-7.155-16-15.1-16H211.6l104.3-117.4c4.187-4.719 5.219-11.44 2.625-17.19S310.3 0 303.1 0H176C167.2 0 160 7.156 160 16S167.2 32 176 32zM431.1 400h-94.72l107.2-134c3.844-4.812 4.594-11.38 1.906-16.94C443.7 243.5 438.2 240 431.1 240h-127.1c-8.844 0-16 7.156-16 16s7.157 16 16 16h94.72l-107.2 134c-3.844 4.812-4.594 11.38-1.906 16.94C292.2 428.5 297.8 432 303.1 432h127.1c8.844 0 15.1-7.156 15.1-16S440.8 400 431.1 400zM208 240h-159.1C39.16 240 32 247.2 32 256s7.156 16 15.1 16h126.7l-171.2 214c-3.844 4.812-4.594 11.38-1.906 16.94C4.253 508.5 9.847 512 16 512h175.1c8.844 0 15.1-7.156 15.1-16S200.8 480 192 480h-142.7l171.2-214c3.844-4.812 4.594-11.38 1.906-16.94C219.8 243.5 214.2 240 208 240z"/></svg>