<svg xmlns="http://www.w3.org/2000/svg" viewBox="0 0 512 512"><!--! Font Awesome Pro 6.1.1 by @fontawesome - https://fontawesome.com License - https://fontawesome.com/license (Commercial License) Copyright 2022 Fonticons, Inc. --><path d="M477.8 384c-2.969 5.125-8.27 8-13.8 8c-2.719 0-5.453-.6875-7.984-2.156l-63.61-36.7l13.44 50.14c2.295 8.562-2.781 17.31-11.31 19.62c-1.391 .3438-2.781 .5313-4.156 .5313c-7.062 0-13.52-4.719-15.44-11.84l-21.72-81.06L272 283.7v93.69l59.31 59.31c6.25 6.25 6.25 16.38 0 22.62C328.2 462.4 324.1 464 319.1 464s-8.188-1.562-11.31-4.688L272 422.6V496c0 8.844-7.156 16-16 16s-16-7.156-16-16v-73.38l-36.69 36.69c-6.25 6.25-16.38 6.25-22.62 0s-6.25-16.38 0-22.62L240 377.4V283.7l-81.2 46.85l-21.72 81.06c-1.922 7.125-8.375 11.84-15.44 11.84c-1.375 0-2.766-.1875-4.156-.5313c-8.531-2.312-13.61-11.06-11.31-19.62l13.44-50.14l-63.61 36.7C53.49 391.3 50.74 392 48.02 392c-5.529 0-10.83-2.875-13.8-8c-4.422-7.656-1.871-17.44 5.785-21.84l63.6-36.7L53.44 312C44.91 309.7 39.85 300.1 42.13 292.4S53.26 279 61.72 281.1L142.8 302.8L224 256L142.8 209.2L61.72 230.9C60.33 231.3 58.94 231.4 57.57 231.4c-7.062 0-13.53-4.719-15.44-11.88C39.85 211 44.91 202.3 53.44 199.1l50.17-13.43L40.01 149.8C32.35 145.4 29.8 135.7 34.22 128c4.406-7.656 14.06-10.34 21.78-5.844l63.61 36.7l-13.44-50.14C103.9 100.2 108.1 91.41 117.5 89.09C126 87 134.8 91.91 137.1 100.4l21.72 81.06L240 228.3V134.6L180.7 75.31c-6.25-6.25-6.25-16.38 0-22.62s16.38-6.25 22.62 0L240 89.38V16C240 7.156 247.2 0 256 0s16 7.156 16 16v73.38l36.69-36.69c6.25-6.25 16.38-6.25 22.62 0s6.25 16.38 0 22.62L272 134.6v93.69l81.2-46.85l21.72-81.06c2.297-8.5 11.14-13.38 19.59-11.31c8.531 2.312 13.61 11.06 11.31 19.62l-13.44 50.14l63.61-36.7C463.6 117.7 473.3 120.3 477.8 128c4.422 7.656 1.871 17.44-5.785 21.84L408.4 186.5l50.17 13.43c8.529 2.312 13.59 11.06 11.31 19.59c-1.906 7.156-8.373 11.88-15.44 11.88c-1.375 0-2.766-.1875-4.156-.5313L369.2 209.2L287.1 256l81.18 46.84l81.1-21.74c8.531-2.125 17.33 2.812 19.59 11.34c2.281 8.531-2.781 17.28-11.31 19.59l-50.17 13.43l63.6 36.7C479.6 366.6 482.2 376.3 477.8 384z"/></svg>