<svg xmlns="http://www.w3.org/2000/svg" viewBox="0 0 640 512"><!--! Font Awesome Pro 6.1.1 by @fontawesome - https://fontawesome.com License - https://fontawesome.com/license (Commercial License) Copyright 2022 Fonticons, Inc. --><path d="M445.7 128c-4.438-7.656-14.16-10.34-21.78-5.844l-63.61 36.7l13.44-50.14c2.295-8.562-2.781-17.31-11.31-19.62c-8.453-2.062-17.3 2.812-19.59 11.31l-21.72 81.06l-81.2 46.85V134.6l59.31-59.31c6.25-6.25 6.25-16.38 0-22.62s-16.38-6.25-22.62 0L239.9 89.38V16c0-8.844-7.155-16-15.1-16S207.9 7.156 207.9 16v73.38L171.3 52.69c-6.25-6.25-16.38-6.25-22.62 0s-6.25 16.38 0 22.62l59.31 59.31v93.69L126.7 181.5l-21.72-81.06C102.7 91.91 93.95 87 85.43 89.09C76.9 91.41 71.83 100.2 74.12 108.7l13.44 50.14l-63.61-36.7C16.23 117.7 6.573 120.3 2.167 128c-4.422 7.656-1.871 17.44 5.785 21.84l63.6 36.7l-50.17 13.43C12.86 202.3 7.796 211 10.08 219.6c1.906 7.156 8.373 11.88 15.44 11.88c1.375 0 2.766-.1875 4.156-.5313L110.8 209.2L191.1 256L110.8 302.8L29.67 281.1C21.2 279 12.36 283.9 10.08 292.4s2.781 17.28 11.31 19.59l50.17 13.43l-63.6 36.7C.2958 366.6-2.255 376.3 2.167 384c2.969 5.125 8.27 8 13.8 8c2.719 0 5.469-.6875 7.984-2.156l63.61-36.7l-13.44 50.14c-2.295 8.562 2.781 17.31 11.31 19.62c1.391 .3438 2.781 .5313 4.156 .5313c7.062 0 13.52-4.719 15.44-11.84l21.72-81.06l81.2-46.85v93.69l-59.31 59.31c-6.25 6.25-6.25 16.38 0 22.62s16.38 6.25 22.62 0l36.69-36.69V496c0 8.844 7.158 16 16 16s15.1-7.156 15.1-16v-73.38l36.69 36.69C279.8 462.4 283.8 464 287.9 464s8.188-1.562 11.31-4.688c6.25-6.25 6.25-16.38 0-22.62l-59.31-59.31V283.7l81.2 46.85l21.72 81.06c1.922 7.125 8.375 11.84 15.44 11.84c1.375 0 2.766-.1875 4.156-.5313c8.531-2.312 13.61-11.06 11.31-19.62l-13.44-50.14l63.61 36.7C426.5 391.3 429.2 392 431.9 392c5.529 0 10.83-2.875 13.8-8c4.422-7.656 1.871-17.44-5.785-21.84l-63.6-36.7l50.17-13.43c8.529-2.312 13.59-11.06 11.31-19.59c-2.266-8.531-11.06-13.47-19.59-11.34L337.1 302.8L255.9 256l81.18-46.84l81.1 21.74c1.391 .3438 2.781 .5313 4.156 .5313c7.062 0 13.53-4.719 15.44-11.88c2.281-8.531-2.781-17.28-11.31-19.59l-50.17-13.43l63.6-36.7C447.6 145.4 450.1 135.7 445.7 128zM606.6 264l28.69-28.69c6.25-6.25 6.25-16.38 0-22.62s-16.38-6.25-22.62 0l-28.69 28.69l-28.69-28.69c-6.25-6.25-16.38-6.25-22.62 0s-6.25 16.38 0 22.62L561.3 264l-28.69 28.69c-6.25 6.25-6.25 16.38 0 22.62C535.8 318.4 539.9 320 543.9 320s8.188-1.562 11.31-4.688l28.69-28.69l28.69 28.69C615.8 318.4 619.9 320 623.9 320s8.188-1.562 11.31-4.688c6.25-6.25 6.25-16.38 0-22.62L606.6 264zM572.6 115.3C575.8 118.4 579.9 120 583.9 120s8.188-1.562 11.31-4.688c6.25-6.25 6.25-16.38 0-22.62L566.6 64l28.69-28.69c6.25-6.25 6.25-16.38 0-22.62s-16.38-6.25-22.62 0l-28.69 28.69l-28.69-28.69c-6.25-6.25-16.38-6.25-22.63 0s-6.25 16.38 0 22.62L521.3 64l-28.69 28.69c-6.25 6.25-6.25 16.38 0 22.62C495.8 118.4 499.9 120 503.9 120s8.188-1.562 11.31-4.688l28.69-28.69L572.6 115.3z"/></svg>