<svg xmlns="http://www.w3.org/2000/svg" viewBox="0 0 512 512"><!--! Font Awesome Pro 6.1.1 by @fontawesome - https://fontawesome.com License - https://fontawesome.com/license (Commercial License) Copyright 2022 Fonticons, Inc. --><path d="M320 240c35.35 0 64-28.65 64-64c0-35.35-28.65-64-64-64s-64 28.65-64 64C256 211.3 284.7 240 320 240zM320 144c17.67 0 32 14.33 32 32c0 17.67-14.33 32-32 32s-32-14.33-32-32C288 158.3 302.3 144 320 144zM400 96C426.5 96 448 74.47 448 48S426.5 0 400 0S352 21.53 352 48S373.5 96 400 96zM400 32C408.8 32 416 39.17 416 48S408.8 64 400 64S384 56.83 384 48S391.2 32 400 32zM434.4 193.8C424.8 191.9 416 199.8 416 209.6c0 7.771 5.658 14.15 13.26 15.76C458.2 231.5 480 257.3 480 288v128c0 35.35-28.65 64-64 64H96c-35.35 0-64-28.65-64-64V288c0-35.35 28.65-64 64-64h112C216.8 224 224 216.8 224 208C224 199.2 216.8 192 208 192H96C42.98 192 0 234.1 0 288v128c0 53.02 42.98 96 96 96h320c53.02 0 96-42.98 96-96V288C512 241.3 478.6 202.4 434.4 193.8zM160 272c-44.18 0-80 35.82-80 80s35.82 80 80 80h192c44.18 0 80-35.82 80-80S396.2 272 352 272H160zM400 352c0 26.47-21.53 48-48 48H160c-26.47 0-48-21.53-48-48S133.5 304 160 304h192C378.5 304 400 325.5 400 352zM192 128c35.35 0 64-28.65 64-64S227.3 0 192 0S128 28.65 128 64S156.7 128 192 128zM192 32c17.64 0 32 14.36 32 32S209.6 96 192 96S160 81.64 160 64S174.4 32 192 32z"/></svg>