<svg xmlns="http://www.w3.org/2000/svg" viewBox="0 0 576 512"><!--! Font Awesome Pro 6.1.1 by @fontawesome - https://fontawesome.com License - https://fontawesome.com/license (Commercial License) Copyright 2022 Fonticons, Inc. --><path d="M497.1 0h-116C356.6 0 336 20.62 336 46v216.5L253.2 318.8c-44.77 33.53-58.38 93.66-31.69 139.9C240.8 492.1 275.2 512 313.6 512c23.09 0 45.06-7.375 63.27-21.09l112.6-81.13C523.6 384.3 544 343.6 544 301V46C544 20.62 523.4 0 497.1 0zM512 301c0 32.59-15.56 63.69-41.41 83l-112.7 81.16C345 474.9 329.7 480 313.6 480c-26.84 0-50.94-13.97-64.42-37.34c-18.3-31.66-8.125-74.81 22.55-97.81L368 279.5V128H512V301zM512 96h-144V46C368 38.28 374.3 32 381.1 32h116C505.7 32 512 38.28 512 46V96zM181.9 465.2C169 474.9 153.7 480 137.6 480c-26.84 0-50.94-13.97-64.42-37.34c-18.3-31.66-8.125-74.81 22.55-97.81L192 279.5V128h96c8.844 0 16-7.156 16-16S296.8 96 288 96H192V46C192 38.28 198.3 32 205.1 32H288c8.844 0 16-7.156 16-16S296.9 0 288 0H205.1C180.6 0 160 20.62 160 46v216.5L77.19 318.8c-44.77 33.53-58.38 93.66-31.69 139.9C64.77 492.1 99.12 512 137.5 512c23.09 0 45.16-7.375 63.63-21.28c7.062-5.312 8.469-15.34 3.156-22.41S189 459.9 181.9 465.2z"/></svg>