<svg xmlns="http://www.w3.org/2000/svg" viewBox="0 0 640 512"><!--! Font Awesome Pro 6.1.1 by @fontawesome - https://fontawesome.com License - https://fontawesome.com/license (Commercial License) Copyright 2022 Fonticons, Inc. --><path d="M464 192c35.38 0 64-28.62 64-64s-28.62-64-64-64s-64 28.62-64 64S428.6 192 464 192zM464 96c17.62 0 32 14.38 32 32s-14.38 32-32 32s-32-14.38-32-32S446.4 96 464 96zM464 312c-13.22 0-24 10.78-24 24s10.78 24 24 24s24-10.78 24-24S477.2 312 464 312zM576 0h-224C316.7 0 288 28.65 288 64v384c0 35.35 28.65 64 64 64h224c35.35 0 64-28.65 64-64V64C640 28.65 611.3 0 576 0zM608 448c0 17.67-14.33 32-32 32h-224c-17.67 0-32-14.33-32-32V64c0-17.67 14.33-32 32-32h224c17.67 0 32 14.33 32 32V448zM464 224C402.1 224 352 274.1 352 336s50.13 112 112 112s112-50.13 112-112S525.9 224 464 224zM464 416c-44.13 0-80-35.88-80-80S419.9 256 464 256S544 291.9 544 336S508.1 416 464 416zM152 336c0 13.22 10.78 24 24 24s24-10.78 24-24S189.2 312 176 312S152 322.8 152 336zM240 128c0-35.38-28.62-64-64-64s-64 28.62-64 64s28.62 64 64 64S240 163.4 240 128zM144 128c0-17.62 14.38-32 32-32s32 14.38 32 32s-14.38 32-32 32S144 145.6 144 128zM256 16C256 7.162 248.8 0 240 0H64C28.65 0 0 28.65 0 64v384c0 35.35 28.65 64 64 64h176C248.8 512 256 504.8 256 496C256 487.2 248.8 480 240 480H64c-17.67 0-32-14.33-32-32V64c0-17.67 14.33-32 32-32h176C248.8 32 256 24.84 256 16zM242.4 264.9c4.906-7.344 2.906-17.28-4.438-22.17C219.6 230.5 198.1 224 175.9 224c-61.75 0-112 50.25-112 112S114.2 448 175.9 448c22.16 0 43.63-6.453 62-18.69c7.344-4.891 9.344-14.83 4.438-22.17c-4.906-7.406-14.84-9.359-22.19-4.453C207.1 411.4 191.8 416 176 416C131.9 416 96 380.1 96 336S131.9 256 176 256c15.81 0 31.09 4.609 44.19 13.31C227.6 274.2 237.5 272.3 242.4 264.9z"/></svg>