<svg xmlns="http://www.w3.org/2000/svg" viewBox="0 0 512 512"><!--! Font Awesome Pro 6.0.0-beta3 by @fontawesome - https://fontawesome.com License - https://fontawesome.com/license (Commercial License) Copyright 2021 Fonticons, Inc. --><path d="M256 0C229.5 0 208 21.49 208 48S229.5 96 256 96s48-21.49 48-48S282.5 0 256 0zM256 64C247.2 64 240 56.82 240 48S247.2 32 256 32s16 7.178 16 16S264.8 64 256 64zM256 416c-26.51 0-48 21.49-48 48S229.5 512 256 512s48-21.49 48-48S282.5 416 256 416zM256 480c-8.822 0-16-7.178-16-16S247.2 448 256 448s16 7.178 16 16S264.8 480 256 480zM464 208C437.5 208 416 229.5 416 256s21.49 48 48 48S512 282.5 512 256S490.5 208 464 208zM464 272C455.2 272 448 264.8 448 256s7.178-16 16-16S480 247.2 480 256S472.8 272 464 272zM96 256c0-26.51-21.49-48-48-48S0 229.5 0 256s21.49 48 48 48S96 282.5 96 256zM48 272C39.18 272 32 264.8 32 256s7.178-16 16-16S64 247.2 64 256S56.82 272 48 272zM403.1 355.1c-12.28 0-24.6 4.65-33.98 14.02c-18.74 18.74-18.74 49.14 0 67.88C378.5 446.4 390.8 451.1 403.1 451.1c12.29 0 24.53-4.723 33.91-14.09c18.75-18.75 18.75-49.14 0-67.88C427.6 359.8 415.4 355.1 403.1 355.1zM414.4 414.4c-4.078 4.078-8.838 4.688-11.31 4.688c-2.475 0-7.236-.6094-11.31-4.686c-6.24-6.24-6.24-16.39-.002-22.63c4.078-4.078 8.84-4.686 11.31-4.686c2.477 0 7.236 .6074 11.31 4.686C420.6 398 420.6 408.2 414.4 414.4zM108.9 60.89c-12.28 0-24.53 4.721-33.91 14.09c-18.74 18.74-18.74 49.14 0 67.88C84.35 152.2 96.6 156.9 108.9 156.9c12.29 0 24.6-4.652 33.98-14.02c18.75-18.75 18.75-49.14 0-67.88C133.5 65.61 121.2 60.89 108.9 60.89zM120.2 120.2C116.2 124.3 111.4 124.9 108.9 124.9c-2.475 0-7.236-.6094-11.31-4.686c-6.24-6.24-6.24-16.39-.002-22.63c4.078-4.078 8.84-4.686 11.31-4.686c2.477 0 7.236 .6074 11.31 4.686C126.5 103.8 126.5 113.1 120.2 120.2zM108.9 355.1c-12.28 0-24.53 4.65-33.91 14.02c-18.74 18.74-18.74 49.14 0 67.88C84.35 446.4 96.6 451.1 108.9 451.1c12.29 0 24.6-4.723 33.98-14.09c18.75-18.75 18.75-49.14 0-67.88C133.5 359.8 121.2 355.1 108.9 355.1zM120.2 414.4c-4.078 4.078-8.838 4.688-11.31 4.688c-2.475 0-7.236-.6094-11.31-4.686c-6.24-6.24-6.24-16.39-.002-22.63c4.078-4.078 8.84-4.686 11.31-4.686c2.477 0 7.236 .6074 11.31 4.686C126.5 398 126.5 408.2 120.2 414.4z"/></svg>