<svg xmlns="http://www.w3.org/2000/svg" viewBox="0 0 512 512"><!--! Font Awesome Pro 6.1.1 by @fontawesome - https://fontawesome.com License - https://fontawesome.com/license (Commercial License) Copyright 2022 Fonticons, Inc. --><path d="M208 48C208 21.49 229.5 0 256 0C282.5 0 304 21.49 304 48C304 74.51 282.5 96 256 96C229.5 96 208 74.51 208 48zM256 64C264.8 64 272 56.84 272 48C272 39.16 264.8 32 256 32C247.2 32 240 39.16 240 48C240 56.84 247.2 64 256 64zM208 464C208 437.5 229.5 416 256 416C282.5 416 304 437.5 304 464C304 490.5 282.5 512 256 512C229.5 512 208 490.5 208 464zM256 480C264.8 480 272 472.8 272 464C272 455.2 264.8 448 256 448C247.2 448 240 455.2 240 464C240 472.8 247.2 480 256 480zM96 256C96 282.5 74.51 304 48 304C21.49 304 0 282.5 0 256C0 229.5 21.49 208 48 208C74.51 208 96 229.5 96 256zM48 240C39.16 240 32 247.2 32 256C32 264.8 39.16 272 48 272C56.84 272 64 264.8 64 256C64 247.2 56.84 240 48 240zM416 256C416 229.5 437.5 208 464 208C490.5 208 512 229.5 512 256C512 282.5 490.5 304 464 304C437.5 304 416 282.5 416 256zM464 272C472.8 272 480 264.8 480 256C480 247.2 472.8 240 464 240C455.2 240 448 247.2 448 256C448 264.8 455.2 272 464 272zM142.9 369.1C161.6 387.9 161.6 418.3 142.9 437C124.1 455.8 93.73 455.8 74.98 437C56.23 418.3 56.23 387.9 74.98 369.1C93.73 350.4 124.1 350.4 142.9 369.1V369.1zM97.61 391.8C91.36 398 91.36 408.1 97.61 414.4C103.9 420.6 113.1 420.6 120.2 414.4C126.5 408.1 126.5 398 120.2 391.8C113.1 385.5 103.9 385.5 97.61 391.8zM74.98 74.98C93.73 56.23 124.1 56.23 142.9 74.98C161.6 93.73 161.6 124.1 142.9 142.9C124.1 161.6 93.73 161.6 74.98 142.9C56.24 124.1 56.24 93.73 74.98 74.98V74.98zM97.61 120.2C103.9 126.5 113.1 126.5 120.2 120.2C126.5 113.1 126.5 103.9 120.2 97.61C113.1 91.36 103.9 91.36 97.61 97.61C91.36 103.9 91.36 113.1 97.61 120.2zM437 437C418.3 455.8 387.9 455.8 369.1 437C350.4 418.3 350.4 387.9 369.1 369.1C387.9 350.4 418.3 350.4 437 369.1C455.8 387.9 455.8 418.3 437 437V437zM414.4 391.8C408.1 385.5 398 385.5 391.8 391.8C385.5 398 385.5 408.1 391.8 414.4C398 420.6 408.1 420.6 414.4 414.4C420.6 408.1 420.6 398 414.4 391.8z"/></svg>