<svg xmlns="http://www.w3.org/2000/svg" viewBox="0 0 512 512"><!--! Font Awesome Pro 6.0.0-beta3 by @fontawesome - https://fontawesome.com License - https://fontawesome.com/license (Commercial License) Copyright 2021 Fonticons, Inc. --><path d="M507.3 372.7c6.25 6.25 6.25 16.38 0 22.62l-80 80C424.2 478.4 420.1 480 416 480s-8.188-1.562-11.31-4.688c-6.25-6.25-6.25-16.38 0-22.62L457.4 400h-124.1c-12.62 0-25-5.125-33.94-14.06L185.4 272H24c-8.844 0-16-7.156-16-16s7.156-16 16-16h161.4l113.9-113.9C308.3 117.1 320.6 112 333.3 112h124.1l-52.69-52.69c-6.25-6.25-6.25-16.38 0-22.62s16.38-6.25 22.62 0l80 80c6.25 6.25 6.25 16.38 0 22.62l-80 80C424.2 222.4 420.1 224 416 224s-8.188-1.562-11.31-4.688c-6.25-6.25-6.25-16.38 0-22.62L457.4 144h-124.1c-4.219 0-8.344 1.719-11.31 4.688L214.6 256l107.3 107.3C324.9 366.3 329 368 333.3 368h124.1l-52.69-52.69c-6.25-6.25-6.25-16.38 0-22.62s16.38-6.25 22.62 0L507.3 372.7z"/></svg>