<svg xmlns="http://www.w3.org/2000/svg" viewBox="0 0 512 512"><!--! Font Awesome Pro 6.0.0-beta3 by @fontawesome - https://fontawesome.com License - https://fontawesome.com/license (Commercial License) Copyright 2021 Fonticons, Inc. --><path d="M463.1 185.1l-62.1-21.37c-13-4.375-22.5-13.5-25.38-24.5l-14.1-56.12c-6.25-23.38-25.5-41.38-51.5-48.25C280.2 27.26 250.1 35.01 230.6 55.01L187.4 99.38C178.2 108.8 163.7 113.8 149.2 112.5l-67.5-5.25c-31.37-2.375-60.37 12.12-74.12 37C-4.006 165.5-2.256 189.9 12.37 209.6l36.13 48.75c6.873 9.125 7.873 20 2.875 29.88l-26.62 52.1c-10.62 21.12-8.25 45.25 6.5 64.25c17.88 23.12 49.25 33.62 80.12 26.1l65.5-14.12c14.38-3.125 29.62-.127 40.62 8.123l50.88 37.88C282.2 474.8 299.5 480 316.9 480c11.75 0 23.62-2.375 34.63-7.5c23.5-10.62 38.5-30.88 40.37-54.25l4.375-57.5c.875-10.88 8.25-20.88 20-26.87l58.12-29.5c24.88-12.62 39.24-36.25 37.49-61.63C509.1 216.5 491.6 194.5 463.1 185.1zM459.9 275.9l-57.1 29.5c-21.88 11-35.88 30.75-37.5 52.87l-4.375 57.5c-1.25 16.62-15.62 24.87-21.75 27.62c-16.75 7.625-36.63 5.75-50.75-4.625l-50.87-37.1c-13.62-10.12-30.1-15.62-48.5-15.62c-6 0-12 .625-18 2l-65.5 14.12c-23 5-40.25-5.125-48-15.38c-4.248-5.375-10.25-16.5-3.25-30.25l26.62-52.1c10.5-20.75 8.25-44.38-5.75-63.37L38.12 190.6c-9.75-13.12-5.75-24.1-2.5-30.87c7.75-14 25.25-21.88 43.75-20.62l67.37 5.25c24.38 1.875 47.75-6.625 63.5-22.75l43.25-44.25c11.38-11.62 30-16.12 47.5-11.62c14.75 3.875 25.5 13.5 28.75 25.62l15 56.13c5.625 21.25 22.87 38.75 45.1 46.62l62.87 21.25c15.5 5.25 25.38 16.38 26.25 29.75C480.9 257.5 473.4 269 459.9 275.9z"/></svg>