<svg xmlns="http://www.w3.org/2000/svg" viewBox="0 0 512 512"><!--! Font Awesome Pro 6.1.1 by @fontawesome - https://fontawesome.com License - https://fontawesome.com/license (Commercial License) Copyright 2022 Fonticons, Inc. --><path d="M80 320C80 275.8 115.8 240 160 240C204.2 240 240 275.8 240 320C240 364.2 204.2 400 160 400C115.8 400 80 364.2 80 320zM160 368C186.5 368 208 346.5 208 320C208 293.5 186.5 272 160 272C133.5 272 112 293.5 112 320C112 346.5 133.5 368 160 368zM96 128V32C96 14.33 110.3 0 128 0H192C209.7 0 224 14.33 224 32V128C277 128 320 170.1 320 224V440C320 479.8 287.8 512 248 512H72C32.24 512 0 479.8 0 440V224C0 170.1 42.98 128 96 128zM128 128H192V32H128V128zM224 160H96C60.65 160 32 188.7 32 224V440C32 462.1 49.91 480 72 480H248C270.1 480 288 462.1 288 440V224C288 188.7 259.3 160 224 160zM312 64C312 77.25 301.3 88 288 88C274.7 88 264 77.25 264 64C264 50.75 274.7 40 288 40C301.3 40 312 50.75 312 64zM360 64C360 50.75 370.7 40 384 40C397.3 40 408 50.75 408 64C408 77.25 397.3 88 384 88C370.7 88 360 77.25 360 64zM504 64C504 77.25 493.3 88 480 88C466.7 88 456 77.25 456 64C456 50.75 466.7 40 480 40C493.3 40 504 50.75 504 64zM456 160C456 146.7 466.7 136 480 136C493.3 136 504 146.7 504 160C504 173.3 493.3 184 480 184C466.7 184 456 173.3 456 160zM504 256C504 269.3 493.3 280 480 280C466.7 280 456 269.3 456 256C456 242.7 466.7 232 480 232C493.3 232 504 242.7 504 256zM360 160C360 146.7 370.7 136 384 136C397.3 136 408 146.7 408 160C408 173.3 397.3 184 384 184C370.7 184 360 173.3 360 160z"/></svg>