<svg xmlns="http://www.w3.org/2000/svg" viewBox="0 0 448 512"><!--! Font Awesome Pro 6.1.1 by @fontawesome - https://fontawesome.com License - https://fontawesome.com/license (Commercial License) Copyright 2022 Fonticons, Inc. --><path d="M384 32H64C28.65 32 0 60.65 0 96v320c0 35.35 28.65 64 64 64h320c35.35 0 64-28.65 64-64V96C448 60.65 419.3 32 384 32zM416 416c0 17.64-14.36 32-32 32H64c-17.64 0-32-14.36-32-32V96c0-17.64 14.36-32 32-32h320c17.64 0 32 14.36 32 32V416zM323.9 133.6L224 250.1L124.1 133.6C118.4 126.9 108.3 126.2 101.6 131.8c-6.719 5.75-7.5 15.88-1.734 22.56L208 280.6V368c0 8.844 7.156 16 16 16s16-7.156 16-16V280.6l108.1-126.2c5.766-6.688 4.984-16.81-1.734-22.56C339.7 126.2 329.6 126.9 323.9 133.6z"/></svg>