<svg xmlns="http://www.w3.org/2000/svg" viewBox="0 0 640 512"><!--! Font Awesome Pro 6.1.1 by @fontawesome - https://fontawesome.com License - https://fontawesome.com/license (Commercial License) Copyright 2022 Fonticons, Inc. --><path d="M633.9 483.4C640.9 488.9 642 498.1 636.6 505.9C631.1 512.9 621 514 614.1 508.6L6.086 28.56C-.8493 23.08-2.033 13.02 3.443 6.086C8.918-.8493 18.98-2.033 25.91 3.443L633.9 483.4zM480 480H159.1C124.7 480 95.1 451.3 95.1 416V160.7L127.1 185.1V416C127.1 433.7 142.3 448 159.1 448H459.9L497.4 477.6C491.9 479.2 486 480 480 480V480zM142.6 34.4C148.1 32.84 153.1 32 159.1 32H480C515.3 32 544 60.65 544 96V351.3L512 326V96C512 78.33 497.7 64 480 64H180.1L142.6 34.4zM271.1 299.6V368C271.1 376.8 264.8 384 255.1 384C247.2 384 239.1 376.8 239.1 368V274.4L271.1 299.6zM411.8 246.9C414.5 239.8 416 232.1 416 224C416 188.7 387.3 160 352 160H301.7L261.3 128.1C262.2 128.1 263.1 128 263.1 128H352C405 128 448 170.1 448 224C448 239.6 444.3 254.3 437.7 267.4L411.8 246.9z"/></svg>