<svg xmlns="http://www.w3.org/2000/svg" viewBox="0 0 448 512"><!--! Font Awesome Pro 6.1.1 by @fontawesome - https://fontawesome.com License - https://fontawesome.com/license (Commercial License) Copyright 2022 Fonticons, Inc. --><path d="M273.3 203.7L191.5 248.3C191.8 250.8 192 253.4 192 255.1C192 258.6 191.8 261.2 191.5 263.7L273.3 308.3C284.9 295.8 301.6 287.1 320 287.1C355.3 287.1 384 316.7 384 352C384 387.3 355.3 416 320 416C284.7 416 256 387.3 256 352C256 346.6 256.7 341.4 257.9 336.4L179.7 293.7C168.1 309.6 149.2 319.1 128 319.1C92.65 319.1 64 291.3 64 255.1C64 220.7 92.65 191.1 128 191.1C149.2 191.1 168.1 202.4 179.7 218.3L257.9 175.6C256.7 170.6 256 165.4 256 159.1C256 124.7 284.7 95.1 320 95.1C355.3 95.1 384 124.7 384 159.1C384 195.3 355.3 223.1 320 223.1C301.6 223.1 284.9 216.2 273.3 203.7V203.7zM320 192C337.7 192 352 177.7 352 160C352 142.3 337.7 128 320 128C302.3 128 288 142.3 288 160C288 177.7 302.3 192 320 192zM320 384C337.7 384 352 369.7 352 352C352 334.3 337.7 320 320 320C302.3 320 288 334.3 288 352C288 369.7 302.3 384 320 384zM128 224C110.3 224 96 238.3 96 256C96 273.7 110.3 288 128 288C145.7 288 160 273.7 160 256C160 238.3 145.7 224 128 224zM0 96C0 60.65 28.65 32 64 32H384C419.3 32 448 60.65 448 96V416C448 451.3 419.3 480 384 480H64C28.65 480 0 451.3 0 416V96zM32 96V416C32 433.7 46.33 448 64 448H384C401.7 448 416 433.7 416 416V96C416 78.33 401.7 64 384 64H64C46.33 64 32 78.33 32 96z"/></svg>