<svg xmlns="http://www.w3.org/2000/svg" viewBox="0 0 448 512"><!--! Font Awesome Pro 6.0.0-beta3 by @fontawesome - https://fontawesome.com License - https://fontawesome.com/license (Commercial License) Copyright 2021 Fonticons, Inc. --><path d="M384 32H64C28.65 32 0 60.65 0 96v320c0 35.35 28.65 64 64 64h320c35.35 0 64-28.65 64-64V96C448 60.65 419.3 32 384 32zM416 416c0 17.64-14.36 32-32 32H64c-17.64 0-32-14.36-32-32V96c0-17.64 14.36-32 32-32h320c17.64 0 32 14.36 32 32V416zM308.7 180.7L192 297.4L139.3 244.7c-6.25-6.25-16.38-6.25-22.62 0s-6.25 16.38 0 22.62l64 64C183.8 334.4 187.9 336 192 336s8.188-1.562 11.31-4.688l128-128c6.25-6.25 6.25-16.38 0-22.62S314.9 174.4 308.7 180.7z"/></svg>