<svg xmlns="http://www.w3.org/2000/svg" viewBox="0 0 448 512"><!--! Font Awesome Pro 6.0.0-beta3 by @fontawesome - https://fontawesome.com License - https://fontawesome.com/license (Commercial License) Copyright 2021 Fonticons, Inc. --><path d="M384 32H64C28.65 32 0 60.65 0 96v320c0 35.35 28.65 64 64 64h320c35.35 0 64-28.65 64-64V96C448 60.65 419.3 32 384 32zM416 416c0 17.64-14.36 32-32 32H64c-17.64 0-32-14.36-32-32V96c0-17.64 14.36-32 32-32h320c17.64 0 32 14.36 32 32V416zM144 224C135.2 224 128 231.2 128 240v160C128 408.8 135.2 416 144 416S160 408.8 160 400v-160C160 231.2 152.8 224 144 224zM192 160H160V112C160 103.2 152.8 96 143.1 96S128 103.2 128 112l.002 48L95.1 160C87.16 160 80 167.2 80 176S87.16 192 96 192h96c8.844 0 16-7.156 16-16S200.8 160 192 160zM304 320c-8.844 0-16 7.156-16 16v64c0 8.844 7.156 16 16 16S320 408.8 320 400v-64C320 327.2 312.8 320 304 320zM352 256h-32V112C320 103.2 312.8 96 303.1 96S288 103.2 288 112V256h-32c-8.844 0-16 7.156-16 16S247.2 288 256 288h96c8.844 0 16-7.156 16-16S360.8 256 352 256z"/></svg>