<svg xmlns="http://www.w3.org/2000/svg" viewBox="0 0 448 512"><!--! Font Awesome Pro 6.1.1 by @fontawesome - https://fontawesome.com License - https://fontawesome.com/license (Commercial License) Copyright 2022 Fonticons, Inc. --><path d="M208 352V272H128C119.2 272 112 264.8 112 256C112 247.2 119.2 240 128 240H208V160C208 151.2 215.2 144 224 144C232.8 144 240 151.2 240 160V240H320C328.8 240 336 247.2 336 256C336 264.8 328.8 272 320 272H240V352C240 360.8 232.8 368 224 368C215.2 368 208 360.8 208 352zM0 96C0 60.65 28.65 32 64 32H384C419.3 32 448 60.65 448 96V416C448 451.3 419.3 480 384 480H64C28.65 480 0 451.3 0 416V96zM32 96V416C32 433.7 46.33 448 64 448H384C401.7 448 416 433.7 416 416V96C416 78.33 401.7 64 384 64H64C46.33 64 32 78.33 32 96z"/></svg>