<svg xmlns="http://www.w3.org/2000/svg" viewBox="0 0 448 512"><!--! Font Awesome Pro 6.1.1 by @fontawesome - https://fontawesome.com License - https://fontawesome.com/license (Commercial License) Copyright 2022 Fonticons, Inc. --><path d="M384 32H64C28.65 32 0 60.65 0 96v320c0 35.35 28.65 64 64 64h320c35.35 0 64-28.65 64-64V96C448 60.65 419.3 32 384 32zM416 416c0 17.64-14.36 32-32 32H64c-17.64 0-32-14.36-32-32V96c0-17.64 14.36-32 32-32h320c17.64 0 32 14.36 32 32V416zM238.3 136.8c-5.438-10.84-23.19-10.84-28.62 0l-112 224c-3.953 7.906-.75 17.52 7.156 21.47c7.906 3.922 17.52 .75 21.47-7.156l19.89-39.79C147.3 335.6 148.2 336 149.3 336h149.3c1.107 0 2.078-.4141 3.123-.6289l19.89 39.79C324.5 380.8 330.1 384 336 384c2.406 0 4.844-.5469 7.141-1.688c7.906-3.953 11.11-13.56 7.156-21.47L238.3 136.8zM161.9 304L224 179.8L286.1 304H161.9z"/></svg>