<svg xmlns="http://www.w3.org/2000/svg" viewBox="0 0 448 512"><!--! Font Awesome Pro 6.1.1 by @fontawesome - https://fontawesome.com License - https://fontawesome.com/license (Commercial License) Copyright 2022 Fonticons, Inc. --><path d="M352 248V360C352 390.9 326.9 416 296 416C270.9 416 247.2 404.5 231.6 384.7L178.1 316.6L125.9 407.9C121.5 415.6 111.7 418.3 104.1 413.9C96.39 409.5 93.72 399.7 98.11 392.1L162.1 280.1C164.7 275.4 169.5 272.4 174.8 272C180.1 271.7 185.3 273.9 188.6 278.1L240 343.6V248C240 217.1 265.1 192 296 192C326.9 192 352 217.1 352 248H352zM320 248C320 234.7 309.3 224 296 224C282.7 224 272 234.7 272 248V360C272 373.3 282.7 384 296 384C309.3 384 320 373.3 320 360V248zM264 152C264 182.9 238.9 208 208 208C177.1 208 152 182.9 152 152C152 121.1 177.1 96 208 96C238.9 96 264 121.1 264 152zM208 128C194.7 128 184 138.7 184 152C184 165.3 194.7 176 208 176C221.3 176 232 165.3 232 152C232 138.7 221.3 128 208 128zM0 96C0 60.65 28.65 32 64 32H384C419.3 32 448 60.65 448 96V416C448 451.3 419.3 480 384 480H64C28.65 480 0 451.3 0 416V96zM32 96V416C32 433.7 46.33 448 64 448H384C401.7 448 416 433.7 416 416V96C416 78.33 401.7 64 384 64H64C46.33 64 32 78.33 32 96z"/></svg>