<svg xmlns="http://www.w3.org/2000/svg" viewBox="0 0 448 512"><!--! Font Awesome Pro 6.1.1 by @fontawesome - https://fontawesome.com License - https://fontawesome.com/license (Commercial License) Copyright 2022 Fonticons, Inc. --><path d="M384 32H64C28.65 32 0 60.65 0 96v320c0 35.35 28.65 64 64 64h320c35.35 0 64-28.65 64-64V96C448 60.65 419.3 32 384 32zM416 416c0 17.64-14.36 32-32 32H64c-17.64 0-32-14.36-32-32V96c0-17.64 14.36-32 32-32h320c17.64 0 32 14.36 32 32V416zM304 352H186.5l87.27-76.5c34.63-30.38 38.64-81.88 9.172-117.2c-14.66-17.56-35.28-28.22-58.08-30c-22.95-1.969-44.84 5.5-62.02 20.56L145.6 163.9C138.1 169.8 138.3 179.8 144.1 186.5C149.9 193.2 160 193.8 166.7 188l17.27-15.09C194.6 163.6 208.2 159.2 222.4 160.2c14.12 1.125 26.91 7.719 36 18.62c18.27 21.91 15.77 53.81-5.688 72.66l-119.3 104.5c-5.016 4.406-6.781 11.44-4.422 17.66C131.4 379.9 137.3 384 144 384h160c8.844 0 16-7.156 16-16S312.8 352 304 352z"/></svg>