<svg xmlns="http://www.w3.org/2000/svg" viewBox="0 0 448 512"><!--! Font Awesome Pro 6.0.0-beta3 by @fontawesome - https://fontawesome.com License - https://fontawesome.com/license (Commercial License) Copyright 2021 Fonticons, Inc. --><path d="M224 184c13.25 0 24-10.75 24-24c0-13.26-10.75-24-24-24S200 146.7 200 160C200 173.3 210.7 184 224 184zM224 328c-13.25 0-24 10.74-24 24c0 13.25 10.75 24 24 24s24-10.75 24-24C248 338.7 237.3 328 224 328zM320 240H128C119.2 240 112 247.2 112 256S119.2 272 128 272h192c8.844 0 16-7.156 16-16S328.8 240 320 240zM384 32H64C28.65 32 0 60.65 0 96v320c0 35.35 28.65 64 64 64h320c35.35 0 64-28.65 64-64V96C448 60.65 419.3 32 384 32zM416 416c0 17.64-14.36 32-32 32H64c-17.64 0-32-14.36-32-32V96c0-17.64 14.36-32 32-32h320c17.64 0 32 14.36 32 32V416z"/></svg>