<svg xmlns="http://www.w3.org/2000/svg" viewBox="0 0 448 512"><!--! Font Awesome Pro 6.0.0-beta3 by @fontawesome - https://fontawesome.com License - https://fontawesome.com/license (Commercial License) Copyright 2021 Fonticons, Inc. --><path d="M112 448H96c-35.35 0-64-28.65-64-64v-16C32 359.2 24.84 352 16 352S0 359.2 0 368V384c0 53.02 42.98 96 96 96h16C120.8 480 128 472.8 128 464C128 455.2 120.8 448 112 448zM352 32h-16C327.2 32 320 39.16 320 48C320 56.84 327.2 64 336 64H352c35.35 0 64 28.65 64 64v16C416 152.8 423.2 160 432 160S448 152.8 448 144V128C448 74.98 405 32 352 32zM272 448h-96C167.2 448 160 455.2 160 464C160 472.8 167.2 480 176 480h96c8.836 0 16-7.164 16-16C288 455.2 280.8 448 272 448zM16 320C24.84 320 32 312.8 32 304v-96C32 199.2 24.84 192 16 192S0 199.2 0 208v96C0 312.8 7.164 320 16 320zM112 32H96C42.98 32 0 74.98 0 128v16C0 152.8 7.164 160 16 160S32 152.8 32 144V128c0-35.35 28.65-64 64-64h16C120.8 64 128 56.84 128 48C128 39.16 120.8 32 112 32zM432 192C423.2 192 416 199.2 416 208v96c0 8.836 7.164 16 16 16S448 312.8 448 304v-96C448 199.2 440.8 192 432 192zM432 352c-8.836 0-16 7.162-16 16V384c0 35.35-28.65 64-64 64h-16c-8.836 0-16 7.162-16 16c0 8.836 7.164 16 16 16H352c53.02 0 96-42.98 96-96v-16C448 359.2 440.8 352 432 352zM272 32h-96C167.2 32 160 39.16 160 48C160 56.84 167.2 64 176 64h96C280.8 64 288 56.84 288 48C288 39.16 280.8 32 272 32z"/></svg>