<svg xmlns="http://www.w3.org/2000/svg" viewBox="0 0 448 512"><!--! Font Awesome Pro 6.1.1 by @fontawesome - https://fontawesome.com License - https://fontawesome.com/license (Commercial License) Copyright 2022 Fonticons, Inc. --><path d="M128 288C119.2 288 112 280.8 112 272V144C112 135.2 119.2 128 128 128C136.8 128 144 135.2 144 144V272C144 280.8 136.8 288 128 288zM304 144C304 135.2 311.2 128 320 128C328.8 128 336 135.2 336 144V336C336 344.8 328.8 352 320 352C311.2 352 304 344.8 304 336V144zM224 256C215.2 256 208 248.8 208 240V144C208 135.2 215.2 128 224 128C232.8 128 240 135.2 240 144V240C240 248.8 232.8 256 224 256zM0 96C0 60.65 28.65 32 64 32H384C419.3 32 448 60.65 448 96V416C448 451.3 419.3 480 384 480H64C28.65 480 0 451.3 0 416V96zM64 448H384C401.7 448 416 433.7 416 416V96C416 78.33 401.7 64 384 64H64C46.33 64 32 78.33 32 96V416C32 433.7 46.33 448 64 448z"/></svg>