<svg xmlns="http://www.w3.org/2000/svg" viewBox="0 0 576 512"><!--! Font Awesome Pro 6.1.1 by @fontawesome - https://fontawesome.com License - https://fontawesome.com/license (Commercial License) Copyright 2022 Fonticons, Inc. --><path d="M539.3 228.7c-6.223-6.223-16.4-6.223-22.62 0L463.5 281.4L411.3 228.7c-6.221-6.223-16.4-6.223-22.62 0c-6.221 6.223-6.221 16.4 0 22.62L440.9 304l-52.21 52.71c-6.221 6.221-6.221 16.4 0 22.62c6.223 6.221 16.4 6.221 22.62 0l52.21-52.71l53.21 52.71c6.221 6.221 16.4 6.221 22.62 0c6.221-6.223 6.221-16.4 0-22.62L486.1 304l53.21-52.71C545.6 245.1 545.6 234.9 539.3 228.7zM560 32h-199.5c-21.62 0-40.75 14.62-46.25 35.5L213.1 443c-1.625 5.5-10.38 6.25-12.75 1.125L119.1 267.9c-7.875-16.88-25-27.88-43.63-27.88H16c-8.799 0-16 7.202-16 16c0 8.801 7.201 15.1 16 15.1h59.5c6.25 0 12 3.625 14.5 9.25l81 175.4c4.25 9.25 11.62 17 21.12 20.62c22.88 8.75 46-4.5 51.88-26l101.1-375.4C347 68.88 353.3 64 360.5 64H560C568.8 64 576 56.8 576 48S568.8 32 560 32z"/></svg>