<svg xmlns="http://www.w3.org/2000/svg" viewBox="0 0 448 512"><!--! Font Awesome Pro 6.1.1 by @fontawesome - https://fontawesome.com License - https://fontawesome.com/license (Commercial License) Copyright 2022 Fonticons, Inc. --><path d="M384 32H64C28.65 32 0 60.65 0 96v320c0 35.35 28.65 64 64 64h320c35.35 0 64-28.65 64-64V96C448 60.65 419.3 32 384 32zM416 416c0 17.64-14.36 32-32 32H64c-17.64 0-32-14.36-32-32V96c0-17.64 14.36-32 32-32h320c17.64 0 32 14.36 32 32V416zM304 128C295.2 128 288 135.2 288 144v96H160v-96C160 135.2 152.8 128 144 128S128 135.2 128 144v224C128 376.8 135.2 384 144 384S160 376.8 160 368v-96h128v96c0 8.844 7.156 16 16 16s16-7.156 16-16v-224C320 135.2 312.8 128 304 128z"/></svg>