<svg xmlns="http://www.w3.org/2000/svg" viewBox="0 0 448 512"><!--! Font Awesome Pro 6.0.0-beta3 by @fontawesome - https://fontawesome.com License - https://fontawesome.com/license (Commercial License) Copyright 2021 Fonticons, Inc. --><path d="M384 32H64C28.65 32 0 60.65 0 96v320c0 35.34 28.65 64 64 64h320c35.35 0 64-28.66 64-64V96C448 60.65 419.3 32 384 32zM416 416c0 17.64-14.36 32-32 32H64c-17.64 0-32-14.36-32-32V96c0-17.64 14.36-32 32-32h320c17.64 0 32 14.36 32 32V416zM359.3 200.5l-82.33-11.98L240.2 114C236.9 107.4 230.4 103.1 223.1 104c-6.41 0-12.82 3.318-16.13 10.02L171 188.5L88.7 200.5C73.93 202.6 68.01 220.8 78.72 231.2l59.57 57.93l-14.09 81.83C122.2 382.6 131.5 392 141.1 392c2.773 0 5.629-.6602 8.371-2.109L224 351.2l73.65 38.64c2.736 1.436 5.582 2.088 8.352 2.088c10.46 0 19.8-9.34 17.8-21.04l-14.09-81.83l59.57-57.93C379.1 220.8 374.1 202.6 359.3 200.5zM281.4 272c-3.783 3.678-5.509 8.985-4.614 14.19l10.7 62.18l-56.01-29.39c-4.655-2.443-10.21-2.443-14.87 0l-56.01 29.39l10.7-62.18c.8952-5.2-.8307-10.51-4.613-14.19L121.4 228l62.55-9.101c5.207-.7576 9.709-4.027 12.04-8.744L224 153.5l28.01 56.67c2.331 4.717 6.833 7.987 12.04 8.744l62.55 9.101L281.4 272z"/></svg>