<svg xmlns="http://www.w3.org/2000/svg" viewBox="0 0 448 512"><!--! Font Awesome Pro 6.1.1 by @fontawesome - https://fontawesome.com License - https://fontawesome.com/license (Commercial License) Copyright 2022 Fonticons, Inc. --><path d="M384 32H64C28.65 32 0 60.65 0 96v320c0 35.35 28.65 64 64 64h320c35.35 0 64-28.65 64-64V96C448 60.65 419.3 32 384 32zM416 416c0 17.64-14.36 32-32 32H64c-17.64 0-32-14.36-32-32V96c0-17.64 14.36-32 32-32h320c17.64 0 32 14.36 32 32V416zM340.8 128.7c-6.609-2.047-13.91 .3594-17.92 6.094L224 276.1L125.1 134.8C121.1 129.1 113.8 126.6 107.2 128.7C100.5 130.8 96 137 96 144v224C96 376.8 103.2 384 112 384S128 376.8 128 368V194.8l82.89 118.4c6 8.562 20.22 8.562 26.22 0L320 194.8V368c0 8.844 7.156 16 16 16s16-7.156 16-16v-224C352 137 347.5 130.8 340.8 128.7z"/></svg>