<svg xmlns="http://www.w3.org/2000/svg" viewBox="0 0 448 512"><!--! Font Awesome Pro 6.1.1 by @fontawesome - https://fontawesome.com License - https://fontawesome.com/license (Commercial License) Copyright 2022 Fonticons, Inc. --><path d="M384 32H64C28.65 32 0 60.65 0 96v320c0 35.35 28.65 64 64 64h320c35.35 0 64-28.65 64-64V96C448 60.65 419.3 32 384 32zM416 416c0 17.64-14.36 32-32 32H64c-17.64 0-32-14.36-32-32V96c0-17.64 14.36-32 32-32h320c17.64 0 32 14.36 32 32V416zM235.3 132.7C232.2 129.6 228.1 128 223.1 128S215.8 129.6 212.7 132.7l-96 96c-6.25 6.25-6.25 16.38 0 22.62s16.38 6.25 22.62 0L208 182.6V368c0 8.844 7.154 16 15.1 16S240 376.8 240 368V182.6l68.69 68.69c6.25 6.25 16.38 6.25 22.62 0s6.25-16.38 0-22.62L235.3 132.7z"/></svg>