<svg xmlns="http://www.w3.org/2000/svg" viewBox="0 0 576 512"><!--! Font Awesome Pro 6.0.0-beta3 by @fontawesome - https://fontawesome.com License - https://fontawesome.com/license (Commercial License) Copyright 2021 Fonticons, Inc. --><path d="M576 48C576 56.84 568.8 64 560 64H448v112C448 184.8 440.8 192 432 192h-128v144c0 8.844-7.156 16-16 16H160v112C160 472.8 152.8 480 144 480h-128C7.156 480 0 472.8 0 464S7.156 448 16 448H128v-112C128 327.2 135.2 320 144 320h128V176C272 167.2 279.2 160 288 160h128V48C416 39.16 423.2 32 432 32h128C568.8 32 576 39.16 576 48z"/></svg>