<svg xmlns="http://www.w3.org/2000/svg" viewBox="0 0 576 512"><!--! Font Awesome Pro 6.0.0-beta3 by @fontawesome - https://fontawesome.com License - https://fontawesome.com/license (Commercial License) Copyright 2021 Fonticons, Inc. --><path d="M528.5 171.5l-146.4-21.29l-65.43-132.4c-5.873-11.83-17.31-17.81-28.78-17.81c-11.39 0-22.82 5.89-28.7 17.8l-65.43 132.4L47.47 171.5C21.2 175.3 10.68 207.6 29.72 226.1l105.9 102.1l-25.04 145.5C107 495.3 123.6 512 142.2 512c4.932 0 10.01-1.172 14.88-3.75L288 439.6l130.9 68.7c4.865 2.553 9.926 3.713 14.85 3.713c18.61 0 35.21-16.61 31.65-37.41l-25.05-145.5l105.9-102.1C565.3 207.6 554.8 175.3 528.5 171.5zM142.1 479.1l26.48-153.8c.8951-5.199-.8304-10.51-4.612-14.18L52.08 203.2l154.7-22.51c5.205-.7574 9.705-4.025 12.04-8.739L272 64.35v347.5L142.1 479.1zM407.4 326.2l26.39 153.7L304 411.8V64.35l53.21 107.6c2.333 4.716 6.834 7.983 12.04 8.74l154.7 22.49l-111.1 108.9C408.2 315.7 406.5 320.1 407.4 326.2z"/></svg>