<svg xmlns="http://www.w3.org/2000/svg" viewBox="0 0 512 512"><!--! Font Awesome Pro 6.1.1 by @fontawesome - https://fontawesome.com License - https://fontawesome.com/license (Commercial License) Copyright 2022 Fonticons, Inc. --><path d="M503.5 213.9l-76.38-11.12L392.9 133.5C391.1 129.9 387.5 128 384 128s-7.125 1.875-9 5.5l-34.13 69.25l-76.38 11.12c-8.125 1.125-11.38 11.25-5.5 17l55.25 53.88l-13 76c-1.125 6.5 4 11.75 9.75 11.75c1.5 0 3.125-.375 4.625-1.25l68.38-35.88l68.25 35.88c1.625 .875 3.125 1.25 4.75 1.25c5.75 0 10.88-5.25 9.75-11.75l-13-76l55.25-53.88C514.9 225.1 511.6 215 503.5 213.9zM431.4 261.8l-12 11.75l8.25 48.63L384 299.3l-43.63 22.88l8.25-48.63l-35.25-34.38L362.1 232L384 187.8L405.9 232l48.75 7.125L431.4 261.8zM337.7 437.2l-8.734 .4687C228 437.7 145.8 356.2 145.8 256S228 74.31 328.1 74.31l8.734 .4687c14.17 0 26.61-10.06 29.66-24.25c2.75-14.5-5.234-28.78-19.08-34.03C319.1 5.562 288.7 0 257.9 0C115.7 0-.0001 114.8-.0001 256s115.7 256 257.9 256c30.44 0 60.7-5.5 89.56-16.19C359.7 491.7 368 480.2 368 467.3C368 450.7 354.4 437.2 337.7 437.2zM257.9 480C133.3 480 32 379.5 32 256s101.3-224 225.9-224c22.8 0 45.36 3.469 67.25 10.34C208.3 44.38 113.8 139.4 113.8 256c0 116.5 94.38 211.6 211.2 213.7C303 476.5 280.5 480 257.9 480z"/></svg>