<svg xmlns="http://www.w3.org/2000/svg" viewBox="0 0 512 512"><!--! Font Awesome Pro 6.1.1 by @fontawesome - https://fontawesome.com License - https://fontawesome.com/license (Commercial License) Copyright 2022 Fonticons, Inc. --><path d="M364.2 267.2l-104.8-15.28L212.6 156.7C208.7 148.8 200.7 143.9 191.9 143.9C183.2 143.8 175.1 148.8 171.4 156.7L124.5 251.1L19.71 267.2C.9566 269.9-6.618 293.1 7.007 306.5l75.87 74l-17.1 104.6c-1.25 6.75 .5878 13.51 4.963 18.63C74.22 509 80.64 512 87.52 512c3.625 0 7.436-.9554 10.69-2.705l93.79-49.38l93.74 49.38c3.25 1.625 6.991 2.675 10.62 2.675c6.75 0 13.23-2.97 17.61-8.22c4.25-5.125 6.273-11.98 5.148-18.61L301.2 380.5l75.92-74C390.6 293 383.1 269.1 364.2 267.2zM266.7 369.3l17.62 103.1l-92.5-48.75l-92.5 48.75l17.62-103.1L42.22 296.1l103.4-15l46.38-93.88l46.13 93.88l103.5 15L266.7 369.3zM256 112h64v64C320 184.8 327.2 192 336 192S352 184.8 352 176v-64h64c8.844 0 16-7.156 16-16s-7.154-15.1-15.1-15.1L352 80v-64C352 7.156 344.8 0 336 0S320 7.156 320 16v64l-63.99 .0022C247.2 80 240 87.16 240 96S247.2 112 256 112zM496 208h-32v-32c0-8.844-7.155-15.1-15.1-15.1S432 167.2 432 176v32h-32c-8.844 0-15.1 7.162-15.1 16.01S391.2 240 400 240h32v32c0 8.844 7.158 16.01 16 16.01S464 280.8 464 272v-32h32c8.844 0 16-7.151 16-15.99S504.8 208 496 208z"/></svg>