<svg xmlns="http://www.w3.org/2000/svg" viewBox="0 0 576 512"><!--! Font Awesome Pro 6.1.1 by @fontawesome - https://fontawesome.com License - https://fontawesome.com/license (Commercial License) Copyright 2022 Fonticons, Inc. --><path d="M293.3 .6123C304.2 3.118 311.9 12.82 311.9 24V408.7C311.9 417.5 307.1 425.7 299.2 429.8L150.1 509.1C142.9 513.4 133.1 512.7 125.6 507.4C118.2 502.1 114.5 492.1 115.1 483.9L142.2 328.4L31.11 218.3C24.65 211.9 22.36 202.4 25.2 193.7C28.03 185.1 35.5 178.8 44.49 177.5L197.7 154.8L266.3 13.52C271.2 3.46 282.4-1.893 293.3 .6127L293.3 .6123zM226.5 168.8C221.9 178.3 212.9 184.9 202.4 186.5L64.99 206.8L164.8 305.6C172.1 312.1 175.5 323.4 173.8 333.7L150.2 473.2L279.9 403.9V58.8L226.5 168.8z"/></svg>