<svg xmlns="http://www.w3.org/2000/svg" viewBox="0 0 512 512"><!--! Font Awesome Pro 6.0.0-beta3 by @fontawesome - https://fontawesome.com License - https://fontawesome.com/license (Commercial License) Copyright 2021 Fonticons, Inc. --><path d="M192 64C192 28.65 220.7 0 256 0C291.3 0 320 28.65 320 64C320 99.35 291.3 128 256 128C220.7 128 192 99.35 192 64zM256 96C273.7 96 288 81.67 288 64C288 46.33 273.7 32 256 32C238.3 32 224 46.33 224 64C224 81.67 238.3 96 256 96zM160 224C160 188.7 188.7 160 224 160H288C323.3 160 352 188.7 352 224V280C352 296.1 340.1 309.4 324.7 311.7L315.8 396.2C313.6 416.5 296.5 432 275.1 432H236C215.5 432 198.4 416.5 196.2 396.2L187.3 311.7C171.9 309.4 160 296.1 160 280L160 224zM216.6 283.6L228.1 392.8C228.5 396.9 231.9 400 236 400H275.1C280.1 400 283.5 396.9 283.9 392.8L295.4 283.6L319.1 280L320 223.1C320 206.3 305.7 191.1 288 191.1H224C206.3 191.1 192 206.3 192 223.1V279.1L216.6 283.6zM52.97 406.8C44.54 411.3 38.94 415.6 35.63 419.3C32.4 422.9 32 425.2 32 426.2C32 427.9 33.25 432.9 43.93 440.2C54.09 447.2 69.85 454.1 90.76 460.2C132.4 472.3 190.8 480 256 480C321.2 480 379.6 472.3 421.2 460.2C442.2 454.1 457.9 447.2 468.1 440.2C478.7 432.9 480 427.9 480 426.2C480 425.2 479.6 422.9 476.4 419.3C473.1 415.6 467.5 411.3 459 406.8C442.2 397.9 417 389.8 385.4 383.7C376.7 382 371 373.6 372.7 364.1C374.4 356.3 382.8 350.6 391.4 352.3C424.6 358.7 453.3 367.5 474 378.5C484.4 384 493.5 390.4 500.2 397.1C507.1 405.6 512 415.1 512 426.2C512 443.8 499.8 457.2 486.2 466.6C472.1 476.3 452.7 484.4 430.2 490.9C384.9 504.1 323.3 512 256 512C188.7 512 127.1 504.1 81.83 490.9C59.31 484.4 39.92 476.3 25.8 466.6C12.18 457.2 0 443.8 0 426.2C0 415.1 4.947 405.6 11.76 397.1C18.49 390.4 27.63 384 37.99 378.5C58.74 367.5 87.36 358.7 120.6 352.3C129.2 350.6 137.6 356.3 139.3 364.1C140.1 373.6 135.3 382 126.6 383.7C94.98 389.8 69.8 397.9 52.97 406.8H52.97z"/></svg>