<svg xmlns="http://www.w3.org/2000/svg" viewBox="0 0 512 512"><!--! Font Awesome Pro 6.0.0-beta3 by @fontawesome - https://fontawesome.com License - https://fontawesome.com/license (Commercial License) Copyright 2021 Fonticons, Inc. --><path d="M336 96C344.8 96 352 88.84 352 80S344.8 64 336 64L288 64.01c-5.469 0-10.56 2.79-13.5 7.399L176 226.2L77.5 71.41C74.56 66.8 69.47 64.01 64 64.01L16 64C7.156 64 0 71.16 0 80S7.156 96 16 96h39.22l101.8 160l-101.8 160H16C7.156 416 0 423.2 0 432S7.156 448 16 448L64 448c5.469 0 10.56-2.804 13.5-7.414L176 285.8l98.5 154.8c2.938 4.609 8.031 7.414 13.5 7.414L336 448c8.844 0 16-7.156 16-16S344.8 416 336 416h-39.22L194.1 256l101.8-160H336zM496 480h-32v-144c0-8.844-7.156-16-16-16h-32c-8.844 0-16 7.156-16 16S407.2 352 416 352h16v128h-32c-8.844 0-16 7.156-16 16s7.156 16 16 16h96c8.844 0 16-7.156 16-16S504.8 480 496 480z"/></svg>