<svg xmlns="http://www.w3.org/2000/svg" viewBox="0 0 512 512"><!--! Font Awesome Pro 6.1.1 by @fontawesome - https://fontawesome.com License - https://fontawesome.com/license (Commercial License) Copyright 2022 Fonticons, Inc. --><path d="M448 96h-64V48C384 21.53 362.5 0 336 0h-160C149.5 0 128 21.53 128 48V96H64C28.65 96 0 124.7 0 160v256c0 35.35 28.65 64 64 64h384c35.35 0 64-28.65 64-64V160C512 124.7 483.3 96 448 96zM160 48C160 39.17 167.2 32 176 32h160C344.8 32 352 39.17 352 48V96H160V48zM96 448H64c-17.64 0-32-14.36-32-32V160c0-17.64 14.36-32 32-32h32V448zM384 448H128V128h256V448zM480 416c0 17.64-14.36 32-32 32h-32V128h32c17.64 0 32 14.36 32 32V416z"/></svg>