<svg xmlns="http://www.w3.org/2000/svg" viewBox="0 0 512 512"><!--! Font Awesome Pro 6.1.1 by @fontawesome - https://fontawesome.com License - https://fontawesome.com/license (Commercial License) Copyright 2022 Fonticons, Inc. --><path d="M448 96h-64V48C384 21.53 362.5 0 336 0h-160C149.5 0 128 21.53 128 48V96H64C28.65 96 0 124.7 0 160v256c0 35.35 28.65 64 64 64h384c35.35 0 64-28.65 64-64V160C512 124.7 483.3 96 448 96zM160 48C160 39.17 167.2 32 176 32h160C344.8 32 352 39.17 352 48V96H160V48zM96 448H64c-17.64 0-32-14.36-32-32V160c0-17.64 14.36-32 32-32h32V448zM384 448H128V128h256V448zM480 416c0 17.64-14.36 32-32 32h-32V128h32c17.64 0 32 14.36 32 32V416zM176 320H224v48C224 376.8 231.2 384 240 384h32c8.836 0 16-7.164 16-16V320h48c8.836 0 16-7.164 16-16v-32C352 263.2 344.8 256 336 256H288V208C288 199.2 280.8 192 272 192h-32C231.2 192 224 199.2 224 208V256H176C167.2 256 160 263.2 160 272v32C160 312.8 167.2 320 176 320z"/></svg>