<svg xmlns="http://www.w3.org/2000/svg" viewBox="0 0 640 512"><!--! Font Awesome Pro 6.1.1 by @fontawesome - https://fontawesome.com License - https://fontawesome.com/license (Commercial License) Copyright 2022 Fonticons, Inc. --><path d="M80 352h320c8.801 0 16-7.201 16-16c0-8.801-7.199-16-16-16h-320C71.2 320 64 327.2 64 336C64 344.8 71.2 352 80 352zM576 416c0-8.801-7.199-16-16-16h-544C7.201 400 0 407.2 0 416c0 8.799 7.201 16 16 16h544C568.8 432 576 424.8 576 416zM208 480h-128C71.2 480 64 487.2 64 496C64 504.8 71.2 512 80 512h128C216.8 512 224 504.8 224 496C224 487.2 216.8 480 208 480zM480 335.9c0 8.799 7.199 16 16 16h128c8.801 0 16-7.201 16-16c0-8.801-7.199-16-16-16h-128C487.2 319.9 480 327.1 480 335.9zM624 480h-320C295.2 480 288 487.2 288 496C288 504.8 295.2 512 304 512h320c8.801 0 16-7.201 16-16C640 487.2 632.8 480 624 480zM320 128c-63.28 0-117.8 47.19-126.7 109.7C192 246.5 198.1 254.6 206.9 255.8C207.6 255.9 208.4 256 209.2 256C217 256 223.8 250.3 224.1 242.3C231.7 195.4 272.5 160 320 160s88.33 35.37 95.02 82.25c1.234 8.781 9.328 14.59 18.11 13.59c8.75-1.25 14.83-9.344 13.58-18.09C437.8 175.2 383.3 128 320 128zM113.1 247.7c4.234 7.812 13.98 10.66 21.7 6.375c7.766-4.219 10.62-13.94 6.391-21.69L104.3 163.2l91.05-19.5C201.1 142.4 205.8 138.1 207.4 132.4l25.97-90.94l77.77 51.84c5.375 3.562 12.38 3.562 17.75 0l77.77-51.84l25.97 90.94c1.625 5.688 6.25 10 12.03 11.25l91.05 19.5l-37.73 69.19c-4.234 7.75-1.375 17.47 6.391 21.69C506.8 255.4 509.4 256 511.1 256c5.672 0 11.16-3 14.06-8.344l48-88c2.422-4.438 2.594-9.75 .5-14.34c-2.109-4.562-6.266-7.906-11.19-8.969l-102.6-21.97L431.4 11.59c-1.406-4.906-5.078-8.844-9.875-10.62c-4.781-1.75-10.16-1.094-14.39 1.719L320 60.78L232.9 2.688c-4.25-2.812-9.609-3.469-14.39-1.719C213.7 2.75 210 6.688 208.6 11.59L179.3 114.4l-102.6 21.97C71.72 137.4 67.56 140.8 65.45 145.3c-2.094 4.594-1.922 9.906 .5 14.34L113.1 247.7z"/></svg>