<svg xmlns="http://www.w3.org/2000/svg" viewBox="0 0 640 512"><!--! Font Awesome Pro 6.1.1 by @fontawesome - https://fontawesome.com License - https://fontawesome.com/license (Commercial License) Copyright 2022 Fonticons, Inc. --><path d="M192.4 160.9C192.4 178.5 178.1 192.8 160.5 192.8C142.8 192.8 128.5 178.5 128.5 160.9C128.5 143.2 142.8 128.9 160.5 128.9C178.1 128.9 192.4 143.2 192.4 160.9zM159.9 0C165.7 0 171.1 3.226 173.9 8.402L201.4 59.37L256.1 42.75C262.6 41.06 268.7 42.61 272.9 46.77C277.1 50.93 278.6 57.04 276.9 62.68L260.3 118.1L311.3 145.6C316.5 148.4 319.7 153.8 319.7 159.7C319.7 165.6 316.5 170.1 311.3 173.8L260.3 201.2L276.9 256.7C278.6 262.3 277.1 268.4 272.9 272.6C268.7 276.7 262.6 278.3 256.1 276.6L201.4 259.1L173.9 310.9C171.1 316.1 165.7 319.3 159.9 319.3C153.1 319.3 148.6 316.1 145.8 310.9L118.3 259.1L62.72 276.6C57.08 278.3 50.98 276.7 46.82 272.6C42.66 268.4 41.12 262.3 42.81 256.7L59.44 201.2L8.418 173.8C3.233 170.1 0 165.6 0 159.7C0 153.8 3.233 148.4 8.418 145.6L59.44 118.1L42.81 62.68C41.12 57.04 42.66 50.93 46.82 46.77C50.98 42.61 57.08 41.06 62.72 42.75L118.3 59.37L145.8 8.402C148.6 3.226 153.1 0 159.9 0V0zM159.9 49.69L140.2 86.03C136.6 92.71 128.8 95.94 121.6 93.76L81.99 81.92L93.84 121.4C96.03 128.7 92.79 136.5 86.1 140.1L49.76 159.7L86.1 179.2C92.79 182.8 96.03 190.6 93.84 197.9L81.99 237.4L121.6 225.6C128.8 223.4 136.6 226.6 140.2 233.3L159.9 269.6L179.5 233.3C183.1 226.6 190.9 223.4 198.1 225.6L237.7 237.4L225.9 197.9C223.7 190.6 226.9 182.8 233.6 179.2L269.1 159.7L233.6 140.1C226.9 136.5 223.7 128.7 225.9 121.4L237.7 81.92L198.1 93.76C190.9 95.94 183.1 92.71 179.5 86.03L159.9 49.69zM496.2 480.1H624C632.9 480.1 640 487.2 640 496.1C640 504.9 632.9 512.1 624 512.1H16.62C7.788 512.1 .625 504.9 .625 496.1C.625 487.2 7.788 480.1 16.62 480.1H464.2V264.7C464.2 242.6 446.3 224.7 424.2 224.7C402.2 224.7 384.3 242.6 384.3 264.7V274.3C395.7 276.8 405.1 282.2 414.2 290.5C426.2 302.6 432.2 319.4 432.2 338.5C432.2 352.8 424.8 369.2 415.7 383.7C406.3 398.8 393.4 414.5 379.2 427.9C373.1 433.7 363.5 433.7 357.3 427.9C343.1 414.5 330.2 398.9 320.8 383.8C311.8 369.3 304.3 352.9 304.3 338.5C304.3 319.4 310.4 302.6 322.3 290.5C330.6 282.2 340.9 276.8 352.3 274.3V264.7C352.3 224.1 384.5 192.7 424.2 192.7C438.1 192.7 452.7 197.2 464.2 204.8V160.9C464.2 125.6 492.8 96.97 528.1 96.97C563.4 96.97 592.1 125.6 592.1 160.9V210.4C603.5 212.9 613.8 218.3 621.1 226.6C633.9 238.7 640 255.5 640 274.6C640 288.1 632.6 305.4 623.5 319.8C614.1 334.1 601.2 350.7 587 364.1C580.9 369.9 571.2 369.9 565.1 364.1C550.9 350.7 538 335.1 528.6 319.9C519.6 305.5 512.1 289.1 512.1 274.6C512.1 255.5 518.2 238.7 530.1 226.6C538.4 218.3 548.7 212.9 560.1 210.4V160.9C560.1 143.3 545.8 128.1 528.1 128.1C510.5 128.1 496.2 143.3 496.2 160.9L496.2 480.1zM368.3 304.6C357.7 304.6 350.1 307.9 345.1 312.1C340.1 318 336.3 326.2 336.3 338.5C336.3 343.5 339.6 353.5 347.9 366.8C353.4 375.6 360.4 384.8 368.3 393.4C376.1 384.7 383.1 375.5 388.6 366.8C396.9 353.4 400.2 343.4 400.2 338.5C400.2 326.2 396.4 318 391.5 312.1C386.5 307.9 378.8 304.6 368.3 304.6zM596.4 302.9C604.7 289.5 608 279.5 608 274.6C608 262.3 604.2 254.2 599.2 249.1C594.3 244.1 586.6 240.7 576.1 240.7C565.5 240.7 557.9 244.1 552.9 249.1C547.9 254.2 544.1 262.3 544.1 274.6C544.1 279.7 547.4 289.7 555.7 302.1C561.2 311.7 568.2 320.9 576.1 329.6C583.9 320.9 590.9 311.7 596.4 302.9z"/></svg>