<svg xmlns="http://www.w3.org/2000/svg" viewBox="0 0 576 512"><!--! Font Awesome Pro 6.1.1 by @fontawesome - https://fontawesome.com License - https://fontawesome.com/license (Commercial License) Copyright 2022 Fonticons, Inc. --><path d="M91 440.1c2.967 4.459 7.973 7.141 13.34 7.141c12.79 0 20.41-14.23 13.32-24.85l-27.41-41.04l86-17.22c6.375-1.248 11.38-6.115 12.62-12.48l17.25-85.87l73 48.55c5.375 3.619 12.38 3.619 17.75 0l73-48.55l17.25 85.87c1.125 6.24 6.125 11.23 12.62 12.48l86 17.22l-27.39 41.03c-7.098 10.63 .5332 24.87 13.33 24.87c5.352 0 10.35-2.668 13.32-7.111l40.74-60.91c3-4.367 3.5-10.11 1.5-14.98s-6.5-8.486-11.75-9.609l-99-19.72l-19.75-98.85c-1-5.242-4.625-9.611-9.625-11.73c-5-1.996-10.62-1.498-15 1.498l-84 55.91l-84-55.91c-4.375-2.871-10.13-3.494-15-1.498c-4.875 1.998-8.5 6.49-9.625 11.73L159.8 335.8l-99 19.72c-5.25 .998-9.625 4.617-11.75 9.609s-1.5 10.61 1.5 14.98L91 440.1zM287.8 352.3c-48.71 0-89.93 31.36-105.2 74.86c-1.533 4.365-1.562 20.99 15.05 20.99c6.771 0 12.5-4.355 14.73-10.65c10.97-31.01 40.67-53.25 75.43-53.25c34.88 0 64.49 22.24 75.53 53.26c2.158 6.061 7.611 10.64 15.07 10.64c10.93 0 18.34-10.76 14.74-21C377.8 383.6 336.6 352.3 287.8 352.3zM560 480h-544c-8.801 0-16 7.189-16 15.98C0 504.8 7.199 512 16 512h544c8.801 0 16-7.189 16-15.97C576 487.2 568.8 480 560 480zM276.7 219.3C279.8 222.4 283.9 224 288 224s8.188-1.562 11.31-4.688l96-96c6.25-6.25 6.25-16.38 0-22.62s-16.38-6.25-22.62 0L304 169.4V16C304 7.156 296.8 0 288 0S272 7.156 272 16v153.4L203.3 100.7c-6.25-6.25-16.38-6.25-22.62 0s-6.25 16.38 0 22.62L276.7 219.3z"/></svg>