<svg xmlns="http://www.w3.org/2000/svg" viewBox="0 0 448 512"><!--! Font Awesome Pro 6.0.0-beta3 by @fontawesome - https://fontawesome.com License - https://fontawesome.com/license (Commercial License) Copyright 2021 Fonticons, Inc. --><path d="M448 352C448 397.2 412.2 429.4 374.1 448.5C334 468.5 280.9 480 224 480C167.1 480 113.1 468.5 73.92 448.5C35.78 429.4 0 397.2 0 352V136C0 113.6 12.21 96.13 25.86 84.03C39.55 71.89 57.53 62.43 76.1 55.13C116.2 40.43 168.2 32 223.1 32C279.8 32 331.8 40.43 371 55.13C390.5 62.43 408.5 71.89 422.1 84.03C435.8 96.13 448 113.6 448 136L448 352zM416 136C416 98.26 338.6 67.3 240 64.25C240.2 117.1 294.4 175.9 383.7 175.1C404.1 164.6 416 150.8 416 136zM78.01 182.8C98.83 156.3 126.5 137.1 153.2 123.7C174.7 112.9 196.1 105.6 214 100.1C210.1 89.11 208 76.76 208 64.25C109.4 67.3 32 98.26 32 136C32 153.9 49.32 170.2 78.01 182.8V182.8zM110.4 194.1C142.2 202.8 181.5 208 224 208C259 208 291.8 204.5 320.1 198.4C279.5 185.5 247.4 160.8 228.1 130.5C211.4 134.3 189.5 141.3 167.6 152.3C146.7 162.8 126.5 176.5 110.4 194.1V194.1zM32 352C32 405 117.1 448 224 448C330 448 416 405 416 352V193C403.3 202.8 387.7 210.6 371 216.9C331.8 231.6 279.8 240 224 240C168.2 240 116.2 231.6 76.1 216.9C60.32 210.6 44.73 202.8 32 193V352z"/></svg>