<svg xmlns="http://www.w3.org/2000/svg" viewBox="0 0 512 512"><!--! Font Awesome Pro 6.0.0-beta3 by @fontawesome - https://fontawesome.com License - https://fontawesome.com/license (Commercial License) Copyright 2021 Fonticons, Inc. --><path d="M495.1 .0234c-1.102 0 8.81-1.744-95.99 16.01L198.6 217.4c-6.248 6.246-6.248 16.38 0 22.62c6.246 6.25 16.38 6.25 22.62 0l194.1-194.1l61.12-10.38L466.1 96.66l-194.1 194.1c-6.246 6.246-6.246 16.38 0 22.62c6.248 6.25 16.38 6.25 22.62 0l201.4-201.4l15.87-93.75C513.2 8.529 505.6 .0234 495.1 .0234zM122.7 209.4C113.1 203.7 105.8 209.4 103.5 211.7l-34.75 34.74c-5.5 5.375-6.249 13.87-1.999 20.25l45.87 68.75l-39.87 39.87L55.1 366.9c-1.193-.6406-9.32-4.18-15.1 2.5l-35.87 35.99c-5.5 5.375-5.5 14.25 0 19.62l82.87 82.87C89.74 510.6 93.24 512 96.87 512c3.498 0 6.998-1.375 9.748-4.125l35.1-35.87c4.125-4.25 5.25-10.62 2.5-16l-8.375-16.75l39.87-39.88l68.74 45.91c6.559 4.172 14.78 3.25 20.25-2l34.75-34.79c5.262-5.258 5.822-13.14 2.225-19.27L122.7 209.4zM252.2 411.4c-67.98-45.37-51.59-34.46-79.74-53.12l-74.62 74.62C109.9 457.1 107.3 452 110.7 458.6l-13.87 13.88L39.5 415.1l13.87-13.88c6.633 3.398 1.525 .8359 25.75 12.88l74.62-74.62c-18.66-28.16-7.758-11.77-53.12-79.74l14.12-14.25l151.7 151.7L252.2 411.4z"/></svg>