<svg xmlns="http://www.w3.org/2000/svg" viewBox="0 0 512 512"><!--! Font Awesome Pro 6.1.1 by @fontawesome - https://fontawesome.com License - https://fontawesome.com/license (Commercial License) Copyright 2022 Fonticons, Inc. --><path d="M312.5 148.7l102.8-102.8l61.12-10.37l-10.37 61.12l-102.8 102.8c-6.246 6.246-6.246 16.38 0 22.62c6.246 6.246 16.37 6.246 22.62 0l110.1-110.1l15.87-93.75c1.625-11.25-8.25-19.5-18.12-18.13l-93.74 15.88l-110.1 110.1c-6.248 6.246-6.248 16.38 0 22.62C296.2 154.1 306.3 154.1 312.5 148.7zM288.6 362c6.246-6.246 6.246-16.37 0-22.62L45.89 96.68l-10.37-61.12l61.12 10.37l242.7 242.7c6.246 6.25 16.37 6.25 22.62 0c6.246-6.246 6.246-16.37 0-22.62l-249.9-249.1l-93.74-15.88C7.027-1.459-1.222 8.416 .1531 18.29l15.87 93.75l249.9 249.1C272.2 368.3 282.3 368.3 288.6 362zM211.3 403.3l7.978-7.976c6.25-6.25 6.25-16.37 0-22.62c-6.25-6.25-16.37-6.25-22.62 0L188.7 380.7l-57.37-57.37l7.978-7.977c6.25-6.25 6.25-16.37 0-22.62c-6.25-6.25-16.37-6.25-22.62 0L108.7 300.7L84.7 276.7C81.59 273.5 77.53 271.1 73.47 271.1c-4.074 0-8.148 1.559-11.25 4.672L27.74 311.3c-5.336 5.336-6.205 13.77-1.986 19.98l34.38 57.09l-50.82 50.88c-12.4 12.39-12.41 32.5-.0332 44.91l18.52 18.57C33.97 508.9 42.13 512 50.29 512c8.139 0 16.28-3.09 22.46-9.269l50.79-50.86l57.21 34.37c2.641 1.797 5.686 2.668 8.723 2.668c4.102 0 8.191-1.59 11.26-4.656l34.62-34.5c6.188-6.168 6.197-16.27 .0195-22.44L211.3 403.3zM187.1 452.7l-68.48-41.15l-68.13 68.54l-18.5-18.27l68.49-68.57l-41.14-68.32l14.19-14.24l127.8 127.8L187.1 452.7zM502.7 439.3l-50.86-50.8l34.37-57.21c1.797-2.641 2.668-5.684 2.668-8.723c0-4.102-1.59-8.191-4.656-11.25l-34.5-34.62c-6.168-6.187-16.27-6.195-22.44-.0234l-150.7 150.7c-3.102 3.102-4.652 7.168-4.652 11.23c0 4.07 1.559 8.144 4.672 11.25l34.61 34.48c5.336 5.336 13.77 6.207 19.98 1.984l57.09-34.37l50.88 50.82c12.39 12.4 32.5 12.41 44.91 .0313l18.57-18.52c6.203-6.18 9.305-14.34 9.305-22.49C511.1 453.6 508.9 445.4 502.7 439.3zM461.8 480.1l-68.57-68.49l-68.32 41.14l-14.24-14.19l127.8-127.8l14.2 14.25l-41.15 68.48l68.54 68.13L461.8 480.1z"/></svg>