<svg xmlns="http://www.w3.org/2000/svg" viewBox="0 0 512 512"><!--! Font Awesome Pro 6.1.1 by @fontawesome - https://fontawesome.com License - https://fontawesome.com/license (Commercial License) Copyright 2022 Fonticons, Inc. --><path d="M208-.002C216.8-.002 224 7.162 224 15.1C224 24.83 216.8 31.1 208 31.1H16C7.164 31.1 .0003 24.83 .0003 15.1C.0003 7.162 7.164-.002 16-.002H208zM208 63.1C216.8 63.1 224 71.16 224 79.1C224 88.83 216.8 95.1 208 95.1H128V207.1C128 216.8 120.8 223.1 112 223.1C103.2 223.1 96 216.8 96 207.1V95.1H16C7.164 95.1 .0003 88.83 .0003 79.1C.0003 71.16 7.164 63.1 16 63.1H208zM473.7 4.136C493.5 .176 512 15.32 512 35.51V167.1H511.8C511.9 169.3 512 170.7 512 171.1C512 200.7 483.3 223.1 448 223.1C412.7 223.1 384 200.7 384 171.1C384 143.3 412.7 119.1 448 119.1C459.7 119.1 470.6 122.5 480 126.1V35.52L352 61.12V199.1H351.8C351.9 201.3 352 202.7 352 203.1C352 232.7 323.3 255.1 288 255.1C252.7 255.1 224 232.7 224 203.1C224 175.3 252.7 151.1 288 151.1C299.7 151.1 310.6 154.5 320 158.1V61.12C320 45.86 330.8 32.73 345.7 29.74L473.7 4.136zM473.1 160.1C467.5 155.6 458.8 151.1 448 151.1C437.2 151.1 428.5 155.6 422.9 160.1C417.5 164.5 416 168.9 416 171.1C416 175.1 417.5 179.5 422.9 183.9C428.5 188.4 437.2 191.1 448 191.1C458.8 191.1 467.5 188.4 473.1 183.9C478.5 179.5 480 175.1 480 171.1C480 168.9 478.5 164.5 473.1 160.1zM313.1 192.1C307.5 187.6 298.8 183.1 288 183.1C277.2 183.1 268.5 187.6 262.9 192.1C257.5 196.5 256 200.9 256 203.1C256 207.1 257.5 211.5 262.9 215.9C268.5 220.4 277.2 223.1 288 223.1C298.8 223.1 307.5 220.4 313.1 215.9C318.5 211.5 320 207.1 320 203.1C320 200.9 318.5 196.5 313.1 192.1V192.1zM288 336C288 309.5 309.5 288 336 288C362.5 288 384 309.5 384 336C384 362.5 362.5 384 336 384C309.5 384 288 362.5 288 336zM336 352C344.8 352 352 344.8 352 336C352 327.2 344.8 320 336 320C327.2 320 320 327.2 320 336C320 344.8 327.2 352 336 352zM507.3 292.7C513.6 298.9 513.6 309.1 507.3 315.3L315.3 507.3C309.1 513.6 298.9 513.6 292.7 507.3C286.4 501.1 286.4 490.9 292.7 484.7L484.7 292.7C490.9 286.4 501.1 286.4 507.3 292.7zM512 464C512 490.5 490.5 512 464 512C437.5 512 416 490.5 416 464C416 437.5 437.5 416 464 416C490.5 416 512 437.5 512 464zM464 448C455.2 448 448 455.2 448 464C448 472.8 455.2 480 464 480C472.8 480 480 472.8 480 464C480 455.2 472.8 448 464 448zM84.93 256C117.6 256 144 282.4 144 315.1C144 333.2 135.7 350.3 121.4 361.5L101.3 377.4L151.1 422.7L198.4 387.2C205.5 381.9 215.5 383.3 220.8 390.4C226.1 397.5 224.7 407.5 217.6 412.8L175.2 444.6L218.8 484.2C225.3 490.1 225.8 500.2 219.8 506.8C213.9 513.3 203.8 513.8 197.2 507.8L149.2 464.1L102.4 499.2C91.32 507.5 77.85 512 64 512C28.52 512 0 482.9 0 447.7C0 427.1 9.039 409.1 24.63 396.9L51.74 375.6L35.76 361C23.18 349.6 15.1 333.4 15.1 316.4C15.1 283 43.03 255.1 76.37 255.1L84.93 256zM112 315.1C112 300.1 99.88 288 84.93 288H76.37C60.7 288 48 300.7 48 316.4C48 324.4 51.37 331.1 57.29 337.4L77.26 355.5L101.7 336.4C108.2 331.2 112 323.4 112 315.1V315.1zM32 447.7C32 465.5 46.46 480 64 480C70.92 480 77.66 477.8 83.2 473.6L125 442.2L75.75 397.4L44.4 422C36.61 428.2 32 437.7 32 447.7V447.7z"/></svg>