<svg xmlns="http://www.w3.org/2000/svg" viewBox="0 0 448 512"><!--! Font Awesome Pro 6.0.0-beta3 by @fontawesome - https://fontawesome.com License - https://fontawesome.com/license (Commercial License) Copyright 2021 Fonticons, Inc. --><path d="M439.3 164.4c5.375-2.625 8.75-8.125 8.75-14.25v-76.25c0-6.125-3.375-11.63-8.75-14.25l-23.25-11.62c0-26.5-21.5-48-47.1-48h-288c-26.5 0-48 21.5-48 48L8.799 59.63C3.424 62.25 .0492 67.75 .0492 73.88v76.25c0 6.125 3.375 11.63 8.75 14.25l23.25 11.62v16L8.799 203.6C3.424 206.3 .0492 211.8 .0492 217.9v76.25c0 6.125 3.375 11.63 8.75 14.25l23.25 11.62v16l-23.25 11.62c-5.375 2.625-8.75 8.125-8.75 14.25v76.25c0 6.125 3.375 11.63 8.75 14.25l23.25 11.62c0 26.5 21.5 48 48 48h288c26.5 0 47.1-21.5 47.1-48l23.25-11.62c5.375-2.625 8.75-8.125 8.75-14.25v-76.25c0-6.125-3.375-11.63-8.75-14.25l-23.25-11.62v-16l23.25-11.62c5.375-2.625 8.75-8.125 8.75-14.25V217.9c0-6.125-3.375-11.63-8.75-14.25l-23.25-11.62v-16L439.3 164.4zM401.8 220.6L416 227.8v56.5l-32 16v55.5l32 16v56.5l-32 16V464c0 8.75-7.25 16-16 16h-288C71.25 480 64 472.8 64 464v-19.75l-32-16v-56.5l32-16V300.2l-32-16V227.8l32-16V156.2l-32-16V83.75l32-16V48C64 39.25 71.25 32 80 32h288C376.8 32 384 39.25 384 48v19.75l32 16v56.5l-32 16v55.5L401.8 220.6zM320 64H128C110.4 64 96 78.4 96 96v320c0 17.6 14.4 32 32 32h192c17.6 0 32-14.4 32-32V96C352 78.4 337.6 64 320 64zM320 416H128V96h192V416z"/></svg>