<svg xmlns="http://www.w3.org/2000/svg" viewBox="0 0 640 512"><!--! Font Awesome Pro 6.0.0-beta3 by @fontawesome - https://fontawesome.com License - https://fontawesome.com/license (Commercial License) Copyright 2021 Fonticons, Inc. --><path d="M576 64H64C28.65 64 0 92.65 0 128v256c0 35.35 28.65 64 64 64h512c35.35 0 64-28.65 64-64V128C640 92.65 611.3 64 576 64zM608 384c0 17.64-14.36 32-32 32H64c-17.64 0-32-14.36-32-32V128c0-17.64 14.36-32 32-32h512c17.64 0 32 14.36 32 32V384zM320 128H96C78.33 128 64 142.3 64 160v64c0 17.67 14.33 32 32 32h224c17.67 0 32-14.33 32-32V160C352 142.3 337.7 128 320 128zM320 224H96V160h224V224zM336 352h-256C71.16 352 64 359.2 64 368S71.16 384 79.1 384h256c8.844 0 16-7.156 16-16S344.8 352 336 352zM560 352h-160c-8.844 0-16 7.156-16 16s7.156 16 16 16h160c8.844 0 16-7.156 16-16S568.8 352 560 352zM80 320C88.84 320 96 312.8 96 304C96 295.2 88.84 288 80 288S64 295.2 64 304C64 312.8 71.16 320 80 320zM160 304C160 295.2 152.8 288 144 288S128 295.2 128 304C128 312.8 135.2 320 144 320S160 312.8 160 304zM224 304C224 295.2 216.8 288 208 288S192 295.2 192 304C192 312.8 199.2 320 208 320S224 312.8 224 304zM288 304C288 295.2 280.8 288 272 288S256 295.2 256 304C256 312.8 263.2 320 272 320S288 312.8 288 304zM336 288C327.2 288 320 295.2 320 304c0 8.836 7.164 16 16 16S352 312.8 352 304C352 295.2 344.8 288 336 288z"/></svg>