<svg xmlns="http://www.w3.org/2000/svg" viewBox="0 0 448 512"><!--! Font Awesome Pro 6.0.0-beta3 by @fontawesome - https://fontawesome.com License - https://fontawesome.com/license (Commercial License) Copyright 2021 Fonticons, Inc. --><path d="M88 144C88 130.7 98.75 120 112 120C125.3 120 136 130.7 136 144C136 157.3 125.3 168 112 168C98.75 168 88 157.3 88 144zM.0003 80C.0003 53.49 21.49 32 48 32H197.5C214.5 32 230.7 38.74 242.7 50.75L418.7 226.7C443.7 251.7 443.7 292.3 418.7 317.3L285.3 450.7C260.3 475.7 219.7 475.7 194.7 450.7L18.75 274.7C6.743 262.7 0 246.5 0 229.5L.0003 80zM41.37 252.1L217.4 428.1C229.9 440.6 250.1 440.6 262.6 428.1L396.1 294.6C408.6 282.1 408.6 261.9 396.1 249.4L220.1 73.37C214.1 67.37 205.1 64 197.5 64H48C39.16 64 32 71.16 32 80V229.5C32 237.1 35.37 246.1 41.37 252.1L41.37 252.1zM41.37 252.1L18.75 274.7z"/></svg>