<svg xmlns="http://www.w3.org/2000/svg" viewBox="0 0 512 512"><!--! Font Awesome Pro 6.0.0-beta3 by @fontawesome - https://fontawesome.com License - https://fontawesome.com/license (Commercial License) Copyright 2021 Fonticons, Inc. --><path d="M80 136C80 122.7 90.75 112 104 112C117.3 112 128 122.7 128 136C128 149.3 117.3 160 104 160C90.75 160 80 149.3 80 136zM204.1 32C216.8 32 229.1 37.06 238.1 46.06L410.7 218.7C435.7 243.7 435.7 284.3 410.7 309.3L277.3 442.7C252.3 467.7 211.7 467.7 186.7 442.7L14.06 270.1C5.057 261.1 0 248.8 0 236.1V80C0 53.49 21.49 32 48 32H204.1zM36.69 247.4L209.4 420.1C221.9 432.6 242.1 432.6 254.6 420.1L388.1 286.6C400.6 274.1 400.6 253.9 388.1 241.4L215.4 68.69C212.4 65.69 208.4 64 204.1 64H48C39.16 64 32 71.16 32 80V236.1C32 240.4 33.69 244.4 36.69 247.4V247.4zM308.4 36.95C314.5 30.56 324.7 30.33 331.1 36.43L472.4 171.5C525.1 221.9 525.1 306.1 472.4 356.5L347.8 475.6C341.4 481.7 331.3 481.4 325.2 475.1C319.1 468.7 319.3 458.5 325.7 452.4L450.3 333.4C489.8 295.6 489.8 232.4 450.3 194.6L308.9 59.57C302.6 53.46 302.3 43.34 308.4 36.95V36.95z"/></svg>