<svg xmlns="http://www.w3.org/2000/svg" viewBox="0 0 448 512"><!--! Font Awesome Pro 6.0.0-beta3 by @fontawesome - https://fontawesome.com License - https://fontawesome.com/license (Commercial License) Copyright 2021 Fonticons, Inc. --><path d="M31.1 32C40.84 32 47.1 39.16 47.1 48V464C47.1 472.8 40.84 480 31.1 480C23.16 480 15.1 472.8 15.1 464V48C15.1 39.16 23.16 32 31.1 32V32zM159.1 32C168.8 32 175.1 39.16 175.1 48V464C175.1 472.8 168.8 480 159.1 480C151.2 480 143.1 472.8 143.1 464V48C143.1 39.16 151.2 32 159.1 32V32zM304 464C304 472.8 296.8 480 288 480C279.2 480 272 472.8 272 464V48C272 39.16 279.2 32 288 32C296.8 32 304 39.16 304 48V464z"/></svg>