<svg xmlns="http://www.w3.org/2000/svg" viewBox="0 0 320 512"><!--! Font Awesome Pro 6.0.0-beta3 by @fontawesome - https://fontawesome.com License - https://fontawesome.com/license (Commercial License) Copyright 2021 Fonticons, Inc. --><path d="M309.9 256c0-8.266-6.346-14.83-14.38-15.67L320 64c0-35.35-71.63-64-160-64S0 28.65 0 64l24.44 176H21.9c-8.836 0-16 7.162-16 16c0 8.836 7.164 16 16 16H24.44L0 448c0 35.35 71.63 64 160 64s160-28.65 160-64l-24.49-176.3C303.6 270.8 309.9 264.3 309.9 256zM160 480c-76.47 0-120.5-22.32-127.6-32.56L56.75 272H128L96.58 311.1c-1.818 2.729-2.629 5.891-2.629 8.938c0 8.914 7.166 15.94 15.94 15.94c5.156 0 10.22-2.5 13.31-7.125l34.69-44.03l34.75 44.03C195.7 333.5 200.8 336 205.1 336c8.777 0 15.94-7.023 15.94-15.94c0-3.047-.8086-6.209-2.629-8.938L187.8 272h75.46l24.37 175.4C280.5 457.7 236.5 480 160 480zM263.3 240h-206.5L32.38 64.56C39.46 54.32 83.53 32 160 32s120.5 22.32 127.6 32.56L263.3 240zM253.8 81.64c.9062-8.781-5.469-16.64-14.25-17.56c-8.625-.7031-16.66 5.484-17.56 14.28L208.8 208h31.93L253.8 81.64zM141.9 72V208h32V72c0-8.844-7.156-16-16-16S141.9 63.16 141.9 72zM76.24 64.08C67.46 65 61.08 72.86 61.99 81.64L75.3 208H107.2L93.8 78.36C92.9 69.56 84.93 63.34 76.24 64.08zM68.94 344.6l-6.977 86.1c-.7187 8.812 5.844 16.53 14.66 17.25C77.05 447.1 77.49 448 77.93 448c8.25 0 15.25-6.344 15.91-14.7l5.309-66.62C86.31 363.7 75.54 355.6 68.94 344.6zM216.6 366.7l5.395 66.57C222.6 441.7 229.6 448 237.9 448c.4375 0 .875-.0156 1.312-.0469c8.812-.7187 15.38-8.438 14.66-17.25L246.8 344.9C240.1 355.8 229.4 363.8 216.6 366.7zM157.9 336.5l-9.004 11.43c-2.051 2.861-4.455 5.371-7.018 7.674V440c0 8.844 7.156 16 16 16s16-7.156 16-16v-84.44c-2.533-2.285-4.918-4.764-6.947-7.594L157.9 336.5z"/></svg>