<svg xmlns="http://www.w3.org/2000/svg" viewBox="0 0 448 512"><!--! Font Awesome Pro 6.0.0-beta3 by @fontawesome - https://fontawesome.com License - https://fontawesome.com/license (Commercial License) Copyright 2021 Fonticons, Inc. --><path d="M224 256c39.14 0 72-30.56 72-69.66c0-11.23-4.928-24.38-10.24-35.84c-5.6-12.16-12.96-25.12-20.13-36.8c-7.201-11.74-14.34-22.5-19.71-30.3c-2.688-3.904-4.928-7.105-6.496-9.312c-.7676-1.119-1.408-1.984-1.824-2.561C234.3 67.01 230.1 64 223.1 64C217.8 64 213.7 67.02 210.4 71.52c-.416 .5762-1.055 1.473-1.822 2.561C206.9 76.32 204.7 79.49 202 83.39C196.7 91.2 189.5 101.1 182.3 113.7C175.2 125.4 167.8 138.3 162.2 150.5C156.9 161.1 152 175.1 152 186.3C152 225.4 184.9 256 224 256zM191.3 163.9c4.896-10.56 11.52-22.34 18.37-33.54C214.6 122.2 219.6 114.5 224 108.1c4.32 6.463 9.344 14.18 14.34 22.34c6.848 11.2 13.5 22.98 18.4 33.54C261.9 175.2 264 182.7 264 186.3C264 206.5 246.8 224 224 224S184 206.5 184 186.3C184 182.7 186.1 175.2 191.3 163.9zM376 32h-72.67c-8.832 0-16 7.168-16 16s7.168 16 16 16H376C398.1 64 416 81.92 416 104v192.8L381.7 326.9c-17.54 13.79-42.27 13.73-59.71-.2227l-24.03-19.2c-5.824-4.703-14.14-4.703-19.97 0l-24.03 19.2c-17.54 14.02-42.43 14.02-59.97 0L169.1 307.5c-5.824-4.703-14.14-4.703-19.97 0L125.1 326.7c-17.44 13.95-42.18 14.02-59.71 .2227L32 296.8V104C32 81.92 49.92 64 72 64h72.96c8.832 0 16-7.168 16-16s-7.168-16-16-16H72C32.22 32 0 64.22 0 104v304C0 447.8 32.22 480 72 480h304c39.78 0 72-32.22 72-72v-304C448 64.22 415.8 32 376 32zM416 408c0 22.08-17.92 40-40 40h-304C49.92 448 32 430.1 32 408v-68.61l13.44 11.84c.1934 .1602 .3848 .3203 .5762 .4805c29.22 23.36 70.75 23.36 99.97 0L160 340.5l14.02 11.23c29.22 23.36 70.75 23.36 99.97 0L288 340.5l14.02 11.23c29.22 23.36 70.75 23.36 99.97 0c.1914-.1602 .3828-.3203 .5762-.4805L416 339.4V408z"/></svg>