<svg xmlns="http://www.w3.org/2000/svg" viewBox="0 0 640 512"><!--! Font Awesome Pro 6.0.0-beta3 by @fontawesome - https://fontawesome.com License - https://fontawesome.com/license (Commercial License) Copyright 2021 Fonticons, Inc. --><path d="M608 464H256c-114.7 0-208-93.31-208-208S141.3 48 256 48s208 93.31 208 208c0 54.77-21.09 106.5-59.44 145.5c-6.188 6.312-6.062 16.44 .25 22.62c6.281 6.234 16.44 6.078 22.62-.2187C471.7 378.8 496 319.2 496 256c0-132.3-107.7-240-240-240S16 123.7 16 256s107.7 240 240 240h352c8.844 0 16-7.156 16-16S616.8 464 608 464zM144 256c0 61.75 50.25 112 112 112s112-50.25 112-112S317.8 144 256 144S144 194.3 144 256zM336 256c0 44.11-35.88 80-80 80S176 300.1 176 256S211.9 176 256 176S336 211.9 336 256z"/></svg>