<svg xmlns="http://www.w3.org/2000/svg" viewBox="0 0 576 512"><!--! Font Awesome Pro 6.1.1 by @fontawesome - https://fontawesome.com License - https://fontawesome.com/license (Commercial License) Copyright 2022 Fonticons, Inc. --><path d="M72 160C72 146.7 82.75 136 96 136C109.3 136 120 146.7 120 160C120 173.3 109.3 184 96 184C82.75 184 72 173.3 72 160zM576 284.1C576 296.8 570.9 309.1 561.9 318.1L446.1 433.9C437.1 442.9 424.8 448 412.1 448H64C28.65 448 0 419.3 0 384V128C0 92.65 28.65 64 64 64H512C547.3 64 576 92.65 576 128V284.1zM32 384C32 401.7 46.33 416 64 416H384V304C384 277.5 405.5 256 432 256H544V128C544 110.3 529.7 96 512 96H64C46.33 96 32 110.3 32 128V384zM539.3 295.4C541.4 293.4 542.8 290.8 543.5 288H432C423.2 288 416 295.2 416 304V415.5C418.8 414.8 421.4 413.4 423.4 411.3L539.3 295.4z"/></svg>