<svg xmlns="http://www.w3.org/2000/svg" viewBox="0 0 576 512"><!--! Font Awesome Pro 6.0.0-beta3 by @fontawesome - https://fontawesome.com License - https://fontawesome.com/license (Commercial License) Copyright 2021 Fonticons, Inc. --><path d="M160.3 119.3C160.3 120.6 160 121.8 160 123C160 196.5 217.3 256 288 256s128-59.53 128-132.1c0-1.271-.25-2.484-.3047-3.746C434.9 108.2 448 87.75 448 64c0-35.35-28.65-64-64-64c-24.95 0-46.34 14.42-56.89 35.26C314.1 33.29 301.1 32 288 32S261.9 33.29 248.9 35.26C238.3 14.42 216.1 0 192 0C156.7 0 128 28.65 128 64C128 87.75 141.1 108.2 160.3 119.3zM288 224C252.7 224 224 207.9 224 188c0-13.49 13.35-25.11 32.88-31.28C256.7 157.8 256 158.8 256 160c0 13.25 14.33 24 32 24S320 173.3 320 160c0-1.162-.668-2.158-.8809-3.275C338.6 162.9 352 174.5 352 188C352 207.9 323.3 224 288 224zM384 32c17.64 0 32 14.36 32 32c0 8.336-3.385 15.79-8.625 21.49c-9.414-19.82-26.05-35.33-46.92-42.74C366.3 36.26 374.6 32 384 32zM288 64c19.49 0 38.96 2.49 57.87 7.4C368.3 77.23 384 98.46 384 123c0 17.31-4.547 33.37-11.88 47.62C361.7 145.5 329.2 128 288 128S214.3 145.5 203.9 170.7C196.5 156.4 192 140.3 192 123c0-24.57 15.68-45.8 38.13-51.63C249 66.49 268.5 64 288 64zM192 32c9.416 0 17.68 4.26 23.54 10.75C194.7 50.17 178 65.67 168.6 85.49C163.4 79.79 160 72.34 160 64C160 46.36 174.4 32 192 32zM532.2 339.3c-33.62-11.25-69.78 6.969-80.96 40.47l-1.406 4.25h-17.87v-18.88c37.56-20.63 71.49-49.78 99.18-86.71c21.22-28.28 15.5-68.4-12.78-89.59c-28.31-21.28-68.4-15.44-89.59 12.78c-33.56 44.75-80.99 70.4-130.1 70.4H277.3c-49.15 0-96.58-25.65-130.1-70.4C126 173.4 85.99 167.5 57.61 188.8C29.34 210 23.62 250.1 44.83 278.4c27.69 36.93 61.61 66.07 99.18 86.71v18.88H126.1l-1.406-4.25c-11.15-33.5-47.28-51.72-80.96-40.47c-33.53 11.19-51.65 47.44-40.46 80.96l15.1 48C28.02 494.4 52.46 512 80.02 512h415.1c27.56 0 51.99-17.62 60.71-43.75l15.1-48C583.9 386.7 565.8 350.5 532.2 339.3zM208 480H80.02c-13.78 0-25.1-8.811-30.34-21.87l-16-47.1c-5.592-16.78 3.469-34.91 20.22-40.47c16.91-5.592 34.87 3.469 40.47 20.22l8.717 26.12h51.12c8.312 0 16.62 1.969 24.06 5.686c18.34 9.156 29.75 27.59 29.75 48.13V480zM352 420.7c-9.969 14.15-16 30.95-16 49.09V480H240v-10.19c0-18.14-6.035-34.94-16-49.09v-15.38C224 384.8 240.8 368 261.3 368h53.31C335.3 368 352 384.8 352 405.3V420.7zM314.7 336H261.3c-34.19 0-62.49 24.9-68.15 57.5c-.2305-.1172-.3945-.3145-.627-.4297c-5.268-2.633-10.87-4.494-16.56-5.994V345.2c-40.25-18.46-76.66-47.44-105.6-86.03C59.8 245.1 62.68 225 76.83 214.4c14.12-10.62 34.19-7.779 44.78 6.406c39.65 52.87 96.43 83.19 155.7 83.19h21.31c59.31 0 116.1-30.31 155.7-83.19c10.59-14.15 30.65-16.97 44.78-6.406c14.15 10.59 17.03 30.66 6.404 44.78c-28.92 38.58-65.34 67.57-105.6 86.03v41.85c-5.688 1.5-11.29 3.361-16.56 5.994c-.2324 .1152-.3965 .3125-.627 .4297C377.1 360.9 348.8 336 314.7 336zM542.3 410.1l-16 47.1C521.1 471.2 509.8 480 495.1 480h-127.1v-10.19c0-20.53 11.41-38.97 29.75-48.13c7.438-3.717 15.75-5.686 24.06-5.686h51.12l8.717-26.12c5.594-16.75 23.53-25.81 40.47-20.22C538.9 375.2 547.9 393.3 542.3 410.1zM240 128C248.8 128 256 120.8 256 112C256 103.2 248.8 96 240 96S224 103.2 224 112C224 120.8 231.2 128 240 128zM336 128C344.8 128 352 120.8 352 112C352 103.2 344.8 96 336 96S320 103.2 320 112C320 120.8 327.2 128 336 128z"/></svg>