<svg xmlns="http://www.w3.org/2000/svg" viewBox="0 0 576 512"><!--! Font Awesome Pro 6.1.1 by @fontawesome - https://fontawesome.com License - https://fontawesome.com/license (Commercial License) Copyright 2022 Fonticons, Inc. --><path d="M570.8 84.16C574.1 87.19 576 91.49 576 96C576 100.5 574.1 104.8 570.8 107.8L482.8 187.8C476.2 193.8 466.1 193.3 460.2 186.8C454.2 180.2 454.7 170.1 461.2 164.2L518.6 112H57.39L114.8 164.2C121.3 170.1 121.8 180.2 115.8 186.8C109.9 193.3 99.78 193.8 93.24 187.8L5.237 107.8C1.901 104.8 0 100.5 0 96C0 91.49 1.902 87.19 5.237 84.16L93.24 4.161C99.78-1.783 109.9-1.301 115.8 5.237C121.8 11.78 121.3 21.89 114.8 27.84L57.39 80H518.6L461.2 27.84C454.7 21.9 454.2 11.78 460.2 5.237C466.1-1.301 476.2-1.783 482.8 4.161L570.8 84.16zM470.6 291C481.1 298.8 487.9 310.5 489.6 323.4L507.2 457.8C510.9 486.5 488.5 512 459.6 512H116.4C87.47 512 65.1 486.5 68.85 457.8L86.37 323.4C88.06 310.5 94.94 298.8 105.4 291L278.5 163.1C284.1 158.1 291.9 158.1 297.5 163.1L470.6 291zM272 207.7L124.5 316.8C120.1 319.4 118.7 323.3 118.1 327.6L100.6 461.9C99.33 471.5 106.8 480 116.4 480H272V320.3C271.1 320.1 271.1 319.9 272 319.8L272 207.7zM304 376.2V480H368.2L304 376.2zM405.6 479.6L405.9 480H459.6C469.2 480 476.7 471.5 475.4 461.9L457.9 327.6C457.3 323.3 455 319.4 451.5 316.8L304 207.7V315.4L405.6 479.6z"/></svg>