<svg xmlns="http://www.w3.org/2000/svg" viewBox="0 0 576 512"><!--! Font Awesome Pro 6.1.1 by @fontawesome - https://fontawesome.com License - https://fontawesome.com/license (Commercial License) Copyright 2022 Fonticons, Inc. --><path d="M278.9 2.829C284.4-.9429 291.6-.9429 297.1 2.829L517.3 154.7C528.5 162.5 535.1 174.7 537.7 188.2L571.4 458C574.1 486.7 552.6 512 523.8 512H52.25C23.38 512 1.039 486.7 4.62 458L38.34 188.2C40.04 174.7 47.46 162.5 58.72 154.7L278.9 2.829zM70.1 192.2L36.37 462C35.18 471.6 42.63 480 52.25 480H272V46.47L76.89 181C73.14 183.6 70.66 187.7 70.1 192.2H70.1zM304 288.4V480H405.4L304 288.4zM523.8 480C533.4 480 540.8 471.6 539.6 462L505.9 192.2C505.3 187.7 502.9 183.6 499.1 181L304 46.47V220L441.6 480H523.8z"/></svg>