<svg xmlns="http://www.w3.org/2000/svg" viewBox="0 0 576 512"><!--! Font Awesome Pro 6.1.1 by @fontawesome - https://fontawesome.com License - https://fontawesome.com/license (Commercial License) Copyright 2022 Fonticons, Inc. --><path d="M5.113 59.72C-1.363 53.71-1.737 43.59 4.276 37.11C10.29 30.64 20.41 30.26 26.89 36.28L250.9 244.3C254.1 247.3 256 251.6 256 256C256 260.4 254.1 264.7 250.9 267.7L26.89 475.7C20.41 481.7 10.29 481.4 4.276 474.9C-1.737 468.4-1.362 458.3 5.113 452.3L216.5 256L5.113 59.72zM560 448C568.8 448 576 455.2 576 464C576 472.8 568.8 480 560 480H240C231.2 480 224 472.8 224 464C224 455.2 231.2 448 240 448H560z"/></svg>