<svg xmlns="http://www.w3.org/2000/svg" viewBox="0 0 448 512"><!--! Font Awesome Pro 6.0.0-beta3 by @fontawesome - https://fontawesome.com License - https://fontawesome.com/license (Commercial License) Copyright 2021 Fonticons, Inc. --><path d="M448 48v64C448 120.8 440.8 128 432 128S416 120.8 416 112V64h-176v384h64C312.8 448 320 455.2 320 463.1c0 8.8-7.2 16.01-16 16.01h-160c-8.8 0-16-7.21-16-16.01C128 455.2 135.2 448 143.1 448H208V64H32v48C32 120.8 24.8 128 16 128S0 120.8 0 112V48C0 39.16 7.163 32 16 32h416C440.8 32 448 39.16 448 48z"/></svg>