<svg xmlns="http://www.w3.org/2000/svg" viewBox="0 0 448 512"><!--! Font Awesome Pro 6.1.1 by @fontawesome - https://fontawesome.com License - https://fontawesome.com/license (Commercial License) Copyright 2022 Fonticons, Inc. --><path d="M432 32h-416C7.156 32 0 39.16 0 48v80.01C0 136.9 7.156 144 16 144S32 136.8 32 128V64h176v192H160C151.2 256 144 263.2 144 272S151.2 288 160 288h128c8.844 0 16-7.156 16-16S296.8 256 288 256h-48V64H416v64c0 8.844 7.156 16 16 16S448 136.9 448 128V48C448 39.16 440.8 32 432 32zM363.3 292.7c-6.25-6.25-16.38-6.25-22.62 0s-6.25 16.38 0 22.62L393.4 368H54.63l52.69-52.69c6.25-6.25 6.25-16.38 0-22.62s-16.38-6.25-22.62 0l-80 80c-6.25 6.25-6.25 16.38 0 22.62l80 80C87.81 478.4 91.91 480 96 480s8.188-1.57 11.31-4.695c6.25-6.25 6.25-16.38 0-22.62L54.63 400h338.8l-52.69 52.69c-6.25 6.25-6.25 16.38 0 22.62C343.8 478.4 347.9 480 352 480s8.188-1.57 11.31-4.695l80-80c6.25-6.25 6.25-16.38 0-22.62L363.3 292.7z"/></svg>