<svg xmlns="http://www.w3.org/2000/svg" viewBox="0 0 640 512"><!--! Font Awesome Pro 6.0.0-beta3 by @fontawesome - https://fontawesome.com License - https://fontawesome.com/license (Commercial License) Copyright 2021 Fonticons, Inc. --><path d="M512 112C512 120.8 504.8 128 496 128C487.2 128 480 120.8 480 112C480 103.2 487.2 96 496 96C504.8 96 512 103.2 512 112zM512 176C512 184.8 504.8 192 496 192C487.2 192 480 184.8 480 176C480 167.2 487.2 160 496 160C504.8 160 512 167.2 512 176zM480 240C480 231.2 487.2 224 496 224C504.8 224 512 231.2 512 240C512 248.8 504.8 256 496 256C487.2 256 480 248.8 480 240zM512 304C512 312.8 504.8 320 496 320C487.2 320 480 312.8 480 304C480 295.2 487.2 288 496 288C504.8 288 512 295.2 512 304zM295.1 96C310.2 96 323.4 103.6 330.5 115.8L356.3 160H388.7C408.1 160 428.4 168.1 442.8 182.4C456.9 196.5 456.9 219.5 442.8 233.6C428.4 247.9 408.1 255.1 388.7 255.1H356.3L330.5 300.2C323.4 312.4 310.2 319.1 295.1 319.1H264.9C248.5 319.1 236.9 303.1 242.1 288.4L252.9 255.1H236.4L229.8 262.6C223.8 268.6 215.6 271.1 207.1 271.1H184.9C168.5 271.1 156.9 255.1 162.1 240.4L172.9 207.1L162.1 175.6C156.9 160 168.5 143.1 184.9 143.1H207.1C215.6 143.1 223.8 147.4 229.8 153.4L236.4 159.1H252.9L242.1 127.6C236.9 112 248.5 95.1 264.9 95.1L295.1 96zM297.3 192H223.1L207.1 176H195.1L203.2 197.9C205.4 204.4 205.4 211.6 203.2 218.1L195.1 240H207.1L223.1 224H297.3L275.1 288H295.1C298.8 288 301.4 286.5 302.9 284L337.9 224H388.7C400.5 224 411.8 219.3 420.2 210.1C421.8 209.3 421.8 206.7 420.2 205C411.8 196.7 400.5 192 388.7 192H337.9L302.9 131.1C301.4 129.5 298.8 128 295.1 128H275.1L297.3 192zM640 96V168C617.9 168 600 185.9 600 208C600 230.1 617.9 248 640 248V320C640 355.3 611.3 384 576 384H160C124.7 384 96 355.3 96 320V96C96 60.65 124.7 32 160 32H576C611.3 32 640 60.65 640 96zM128 320C128 337.7 142.3 352 160 352H576C593.7 352 608 337.7 608 320V272.5C584.3 260.7 568 236.3 568 208C568 179.7 584.3 155.3 608 143.5V96C608 78.33 593.7 64 576 64H160C142.3 64 128 78.33 128 96V320zM16 96C24.84 96 32 103.2 32 112V368C32 412.2 67.82 448 112 448H528C536.8 448 544 455.2 544 464C544 472.8 536.8 480 528 480H112C50.14 480 0 429.9 0 368V112C0 103.2 7.164 96 16 96zM316.7 123.9L330.5 115.8z"/></svg>