<svg xmlns="http://www.w3.org/2000/svg" viewBox="0 0 512 512"><!--! Font Awesome Pro 6.0.0-beta3 by @fontawesome - https://fontawesome.com License - https://fontawesome.com/license (Commercial License) Copyright 2021 Fonticons, Inc. --><path d="M96 256C96 167.6 167.6 96 256 96C344.4 96 416 167.6 416 256C416 344.4 344.4 416 256 416C167.6 416 96 344.4 96 256zM381.7 280.2C383.2 272.3 384 264.3 384 256C384 219.2 368.5 186.1 343.7 162.7L305.5 215.4C314.5 226.4 320 240.6 320 256C320 257.4 319.1 258.7 319.9 260L381.7 280.2zM309.9 290.4C301.3 303.9 287.8 313.9 271.9 317.1L271.1 383C316.2 377.5 353.5 349.4 371.8 310.6L309.9 290.4zM239.1 383L239.9 317.1C224.1 313.9 210.6 303.9 202.1 290.4L140.2 310.6C158.5 349.4 195.7 377.5 239.1 383V383zM192.1 260C192 258.7 192 257.4 192 256C192 240.6 197.5 226.4 206.5 215.4L168.3 162.7C143.5 186.1 128 219.2 128 255.1C128 264.3 128.8 272.3 130.3 280.2L192.1 260zM232.4 196.5C239.7 193.6 247.7 192 256 192C264.3 192 272.3 193.6 279.6 196.5L317.8 143.9C299.5 133.8 278.4 128 256 128C233.6 128 212.5 133.8 194.2 143.9L232.4 196.5zM256 224C238.3 224 224 238.3 224 256C224 273.7 238.3 288 256 288C273.7 288 288 273.7 288 256C288 238.3 273.7 224 256 224zM512 256C512 397.4 397.4 512 256 512C114.6 512 0 397.4 0 256C0 114.6 114.6 0 256 0C397.4 0 512 114.6 512 256zM256 32C132.3 32 32 132.3 32 256C32 379.7 132.3 480 256 480C379.7 480 480 379.7 480 256C480 132.3 379.7 32 256 32z"/></svg>