<svg xmlns="http://www.w3.org/2000/svg" viewBox="0 0 576 512"><!--! Font Awesome Pro 6.0.0-beta3 by @fontawesome - https://fontawesome.com License - https://fontawesome.com/license (Commercial License) Copyright 2021 Fonticons, Inc. --><path d="M416 96H160C71.63 96 0 167.6 0 256S71.63 416 160 416h256c88.37 0 160-71.63 160-159.1S504.4 96 416 96zM416 384H160c-70.58 0-128-57.42-128-128s57.42-128 128-128h256c70.58 0 128 57.42 128 128S486.6 384 416 384zM416 160c-53.02 0-96 42.98-96 96s42.98 96 96 96s96-42.98 96-96S469 160 416 160zM416 320c-35.29 0-64-28.71-64-64s28.71-64 64-64s64 28.71 64 64S451.3 320 416 320zM416 224c-17.67 0-32 14.33-32 32s14.33 32 32 32s32-14.33 32-32S433.7 224 416 224z"/></svg>