<svg xmlns="http://www.w3.org/2000/svg" viewBox="0 0 576 512"><!--! Font Awesome Pro 6.1.1 by @fontawesome - https://fontawesome.com License - https://fontawesome.com/license (Commercial License) Copyright 2022 Fonticons, Inc. --><path d="M256 496C256 504.8 248.8 512 240 512C231.2 512 224 504.8 224 496V480H32V496C32 504.8 24.84 512 16 512C7.164 512 0 504.8 0 496V64C0 28.65 28.65 0 64 0H192C227.3 0 256 28.65 256 64V496zM64 32C46.33 32 32 46.33 32 64V96H224V64C224 46.33 209.7 32 192 32H64zM224 448V336H200C177.9 336 160 318.1 160 296V248C160 225.9 177.9 208 200 208H224V128H32V448H224zM224 240H200C195.6 240 192 243.6 192 248V296C192 300.4 195.6 304 200 304H224V240zM576 496C576 504.8 568.8 512 560 512C551.2 512 544 504.8 544 496V480H352V496C352 504.8 344.8 512 336 512C327.2 512 320 504.8 320 496V64C320 28.65 348.7 0 384 0H512C547.3 0 576 28.65 576 64V496zM384 32C366.3 32 352 46.33 352 64V96H544V64C544 46.33 529.7 32 512 32H384zM544 448V336H520C497.9 336 480 318.1 480 296V248C480 225.9 497.9 208 520 208H544V128H352V448H544zM544 240H520C515.6 240 512 243.6 512 248V296C512 300.4 515.6 304 520 304H544V240z"/></svg>