<svg xmlns="http://www.w3.org/2000/svg" viewBox="0 0 448 512"><!--! Font Awesome Pro 6.1.1 by @fontawesome - https://fontawesome.com License - https://fontawesome.com/license (Commercial License) Copyright 2022 Fonticons, Inc. --><path d="M48 448C56.84 448 64 440.8 64 432V192c0-88.22 71.78-160 160-160s160 71.78 160 160v240c0 8.844 7.156 16 16 16s16-7.156 16-16l-.0012-240c0-105.9-86.13-191.1-192-191.1S31.1 86.13 31.1 192L32 432C32 440.8 39.16 448 48 448zM432 480h-416C7.164 480 0 487.2 0 496c0 8.836 7.164 16 16 16h416c8.836 0 16-7.164 16-16C448 487.2 440.8 480 432 480z"/></svg>