<svg xmlns="http://www.w3.org/2000/svg" viewBox="0 0 640 512"><!--! Font Awesome Pro 6.1.1 by @fontawesome - https://fontawesome.com License - https://fontawesome.com/license (Commercial License) Copyright 2022 Fonticons, Inc. --><path d="M278.4 320C278.4 367.7 239.7 406.4 192 406.4C144.3 406.4 105.6 367.7 105.6 320C105.6 272.3 144.3 233.6 192 233.6C239.7 233.6 278.4 272.3 278.4 320V320zM192 374.4C222 374.4 246.4 350 246.4 320C246.4 289.1 222 265.6 192 265.6C161.1 265.6 137.6 289.1 137.6 320C137.6 350 161.1 374.4 192 374.4zM95.1 157.3V48C95.1 21.49 117.5 0 143.1 0H275.3C294.2 0 311.3 11.08 319.1 28.3L378.3 160H480V119.8C480 90.06 491.8 61.57 512.8 40.57L516.7 36.69C522.9 30.44 533.1 30.44 539.3 36.69C545.6 42.93 545.6 53.07 539.3 59.31L535.4 63.2C520.4 78.2 512 98.55 512 119.8V160H600.1C622.2 160 640 177.1 640 200V260.5C640 272.6 634.5 284.1 624.1 291.7L567.1 337.1C555.8 347.1 541.7 352 527.2 352H382.2C377.8 367.9 365.4 380.5 349.3 385.2C359.5 403.6 356.6 426.1 341.2 442.3L314.3 469.2C298.1 484.6 275.6 487.5 257.2 477.3C251.3 497.5 232.7 512 211 512H172.1C151.3 512 132.7 497.5 126.8 477.3C108.4 487.5 85.05 484.6 69.7 469.2L42.77 442.3C27.42 426.1 24.51 403.6 34.68 385.2C14.48 379.3 0 360.7 0 339V300.1C0 279.3 14.48 260.7 34.69 254.8C24.51 236.4 27.42 213 42.77 197.7L69.7 170.8C77.09 163.4 86.34 158.9 96 157.3L95.1 157.3zM127.1 159.2C134.9 140.8 152.5 128 172.1 128H211C232.7 128 251.3 142.5 257.2 162.7C269.8 155.7 284.7 154.9 297.8 160H343.3L289.9 41.43C287.3 35.69 281.6 32 275.3 32H143.1C135.2 32 127.1 39.16 127.1 48V159.2zM384 320H527.2C534.4 320 541.5 317.5 547.2 312.1L604.1 266.7C606.9 265.2 608 262.9 608 260.5V200C608 195.5 604.4 192 600.1 192H368.4C368.1 192 367.9 192 367.7 192H335.5L341.2 197.7C356.6 213 359.5 236.4 349.3 254.8C369.5 260.7 384 279.3 384 300.1L384 320zM154.8 197.1L145.6 200.7C143.9 201.3 142.1 202.1 140.4 202.8L131.4 206.8L113.8 192.3C107.4 187.1 98.14 187.6 92.33 193.4L65.4 220.3C59.59 226.1 59.12 235.4 64.33 241.8L78.78 259.4L74.82 268.4C74.06 270.1 73.34 271.9 72.65 273.6L69.1 282.8L46.41 285C38.23 285.9 31.1 292.7 31.1 300.1V339C31.1 347.3 38.23 354.1 46.41 354.1L69.1 357.2L72.65 366.4C73.34 368.1 74.06 369.9 74.81 371.6L78.78 380.6L64.33 398.2C59.12 404.6 59.59 413.9 65.4 419.7L92.33 446.6C98.14 452.4 107.4 452.9 113.8 447.7L131.4 433.2L140.4 437.2C142.1 437.9 143.9 438.7 145.6 439.3L154.8 442.9L157 465.6C157.9 473.8 164.7 480 172.1 480H211C219.3 480 226.1 473.8 226.1 465.6L229.2 442.9L238.4 439.3C240.1 438.7 241.9 437.9 243.6 437.2L252.6 433.2L270.2 447.7C276.6 452.9 285.9 452.4 291.7 446.6L318.6 419.7C324.4 413.9 324.9 404.6 319.7 398.2L305.2 380.6L309.2 371.6C309.9 369.9 310.7 368.1 311.3 366.4L314.9 357.2L337.6 354.1C345.8 354.1 352 347.3 352 339V300.1C352 292.7 345.8 285.9 337.6 285L314.9 282.8L311.3 273.6C310.7 271.9 309.9 270.1 309.2 268.4L305.2 259.4L319.7 241.8C324.9 235.4 324.4 226.1 318.6 220.3L291.7 193.4C285.9 187.6 276.6 187.1 270.2 192.3L252.6 206.8L243.6 202.8C241.9 202.1 240.1 201.3 238.4 200.7L229.2 197.1L226.1 174.4C226.1 166.2 219.3 159.1 211 159.1H172.1C164.7 159.1 157.9 166.2 157 174.4L154.8 197.1zM448 448C448 412.7 476.7 384 512 384C547.3 384 576 412.7 576 448C576 483.3 547.3 512 512 512C476.7 512 448 483.3 448 448zM512 480C529.7 480 544 465.7 544 448C544 430.3 529.7 416 512 416C494.3 416 480 430.3 480 448C480 465.7 494.3 480 512 480zM53.81 431.3L42.77 442.3z"/></svg>