<svg xmlns="http://www.w3.org/2000/svg" viewBox="0 0 320 512"><!--! Font Awesome Pro 6.0.0-beta3 by @fontawesome - https://fontawesome.com License - https://fontawesome.com/license (Commercial License) Copyright 2021 Fonticons, Inc. --><path d="M216 392C216 422.9 190.9 448 160 448C129.1 448 104 422.9 104 392C104 361.1 129.1 336 160 336C190.9 336 216 361.1 216 392zM216 256C216 286.9 190.9 312 160 312C129.1 312 104 286.9 104 256C104 225.1 129.1 200 160 200C190.9 200 216 225.1 216 256zM160 232C146.7 232 136 242.7 136 256C136 269.3 146.7 280 160 280C173.3 280 184 269.3 184 256C184 242.7 173.3 232 160 232zM104 120C104 89.07 129.1 64 160 64C190.9 64 216 89.07 216 120C216 150.9 190.9 176 160 176C129.1 176 104 150.9 104 120zM160 144C173.3 144 184 133.3 184 120C184 106.7 173.3 96 160 96C146.7 96 136 106.7 136 120C136 133.3 146.7 144 160 144zM0 64C0 28.65 28.65 0 64 0H256C291.3 0 320 28.65 320 64V352C320 440.4 248.4 512 160 512C71.63 512 0 440.4 0 352V64zM32 64V352C32 422.7 89.31 480 160 480C230.7 480 288 422.7 288 352V64C288 46.33 273.7 32 256 32H64C46.33 32 32 46.33 32 64z"/></svg>