<svg xmlns="http://www.w3.org/2000/svg" viewBox="0 0 320 512"><!--! Font Awesome Pro 6.1.1 by @fontawesome - https://fontawesome.com License - https://fontawesome.com/license (Commercial License) Copyright 2022 Fonticons, Inc. --><path d="M104 392C104 361.1 129.1 336 160 336C190.9 336 216 361.1 216 392C216 422.9 190.9 448 160 448C129.1 448 104 422.9 104 392zM160 416C173.3 416 184 405.3 184 392C184 378.7 173.3 368 160 368C146.7 368 136 378.7 136 392C136 405.3 146.7 416 160 416zM216 256C216 286.9 190.9 312 160 312C129.1 312 104 286.9 104 256C104 225.1 129.1 200 160 200C190.9 200 216 225.1 216 256zM160 232C146.7 232 136 242.7 136 256C136 269.3 146.7 280 160 280C173.3 280 184 269.3 184 256C184 242.7 173.3 232 160 232zM216 120C216 150.9 190.9 176 160 176C129.1 176 104 150.9 104 120C104 89.07 129.1 64 160 64C190.9 64 216 89.07 216 120zM0 64C0 28.65 28.65 0 64 0H256C291.3 0 320 28.65 320 64V352C320 440.4 248.4 512 160 512C71.63 512 0 440.4 0 352V64zM32 64V352C32 422.7 89.31 480 160 480C230.7 480 288 422.7 288 352V64C288 46.33 273.7 32 256 32H64C46.33 32 32 46.33 32 64z"/></svg>