<svg xmlns="http://www.w3.org/2000/svg" viewBox="0 0 640 512"><!--! Font Awesome Pro 6.1.1 by @fontawesome - https://fontawesome.com License - https://fontawesome.com/license (Commercial License) Copyright 2022 Fonticons, Inc. --><path d="M112 96C120.8 96 128 103.2 128 112V240C128 248.8 120.8 256 112 256C103.2 256 96 248.8 96 240V112C96 103.2 103.2 96 112 96zM208 96C216.8 96 224 103.2 224 112V240C224 248.8 216.8 256 208 256C199.2 256 192 248.8 192 240V112C192 103.2 199.2 96 208 96zM304 96C312.8 96 320 103.2 320 112V272C320 280.8 312.8 288 304 288C295.2 288 288 280.8 288 272V112C288 103.2 295.2 96 304 96zM400 96C408.8 96 416 103.2 416 112V272C416 280.8 408.8 288 400 288C391.2 288 384 280.8 384 272V112C384 103.2 391.2 96 400 96zM192 480C138.1 480 96 437 96 384H56C25.07 384 0 358.9 0 328V88C0 57.07 25.07 32 56 32H456C486.9 32 512 57.07 512 88V352H616C624.8 352 632 359.2 632 368C632 376.8 624.8 384 616 384H288C288 437 245 480 192 480zM56 64C42.75 64 32 74.75 32 88V328C32 341.3 42.75 352 56 352H101.5C114.6 314.7 150.2 288 192 288C233.8 288 269.4 314.7 282.5 352H480V88C480 74.75 469.3 64 456 64H56zM128 384C128 419.3 156.7 448 192 448C227.3 448 256 419.3 256 384C256 348.7 227.3 320 192 320C156.7 320 128 348.7 128 384z"/></svg>