<svg xmlns="http://www.w3.org/2000/svg" viewBox="0 0 512 512"><!--! Font Awesome Pro 6.1.1 by @fontawesome - https://fontawesome.com License - https://fontawesome.com/license (Commercial License) Copyright 2022 Fonticons, Inc. --><path d="M32 496C32 504.8 24.84 512 16 512C7.164 512 0 504.8 0 496V256C0 114.6 114.6 0 256 0C397.4 0 512 114.6 512 256V496C512 504.8 504.8 512 496 512C487.2 512 480 504.8 480 496V256C480 132.3 379.7 32 256 32C132.3 32 32 132.3 32 256V496zM176 360C176 346.7 186.7 336 200 336C213.3 336 224 346.7 224 360C224 373.3 213.3 384 200 384C186.7 384 176 373.3 176 360zM336 360C336 373.3 325.3 384 312 384C298.7 384 288 373.3 288 360C288 346.7 298.7 336 312 336C325.3 336 336 346.7 336 360zM320 128C364.2 128 400 163.8 400 208V368C400 400.8 380.2 429 351.1 441.4L395.3 484.7C401.6 490.9 401.6 501.1 395.3 507.3C389.1 513.6 378.9 513.6 372.7 507.3L313.4 448H198.6L139.3 507.3C133.1 513.6 122.9 513.6 116.7 507.3C110.4 501.1 110.4 490.9 116.7 484.7L160 441.4C131.8 429 112 400.8 112 368V208C112 163.8 147.8 128 192 128H320zM320 160H272V256H368V208C368 181.5 346.5 160 320 160zM144 288V368C144 394.5 165.5 416 192 416H320C346.5 416 368 394.5 368 368V288H144zM240 160H192C165.5 160 144 181.5 144 208V256H240V160z"/></svg>