<svg xmlns="http://www.w3.org/2000/svg" viewBox="0 0 576 512"><!--! Font Awesome Pro 6.0.0-beta3 by @fontawesome - https://fontawesome.com License - https://fontawesome.com/license (Commercial License) Copyright 2021 Fonticons, Inc. --><path d="M192.3 96H383.7L368.9 53.23C365.1 44.88 370.4 35.77 378.8 32.88C387.1 29.99 396.2 34.42 399.1 42.77L417.5 96H464C472.8 96 480 103.2 480 112C480 120.8 472.8 128 464 128H428.6L461.9 224H504C512.8 224 520 231.2 520 240C520 248.8 512.8 256 504 256H472.9L506.2 352H544C552.8 352 560 359.2 560 368C560 376.8 552.8 384 544 384H517.2L543.1 458.8C546 467.1 541.6 476.2 533.2 479.1C524.9 482 515.8 477.6 512.9 469.2L483.4 384H92.62L63.12 469.2C60.23 477.6 51.12 482 42.77 479.1C34.42 476.2 29.99 467.1 32.88 458.8L58.76 384H32C23.16 384 16 376.8 16 368C16 359.2 23.16 352 32 352H69.84L103.1 256H72C63.16 256 56 248.8 56 240C56 231.2 63.16 224 72 224H114.1L147.4 128H112C103.2 128 96 120.8 96 112C96 103.2 103.2 96 112 96H158.5L176.9 42.77C179.8 34.42 188.9 29.99 197.2 32.88C205.6 35.77 210 44.88 207.1 53.23L192.3 96zM181.2 128L148 224H427.1L394.8 128H181.2zM439.1 256H136.9L103.7 352H472.3L439.1 256z"/></svg>