<svg xmlns="http://www.w3.org/2000/svg" viewBox="0 0 512 512"><!--! Font Awesome Pro 6.1.1 by @fontawesome - https://fontawesome.com License - https://fontawesome.com/license (Commercial License) Copyright 2022 Fonticons, Inc. --><path d="M176 160h160C344.8 160 352 152.8 352 144S344.8 128 336 128h-160C167.2 128 160 135.2 160 144S167.2 160 176 160zM224 32h64c8.844 0 16-7.156 16-16S296.8 0 288 0H224C215.2 0 208 7.156 208 16S215.2 32 224 32zM80 160H64V144C64 135.2 56.84 128 48 128S32 135.2 32 144V160H16C7.156 160 0 167.2 0 176S7.156 192 16 192H32v16C32 216.8 39.16 224 48 224S64 216.8 64 208V192h16C88.84 192 96 184.8 96 176S88.84 160 80 160zM336 416c8.844 0 16-7.156 16-16S344.8 384 336 384h-160C167.2 384 160 391.2 160 400S167.2 416 176 416H336zM400 256h-288C103.2 256 96 263.2 96 272S103.2 288 112 288h288C408.8 288 416 280.8 416 272S408.8 256 400 256zM496 32H480V16C480 7.156 472.8 0 464 0S448 7.156 448 16V32h-16C423.2 32 416 39.16 416 48S423.2 64 432 64H448v16C448 88.84 455.2 96 464 96S480 88.84 480 80V64h16C504.8 64 512 56.84 512 48S504.8 32 496 32zM368 448h-224C117.5 448 96 469.5 96 496C96 504.8 103.2 512 112 512S128 504.8 128 496C128 487.2 135.2 480 144 480h224c8.828 0 16 7.172 16 16c0 8.844 7.156 16 16 16s16-7.156 16-16C416 469.5 394.5 448 368 448z"/></svg>