<svg xmlns="http://www.w3.org/2000/svg" viewBox="0 0 512 512"><!--! Font Awesome Pro 6.1.1 by @fontawesome - https://fontawesome.com License - https://fontawesome.com/license (Commercial License) Copyright 2022 Fonticons, Inc. --><path d="M510.8 9.891c-1.621-3.918-4.742-7.039-8.66-8.66C500.2 .4219 498.1 0 496 0L384 0c-8.844 0-16 7.156-16 16S375.2 32 384 32h73.38l-82.02 82.02C344.9 83.19 302.7 64 256 64S167.1 83.19 136.6 114L118.6 96l12.69-12.69c6.25-6.25 6.25-16.38 0-22.62s-16.38-6.25-22.62 0L96 73.38L54.63 32H128c8.844 0 16-7.156 16-16S136.8 .001 128 .001L16 0C13.92 0 11.85 .4219 9.891 1.23C5.973 2.852 2.852 5.973 1.23 9.891C.4219 11.85 0 13.92 0 16v112C0 136.8 7.156 144 16 144S32 136.8 32 128V54.63L73.38 96L60.69 108.7c-6.25 6.25-6.25 16.38 0 22.62C63.81 134.4 67.91 136 72 136s8.188-1.562 11.31-4.688L96 118.6l20.3 20.3C98.48 165.6 88 197.6 88 232c0 87.15 66.96 158.2 152 166.4V432H192c-8.844 0-16 7.156-16 16s7.156 16 16 16L240 464v32c0 8.844 7.156 16 16 16s16-7.156 16-16v-32l48 .0002c8.844 0 16-7.156 16-16s-7.156-16-16-16h-48v-33.62C357 390.2 424 319.1 424 232c0-34.41-10.48-66.4-28.3-93.07L480 54.63V128c0 8.844 7.156 16 16 16S512 136.8 512 127.9V16C512 13.92 511.6 11.85 510.8 9.891zM256 368c-75 0-136-61-136-136S181 96 256 96S392 157 392 232S331 368 256 368z"/></svg>