<svg xmlns="http://www.w3.org/2000/svg" viewBox="0 0 512 512"><!--! Font Awesome Pro 6.1.1 by @fontawesome - https://fontawesome.com License - https://fontawesome.com/license (Commercial License) Copyright 2022 Fonticons, Inc. --><path d="M124.3 282.3l51.22-61.47C180.3 215 185.1 210.4 192 206.3V272C192 280.8 199.2 288 208 288S224 280.8 224 272V193.4C228.3 192.7 232.6 192 236.1 192h38.06C279.4 192 283.7 192.7 288 193.4V272C288 280.8 295.2 288 304 288S320 280.8 320 272V206.3c6.023 4.125 11.7 8.791 16.48 14.54l51.22 61.45C390.9 286 395.4 288 400 288c3.609 0 7.234-1.219 10.23-3.703c6.781-5.656 7.703-15.75 2.047-22.55l-51.22-61.44C339.7 174.7 308.4 160 275 160H236.1C203.6 160 172.3 174.7 150.9 200.3L99.7 261.8c-5.656 6.797-4.734 16.89 2.047 22.55C108.6 289.9 118.6 289 124.3 282.3zM336 320h-160C167.2 320 160 327.2 160 336S167.2 352 176 352h160c8.844 0 16-7.156 16-16S344.8 320 336 320zM496 160H480V144C480 135.2 472.8 128 464 128S448 135.2 448 144V160h-16C423.2 160 416 167.2 416 176S423.2 192 432 192H448v16C448 216.8 455.2 224 464 224S480 216.8 480 208V192h16C504.8 192 512 184.8 512 176S504.8 160 496 160zM256 128c35.35 0 64-28.65 64-64c0-35.35-28.65-64-64-64C220.7 0 192 28.65 192 64C192 99.35 220.7 128 256 128zM256 32c17.64 0 32 14.36 32 32s-14.36 32-32 32S224 81.64 224 64S238.4 32 256 32zM368 448h-224C117.5 448 96 469.5 96 496C96 504.8 103.2 512 112 512S128 504.8 128 496C128 487.2 135.2 480 144 480h224c8.828 0 16 7.172 16 16c0 8.844 7.156 16 16 16s16-7.156 16-16C416 469.5 394.5 448 368 448zM336 384h-160C167.2 384 160 391.2 160 400S167.2 416 176 416h160c8.844 0 16-7.156 16-16S344.8 384 336 384zM80 352H64v-16C64 327.2 56.84 320 48 320S32 327.2 32 336V352H16C7.156 352 0 359.2 0 368S7.156 384 16 384H32v16C32 408.8 39.16 416 48 416S64 408.8 64 400V384h16C88.84 384 96 376.8 96 368S88.84 352 80 352z"/></svg>