<svg xmlns="http://www.w3.org/2000/svg" viewBox="0 0 512 512"><!--! Font Awesome Pro 6.1.1 by @fontawesome - https://fontawesome.com License - https://fontawesome.com/license (Commercial License) Copyright 2022 Fonticons, Inc. --><path d="M144 224h224C376.8 224 384 216.8 384 208S376.8 192 368 192h-224C135.2 192 128 199.2 128 208S135.2 224 144 224zM176 160h160C344.8 160 352 152.8 352 144S344.8 128 336 128h-160C167.2 128 160 135.2 160 144S167.2 160 176 160zM80 384H64v-16C64 359.2 56.84 352 48 352S32 359.2 32 368V384H16C7.156 384 0 391.2 0 400S7.156 416 16 416H32v16C32 440.8 39.16 448 48 448S64 440.8 64 432V416h16C88.84 416 96 408.8 96 400S88.84 384 80 384zM224 96h64c8.844 0 16-7.156 16-16S296.8 64 288 64H224C215.2 64 208 71.16 208 80S215.2 96 224 96zM224 32h64c8.844 0 16-7.156 16-16S296.8 0 288 0H224C215.2 0 208 7.156 208 16S215.2 32 224 32zM368 448h-224C117.5 448 96 469.5 96 496C96 504.8 103.2 512 112 512S128 504.8 128 496C128 487.2 135.2 480 144 480h224c8.828 0 16 7.172 16 16c0 8.844 7.156 16 16 16s16-7.156 16-16C416 469.5 394.5 448 368 448zM496 160H480V144C480 135.2 472.8 128 464 128S448 135.2 448 144V160h-16C423.2 160 416 167.2 416 176S423.2 192 432 192H448v16C448 216.8 455.2 224 464 224S480 216.8 480 208V192h16C504.8 192 512 184.8 512 176S504.8 160 496 160zM400 256h-288C103.2 256 96 263.2 96 272S103.2 288 112 288h288C408.8 288 416 280.8 416 272S408.8 256 400 256zM176 416h160c8.844 0 16-7.156 16-16S344.8 384 336 384h-160C167.2 384 160 391.2 160 400S167.2 416 176 416zM176 352h160c8.844 0 16-7.156 16-16S344.8 320 336 320h-160C167.2 320 160 327.2 160 336S167.2 352 176 352z"/></svg>