<svg xmlns="http://www.w3.org/2000/svg" viewBox="0 0 448 512"><!--! Font Awesome Pro 6.1.1 by @fontawesome - https://fontawesome.com License - https://fontawesome.com/license (Commercial License) Copyright 2022 Fonticons, Inc. --><path d="M219.9 189.3C225.8 195.9 225.3 205.1 218.7 211.9L169.7 256H240C284.2 256 320 291.8 320 336V376C320 384.8 312.8 392 304 392C295.2 392 288 384.8 288 376V336C288 309.5 266.5 288 240 288H169.7L218.7 332.1C225.3 338 225.8 348.1 219.9 354.7C213.1 361.3 203.9 361.8 197.3 355.9L117.3 283.9C113.9 280.9 112 276.5 112 271.1C112 267.5 113.9 263.1 117.3 260.1L197.3 188.1C203.9 182.2 213.1 182.7 219.9 189.3V189.3zM310.1 22.56L336.9 64H432C440.8 64 448 71.16 448 80C448 88.84 440.8 96 432 96H416V432C416 476.2 380.2 512 336 512H112C67.82 512 32 476.2 32 432V96H16C7.164 96 0 88.84 0 80C0 71.16 7.164 64 16 64H111.1L137 22.56C145.8 8.526 161.2 0 177.7 0H270.3C286.8 0 302.2 8.526 310.1 22.56V22.56zM148.9 64H299.1L283.8 39.52C280.9 34.84 275.8 32 270.3 32H177.7C172.2 32 167.1 34.84 164.2 39.52L148.9 64zM64 432C64 458.5 85.49 480 112 480H336C362.5 480 384 458.5 384 432V96H64V432z"/></svg>