<svg xmlns="http://www.w3.org/2000/svg" viewBox="0 0 640 512"><!--! Font Awesome Pro 6.1.1 by @fontawesome - https://fontawesome.com License - https://fontawesome.com/license (Commercial License) Copyright 2022 Fonticons, Inc. --><path d="M509.7 96L494.3 312.1L463.9 288.1L477.6 96H220.6L180.1 64H207.1L233 22.56C241.8 8.526 257.2 0 273.7 0H366.3C382.8 0 398.2 8.526 406.1 22.56L432.9 64H528C536.8 64 544 71.16 544 80C544 88.84 536.8 96 528 96L509.7 96zM273.7 32C268.2 32 263.1 34.84 260.2 39.52L244.9 64H395.1L379.8 39.52C376.9 34.84 371.8 32 366.3 32H273.7zM452.9 442.5L481.1 465.4C474.4 492.5 449.5 512 420.4 512H219.6C186 512 158.1 486.1 155.8 452.6L137.2 193.3L171.2 220.1L187.7 450.3C188.9 467 202.8 480 219.6 480H420.4C437.2 480 451.1 467 452.3 450.3L452.9 442.5zM633.9 483.4C640.9 488.9 642 498.1 636.6 505.9C631.1 512.9 621 514 614.1 508.6L6.086 28.56C-.8493 23.08-2.033 13.02 3.443 6.087C8.918-.8486 18.98-2.032 25.91 3.443L633.9 483.4z"/></svg>