<svg xmlns="http://www.w3.org/2000/svg" viewBox="0 0 640 512"><!--! Font Awesome Pro 6.1.1 by @fontawesome - https://fontawesome.com License - https://fontawesome.com/license (Commercial License) Copyright 2022 Fonticons, Inc. --><path d="M278.1 22.56L304.9 64H400C408.8 64 416 71.16 416 80C416 88.84 408.8 96 400 96H381.7L356.2 452.6C353.9 486.1 325.1 512 292.4 512H123.6C90.01 512 62.15 486.1 59.75 452.6L34.29 96H16C7.164 96 0 88.84 0 80C0 71.16 7.164 64 16 64H111.1L137 22.56C145.8 8.526 161.2 0 177.7 0H238.3C254.8 0 270.2 8.526 278.1 22.56V22.56zM148.9 64H267.1L251.8 39.52C248.9 34.84 243.8 32 238.3 32H177.7C172.2 32 167.1 34.84 164.2 39.52L148.9 64zM91.67 450.3C92.87 467 106.8 480 123.6 480H292.4C309.2 480 323.1 467 324.3 450.3L349.6 96H66.37L91.67 450.3zM624 128C632.8 128 640 135.2 640 144C640 152.8 632.8 160 624 160H464C455.2 160 448 152.8 448 144C448 135.2 455.2 128 464 128H624zM592 256C600.8 256 608 263.2 608 272C608 280.8 600.8 288 592 288H464C455.2 288 448 280.8 448 272C448 263.2 455.2 256 464 256H592zM448 400C448 391.2 455.2 384 464 384H528C536.8 384 544 391.2 544 400C544 408.8 536.8 416 528 416H464C455.2 416 448 408.8 448 400z"/></svg>