<svg xmlns="http://www.w3.org/2000/svg" viewBox="0 0 448 512"><!--! Font Awesome Pro 6.0.0-beta3 by @fontawesome - https://fontawesome.com License - https://fontawesome.com/license (Commercial License) Copyright 2021 Fonticons, Inc. --><path d="M223.1 192C215.2 192 207.1 199.2 207.1 207.1V272h-64C135.2 272 127.1 279.2 127.1 288c0 8.834 7.155 15.1 15.1 15.1h64v64C207.1 376.8 215.2 384 223.1 384c8.836 0 15.1-7.16 15.1-15.1V303.1h64c8.84 0 16-7.16 16-15.1s-7.161-15.1-16-15.1h-64V207.1C239.1 199.2 232.8 192 223.1 192zM400 128C391.2 128 384 135.2 384 144v288c0 26.47-21.53 48-48 48h-224C85.53 480 64 458.5 64 432v-288C64 135.2 56.84 128 48 128S32 135.2 32 144v288C32 476.1 67.89 512 112 512h224c44.11 0 80-35.89 80-80v-288C416 135.2 408.8 128 400 128zM432 64h-96l-33.63-44.75C293.4 7.125 279.1 0 264 0h-80C168.9 0 154.6 7.125 145.6 19.25L112 64h-96C7.201 64 0 71.2 0 80C0 88.8 7.201 96 16 96h416C440.8 96 448 88.8 448 80C448 71.2 440.8 64 432 64zM152 64l19.25-25.62C174.3 34.38 179 32 184 32h80c5 0 9.75 2.375 12.75 6.375L296 64H152z"/></svg>