<svg xmlns="http://www.w3.org/2000/svg" viewBox="0 0 640 512"><!--! Font Awesome Pro 6.0.0-beta3 by @fontawesome - https://fontawesome.com License - https://fontawesome.com/license (Commercial License) Copyright 2021 Fonticons, Inc. --><path d="M272 400V175.1C272 167.2 264.8 160 256 160S240 167.2 240 176v224c0 8.844 7.156 15.1 16 15.1S272 408.8 272 400zM400 64H320L286.4 19.25C277.4 7.125 263.1 0 248 0h-80C152.9 0 138.6 7.125 129.6 19.25L96 64H16C7.201 64 0 71.2 0 80C0 88.8 7.201 96 16 96h384C408.8 96 416 88.8 416 80C416 71.2 408.8 64 400 64zM136 64l19.25-25.62C158.3 34.38 163 32 168 32h80c5 0 9.75 2.375 12.75 6.375L280 64H136zM176 400v-224C176 167.2 168.8 160 160 160S144 167.2 144 175.1V400c0 8.844 7.156 15.1 16 15.1S176 408.8 176 400zM368 128C359.2 128 352 135.2 352 144v288c0 26.47-21.53 48-48 48h-192C85.53 480 64 458.5 64 432v-288C64 135.2 56.84 128 48 128S32 135.2 32 144v288C32 476.1 67.89 512 112 512h192c44.11 0 80-35.89 80-80v-288C384 135.2 376.8 128 368 128zM624 160h-160C455.2 160 448 167.2 448 176S455.2 192 464 192h160C632.8 192 640 184.8 640 176S632.8 160 624 160zM528 416h-64c-8.844 0-16 7.156-16 16s7.156 16 16 16h64c8.844 0 16-7.156 16-16S536.8 416 528 416zM592 288h-128C455.2 288 448 295.2 448 304s7.156 16 16 16h128c8.844 0 16-7.156 16-16S600.8 288 592 288z"/></svg>