<svg xmlns="http://www.w3.org/2000/svg" viewBox="0 0 512 512"><!--! Font Awesome Pro 6.1.1 by @fontawesome - https://fontawesome.com License - https://fontawesome.com/license (Commercial License) Copyright 2022 Fonticons, Inc. --><path d="M468.7 429.6l-62.53-77.63c16.66-.6875 31.08-10.19 37.95-25.16c6.906-15.03 4.469-32.25-6.438-44.94L373.6 208h3.734c15.75 0 29.36-8.594 35.53-22.41c5.797-13 3.422-27.72-6.25-38.47l-121.4-134.2C277.9 4.719 267.3 0 256 0s-21.97 4.688-29.22 12.84L105.4 147.1C95.78 157.8 93.34 172.5 99.11 185.5C105.2 199.2 119.2 208 134.7 208H138.4L74.23 281.9c-10.86 12.66-13.3 29.88-6.391 44.91c6.891 15 21.33 24.5 37.98 25.16l-62.5 77.63C30.89 445 28.48 466.7 37.17 484.9C45.18 501.6 61.12 512 78.76 512h354.3c17.67 0 33.64-10.41 41.66-27.16C483.4 466.7 481.1 444.1 468.7 429.6zM445.9 471C444.6 473.7 440.8 480 433.1 480H78.76c-7.625 0-11.44-6.25-12.72-8.938c-2.594-5.406-3.562-14.25 2.203-21.41L172.7 320H107.7c-7.203 0-10.06-5-10.77-6.531C95.93 311.3 94.82 307.1 98.45 302.8L208.5 176H134.7c-4.484 0-6.016-2.656-6.391-3.5c-.625-1.406-.3906-2.594 .8281-3.938l121.4-134.3C251.9 32.81 253.8 32 255.1 32c2.156 0 4.109 .8125 5.453 2.281L382.9 168.5c.8125 .9062 1.625 2.156 .7969 4.031C383.3 173.3 381.8 176 377.4 176h-73.83l109.9 126.8c3.688 4.281 2.578 8.531 1.594 10.69C414.3 315 411.4 320 404.2 320h-64.92l104.4 129.7C449.4 456.8 448.5 465.6 445.9 471zM320 392c-13.25 0-23.1 10.74-23.1 24c0 13.25 10.74 24 23.1 24s23.1-10.75 23.1-24C343.1 402.7 333.3 392 320 392zM224 232C210.7 232 200 242.7 200 256c0 13.25 10.75 24 24 24S248 269.3 248 256C248 242.7 237.3 232 224 232zM312 128c0-13.26-10.75-24-24-24S264 114.7 264 128c0 13.25 10.75 24 24 24S312 141.3 312 128z"/></svg>