<svg xmlns="http://www.w3.org/2000/svg" viewBox="0 0 512 512"><!--! Font Awesome Pro 6.1.1 by @fontawesome - https://fontawesome.com License - https://fontawesome.com/license (Commercial License) Copyright 2022 Fonticons, Inc. --><path d="M200 240C200 209.1 225.1 184 256 184C286.9 184 312 209.1 312 240C312 270.9 286.9 296 256 296C225.1 296 200 270.9 200 240zM256 216C242.7 216 232 226.7 232 240C232 253.3 242.7 264 256 264C269.3 264 280 253.3 280 240C280 226.7 269.3 216 256 216zM235.3 8.242C247-2.751 265-2.751 276.8 8.241C288.9 19.57 309.9 40.76 327.1 67.06C345.8 93.04 362.2 125.1 362.2 160.4C362.2 169.7 360.1 178.8 358.7 187.4C369.1 189.7 379.4 193.5 389.2 199.1C419.1 216.3 439.6 246.7 453.4 275.1C467.3 303.7 475.2 332.4 479.1 348.5C482.8 364.4 473.6 380 458.1 384.7C442.2 389.4 413.2 396.9 381.3 399.2C349.8 401.6 313 399.2 283.1 382C272.6 376 263.5 368.4 255.1 359.8C248.4 368.4 239.3 376 228.8 382C198.9 399.2 162.1 401.6 130.6 399.3C98.69 396.9 69.75 389.4 53.76 384.7C38.26 380 29.06 364.4 32.83 348.5C36.66 332.4 44.65 303.7 58.55 275.1C72.28 246.8 92.78 216.3 122.7 199.1C132.5 193.5 142.9 189.6 153.4 187.4C151.1 178.8 149.8 169.7 149.8 160.4C149.8 125.1 166.2 93.04 184.1 67.06C202.1 40.76 223.1 19.57 235.3 8.242V8.242zM256 32.65C244.6 43.37 226.2 62.28 210.4 85.18C193.1 109.2 181.8 135.5 181.8 160.4C181.8 172.4 184.8 183.7 189.9 193.7C192.5 198.7 192.3 204.6 189.4 209.4C186.5 214.2 181.3 217.1 175.7 217.1C163.1 217 150.3 220.2 138.6 226.9C116.9 239.4 99.99 262.1 87.34 289C75.26 313.1 68.01 339.2 64.32 354.4C79.4 358.8 105.1 365.3 132.1 367.3C162.1 369.5 191.2 366.7 212.9 354.3C225.7 346.9 235.5 336.3 241.7 324.2C244.5 318.8 249.1 315.5 255.1 315.5C261.9 315.5 267.4 318.8 270.2 324.2C276.5 336.3 286.2 346.9 299 354.3C320.7 366.7 349.8 369.5 378.9 367.3C406.8 365.3 432.5 358.8 447.6 354.4C443.9 339.2 436.6 313.9 424.6 289C411.9 262.9 394.1 239.3 373.3 226.9C361.6 220.2 348.9 217.1 336.3 217C330.7 217 325.6 214.1 322.7 209.4C319.8 204.6 319.6 198.7 322.1 193.7C327.3 183.7 330.2 172.4 330.2 160.4C330.2 135.5 318.1 109.2 301.6 85.18C285.9 62.28 267.4 43.37 256 32.65H256zM274.9 497.1C265.8 510.8 246.2 510.8 237.1 497.1C228.8 484.6 214.3 459.1 206.2 423.2C216.4 420.1 226.5 415.1 236.2 410.6C241 434.6 249.1 453.5 256 466.4C262.9 453.5 270.1 434.7 275.8 410.7C285.5 416 295.6 420.1 305.8 423.2C297.7 459.1 283.3 484.6 274.9 497.1L274.9 497.1zM41.86 105.4C56.54 103.5 86.1 102.6 124.6 115.3C122 125.8 120.4 136.6 120.1 147.6C94.52 138.4 73.66 136.3 59.67 136.3C66.06 147.4 76.91 162.7 94.72 178.6C85.61 184.7 77.34 191.7 69.85 199.2C42.4 173.6 29.46 149.3 23.99 136.3C18.17 122.5 26.97 107.3 41.86 105.4V105.4zM452.3 136.3C438.3 136.3 417.5 138.4 391.9 147.6C391.6 136.6 389.1 125.8 387.4 115.3C425.9 102.6 455.5 103.5 470.2 105.4C485 107.3 493.8 122.5 488 136.3C482.5 149.4 469.6 173.7 442.1 199.3C434.6 191.8 426.3 184.8 417.2 178.7C435.1 162.7 445.9 147.5 452.3 136.3H452.3z"/></svg>