<svg xmlns="http://www.w3.org/2000/svg" viewBox="0 0 512 512"><!--! Font Awesome Pro 6.1.1 by @fontawesome - https://fontawesome.com License - https://fontawesome.com/license (Commercial License) Copyright 2022 Fonticons, Inc. --><path d="M491.8 20.18C518.7 47.1 518.7 90.73 491.8 117.6L396.4 213.1C381.8 227.6 358.2 227.6 343.6 213.1L332.6 202L230.6 303.1L306.2 379.5C318.8 392.2 313.7 413.6 296.8 419.3L36.24 506.1C17.48 512.4-.3715 494.5 5.883 475.8L92.73 215.2C98.37 198.3 119.9 193.2 132.5 205.8L208 281.4L309.1 179.4L298.9 168.4C284.4 153.8 284.4 130.2 298.9 115.6L394.4 20.18C421.3-6.728 464.9-6.728 491.8 20.18L491.8 20.18zM321.6 138.2C319.5 140.3 319.5 143.7 321.6 145.8L366.2 190.4C368.3 192.5 371.7 192.5 373.8 190.4L469.2 95.01C483.6 80.6 483.6 57.23 469.2 42.81C454.8 28.4 431.4 28.4 416.1 42.81L321.6 138.2zM274.4 393L118.1 237.6L41.3 470.7L274.4 393z"/></svg>