<svg xmlns="http://www.w3.org/2000/svg" viewBox="0 0 640 512"><!--! Font Awesome Pro 6.0.0-beta3 by @fontawesome - https://fontawesome.com License - https://fontawesome.com/license (Commercial License) Copyright 2021 Fonticons, Inc. --><path d="M424 192C454.9 192 480 217.1 480 248V344C480 346.7 479.7 349.4 479.2 352H512V208C512 204.3 513.3 200.6 515.7 197.8L595.7 101.8C601.4 94.97 611.5 94.05 618.2 99.71C625 105.4 625.9 115.5 620.3 122.2L544 213.8V362.2L620.3 453.8C625.9 460.5 625 470.6 618.2 476.3C611.5 481.9 601.4 481 595.7 474.2L520.5 384H464C464 437 421 480 368 480C314.1 480 272 437 272 384H224C224 437 181 480 128 480C74.98 480 32 437 32 384L32 383.2C13.74 379.5 0 363.4 0 344V248C0 217.1 25.07 192 56 192H128V80C128 53.49 149.5 32 176 32H270.1C286.8 32 302.3 40.7 311 54.97L394.8 192L424 192zM176 64C167.2 64 160 71.16 160 80V192H357.2L283.7 71.66C280.8 66.9 275.6 64 270.1 64H176zM448 330.9V248C448 234.7 437.3 224 424 224H56C42.75 224 32 234.7 32 248V344C32 347.6 34.35 350.6 37.59 351.6C50.88 314.5 86.34 288 128 288C169.8 288 205.4 314.7 218.5 352H277.5C290.6 314.7 326.2 288 368 288C401.4 288 430.8 305 448 330.9H448zM128 320C92.65 320 64 348.7 64 384C64 419.3 92.65 448 128 448C163.3 448 192 419.3 192 384C192 348.7 163.3 320 128 320zM368 448C403.3 448 432 419.3 432 384C432 348.7 403.3 320 368 320C332.7 320 304 348.7 304 384C304 419.3 332.7 448 368 448z"/></svg>