<svg xmlns="http://www.w3.org/2000/svg" viewBox="0 0 640 512"><!--! Font Awesome Pro 6.1.1 by @fontawesome - https://fontawesome.com License - https://fontawesome.com/license (Commercial License) Copyright 2022 Fonticons, Inc. --><path d="M32 96C32 60.65 60.65 32 96 32H320C352.6 32 379.6 56.43 383.5 88H436.9C454.5 88 470.8 97.7 479.1 113.2L521.6 192H544C579.3 192 608 220.7 608 256V352H624C632.8 352 640 359.2 640 368C640 376.8 632.8 384 624 384H576C576 437 533 480 480 480C426.1 480 384 437 384 384H256C256 437 213 480 160 480C106.1 480 64 437 64 384H16C7.164 384 0 376.8 0 368C0 359.2 7.164 352 16 352H32V288C14.33 288 0 273.7 0 256V160C0 142.3 14.33 128 32 128V96zM320 64H96C78.33 64 64 78.33 64 96V352H69.46C82.64 314.7 118.2 288 160 288C201.8 288 237.4 314.7 250.5 352H352V96C352 78.33 337.7 64 320 64zM485.2 192L450.1 128.4C448.2 123.2 442.8 120 436.9 120H384V192H485.2zM480 288C521.8 288 557.4 314.7 570.5 352H576V256C576 238.3 561.7 224 544 224H512.3C512.1 224 511.9 224 511.7 224H384V352H389.5C402.6 314.7 438.2 288 480 288H480zM160 320C124.7 320 96 348.7 96 384C96 419.3 124.7 448 160 448C195.3 448 224 419.3 224 384C224 348.7 195.3 320 160 320zM480 448C515.3 448 544 419.3 544 384C544 348.7 515.3 320 480 320C444.7 320 416 348.7 416 384C416 419.3 444.7 448 480 448z"/></svg>