<svg xmlns="http://www.w3.org/2000/svg" viewBox="0 0 512 512"><!--! Font Awesome Pro 6.1.1 by @fontawesome - https://fontawesome.com License - https://fontawesome.com/license (Commercial License) Copyright 2022 Fonticons, Inc. --><path d="M128 328C128 341.3 117.3 352 104 352C90.75 352 80 341.3 80 328C80 314.7 90.75 304 104 304C117.3 304 128 314.7 128 328zM384 328C384 314.7 394.7 304 408 304C421.3 304 432 314.7 432 328C432 341.3 421.3 352 408 352C394.7 352 384 341.3 384 328zM0 80C0 35.82 35.82 0 80 0H432C476.2 0 512 35.82 512 80V368C512 394.2 499.4 417.4 480 432V496C480 504.8 472.8 512 464 512C455.2 512 448 504.8 448 496V446.4C442.8 447.4 437.5 448 432 448H80C74.52 448 69.17 447.4 64 446.4V496C64 504.8 56.84 512 48 512C39.16 512 32 504.8 32 496V432C12.57 417.4 0 394.2 0 368V80zM32 80V248.4C42.83 238.8 55.87 231.5 70.27 227.5L101.6 138.7C110.6 113.1 134.8 95.1 161.1 95.1H350C377.2 95.1 401.4 113.1 410.4 138.7L441.7 227.5C456.1 231.5 469.2 238.8 480 248.4V80C480 53.49 458.5 32 432 32H80C53.49 32 32 53.49 32 80H32zM32 320V368C32 394.5 53.49 416 80 416H432C458.5 416 480 394.5 480 368V320C480 284.7 451.3 256 416 256H96C60.65 256 32 284.7 32 320zM105.4 224H406.6L380.2 149.3C375.7 136.6 363.6 128 350 128H161.1C148.4 128 136.3 136.6 131.8 149.3L105.4 224z"/></svg>