<svg xmlns="http://www.w3.org/2000/svg" viewBox="0 0 384 512"><!--! Font Awesome Pro 6.1.1 by @fontawesome - https://fontawesome.com License - https://fontawesome.com/license (Commercial License) Copyright 2022 Fonticons, Inc. --><path d="M313.6 119.7l-104-112C204.8 2.556 198.4 0 191.1 0S179.2 2.556 174.4 7.671l-104 112C63.92 126.7 62.19 136.8 66 145.6s12.45 14.41 22 14.41L175.1 160v272c0 26.47-21.53 48-47.1 48h-112c-8.844 0-16 7.156-16 16S7.155 512 15.1 512h111.1c44.11 0 80-35.88 80-80V160l88-.0005c9.547 0 18.19-5.656 22-14.41S320.1 126.7 313.6 119.7zM106.3 128l85.66-92.25L277.7 128H106.3z"/></svg>