<svg xmlns="http://www.w3.org/2000/svg" viewBox="0 0 640 512"><!--! Font Awesome Pro 6.1.1 by @fontawesome - https://fontawesome.com License - https://fontawesome.com/license (Commercial License) Copyright 2022 Fonticons, Inc. --><path d="M216 64C132.1 64 64 132.1 64 216V240C64 248.8 56.84 256 48 256C39.16 256 32 248.8 32 240V216C32 114.4 114.4 32 216 32C317.6 32 400 114.4 400 216V240C400 248.8 392.8 256 384 256C375.2 256 368 248.8 368 240V216C368 132.1 299.9 64 216 64zM512 208C512 199.2 519.2 192 528 192C536.8 192 544 199.2 544 208C544 216.8 536.8 224 528 224C519.2 224 512 216.8 512 208zM432 176C432 131.8 467.8 96 512 96H536C593.4 96 640 142.6 640 200V224C640 259.3 611.3 288 576 288H523.5C503.2 345.4 448.9 384 387.7 384H384V432C384 458.5 362.5 480 336 480H304C277.5 480 256 458.5 256 432V384H192V432C192 458.5 170.5 480 144 480H112C85.49 480 64 458.5 64 432V384H48C21.49 384 0 362.5 0 336C0 309.5 21.49 288 48 288H392C414.1 288 432 270.1 432 248V176zM288 432C288 440.8 295.2 448 304 448H336C344.8 448 352 440.8 352 432V352H387.7C435.1 352 478.8 321.2 493.1 275.4L496.8 266.9C498.1 260.4 505.1 256 512 256H576C593.7 256 608 241.7 608 224V200C608 160.2 575.8 128 536 128H512C485.5 128 464 149.5 464 176V248C464 287.8 431.8 320 392 320H47.1C39.16 320 31.1 327.2 31.1 336C31.1 344.8 39.16 352 47.1 352H95.1V432C95.1 440.8 103.2 448 111.1 448H143.1C152.8 448 159.1 440.8 159.1 432V352H287.1L288 432z"/></svg>