<svg xmlns="http://www.w3.org/2000/svg" viewBox="0 0 512 512"><!--! Font Awesome Pro 6.1.1 by @fontawesome - https://fontawesome.com License - https://fontawesome.com/license (Commercial License) Copyright 2022 Fonticons, Inc. --><path d="M312 384h16c4.375 0 8-3.625 8-8v-16c0-4.375-3.625-8-8-8h-16c-4.375 0-8 3.625-8 8v16C304 380.4 307.6 384 312 384zM376 384h16c4.375 0 8-3.625 8-8v-16c0-4.375-3.625-8-8-8h-16c-4.375 0-8 3.625-8 8v16C368 380.4 371.6 384 376 384zM248 384h16c4.375 0 8-3.625 8-8v-16c0-4.375-3.625-8-8-8h-16c-4.375 0-8 3.625-8 8v16C240 380.4 243.6 384 248 384zM464 192h-98.75c-8.5 0-16.62 3.375-22.62 9.375l-13.25 13.25C323.4 220.6 315.3 224 306.8 224h-101.5c-8.5 0-16.62-3.375-22.62-9.375L169.4 201.4C163.4 195.4 155.3 192 146.8 192H48C21.53 192 0 213.5 0 240v32c0 20.83 13.42 38.43 32 45.05V448c0 35.38 28.62 64 64 64h320c35.38 0 64-28.62 64-64V317.1C498.6 310.4 512 292.8 512 272v-32C512 213.5 490.5 192 464 192zM448 448c0 17.62-14.38 32-32 32H96c-17.62 0-32-14.38-32-32v-128h384V448zM480 272C480 280.8 472.8 288 464 288h-416C39.17 288 32 280.8 32 272v-32C32 231.2 39.17 224 48 224h98.75L160 237.3C172 249.3 188.3 256 205.3 256h101.5C323.8 256 340 249.3 352 237.3L365.3 224H464C472.8 224 480 231.2 480 240V272zM120 384h16c4.375 0 8-3.625 8-8v-16C144 355.6 140.4 352 136 352h-16c-4.375 0-8 3.625-8 8v16C112 380.4 115.6 384 120 384zM184 384h16c4.375 0 8-3.625 8-8v-16C208 355.6 204.4 352 200 352h-16c-4.375 0-8 3.625-8 8v16C176 380.4 179.6 384 184 384zM160 448h192c8.801 0 16-7.201 16-16c0-8.801-7.199-16-16-16H160c-8.801 0-16 7.199-16 16C144 440.8 151.2 448 160 448zM80 160C88.84 160 96 152.8 96 144V64c0-17.67 14.33-32 32-32h249.4L416 70.63V144C416 152.8 423.2 160 432 160S448 152.8 448 144V70.63C448 62.14 444.6 54 438.6 48L400 9.375C393.1 3.371 385.9 0 377.4 0H127.1C92.65 0 64 28.65 64 64v80C64 152.8 71.16 160 80 160z"/></svg>