<svg xmlns="http://www.w3.org/2000/svg" viewBox="0 0 512 512"><!--! Font Awesome Pro 6.0.0-beta3 by @fontawesome - https://fontawesome.com License - https://fontawesome.com/license (Commercial License) Copyright 2021 Fonticons, Inc. --><path d="M255.1 320C247.2 320 240 327.2 240 336V448c0 17.66-14.34 32-32 32s-32-14.34-32-32v-16C176 423.2 168.8 416 160 416s-16 7.156-16 16V448c0 35.28 28.72 64 63.1 64S272 483.3 272 448v-112C272 327.2 264.8 320 255.1 320zM271.8 32.78C271.9 32.5 272 32.28 272 32V16c0-8.844-7.157-16-16-16S240 7.156 240 16V32c0 .2754 .1426 .5039 .1562 .7773C106.4 40.77 0 148.4 0 280C0 284.4 3.594 288 8 288h496C508.4 288 512 284.4 512 280C512 148.4 405.6 40.77 271.8 32.78zM33.37 256C45.79 148.2 140.9 64 256 64s210.2 84.15 222.6 192H33.37z"/></svg>