<svg xmlns="http://www.w3.org/2000/svg" viewBox="0 0 576 512"><!--! Font Awesome Pro 6.0.0-beta3 by @fontawesome - https://fontawesome.com License - https://fontawesome.com/license (Commercial License) Copyright 2021 Fonticons, Inc. --><path d="M287.1 288C279.2 288 272 295.2 272 304V448c0 17.66-14.34 32-32 32s-32-14.34-32-32v-16c0-8.844-7.159-16-16-16S176 423.2 176 432V448c0 35.28 28.72 64 63.1 64S304 483.3 304 448V304C304 295.2 296.8 288 287.1 288zM575.7 280.9C545.8 138.1 424.8 55.65 304 48.9V16c0-8.844-7.158-15.1-16-15.1S272 7.156 272 16v32.86C177.4 54.79 36.01 114 .2949 280.9C-1.316 288.2 3.887 296.1 10.75 296.1c2.598 0 5.432-1.126 8.229-3.845c22.38-23.67 45.45-36.68 68.52-36.68c30.54 0 61.08 22.77 90.08 73.68c2.592 4.637 6.203 6.794 9.781 6.794c3.756 0 7.473-2.378 9.938-6.794C217.5 293.9 242.2 256 287.1 256c58.5 0 88.19 68.82 90.69 73.2c2.465 4.416 6.184 6.794 9.938 6.794c3.578 0 7.189-2.157 9.781-6.794c28.1-50.89 59.65-73.46 90.16-73.46c23.15 0 46.23 12.1 68.45 36.46c2.834 2.748 5.689 3.886 8.295 3.886C572.2 296.1 577.3 288.2 575.7 280.9zM488.6 223.8c-36.38 .0059-69.6 20.26-99.13 60.42c-27.12-39.05-62.33-60.16-101.4-60.16c-49.75 0-80.84 31.56-100.1 60.76C157.4 244.1 124 223.6 87.5 223.6c-12.7 0-25.29 2.537-37.63 7.52c50.85-113.3 164.6-148.6 231.3-150.8c1.109-.0352 12.61 .002 13.84 .0352c85.1 2.346 185.3 50.68 231 150.9C513.7 226.3 501.2 223.8 488.6 223.8z"/></svg>