<svg xmlns="http://www.w3.org/2000/svg" viewBox="0 0 448 512"><!--! Font Awesome Pro 6.1.1 by @fontawesome - https://fontawesome.com License - https://fontawesome.com/license (Commercial License) Copyright 2022 Fonticons, Inc. --><path d="M83.92 173.4L194.1 49.46C210 31.56 237.1 31.56 253.9 49.46L364.1 173.4C387 199.2 368.7 239.1 334.2 239.1H288V343.1C288 366.1 270.1 383.1 248 383.1H200C177.9 383.1 160 366.1 160 343.1V239.1H113.8C79.3 239.1 60.99 199.2 83.92 173.4zM334.2 207.1C341.1 207.1 344.8 199.8 340.2 194.7L229.1 70.72C226.8 67.14 221.2 67.14 218 70.72L107.8 194.7C103.2 199.8 106.9 207.1 113.8 207.1H192V343.1C192 348.4 195.6 351.1 200 351.1H248C252.4 351.1 256 348.4 256 343.1V207.1H334.2zM8 448C8 434.7 18.75 424 32 424C45.25 424 56 434.7 56 448C56 461.3 45.25 472 32 472C18.75 472 8 461.3 8 448zM392 448C392 434.7 402.7 424 416 424C429.3 424 440 434.7 440 448C440 461.3 429.3 472 416 472C402.7 472 392 461.3 392 448zM152 448C152 461.3 141.3 472 128 472C114.7 472 104 461.3 104 448C104 434.7 114.7 424 128 424C141.3 424 152 434.7 152 448zM200 448C200 434.7 210.7 424 224 424C237.3 424 248 434.7 248 448C248 461.3 237.3 472 224 472C210.7 472 200 461.3 200 448zM344 448C344 461.3 333.3 472 320 472C306.7 472 296 461.3 296 448C296 434.7 306.7 424 320 424C333.3 424 344 434.7 344 448z"/></svg>