<svg xmlns="http://www.w3.org/2000/svg" viewBox="0 0 448 512"><!--! Font Awesome Pro 6.0.0-beta3 by @fontawesome - https://fontawesome.com License - https://fontawesome.com/license (Commercial License) Copyright 2021 Fonticons, Inc. --><path d="M128 320h192c35.35 0 64-28.65 64-64V128c0-35.35-28.65-64-64-64h-80V16C240 7.156 232.8 0 224 0S208 7.156 208 16V64H128C92.65 64 64 92.65 64 128v128C64 291.3 92.65 320 128 320zM96 128c0-17.64 14.36-32 32-32h192c17.64 0 32 14.36 32 32v112h-16C327.2 240 320 247.2 320 256s7.156 16 16 16h11.08C341.5 281.4 331.7 288 320 288H128C116.3 288 106.5 281.4 100.9 272H112C120.8 272 128 264.8 128 256S120.8 240 112 240H96V128zM16 256C24.84 256 32 248.8 32 240v-96C32 135.2 24.84 128 16 128S0 135.2 0 144v96C0 248.8 7.156 256 16 256zM432 128C423.2 128 416 135.2 416 144v96C416 248.8 423.2 256 432 256S448 248.8 448 240v-96C448 135.2 440.8 128 432 128zM304 400h-160C117.5 400 96 421.5 96 448v48C96 504.8 103.2 512 112 512S128 504.8 128 496V448c0-8.828 7.188-16 16-16h160c8.812 0 16 7.172 16 16v48c0 8.844 7.156 16 16 16s16-7.156 16-16V448C352 421.5 330.5 400 304 400zM176 448C167.2 448 160 455.2 160 464v32C160 504.8 167.2 512 176 512S192 504.8 192 496v-32C192 455.2 184.8 448 176 448zM272 448c-8.836 0-16 7.162-16 16c0 8.836 7.164 16 16 16s16-7.164 16-16C288 455.2 280.8 448 272 448zM160 208c26.47 0 48-21.53 48-48S186.5 112 160 112S112 133.5 112 160S133.5 208 160 208zM160 144c8.812 0 16 7.172 16 16S168.8 176 160 176S144 168.8 144 160S151.2 144 160 144zM288 208c26.47 0 48-21.53 48-48S314.5 112 288 112S240 133.5 240 160S261.5 208 288 208zM288 144c8.812 0 16 7.172 16 16S296.8 176 288 176S272 168.8 272 160S279.2 144 288 144zM192 240H160C151.2 240 144 247.2 144 256S151.2 272 160 272h32c8.844 0 16-7.156 16-16S200.8 240 192 240zM248 272h32c8.844 0 16-7.156 16-16s-7.156-16-16-16h-32c-8.844 0-16 7.156-16 16S239.2 272 248 272zM352 352H96c-53.02 0-96 42.98-96 96v32c0 17.67 14.33 32 32 32h16C56.84 512 64 504.8 64 496C64 487.2 56.84 480 48 480H32v-32c0-35.35 28.65-64 64-64h256c35.35 0 64 28.65 64 64v32h-16c-8.836 0-16 7.162-16 16c0 8.836 7.164 16 16 16H416c17.67 0 32-14.33 32-32v-32C448 394.1 405 352 352 352z"/></svg>