<svg xmlns="http://www.w3.org/2000/svg" viewBox="0 0 640 512"><!--! Font Awesome Pro 6.0.0-beta3 by @fontawesome - https://fontawesome.com License - https://fontawesome.com/license (Commercial License) Copyright 2021 Fonticons, Inc. --><path d="M630.6 364.8L540.4 274.4c-12-12-28.25-18.75-45.13-18.75H415.9c-17.62 0-32 14.38-32 32l-.0588 79.58c0 17 6.647 33.15 18.65 45.15l90.31 90.27C499 508.8 507.3 512 515.4 512c8.25 0 16.33-3.125 22.58-9.375l92.49-92.5C643.1 397.5 643.1 377.3 630.6 364.8zM515.5 479.9l-90.25-90.25c-6-6-9.375-14.12-9.375-22.62V287.6h79.38c8.5 0 16.5 3.375 22.5 9.5l90.25 90.25L515.5 479.9zM463.9 319.9c-8.75 0-16 7.25-16 16s7.195 15.94 15.95 15.94c8.875 0 16-7.25 16-16S472.8 319.9 463.9 319.9zM400 480H34.66c-1.451 0-2.662-1.207-2.662-2.658C31.1 399.4 95.4 336 173.3 336H274.7c19.65 0 38.33 4.1 55.32 11.42c10.39 4.479 21.91-3.477 21.91-14.79c0-6.277-3.576-12.17-9.346-14.64C321.7 309.1 298.8 304 274.7 304H173.3c-95.8 0-173.5 77.56-173.3 173.4C.022 496.4 15.63 512 34.66 512H400c8.836 0 16-7.164 16-16C416 487.2 408.8 480 400 480zM224 256c70.7 0 128-57.31 128-128S294.7 0 224 0C153.3 0 96 57.31 96 128S153.3 256 224 256zM224 32c52.94 0 96 43.06 96 96c0 52.93-43.06 96-96 96S128 180.9 128 128C128 75.06 171.1 32 224 32z"/></svg>