<svg xmlns="http://www.w3.org/2000/svg" viewBox="0 0 448 512"><!--! Font Awesome Pro 6.1.1 by @fontawesome - https://fontawesome.com License - https://fontawesome.com/license (Commercial License) Copyright 2022 Fonticons, Inc. --><path d="M88 96C88 87.16 95.16 80 104 80H105.3C124.3 33.09 170.3 0 224 0C277.7 0 323.7 33.09 342.7 80H344C352.8 80 360 87.16 360 96C360 102.4 356.2 107.9 350.8 110.5C351.6 116.2 352 122.1 352 128V144C352 159.6 349.2 174.6 344.1 188.5C344.8 214.1 351.8 234.8 365.3 255.1C367.9 258.9 368.6 263.7 367.5 268.1C366.3 272.5 363.3 276.3 359.2 278.3L343.2 286.3C335.3 290.3 325.6 287.1 321.7 279.2C317.7 271.3 320.9 261.6 328.8 257.7L329.4 257.4C324.8 248.7 321.1 239.8 318.3 230.5C312.6 236.8 306.2 242.5 299.4 247.5L311.2 282.9C313.1 291.3 309.4 300.4 301.1 303.2C292.7 305.1 283.6 301.4 280.8 293.1L270.9 263.2C256.3 268.9 240.5 271.1 224 271.1C207.5 271.1 191.7 268.9 177.1 263.2L167.2 293.1C164.4 301.4 155.3 305.1 146.9 303.2C138.6 300.4 134 291.3 136.8 282.9L148.6 247.5C141.8 242.5 135.4 236.8 129.7 230.5C126.9 239.8 123.2 248.7 118.6 257.4L119.2 257.7C127.1 261.6 130.3 271.3 126.3 279.2C122.4 287.1 112.7 290.3 104.8 286.3L88.84 278.3C84.74 276.3 81.71 272.5 80.54 268.1C79.36 263.7 80.14 258.9 82.69 255.1C96.24 234.8 103.2 214.1 103.9 188.5C98.81 174.6 96 159.6 96 144V128C96 122.1 96.41 116.2 97.19 110.5C91.76 107.9 88 102.4 88 96V96zM320 144V128C320 122.5 319.5 117.2 318.7 112H307.4C275.3 112 245.1 98.28 224 74.78C202.9 98.28 172.7 112 140.6 112H129.3C128.5 117.2 128 122.5 128 128V144C128 197 170.1 240 224 240C277 240 320 197 320 144zM140.8 79.1C167.5 79.93 192.4 66.57 207.2 44.38L210.7 39.12C213.7 34.67 218.7 32 224 32C229.4 32 234.3 34.67 237.3 39.12L240.8 44.38C255.6 66.57 280.5 79.93 307.2 79.1C290.6 51.31 259.5 32 224 32C188.5 32 157.4 51.31 140.8 79.1zM284.4 320C374.8 320 448 393.2 448 483.6C448 499.3 435.3 512 419.6 512H28.44C12.74 512 0 499.3 0 483.6C0 393.2 73.23 320 163.6 320H284.4zM163.6 352C92.09 352 33.93 408.1 32.05 480H415.1C414.1 408.1 355.9 352 284.4 352H163.6z"/></svg>