<svg xmlns="http://www.w3.org/2000/svg" viewBox="0 0 640 512"><!--! Font Awesome Pro 6.0.0-beta3 by @fontawesome - https://fontawesome.com License - https://fontawesome.com/license (Commercial License) Copyright 2021 Fonticons, Inc. --><path d="M544 352h-32v-48c0-8.838-7.164-16-16-16S480 295.2 480 304v70.25c0 5.385 4.365 9.75 9.75 9.75H544c8.836 0 16-7.164 16-16C560 359.2 552.8 352 544 352zM496 224c-79.63 0-144 64.38-144 144s64.38 144 144 144s144-64.38 144-144S575.6 224 496 224zM496 480c-61.75 0-112-50.25-112-112S434.3 256 496 256S608 306.3 608 368S557.8 480 496 480zM336 480H34.66C33.21 480 32 478.8 32 477.3C31.99 399.4 95.4 336 173.3 336H274.7c10.55 0 20.75 1.375 30.58 3.734c8.777 2.107 17.49-3.117 19.52-11.91c.0254-.1055 .0488-.2109 .0742-.3184c2.027-8.717-3.521-17.27-12.25-19.25C300.4 305.5 287.7 304 274.7 304H173.3C77.54 304-.1133 381.6 0 477.4C.0234 496.4 15.63 512 34.66 512h301.4C344.8 512 352 504.8 352 496S344.8 480 336 480zM224 256c70.7 0 128-57.31 128-128S294.7 0 224 0C153.3 0 96 57.31 96 128S153.3 256 224 256zM224 32c52.94 0 96 43.06 96 96c0 52.93-43.06 96-96 96S128 180.9 128 128C128 75.06 171.1 32 224 32z"/></svg>