<svg xmlns="http://www.w3.org/2000/svg" viewBox="0 0 448 512"><!--! Font Awesome Pro 6.0.0-beta3 by @fontawesome - https://fontawesome.com License - https://fontawesome.com/license (Commercial License) Copyright 2021 Fonticons, Inc. --><path d="M77.33 102.4v22.46c0 13.04 7.713 25.22 19.96 29.7C134.3 168.1 177.6 176 223.1 176c46.44 0 89.74-7.877 126.7-21.42c12.24-4.482 19.96-16.66 19.96-29.7V102.4l22.14-22.3C397.4 75.48 400 69.2 400 62.64c0-11.35-7.664-21.23-18.59-23.98C235.7 1.979 229.2 0 225.5 0C225 0 224.6 .0293 224 .0293c-.5938 0-1.002-.0273-1.443-.0273c-3.787 0-10.05 1.922-155.1 38.66C55.66 41.41 48 51.29 48 62.64c0 6.555 2.584 12.84 7.188 17.48L77.33 102.4zM224 141.4C215.4 134.9 200.7 119.4 196.9 92.96l27.11-11.3l27.1 11.29C247.4 119.4 232.7 134.1 224 141.4zM162.7 47.43c37.47-9.465 55.46-14.01 61.33-15.31c5.906 1.312 137.2 34.44 137.2 34.44L338.7 89.23v13.19l1.043 22.12c-22.57 8.262-47.45 13.71-73.23 16.71C276.4 125.9 284 105.6 284 79.99c0-4.852-2.928-9.229-7.375-11.07l-48-20.01C227.4 48.41 225.3 48 224 48c-1.322 0-3.382 .4082-4.61 .916l-48 20.01C166.9 70.77 164 75.14 164 79.99c0 25.68 7.637 45.93 17.51 61.27C155.8 138.3 131.2 132.9 109.3 124.9V89.23L86.82 66.56L162.7 47.43zM335.8 192c-7.975 0-14.77 5.793-15.9 13.62C313.2 252.1 272.7 288 223.1 288c-48.71 0-89.16-35.87-95.86-82.38C127 197.8 120.3 192 112.3 192C102.5 192 94.78 200.6 96.16 210.2C105.1 272.2 159 320 223.1 320s118.9-47.8 127.8-109.8C353.2 200.6 345.6 192 335.8 192zM320 352h-32l-64 64l-64-64H128c-70.69 0-128 57.31-128 128c0 17.67 14.33 32 32 32h384c17.67 0 32-14.33 32-32C448 409.3 390.7 352 320 352zM336 480v-16H352c8.844 0 16-7.156 16-16s-7.156-16-16-16h-16V416c0-8.844-7.156-16-16-16s-16 7.156-16 16v16H288c-8.844 0-16 7.156-16 16s7.156 16 16 16h16V480H32c0-52.94 43.06-96 96-96h18.74L224 461.3L301.3 384H320c52.94 0 96 43.06 96 96H336z"/></svg>