<svg xmlns="http://www.w3.org/2000/svg" viewBox="0 0 640 512"><!--! Font Awesome Pro 6.1.1 by @fontawesome - https://fontawesome.com License - https://fontawesome.com/license (Commercial License) Copyright 2022 Fonticons, Inc. --><path d="M4.687 4.687C10.93-1.562 21.07-1.562 27.31 4.687L91.31 68.69C97.56 74.94 97.56 85.07 91.31 91.31C85.07 97.56 74.94 97.56 68.69 91.31L4.687 27.31C-1.562 21.07-1.562 10.94 4.687 4.687V4.687zM635.3 27.31L571.3 91.31C565.1 97.56 554.9 97.56 548.7 91.31C542.4 85.07 542.4 74.94 548.7 68.69L612.7 4.686C618.9-1.562 629.1-1.562 635.3 4.686C641.6 10.93 641.6 21.07 635.3 27.31V27.31zM27.31 507.3C21.07 513.6 10.93 513.6 4.686 507.3C-1.562 501.1-1.562 490.9 4.686 484.7L68.69 420.7C74.93 414.4 85.06 414.4 91.31 420.7C97.56 426.9 97.56 437.1 91.31 443.3L27.31 507.3zM635.3 507.3C629.1 513.6 618.9 513.6 612.7 507.3L548.7 443.3C542.4 437.1 542.4 426.9 548.7 420.7C554.9 414.4 565.1 414.4 571.3 420.7L635.3 484.7C641.6 490.9 641.6 501.1 635.3 507.3zM384 192C384 227.3 355.3 256 320 256C284.7 256 256 227.3 256 192C256 156.7 284.7 128 320 128C355.3 128 384 156.7 384 192zM320 160C302.3 160 288 174.3 288 192C288 209.7 302.3 224 320 224C337.7 224 352 209.7 352 192C352 174.3 337.7 160 320 160zM360 288C399.8 288 432 320.2 432 360C432 373.3 421.3 384 408 384H232C218.7 384 208 373.3 208 360C208 320.2 240.2 288 280 288H360zM280 320C260.6 320 244.5 333.7 240.8 352H399.2C395.5 333.7 379.4 320 360 320H280zM223.8 176C223.8 202.5 202.3 224 175.8 224C149.3 224 127.8 202.5 127.8 176C127.8 149.5 149.3 128 175.8 128C202.3 128 223.8 149.5 223.8 176zM175.8 160C166.1 160 159.8 167.2 159.8 176C159.8 184.8 166.1 192 175.8 192C184.7 192 191.8 184.8 191.8 176C191.8 167.2 184.7 160 175.8 160zM128 320C128 328.8 120.8 336 112 336C103.2 336 96 328.8 96 320V312C96 281.1 121.1 256 152 256H208C216.8 256 224 263.2 224 272C224 280.8 216.8 288 208 288H152C138.7 288 128 298.7 128 312V320zM464.2 224C437.7 224 416.2 202.5 416.2 176C416.2 149.5 437.7 128 464.2 128C490.7 128 512.2 149.5 512.2 176C512.2 202.5 490.7 224 464.2 224zM480.2 176C480.2 167.2 473 160 464.2 160C455.3 160 448.2 167.2 448.2 176C448.2 184.8 455.3 192 464.2 192C473 192 480.2 184.8 480.2 176zM432 288C423.2 288 416 280.8 416 272C416 263.2 423.2 256 432 256H488C518.9 256 544 281.1 544 312V320C544 328.8 536.8 336 528 336C519.2 336 512 328.8 512 320V312C512 298.7 501.3 288 488 288H432z"/></svg>