<svg xmlns="http://www.w3.org/2000/svg" viewBox="0 0 448 512"><!--! Font Awesome Pro 6.1.1 by @fontawesome - https://fontawesome.com License - https://fontawesome.com/license (Commercial License) Copyright 2022 Fonticons, Inc. --><path d="M274.7 304H173.3C77.61 304 0 381.6 0 477.3C0 496.5 15.52 512 34.66 512H413.3C432.5 512 448 496.5 448 477.3C448 381.6 370.4 304 274.7 304zM413.3 480H34.66C33.2 480 32 478.8 32 477.3C32 399.4 95.4 336 173.3 336h101.3C352.6 336 416 399.4 416 477.3C416 478.8 414.8 480 413.3 480zM224 272c70.59 0 128-57.42 128-128V24c0-11.89-12.52-19.63-23.16-14.31L288 30.11l-56.84-28.42c-4.506-2.254-9.807-2.254-14.31 0L160 30.11L119.2 9.689C108.5 4.369 96 12.11 96 24V144C96 214.6 153.4 272 224 272zM128 49.86l32 16l64-32l64 32l32-16V112H128V49.86zM320 144c0 52.94-43.06 96-96 96s-96-43.06-96-96H320z"/></svg>