<svg xmlns="http://www.w3.org/2000/svg" viewBox="0 0 448 512"><!--! Font Awesome Pro 6.1.1 by @fontawesome - https://fontawesome.com License - https://fontawesome.com/license (Commercial License) Copyright 2022 Fonticons, Inc. --><path d="M160 141.3L182.7 118.7C187.8 113.5 196.2 113.5 201.3 118.7C206.5 123.8 206.5 132.2 201.3 137.3L178.7 160L201.3 182.7C206.5 187.8 206.5 196.2 201.3 201.3C196.2 206.5 187.8 206.5 182.7 201.3L160 178.7L137.3 201.3C132.2 206.5 123.8 206.5 118.7 201.3C113.5 196.2 113.5 187.8 118.7 182.7L141.3 160L118.7 137.3C113.5 132.2 113.5 123.8 118.7 118.7C123.8 113.5 132.2 113.5 137.3 118.7L160 141.3zM246.7 118.7C251.8 113.5 260.2 113.5 265.3 118.7L288 141.3L310.7 118.7C315.8 113.5 324.2 113.5 329.3 118.7C334.5 123.8 334.5 132.2 329.3 137.3L306.7 160L329.3 182.7C334.5 187.8 334.5 196.2 329.3 201.3C324.2 206.5 315.8 206.5 310.7 201.3L288 178.7L265.3 201.3C260.2 206.5 251.8 206.5 246.7 201.3C241.5 196.2 241.5 187.8 246.7 182.7L269.3 160L246.7 137.3C241.5 132.2 241.5 123.8 246.7 118.7V118.7zM240 64H304C348.2 64 384 99.82 384 144V240C384 284.2 348.2 320 304 320H144C99.82 320 64 284.2 64 240V144C64 99.82 99.82 64 144 64H208V16C208 7.164 215.2 0 224 0C232.8 0 240 7.164 240 16V64zM96 240C96 266.5 117.5 288 144 288V256C144 247.2 151.2 240 160 240C168.8 240 176 247.2 176 256V288H208V256C208 247.2 215.2 240 224 240C232.8 240 240 247.2 240 256V288H272V256C272 247.2 279.2 240 288 240C296.8 240 304 247.2 304 256V288C330.5 288 352 266.5 352 240V144C352 117.5 330.5 96 304 96H144C117.5 96 96 117.5 96 144V240zM32 144V240C32 248.8 24.84 256 16 256C7.164 256 0 248.8 0 240V144C0 135.2 7.164 128 16 128C24.84 128 32 135.2 32 144zM448 240C448 248.8 440.8 256 432 256C423.2 256 416 248.8 416 240V144C416 135.2 423.2 128 432 128C440.8 128 448 135.2 448 144V240zM48 512C21.49 512 0 490.5 0 464V448C0 394.1 42.98 352 96 352H352C405 352 448 394.1 448 448V464C448 490.5 426.5 512 400 512H48zM96 384C60.65 384 32 412.7 32 448V464C32 472.8 39.16 480 48 480H80V448C80 430.3 94.33 416 112 416H336C353.7 416 368 430.3 368 448V480H400C408.8 480 416 472.8 416 464V448C416 412.7 387.3 384 352 384H96zM112 480H144V448H112V480zM208 448H176V480H208V448zM240 480H272V448H240V480zM336 448H304V480H336V448z"/></svg>