<svg xmlns="http://www.w3.org/2000/svg" viewBox="0 0 640 512"><!--! Font Awesome Pro 6.1.1 by @fontawesome - https://fontawesome.com License - https://fontawesome.com/license (Commercial License) Copyright 2022 Fonticons, Inc. --><path d="M320 32c61.76 0 112 50.24 112 112c0 34.85-16.33 65.64-41.37 86.2l25.62 20.22c29.12-26.35 47.75-64.06 47.75-106.4c0-79.53-64.47-143.1-143.1-143.1c-54.45 0-101.3 30.58-125.7 75.16l25.4 20.05C237.9 57.95 275.8 32 320 32zM96 480c0-70.58 57.42-128 128-128h114.3L297.8 320l-73.78 .0006c-88.36 0-160 71.63-160 159.1C63.1 497.7 78.33 512 95.1 512h444.1l-40.53-32H96zM633.9 483.4l-608-480c-6.938-5.453-17-4.25-22.48 2.641c-5.469 6.938-4.281 17 2.641 22.48l608 480C617 510.9 620.5 512 623.1 512c4.734 0 9.422-2.094 12.58-6.078C642 498.1 640.8 488.9 633.9 483.4z"/></svg>