<svg xmlns="http://www.w3.org/2000/svg" viewBox="0 0 640 512"><!--! Font Awesome Pro 6.0.0-beta3 by @fontawesome - https://fontawesome.com License - https://fontawesome.com/license (Commercial License) Copyright 2021 Fonticons, Inc. --><path d="M274.7 304H173.3c-95.73 0-173.3 77.6-173.3 173.3C0 496.5 15.52 512 34.66 512H413.3C432.5 512 448 496.5 448 477.3C448 381.6 370.4 304 274.7 304zM413.3 480H34.66C33.2 480 32 478.8 32 477.3C32 399.4 95.4 336 173.3 336H274.7C352.6 336 416 399.4 416 477.3C416 478.8 414.8 480 413.3 480zM224 256c70.7 0 128-57.31 128-128S294.7 0 224 0C153.3 0 96 57.31 96 128S153.3 256 224 256zM224 32c52.94 0 96 43.06 96 96c0 52.93-43.06 96-96 96S128 180.9 128 128C128 75.06 171.1 32 224 32zM375.1 241C392.9 250.8 412.3 256 432 256C493.8 256 544 205.8 544 144S493.8 32 432 32c-12.83 0-25.39 2.156-37.34 6.391c-8.328 2.953-12.69 12.09-9.734 20.42c2.953 8.344 12.12 12.66 20.42 9.734C413.9 65.53 422.8 64 432 64C476.1 64 512 99.89 512 144S476.1 224 432 224c-14.08 0-27.91-3.703-39.98-10.69c-7.656-4.453-17.44-1.828-21.86 5.828C365.7 226.8 368.3 236.6 375.1 241zM490.7 320H448c-8.844 0-16 7.156-16 16S439.2 352 448 352h42.67C555.4 352 608 404.6 608 469.3C608 475.2 603.2 480 597.3 480H496c-8.844 0-16 7.156-16 16s7.156 16 16 16h101.3C620.9 512 640 492.9 640 469.3C640 386.1 573 320 490.7 320z"/></svg>