<svg xmlns="http://www.w3.org/2000/svg" viewBox="0 0 448 512"><!--! Font Awesome Pro 6.1.1 by @fontawesome - https://fontawesome.com License - https://fontawesome.com/license (Commercial License) Copyright 2022 Fonticons, Inc. --><path d="M96 128C96 57.31 153.3 0 224 0C294.7 0 352 57.31 352 128V144C352 214.7 294.7 272 224 272C153.3 272 96 214.7 96 144V128zM318.7 112H288.6C273.7 112 259.5 106.1 248.1 95.6L242.7 89.33C223.4 113.5 193.1 128 162.3 128H128V144C128 197 170.1 240 224 240C277 240 320 197 320 144V128C320 122.5 319.5 117.2 318.7 112V112zM251.3 52.69L271.6 72.97C276.1 77.47 282.2 80 288.6 80H307.2C290.6 51.31 259.5 32 224 32C182.2 32 146.6 58.71 133.5 96H162.3C189.1 96 213.5 80.97 225.5 57.15C226.3 55.53 227.4 54.02 228.7 52.69C234.9 46.44 245.1 46.44 251.3 52.69L251.3 52.69zM0 481.2C0 383.3 79.33 304 177.2 304H270.8C368.7 304 448 383.3 448 481.2C448 498.2 434.2 512 417.2 512H30.82C13.8 512 .0006 498.2 .0006 481.2H0zM176 370.7C194.6 377.3 208 395.1 208 416C208 442.5 186.5 464 160 464C133.5 464 112 442.5 112 416C112 395.1 125.4 377.3 144 370.7V339.8C80.18 354.7 32.55 411.8 32 480H415.1C415.5 417.6 375.6 364.6 320 344.5V370.7C338.6 377.3 352 395.1 352 416V448C352 456.8 344.8 464 336 464C327.2 464 320 456.8 320 448V416C320 407.2 312.8 400 304 400C295.2 400 288 407.2 288 416V448C288 456.8 280.8 464 272 464C263.2 464 256 456.8 256 448V416C256 395.1 269.4 377.3 288 370.7V337C282.4 336.3 276.6 336 270.8 336H177.2L175.1 336L176 370.7zM160 432C168.8 432 176 424.8 176 416C176 407.2 168.8 400 160 400C151.2 400 144 407.2 144 416C144 424.8 151.2 432 160 432z"/></svg>