<svg xmlns="http://www.w3.org/2000/svg" viewBox="0 0 512 512"><!--! Font Awesome Pro 6.0.0-beta3 by @fontawesome - https://fontawesome.com License - https://fontawesome.com/license (Commercial License) Copyright 2021 Fonticons, Inc. --><path d="M16 32C7.199 32 0 39.2 0 48v416C0 472.8 7.199 480 16 480S32 472.8 32 464v-416C32 39.2 24.8 32 16 32zM496 32C487.2 32 480 39.2 480 48v416c0 8.799 7.199 16 16 16s16-7.201 16-16v-416C512 39.2 504.8 32 496 32zM363.3 148.7c-6.25-6.25-16.38-6.25-22.62 0L256 233.4L171.3 148.7c-6.25-6.25-16.38-6.25-22.62 0s-6.25 16.38 0 22.62L233.4 256l-84.69 84.69c-6.25 6.25-6.25 16.38 0 22.62C151.8 366.4 155.9 368 160 368s8.188-1.562 11.31-4.688L256 278.6l84.69 84.69C343.8 366.4 347.9 368 352 368s8.188-1.562 11.31-4.688c6.25-6.25 6.25-16.38 0-22.62L278.6 256l84.69-84.69C369.6 165.1 369.6 154.9 363.3 148.7z"/></svg>