<svg xmlns="http://www.w3.org/2000/svg" viewBox="0 0 448 512"><!--! Font Awesome Pro 6.1.1 by @fontawesome - https://fontawesome.com License - https://fontawesome.com/license (Commercial License) Copyright 2022 Fonticons, Inc. --><path d="M408 32C430.1 32 448 49.91 448 72V120C448 142.1 430.1 160 408 160H364.3L338.8 202.3C346.9 209.7 352 220.2 352 232V280C352 291.8 346.9 302.3 338.8 309.7L364.3 352H408C430.1 352 448 369.9 448 392V440C448 462.1 430.1 480 408 480H360C337.9 480 320 462.1 320 440V432H128V440C128 462.1 110.1 480 88 480H40C17.91 480 0 462.1 0 440V392C0 369.9 17.91 352 40 352H48V160H40C17.91 160 0 142.1 0 120V72C0 49.91 17.91 32 40 32H88C110.1 32 128 49.91 128 72V80H320V72C320 49.91 337.9 32 360 32H408zM408 64H360C355.6 64 352 67.58 352 72V120C352 124.4 355.6 128 360 128H408C412.4 128 416 124.4 416 120V72C416 67.58 412.4 64 408 64zM307.7 320H264C241.9 320 224 302.1 224 280V232C224 209.9 241.9 192 264 192H307.7L333.1 149.7C325.1 142.3 320 131.8 320 120V112H128V120C128 142.1 110.1 160 88 160H80V352H88C110.1 352 128 369.9 128 392V400H320V392C320 380.2 325.1 369.7 333.2 362.3L307.7 320zM32 392V440C32 444.4 35.58 448 40 448H88C92.42 448 96 444.4 96 440V392C96 387.6 92.42 384 88 384H40C35.58 384 32 387.6 32 392zM352 392V440C352 444.4 355.6 448 360 448H408C412.4 448 416 444.4 416 440V392C416 387.6 412.4 384 408 384H360C355.6 384 352 387.6 352 392zM256 232V280C256 284.4 259.6 288 264 288H312C316.4 288 320 284.4 320 280V232C320 227.6 316.4 224 312 224H264C259.6 224 256 227.6 256 232zM88 64H40C35.58 64 32 67.58 32 72V120C32 124.4 35.58 128 40 128H88C92.42 128 96 124.4 96 120V72C96 67.58 92.42 64 88 64z"/></svg>