<svg xmlns="http://www.w3.org/2000/svg" viewBox="0 0 640 512"><!--! Font Awesome Pro 6.1.1 by @fontawesome - https://fontawesome.com License - https://fontawesome.com/license (Commercial License) Copyright 2022 Fonticons, Inc. --><path d="M464 240h-288C167.2 240 160 247.2 160 256s7.168 16 16 16h288C472.8 272 480 264.8 480 256S472.8 240 464 240zM464 320h-288C167.2 320 160 327.2 160 336S167.2 352 176 352h288c8.832 0 16-7.168 16-16S472.8 320 464 320zM464 160h-288C167.2 160 160 167.2 160 176S167.2 192 176 192h288C472.8 192 480 184.8 480 176S472.8 160 464 160zM592 128H576c0-35.36-28.64-64-64-64H128C92.64 64 64 92.64 64 128H48C21.5 128 0 149.5 0 176v160C0 362.5 21.5 384 48 384H64c0 35.36 28.64 64 64 64h384c35.36 0 64-28.64 64-64h16c26.5 0 48-21.5 48-48v-160C640 149.5 618.5 128 592 128zM64 352H48C39.17 352 32 344.8 32 336v-160C32 167.2 39.17 160 48 160H64V352zM544 384c0 17.66-14.34 32-32 32H128c-17.66 0-32-14.34-32-32V128c0-17.66 14.34-32 32-32h384c17.66 0 32 14.34 32 32V384zM608 336c0 8.832-7.168 16-16 16H576V160h16C600.8 160 608 167.2 608 176V336z"/></svg>