<svg xmlns="http://www.w3.org/2000/svg" viewBox="0 0 640 512"><!--! Font Awesome Pro 6.0.0-beta3 by @fontawesome - https://fontawesome.com License - https://fontawesome.com/license (Commercial License) Copyright 2021 Fonticons, Inc. --><path d="M351.1 64.05C351.1 64.04 351.1 64.05 351.1 64.05l.002 135.6L384 224.1V64c0-12.6-7.337-24.01-18.84-29.16c-4.201-1.895-8.727-2.841-13.16-2.841c-7.697 0-15.29 2.784-21.27 8.1L245.6 115.7L271.2 135.9L351.1 64.05zM480 256c0 12.91-4.529 25.05-11.97 35.3L493 311C504.8 295.2 512 276.2 512 256c0-30.97-15.53-59.86-41.56-77.3c-7.328-4.922-17.28-2.953-22.2 4.391s-2.953 17.28 4.391 22.2C469.8 216.8 480 235.7 480 256zM576 256c0 34.73-11.82 67.81-32.54 94.86l25.07 19.79C593.7 338 608 298 608 256c0-63-31.64-121.8-84.63-157.3c-7.344-4.922-17.28-2.953-22.2 4.391s-2.953 17.28 4.391 22.2C549.7 154.8 576 203.7 576 256zM351.1 447.1L207.1 319.1H112c-8.822 0-16-7.16-16-15.96v-96c0-8.801 7.178-15.96 16-15.96h23.71L98.04 162.3C78.39 168.3 64 186.4 64 208V304c0 26.51 21.49 47.1 48 47.1h83.84l134.9 119.9C336.7 477.2 344.3 480 352 480c4.438 0 8.959-.9312 13.16-2.837C376.7 472 384 460.6 384 448v-59.93l-32.02-25.28L351.1 447.1zM633.9 483.4L25.92 3.42c-6.938-5.453-17-4.25-22.48 2.641c-5.469 6.938-4.281 17 2.641 22.48l608 480C617 510.9 620.5 512 623.1 512c4.734 0 9.422-2.094 12.58-6.078C642 498.1 640.8 488.9 633.9 483.4z"/></svg>