<svg xmlns="http://www.w3.org/2000/svg" viewBox="0 0 384 512"><!--! Font Awesome Pro 6.0.0-beta3 by @fontawesome - https://fontawesome.com License - https://fontawesome.com/license (Commercial License) Copyright 2021 Fonticons, Inc. --><path d="M288.6 269.1L214.2 340.8C201.8 352.8 182.2 352.8 169.8 340.8L95.44 269.1C70.04 244.6 70.04 203.9 95.44 179.5C119.6 156.2 157.8 156.2 181.9 179.5L192 189.2L202.1 179.5C226.2 156.2 264.4 156.2 288.6 179.5C313.1 203.9 313.1 244.6 288.6 269.1H288.6zM192 233.7L159.7 202.5C147.1 191.2 129.4 191.2 117.7 202.5C105.3 214.4 105.3 234.2 117.7 246.1L192 317.8L266.3 246.1C278.7 234.2 278.7 214.4 266.3 202.5C254.6 191.2 236 191.2 224.3 202.5L192 233.7zM64 65.6V48C64 21.49 85.49 0 112 0H272C298.5 0 320 21.49 320 48V65.6C356.5 73.01 384 105.3 384 144V368C384 406.7 356.5 438.1 320 446.4V464C320 490.5 298.5 512 272 512H112C85.49 512 64 490.5 64 464V446.4C27.48 438.1 0 406.7 0 368V144C0 105.3 27.48 73.01 64 65.6zM96 64H288V48C288 39.16 280.8 32 272 32H112C103.2 32 96 39.16 96 48V64zM112 480H272C280.8 480 288 472.8 288 464V448H96V464C96 472.8 103.2 480 112 480zM32 144V368C32 394.5 53.49 416 80 416H304C330.5 416 352 394.5 352 368V144C352 117.5 330.5 96 304 96H80C53.49 96 32 117.5 32 144z"/></svg>