<svg xmlns="http://www.w3.org/2000/svg" viewBox="0 0 384 512"><!--! Font Awesome Pro 6.1.1 by @fontawesome - https://fontawesome.com License - https://fontawesome.com/license (Commercial License) Copyright 2022 Fonticons, Inc. --><path d="M208 247.4L248.9 274.7C256.2 279.6 258.2 289.5 253.3 296.9C248.4 304.2 238.5 306.2 231.1 301.3L183.1 269.3C178.7 266.3 176 261.3 176 256V176C176 167.2 183.2 160 192 160C200.8 160 208 167.2 208 176V247.4zM64 64C64 28.65 92.65 0 128 0H256C291.3 0 320 28.65 320 64V112H318.1C358.9 147.2 384 198.7 384 256C384 313.3 358.9 364.8 318.1 400H320V448C320 483.3 291.3 512 256 512H128C92.65 512 64 483.3 64 448V400H65C25.14 364.8 0 313.3 0 256C0 198.7 25.14 147.2 65 112H64V64zM128 32C110.3 32 96 46.33 96 64V89.69C124.2 73.35 157 64 192 64C226.1 64 259.8 73.35 288 89.69V64C288 46.33 273.7 32 256 32H128zM288 422.3C259.8 438.6 226.1 448 192 448C157 448 124.2 438.6 96 422.3V448C96 465.7 110.3 480 128 480H256C273.7 480 288 465.7 288 448V422.3zM192 96C103.6 96 32 167.6 32 256C32 344.4 103.6 416 192 416C280.4 416 352 344.4 352 256C352 167.6 280.4 96 192 96z"/></svg>