<svg xmlns="http://www.w3.org/2000/svg" viewBox="0 0 512 512"><!--! Font Awesome Pro 6.0.0-beta3 by @fontawesome - https://fontawesome.com License - https://fontawesome.com/license (Commercial License) Copyright 2021 Fonticons, Inc. --><path d="M448 64h-64.75C353.1 25.38 308.1 0 256 0S157.1 25.38 128.8 64H64C28.75 64 0 92.75 0 128v320c0 35.25 28.75 64 64 64h384c35.25 0 64-28.75 64-64V128C512 92.75 483.3 64 448 64zM256 32c70.75 0 128 57.25 128 128s-57.25 128-128 128S128 230.8 128 160S185.2 32 256 32zM480 448c0 17.62-14.38 32-32 32H64c-17.62 0-32-14.38-32-32V128c0-17.62 14.38-32 32-32h45.5C101 115.6 96 137.2 96 160c0 88.25 71.75 160 160 160s160-71.75 160-160c0-22.75-5-44.38-13.5-64H448c17.62 0 32 14.38 32 32V448zM256 256c26.5 0 48-21.5 48-48c0-13.88-6-26.38-15.5-35.12l30.25-70.63c3.375-8-.375-17.5-8.5-21c-8-3.375-17.5 .375-21 8.5L259 160.2C223.6 158 208 188.6 208 208C208 234.5 229.5 256 256 256zM256 192c8.875 0 16 7.125 16 16S264.9 224 256 224S240 216.9 240 208S247.1 192 256 192z"/></svg>