<svg xmlns="http://www.w3.org/2000/svg" viewBox="0 0 640 512"><!--! Font Awesome Pro 6.0.0-beta3 by @fontawesome - https://fontawesome.com License - https://fontawesome.com/license (Commercial License) Copyright 2021 Fonticons, Inc. --><path d="M633.9 483.4L25.92 3.42c-6.938-5.453-17-4.25-22.48 2.641c-5.469 6.938-4.281 17 2.641 22.48l608 480C617 510.9 620.5 512 623.1 512c4.734 0 9.422-2.094 12.58-6.078C642 498.1 640.8 488.9 633.9 483.4zM324.5 365.3c-18.14-18.13-42.24-28.12-67.88-28.12c-6.541 0-12.97 .6855-19.24 1.955c1.342-6.383 2.197-12.88 2.197-19.48c0-25.56-9.977-49.61-28.09-67.73L188.4 228.8C182.1 222.6 173.9 219.4 165.8 219.4S149.4 222.6 143.1 228.8L120.7 251.2C102.6 269.3 92.62 293.4 92.62 319.1c0 25.64 9.988 49.74 28.13 67.88l22.85 22.84l-74.9 74.9C65.56 487.8 64 491.9 64 496C64 505.1 71.47 512 80 512c4.094 0 8.188-1.562 11.31-4.688l74.91-74.44c.0762 .0762-.0762-.0762 0 0l22.85 22.75c18.07 18.07 42.16 28.06 67.76 28.06s49.68-9.988 67.82-28.12l22.44-22.31c6.029-5.994 9.426-14.14 9.438-22.65c.0117-8.504-3.361-16.66-9.375-22.67L324.5 365.3zM166.2 387.2l-22.85-22.84c-12.5-12.5-18.75-28.88-18.75-45.25s6.25-32.75 18.75-45.25l22.38-22.38l23.13 23.12c12.31 12.3 18.72 28.63 18.72 45.1c0 15.02-5.328 30.15-16.37 42.49L166.2 387.2zM302 432.9c-12.5 12.5-28.85 18.75-45.19 18.75c-16.35 0-32.69-6.25-45.2-18.75l-22.75-22.62l22.5-22.38c12.5-12.5 28.88-18.75 45.26-18.75c16.38 0 32.75 6.25 45.26 18.75l22.63 22.62L302 432.9zM336.1 80l22.38-22.5l23.13 23.12c24.38 24.38 25.38 64.13 .625 89.75c-.25 .25-.625 .375-.875 .625l-18 17.1l25.52 20.15L404.1 194c25-25 65.39-25 90.52 0l22.63 22.62l-22.5 22.5c-12.45 12.38-28.71 18.05-44.99 18.09l32.85 25.93c12.65-4.453 24.6-11.31 34.77-21.4L552 228c6.252-6.25 6.252-16.38 0-22.62l-34-34C513.6 167 508.9 163.1 503.8 159.8c14.75-5.25 28.4-12.13 39.27-22.38c26.63-28.75 34.88-75.07 32.63-120.1c-.377-9.25-8.016-16.55-17.27-17.05c-4.25-.125-8.735-.1992-13.36-.1992c-34.26 0-76.95 6.376-105.7 33.13c-10.88 10.88-18.46 24.07-23.59 37.95c-3.125-4.625-6.627-9-10.63-13.12l-34.51-34.38c-6.25-6.25-16.38-6.25-22.63 0L314.4 57.25c-17.5 17.5-26.5 40.13-27.75 63l41.86 39.61C312.4 135.1 315.2 101.7 336.1 80zM461 56.63C482.6 36.5 517.9 32.13 544 32c-.25 36-8.627 65.63-23.63 82.75C498.4 134.4 463.4 138.5 437.6 138.5h-.375C437 112.5 441.3 76.5 461 56.63z"/></svg>