<svg xmlns="http://www.w3.org/2000/svg" viewBox="0 0 512 512"><!--! Font Awesome Pro 6.1.1 by @fontawesome - https://fontawesome.com License - https://fontawesome.com/license (Commercial License) Copyright 2022 Fonticons, Inc. --><path d="M364.2 170.1C381 169.1 397.1 171.3 414 176.9L468.4 122.5C474.6 116.3 484.8 116.3 491 122.5C497.3 128.8 497.3 138.9 491 145.1L444.2 191.1C450.7 196.4 456.1 201.6 462.8 207.4L485.4 229.1C491.6 236.2 491.6 246.4 485.4 252.6L451.5 286.5C434.1 303.9 411.7 313.2 388.9 314.5L394.9 320.5C401.1 326.7 401.1 336.9 394.9 343.1L360.1 377C343.6 394.4 321.2 403.7 298.4 404.1L304.4 410.1C310.6 417.2 310.7 427.4 304.4 433.6L270.5 467.5C233 505 172.2 505 134.7 467.5L100.8 433.6L27.31 507.1C21.07 513.4 10.94 513.4 4.687 507.1C-1.562 500.9-1.562 490.8 4.685 484.5L78.19 410.1L44.28 377.1C6.793 339.6 6.788 278.8 44.27 241.3L78.18 207.4C84.43 201.1 94.56 201.1 100.8 207.4L106.8 213.4C108 190.6 117.4 168.2 134.8 150.8L168.7 116.9C174.9 110.6 185 110.6 191.3 116.9L197.3 122.9C198.5 100.1 207.8 77.69 225.2 60.3L259.1 26.38C265.4 20.13 275.5 20.13 281.8 26.38L304.4 48.97C310.2 54.78 315.3 61 319.8 67.55L366.6 20.71C372.8 14.46 382.1 14.46 389.2 20.71C395.5 26.96 395.5 37.09 389.2 43.34L334.9 97.7C340.4 113.8 342.7 130.7 341.6 147.5L468.4 20.7C474.6 14.45 484.7 14.45 490.1 20.7C497.2 26.95 497.2 37.08 490.1 43.33L364.2 170.1zM191.3 162.1L179.1 150.8L157.4 173.4C132.4 198.4 132.4 238.9 157.4 263.9L191.3 297.9L191.6 297.5C228.8 260 228.6 199.5 191.3 162.1L191.3 162.1zM247.9 173.4L281.8 207.4C319.2 169.9 319.2 109.1 281.7 71.6L270.5 60.32L247.9 82.92C222.9 107.9 222.9 148.4 247.9 173.4L247.9 173.4zM89.5 241.3L66.9 263.9C41.91 288.9 41.91 329.4 66.91 354.4L100.8 388.4C138.3 350.9 138.3 290.1 100.8 252.6L89.5 241.3zM259.2 411C221.7 373.5 160.9 373.5 123.5 410.1L157.4 444.9C182.4 469.9 222.9 469.9 247.9 444.9L270.5 422.3L259.2 411zM349.7 320.5C312.2 283 251.4 283 213.9 320.5L247.8 354.4C272.8 379.4 313.4 379.4 338.3 354.4L360.9 331.8L349.7 320.5zM440.1 230C402.7 192.5 341.9 192.5 304.4 229.1L338.3 263.9C363.3 288.9 403.8 288.9 428.8 263.9L451.4 241.3L440.1 230z"/></svg>