<svg xmlns="http://www.w3.org/2000/svg" viewBox="0 0 640 512"><!--! Font Awesome Pro 6.1.1 by @fontawesome - https://fontawesome.com License - https://fontawesome.com/license (Commercial License) Copyright 2022 Fonticons, Inc. --><path d="M635.6 165C555.7 80.47 440.7 32 320 32s-235.7 48.47-315.6 133c-6.063 6.438-5.781 16.56 .625 22.62C11.43 193.7 21.53 193.4 27.62 187C101.5 108.8 208.1 64 320 64s218.5 44.84 292.4 123C615.5 190.3 619.8 192 624 192c3.938 0 7.906-1.438 11-4.375C641.4 181.6 641.7 171.4 635.6 165zM320 191.1c-77.75 0-150 30.16-203.4 84.85C110.4 283.1 110.5 293.3 116.8 299.4c6.375 6.219 16.5 6.031 22.63-.25C186.8 250.7 250.9 224 320 224s133.2 26.69 180.6 75.19C503.7 302.4 507.8 304 512 304c4.031 0 8.063-1.5 11.19-4.562c6.313-6.156 6.438-16.31 .25-22.62C470 222.1 397.8 191.1 320 191.1zM319.1 351.1c-35.35 0-64 28.66-64 64.01s28.66 64.01 64 64.01s64-28.66 64-64.01S355.3 351.1 319.1 351.1zM320 448c-17.64 0-32-14.36-32-32S302.4 384 320 384s32 14.36 32 32S337.6 448 320 448z"/></svg>