<svg xmlns="http://www.w3.org/2000/svg" viewBox="0 0 512 512"><!--! Font Awesome Pro 6.0.0-beta3 by @fontawesome - https://fontawesome.com License - https://fontawesome.com/license (Commercial License) Copyright 2021 Fonticons, Inc. --><path d="M404.1 395.5l-78.02-163.3C324.2 225.7 324 218.3 326.5 212l64.81-160.7c7.453-19.06-1.875-40.91-20.94-48.72c-16-6.281-34.09-1-44.03 12.97L225.5 156C221.4 161.7 215.4 165.4 208.6 166.5L39.42 193.7C21.14 196.7 7.625 213 8 231.9c.4687 18.75 14.77 34.41 33.27 36.44l167.6 18.41c6.75 .7187 13.14 4.312 17.78 10.19L240 312.9V480h-96C135.2 480 128 487.2 128 496S135.2 512 144 512h224c8.844 0 16-7.156 16-16S376.8 480 368 480h-96v-128.9l69.3 82.74C349.2 443.8 359.1 448 370.3 448c7.234 0 14.22-2.031 19.81-5.531C405.9 432.8 412.3 412.7 404.1 395.5zM373.3 415.3c-.0469-.0313-4 2.406-7.125-1.594L251.5 276.7C241.8 264.5 227.5 256.6 212.3 254.9L44.75 236.5C42.16 236.3 40.06 233.9 40 231.2C39.94 228.3 41.88 225.7 44.5 225.3l169.1-27.16c15.34-2.469 28.8-10.84 37.86-23.53l100.9-140.4c1.016-1.438 2.641-2.219 4.25-2.219c.5938 0 1.188 .125 1.75 .3438c2.859 1.156 4.25 4.469 3.172 7.219l-64.8 160.6c-5.578 14.19-5.281 30.47 1.062 45.28l77.84 162.9C376.6 410.8 375.6 413.8 373.3 415.3zM256 208C247.2 208 239.1 215.2 239.1 224c0 8.836 7.164 16 16 16c8.836 0 15.1-7.164 15.1-16C271.1 215.2 264.8 208 256 208z"/></svg>