<svg xmlns="http://www.w3.org/2000/svg" viewBox="0 0 512 512"><!--! Font Awesome Pro 6.1.1 by @fontawesome - https://fontawesome.com License - https://fontawesome.com/license (Commercial License) Copyright 2022 Fonticons, Inc. --><path d="M384 88C384 74.75 394.7 64 408 64C421.3 64 432 74.75 432 88C432 101.3 421.3 112 408 112C394.7 112 384 101.3 384 88zM422.4 0C471.9 0 512 40.12 512 89.6V356C512 442.2 442.2 512 356 512C269.8 512 200 442.2 200 356V320C200 293.5 178.5 272 152 272C129.9 272 112 289.9 112 312V456C112 486.9 86.93 512 56 512C25.07 512 0 486.9 0 456V312C0 228.1 68.05 160 152 160C240.4 160 312 231.6 312 320V356C312 380.3 331.7 400 356 400C380.3 400 400 380.3 400 356V192L368.9 187.6C322.5 180.9 288 141.2 288 94.25C288 42.2 330.2 0 382.3 0H422.4zM432 356C432 397.1 397.1 432 356 432C314 432 280 397.1 280 356V320C280 249.3 222.7 192 152 192C85.73 192 32 245.7 32 312V456C32 469.3 42.75 480 56 480C69.25 480 80 469.3 80 456V312C80 272.2 112.2 240 152 240C196.2 240 232 275.8 232 320V356C232 424.5 287.5 480 356 480C424.5 480 480 424.5 480 356V89.6C480 57.79 454.2 32 422.4 32H382.3C347.9 32 320 59.87 320 94.25C320 125.2 342.8 151.5 373.4 155.9L432 164.2V356z"/></svg>