<svg xmlns="http://www.w3.org/2000/svg" viewBox="0 0 448 512"><!--! Font Awesome Pro 6.0.0-beta3 by @fontawesome - https://fontawesome.com License - https://fontawesome.com/license (Commercial License) Copyright 2021 Fonticons, Inc. --><path d="M281.9 385.3c-.375 .0938-.75 .2187-1.125 .375L224 406.9l-57.75-21.63C157.1 382.5 147 384.2 139.4 389.9C132.2 395.2 128 403.3 128 412v71.89c0 8.656 4.094 16.69 11.22 22c7.625 5.721 17.69 7.533 28 4.408L224 489.1l57.75 21.63C284.7 511.6 287.6 512 290.6 512c6.438 0 12.81-2.031 18.03-5.908C315.8 500.7 320 492.7 320 483.9v-71.89c0-8.658-4.094-16.69-11.22-22C301.2 384.3 291.1 382.5 281.9 385.3zM288 478.9l-58.38-21.88c-3.626-1.375-7.626-1.375-11.25 0L160 479.7V417.1l58.38 21.88c3.624 1.375 7.624 1.375 11.25 0L288 417.1V478.9zM448 221.9c0-15.44-5.938-30.01-16.31-41.07c5.344-14.1 5.188-29.82-.8438-44.24c-6.062-14.44-17.38-25.69-31.47-31.87c-.3438-15.22-6.281-29.6-17-40.23c-10.72-10.65-25.19-16.56-40.47-16.9c-6.219-14.17-17.59-25.38-32.09-31.28c-14.28-5.965-30.16-6.121-44.44-.7773c-22.25-20.75-60.47-20.78-82.72-.0313c-14.28-5.342-30.09-5.188-44.5 .8086c-14.56 6.088-25.84 17.33-32 31.28c-15.28 .373-29.72 6.275-40.31 16.8C54.97 75.1 48.97 89.51 48.69 104.8C34.5 110.9 23.22 122.2 17.28 136.6c-6 14.2-6.156 29.92-.8125 44.17C5.999 191.8 0 206.4 0 221.9c0 15.41 5.938 29.98 16.31 41.04C10.97 277.1 11.13 292.8 17.16 307.2c6.031 14.26 17.34 25.41 31.5 31.53c.2813 15.44 6.281 29.98 17.16 40.66C68.94 382.5 73 384 77.06 384c4.125 0 8.25-1.584 11.41-4.723c6.188-6.275 6.125-16.34-.1562-22.52c-6.594-6.43-9.094-15.9-6.906-26c.9375-4.256 .0938-8.668-2.344-12.27S72.81 312.5 68.53 311.7C58.41 309.9 50.44 303.8 46.69 294.9C42.94 286.1 44 276 49.47 268.1c2.469-3.512 3.375-7.859 2.562-12.08c-.8438-4.195-3.312-7.891-6.906-10.25C36.91 240.4 32 231.5 32 221.9C32 212.3 36.91 203.5 45.16 198.1c3.594-2.299 6.094-5.965 6.969-10.16c.8438-4.162-.0313-8.512-2.406-12.05C44.19 167.7 43.09 157.7 46.84 148.8c3.688-8.947 11.78-15.28 21.69-17.02c4.281-.7461 8.094-3.199 10.53-6.803s3.281-8.014 2.344-12.27C79.25 102.9 81.75 93.52 88.38 87.03c6.531-6.492 16.09-8.885 26.03-6.896c4.281 .8398 8.719-.0313 12.31-2.422c3.594-2.455 6.031-6.244 6.75-10.53C135.1 57.52 141.5 49.47 150.6 45.68c8.875-3.697 18.97-2.609 27.03 2.857c3.531 2.393 7.875 3.355 12.12 2.455C193.9 50.18 197.7 47.7 200 44.13c10.75-16.28 37.25-16.28 48 0c2.344 3.541 6.031 6.025 10.22 6.865c4.094 .8379 8.531-.0313 12.09-2.393c8.156-5.498 18.34-6.617 27.25-2.857c8.969 3.635 15.38 11.71 17.12 21.56c.75 4.256 3.188 8.014 6.781 10.44c3.625 2.422 8.031 3.262 12.28 2.391c9.969-2.174 19.5 .4355 26 6.928c6.531 6.43 9.031 15.84 6.906 25.75c-.9062 4.225-.0313 8.637 2.406 12.21c2.406 3.604 6.219 6.025 10.5 6.771c9.844 1.74 17.97 8.139 21.75 17.09c3.75 8.945 2.688 18.98-2.781 26.87c-2.469 3.51-3.375 7.889-2.562 12.08c.8438 4.193 3.344 7.889 6.938 10.25C411.1 203.4 416 212.3 416 221.9c0 9.568-4.812 18.45-12.91 23.76c-3.594 2.361-6.062 6.027-6.906 10.22c-.8125 4.193 .0938 8.543 2.531 12.08c5.531 7.953 6.625 18.02 2.969 26.81c-3.75 8.916-11.72 15-21.84 16.78c-4.312 .7129-8.125 3.168-10.56 6.771s-3.282 8.014-2.344 12.27c2.188 10.03-.3438 19.54-6.969 26.06c-6.25 6.213-6.25 16.28-.0313 22.52c6.25 6.213 16.41 6.182 22.66 .0313c10.81-10.75 16.78-25.25 17.06-40.57c14.22-6.121 25.53-17.3 31.56-31.62c5.969-14.32 6.094-30.07 .6875-44.23C442.2 251.8 448 237.3 448 221.9zM309.8 195.4c-.6875-2.219-.8438-4.688-1.094-7.125c-.6875-6.625-1.542-14.69-6.761-22.22c-5.375-7.654-13.21-11.49-18.93-14.21c-2.062-.9687-4.156-1.844-5.844-3.092c-1.156-.875-2.875-2.844-4.531-4.781c-4.188-4.812-9.875-11.4-18.75-14.4c-8.688-2.938-16.75-1.156-23.16 .25c-5 1.062-8.375 1.062-13.38 0C210.8 128.4 202.8 126.9 194.2 129.7C185.3 132.7 179.6 139.2 175.4 143.1C173.8 145.9 172 147.9 170.8 148.8C169.6 149.8 167.2 150.9 164.9 151.1C159.2 154.6 151.5 158.4 146.1 166C140.1 173.5 140 181.7 139.3 188.3c-.25 2.438-.4062 4.906-1.062 7c-.6562 2.029-1.844 3.967-2.969 5.998C132.2 206.9 128.1 214.5 128.1 223.1c0 9.436 4.112 17.12 7.205 22.71c1.125 2.031 2.312 4 2.938 5.906c.6875 2.219 .8438 4.688 1.094 7.125c.6875 6.623 1.562 14.84 6.781 22.37C151.5 289.8 159.3 293.4 165 296.2C167.1 297.1 169.2 298 170.9 299.3c1.156 .875 2.875 2.844 4.531 4.781c4.188 4.811 9.875 11.4 18.75 14.4C197.6 319.6 200.1 320 204.1 320c4.844 0 9.312-.9687 13.19-1.812c5-1.062 8.375-1.062 13.38 0c6.469 1.406 14.5 3.094 23.19 .2187c8.844-2.969 14.53-9.562 18.72-14.37c1.656-1.938 3.375-3.906 4.594-4.844c1.25-.9375 3.625-2.062 5.938-3.156c5.656-2.656 13.4-6.416 18.8-14.1c5.156-7.467 6.042-15.58 6.73-22.2c.25-2.406 .4062-4.844 1.094-7.062c.6562-2.031 1.844-3.938 2.938-5.969c3.094-5.592 7.268-13.27 7.268-22.71c0-9.469-4.174-17.1-7.268-22.69C311.6 199.3 310.4 197.3 309.8 195.4zM279.2 243.1C279.2 243.1 279.2 243 279.2 243.1c-2.352 7.57-2.566 18.69-3.453 20.53c-2 2.24-10.53 4.494-17.81 10c-6.408 4.83-11.64 12.32-13.84 14.34c-1.438 .4687-4.5-.5938-6.656-1.062c-7.938-1.688-18.94-1.688-26.88 0c-2.219 .5-5.531 1.219-6 1.281c-2.645-1.443-7.248-9.088-14.53-14.59C183.7 268.9 173.8 265.4 172.4 263.9C171.2 261.7 171.3 251.1 168.8 243C166.4 235.4 160.1 226.4 160 224c0-2.434 6.275-11.05 8.812-19.15C171.2 197.3 171.4 186.2 172.3 184.4c2-2.238 10.53-4.492 17.81-9.998c6.408-4.83 11.8-12.34 14-14.36c.0938-.0313-.0938 0 0 0c1.344 0 4.469 .6406 6.5 1.078c7.938 1.688 18.94 1.688 26.88 0c2.219-.5 5.531-1.219 6-1.281c2.645 1.441 7.248 9.088 14.53 14.59c6.318 4.68 16.25 8.234 17.59 9.717c1.203 2.215 1.168 12.78 3.656 20.84C281.7 212.8 288 221.6 288 224C287.9 226.4 281.6 235.5 279.2 243.1z"/></svg>