<svg xmlns="http://www.w3.org/2000/svg" viewBox="0 0 320 512"><!--! Font Awesome Pro 6.1.1 by @fontawesome - https://fontawesome.com License - https://fontawesome.com/license (Commercial License) Copyright 2022 Fonticons, Inc. --><path d="M160 220.6L291 38.65C296.2 31.48 306.2 29.85 313.4 35.02C320.5 40.18 322.1 50.18 316.1 57.35L196.1 224H272C280.8 224 288 231.2 288 240C288 248.8 280.8 256 272 256H176V320H272C280.8 320 288 327.2 288 336C288 344.8 280.8 352 272 352H176V464C176 472.8 168.8 480 160 480C151.2 480 144 472.8 144 464V352H48C39.16 352 32 344.8 32 336C32 327.2 39.16 320 48 320H144V256H48C39.16 256 32 248.8 32 240C32 231.2 39.16 224 48 224H123L3.017 57.35C-2.147 50.18-.5187 40.18 6.652 35.02C13.82 29.85 23.82 31.48 28.99 38.65L160 220.6z"/></svg>