<svg xmlns="http://www.w3.org/2000/svg" viewBox="0 0 576 512"><!--! Font Awesome Pro 6.1.1 by @fontawesome - https://fontawesome.com License - https://fontawesome.com/license (Commercial License) Copyright 2022 Fonticons, Inc. --><defs><style>.fa-secondary{opacity:.4}</style></defs><path class="fa-primary" d="M288 368C288 288.5 352.5 224 432 224C511.5 224 576 288.5 576 368C576 447.5 511.5 512 432 512C352.5 512 288 447.5 288 368zM432 480C462.2 480 489.5 468.1 509.7 448.7C503.5 429.7 485.6 416 464.6 416H399.4C378.4 416 360.5 429.7 354.3 448.7C374.5 468.1 401.8 480 432 480V480zM432 384C458.5 384 480 362.5 480 336C480 309.5 458.5 288 432 288C405.5 288 384 309.5 384 336C384 362.5 405.5 384 432 384z"/><path class="fa-secondary" d="M384 32C419.3 32 448 60.65 448 96V192.7C442.7 192.2 437.4 192 432 192C411.9 192 392.5 195.4 374.5 201.6C352.3 140 293.3 96 223.1 96C135.6 96 63.1 167.6 63.1 256C63.1 344.4 135.6 416 223.1 416C236.9 416 249.4 414.5 261.4 411.6C267.9 437.1 279.1 460.3 296.2 480H64C28.65 480 0 451.3 0 416V96C0 60.65 28.65 32 64 32H384zM255.1 256C255.1 273.7 241.7 288 223.1 288C206.3 288 191.1 273.7 191.1 256C191.1 238.3 206.3 224 223.1 224C241.7 224 255.1 238.3 255.1 256z"/></svg>