<svg xmlns="http://www.w3.org/2000/svg" viewBox="0 0 576 512"><!--! Font Awesome Pro 6.1.1 by @fontawesome - https://fontawesome.com License - https://fontawesome.com/license (Commercial License) Copyright 2022 Fonticons, Inc. --><defs><style>.fa-secondary{opacity:.4}</style></defs><path class="fa-primary" d="M576 368C576 447.5 511.5 512 432 512C352.5 512 288 447.5 288 368C288 288.5 352.5 224 432 224C511.5 224 576 288.5 576 368zM416 303.1V351.1H368C359.2 351.1 352 359.2 352 367.1C352 376.8 359.2 383.1 368 383.1H416V431.1C416 440.8 423.2 447.1 432 447.1C440.8 447.1 448 440.8 448 431.1V383.1H496C504.8 383.1 512 376.8 512 367.1C512 359.2 504.8 351.1 496 351.1H448V303.1C448 295.2 440.8 287.1 432 287.1C423.2 287.1 416 295.2 416 303.1z"/><path class="fa-secondary" d="M384 32C419.3 32 448 60.65 448 96V192.7C442.7 192.2 437.4 192 432 192C411.9 192 392.5 195.4 374.5 201.6C352.3 140 293.3 96 223.1 96C135.6 96 63.1 167.6 63.1 256C63.1 344.4 135.6 416 223.1 416C236.9 416 249.4 414.5 261.4 411.6C267.9 437.1 279.1 460.3 296.2 480H64C28.65 480 0 451.3 0 416V96C0 60.65 28.65 32 64 32H384zM255.1 256C255.1 273.7 241.7 288 223.1 288C206.3 288 191.1 273.7 191.1 256C191.1 238.3 206.3 224 223.1 224C241.7 224 255.1 238.3 255.1 256z"/></svg>