<svg xmlns="http://www.w3.org/2000/svg" viewBox="0 0 512 512"><!--! Font Awesome Pro 6.1.1 by @fontawesome - https://fontawesome.com License - https://fontawesome.com/license (Commercial License) Copyright 2022 Fonticons, Inc. --><defs><style>.fa-secondary{opacity:.4}</style></defs><path class="fa-primary" d="M187.6 502.5L274.5 352H18.78C48.38 425.1 110.7 481.2 187.6 502.5zM76.69 73.42l86.93 150.6l127.7-221.3C279.8 1.119 268 0 256 0C186.1 0 122.9 28.05 76.69 73.42zM503.6 192h-173.7l127.8 221.3C491.6 369.9 512 315.4 512 256C512 233.9 508.9 212.5 503.6 192z"/><path class="fa-secondary" d="M0 256c0 22.14 3.105 43.51 8.391 64h173.7l-127.8-221.3C20.4 142.1 0 196.6 0 256zM324.4 9.523L237.5 160h255.7C463.6 86.94 401.3 30.83 324.4 9.523zM220.6 509.3C232.2 510.9 243.1 512 256 512c69.86 0 133.1-28.05 179.3-73.42l-86.93-150.6L220.6 509.3z"/></svg>