<svg xmlns="http://www.w3.org/2000/svg" viewBox="0 0 512 512"><!--! Font Awesome Pro 6.1.1 by @fontawesome - https://fontawesome.com License - https://fontawesome.com/license (Commercial License) Copyright 2022 Fonticons, Inc. --><defs><style>.fa-secondary{opacity:.4}</style></defs><path class="fa-primary" d="M137.4 438.6c12.5 12.5 32.75 12.5 45.25 0C188.9 432.4 192 424.2 192 415.1s-3.125-16.38-9.375-22.62L77.25 287.1L182.6 182.6c12.5-12.5 12.5-32.75 0-45.25s-32.75-12.5-45.25 0l-128 127.1c-12.5 12.5-12.5 32.75 0 45.25L137.4 438.6z"/><path class="fa-secondary" d="M77.25 287.1l32-31.1H432C440.8 256 448 248.8 448 240V64c0-17.67 14.31-32 32-32s32 14.33 32 32v176c0 44.11-35.88 80-80 80H109.3L77.25 287.1z"/></svg>