<svg xmlns="http://www.w3.org/2000/svg" viewBox="0 0 512 512"><!--! Font Awesome Pro 6.0.0-beta3 by @fontawesome - https://fontawesome.com License - https://fontawesome.com/license (Commercial License) Copyright 2021 Fonticons, Inc. --><defs><style>.fa-secondary{opacity:.4}</style></defs><path class="fa-primary" d="M342.6 278.6l-128 128c-12.5 12.5-32.75 12.5-45.25 0s-12.5-32.75 0-45.25L242.8 288H32C14.31 288 0 273.7 0 256s14.31-32 32-32h210.8L169.4 150.6c-12.5-12.5-12.5-32.75 0-45.25c12.49-12.49 32.74-12.51 45.25 0l128 128C355.1 245.9 355.1 266.1 342.6 278.6z"/><path class="fa-secondary" d="M416 32h-64c-17.67 0-32 14.33-32 32s14.33 32 32 32h64c17.67 0 32 14.33 32 32v256c0 17.67-14.33 32-32 32h-64c-17.67 0-32 14.33-32 32s14.33 32 32 32h64c53.02 0 96-42.98 96-96V128C512 74.98 469 32 416 32z"/></svg>