<svg xmlns="http://www.w3.org/2000/svg" viewBox="0 0 512 512"><!--! Font Awesome Pro 6.1.1 by @fontawesome - https://fontawesome.com License - https://fontawesome.com/license (Commercial License) Copyright 2022 Fonticons, Inc. --><defs><style>.fa-secondary{opacity:.4}</style></defs><path class="fa-primary" d="M18.38 183.3C5.35 171.3 4.475 151.1 16.41 138L104.4 41.94c12.12-13.26 35.06-13.26 47.19 0l87.1 96.09c11.94 13.05 11.06 33.31-1.969 45.27C224.6 195.2 204.4 194.3 192.4 181.3L160 145.9v302c0 17.7-14.33 32.03-32 32.03S96 465.7 96 447.1V145.9L63.6 181.3c-6.312 6.883-14.94 10.38-23.61 10.38C32.27 191.7 24.52 188.9 18.38 183.3z"/><path class="fa-secondary" d="M320 192c0 17.69 14.31 31.1 32 31.1L416 224c17.69 0 32-14.31 32-32s-14.31-32-32-32V63.98c0-11.19-5.844-21.53-15.38-27.34c-9.531-5.781-21.41-6.188-31.34-1.062l-32 16.59c-15.69 8.125-21.81 27.44-13.69 43.13C329.3 106.3 340.4 112.6 352 112.6V160C334.3 160 320 174.3 320 192zM392 255.6c-48.6 0-88 39.4-88 88c0 36.44 22.15 67.7 53.71 81.07l-7.682 8.004c-10.72 11.16-10.34 28.88 .8125 39.56C356.3 477.4 363.3 480 370.2 480c7.344 0 14.72-2.875 20.19-8.625c69.61-72.53 89.6-85.39 89.6-127.8C480 294.1 440.6 255.6 392 255.6zM392 367.6c-13.23 0-24-10.77-24-24s10.77-24 24-24s24 10.77 24 24S405.2 367.6 392 367.6z"/></svg>