<svg xmlns="http://www.w3.org/2000/svg" viewBox="0 0 448 512"><!--! Font Awesome Pro 6.1.1 by @fontawesome - https://fontawesome.com License - https://fontawesome.com/license (Commercial License) Copyright 2022 Fonticons, Inc. --><defs><style>.fa-secondary{opacity:.4}</style></defs><path class="fa-primary" d="M73.38 185.4C79.63 179.1 87.81 175.1 96 175.1s16.38 3.125 22.62 9.375L192 258.7V79.1c0-17.69 14.31-32 32-32s32 14.31 32 32V258.7l73.38-73.38c12.5-12.5 32.75-12.5 45.25 0s12.5 32.75 0 45.25l-128 128c-12.5 12.5-32.75 12.5-45.25 0l-128-128C60.88 218.1 60.88 197.9 73.38 185.4z"/><path class="fa-secondary" d="M32 416c-17.67 0-32 14.33-32 32s14.33 32 32 32s32-14.33 32-32S49.67 416 32 416zM128 416c-17.67 0-32 14.33-32 32s14.33 32 32 32s32-14.33 32-32S145.7 416 128 416zM224 416c-17.67 0-32 14.33-32 32s14.33 32 32 32s32-14.33 32-32S241.7 416 224 416zM320 416c-17.67 0-32 14.33-32 32s14.33 32 32 32s32-14.33 32-32S337.7 416 320 416zM416 416c-17.67 0-32 14.33-32 32s14.33 32 32 32s32-14.33 32-32S433.7 416 416 416z"/></svg>