<svg xmlns="http://www.w3.org/2000/svg" viewBox="0 0 448 512"><!--! Font Awesome Pro 6.0.0-beta3 by @fontawesome - https://fontawesome.com License - https://fontawesome.com/license (Commercial License) Copyright 2021 Fonticons, Inc. --><defs><style>.fa-secondary{opacity:.4}</style></defs><path class="fa-primary" d="M246.6 9.375l128 128c12.5 12.5 12.5 32.75 0 45.25s-32.75 12.5-45.25 0L256 109.3V320c0 17.69-14.31 32-32 32s-32-14.31-32-32V109.3L118.6 182.6c-12.5 12.5-32.75 12.5-45.25 0c-12.49-12.49-12.51-32.74 0-45.25l128-128C213.9-3.125 234.1-3.125 246.6 9.375z"/><path class="fa-secondary" d="M384 352v64c0 17.67-14.33 32-32 32H96c-17.67 0-32-14.33-32-32v-64c0-17.67-14.33-32-32-32s-32 14.33-32 32v64c0 53.02 42.98 96 96 96h256c53.02 0 96-42.98 96-96v-64c0-17.67-14.33-32-32-32S384 334.3 384 352z"/></svg>