<svg xmlns="http://www.w3.org/2000/svg" viewBox="0 0 512 512"><!--! Font Awesome Pro 6.1.1 by @fontawesome - https://fontawesome.com License - https://fontawesome.com/license (Commercial License) Copyright 2022 Fonticons, Inc. --><defs><style>.fa-secondary{opacity:.4}</style></defs><path class="fa-primary" d="M320 384c0-8.188 3.125-16.38 9.375-22.62L434.8 256l-105.4-105.4c-12.5-12.5-12.5-32.75 0-45.25s32.75-12.5 45.25 0l128 128c12.5 12.5 12.5 32.75 0 45.25l-128 128c-12.5 12.5-32.75 12.5-45.25 0C323.1 400.4 320 392.2 320 384z"/><path class="fa-secondary" d="M402.8 288H32C14.31 288 0 273.7 0 255.1S14.31 224 32 224h370.8l32 32L402.8 288z"/></svg>