<svg xmlns="http://www.w3.org/2000/svg" viewBox="0 0 512 512"><!--! Font Awesome Pro 6.0.0-beta3 by @fontawesome - https://fontawesome.com License - https://fontawesome.com/license (Commercial License) Copyright 2021 Fonticons, Inc. --><defs><style>.fa-secondary{opacity:.4}</style></defs><path class="fa-primary" d="M216 191.7c-8.672 0-17.3-3.5-23.61-10.38L160 145.9v302c0 17.7-14.33 32.03-32 32.03S96 465.7 96 447.1V145.9L63.6 181.3C51.64 194.3 31.39 195.2 18.38 183.3C5.35 171.3 4.475 151.1 16.41 138L104.4 41.94c12.12-13.26 35.06-13.26 47.19 0l87.1 96.09c11.94 13.05 11.06 33.31-1.969 45.27C231.5 188.9 223.7 191.7 216 191.7z"/><path class="fa-secondary" d="M357.7 201.1l-7.682 8.004c-10.72 11.16-10.34 28.88 .8125 39.56c5.406 5.219 12.41 7.812 19.38 7.812c7.344 0 14.72-2.875 20.19-8.625c69.61-72.53 89.6-85.39 89.6-127.8c0-48.6-39.4-88-88-88s-88 39.4-88 88C303.1 156.4 326.1 187.7 357.7 201.1zM392 96c13.23 0 24 10.77 24 24S405.2 144 392 144S368 133.2 368 120S378.8 96 392 96zM416 416.4v-96.02c0-11.19-5.844-21.53-15.38-27.34c-9.531-5.781-21.41-6.188-31.34-1.062l-32 16.59c-15.69 8.125-21.81 27.44-13.69 43.13C329.3 362.8 340.4 369 352 369v47.41c-17.69 0-32 14.31-32 32s14.31 32 32 32h64c17.69 0 32-14.31 32-32S433.7 416.4 416 416.4z"/></svg>