<svg xmlns="http://www.w3.org/2000/svg" viewBox="0 0 576 512"><!--! Font Awesome Pro 6.0.0-beta3 by @fontawesome - https://fontawesome.com License - https://fontawesome.com/license (Commercial License) Copyright 2021 Fonticons, Inc. --><defs><style>.fa-secondary{opacity:.4}</style></defs><path class="fa-primary" d="M239.6 138c11.94 13.05 11.06 33.31-1.969 45.27C224.6 195.3 204.4 194.3 192.4 181.3L160 145.9v302C160 465.7 145.7 480 128 480S96 465.7 96 447.1V145.9L63.6 181.3c-6.312 6.883-14.94 10.39-23.61 10.39c-7.719 0-15.47-2.785-21.61-8.414C5.35 171.4 4.475 151.1 16.41 138l87.1-96.09c12.12-13.26 35.06-13.26 47.19 0L239.6 138z"/><path class="fa-secondary" d="M544 416h-223.1c-17.67 0-32 14.33-32 32s14.33 32 32 32H544c17.67 0 32-14.33 32-32S561.7 416 544 416zM320 96h32c17.67 0 31.1-14.33 31.1-32s-14.33-32-31.1-32h-32c-17.67 0-32 14.33-32 32S302.3 96 320 96zM320 224H416c17.67 0 32-14.33 32-32s-14.33-32-32-32h-95.1c-17.67 0-32 14.33-32 32S302.3 224 320 224zM320 352H480c17.67 0 32-14.33 32-32s-14.33-32-32-32h-159.1c-17.67 0-32 14.33-32 32S302.3 352 320 352z"/></svg>