<svg xmlns="http://www.w3.org/2000/svg" viewBox="0 0 512 512"><!--! Font Awesome Pro 6.1.1 by @fontawesome - https://fontawesome.com License - https://fontawesome.com/license (Commercial License) Copyright 2022 Fonticons, Inc. --><defs><style>.fa-secondary{opacity:.4}</style></defs><path class="fa-primary" d="M274.5 220.2c3.242 7.84 9.479 14.08 17.32 17.32C295.7 239.2 299.8 240 304 240h128c17.69 0 32-14.31 32-32s-14.31-32-32-32h-50.75l121.4-121.4c12.5-12.5 12.5-32.75 0-45.25c-12.49-12.49-32.74-12.51-45.25 0L336 130.8V80c0-17.69-14.31-32-32-32s-32 14.31-32 32v127.1C272 212.2 272.8 216.3 274.5 220.2z"/><path class="fa-secondary" d="M54.63 502.6L176 381.3V432c0 17.69 14.31 32 32 32s32-14.31 32-32v-128c0-4.164-.8477-8.312-2.465-12.22C234.3 283.9 228.1 277.7 220.2 274.5C216.3 272.8 212.2 272 208 272h-128c-17.69 0-32 14.31-32 32s14.31 32 32 32h50.75l-121.4 121.4c-12.5 12.5-12.5 32.75 0 45.25S42.13 515.1 54.63 502.6z"/></svg>