<svg xmlns="http://www.w3.org/2000/svg" viewBox="0 0 320 512"><!--! Font Awesome Pro 6.0.0-beta3 by @fontawesome - https://fontawesome.com License - https://fontawesome.com/license (Commercial License) Copyright 2021 Fonticons, Inc. --><defs><style>.fa-secondary{opacity:.4}</style></defs><path class="fa-primary" d="M318.4 304.5c-3.531 9.344-12.47 15.52-22.45 15.52H143.9L42.28 439.5c-4.641 5.469-11.37 8.453-18.28 8.453c-2.781 0-5.578-.4844-8.281-1.469C6.281 443.1 0 434.1 0 423.1V56.02c0-9.438 5.531-18.03 14.12-21.91C22.75 30.26 32.83 31.77 39.87 37.99l271.1 240C319.4 284.6 321.1 295.1 318.4 304.5z"/><path class="fa-secondary" d="M236.1 414.8c9.495 19.94 1.031 43.81-18.91 53.31c-19.95 9.504-43.82 1.035-53.32-18.91L117.3 351.3L143.9 319.1h47.09L236.1 414.8z"/></svg>