<svg xmlns="http://www.w3.org/2000/svg" viewBox="0 0 512 512"><!--! Font Awesome Pro 6.0.0-beta3 by @fontawesome - https://fontawesome.com License - https://fontawesome.com/license (Commercial License) Copyright 2021 Fonticons, Inc. --><defs><style>.fa-secondary{opacity:.4}</style></defs><path class="fa-primary" d="M182.6 406.6c-12.5 12.5-32.75 12.5-45.25 0l-128-128c-12.5-12.5-12.5-32.75 0-45.25l128-128c12.5-12.5 32.75-12.5 45.25 0s12.5 32.75 0 45.25L77.25 256l105.4 105.4C188.9 367.6 192 375.8 192 384S188.9 400.4 182.6 406.6z"/><path class="fa-secondary" d="M77.25 256l32-32H480c17.69 0 32 14.31 32 32s-14.31 32-32 32H109.3L77.25 256z"/></svg>