<svg xmlns="http://www.w3.org/2000/svg" viewBox="0 0 512 512"><!--! Font Awesome Pro 6.0.0-beta3 by @fontawesome - https://fontawesome.com License - https://fontawesome.com/license (Commercial License) Copyright 2021 Fonticons, Inc. --><defs><style>.fa-secondary{opacity:.4}</style></defs><path class="fa-primary" d="M496 48V192c0 17.69-14.33 32-32 32h-128c-17.67 0-32-14.31-32-32s14.33-32 32-32h44.38C352.3 120.5 306.5 96 256 96C189.4 96 130.9 138.5 110.5 201.8C105.1 218.6 87.08 227.9 70.19 222.4c-16.81-5.406-26.05-23.47-20.61-40.28C78.59 92.34 161.5 32 256 32c71.36 0 136.1 34.52 176 90.09V48c0-17.69 14.33-32 32-32S496 30.31 496 48z"/><path class="fa-secondary" d="M462.4 329.8C433.4 419.7 350.4 480 255.1 480C184.6 480 119.9 445.5 80 389.9V464c0 17.69-14.33 32-32 32s-32-14.31-32-32V320c0-17.69 14.33-32 32-32h128c17.67 0 32 14.31 32 32s-14.33 32-32 32H131.6C159.7 391.5 205.5 416 256 416c66.58 0 125.1-42.53 145.5-105.8c5.422-16.78 23.38-26.03 40.3-20.59C458.6 294.1 467.9 313 462.4 329.8z"/></svg>