<svg xmlns="http://www.w3.org/2000/svg" viewBox="0 0 512 512"><!--! Font Awesome Pro 6.0.0-beta3 by @fontawesome - https://fontawesome.com License - https://fontawesome.com/license (Commercial License) Copyright 2021 Fonticons, Inc. --><defs><style>.fa-secondary{opacity:.4}</style></defs><path class="fa-primary" d="M374.6 438.6C362.1 451.1 341.9 451.1 329.4 438.6C323.1 432.4 320 424.2 320 416C320 407.8 323.1 399.6 329.4 393.4L434.7 288L329.4 182.6C316.9 170.1 316.9 149.9 329.4 137.4C341.9 124.9 362.1 124.9 374.6 137.4L502.6 265.4C515.1 277.9 515.1 298.1 502.6 310.6L374.6 438.6z"/><path class="fa-secondary" d="M402.7 320H80C35.87 320 0 284.1 0 240V64C0 46.33 14.31 32 32 32C49.69 32 64 46.33 64 64V240C64 248.8 71.19 256 80 256H402.7L434.7 287.1L402.7 320z"/></svg>