<svg xmlns="http://www.w3.org/2000/svg" viewBox="0 0 512 512"><!--! Font Awesome Pro 6.1.1 by @fontawesome - https://fontawesome.com License - https://fontawesome.com/license (Commercial License) Copyright 2022 Fonticons, Inc. --><defs><style>.fa-secondary{opacity:.4}</style></defs><path class="fa-primary" d="M319.5 264.7c0 60.74-58.63 119.3-119.1 119.3c-54.51 0-72.49-43.59-72.49-72.66c0-60.75 58.64-119.3 119.1-119.3C301.5 191.1 319.5 235.6 319.5 264.7z"/><path class="fa-secondary" d="M371.5-.0006c-39.21 0-78.72 15.74-108.1 45.17C232.4 76.31 192.1 97.3 150.6 108.9c-35.27 9.666-150.6 61.92-150.6 197.8c0 113.4 92.35 205.3 205.1 205.3c52.37 0 104.7-20.04 144.7-60.13c67.65-67.86 42.56-130 115.1-203.7l4.357-4.371c27.94-28.03 41.91-64.77 41.91-101.5C512 70.27 455.6-.0006 371.5-.0006zM200.4 383.1c-54.51 0-72.49-43.58-72.49-72.66c0-60.75 58.64-119.3 119.1-119.3c54.52 0 72.5 43.59 72.5 72.66C319.5 325.4 260.9 383.1 200.4 383.1z"/></svg>