<svg xmlns="http://www.w3.org/2000/svg" viewBox="0 0 512 512"><!--! Font Awesome Pro 6.0.0-beta3 by @fontawesome - https://fontawesome.com License - https://fontawesome.com/license (Commercial License) Copyright 2021 Fonticons, Inc. --><defs><style>.fa-secondary{opacity:.4}</style></defs><path class="fa-primary" d="M64 227.9l171.5-156.5C256.1 54.28 288 68.66 288 96.03v131.9l171.5-156.5C480.1 54.28 512 68.66 512 96.03v319.9c0 27.37-31.88 41.74-52.5 24.62L288 285.2v130.7c0 27.37-31.88 41.74-52.5 24.62L64 285.2V227.9z"/><path class="fa-secondary" d="M0 415.1V96.03c0-17.67 14.33-31.1 31.1-31.1C49.67 64.03 64 78.36 64 96.03v319.9c0 17.67-14.33 31.1-31.1 31.1C14.33 447.1 0 433.6 0 415.1z"/></svg>