<svg xmlns="http://www.w3.org/2000/svg" viewBox="0 0 384 512"><!--! Font Awesome Pro 6.0.0-beta3 by @fontawesome - https://fontawesome.com License - https://fontawesome.com/license (Commercial License) Copyright 2021 Fonticons, Inc. --><defs><style>.fa-secondary{opacity:.4}</style></defs><path class="fa-primary" d="M384 192c0-106-85.96-192-192-192S0 85.96 0 192c0 84.42 101.3 196.4 158.8 238.7l-29.07 58.14c-2.469 4.969-2.219 10.84 .6875 15.56C133.3 509.1 138.5 512 144 512h96c5.531 0 10.69-2.875 13.62-7.594c2.906-4.719 3.156-10.59 .6875-15.56l-29.07-58.14C282.7 388.4 384 276.4 384 192zM176 96C131.9 96 96 131.9 96 176C96 184.8 88.84 192 80 192S64 184.8 64 176C64 114.3 114.3 64 176 64C184.8 64 192 71.16 192 80S184.8 96 176 96z"/><path class="fa-secondary" d="M176 96C131.9 96 96 131.9 96 176C96 184.8 88.84 192 80 192S64 184.8 64 176C64 114.3 114.3 64 176 64C184.8 64 192 71.16 192 80S184.8 96 176 96z"/></svg>