<svg xmlns="http://www.w3.org/2000/svg" viewBox="0 0 640 512"><!--! Font Awesome Pro 6.0.0-beta3 by @fontawesome - https://fontawesome.com License - https://fontawesome.com/license (Commercial License) Copyright 2021 Fonticons, Inc. --><defs><style>.fa-secondary{opacity:.4}</style></defs><path class="fa-primary" d="M160 416h32V96H160V416zM448 96v320h32V96H448z"/><path class="fa-secondary" d="M192 416h256V96H192V416zM368 184c13.31 0 24 10.7 24 24s-10.69 24-24 24s-24-10.7-24-24S354.7 184 368 184zM368 280c13.31 0 24 10.7 24 24s-10.69 24-24 24s-24-10.7-24-24S354.7 280 368 280zM272 184c13.31 0 24 10.7 24 24S285.3 232 272 232S248 221.3 248 208S258.7 184 272 184zM272 280c13.31 0 24 10.7 24 24s-10.69 24-24 24S248 317.3 248 304S258.7 280 272 280zM0 160v192c0 35.3 28.69 64 64 64h96V96H64C28.69 96 0 124.7 0 160zM576 96h-96v320h96c35.31 0 64-28.7 64-64V160C640 124.7 611.3 96 576 96z"/></svg>