<svg xmlns="http://www.w3.org/2000/svg" viewBox="0 0 640 512"><!--! Font Awesome Pro 6.0.0-beta3 by @fontawesome - https://fontawesome.com License - https://fontawesome.com/license (Commercial License) Copyright 2021 Fonticons, Inc. --><defs><style>.fa-secondary{opacity:.4}</style></defs><path class="fa-primary" d="M360 352H320v-32h32V224c0-17.67-14.33-32-32-32H64C46.33 192 32 206.3 32 224v96h32v32H24C10.75 352 0 362.7 0 376v16C0 405.3 10.75 416 24 416H32v64c0 17.69 14.31 32 32 32s32-14.31 32-32v-64h192v64c0 17.69 14.31 32 32 32s32-14.31 32-32v-64h8c13.25 0 24-10.75 24-24v-16C384 362.7 373.3 352 360 352zM288 352H96v-32h192V352z"/><path class="fa-secondary" d="M640 176C640 220.2 604.2 256 560 256H544v224c0 17.69-14.31 32-32 32s-32-14.31-32-32V256h-16C419.8 256 384 220.2 384 176c0-26.8 13.29-50.38 33.52-64.89C416.7 106.2 416 101.2 416 96c0-53.02 42.98-96 96-96s96 42.98 96 96c0 5.174-.7363 10.15-1.523 15.11C626.7 125.6 640 149.2 640 176z"/></svg>