<svg xmlns="http://www.w3.org/2000/svg" viewBox="0 0 640 512"><!--! Font Awesome Pro 6.1.1 by @fontawesome - https://fontawesome.com License - https://fontawesome.com/license (Commercial License) Copyright 2022 Fonticons, Inc. --><defs><style>.fa-secondary{opacity:.4}</style></defs><path class="fa-primary" d="M5.112 9.196C13.29-1.236 28.37-3.065 38.81 5.112L630.8 469.1C641.2 477.3 643.1 492.4 634.9 502.8C626.7 513.2 611.6 515.1 601.2 506.9L9.196 42.89C-1.236 34.71-3.065 19.63 5.112 9.196V9.196z"/><path class="fa-secondary" d="M399.7 288H448C483.3 288 512 316.7 512 352V375.1L399.7 288zM236.4 160H255.1V64H191.1V125.2L127.1 75.02V64C127.1 28.65 156.7 0 191.1 0H255.1C291.3 0 319.1 28.65 319.1 64V160C319.1 179.3 311.5 196.5 298 208.3L236.4 160zM464 160H480C497.7 160 512 174.3 512 192C512 209.7 497.7 224 480 224H384C366.3 224 352 209.7 352 192C352 174.3 366.3 160 384 160H400V76.4L394.1 78.36C377.4 83.95 359.2 74.89 353.6 58.12C348.1 41.35 357.1 23.23 373.9 17.64L421.9 1.643C431.6-1.61 442.4 .0262 450.7 6.041C459.1 12.06 464 21.71 464 32L464 160zM239.1 448H255.1C273.7 448 287.1 462.3 287.1 480C287.1 497.7 273.7 512 255.1 512H159.1C142.3 512 127.1 497.7 127.1 480C127.1 462.3 142.3 448 159.1 448H175.1V364.4L170.1 366.4C153.4 371.9 135.2 362.9 129.6 346.1C124.1 329.4 133.1 311.2 149.9 305.6L197.9 289.6C207.6 286.4 218.4 288 226.7 294C235.1 300.1 240 309.7 240 320L239.1 448zM319.1 352C319.1 350.7 320 349.5 320.1 348.2L384 398.5V448H446.8L497.8 488.2C486.1 502.7 468.1 512 448 512H384C348.7 512 319.1 483.3 319.1 448V352z"/></svg>