<svg xmlns="http://www.w3.org/2000/svg" viewBox="0 0 384 512"><!--! Font Awesome Pro 6.1.1 by @fontawesome - https://fontawesome.com License - https://fontawesome.com/license (Commercial License) Copyright 2022 Fonticons, Inc. --><defs><style>.fa-secondary{opacity:.4}</style></defs><path class="fa-primary" d="M336 160H352C369.7 160 384 174.3 384 192C384 209.7 369.7 224 352 224H256C238.3 224 224 209.7 224 192C224 174.3 238.3 160 256 160H272V76.4L266.1 78.36C249.4 83.95 231.2 74.89 225.6 58.12C220.1 41.35 229.1 23.23 245.9 17.64L293.9 1.642C303.6-1.61 314.4 .0261 322.7 6.04C331.1 12.05 336 21.71 336 32L336 160zM111.1 448H127.1C145.7 448 159.1 462.3 159.1 480C159.1 497.7 145.7 512 127.1 512H31.1C14.33 512-.0003 497.7-.0003 480C-.0003 462.3 14.33 448 31.1 448H47.1V364.4L42.12 366.4C25.35 371.9 7.231 362.9 1.642 346.1C-3.947 329.4 5.114 311.2 21.88 305.6L69.88 289.6C79.64 286.4 90.37 288 98.71 294C107.1 300.1 112 309.7 112 320L111.1 448z"/><path class="fa-secondary" d="M128 0C163.3 0 192 28.65 192 64V160C192 195.3 163.3 224 128 224H64C28.65 224 0 195.3 0 160V64C0 28.65 28.65 0 64 0H128zM64 160H128V64H64V160zM320 288C355.3 288 384 316.7 384 352V448C384 483.3 355.3 512 320 512H256C220.7 512 192 483.3 192 448V352C192 316.7 220.7 288 256 288H320zM256 448H320V352H256V448z"/></svg>