<svg xmlns="http://www.w3.org/2000/svg" viewBox="0 0 320 512"><!--! Font Awesome Pro 6.0.0-beta3 by @fontawesome - https://fontawesome.com License - https://fontawesome.com/license (Commercial License) Copyright 2021 Fonticons, Inc. --><defs><style>.fa-secondary{opacity:.4}</style></defs><path class="fa-primary" d="M0 101.6C0 80.82 16.82 64 37.57 64H176C237.9 64 288 114.1 288 176C288 200.2 280.3 222.6 267.3 240.9C298.9 260.7 320 295.9 320 336C320 397.9 269.9 448 208 448H41.74C18.69 448 0 429.3 0 406.3V101.6zM176 224C202.5 224 224 202.5 224 176C224 149.5 202.5 128 176 128H64V224H176zM64 288V384H208C234.5 384 256 362.5 256 336C256 309.5 234.5 288 208 288H64z"/><path class="fa-secondary" d="M48 32C48 14.33 62.33 0 80 0C97.67 0 112 14.33 112 32V64H48V32zM112 448V480C112 497.7 97.67 512 80 512C62.33 512 48 497.7 48 480V448H112zM208 448V480C208 497.7 193.7 512 176 512C158.3 512 144 497.7 144 480V448H208zM176 64H144V32C144 14.33 158.3 0 176 0C193.7 0 208 14.33 208 32V64C208 65.54 207.9 67.06 207.7 68.54C197.6 65.59 187 64 176 64z"/></svg>