<svg xmlns="http://www.w3.org/2000/svg" viewBox="0 0 512 512"><!--! Font Awesome Pro 6.1.1 by @fontawesome - https://fontawesome.com License - https://fontawesome.com/license (Commercial License) Copyright 2022 Fonticons, Inc. --><defs><style>.fa-secondary{opacity:.4}</style></defs><path class="fa-primary" d="M336 288h97.49l8.659-32H336C327.2 256 320 263.2 320 272C320 280.8 327.2 288 336 288zM336 192h123.6l8.742-32H336C327.2 160 320 167.2 320 176C320 184.8 327.2 192 336 192zM336 64C327.2 64 320 71.16 320 80C320 88.84 327.2 96 336 96h149.9l8.659-32H336zM416 384H160c-35.38 0-64 28.62-64 64l-.0001 32c0 17.62 14.38 32 32 32h320c17.62 0 32-14.38 32-32l.0003-32C480 412.6 451.4 384 416 384zM288 480c-17.62 0-32-14.38-32-32s14.38-32 32-32s32 14.38 32 32S305.6 480 288 480z"/><path class="fa-secondary" d="M336 64h158.5L512 0H48C21.49 0 0 21.49 0 48v160C0 234.5 21.49 256 48 256h103.3L160 352h256l17.49-64H336C327.2 288 320 280.8 320 272S327.2 256 336 256h106.1l17.49-64H336C327.2 192 320 184.8 320 176S327.2 160 336 160h132.4l17.49-64H336C327.2 96 320 88.8 320 80S327.2 64 336 64zM64 192V64h69.88L145.5 192H64z"/></svg>