<svg xmlns="http://www.w3.org/2000/svg" viewBox="0 0 512 512"><!--! Font Awesome Pro 6.1.1 by @fontawesome - https://fontawesome.com License - https://fontawesome.com/license (Commercial License) Copyright 2022 Fonticons, Inc. --><defs><style>.fa-secondary{opacity:.4}</style></defs><path class="fa-primary" d="M511.1 16L512 48C512 56.84 504.8 64 495.1 64H128v162.1C146.6 233.6 160 251.1 160 272C160 298.5 138.5 320 112 320S64 298.5 64 272c0-20.87 13.4-38.41 32-45.02V64H16C7.165 64 0 56.84 0 48l.0033-32c0-8.838 7.163-16 15.1-16H495.1C504.8 0 511.1 7.162 511.1 16z"/><path class="fa-secondary" d="M96 226.1V160H16L0 256h67.02C71.77 242.4 82.38 231.7 96 226.1zM96 64H10.71L0 128h96V64zM501.3 64H128v64h384L501.3 64zM128 160v66.98C141.6 231.7 152.3 242.4 157 256H512l-16-96H128zM157 288C150.4 307.1 132.3 320 112 320S73.63 307.1 67 288H16L0 384h512l-16-96H157zM16 416L0 512h512l-16-96H16z"/></svg>