<svg xmlns="http://www.w3.org/2000/svg" viewBox="0 0 512 512"><!--! Font Awesome Pro 6.1.1 by @fontawesome - https://fontawesome.com License - https://fontawesome.com/license (Commercial License) Copyright 2022 Fonticons, Inc. --><defs><style>.fa-secondary{opacity:.4}</style></defs><path class="fa-primary" d="M289.4 97.37C301.9 84.88 322.1 84.88 334.6 97.37L414.6 177.4C427.1 189.9 427.1 210.1 414.6 222.6L403.8 233.5C411.7 255.5 416 279.3 416 303.1C416 418.9 322.9 512 208 512C93.12 512 0 418.9 0 303.1C0 189.1 93.12 95.1 208 95.1C232.7 95.1 256.5 100.3 278.5 108.2L289.4 97.37zM96 296C96 238.6 142.6 192 200 192H208C216.8 192 224 184.8 224 176C224 167.2 216.8 160 208 160H200C124.9 160 64 220.9 64 296V304C64 312.8 71.16 320 80 320C88.84 320 96 312.8 96 304V296z"/><path class="fa-secondary" d="M440.8 4.994C441.9 1.99 444.8 0 448 0C451.2 0 454.1 1.99 455.2 4.994L469.3 42.67L507 56.79C510 57.92 512 60.79 512 64C512 67.21 510 70.08 507 71.21L469.3 85.33L455.2 123C454.1 126 451.2 128 448 128C444.8 128 441.9 126 440.8 123L426.7 85.33L388.1 71.21C385.1 70.08 384 67.21 384 64C384 60.79 385.1 57.92 388.1 56.79L426.7 42.67L440.8 4.994zM403.3 108.7C409.6 114.9 409.6 125.1 403.3 131.3L385.9 148.7L363.3 126.1L380.7 108.7C386.9 102.4 397.1 102.4 403.3 108.7V108.7z"/></svg>