<svg xmlns="http://www.w3.org/2000/svg" viewBox="0 0 640 512"><!--! Font Awesome Pro 6.0.0-beta3 by @fontawesome - https://fontawesome.com License - https://fontawesome.com/license (Commercial License) Copyright 2021 Fonticons, Inc. --><defs><style>.fa-secondary{opacity:.4}</style></defs><path class="fa-primary" d="M319.1 0C306.7 0 295.1 10.75 295.1 23.1v79.1c0 13.25 10.75 24 24 24s23.1-10.75 23.1-24V23.1C343.1 10.75 333.2 0 319.1 0zM200.1 71.03c-9.375-9.375-24.56-9.375-33.94 0s-9.375 24.56 0 33.94L215 152.1c4.688 4.688 10.81 7.031 16.97 7.031s12.28-2.344 16.97-7.031c9.375-9.375 9.375-24.56 0-33.94L200.1 71.03zM472.1 71.03c-9.375-9.375-24.56-9.375-33.94 0l-47.1 47.1c-9.375 9.375-9.375 24.56 0 33.94c4.688 4.688 10.81 7.031 16.97 7.031s12.28-2.344 16.97-7.031l47.1-47.1C482.3 95.59 482.3 80.4 472.1 71.03z"/><path class="fa-secondary" d="M183.3 253.3C165.5 256.5 148 247.5 139.5 231.6C121.8 198.5 81.58 182.8 45.41 197.7C12.5 211.2-4.943 247.9 1.229 283.2l.7617 4.355c4.906 28.04 25.01 50.83 52.05 58.82c10.06 3.074 12.4 16.48 3.994 22.84c-22.7 16.83-33.86 45.17-28.95 73.22l.7617 4.354c6.174 35.29 35.01 63.75 70.53 65.13c39.04 1.52 71.43-26.75 76.91-63.97l.0879-.5957c2.561-17.85 16.05-32.09 33.67-35.22L320 382.1L280 229.7L183.3 253.3zM594.6 197.7c-36.17-14.89-76.2 .5059-93.97 33.59c-8.512 15.98-26.15 25.17-43.87 22.02L360 229.7L320 382.1l108.1 29.2c17.62 3.133 31.11 17.37 33.67 35.22l.0879 .5957c5.475 37.22 37.87 65.49 76.91 63.97c35.53-1.385 64.36-29.84 70.53-65.13l.7617-4.354c4.906-28.05-6.256-56.39-28.95-73.22c-8.406-6.357-6.062-19.76 3.994-22.84c27.04-7.988 47.14-30.78 52.05-58.82l.7617-4.355C644.9 247.9 627.5 211.2 594.6 197.7z"/></svg>