<svg xmlns="http://www.w3.org/2000/svg" viewBox="0 0 448 512"><!--! Font Awesome Pro 6.1.1 by @fontawesome - https://fontawesome.com License - https://fontawesome.com/license (Commercial License) Copyright 2022 Fonticons, Inc. --><defs><style>.fa-secondary{opacity:.4}</style></defs><path class="fa-primary" d="M235.9 171.2c0 0-9.406-2.494-10.32-2.742C216.9 169.7 202.6 173.3 200.4 184.6c-1.781 9.266-.2187 16.06 36.25 25.77c0 0 14.12 3.693 17.7 4.682c8.703-1.168 23.02-4.777 25.18-16.06C281.1 186.2 273.8 181 235.9 171.2zM96 384h304c26.51 0 48-21.49 48-48v-288C448 21.49 426.5 0 400 0H96C42.98 0 0 42.98 0 96v320c0 53.02 42.98 96 96 96h320c17.67 0 32-14.33 32-31.1C448 462.3 433.7 448 416 448l-318.6 0c-16.71 0-31.64-12.22-33.23-28.85C62.33 400.1 77.29 384 96 384zM235.9 243.2l-7.469-1.953c-22.09-5.891-68-18.11-59.47-62.72c2.141-11.16 7.949-20.45 16.65-27.54C173.4 141.7 164.9 127.9 169 106.6c6.062-31.75 40.44-48.02 87.53-41.34c8.344 1.188 17.97 3.516 30.22 7.344c8.438 2.641 13.16 11.61 10.53 20.05c-2.625 8.422-11.69 13.14-20.03 10.52c-10.59-3.312-18.62-5.281-25.22-6.219c-27.81-4.031-49.09 2.5-51.59 15.67c-1.781 9.266-.2187 16.06 36.25 25.77l7.281 1.906c30.12 7.797 75.66 19.56 67.03 64.72c-2.141 11.19-7.961 20.5-16.68 27.59c12.63 9.525 20.73 23.2 16.68 44.41c-5.156 27.05-30.81 42.84-67.34 42.84c-6.406 0-13.16-.4844-20.19-1.484C210.5 316.5 196.9 312.1 184.8 308.2L179.1 306.3c-8.406-2.688-13.06-11.69-10.38-20.11c2.719-8.422 11.72-13.11 20.12-10.36l5.875 1.891c10.75 3.5 22.94 7.469 33.13 8.859c28.03 3.922 49.19-2.469 51.69-15.66C281.1 258.2 273.8 253 235.9 243.2z"/><path class="fa-secondary" d="M400 384H96c-17.67 0-32 14.33-32 32c0 17.67 14.33 32 32 32h320v-66.94C410.1 382.8 405.6 384 400 384z"/></svg>