<svg xmlns="http://www.w3.org/2000/svg" viewBox="0 0 448 512"><!--! Font Awesome Pro 6.1.1 by @fontawesome - https://fontawesome.com License - https://fontawesome.com/license (Commercial License) Copyright 2022 Fonticons, Inc. --><defs><style>.fa-secondary{opacity:.4}</style></defs><path class="fa-primary" d="M96 384h304c26.51 0 48-21.49 48-48v-288C448 21.49 426.5 0 400 0H96C42.98 0 0 42.98 0 96v320c0 53.02 42.98 96 96 96h320c17.67 0 32-14.33 32-31.1C448 462.3 433.7 448 416 448l-318.6 0c-16.71 0-31.64-12.22-33.22-28.86C62.33 400.1 77.29 384 96 384zM149.8 109.1c24-20 59.75-16.38 81.63 5.75L240 123.6l8.625-8.75c22-22.12 57.63-25.75 81.63-5.75c27.5 23 28.88 64.13 4.25 89.13l-84.75 85.5c-5.5 5.5-14.25 5.5-19.75 0l-84.75-85.5C120.8 173.3 122.3 132.1 149.8 109.1z"/><path class="fa-secondary" d="M400 384H96c-17.67 0-32 14.33-32 32c0 17.67 14.33 32 32 32h320v-66.94C410.1 382.8 405.6 384 400 384z"/></svg>