<svg xmlns="http://www.w3.org/2000/svg" viewBox="0 0 448 512"><!--! Font Awesome Pro 6.0.0-beta3 by @fontawesome - https://fontawesome.com License - https://fontawesome.com/license (Commercial License) Copyright 2021 Fonticons, Inc. --><defs><style>.fa-secondary{opacity:.4}</style></defs><path class="fa-primary" d="M96 384h304c26.51 0 48-21.49 48-48v-288C448 21.49 426.5 0 400 0H96C42.98 0 0 42.98 0 96v320c0 53.02 42.98 96 96 96h320c17.67 0 32-14.33 32-31.1C448 462.3 433.7 448 416 448l-318.6 0c-16.71 0-31.64-12.22-33.22-28.86C62.33 400.1 77.29 384 96 384zM128 166c0-8.838 7.164-16 16-16h53.1V96c0-8.838 7.164-16 16-16h52c8.836 0 16 7.162 16 16v54H336c8.836 0 16 7.162 16 16v52c0 8.836-7.164 16-16 16h-54V288c0 8.836-7.164 16-16 16h-52c-8.836 0-16-7.164-16-16V234H144c-8.836 0-16-7.164-16-16V166z"/><path class="fa-secondary" d="M400 384H96c-17.67 0-32 14.33-32 32c0 17.67 14.33 32 32 32h320v-66.94C410.1 382.8 405.6 384 400 384z"/></svg>