<svg xmlns="http://www.w3.org/2000/svg" viewBox="0 0 448 512"><!--! Font Awesome Pro 6.0.0-beta3 by @fontawesome - https://fontawesome.com License - https://fontawesome.com/license (Commercial License) Copyright 2021 Fonticons, Inc. --><defs><style>.fa-secondary{opacity:.4}</style></defs><path class="fa-primary" d="M239.1 115.8L201.9 192h76.22L239.1 115.8zM96 384h304c26.51 0 48-21.49 48-48v-288C448 21.49 426.5 0 400 0H96C42.98 0 0 42.98 0 96v320c0 53.02 42.98 96 96 96h320c17.67 0 32-14.33 32-31.1C448 462.3 433.7 448 416 448l-318.6 0c-16.71 0-31.64-12.22-33.22-28.86C62.33 400.1 77.29 384 96 384zM129.7 264.8l96-192c5.438-10.84 23.19-10.84 28.62 0l96 192c3.953 7.906 .75 17.52-7.156 21.47C340.9 287.5 338.4 288 336 288c-5.875 0-11.52-3.234-14.33-8.844L294.1 224H185.9L158.3 279.2C154.4 287.1 144.7 290.2 136.8 286.3C128.9 282.4 125.7 272.8 129.7 264.8z"/><path class="fa-secondary" d="M400 384H96c-17.67 0-32 14.33-32 32c0 17.67 14.33 32 32 32h320v-66.94C410.1 382.8 405.6 384 400 384z"/></svg>