<svg xmlns="http://www.w3.org/2000/svg" viewBox="0 0 512 512"><!--! Font Awesome Pro 6.0.0-beta3 by @fontawesome - https://fontawesome.com License - https://fontawesome.com/license (Commercial License) Copyright 2021 Fonticons, Inc. --><defs><style>.fa-secondary{opacity:.4}</style></defs><path class="fa-primary" d="M480 192H32c-17.62 0-32 14.37-32 31.1c0 94.75 51.5 177.1 128 221.5v34.5c0 17.62 14.38 31.1 32 31.1h192c17.62 0 32-14.38 32-31.1v-34.5c76.5-44.37 128-126.8 128-221.5C512 206.4 497.6 192 480 192z"/><path class="fa-secondary" d="M196.1 59.27C183.7 52.03 176 38.63 176 24.28c0-13.25-10.75-24.14-24-24.14S128 11.03 128 24.28c0 31.34 16.81 60.64 43.91 76.45C184.3 107.1 192 121.4 192 136c0 13.25 10.75 23.89 24 23.89S240 148.1 240 135.7C240 104.4 223.2 75.08 196.1 59.27zM308.1 59.27C295.7 52.03 288 38.63 288 24.28c0-13.25-10.75-24.18-24-24.18S240 11.03 240 24.28c0 31.34 16.81 60.64 43.91 76.45C296.3 107.1 304 121.4 304 136c0 13.25 10.75 23.86 24 23.86S352 148.1 352 135.7C352 104.4 335.2 75.08 308.1 59.27z"/></svg>