<svg xmlns="http://www.w3.org/2000/svg" viewBox="0 0 512 512"><!--! Font Awesome Pro 6.0.0-beta3 by @fontawesome - https://fontawesome.com License - https://fontawesome.com/license (Commercial License) Copyright 2021 Fonticons, Inc. --><defs><style>.fa-secondary{opacity:.4}</style></defs><path class="fa-primary" d="M480 192H32C14.38 192 0 206.4 0 224c0 94.75 51.5 177.1 128 221.5V480c0 17.62 14.38 32 32 32h192c17.62 0 32-14.38 32-32v-34.5C460.5 401.1 512 318.8 512 224C512 206.4 497.6 192 480 192z"/><path class="fa-secondary" d="M471.3 160H40.81C44.78 128.5 71.39 104 104 104c.752 0 1.449 .1953 2.195 .2207C113.3 76.55 138.1 56 168 56c11.84 0 22.79 3.438 32.31 9.045C211.2 45.43 231.9 32 256 32s44.76 13.43 55.69 33.04C321.2 59.44 332.2 56 344 56c29.87 0 54.74 20.55 61.8 48.22C406.6 104.2 407.2 104 408 104C440.6 104 467.3 128.5 471.3 160z"/></svg>