<svg xmlns="http://www.w3.org/2000/svg" viewBox="0 0 512 512"><!--! Font Awesome Pro 6.1.1 by @fontawesome - https://fontawesome.com License - https://fontawesome.com/license (Commercial License) Copyright 2022 Fonticons, Inc. --><defs><style>.fa-secondary{opacity:.4}</style></defs><path class="fa-primary" d="M86.4 192h83.21l.4648-31.1H85.93L86.4 192zM341.9 160l.4648 31.1h83.21l.4648-31.1H341.9z"/><path class="fa-secondary" d="M170.1 160C175.7 135.1 192 111.8 192 72.05c0-48.13-32.09-72.05-64.05-72.05C95.98 0 64 24.12 64 72.05c0 39.71 16.26 63.01 21.93 87.99H170.1zM425.6 192h-83.21C334.6 250.7 288 309.4 288 368c0 53.4 22.29 95.66 38.42 126.8C331.9 505.4 342.8 512 354.8 512h58.51c11.1 0 22.9-6.611 28.4-17.27C457.7 463.6 480 421.4 480 368C480 309.4 433.4 250.7 425.6 192zM426.1 160C431.7 135.1 448 111.8 448 72.05c0-48.13-32.09-72.05-64.05-72.05C351.1 0 320 24.12 320 72.05c0 39.71 16.26 63.01 21.93 87.99H426.1zM86.4 192C78.55 250.7 32 309.4 32 368c0 53.4 22.29 95.66 38.42 126.8C75.93 505.4 86.82 512 98.79 512h58.51c11.1 0 22.9-6.611 28.4-17.27C201.7 463.6 224 421.4 224 368C224 309.4 177.4 250.7 169.6 192H86.4z"/></svg>