<svg xmlns="http://www.w3.org/2000/svg" viewBox="0 0 448 512"><!--! Font Awesome Pro 6.0.0-beta3 by @fontawesome - https://fontawesome.com License - https://fontawesome.com/license (Commercial License) Copyright 2021 Fonticons, Inc. --><defs><style>.fa-secondary{opacity:.4}</style></defs><path class="fa-primary" d="M448 416C448 451.3 419.3 480 384 480H64C28.65 480 0 451.3 0 416V160H208V32H240V160H448V416zM320.1 280.1C330.3 271.6 330.3 256.4 320.1 247C311.6 237.7 296.4 237.7 287 247L192 342.1L152.1 303C143.6 293.7 128.4 293.7 119 303C109.7 312.4 109.7 327.6 119 336.1L175 392.1C184.4 402.3 199.6 402.3 208.1 392.1L320.1 280.1z"/><path class="fa-secondary" d="M208 32V160H0L50.73 58.53C58.86 42.27 75.48 32 93.67 32H208zM354.3 32C372.5 32 389.1 42.27 397.3 58.53L448 160H240V32H354.3z"/></svg>