<svg xmlns="http://www.w3.org/2000/svg" viewBox="0 0 512 512"><!--! Font Awesome Pro 6.0.0-beta3 by @fontawesome - https://fontawesome.com License - https://fontawesome.com/license (Commercial License) Copyright 2021 Fonticons, Inc. --><defs><style>.fa-secondary{opacity:.4}</style></defs><path class="fa-primary" d="M0 384v96c0 17.67 14.33 32 32 32h448c17.67 0 32-14.33 32-32v-96H0zM384 320l64-224h-109.4C308.4 96 281.6 76.66 272 48C262.4 19.33 235.6 0 205.4 0H64l64 320H384z"/><path class="fa-secondary" d="M512 256v128H0V256c0-17.67 14.33-32 32-32h76.8l12.8 64H80C71.16 288 64 295.2 64 304S71.16 320 80 320h352c8.836 0 16-7.164 16-16S440.8 288 432 288h-38.86l18.29-64H480C497.7 224 512 238.3 512 256z"/></svg>