<svg xmlns="http://www.w3.org/2000/svg" viewBox="0 0 512 512"><!--! Font Awesome Pro 6.1.1 by @fontawesome - https://fontawesome.com License - https://fontawesome.com/license (Commercial License) Copyright 2022 Fonticons, Inc. --><defs><style>.fa-secondary{opacity:.4}</style></defs><path class="fa-primary" d="M127.9 480c-6.062 0-12.22-1.75-17.66-5.375C105.8 471.6 0 399.5 0 256S105.8 40.39 110.3 37.39c14.72-9.812 34.56-5.844 44.38 8.875c9.781 14.66 5.844 34.47-8.75 44.28C142.4 92.95 64 147.8 64 256c0 108.4 78.53 163.2 81.88 165.5c14.56 9.906 18.44 29.78 8.594 44.37C148.3 475 138.2 480 127.9 480z"/><path class="fa-secondary" d="M384 480c-10.34 0-20.5-4.1-26.66-14.25c-9.812-14.72-5.844-34.56 8.875-44.37C369.5 419.2 448 364.4 448 256s-78.53-163.2-81.88-165.5c-14.56-9.906-18.44-29.78-8.594-44.37c9.812-14.62 29.53-18.56 44.22-8.781C406.3 40.39 512 112.5 512 256s-105.8 215.6-110.3 218.6C396.3 478.3 390.1 480 384 480z"/></svg>