<svg xmlns="http://www.w3.org/2000/svg" viewBox="0 0 640 512"><!--! Font Awesome Pro 6.0.0-beta3 by @fontawesome - https://fontawesome.com License - https://fontawesome.com/license (Commercial License) Copyright 2021 Fonticons, Inc. --><defs><style>.fa-secondary{opacity:.4}</style></defs><path class="fa-primary" d="M80 48c-35.38 0-64 28.62-64 64s28.62 64 64 64s64-28.62 64-64S115.4 48 80 48zM80 208c-35.38 0-64 28.62-64 64s28.62 64 64 64s64-28.62 64-64S115.4 208 80 208zM240 48c-35.38 0-64 28.62-64 64s28.62 64 64 64s64-28.62 64-64S275.4 48 240 48zM432 48c-35.38 0-64 28.62-64 64s28.62 64 64 64s64-28.62 64-64S467.4 48 432 48z"/><path class="fa-secondary" d="M80 400c-17.62 0-32 14.38-32 32s14.38 32 32 32s32-14.38 32-32S97.63 400 80 400zM240 400c-17.62 0-32 14.38-32 32s14.38 32 32 32s32-14.38 32-32S257.6 400 240 400zM240 240c-17.62 0-32 14.38-32 32s14.38 32 32 32s32-14.38 32-32S257.6 240 240 240zM592 144c17.62 0 32-14.38 32-32s-14.38-32-32-32s-32 14.38-32 32S574.4 144 592 144zM592 240c-17.62 0-32 14.38-32 32s14.38 32 32 32s32-14.38 32-32S609.6 240 592 240zM592 400c-17.62 0-32 14.38-32 32s14.38 32 32 32s32-14.38 32-32S609.6 400 592 400zM432 240c-17.62 0-32 14.38-32 32s14.38 32 32 32s32-14.38 32-32S449.6 240 432 240zM432 400c-17.62 0-32 14.38-32 32s14.38 32 32 32s32-14.38 32-32S449.6 400 432 400z"/></svg>