<svg xmlns="http://www.w3.org/2000/svg" viewBox="0 0 640 512"><!--! Font Awesome Pro 6.0.0-beta3 by @fontawesome - https://fontawesome.com License - https://fontawesome.com/license (Commercial License) Copyright 2021 Fonticons, Inc. --><defs><style>.fa-secondary{opacity:.4}</style></defs><path class="fa-primary" d="M480 352V160c0-35.35-28.65-64-64-64H224C188.7 96 160 124.7 160 160v192c0 35.35 28.65 64 64 64h192C451.3 416 480 387.3 480 352z"/><path class="fa-secondary" d="M208 0h-160C21.6 0 0 21.6 0 48v160C0 234.4 21.6 256 48 256H160V192H80C71.16 192 64 184.8 64 176v-96C64 71.16 71.16 64 80 64H192v40.88C201.4 99.38 212.3 96 224 96h32V48C256 21.6 234.4 0 208 0zM592 256H480v64h80c8.836 0 16 7.162 16 16v96c0 8.836-7.164 16-16 16H448v-40.88C438.6 412.6 427.7 416 416 416h-32v48c0 26.4 21.6 48 48 48h160c26.4 0 48-21.6 48-48v-160C640 277.6 618.4 256 592 256z"/></svg>