<svg xmlns="http://www.w3.org/2000/svg" viewBox="0 0 512 512"><!--! Font Awesome Pro 6.0.0-beta3 by @fontawesome - https://fontawesome.com License - https://fontawesome.com/license (Commercial License) Copyright 2021 Fonticons, Inc. --><defs><style>.fa-secondary{opacity:.4}</style></defs><path class="fa-primary" d="M512 288c0 17.67-14.31 32-32 32h-64v32c0 15.11-3.088 29.4-7.895 42.86l62.52 62.52c12.5 12.5 12.5 32.75 0 45.25C464.4 508.9 456.2 512 448 512s-16.38-3.125-22.62-9.375l-54.13-54.13C348.8 467.9 319.1 480 288 480h-16V239.9C272 231.2 264.8 224 256 224S240.1 231.2 240.1 239.9V480H224c-31.96 0-60.82-12.13-83.25-31.5l-54.13 54.13C80.38 508.9 72.19 512 64 512s-16.38-3.125-22.62-9.375c-12.5-12.5-12.5-32.75 0-45.25l62.52-62.52C99.09 381.4 96 367.1 96 352v-32H32c-17.69 0-32-14.33-32-32s14.31-32 32-32h64V205.3L41.38 150.6c-12.5-12.5-12.5-32.75 0-45.25C47.62 99.13 55.81 96 63.1 96c8.188 0 16.38 3.125 22.63 9.375L141.3 160h229.5l54.63-54.63C431.6 99.13 439.8 96 447.1 96c8.188 0 16.38 3.125 22.63 9.375c12.5 12.5 12.5 32.75 0 45.25L416 205.3V256h64C497.7 256 512 270.3 512 288z"/><path class="fa-secondary" d="M352 96c0-53.02-42.98-96-96-96S160 42.98 160 96v64h192V96z"/></svg>