<svg xmlns="http://www.w3.org/2000/svg" viewBox="0 0 640 512"><!--! Font Awesome Pro 6.0.0-beta3 by @fontawesome - https://fontawesome.com License - https://fontawesome.com/license (Commercial License) Copyright 2021 Fonticons, Inc. --><defs><style>.fa-secondary{opacity:.4}</style></defs><path class="fa-primary" d="M635.3 452.7C638.3 455.7 640 459.8 640 463.1C640 476.7 634.9 488.9 625.9 497.9C616.9 506.9 604.7 511.1 592 511.1H336C323.3 511.1 311.1 506.9 302.1 497.9C293.1 488.9 288 476.7 288 463.1C288 459.8 289.7 455.7 292.7 452.7C295.7 449.7 299.8 447.1 304 447.1H624C628.2 447.1 632.3 449.7 635.3 452.7zM297.4 406.6C291.4 400.6 288 392.5 288 383.1C288 375.5 291.4 367.4 297.4 361.4C303.4 355.4 311.5 351.1 320 351.1H608C616.5 351.1 624.6 355.4 630.6 361.4C636.6 367.4 640 375.5 640 383.1C640 392.5 636.6 400.6 630.6 406.6C624.6 412.6 616.5 415.1 608 415.1H320C311.5 415.1 303.4 412.6 297.4 406.6zM302.8 315.1C297.8 312 293.8 307.6 291.2 302.4C288.6 297.2 287.4 291.3 287.9 285.5C288.3 279.7 290.4 274.1 293.8 269.4C314.1 244.1 340.1 223.9 369.7 210.4C399.2 197 431.6 190.7 464 191.1C496.5 190.7 528.8 197.1 558.3 210.5C587.9 223.9 613.9 244.1 634.3 269.4C637.7 274.1 639.8 279.7 640.2 285.6C640.7 291.4 639.5 297.2 636.9 302.4C634.2 307.7 630.2 312.1 625.3 315.1C620.3 318.2 614.6 319.9 608.7 319.1H319.3C313.4 319.9 307.7 318.2 302.8 315.1H302.8zM532.7 244.7C529.7 247.7 528 251.8 528 255.1C528 259.2 528.9 262.3 530.7 264.9C532.5 267.5 534.1 269.6 537.9 270.8C540.8 271.1 544 272.3 547.1 271.7C550.2 271.1 553.1 269.5 555.3 267.3C557.6 265.1 559.1 262.2 559.7 259.1C560.3 256 559.1 252.8 558.8 249.9C557.6 246.9 555.5 244.5 552.9 242.7C550.3 240.9 547.2 239.1 544 239.1C539.8 239.1 535.7 241.7 532.7 244.7L532.7 244.7zM452.7 228.7C449.7 231.7 448 235.8 448 239.1C448 243.2 448.9 246.3 450.7 248.9C452.5 251.5 454.1 253.6 457.9 254.8C460.8 255.1 464 256.3 467.1 255.7C470.2 255.1 473.1 253.5 475.3 251.3C477.6 249.1 479.1 246.2 479.7 243.1C480.3 240 479.1 236.8 478.8 233.9C477.6 230.9 475.5 228.5 472.9 226.7C470.3 224.9 467.2 223.1 464 223.1C459.8 223.1 455.7 225.7 452.7 228.7V228.7zM372.7 244.7C369.7 247.7 368 251.8 368 255.1C368 259.2 368.9 262.3 370.7 264.9C372.5 267.5 374.1 269.6 377.9 270.8C380.8 271.1 384 272.3 387.1 271.7C390.2 271.1 393.1 269.5 395.3 267.3C397.6 265.1 399.1 262.2 399.7 259.1C400.3 256 399.1 252.8 398.8 249.9C397.6 246.9 395.5 244.5 392.9 242.7C390.3 240.9 387.2 239.1 384 239.1C379.8 239.1 375.7 241.7 372.7 244.7V244.7z"/><path class="fa-secondary" d="M332.1 2.769C337.1 4.591 340.7 7.251 343.7 10.58C346.7 13.9 349 17.82 350.4 22.08C351.8 26.34 352.3 30.84 351.8 35.3L337.5 191C309.6 205.2 285.5 225.8 267.3 251.2C260.7 260.1 256.8 272.4 256.1 284.2C255.5 295.1 258.1 307.8 263.6 318.2C267.2 324.9 271.9 330.1 277.6 336C271.2 341.6 265.1 348.5 262.3 356.2C258.6 363.9 256.5 372.2 256.1 380.7C255.6 389.2 256.9 397.8 259.8 405.8C262.7 413.8 267.2 421.1 272.1 427.4C267.7 431.9 263.4 437.5 260.5 443.8C257.5 450.1 256 457 255.1 464C256 481.4 261.8 498.2 272.4 512H73.24C65.32 512 57.66 509.1 51.75 503.9C45.83 498.6 42.09 491.3 41.24 483.4L-.0037 35.42C-.486 30.94-.0165 26.41 1.374 22.13C2.765 17.84 5.046 13.89 8.066 10.55C11.09 7.205 14.78 4.537 18.9 2.719C23.03 .901 27.49-.0254 31.1 .0005H319.1C324.5 .0037 328.9 .9468 332.1 2.769L332.1 2.769zM284.8 64H67.2L75.93 160H276.1L284.8 64z"/></svg>