<svg xmlns="http://www.w3.org/2000/svg" viewBox="0 0 512 512"><!--! Font Awesome Pro 6.0.0-beta3 by @fontawesome - https://fontawesome.com License - https://fontawesome.com/license (Commercial License) Copyright 2021 Fonticons, Inc. --><defs><style>.fa-secondary{opacity:.4}</style></defs><path class="fa-primary" d="M512 256V448C512 456.5 508.6 464.6 502.6 470.6C496.6 476.6 488.5 480 480 480H448V288C448 279.5 444.6 271.4 438.6 265.4C432.6 259.4 424.5 256 416 256H0L278.8 39.04C284.7 34.24 292.2 31.75 299.9 32C357.2 35.11 411.1 60.07 450.6 101.7C490 143.4 512 198.6 512 256z"/><path class="fa-secondary" d="M0 384H448V480H64C47.03 480 30.75 473.3 18.75 461.3C6.743 449.3 0 432.1 0 416V384zM438.6 265.4C444.6 271.4 448 279.5 448 288V352H0V256H416C424.5 256 432.6 259.4 438.6 265.4z"/></svg>