<svg xmlns="http://www.w3.org/2000/svg" viewBox="0 0 576 512"><!--! Font Awesome Pro 6.0.0-beta3 by @fontawesome - https://fontawesome.com License - https://fontawesome.com/license (Commercial License) Copyright 2021 Fonticons, Inc. --><defs><style>.fa-secondary{opacity:.4}</style></defs><path class="fa-primary" d="M517.5 168.6L139.2 2.266C124.4-3.609 107.5 2.266 99.62 16.14l-95.37 166.9C-.4999 191.3-1.25 201 1.999 209.9c3.25 8.875 10.25 15.87 19.13 19.12l284.2 117.6c9.25 3.375 19.5 2.375 27.87-2.875l189.2-118.4C544.7 211.5 541.7 178.3 517.5 168.6z"/><path class="fa-secondary" d="M574.9 283.1C573.2 278.9 569.1 275.6 565.9 273.8l-35.37-15.5l-138.4 86.5l119.5 52.51c8.5 3.75 18.46-.132 22.21-8.632l40.74-92.62C576.4 291.9 576.5 287.3 574.9 283.1zM137.7 400H63.1c0-26.51-21.49-47.98-47.1-47.98C7.164 352 0 359.2 0 368v127.1C0 504.8 7.164 512 15.1 512c26.51 0 47.1-21.49 47.1-47.1l96.05 0c13.33 0 25.26-8.269 29.94-20.75l46.87-124.1l-59.25-24.37L137.7 400z"/></svg>