<svg xmlns="http://www.w3.org/2000/svg" viewBox="0 0 640 512"><!--! Font Awesome Pro 6.0.0-beta3 by @fontawesome - https://fontawesome.com License - https://fontawesome.com/license (Commercial License) Copyright 2021 Fonticons, Inc. --><defs><style>.fa-secondary{opacity:.4}</style></defs><path class="fa-primary" d="M0 352H128V448H32C23.51 448 15.37 444.6 9.372 438.6C3.371 432.6 0 424.5 0 416V352zM80 128C97.36 127.9 114.2 122.2 128 111.6V192H47.65C58.2 178.2 63.94 161.4 64 144V128H80zM0 224H128V320H0V224zM288 64V192H160V64H288zM160 224H288V320H160V224zM160 352H288V448H160V352z"/><path class="fa-secondary" d="M288 448V64H592C604.7 64 616.9 69.06 625.9 78.06C634.9 87.06 640 99.27 640 112V400C640 412.7 634.9 424.9 625.9 433.9C616.9 442.9 604.7 448 592 448H288z"/></svg>