<svg xmlns="http://www.w3.org/2000/svg" viewBox="0 0 576 512"><!--! Font Awesome Pro 6.1.1 by @fontawesome - https://fontawesome.com License - https://fontawesome.com/license (Commercial License) Copyright 2022 Fonticons, Inc. --><defs><style>.fa-secondary{opacity:.4}</style></defs><path class="fa-primary" d="M114.2 292.4L142.5 213.1C153.9 181.3 184 160 217.8 160H358.2C391.1 160 422.1 181.3 433.5 213.1L461.8 292.4C481.9 300.9 496 320.8 496 344V480C496 497.7 481.7 512 464 512H448C430.3 512 416 497.7 416 480V448H160V480C160 497.7 145.7 512 128 512H112C94.33 512 80 497.7 80 480V344C80 320.8 94.08 300.9 114.2 292.4H114.2zM183.7 288H392.3L373.2 234.6C370.1 228.3 364.9 224 358.2 224H217.8C211.1 224 205 228.3 202.8 234.6L183.7 288zM159.1 344C146.7 344 135.1 354.7 135.1 368C135.1 381.3 146.7 392 159.1 392C173.3 392 183.1 381.3 183.1 368C183.1 354.7 173.3 344 159.1 344zM416 392C429.3 392 440 381.3 440 368C440 354.7 429.3 344 416 344C402.7 344 392 354.7 392 368C392 381.3 402.7 392 416 392z"/><path class="fa-secondary" d="M35.7 132.6C28.11 123.9 35.57 112 47.11 112H80L104 80L80 48H47.11C35.57 48 28.11 36.12 35.7 27.43C50.36 10.62 71.94 0 96 0C128.8 0 156.1 19.75 169.3 48H406.7C419 19.75 447.2 0 480 0C504.1 0 525.6 10.62 540.3 27.43C547.9 36.12 540.4 48 528.9 48H496L472 80L496 112H528.9C540.4 112 547.9 123.9 540.3 132.6C525.6 149.4 504.1 160 480 160C447.2 160 419 140.3 406.7 112H169.3C156.1 140.3 128.8 160 96 160C71.94 160 50.36 149.4 35.7 132.6V132.6z"/></svg>