<svg xmlns="http://www.w3.org/2000/svg" viewBox="0 0 640 512"><!--! Font Awesome Pro 6.0.0-beta3 by @fontawesome - https://fontawesome.com License - https://fontawesome.com/license (Commercial License) Copyright 2021 Fonticons, Inc. --><defs><style>.fa-secondary{opacity:.4}</style></defs><path class="fa-primary" d="M640 368C640 447.5 575.5 512 496 512C416.5 512 352 447.5 352 368C352 288.5 416.5 224 496 224C575.5 224 640 288.5 640 368zM546.5 301.8C549.2 296.9 548.2 290.7 543.9 286.1C539.6 283.2 533.3 283 528.8 286.4L432.8 358.4C428.7 361.5 426.1 366.9 428.6 371.8C430.2 376.7 434.8 380 440 380H475.6L445.5 434.2C442.8 439.1 443.8 445.3 448.1 449C452.4 452.8 458.7 452.1 463.2 449.6L559.2 377.6C563.3 374.5 565 369.1 563.4 364.2C561.8 359.3 557.2 356 552 356H516.4L546.5 301.8z"/><path class="fa-secondary" d="M165.4 32H346.6C387.4 32 423.7 57.78 437.2 96.29L471.3 193.7C385.8 205.7 320 279.2 320 368C320 378.9 320.1 389.6 322.9 400H96V448C96 465.7 81.67 480 64 480H32C14.33 480 0 465.7 0 448V256C0 229.3 16.36 206.4 39.61 196.8L74.8 96.29C88.27 57.78 124.6 32 165.4 32V32zM165.4 96C151.8 96 139.7 104.6 135.2 117.4L109.1 192H402.9L376.8 117.4C372.3 104.6 360.2 96 346.6 96H165.4zM96 320C113.7 320 128 305.7 128 288C128 270.3 113.7 256 96 256C78.33 256 64 270.3 64 288C64 305.7 78.33 320 96 320z"/></svg>