<svg xmlns="http://www.w3.org/2000/svg" viewBox="0 0 640 512"><!--! Font Awesome Pro 6.0.0-beta3 by @fontawesome - https://fontawesome.com License - https://fontawesome.com/license (Commercial License) Copyright 2021 Fonticons, Inc. --><defs><style>.fa-secondary{opacity:.4}</style></defs><path class="fa-primary" d="M261.3 154.5L237.9 241.4c-5.25 19.59-20.03 31.06-35.17 35.59C192.1 280.2 169.4 280.8 151.4 267.6C128.7 250.1 121.5 221.3 134.6 198.4l44.81-77.85L261.3 154.5zM505.5 198.4l-43.38-75.36L379.5 157.3l22.6 84.13c5.25 19.59 20.03 31.06 35.17 35.59c10.65 3.183 33.33 3.73 51.36-9.448C511.4 250.1 518.6 221.3 505.5 198.4z"/><path class="fa-secondary" d="M639.4 433.6c-6.318-15.37-21.18-24.7-36.84-24.7c-5.095 0-10.28 .989-15.28 3.075l-22.12 9.249l-38.75-101.1c47.87-34.1 64.87-100.2 34.5-152.7l-86.62-150.5c-5.863-10.17-16.56-16.04-27.76-16.04c-4.084-.0039-8.23 .7781-12.24 2.415l-114.2 47.37L205.8 2.415c-4.006-1.636-8.156-2.415-12.24-2.415c-11.2 0-21.9 5.871-27.76 16.04L79.15 166.5C48.9 219 65.78 284.3 113.6 319.2l-38.75 101.9L52.78 411.9c-4.1-2.086-10.18-3.075-15.26-3.075c-15.64 0-30.45 9.324-36.86 24.7c-1.75 4.124 .125 8.749 4.25 10.5l162.4 67.37C168.3 511.8 169.3 512 170.4 512c3.053 0 5.961-1.827 7.267-4.905c8.374-20.37-1.25-43.87-21.62-52.37l-22.12-9.124l39.37-103.6c4.5 .4999 8.874 1.25 13.12 1.25c51.75 0 99.37-32.1 113.4-85.24l20.25-75.36l20.25 75.36c13.1 52.24 61.62 85.24 113.4 85.24c4.25 0 8.624-.7499 13.12-1.25l39.25 103.6l-22.12 9.124c-20.37 8.499-30.12 31.1-21.62 52.37C463.6 510.2 466.5 512 469.6 512c1.051 0 2.113-.21 3.127-.6552l162.4-67.37C639.1 442.2 641.1 437.7 639.4 433.6zM237.9 241.4c-5.25 19.59-20.03 31.06-35.17 35.59C192.1 280.2 169.4 280.8 151.4 267.6C128.7 250.1 121.5 221.3 134.6 198.4l72.61-126.1l68.53 28.41L237.9 241.4zM488.7 267.6c-18.03 13.18-40.71 12.63-51.36 9.448c-15.15-4.535-29.92-16.01-35.17-35.59l-37.81-140.7l68.53-28.41l72.61 126.1C518.6 221.3 511.4 250.1 488.7 267.6z"/></svg>