<svg xmlns="http://www.w3.org/2000/svg" viewBox="0 0 512 512"><!--! Font Awesome Pro 6.0.0-beta3 by @fontawesome - https://fontawesome.com License - https://fontawesome.com/license (Commercial License) Copyright 2021 Fonticons, Inc. --><defs><style>.fa-secondary{opacity:.4}</style></defs><path class="fa-primary" d="M406.6 201.4L439 168.1C454.1 153.9 480 164.6 480 185.9V295.1C480 309.3 469.3 319.1 456 319.1H345.9C324.6 319.1 313.8 294.1 328.1 279L361.4 246.6L304 189.3L230.6 262.6C218.1 275.1 197.9 275.1 185.4 262.6L105.4 182.6C92.88 170.1 92.88 149.9 105.4 137.4C117.9 124.9 138.1 124.9 150.6 137.4L207.1 194.7L281.4 121.4C293.9 108.9 314.1 108.9 326.6 121.4L406.6 201.4z"/><path class="fa-secondary" d="M32 32C49.67 32 64 46.33 64 64V400C64 408.8 71.16 416 80 416H480C497.7 416 512 430.3 512 448C512 465.7 497.7 480 480 480H80C35.82 480 0 444.2 0 400V64C0 46.33 14.33 32 32 32z"/></svg>