<svg xmlns="http://www.w3.org/2000/svg" viewBox="0 0 640 512"><!--! Font Awesome Pro 6.0.0-beta3 by @fontawesome - https://fontawesome.com License - https://fontawesome.com/license (Commercial License) Copyright 2021 Fonticons, Inc. --><defs><style>.fa-secondary{opacity:.4}</style></defs><path class="fa-primary" d="M174.7 239.6c16.35-17.08 63.79-79.82 89.55-219.9c2.148-11.65 12.41-19.68 23.63-19.68c26.96 0 146.9 111.1 180.2 238.4c-6.551 2.391-13.19 4.909-20.13 7.96c-10.86-4.773-21.09-8.451-30.96-11.58c-25.35-78.67-79.73-137.1-113.6-167.4C285.3 145.4 261 197.1 241.4 229.5C226.2 233.1 209.8 238.6 192 246.4C186.1 243.8 180.4 241.7 174.7 239.6z"/><path class="fa-secondary" d="M283.3 224.1c-25.43 0-55.7 6.713-91.21 22.33C156.5 230.8 126 224.1 100.6 224.1c-92.32 0-100.6 82.46-100.6 105.7c0 82.16 67.03 182.2 191.1 182.2s191.9-100.1 191.9-182.2C383.9 306.5 375.6 224.1 283.3 224.1zM539.3 224.1c-25.45 0-55.82 6.726-91.36 22.34c-28.02-12.31-52.72-18.85-74.44-21.18c19.77 18.08 42.37 51.21 42.37 104.6c0 4.159 2.75 87.86-69.58 155.5c27.79 16.53 61.76 26.74 101.6 26.74c125 0 192.1-100.1 192.1-182.2C640 306.5 631.7 224.1 539.3 224.1z"/></svg>