<svg xmlns="http://www.w3.org/2000/svg" viewBox="0 0 512 512"><!--! Font Awesome Pro 6.1.1 by @fontawesome - https://fontawesome.com License - https://fontawesome.com/license (Commercial License) Copyright 2022 Fonticons, Inc. --><defs><style>.fa-secondary{opacity:.4}</style></defs><path class="fa-primary" d="M256 112c30.88 0 56-25.12 56-56S286.9 0 256 0S199.1 25.12 199.1 56S225.1 112 256 112zM511.1 197.4c0-5.178-2.509-10.2-7.096-13.26L476.4 168.2c-2.684-1.789-5.602-2.62-8.497-2.62c-17.23 0-17.39 26.37-51.92 26.37c-29.38 0-47.97-25.41-47.97-50.63C367.1 134 361.1 128 354.6 128h-38.75c-6.001 0-11.63 4-12.88 9.875C298.2 160.1 278.7 176 255.1 176c-22.75 0-42.25-15.87-47-38.12C207.7 132 202.2 128 196.1 128h-38.75C149.1 128 143.1 134 143.1 141.4c0 18.45-13.73 50.62-47.95 50.62c-34.59 0-34.87-26.39-51.87-26.39c-2.909 0-5.804 .8334-8.432 2.645l-28.63 16C2.509 187.2 0 192.3 0 197.4c0 2.438 .5583 4.901 1.72 7.185L104.2 416h303.5l102.5-211.4C511.4 202.3 511.1 199.8 511.1 197.4z"/><path class="fa-secondary" d="M447.1 496c0 8.836-7.164 16-16 16H79.98c-8.839 0-16-7.164-16-16c0-20.88 13.41-38.47 32.03-45.07V432c0-8.838 7.165-16 16-16h288c8.837 0 16 7.162 16 16v18.95C434.6 457.6 447.1 475.1 447.1 496z"/></svg>