<svg xmlns="http://www.w3.org/2000/svg" viewBox="0 0 448 512"><!--! Font Awesome Pro 6.0.0-beta3 by @fontawesome - https://fontawesome.com License - https://fontawesome.com/license (Commercial License) Copyright 2021 Fonticons, Inc. --><defs><style>.fa-secondary{opacity:.4}</style></defs><path class="fa-primary" d="M448 352c0 11.11-1.859 21.71-4.523 31.99H4.523C1.859 373.7 0 363.1 0 352C0 216.8 80.44 151.7 145.1 99.43C170.4 78.87 194.4 59.44 211.5 38.02C214.8 34.01 219.4 32 224 32s9.246 2.006 12.45 6.02c17.12 21.42 41.12 40.85 66.48 61.41C367.6 151.7 448 216.8 448 352z"/><path class="fa-secondary" d="M4.523 384C18.8 439.1 68.43 480 128 480h192c59.57 0 109.2-40.89 123.5-96H4.523z"/></svg>