<svg xmlns="http://www.w3.org/2000/svg" viewBox="0 0 320 512"><!--! Font Awesome Pro 6.0.0-beta3 by @fontawesome - https://fontawesome.com License - https://fontawesome.com/license (Commercial License) Copyright 2021 Fonticons, Inc. --><defs><style>.fa-secondary{opacity:.4}</style></defs><path class="fa-primary" d="M105.1 224H80C71.12 224 64 231.1 64 240v32c0 8.875 7.125 15.1 16 15.1L96 288v5.5C96 337.5 91.88 380.1 72 416h176C228.1 380.1 224 337.5 224 293.5V288l16-.0001c8.875 0 16-7.125 16-15.1v-32C256 231.1 248.9 224 240 224h-25.12C244.3 205.6 264 173.2 264 136C264 78.5 217.5 32 159.1 32S56 78.5 56 136C56 173.2 75.74 205.6 105.1 224z"/><path class="fa-secondary" d="M320 496c0 8.836-7.164 16-16 16h-288C7.164 512 0 504.8 0 495.1c0-20.87 13.4-38.45 32-45.06V432C32 423.2 39.16 416 48 416h224c8.836 0 16 7.162 16 16v18.94C306.6 457.5 320 475.1 320 496z"/></svg>