<svg xmlns="http://www.w3.org/2000/svg" viewBox="0 0 384 512"><!--! Font Awesome Pro 6.1.1 by @fontawesome - https://fontawesome.com License - https://fontawesome.com/license (Commercial License) Copyright 2022 Fonticons, Inc. --><defs><style>.fa-secondary{opacity:.4}</style></defs><path class="fa-primary" d="M19 272.5l40.62 18C63.78 292.3 68.25 293.3 72.72 293.3c4 0 8.001-.7543 11.78-2.289l12.75-5.125c9.125-3.625 16-11.12 18.75-20.5L125.2 234.8C127 227.9 131.5 222.2 137.9 219.1L160 208v50.38C160 276.5 149.6 293.1 133.4 301.2L76.25 329.9C49.12 343.5 32 371.1 32 401.5V416h319.9l-.0417-192c0-105.1-85.83-192-191.8-192H12C5.375 32 0 37.38 0 44c0 2.625 .625 5.25 1.75 7.625L16 80L7 89C2.5 93.5 0 99.62 0 106V243.2C0 255.9 7.5 267.4 19 272.5zM52 128C63 128 72 137 72 148S63 168 52 168S32 159 32 148S41 128 52 128z"/><path class="fa-secondary" d="M384 496c0 8.836-7.162 16-16 16h-352C7.164 512 0 504.8 0 495.1c0-14.16 6.246-26.76 16-35.54V432C16 423.2 23.16 416 32 416h319.9c8.838 0 16.02 7.162 16.02 16L368 460.5C377.8 469.2 384 481.8 384 496z"/></svg>