<svg xmlns="http://www.w3.org/2000/svg" viewBox="0 0 384 512"><!--! Font Awesome Pro 6.0.0-beta3 by @fontawesome - https://fontawesome.com License - https://fontawesome.com/license (Commercial License) Copyright 2021 Fonticons, Inc. --><defs><style>.fa-secondary{opacity:.4}</style></defs><path class="fa-primary" d="M368 32h-56c-8.875 0-16 7.125-16 16V96h-48V48c0-8.875-7.125-16-16-16h-80c-8.875 0-16 7.125-16 16V96H88.12V48c0-8.875-7.25-16-16-16H16C7.125 32 0 39.12 0 48V224l64 32c0 48.38-1.5 95-13.25 160h282.5C321.5 351 320 303.8 320 256l64-32V48C384 39.12 376.9 32 368 32zM224 320H160V256c0-17.62 14.38-32 32-32s32 14.38 32 32V320z"/><path class="fa-secondary" d="M384 496c0 8.836-7.164 16-16 16h-352C7.164 512 0 504.8 0 495.1c0-20.87 13.4-38.45 32-45.06V432C32 423.2 39.16 416 48 416h288c8.836 0 16 7.162 16 16v18.94C370.6 457.5 384 475.1 384 496z"/></svg>