<svg xmlns="http://www.w3.org/2000/svg" viewBox="0 0 512 512"><!--! Font Awesome Pro 6.0.0-beta3 by @fontawesome - https://fontawesome.com License - https://fontawesome.com/license (Commercial License) Copyright 2021 Fonticons, Inc. --><defs><style>.fa-secondary{opacity:.4}</style></defs><path class="fa-primary" d="M367.4 129.2c-9.953-3.25-20.75 .3125-26.84 8.781L256 255L171.5 137.1C165.4 129.5 154.5 125.9 144.6 129.2C134.7 132.4 128 141.6 128 152v208C128 373.3 138.8 384 152 384s24-10.75 24-24V226.2l60.55 83.83c9.031 12.5 29.88 12.5 38.91 0L336 226.2V360c0 13.25 10.75 24 24 24S384 373.3 384 360v-208C384 141.6 377.3 132.4 367.4 129.2z"/><path class="fa-secondary" d="M256 0C114.6 0 0 114.6 0 256s114.6 256 256 256s256-114.6 256-256S397.4 0 256 0zM384 360c0 13.25-10.75 24-24 24s-24-10.75-24-24V226.2l-60.55 83.83c-9.031 12.5-29.88 12.5-38.91 0L176 226.2V360C176 373.3 165.3 384 152 384S128 373.3 128 360v-208c0-10.41 6.719-19.64 16.61-22.83c9.859-3.25 20.75 .3125 26.84 8.781L256 255l84.55-117.1c6.094-8.469 16.89-12.03 26.84-8.781C377.3 132.4 384 141.6 384 152V360z"/></svg>