<svg xmlns="http://www.w3.org/2000/svg" viewBox="0 0 512 512"><!--! Font Awesome Pro 6.1.1 by @fontawesome - https://fontawesome.com License - https://fontawesome.com/license (Commercial License) Copyright 2022 Fonticons, Inc. --><defs><style>.fa-secondary{opacity:.4}</style></defs><path class="fa-primary" d="M262.4 232.9C212.5 219.1 205.7 212.4 208.5 196.6c1.031-5.688 4.156-10.27 9.344-13.61c8.594-5.547 30.84-12.88 83.63 .5781c12.81 3.297 25.94-4.469 29.19-17.31c3.281-12.84-4.469-25.92-17.31-29.19c-53.66-13.69-94.47-11.81-121.5 5.562C175.5 153.2 164.7 169.4 161.3 188.2c-11.28 63.38 48.66 80 88.31 91c49.94 13.86 56.69 20.53 53.88 36.31c-1.312 7.312-4.344 11.81-10.12 15.06c-18.09 10.09-58.5 5.844-100.6-10.7c-12.22-4.75-26.28 1.188-31.12 13.58c-4.844 12.33 1.219 26.27 13.56 31.11c18.31 7.172 54.88 19.48 90.63 19.48c18 0 35.78-3.109 50.94-11.58c18.38-10.28 30.09-27.06 33.94-48.53C361.1 260.6 302.1 243.9 262.4 232.9z"/><path class="fa-secondary" d="M256 0C114.6 0 0 114.6 0 256s114.6 256 256 256s256-114.6 256-256S397.4 0 256 0zM350.7 323.9c-3.844 21.47-15.56 38.25-33.94 48.53c-15.16 8.469-32.94 11.58-50.94 11.58c-35.75 0-72.31-12.31-90.63-19.48c-12.34-4.844-18.41-18.78-13.56-31.11c4.844-12.39 18.91-18.33 31.12-13.58c42.06 16.55 82.47 20.8 100.6 10.7c5.781-3.25 8.812-7.75 10.12-15.06c2.812-15.78-3.938-22.45-53.88-36.31c-39.66-11-99.59-27.62-88.31-91c3.375-18.83 14.22-35 30.59-45.55c27.03-17.38 67.84-19.25 121.5-5.562c12.84 3.266 20.59 16.34 17.31 29.19c-3.25 12.84-16.38 20.61-29.19 17.31C248.7 170.1 226.5 177.5 217.9 183c-5.188 3.344-8.312 7.922-9.344 13.61c-2.812 15.78 3.938 22.45 53.88 36.31C302.1 243.9 361.1 260.6 350.7 323.9z"/></svg>