<svg xmlns="http://www.w3.org/2000/svg" viewBox="0 0 512 512"><!--! Font Awesome Pro 6.0.0-beta3 by @fontawesome - https://fontawesome.com License - https://fontawesome.com/license (Commercial License) Copyright 2021 Fonticons, Inc. --><defs><style>.fa-secondary{opacity:.4}</style></defs><path class="fa-primary" d="M370.7 146.5c-11.86-5.891-26.27-1.125-32.2 10.73L256 322.3L173.5 157.3C167.5 145.4 153.2 140.6 141.3 146.5C129.4 152.5 124.6 166.9 130.5 178.7l104 208C238.6 394.9 246.9 400 256 400s17.41-5.141 21.47-13.27l104-208C387.4 166.9 382.6 152.5 370.7 146.5z"/><path class="fa-secondary" d="M256 0C114.6 0 0 114.6 0 256s114.6 256 256 256s256-114.6 256-256S397.4 0 256 0zM381.5 178.7l-104 208C273.4 394.9 265.1 400 256 400s-17.41-5.141-21.47-13.27l-104-208C124.6 166.9 129.4 152.5 141.3 146.5c11.92-5.891 26.28-1.125 32.2 10.73L256 322.3l82.53-165.1c5.938-11.86 20.34-16.62 32.2-10.73C382.6 152.5 387.4 166.9 381.5 178.7z"/></svg>