<svg xmlns="http://www.w3.org/2000/svg" viewBox="0 0 512 512"><!--! Font Awesome Pro 6.1.1 by @fontawesome - https://fontawesome.com License - https://fontawesome.com/license (Commercial License) Copyright 2022 Fonticons, Inc. --><defs><style>.fa-secondary{opacity:.4}</style></defs><path class="fa-primary" d="M280.3 240H344C350.8 240 356.8 244.2 359.1 250.6C361.3 256.1 359.4 264.1 354.2 268.4L218.2 380.4C212.5 385 204.3 385.2 198.4 380.8C192.5 376.4 190.4 368.5 193.3 361.7L231.7 271.1H168C161.2 271.1 155.2 267.8 152.9 261.4C150.7 255 152.6 247.9 157.8 243.6L293.8 131.6C299.5 126.1 307.7 126.8 313.6 131.2C319.5 135.6 321.6 143.5 318.7 150.3L280.3 240z"/><path class="fa-secondary" d="M0 256C0 114.6 114.6 0 256 0C397.4 0 512 114.6 512 256C512 397.4 397.4 512 256 512C114.6 512 0 397.4 0 256zM293.8 131.6L157.8 243.6C152.6 247.9 150.7 255 152.9 261.4C155.2 267.8 161.2 271.1 168 271.1H231.7L193.3 361.7C190.4 368.5 192.5 376.4 198.4 380.8C204.3 385.2 212.5 385 218.2 380.4L354.2 268.4C359.4 264.1 361.3 256.1 359.1 250.6C356.8 244.2 350.8 240 344 240H280.3L318.7 150.3C321.6 143.5 319.5 135.6 313.6 131.2C307.7 126.8 299.5 126.1 293.8 131.6L293.8 131.6z"/></svg>