<svg xmlns="http://www.w3.org/2000/svg" viewBox="0 0 512 512"><!--! Font Awesome Pro 6.1.1 by @fontawesome - https://fontawesome.com License - https://fontawesome.com/license (Commercial License) Copyright 2022 Fonticons, Inc. --><defs><style>.fa-secondary{opacity:.4}</style></defs><path class="fa-primary" d="M328 128c-13.25 0-24 10.75-24 24v131.2L203.7 138.3c-5.953-8.641-16.88-12.31-26.89-9.25C166.8 132.2 160 141.5 160 152v208C160 373.3 170.8 384 184 384s24-10.75 24-24V228.8l100.3 144.8C312.8 380.3 320.3 384 328 384c2.391 0 4.797-.3594 7.156-1.094C345.2 379.8 352 370.5 352 360v-208C352 138.8 341.3 128 328 128z"/><path class="fa-secondary" d="M256 0C114.6 0 0 114.6 0 256s114.6 256 256 256s256-114.6 256-256S397.4 0 256 0zM352 360c0 10.5-6.828 19.78-16.84 22.91C332.8 383.6 330.4 384 328 384c-7.719 0-15.17-3.734-19.73-10.34L208 228.8V360C208 373.3 197.3 384 184 384S160 373.3 160 360v-208c0-10.5 6.828-19.78 16.84-22.91c10.02-3.062 20.94 .6094 26.89 9.25L304 283.2V152C304 138.8 314.8 128 328 128S352 138.8 352 152V360z"/></svg>