<svg xmlns="http://www.w3.org/2000/svg" viewBox="0 0 512 512"><!--! Font Awesome Pro 6.0.0-beta3 by @fontawesome - https://fontawesome.com License - https://fontawesome.com/license (Commercial License) Copyright 2021 Fonticons, Inc. --><defs><style>.fa-secondary{opacity:.4}</style></defs><path class="fa-primary" d="M256 0c-141.4 0-256 114.6-256 256s114.6 256 256 256c141.4 0 256-114.6 256-256S397.4 0 256 0zM256 448c-106 0-192-85.96-192-192c0-106 85.96-192 192-192c106 0 192 85.96 192 192C448 362 362 448 256 448z"/><path class="fa-secondary" d="M120.2 391.8C154.1 426.5 202.1 448 256 448s101-21.49 135.8-56.24L256 256L120.2 391.8zM256 64C202.1 64 154.1 85.49 120.2 120.2L256 256l135.8-135.8C357 85.49 309 64 256 64z"/></svg>