<svg xmlns="http://www.w3.org/2000/svg" viewBox="0 0 512 512"><!--! Font Awesome Pro 6.1.1 by @fontawesome - https://fontawesome.com License - https://fontawesome.com/license (Commercial License) Copyright 2022 Fonticons, Inc. --><defs><style>.fa-secondary{opacity:.4}</style></defs><path class="fa-primary" d="M282 196l29.76-25.94c9.969-8.719 11.03-23.88 2.312-33.88C309.3 130.8 302.7 128 296 128c-5.594 0-11.22 1.938-15.78 5.906L200.3 203.6C187.5 214.7 160 246.7 160 288c0 52.94 43.06 96 96 96s96-43.06 96-96C352 244.1 322.3 207.5 282 196zM256 336c-26.47 0-48-21.53-48-48c0-4.719 .6562-9.312 1.969-13.72C216 254.1 234.9 240 256 240c26.47 0 48 21.53 48 48S282.5 336 256 336z"/><path class="fa-secondary" d="M256 240c-21.06 0-40 14.09-46.03 34.28C208.7 278.7 208 283.3 208 288c0 26.47 21.53 48 48 48s48-21.53 48-48S282.5 240 256 240zM256 0C114.6 0 0 114.6 0 256s114.6 256 256 256s256-114.6 256-256S397.4 0 256 0zM256 384c-52.94 0-96-43.06-96-96c0-41.3 27.55-73.29 40.28-84.41l79.94-69.69C284.8 129.9 290.4 128 296 128c6.688 0 13.34 2.781 18.09 8.219c8.719 10 7.656 25.16-2.312 33.88l-29.76 25.94C322.3 207.5 352 244.1 352 288C352 340.9 308.9 384 256 384z"/></svg>