<svg xmlns="http://www.w3.org/2000/svg" viewBox="0 0 512 512"><!--! Font Awesome Pro 6.1.1 by @fontawesome - https://fontawesome.com License - https://fontawesome.com/license (Commercial License) Copyright 2022 Fonticons, Inc. --><defs><style>.fa-secondary{opacity:.4}</style></defs><path class="fa-primary" d="M192 256C192 273.7 177.7 288 160 288C142.3 288 128 273.7 128 256C128 238.3 142.3 224 160 224C177.7 224 192 238.3 192 256zM288 256C288 273.7 273.7 288 256 288C238.3 288 224 273.7 224 256C224 238.3 238.3 224 256 224C273.7 224 288 238.3 288 256zM320 256C320 238.3 334.3 224 352 224C369.7 224 384 238.3 384 256C384 273.7 369.7 288 352 288C334.3 288 320 273.7 320 256z"/><path class="fa-secondary" d="M0 256C0 114.6 114.6 0 256 0C397.4 0 512 114.6 512 256C512 397.4 397.4 512 256 512C114.6 512 0 397.4 0 256zM160 288C177.7 288 192 273.7 192 256C192 238.3 177.7 224 160 224C142.3 224 128 238.3 128 256C128 273.7 142.3 288 160 288zM256 224C238.3 224 224 238.3 224 256C224 273.7 238.3 288 256 288C273.7 288 288 273.7 288 256C288 238.3 273.7 224 256 224zM352 288C369.7 288 384 273.7 384 256C384 238.3 369.7 224 352 224C334.3 224 320 238.3 320 256C320 273.7 334.3 288 352 288z"/></svg>