<svg xmlns="http://www.w3.org/2000/svg" viewBox="0 0 512 512"><!--! Font Awesome Pro 6.1.1 by @fontawesome - https://fontawesome.com License - https://fontawesome.com/license (Commercial License) Copyright 2022 Fonticons, Inc. --><defs><style>.fa-secondary{opacity:.4}</style></defs><path class="fa-primary" d="M352 296C352 309.3 341.3 320 328 320H320v40c0 13.25-10.75 24-24 24s-24-10.75-24-24V320H169.1c-8.078 0-15.61-4.062-20.05-10.81s-5.188-15.25-2-22.69l62-144c5.234-12.16 19.31-17.84 31.53-12.53c12.19 5.219 17.8 19.34 12.56 31.53L206.5 272H272V221.3c0-13.25 10.75-24 24-24s24 10.75 24 24V272h8C341.3 272 352 282.8 352 296z"/><path class="fa-secondary" d="M256 0C114.6 0 0 114.6 0 256s114.6 256 256 256s256-114.6 256-256S397.4 0 256 0zM328 320H320v40c0 13.25-10.75 24-24 24s-24-10.75-24-24V320H169.1c-8.078 0-15.61-4.062-20.05-10.81s-5.188-15.25-2-22.69l62-144c5.234-12.16 19.31-17.84 31.53-12.53c12.19 5.219 17.8 19.34 12.56 31.53L206.5 272H272V221.3c0-13.25 10.75-24 24-24s24 10.75 24 24V272h8C341.3 272 352 282.8 352 296S341.3 320 328 320z"/></svg>