<svg xmlns="http://www.w3.org/2000/svg" viewBox="0 0 512 512"><!--! Font Awesome Pro 6.0.0-beta3 by @fontawesome - https://fontawesome.com License - https://fontawesome.com/license (Commercial License) Copyright 2021 Fonticons, Inc. --><defs><style>.fa-secondary{opacity:.4}</style></defs><path class="fa-primary" d="M.8086 272c3.633 58.61 26.87 111.8 63.39 153.2l45.32-45.32C84.43 350.2 68.21 312.9 64.81 272H.8086zM132.1 109.5C161.8 84.43 199.1 68.21 240 64.81v-64C181.4 4.441 128.2 27.69 86.83 64.21L132.1 109.5zM272 447.2v64c58.62-3.633 111.8-26.88 153.2-63.41l-45.32-45.32C350.2 427.6 312.9 443.8 272 447.2zM447.8 86.84l-45.32 45.32C427.6 161.8 443.8 199.1 447.2 240h64C507.6 181.4 484.3 128.2 447.8 86.84z"/><path class="fa-secondary" d="M64.2 86.84C27.68 128.2 4.441 181.4 .8086 240h64c3.4-40.92 19.62-78.21 44.71-107.8L64.2 86.84zM272 .8086v64c40.93 3.4 78.22 19.62 107.9 44.72l45.32-45.32C383.8 27.69 330.6 4.441 272 .8086zM86.83 447.8C128.2 484.3 181.4 507.6 240 511.2v-64c-40.93-3.4-78.22-19.62-107.9-44.72L86.83 447.8zM447.2 272c-3.4 40.92-19.62 78.21-44.71 107.8l45.32 45.32C484.3 383.8 507.6 330.6 511.2 272H447.2z"/></svg>