<svg xmlns="http://www.w3.org/2000/svg" viewBox="0 0 512 512"><!--! Font Awesome Pro 6.1.1 by @fontawesome - https://fontawesome.com License - https://fontawesome.com/license (Commercial License) Copyright 2022 Fonticons, Inc. --><defs><style>.fa-secondary{opacity:.4}</style></defs><path class="fa-primary" d="M288 160C288 177.7 273.7 192 256 192C238.3 192 224 177.7 224 160C224 142.3 238.3 128 256 128C273.7 128 288 142.3 288 160zM144 256C144 242.7 154.7 232 168 232H344C357.3 232 368 242.7 368 256C368 269.3 357.3 280 344 280H168C154.7 280 144 269.3 144 256zM224 352C224 334.3 238.3 320 256 320C273.7 320 288 334.3 288 352C288 369.7 273.7 384 256 384C238.3 384 224 369.7 224 352z"/><path class="fa-secondary" d="M0 256C0 114.6 114.6 0 256 0C397.4 0 512 114.6 512 256C512 397.4 397.4 512 256 512C114.6 512 0 397.4 0 256zM256 192C273.7 192 288 177.7 288 160C288 142.3 273.7 128 256 128C238.3 128 224 142.3 224 160C224 177.7 238.3 192 256 192zM168 232C154.7 232 144 242.7 144 256C144 269.3 154.7 280 168 280H344C357.3 280 368 269.3 368 256C368 242.7 357.3 232 344 232H168zM256 320C238.3 320 224 334.3 224 352C224 369.7 238.3 384 256 384C273.7 384 288 369.7 288 352C288 334.3 273.7 320 256 320z"/></svg>