<svg xmlns="http://www.w3.org/2000/svg" viewBox="0 0 512 512"><!--! Font Awesome Pro 6.0.0-beta3 by @fontawesome - https://fontawesome.com License - https://fontawesome.com/license (Commercial License) Copyright 2021 Fonticons, Inc. --><defs><style>.fa-secondary{opacity:.4}</style></defs><path class="fa-primary" d="M256 96C269.3 96 280 106.7 280 120V135.8C292.9 137.4 305.8 141.4 318.4 144.9C331.2 148.4 338.7 161.6 335.1 174.4C331.6 187.2 318.4 194.7 305.6 191.1C296.1 188.5 286.6 185.7 276.9 183.8C262.3 181 245.3 182.3 231.6 188.3C219.3 193.6 209.2 206.4 223.1 215.3C236.3 223.8 252.9 227.2 267.7 231.5C285.1 236.4 307.2 242.7 323.8 254C345.4 268.8 355.5 292.8 350.7 318.6C346.2 343.5 328.8 359.9 308 368.3C299.4 371.8 289.9 373.1 280 375.1L280 392C280 405.3 269.3 416 256 416C242.7 416 232 405.3 232 392L231.1 372.7C215.9 369.1 200.1 363.9 184.5 358.8C171.9 354.6 165.1 341 169.2 328.5C173.4 315.9 186.1 309.1 199.5 313.2C214.8 318.2 230.4 324.2 246.2 326.6C265.1 329.4 280.2 327.7 290.1 323.7C303.4 318.4 309.7 302.6 296.7 293.6C283.3 284.5 266.1 280.9 250.8 276.6C234 271.8 213.1 265.9 197.3 255.8C175.6 241.9 164.6 218.7 169.3 193.2C173.7 168.9 192.6 152.8 212.5 144.2C218.6 141.6 225.2 139.5 231.1 137.9V120C231.1 106.7 242.7 96 255.1 96H256z"/><path class="fa-secondary" d="M0 256C0 114.6 114.6 0 256 0C397.4 0 512 114.6 512 256C512 397.4 397.4 512 256 512C114.6 512 0 397.4 0 256zM280 120C280 106.7 269.3 96 255.1 96C242.7 96 231.1 106.7 231.1 120V137.9C225.2 139.5 218.6 141.6 212.5 144.2C192.6 152.8 173.7 168.9 169.3 193.2C164.6 218.7 175.6 241.9 197.3 255.8C213.1 265.9 234 271.8 250.8 276.6C253.2 277.3 255.8 277.9 258.3 278.6C271.5 282.2 285.4 285.1 296.7 293.6C309.7 302.6 303.4 318.4 290.1 323.7C280.2 327.7 265.1 329.4 246.2 326.6C233.3 324.6 220.5 320.3 207.9 316C205.1 315.1 202.3 314.1 199.5 313.2C186.1 309.1 173.4 315.9 169.2 328.5C165.1 341 171.9 354.6 184.5 358.8C200.1 363.9 215.9 369.1 232 372.7L232 392C232 405.3 242.7 416 256 416C269.3 416 280 405.3 280 392L280 375.1C289.9 373.1 299.4 371.8 308 368.3C328.8 359.9 346.2 343.5 350.7 318.6C355.5 292.8 345.4 268.8 323.8 254C307.2 242.7 285.1 236.4 267.7 231.5C265.2 230.7 262.6 230 259.1 229.3C247.3 225.9 234.1 222.3 223.1 215.3C209.2 206.4 219.3 193.6 231.6 188.3C245.3 182.3 262.3 181 276.9 183.8C284.9 185.3 292.7 187.5 300.4 189.7C302.2 190.2 303.9 190.7 305.6 191.1C318.4 194.7 331.6 187.2 335.1 174.4C338.7 161.6 331.2 148.4 318.4 144.9C316.3 144.3 314.3 143.7 312.2 143.1C301.6 140.1 290.8 137.1 280 135.8L280 120z"/></svg>