<svg xmlns="http://www.w3.org/2000/svg" viewBox="0 0 512 512"><!--! Font Awesome Pro 6.1.1 by @fontawesome - https://fontawesome.com License - https://fontawesome.com/license (Commercial License) Copyright 2022 Fonticons, Inc. --><defs><style>.fa-secondary{opacity:.4}</style></defs><path class="fa-primary" d="M425.8 9.375c-12.5-12.5-32.75-12.5-45.25 0L357.9 32l22.62 22.62C424 98.16 448 156 448 217.6c0 61.55-23.97 119.4-67.5 162.9C336.1 424 279.1 448 217.6 448c-61.53 0-119.4-23.97-162.9-67.48L32 357.9l-22.62 22.62C3.375 386.5 0 394.7 0 403.1s3.375 16.62 9.375 22.62C65 481.4 138.9 512 217.6 512c78.66 0 152.6-30.62 208.2-86.23C481.4 370.2 512 296.2 512 217.6C512 138.9 481.4 64.98 425.8 9.375z"/><path class="fa-secondary" d="M444.1 176C435.8 130.3 414.1 88.18 380.5 54.63L357.9 32L239.9 149.1C246.4 157.4 251.2 166.2 253.7 176H444.1zM32 357.9l22.62 22.62C88.18 414.1 130.3 435.8 176 444.1v-190.4c-9.816-2.541-18.64-7.334-26.03-13.82L32 357.9zM447.5 208H253.7C252.2 213.8 249.9 219.3 246.9 224.3l144.3 144.3C427.8 326.7 448 273.7 448 217.6C448 214.4 447.7 211.2 447.5 208zM208 253.7v193.8C211.2 447.7 214.3 448 217.6 448c56.19 0 109.1-20.16 151.1-56.73L224.3 246.9C219.3 249.9 213.8 252.2 208 253.7z"/></svg>