<svg xmlns="http://www.w3.org/2000/svg" viewBox="0 0 384 512"><!--! Font Awesome Pro 6.0.0-beta3 by @fontawesome - https://fontawesome.com License - https://fontawesome.com/license (Commercial License) Copyright 2021 Fonticons, Inc. --><defs><style>.fa-secondary{opacity:.4}</style></defs><path class="fa-primary" d="M256 64c0-35.35-28.65-64-64-64S128 28.65 128 64C92.65 64 64 92.65 64 128v16C64 152.8 71.16 160 80 160h224C312.8 160 320 152.8 320 144V128C320 92.65 291.3 64 256 64zM192 88C178.7 88 168 77.25 168 64c0-13.26 10.75-24 24-24S216 50.74 216 64C216 77.25 205.3 88 192 88zM96 344c-13.25 0-24 10.75-24 24S82.75 392 96 392s24-10.75 24-24S109.3 344 96 344zM96 248c-13.25 0-24 10.75-24 24S82.75 296 96 296S120 285.3 120 272S109.3 248 96 248z"/><path class="fa-secondary" d="M336 64H256c35.35 0 64 28.65 64 64v16C320 152.8 312.8 160 304 160h-224C71.16 160 64 152.8 64 144V128c0-35.35 28.65-64 64-64H48C21.49 64 0 85.49 0 112v352C0 490.5 21.49 512 48 512h288c26.51 0 48-21.49 48-48v-352C384 85.49 362.5 64 336 64zM96 392c-13.25 0-24-10.75-24-24S82.75 344 96 344s24 10.75 24 24S109.3 392 96 392zM96 296c-13.25 0-24-10.75-24-24S82.75 248 96 248S120 258.8 120 272S109.3 296 96 296zM304 384h-128C167.2 384 160 376.8 160 368C160 359.2 167.2 352 176 352h128c8.801 0 16 7.199 16 16C320 376.8 312.8 384 304 384zM304 288h-128C167.2 288 160 280.8 160 272C160 263.2 167.2 256 176 256h128C312.8 256 320 263.2 320 272C320 280.8 312.8 288 304 288z"/></svg>