<svg xmlns="http://www.w3.org/2000/svg" viewBox="0 0 384 512"><!--! Font Awesome Pro 6.0.0-beta3 by @fontawesome - https://fontawesome.com License - https://fontawesome.com/license (Commercial License) Copyright 2021 Fonticons, Inc. --><defs><style>.fa-secondary{opacity:.4}</style></defs><path class="fa-primary" d="M256 64c0-35.35-28.65-64-64-64S128 28.65 128 64C92.65 64 64 92.65 64 128v16C64 152.8 71.16 160 80 160h224C312.8 160 320 152.8 320 144V128C320 92.65 291.3 64 256 64zM192 40c13.25 0 24 10.74 24 24c0 13.25-10.75 24-24 24S168 77.25 168 64C168 50.74 178.7 40 192 40z"/><path class="fa-secondary" d="M384 112v352c0 26.51-21.49 48-48 48h-288C21.49 512 0 490.5 0 464v-352C0 85.49 21.49 64 48 64H128C92.65 64 64 92.65 64 128v16C64 152.8 71.16 160 80 160h224C312.8 160 320 152.8 320 144V128c0-35.35-28.65-64-64-64h80C362.5 64 384 85.49 384 112z"/></svg>