<svg xmlns="http://www.w3.org/2000/svg" viewBox="0 0 384 512"><!--! Font Awesome Pro 6.0.0-beta3 by @fontawesome - https://fontawesome.com License - https://fontawesome.com/license (Commercial License) Copyright 2021 Fonticons, Inc. --><defs><style>.fa-secondary{opacity:.4}</style></defs><path class="fa-primary" d="M256 64c0-35.35-28.65-64-64-64S128 28.65 128 64C92.65 64 64 92.65 64 128v16C64 152.8 71.16 160 80 160h224C312.8 160 320 152.8 320 144V128C320 92.65 291.3 64 256 64zM192 88C178.7 88 168 77.25 168 64c0-13.26 10.75-24 24-24S216 50.74 216 64C216 77.25 205.3 88 192 88zM245.1 249.2l-72.52 92.28L135.6 309.8C125.5 301.2 110.4 302.3 101.8 312.4c-8.625 10.06-7.469 25.22 2.594 33.84l56 48C164.7 397.1 170.3 400 175.1 400c.7813 0 1.562-.0313 2.344-.125c6.516-.625 12.48-3.906 16.53-9.062l88-112c8.188-10.41 6.375-25.5-4.047-33.69C268.4 236.1 253.3 238.8 245.1 249.2z"/><path class="fa-secondary" d="M336 64H256c35.35 0 64 28.65 64 64v16C320 152.8 312.8 160 304 160h-224C71.16 160 64 152.8 64 144V128c0-35.35 28.65-64 64-64H48C21.49 64 0 85.49 0 112v352C0 490.5 21.49 512 48 512h288c26.51 0 48-21.49 48-48v-352C384 85.49 362.5 64 336 64zM282.9 278.8l-88 112c-4.047 5.156-10.02 8.438-16.53 9.062C177.6 399.1 176.8 400 175.1 400c-5.703 0-11.25-2.031-15.62-5.781l-56-48c-10.06-8.625-11.22-23.78-2.594-33.84c8.609-10.06 23.77-11.22 33.84-2.594l36.98 31.69l72.52-92.28c8.188-10.44 23.3-12.22 33.7-4.062C289.3 253.3 291.1 268.4 282.9 278.8z"/></svg>