<svg xmlns="http://www.w3.org/2000/svg" viewBox="0 0 384 512"><!--! Font Awesome Pro 6.1.1 by @fontawesome - https://fontawesome.com License - https://fontawesome.com/license (Commercial License) Copyright 2022 Fonticons, Inc. --><defs><style>.fa-secondary{opacity:.4}</style></defs><path class="fa-primary" d="M256 64c0-35.35-28.65-64-64-64S128 28.65 128 64C92.65 64 64 92.65 64 128v16C64 152.8 71.16 160 80 160h224C312.8 160 320 152.8 320 144V128C320 92.65 291.3 64 256 64zM192 88C178.7 88 168 77.25 168 64c0-13.26 10.75-24 24-24S216 50.74 216 64C216 77.25 205.3 88 192 88zM96 376c-13.25 0-24 10.75-24 24S82.75 424 96 424s24-10.75 24-24S109.3 376 96 376zM164.7 228.7L112 281.4L91.31 260.7c-6.25-6.25-16.38-6.25-22.62 0s-6.25 16.38 0 22.62l32 32C103.8 318.4 107.9 320 112 320s8.188-1.562 11.31-4.688l64-64c6.25-6.25 6.25-16.38 0-22.62S170.9 222.4 164.7 228.7z"/><path class="fa-secondary" d="M336 64H256c35.35 0 64 28.65 64 64v16C320 152.8 312.8 160 304 160h-224C71.16 160 64 152.8 64 144V128c0-35.35 28.65-64 64-64H48C21.49 64 0 85.49 0 112v352C0 490.5 21.49 512 48 512h288c26.51 0 48-21.49 48-48v-352C384 85.49 362.5 64 336 64zM96 424c-13.25 0-24-10.75-24-24S82.75 376 96 376s24 10.75 24 24S109.3 424 96 424zM112 320c-4.094 0-8.188-1.562-11.31-4.688l-32-32c-6.25-6.25-6.25-16.38 0-22.62s16.38-6.25 22.62 0L112 281.4l52.69-52.69c6.25-6.25 16.38-6.25 22.62 0s6.25 16.38 0 22.62l-64 64C120.2 318.4 116.1 320 112 320zM304 416h-128C167.2 416 160 408.8 160 400C160 391.2 167.2 384 176 384h128c8.801 0 16 7.199 16 16C320 408.8 312.8 416 304 416zM304 320h-96C199.2 320 192 312.8 192 304C192 295.2 199.2 288 208 288h96C312.8 288 320 295.2 320 304C320 312.8 312.8 320 304 320z"/></svg>