<svg xmlns="http://www.w3.org/2000/svg" viewBox="0 0 512 512"><!--! Font Awesome Pro 6.1.1 by @fontawesome - https://fontawesome.com License - https://fontawesome.com/license (Commercial License) Copyright 2022 Fonticons, Inc. --><defs><style>.fa-secondary{opacity:.4}</style></defs><path class="fa-primary" d="M232 392V256C232 242.7 242.7 232 256 232C269.3 232 280 242.7 280 256V392C280 405.3 269.3 416 256 416C242.7 416 232 405.3 232 392z"/><path class="fa-secondary" d="M256 0C397.4 0 512 114.6 512 256C512 397.4 397.4 512 256 512C114.6 512 0 397.4 0 256C0 114.6 114.6 0 256 0zM280 256C280 242.7 269.3 232 256 232C242.7 232 232 242.7 232 256V392C232 405.3 242.7 416 256 416C269.3 416 280 405.3 280 392V256z"/></svg>