<svg xmlns="http://www.w3.org/2000/svg" viewBox="0 0 512 512"><!--! Font Awesome Pro 6.0.0-beta3 by @fontawesome - https://fontawesome.com License - https://fontawesome.com/license (Commercial License) Copyright 2021 Fonticons, Inc. --><defs><style>.fa-secondary{opacity:.4}</style></defs><path class="fa-primary" d="M256 96C269.3 96 280 106.7 280 120V256C280 269.3 269.3 280 256 280H152C138.7 280 128 269.3 128 256C128 242.7 138.7 232 152 232H232V120C232 106.7 242.7 96 256 96z"/><path class="fa-secondary" d="M0 256C0 114.6 114.6 0 256 0C397.4 0 512 114.6 512 256C512 397.4 397.4 512 256 512C114.6 512 0 397.4 0 256zM280 120C280 106.7 269.3 96 256 96C242.7 96 232 106.7 232 120V232H152C138.7 232 128 242.7 128 256C128 269.3 138.7 280 152 280H256C269.3 280 280 269.3 280 256V120z"/></svg>