<svg xmlns="http://www.w3.org/2000/svg" viewBox="0 0 640 512"><!--! Font Awesome Pro 6.0.0-beta3 by @fontawesome - https://fontawesome.com License - https://fontawesome.com/license (Commercial License) Copyright 2021 Fonticons, Inc. --><defs><style>.fa-secondary{opacity:.4}</style></defs><path class="fa-secondary" d="M640 352c0 70.7-57.31 128-128 128H144C64.5 480 0 415.5 0 336c0-62.8 40.2-116.2 96.2-135.9C96.11 197.4 96 194.7 96 192c0-88.41 71.59-160 160-160c59.31 0 111 32.2 138.7 80.2C409.9 102 428.3 96 448 96c53 0 96 43 96 96c0 12.2-2.312 23.91-6.406 34.59C596 238.4 640 290.1 640 352z"/></svg>