<svg xmlns="http://www.w3.org/2000/svg" viewBox="0 0 640 512"><!--! Font Awesome Pro 6.0.0-beta3 by @fontawesome - https://fontawesome.com License - https://fontawesome.com/license (Commercial License) Copyright 2021 Fonticons, Inc. --><defs><style>.fa-secondary{opacity:.4}</style></defs><path class="fa-primary" d="M630.8 469.1L38.82 5.109C34.41 1.672 29.19 0 24.03 0C16.91 0 9.847 3.156 5.129 9.188C-3.059 19.62-1.246 34.72 9.191 42.89L601.2 506.9c10.5 8.203 25.56 6.328 33.69-4.078C643.1 492.4 641.2 477.3 630.8 469.1z"/><path class="fa-secondary" d="M537.6 226.6C541.7 215.9 544 204.2 544 192c0-53-43-96-96-96c-19.69 0-38.09 6-53.31 16.2C367 64.2 315.3 32 256 32C209.6 32 168.2 52.05 139.1 83.69l460.4 360.9C624.3 421.3 640 388.7 640 352C640 290.1 596 238.4 537.6 226.6zM96 192c0 2.703 .1094 5.445 .2031 8.133C40.2 219.8 0 273.2 0 336C0 415.5 64.5 480 144 480h345.1L97.87 173.4C97.15 179.6 96 185.6 96 192z"/></svg>