<svg xmlns="http://www.w3.org/2000/svg" viewBox="0 0 512 512"><!--! Font Awesome Pro 6.1.1 by @fontawesome - https://fontawesome.com License - https://fontawesome.com/license (Commercial License) Copyright 2022 Fonticons, Inc. --><defs><style>.fa-secondary{opacity:.4}</style></defs><path class="fa-primary" d="M512 224c0 53-43 96-96 96H96c-53 0-96-43-96-96c0-42.5 27.75-78.25 66.13-90.75C64.75 126.2 64 119.2 64 112C64 50.12 114.1 0 176 0c43.25 0 80.38 24.75 99 60.75C289.8 43.25 311.4 32 336 32C380.2 32 416 67.75 416 112c0 5.625-.5 11-1.625 16.25C414.9 128.2 415.4 128 416 128C469 128 512 171 512 224z"/><path class="fa-secondary" d="M384 352c-17.75 0-32 14.25-32 32s14.25 32 32 32s32-14.25 32-32S401.8 352 384 352zM192 448c-17.75 0-32 14.25-32 32s14.25 32 32 32s32-14.25 32-32S209.8 448 192 448zM320 448c-17.75 0-32 14.25-32 32s14.25 32 32 32s32-14.25 32-32S337.8 448 320 448zM256 352c-17.75 0-32 14.25-32 32s14.25 32 32 32s32-14.25 32-32S273.8 352 256 352zM64 448c-17.75 0-32 14.25-32 32s14.25 32 32 32s32-14.25 32-32S81.75 448 64 448zM128 352c-17.75 0-32 14.25-32 32s14.25 32 32 32s32-14.25 32-32S145.8 352 128 352z"/></svg>