<svg xmlns="http://www.w3.org/2000/svg" viewBox="0 0 640 512"><!--! Font Awesome Pro 6.1.1 by @fontawesome - https://fontawesome.com License - https://fontawesome.com/license (Commercial License) Copyright 2022 Fonticons, Inc. --><defs><style>.fa-secondary{opacity:.4}</style></defs><path class="fa-primary" d="M208 288C208 274.7 218.7 264 232 264H408C421.3 264 432 274.7 432 288C432 301.3 421.3 312 408 312H232C218.7 312 208 301.3 208 288z"/><path class="fa-secondary" d="M144 480C64.47 480 0 415.5 0 336C0 273.2 40.17 219.8 96.2 200.1C96.07 197.4 96 194.7 96 192C96 103.6 167.6 32 256 32C315.3 32 367 64.25 394.7 112.2C409.9 101.1 428.3 96 448 96C501 96 544 138.1 544 192C544 204.2 541.7 215.8 537.6 226.6C596 238.4 640 290.1 640 352C640 422.7 582.7 480 512 480H144zM232 264C218.7 264 208 274.7 208 288C208 301.3 218.7 312 232 312H408C421.3 312 432 301.3 432 288C432 274.7 421.3 264 408 264H232z"/></svg>