<svg xmlns="http://www.w3.org/2000/svg" viewBox="0 0 640 512"><!--! Font Awesome Pro 6.0.0-beta3 by @fontawesome - https://fontawesome.com License - https://fontawesome.com/license (Commercial License) Copyright 2021 Fonticons, Inc. --><defs><style>.fa-secondary{opacity:.4}</style></defs><path class="fa-primary" d="M384 351.1c0 17.62-21.5 32-48 32s-48-14.38-48-32s21.5-32 48-32c5.375 0 10.75 .7524 16 2.003l.0024-76.38l-96 37.5L256 383.1c0 17.62-21.5 32-48 32s-48-14.38-48-32s21.5-32 48-32c5.375 0 10.75 .7524 16 2.003l.0024-114.8c0-7 4.5-13.12 11.25-15.25l128-47.25c4.75-1.5 10.12-.625 14.25 2.375s6.5 7.75 6.5 12.88L384 351.1z"/><path class="fa-secondary" d="M537.6 226.6C541.7 215.9 544 204.2 544 192c0-53-43-96-96-96c-19.69 0-38.09 6-53.31 16.2C367 64.2 315.3 32 256 32C167.6 32 96 103.6 96 192c0 2.703 .1094 5.445 .2031 8.133C40.2 219.8 0 273.2 0 336C0 415.5 64.5 480 144 480H512c70.69 0 128-57.3 128-128C640 290.1 596 238.4 537.6 226.6zM384 351.1c0 17.62-21.5 32-48 32s-48-14.38-48-32s21.5-32 48-32c5.375 0 10.75 .7524 16 2.003l.0024-76.38l-96 37.5L256 383.1c0 17.62-21.5 32-48 32s-48-14.38-48-32s21.5-32 48-32c5.375 0 10.75 .7524 16 2.003l.0024-114.8c0-7 4.5-13.12 11.25-15.25l128-47.25c4.75-1.5 10.12-.625 14.25 2.375s6.5 7.75 6.5 12.88L384 351.1z"/></svg>