<svg xmlns="http://www.w3.org/2000/svg" viewBox="0 0 640 512"><!--! Font Awesome Pro 6.0.0-beta3 by @fontawesome - https://fontawesome.com License - https://fontawesome.com/license (Commercial License) Copyright 2021 Fonticons, Inc. --><defs><style>.fa-secondary{opacity:.4}</style></defs><path class="fa-primary" d="M215 255l88-88C305.6 164.5 311.5 160 320 160s14.4 4.467 16.97 7.031l88 88c9.375 9.375 9.375 24.56 0 33.94s-24.56 9.375-33.94 0L344 241.9V392c0 13.25-10.75 24-24 24s-24-10.75-24-24V241.9L248.1 288.1c-9.375 9.375-24.56 9.375-33.94 0S205.7 264.4 215 255z"/><path class="fa-secondary" d="M537.6 226.6C541.7 215.9 544 204.2 544 192c0-53-43-96-96-96c-19.69 0-38.09 6-53.31 16.2C367 64.2 315.3 32 256 32C167.6 32 96 103.6 96 192c0 2.703 .1094 5.445 .2031 8.133C40.2 219.8 0 273.2 0 336C0 415.5 64.5 480 144 480H512c70.69 0 128-57.3 128-128C640 290.1 596 238.4 537.6 226.6zM215 255l88-88C305.6 164.5 311.5 160 320 160s14.4 4.467 16.97 7.031l88 88c9.375 9.375 9.375 24.56 0 33.94s-24.56 9.375-33.94 0L344 241.9V392c0 13.25-10.75 24-24 24s-24-10.75-24-24V241.9L248.1 288.1c-9.375 9.375-24.56 9.375-33.94 0S205.7 264.4 215 255z"/></svg>