<svg xmlns="http://www.w3.org/2000/svg" viewBox="0 0 448 512"><!--! Font Awesome Pro 6.1.1 by @fontawesome - https://fontawesome.com License - https://fontawesome.com/license (Commercial License) Copyright 2022 Fonticons, Inc. --><defs><style>.fa-secondary{opacity:.4}</style></defs><path class="fa-primary" d="M0 80C0 35.82 35.82 0 80 0C124.2 0 160 35.82 160 80C160 124.2 124.2 160 80 160C35.82 160 0 124.2 0 80zM80 104C93.25 104 104 93.25 104 80C104 66.75 93.25 56 80 56C66.75 56 56 66.75 56 80C56 93.25 66.75 104 80 104zM288 80C288 35.82 323.8 0 368 0C412.2 0 448 35.82 448 80C448 124.2 412.2 160 368 160C323.8 160 288 124.2 288 80zM368 104C381.3 104 392 93.25 392 80C392 66.75 381.3 56 368 56C354.7 56 344 66.75 344 80C344 93.25 354.7 104 368 104zM160 432C160 476.2 124.2 512 80 512C35.82 512 0 476.2 0 432C0 387.8 35.82 352 80 352C124.2 352 160 387.8 160 432zM80 408C66.75 408 56 418.7 56 432C56 445.3 66.75 456 80 456C93.25 456 104 445.3 104 432C104 418.7 93.25 408 80 408z"/><path class="fa-secondary" d="M112 241.1C130.8 230.2 152.7 224 176 224H272C307.3 224 336 195.3 336 160V153.3C345.8 157.6 356.6 160 368 160C379.4 160 390.2 157.6 400 153.3V160C400 230.7 342.7 288 272 288H176C140.7 288 112 316.7 112 352V358.7C102.2 354.4 91.38 352 80 352C68.62 352 57.8 354.4 48 358.7V153.3C57.8 157.6 68.62 160 80 160C91.38 160 102.2 157.6 112 153.3V241.1z"/></svg>