<svg xmlns="http://www.w3.org/2000/svg" viewBox="0 0 448 512"><!--! Font Awesome Pro 6.1.1 by @fontawesome - https://fontawesome.com License - https://fontawesome.com/license (Commercial License) Copyright 2022 Fonticons, Inc. --><defs><style>.fa-secondary{opacity:.4}</style></defs><path class="fa-primary" d="M0 80C0 35.82 35.82 0 80 0C124.2 0 160 35.82 160 80C160 124.2 124.2 160 80 160C35.82 160 0 124.2 0 80zM80 104C93.25 104 104 93.25 104 80C104 66.75 93.25 56 80 56C66.75 56 56 66.75 56 80C56 93.25 66.75 104 80 104zM288 80C288 35.82 323.8 0 368 0C412.2 0 448 35.82 448 80C448 124.2 412.2 160 368 160C323.8 160 288 124.2 288 80zM368 104C381.3 104 392 93.25 392 80C392 66.75 381.3 56 368 56C354.7 56 344 66.75 344 80C344 93.25 354.7 104 368 104zM304 432C304 476.2 268.2 512 224 512C179.8 512 144 476.2 144 432C144 387.8 179.8 352 224 352C268.2 352 304 387.8 304 432zM224 408C210.7 408 200 418.7 200 432C200 445.3 210.7 456 224 456C237.3 456 248 445.3 248 432C248 418.7 237.3 408 224 408z"/><path class="fa-secondary" d="M112 192C112 209.7 126.3 224 144 224H304C321.7 224 336 209.7 336 192V153.3C345.8 157.6 356.6 160 368 160C379.4 160 390.2 157.6 400 153.3V192C400 245 357 288 304 288H256V358.7C246.2 354.4 235.4 352 224 352C212.6 352 201.8 354.4 192 358.7V288H144C90.98 288 48 245 48 192V153.3C57.8 157.6 68.62 160 80 160C91.38 160 102.2 157.6 112 153.3V192z"/></svg>