<svg xmlns="http://www.w3.org/2000/svg" viewBox="0 0 448 512"><!--! Font Awesome Pro 6.0.0-beta3 by @fontawesome - https://fontawesome.com License - https://fontawesome.com/license (Commercial License) Copyright 2021 Fonticons, Inc. --><defs><style>.fa-secondary{opacity:.4}</style></defs><path class="fa-primary" d="M366.1 90.69l-19.7 32.88c-31.58 52.7-79.23 92.61-133.8 120.9C154.9 274.4 106.9 319.6 73.39 375.4l-5.029 8.395c-13.03 21.74-46.29 21.03-56.19-2.297C-22.63 299.5 21.09 197.1 93.44 124.7c73.53-73.62 176.4-116.2 259.7-79.04C370.1 53.21 375.7 74.77 366.1 90.69z"/><path class="fa-secondary" d="M354.5 387.3c-73.53 73.62-176.3 116.2-259.7 79.04c-16.95-7.547-22.49-29.1-12.96-45.02l17.97-29.99c32.03-53.44 78.66-96.12 134.7-123.3c60.42-29.3 108.6-78.96 143.1-136.6l1.951-3.254c13.03-21.74 46.29-21.03 56.19 2.297C470.6 212.5 426.9 314.9 354.5 387.3z"/></svg>