<svg xmlns="http://www.w3.org/2000/svg" viewBox="0 0 512 512"><!--! Font Awesome Pro 6.1.1 by @fontawesome - https://fontawesome.com License - https://fontawesome.com/license (Commercial License) Copyright 2022 Fonticons, Inc. --><defs><style>.fa-secondary{opacity:.4}</style></defs><path class="fa-primary" d="M312 144h-112C186.8 144 176 154.8 176 168S186.8 192 200 192h54.06L167 279c-9.375 9.375-9.375 24.56 0 33.94c9.373 9.375 24.56 9.381 33.94 0L288 225.9V280c0 13.25 10.75 24 24 24s24-10.75 24-24v-112C336 154.8 325.3 144 312 144z"/><path class="fa-secondary" d="M256 32C114.6 32 .0273 125.1 .0273 240c0 49.63 21.35 94.98 56.97 130.7C44.5 421.1 2.729 466 2.229 466.5c-2.25 2.25-2.875 5.734-1.5 8.734C1.979 478.2 4.75 480 8 480c66.25 0 115.1-31.76 140.6-51.39C181.2 440.9 217.6 448 256 448c141.4 0 255.1-93.13 255.1-208S397.4 32 256 32zM336 280c0 13.25-10.75 24-24 24S288 293.3 288 280V225.9L200.1 312.1c-9.381 9.381-24.56 9.375-33.94 0c-9.375-9.375-9.375-24.56 0-33.94L254.1 192H200C186.8 192 176 181.3 176 168S186.8 144 200 144h112c13.25 0 24 10.75 24 24V280z"/></svg>