<svg xmlns="http://www.w3.org/2000/svg" viewBox="0 0 448 512"><!--! Font Awesome Pro 6.1.1 by @fontawesome - https://fontawesome.com License - https://fontawesome.com/license (Commercial License) Copyright 2022 Fonticons, Inc. --><defs><style>.fa-secondary{opacity:.4}</style></defs><path class="fa-primary" d="M352 288H192v64h64v32c0 52.94 43.06 96 96 96s96-43.06 96-96S404.9 288 352 288zM352 416c-17.66 0-32-14.34-32-32v-32h32c17.66 0 32 14.34 32 32S369.7 416 352 416zM256 160H192V128c0-52.94-43.06-96-96-96S0 75.06 0 128s43.06 96 96 96h160V160zM128 160H96C78.34 160 64 145.7 64 128s14.34-32 32-32s32 14.34 32 32V160z"/><path class="fa-secondary" d="M128 288H96c-52.94 0-96 43.06-96 96s43.06 96 96 96s96-43.06 96-96V224H128V288zM128 384c0 17.66-14.34 32-32 32s-32-14.34-32-32s14.34-32 32-32h32V384zM352 32c-52.94 0-96 43.06-96 96v160h64V224h32c52.94 0 96-43.06 96-96S404.9 32 352 32zM352 160h-32V128c0-17.66 14.34-32 32-32s32 14.34 32 32S369.7 160 352 160z"/></svg>