<svg xmlns="http://www.w3.org/2000/svg" viewBox="0 0 640 512"><!--! Font Awesome Pro 6.1.1 by @fontawesome - https://fontawesome.com License - https://fontawesome.com/license (Commercial License) Copyright 2022 Fonticons, Inc. --><defs><style>.fa-secondary{opacity:.4}</style></defs><path class="fa-primary" d="M288 0H96C78.33 0 64 14.33 64 32v192c0 17.67 14.33 32 32 32h192c17.67 0 32-14.33 32-32V32C320 14.33 305.7 0 288 0zM544 64h-128c-17.67 0-32 14.33-32 32v128c0 17.67 14.33 32 32 32h128c17.67 0 32-14.33 32-32V96C576 78.33 561.7 64 544 64z"/><path class="fa-secondary" d="M544 320H96c-54.4 0-96 41.6-96 96s41.6 96 96 96h448c54.4 0 96-41.6 96-96S598.4 320 544 320zM128 448c-19.2 0-32-12.8-32-32s12.8-32 32-32s32 12.8 32 32S147.2 448 128 448zM320 448c-19.2 0-32-12.8-32-32s12.8-32 32-32s32 12.8 32 32S339.2 448 320 448zM512 448c-19.2 0-32-12.8-32-32s12.8-32 32-32s32 12.8 32 32S531.2 448 512 448z"/></svg>