<svg xmlns="http://www.w3.org/2000/svg" viewBox="0 0 512 512"><!--! Font Awesome Pro 6.0.0-beta3 by @fontawesome - https://fontawesome.com License - https://fontawesome.com/license (Commercial License) Copyright 2021 Fonticons, Inc. --><defs><style>.fa-secondary{opacity:.4}</style></defs><path class="fa-primary" d="M423.9 359.1c-88.01-76.63-221.5-73.01-305.3 10.75l-67.88 67.88L96.01 483.9c37.5 37.5 98.26 37.5 135.8 0l90.51-90.51l97.63-19.5C426.4 372.5 428.8 364.2 423.9 359.1zM201 284.9c15.5-67.76-.7491-141.3-49-196.8C147.8 83.2 139.5 85.58 138.1 91.95l-19.5 97.76L28.13 280.2c-37.5 37.5-37.5 98.26 0 135.8l67.88-67.88C126.4 317.7 162.6 296.7 201 284.9z"/><path class="fa-secondary" d="M489.9 79.83c8.875 9.875 13.13 24.25 8.875 38.38c-4.125 13.38-14.63 23.38-27.13 27.13c7 11 8.625 25 2.875 37.88c-5.75 12.75-17.25 20.75-30.13 23c5.75 11.5 5.5 25.63-1.625 37.5c-6.625 11.75-18.88 18.88-31.63 19.75c4.5 11.88 3.251 25.63-4.751 36.88c-1.5 2-3.25 3.625-4.875 5.25c-51.25-28.5-110.1-37.5-166.5-28.13c9.375-56.38-.0002-115.3-28.38-166.4C209 107.1 211.8 105.2 215 102.8C226.1 94.83 240.3 93.58 252.1 98.08c.875-12.5 7.1-24.63 19.75-31.38c11.88-7 26-7 37.5-1.625c2.25-12.5 10.63-24 23.38-29.75c12.75-5.375 26.88-3.875 37.75 3.25c3.875-12.88 14.13-23.13 27.5-26.88c14.13-4.25 28.5 .0005 38.38 9.5c7.375-14 22.5-22.63 39.13-21c21.75 1.875 37.75 20.38 36.38 41.88v3.125C511.3 60.58 502.4 73.45 489.9 79.83z"/></svg>