<svg xmlns="http://www.w3.org/2000/svg" viewBox="0 0 576 512"><!--! Font Awesome Pro 6.1.1 by @fontawesome - https://fontawesome.com License - https://fontawesome.com/license (Commercial License) Copyright 2022 Fonticons, Inc. --><defs><style>.fa-secondary{opacity:.4}</style></defs><path class="fa-primary" d="M0 96C0 60.65 28.65 32 64 32H512C547.3 32 576 60.65 576 96V416C576 451.3 547.3 480 512 480H64C28.65 480 0 451.3 0 416V96zM112 288C103.2 288 96 295.2 96 304C96 312.8 103.2 320 112 320H464C472.8 320 480 312.8 480 304C480 295.2 472.8 288 464 288H112zM112 384H176C184.8 384 192 376.8 192 368C192 359.2 184.8 352 176 352H112C103.2 352 96 359.2 96 368C96 376.8 103.2 384 112 384zM240 384H368C376.8 384 384 376.8 384 368C384 359.2 376.8 352 368 352H240C231.2 352 224 359.2 224 368C224 376.8 231.2 384 240 384zM408 96C394.7 96 384 106.7 384 120V168C384 181.3 394.7 192 408 192H488C501.3 192 512 181.3 512 168V120C512 106.7 501.3 96 488 96H408z"/><path class="fa-secondary" d="M464 288C472.8 288 480 295.2 480 304C480 312.8 472.8 320 464 320H112C103.2 320 96 312.8 96 304C96 295.2 103.2 288 112 288H464zM96 368C96 359.2 103.2 352 112 352H176C184.8 352 192 359.2 192 368C192 376.8 184.8 384 176 384H112C103.2 384 96 376.8 96 368zM224 368C224 359.2 231.2 352 240 352H368C376.8 352 384 359.2 384 368C384 376.8 376.8 384 368 384H240C231.2 384 224 376.8 224 368z"/></svg>