<svg xmlns="http://www.w3.org/2000/svg" viewBox="0 0 512 512"><!--! Font Awesome Pro 6.0.0-beta3 by @fontawesome - https://fontawesome.com License - https://fontawesome.com/license (Commercial License) Copyright 2021 Fonticons, Inc. --><defs><style>.fa-secondary{opacity:.4}</style></defs><path class="fa-primary" d="M0 88v48C0 149.3 10.75 160 24 160H64V64H24C10.75 64 0 74.75 0 88zM424 64H192v96h160v328c0 13.25 10.75 24 24 24h48c13.25 0 24-10.75 24-24V88C448 74.75 437.3 64 424 64z"/><path class="fa-secondary" d="M448 109.3l54.63-54.63c12.5-12.5 12.5-32.75 0-45.25s-32.75-12.5-45.25 0L402.8 64H424C437.3 64 448 74.75 448 88V109.3zM160 306.8V24C160 10.75 149.3 0 136 0h-48C74.75 0 64 10.75 64 24v400C64 437.3 74.75 448 88 448H320v-96H205.3L352 205.3V160h-45.25L160 306.8zM488 354.4H448v96h40c13.25 0 24-10.75 24-24v-48C512 365.1 501.3 354.4 488 354.4z"/></svg>