<svg xmlns="http://www.w3.org/2000/svg" viewBox="0 0 576 512"><!--! Font Awesome Pro 6.0.0-beta3 by @fontawesome - https://fontawesome.com License - https://fontawesome.com/license (Commercial License) Copyright 2021 Fonticons, Inc. --><defs><style>.fa-secondary{opacity:.4}</style></defs><path class="fa-primary" d="M39.1 176c.2461 0 .459-.1164 .7051-.1203C40.46 175.9 40.25 176 39.1 176zM535.3 175.9C535.5 175.9 535.8 176 536 176C535.8 176 535.5 175.9 535.3 175.9zM504.5 159.6l-89.63 71.7c-15.91 12.73-39.5 7.546-48.61-10.68l-57.6-115.2C302.6 109.2 295.7 112 287.1 112S273.4 109.2 267.3 105.4L209.7 220.6c-9.111 18.22-32.71 23.4-48.61 10.68l-89.63-71.7C64.3 169.1 53.48 175.6 40.71 175.9l50.52 277.8C93.99 468.9 107.2 480 122.7 480h330.6c15.46 0 28.72-11.06 31.48-26.27l50.52-277.9C522.5 175.6 511.7 169.1 504.5 159.6z"/><path class="fa-secondary" d="M288 32C265.9 32 247.1 49.91 247.1 72s17.91 40 40 40s40-17.91 40-40S310.1 32 288 32zM39.1 96c-22.09 0-40 17.91-40 40s17.91 40 40 40s40-17.91 40-40S62.09 96 39.1 96zM536 96c-22.09 0-40 17.91-40 40s17.91 40 40 40S576 158.1 576 136S558.1 96 536 96z"/></svg>