<svg xmlns="http://www.w3.org/2000/svg" viewBox="0 0 512 512"><!--! Font Awesome Pro 6.0.0-beta3 by @fontawesome - https://fontawesome.com License - https://fontawesome.com/license (Commercial License) Copyright 2021 Fonticons, Inc. --><defs><style>.fa-secondary{opacity:.4}</style></defs><path class="fa-primary" d="M489.6 134.4l-112-32c-16-3.2-32 3.2-38.4 16L304 192H64C28.8 192 0 220.8 0 256L0 319.1L32 300.8v48l-12.8 32C16 393.6 12.8 406.4 16 419.2l25.6 83.2C44.8 505.6 51.2 512 57.6 512h64c9.6 0 16-6.4 16-16v-3.2l-25.6-89.6L131.2 352H288v144c0 9.6 6.4 15.1 15.1 15.1L368 512c9.6 0 16-6.4 16-16V288l32-64h64c19.2 0 32-12.8 32-32V163.2C512 150.4 502.4 137.6 489.6 134.4zM415.1 175.1c-9.6 0-16-6.4-16-16s6.4-16 16-16s16 6.4 16 16S425.6 175.1 415.1 175.1z"/><path class="fa-secondary" d="M441.3 27.6c-3.75-2.5-8.656-1.479-11.16 2.146l-18 27.25C407.5 64 401.1 69.64 393.6 73.26L351 94.63l-33.75-9.5l8.266-10.39C332.3 66.23 336 55.75 336 44.75l0-36.75c0-4.375-3.625-8-8-8L312 0c-4.375 0-8 3.625-8 8v36.75c0 3.625-1.25 7.125-3.5 9.1l-16.75 21l-16.12-4.498c-6.875-2-11.76-8.252-11.76-15.5l.0417-47.75c0-4.375-3.625-8-8-8L231.9 0c-4.375 0-8 3.625-8 8v47.75c0 21.5 14.38 40.5 35 46.25l77.69 21.91l2.637-5.515c6.4-12.8 22.4-19.2 38.4-16l18.09 5.171l12.18-5.694c12.38-6.125 23-15.63 30.75-27.13l18.12-27.13c2.5-3.75 1.552-8.646-2.198-11.15L441.3 27.6z"/></svg>