<svg xmlns="http://www.w3.org/2000/svg" viewBox="0 0 512 512"><!--! Font Awesome Pro 6.1.1 by @fontawesome - https://fontawesome.com License - https://fontawesome.com/license (Commercial License) Copyright 2022 Fonticons, Inc. --><defs><style>.fa-secondary{opacity:.4}</style></defs><path class="fa-primary" d="M280 224V288H326.1C347.4 288 358.1 313.9 343 328.1L272.1 399C263.6 408.4 248.4 408.4 239 399L168.1 328.1C153.9 313.9 164.6 288 185.9 288H232V224H64C28.65 224 0 195.3 0 160V96C0 60.65 28.65 32 64 32H448C483.3 32 512 60.65 512 96V160C512 195.3 483.3 224 448 224H280z"/><path class="fa-secondary" d="M384.1 343.6C401 327.6 404.6 306.4 399 288H448C483.3 288 512 316.7 512 352V416C512 451.3 483.3 480 448 480H64C28.65 480 0 451.3 0 416V352C0 316.7 28.65 288 64 288H112.1C107.4 306.4 110.1 327.6 127 343.6L216.4 432.1C238.3 454.8 273.7 454.8 295.6 432.1L384.1 343.6z"/></svg>