<svg xmlns="http://www.w3.org/2000/svg" viewBox="0 0 576 512"><!--! Font Awesome Pro 6.0.0-beta3 by @fontawesome - https://fontawesome.com License - https://fontawesome.com/license (Commercial License) Copyright 2021 Fonticons, Inc. --><defs><style>.fa-secondary{opacity:.4}</style></defs><path class="fa-primary" d="M448 287.1c0 88.37-71.63 160-160 160c-38.4 0-73.17-14.09-100.7-36.63l112.1-112.1c6.25-6.25 6.25-16.38 0-22.63s-16.38-6.25-22.63 0l-112.1 112.1C142.1 361.2 128 326.4 128 287.1c0-88.37 71.63-160 160-160C376.4 127.1 448 199.6 448 287.1z"/><path class="fa-secondary" d="M288 .0012c-17.67 0-32 14.33-32 32s14.33 32 32 32c17.67 0 32-14.33 32-32S305.7 .0012 288 .0012zM84.35 84.35c-12.5 12.5-12.5 32.76 0 45.25c12.5 12.5 32.76 12.5 45.26 0c12.5-12.5 12.5-32.76 0-45.25C117.1 71.86 96.85 71.86 84.35 84.35zM32 256c-17.67 0-32 14.33-32 32c0 17.67 14.33 32 32 32s32-14.33 32-32C64 270.3 49.67 256 32 256zM84.35 446.4c-12.5 12.5-12.5 32.76 0 45.26c12.5 12.5 32.76 12.5 45.26 0c12.5-12.5 12.5-32.76 0-45.26C117.1 433.9 96.85 433.9 84.35 446.4zM446.4 446.4c-12.5 12.5-12.5 32.76 0 45.26c12.5 12.5 32.76 12.5 45.26 0c12.5-12.5 12.5-32.76 0-45.26C479.2 433.9 458.9 433.9 446.4 446.4zM544 256c-17.67 0-32 14.33-32 32c0 17.67 14.33 32 32 32s32-14.33 32-32C576 270.3 561.7 256 544 256zM446.4 84.35c-12.5 12.5-12.5 32.76 0 45.25c12.5 12.5 32.76 12.5 45.26 0c12.5-12.5 12.5-32.76 0-45.25S458.9 71.86 446.4 84.35z"/></svg>