<svg xmlns="http://www.w3.org/2000/svg" viewBox="0 0 512 512"><!--! Font Awesome Pro 6.1.1 by @fontawesome - https://fontawesome.com License - https://fontawesome.com/license (Commercial License) Copyright 2022 Fonticons, Inc. --><defs><style>.fa-secondary{opacity:.4}</style></defs><path class="fa-primary" d="M113.1 328.5l55.01 172l-85.87-42.95c-10.53-5.281-23.38-18.09-28.62-28.62L6.75 333.5C2.313 324.6 0 314.8 0 304.9V214.6L113.1 328.5zM364.6 328.2L305.8 512H206.2l-58.81-183.8L256 273.9L364.6 328.2zM512 214.6V304.9c0 8.344-3.031 21.16-6.75 28.62l-47.73 95.38c-5.25 10.53-18.09 23.38-28.62 28.62l-85.87 42.95l55.01-172L512 214.6z"/><path class="fa-secondary" d="M7.531 176.9l123.6 123.6L240 246.1V139.3L58.97 74.06L7.531 176.9zM333.5 6.75C326.1 3.031 313.2 0 304.9 0H207.1C197.2 0 187.4 2.313 178.5 6.75L89.72 51.13L256 111l166.3-59.88L333.5 6.75zM453 74.06L272 139.3v106.9l108.8 54.41l123.6-123.6L453 74.06z"/></svg>