<svg xmlns="http://www.w3.org/2000/svg" viewBox="0 0 576 512"><!--! Font Awesome Pro 6.0.0-beta3 by @fontawesome - https://fontawesome.com License - https://fontawesome.com/license (Commercial License) Copyright 2021 Fonticons, Inc. --><defs><style>.fa-secondary{opacity:.4}</style></defs><path class="fa-primary" d="M64 64v288h448V64H64zM242.1 241.9c7.812 7.812 7.812 20.5 0 28.31C238.2 274.1 233.1 276 228 276S217.8 274.1 213.9 270.2l-48-48c-7.812-7.812-7.812-20.5 0-28.31l48-48c7.812-7.812 20.47-7.812 28.28 0s7.812 20.5 0 28.31L208.3 208L242.1 241.9zM410.1 222.2l-48 48C358.2 274.1 353.1 276 348 276s-10.23-1.938-14.14-5.844c-7.812-7.812-7.812-20.5 0-28.31l33.86-33.84L333.9 174.2c-7.812-7.812-7.812-20.5 0-28.31s20.47-7.812 28.28 0l48 48C417.1 201.7 417.1 214.4 410.1 222.2zM424 464H352L336 416h-96L224 464H152C138.8 464 128 474.8 128 488S138.8 512 152 512h272c13.25 0 24-10.75 24-24S437.3 464 424 464z"/><path class="fa-secondary" d="M528 0h-480C21.5 0 0 21.5 0 48v320C0 394.5 21.5 416 48 416h480c26.5 0 48-21.5 48-48v-320C576 21.5 554.5 0 528 0zM512 352H64V64h448V352z"/></svg>