<svg xmlns="http://www.w3.org/2000/svg" viewBox="0 0 576 512"><!--! Font Awesome Pro 6.1.1 by @fontawesome - https://fontawesome.com License - https://fontawesome.com/license (Commercial License) Copyright 2022 Fonticons, Inc. --><defs><style>.fa-secondary{opacity:.4}</style></defs><path class="fa-primary" d="M424 464H352L336 416h-96L224 464H152C138.8 464 128 474.8 128 488S138.8 512 152 512h272c13.25 0 24-10.75 24-24S437.3 464 424 464zM64 64v288h448V64H64zM384 224c0 8.799-7.199 15.1-16 15.1H320v48C320 296.8 312.8 304 304 304h-32C263.2 304 256 296.8 256 287.1v-48H208C199.2 239.1 192 232.8 192 224V191.1C192 183.2 199.2 176 208 176H256V128c0-8.801 7.199-16 16-16h32C312.8 112 320 119.2 320 128v48h48c8.801 0 16 7.198 16 15.1V224z"/><path class="fa-secondary" d="M528 0h-480C21.5 0 0 21.5 0 48v320C0 394.5 21.5 416 48 416h480c26.5 0 48-21.5 48-48v-320C576 21.5 554.5 0 528 0zM512 352H64V64h448V352z"/></svg>