<svg xmlns="http://www.w3.org/2000/svg" viewBox="0 0 512 512"><!--! Font Awesome Pro 6.1.1 by @fontawesome - https://fontawesome.com License - https://fontawesome.com/license (Commercial License) Copyright 2022 Fonticons, Inc. --><defs><style>.fa-secondary{opacity:.4}</style></defs><path class="fa-primary" d="M0 256C0 114.6 114.6 0 256 0C397.4 0 512 114.6 512 256C512 397.4 397.4 512 256 512C114.6 512 0 397.4 0 256zM96 208C87.16 208 80 215.2 80 224V288C80 296.8 87.16 304 96 304H416C424.8 304 432 296.8 432 288V224C432 215.2 424.8 208 416 208H96z"/><path class="fa-secondary" d="M80 224C80 215.2 87.16 208 96 208H416C424.8 208 432 215.2 432 224V288C432 296.8 424.8 304 416 304H96C87.16 304 80 296.8 80 288V224z"/></svg>