<svg xmlns="http://www.w3.org/2000/svg" viewBox="0 0 512 512"><!--! Font Awesome Pro 6.0.0-beta3 by @fontawesome - https://fontawesome.com License - https://fontawesome.com/license (Commercial License) Copyright 2021 Fonticons, Inc. --><defs><style>.fa-secondary{opacity:.4}</style></defs><path class="fa-primary" d="M256 0C114.6 0 0 114.6 0 256c0 141.4 114.6 256 256 256s256-114.6 256-256C512 114.6 397.4 0 256 0zM415.9 304H96.05C87.21 304 79.95 296.9 79.95 288V224c0-8.875 7.266-16 16.11-16h319.9c8.84 0 16.11 7.125 16.11 16v64C432.1 296.9 424.8 304 415.9 304z"/><path class="fa-secondary" d="M415.9 304H96.05C87.21 304 79.95 296.9 79.95 288V224c0-8.875 7.266-16 16.11-16h319.9c8.84 0 16.11 7.125 16.11 16v64C432.1 296.9 424.8 304 415.9 304z"/></svg>