<svg xmlns="http://www.w3.org/2000/svg" viewBox="0 0 576 512"><!--! Font Awesome Pro 6.1.1 by @fontawesome - https://fontawesome.com License - https://fontawesome.com/license (Commercial License) Copyright 2022 Fonticons, Inc. --><defs><style>.fa-secondary{opacity:.4}</style></defs><path class="fa-primary" d="M256 383.3C250.7 383.8 245.4 384 240 384C211.2 384 184 377.1 160 364.8V480C160 497.7 145.7 512 128 512H96C78.33 512 64 497.7 64 480V249.8C35.23 238.9 12.64 214.5 4.836 183.3L.9558 167.8C-3.331 150.6 7.094 133.2 24.24 128.1C41.38 124.7 58.76 135.1 63.05 152.2L66.93 167.8C70.49 182 83.29 191.1 97.97 191.1H256V383.3zM288 208.1L416 261.1V480C416 497.7 401.7 512 384 512H352C334.3 512 320 497.7 320 480V364.8C309.9 369.1 299.2 374.2 288 377.4V208.1zM305.9 180.9L332.7 19.85C334.6 8.395 344.5 0 356.1 0C363.6 0 370.6 3.52 375.1 9.502L392 32H444.1C456.8 32 469.1 37.06 478.1 46.06L496 64H552C565.3 64 576 74.75 576 88V112C576 156.2 540.2 192 496 192H426.7L420.5 229.2L305.9 180.9zM448 63.1C439.2 63.1 432 71.16 432 79.1C432 88.84 439.2 95.1 448 95.1C456.8 95.1 464 88.84 464 79.1C464 71.16 456.8 63.1 448 63.1z"/><path class="fa-secondary" d="M100.1 4.414C107.4-1.68 117.5-1.433 123.6 4.965L281.3 170.5L430.2 233.3C438.4 236.7 442.2 246.1 438.7 254.2C435.3 262.4 425.9 266.2 417.8 262.7L288 208.1V384C288 392.8 280.8 400 272 400C263.2 400 256 392.8 256 384V190.4L100.4 27.03C94.32 20.64 94.57 10.51 100.1 4.414V4.414z"/></svg>