<svg xmlns="http://www.w3.org/2000/svg" viewBox="0 0 512 512"><!--! Font Awesome Pro 6.0.0-beta3 by @fontawesome - https://fontawesome.com License - https://fontawesome.com/license (Commercial License) Copyright 2021 Fonticons, Inc. --><defs><style>.fa-secondary{opacity:.4}</style></defs><path class="fa-primary" d="M320 176.7l-.0041 26.79C254.6 199.7 192.8 172.5 145.9 126.7c1.12-5.68 2.44-11.34 3.1-16.1c10.79-38.53 29.94-74.05 56.2-104.2c8.91-10.29 25.84-5.064 27.77 8.425C242.8 76.51 273.2 134.1 320 176.7z"/><path class="fa-secondary" d="M400 63.97c-44.2 .0386-80.02 35.87-79.1 80.08l.0014 59.44c-101.9-5.852-191.9-68.31-233-161.7C81.48 29.26 63.81 28.53 58.01 40.83C40.87 76.99 31.99 116.5 32.01 156.6c0 70.8 34.11 136.9 85.11 185.9c12.27 11.73 25.25 22.66 38.88 32.77L12.12 411.2c-8.615 2.199-13.82 10.97-11.62 19.59c.4368 1.711 1.154 3.4 2.12 4.879c17.4 26.9 60.3 72.44 153.2 76.29c8.1 .2516 16.01-2.554 22.12-7.883l65.23-56.12l76.84 .0561c88.28 .0773 159.9-71.59 160-159.9c.0001-.0067 .0013-160.2 .0013-160.2l31.1-63.99L400 63.97zM400 160.1c-8.837-.0195-16.03-7.173-16.01-16.01c.0195-8.837 7.175-16.07 16.01-16.05c8.837 .0195 16.01 7.176 15.99 16.01C415.1 152.9 408.8 160.1 400 160.1z"/></svg>