<svg xmlns="http://www.w3.org/2000/svg" viewBox="0 0 448 512"><!--! Font Awesome Pro 6.0.0-beta3 by @fontawesome - https://fontawesome.com License - https://fontawesome.com/license (Commercial License) Copyright 2021 Fonticons, Inc. --><defs><style>.fa-secondary{opacity:.4}</style></defs><path class="fa-primary" d="M64 80c8.822 0 16 7.178 16 16S72.82 112 64 112S48 104.8 48 96S55.18 80 64 80zM64 32C28.65 32 0 60.65 0 96s28.65 64 64 64s64-28.65 64-64S99.35 32 64 32zM384 80c8.822 0 16 7.178 16 16S392.8 112 384 112S368 104.8 368 96S375.2 80 384 80zM384 32c-35.35 0-64 28.65-64 64s28.65 64 64 64s64-28.65 64-64S419.3 32 384 32zM64 400c8.822 0 16 7.178 16 16S72.82 432 64 432S48 424.8 48 416S55.18 400 64 400zM64 352c-35.35 0-64 28.65-64 64s28.65 64 64 64s64-28.65 64-64S99.35 352 64 352zM384 400c8.822 0 16 7.178 16 16s-7.178 16-16 16s-16-7.178-16-16S375.2 400 384 400zM384 352c-35.35 0-64 28.65-64 64s28.65 64 64 64s64-28.65 64-64S419.3 352 384 352zM288 240c8.822 0 16 7.178 16 16S296.8 272 288 272S272 264.8 272 256S279.2 240 288 240zM288 192c-35.35 0-64 28.65-64 64s28.65 64 64 64s64-28.65 64-64S323.3 192 288 192z"/><path class="fa-secondary" d="M32 151.1v209.8C41.45 355.4 52.28 352 64 352s22.55 3.378 32 8.876v-209.8C86.55 156.6 75.72 160 64 160S41.45 156.6 32 151.1zM289 319.9L327.5 384H119.1C124.6 393.4 128 404.3 128 416s-3.378 22.55-8.876 32h209.8C323.4 438.6 320 427.7 320 416c0-34.99 28.13-63.32 62.99-63.89l-39.22-65.35C333 306.2 312.7 319.5 289 319.9zM439.8 446.8C439.6 447.2 439.4 447.6 439.1 448h1.393L439.8 446.8zM320 96c0-11.72 3.378-22.55 8.876-32H119.1C124.6 73.45 128 84.28 128 96S124.6 118.6 119.1 128h208.4l-38.48 64.11c23.68 .3828 44 13.69 54.75 33.12l39.22-65.35C348.1 159.3 320 130.1 320 96z"/></svg>