<svg xmlns="http://www.w3.org/2000/svg" viewBox="0 0 448 512"><!--! Font Awesome Pro 6.0.0-beta3 by @fontawesome - https://fontawesome.com License - https://fontawesome.com/license (Commercial License) Copyright 2021 Fonticons, Inc. --><defs><style>.fa-secondary{opacity:.4}</style></defs><path class="fa-primary" d="M314.9 401.5l-58.9 58.85C243.4 473 226.4 480 208.7 480H66.87C29.87 480 0 450.1 0 413.1V271.3C0 253.5 7.001 236.5 19.62 223.1l58.9-58.87L314.9 401.5z"/><path class="fa-secondary" d="M438.6 86.63L334.3 190.9l71.9 71.94c6.562 6.564 9.813 15.13 9.813 23.69c0 8.564-3.25 17.13-9.813 23.69l-91.34 91.29L78.53 165.1l91.34-91.4c6.562-6.5 15.1-9.737 23.65-9.737c8.551 0 17.11 3.237 23.68 9.737l71.9 71.94l104.3-104.3C399.6 35.13 407.8 32 416 32c18.27 0 32 14.95 32 32C448 72.19 444.9 80.38 438.6 86.63z"/></svg>