<svg xmlns="http://www.w3.org/2000/svg" viewBox="0 0 448 512"><!--! Font Awesome Pro 6.0.0-beta3 by @fontawesome - https://fontawesome.com License - https://fontawesome.com/license (Commercial License) Copyright 2021 Fonticons, Inc. --><defs><style>.fa-secondary{opacity:.4}</style></defs><path class="fa-primary" d="M319.1 324.1c0 86.08-71.56 155.9-159.1 155.9s-159.1-69.78-159.1-155.9c0-97.23 90.94-134.9 133.4-272.8c8.125-26.36 45.94-25.27 53.12 0C229.3 190 319.1 226.4 319.1 324.1z"/><path class="fa-secondary" d="M368 32c-44.06 0-79.1 35.94-79.1 80S323.9 192 368 192s79.1-35.94 79.1-80S412.1 32 368 32zM368 144c-17.75 0-31.1-14.25-31.1-32s14.25-32 31.1-32c17.75 0 31.1 14.25 31.1 32S385.8 144 368 144z"/></svg>