<svg xmlns="http://www.w3.org/2000/svg" viewBox="0 0 576 512"><!--! Font Awesome Pro 6.1.1 by @fontawesome - https://fontawesome.com License - https://fontawesome.com/license (Commercial License) Copyright 2022 Fonticons, Inc. --><defs><style>.fa-secondary{opacity:.4}</style></defs><path class="fa-primary" d="M288 32C129 32 0 89.25 0 160v192c0 70.75 129 128 288 128s288-57.25 288-128V160C576 89.25 447 32 288 32zM205 190.4C200.5 207 190.5 220.9 176.8 230.9C100.3 217.5 48 190.8 48 160c0-30.12 50.13-56.38 124-69.1l25.62 44.25C207.5 151.4 210.1 171.3 205 190.4zM288 240c-21.12 0-41.38-1-60.88-2.75C235.1 211.1 259.3 192 288 192s52.88 19.12 60.88 45.25C329.4 239 309.1 240 288 240zM352 96c0 35.25-28.75 64-64 64S224 131.3 224 96V83C244.4 81.13 265.8 80 288 80s43.63 1.125 64 3V96zM398.9 230.9C385.1 221 375 207 370.5 190.4c-5.125-19.12-2.5-39 7.375-56l25.62-44.5C477.8 103.5 528 129.8 528 160C528 190.9 475.6 217.5 398.9 230.9z"/><path class="fa-secondary" d="M172 90C98.13 103.6 48 129.9 48 160c0 30.75 52.25 57.5 128.8 70.88C190.5 220.9 200.5 207 205 190.4c5.125-19.12 2.5-39-7.375-56.13L172 90zM288 192C259.3 192 235.1 211.1 227.1 237.3C246.6 239 266.9 240 288 240s41.38-1 60.88-2.75C340.9 211.1 316.8 192 288 192zM224 83V96c0 35.25 28.75 64 64 64s64-28.75 64-64V83C331.6 81.13 310.3 80 288 80S244.4 81.13 224 83zM403.5 89.88l-25.62 44.5c-9.875 17-12.5 36.88-7.375 56C375 207 385.1 221 398.9 230.9C475.6 217.5 528 190.9 528 160C528 129.8 477.8 103.5 403.5 89.88z"/></svg>