<svg xmlns="http://www.w3.org/2000/svg" viewBox="0 0 384 512"><!--! Font Awesome Pro 6.1.1 by @fontawesome - https://fontawesome.com License - https://fontawesome.com/license (Commercial License) Copyright 2022 Fonticons, Inc. --><defs><style>.fa-secondary{opacity:.4}</style></defs><path class="fa-primary" d="M200 80h-16C126.7 80 80 126.7 80 184v47.97c0 9.9 5.934 18.65 15.12 22.28l28.98 11.58c3.857 1.547 4.746 4.91 4.949 6.283c.2031 1.367 .3242 4.826-2.916 7.418L89 309.2c-10.32 8.285-12 23.42-3.756 33.74C89.81 348.6 96.88 352 104.2 352c5.35 0 10.47-1.818 14.81-5.262l37.15-29.71c15.73-12.59 23.36-32 20.4-51.92C173.6 245.2 160.6 228.8 141.9 221.3L128 215.7V184C128 153.1 153.1 128 184 128h16C230.9 128 256 153.1 256 184c0 13.23 10.77 24 24 24s24-10.77 24-24C304 126.7 257.3 80 200 80zM104.2 344c-.4102 0-.7539-.2422-1.158-.2734c1.154 .0898 2.32 .0625 3.502-.1191C105.7 343.7 104.9 344 104.2 344z"/><path class="fa-secondary" d="M192 0C86 0 0 86 0 192v176C0 447.5 64.5 512 144 512s144-64.5 144-144v-9.875C345.4 324.9 384 263 384 192C384 86 298 0 192 0zM280 208C266.8 208 256 197.2 256 184C256 153.1 230.9 128 200 128h-16C153.1 128 128 153.1 128 184v31.72l13.92 5.576c18.73 7.477 31.67 23.86 34.6 43.82c2.955 19.92-4.672 39.33-20.4 51.92l-37.15 29.71C114.6 350.2 109.5 352 104.2 352c-7.287 0-14.35-3.367-18.92-9.035C77 332.6 78.68 317.5 89 309.2l37.12-29.69c3.24-2.592 3.119-6.051 2.916-7.418C128.8 270.7 127.1 267.4 124.1 265.8L95.12 254.3C85.93 250.6 80 241.9 80 231.1V184c0-57.35 46.65-104 104-104h16c57.35 0 104 46.65 104 104C304 197.2 293.2 208 280 208z"/></svg>