<svg xmlns="http://www.w3.org/2000/svg" viewBox="0 0 512 512"><!--! Font Awesome Pro 6.1.1 by @fontawesome - https://fontawesome.com License - https://fontawesome.com/license (Commercial License) Copyright 2022 Fonticons, Inc. --><defs><style>.fa-secondary{opacity:.4}</style></defs><path class="fa-primary" d="M192 210.3V206.1C192 197.1 195.6 188.4 201.9 182.1L219.9 164.1C222.5 161.5 224 157.9 224 154.2C224 148.1 227.9 142.7 233.6 140.8L260.2 131.9C267.9 129.4 275 124.1 280.8 119.2L300.7 99.31C302.8 97.19 304 94.31 304 91.31C304 85.06 298.9 79.1 292.7 79.1H291.7C289.3 79.1 286.9 80.72 284.9 82.06L243.1 109.9C241.1 111.3 238.7 111.1 236.3 111.1C229.5 111.1 224 106.5 224 99.72V91.15C224 84.19 227.5 77.68 233.3 73.81L328.4 10.39C434.5 41.63 512 139.8 512 255.1C512 278.1 509.2 299.5 503.9 319.1H446.6C432.1 319.1 418.2 314.2 408 303.1L389.7 285.7C386 282 384 277.1 384 271.1C384 266.9 386 261.1 389.7 258.3L397.2 250.8C398.1 249 400 246.6 400 243.1C400 241.4 398.1 238.1 397.2 237.2L390.6 230.6C386.4 226.4 380.6 223.1 374.6 223.1H363.3C357.1 223.1 352 218.9 352 212.7C352 209.7 353.2 206.8 355.3 204.7L360 199.1C365.1 194.9 372.1 191.1 379.3 191.1H400C408.8 191.1 416 184.8 416 175.1C416 167.2 408.8 159.1 400 159.1H370.6C360.3 159.1 352 168.3 352 178.6C352 186.6 346.9 193.7 339.3 196.2L318.1 203.3C310.7 205.8 307.1 214.3 310.7 221.3L311.8 223.6C315.6 231.1 310.1 239.1 301.7 239.1C298.1 239.1 294.7 238.3 292.6 235.5L276.3 213.7C273.6 210.1 269.4 207.1 264.8 207.1C259.4 207.1 254.5 211.1 252 215.9L248 223.1C243.1 233.8 232.9 239.1 221.9 239.1C205.6 239.1 192 226.7 192 210.3H192zM272 511.5V477.3C272 452.3 251.7 432 226.7 432C214.7 432 203.2 427.2 194.7 418.7L178.7 402.7C166.7 390.7 160 374.5 160 357.5V354.3C160 332.9 170.7 312.9 188.5 301L215.9 282.7C226.4 275.7 238.7 272 251.4 272H272.3C287.6 272 302.4 277.5 313.1 287.4L340.5 310.2C347.9 316.5 357.4 320 367.1 320C377.9 320 388.3 324.3 395.1 331.1L400 336C410.2 346.2 424.1 352 438.6 352H493.4C457.3 441.1 372.5 505.3 272 511.5V511.5zM187.3 100.7C193.6 106.9 193.6 117.1 187.3 123.3L155.3 155.3C149.1 161.6 138.9 161.6 132.7 155.3C126.4 149.1 126.4 138.9 132.7 132.7L164.7 100.7C170.9 94.44 181.1 94.44 187.3 100.7V100.7z"/><path class="fa-secondary" d="M221.9 240C232.9 240 243.1 233.8 248 224L252 215.9C254.5 211.1 259.4 208 264.8 208C269.4 208 273.6 210.1 276.3 213.7L292.6 235.5C294.7 238.3 298.1 240 301.7 240C310.1 240 315.6 231.1 311.8 223.6L310.7 221.3C307.1 214.3 310.7 205.8 318.1 203.3L339.3 196.2C346.9 193.7 352 186.6 352 178.6C352 168.3 360.3 160 370.6 160H400C408.8 160 416 167.2 416 176C416 184.8 408.8 192 400 192H379.3C372.1 192 365.1 194.9 360 200L355.3 204.7C353.2 206.8 352 209.7 352 212.7C352 218.9 357.1 224 363.3 224H374.6C380.6 224 386.4 226.4 390.6 230.6L397.2 237.2C398.1 238.1 400 241.4 400 244C400 246.6 398.1 249 397.2 250.8L389.7 258.3C386 261.1 384 266.9 384 272C384 277.1 386 282 389.7 285.7L408 304C418.2 314.2 432.1 320 446.6 320H503.9C501.1 330.1 497.6 341.7 493.4 352H438.6C424.1 352 410.2 346.2 400 336L395.1 331.1C388.3 324.3 377.9 320 367.1 320C357.4 320 347.9 316.5 340.5 310.2L313.1 287.4C302.4 277.5 287.6 272 272.3 272H251.4C238.7 272 226.4 275.7 215.9 282.7L188.5 301C170.7 312.9 160 332.9 160 354.3V357.5C160 374.5 166.7 390.7 178.7 402.7L194.7 418.7C203.2 427.2 214.7 432 226.7 432C251.7 432 272 452.3 272 477.3V511.5C266.7 511.8 261.4 512 256 512C114.6 512 0 397.4 0 256C0 114.6 114.6 0 256 0C281.2 0 305.5 3.627 328.4 10.39L233.3 73.81C227.5 77.68 224 84.19 224 91.16V99.72C224 106.5 229.5 112 236.3 112C238.7 112 241.1 111.3 243.1 109.9L284.9 82.06C286.9 80.72 289.3 80 291.7 80H292.7C298.9 80 304 85.07 304 91.31C304 94.31 302.8 97.19 300.7 99.31L280.8 119.2C275 124.1 267.9 129.4 260.2 131.9L233.6 140.8C227.9 142.7 224 148.1 224 154.2C224 157.9 222.5 161.5 219.9 164.1L201.9 182.1C195.6 188.4 192 197.1 192 206.1V210.3C192 226.7 205.6 240 221.9 240V240zM187.3 123.3C193.6 117.1 193.6 106.9 187.3 100.7C181.1 94.44 170.9 94.44 164.7 100.7L132.7 132.7C126.4 138.9 126.4 149.1 132.7 155.3C138.9 161.6 149.1 161.6 155.3 155.3L187.3 123.3z"/></svg>