<svg xmlns="http://www.w3.org/2000/svg" viewBox="0 0 512 512"><!--! Font Awesome Pro 6.0.0-beta3 by @fontawesome - https://fontawesome.com License - https://fontawesome.com/license (Commercial License) Copyright 2021 Fonticons, Inc. --><defs><style>.fa-secondary{opacity:.4}</style></defs><path class="fa-primary" d="M512 24c0 6.141-2.344 12.28-7.031 16.97l-14.04 14.04C494.2 62.69 496 71.13 496 80v128c-35.35 0-64-28.65-64-64c-35.35 0-64-28.65-64-64c-35.35 0-64-28.65-64-64h128c8.867 0 17.31 1.811 24.99 5.07l14.04-14.04C475.7 2.344 481.9 0 488 0C501.7 0 512 11.21 512 24z"/><path class="fa-secondary" d="M465.3 199.8c-23.5 46.8-49.46 93.22-79.51 139.3c-101.8 154.7-151.1 172.9-213.2 172.9c-42.28 0-172.6-33.85-172.6-174.7c0-61.41 31.93-122.7 100.8-151.3c86.81-33.98 192.9-126.1 211.1-138.3C323.8 66.95 344.3 80 368 80c0 35.35 28.65 64 64 64C432 168.2 445.6 188.9 465.3 199.8z"/></svg>