<svg xmlns="http://www.w3.org/2000/svg" viewBox="0 0 192 512"><!--! Font Awesome Pro 6.0.0-beta3 by @fontawesome - https://fontawesome.com License - https://fontawesome.com/license (Commercial License) Copyright 2021 Fonticons, Inc. --><defs><style>.fa-secondary{opacity:.4}</style></defs><path class="fa-primary" d="M96 344C135.8 344 168 376.2 168 416C168 455.8 135.8 488 96 488C56.24 488 24 455.8 24 416C24 376.2 56.24 344 96 344zM72 416C72 429.3 82.75 440 96 440C109.3 440 120 429.3 120 416C120 402.7 109.3 392 96 392C82.75 392 72 402.7 72 416zM96 24C135.8 24 168 56.24 168 96C168 135.8 135.8 168 96 168C56.24 168 24 135.8 24 96C24 56.24 56.24 24 96 24zM72 96C72 109.3 82.75 120 96 120C109.3 120 120 109.3 120 96C120 82.75 109.3 72 96 72C82.75 72 72 82.75 72 96z"/><path class="fa-secondary" d="M96 328C56.24 328 24 295.8 24 256C24 216.2 56.24 184 96 184C135.8 184 168 216.2 168 256C168 295.8 135.8 328 96 328zM120 256C120 242.7 109.3 232 96 232C82.75 232 72 242.7 72 256C72 269.3 82.75 280 96 280C109.3 280 120 269.3 120 256z"/></svg>