<svg xmlns="http://www.w3.org/2000/svg" viewBox="0 0 640 512"><!--! Font Awesome Pro 6.1.1 by @fontawesome - https://fontawesome.com License - https://fontawesome.com/license (Commercial License) Copyright 2022 Fonticons, Inc. --><defs><style>.fa-secondary{opacity:.4}</style></defs><path class="fa-primary" d="M395.5 246.3c-16.2 12.6-38.87 12.6-55.06 0L128 81.31v39.99l192.8 150.2C334.9 282.5 351.5 288 368 288s33.06-5.484 47.16-16.47L608 121.3V81.31L395.5 246.3zM488 480H152C85.83 480 32 426.2 32 360v-240C32 106.8 42.75 96 56 96S80 106.8 80 120v240c0 39.7 32.3 72 72 72h336c13.25 0 24 10.75 24 24S501.3 480 488 480z"/><path class="fa-secondary" d="M560 32h-384C149.5 32 128 53.49 128 80v1.311l212.5 164.1c16.2 12.6 38.87 12.6 55.06 0L608 81.31V80C608 53.49 586.5 32 560 32zM368 288c-16.53 0-33.06-5.484-47.16-16.47L128 121.3V336C128 362.5 149.5 384 176 384h384c26.51 0 48-21.49 48-48V121.3l-192.8 150.2C401.1 282.5 384.5 288 368 288z"/></svg>