<svg xmlns="http://www.w3.org/2000/svg" viewBox="0 0 512 512"><!--! Font Awesome Pro 6.1.1 by @fontawesome - https://fontawesome.com License - https://fontawesome.com/license (Commercial License) Copyright 2022 Fonticons, Inc. --><defs><style>.fa-secondary{opacity:.4}</style></defs><path class="fa-primary" d="M303.2 399.6C289.1 410.6 272.5 416.1 256 416.1s-33.06-5.458-47.16-16.44L0 237.2v226.8C0 490.5 21.49 512 48 512h416c26.51 0 48-21.49 48-47.1V237.2L303.2 399.6zM495.9 209.1c12.94-10.2 13.89-30.14 2.389-41.95c-1.451-1.492-3.014-2.891-4.686-4.184C481.4 153.4 470.2 144.6 448 128.1V246.4C448 246.4 495.9 209.2 495.9 209.1zM256.4 0H255.6c-18.44 0-42.96 18.33-60.66 32h122.2C299.4 18.33 274.9 0 256.4 0zM16.18 209.2L64 246.4V128.1C41.8 144.6 30.56 153.4 18.38 163C16.7 164.3 15.14 165.7 13.69 167.2C2.191 178.1 3.24 199 16.18 209.2C16.25 209.3 16.11 209.2 16.18 209.2zM176 223.1h160c8.836 0 16-7.164 16-16c0-8.838-7.164-15.1-16-15.1h-160c-8.836 0-16 7.162-16 15.1C160 216.8 167.2 223.1 176 223.1zM176 159.1h160c8.836 0 16-7.164 16-15.1c0-8.838-7.164-15.1-16-15.1h-160c-8.836 0-16 7.162-16 15.1C160 152.8 167.2 159.1 176 159.1z"/><path class="fa-secondary" d="M416 32H96c-17.67 0-32 14.33-32 31.1V246.4l164.5 127.9c16.2 12.6 38.87 12.6 55.06 0L448 246.4V64C448 46.33 433.7 32 416 32zM336 223.1h-160c-8.836 0-16-7.164-16-16c0-8.838 7.164-15.1 16-15.1h160c8.836 0 16 7.162 16 15.1C352 216.8 344.8 223.1 336 223.1zM336 159.1h-160c-8.836 0-16-7.164-16-15.1c0-8.838 7.164-15.1 16-15.1h160c8.836 0 16 7.162 16 15.1C352 152.8 344.8 159.1 336 159.1z"/></svg>