<svg xmlns="http://www.w3.org/2000/svg" viewBox="0 0 512 512"><!--! Font Awesome Pro 6.0.0-beta3 by @fontawesome - https://fontawesome.com License - https://fontawesome.com/license (Commercial License) Copyright 2021 Fonticons, Inc. --><defs><style>.fa-secondary{opacity:.4}</style></defs><path class="fa-primary" d="M377.9 393.9L149.1 165.1l119.1-120C279.3 36.66 291.6 32 303.1 32s24.62 4.656 33.1 13.97l159.1 160c9.313 9.376 13.97 21.69 13.97 34s-4.655 24.63-13.97 34L377.9 393.9z"/><path class="fa-secondary" d="M512 467.1C512 474.6 506.6 480 499.1 480L143.8 479.1c-12.68 0-24.88-5.036-33.85-14l-95.1-96C4.655 360.6 0 348.3 0 335.1s4.655-24.63 13.97-34l136-136L195.4 211.4L70.6 335.1l80.01 80h114.8l67.25-67.38L195.4 211.4l182.6 182.6l-22.07 22.06h104.1C488.7 415.1 512 439.3 512 467.1z"/></svg>