<svg xmlns="http://www.w3.org/2000/svg" viewBox="0 0 384 512"><!--! Font Awesome Pro 6.0.0-beta3 by @fontawesome - https://fontawesome.com License - https://fontawesome.com/license (Commercial License) Copyright 2021 Fonticons, Inc. --><defs><style>.fa-secondary{opacity:.4}</style></defs><path class="fa-primary" d="M80 248C80 128.7 176.7 32 296 32H320C337.7 32 352 46.33 352 64C352 81.67 337.7 96 320 96H296C212.1 96 144 164.1 144 248V264C144 347.9 212.1 416 296 416H320C337.7 416 352 430.3 352 448C352 465.7 337.7 480 320 480H296C176.7 480 80 383.3 80 264V248z"/><path class="fa-secondary" d="M92.29 336H64C46.33 336 32 321.7 32 304C32 286.3 46.33 272 64 272H80.15C80.96 294.4 85.18 315.9 92.29 336H92.29zM144.2 272H288C305.7 272 320 286.3 320 304C320 321.7 305.7 336 288 336H162.1C151.7 316.8 145.4 295.1 144.2 272H144.2zM162.1 176H288C305.7 176 320 190.3 320 208C320 225.7 305.7 240 288 240H144.2C145.4 216.9 151.7 195.2 162.1 176H162.1zM80.15 240H64C46.33 240 32 225.7 32 208C32 190.3 46.33 176 64 176H92.29C85.18 196.1 80.96 217.6 80.15 240H80.15z"/></svg>