<svg xmlns="http://www.w3.org/2000/svg" viewBox="0 0 640 512"><!--! Font Awesome Pro 6.0.0-beta3 by @fontawesome - https://fontawesome.com License - https://fontawesome.com/license (Commercial License) Copyright 2021 Fonticons, Inc. --><defs><style>.fa-secondary{opacity:.4}</style></defs><path class="fa-primary" d="M615.1 512c-5.188 0-10.39-1.651-14.8-5.12L9.188 42.89C-1.234 34.73-3.051 19.63 5.121 9.189c8.188-10.41 23.22-12.29 33.69-4.073l591.1 463.1c10.42 8.156 12.24 23.26 4.068 33.7C630.1 508.8 623.1 512 615.1 512z"/><path class="fa-secondary" d="M149.2 91.63c49.62-37.69 108.1-59.62 170.8-59.62c122.9 0 230.3 83.53 284.5 206.1c1.906 4.43 3.469 12.05 3.469 17.03c0 4.957-1.562 12.6-3.469 17.03c-19.42 44.19-45.89 83.01-77.21 114.1l-81.27-63.69c11.09-20.4 17.95-43.44 17.95-68.27c0-79.48-64.5-144-143.1-144c-37.29 0-70.83 14.65-96.42 37.93L149.2 91.63zM319.1 160c-2.301 .0293-5.575 .4436-8.461 .7658C316.8 170 319.1 180.6 319.1 192c0 10.17-2.602 19.62-6.821 28.16l94.71 74.24c5.158-11.78 8.114-24.73 8.114-38.4C415.1 203 372.1 160 319.1 160zM319.1 352c-46.96 0-85.92-33.81-94.22-78.37l99.33 77.86C323.4 351.6 321.8 352 319.1 352zM373.6 389.5l74.5 58.4c-39.3 20.65-82.61 32.14-128.1 32.14c-122.9 0-230.3-83.53-284.5-206.1c-1.906-4.43-3.469-12.05-3.469-17.03c0-4.959 1.562-12.6 3.469-17.03c12.54-28.55 28.04-54.84 45.81-78.59l96.72 75.8C177.1 242.7 175.1 249.2 175.1 256c0 79.48 64.53 143.1 144 143.1C338.1 400 356.1 396.1 373.6 389.5z"/></svg>