<svg xmlns="http://www.w3.org/2000/svg" viewBox="0 0 512 512"><!--! Font Awesome Pro 6.0.0-beta3 by @fontawesome - https://fontawesome.com License - https://fontawesome.com/license (Commercial License) Copyright 2021 Fonticons, Inc. --><defs><style>.fa-secondary{opacity:.4}</style></defs><path class="fa-primary" d="M483.9 163.8l-77.1 77.13l13.09 13.09c9.375 9.375 9.375 24.56 0 33.94l-40.97 40.97c-9.281 9.312-24.5 9.438-33.94 0L183 167c-9.375-9.375-9.375-24.59 0-33.94L224 92.13c9.281-9.312 24.5-9.469 33.94 0l13.09 13.09l77.13-77.1c37.47-37.5 98.25-37.5 135.7 0C521.4 65.62 521.4 126.3 483.9 163.8z"/><path class="fa-secondary" d="M328 312l-149.3 149.3C166.8 473.3 150.5 480 133.5 480H88L32 512l-32-32l32-56v-45.5c0-16.97 6.75-33.25 18.75-45.25L200 184l39.6 39.6l-149.3 149.3C88.86 374.3 88 376.4 88 378.5V424h45.5c2.1 0 4.16-.8555 5.652-2.348l149.3-149.3L328 312z"/></svg>