<svg xmlns="http://www.w3.org/2000/svg" viewBox="0 0 640 512"><!--! Font Awesome Pro 6.0.0-beta3 by @fontawesome - https://fontawesome.com License - https://fontawesome.com/license (Commercial License) Copyright 2021 Fonticons, Inc. --><defs><style>.fa-secondary{opacity:.4}</style></defs><path class="fa-primary" d="M464 32c-59.59 0-112.2 37.79-144 95.46C288.2 69.79 235.6 32 176 32C78.8 32 0 132.3 0 256s78.8 224 176 224c59.59 0 112.2-37.79 144-95.46C351.8 442.2 404.4 480 464 480c97.2 0 176-100.3 176-224S561.2 32 464 32zM176 416C115.3 416 64 342.7 64 256s51.29-160 112-160S288 169.3 288 256S236.7 416 176 416zM464 416c-60.71 0-112-73.27-112-160s51.29-160 112-160S576 169.3 576 256S524.7 416 464 416z"/><path class="fa-secondary" d="M96 224C84.1 224 74.8 227 65.76 231.9C64.88 239.8 64 247.8 64 256c0 35.43 8.863 68.25 23.12 95.11C90.05 351.5 92.96 352 96 352c35.35 0 64-28.65 64-64C160 252.7 131.3 224 96 224zM384 224c-11 0-21.2 3.031-30.24 7.922C352.9 239.8 352 247.8 352 256c0 35.43 8.863 68.25 23.12 95.11C378.1 351.5 380.1 352 384 352c35.35 0 64-28.65 64-64C448 252.7 419.3 224 384 224z"/></svg>