<svg xmlns="http://www.w3.org/2000/svg" viewBox="0 0 512 512"><!--! Font Awesome Pro 6.0.0-beta3 by @fontawesome - https://fontawesome.com License - https://fontawesome.com/license (Commercial License) Copyright 2021 Fonticons, Inc. --><defs><style>.fa-secondary{opacity:.4}</style></defs><path class="fa-primary" d="M208.4 192C208.4 209.7 194 224 176.4 224C158.7 224 144.4 209.7 144.4 192C144.4 174.3 158.7 160 176.4 160C194 160 208.4 174.3 208.4 192zM248 350.6C245.4 353.2 245.4 357.4 248 360C250.6 362.6 254.8 362.6 257.4 360L324.7 292.7C330.9 286.4 341.1 286.4 347.3 292.7C353.6 298.9 353.6 309.1 347.3 315.3L280 382.6C277.4 385.2 277.4 389.4 280 392C282.6 394.6 286.8 394.6 289.4 392L340.7 340.7C346.9 334.4 357.1 334.4 363.3 340.7C369.6 346.9 369.6 357.1 363.3 363.3L312 414.6C309.4 417.2 309.4 421.4 312 424C314.6 426.6 318.8 426.6 321.4 424L340.7 404.7C346.9 398.4 357.1 398.4 363.3 404.7C369.6 410.9 369.6 421.1 363.3 427.3L306.5 484.1C288.7 501.1 264.4 512 239.2 512C186.6 512 144 469.4 144 416.8V330.4C144 319.4 152.1 310.4 164 310.4C175 310.4 184 319.4 184 330.4V350.1C184 357.2 192.6 360.8 197.7 355.7L276.7 276.7C282.9 270.4 293.1 270.4 299.3 276.7C305.6 282.9 305.6 293.1 299.3 299.3L248 350.6zM304.4 192C304.4 174.3 318.7 160 336.4 160C354 160 368.4 174.3 368.4 192C368.4 209.7 354 224 336.4 224C318.7 224 304.4 209.7 304.4 192z"/><path class="fa-secondary" d="M512 256C512 369.1 438.7 465.1 336.9 498.9L385.9 449.9C404.1 431.8 404.7 402.8 387.8 384C404.7 365.2 404.1 336.2 385.9 318.1C384.9 317 383.8 316 382.7 315.1C386.4 299.4 382.2 282.3 369.9 270.1C357.7 257.8 340.6 253.6 324.9 257.3C323.1 256.2 322.1 255.1 321.9 254.1C303.2 235.3 272.8 235.3 254.1 254.1L206.1 301.1C197.6 287.4 181.9 278.4 164 278.4C135.3 278.4 112 301.7 112 330.4V416.8C112 438.7 117.5 459.3 127.3 477.3C51.17 432.1 0 350.5 0 256C0 114.6 114.6 0 256 0C397.4 0 512 114.6 512 256zM176.4 160C158.7 160 144.4 174.3 144.4 192C144.4 209.7 158.7 224 176.4 224C194 224 208.4 209.7 208.4 192C208.4 174.3 194 160 176.4 160zM336.4 224C354 224 368.4 209.7 368.4 192C368.4 174.3 354 160 336.4 160C318.7 160 304.4 174.3 304.4 192C304.4 209.7 318.7 224 336.4 224z"/></svg>