<svg xmlns="http://www.w3.org/2000/svg" viewBox="0 0 576 512"><!--! Font Awesome Pro 6.1.1 by @fontawesome - https://fontawesome.com License - https://fontawesome.com/license (Commercial License) Copyright 2022 Fonticons, Inc. --><defs><style>.fa-secondary{opacity:.4}</style></defs><path class="fa-primary" d="M547.6 242.7L520.5 215.5C515.8 210.8 508.2 210.8 503.5 215.5C498.8 220.2 498.8 227.8 503.5 232.5L530.4 259.3L515.1 274.1L488.5 247.5C483.8 242.8 476.2 242.8 471.5 247.5C466.8 252.2 466.8 259.8 471.5 264.5L497.8 290.8L482.5 305.5L456.5 279.5C451.8 274.8 444.2 274.8 439.5 279.5C434.8 284.2 434.8 291.8 439.5 296.5L465.2 322.2L449.9 336.9L424.5 311.5C419.8 306.8 412.2 306.8 407.5 311.5C402.8 316.2 402.8 323.8 407.5 328.5L432.6 353.6L406.1 378.4C406.3 376.6 405.4 374.1 404.1 373.5C389.4 356.5 367.4 338.6 338.2 328.4L488.1 182.4C505.5 166.4 531.7 166.6 547.1 182.8C564.6 199.4 564.4 226.3 547.6 242.7L547.6 242.7zM240.4 207.1C240.4 225.7 226 239.1 208.4 239.1C190.7 239.1 176.4 225.7 176.4 207.1C176.4 190.3 190.7 175.1 208.4 175.1C226 175.1 240.4 190.3 240.4 207.1zM400.4 207.1C400.4 225.7 386 239.1 368.4 239.1C350.7 239.1 336.4 225.7 336.4 207.1C336.4 190.3 350.7 175.1 368.4 175.1C386 175.1 400.4 190.3 400.4 207.1z"/><path class="fa-secondary" d="M544 256C544 397.4 429.4 512 288 512C146.6 512 32 397.4 32 256C32 114.6 146.6 0 288 0C400 0 495.2 71.96 529.1 172.2C515.9 168.1 500.2 171.5 488.1 182.4L338.2 328.4C323.3 323.2 306.6 320 288 320C232.9 320 194.2 347.9 171.9 373.5C166.1 380.2 166.8 390.3 173.5 396.1C180.2 401.9 190.3 401.2 196.1 394.5C214 373.8 244.6 352 288 352C331.4 352 361.1 373.8 379.9 394.5C385.7 401.2 395.8 401.9 402.5 396.1C407.7 391.6 409.3 384.4 406.1 378.4L543.8 246.4C543.9 249.6 544 252.8 544 255.1L544 256zM208.4 176C190.7 176 176.4 190.3 176.4 208C176.4 225.7 190.7 240 208.4 240C226 240 240.4 225.7 240.4 208C240.4 190.3 226 176 208.4 176zM368.4 240C386 240 400.4 225.7 400.4 208C400.4 190.3 386 176 368.4 176C350.7 176 336.4 190.3 336.4 208C336.4 225.7 350.7 240 368.4 240z"/></svg>