<svg xmlns="http://www.w3.org/2000/svg" viewBox="0 0 576 512"><!--! Font Awesome Pro 6.1.1 by @fontawesome - https://fontawesome.com License - https://fontawesome.com/license (Commercial License) Copyright 2022 Fonticons, Inc. --><defs><style>.fa-secondary{opacity:.4}</style></defs><path class="fa-primary" d="M227.3 148.7C233.6 154.9 233.6 165.1 227.3 171.3L219.9 178.7C196.4 202.3 166 217.9 133.1 223.4L130.6 223.8C121.9 225.2 113.7 219.3 112.2 210.6C110.8 201.9 116.7 193.7 125.4 192.2L127.9 191.8C154.2 187.4 178.5 174.9 197.3 156.1L204.7 148.7C210.9 142.4 221.1 142.4 227.3 148.7zM207.6 304C189.1 304 175.6 289.7 175.6 272C175.6 254.3 189.1 240 207.6 240C225.3 240 239.6 254.3 239.6 272C239.6 289.7 225.3 304 207.6 304zM367.6 304C349.1 304 335.6 289.7 335.6 272C335.6 254.3 349.1 240 367.6 240C385.3 240 399.6 254.3 399.6 272C399.6 289.7 385.3 304 367.6 304zM348.7 171.3C342.4 165.1 342.4 154.9 348.7 148.7C354.9 142.4 365.1 142.4 371.3 148.7L378.7 156.1C397.5 174.9 421.8 187.4 448.2 191.8L450.6 192.2C459.3 193.7 465.2 201.9 463.8 210.6C462.3 219.3 454.1 225.2 445.4 223.8L442.9 223.4C409.1 217.9 379.6 202.3 356.1 178.7L348.7 171.3zM352 402.6V448C352 483.3 323.3 512 288 512C252.7 512 224 483.3 224 448V402.6C224 387.9 235.9 376 250.6 376H252.6C263.9 376 273.7 383.9 276.2 394.9C279 407.5 296.1 407.5 299.8 394.9C302.3 383.9 312.1 376 323.4 376H325.4C340.1 376 352 387.9 352 402.6V402.6zM48 416C21.54 416 0 395 0 369C0 349 28.55 308.6 41.6 291.3C44.8 286.9 51.2 286.9 54.4 291.3C67.57 308.6 95.1 349 95.1 369C95.1 395 74.46 416 47.1 416H48z"/><path class="fa-secondary" d="M128 369C128 357.6 124.2 346.6 120.9 338.5C117.2 329.8 112.5 320.9 107.7 312.8C98.1 296.7 86.98 281.3 80.01 272.1C68.39 256.5 48.28 252.2 32.02 259.3C32.01 258.2 32 257.1 32 256C32 114.6 146.6 0 288 0C429.4 0 544 114.6 544 256C544 368.9 470.9 464.7 369.5 498.8C378.7 484 384 466.6 384 448V416.7C394.2 409.5 400 401 400 392C400 365.5 349.9 344 288 344C226.1 344 176 365.5 176 392C176 401 181.8 409.5 192 416.7V448C192 466.6 197.3 484 206.5 498.8C165.1 484.9 128.5 460.7 99.62 429.3C116.9 414.1 127.1 393.5 127.1 369L128 369zM335.6 272C335.6 289.7 349.1 304 367.6 304C385.3 304 399.6 289.7 399.6 272C399.6 254.3 385.3 240 367.6 240C349.1 240 335.6 254.3 335.6 272zM239.6 272C239.6 254.3 225.3 240 207.6 240C189.1 240 175.6 254.3 175.6 272C175.6 289.7 189.1 304 207.6 304C225.3 304 239.6 289.7 239.6 272zM204.7 148.7L197.3 156.1C178.5 174.9 154.2 187.4 127.9 191.8L125.4 192.2C116.7 193.7 110.8 201.9 112.2 210.6C113.7 219.3 121.9 225.2 130.6 223.8L133.1 223.4C166 217.9 196.4 202.3 219.9 178.7L227.3 171.3C233.6 165.1 233.6 154.9 227.3 148.7C221.1 142.4 210.9 142.4 204.7 148.7zM356.1 178.7C379.6 202.3 409.1 217.9 442.9 223.4L445.4 223.8C454.1 225.2 462.3 219.3 463.8 210.6C465.2 201.9 459.3 193.7 450.6 192.2L448.2 191.8C421.8 187.4 397.5 174.9 378.7 156.1L371.3 148.7C365.1 142.4 354.9 142.4 348.7 148.7C342.4 154.9 342.4 165.1 348.7 171.3L356.1 178.7z"/></svg>