<svg xmlns="http://www.w3.org/2000/svg" viewBox="0 0 512 512"><!--! Font Awesome Pro 6.0.0-beta3 by @fontawesome - https://fontawesome.com License - https://fontawesome.com/license (Commercial License) Copyright 2021 Fonticons, Inc. --><defs><style>.fa-secondary{opacity:.4}</style></defs><path class="fa-primary" d="M158.6 189.6C150.2 197.6 145.1 207.3 143.2 213.1C140.4 221.4 131.3 225.1 122.9 223.2C114.6 220.4 110 211.3 112.8 202.9C116.2 192.7 123.1 178.4 136.6 166.4C149.5 154.2 167.9 144 191.1 144C200.8 144 208 151.2 208 160C208 168.8 200.8 176 191.1 176C177.7 176 166.8 181.8 158.6 189.6L158.6 189.6zM320 176C311.2 176 304 168.8 304 160C304 151.2 311.2 144 320 144C344.1 144 362.5 154.2 375.4 166.4C388 178.4 395.8 192.7 399.2 202.9C401.1 211.3 397.4 220.4 389.1 223.2C380.7 225.1 371.6 221.4 368.8 213.1C366.9 207.3 361.8 197.6 353.4 189.6C345.2 181.9 334.3 176 320 176V176zM288 448V397.1C299.4 394.1 310.1 391.8 320 387.8V448C320 456.8 312.8 464 304 464C295.2 464 288 456.8 288 448zM352 496V370.9C364.3 362.8 374.9 353.6 384 344.2V496C384 504.8 376.8 512 368 512C359.2 512 352 504.8 352 496z"/><path class="fa-secondary" d="M384 344.2C388.6 339.5 392.7 334.7 396.5 329.1C402 323.1 400.9 313 393.1 307.5C387.1 301.1 377 303.1 371.5 310C348.7 338.5 310.2 368 256 368C201.8 368 163.3 338.5 140.5 310C134.1 303.1 124.9 301.1 118 307.5C111.1 313 109.1 323.1 115.5 329.1C142.2 363.3 189 400 256 400C267.2 400 277.9 398.1 288 397.1V448C288 456.8 295.2 464 304 464C312.8 464 320 456.8 320 448V387.8C331.7 383.1 342.3 377.4 352 370.9V493.4C322.4 505.4 289.9 512 256 512C114.6 512 0 397.4 0 256C0 114.6 114.6 0 256 0C397.4 0 512 114.6 512 256C512 350.8 460.5 433.5 384 477.8L384 344.2zM192 176C200.8 176 208 168.8 208 160C208 151.2 200.8 144 192 144C167.9 144 149.5 154.2 136.6 166.4C123.1 178.4 116.2 192.7 112.8 202.9C110 211.3 114.6 220.4 122.9 223.2C131.3 225.1 140.4 221.4 143.2 213.1C145.1 207.3 150.2 197.6 158.6 189.6C166.8 181.8 177.7 176 192 176L192 176zM389.1 223.2C397.4 220.4 401.1 211.3 399.2 202.9C395.8 192.7 388 178.4 375.4 166.4C362.5 154.2 344.1 143.1 320 143.1C311.2 143.1 304 151.2 304 159.1C304 168.8 311.2 175.1 320 175.1C334.3 175.1 345.2 181.8 353.4 189.6C361.8 197.6 366.9 207.3 368.8 213.1C371.6 221.4 380.7 225.1 389.1 223.2V223.2z"/></svg>