<svg xmlns="http://www.w3.org/2000/svg" viewBox="0 0 640 512"><!--! Font Awesome Pro 6.1.1 by @fontawesome - https://fontawesome.com License - https://fontawesome.com/license (Commercial License) Copyright 2022 Fonticons, Inc. --><defs><style>.fa-secondary{opacity:.4}</style></defs><path class="fa-primary" d="M281.6 228.8L281.4 228.5C281.2 228.3 281 228 280.7 227.6C280 226.8 279.1 225.7 277.9 224.3C275.4 221.4 271.9 217.7 267.7 213.1C258.9 206.2 248.8 200 240 200C231.2 200 221.1 206.2 212.3 213.1C208.1 217.7 204.6 221.4 202.1 224.3C200.9 225.7 199.1 226.8 199.3 227.6C198.1 228 198.8 228.3 198.6 228.5L198.4 228.8L198.4 228.8C196.3 231.6 192.7 232.7 189.5 231.6C186.2 230.5 183.1 227.4 183.1 224C183.1 206.1 190.7 188.4 200.6 175.2C210.4 162.2 224.5 152 239.1 152C255.5 152 269.6 162.2 279.4 175.2C289.3 188.4 295.1 206.1 295.1 224C295.1 227.4 293.8 230.5 290.5 231.6C287.3 232.7 283.7 231.6 281.6 228.8L281.6 228.8zM441.6 228.8L441.4 228.5C441.2 228.3 441 228 440.7 227.6C440 226.8 439.1 225.7 437.9 224.3C435.4 221.4 431.9 217.7 427.7 213.1C418.9 206.2 408.8 200 400 200C391.2 200 381.1 206.2 372.3 213.1C368.1 217.7 364.6 221.4 362.1 224.3C360.9 225.7 359.1 226.8 359.3 227.6C358.1 228 358.8 228.3 358.6 228.5L358.4 228.8L358.4 228.8C356.3 231.6 352.7 232.7 349.5 231.6C346.2 230.5 344 227.4 344 224C344 206.1 350.7 188.4 360.6 175.2C370.4 162.2 384.5 152 400 152C415.5 152 429.6 162.2 439.4 175.2C449.3 188.4 456 206.1 456 224C456 227.4 453.8 230.5 450.5 231.6C447.3 232.7 443.7 231.6 441.6 228.8L441.6 228.8zM625.7 337.7C607 356.4 576.9 356.8 558.6 338.4C544.4 324.3 536.1 275.6 533 254.1C532.2 248.7 536.7 244.2 542.1 245C563.7 247.1 612.3 256.4 626.4 270.6C644.8 288.9 644.4 319 625.7 337.7L625.7 337.7zM106.1 254.1C103.9 275.6 95.58 324.3 81.44 338.4C63.06 356.8 32.98 356.4 14.27 337.7C-4.442 319-4.825 288.9 13.55 270.6C27.69 256.4 76.34 247.1 97.94 245C103.3 244.2 107.8 248.7 106.1 254.1L106.1 254.1z"/><path class="fa-secondary" d="M91.4 371.4C95.87 368.4 100.1 365 104.1 361.1C112.2 352.1 117.3 342.5 120.6 334.4C124.2 325.7 127.1 316 129.4 306.9C134 288.7 137 269.1 138.6 258.7C142.6 232.2 119.9 209.5 93.4 213.3C86.59 214.3 77.18 215.7 66.84 217.7C85.31 94.5 191.6 0 319.1 0C448.4 0 554.7 94.5 573.2 217.7C562.8 215.7 553.4 214.3 546.6 213.3C520.1 209.5 497.4 232.2 501.4 258.7C502.1 269.1 505.1 288.7 510.6 306.9C512.9 316 515.8 325.7 519.4 334.4C522.7 342.5 527.8 352.1 535.9 361.1C539.9 365 544.1 368.4 548.6 371.4C506.4 454.8 419.9 512 319.1 512C220.1 512 133.6 454.8 91.4 371.4V371.4zM320.3 331.8C272.9 331.8 228.1 324.9 188.5 312.8C176.2 309 164.2 319.7 169.2 331.5C194.1 390.6 252.4 432 320.3 432C388.2 432 446.4 390.6 471.4 331.5C476.4 319.7 464.4 309 452.1 312.8C412.4 324.9 367.7 331.8 320.3 331.8V331.8zM290.5 231.6C293.8 230.5 295.1 227.4 295.1 224C295.1 206.1 289.3 188.4 279.4 175.2C269.6 162.2 255.5 152 239.1 152C224.5 152 210.4 162.2 200.6 175.2C190.7 188.4 183.1 206.1 183.1 224C183.1 227.4 186.2 230.5 189.5 231.6C192.7 232.7 196.3 231.6 198.4 228.8L198.4 228.8L198.6 228.5C198.8 228.3 198.1 228 199.3 227.6C199.1 226.8 200.9 225.7 202.1 224.3C204.6 221.4 208.1 217.7 212.3 213.1C221.1 206.2 231.2 200 239.1 200C248.8 200 258.9 206.2 267.7 213.1C271.9 217.7 275.4 221.4 277.9 224.3C279.1 225.7 280 226.8 280.7 227.6C281 228 281.2 228.3 281.4 228.5L281.6 228.8L281.6 228.8C283.7 231.6 287.3 232.7 290.5 231.6V231.6zM441.6 228.8C443.7 231.6 447.3 232.7 450.5 231.6C453.8 230.5 456 227.4 456 224C456 206.1 449.3 188.4 439.4 175.2C429.6 162.2 415.5 152 400 152C384.5 152 370.4 162.2 360.6 175.2C350.7 188.4 344 206.1 344 224C344 227.4 346.2 230.5 349.5 231.6C352.7 232.7 356.3 231.6 358.4 228.8L358.4 228.8L358.6 228.5C358.8 228.3 358.1 228 359.3 227.6C359.1 226.8 360.9 225.7 362.1 224.3C364.6 221.4 368.1 217.7 372.3 213.1C381.1 206.2 391.2 200 400 200C408.8 200 418.9 206.2 427.7 213.1C431.9 217.7 435.4 221.4 437.9 224.3C439.1 225.7 440 226.8 440.7 227.6L441 228.1L441.4 228.5L441.6 228.8L441.6 228.8z"/></svg>