<svg xmlns="http://www.w3.org/2000/svg" viewBox="0 0 512 512"><!--! Font Awesome Pro 6.0.0-beta3 by @fontawesome - https://fontawesome.com License - https://fontawesome.com/license (Commercial License) Copyright 2021 Fonticons, Inc. --><defs><style>.fa-secondary{opacity:.4}</style></defs><path class="fa-primary" d="M512 80C512 124.2 397.4 160 256 160C114.6 160 0 124.2 0 80C0 35.82 114.6 0 256 0C397.4 0 512 35.82 512 80zM256 48C149.1 48 64 62.33 64 80C64 97.67 149.1 112 256 112C362 112 448 97.67 448 80C448 62.33 362 48 256 48zM217.6 300.8L217.6 300.8L217.4 300.5C217.2 300.3 217 300 216.7 299.6C216 298.8 215.1 297.7 213.9 296.3C211.4 293.4 207.9 289.7 203.7 285.1C194.9 278.2 184.8 272 176 272C167.2 272 157.1 278.2 148.3 285.1C144.1 289.7 140.6 293.4 138.1 296.3C136.9 297.7 135.1 298.8 135.3 299.6C134.1 300 134.8 300.3 134.6 300.5L134.4 300.8L134.4 300.8C132.3 303.6 128.7 304.7 125.5 303.6C122.2 302.5 120 299.4 120 296C120 278.1 126.7 260.4 136.6 247.2C146.4 234.2 160.5 224 176 224C191.5 224 205.6 234.2 215.4 247.2C225.3 260.4 232 278.1 232 296C232 299.4 229.8 302.5 226.5 303.6C223.3 304.7 219.7 303.6 217.6 300.8V300.8zM377.6 300.8L377.6 300.8L377.4 300.5C377.2 300.3 377 300 376.7 299.6C376 298.8 375.1 297.7 373.9 296.3C371.4 293.4 367.9 289.7 363.7 285.1C354.9 278.2 344.8 272 336 272C327.2 272 317.1 278.2 308.3 285.1C304.1 289.7 300.6 293.4 298.1 296.3C296.9 297.7 295.1 298.8 295.3 299.6C294.1 300 294.8 300.3 294.6 300.5L294.4 300.8L294.4 300.8C292.3 303.6 288.7 304.7 285.5 303.6C282.2 302.5 280 299.4 280 296C280 278.1 286.7 260.4 296.6 247.2C306.4 234.2 320.5 224 336 224C351.5 224 365.6 234.2 375.4 247.2C385.3 260.4 392 278.1 392 296C392 299.4 389.8 302.5 386.5 303.6C383.3 304.7 379.7 303.6 377.6 300.8V300.8z"/><path class="fa-secondary" d="M256 192C339 192 413.9 178.3 466.4 156.5C485.3 190.7 496 230.1 496 272C496 404.5 388.5 512 256 512C123.5 512 16 404.5 16 272C16 230.1 26.73 190.7 45.58 156.5C98.14 178.3 172.1 192 256 192zM139.9 378.5C162.2 404.1 200.9 432 256 432C311.1 432 349.8 404.1 372.1 378.5C377.9 371.8 377.2 361.7 370.5 355.9C363.8 350.1 353.7 350.8 347.9 357.5C329.1 378.2 299.4 400 255.1 400C212.6 400 182 378.2 164.1 357.5C158.3 350.8 148.2 350.1 141.5 355.9C134.8 361.7 134.1 371.8 139.9 378.5H139.9zM217.6 300.8C219.7 303.6 223.3 304.7 226.5 303.6C229.8 302.5 231.1 299.4 231.1 296C231.1 278.1 225.3 260.4 215.4 247.2C205.6 234.2 191.5 224 175.1 224C160.5 224 146.4 234.2 136.6 247.2C126.7 260.4 119.1 278.1 119.1 296C119.1 299.4 122.2 302.5 125.5 303.6C128.7 304.7 132.3 303.6 134.4 300.8L134.4 300.8L134.6 300.5C134.8 300.3 134.1 300 135.3 299.6C135.1 298.8 136.9 297.7 138.1 296.3C140.6 293.4 144.1 289.7 148.3 285.1C157.1 278.2 167.2 272 176 272C184.8 272 194.9 278.2 203.7 285.1C207.9 289.7 211.4 293.4 213.9 296.3C215.1 297.7 216 298.8 216.7 299.6C217 300 217.2 300.3 217.4 300.5L217.6 300.8L217.6 300.8zM386.5 303.6C389.8 302.5 392 299.4 392 296C392 278.1 385.3 260.4 375.4 247.2C365.6 234.2 351.5 224 336 224C320.5 224 306.4 234.2 296.6 247.2C286.7 260.4 280 278.1 280 296C280 299.4 282.2 302.5 285.5 303.6C288.7 304.7 292.3 303.6 294.4 300.8L294.4 300.8L294.6 300.5C294.8 300.3 294.1 300 295.3 299.6C295.1 298.8 296.9 297.7 298.1 296.3C300.6 293.4 304.1 289.7 308.3 285.1C317.1 278.2 327.2 272 336 272C344.8 272 354.9 278.2 363.7 285.1C367.9 289.7 371.4 293.4 373.9 296.3C375.1 297.7 376 298.8 376.7 299.6C377 300 377.2 300.3 377.4 300.5L377.6 300.8L377.6 300.8C379.7 303.6 383.3 304.7 386.5 303.6V303.6z"/></svg>