<svg xmlns="http://www.w3.org/2000/svg" viewBox="0 0 512 512"><!--! Font Awesome Pro 6.1.1 by @fontawesome - https://fontawesome.com License - https://fontawesome.com/license (Commercial License) Copyright 2022 Fonticons, Inc. --><defs><style>.fa-secondary{opacity:.4}</style></defs><path class="fa-primary" d="M153.1 120.8C176.6 124.3 195.3 139.7 203.5 160.4C197.9 169.7 187.7 175.1 175.1 175.1C158.3 175.1 143.1 161.7 143.1 143.1C143.1 134.9 147.8 126.6 153.1 120.8H153.1zM360.8 121.1C382.8 127.2 400.9 142.6 409.9 162.9C404 170.8 394.6 176 384 176C366.3 176 352 161.7 352 144C352 135.5 355.3 127.7 360.8 121.1zM257.1 431.1L256 432C181.7 432 116.5 380.4 100.4 307.8C98.14 297.6 105.9 288 116.3 288H395.7C406.1 288 413.9 297.6 411.6 307.8C407.7 325.2 401 341.4 392.1 356C363.9 401.9 313.2 431.6 257.1 431.1V431.1zM258 399.1C302.1 399.3 341.8 375.9 364.2 340.2C356.1 337.5 347.4 336 338.3 336C299.1 336 266.4 363.3 258 399.1V399.1z"/><path class="fa-secondary" d="M0 256C0 114.6 114.6 0 256 0C397.4 0 512 114.6 512 256C512 397.4 397.4 512 256 512C114.6 512 0 397.4 0 256zM144 120C108.7 120 80 148.7 80 184V194.3C80 210.7 93.3 224 109.7 224H178.3C194.7 224 208 210.7 208 194.3V184C208 148.7 179.3 120 144 120zM272 199.5C272 213 282.1 224 296.5 224H391.5C405 224 416 213 416 199.5V192C416 152.2 383.8 120 344 120C304.2 120 272 152.2 272 192L272 199.5zM116.3 288C105.9 288 98.14 297.6 100.4 307.8C116.5 380.4 181.7 432 256 432C330.3 432 395.5 380.4 411.6 307.8C413.9 297.6 406.1 288 395.7 288H116.3z"/></svg>