<svg xmlns="http://www.w3.org/2000/svg" viewBox="0 0 512 512"><!--! Font Awesome Pro 6.0.0-beta3 by @fontawesome - https://fontawesome.com License - https://fontawesome.com/license (Commercial License) Copyright 2021 Fonticons, Inc. --><defs><style>.fa-secondary{opacity:.4}</style></defs><path class="fa-primary" d="M191.8 498.6C190.7 505.3 185.5 510.6 178.8 511.8C172.2 512.9 165.5 509.8 162.1 503.9L136.1 458.5L51.88 479.5C46.43 480.9 40.66 479.3 36.69 475.3C32.71 471.3 31.12 465.6 32.48 460.1L53.54 375.9L8.063 349.9C2.187 346.5-.9405 339.8 .2509 333.2C1.442 326.5 6.696 321.3 13.37 320.2L205.4 288.2C210.5 287.4 215.7 289 219.3 292.7C222.1 296.3 224.6 301.5 223.8 306.6L191.8 498.6z"/><path class="fa-secondary" d="M221.1 509.8C222.6 507.9 223 505.9 223.3 503.9L241.7 393.7L247.1 397.3C252.5 400.9 259.5 400.9 264.9 397.3L304 371.2L343.1 397.3C347.9 400.5 354 400.9 359.2 398.3L391.2 382.3C399.1 378.4 402.3 368.7 398.3 360.8C394.4 352.9 384.7 349.7 376.8 353.7L353.1 365.5L312.9 338.7C307.5 335.1 300.5 335.1 295.1 338.7L256 364.8L247.5 359.1L255.3 311.9C257.9 296.6 252.9 281 241.9 270.1C230.1 259.1 215.4 254.1 200.1 256.7L8.109 288.7C6.107 288.1 4.148 289.4 2.24 290C.7626 278.9 0 267.5 0 256C0 114.6 114.6 0 256 0C397.4 0 512 114.6 512 256C512 397.4 397.4 512 256 512C244.5 512 233.1 511.2 221.1 509.8L221.1 509.8zM118.8 148.8L154.8 191.1L118.8 235.2C116.1 237.4 115.1 240.1 115.1 242.9C115.1 251.8 125.6 257.6 133.5 253.3L223.4 205.4C234.1 199.7 234.1 184.3 223.4 178.6L133.5 130.7C125.6 126.4 115.1 132.2 115.1 141.1C115.1 143.9 116.1 146.6 118.8 148.8V148.8zM288.6 178.6C277.9 184.3 277.9 199.7 288.6 205.4L378.5 253.3C386.4 257.6 396 251.8 396 242.9C396 240.1 395 237.4 393.2 235.2L357.2 191.1L393.2 148.8C395 146.6 396 143.9 396 141.1C396 132.2 386.4 126.4 378.5 130.7L288.6 178.6z"/></svg>