<svg xmlns="http://www.w3.org/2000/svg" viewBox="0 0 576 512"><!--! Font Awesome Pro 6.1.1 by @fontawesome - https://fontawesome.com License - https://fontawesome.com/license (Commercial License) Copyright 2022 Fonticons, Inc. --><defs><style>.fa-secondary{opacity:.4}</style></defs><path class="fa-primary" d="M300.9 261.4c1.086-1.688 1.791-3.705 2.637-5.662c3.527-8.154 8.357-19.32 19.26-28.11c10.9-8.789 23.24-11.12 31.4-12.66c2.037-.3848 4.117-.6172 5.105-.8711c1.596-1.006 3.018-2.424 4.537-3.744c6.369-5.539 15.99-13.91 29.89-17.06c3.744-.8496 7.66-1.279 11.64-1.279c9.029 0 16.92 2.215 22.69 3.834c1.889 .5293 3.734 1.184 4.5 1.393c1.004-.0938 2.021-.4473 3.031-.7168c.1387-6.984-.707-14.36 .7891-20.86c2.367-10.3 11.61-19.98 11.66-30.81c.0488-10.49-9.027-20.27-11.35-30.95c-2.322-10.68 1.84-23.47-2.561-32.95c-4.539-9.791-16.93-14.57-23.35-22.87c-6.525-8.437-8.227-21.83-16.35-28.5c-8.154-6.709-21.34-5.553-30.75-10.25c-9.359-4.678-16.55-16.03-26.8-18.49c-10.08-2.42-21.46 4.436-32.06 4.383c-10.27-.0508-21.56-7.096-32.02-4.727c-10.46 2.373-17.77 13.64-27.06 18.13c-9.586 4.635-22.73 3.348-30.87 9.904C206.6 35.19 204.8 48.58 198.2 56.87C191.7 65.2 179.2 69.86 174.6 79.46C170.1 89.03 174.1 101.9 171.7 112.3c-2.367 10.3-11.61 19.98-11.66 30.81C159.1 153.6 169 163.4 171.3 174.1c1.252 5.76 .6797 12.11 .5215 18.25c.127 0 .2266-.0352 .3535-.0352c4.146 0 8.211 .4707 12.09 1.4c13.71 3.291 23.18 11.73 29.45 17.32C215.3 212.4 216.7 213.9 217.5 214.5c1.812 .6777 3.84 .9316 5.834 1.33c8.17 1.629 20.52 4.092 31.38 13.03c10.73 8.824 15.45 19.98 18.89 28.13c.8438 1.998 1.541 4.068 2.152 5.166C277.1 263.5 278.8 264.7 280.4 265.9C282.5 267.5 285.1 269.6 287.6 271.8c3.188-2.853 6.324-5.332 8.916-7.266C298.2 263.3 299.1 262.2 300.9 261.4zM239.1 159.1c-8.836 0-15.1-7.164-15.1-15.1c0-8.838 7.166-16 16-16s15.1 7.164 15.1 16C255.1 152.8 248.8 159.1 239.1 159.1zM250.7 282.1c-6.525-8.437-8.227-21.83-16.35-28.5c-8.154-6.709-21.34-5.553-30.75-10.25c-9.359-4.678-16.55-16.03-26.8-18.49C166.8 222.4 155.4 229.3 144.8 229.2C134.5 229.2 123.2 222.1 112.8 224.5C102.3 226.9 94.1 238.1 85.71 242.6c-9.586 4.635-22.73 3.348-30.87 9.904c-8.264 6.664-10.07 20.06-16.61 28.35c-6.572 8.33-18.99 12.98-23.6 22.59c-4.58 9.56-.5645 22.42-2.973 32.88C9.295 346.6 .0508 356.3 0 367.2c-.0488 10.49 9.027 20.27 11.35 30.95c2.322 10.68-1.84 23.47 2.561 32.95c4.539 9.789 16.93 14.57 23.35 22.87c6.525 8.437 8.227 21.83 16.35 28.51c8.154 6.709 21.34 5.551 30.75 10.25c9.359 4.676 16.55 16.03 26.8 18.49c10.08 2.42 21.46-4.436 32.06-4.383c10.27 .0508 21.56 7.096 32.02 4.725c10.46-2.373 17.77-13.64 27.06-18.13c9.586-4.635 22.73-3.346 30.87-9.902c8.264-6.662 10.07-20.06 16.61-28.35c5.461-6.92 14.72-11.46 20.41-18.25c-2.727-9.601-2.496-18.58-2.211-25.52c.0918-2.211 .2285-5.553 .168-6.225c-.3184-1.07-1.818-4.016-2.811-5.965c-3.963-7.783-9.391-18.44-9.326-32.16c.0664-14.06 5.955-25.26 9.852-32.67c.9824-1.867 2.1-3.658 2.566-4.873c.2988-2.068 .0625-4.271-.002-6.471c-.1914-6.435-.375-14.63 1.838-23.43C264.5 293.1 255.8 288.7 250.7 282.1zM79.1 383.1c-8.836 0-15.1-7.164-15.1-15.1c0-8.838 7.166-16 16-16s15.1 7.164 15.1 16C95.1 376.8 88.84 383.1 79.1 383.1zM111.1 447.1c-8.836 0-15.1-7.164-15.1-15.1c0-8.836 7.166-15.1 16-15.1c8.836 0 15.1 7.164 15.1 15.1C127.1 440.8 120.8 447.1 111.1 447.1zM143.1 383.1c-8.836 0-16-7.164-16-15.1c0-8.838 7.166-16 16-16s15.1 7.164 15.1 16C159.1 376.8 152.8 383.1 143.1 383.1zM567.1 383.1h-.1211c-1.188 1.699-2.055 3.627-3.537 5.109c-24.21 24.21-78.19 9.492-120.6-32.88c-42.37-42.37-57.09-96.35-32.88-120.6c3.549-3.549 7.889-6.014 12.59-7.926c-7.557-1.938-15.34-4.918-22.71-3.246c-10.46 2.373-17.77 13.64-27.06 18.13c-9.586 4.635-22.73 3.348-30.87 9.904c-8.264 6.664-10.07 20.06-16.61 28.35c-6.572 8.33-18.99 12.98-23.6 22.59c-4.58 9.56-.5645 22.42-2.973 32.88c-2.367 10.3-11.61 19.98-11.66 30.81c-.0488 10.49 9.027 20.27 11.35 30.95c2.322 10.68-1.84 23.47 2.561 32.95c4.539 9.789 16.93 14.57 23.35 22.87c6.525 8.437 8.227 21.83 16.35 28.51c8.154 6.709 21.34 5.551 30.75 10.25c9.359 4.676 16.55 16.03 26.8 18.49c10.08 2.42 21.46-4.436 32.06-4.383c10.27 .0508 21.56 7.096 32.02 4.725c10.46-2.373 17.77-13.64 27.06-18.13c9.586-4.635 22.73-3.346 30.87-9.902c8.264-6.662 10.07-20.06 16.61-28.35c6.572-8.33 18.99-12.98 23.6-22.59c4.58-9.557 .5645-22.42 2.973-32.88C565.6 394.4 565.3 389.2 567.1 383.1zM367.1 384c-8.836 0-16-7.164-16-15.1c0-8.838 7.166-16 16-16s15.1 7.164 15.1 16C383.1 376.8 376.8 384 367.1 384zM399.1 448c-8.836 0-15.1-7.164-15.1-15.1c0-8.836 7.166-15.1 16-15.1c8.836 0 15.1 7.164 15.1 15.1C415.1 440.8 408.8 448 399.1 448z"/><path class="fa-secondary" d="M531.5 268.5c42.37 42.37 57.1 96.35 32.88 120.6c-24.21 24.21-78.19 9.492-120.6-32.88s-57.09-96.35-32.88-120.6S489.1 226.2 531.5 268.5z"/></svg>