<svg xmlns="http://www.w3.org/2000/svg" viewBox="0 0 512 512"><!--! Font Awesome Pro 6.1.1 by @fontawesome - https://fontawesome.com License - https://fontawesome.com/license (Commercial License) Copyright 2022 Fonticons, Inc. --><defs><style>.fa-secondary{opacity:.4}</style></defs><path class="fa-primary" d="M302.7 36.88C330.4 42.75 356.2 53.73 379.1 68.8C385.4 65.72 392.5 64 400 64C426.5 64 448 85.49 448 112C448 119.5 446.3 126.6 443.2 132.9C458.3 155.8 469.3 181.6 475.1 209.3C496.3 214.3 512 233.3 512 256C512 278.7 496.3 297.7 475.1 302.7C469.3 330.4 458.3 356.2 443.2 379.1C446.3 385.4 448 392.5 448 400C448 425.6 428 446.4 402.9 447.9L364.3 367.9C368.9 362.8 374.6 358.7 380.1 355.9C398.2 334.4 409.9 308.5 414.2 280H332.3C334.7 272.4 336 264.4 336 256C336 247.6 334.7 239.6 332.3 232H414.2C410.3 205.7 399.9 181.6 384.8 161.1L326.9 218.1C319.4 204.5 307.5 192.6 293 185.1L350.9 127.2C330.4 112.1 306.3 101.7 280 97.79V179.7C272.4 177.3 264.4 176 256 176C247.6 176 239.6 177.3 232 179.7V97.79C205.7 101.7 181.6 112.1 161.1 127.2L218.1 185.1C204.5 192.6 192.6 204.5 185.1 218.1L127.2 161.1C112.1 181.6 101.7 205.7 97.79 232H179.7C177.3 239.6 176 247.6 176 256C176 264.4 177.3 272.4 179.7 280H97.79C102.1 308.5 113.8 334.4 131 355.9C137.4 358.7 143.1 362.8 147.7 367.9L109.1 447.9C83.97 446.4 64 425.6 64 400C64 392.5 65.72 385.4 68.8 379.1C53.73 356.2 42.75 330.4 36.88 302.7C15.73 297.7 0 278.7 0 256C0 233.3 15.73 214.3 36.88 209.3C42.75 181.6 53.73 155.8 68.8 132.9C65.72 126.6 64 119.5 64 112C64 85.49 85.49 64 112 64C119.5 64 126.6 65.72 132.9 68.8C155.8 53.73 181.6 42.75 209.3 36.88C214.3 15.73 233.3 0 256 0C278.7 0 297.7 15.73 302.7 36.88V36.88z"/><path class="fa-secondary" d="M381.8 477.9C385.2 485.3 384.6 494 380.2 500.9C375.8 507.8 368.2 512 360 512H152C143.8 512 136.2 507.8 131.8 500.9C127.4 494 126.8 485.3 130.2 477.9L219 286.6C212.1 278.3 208 267.6 208 256C208 229.5 229.5 208 256 208C282.5 208 304 229.5 304 256C304 267.6 299.9 278.3 292.1 286.6L381.8 477.9z"/></svg>