<svg xmlns="http://www.w3.org/2000/svg" viewBox="0 0 576 512"><!--! Font Awesome Pro 6.1.1 by @fontawesome - https://fontawesome.com License - https://fontawesome.com/license (Commercial License) Copyright 2022 Fonticons, Inc. --><defs><style>.fa-secondary{opacity:.4}</style></defs><path class="fa-primary" d="M256 0v128h128L256 0zM568.1 295l-80-80c-9.375-9.375-24.56-9.375-33.94 0s-9.375 24.56 0 33.94L494.1 288H216C202.8 288 192 298.8 192 312s10.75 24 24 24h278.1l-39.03 39.03C450.3 379.7 448 385.8 448 392s2.344 12.28 7.031 16.97c9.375 9.375 24.56 9.375 33.94 0l80-80C578.3 319.6 578.3 304.4 568.1 295z"/><path class="fa-secondary" d="M384 336v128c0 26.51-21.49 48-48 48h-288C21.49 512 0 490.5 0 464v-416C0 21.49 21.49 0 48 0H256v128h128v160H216C202.8 288 192 298.8 192 312s10.75 24 24 24H384z"/></svg>