<svg xmlns="http://www.w3.org/2000/svg" viewBox="0 0 384 512"><!--! Font Awesome Pro 6.1.1 by @fontawesome - https://fontawesome.com License - https://fontawesome.com/license (Commercial License) Copyright 2022 Fonticons, Inc. --><defs><style>.fa-secondary{opacity:.4}</style></defs><path class="fa-primary" d="M256 0v128h128L256 0zM192 320c35.35 0 64-28.66 64-64s-28.65-64-64-64C156.7 192 128 220.7 128 256S156.7 320 192 320zM224 352H160c-44.18 0-80 35.81-80 80C80 440.8 87.16 448 96 448h192c8.836 0 16-7.164 16-16C304 387.8 268.2 352 224 352z"/><path class="fa-secondary" d="M256 128V0H48C21.49 0 0 21.49 0 48v416C0 490.5 21.49 512 48 512h288c26.51 0 48-21.49 48-48V128H256zM192 192c35.35 0 64 28.66 64 64s-28.65 64-64 64c-35.34 0-64-28.66-64-64S156.7 192 192 192zM288 448H96c-8.836 0-16-7.164-16-16C80 387.8 115.8 352 160 352h64c44.18 0 80 35.81 80 80C304 440.8 296.8 448 288 448z"/></svg>