<svg xmlns="http://www.w3.org/2000/svg" viewBox="0 0 448 512"><!--! Font Awesome Pro 6.0.0-beta3 by @fontawesome - https://fontawesome.com License - https://fontawesome.com/license (Commercial License) Copyright 2021 Fonticons, Inc. --><defs><style>.fa-secondary{opacity:.4}</style></defs><path class="fa-primary" d="M320 0v128h128L320 0zM352 256h-49.16l-25.38-50.72c-4.219-8.438-12.16-13.72-22.47-13.25c-9.438 .375-17.78 6.281-21.28 15.06L189.6 317.5L165.5 269.3C161.4 261.1 153.1 256 143.1 256H16C7.164 256 0 263.2 0 272V288c0 8.836 7.164 16 16 16h113.2l41.38 82.72C174.6 394.9 182.9 400 192 400c.3125 0 .6562 0 1-.0313c9.438-.375 17.78-6.281 21.28-15.06l44.16-110.4l8.094 16.19C270.6 298.9 278.9 304 288 304h64c8.836 0 16-7.164 16-16V272C368 263.2 360.8 256 352 256z"/><path class="fa-secondary" d="M448 128v336c0 26.51-21.49 48-48 48h-288C85.49 512 64 490.5 64 464v-160h65.16l41.38 82.72C174.6 394.9 182.9 400 192 400c.3125 0 .6562 0 1-.0313c9.438-.375 17.78-6.281 21.28-15.06l44.16-110.4l8.094 16.19C270.6 298.9 278.9 304 288 304h64c8.836 0 16-7.164 16-16V272C368 263.2 360.8 256 352 256h-49.16l-25.38-50.72c-4.219-8.438-12.16-13.72-22.47-13.25c-9.438 .375-17.78 6.281-21.28 15.06L189.6 317.5L165.5 269.3C161.4 261.1 153.1 256 143.1 256H64V48C64 21.49 85.49 0 112 0H320v128H448z"/></svg>