<svg xmlns="http://www.w3.org/2000/svg" viewBox="0 0 384 512"><!--! Font Awesome Pro 6.0.0-beta3 by @fontawesome - https://fontawesome.com License - https://fontawesome.com/license (Commercial License) Copyright 2021 Fonticons, Inc. --><defs><style>.fa-secondary{opacity:.4}</style></defs><path class="fa-primary" d="M256 0v128h128L256 0zM256 400H128c-8.844 0-16 7.156-16 16s7.156 16 16 16h128c8.844 0 16-7.156 16-16S264.8 400 256 400zM256 256h-48V208C208 199.2 200.8 192 192 192S176 199.2 176 208V256H128C119.2 256 112 263.2 112 272S119.2 288 128 288h48v48c0 8.844 7.156 16 16 16s16-7.156 16-16V288H256c8.844 0 16-7.156 16-16S264.8 256 256 256z"/><path class="fa-secondary" d="M256 128V0H48C21.49 0 0 21.49 0 48v416C0 490.5 21.49 512 48 512h288c26.51 0 48-21.49 48-48V128H256zM256 432H128c-8.844 0-16-7.156-16-16s7.156-16 16-16h128c8.844 0 16 7.156 16 16S264.8 432 256 432zM256 288h-48v48c0 8.844-7.156 16-16 16s-16-7.156-16-16V288H128C119.2 288 112 280.8 112 272S119.2 256 128 256h48V208C176 199.2 183.2 192 192 192s16 7.156 16 16V256H256c8.844 0 16 7.156 16 16S264.8 288 256 288z"/></svg>