<svg xmlns="http://www.w3.org/2000/svg" viewBox="0 0 384 512"><!--! Font Awesome Pro 6.0.0-beta3 by @fontawesome - https://fontawesome.com License - https://fontawesome.com/license (Commercial License) Copyright 2021 Fonticons, Inc. --><defs><style>.fa-secondary{opacity:.4}</style></defs><path class="fa-primary" d="M256 0v128h128L256 0zM272 312h-56V255.1C215.1 242.7 205.3 232 192 232S168 242.7 168 255.1V312H111.1C98.74 312 88 322.7 88 336c0 13.26 10.73 23.1 23.1 23.1H168v56C168 429.3 178.7 440 192 440c13.26 0 23.1-10.74 23.1-23.1V359.1H272c13.26 0 24-10.74 24-23.1S285.3 312 272 312z"/><path class="fa-secondary" d="M256 128V0H48C21.49 0 0 21.49 0 48v416C0 490.5 21.49 512 48 512h288c26.51 0 48-21.49 48-48V128H256zM272 359.1h-56v56C215.1 429.3 205.3 440 192 440c-13.27 0-24-10.74-24-23.1V359.1H111.1C98.73 359.1 88 349.3 88 336c0-13.26 10.74-23.1 23.1-23.1H168V255.1C168 242.7 178.7 232 192 232s23.1 10.74 23.1 23.1V312H272c13.26 0 24 10.74 24 23.1S285.3 359.1 272 359.1z"/></svg>