<svg xmlns="http://www.w3.org/2000/svg" viewBox="0 0 384 512"><!--! Font Awesome Pro 6.1.1 by @fontawesome - https://fontawesome.com License - https://fontawesome.com/license (Commercial License) Copyright 2022 Fonticons, Inc. --><defs><style>.fa-secondary{opacity:.4}</style></defs><path class="fa-primary" d="M256 0v128h128L256 0zM304 384H288V256c0-8.844-7.156-16-16-16h-32C231.2 240 224 247.2 224 256s7.156 16 16 16H256V384h-16c-8.844 0-16 7.156-16 16s7.156 16 16 16h64c8.844 0 16-7.156 16-16S312.8 384 304 384zM144 240h-32C85.53 240 64 261.5 64 288v80C64 394.5 85.53 416 112 416h32c26.47 0 48-21.53 48-48V288C192 261.5 170.5 240 144 240zM160 368C160 376.8 152.8 384 144 384h-32C103.2 384 96 376.8 96 368V288c0-8.828 7.188-16 16-16h32C152.8 272 160 279.2 160 288V368z"/><path class="fa-secondary" d="M144 272h-32C103.2 272 96 279.2 96 288v80C96 376.8 103.2 384 112 384h32C152.8 384 160 376.8 160 368V288C160 279.2 152.8 272 144 272zM256 128V0H48C21.49 0 0 21.49 0 48v416C0 490.5 21.49 512 48 512h288c26.51 0 48-21.49 48-48V128H256zM192 368c0 26.47-21.53 48-48 48h-32C85.53 416 64 394.5 64 368V288c0-26.47 21.53-48 48-48h32C170.5 240 192 261.5 192 288V368zM304 416h-64c-8.844 0-16-7.156-16-16s7.156-16 16-16H256V272h-16C231.2 272 224 264.8 224 256s7.156-16 16-16h32C280.8 240 288 247.2 288 256v128h16c8.844 0 16 7.156 16 16S312.8 416 304 416z"/></svg>