<svg xmlns="http://www.w3.org/2000/svg" viewBox="0 0 384 512"><!--! Font Awesome Pro 6.1.1 by @fontawesome - https://fontawesome.com License - https://fontawesome.com/license (Commercial License) Copyright 2022 Fonticons, Inc. --><defs><style>.fa-secondary{opacity:.4}</style></defs><path class="fa-primary" d="M256 0v128h128L256 0zM154.1 257.8c-7.812-7.812-20.47-7.812-28.28 0l-48 48c-7.812 7.812-7.812 20.5 0 28.31l48 48C129.8 386.1 134.9 388 140 388s10.23-1.938 14.14-5.844c7.812-7.812 7.812-20.5 0-28.31L120.3 320l33.86-33.84C161.1 278.3 161.1 265.7 154.1 257.8zM258.1 257.8c-7.812-7.812-20.47-7.812-28.28 0s-7.812 20.5 0 28.31L263.7 320l-33.86 33.84c-7.812 7.812-7.812 20.5 0 28.31C233.8 386.1 238.9 388 244 388s10.23-1.938 14.14-5.844l48-48c7.812-7.812 7.812-20.5 0-28.31L258.1 257.8z"/><path class="fa-secondary" d="M256 128V0H48C21.49 0 0 21.49 0 48v416C0 490.5 21.49 512 48 512h288c26.51 0 48-21.49 48-48V128H256zM154.1 353.8c7.812 7.812 7.812 20.5 0 28.31C150.2 386.1 145.1 388 140 388s-10.23-1.938-14.14-5.844l-48-48c-7.812-7.812-7.812-20.5 0-28.31l48-48c7.812-7.812 20.47-7.812 28.28 0s7.812 20.5 0 28.31L120.3 320L154.1 353.8zM306.1 334.2l-48 48C254.2 386.1 249.1 388 244 388s-10.23-1.938-14.14-5.844c-7.812-7.812-7.812-20.5 0-28.31L263.7 320l-33.86-33.84c-7.812-7.812-7.812-20.5 0-28.31s20.47-7.812 28.28 0l48 48C313.1 313.7 313.1 326.3 306.1 334.2z"/></svg>