<svg xmlns="http://www.w3.org/2000/svg" viewBox="0 0 576 512"><!--! Font Awesome Pro 6.0.0-beta3 by @fontawesome - https://fontawesome.com License - https://fontawesome.com/license (Commercial License) Copyright 2021 Fonticons, Inc. --><defs><style>.fa-secondary{opacity:.4}</style></defs><path class="fa-primary" d="M473.4 162.8l-180.6 179.6C289.7 345.3 288 349.4 288 353.7V416h62.34c4.264 0 8.35-1.703 11.35-4.727l179.6-180.6L473.4 162.8zM256 0v128h128L256 0z"/><path class="fa-secondary" d="M256 0H48C21.49 0 0 21.49 0 48v416C0 490.5 21.49 512 48 512h288c26.51 0 48-21.49 48-48v-75.19l-22.31 22.46C358.7 414.3 354.6 416 350.3 416L256 415.9c-16.07-.2852-30.55-9.284-37.81-23.8C215.3 386.3 210.1 385.6 208 385.6s-7.25 .625-10 6.125l-7.749 15.38C187.6 412.6 181.1 416 176 416H174.9c-6.5-.5-12.06-4.75-14.06-11L144 354.6L133.4 386.5C127.5 404.1 110.1 416 92.4 416H80C71.13 416 64 408.9 64 400S71.13 384 80 384h12.38c4.875 0 9.125-3.125 10.62-7.625l18.25-54.63C124.5 311.9 133.6 305.3 144 305.3s19.5 6.625 22.75 16.5l13.88 41.63c19.75-16.25 54.13-9.75 66 14.12C248.5 381.2 252.2 383.5 256 383.8l32 .181v-30.28c0-4.262 1.701-8.348 4.727-11.36L384 251.7V128H256V0zM568.5 167.4L536.6 135.5c-9.875-10-26-10-36 0l-27.25 27.25l67.88 67.88l27.25-27.25C578.5 193.4 578.5 177.3 568.5 167.4z"/></svg>