<svg xmlns="http://www.w3.org/2000/svg" viewBox="0 0 576 512"><!--! Font Awesome Pro 6.0.0-beta3 by @fontawesome - https://fontawesome.com License - https://fontawesome.com/license (Commercial License) Copyright 2021 Fonticons, Inc. --><defs><style>.fa-secondary{opacity:.4}</style></defs><path class="fa-primary" d="M502.6 217L294.1 9.371C288.7 3.121 280.5 0 272.3 0c-8.125 0-16.4 3.121-22.53 9.371L168.1 91l-81.63-81.65C74.01-3.14 53.76-3.112 41.31 9.408C28.87 21.91 28.9 42.13 41.37 54.6l81.5 81.53L28.13 231c-37.5 37.38-37.5 98.25 0 135.8l117.1 117.1C164 502.6 188.6 512 213.1 512c24.62 0 49.13-9.375 67.88-28.12l221.6-221.6C515.1 249.8 515.1 229.5 502.6 217zM235.7 438.6c-13.44 13.43-33.68 11.56-45.24 0l-117.1-117.1C61.82 309.9 59.93 289.7 73.39 276.2l94.7-94.76l49.25 49.12c12.5 12.5 32.75 12.5 45.25 0s12.5-32.75 0-45.25l-49.19-49.11l58.91-58.98l162.4 162.4L235.7 438.6z"/><path class="fa-secondary" d="M512 320c0 0-64 92.65-64 128S476.6 512 512 512s64-28.6 64-63.97S512 320 512 320zM73.38 321.5C64.95 313.1 61.49 300.4 65.92 288h320.4l-150.6 150.6c-13.44 13.43-33.68 11.56-45.24 0L73.38 321.5z"/></svg>