<svg xmlns="http://www.w3.org/2000/svg" viewBox="0 0 512 512"><!--! Font Awesome Pro 6.0.0-beta3 by @fontawesome - https://fontawesome.com License - https://fontawesome.com/license (Commercial License) Copyright 2021 Fonticons, Inc. --><defs><style>.fa-secondary{opacity:.4}</style></defs><path class="fa-primary" d="M346.9 99.88L224 244.6v185.4c0 14.64-16.48 23.03-28.31 14.74l-59.1-41.99C130.9 399.4 128 393.9 128 388V244.6L5.07 99.88C-6.85 85.5 3.582 64 22.48 64h307C348.4 64 358.8 85.5 346.9 99.88z"/><path class="fa-secondary" d="M480 384h-128C334.3 384 320 398.3 320 416s14.33 32 31.1 32H480c17.67 0 32-14.33 32-32S497.7 384 480 384zM480 224h-128C334.3 224 320 238.3 320 256s14.33 32 31.1 32H480c17.67 0 32-14.33 32-32S497.7 224 480 224zM480 64h-32C430.3 64 416 78.33 416 95.1S430.3 128 447.1 128H480c17.67 0 32-14.33 32-31.1S497.7 64 480 64z"/></svg>