<svg xmlns="http://www.w3.org/2000/svg" viewBox="0 0 576 512"><!--! Font Awesome Pro 6.0.0-beta3 by @fontawesome - https://fontawesome.com License - https://fontawesome.com/license (Commercial License) Copyright 2021 Fonticons, Inc. --><defs><style>.fa-secondary{opacity:.4}</style></defs><path class="fa-primary" d="M228.7 231.4c-6.25-6.25-6.25-16.38 0-22.62l64-64c6.25-6.25 16.38-6.25 22.62 0s6.25 16.38 0 22.62l-64 64C248.2 234.6 244.1 236.1 240 236.1S231.8 234.6 228.7 231.4zM267.3 347.3C264.2 350.4 260.1 352 255.1 352s-8.188-1.562-11.31-4.688c-6.25-6.25-6.25-16.38 0-22.62l160-160c6.25-6.25 16.38-6.25 22.63 0s6.25 16.38 0 22.62L267.3 347.3zM443.3 303.2l-64 64C376.2 370.3 372.1 371.9 368 371.9s-8.188-1.562-11.31-4.688c-6.25-6.25-6.25-16.38 0-22.62l64-64c6.25-6.25 16.38-6.25 22.62 0S449.6 296.9 443.3 303.2z"/><path class="fa-secondary" d="M327.1 64C237.2 64 158.5 129.7 114.9 185.1L27.56 112.7C15.41 101.5-2.699 113.3 .338 130.2L28.8 256l-28.46 125.8c-3.037 16.88 15.07 28.63 27.11 17.62l87.3-73.41C158.5 382.2 237.2 448 327.1 448c137.4 0 248.8-153.6 248.8-192C575.1 217.6 464.5 64 327.1 64zM228.7 231.4c-6.25-6.25-6.25-16.38 0-22.62l64-64c6.25-6.25 16.38-6.25 22.62 0s6.25 16.38 0 22.62l-64 64C248.2 234.6 244.1 236.1 240 236.1S231.8 234.6 228.7 231.4zM267.3 347.3C264.2 350.4 260.1 352 255.1 352s-8.188-1.562-11.31-4.688c-6.25-6.25-6.25-16.38 0-22.62l160-160c6.25-6.25 16.38-6.25 22.63 0s6.25 16.38 0 22.62L267.3 347.3zM443.3 303.2l-64 64C376.2 370.3 372.1 371.9 368 371.9s-8.188-1.562-11.31-4.688c-6.25-6.25-6.25-16.38 0-22.62l64-64c6.25-6.25 16.38-6.25 22.62 0S449.6 296.9 443.3 303.2z"/></svg>