<svg xmlns="http://www.w3.org/2000/svg" viewBox="0 0 576 512"><!--! Font Awesome Pro 6.1.1 by @fontawesome - https://fontawesome.com License - https://fontawesome.com/license (Commercial License) Copyright 2022 Fonticons, Inc. --><defs><style>.fa-secondary{opacity:.4}</style></defs><path class="fa-primary" d="M472 256c0 13.26-10.75 24.01-24 24.01l-71.1-.0119v72c0 13.26-10.75 24-24 24s-24-10.74-24-24v-72h-48v72c0 13.26-10.75 24-23.1 24s-24-10.74-24-24v-72h-48v72c0 13.26-10.75 24-23.1 24s-24-10.74-24-24v-72L88 280C74.75 280 64 269.3 64 256c0-13.26 10.75-24.01 24-24.01L136 232v-72c0-13.26 10.75-24 24-24s23.1 10.74 23.1 24v72h48v-72c0-13.26 10.75-24 24-24s23.1 10.74 23.1 24v72h48v-72c0-13.26 10.75-24 24-24s24 10.74 24 24v72L448 231.1C461.3 231.1 472 242.7 472 256z"/><path class="fa-secondary" d="M27.56 100.7c-12.15-12.05-30.26 .6796-27.23 18.96L28.8 256l-28.46 136.3c-3.037 18.28 15.08 31.01 27.11 19.09l58.1-52.92c6.659-6.064 10.45-14.65 10.45-23.65V279.1H88C74.75 279.1 64 269.2 64 256s10.75-23.1 24-23.1h8V177.2c0-9.011-3.799-17.6-10.46-23.67L27.56 100.7zM440.4 98.23c-10.78-6.222-24.36 1.268-24.36 13.67l.0001 120.1l32-.0126c13.25 0 24 10.75 24 23.1s-10.75 23.1-24 23.1l-32-.0119L416 400.1c0 12.4 13.59 19.89 24.36 13.67C520.8 367.3 576 285.1 576 256C576 226.9 520.8 144.7 440.4 98.23z"/></svg>