<svg xmlns="http://www.w3.org/2000/svg" viewBox="0 0 640 512"><!--! Font Awesome Pro 6.1.1 by @fontawesome - https://fontawesome.com License - https://fontawesome.com/license (Commercial License) Copyright 2022 Fonticons, Inc. --><defs><style>.fa-secondary{opacity:.4}</style></defs><path class="fa-primary" d="M512 0C529.7 0 544 14.33 544 32C544 49.67 529.7 64 512 64V214.9L629.7 406.2C636.4 417.2 640 429.7 640 442.6C640 480.9 608.9 512 570.6 512H261.4C223.1 512 192 480.9 192 442.6C192 429.7 195.6 417.2 202.3 406.2L320 214.9V64C302.3 64 288 49.67 288 32C288 14.33 302.3 0 320 0L512 0zM379.3 240.8L330.5 320H501.5L452.7 240.8C449.6 235.7 448 229.9 448 224V64H384V224C384 229.9 382.4 235.7 379.3 240.8H379.3z"/><path class="fa-secondary" d="M224 309.9L175 389.4C165.2 405.4 160 423.8 160 442.5C149.1 446.1 139.2 448 128 448C74.98 448 32 405 32 352V64C14.33 64 0 49.67 0 32C0 14.33 14.33 0 32 0H224C241.7 0 256 14.33 256 32C256 49.67 241.7 64 224 64V309.9zM160 64H96V160H160V64z"/></svg>