<svg xmlns="http://www.w3.org/2000/svg" viewBox="0 0 448 512"><!--! Font Awesome Pro 6.1.1 by @fontawesome - https://fontawesome.com License - https://fontawesome.com/license (Commercial License) Copyright 2022 Fonticons, Inc. --><defs><style>.fa-secondary{opacity:.4}</style></defs><path class="fa-primary" d="M183.1 288C170.7 288 159.1 298.8 159.1 312s10.75 24 23.1 24s23.1-10.75 23.1-24S197.2 288 183.1 288zM287.1 384.1V416c0 8.875-7.125 16-16 16H175.1c-8.875 0-16-7.125-16-16v-31.88c-29-16-47.1-42.25-47.1-72.13c0-48.63 50.12-88 111.1-88s111.1 39.38 111.1 88C335.1 341.9 316.1 368.1 287.1 384.1zM263.1 288c-13.25 0-23.99 10.75-23.99 24s10.75 24 23.99 24c13.25 0 24-10.75 24-24S277.2 288 263.1 288z"/><path class="fa-secondary" d="M319.1 169V64h7.996c13.26 0 24-10.75 24-24v-16c0-13.26-10.74-24-24-24H119.1c-13.26 0-24 10.74-24 24v16c0 13.25 10.74 24 24 24h7.992v104.1C61.62 202.9 16 271.9 16 352c0 53.75 20.38 102.8 53.99 139.8C81.87 504.9 99.12 512 116.1 512h213.1c18 0 35.5-7.5 47.5-20.88c32.24-35.75 52.24-82.75 53.49-134.5C433.7 276.8 387.2 205.1 319.1 169zM287.1 384.1V416c0 8.875-7.125 16-16 16H175.1c-8.875 0-16-7.125-16-16v-31.88c-29-16-47.1-42.25-47.1-72.13c0-48.63 50.12-88 111.1-88s111.1 39.38 111.1 88C335.1 341.9 316.1 368.1 287.1 384.1z"/></svg>