<svg xmlns="http://www.w3.org/2000/svg" viewBox="0 0 512 512"><!--! Font Awesome Pro 6.0.0-beta3 by @fontawesome - https://fontawesome.com License - https://fontawesome.com/license (Commercial License) Copyright 2021 Fonticons, Inc. --><defs><style>.fa-secondary{opacity:.4}</style></defs><path class="fa-primary" d="M358.5 164.7c2.281-3.188 1.938-7.547-.8438-10.31c-2.781-2.781-7.156-3.156-10.31-.8594c-75.03 53.61-140.3 118.8-193.8 193.9c-2.281 3.188-1.938 7.547 .8438 10.31C155.9 359.2 157.9 360 160 360c1.625 0 3.25-.4844 4.656-1.484C239.7 304.9 304.9 239.7 358.5 164.7zM246.9 116.1c1.875-3.141 1.375-7.172-1.219-9.766C243.1 103.7 239 103.3 235.9 105.1C181.7 137.7 137.7 181.7 105.1 235.9C103.3 239 103.8 243.1 106.3 245.7C107.9 247.2 109.9 248 112 248c1.406 0 2.844-.375 4.125-1.141C170.3 214.3 214.3 170.3 246.9 116.1zM405.7 266.3c-2.562-2.578-6.625-3.078-9.781-1.203c-54.22 32.53-98.19 76.52-130.8 130.8c-1.875 3.141-1.375 7.172 1.219 9.766C267.9 407.2 269.9 408 272 408c1.406 0 2.844-.375 4.125-1.141c54.22-32.53 98.19-76.52 130.8-130.8C408.8 272.1 408.3 268.9 405.7 266.3z"/><path class="fa-secondary" d="M256 0C114.6 0 0 114.6 0 256s114.6 256 256 256s256-114.6 256-256S397.4 0 256 0zM112 248c-2.062 0-4.125-.7969-5.656-2.344C103.8 243.1 103.3 239 105.1 235.9c32.56-54.23 76.53-98.22 130.8-130.8c3.156-1.891 7.188-1.422 9.781 1.203C248.3 108.9 248.8 112.1 246.9 116.1C214.3 170.3 170.3 214.3 116.1 246.9C114.8 247.6 113.4 248 112 248zM164.7 358.5C163.3 359.5 161.6 360 160 360c-2.062 0-4.094-.7969-5.656-2.344c-2.781-2.766-3.125-7.125-.8438-10.31c53.59-75.03 118.8-140.3 193.8-193.9c3.156-2.297 7.531-1.922 10.31 .8594c2.781 2.766 3.125 7.125 .8438 10.31C304.9 239.7 239.7 304.9 164.7 358.5zM406.9 276.1c-32.56 54.23-76.53 98.22-130.8 130.8C274.8 407.6 273.4 408 272 408c-2.062 0-4.125-.7969-5.656-2.344c-2.594-2.594-3.094-6.625-1.219-9.766c32.56-54.23 76.53-98.22 130.8-130.8c3.156-1.875 7.219-1.375 9.781 1.203C408.3 268.9 408.8 272.1 406.9 276.1z"/></svg>