<svg xmlns="http://www.w3.org/2000/svg" viewBox="0 0 512 512"><!--! Font Awesome Pro 6.1.1 by @fontawesome - https://fontawesome.com License - https://fontawesome.com/license (Commercial License) Copyright 2022 Fonticons, Inc. --><defs><style>.fa-secondary{opacity:.4}</style></defs><path class="fa-primary" d="M376.1 375l-48.67-48.67C338.1 310.5 344 292 344 272c0-57.44-46.56-104-104-104S136 214.6 136 272s46.56 104 104 104c19.1 0 38.5-5.922 54.36-15.71l48.67 48.67C347.7 413.7 353.8 416 360 416s12.28-2.344 16.97-7.031C386.3 399.6 386.3 384.4 376.1 375zM240 328c-30.88 0-56-25.12-56-56c0-30.88 25.12-56 56-56c30.88 0 56 25.12 56 56C296 302.9 270.9 328 240 328z"/><path class="fa-secondary" d="M464 96h-192l-64-64h-160C21.5 32 0 53.5 0 80v352C0 458.5 21.5 480 48 480h416c26.5 0 48-21.5 48-48v-288C512 117.5 490.5 96 464 96zM376.1 408.1C372.3 413.7 366.2 416 360 416s-12.28-2.344-16.97-7.031l-48.67-48.67C278.5 370.1 259.1 376 240 376c-57.44 0-104-46.56-104-104S182.6 168 240 168s104 46.56 104 104c0 20-5.922 38.5-15.71 54.36l48.67 48.67C386.3 384.4 386.3 399.6 376.1 408.1zM240 216c-30.88 0-56 25.12-56 56c0 30.88 25.12 56 56 56c30.88 0 56-25.12 56-56C296 241.1 270.9 216 240 216z"/></svg>