<svg xmlns="http://www.w3.org/2000/svg" viewBox="0 0 512 512"><!--! Font Awesome Pro 6.1.1 by @fontawesome - https://fontawesome.com License - https://fontawesome.com/license (Commercial License) Copyright 2022 Fonticons, Inc. --><defs><style>.fa-secondary{opacity:.4}</style></defs><path class="fa-primary" d="M355.5 45.53L342.4 14.98c-27.95-9.983-57.18-14.98-86.42-14.98c-29.25 0-58.51 4.992-86.46 14.97L156.5 45.53l99.5 55.13L355.5 45.53zM86.78 96.15L53.67 99.09c-34.79 44.75-53.67 99.8-53.67 156.5L.0001 256c0 2.694 .0519 5.379 .1352 8.063l24.95 21.76l83.2-77.67L86.78 96.15zM318.8 336L357.3 217.4L255.1 144L154.7 217.4l38.82 118.6L318.8 336zM512 255.6c0-56.7-18.9-111.8-53.72-156.5L425.6 96.16L403.7 208.2l83.21 77.67l24.92-21.79C511.1 260.1 512 258.1 512 255.6zM51.77 367.7l-7.39 32.46c33.48 49.11 82.96 85.07 140 101.7l28.6-16.99l-48.19-103.3L51.77 367.7zM347.2 381.5l-48.19 103.3l28.57 17c57.05-16.66 106.5-52.62 140-101.7l-7.38-32.46L347.2 381.5z"/><path class="fa-secondary" d="M458.3 99.08L458.3 99.08L458.3 99.08zM511.8 264c-1.442 48.66-16.82 95.87-44.28 136.1l-7.38-32.46l-113 13.86l-48.19 103.3l28.22 16.84c-23.48 6.78-47.67 10.2-71.85 10.2c-23.76 0-47.51-3.302-70.58-9.962l28.23-17.06l-48.19-103.3l-113-13.88l-7.39 32.46c-27.45-40.19-42.8-87.41-44.25-136.1l24.95 21.76l83.2-77.67L86.78 96.15L53.67 99.09c29.72-38.29 69.67-67.37 115.2-83.88l.3613 .2684L156.5 45.53l99.5 55.13l99.5-55.13L342.4 14.98c45.82 16.48 86 45.64 115.9 84.11L425.6 96.16L403.7 208.2l83.21 77.67L511.8 264zM357.3 217.4L255.1 144L154.7 217.4l38.82 118.6L318.8 336L357.3 217.4z"/></svg>