<svg xmlns="http://www.w3.org/2000/svg" viewBox="0 0 384 512"><!--! Font Awesome Pro 6.1.1 by @fontawesome - https://fontawesome.com License - https://fontawesome.com/license (Commercial License) Copyright 2022 Fonticons, Inc. --><defs><style>.fa-secondary{opacity:.4}</style></defs><path class="fa-primary" d="M288 80V192c0 17.6-14.4 32-32 32h-128c-17.67 0-32-14.33-32-32L96 80c0-8.837 7.163-16 16-16h159.1C280.8 64 288 71.16 288 80z"/><path class="fa-secondary" d="M336 0h-288c-26.4 0-48 21.6-48 48L.0001 416c0 52.8 43.2 96 96 96h192c53.02 0 95.1-42.98 96-96l.0001-368C384 21.6 362.4 0 336 0zM160 336c0 8.8-7.2 16-16 16h-16v16c0 8.8-7.2 16-15.1 16c-8.8 0-16-7.2-16-15.1L96 352H80c-8.8 0-15.1-7.2-15.1-16S71.2 320 80 320h15.1l0-16C96 295.2 103.2 288 112 288c8.8 0 15.1 7.2 15.1 16V320h16C152.8 320 160 327.2 160 336zM232 384c-13.25 0-24-10.75-24-24s10.75-24 24-24s24 10.75 24 24S245.3 384 232 384zM128 224c-17.67 0-32-14.33-32-32L96 80c0-8.837 7.163-16 16-16h159.1c8.837 0 16 7.163 16 16V192c0 17.6-14.4 32-32 32H128zM296 336c-13.25 0-24-10.75-24-24s10.75-24 24-24s24 10.75 24 24S309.3 336 296 336z"/></svg>