<svg xmlns="http://www.w3.org/2000/svg" viewBox="0 0 640 512"><!--! Font Awesome Pro 6.0.0-beta3 by @fontawesome - https://fontawesome.com License - https://fontawesome.com/license (Commercial License) Copyright 2021 Fonticons, Inc. --><defs><style>.fa-secondary{opacity:.4}</style></defs><path class="fa-primary" d="M240 95.1C256.9 95.1 271.7 104.7 280.3 117.9C257.3 135.7 241.9 162.1 240.2 193.1C212.5 201 192 226.1 192 255.1V479.1C192 491.7 195.1 502.6 200.6 511.1H48C21.49 511.1 0 490.5 0 463.1V143.1C0 117.5 21.49 95.1 48 95.1L240 95.1zM272 200C272 160.1 304.5 128 344.2 128C366.6 128 387.8 138.4 401.5 156.2L432 195.8L462.5 156.2C476.2 138.4 497.4 128 519.8 128C559.5 128 592 160.1 592 200C592 239.8 559.8 272 520 272H448V352H640V384H448V512H416V384H224V352H416V272H344C304.2 272 272 239.8 272 200H272zM363.5 185.5C358.9 179.5 351.7 176 344.2 176C330.8 176 320 186.9 320 200C320 213.3 330.7 224 344 224H393.1L363.5 185.5zM519.8 176C512.3 176 505.1 179.5 500.5 185.5L470.9 224H520C533.3 224 544 213.3 544 200C544 186.9 533.2 176 519.8 176H519.8z"/><path class="fa-secondary" d="M191.3 58.27L216.8 37.42C227.1 29.03 242.2 30.54 250.6 40.8C258.1 51.06 257.5 66.18 247.2 74.57L221 96H66.99L40.8 74.57C30.54 66.18 29.03 51.06 37.43 40.8C45.82 30.54 60.94 29.03 71.2 37.42L98.67 59.9L89.23 31.59C85.04 19.01 91.84 5.422 104.4 1.231C116.1-2.961 130.6 3.835 134.8 16.41L144.7 46.17L155.4 15.99C159.8 3.492 173.5-3.049 186 1.376C198.5 5.801 205 19.52 200.6 32.01L191.3 58.27zM640 272V352H448V272H520C551.4 272 578 251.1 587.9 224H592C618.5 224 640 245.5 640 272zM448 384H640V464C640 490.5 618.5 512 592 512H448V384zM416 384V512H272C245.5 512 224 490.5 224 464V384H416zM416 352H224V272C224 245.5 245.5 224 272 224H276.1C285.1 251.1 312.7 272 344 272H416V352z"/></svg>