<svg xmlns="http://www.w3.org/2000/svg" viewBox="0 0 512 512"><!--! Font Awesome Pro 6.1.1 by @fontawesome - https://fontawesome.com License - https://fontawesome.com/license (Commercial License) Copyright 2022 Fonticons, Inc. --><defs><style>.fa-secondary{opacity:.4}</style></defs><path class="fa-primary" d="M47.1 440H0v31.1h47.1c8.836 0 15.1-7.164 15.1-15.1C63.1 447.2 56.83 440 47.1 440zM63.1 392c0-8.838-7.164-15.1-15.1-15.1H0v31.1h47.1C56.83 408 63.1 400.8 63.1 392z"/><path class="fa-secondary" d="M508.6 46.33l-223.1 447.1C279.2 505.2 268.1 512 255.1 512H31.1C14.33 512 0 497.7 0 480v-7.999h47.1c8.836 0 15.1-7.164 15.1-15.1c0-8.837-7.164-15.1-15.1-15.1H0v-31.1h47.1c8.836 0 15.1-7.163 15.1-15.1c0-8.837-7.164-15.1-15.1-15.1H0v-23.1c0-17.67 14.35-32 32-32c3.288 0 6.592 .5055 9.792 1.534l221.1 71.36l187.6-375.2C456.1 6.491 468.3 0 480 0C496.7 0 512 13.37 512 32.04C512 36.85 510.9 41.73 508.6 46.33z"/></svg>