<svg xmlns="http://www.w3.org/2000/svg" viewBox="0 0 448 512"><!--! Font Awesome Pro 6.0.0-beta3 by @fontawesome - https://fontawesome.com License - https://fontawesome.com/license (Commercial License) Copyright 2021 Fonticons, Inc. --><defs><style>.fa-secondary{opacity:.4}</style></defs><path class="fa-primary" d="M192 176C192 202.5 170.5 224 144 224H48C21.49 224 0 202.5 0 176V80C0 53.49 21.49 32 48 32H144C170.5 32 192 53.49 192 80V176zM448 432C448 458.5 426.5 480 400 480H304C277.5 480 256 458.5 256 432V336C256 309.5 277.5 288 304 288H400C426.5 288 448 309.5 448 336V432z"/><path class="fa-secondary" d="M448 184C448 206.1 430.1 224 408 224H296C273.9 224 256 206.1 256 184V72C256 49.91 273.9 32 296 32H408C430.1 32 448 49.91 448 72V184zM192 440C192 462.1 174.1 480 152 480H40C17.91 480 0 462.1 0 440V328C0 305.9 17.91 288 40 288H152C174.1 288 192 305.9 192 328V440z"/></svg>