<svg xmlns="http://www.w3.org/2000/svg" viewBox="0 0 512 512"><!--! Font Awesome Pro 6.1.1 by @fontawesome - https://fontawesome.com License - https://fontawesome.com/license (Commercial License) Copyright 2022 Fonticons, Inc. --><defs><style>.fa-secondary{opacity:.4}</style></defs><path class="fa-primary" d="M128.1 330.4c-2.07-2.07-7.25-4.123-11.37 0l-11.25 11.25c-2.07 2.07-4.123 7.252 0 11.37l52.62 52.62c3.125 3.125 8.248 3.125 11.37 0l11.25-11.25c2.07-2.07 4.125-7.252 0-11.37L128.1 330.4zM511.2 39.56c-3.625-19.25-18.62-34.41-37.87-38.29c-22.87-4.25-22.75-.4588-106.6 53.66C357.6 60.81 351.1 70.93 351.1 81.93L351.1 115.1L243.7 223.3l44.74 45.62l173.1-172.9c.75 0 1.5 .3749 2.375 .3749c14.25 0 27.87-6.333 36.99-17.33C510.1 68.06 513.8 53.68 511.2 39.56zM192.1 266.4c-2.07-2.07-7.249-4.123-11.37 0L170.4 277.6c-2.07 2.07-4.123 7.25 0 11.37l52.62 52.62c3.123 3.125 8.248 3.125 11.37 0l11.25-11.25c2.07-2.07 4.123-7.251 0-11.37L192.1 266.4z"/><path class="fa-secondary" d="M243.7 223.3C236.1 211.9 234.8 197.3 240.6 184.8l17.25-37.12c3.875-8.25 1.25-18.12-6.249-23.37C244.1 119.1 233.1 120 227.5 126.4L189.1 164.8c-8.124 8.125-14.37 17.1-18.12 28.75c-7.124 19.62-21.62 35.62-40.62 44.37L53.99 273.3c-57.24 22.87-72.37 96.74-28.87 140.2l73.37 73.37c43.62 43.5 117.5 28.37 140.4-28.75l35.37-76.37c8.874-18.1 24.87-33.62 44.49-40.5c10.75-3.875 20.62-10.12 28.87-18.25l21.5-21.5c6.499-6.5 7.749-16.62 2.1-24.5c-4.874-7.875-14.37-11.37-23.12-8.499L325.2 276c-12.62 3.875-26.37 1.249-36.74-7.125L243.7 223.3zM181.6 394.4l-11.25 11.25c-3.125 3.125-8.249 3.125-11.37 0l-52.62-52.62c-4.123-4.124-2.07-9.304 0-11.37l11.25-11.25c4.123-4.124 9.303-2.07 11.37 0l52.62 52.62C185.7 387.1 183.7 392.3 181.6 394.4zM245.6 330.4l-11.25 11.25c-3.125 3.125-8.249 3.125-11.37 0L170.4 289c-4.123-4.124-2.07-9.304 0-11.37l11.25-11.25c4.123-4.124 9.304-2.07 11.37 0l52.62 52.62C249.7 323.1 247.7 328.3 245.6 330.4z"/></svg>