<svg xmlns="http://www.w3.org/2000/svg" viewBox="0 0 512 512"><!--! Font Awesome Pro 6.0.0-beta3 by @fontawesome - https://fontawesome.com License - https://fontawesome.com/license (Commercial License) Copyright 2021 Fonticons, Inc. --><defs><style>.fa-secondary{opacity:.4}</style></defs><path class="fa-primary" d="M381.1 56.16l46.67-46.78c12.47-12.51 32.75-12.5 45.24-.0106l29.65 29.65c12.49 12.49 12.5 32.73-.0097 45.2l-46.8 46.69c-3.755 3.746-8.295 6.512-13.33 8.184l-36.53 12.17L295.5 261.8C289.2 268 279.1 268 272.9 261.8L250.2 239.2C243.1 232.9 243.1 222.8 250.2 216.5l110.5-110.5l12.19-36.51C374.6 64.48 377.4 59.91 381.1 56.16z"/><path class="fa-secondary" d="M348.9 267.6c-3.375-14.62-10.4-27.99-19.14-40.11L295.5 261.8C289.2 268 279.1 268 272.9 261.8L250.2 239.2C243.1 232.9 243.1 222.8 250.2 216.5l34.27-34.27C272.4 173.5 259 166.5 244.4 163.1C211 155.4 177.4 162.3 154.5 185.1C145.3 194.5 138.3 206 134.3 218.6c-6 18.5-23.13 32.63-42.12 34.38C68.52 255.4 46.39 264.5 29.52 281.5c-45.62 45.5-37.37 127.5 18.12 183c55.37 55.38 137.4 63.51 182.9 18c16.1-16.88 26.25-38.85 28.5-62.72c1.752-18.75 15.84-36.16 34.47-42.16c12.5-3.875 24.03-10.88 33.4-20.25C349.8 334.5 356.6 301 348.9 267.6zM208 352c-26.5 .0039-47.1-21.5-48-48c.002-26.5 21.5-48 48-48c26.5-.002 48 21.5 47.1 48C256 330.5 234.5 352 208 352z"/></svg>