<svg xmlns="http://www.w3.org/2000/svg" viewBox="0 0 512 512"><!--! Font Awesome Pro 6.1.1 by @fontawesome - https://fontawesome.com License - https://fontawesome.com/license (Commercial License) Copyright 2022 Fonticons, Inc. --><defs><style>.fa-secondary{opacity:.4}</style></defs><path class="fa-primary" d="M145.3 0H110.8c-14.58 0-26.5 11.83-26.5 26.41v54.09c0 4.439 1.114 8.976 3.098 12.95l16.66 33.3L104.1 224c0 8.836 7.164 16 16 16h16c8.836 0 16-7.164 16-16L152 126.7l16.59-33.19c2.059-4.117 3.033-8.461 3.033-13.06V26.37C171.6 11.81 159.8 0 145.3 0zM358.1 151v91.63l48 .625V73.38c1.75-1.125 3.5-2.375 5.125-3.75c14.75-14.88 16-38.5 2.625-54.75c-13.25-16.12-36.63-19.62-54.13-8c-16.38 11.13-14 13.25-31.88 96.25c-1.875 9 .875 18.38 7.375 25L358.1 151zM423.1 368h-79.1c-4.375 0-7.1 3.625-7.1 8v16c0 4.375 3.625 8 7.1 8h79.1c4.375 0 7.1-3.625 7.1-8v-16C431.1 371.6 428.4 368 423.1 368zM423.1 303.9h-79.1c-4.375 0-7.1 3.625-7.1 8v16c0 4.375 3.625 8 7.1 8h79.1c4.375 0 7.1-3.625 7.1-8v-16C431.1 307.5 428.4 303.9 423.1 303.9z"/><path class="fa-secondary" d="M505.5 400.9l-26.1-73.5c-6.625-18.25-5.75-38.25 2.625-55.75c4.625-9.75 6.1-20.25 6.1-30.1V212.4c0-8.625-5.875-15.1-14.12-17.1s-16.87 1.875-20.75 9.5l-10.62 20.5c-5.373 10.38-15.37 17-26.62 19L351.1 242.5c-11.25-3-20.87-11-24.1-22.38l-12.1-35.75c-2.875-7.875-11.12-12.63-19.5-11.13c-8.375 1.375-14.37 8.625-14.37 17.13V240.8c0 10.75 2.375 21.25 6.1 30.87c8.25 17.5 9.125 37.63 2.5 55.88l-26.1 73.5C239.1 453.5 278.5 512 335.7 512l96.37-.0005C489.4 511.1 527.1 453.4 505.5 400.9zM431.1 392c0 4.375-3.625 8-7.1 8h-79.1c-4.375 0-7.1-3.625-7.1-8v-16c0-4.375 3.625-8 7.1-8h79.1c4.375 0 7.1 3.625 7.1 8V392zM431.1 327.9c0 4.375-3.625 8-7.1 8h-79.1c-4.375 0-7.1-3.625-7.1-8v-16c0-4.375 3.625-8 7.1-8h79.1c4.375 0 7.1 3.625 7.1 8V327.9zM229.3 300.2c5.5-10.62 8.333-22.37 8.458-34.25c0-29.13-16.1-54.92-43.25-71.17C181.8 186.8 166.1 182.9 152 181L152.1 224c0 8.837-7.163 16-16 16h-16c-8.837 0-16-7.163-16-16L104 180.1c-15 1.875-29.77 5.875-42.65 13.88C54.63 198.1 48.5 203.9 42.88 209.5c-15.37 15.38-24.62 34.1-24.62 56.62c0 11.88 2.875 23.62 8.375 34.12c7.998 15.62 5.998 35.62-4.875 48.75c-13.62 16.5-21.87 36.37-21.75 57.1c-.125 58 57.37 105 127.1 105c41.76 0 78.86-16.46 102.3-41.9l.1187-.6031c-9.251-26.12-8.375-54.75 2.375-80.37l10.25-27.75c-2.625-4.25-5.625-8.5-8.75-12.38C223.2 335.9 221.3 315.9 229.3 300.2zM156.2 332.3c-15.62 15.62-40.87 15.62-56.5 0s-15.62-40.88 0-56.5s40.87-15.62 56.5 0C171.9 291.4 171.9 316.6 156.2 332.3z"/></svg>