<svg xmlns="http://www.w3.org/2000/svg" viewBox="0 0 640 512"><!--! Font Awesome Pro 6.0.0-beta3 by @fontawesome - https://fontawesome.com License - https://fontawesome.com/license (Commercial License) Copyright 2021 Fonticons, Inc. --><defs><style>.fa-secondary{opacity:.4}</style></defs><path class="fa-primary" d="M634.9 502.8c-8.125 10.41-23.19 12.28-33.69 4.078L9.189 42.89c-10.44-8.172-12.25-23.27-4.062-33.7C9.846 3.156 16.91 0 24.03 0c5.156 0 10.38 1.672 14.78 5.109l591.1 463.1C641.2 477.3 643.1 492.4 634.9 502.8z"/><path class="fa-secondary" d="M32 196.8C32 220.7 51.33 240 75.17 240c21.26 0 36.61 20.35 30.77 40.79l-40.69 158.4C59.41 459.6 74.76 480 96.02 480h103.8c14.29 0 26.84-9.469 30.77-23.21L258.4 352h67.39L32 121.8V196.8zM576 64h-16V56C560 42.74 549.3 32 536 32S512 42.74 512 56V64H113.1l81.66 64H512v32H236.4l102.1 80h41.52l-8.6 25.8l40.13 31.45L430.6 240h36.1c8.486 0 16.62-3.369 22.63-9.373L512 208h64c17.67 0 32-14.33 32-32V96C608 78.33 593.7 64 576 64z"/></svg>