<svg xmlns="http://www.w3.org/2000/svg" viewBox="0 0 384 512"><!--! Font Awesome Pro 6.0.0-beta3 by @fontawesome - https://fontawesome.com License - https://fontawesome.com/license (Commercial License) Copyright 2021 Fonticons, Inc. --><defs><style>.fa-secondary{opacity:.4}</style></defs><path class="fa-primary" d="M384 64v192c0 19.75-17.75 34.75-37.25 31.5l-154.8-25.75L37.25 287.5C17.75 290.8 .0001 275.8 .0001 256V64c0-19.75 17.75-34.75 37.25-31.5l154.8 25.75l154.7-25.75C366.3 29.25 384 44.25 384 64z"/><path class="fa-secondary" d="M224 267.1L224 496c0 8.836-7.164 16-16 16h-32c-8.836 0-16-7.164-16-16l0-228.9l31.1-5.324L224 267.1zM192 58.25l31.1-5.35V16c0-8.836-7.164-16-16-16h-32c-8.836 0-16 7.164-16 16v36.9L192 58.25z"/></svg>