<svg xmlns="http://www.w3.org/2000/svg" viewBox="0 0 576 512"><!--! Font Awesome Pro 6.0.0-beta3 by @fontawesome - https://fontawesome.com License - https://fontawesome.com/license (Commercial License) Copyright 2021 Fonticons, Inc. --><defs><style>.fa-secondary{opacity:.4}</style></defs><path class="fa-primary" d="M255.1 160v96C255.1 273.6 270.4 288 287.1 288s32-14.4 32-31.1L319.1 160c0-88.37-71.63-160-160-160H95.97C95.97 88.38 167.6 160 255.1 160z"/><path class="fa-secondary" d="M568.2 336.3c-13.12-17.81-38.14-21.66-55.93-8.469l-119.7 88.17h-120.6c-8.748 0-15.1-7.25-15.1-15.99c0-8.75 7.25-16 15.1-16h78.25c15.1 0 30.75-10.88 33.37-26.62c3.25-20-12.12-37.38-31.62-37.38H191.1c-26.1 0-53.12 9.25-74.12 26.25l-46.5 37.74L15.1 383.1c-8.748 0-15.1 7.274-15.1 16.02L.0001 496C.0001 504.8 7.251 512 15.1 512h346.1c22.03 0 43.92-7.188 61.7-20.27l135.1-99.52C577.5 379.1 581.3 354.1 568.2 336.3zM319.1 160c88.38 0 160-71.63 160-160h-64c-52.6 0-98.84 25.71-127.1 64.89C307.8 91.54 319.1 124.2 319.1 160z"/></svg>