<svg xmlns="http://www.w3.org/2000/svg" viewBox="0 0 512 512"><!--! Font Awesome Pro 6.0.0-beta3 by @fontawesome - https://fontawesome.com License - https://fontawesome.com/license (Commercial License) Copyright 2021 Fonticons, Inc. --><defs><style>.fa-secondary{opacity:.4}</style></defs><path class="fa-primary" d="M304 448c-9.6 0-16-6.4-16-16c0-44.8-35.2-80-80-80C198.4 352 192 345.6 192 336S198.4 320 208 320h160c9.6 0 16 6.4 16 16S377.6 352 368 352h-83.2C307.2 374.4 320 403.2 320 432C320 441.6 313.6 448 304 448z"/><path class="fa-secondary" d="M448 96c-17.67 0-32 14.33-32 32v112C416 248.8 408.8 256 400 256s-15.93-7.164-15.93-16L384 64c0-17.67-14.33-32-32-32s-32 14.33-32 32l.0498 176c0 8.836-7.219 16-16.05 16S288 248.8 288 240L288 32c0-17.67-14.33-32-32-32S224 14.33 224 32l.0729 208C224.1 248.8 216.8 256 208 256S192.1 248.8 192.1 240L192 64c0-17.67-14.33-32-32-32S128 46.33 128 64v279.4L68.28 283.7C60.47 275.9 50.23 272 40 272C17.15 272 0 290.7 0 312c0 10.23 3.906 20.47 11.72 28.28l113.1 113.1C162.6 491.2 212.9 512 266.3 512H304c97.05 0 176-78.95 176-176V128C480 110.3 465.7 96 448 96zM368 352h-83.2C307.2 374.4 320 403.2 320 432c0 9.6-6.4 16-16 16S288 441.6 288 432c0-44.8-35.2-80-80-80C198.4 352 192 345.6 192 336S198.4 320 208 320h160c9.6 0 16 6.4 16 16S377.6 352 368 352z"/></svg>