<svg xmlns="http://www.w3.org/2000/svg" viewBox="0 0 640 512"><!--! Font Awesome Pro 6.1.1 by @fontawesome - https://fontawesome.com License - https://fontawesome.com/license (Commercial License) Copyright 2022 Fonticons, Inc. --><defs><style>.fa-secondary{opacity:.4}</style></defs><path class="fa-primary" d="M483.9 338.7c13.68 11.1 15.78 31.17 4.701 44.86L479 395.4c-11.12 13.74-31.25 15.74-45 4.748l-5.374-4.498l-31.38 38.6c-13 15.85-36.5 18.35-52.38 5.369L327 424.2c-22.25 27.35-62.75 31.84-90.25 9.487l-90.5-81.82l-114.3 .0604C14.4 351.9 0 337.4 0 319.8V160.1c0-17.59 14.4-31.98 32-31.98l96 .1254C168.6 87.76 223.6 64.38 280.9 64l46.31 8.568L217 163.6c-20.25 17.11-22.77 47.4-5.641 67.6C220.9 242.4 234.4 248.2 248 248.2c10.94 0 21.95-3.716 30.97-11.33L318.6 203.4L483.9 338.7z"/><path class="fa-secondary" d="M608 128.1l-128 .1257c-40.98-40.93-64.56-64.13-122.5-64.13c-10.49 0-19.98-.7132-30.24 8.467L217 163.6c-20.25 17.11-22.77 47.4-5.641 67.6C220.9 242.4 234.4 248.2 248 248.2c10.94 0 21.95-3.716 30.97-11.33L318.6 203.4l165.3 135.4c4.361 3.54 7.092 8.151 9.047 13.01L608 351.7c17.6 0 32-14.4 32-31.98V160.1C640 142.4 625.7 128.1 608 128.1z"/></svg>