<svg xmlns="http://www.w3.org/2000/svg" viewBox="0 0 640 512"><!--! Font Awesome Pro 6.0.0-beta3 by @fontawesome - https://fontawesome.com License - https://fontawesome.com/license (Commercial License) Copyright 2021 Fonticons, Inc. --><defs><style>.fa-secondary{opacity:.4}</style></defs><path class="fa-primary" d="M38.81 5.109C34.41 1.672 29.19 0 24.03 0C16.91 0 9.846 3.156 5.127 9.187C-3.06 19.62-1.248 34.72 9.19 42.89l591.1 463.1c10.5 8.203 25.56 6.328 33.69-4.078c8.188-10.44 6.375-25.53-4.062-33.7L38.81 5.109z"/><path class="fa-secondary" d="M.0005 128.2v255.7l63.1 .0446c17.75 0 32-14.28 32-32.03L96 171.9l-55.77-43.71H.0005zM64 336c0 8.742-7.25 15.99-15.1 15.99s-15.1-7.251-15.1-15.99c0-8.875 7.25-15.1 15.1-15.1S64 327.2 64 336zM543.1 128.2l.0002 223.8c0 17.62 14.25 31.99 31.1 31.99h64V128.1L543.1 128.2zM591.1 352c-8.75 0-16-7.251-16-15.99c0-8.875 7.25-15.1 16-15.1s15.1 7.122 15.1 15.1C607.1 344.8 600.7 352 591.1 352zM289.1 64L282.5 64c-43.47 0-85.16 13.68-120.8 37.45l46.53 36.47L289.1 64zM348.8 64c-7.941 0-15.64 2.97-21.5 8.329L233.7 157.9L297.5 207.9l65.33-59.79c6.5-5.871 16.75-5.496 22.62 1c6 6.496 5.5 16.62-1 22.62l-26.12 23.87l145.6 118.1c2.875 2.496 5.5 4.996 7.875 7.742V127.1c-40.98-40.96-96.52-63.98-154.5-63.98H348.8zM128 351.8h18.25l90.5 81.85c27.5 22.37 67.75 18.12 89.1-9.25l18.12 15.25c15.88 12.1 39.37 10.5 52.37-5.371l13.02-16.03L128 196.1V351.8z"/></svg>