<svg xmlns="http://www.w3.org/2000/svg" viewBox="0 0 640 512"><!--! Font Awesome Pro 6.1.1 by @fontawesome - https://fontawesome.com License - https://fontawesome.com/license (Commercial License) Copyright 2022 Fonticons, Inc. --><defs><style>.fa-secondary{opacity:.4}</style></defs><path class="fa-primary" d="M160 280c0 22.06 17.94 40 40 40c13.38 0 25.81-6.656 33.28-17.81C243.1 287.5 263 283.6 277.7 293.4c14.67 9.844 18.61 29.72 8.781 44.41c-17.97 26.83-47.26 43.89-79.13 46.18L107.4 384C48.1 384 0 335.9 0 276.6c0-24.1 5.082-47.94 14.92-69.94l84.02-188C106.4 2.525 125.4-4.412 141.4 2.947c16.05 7.406 23.05 26.42 15.66 42.47l-22.33 48.39l100.4-86.09c13.39-11.52 33.61-9.953 45.13 3.469c11.5 13.42 9.953 33.62-3.469 45.12l-80.82 69.28l99.2-28.34c17-4.889 34.72 4.984 39.56 21.97c4.859 17-4.984 34.7-21.97 39.56L233.1 181.5C262.8 191.6 287.2 214.7 298.1 245.3c5.891 16.67-2.844 34.95-19.5 40.84c-16.67 5.891-34.95-2.844-40.84-19.5C232.1 250.7 216.9 240 200 240C177.9 240 160 257.9 160 280z"/><path class="fa-secondary" d="M532.6 128l-99.9 .004c-31.87 2.289-61.15 19.35-79.13 46.18c-9.828 14.69-5.891 34.56 8.781 44.41c14.66 9.812 34.55 5.906 44.41-8.781C414.2 198.7 426.6 191.1 440 191.1c22.06 0 40 17.94 40 40c0 22.06-17.94 39.1-40 39.1c-16.94 0-32.09-10.72-37.73-26.67c-5.891-16.66-24.17-25.39-40.84-19.5c-16.66 5.891-25.39 24.17-19.5 40.84c10.84 30.64 35.23 53.77 64.96 63.8l-79.68 22.76c-16.98 4.859-26.83 22.56-21.97 39.56c4.844 16.98 22.56 26.86 39.56 21.97l99.2-28.34l-80.82 69.28c-13.42 11.5-14.97 31.7-3.469 45.12c11.52 13.42 31.73 14.98 45.13 3.469l100.4-86.09l-22.33 48.39c-7.391 16.05-.3906 35.06 15.66 42.47c16.02 7.359 35.05 .4219 42.47-15.65l84.02-188C634.9 283.4 640 259.5 640 235.4C640 176.1 591.9 128 532.6 128z"/></svg>