<svg xmlns="http://www.w3.org/2000/svg" viewBox="0 0 640 512"><!--! Font Awesome Pro 6.1.1 by @fontawesome - https://fontawesome.com License - https://fontawesome.com/license (Commercial License) Copyright 2022 Fonticons, Inc. --><defs><style>.fa-secondary{opacity:.4}</style></defs><path class="fa-primary" d="M390.1 175.9c8.688-50.05-38.89-63.66-64.42-70.95L320.4 103.1C294.1 95.64 295.6 92.42 296.3 88.31c1.156-6.766 15.3-10.06 32.21-7.391c4.938 .7813 11.37 2.547 19.65 5.422c12.53 4.281 26.21-2.312 30.52-14.84s-2.309-26.19-14.84-30.53c-7.602-2.627-13.92-4.358-19.82-5.721V24c0-13.25-10.75-24-23.1-24s-23.99 10.75-23.99 24v10.52C270.8 40.23 253.1 56.25 248.1 80.13C240.4 129.6 288.6 143.8 306.9 149.2l6.498 1.875c31.66 9.062 31.15 11.89 30.34 16.64c-1.156 6.766-15.24 10.06-32.37 7.359C303.6 173.9 293.7 170.3 284.9 167.1L280 165.4C267.5 160.1 253.8 167.5 249.4 179.1S251.5 206.2 263.1 210.6l4.655 1.656c8.484 3.061 17.88 6.095 27.39 8.312V232c0 13.25 10.74 24 23.99 24s23.1-10.75 23.1-24V221.6C369.3 215.9 386.9 199.7 390.1 175.9z"/><path class="fa-secondary" d="M216.1 236c-11.03-13.75-31.2-16.03-44.97-5c-13.81 11.06-16.05 31.19-5 45l18.86 30.56c8.9 11.13 8.008 27.17-2.068 37.24c-11.79 11.79-31.2 10.71-41.61-2.305L80 256.8V104c0-22.09-17.91-39.1-40-39.1S0 81.91 0 104v204.7c0 14.54 4.949 28.65 14.03 40L135 500C141.1 507.6 150.3 512 159.1 512H256c17.67 0 32.03-14.35 32.03-32.02L288 358.4c0-21.79-7.414-42.92-21.02-59.94L216.1 236zM600 64.01c-22.09 0-40 17.9-40 39.1v152.8l-62.2 84.73c-10.41 13.02-29.83 14.09-41.61 2.305c-10.08-10.07-10.97-26.11-2.068-37.24l18.86-30.56c11.05-13.81 8.812-33.94-5-45c-13.77-11.03-33.94-8.75-44.97 5l-49.99 62.5C359.4 315.5 352 336.7 352 358.4l-.0313 121.5C351.1 497.7 366.3 512 384 512h96.02c9.713 0 18.9-4.414 24.96-12l120.1-151.2C635.1 337.4 640 323.3 640 308.8V104C640 81.91 622.1 64.01 600 64.01z"/></svg>