<svg xmlns="http://www.w3.org/2000/svg" viewBox="0 0 640 512"><!--! Font Awesome Pro 6.1.1 by @fontawesome - https://fontawesome.com License - https://fontawesome.com/license (Commercial License) Copyright 2022 Fonticons, Inc. --><defs><style>.fa-secondary{opacity:.4}</style></defs><path class="fa-primary" d="M438.8 105.7l-96.38-96.43c-12.38-12.37-32.38-12.37-44.75 0L201.3 105.8c-12.5 12.25-12.5 32.31 0 44.55l96.38 96.37c12.25 12.37 32.37 12.37 44.63 0l96.5-96.37C451.1 138 451.1 118.1 438.8 105.7z"/><path class="fa-secondary" d="M216.1 236C205.1 222.3 185.8 219.1 172 231c-13.81 11.06-16.05 31.19-5 44.1l18.86 30.56c8.898 11.13 8.008 27.17-2.07 37.24c-11.78 11.79-31.2 10.71-41.61-2.305L80 256.8v-152.8c0-22.09-17.91-39.1-40-39.1S0 81.93 0 104v204.7c0 14.54 4.949 28.65 14.03 40l120.1 151.2C141.1 507.6 150.3 512 159.1 512H256c17.67 0 32.03-14.37 32.03-32.04L288 358.4c0-21.79-7.414-42.92-21.02-59.93L216.1 236zM600 64.03c-22.09 0-40 17.91-40 39.1v152.8l-62.2 84.73c-10.41 13.01-29.83 14.09-41.61 2.305c-10.08-10.07-10.97-26.11-2.07-37.24l18.86-30.56c11.05-13.81 8.812-33.94-5-44.1c-13.77-11.03-33.94-8.749-44.97 4.1l-49.99 62.5C359.4 315.5 352 336.7 352 358.4l-.0313 121.5C351.1 497.6 366.3 512 384 512h96.02c9.715 0 18.9-4.424 24.96-12.01l120.1-151.2C635.1 337.4 640 323.3 640 308.8V104C640 81.93 622.1 64.03 600 64.03z"/></svg>