<svg xmlns="http://www.w3.org/2000/svg" viewBox="0 0 640 512"><!--! Font Awesome Pro 6.1.1 by @fontawesome - https://fontawesome.com License - https://fontawesome.com/license (Commercial License) Copyright 2022 Fonticons, Inc. --><defs><style>.fa-secondary{opacity:.4}</style></defs><path class="fa-primary" d="M416 168c0-4.375-3.625-8.061-8-8.061L392 160C387.6 160 384 163.6 384 168V288h32V168zM480 168c0-4.375-3.625-8.061-8-8.061L456 160C451.6 160 448 163.6 448 168V288h32V168zM544 168c0-4.375-3.625-8.061-8-8.061L520 160C515.6 160 512 163.6 512 168V288h32V168zM192 168C192 163.6 188.4 160 184 160L167.1 159.9C163.6 159.9 160 163.6 160 168V288h32V168zM624 160h-31.98c-8.836 0-16.03 7.182-16.03 16.02L576 288c0 17.6-14.4 32-32 32h-192V128c0-8.836-7.152-16.01-15.99-16.01H303.1C295.2 111.1 288 119.2 288 128v192H96c-17.6 0-32-14.4-32-32l.0065-112C64.01 167.2 56.85 160 48.02 160H16C7.164 160 0 167.2 0 176V288c0 53.02 42.98 96 96 96h192v64H144C117.5 448 96 469.5 96 496C96 504.8 103.2 512 112 512h416c8.836 0 16-7.164 16-16c0-26.51-21.49-48-48-48H352v-64h192c53.02 0 96-42.98 96-96V176C640 167.2 632.8 160 624 160zM128 168C128 163.6 124.4 160 120 160L103.1 159.9C99.62 159.9 96 163.6 96 168V288h32V168zM256 168C256 163.6 252.4 160 248 160L231.1 159.9C227.6 159.9 224 163.6 224 168V288h32V168z"/><path class="fa-secondary" d="M608 48c0 0-24 38.63-24 53.38c0 14.62 10.75 26.56 23.1 26.56S632 116 632 101.4C632 86.63 608 48 608 48zM8 101.4C8 116 18.75 127.9 31.1 127.9S56 116 56 101.4C56 86.63 32 48 32 48S8 86.63 8 101.4zM296 53.38C296 68 306.7 79.94 319.1 79.94S344 68 344 53.38C344 38.63 320 0 320 0S296 38.63 296 53.38zM88 101.4C88 116 98.75 128 112 128s24-12 24-26.62C136 86.63 112 48 112 48S88 86.63 88 101.4zM152 101.4C152 116 162.8 128 176 128s24-12 24-26.62C200 86.63 176 48 176 48S152 86.63 152 101.4zM216 101.4C216 116 226.8 128 240 128s24-12 24-26.62C264 86.63 240 48 240 48S216 86.63 216 101.4zM376 101.4C376 116 386.8 128 400 128s24-12 24-26.62C424 86.63 400 48 400 48S376 86.63 376 101.4zM440 101.4C440 116 450.8 128 464 128s24-12 24-26.62C488 86.63 464 48 464 48S440 86.63 440 101.4zM504 101.4C504 116 514.8 128 528 128s24-12 24-26.62C552 86.63 528 48 528 48S504 86.63 504 101.4z"/></svg>