<svg xmlns="http://www.w3.org/2000/svg" viewBox="0 0 512 512"><!--! Font Awesome Pro 6.1.1 by @fontawesome - https://fontawesome.com License - https://fontawesome.com/license (Commercial License) Copyright 2022 Fonticons, Inc. --><defs><style>.fa-secondary{opacity:.4}</style></defs><path class="fa-primary" d="M207.1 240c-17.63 0-32-14.38-32-32s14.38-32 32-32c17.63 0 32 14.38 32 32S225.6 240 207.1 240zM256 107.2V0H192c-10.93 0-21.57 1.122-32 2.88v104.4C122.3 125.2 95.1 163.4 95.1 208c0 61.88 50.13 112 112 112S320 269.9 320 208C320 163.4 293.8 125.2 256 107.2zM208 272c-35.3 0-64-28.7-64-64c0-35.3 28.7-64 64-64s64 28.7 64 64C272 243.3 243.3 272 208 272z"/><path class="fa-secondary" d="M506.8 305.4C500.9 314.5 490.9 320 479.1 320h-31.1v64C447.1 419.4 419.4 448 384 448h-63.99l-.003 64H64l.0068-177.2C23.26 298.4 0 246.5 0 192c0-95.07 69.25-173.8 160-189.1v104.4C122.3 125.2 95.1 163.4 95.1 208c0 61.88 50.13 112 112 112S320 269.9 320 208c0-44.63-26.25-82.75-63.1-100.8V0h10.13c67.63 0 130.1 32.87 169.1 88.25c24.63 35 52.12 139.6 73.12 186.8C513.6 284.9 512.8 296.4 506.8 305.4z"/></svg>