<svg xmlns="http://www.w3.org/2000/svg" viewBox="0 0 448 512"><!--! Font Awesome Pro 6.0.0-beta3 by @fontawesome - https://fontawesome.com License - https://fontawesome.com/license (Commercial License) Copyright 2021 Fonticons, Inc. --><defs><style>.fa-secondary{opacity:.4}</style></defs><path class="fa-primary" d="M104.2 256.3c36.33 39.81 55.84 92.15 55.84 146l.0001 38.76C160 465.8 145.7 480 127.1 480s-31.1-14.33-32-31.1l0-45.63c0-38.2-13.1-75.12-39.59-103.5C20.09 258.7 0 206.5 0 152.2L0 127.1C0 110.3 14.33 96 32 96S64 110.3 64 127.1V152.2C63.87 190.8 78.2 227.9 104.2 256.3zM391.7 255.8c-25.63-28.39-39.69-65.32-39.69-103.6l-.0001-24.25C352 110.3 337.7 96 320 96S288 110.3 288 127.1l.0001 24.25c.0001 53.86 19.49 106.1 55.77 145.9C369.7 326.7 384.1 363.9 384 402.4v45.63C384 465.7 398.3 480 415.1 480C433.7 480 448 465.7 448 448v-45.63C448 348.3 427.9 295.9 391.7 255.8z"/><path class="fa-secondary" d="M248.2 256.3c36.33 39.81 55.84 92.15 55.84 146l.0001 38.76C304 465.8 289.7 480 272 480s-32-14.33-32-31.1l0-45.63c-.0001-38.2-13.1-75.12-39.59-103.5C164.1 258.7 144 206.5 144 152.2L144 63.1C144 46.33 158.3 32 176 32s32 14.33 32 31.1V152.2C207.9 190.8 222.2 227.9 248.2 256.3z"/></svg>