<svg xmlns="http://www.w3.org/2000/svg" viewBox="0 0 512 512"><!--! Font Awesome Pro 6.1.1 by @fontawesome - https://fontawesome.com License - https://fontawesome.com/license (Commercial License) Copyright 2022 Fonticons, Inc. --><defs><style>.fa-secondary{opacity:.4}</style></defs><path class="fa-primary" d="M109.9 160.9C117.4 159.4 124.9 163.5 127.8 170.6L160.9 253.5V176.6C160.9 167.7 168.1 160.6 176.9 160.6C185.8 160.6 192.9 167.7 192.9 176.6V336.6C192.9 344.2 187.5 350.8 179.9 352.3C172.4 353.7 164.9 349.6 162.1 342.5L128.9 259.7V336.6C128.9 345.4 121.8 352.6 112.9 352.6C104.1 352.6 96.92 345.4 96.92 336.6V176.6C96.92 168.9 102.4 162.3 109.9 160.9V160.9zM224.9 176.6C224.9 167.7 232.1 160.6 240.9 160.6H288.9C297.8 160.6 304.9 167.7 304.9 176.6C304.9 185.4 297.8 192.6 288.9 192.6H256.9V240.6H288.9C297.8 240.6 304.9 247.7 304.9 256.6C304.9 265.4 297.8 272.6 288.9 272.6H256.9V336.6C256.9 345.4 249.8 352.6 240.9 352.6C232.1 352.6 224.9 345.4 224.9 336.6V176.6zM400.9 160.6C409.8 160.6 416.9 167.7 416.9 176.6C416.9 185.4 409.8 192.6 400.9 192.6H384.9V336.6C384.9 345.4 377.8 352.6 368.9 352.6C360.1 352.6 352.9 345.4 352.9 336.6V192.6H336.9C328.1 192.6 320.9 185.4 320.9 176.6C320.9 167.7 328.1 160.6 336.9 160.6H400.9z"/><path class="fa-secondary" d="M220.9 17.65C243.2 4.785 270.6 4.785 292.9 17.65L445.8 105.9C468.1 118.8 481.8 142.6 481.8 168.3V344.9C481.8 370.6 468.1 394.4 445.8 407.2L292.9 495.5C270.6 508.4 243.2 508.4 220.9 495.5L68 407.2C45.72 394.4 32 370.6 32 344.9V168.3C32 142.6 45.72 118.8 68 105.9L220.9 17.65zM127.8 170.6C124.9 163.5 117.4 159.4 109.9 160.9C102.4 162.3 96.92 168.9 96.92 176.6V336.6C96.92 345.4 104.1 352.6 112.9 352.6C121.8 352.6 128.9 345.4 128.9 336.6V259.7L162.1 342.5C164.9 349.6 172.4 353.7 179.9 352.3C187.5 350.8 192.9 344.2 192.9 336.6V176.6C192.9 167.7 185.8 160.6 176.9 160.6C168.1 160.6 160.9 167.7 160.9 176.6V253.5L127.8 170.6zM224.9 336.6C224.9 345.4 232.1 352.6 240.9 352.6C249.8 352.6 256.9 345.4 256.9 336.6V272.6H288.9C297.8 272.6 304.9 265.4 304.9 256.6C304.9 247.7 297.8 240.6 288.9 240.6H256.9V192.6H288.9C297.8 192.6 304.9 185.4 304.9 176.6C304.9 167.7 297.8 160.6 288.9 160.6H240.9C232.1 160.6 224.9 167.7 224.9 176.6V336.6zM336.9 160.6C328.1 160.6 320.9 167.7 320.9 176.6C320.9 185.4 328.1 192.6 336.9 192.6H352.9V336.6C352.9 345.4 360.1 352.6 368.9 352.6C377.8 352.6 384.9 345.4 384.9 336.6V192.6H400.9C409.8 192.6 416.9 185.4 416.9 176.6C416.9 167.7 409.8 160.6 400.9 160.6H336.9z"/></svg>