<svg xmlns="http://www.w3.org/2000/svg" viewBox="0 0 576 512"><!--! Font Awesome Pro 6.1.1 by @fontawesome - https://fontawesome.com License - https://fontawesome.com/license (Commercial License) Copyright 2022 Fonticons, Inc. --><defs><style>.fa-secondary{opacity:.4}</style></defs><path class="fa-primary" d="M360.7 360.7L183.3 183.3L420.6 8.398C428 2.943 436.1 0 446.2 0C457.6 0 468.5 4.539 476.6 12.62L531.4 67.38C539.5 75.46 543.1 86.42 543.1 97.84C543.1 107 541.1 115.1 535.6 123.4L360.7 360.7zM140.7 473.9L109.7 504.1C105.2 509.5 99.05 512 92.69 512H24C10.75 512 0 501.3 0 488V483.3C0 476.1 2.529 470.8 7.029 466.3L70.06 403.3L140.7 473.9z"/><path class="fa-secondary" d="M183.3 183.3L360.7 360.7L334.4 396.5C325.3 408.8 310.1 416 295.7 416H223.1L198.6 441.4C186.1 453.9 165.9 453.9 153.4 441.4L102.6 390.6C90.13 378.1 90.13 357.9 102.6 345.4L127.1 320L127.1 248.3C127.1 233 135.2 218.7 147.5 209.6L183.3 183.3zM552 464C565.3 464 576 474.7 576 488C576 501.3 565.3 512 552 512H223.1C210.7 512 199.1 501.3 199.1 488C199.1 474.7 210.7 464 223.1 464H552z"/></svg>