<svg xmlns="http://www.w3.org/2000/svg" viewBox="0 0 512 512"><!--! Font Awesome Pro 6.1.1 by @fontawesome - https://fontawesome.com License - https://fontawesome.com/license (Commercial License) Copyright 2022 Fonticons, Inc. --><defs><style>.fa-secondary{opacity:.4}</style></defs><path class="fa-primary" d="M178.3 294.7C176.5 290.7 171.7 288.9 167.7 290.7c-.8594 .3887-1.649 .9107-2.321 1.571l-12.11 12.11c-2.52 2.412-3.136 6.211-1.566 9.327c20.21 39.84 59.74 66.2 104.3 69.58v.7399l10.66-31.96l-.9559 .0189C227.8 351.1 193.4 329.5 178.3 294.7zM328.1 176c-13.22-.0332-23.97 10.7-24 23.92c-.0352 13.22 10.74 23.97 23.96 24c13.22 0 23.98-10.72 23.98-23.94S341.3 176 328.1 176z"/><path class="fa-secondary" d="M509.8 332.5l-69.89-164.3c-14.87-40.96-50.21-71.08-93.01-79.24c18-10.6 46.33-35.88 34.23-82.29c-1.47-4.916-6.659-7.738-11.57-6.269L166.9 76.22C35.89 123.3 0 238.8 0 398.8v81.24C0 497.7 14.33 512 32 512h236.2c17.67-.015 31.96-14.36 31.95-32.03c-.0042-4.955-1.183-9.817-3.397-14.25l-40.78-81.71V383.3c-44.55-3.371-84.08-29.73-104.3-69.58C150.2 310.6 150.8 306.8 153.3 304.4l12.11-12.11C168.6 289.2 173.6 289.2 176.7 292.4c.6597 .6723 1.182 1.471 1.574 2.328c15.14 34.8 49.48 57.33 87.42 57.38c17.2 0 32.1-5.116 46.8-13.22l46 63.9c6.006 8.378 15.69 13.37 26 13.34h50.28c8.484-.0035 16.63-3.374 22.61-9.389l45.34-39.84C511.6 357.8 514.4 344.3 509.8 332.5zM328.1 223.1c-13.22-.0332-23.99-10.78-23.96-24c.0331-13.22 10.78-23.96 24-23.92c13.22 .0331 23.97 10.76 23.94 23.98C352 213.2 341.2 223.9 328.1 223.1z"/></svg>