<svg xmlns="http://www.w3.org/2000/svg" viewBox="0 0 576 512"><!--! Font Awesome Pro 6.1.1 by @fontawesome - https://fontawesome.com License - https://fontawesome.com/license (Commercial License) Copyright 2022 Fonticons, Inc. --><defs><style>.fa-secondary{opacity:.4}</style></defs><path class="fa-primary" d="M608 376c0 13.25-10.75 24-24 24h-2.271l-11.46 80.16C578 481.2 584 487.9 584 496c0 8.832-7.168 16-16 16h-48c-8.832 0-16-7.168-16-16c0-8.064 5.984-14.75 13.73-15.84L506.3 400H504c-13.25 0-24-10.75-24-24S490.8 352 504 352h80C597.2 352 608 362.8 608 376z"/><path class="fa-secondary" d="M320 0C178.6 0 64 114.6 64 256s114.6 256 256 256c54.34 0 104.8-16.96 146.3-45.92c14.5-10.08 18.05-30.05 7.936-44.54s-30.05-18.05-44.54-7.936C398.6 435.3 360.8 448 320 448c-106 0-192-85.95-192-192s85.95-192 192-192s192 85.95 192 192v96h64V256C576 114.6 461.4 0 320 0zM320 192C284.6 192 256 220.6 256 256s28.64 64 64 64s64-28.64 64-64S355.4 192 320 192zM320 96C231.6 96 160 167.6 160 256s71.65 160 160 160s160-71.65 160-160S408.4 96 320 96zM320 352c-53.02 0-96-42.98-96-96s42.98-96 96-96s96 42.98 96 96S373 352 320 352z"/></svg>