<svg xmlns="http://www.w3.org/2000/svg" viewBox="0 0 576 512"><!--! Font Awesome Pro 6.1.1 by @fontawesome - https://fontawesome.com License - https://fontawesome.com/license (Commercial License) Copyright 2022 Fonticons, Inc. --><defs><style>.fa-secondary{opacity:.4}</style></defs><path class="fa-primary" d="M240 64C266.5 64 288 85.49 288 112V464C288 490.5 266.5 512 240 512H48C21.49 512 0 490.5 0 464V448H144C152.8 448 160 440.8 160 432C160 423.2 152.8 416 144 416H0V352H144C152.8 352 160 344.8 160 336C160 327.2 152.8 320 144 320H0V112C0 85.49 21.49 64 48 64H240zM136 128C127.2 128 120 135.2 120 144V168H96C87.16 168 80 175.2 80 184V200C80 208.8 87.16 216 96 216H120V240C120 248.8 127.2 256 136 256H152C160.8 256 168 248.8 168 240V216H192C200.8 216 208 208.8 208 200V184C208 175.2 200.8 168 192 168H168V144C168 135.2 160.8 128 152 128H136zM408 80C408 71.16 415.2 64 424 64H440C448.8 64 456 71.16 456 80V104H480C488.8 104 496 111.2 496 120V136C496 144.8 488.8 152 480 152H456V176C456 184.8 448.8 192 440 192H424C415.2 192 408 184.8 408 176V152H384C375.2 152 368 144.8 368 136V120C368 111.2 375.2 104 384 104H408V80z"/><path class="fa-secondary" d="M320 96C320 61.56 292.8 33.48 258.7 32.06C265.3 13.38 283.1 0 304 0H528C554.5 0 576 21.49 576 48V464C576 490.5 554.5 512 528 512H311.4C316.9 502.6 320 491.7 320 480L320 96zM424 64C415.2 64 408 71.16 408 80V104H384C375.2 104 368 111.2 368 120V136C368 144.8 375.2 152 384 152H408V176C408 184.8 415.2 192 424 192H440C448.8 192 456 184.8 456 176V152H480C488.8 152 496 144.8 496 136V120C496 111.2 488.8 104 480 104H456V80C456 71.16 448.8 64 440 64H424zM576 256H432C423.2 256 416 263.2 416 272C416 280.8 423.2 288 432 288H576V256zM576 352H432C423.2 352 416 359.2 416 368C416 376.8 423.2 384 432 384H576V352z"/></svg>