<svg xmlns="http://www.w3.org/2000/svg" viewBox="0 0 576 512"><!--! Font Awesome Pro 6.0.0-beta3 by @fontawesome - https://fontawesome.com License - https://fontawesome.com/license (Commercial License) Copyright 2021 Fonticons, Inc. --><defs><style>.fa-secondary{opacity:.4}</style></defs><path class="fa-primary" d="M288 368C288 288.5 352.5 224 432 224C511.5 224 576 288.5 576 368C576 447.5 511.5 512 432 512C352.5 512 288 447.5 288 368zM447.1 304C447.1 295.2 440.8 288 431.1 288C423.2 288 415.1 295.2 415.1 304V368C415.1 376.8 423.2 384 431.1 384H480C488.8 384 496 376.8 496 368C496 359.2 488.8 352 480 352H447.1V304z"/><path class="fa-secondary" d="M0 32C0 14.33 14.33 0 32 0H352C369.7 0 384 14.33 384 32C384 49.67 369.7 64 352 64V74.98C352 117.4 335.1 158.1 305.1 188.1L237.3 256L273.2 291.1C262.2 314.1 256 340.8 256 368C256 427.5 285.6 480.1 330.8 512H32C14.33 512 0 497.7 0 480C0 462.3 14.33 448 32 448V437C32 394.6 48.86 353.9 78.86 323.9L146.7 256L78.86 188.1C48.86 158.1 32 117.4 32 74.98V64C14.33 64 0 49.67 0 32V32zM96 64V74.98C96 93.98 101.6 112.4 111.1 128H272C282.4 112.4 288 93.98 288 74.98V64H96z"/></svg>