<svg xmlns="http://www.w3.org/2000/svg" viewBox="0 0 640 512"><!--! Font Awesome Pro 6.1.1 by @fontawesome - https://fontawesome.com License - https://fontawesome.com/license (Commercial License) Copyright 2022 Fonticons, Inc. --><defs><style>.fa-secondary{opacity:.4}</style></defs><path class="fa-primary" d="M624 32C632.8 32 640 39.16 640 48V176C640 184.8 632.8 192 624 192H512V512H448V32C448 14.33 462.3 0 480 0C497.7 0 512 14.33 512 32H624z"/><path class="fa-secondary" d="M416 512H416.1L416.8 512H96C78.33 512 64 497.7 64 480V287.1H31.1C18.61 287.1 6.631 279.7 1.985 267.1C-2.661 254.5 1.005 240.4 11.17 231.7L235.2 39.7C247.2 29.43 264.8 29.43 276.8 39.7L416 159V512zM223.1 255.1H175.1C167.2 255.1 159.1 263.2 159.1 271.1V303.1C159.1 312.8 167.2 319.1 175.1 319.1H223.1V368C223.1 376.8 231.2 384 239.1 384H271.1C280.8 384 287.1 376.8 287.1 368V319.1H336C344.8 319.1 352 312.8 352 303.1V271.1C352 263.2 344.8 255.1 336 255.1H287.1V207.1C287.1 199.2 280.8 191.1 271.1 191.1H239.1C231.2 191.1 223.1 199.2 223.1 207.1V255.1z"/></svg>