<svg xmlns="http://www.w3.org/2000/svg" viewBox="0 0 576 512"><!--! Font Awesome Pro 6.1.1 by @fontawesome - https://fontawesome.com License - https://fontawesome.com/license (Commercial License) Copyright 2022 Fonticons, Inc. --><defs><style>.fa-secondary{opacity:.4}</style></defs><path class="fa-primary" d="M266.9 7.918C278.1-2.639 297-2.639 309.1 7.918L565.1 231.9C578.4 243.6 579.7 263.8 568.1 277.1C556.4 290.4 536.2 291.7 522.9 280.1L288 74.52L53.07 280.1C39.77 291.7 19.56 290.4 7.917 277.1C-3.72 263.8-2.372 243.6 10.93 231.9L266.9 7.918z"/><path class="fa-secondary" d="M64.07 448L64.02 270.5L288 74.52L512.1 270.6L512.5 447.9C512.6 483.3 483.9 512 448.5 512H128.1C92.74 512 64.09 483.4 64.07 448L64.07 448zM248 240C234.7 240 224 250.7 224 264V344C224 357.3 234.7 368 248 368H328C341.3 368 352 357.3 352 344V264C352 250.7 341.3 240 328 240H248z"/></svg>