<svg xmlns="http://www.w3.org/2000/svg" viewBox="0 0 576 512"><!--! Font Awesome Pro 6.0.0-beta3 by @fontawesome - https://fontawesome.com License - https://fontawesome.com/license (Commercial License) Copyright 2021 Fonticons, Inc. --><defs><style>.fa-secondary{opacity:.4}</style></defs><path class="fa-primary" d="M266.9 7.918C278.1-2.639 297-2.639 309.1 7.918L565.1 231.9C578.4 243.6 579.7 263.8 568.1 277.1C556.4 290.4 536.2 291.7 522.9 280.1L288 74.52L53.07 280.1C39.77 291.7 19.56 290.4 7.918 277.1C-3.72 263.8-2.372 243.6 10.93 231.9L266.9 7.918zM384 264C392.8 264 400 271.2 400 280V328C400 336.8 392.8 344 384 344H328V400C328 408.8 320.8 416 312 416H264C255.2 416 248 408.8 248 400V344H192C183.2 344 176 336.8 176 328V280C176 271.2 183.2 264 192 264H248V208C248 199.2 255.2 192 264 192H312C320.8 192 328 199.2 328 208V264H384z"/><path class="fa-secondary" d="M288 74.52L512.1 270.6L512.5 447.9C512.6 483.3 483.9 512 448.5 512H128.1C92.74 512 64.09 483.4 64.07 448L64.02 270.5L288 74.52zM400 280C400 271.2 392.8 264 384 264H328V208C328 199.2 320.8 192 312 192H264C255.2 192 248 199.2 248 208V264H192C183.2 264 176 271.2 176 280V328C176 336.8 183.2 344 192 344H248V400C248 408.8 255.2 416 264 416H312C320.8 416 328 408.8 328 400V344H384C392.8 344 400 336.8 400 328V280z"/></svg>