<svg xmlns="http://www.w3.org/2000/svg" viewBox="0 0 576 512"><!--! Font Awesome Pro 6.1.1 by @fontawesome - https://fontawesome.com License - https://fontawesome.com/license (Commercial License) Copyright 2022 Fonticons, Inc. --><defs><style>.fa-secondary{opacity:.4}</style></defs><path class="fa-primary" d="M240 352h-128C85.49 352 64 373.5 64 400C64 408.8 71.16 416 80 416h192c8.836 0 16-7.164 16-16C288 373.5 266.5 352 240 352zM240 256c0-35.34-28.65-64-64-64s-64 28.66-64 64s28.65 64 64 64S240 291.3 240 256zM528 32h-480C21.49 32 0 53.49 0 80V128h576V80C576 53.49 554.5 32 528 32z"/><path class="fa-secondary" d="M0 128v304C0 458.5 21.49 480 48 480h480c26.51 0 48-21.49 48-48V128H0zM176 192c35.35 0 64 28.66 64 64s-28.65 64-64 64s-64-28.66-64-64S140.7 192 176 192zM272 416h-192C71.16 416 64 408.8 64 400C64 373.5 85.49 352 112 352h128c26.51 0 48 21.49 48 48C288 408.8 280.8 416 272 416zM496 352h-128c-8.836 0-16-7.164-16-16s7.164-16 16-16h128c8.836 0 16 7.164 16 16S504.8 352 496 352zM496 288h-128C359.2 288 352 280.8 352 272S359.2 256 368 256h128C504.8 256 512 263.2 512 272S504.8 288 496 288zM496 224h-128C359.2 224 352 216.8 352 208S359.2 192 368 192h128C504.8 192 512 199.2 512 208S504.8 224 496 224z"/></svg>