<svg xmlns="http://www.w3.org/2000/svg" viewBox="0 0 576 512"><!--! Font Awesome Pro 6.0.0-beta3 by @fontawesome - https://fontawesome.com License - https://fontawesome.com/license (Commercial License) Copyright 2021 Fonticons, Inc. --><defs><style>.fa-secondary{opacity:.4}</style></defs><path class="fa-primary" d="M320 33.76C330.9 34.96 341.5 36.76 352 39.14V160H527.5C534.3 170.2 540.6 180.9 546.1 192H480V320H576V352H384V480H352V352C352 316.7 323.3 288 288 288C252.7 288 224 316.7 224 352V480H192V352H0V320H96V192H29.94C35.45 180.9 41.65 170.2 48.5 160H320V33.76zM197.5 320C210.6 282.7 246.2 256 288 256C329.8 256 365.4 282.7 378.5 320H448V192H128V320H197.5z"/><path class="fa-secondary" d="M288 32C298.8 32 309.5 32.6 320 33.76V160H48.5C100.2 82.82 188.1 32 288 32zM527.5 160H352V39.14C424.9 55.67 487.2 99.82 527.5 160zM0 320C0 274 10.77 230.6 29.94 192H96V320H0zM197.5 320H128V192H448V320H378.5C365.4 282.7 329.8 256 288 256C246.2 256 210.6 282.7 197.5 320zM576 352V432C576 458.5 554.5 480 528 480H384V352H576zM48 480C21.49 480 0 458.5 0 432V352H192V480H48zM576 320H480V192H546.1C565.2 230.6 576 274 576 320z"/></svg>