<svg xmlns="http://www.w3.org/2000/svg" viewBox="0 0 576 512"><!--! Font Awesome Pro 6.0.0-beta3 by @fontawesome - https://fontawesome.com License - https://fontawesome.com/license (Commercial License) Copyright 2021 Fonticons, Inc. --><defs><style>.fa-secondary{opacity:.4}</style></defs><path class="fa-primary" d="M493.3 295.1l-106.7-160C383.7 130.7 378.7 128 373.3 128c-5.352 0-10.35 2.672-13.31 7.125l-62.74 94.11L274.9 198.6C271.9 194.4 267.1 192 262 192C256.9 192 252.1 194.4 249.1 198.6l-70 96C175.5 299.4 175 305.9 177.7 311.3C180.5 316.6 185.1 320 192 320h288c5.899 0 11.32-3.246 14.11-8.449C496.9 306.3 496.6 300 493.3 295.1zM456 480H120C53.83 480 0 426.2 0 360v-240C0 106.8 10.75 96 24 96S48 106.8 48 120v240c0 39.7 32.3 72 72 72h336c13.25 0 24 10.75 24 24S469.3 480 456 480z"/><path class="fa-secondary" d="M527.1 32H144C117.5 32 96 53.49 96 80v256c0 26.51 21.49 48 48 48h383.1C554.5 384 576 362.5 576 336v-256C576 53.49 554.5 32 527.1 32zM223.1 96c17.68 0 32 14.33 32 32S241.7 160 223.1 160C206.3 160 191.1 145.7 191.1 128S206.3 96 223.1 96zM494.1 311.6C491.3 316.8 485.9 320 480 320H192C185.1 320 180.5 316.6 177.7 311.3C175 305.9 175.5 299.4 179.1 294.6l70-96C252.1 194.4 256.9 192 262 192C267.1 192 271.9 194.4 274.9 198.6l22.35 30.66l62.74-94.11C362.1 130.7 367.1 128 373.3 128c5.348 0 10.34 2.672 13.31 7.125l106.7 160C496.6 300 496.9 306.3 494.1 311.6z"/></svg>