<svg xmlns="http://www.w3.org/2000/svg" viewBox="0 0 448 512"><!--! Font Awesome Pro 6.0.0-beta3 by @fontawesome - https://fontawesome.com License - https://fontawesome.com/license (Commercial License) Copyright 2021 Fonticons, Inc. --><defs><style>.fa-secondary{opacity:.4}</style></defs><path class="fa-primary" d="M336.5 32c-34.87 0-65.63 13.87-86.25 35.13C235.7 28.25 193.7 0 143.5 0C86.99 0 40.29 35.37 32.17 81.62C31.67 85.25 32.62 89 34.99 91.75C37.37 94.5 40.87 96 44.62 96h35.38L95.1 64l15.99 32h30.12c-34.12 35-39.62 86.87-14.5 122.6C131.1 224.7 140.7 225.9 146.1 220.5L240 128h128l15.97-32l16 32h35.37c3.752 0 7.251-1.5 9.626-4.25s3.375-6.5 2.875-10.13C439.7 67.37 393 32 336.5 32zM383.6 474.8C386.5 494.3 371.7 512 351.1 512H32.08c-19.75 0-34.59-17.75-31.72-37.25C10.86 404.3 71.49 352 142.7 352h98.52C312.5 352 373.1 404.3 383.6 474.8z"/><path class="fa-secondary" d="M196.1 352c9.957-42.69 24.84-122.2 21.02-201.5L240 128h26.23c11.22 48.01 28.64 142.7 18.54 231.2C270.9 354.8 256.4 352 241.3 352H196.1z"/></svg>