<svg xmlns="http://www.w3.org/2000/svg" viewBox="0 0 320 512"><!--! Font Awesome Pro 6.1.1 by @fontawesome - https://fontawesome.com License - https://fontawesome.com/license (Commercial License) Copyright 2022 Fonticons, Inc. --><defs><style>.fa-secondary{opacity:.4}</style></defs><path class="fa-primary" d="M248 0C261.3 0 272 10.75 272 24C272 37.25 261.3 48 248 48H72C58.75 48 48 37.25 48 24C48 10.75 58.75 0 72 0H248zM256 160C256 195.3 227.3 224 192 224H128C92.65 224 64 195.3 64 160H112C131.1 160 148.3 168.4 160 181.7C171.7 168.4 188.9 160 208 160H256zM128 320C92.65 320 64 291.3 64 256H112C131.1 256 148.3 264.4 160 277.7C171.7 264.4 188.9 256 208 256H256C256 291.3 227.3 320 192 320H128zM256 352C256 387.3 227.3 416 192 416H176V448C176 456.8 168.8 464 160 464C151.2 464 144 456.8 144 448V416H128C92.65 416 64 387.3 64 352H112C131.1 352 148.3 360.4 160 373.7C171.7 360.4 188.9 352 208 352H256z"/><path class="fa-secondary" d="M256 80C291.3 80 320 108.7 320 144V448C320 483.3 291.3 512 256 512H64C28.65 512 0 483.3 0 448V144C0 108.7 28.65 80 64 80H256zM208 160C188.9 160 171.7 168.4 160 181.7C148.3 168.4 131.1 160 112 160H64C64 195.3 92.65 224 128 224H192C227.3 224 256 195.3 256 160H208zM192 320C227.3 320 256 291.3 256 256H208C188.9 256 171.7 264.4 160 277.7C148.3 264.4 131.1 256 112 256H64C64 291.3 92.65 320 128 320H192zM208 352C188.9 352 171.7 360.4 160 373.7C148.3 360.4 131.1 352 112 352H64C64 387.3 92.65 416 128 416H144V448C144 456.8 151.2 464 160 464C168.8 464 176 456.8 176 448V416H192C227.3 416 256 387.3 256 352H208z"/></svg>