<svg xmlns="http://www.w3.org/2000/svg" viewBox="0 0 576 512"><!--! Font Awesome Pro 6.0.0-beta3 by @fontawesome - https://fontawesome.com License - https://fontawesome.com/license (Commercial License) Copyright 2021 Fonticons, Inc. --><defs><style>.fa-secondary{opacity:.4}</style></defs><path class="fa-primary" d="M554.9 293.1l-58.88 58.88h40C493.2 446.1 398.2 511.1 287.1 512c-110.3-.0078-205.2-65.88-247.1-160h40L21.13 293.1C17.75 275.1 16 258.6 16 241.2c0-5.75 .75-11.5 1-17.25h47L22.75 182.7c14.63-65.62 53.11-123.4 107.9-162.2c2.75-2 6.022-3.005 9.272-3.005c5.502 0 10.5 2.75 13.5 7.25C156.5 29.12 157 34.87 155 39.87c-6.5 16.25-9.875 33.75-9.875 51.25c0 45.13 21.13 86.63 57.75 113.8c4 2.875 6.501 7.5 6.626 12.38c.25 5-1.751 9.752-5.501 13c-32.75 29.38-47.5 74-38.5 117.1c1.725 8.551 4.659 16.66 8.108 24.5c.1484 .3594 .3242 .6953 .4766 1.047c2.502 5.551 5.383 10.86 8.658 15.95c1.479 2.398 2.924 4.77 4.559 7.055c.9336 1.258 2.002 2.391 2.982 3.613C212.1 428.8 248.1 448 288 448s75.02-19.18 97.7-48.46c.9805-1.223 2.049-2.355 2.982-3.613c1.635-2.285 3.08-4.656 4.559-7.055c3.275-5.094 6.156-10.4 8.658-15.95c.1523-.3516 .3281-.6875 .4766-1.047c3.449-7.84 6.383-15.94 8.108-24.5c9.002-43.13-5.751-87.75-38.5-117.1c-3.75-3.25-5.751-8.002-5.501-13c.125-4.875 2.626-9.5 6.626-12.38c36.63-27.12 57.75-68.63 57.75-113.8c0-17.5-3.375-35-9.875-51.25c-2-5-1.5-10.75 1.625-15.13c3-4.5 7.1-7.25 13.5-7.25c3.25 0 6.474 .9546 9.224 2.955c54.75 38.88 93.28 96.67 107.9 162.3l-41.25 41.25h47c.25 5.754 .9965 11.5 .9965 17.25C559.1 258.6 558.2 275.1 554.9 293.1z"/><path class="fa-secondary" d="M371.2 343.9l-42.13 8.627l20.13 33.75c1.875 3.25 1.375 7.375-1.375 10c-2.75 2.5-6.876 2.75-10 .75l-27.13-18.5l2.16 66.99C304.8 447.1 296.5 448 288 448s-16.85-.8711-24.89-2.508l2.16-66.99l-27.13 18.5c-3.125 2-7.251 1.75-10-.75c-2.75-2.625-3.25-6.75-1.375-10l20.13-33.75l-42.13-8.627c-3.625-.875-6.375-4.125-6.375-7.875s2.75-7 6.375-7.875l42.13-8.75L226.8 285.6C224.9 282.5 225.4 278.4 228.1 275.7c2.75-2.5 6.876-2.875 10-.75l30.38 20.63l11.49-287.8C280.3 3.461 283.7 .0156 287.1 0c4.236 .0156 7.759 3.461 8.009 7.828l11.49 287.8l30.38-20.63c3.125-2.125 7.251-1.75 10 .75c2.75 2.625 3.25 6.75 1.375 9.875l-20.13 33.75l42.13 8.75c3.625 .875 6.375 4.125 6.375 7.875S374.9 342.1 371.2 343.9z"/></svg>