<svg xmlns="http://www.w3.org/2000/svg" viewBox="0 0 576 512"><!--! Font Awesome Pro 6.1.1 by @fontawesome - https://fontawesome.com License - https://fontawesome.com/license (Commercial License) Copyright 2022 Fonticons, Inc. --><defs><style>.fa-secondary{opacity:.4}</style></defs><path class="fa-primary" d="M346.8 112.6C350.2 120.6 352 129.2 352 137.9V416.7L410.5 467.1C414 470.1 416 475.4 416 480V496C416 504.8 408.8 512 400 512H304V448C304 439.2 296.8 432 288 432C279.2 432 272 439.2 272 448V512H176C167.2 512 160 504.8 160 496V480C160 475.4 161.1 470.1 165.5 467.1L224 416.7V137.9C224 129.2 225.8 120.6 229.2 112.6L273.3 9.697C275.8 3.814 281.6 0 288 0C294.4 0 300.2 3.814 302.7 9.697L346.8 112.6zM56 256C69.25 256 80 266.7 80 280V392C80 405.3 69.25 416 56 416C42.75 416 32 405.3 32 392V280C32 266.7 42.75 256 56 256zM544 392C544 405.3 533.3 416 520 416C506.7 416 496 405.3 496 392V280C496 266.7 506.7 256 520 256C533.3 256 544 266.7 544 280V392z"/><path class="fa-secondary" d="M80 384V296L224 216V384H80zM352 384V216L496 296V384H352z"/></svg>