<svg xmlns="http://www.w3.org/2000/svg" viewBox="0 0 448 512"><!--! Font Awesome Pro 6.0.0-beta3 by @fontawesome - https://fontawesome.com License - https://fontawesome.com/license (Commercial License) Copyright 2021 Fonticons, Inc. --><defs><style>.fa-secondary{opacity:.4}</style></defs><path class="fa-primary" d="M304 64C348.1 64 384 99.89 384 144S348.1 224 304 224S224 188.1 224 144S259.9 64 304 64zM304 0C224.5 0 160 64.47 160 144S224.5 288 304 288S448 223.5 448 144S383.5 0 304 0z"/><path class="fa-secondary" d="M182.6 393.4c12.5 12.5 12.5 32.75 0 45.25C176.4 444.9 168.2 448 160 448s-16.38-3.125-22.62-9.375L96 397.3L77.25 416l41.38 41.38c12.5 12.5 12.5 32.75 0 45.25C112.4 508.9 104.2 512 96 512s-16.38-3.125-22.62-9.375l-64-64c-12.5-12.5-12.5-32.75 0-45.25l172.1-172.1c11.52 18.31 26.94 33.73 45.25 45.25L141.3 352L182.6 393.4z"/></svg>