<svg xmlns="http://www.w3.org/2000/svg" viewBox="0 0 512 512"><!--! Font Awesome Pro 6.0.0-beta3 by @fontawesome - https://fontawesome.com License - https://fontawesome.com/license (Commercial License) Copyright 2021 Fonticons, Inc. --><defs><style>.fa-secondary{opacity:.4}</style></defs><path class="fa-primary" d="M336 0c-97.2 0-176 78.8-176 176c0 14.71 2.004 28.93 5.406 42.59l128 127.1C307.1 349.1 321.3 351.1 336 351.1c97.2 0 176-78.8 176-176S433.2 0 336 0zM376 176c-22.09 0-40-17.91-40-40S353.9 96 376 96S416 113.9 416 136S398.1 176 376 176z"/><path class="fa-secondary" d="M165.4 218.6l-156 156C3.371 380.6 0 388.8 0 397.3V496C0 504.8 7.164 512 16 512l96 0c8.836 0 16-7.164 16-16v-48h48c8.836 0 16-7.164 16-16v-48h57.37c4.242 0 8.312-1.688 11.31-4.688l32.72-32.72L165.4 218.6z"/></svg>