<svg xmlns="http://www.w3.org/2000/svg" viewBox="0 0 576 512"><!--! Font Awesome Pro 6.1.1 by @fontawesome - https://fontawesome.com License - https://fontawesome.com/license (Commercial License) Copyright 2022 Fonticons, Inc. --><defs><style>.fa-secondary{opacity:.4}</style></defs><path class="fa-primary" d="M268 128h40c6.625 0 12-5.375 12-12v-40c0-6.625-5.375-12-12-12h-40c-6.625 0-12 5.375-12 12v40C256 122.6 261.4 128 268 128zM172 128h40c6.625 0 12-5.375 12-12v-40c0-6.625-5.375-12-12-12h-40c-6.625 0-12 5.375-12 12v40C160 122.6 165.4 128 172 128zM116 160h-40c-6.625 0-12 5.375-12 12v40c0 6.625 5.375 12 12 12h40c6.625 0 12-5.375 12-12v-40C128 165.4 122.6 160 116 160zM116 64h-40c-6.625 0-12 5.375-12 12v40c0 6.625 5.375 12 12 12h40c6.625 0 12-5.375 12-12v-40C128 69.38 122.6 64 116 64zM500 64h-40c-6.625 0-12 5.375-12 12v40c0 6.625 5.375 12 12 12h40c6.625 0 12-5.375 12-12v-40C512 69.38 506.6 64 500 64zM500 160h-40c-6.625 0-12 5.375-12 12v40c0 6.625 5.375 12 12 12h40c6.625 0 12-5.375 12-12v-40C512 165.4 506.6 160 500 160zM404 64h-40c-6.625 0-12 5.375-12 12v40c0 6.625 5.375 12 12 12h40c6.625 0 12-5.375 12-12v-40C416 69.38 410.6 64 404 64zM392 351.9h-208c-9.549 0-18.19 5.66-22 14.42c-3.814 8.756-2.079 18.97 4.405 25.96l104 112.1c9.498 10.24 25.69 10.24 35.19 0l104-112.1c6.484-6.988 8.219-17.2 4.409-25.96C410.2 357.6 401.5 351.9 392 351.9z"/><path class="fa-secondary" d="M512 .0001H64c-35.35 0-64 28.65-64 64v160c0 35.35 28.65 64 64 64h448c35.35 0 64-28.65 64-64v-160C576 28.65 547.3 .0001 512 .0001zM256 76c0-6.625 5.375-12 12-12h40c6.625 0 12 5.375 12 12v40c0 6.625-5.375 12-12 12h-40C261.4 128 256 122.6 256 116V76zM160 76c0-6.625 5.375-12 12-12h40c6.625 0 12 5.375 12 12v40c0 6.625-5.375 12-12 12h-40C165.4 128 160 122.6 160 116V76zM128 212c0 6.625-5.375 12-12 12h-40c-6.625 0-12-5.375-12-12v-40c0-6.625 5.375-12 12-12h40c6.625 0 12 5.375 12 12V212zM128 116c0 6.625-5.375 12-12 12h-40C69.38 128 64 122.6 64 116v-40c0-6.625 5.375-12 12-12h40c6.625 0 12 5.375 12 12V116zM416 212c0 6.625-5.375 12-12 12h-232c-6.625 0-12-5.375-12-12v-40c0-6.625 5.375-12 12-12h232c6.625 0 12 5.375 12 12V212zM416 116c0 6.625-5.375 12-12 12h-40c-6.625 0-12-5.375-12-12v-40c0-6.625 5.375-12 12-12h40c6.625 0 12 5.375 12 12V116zM512 212c0 6.625-5.375 12-12 12h-40c-6.625 0-12-5.375-12-12v-40c0-6.625 5.375-12 12-12h40c6.625 0 12 5.375 12 12V212zM512 116c0 6.625-5.375 12-12 12h-40c-6.625 0-12-5.375-12-12v-40c0-6.625 5.375-12 12-12h40c6.625 0 12 5.375 12 12V116z"/></svg>