<svg xmlns="http://www.w3.org/2000/svg" viewBox="0 0 640 512"><!--! Font Awesome Pro 6.1.1 by @fontawesome - https://fontawesome.com License - https://fontawesome.com/license (Commercial License) Copyright 2022 Fonticons, Inc. --><defs><style>.fa-secondary{opacity:.4}</style></defs><path class="fa-primary" d="M95.99 24.35c-59.88 53.5-93.62 125.6-95.87 199.6c-1.25 42 7.5 70.94 12.88 90.06c12 42.38 50.5 69.94 92.38 69.94c64.25 0 109.6-61.42 92.5-122c-1.125-3.75-23.11-50.44 26.02-94.31c39.63-35.38 42.99-96.02 7.734-135.5C196.2-7.51 135.5-10.9 95.99 24.35zM543.9 24.27c-39.5-35.13-100.4-31.78-135.7 7.972c-35.25 39.5-31.68 100.2 7.942 135.5c49.5 44.13 26.56 91.15 25.81 93.65c-17.5 60.63 27.63 122.6 92.25 122.6c41.75 0 80.13-27.38 92.25-69.5c5.625-19.25 14.63-48 13.38-90.5C637.8 149.1 604.2 77.89 543.9 24.27z"/><path class="fa-secondary" d="M274 217.7L209.1 183.6c-12.35 16.28-16.45 32.14-16.97 45.33l59.56 31.35c2.637 1.387 4.289 4.125 4.287 7.106l-.0678 228.7c-.0039 8.84 7.16 16 16 16l15.96-.0002c8.834 0 15.1-7.164 16-15.1L303.1 267.4C303.1 246.5 292.5 227.4 274 217.7zM430.9 183.6l-64.93 34.17c-18.43 9.699-29.97 28.81-29.96 49.64l-.0137 228.6c.0039 8.832 7.166 15.1 16 15.1l16 .0002c8.84 0 16-7.163 16-16l.0113-228.7c-.002-2.98 1.65-5.719 4.287-7.106l59.53-31.33C447.4 215.7 443.3 199.9 430.9 183.6z"/></svg>