<svg xmlns="http://www.w3.org/2000/svg" viewBox="0 0 576 512"><!--! Font Awesome Pro 6.1.1 by @fontawesome - https://fontawesome.com License - https://fontawesome.com/license (Commercial License) Copyright 2022 Fonticons, Inc. --><defs><style>.fa-secondary{opacity:.4}</style></defs><path class="fa-primary" d="M192 416C85.96 416 0 330 0 224C0 117.1 85.96 32 192 32C228.3 32 262.3 42.08 291.2 59.6C322.4 78.44 355.9 96 392.3 96H448C518.7 96 576 153.3 576 224C576 294.7 518.7 352 448 352H392.3C355.9 352 322.4 369.6 291.2 388.4C262.3 405.9 228.3 416 192 416V416zM448 248C461.3 248 472 237.3 472 224C472 210.7 461.3 200 448 200C434.7 200 424 210.7 424 224C424 237.3 434.7 248 448 248z"/><path class="fa-secondary" d="M576 224.3V464C576 471.3 571.1 477.7 564 479.5C556.1 481.3 549.6 478.1 546 471.8L477.6 348.6C533.9 335.2 575.9 284.7 576 224.3V224.3zM208 415.3C224.7 413.1 240.8 410.5 256 405.1V456C256 469.3 245.3 480 232 480C218.7 480 208 469.3 208 456V415.3zM96 390.3C110.9 398.9 126.1 405.6 144 409.1V456C144 469.3 133.3 480 120 480C106.7 480 96 469.3 96 456V390.3z"/></svg>