<svg xmlns="http://www.w3.org/2000/svg" viewBox="0 0 640 512"><!--! Font Awesome Pro 6.1.1 by @fontawesome - https://fontawesome.com License - https://fontawesome.com/license (Commercial License) Copyright 2022 Fonticons, Inc. --><defs><style>.fa-secondary{opacity:.4}</style></defs><path class="fa-primary" d="M433.9 63.32c.1205-.0007 .241-.0011 .3616-.0011c51.81 0 109.2 63.95 109.2 120.9c0 68.83-64.2 31.17-160.5 106.9l-6.093 4.821c-12.3 9.683-24.25 12.76-37.13 12.76c-55.45 0-61.32-45.8-61.32-55.5c0-35.78 22.62-51.32 23.56-52.06L308.4 196.2C400.2 123.8 382.8 63.62 433.9 63.32zM433.6-.682c-95.81 .5716-86.71 85.04-164.8 146.6L262.5 150.8C252.7 158.5 214.4 190.1 214.4 253.2c0 59.57 46.16 119.8 125.2 119.8c33.33 0 59.44-13.03 76.82-26.72l6.208-4.911c26.95-21.2 61.19-36.86 107.7-49.28c37.46-9.953 77.19-44.58 77.19-108.2c0-74.42-70.53-184.5-173.3-184.5C434-.6842 433.8-.6834 433.6-.682z"/><path class="fa-secondary" d="M225.9 303.1l-182.6 151.5c-7.548 6.265-11.58 15.26-11.58 24.27c0 21.39 18.72 31.64 32.24 31.64c6.024 0 13.79-1.708 20.76-7.452l183.6-152.3C250 339.7 235.3 323.4 225.9 303.1z"/></svg>