<svg xmlns="http://www.w3.org/2000/svg" viewBox="0 0 512 512"><!--! Font Awesome Pro 6.1.1 by @fontawesome - https://fontawesome.com License - https://fontawesome.com/license (Commercial License) Copyright 2022 Fonticons, Inc. --><defs><style>.fa-secondary{opacity:.4}</style></defs><path class="fa-primary" d="M511.8 388.8C513.8 403.2 502.1 416 487.6 416H152.4c-14.53 0-26.16-12.81-24.19-27.16C140 306.2 205.3 241.2 288 227.5l64-.0137C434.8 241.2 499.1 306.1 511.8 388.8z"/><path class="fa-secondary" d="M288 128v99.45l64-.0137V128c0-70.58-57.4-128-127.1-128H128C57.41 0 0 57.42 0 128v384h64V128c0-35.3 28.72-64 64-64h96C259.3 64 288 92.7 288 128zM256 448c0 35.38 28.62 64 63.99 64s64.01-28.62 64.01-64H256z"/></svg>