<svg xmlns="http://www.w3.org/2000/svg" viewBox="0 0 512 512"><!--! Font Awesome Pro 6.1.1 by @fontawesome - https://fontawesome.com License - https://fontawesome.com/license (Commercial License) Copyright 2022 Fonticons, Inc. --><defs><style>.fa-secondary{opacity:.4}</style></defs><path class="fa-primary" d="M312.1 232.1l-272 272C36.28 509.7 30.14 512 23.1 512s-12.28-2.344-16.97-7.031c-9.375-9.375-9.375-24.56 0-33.94l272-272c9.375-9.375 24.56-9.375 33.94 0S322.3 223.6 312.1 232.1z"/><path class="fa-secondary" d="M498 232.8c-6.246 6.75-14.62 11.76-22.62 16.63c-12.62 7.871-25.62 14.98-39.86 23.11c4.457 5.469 8.092 9.71 11.44 13.85c22.32 27.61 15.85 65.11-15.49 81.78c-22.07 11.74-45.52 10.24-69.42 7.221c-12.75-1.625-25.74-2.625-42.24-4.375c4.248 6.125 6.246 8.624 7.748 11.25c14.99 26.11 4.246 55.37-24.62 63.23c-11.87 3.129-25.62 3.497-37.61 .7513c-17.24-3.875-33.36-12.87-50.61-17.5c-20.68-5.783-30.03-.5801-35.67 1.266c-19.51 6.422-40 3.705-57.74-5.345l191.7-191.7c9.375-9.375 9.375-24.56 0-33.94s-24.56-9.375-33.94 0l-191.7 191.7c-9.049-17.74-11.72-38.21-5.298-57.71c1.857-5.646 7.077-14.9 1.265-35.67C78.71 280.1 69.71 263.9 65.84 246.7c-2.748-12-2.374-25.75 .7506-37.62C74.46 180.2 103.7 169.5 129.8 184.5c2.625 1.5 5.124 3.501 11.25 7.747C139.3 175.7 138.3 162.7 136.7 149.1C133.7 126.1 132.2 102.6 143.9 80.54c16.67-31.34 54.17-37.82 81.78-15.49C229.8 68.39 234.1 72.03 239.5 76.48c8.121-14.25 15.24-27.24 23.11-39.86c4.871-7.996 9.872-16.38 16.62-22.62c23.74-22.12 59.1-17.36 77.85 9.624c6.799 10.37 10.35 25.29 26.87 20.5c32.99-9.742 57.02-2.832 71.52 12.41c15.24 14.5 22.14 38.52 12.39 71.5c-4.738 16.34 9.73 19.8 20.5 26.87C515.4 173.6 520.1 209 498 232.8z"/></svg>