<svg xmlns="http://www.w3.org/2000/svg" viewBox="0 0 640 512"><!--! Font Awesome Pro 6.1.1 by @fontawesome - https://fontawesome.com License - https://fontawesome.com/license (Commercial License) Copyright 2022 Fonticons, Inc. --><defs><style>.fa-secondary{opacity:.4}</style></defs><path class="fa-primary" d="M240.1 415.1l.0167 38.36c0 6.297 1.89 12.43 5.359 17.68l17.09 25.69c5.25 7.875 17.18 14.28 26.65 14.28h61.72c9.438 0 21.38-6.394 26.63-14.27l17.09-25.69C397.6 467.6 400 459.7 400 454.4l.1562-70.35l-159.9 .002L240.1 415.1zM112 192c0-13.25-10.75-24-24-24h-64c-13.25 0-24 10.75-24 24s10.75 24 24 24h64C101.3 216 112 205.3 112 192zM616 168h-64c-13.25 0-24 10.75-24 24s10.75 24 24 24h64c13.25 0 24-10.75 24-24S629.3 168 616 168zM131.1 55.25l-55.5-32C68.25 18.75 59 18.63 51.38 22.88c-7.5 4.375-12.13 12.37-12.13 21c.125 8.75 4.875 16.75 12.38 20.88L107.1 96.75C114.5 101.3 123.8 101.4 131.4 97.13c7.5-4.375 12.12-12.37 12.12-21C143.4 67.38 138.6 59.38 131.1 55.25zM588.4 319.3l-55.5-32c-7.375-4.5-16.62-4.625-24.25-.375c-7.5 4.375-12.12 12.37-12.12 21c.125 8.75 4.875 16.75 12.38 20.88l55.5 32c11.38 6.375 25.88 2.375 32.38-9C603.3 340.5 599.5 326 588.4 319.3zM107.1 287.3L51.62 319.3c-7.5 4.125-12.25 12.12-12.38 20.88c0 8.625 4.625 16.63 12.13 21c7.625 4.25 16.87 4.125 24.25-.375l55.5-32c11.12-6.75 14.87-21.25 8.375-32.5C133 284.9 118.5 280.9 107.1 287.3zM521 100c4.125 0 8.25-1.125 12-3.25l55.38-32c11.25-6.75 14.88-21.25 8.375-32.5c-6.5-11.38-21-15.38-32.38-9L509 55.25c-9.5 5.375-14 16.5-11.25 27C500.6 92.75 510.1 100 521 100z"/><path class="fa-secondary" d="M319.5 .0154C217.5 .2654 144 82.1 144 175.1c0 42.63 15.4 83.76 43.52 115.8c16.62 18.88 42.36 58.23 52.24 91.48c0 .25 .1146 .5105 .1146 .7604l160.3 .0007c0-.25 .0833-.5111 .0833-.7611c9.875-33.25 35.61-72.61 52.24-91.48C480.6 259.8 496 218.6 496 175.1C496 78.62 416.8-.2346 319.5 .0154zM320 96.01c-44.13 0-80 35.87-80 79.1c0 8.875-7.125 16-16 16s-16-7.125-16-16C208.1 114.1 258.1 64.14 320 64.01c8.875 0 16 7.126 16 16S328.9 96.01 320 96.01z"/></svg>