<svg xmlns="http://www.w3.org/2000/svg" viewBox="0 0 384 512"><!--! Font Awesome Pro 6.0.0-beta3 by @fontawesome - https://fontawesome.com License - https://fontawesome.com/license (Commercial License) Copyright 2021 Fonticons, Inc. --><defs><style>.fa-secondary{opacity:.4}</style></defs><path class="fa-primary" d="M192 224c13.25 0 24-10.75 24-24v-112C216 74.75 205.3 64 192 64S168 74.75 168 88v112C168 213.3 178.8 224 192 224zM192 320c17.67 0 32-14.33 32-32s-14.33-32-32-32S160 270.3 160 288S174.3 320 192 320zM112.3 384l-.0906 70.35c0 6.297 1.886 12.43 5.355 17.68l17.08 25.69C139.8 505.6 151.8 512 161.2 512h61.67c9.438 0 21.36-6.395 26.61-14.27l17.34-25.7c2.938-4.438 5.097-12.35 5.097-17.68l.2156-70.35L112.3 384z"/><path class="fa-secondary" d="M191.5 .0127C89.47 .2627 16 82.1 16 175.1c0 44.38 16.52 84.89 43.52 115.8c16.62 18.88 42.36 58.23 52.24 91.48c0 .25 .1146 .5104 .1146 .7604l160.3 .0006c0-.25 .0833-.5111 .0833-.7611c9.875-33.25 35.61-72.61 52.24-91.48C351.5 260.9 368 220.4 368 175.1C368 78.62 288.8-.2373 191.5 .0127zM168 88C168 74.75 178.8 64 192 64s24 10.75 24 24v112C216 213.3 205.3 224 192 224S168 213.3 168 200V88zM192 320c-17.67 0-32-14.33-32-32s14.33-32 32-32s32 14.33 32 32S209.7 320 192 320z"/></svg>