<svg xmlns="http://www.w3.org/2000/svg" viewBox="0 0 640 512"><!--! Font Awesome Pro 6.0.0-beta3 by @fontawesome - https://fontawesome.com License - https://fontawesome.com/license (Commercial License) Copyright 2021 Fonticons, Inc. --><defs><style>.fa-secondary{opacity:.4}</style></defs><path class="fa-primary" d="M0 208C0 128.5 64.47 64 144 64h160C383.5 64 448 128.5 448 208S383.5 352 304 352H272.4C262.3 338.6 256 322.1 256 304C256 298.5 256.8 293.2 257.9 288H304C348.1 288 384 252.1 384 208S348.1 128 304 128h-160C99.89 128 64 163.9 64 208S99.89 288 144 288h49.55C192.9 293.3 192 298.5 192 304c0 16.92 3.455 32.92 8.816 48H144C64.47 352 0 287.5 0 208z"/><path class="fa-secondary" d="M640 304c0 79.53-64.47 144-144 144h-160C256.5 448 192 383.5 192 304S256.5 160 336 160h31.59C377.7 173.4 384 189.9 384 208c0 5.518-.7578 10.82-1.855 16H336C291.9 224 256 259.9 256 304S291.9 384 336 384h160c44.11 0 80-35.89 80-80S540.1 224 496 224h-49.55C447.1 218.7 448 213.5 448 208c0-16.92-3.455-32.92-8.816-48H496C575.5 160 640 224.5 640 304z"/></svg>