<svg xmlns="http://www.w3.org/2000/svg" viewBox="0 0 384 512"><!--! Font Awesome Pro 6.0.0-beta3 by @fontawesome - https://fontawesome.com License - https://fontawesome.com/license (Commercial License) Copyright 2021 Fonticons, Inc. --><defs><style>.fa-secondary{opacity:.4}</style></defs><path class="fa-primary" d="M288.1 127C298.3 136.4 298.3 151.6 288.1 160.1L176.1 272.1C167.6 282.3 152.4 282.3 143 272.1L87.03 216.1C77.66 207.6 77.66 192.4 87.03 183C96.4 173.7 111.6 173.7 120.1 183L160 222.1L255 127C264.4 117.7 279.6 117.7 288.1 127V127z"/><path class="fa-secondary" d="M168.3 499.2C116.1 435 0 279.4 0 192C0 85.96 85.96 0 192 0C298 0 384 85.96 384 192C384 279.4 267 435 215.7 499.2C203.4 514.5 180.6 514.5 168.3 499.2H168.3zM288.1 160.1C298.3 151.6 298.3 136.4 288.1 127C279.6 117.7 264.4 117.7 255 127L160 222.1L120.1 183C111.6 173.7 96.4 173.7 87.03 183C77.66 192.4 77.66 207.6 87.03 216.1L143 272.1C152.4 282.3 167.6 282.3 176.1 272.1L288.1 160.1z"/></svg>