<svg xmlns="http://www.w3.org/2000/svg" viewBox="0 0 448 512"><!--! Font Awesome Pro 6.1.1 by @fontawesome - https://fontawesome.com License - https://fontawesome.com/license (Commercial License) Copyright 2022 Fonticons, Inc. --><defs><style>.fa-secondary{opacity:.4}</style></defs><path class="fa-primary" d="M384 192C419.3 192 448 220.7 448 256V448C448 483.3 419.3 512 384 512H64C28.65 512 0 483.3 0 448V256C0 220.7 28.65 192 64 192H384zM256 320C256 302.3 241.7 288 224 288C206.3 288 192 302.3 192 320V384C192 401.7 206.3 416 224 416C241.7 416 256 401.7 256 384V320z"/><path class="fa-secondary" d="M224 64C179.8 64 144 99.82 144 144V192H80V144C80 64.47 144.5 0 224 0C303.5 0 368 64.47 368 144V192H304V144C304 99.82 268.2 64 224 64z"/></svg>