<svg xmlns="http://www.w3.org/2000/svg" viewBox="0 0 448 512"><!--! Font Awesome Pro 6.0.0-beta3 by @fontawesome - https://fontawesome.com License - https://fontawesome.com/license (Commercial License) Copyright 2021 Fonticons, Inc. --><defs><style>.fa-secondary{opacity:.4}</style></defs><path class="fa-primary" d="M448 127.1v128c0 133.2-116.9 239.6-253.5 222.1C81.61 463.6 0 362 0 248.2V127.1h128v124.2c0 46.43 31.29 89.08 76.87 97.93C266.2 362 320 315.2 320 256V127.1H448z"/><path class="fa-secondary" d="M96 31.1H32c-17.67 0-32 14.33-32 32v64h128V63.1C128 46.33 113.7 31.1 96 31.1zM416 31.1h-64c-17.67 0-32 14.33-32 32v64h128V63.1C448 46.33 433.7 31.1 416 31.1z"/></svg>