<svg xmlns="http://www.w3.org/2000/svg" viewBox="0 0 576 512"><!--! Font Awesome Pro 6.0.0-beta3 by @fontawesome - https://fontawesome.com License - https://fontawesome.com/license (Commercial License) Copyright 2021 Fonticons, Inc. --><defs><style>.fa-secondary{opacity:.4}</style></defs><path class="fa-primary" d="M496 192l-96 0c-8.799 0-16 7.199-16 15.1c0 8.801 7.201 15.1 16 15.1l48 0V271.1c0 8.836 7.164 15.1 16 15.1l32 0c8.838 0 16-7.164 16-15.1V208C512 199.2 504.8 192 496 192zM129.8 64.68C54.95 71.86 0 139 0 214.2v201.8c0 17.6 14.4 31.1 32 31.1l224-.0005c17.67 0 32-14.33 32-31.1V208C288 123.8 215.7 56.45 129.8 64.68zM208 224h-128c-8.836 0-16-7.164-16-15.1c0-8.836 7.164-15.1 16-15.1h128c8.838 0 16 7.164 16 15.1C224 216.8 216.8 224 208 224z"/><path class="fa-secondary" d="M432 64h-288c.3066 .2148 .5918 .6022 .8945 .8444C223.9 65.44 288 128.9 288 208v207.1c0 17.67-14.33 31.1-32 31.1l288 .0005c17.62 0 32-14.38 32-31.1V208C576 128.5 511.5 64 432 64zM512 271.1c0 8.836-7.162 15.1-16 15.1l-32 0c-8.836 0-16-7.164-16-15.1V224l-48 0c-8.799 0-16-7.199-16-15.1c0-8.801 7.201-15.1 16-15.1l96 0c8.838 0 16 7.164 16 15.1V271.1z"/></svg>