<svg xmlns="http://www.w3.org/2000/svg" viewBox="0 0 512 512"><!--! Font Awesome Pro 6.0.0-beta3 by @fontawesome - https://fontawesome.com License - https://fontawesome.com/license (Commercial License) Copyright 2021 Fonticons, Inc. --><defs><style>.fa-secondary{opacity:.4}</style></defs><path class="fa-primary" d="M485.4 154.5l-165.5 165.5L191.1 192l109.8-109.8l-30.94-30.81L172.4 149.8c-6.248 6.25-16.37 6.25-22.62 0L138.5 138.5c-6.25-6.25-6.25-16.37 0-22.62l104.1-104.1c15.62-15.62 40.87-15.62 56.5 0l36.62 36.5l21.71-21.76c35.37-35.37 92.65-35.37 128 .0047C520.8 61.89 520.8 119.1 485.4 154.5z"/><path class="fa-secondary" d="M93.99 290c-52.5 52.5-85.6 121.4-93.85 195.1c-1.625 15.25 11.25 28.37 26.5 26.74c73.87-8.125 142.7-41.23 195.3-93.85l98.03-98L191.1 192L93.99 290z"/></svg>