<svg xmlns="http://www.w3.org/2000/svg" viewBox="0 0 640 512"><!--! Font Awesome Pro 6.1.1 by @fontawesome - https://fontawesome.com License - https://fontawesome.com/license (Commercial License) Copyright 2022 Fonticons, Inc. --><defs><style>.fa-secondary{opacity:.4}</style></defs><path class="fa-primary" d="M256 64H576C611.3 64 640 92.65 640 128V384C640 419.3 611.3 448 576 448H256V64z"/><path class="fa-secondary" d="M0 384V128C0 92.65 28.65 64 64 64H256V448H64C28.65 448 0 419.3 0 384zM96 128C78.33 128 64 142.3 64 160V352C64 369.7 78.33 384 96 384H160C177.7 384 192 369.7 192 352V160C192 142.3 177.7 128 160 128H96z"/></svg>