<svg xmlns="http://www.w3.org/2000/svg" viewBox="0 0 512 512"><!--! Font Awesome Pro 6.0.0-beta3 by @fontawesome - https://fontawesome.com License - https://fontawesome.com/license (Commercial License) Copyright 2021 Fonticons, Inc. --><defs><style>.fa-secondary{opacity:.4}</style></defs><path class="fa-primary" d="M256 160c-97.25 0-176 78.75-176 176S158.8 512 256 512s176-78.75 176-176S353.3 160 256 160zM348.5 317.3l-37.88 37l8.875 52.25c1.625 9.25-8.25 16.5-16.63 12l-46.88-24.62L209.1 418.5c-8.375 4.5-18.25-2.75-16.63-12l8.875-52.25l-37.88-37C156.6 310.6 160.5 299 169.9 297.6l52.38-7.625L245.7 242.5c2-4.25 6.125-6.375 10.25-6.375S264.2 238.3 266.2 242.5l23.5 47.5l52.38 7.625C351.6 299 355.4 310.6 348.5 317.3z"/><path class="fa-secondary" d="M136.3 0H16.03c-12.95 0-20.53 14.58-13.1 25.18l130.3 184.8c28.74-27.99 67-46.13 109.5-49.3L149.1 7.77C147.1 2.949 141.9 0 136.3 0zM495.1 0H375.7c-5.621 0-10.83 2.949-13.72 7.77L269.2 160.7c42.5 3.168 80.76 21.31 109.5 49.3l130.3-184.8C516.5 14.58 508.9 0 495.1 0z"/></svg>