<svg xmlns="http://www.w3.org/2000/svg" viewBox="0 0 576 512"><!--! Font Awesome Pro 6.1.1 by @fontawesome - https://fontawesome.com License - https://fontawesome.com/license (Commercial License) Copyright 2022 Fonticons, Inc. --><defs><style>.fa-secondary{opacity:.4}</style></defs><path class="fa-primary" d="M400 256h32C440.8 256 448 248.8 448 240v-96C448 135.2 440.8 128 432 128h-32C391.2 128 384 135.2 384 144v96C384 248.8 391.2 256 400 256zM272 256h32C312.8 256 320 248.8 320 240v-96C320 135.2 312.8 128 304 128h-32C263.2 128 256 135.2 256 144v96C256 248.8 263.2 256 272 256zM144 256h32C184.8 256 192 248.8 192 240v-96C192 135.2 184.8 128 176 128h-32C135.2 128 128 135.2 128 144v96C128 248.8 135.2 256 144 256zM0 320v128h80v-32c0-8.836 7.164-16 16-16c8.838 0 16 7.164 16 16v32h96v-32c0-8.836 7.164-16 16-16c8.838 0 16 7.164 16 16v32h96v-32c0-8.836 7.164-16 16-16c8.838 0 16 7.164 16 16v32h96v-32c0-8.836 7.164-16 16-16c8.838 0 16 7.164 16 16v32H576v-128H0z"/><path class="fa-secondary" d="M576 146.9V112C576 85.49 554.5 64 528 64h-480C21.49 64 0 85.49 0 112v34.94C18.6 153.5 32 171.1 32 192S18.6 230.5 0 237.1V320h576V237.1C557.4 230.5 544 212.9 544 192S557.4 153.5 576 146.9zM192 240C192 248.8 184.8 256 176 256h-32C135.2 256 128 248.8 128 240v-96C128 135.2 135.2 128 144 128h32C184.8 128 192 135.2 192 144V240zM320 240C320 248.8 312.8 256 304 256h-32C263.2 256 256 248.8 256 240v-96C256 135.2 263.2 128 272 128h32C312.8 128 320 135.2 320 144V240zM448 240C448 248.8 440.8 256 432 256h-32C391.2 256 384 248.8 384 240v-96C384 135.2 391.2 128 400 128h32C440.8 128 448 135.2 448 144V240z"/></svg>