<svg xmlns="http://www.w3.org/2000/svg" viewBox="0 0 512 512"><!--! Font Awesome Pro 6.0.0-beta3 by @fontawesome - https://fontawesome.com License - https://fontawesome.com/license (Commercial License) Copyright 2021 Fonticons, Inc. --><defs><style>.fa-secondary{opacity:.4}</style></defs><path class="fa-primary" d="M351.1 255.1c0 17.62-21.5 31.1-48 31.1s-48-14.37-48-31.1s21.5-31.1 48-31.1c5.375 0 10.75 .7556 16 2.005v-76.37L224 187.1L223.1 287.1c0 17.62-21.5 31.1-47.1 31.1s-48-14.37-48-31.1s21.5-31.1 48-31.1C181.4 255.1 186.8 256.7 192 257.1V143.3c0-6.999 4.5-13.12 11.25-15.25l128-47.25C336 79.26 341.4 80.14 345.5 83.14C349.6 86.14 352 90.89 352 96.01L351.1 255.1z"/><path class="fa-secondary" d="M447.1 .0072h-384c-35.38 0-64 28.62-64 63.1v287.1c0 35.37 28.62 63.1 64 63.1h96v83.1c0 4.5 2.5 8.618 6.625 10.74c4 1.1 8.875 1.581 12.5-1.044l124.9-93.7h144c35.38 0 64-28.62 64-63.1V64C511.1 28.63 483.4 .0072 447.1 .0072zM351.1 255.1c0 17.62-21.5 31.1-48 31.1s-48-14.37-48-31.1s21.5-31.1 48-31.1c5.375 0 10.75 .7556 16 2.005v-76.37L224 187.1L223.1 287.1c0 17.62-21.5 31.1-47.1 31.1s-48-14.37-48-31.1s21.5-31.1 48-31.1C181.4 255.1 186.8 256.7 192 257.1V143.3c0-6.999 4.5-13.12 11.25-15.25l128-47.25C336 79.26 341.4 80.14 345.5 83.14C349.6 86.14 352 90.89 352 96.01L351.1 255.1z"/></svg>