<svg xmlns="http://www.w3.org/2000/svg" viewBox="0 0 512 512"><!--! Font Awesome Pro 6.0.0-beta3 by @fontawesome - https://fontawesome.com License - https://fontawesome.com/license (Commercial License) Copyright 2021 Fonticons, Inc. --><defs><style>.fa-secondary{opacity:.4}</style></defs><path class="fa-primary" d="M360 208c0 13.26-10.74 23.1-23.1 23.1h-56V288C279.1 301.3 269.3 312 256 312c-13.27 0-23.1-10.74-23.1-23.1V231.1H175.1C162.7 231.1 152 221.3 152 208c0-13.26 10.74-23.1 23.1-23.1h56V127.1C232 114.7 242.7 104 256 104s23.1 10.74 23.1 23.1V184h56C349.3 184 360 194.7 360 208z"/><path class="fa-secondary" d="M448 0H64C28.75 0 0 28.75 0 63.1v287.1c0 35.25 28.75 63.1 64 63.1h96v83.1c0 9.75 11.25 15.45 19.12 9.7L304 415.1H448c35.25 0 64-28.75 64-63.1V63.1C512 28.75 483.3 0 448 0zM336 231.1h-56V288C279.1 301.3 269.3 312 256 312c-13.27 0-23.1-10.74-23.1-23.1V231.1H175.1C162.7 231.1 152 221.3 152 208c0-13.26 10.74-23.1 23.1-23.1h56V127.1C232 114.7 242.7 104 256 104s23.1 10.74 23.1 23.1V184h56C349.3 184 360 194.7 360 208S349.3 231.1 336 231.1z"/></svg>