<svg xmlns="http://www.w3.org/2000/svg" viewBox="0 0 512 512"><!--! Font Awesome Pro 6.1.1 by @fontawesome - https://fontawesome.com License - https://fontawesome.com/license (Commercial License) Copyright 2022 Fonticons, Inc. --><defs><style>.fa-secondary{opacity:.4}</style></defs><path class="fa-primary" d="M175 288.1c9.373 9.371 24.56 9.379 33.94 0L256 241.9l47.03 47.03c9.373 9.371 24.56 9.379 33.94 0c9.375-9.375 9.375-24.56 0-33.94L289.9 208l47.03-47.03c9.375-9.375 9.375-24.56 0-33.94s-24.56-9.375-33.94 0L256 174.1L208.1 127c-9.375-9.375-24.56-9.375-33.94 0s-9.375 24.56 0 33.94L222.1 208L175 255C165.7 264.4 165.7 279.6 175 288.1z"/><path class="fa-secondary" d="M448 0H64C28.75 0 0 28.75 0 63.1v287.1c0 35.25 28.75 63.1 64 63.1h96v83.1c0 9.75 11.25 15.45 19.12 9.7L304 415.1H448c35.25 0 64-28.75 64-63.1V63.1C512 28.75 483.3 0 448 0zM336.1 255c9.375 9.375 9.375 24.56 0 33.94c-9.383 9.379-24.56 9.371-33.94 0L256 241.9L208.1 288.1c-9.383 9.379-24.56 9.371-33.94 0c-9.375-9.375-9.375-24.56 0-33.94L222.1 208L175 160.1c-9.375-9.375-9.375-24.56 0-33.94s24.56-9.375 33.94 0L256 174.1l47.03-47.03c9.375-9.375 24.56-9.375 33.94 0s9.375 24.56 0 33.94L289.9 208L336.1 255z"/></svg>