<svg xmlns="http://www.w3.org/2000/svg" viewBox="0 0 512 512"><!--! Font Awesome Pro 6.0.0-beta3 by @fontawesome - https://fontawesome.com License - https://fontawesome.com/license (Commercial License) Copyright 2021 Fonticons, Inc. --><defs><style>.fa-secondary{opacity:.4}</style></defs><path class="fa-primary" d="M347.7 167.6l-96 112C247.4 284.7 241.1 287.7 234.4 287.1C234.1 287.1 233.8 287.1 233.5 287.1c-6.344 0-12.47-2.531-16.97-7.031l-48-48c-9.375-9.375-9.375-24.56 0-33.94s24.56-9.375 33.94 0l29.69 29.69l79.13-92.34c8.656-10.06 23.81-11.19 33.84-2.594C355.2 142.4 356.3 157.5 347.7 167.6z"/><path class="fa-secondary" d="M447.1 0h-384c-35.25 0-64 28.75-64 63.1v287.1c0 35.25 28.75 63.1 64 63.1h96v83.1c0 9.75 11.25 15.45 19.12 9.7l124.9-93.7h144c35.25 0 64-28.75 64-63.1V63.1C511.1 28.75 483.2 0 447.1 0zM347.7 167.6l-96 112C247.4 284.7 241.1 287.7 234.4 287.1C234.1 287.1 233.8 287.1 233.5 287.1c-6.344 0-12.47-2.531-16.97-7.031l-48-48c-9.375-9.375-9.375-24.56 0-33.94s24.56-9.375 33.94 0l29.69 29.69l79.13-92.34c8.656-10.06 23.81-11.19 33.84-2.594C355.2 142.4 356.3 157.5 347.7 167.6z"/></svg>