<svg xmlns="http://www.w3.org/2000/svg" viewBox="0 0 512 512"><!--! Font Awesome Pro 6.0.0-beta3 by @fontawesome - https://fontawesome.com License - https://fontawesome.com/license (Commercial License) Copyright 2021 Fonticons, Inc. --><defs><style>.fa-secondary{opacity:.4}</style></defs><path class="fa-primary" d="M368 136c0 13.25-10.75 23.1-24 23.1L280 160v136C280 309.3 269.3 320 256 320S232 309.3 232 296V160l-64-.0004c-13.25 0-24-10.75-24-23.1S154.8 112 168 112h176C357.3 112 368 122.8 368 136z"/><path class="fa-secondary" d="M448-.0004H64c-35.25 0-64 28.75-64 63.1v287.1c0 35.25 28.75 63.1 64 63.1h96v83.98c0 9.75 11.25 15.45 19.12 9.7L304 415.1H448c35.25 0 64-28.75 64-63.1V63.1C512 28.75 483.3-.0004 448-.0004zM344 159.1L280 160v136C280 309.3 269.3 320 256 320S232 309.3 232 296V160l-64-.0004c-13.25 0-24-10.75-24-23.1S154.8 112 168 112h176c13.25 0 24 10.75 24 24S357.3 159.1 344 159.1z"/></svg>