<svg xmlns="http://www.w3.org/2000/svg" viewBox="0 0 512 512"><!--! Font Awesome Pro 6.1.1 by @fontawesome - https://fontawesome.com License - https://fontawesome.com/license (Commercial License) Copyright 2022 Fonticons, Inc. --><defs><style>.fa-secondary{opacity:.4}</style></defs><path class="fa-primary" d="M256 240c13.25 0 24-10.75 24-24v-112c0-13.25-10.75-24-24-24S232 90.75 232 104v112C232 229.3 242.8 240 256 240zM256 272c-17.67 0-32 14.33-32 32c0 17.67 14.33 32 32 32s32-14.33 32-32C288 286.3 273.7 272 256 272z"/><path class="fa-secondary" d="M447.1 0h-384c-35.25 0-64 28.75-64 63.1v287.1c0 35.25 28.75 63.1 64 63.1h96v83.1c0 9.75 11.25 15.45 19.12 9.7l124.9-93.7h144c35.25 0 64-28.75 64-63.1V63.1C511.1 28.75 483.2 0 447.1 0zM232 104C232 90.75 242.8 80 256 80s24 10.75 24 24v112c0 13.25-10.75 24-24 24S232 229.3 232 216V104zM256 336c-17.67 0-32-14.33-32-32c0-17.67 14.33-32 32-32s32 14.33 32 32C288 321.7 273.7 336 256 336z"/></svg>