<svg xmlns="http://www.w3.org/2000/svg" viewBox="0 0 512 512"><!--! Font Awesome Pro 6.1.1 by @fontawesome - https://fontawesome.com License - https://fontawesome.com/license (Commercial License) Copyright 2022 Fonticons, Inc. --><defs><style>.fa-secondary{opacity:.4}</style></defs><path class="fa-primary" d="M215.1 304.9c-1.955 1.957-4.443 3.285-7.152 3.828L152.4 319.9c-4.896 .9804-9.216-3.34-8.238-8.234l11.11-55.53c.543-2.711 1.875-5.203 3.83-7.156l97.61-97.61l56.01 56L215.1 304.9zM359.8 160.2l-24.48 24.47l-56.01-56l24.48-24.48c10.93-10.93 28.66-10.93 39.6 0l16.41 16.41C370.7 131.6 370.7 149.3 359.8 160.2z"/><path class="fa-secondary" d="M447.1 0h-384c-35.25 0-64 28.75-64 63.1v287.1c0 35.25 28.75 63.1 64 63.1h96v83.1c0 9.749 11.25 15.45 19.12 9.7l124.9-93.7h144c35.25 0 64-28.75 64-63.1V63.1C511.1 28.75 483.2 0 447.1 0zM215.1 304.9c-1.955 1.957-4.443 3.285-7.152 3.828L152.4 319.9c-4.896 .9804-9.216-3.34-8.238-8.234l11.11-55.53c.543-2.711 1.875-5.203 3.83-7.156l97.61-97.61l56.01 56L215.1 304.9zM359.8 160.2l-24.48 24.47l-56.01-56l24.48-24.48c10.93-10.93 28.66-10.93 39.6 0l16.41 16.41C370.7 131.6 370.7 149.3 359.8 160.2z"/></svg>