<svg xmlns="http://www.w3.org/2000/svg" viewBox="0 0 640 512"><!--! Font Awesome Pro 6.1.1 by @fontawesome - https://fontawesome.com License - https://fontawesome.com/license (Commercial License) Copyright 2022 Fonticons, Inc. --><defs><style>.fa-secondary{opacity:.4}</style></defs><path class="fa-primary" d="M568.9 252.8c-11.5 10.53-22.2 21.75-32.1 33.76C520 263.1 500.9 242.1 480 224c-56.2 51.28-96 118.1-96 158.4C384 454 441.3 512 512 512s128-57.98 128-129.6C640 352.4 610.3 290.6 568.9 252.8zM560 447.3c-13.5 9.352-29.7 14.27-46.3 14.27c-43.3 0-78.5-28.15-78.5-73.91c0-22.84 14.6-42.91 43.7-77.27c4.1 4.723 59.3 74.02 59.3 74.02l35.2-39.47c2.5 4.035 4.699 7.969 6.699 11.81C596.5 387.6 589.6 426.1 560 447.3z"/><path class="fa-secondary" d="M458.4 200.4l21.52-19.66l21.56 19.59c1.947 1.766 3.596 3.801 5.512 5.598C483.7 88.52 380.2 0 256 0C114.6 0 0 114.6 0 256c0 141.4 114.6 256 256 256c46.48 0 89.94-12.58 127.5-34.23C363.1 450.1 352 418.2 352 382.4C352 332.4 395.8 257.5 458.4 200.4zM192 208C192 216.8 184.8 224 176 224h-32C135.2 224 128 216.8 128 208v-64C128 135.2 135.2 128 144 128h32C184.8 128 192 135.2 192 144V208zM288 208C288 216.8 280.8 224 272 224h-32C231.2 224 224 216.8 224 208v-64C224 135.2 231.2 128 240 128h32C280.8 128 288 135.2 288 144V208zM320 208v-64C320 135.2 327.2 128 336 128h32C376.8 128 384 135.2 384 144v64C384 216.8 376.8 224 368 224h-32C327.2 224 320 216.8 320 208zM580.1 356.8c-2-3.844-4.199-7.777-6.699-11.81l-35.2 39.47c0 0-55.2-69.29-59.3-74.02c-29.1 34.35-43.7 54.43-43.7 77.27c0 45.77 35.2 73.91 78.5 73.91c16.6 0 32.8-4.918 46.3-14.27C589.6 426.1 596.5 387.6 580.1 356.8z"/></svg>