<svg xmlns="http://www.w3.org/2000/svg" viewBox="0 0 512 512"><!--! Font Awesome Pro 6.1.1 by @fontawesome - https://fontawesome.com License - https://fontawesome.com/license (Commercial License) Copyright 2022 Fonticons, Inc. --><defs><style>.fa-secondary{opacity:.4}</style></defs><path class="fa-primary" d="M256 0C114.6 0 0 114.6 0 256c0 141.4 114.6 256 256 256s256-114.6 256-256C512 114.6 397.4 0 256 0zM192 208C192 216.8 184.8 224 176 224h-32C135.2 224 128 216.8 128 208v-64C128 135.2 135.2 128 144 128h32C184.8 128 192 135.2 192 144V208zM288 208C288 216.8 280.8 224 272 224h-32C231.2 224 224 216.8 224 208v-64C224 135.2 231.2 128 240 128h32C280.8 128 288 135.2 288 144V208zM384 208C384 216.8 376.8 224 368 224h-32C327.2 224 320 216.8 320 208v-64C320 135.2 327.2 128 336 128h32C376.8 128 384 135.2 384 144V208z"/><path class="fa-secondary" d="M176 128h-32C135.2 128 128 135.2 128 144v64C128 216.8 135.2 224 144 224h32C184.8 224 192 216.8 192 208v-64C192 135.2 184.8 128 176 128zM272 128h-32C231.2 128 224 135.2 224 144v64C224 216.8 231.2 224 240 224h32C280.8 224 288 216.8 288 208v-64C288 135.2 280.8 128 272 128zM368 128h-32C327.2 128 320 135.2 320 144v64C320 216.8 327.2 224 336 224h32C376.8 224 384 216.8 384 208v-64C384 135.2 376.8 128 368 128z"/></svg>