<svg xmlns="http://www.w3.org/2000/svg" viewBox="0 0 512 512"><!--! Font Awesome Pro 6.0.0-beta3 by @fontawesome - https://fontawesome.com License - https://fontawesome.com/license (Commercial License) Copyright 2021 Fonticons, Inc. --><defs><style>.fa-secondary{opacity:.4}</style></defs><path class="fa-primary" d="M190.5 272h35.07L208 231.9L190.5 272zM384 64H128C92.65 64 64 92.65 64 128v256c0 35.35 28.65 64 64 64h256c35.35 0 64-28.65 64-64V128C448 92.65 419.3 64 384 64zM270.4 334.7C268.3 335.6 266.2 336 264 336c-6.156 0-12.04-3.578-14.66-9.594L239.5 304H176.5l-9.805 22.41c-3.531 8.125-12.94 11.83-21.06 8.25C137.5 331.1 133.8 321.7 137.3 313.6l56-128c5.062-11.66 24.25-11.66 29.31 0l56 128C282.2 321.7 278.5 331.1 270.4 334.7zM352 320c0 8.844-7.156 16-16 16S320 328.8 320 320V192c0-8.844 7.156-16 16-16S352 183.2 352 192V320z"/><path class="fa-secondary" d="M0 256c0 8.836 7.164 16 16 16H64v-32H16C7.164 240 0 247.2 0 256zM0 352c0 8.836 7.164 16 16 16H64v-32H16C7.164 336 0 343.2 0 352zM0 160c0 8.836 7.164 16 16 16H64v-32H16C7.164 144 0 151.2 0 160zM512 160c0-8.836-7.162-16-16-16H448v32h48C504.8 176 512 168.8 512 160zM176 16C176 7.164 168.8 0 160 0C151.2 0 144 7.164 144 16V64h32V16zM272 16C272 7.164 264.8 0 256 0C247.2 0 240 7.164 240 16V64h32V16zM144 496C144 504.8 151.2 512 160 512c8.838 0 16-7.164 16-16V448h-32V496zM352 0c-8.836 0-16 7.164-16 16V64h32V16C368 7.164 360.8 0 352 0zM240 496c0 8.836 7.164 16 16 16c8.838 0 16-7.164 16-16V448h-32V496zM496 240H448v32h48C504.8 272 512 264.8 512 256S504.8 240 496 240zM336 496c0 8.836 7.164 16 16 16c8.838 0 16-7.164 16-16V448h-32V496zM496 336H448v32h48c8.838 0 16-7.164 16-16S504.8 336 496 336z"/></svg>