<svg xmlns="http://www.w3.org/2000/svg" viewBox="0 0 384 512"><!--! Font Awesome Pro 6.0.0-beta3 by @fontawesome - https://fontawesome.com License - https://fontawesome.com/license (Commercial License) Copyright 2021 Fonticons, Inc. --><defs><style>.fa-secondary{opacity:.4}</style></defs><path class="fa-primary" d="M288 63.1v320H96v-320H288z"/><path class="fa-secondary" d="M288 0H96c-35.35 0-64 28.65-64 64v384c0 35.35 28.65 64 64 64h192c35.35 0 64-28.65 64-64v-384C352 28.65 323.3 0 288 0zM192 480c-17.75 0-32-14.25-32-32s14.25-32 32-32s32 14.25 32 32S209.8 480 192 480zM288 63.1v320H96v-320H288z"/></svg>