<svg xmlns="http://www.w3.org/2000/svg" viewBox="0 0 512 512"><!--! Font Awesome Pro 6.0.0-beta3 by @fontawesome - https://fontawesome.com License - https://fontawesome.com/license (Commercial License) Copyright 2021 Fonticons, Inc. --><defs><style>.fa-secondary{opacity:.4}</style></defs><path class="fa-primary" d="M487.1 303.1c13.26 0 23.1-10.74 23.1-23.1c0-13.26-10.74-23.1-23.1-23.1c-61.97-.0117-120.2 24.13-164 67.95C280.1 367.8 255.1 426 256 487.1c0 13.26 10.74 24 23.1 24c13.26 0 23.1-10.74 23.1-24c0-49.14 19.15-95.36 53.9-130.1C392.6 323.1 438.9 303.1 487.1 303.1zM457.4 457.4c-12.5 12.5-12.5 32.76 0 45.25c12.5 12.5 32.76 12.5 45.25 0c12.5-12.5 12.5-32.76 0-45.25C490.1 444.9 469.9 444.9 457.4 457.4zM512 375.1c0-13.26-10.74-23.1-23.1-23.1c-37.5 0-71.51 15.25-96.13 39.88S352 450.5 352 488C352 501.3 362.7 512 375.1 512s23.1-10.74 23.1-23.1c0-48.53 39.49-88.01 88.01-88.01C501.3 399.1 512 389.3 512 375.1z"/><path class="fa-secondary" d="M227.3 448H64V64h224v251.1c4.303-4.988 8.613-9.977 13.32-14.68C316.7 285.9 333.8 272.9 352 261.1V48C352 21.5 330.5 0 304 0h-256C21.5 0 0 21.5 0 48v416C0 490.5 21.5 512 48 512h181.6C226.1 504.7 224 496.6 224 487.1C223.1 474.5 225.3 461.1 227.3 448zM144 384C135.2 384 128 391.2 128 400S135.2 416 144 416h64C216.8 416 224 408.8 224 400S216.8 384 208 384H144z"/></svg>