<svg xmlns="http://www.w3.org/2000/svg" viewBox="0 0 512 512"><!--! Font Awesome Pro 6.1.1 by @fontawesome - https://fontawesome.com License - https://fontawesome.com/license (Commercial License) Copyright 2022 Fonticons, Inc. --><defs><style>.fa-secondary{opacity:.4}</style></defs><path class="fa-primary" d="M480 31.9C480 31.94 480 31.99 480 32.02V128C480 145.7 465.7 160 448 160C430.3 160 416 145.7 416 128V109.3L310.6 214.6C298.8 226.5 279.9 227.2 267.2 216.3L176 138.1L84.83 216.3C71.41 227.8 51.21 226.2 39.7 212.8C28.2 199.4 29.76 179.2 43.18 167.7L155.2 71.7C167.2 61.43 184.8 61.43 196.8 71.7L286.3 148.4L370.7 64H352C334.3 64 320 49.67 320 32C320 14.33 334.3 0 352 0H448C456.8 0 464.8 3.554 470.6 9.305C470.6 9.35 470.6 9.395 470.7 9.441C473.7 12.49 476 16 477.6 19.75C479.1 23.5 479.1 27.6 480 31.9V31.9z"/><path class="fa-secondary" d="M464 256C490.5 256 512 277.5 512 304V464C512 490.5 490.5 512 464 512H48C21.49 512 0 490.5 0 464V304C0 277.5 21.49 256 48 256H464zM96 464C96 437.5 74.51 416 48 416V464H96zM48 352C74.51 352 96 330.5 96 304H48V352zM464 464V416C437.5 416 416 437.5 416 464H464zM464 304H416C416 330.5 437.5 352 464 352V304zM256 448C291.3 448 320 419.3 320 384C320 348.7 291.3 320 256 320C220.7 320 192 348.7 192 384C192 419.3 220.7 448 256 448z"/></svg>