<svg xmlns="http://www.w3.org/2000/svg" viewBox="0 0 576 512"><!--! Font Awesome Pro 6.0.0-beta3 by @fontawesome - https://fontawesome.com License - https://fontawesome.com/license (Commercial License) Copyright 2021 Fonticons, Inc. --><defs><style>.fa-secondary{opacity:.4}</style></defs><path class="fa-primary" d="M48.66 79.13C128.4 100.9 208.2 80.59 288 60.25C375 38.08 462 15.9 549 48.38C565.9 54.69 576 71.62 576 89.66V399.5C576 423.4 550.4 439.2 527.3 432.9C447.6 411.1 367.8 431.4 288 451.7C200.1 473.9 113.1 496.1 26.97 463.6C10.06 457.3 0 440.4 0 422.3V112.5C0 88.59 25.61 72.83 48.66 79.13L48.66 79.13zM287.1 352C332.2 352 368 309 368 255.1C368 202.1 332.2 159.1 287.1 159.1C243.8 159.1 207.1 202.1 207.1 255.1C207.1 309 243.8 352 287.1 352z"/><path class="fa-secondary" d="M368 256C368 309 332.2 352 288 352C243.8 352 208 309 208 256C208 202.1 243.8 160 288 160C332.2 160 368 202.1 368 256z"/></svg>