<svg xmlns="http://www.w3.org/2000/svg" viewBox="0 0 576 512"><!--! Font Awesome Pro 6.1.1 by @fontawesome - https://fontawesome.com License - https://fontawesome.com/license (Commercial License) Copyright 2022 Fonticons, Inc. --><defs><style>.fa-secondary{opacity:.4}</style></defs><path class="fa-primary" d="M48.66 79.13C128.4 100.9 208.2 80.59 288 60.25C375 38.08 462 15.9 549 48.38C565.9 54.69 576 71.62 576 89.66V399.5C576 423.4 550.4 439.2 527.3 432.9C447.6 411.1 367.8 431.4 288 451.7C200.1 473.9 113.1 496.1 26.97 463.6C10.06 457.3 0 440.4 0 422.3V112.5C0 88.59 25.61 72.83 48.66 79.13L48.66 79.13zM512 159.1C478.1 159.1 450.4 133.7 448.1 100.3C408.1 101.3 364.7 110.9 313.1 123.5C309.3 124.6 304.6 125.8 299.8 127C248.8 139.9 189.4 154.8 126.1 155.6C121.5 185.4 95.38 207.1 63.1 207.1V352C97.89 352 125.6 378.3 127.9 411.7C167.9 410.7 211.3 401.1 262 388.5C266.7 387.4 271.4 386.2 276.2 384.1C327.2 372.1 386.6 357.2 449 356.4C454.5 326.6 480.6 304 512 304V159.1z"/><path class="fa-secondary" d="M512 304C480.6 304 454.5 326.6 449 356.4C386.6 357.2 327.2 372.1 276.2 384.1C271.4 386.2 266.7 387.4 262 388.5C211.3 401.1 167.9 410.7 127.9 411.7C125.6 378.3 97.89 352 64 352V208C95.38 208 121.5 185.4 126.1 155.6C189.4 154.8 248.8 139.9 299.8 127C304.6 125.8 309.3 124.6 313.1 123.5C364.7 110.9 408.1 101.3 448.1 100.3C450.4 133.7 478.1 160 512 160V304zM288 352C332.2 352 368 309 368 256C368 202.1 332.2 160 288 160C243.8 160 208 202.1 208 256C208 309 243.8 352 288 352z"/></svg>