<svg xmlns="http://www.w3.org/2000/svg" viewBox="0 0 512 512"><!--! Font Awesome Pro 6.1.1 by @fontawesome - https://fontawesome.com License - https://fontawesome.com/license (Commercial License) Copyright 2022 Fonticons, Inc. --><defs><style>.fa-secondary{opacity:.4}</style></defs><path class="fa-primary" d="M342.8 326.6c-20.86 25.67-52.34 41.45-86.9 41.45C194 368 144 317.8 144 256c0-61.98 50.17-111.1 111.9-111.1c6.855 0 13.69 .5755 20.4 1.888c4.812 .7305 5.839 7.111 1.611 9.59c-27.42 15.61-44.33 44.77-44.33 76.27c0 54.98 50.02 96.69 104.3 86.33C342.6 317.1 345.1 322.8 342.8 326.6z"/><path class="fa-secondary" d="M507.8 339L450.2 256l57.6-83.01c9.703-13.98 1.693-33.32-15.05-36.34l-99.43-17.97l-17.97-99.43c-3.027-16.75-22.36-24.76-36.34-15.05L256 61.79L172.1 4.194C159-5.51 139.7 2.498 136.6 19.25L118.7 118.7L19.25 136.6c-16.75 3.027-24.76 22.36-15.05 36.34L61.8 256l-57.6 83.01c-9.703 13.98-1.695 33.32 15.05 36.35l99.43 17.97l17.97 99.43c3.027 16.75 22.36 24.76 36.34 15.05L256 450.2l83.01 57.6c13.98 9.703 33.32 1.695 36.34-15.05l17.97-99.43l99.43-17.97C509.5 372.3 517.5 352.1 507.8 339zM357.8 357.1c-56.15 56.15-147.6 56.15-203.8 0s-56.15-147.6 0-203.8c56.15-56.15 147.6-56.15 203.8 0C413.9 210.4 413.9 301.8 357.8 357.1z"/></svg>