<svg xmlns="http://www.w3.org/2000/svg" viewBox="0 0 640 512"><!--! Font Awesome Pro 6.0.0-beta3 by @fontawesome - https://fontawesome.com License - https://fontawesome.com/license (Commercial License) Copyright 2021 Fonticons, Inc. --><defs><style>.fa-secondary{opacity:.4}</style></defs><path class="fa-primary" d="M0 424.1C0 413.6 2.964 403.3 8.551 394.4L225.3 49.01C231.9 38.42 243.5 32 256 32C268.5 32 280.1 38.42 286.8 49.01L503.4 394.4C509 403.3 512 413.6 512 424.1C512 454.1 486.1 480 456.1 480H55.91C25.03 480 .001 454.1 .001 424.1H0z"/><path class="fa-secondary" d="M412.7 249.7L460.9 170.7C464.1 164.1 472.2 160 480 160C487.8 160 495 164.1 499.1 170.7L631.1 387.1C636.9 396.6 640 407.7 640 418.9C640 452.6 612.6 480 578.9 480H456.1C486.1 480 512 454.1 512 424.1C512 413.6 509 403.3 503.4 394.4L412.7 249.7z"/></svg>