<svg xmlns="http://www.w3.org/2000/svg" viewBox="0 0 640 512"><!--! Font Awesome Pro 6.1.1 by @fontawesome - https://fontawesome.com License - https://fontawesome.com/license (Commercial License) Copyright 2022 Fonticons, Inc. --><defs><style>.fa-secondary{opacity:.4}</style></defs><path class="fa-primary" d="M303.9 352c0-36.16 12.52-69.18 32.83-96H39.72c-4.387 11.3-9.455 22.29-15.33 32.73C7.949 317.7-31.74 423.4 48.74 512h199.1l14.4-19.2C289.1 457 303.9 412.7 303.9 368V352zM591.1 368V352c0-70.69-57.32-128-128-128c-70.71 0-128 57.31-128 128v16c0 51.93-16.85 102.5-48.01 144H640C608.8 470.5 591.1 419.9 591.1 368zM463.9 432c-44.2 0-80.02-35.82-80.02-80c33.44 0 62.83-17.13 80.02-43.05C481.1 334.9 510.5 352 543.1 352C543.1 396.2 508.1 432 463.9 432z"/><path class="fa-secondary" d="M191.9 0c-61.86 0-112 50.14-112 112V224h224V112C303.9 50.14 253.8 0 191.9 0zM191.9 160c-35.35 0-64-28.65-64-64c0-1.107 .2715-2.141 .3262-3.234c26.61-.1133 49.98-13.76 63.67-34.41c13.7 20.65 37.06 34.29 63.67 34.41C255.6 93.86 255.9 94.89 255.9 96C255.9 131.3 227.2 160 191.9 160zM463.9 308.9C446.8 334.9 417.4 352 383.9 352c0 44.18 35.83 80 80.02 80c44.2 0 80.02-35.82 80.02-80C510.5 352 481.1 334.9 463.9 308.9z"/></svg>