<svg xmlns="http://www.w3.org/2000/svg" viewBox="0 0 576 512"><!--! Font Awesome Pro 6.1.1 by @fontawesome - https://fontawesome.com License - https://fontawesome.com/license (Commercial License) Copyright 2022 Fonticons, Inc. --><defs><style>.fa-secondary{opacity:.4}</style></defs><path class="fa-primary" d="M528 320V256c0-44.11-35.89-80-80-80S368 211.9 368 256v64c-26.51 0-48 21.49-48 48v96c0 26.51 21.49 48 48 48h160c26.51 0 48-21.49 48-48v-96C576 341.5 554.5 320 528 320zM448 448c-17.67 0-32-14.33-32-32c0-17.67 14.33-32 32-32s32 14.33 32 32C480 433.7 465.7 448 448 448zM480 320h-64V256c0-17.64 14.36-32 32-32s32 14.36 32 32V320z"/><path class="fa-secondary" d="M448 96v48c-23.82 0-45.83 7.602-64 20.33V128c0-17.64-14.36-32-32-32H224C215.2 96 208 103.2 208 112v98.94C189.4 217.6 176 235.1 176 256c0 26.51 21.49 48 48 48S272 282.5 272 256c0-20.87-13.4-38.45-32-45.06V128H352v71.22C342.1 215.9 336 235.2 336 256v38.68C307.8 307 288 335.3 288 368V384H96V128h48C152.8 128 160 120.8 160 112S152.8 96 144 96H96C78.36 96 64 110.4 64 128v256c0 17.64 14.36 32 32 32h192v48c0 5.479 .5645 10.83 1.619 16H64c-35.35 0-64-28.65-64-64V96c0-35.35 28.65-64 64-64h320C419.3 32 448 60.65 448 96z"/></svg>