<svg xmlns="http://www.w3.org/2000/svg" viewBox="0 0 448 512"><!--! Font Awesome Pro 6.0.0-beta3 by @fontawesome - https://fontawesome.com License - https://fontawesome.com/license (Commercial License) Copyright 2021 Fonticons, Inc. --><defs><style>.fa-secondary{opacity:.4}</style></defs><path class="fa-primary" d="M122.6 465.7C116.5 475 106.3 480 95.97 480c-6.093 0-12.25-1.75-17.72-5.375c-14.72-9.813-18.69-29.66-8.875-44.38l255.1-384c9.781-14.69 29.62-18.66 44.37-8.875c14.72 9.813 18.69 29.66 8.875 44.38L122.6 465.7z"/><path class="fa-secondary" d="M400 304h-169.6l-42.67 64H400c17.69 0 32-14.32 32-32.01S417.7 304 400 304zM48 208h169.5l42.67-64H48c-17.69 0-32 14.31-32 31.99S30.31 208 48 208zM432 176c0-17.69-14.31-31.99-32-31.99h-62.89l-42.67 64H400C417.7 208 432 193.7 432 176zM16 336c0 17.69 14.31 32.01 32 32.01h62.87l42.67-64H48C30.31 304 16 318.3 16 336z"/></svg>