<svg xmlns="http://www.w3.org/2000/svg" viewBox="0 0 512 512"><!--! Font Awesome Pro 6.1.1 by @fontawesome - https://fontawesome.com License - https://fontawesome.com/license (Commercial License) Copyright 2022 Fonticons, Inc. --><defs><style>.fa-secondary{opacity:.4}</style></defs><path class="fa-primary" d="M376 256H320V200C320 195.6 316.4 192 312 192h-48C259.6 192 256 195.6 256 200V256H200C195.6 256 192 259.6 192 264v48C192 316.4 195.6 320 200 320H256v56c0 4.375 3.625 8 8 8h48c4.375 0 8-3.625 8-8V320h56C380.4 320 384 316.4 384 312v-48C384 259.6 380.4 256 376 256zM0 360v-240C0 53.83 53.83 0 120 0h240C373.3 0 384 10.75 384 24S373.3 48 360 48h-240C80.3 48 48 80.3 48 120v240C48 373.3 37.25 384 24 384S0 373.3 0 360z"/><path class="fa-secondary" d="M432 96h-288C117.5 96 96 117.5 96 144v288C96 458.5 117.5 480 144 480H384l96-96V144C480 117.5 458.5 96 432 96zM384 312C384 316.4 380.4 320 376 320H320v56c0 4.375-3.625 8-8 8h-48C259.6 384 256 380.4 256 376V320H200C195.6 320 192 316.4 192 312v-48C192 259.6 195.6 256 200 256H256V200C256 195.6 259.6 192 264 192h48C316.4 192 320 195.6 320 200V256h56C380.4 256 384 259.6 384 264V312z"/></svg>