<svg xmlns="http://www.w3.org/2000/svg" viewBox="0 0 512 512"><!--! Font Awesome Pro 6.0.0-beta3 by @fontawesome - https://fontawesome.com License - https://fontawesome.com/license (Commercial License) Copyright 2021 Fonticons, Inc. --><defs><style>.fa-secondary{opacity:.4}</style></defs><path class="fa-primary" d="M256 304c13.25 0 24-10.75 24-24v-128C280 138.8 269.3 128 256 128S232 138.8 232 152v128C232 293.3 242.8 304 256 304zM256 337.1c-17.36 0-31.44 14.08-31.44 31.44C224.6 385.9 238.6 400 256 400s31.44-14.08 31.44-31.44C287.4 351.2 273.4 337.1 256 337.1z"/><path class="fa-secondary" d="M482.8 157.1l-127.1-127.9C346.4 20.8 334.1 16 323 16H188.9c-11.84 0-23.32 4.805-31.76 13.24L29.24 157.2C20.8 165.6 16 177 16 188.1v134.2c0 11.84 4.805 23.32 13.24 31.76l127.1 127.9C165.6 491.2 177 496 188.1 496h134.2c11.84 0 23.32-4.805 31.76-13.24l127.9-127.1C491.2 346.4 496 334.1 496 323V188.9C496 177 491.2 165.5 482.8 157.1zM232 152C232 138.8 242.8 128 256 128s24 10.75 24 24v128c0 13.25-10.75 24-24 24S232 293.3 232 280V152zM256 400c-17.36 0-31.44-14.08-31.44-31.44c0-17.36 14.07-31.44 31.44-31.44s31.44 14.08 31.44 31.44C287.4 385.9 273.4 400 256 400z"/></svg>