<svg xmlns="http://www.w3.org/2000/svg" viewBox="0 0 512 512"><!--! Font Awesome Pro 6.0.0-beta3 by @fontawesome - https://fontawesome.com License - https://fontawesome.com/license (Commercial License) Copyright 2021 Fonticons, Inc. --><defs><style>.fa-secondary{opacity:.4}</style></defs><path class="fa-primary" d="M289.9 255.1l47.03-47.03c9.375-9.375 9.375-24.56 0-33.94s-24.56-9.375-33.94 0L256 222.1L208.1 175c-9.375-9.375-24.56-9.375-33.94 0s-9.375 24.56 0 33.94l47.03 47.03L175 303c-9.375 9.375-9.375 24.56 0 33.94c9.373 9.373 24.56 9.381 33.94 0L256 289.9l47.03 47.03c9.373 9.373 24.56 9.381 33.94 0c9.375-9.375 9.375-24.56 0-33.94L289.9 255.1z"/><path class="fa-secondary" d="M482.8 157.1l-127.1-127.9C346.4 20.8 334.1 16 323 16H188.9c-11.84 0-23.32 4.805-31.76 13.24L29.24 157.2C20.8 165.6 16 177 16 188.1v134.2c0 11.84 4.805 23.32 13.24 31.76l127.1 127.9C165.6 491.2 177 496 188.1 496h134.2c11.84 0 23.32-4.805 31.76-13.24l127.9-127.1C491.2 346.4 496 334.1 496 323V188.9C496 177 491.2 165.5 482.8 157.1zM336.1 303c9.375 9.375 9.375 24.56 0 33.94c-9.381 9.381-24.56 9.373-33.94 0L256 289.9l-47.03 47.03c-9.381 9.381-24.56 9.373-33.94 0c-9.375-9.375-9.375-24.56 0-33.94l47.03-47.03L175 208.1c-9.375-9.375-9.375-24.56 0-33.94s24.56-9.375 33.94 0L256 222.1l47.03-47.03c9.375-9.375 24.56-9.375 33.94 0s9.375 24.56 0 33.94l-47.03 47.03L336.1 303z"/></svg>