<svg xmlns="http://www.w3.org/2000/svg" viewBox="0 0 448 512"><!--! Font Awesome Pro 6.1.1 by @fontawesome - https://fontawesome.com License - https://fontawesome.com/license (Commercial License) Copyright 2022 Fonticons, Inc. --><defs><style>.fa-secondary{opacity:.4}</style></defs><path class="fa-secondary" d="M416 480l-96-.0049c-17.67 0-32-14.4-32-32.08v-25.6c0-11.44 6.094-21.97 15.98-27.69C353.3 366.1 384 312.1 384 256c0-88.22-71.78-159.1-160-159.1S64 167.8 64 256c0 56.97 30.66 110.1 80.02 138.6C153.9 400.4 160 410.9 160 422.3v25.6c0 17.69-14.33 32.08-32 32.08l-96 .0049c-17.67 0-32-14.31-32-32s14.33-32 32-32h35.3C24.89 374.4 0 316.8 0 256c0-123.5 100.5-224 224-224s224 100.5 224 223.1c0 60.75-24.89 118.4-67.3 160H416c17.67 0 32 14.31 32 32S433.7 480 416 480zM320.2 422.3L320.2 422.3L320.2 422.3z"/></svg>