<svg xmlns="http://www.w3.org/2000/svg" viewBox="0 0 576 512"><!--! Font Awesome Pro 6.1.1 by @fontawesome - https://fontawesome.com License - https://fontawesome.com/license (Commercial License) Copyright 2022 Fonticons, Inc. --><defs><style>.fa-secondary{opacity:.4}</style></defs><path class="fa-primary" d="M320 368C318.4 368 316.9 367.1 315.3 367.9C315.5 368.3 315.6 368.7 315.7 369.1L221.1 288.8C222.6 288.9 224.1 289.1 225.6 289.4C224.5 283.7 223.1 277.9 223.1 272V263.1C223.1 233.8 238.2 205.3 262.4 187.2L499.1 9.605C517.7-4.353 543.6-2.965 560.7 12.9C577.7 28.76 580.8 54.54 568.2 74.07L406.5 324.1C388.8 351.5 358.5 368 325.9 368H320zM208 512H64L63.85 512H208.3C208.2 512 208.1 512 208 512H208z"/><path class="fa-secondary" d="M320 400C320 461.9 269.9 512 208 512H64C46.33 512 32 497.7 32 480C32 462.3 46.33 448 64 448H68.81C86.44 448 98.4 429.1 96.59 411.6C96.2 407.8 96 403.9 96 400C96 338.1 146.1 288 208 288C212.4 288 216.8 288.3 221.1 288.8L315.7 369.1C318.5 378.9 320 389.3 320 400H320z"/></svg>