<svg xmlns="http://www.w3.org/2000/svg" viewBox="0 0 384 512"><!--! Font Awesome Pro 6.0.0-beta3 by @fontawesome - https://fontawesome.com License - https://fontawesome.com/license (Commercial License) Copyright 2021 Fonticons, Inc. --><defs><style>.fa-secondary{opacity:.4}</style></defs><path class="fa-primary" d="M352 384H128v-48c0-6.203-3.595-11.86-9.22-14.48c-5.548-2.594-12.24-1.781-17.04 2.188l-96.01 80C2.109 406.8 0 411.3 0 416s2.109 9.25 5.75 12.3l96.01 80C104.7 510.7 108.3 512 112 512c2.297 0 4.632-.5 6.789-1.516C124.4 507.9 128 502.2 128 496V448h223.1C369.7 448 384 433.7 384 415.1C384 398.3 369.7 384 352 384z"/><path class="fa-secondary" d="M147.8 224h12.11v64C159.9 305.7 174.3 320 191.1 320c17.67 0 31.98-14.33 31.98-31.1V64h32v224c0 17.67 14.35 31.1 32.02 31.1c17.67 0 31.98-14.33 31.98-31.1V64c17.67 0 32-14.33 32-31.1C351.9 14.33 337.6 0 319.9 0h-175.1C80.36 0 32.53 47.41 31.94 110.8C31.37 173.1 85.57 224 147.8 224z"/></svg>