<svg xmlns="http://www.w3.org/2000/svg" viewBox="0 0 640 512"><!--! Font Awesome Pro 6.1.1 by @fontawesome - https://fontawesome.com License - https://fontawesome.com/license (Commercial License) Copyright 2022 Fonticons, Inc. --><defs><style>.fa-secondary{opacity:.4}</style></defs><path class="fa-primary" d="M255.9 396c-11.03 0-20 8.969-20 20s8.973 20 20 20s20-8.969 20-20S266.1 396 255.9 396zM306.3 77.4L287.1 36.82C276.2 13.84 252.8-.002 228.9-.002c-8.01 0-16.08 1.555-23.74 4.842l-40.39 17.31C113.7 44.01 83.89 92.89 83.89 145.1c0 32.42 9.154 40.15 9.154 61.38C93.05 273.1 0 264.2 0 374.2c0 20.08 4.416 40.65 13.74 60.37l19.2 40.57C43.81 498.2 67.23 512 91.13 512c8.008 0 16.07-1.555 23.74-4.84l10.64-4.561c-16.34-18.9-26.95-42.8-27.74-68.9c0 0-1.768-58.87-1.768-60.93c0-98.71 71.99-181.2 169.8-193.3c45.8-5.646 39.74-46.6 49.5-77.49C313.1 93.71 310.1 85.48 306.3 77.4zM543.1 148c11.03 0 20-8.969 20-20s-8.971-20-20-20S523.1 116.1 523.1 128S532.9 148 543.1 148zM543.1 172c-11.03 0-20 8.969-20 20s8.973 20 20 20s20-8.969 20-20S555 172 543.1 172zM479.1 172c-11.03 0-20 8.969-20 20s8.971 20 20 20S499.1 203 499.1 192S491 172 479.1 172zM319.9 396C308.9 396 299.9 404.1 299.9 416s8.973 20 20 20s20-8.969 20-20S330.1 396 319.9 396zM319.9 332C308.9 332 299.9 340.1 299.9 352s8.973 20 20 20s20-8.969 20-20S330.1 332 319.9 332z"/><path class="fa-secondary" d="M638.2 79.27c-1.264-41.37-36.15-76.26-77.52-77.52c0 0-58.3-1.752-60.09-1.752c-84.2 0-151.4 60.65-161.4 141.7c-7.943 64.34-68.28 69.4-69.56 69.56c-81.04 9.976-141.7 77.19-141.7 161.4c0 1.786 .0273 3.58 .0823 5.381l1.672 54.71c1.264 41.37 36.15 76.26 77.52 77.52c0 0 58.3 1.754 60.08 1.754c84.2 0 151.4-60.65 161.4-141.7c7.944-64.35 68.27-69.4 69.56-69.55C579.3 290.8 640 223.6 640 139.4c0-1.786-.0273-3.58-.0823-5.381L638.2 79.27zM255.9 436c-11.03 0-20-8.969-20-20s8.973-20 20-20s20 8.969 20 20S266.1 436 255.9 436zM319.9 436c-11.03 0-20-8.969-20-20s8.972-20 20-20s20 8.969 20 20S330.1 436 319.9 436zM319.9 372c-11.03 0-20-8.969-20-20s8.972-19.1 20-19.1s20 8.968 20 19.1S330.1 372 319.9 372zM479.1 212c-11.03 0-20-8.969-20-20s8.971-20 20-20s20 8.969 20 20S490.1 212 479.1 212zM543.1 212c-11.03 0-20-8.969-20-20s8.972-20 20-20s20 8.969 20 20S555 212 543.1 212zM543.1 148c-11.03 0-20-8.969-20-20s8.972-20 20-20s20 8.969 20 20S555 148 543.1 148z"/></svg>