<svg xmlns="http://www.w3.org/2000/svg" viewBox="0 0 640 512"><!--! Font Awesome Pro 6.0.0-beta3 by @fontawesome - https://fontawesome.com License - https://fontawesome.com/license (Commercial License) Copyright 2021 Fonticons, Inc. --><defs><style>.fa-secondary{opacity:.4}</style></defs><path class="fa-primary" d="M24.03 0c5.156 0 10.37 1.672 14.78 5.109l591.1 463.1c10.44 8.172 12.25 23.27 4.062 33.7c-8.125 10.41-23.19 12.28-33.69 4.078L9.189 42.89c-10.44-8.172-12.25-23.26-4.062-33.7C9.845 3.156 16.91 0 24.03 0z"/><path class="fa-secondary" d="M128 288l-64 208l97.63-104.3C160.9 389.3 160 386.8 160 384c0-17.62 14.38-32 32-32s32 14.38 32 32s-14.38 32-32 32c-2.75 0-5.25-.875-7.75-1.625L80 512L288 448l37.08-96.53l-119.2-93.4L128 288zM433.3 28.38L279.5 193.7l115.7 90.69L547.5 142.5C632.4 67.5 507.8-56 433.3 28.38z"/></svg>