<svg xmlns="http://www.w3.org/2000/svg" viewBox="0 0 576 512"><!--! Font Awesome Pro 6.0.0-beta3 by @fontawesome - https://fontawesome.com License - https://fontawesome.com/license (Commercial License) Copyright 2021 Fonticons, Inc. --><defs><style>.fa-secondary{opacity:.4}</style></defs><path class="fa-primary" d="M313.4 70.61l-282.3 282.3c-2.234 2.234-3.755 5.078-4.376 8.176l-26.34 131.7c-2.24 11.2 7.631 21.07 18.83 18.83l131.7-26.35c3.098-.6192 5.941-2.141 8.175-4.373l282.3-282.3L313.4 70.61z"/><path class="fa-secondary" d="M497.9 142.1c18.75-18.77 18.75-49.17 0-67.93l-60.09-60.1c-18.75-18.75-49.19-18.75-67.94 0l-56.53 56.55l127.1 128L497.9 142.1zM552 464h-304C234.7 464 224 474.7 224 488C224 501.3 234.7 512 248 512h304c13.25 0 24-10.75 24-24C576 474.7 565.3 464 552 464z"/></svg>