<svg xmlns="http://www.w3.org/2000/svg" viewBox="0 0 512 512"><!--! Font Awesome Pro 6.0.0-beta3 by @fontawesome - https://fontawesome.com License - https://fontawesome.com/license (Commercial License) Copyright 2021 Fonticons, Inc. --><defs><style>.fa-secondary{opacity:.4}</style></defs><path class="fa-primary" d="M251.1 53.68c-15.62-15.62-40.87-15.62-56.49 0L75.75 172.4c-6.249 6.249-6.249 16.37 0 22.62l11.31 11.31c6.249 6.249 16.37 6.249 22.62 0l113.2-113l33.93 33.93L94.01 290c-52.49 52.49-85.61 121.4-93.86 195.2c-1.625 15.25 11.25 28.32 26.49 26.7c73.86-8.124 142.7-41.25 195.3-93.86l196.7-196.7L251.1 53.68z"/><path class="fa-secondary" d="M497.9 74.18l-60.12-60.12c-18.75-18.75-49.24-18.75-67.99 0l-79.11 79.24l127.1 127.1l79.24-79.11C516.7 123.4 516.7 92.92 497.9 74.18z"/></svg>