<svg xmlns="http://www.w3.org/2000/svg" viewBox="0 0 640 512"><!--! Font Awesome Pro 6.0.0-beta3 by @fontawesome - https://fontawesome.com License - https://fontawesome.com/license (Commercial License) Copyright 2021 Fonticons, Inc. --><defs><style>.fa-secondary{opacity:.4}</style></defs><path class="fa-primary" d="M634.9 502.8c-8.125 10.41-23.19 12.28-33.69 4.078L9.189 42.89c-10.44-8.172-12.25-23.26-4.062-33.7C9.846 3.156 16.91 0 24.03 0c5.156 0 10.38 1.672 14.78 5.109l591.1 463.1C641.2 477.3 643.1 492.4 634.9 502.8z"/><path class="fa-secondary" d="M265.3 182.6l143.5 112.5l73.89-73.88l-128-128L265.3 182.6zM561.9 74.16l-60.09-60.1c-18.75-18.75-49.19-18.75-67.93 0L377.4 70.61l127.1 128l56.56-56.55C580.7 123.3 580.7 92.91 561.9 74.16zM95.04 352.1c-2.234 2.234-3.756 5.078-4.377 8.176l-26.34 131.7C62.3 502.1 70.16 512 79.95 512c1.049 0 2.117-.1035 3.199-.3203l131.7-26.34c3.098-.6191 5.941-2.141 8.176-4.373l117.4-117.4L196.9 251L95.04 352.1zM195.9 440.2l-75.14 15.03l15.03-75.15L160 355.9V416h60.12L195.9 440.2z"/></svg>