<svg xmlns="http://www.w3.org/2000/svg" viewBox="0 0 640 512"><!--! Font Awesome Pro 6.1.1 by @fontawesome - https://fontawesome.com License - https://fontawesome.com/license (Commercial License) Copyright 2022 Fonticons, Inc. --><defs><style>.fa-secondary{opacity:.4}</style></defs><path class="fa-primary" d="M0 448C0 430.3 14.33 416 32 416H608C625.7 416 640 430.3 640 448C640 465.7 625.7 480 608 480H32C14.33 480 0 465.7 0 448z"/><path class="fa-secondary" d="M359.1 72C359.1 94.09 342.1 112 319.1 112C297.9 112 279.1 94.09 279.1 72C279.1 49.91 297.9 32 319.1 32C342.1 32 359.1 49.91 359.1 72zM183.1 168C183.1 190.1 166.1 208 143.1 208C121.9 208 103.1 190.1 103.1 168C103.1 145.9 121.9 128 143.1 128C166.1 128 183.1 145.9 183.1 168zM455.1 168C455.1 145.9 473.9 128 495.1 128C518.1 128 535.1 145.9 535.1 168C535.1 190.1 518.1 208 495.1 208C473.9 208 455.1 190.1 455.1 168zM199.1 352C199.1 369.7 185.7 384 167.1 384H119.1C102.3 384 87.1 369.7 87.1 352V313.5L61.13 363.4C54.84 375 40.29 379.4 28.62 373.1C16.95 366.8 12.58 352.3 18.87 340.6L56.74 270.3C72.09 241.8 101.9 224 134.2 224H153.8C170.1 224 185.7 228.5 199.2 236.6L232.7 174.3C248.1 145.8 277.9 128 310.2 128H329.8C362.1 128 391.9 145.8 407.3 174.3L440.8 236.6C454.3 228.5 469.9 224 486.2 224H505.8C538.1 224 567.9 241.8 583.3 270.3L621.1 340.6C627.4 352.3 623 366.8 611.4 373.1C599.7 379.4 585.1 375 578.9 363.4L551.1 313.5V352C551.1 369.7 537.7 384 519.1 384H471.1C454.3 384 439.1 369.7 439.1 352V313.5L413.1 363.4C406.8 375 392.3 379.4 380.6 373.1C368.9 366.8 364.6 352.3 370.9 340.6L407.2 273.1C405.5 271.5 404 269.6 402.9 267.4L375.1 217.5V272C375.1 289.7 361.7 304 343.1 304H295.1C278.3 304 263.1 289.7 263.1 272V217.5L237.1 267.4C235.1 269.6 234.5 271.5 232.8 273.1L269.1 340.6C275.4 352.3 271 366.8 259.4 373.1C247.7 379.4 233.1 375 226.9 363.4L199.1 313.5L199.1 352z"/></svg>