<svg xmlns="http://www.w3.org/2000/svg" viewBox="0 0 512 512"><!--! Font Awesome Pro 6.0.0-beta3 by @fontawesome - https://fontawesome.com License - https://fontawesome.com/license (Commercial License) Copyright 2021 Fonticons, Inc. --><defs><style>.fa-secondary{opacity:.4}</style></defs><path class="fa-primary" d="M274.9 107.8c-6.814 3.711-13.32 7.918-19.05 13.08c-8.701-7.838-18.81-14.11-29.89-18.43C214.8 48.99 192 41.79 192 24C192 7.078 206.7 0 215.1 0C240.8 0 265.3 52.55 274.9 107.8z"/><path class="fa-secondary" d="M438.2 98.56c-24.98-5.939-49.9-1.373-70.45 10.6c-23.75-13.75-47.3-13.21-47.79-13.21c-.0703 0-.1328 .0664-.2031 .0703C295.2 96.07 272.1 105.6 256 120.9C239 105.6 216.8 96.05 192.1 96.01C192.1 96.01 192.1 95.95 192 95.95c-55.48 0-89.33 53.57-77.47 99.93l44.94 167.1c2.281 8.547-2.812 17.31-11.34 19.59C146.8 383.8 145.3 384 144 384c-7.062 0-13.53-4.719-15.47-11.86L83.56 203.1C73.43 164.4 86.07 124.6 112.8 97.48C100.2 95.24 87.01 95.4 73.76 98.56C22.2 110.8-9.646 162.6 2.633 214.2l53.34 224C66.47 482.3 105.8 512 149.3 512c7.375 0 14.84-.8438 22.34-2.625c11.38-2.711 21.59-7.611 30.79-13.74C217.7 505.1 236.1 512 256 512s38.31-6.035 53.62-16.37c9.195 6.131 19.41 11.03 30.79 13.74C347.9 511.2 355.4 512 362.7 512c43.4 0 82.78-29.68 93.28-73.79l53.34-224C521.6 162.6 489.8 110.8 438.2 98.56z"/></svg>