<svg xmlns="http://www.w3.org/2000/svg" viewBox="0 0 512 512"><!--! Font Awesome Pro 6.0.0-beta3 by @fontawesome - https://fontawesome.com License - https://fontawesome.com/license (Commercial License) Copyright 2021 Fonticons, Inc. --><defs><style>.fa-secondary{opacity:.4}</style></defs><path class="fa-primary" d="M465 134.2c21.46-38.38 19.87-87.17-5.65-123.1c-7.541-10.83-22.31-13.53-33.2-5.938c-10.77 7.578-13.44 22.55-5.896 33.41c14.41 20.76 15.13 47.69 4.098 69.77C407.1 100.1 388 95.1 368 95.1c-36.23 0-68.93 13.83-94.24 35.92L352 165.5V256h90.56l33.53 78.23C498.2 308.9 512 276.2 512 239.1C512 198 493.7 160.6 465 134.2z"/><path class="fa-secondary" d="M467.7 314.8C406.1 407 248.3 512 56 512C25.13 512 0 486.9 0 456s25.12-56 56-56c151.5 0 152.9-188.1 236.1-260.2L352 165.5V256h90.56L467.7 314.8z"/></svg>