<svg xmlns="http://www.w3.org/2000/svg" viewBox="0 0 320 512"><!--! Font Awesome Pro 6.0.0-beta3 by @fontawesome - https://fontawesome.com License - https://fontawesome.com/license (Commercial License) Copyright 2021 Fonticons, Inc. --><defs><style>.fa-secondary{opacity:.4}</style></defs><path class="fa-primary" d="M320 336.2V368c0 17.67-14.33 32-32 32h-64v88c0 13.25-10.75 24-24 24s-24-10.75-24-24V400h-32v88C144 501.3 133.3 512 120 512S96 501.3 96 488V400c-17.67 0-32-14.33-32-32v-128c0-53.02 42.98-96 96-96s96 42.98 96 96v5.943C293.2 259.2 320 294.5 320 336.2z"/><path class="fa-secondary" d="M160 112c30.95 0 56-25.05 56-56S190.1 0 160 0S104 25.05 104 56S129 112 160 112z"/></svg>