<svg xmlns="http://www.w3.org/2000/svg" viewBox="0 0 320 512"><!--! Font Awesome Pro 6.1.1 by @fontawesome - https://fontawesome.com License - https://fontawesome.com/license (Commercial License) Copyright 2022 Fonticons, Inc. --><defs><style>.fa-secondary{opacity:.4}</style></defs><path class="fa-primary" d="M112 48C112 24.22 129.3 4.473 152 .6641V95.34C129.3 91.53 112 71.78 112 48V48zM152 480.2C151.9 497.8 137.6 512 120 512C102.3 512 88 497.7 88 480V384H70.2C59.28 384 51.57 373.3 55.02 362.9L93.28 248.1L59.43 304.5C50.33 319.6 30.67 324.5 15.52 315.4C.3696 306.3-4.531 286.7 4.573 271.5L58.18 182.3C78.06 149.2 113.5 128.8 152 128V480.2z"/><path class="fa-secondary" d="M174.9 128C208.6 128 239.8 145.7 257.2 174.6L315.4 271.5C324.5 286.7 319.6 306.3 304.5 315.4C289.3 324.5 269.7 319.6 260.6 304.5L232 256.9V480C232 497.7 217.7 512 200 512C182.3 512 168 497.7 168 480L168 128H174.9zM168 .6641C190.7 4.472 208 24.22 208 48C208 71.78 190.7 91.53 168 95.34V.6641z"/></svg>