<svg xmlns="http://www.w3.org/2000/svg" viewBox="0 0 640 512"><!--! Font Awesome Pro 6.1.1 by @fontawesome - https://fontawesome.com License - https://fontawesome.com/license (Commercial License) Copyright 2022 Fonticons, Inc. --><defs><style>.fa-secondary{opacity:.4}</style></defs><path class="fa-primary" d="M528 48C528 74.51 506.5 96 480 96C453.5 96 432 74.51 432 48C432 21.49 453.5 0 480 0C506.5 0 528 21.49 528 48zM472 352V480C472 497.7 457.7 512 440 512C422.3 512 408 497.7 408 480V256.9L379.4 304.5C370.3 319.6 350.7 324.5 335.5 315.4C320.4 306.3 315.5 286.7 324.6 271.5L382.9 174.6C400.2 145.7 431.4 128 465.1 128H494.9C528.6 128 559.8 145.7 577.2 174.6L635.4 271.5C644.5 286.7 639.6 306.3 624.5 315.4C609.3 324.5 589.7 319.6 580.6 304.5L552 256.9V480C552 497.7 537.7 512 520 512C502.3 512 488 497.7 488 480V352L472 352z"/><path class="fa-secondary" d="M176 8C182.6 8 188.5 11.1 190.9 18.09L220.3 92.05L296.5 68.93C302.7 67.03 309.5 69.14 313.6 74.27C317.7 79.39 318.2 86.49 314.1 92.18L275.5 161.3L330.7 199.3L306.3 239.8L255.8 247.6L261.4 327C261.8 333.6 258.3 339.7 252.4 342.6C246.5 345.4 239.4 344.4 234.6 339.9L176 286.1L117.4 339.9C112.6 344.4 105.5 345.4 99.64 342.6C93.74 339.7 90.16 333.6 90.62 327L96.21 247.6L17.56 235.4C11.08 234.4 5.876 229.6 4.418 223.2C2.959 216.8 5.545 210.1 10.94 206.4L76.51 161.3L37.02 92.18C33.77 86.49 34.32 79.39 38.4 74.27C42.49 69.14 49.29 67.03 55.56 68.93L131.7 92.05L161.1 18.09C163.6 11.1 169.5 8 176 8V8z"/></svg>