<svg xmlns="http://www.w3.org/2000/svg" viewBox="0 0 256 512"><!--! Font Awesome Pro 6.1.1 by @fontawesome - https://fontawesome.com License - https://fontawesome.com/license (Commercial License) Copyright 2022 Fonticons, Inc. --><defs><style>.fa-secondary{opacity:.4}</style></defs><path class="fa-primary" d="M160 160H96C60.65 160 32 188.7 32 224v96c0 17.67 14.33 32 32 32v128c0 17.67 14.33 32 32 32h64c17.67 0 32-14.33 32-32v-128c17.67 0 32-14.33 32-32V224C224 188.7 195.3 160 160 160z"/><path class="fa-secondary" d="M128 128c35.38 0 64-28.62 64-64s-28.62-64-64-64S64 28.62 64 64S92.63 128 128 128z"/></svg>