<svg xmlns="http://www.w3.org/2000/svg" viewBox="0 0 512 512"><!--! Font Awesome Pro 6.1.1 by @fontawesome - https://fontawesome.com License - https://fontawesome.com/license (Commercial License) Copyright 2022 Fonticons, Inc. --><defs><style>.fa-secondary{opacity:.4}</style></defs><path class="fa-primary" d="M480 224.1c0-11.77-6.512-23.06-17.74-28.7l-52.03-26.1l-17.12-51.15c-6.499-19.42-28.92-44.16-60.06-44.16c-7.648 0-15.84 1.505-24.43 4.934L227.4 111.3l113.7 56.09l10.75 28.99c3.979 12.06 12.49 21.1 23.86 27.65l58.06 28.98c4.554 2.228 9.373 3.284 14.12 3.284C465.4 256.3 480 242.1 480 224.1zM293.1 215.8l-106.1-53.1C185.6 165.8 185.4 169 185.4 172.2c0 16.66 6.536 32.83 18.42 44.86l75.03 75.21l-45.88 68.76l57.32 29.61l49.15-73.82c5.419-8.12 8.09-17.42 8.09-26.63c0-12.38-4.807-24.63-14.09-33.9L293.1 215.8zM432.1 96.02c26.46 0 47.99-21.5 47.99-48.01C480.1 21.49 458.5 0 432.1 0c-26.46 0-47.98 21.49-47.98 48.01C384.1 74.52 405.6 96.02 432.1 96.02z"/><path class="fa-secondary" d="M511.1 469.1c0-12.73-10.17-23.95-23.89-23.95c-19 0-19.16 19.11-46.15 19.11c-5.476 0-10.89-1.101-15.87-3.389L35.95 258.8C32.18 256.6 28.05 255.5 23.98 255.5c-9.602 0-23.98 7.503-23.98 23.99c0 6.176 2.88 16.75 13.99 21.85l390.1 202.5c11.55 5.339 24.37 8.119 37.08 8.119l0 0C480.7 512 511.1 486.8 511.1 469.1zM94.63 68.6C94.63 68.6 94.63 68.6 94.63 68.6C94.63 68.6 94.63 68.6 94.63 68.6C94.63 68.6 94.63 68.6 94.63 68.6C94.63 68.6 94.63 68.6 94.63 68.6l26.16 23.01L109.3 114.1c5.604 2.858 11.68 4.258 17.71 4.258c8.954 0 17.83-3.081 25-9.059l215.9 109.8c-7.453-5.791-13.14-13.71-16.1-22.68l-10.75-28.99l-175.5-87c.0122-.398 .0182-.7953 .0182-1.192c0-14.44-8.025-27.73-20.88-34.42L133.7 66.51l-34.53-7.002c-.3626-.0796-.6031-.0793-.9653-.0793c-3.565 0-5.318 3.168-5.318 5.223C92.85 67.26 94.63 68.55 94.63 68.6z"/></svg>