<svg xmlns="http://www.w3.org/2000/svg" viewBox="0 0 512 512"><!--! Font Awesome Pro 6.1.1 by @fontawesome - https://fontawesome.com License - https://fontawesome.com/license (Commercial License) Copyright 2022 Fonticons, Inc. --><defs><style>.fa-secondary{opacity:.4}</style></defs><path class="fa-primary" d="M311.1 96.01L127.1 96.01c-17.67 0-32 14.33-32 31.99S110.3 160 127.1 160h97.5l-58.88 76.48c-3.401 4.397-62.62 144.3-62.62 155.3c0 8.474 3.402 16.76 9.734 22.89l60.27-30.99l44.88-108.1l121.4-110.5c7.511-7.499 11.78-17.64 11.78-28.25C352 113.9 334.1 96.01 311.1 96.01zM399.1 0c-26.51 0-48 21.49-48 48S373.5 96 399.1 96s48-21.49 48-48S426.5 0 399.1 0z"/><path class="fa-secondary" d="M511.1 205.7c0-.1252 .0637-1.063 .0637-2.631c0-8.303-1.841-32.1-25.06-32.1c-14.45 0-24.08 12.03-24.08 24.11c0 4.072 1.002 5.566 1.002 11.84c0 16.57-8.796 32.25-22.71 40.21L12.95 466.7c-8.232 4.275-12.95 12.61-12.95 21.26C-.0002 506.7 17.18 512 24.06 512c2.305 0 6.381-.3578 10.97-2.733l429.2-220.9C494.1 271.1 511.1 239.4 511.1 205.7z"/></svg>