<svg xmlns="http://www.w3.org/2000/svg" viewBox="0 0 512 512"><!--! Font Awesome Pro 6.0.0-beta3 by @fontawesome - https://fontawesome.com License - https://fontawesome.com/license (Commercial License) Copyright 2021 Fonticons, Inc. --><defs><style>.fa-secondary{opacity:.4}</style></defs><path class="fa-primary" d="M0 479.1c0 17.75 14.25 32.01 32.01 32.01c17.75 0 32-14.25 32-31.1L64.01 405.5C48.01 391.8 .5 350.8 0 350.3V479.1zM140 344.1L96.01 306.3V228.1l22.96 42.97c5.564 10.41 16.41 16.92 28.22 16.92l75.6-.0183L205.8 223.9L166.7 223.9L133.4 162.2C122.2 141.1 100.6 127.9 76.76 127.9h-28.75C21.49 127.9 0 149.4 0 175.9v103c0 18.75 8.251 36.38 22.38 48.63l76.01 65.14l14.13 92.51c1 5.627 10.12 30.63 36.76 26.25c17.5-2.875 29.25-19.38 26.38-36.75l-14.13-92.51C159 367.3 151.4 353.8 140 344.1z"/><path class="fa-secondary" d="M503.5 373.8c-1.125-4.252-5.5-6.752-9.752-5.627l-154.2 41.26c-9.752-12.88-24.26-21.88-40.88-24.51l-59.39-221.7C238.2 159 233.8 156.5 229.4 157.7L198.5 165.9C194.3 167 191.8 171.4 192.8 175.8l59.01 220c-19.83 13.82-31.36 38.47-25.9 65.5c4.867 24.11 24.57 44.13 48.65 49.18c38.95 8.166 72.72-18.62 77.28-54.66l154.2-41.26c4.375-1.125 6.876-5.5 5.751-9.752L503.5 373.8zM288.7 463.1c-8.877 0-16-7.127-16-16c0-8.752 7.127-16 16-16c8.752 0 16 7.252 16 16C304.7 456.9 297.6 463.1 288.7 463.1zM80.01 96.01c26.51 0 48.01-21.5 48.01-48.01S106.6 0 80.01 0C53.38 0 32 21.5 32 48.01S53.5 96.01 80.01 96.01z"/></svg>