<svg xmlns="http://www.w3.org/2000/svg" viewBox="0 0 384 512"><!--! Font Awesome Pro 6.0.0-beta3 by @fontawesome - https://fontawesome.com License - https://fontawesome.com/license (Commercial License) Copyright 2021 Fonticons, Inc. --><defs><style>.fa-secondary{opacity:.4}</style></defs><path class="fa-primary" d="M352 192h-50.75l-46.75-46.75C243.4 134.1 228.6 128 212.9 128c-27 0-50.37 18.25-56.1 44.5L129 280.3C128.4 282.8 128 285.5 128 288.1c0 8.325 3.265 16.44 9.354 22.53l86.62 86.63V480c0 17.62 14.37 32 31.1 32s32-14.38 32-32v-82.75c0-17.12-6.625-33.13-18.75-45.25l-46.87-46.88c.25-.5 .5-.875 .625-1.375l19.1-79.5l22.37 22.38C271.4 252.6 279.5 256 288 256H352c17.67 0 32-14.33 32-32C384 206.3 369.7 192 352 192zM81.01 472.3c-.672 2.63-.993 5.267-.993 7.86c0 14.29 9.748 27.29 24.24 30.89C106.9 511.8 109.5 512 112 512c14.37 0 27.37-9.75 30.1-24.25l25.25-101l-52.75-52.75L81.01 472.3zM240 96c26.5 0 48-21.5 48-48S266.5 0 240 0c-26.5 0-47.1 21.5-47.1 48S213.5 96 240 96z"/><path class="fa-secondary" d="M137.5 113.1c0-7.011-4.986-13.44-12.39-15.13C118.4 96.38 111.7 95.6 105.1 95.6c-36.65 0-70 23.84-79.32 59.53L.5119 253.3C.1636 254.6-.0025 255.9-.0025 257.2c0 7.003 4.96 13.42 12.36 15.11L76.01 287.5c1.339 .3251 2.681 .4806 4.001 .4806c7.31 0 13.97-4.762 15.87-11.86L137 117C137.4 115.7 137.5 114.4 137.5 113.1zM352 256h-15.1v240c0 8.875 7.125 16 15.1 16h15.1C376.9 512 384 504.9 384 496V224C384 241.7 369.7 256 352 256zM368 160h-15.1c-8.875 0-15.1 7.125-15.1 16V192H352c17.67 0 32 14.33 32 32V176C384 167.1 376.9 160 368 160z"/></svg>