<svg xmlns="http://www.w3.org/2000/svg" viewBox="0 0 576 512"><!--! Font Awesome Pro 6.0.0-beta3 by @fontawesome - https://fontawesome.com License - https://fontawesome.com/license (Commercial License) Copyright 2021 Fonticons, Inc. --><defs><style>.fa-secondary{opacity:.4}</style></defs><path class="fa-primary" d="M186.3 332.1l-62.48 131.7h70.86l43.1-90.97l-21.99-12.1C204.1 352.9 194.1 343.4 186.3 332.1zM448 224l-43.9-.0393l-26.11-53.22c-12.49-25.48-35.47-44.18-61.75-50.87l-71.22-21.15c-7.466-1.806-15.06-2.693-22.59-2.693c-20.83 0-41.31 6.79-58.16 19.72L124.6 146.2C116.3 152.5 111.1 162 111.1 171.6c0 17.03 13.6 32.32 32.15 32.32c12.99 0 20.96-7.649 22.79-9.491l36.38-27.89c5.864-4.492 12.89-6.771 19.38-6.771c2.029 0 3.999 .2038 5.878 .6556l14.73 4.383L205.8 252.2C202.3 260.4 200.7 268.9 200.7 277.3c0 22.06 11.41 43.35 31.41 55.22l84.97 50.15l-25.49 81.2h66.98l23.6-75.48c1.213-4.32 1.805-8.705 1.805-13.03c0-16.62-8.635-32.46-23.41-41.34l-61.21-36.1l31.32-78.23l20.26 41.36c8.113 16.39 24.83 26.8 43.11 26.89l54.02-.0223c17.66 0 32.01-14.31 32.01-31.97C480 238.3 465.7 224 448 224zM336 96C362.5 96 384 74.51 384 48S362.5 0 336 0S288 21.49 288 48S309.5 96 336 96z"/><path class="fa-secondary" d="M575.8 443.7c0-15.56-7.674-27.62-23.78-27.67c-13.25 0-24 10.75-24 24c-.0391 13.24-10.76 23.96-24 24h-69.5L460 285.6c-3.798 1.539-7.869 2.284-11.97 2.284C448 287.9 427.3 288 427.3 288l-25.16 176H99.5l52.21-260.9C149.2 203.7 146.7 203.1 144.1 203.1c-8.653 0-17.17-3.477-23.29-9.903L66.88 464H24C10.75 464 0 474.7 0 488S10.75 512 24 512h480C550.3 511.9 575.8 472 575.8 443.7z"/></svg>