<svg xmlns="http://www.w3.org/2000/svg" viewBox="0 0 512 512"><!--! Font Awesome Pro 6.1.1 by @fontawesome - https://fontawesome.com License - https://fontawesome.com/license (Commercial License) Copyright 2022 Fonticons, Inc. --><defs><style>.fa-secondary{opacity:.4}</style></defs><path class="fa-primary" d="M319.9 247.1c0-9.822-4.513-19.17-12.3-25.17c-5.629-4.446-12.62-6.779-19.64-6.779c-2.649 0-5.233 .3286-7.851 1.005L211.8 234L187.7 180.3C179.7 162.6 162.2 152 143.9 152c-37.34 0-48.03 34.2-48.03 48.03c0 6.593 1.387 13.31 4.266 19.71l27.79 68.03c6.553 15.84 17.87 24.41 31.3 24.41c2.748 0 5.562-.3526 8.466-1.083l88.2-22.11v123.2l63.98-23.72L319.9 247.1zM159.1 79.98c0-26.49-21.5-47.99-48.01-47.99S63.96 53.48 63.96 79.98s21.5 47.99 48.01 47.99S159.1 106.5 159.1 79.98z"/><path class="fa-secondary" d="M255.1 0H223.1L223.1 183.9L255.1 175.9L255.1 0zM191.6 381.3c10.06-3.353 16.43-12.66 16.43-22.71c0-13.29-10.75-24.15-23.99-24.15c-2.511 0-5.147 .4142-7.661 1.252l-18.39 6.231c-4.16 1.382-8.404 2.053-12.59 2.053c-15.06 0-29.35-8.557-36.15-22.78L45.69 188.2C41.58 179.6 32.97 174.6 24.02 174.6c-13.48 0-24.02 10.98-24.02 24.05c0 3.458 .7301 6.975 2.321 10.3l63.64 132.1c14.71 30.53 45.61 49.96 79.51 49.99C158 391.9 162.5 390.1 191.6 381.3zM488 287.1c-11.97 0-23.95 8.059-23.1 23.92c-.0488 13.94-8.7 26.38-21.77 31.26L111.6 465.4c-10.13 3.297-16.57 12.56-16.57 22.62c0 2.449 .3821 4.944 1.186 7.411c3.3 10.13 12.7 16.57 22.81 16.57c1.873 0 5.281-.2175 9.175-1.826l330.5-121.9C490.7 376.4 511.9 345.9 512 311.9C512 295.1 500 287.1 488 287.1z"/></svg>