<svg xmlns="http://www.w3.org/2000/svg" viewBox="0 0 384 512"><!--! Font Awesome Pro 6.0.0-beta3 by @fontawesome - https://fontawesome.com License - https://fontawesome.com/license (Commercial License) Copyright 2021 Fonticons, Inc. --><defs><style>.fa-secondary{opacity:.4}</style></defs><path class="fa-primary" d="M32 64C32 46.33 46.33 32 64 32H176C273.2 32 352 110.8 352 208C352 305.2 273.2 384 176 384H96V448C96 465.7 81.67 480 64 480C46.33 480 32 465.7 32 448V64zM96 320H176C237.9 320 288 269.9 288 208C288 146.1 237.9 96 176 96H96V320z"/><path class="fa-secondary" d="M32 192C14.33 192 0 177.7 0 160C0 142.3 14.33 128 32 128V192zM32 288C14.33 288 0 273.7 0 256C0 238.3 14.33 224 32 224V288zM96 288V224H286.9C283.3 248.9 271.5 271.2 254.4 288H96zM351.3 224H352C369.7 224 384 238.3 384 256C384 273.7 369.7 288 352 288H332.8C342.8 268.5 349.2 246.9 351.3 224zM332.8 128H352C369.7 128 384 142.3 384 160C384 177.7 369.7 192 352 192H351.3C349.2 169.1 342.8 147.5 332.8 128zM96 128H254.4C271.5 144.8 283.3 167.1 286.9 192H95.1L96 128z"/></svg>