<svg xmlns="http://www.w3.org/2000/svg" viewBox="0 0 512 512"><!--! Font Awesome Pro 6.1.1 by @fontawesome - https://fontawesome.com License - https://fontawesome.com/license (Commercial License) Copyright 2022 Fonticons, Inc. --><defs><style>.fa-secondary{opacity:.4}</style></defs><path class="fa-primary" d="M512 96c0 13.26-10.74 23.1-23.1 23.1H439.1v48C439.1 181.3 429.3 192 416 192c-13.27 0-23.1-10.74-23.1-23.1V119.1H343.1C330.7 119.1 320 109.3 320 96c0-13.26 10.74-23.1 23.1-23.1H392V23.1C392 10.74 402.7 0 416 0s23.1 10.74 23.1 23.1v48h48C501.3 72 512 82.74 512 96z"/><path class="fa-secondary" d="M493.1 351.2L384.6 304.7c-12.78-5.531-27.8-1.813-36.48 8.969l-44.05 53.81c-69.25-34-125.5-90.28-159.5-159.5l53.83-44.09c10.75-8.781 14.42-23.66 8.984-36.44L160.8 18.93C154.7 5.027 139.7-2.598 124.1 .8079L24.22 24.06C9.969 27.31 0 39.84 0 54.5C0 306.8 205.2 512 457.5 512c14.67 0 27.2-9.969 30.47-24.22l23.25-100.8C514.6 372.4 507 357.2 493.1 351.2z"/></svg>