<svg xmlns="http://www.w3.org/2000/svg" viewBox="0 0 576 512"><!--! Font Awesome Pro 6.0.0-beta3 by @fontawesome - https://fontawesome.com License - https://fontawesome.com/license (Commercial License) Copyright 2021 Fonticons, Inc. --><defs><style>.fa-secondary{opacity:.4}</style></defs><path class="fa-primary" d="M224 256l-.0022 111.1c0 61.88-50.12 111.1-112 111.1S0 429.9 0 367.1V256H224z"/><path class="fa-secondary" d="M299.8 226.2c-3.5-3.5-9.5-3-12.38 .875c-45.25 62.5-40.38 150.1 15.88 206.4c56.38 56.25 144 61.25 206.5 15.88c4-2.875 4.25-8.75 .75-12.25L299.8 226.2zM529.5 207.2c-56.25-56.25-143.9-61.12-206.4-15.87C319.1 194.3 318.8 200.3 322.3 203.8l210.9 210.7c3.5 3.501 9.375 3.125 12.25-.75C590.8 351.1 585.9 263.6 529.5 207.2zM112 32C50.12 32 0 82.12 0 143.1V256h224L224 143.1C224 82.12 173.9 32 112 32z"/></svg>