<svg xmlns="http://www.w3.org/2000/svg" viewBox="0 0 512 512"><!--! Font Awesome Pro 6.0.0-beta3 by @fontawesome - https://fontawesome.com License - https://fontawesome.com/license (Commercial License) Copyright 2021 Fonticons, Inc. --><defs><style>.fa-secondary{opacity:.4}</style></defs><path class="fa-primary" d="M64.01 431.1c-8.832 0-16 7.168-16 16s7.168 16 16 16s16-7.168 16-16S72.84 431.1 64.01 431.1zM448 79.99c8.832 0 16-7.168 16-16s-7.168-16-16-16s-16 7.168-16 16S439.2 79.99 448 79.99zM64.01 47.99c-8.832 0-16 7.168-16 16s7.168 16 16 16s16-7.168 16-16S72.84 47.99 64.01 47.99zM448 431.1c-8.832 0-16 7.168-16 16s7.168 16 16 16s16-7.168 16-16S456.8 431.1 448 431.1zM256 127.1c-70.69 0-128 57.31-128 128c0 70.69 57.31 128 128 128s128-57.31 128-128C384 185.3 326.7 127.1 256 127.1z"/><path class="fa-secondary" d="M476.6 386c22.53-38.11 35.46-82.56 35.46-130S499.1 164.1 476.6 125.9l16.7-16.7c24.99-24.99 24.99-65.5 0-90.5s-65.5-24.99-90.5 0L386.1 35.45c-38.11-22.53-82.56-35.46-130-35.46S164.1 12.92 125.1 35.45L109.3 18.74c-24.99-24.99-65.5-24.99-90.5 0s-24.99 65.5 0 90.5L35.46 125.9C12.94 164.1 .0078 208.5 .0078 255.1s12.93 91.94 35.46 130l-16.7 16.71c-24.99 24.99-24.99 65.5 0 90.5s65.5 24.99 90.5 0l16.7-16.71c38.11 22.53 82.56 35.46 130 35.46s91.94-12.93 130-35.46l16.7 16.71c24.99 24.99 65.5 24.99 90.5 0s24.99-65.5 0-90.5L476.6 386zM64.01 463.1c-8.832 0-16-7.168-16-16s7.168-16 16-16s16 7.168 16 16S72.84 463.1 64.01 463.1zM64.01 79.99c-8.832 0-16-7.168-16-16s7.168-16 16-16s16 7.168 16 16S72.84 79.99 64.01 79.99zM405 314.5c-16.26 41.34-49.18 74.27-90.53 90.53c-18.11 7.104-37.82 11.01-58.46 11.01s-40.35-3.904-58.46-11.01c-41.34-16.26-74.27-49.19-90.53-90.53c-7.104-18.11-11.01-37.82-11.01-58.46c0-20.64 3.904-40.35 11.01-58.46C123.3 156.2 156.2 123.3 197.5 107c18.11-7.104 37.82-11.01 58.46-11.01s40.35 3.904 58.46 11.01c41.34 16.26 74.27 49.18 90.53 90.53c7.104 18.11 11.01 37.82 11.01 58.46C416 276.6 412.1 296.3 405 314.5zM448 463.1c-8.832 0-16-7.168-16-16s7.168-16 16-16s16 7.168 16 16S456.8 463.1 448 463.1zM448 79.99c-8.832 0-16-7.168-16-16s7.168-16 16-16s16 7.168 16 16S456.8 79.99 448 79.99z"/></svg>