<svg xmlns="http://www.w3.org/2000/svg" viewBox="0 0 512 512"><!--! Font Awesome Pro 6.0.0-beta3 by @fontawesome - https://fontawesome.com License - https://fontawesome.com/license (Commercial License) Copyright 2021 Fonticons, Inc. --><defs><style>.fa-secondary{opacity:.4}</style></defs><path class="fa-primary" d="M412.6 119.4c-38.13-43.69-94.09-71.41-156.6-71.41c-114.9 0-207.1 93.1-207.1 207.1c0 62.54 27.71 118.5 71.4 156.6c39.04-18.52 100.8-66.4 163.8-129.4C346.2 220.2 394.1 158.5 412.6 119.4zM448.1 176.3c-31.97 46.03-74.53 96.85-124.8 147.1s-101.1 92.81-147.1 124.8c24.56 10.21 51.47 15.83 79.73 15.83c114.9 0 207.1-93.1 207.1-207.1C463.1 227.7 458.3 200.8 448.1 176.3z"/><path class="fa-secondary" d="M323.4 323.4c-136.4 136.4-277.2 216.7-314.3 179.5c-23.5-23.47-.01-88.2 54.84-167.1c6.229 14.92 14.7 28.43 24.05 41.37c-9.807 19.82-12.64 34.3-6.399 40.54c18.56 18.56 108.9-41.63 201.7-134.5c92.82-92.82 153-183.1 134.5-201.7c-6.24-6.24-20.72-3.406-40.54 6.401c-12.94-9.348-26.45-17.82-41.37-24.05c78.95-54.85 143.7-78.34 167.1-54.84C540.1 46.19 459.7 186.1 323.4 323.4z"/></svg>