<svg xmlns="http://www.w3.org/2000/svg" viewBox="0 0 576 512"><!--! Font Awesome Pro 6.0.0-beta3 by @fontawesome - https://fontawesome.com License - https://fontawesome.com/license (Commercial License) Copyright 2021 Fonticons, Inc. --><defs><style>.fa-secondary{opacity:.4}</style></defs><path class="fa-primary" d="M512 0c-35.38 0-64 28.62-64 64s28.62 63.1 64 63.1s64-28.62 64-63.1S547.4 0 512 0zM89.75 256h24.1c8.5 0 16.62 3.375 22.62 9.375L192 320v32c0 17.62 14.38 32 32 32v63.13c0 4.5 1.875 8.75 5.25 11.88c3.375 3.001 7.875 4.5 12.38 4c3.5-.375 7-.75 10.38-1.375c9-1.5 16.88-7.25 20.88-15.5l40.38-80.63C317.6 356.6 320 346.9 320 336.9V320c0-17.62-14.38-32-32-32H223.5c-10 0-19.38-3.875-26.38-10.88C185.3 265.3 184.5 246.1 195.5 233.5l49.75-57.38C267.8 142.2 242.8 95.21 220 64.2C129.9 65.79 52.92 120.4 18.82 198.3C41.25 225.6 76.71 256 89.75 256z"/><path class="fa-secondary" d="M448 288c0 123.8-100.3 224-224 224s-224-100.3-224-224c0-31.94 6.783-62.26 18.82-89.75C41.25 225.6 76.71 256 89.75 256h24.1c8.5 0 16.62 3.375 22.62 9.375L192 320v32c0 17.62 14.38 32 32 32v63.13c0 4.5 1.875 8.75 5.25 11.88c3.375 3.001 7.875 4.5 12.38 4c3.5-.375 7-.75 10.38-1.375c9-1.5 16.88-7.25 20.88-15.5l40.38-80.63C317.6 356.6 320 346.9 320 336.9V320c0-17.62-14.38-32-32-32H223.5c-10 0-19.38-3.875-26.38-10.88C185.3 265.3 184.5 246.1 195.5 233.5l49.75-57.38C267.8 142.2 242.8 95.21 220 64.2C221.4 64.18 222.7 64 224 64C347.8 64 448 164.3 448 288z"/></svg>