<svg xmlns="http://www.w3.org/2000/svg" viewBox="0 0 448 512"><!--! Font Awesome Pro 6.1.1 by @fontawesome - https://fontawesome.com License - https://fontawesome.com/license (Commercial License) Copyright 2022 Fonticons, Inc. --><defs><style>.fa-secondary{opacity:.4}</style></defs><path class="fa-primary" d="M448 167.1c0 13.25-10.75 24-24 24h-400C10.75 191.1 0 181.3 0 167.1c0-13.25 10.75-24 23.1-24L79.38 143.1c6.75-53.75 46.5-97.13 98.5-108.8C183.5 14.1 201.1 0 224 0l62.2-.0001c23.21 0 44.5 15.69 48.89 38.48C340.1 69.15 317.6 95.1 288 95.1h-64c-13.25 0-25.25-5.375-33.88-13.1c-32 6.749-56.38 31.12-62.75 61.1L424 143.1C437.3 143.1 448 154.7 448 167.1z"/><path class="fa-secondary" d="M400 191.1l-29.12 291.2c-1.636 16.36-15.24 28.82-31.68 28.82H108.8c-16.44 0-30.05-12.46-31.68-28.82L48 191.1H400z"/></svg>