<svg xmlns="http://www.w3.org/2000/svg" viewBox="0 0 640 512"><!--! Font Awesome Pro 6.0.0-beta3 by @fontawesome - https://fontawesome.com License - https://fontawesome.com/license (Commercial License) Copyright 2021 Fonticons, Inc. --><defs><style>.fa-secondary{opacity:.4}</style></defs><path class="fa-primary" d="M32 48C32 21.49 53.49 0 80 0C106.5 0 128 21.49 128 48C128 74.51 106.5 96 80 96C53.49 96 32 74.51 32 48zM96 128C131.3 128 160 156.7 160 192C160 209.7 145.7 224 128 224H32C14.33 224 0 209.7 0 192C0 156.7 28.65 128 64 128H96zM128 336C128 362.5 106.5 384 80 384C53.49 384 32 362.5 32 336C32 309.5 53.49 288 80 288C106.5 288 128 309.5 128 336zM96 416C131.3 416 160 444.7 160 480C160 497.7 145.7 512 128 512H32C14.33 512 0 497.7 0 480C0 444.7 28.65 416 64 416H96zM224 80C224 53.49 245.5 32 272 32H480V192H272C245.5 192 224 170.5 224 144V80zM224 368C224 341.5 245.5 320 272 320H384V480H272C245.5 480 224 458.5 224 432V368z"/><path class="fa-secondary" d="M480 128H576V96H480V32H592C618.5 32 640 53.49 640 80V144C640 170.5 618.5 192 592 192H480V128zM384 416H576V384H384V320H592C618.5 320 640 341.5 640 368V432C640 458.5 618.5 480 592 480H384V416z"/></svg>