<svg xmlns="http://www.w3.org/2000/svg" viewBox="0 0 512 512"><!--! Font Awesome Pro 6.0.0-beta3 by @fontawesome - https://fontawesome.com License - https://fontawesome.com/license (Commercial License) Copyright 2021 Fonticons, Inc. --><defs><style>.fa-secondary{opacity:.4}</style></defs><path class="fa-primary" d="M393.9 240c26.65-23.03 29.62-63.29 6.586-89.93C388.3 135.1 370.6 127.9 351.1 128h-5.879c5.898-16.25 7.366-33.76 4.323-50.78c-9.375-51.14-58.4-85.04-109.6-75.7c25.78 35.74 17.67 85.63-18.08 111.4C209.1 122.8 192.8 128 175.9 128H159.9c-35.22-.1699-63.98 28.24-64.15 63.45C95.69 210.1 103.9 227.8 117.1 240H393.9zM451.4 369.1l.3926-.2988c-3.574-.5547-7.187-.8339-10.8-.8398H70.84c-3.605 .0059-7.203 .287-10.76 .8398c.1387 .1094 .332 .208 .4824 .3076c-39.2 6.297-65.94 43.19-59.64 82.38C6.518 486.4 36.64 511.1 71.92 512h368.1C479.7 512.1 511.9 479.8 512 440.1C512.1 404.7 486.3 374.7 451.4 369.1z"/><path class="fa-secondary" d="M479.1 311v2c.0199 21.89-10.07 42.55-27.35 55.1c-3.854-.6527-7.755-.9873-11.66-1H70.84c-3.909 .0128-7.81 .3474-11.66 1c-17.27-13.45-27.37-34.11-27.35-55.1v-2c0-39.21 31.8-70.1 71.02-70.1h306.1C448.2 240 479.1 271.8 479.1 311z"/></svg>