<svg xmlns="http://www.w3.org/2000/svg" viewBox="0 0 576 512"><!--! Font Awesome Pro 6.0.0-beta3 by @fontawesome - https://fontawesome.com License - https://fontawesome.com/license (Commercial License) Copyright 2021 Fonticons, Inc. --><defs><style>.fa-secondary{opacity:.4}</style></defs><path class="fa-primary" d="M192 392c-13.24 0-24 10.76-24 24c0 13.24 10.76 24 24 24S216 429.2 216 416C216 402.8 205.2 392 192 392zM224 200C210.8 200 200 210.8 200 224c0 13.24 10.76 24 24 24S248 237.2 248 224C248 210.8 237.2 200 224 200zM416 168c-13.24 0-24 10.76-24 24c0 13.24 10.76 24 24 24S440 205.2 440 192C440 178.8 429.2 168 416 168z"/><path class="fa-secondary" d="M396.2 0C319.5 0 283.7 78.93 241.1 93.7c-48.8 15.31-79 57.07-105.9 94.16C93.38 246.9 32 289.6 32 368.8C32 441.6 93.46 512 175.2 512c27.65 0 54.59-8.455 77.88-24.47c41.96-28.86 126.3-31.88 165.6-93.17c13.24-20.78 22.18-40.1 30.85-60.6C490.5 241 544 227.1 544 147.5C544 65.79 464.1 0 396.2 0zM192 440c-13.24 0-24-10.76-24-24c0-13.24 10.76-24 24-24S216 402.8 216 416C216 429.2 205.2 440 192 440zM224 248C210.8 248 200 237.2 200 224c0-13.24 10.76-24 24-24S248 210.8 248 224C248 237.2 237.2 248 224 248zM416 216c-13.24 0-24-10.76-24-24c0-13.24 10.76-24 24-24S440 178.8 440 192C440 205.2 429.2 216 416 216z"/></svg>