<svg xmlns="http://www.w3.org/2000/svg" viewBox="0 0 384 512"><!--! Font Awesome Pro 6.0.0-beta3 by @fontawesome - https://fontawesome.com License - https://fontawesome.com/license (Commercial License) Copyright 2021 Fonticons, Inc. --><defs><style>.fa-secondary{opacity:.4}</style></defs><path class="fa-primary" d="M360 0H24C10.75 0 0 10.75 0 24v48C0 85.25 10.75 96 24 96h336C373.3 96 384 85.25 384 72v-48C384 10.75 373.3 0 360 0zM144 175.1L32 176v31.1h112c8.836 0 16-7.164 16-16S152.8 175.1 144 175.1zM144 272H32v32h112C152.8 304 160 296.8 160 288S152.8 272 144 272zM144 368H32v32h112C152.8 400 160 392.8 160 384S152.8 368 144 368z"/><path class="fa-secondary" d="M32 176l112 0c8.801 0 16 7.199 16 16c0 8.799-7.199 16-16 16H32V272h112C152.8 272 160 279.2 160 288c0 8.799-7.199 16-16 16H32v64h112C152.8 368 160 375.2 160 384c0 8.799-7.199 16-16 16H32V448c0 35.2 28.8 64 64 64h192c35.2 0 64-28.8 64-64V96H32V176z"/></svg>