<svg xmlns="http://www.w3.org/2000/svg" viewBox="0 0 640 512"><!--! Font Awesome Pro 6.1.1 by @fontawesome - https://fontawesome.com License - https://fontawesome.com/license (Commercial License) Copyright 2022 Fonticons, Inc. --><defs><style>.fa-secondary{opacity:.4}</style></defs><path class="fa-primary" d="M634.9 502.8c-8.125 10.41-23.19 12.28-33.69 4.078L9.188 42.89c-10.44-8.172-12.26-23.27-4.068-33.7C9.839 3.158 16.91 0 24.03 0c5.156 0 10.37 1.673 14.78 5.111l591.1 463.1C641.2 477.3 643.1 492.4 634.9 502.8z"/><path class="fa-secondary" d="M448 447.8L192 448v-96h133.8L122.4 192.6C89.7 195.5 64 222.6 64 256v96c0 17.67 14.33 32 32 32h32v96c0 17.67 14.33 32 32 32h320c12.25 0 22.54-7.119 27.92-17.23L448 447.8zM192 64h229.5L448 90.51V160h64V77.25c0-8.484-3.375-16.62-9.375-22.62l-45.25-45.25C451.4 3.375 443.2 0 434.8 0H160C142.3 0 128 14.33 128 32v43.01l64 50.16V64zM512 192H277.3l244.1 192H544c17.67 0 32-14.33 32-32V256C576 220.7 547.3 192 512 192zM496 296c-13.25 0-24-10.75-24-24c0-13.27 10.75-24 24-24s24 10.73 24 24C520 285.3 509.3 296 496 296z"/></svg>