<svg xmlns="http://www.w3.org/2000/svg" viewBox="0 0 640 512"><!--! Font Awesome Pro 6.1.1 by @fontawesome - https://fontawesome.com License - https://fontawesome.com/license (Commercial License) Copyright 2022 Fonticons, Inc. --><defs><style>.fa-secondary{opacity:.4}</style></defs><path class="fa-primary" d="M32 192C14.4 192 0 206.3 0 224v160c0 17.66 14.4 32 32 32s32-14.34 32-32V224C64 206.3 49.6 192 32 192zM320 0H160C142.4 0 128 14.34 128 32s14.4 32 32 32h160c17.6 0 32-14.34 32-32S337.6 0 320 0zM608 96h-140.5C454.7 96 442.2 99.74 432 106.8l-65.6 43.74C357.4 156.4 352 166.4 352 177.1v253.8c0 10.69 5.441 20.67 14.4 26.62L432 501.2C442.2 508.3 454.7 512 467.5 512H608c17.6 0 32-14.34 32-32V128C640 110.3 625.6 96 608 96zM560 416h-96c-8.961 0-16-7.168-16-16s7.039-16 16-16h96c8.961 0 16 7.168 16 16S568.1 416 560 416zM560 320h-96C455 320 448 312.8 448 304S455 288 464 288h96C568.1 288 576 295.2 576 304S568.1 320 560 320zM560 224h-96C455 224 448 216.8 448 208S455 192 464 192h96C568.1 192 576 199.2 576 208S568.1 224 560 224z"/><path class="fa-secondary" d="M320 64v160v160H160H64V224h96V64H320z"/></svg>