<svg xmlns="http://www.w3.org/2000/svg" viewBox="0 0 384 512"><!--! Font Awesome Pro 6.0.0-beta3 by @fontawesome - https://fontawesome.com License - https://fontawesome.com/license (Commercial License) Copyright 2021 Fonticons, Inc. --><defs><style>.fa-secondary{opacity:.4}</style></defs><path class="fa-primary" d="M379.3 94.06l-43.32-43.32C323.1 38.74 307.7 32 290.8 32h-66.75c0-17.67-14.33-32-32-32H127.1c-17.67 0-32 14.33-32 32l-.0003 128h128l.0002-64h66.75l43.31 43.31c6.248 6.248 16.38 6.248 22.63 0l22.62-22.62C385.6 110.4 385.6 100.3 379.3 94.06zM152 259.1c-16.33 21.8-52.03 72.27-52.03 97.27C99.1 389.7 126.9 416 159.1 416s59.1-26.33 59.1-58.75c0-25-35.7-75.47-52.03-97.27C163.1 254.7 156 254.7 152 259.1z"/><path class="fa-secondary" d="M299.4 218.2C296.4 185.2 268.7 160 235.6 160H84.37C51.27 160 23.63 185.2 20.63 218.2l-20.36 224C-3.139 479.7 26.37 512 64.01 512h191.1c37.63 0 67.14-32.31 63.74-69.79L299.4 218.2zM159.1 416c-33.13 0-60-26.33-60-58.75c0-25 35.7-75.47 52.03-97.27c3.984-5.312 11.95-5.312 15.94 0c16.33 21.8 52.03 72.27 52.03 97.27C219.1 389.7 193.1 416 159.1 416z"/></svg>