<svg xmlns="http://www.w3.org/2000/svg" viewBox="0 0 640 512"><!--! Font Awesome Pro 6.0.0-beta3 by @fontawesome - https://fontawesome.com License - https://fontawesome.com/license (Commercial License) Copyright 2021 Fonticons, Inc. --><defs><style>.fa-secondary{opacity:.4}</style></defs><path class="fa-primary" d="M640 256c0 35.35-21.49 64-48 64c-32.43 0-31.72-32-55.64-32C522.9 288 512 298.9 512 312.4V416c0 17.67-14.33 32-32 32h-103.6C362.9 448 352 437.1 352 423.6C352 399.1 384 400.4 384 368c0-26.51-28.65-48-64-48s-64 21.49-64 48c0 32.43 32 31.72 32 55.64C288 437.1 277.1 448 263.6 448H160c-17.67 0-32-14.33-32-32V312.4C128 298.9 117.1 288 103.6 288C79.95 288 80.4 320 48 320c-26.51 0-47.1-28.65-47.1-64S21.49 191.1 48 191.1c32.43 0 31.72 32 55.64 32C117.1 223.1 128 213.1 128 199.6V95.1C128 78.33 142.3 63.1 160 63.1l103.6 0C277.1 63.1 288 74.9 288 88.36C288 112 256 111.6 256 143.1C256 170.5 284.7 192 320 192s64-21.49 64-48c0-32.43-32-31.72-32-55.64c0-13.45 10.91-24.36 24.36-24.36L480 63.1c17.67 0 32 14.33 32 32v103.6c0 13.45 10.91 24.36 24.36 24.36c23.69 0 23.24-32 55.64-32C618.5 191.1 640 220.7 640 256z"/></svg>