<svg xmlns="http://www.w3.org/2000/svg" viewBox="0 0 640 512"><!--! Font Awesome Pro 6.0.0-beta3 by @fontawesome - https://fontawesome.com License - https://fontawesome.com/license (Commercial License) Copyright 2021 Fonticons, Inc. --><defs><style>.fa-secondary{opacity:.4}</style></defs><path class="fa-primary" d="M313.5 224.2C244.8 227.6 192 286.9 192 355.7V464C192 472.8 199.2 480 208 480h32C248.8 480 256 472.8 256 464v-109.7c0-34.06 25.65-63.85 59.64-66.11C352.9 285.7 384 315.3 384 352v112c0 8.836 7.164 16 16 16h32c8.838 0 16-7.164 16-16V352C448 279.3 387 220.5 313.5 224.2zM312.3 32.09C137.6 36.22 0 183.3 0 358V464C0 472.8 7.164 480 16 480h32C56.84 480 64 472.8 64 464v-106.9c0-143.2 117.2-263.5 260.4-261.1C463.5 98.4 576 212.3 576 352v112c0 8.836 7.164 16 16 16h32c8.838 0 16-7.164 16-16V352C640 172.1 492.3 27.84 312.3 32.09z"/><path class="fa-secondary" d="M544 352v112c0 8.836-7.162 16-16 16h-32c-8.836 0-16-7.164-16-16V352c0-90.27-75.16-163.3-166.2-159.9C227.2 195.4 160 269.3 160 355.9V464C160 472.8 152.8 480 144 480h-32C103.2 480 96 472.8 96 464v-107.2c0-121.9 95.39-225 217.2-228.7C439.8 124.3 544 226.2 544 352z"/></svg>