<svg xmlns="http://www.w3.org/2000/svg" viewBox="0 0 576 512"><!--! Font Awesome Pro 6.1.1 by @fontawesome - https://fontawesome.com License - https://fontawesome.com/license (Commercial License) Copyright 2022 Fonticons, Inc. --><defs><style>.fa-secondary{opacity:.4}</style></defs><path class="fa-primary" d="M569.4 119.4c-4.25-3.002-9.5-3.877-14.38-2.25L480 142.2h-64v64.01h64.13l74.75 25c4.875 1.625 10.25 .751 14.5-2.251C573.5 225.9 576 221.1 576 215.9V132.4C576 127.2 573.5 122.4 569.4 119.4zM112 64.01c-61.86 0-112 50.14-112 111.1c0 59.26 46.17 107.3 104.4 111.2l-70.48 120.8c-6.375 11-8.125 24.13-4.75 36.38c3.25 12.38 11.38 22.88 22.38 29.13l55.38 32c11.12 6.375 24.12 8.125 36.5 4.875c12.25-3.375 22.75-11.38 29.12-22.38L288 288V75.21C273.4 68.24 257.3 64.01 240 64.01L112 64.01zM112 199.1c-13.25 0-24-10.75-24-24c0-13.25 10.75-24 24-24s24 10.75 24 24C136 189.2 125.3 199.1 112 199.1zM208 199.1c-13.25 0-24-10.75-24-24c0-13.25 10.75-24 24-24s24 10.75 24 24C232 189.2 221.3 199.1 208 199.1z"/><path class="fa-secondary" d="M320 31.97h-16c-8.75 0-16 7.128-16 16v256c0 8.752 7.25 16 16 16H320c8.75 0 15.88-6.999 16-15.75V47.72C335.9 38.97 328.8 31.97 320 31.97zM400 63.99L384 63.97c-8.75 0-16 7.126-16 16v192c0 8.752 7.25 16 16 16L400 288c8.875 0 16-7.25 16-16V79.99C416 71.12 408.9 63.99 400 63.99zM64 16.01v59.22c14.6-6.969 30.75-11.22 48-11.22l79.06-.0078L88.23 2.309C77.57-4.09 64 3.573 64 16.01z"/></svg>