<svg xmlns="http://www.w3.org/2000/svg" viewBox="0 0 512 512"><!--! Font Awesome Pro 6.0.0-beta3 by @fontawesome - https://fontawesome.com License - https://fontawesome.com/license (Commercial License) Copyright 2021 Fonticons, Inc. --><defs><style>.fa-secondary{opacity:.4}</style></defs><path class="fa-primary" d="M240 256c0-6.719-2.828-13.16-7.781-17.69l-96-88C126.5 141.4 111.3 142 102.3 151.8S94.02 176.8 103.8 185.7L180.5 256l-76.7 70.31c-9.766 8.938-10.42 24.12-1.469 33.91C107 365.4 113.5 368 120 368c5.797 0 11.61-2.094 16.22-6.312l96-88C237.2 269.2 240 262.7 240 256zM392 336h-144C234.8 336 224 346.8 224 360S234.8 384 248 384h144c13.25 0 24-10.75 24-24S405.3 336 392 336z"/><path class="fa-secondary" d="M448 32H64C28.65 32 0 60.66 0 96v320c0 35.34 28.65 64 64 64h384c35.35 0 64-28.66 64-64V96C512 60.66 483.3 32 448 32zM120 368c-6.484 0-12.95-2.625-17.69-7.781c-8.953-9.781-8.297-24.97 1.469-33.91L180.5 256L103.8 185.7C94.02 176.8 93.36 161.6 102.3 151.8s24.14-10.41 33.91-1.469l96 88C237.2 242.8 240 249.3 240 256S237.2 269.2 232.2 273.7l-96 88C131.6 365.9 125.8 368 120 368zM392 384h-144C234.8 384 224 373.3 224 360s10.75-24 24-24h144c13.25 0 24 10.75 24 24S405.3 384 392 384z"/></svg>