<svg xmlns="http://www.w3.org/2000/svg" viewBox="0 0 576 512"><!--! Font Awesome Pro 6.0.0-beta3 by @fontawesome - https://fontawesome.com License - https://fontawesome.com/license (Commercial License) Copyright 2021 Fonticons, Inc. --><defs><style>.fa-secondary{opacity:.4}</style></defs><path class="fa-primary" d="M0 80C0 53.49 21.49 32 48 32H272C298.5 32 320 53.49 320 80V208C320 234.5 298.5 256 272 256H48C21.49 256 0 234.5 0 208V80z"/><path class="fa-secondary" d="M528 32C554.5 32 576 53.49 576 80V336C576 362.5 554.5 384 528 384H432C405.5 384 384 362.5 384 336V80C384 53.49 405.5 32 432 32H528zM288 304C314.5 304 336 325.5 336 352V432C336 458.5 314.5 480 288 480H112C85.49 480 64 458.5 64 432V352C64 325.5 85.49 304 112 304H288z"/></svg>