<svg xmlns="http://www.w3.org/2000/svg" viewBox="0 0 448 512"><!--! Font Awesome Pro 6.0.0-beta3 by @fontawesome - https://fontawesome.com License - https://fontawesome.com/license (Commercial License) Copyright 2021 Fonticons, Inc. --><defs><style>.fa-secondary{opacity:.4}</style></defs><path class="fa-primary" d="M.0228 287.1V223.1c0-17.67 14.34-32 32.02-32L160.1 191.1l.0343-72c0-9.58 5.708-18.25 14.51-22.05c8.803-3.781 19.03-1.984 26 4.594l144.1 136c9.602 9.062 9.602 25.84 0 34.91l-144.1 136c-6.973 6.578-17.2 8.375-26 4.594C165.8 410.3 160.1 401.6 160.1 392L160.1 319.1L32.05 319.1C14.36 319.1 .0228 305.7 .0228 287.1z"/><path class="fa-secondary" d="M415.1 63.99C398.3 63.99 384 78.32 384 95.99v320C384 433.7 398.3 448 415.1 448C433.7 448 448 433.7 448 416V95.99C448 78.32 433.7 63.99 415.1 63.99z"/></svg>