<svg xmlns="http://www.w3.org/2000/svg" viewBox="0 0 640 512"><!--! Font Awesome Pro 6.1.1 by @fontawesome - https://fontawesome.com License - https://fontawesome.com/license (Commercial License) Copyright 2022 Fonticons, Inc. --><defs><style>.fa-secondary{opacity:.4}</style></defs><path class="fa-primary" d="M0 416C0 398.3 14.33 384 32 384H608C625.7 384 640 398.3 640 416C640 433.7 625.7 448 608 448H32C14.33 448 0 433.7 0 416z"/><path class="fa-secondary" d="M191.1 255.1V116.8C191.1 101 212.5 94.79 221.3 107.1L319.1 255.1V116.8C319.1 101 340.5 94.79 349.3 107.1L448 255.1V116.8C448 101 468.5 94.79 477.3 107.1L606.8 302.2C621 323.5 605.8 351.1 580.2 351.1H64V116.8C64 101 84.53 94.79 93.31 107.1L191.1 255.1z"/></svg>