<svg xmlns="http://www.w3.org/2000/svg" viewBox="0 0 512 512"><!--! Font Awesome Pro 6.0.0-beta3 by @fontawesome - https://fontawesome.com License - https://fontawesome.com/license (Commercial License) Copyright 2021 Fonticons, Inc. --><defs><style>.fa-secondary{opacity:.4}</style></defs><path class="fa-primary" d="M223.7 391.9C219.7 335.1 174.6 291.3 118.4 288.2C139.8 240.3 176.8 161.6 207.2 116.7C289.1-4.07 411.1-8.142 483.9 5.275C495.6 7.414 504.6 16.43 506.7 28.06C520.1 100.9 516.1 222.9 395.3 304.8C350.6 335 272.2 370.9 223.7 391.9V391.9zM384 88C361.9 88 344 105.9 344 128C344 150.1 361.9 168 384 168C406.1 168 424 150.1 424 128C424 105.9 406.1 88 384 88z"/><path class="fa-secondary" d="M23.1 288C15.33 288 7.334 283.3 3.083 275.8C-1.168 268.2-1.014 258.1 3.487 251.5L56.26 164.7C69.31 143.2 92.64 130 117.8 130H198.6C170.1 175.9 137.9 244.5 118.5 288H23.1zM381.1 394.2C381.1 419.4 368.8 442.7 347.3 455.8L260.5 508.5C253 513 243.8 513.2 236.2 508.9C228.7 504.7 223.1 496.7 223.1 488V391.8C267.9 372.8 336.4 341.5 381.1 313.4L381.1 394.2zM166.5 470C117 519.5 .4765 511.5 .4765 511.5C.4765 511.5-7.516 394.1 41.98 345.5C76.37 311.1 132.1 311.1 166.5 345.5C200.9 379.9 200.9 435.6 166.5 470zM119.8 392.2C108.3 380.8 89.81 380.8 78.38 392.2C61.92 408.7 64.58 447.4 64.58 447.4C64.58 447.4 103.3 450.1 119.8 433.6C131.2 422.2 131.2 403.7 119.8 392.2z"/></svg>