<svg xmlns="http://www.w3.org/2000/svg" viewBox="0 0 512 512"><!--! Font Awesome Pro 6.1.1 by @fontawesome - https://fontawesome.com License - https://fontawesome.com/license (Commercial License) Copyright 2022 Fonticons, Inc. --><defs><style>.fa-secondary{opacity:.4}</style></defs><path class="fa-primary" d="M62.07 39.96l137.1 138c17.01 17.02 4.955 46.1-19.1 46.1H35.17C24.58 224.1 16 215.5 16 204.9V59.04C16 34.99 45.07 22.95 62.07 39.96z"/><path class="fa-secondary" d="M480 256c0 123.4-100.5 223.9-223.9 223.9c-48.84 0-95.17-15.58-134.2-44.86c-14.12-10.59-16.97-30.66-6.375-44.81c10.59-14.12 30.62-16.94 44.81-6.375c27.84 20.91 61 31.94 95.88 31.94C344.3 415.8 416 344.1 416 256s-71.69-159.8-159.8-159.8c-37.46 0-73.09 13.49-101.3 36.64L109.7 87.59C149.9 52.71 201.5 32.11 256.1 32.11C379.5 32.11 480 132.6 480 256z"/></svg>