<svg xmlns="http://www.w3.org/2000/svg" viewBox="0 0 512 512"><!--! Font Awesome Pro 6.0.0-beta3 by @fontawesome - https://fontawesome.com License - https://fontawesome.com/license (Commercial License) Copyright 2021 Fonticons, Inc. --><defs><style>.fa-secondary{opacity:.4}</style></defs><path class="fa-primary" d="M468.9 32.11c13.87 0 27.18 10.77 27.18 27.04v145.9c0 10.59-8.584 19.17-19.17 19.17h-145.7c-16.28 0-27.06-13.32-27.06-27.2c0-6.634 2.461-13.4 7.96-18.9l137.1-138C455.5 34.57 462.3 32.11 468.9 32.11z"/><path class="fa-secondary" d="M371 377.6c18.48 0 31.97 15.04 31.97 31.96c0 35.04-81.59 70.41-147 70.41c-123.4 0-223.9-100.5-223.9-223.9s100.5-223.1 223.9-223.1c54.6 0 106.3 20.75 146.5 55.63l-45.24 45.27c-28.22-23.14-63.85-36.64-101.3-36.64c-88.09 0-159.8 71.69-159.8 159.8S167.8 415.9 255.9 415.9C329 415.9 345.3 377.6 371 377.6z"/></svg>