<svg xmlns="http://www.w3.org/2000/svg" viewBox="0 0 448 512"><!--! Font Awesome Pro 6.0.0-beta3 by @fontawesome - https://fontawesome.com License - https://fontawesome.com/license (Commercial License) Copyright 2021 Fonticons, Inc. --><defs><style>.fa-secondary{opacity:.4}</style></defs><path class="fa-primary" d="M245.1 7.371C282.7 29.89 329.1 31.67 368.2 12.1L369.7 11.38C384.9 3.783 403.4 9.378 411.8 24.12L443.8 80.12C449.1 89.41 449.4 100.7 444.6 110.3L428.4 142.8C420.7 158.1 416.5 174.9 416 192H31.96C31.48 174.9 27.28 158.1 19.62 142.8L3.378 110.3C-1.407 100.7-1.092 89.41 4.216 80.12L36.22 24.12C44.64 9.378 63.12 3.783 78.31 11.38L79.75 12.1C118.9 31.67 165.3 29.89 202.9 7.371L207.5 4.56C217.7-1.52 230.3-1.52 240.5 4.56L245.1 7.371z"/><path class="fa-secondary" d="M31.96 192H416C416 193.1 416 194.2 416 195.2C416 210.2 418.8 224.1 424.4 238.8L438.7 274.5C444.8 289.9 448 306.4 448 323C448 372.5 420 417.8 375.8 439.9L238.3 508.6C229.3 513.1 218.7 513.1 209.7 508.6L72.24 439.9C27.97 417.8 0 372.5 0 323C0 306.4 3.172 289.9 9.348 274.5L23.61 238.8C29.15 224.1 32 210.2 32 195.2C32 194.2 31.98 193.1 31.96 192V192zM384 322.9V323.1V323V322.9z"/></svg>