<svg xmlns="http://www.w3.org/2000/svg" viewBox="0 0 576 512"><!--! Font Awesome Pro 6.0.0-beta3 by @fontawesome - https://fontawesome.com License - https://fontawesome.com/license (Commercial License) Copyright 2021 Fonticons, Inc. --><defs><style>.fa-secondary{opacity:.4}</style></defs><path class="fa-primary" d="M528 320H376V247.1c0-13.25-10.74-23.1-23.1-23.1C338.7 223.1 328 234.7 328 247.1v72.01H48c-26.51 0-48 21.48-48 47.99v96C0 490.5 21.49 512 47.1 512H528c26.51 0 48-21.49 48-48v-96C576 341.5 554.5 320 528 320zM96 448c-17.62 0-32-14.38-32-31.1c0-17.62 14.38-31.1 32-31.1s32 14.37 32 31.1C128 433.6 113.6 448 96 448zM192 448c-17.62 0-32-14.38-32-31.1c0-17.62 14.38-31.1 32-31.1s32 14.37 32 31.1C224 433.6 209.6 448 192 448z"/><path class="fa-secondary" d="M96 384c-17.67 0-32 14.32-32 31.1s14.33 31.1 32 31.1s32-14.32 32-31.1S113.7 384 96 384zM536.3 70.14c-101.6-93.52-266.9-93.52-368.5 0C157.1 79.1 157.4 94.32 166.3 104.1C175.3 113.9 190.5 114.5 200.3 105.5c83.69-77.05 219.8-77.05 303.5 0c9.75 8.979 24.94 8.338 33.91-1.424C541.9 99.49 544 93.65 544 87.83C544 81.36 541.4 74.88 536.3 70.14zM248.2 149.9C238.2 158.6 237.2 173.8 245.1 183.8C254.7 193.7 269.9 194.7 279.8 185.1c39.78-34.97 104.5-34.97 144.3 0c9.969 8.76 25.12 7.775 33.88-2.189C462 179.2 464 173.6 464 167.9c0-6.678-2.75-13.33-8.154-18.07C398.6 99.53 305.4 99.53 248.2 149.9z"/></svg>