<svg xmlns="http://www.w3.org/2000/svg" viewBox="0 0 512 512"><!--! Font Awesome Pro 6.1.1 by @fontawesome - https://fontawesome.com License - https://fontawesome.com/license (Commercial License) Copyright 2022 Fonticons, Inc. --><defs><style>.fa-secondary{opacity:.4}</style></defs><path class="fa-primary" d="M235.1 7.308C247.9-.5141 264.1-.5141 276.9 7.308C304.4 24.07 327.2 33.27 350.3 37.28C373.6 41.3 399.6 40.44 433.1 34.11C456.1 30.03 477.6 45.07 480.9 67.7C487.4 111.9 490.9 153.3 490.3 191.1H21.25C20.92 153.1 24.63 111.6 31.09 67.68C34.41 45.04 55.9 30.04 78.02 34.11C112.4 40.44 138.4 41.3 161.7 37.28C184.8 33.27 207.6 24.07 235.1 7.308V7.308z"/><path class="fa-secondary" d="M21.25 192H490.3C489.4 243.2 481.3 289.7 463.1 331.8C430.6 406.8 368.5 462.7 272.8 507.5C262.6 512.3 250.7 512.5 240.3 508.1C141.9 466.7 79.34 410.6 47.29 334.2C29.34 291.5 21.69 244 21.25 192V192z"/></svg>