<svg xmlns="http://www.w3.org/2000/svg" viewBox="0 0 512 512"><!--! Font Awesome Pro 6.1.1 by @fontawesome - https://fontawesome.com License - https://fontawesome.com/license (Commercial License) Copyright 2022 Fonticons, Inc. --><defs><style>.fa-secondary{opacity:.4}</style></defs><path class="fa-primary" d="M512 96C512 160 416 256 416 256C416 256 320 160 320 96C320 42.98 362.1 0 416 0C469 0 512 42.98 512 96zM416 64C398.3 64 384 78.33 384 96C384 113.7 398.3 128 416 128C433.7 128 448 113.7 448 96C448 78.33 433.7 64 416 64zM192 352C192 416 96 512 96 512C96 512 0 416 0 352C0 298.1 42.98 256 96 256C149 256 192 298.1 192 352zM96 320C78.33 320 64 334.3 64 352C64 369.7 78.33 384 96 384C113.7 384 128 369.7 128 352C128 334.3 113.7 320 96 320z"/><path class="fa-secondary" d="M416 256H320C302.3 256 288 270.3 288 288C288 305.7 302.3 320 320 320H416C469 320 512 362.1 512 416C512 469 469 512 416 512H96C96 512 124.1 483.9 149.9 448H416C433.7 448 448 433.7 448 416C448 398.3 433.7 384 416 384H320C266.1 384 224 341 224 288C224 234.1 266.1 192 320 192H362.1C387.9 227.9 416 256 416 256z"/></svg>