<svg xmlns="http://www.w3.org/2000/svg" viewBox="0 0 512 512"><!--! Font Awesome Pro 6.1.1 by @fontawesome - https://fontawesome.com License - https://fontawesome.com/license (Commercial License) Copyright 2022 Fonticons, Inc. --><defs><style>.fa-secondary{opacity:.4}</style></defs><path class="fa-primary" d="M129.9 84.69L107.3 107.3C101.1 113.6 90.94 113.6 84.69 107.3C78.44 101.1 78.44 90.93 84.69 84.69L107.3 62.06L129.9 84.69zM209.9 164.7L187.3 187.3C181.1 193.6 170.9 193.6 164.7 187.3C158.4 181.1 158.4 170.9 164.7 164.7L187.3 142.1L209.9 164.7zM289.9 244.7L267.3 267.3C261.1 273.6 250.9 273.6 244.7 267.3C238.4 261.1 238.4 250.9 244.7 244.7L267.3 222.1L289.9 244.7zM369.9 324.7L347.3 347.3C341.1 353.6 330.9 353.6 324.7 347.3C318.4 341.1 318.4 330.9 324.7 324.7L347.3 302.1L369.9 324.7zM449.9 404.7L427.3 427.3C421.1 433.6 410.9 433.6 404.7 427.3C398.4 421.1 398.4 410.9 404.7 404.7L427.3 382.1L449.9 404.7z"/><path class="fa-secondary" d="M107.3 62.06L84.69 84.69C78.44 90.93 78.44 101.1 84.69 107.3C90.93 113.6 101.1 113.6 107.3 107.3L129.9 84.69L187.3 142.1L164.7 164.7C158.4 170.9 158.4 181.1 164.7 187.3C170.9 193.6 181.1 193.6 187.3 187.3L209.9 164.7L267.3 222.1L244.7 244.7C238.4 250.9 238.4 261.1 244.7 267.3C250.9 273.6 261.1 273.6 267.3 267.3L289.9 244.7L347.3 302.1L324.7 324.7C318.4 330.9 318.4 341.1 324.7 347.3C330.9 353.6 341.1 353.6 347.3 347.3L369.9 324.7L427.3 382.1L404.7 404.7C398.4 410.9 398.4 421.1 404.7 427.3C410.9 433.6 421.1 433.6 427.3 427.3L449.9 404.7L502.6 457.4C511.8 466.5 514.5 480.3 509.6 492.2C504.6 504.2 492.9 512 480 512H64C28.65 512 0 483.3 0 448V32C0 19.06 7.796 7.39 19.75 2.437C31.71-2.516 45.48 .2215 54.63 9.373L107.3 62.06zM128 256V384H256L128 256z"/></svg>