<svg xmlns="http://www.w3.org/2000/svg" viewBox="0 0 512 512"><!--! Font Awesome Pro 6.0.0-beta3 by @fontawesome - https://fontawesome.com License - https://fontawesome.com/license (Commercial License) Copyright 2021 Fonticons, Inc. --><defs><style>.fa-secondary{opacity:.4}</style></defs><path class="fa-primary" d="M86.29 267.3L63.67 289.9l56.57 56.57c3.111 3.111 7.212 4.672 11.31 4.672c9.06 0 15.99-7.32 15.99-15.99c0-4.101-1.561-8.203-4.673-11.31L86.29 267.3zM154.2 199.4L131.5 222.1l56.57 56.57c3.11 3.111 7.212 4.673 11.31 4.673c8.687 0 15.99-6.956 15.99-15.99c0-4.101-1.562-8.203-4.672-11.31L154.2 199.4zM351.2 131.5c0-4.101-1.561-8.203-4.673-11.31l-56.57-56.57l-22.63 22.63l56.57 56.57c3.111 3.111 7.212 4.672 11.31 4.672C344.3 147.5 351.2 140.2 351.2 131.5zM222.1 131.5L199.4 154.2L256 210.7c3.112 3.111 7.213 4.672 11.31 4.672c9.059 0 15.99-7.324 15.99-15.99c0-4.102-1.562-8.203-4.673-11.31L222.1 131.5z"/><path class="fa-secondary" d="M512 145.1c0 8.202-3.111 16.4-9.334 22.63L167.7 502.7C161.5 508.9 153.3 512 145.1 512s-16.41-3.111-22.63-9.334L9.334 389.5C3.111 383.3 0 375.1 0 366.9s3.111-16.4 9.334-22.63l54.33-54.33l56.57 56.57c3.111 3.111 7.212 4.672 11.31 4.672c9.06 0 15.99-7.32 15.99-15.99c0-4.101-1.561-8.203-4.673-11.31L86.29 267.3l45.25-45.26l56.57 56.57c3.11 3.111 7.212 4.673 11.31 4.673c8.687 0 15.99-6.956 15.99-15.99c0-4.101-1.562-8.203-4.672-11.31L154.2 199.4l45.25-45.26L256 210.7c3.112 3.111 7.213 4.672 11.31 4.672c9.059 0 15.99-7.324 15.99-15.99c0-4.102-1.562-8.203-4.673-11.31l-56.57-56.57l45.26-45.25l56.57 56.57c3.111 3.111 7.212 4.672 11.31 4.672c9.06 0 15.99-7.32 15.99-15.99c0-4.101-1.561-8.203-4.673-11.31l-56.57-56.57l54.33-54.33c6.223-6.223 14.43-9.334 22.63-9.334s16.4 3.111 22.63 9.334l113.1 113.1C508.9 128.7 512 136.9 512 145.1z"/></svg>