<svg xmlns="http://www.w3.org/2000/svg" viewBox="0 0 640 512"><!--! Font Awesome Pro 6.0.0-beta3 by @fontawesome - https://fontawesome.com License - https://fontawesome.com/license (Commercial License) Copyright 2021 Fonticons, Inc. --><defs><style>.fa-secondary{opacity:.4}</style></defs><path class="fa-primary" d="M112 208C112 216.8 119.2 224 128 224s16-7.201 16-16V127.1h-32V208zM304 208C304 216.8 311.2 224 320 224s16-7.201 16-16V127.1h-32V208zM208 208C208 216.8 215.2 224 224 224s16-7.201 16-16V127.1h-32V208zM496 127.1V208C496 216.8 503.2 224 512 224c8.838 0 16-7.164 16-16V127.1H496zM400 208C400 216.8 407.2 224 416 224s16-7.201 16-16V127.1h-32V208z"/><path class="fa-secondary" d="M640 159.1V352c0 17.6-14.4 32-32 32H32c-17.6 0-32-14.4-32-32V159.1c0-17.6 14.4-31.1 32-31.1h80V208C112 216.8 119.2 224 128 224s16-7.201 16-16V127.1h64V208C208 216.8 215.2 224 224 224s16-7.201 16-16V127.1h64V208C304 216.8 311.2 224 320 224s16-7.201 16-16V127.1h64V208C400 216.8 407.2 224 416 224s16-7.201 16-16V127.1h64V208C496 216.8 503.2 224 512 224c8.838 0 16-7.164 16-16V127.1H608C625.6 127.1 640 142.4 640 159.1z"/></svg>