<svg xmlns="http://www.w3.org/2000/svg" viewBox="0 0 576 512"><!--! Font Awesome Pro 6.0.0-beta3 by @fontawesome - https://fontawesome.com License - https://fontawesome.com/license (Commercial License) Copyright 2021 Fonticons, Inc. --><defs><style>.fa-secondary{opacity:.4}</style></defs><path class="fa-primary" d="M495.2 114.4c26.36-30.88 21.24-78.5-12.49-102.5c-29.23-20.88-70.21-13-93.44 14.25L155.9 293.5c-8.994 10.5-1.498 26.5 12.12 26.5h131.9c9.369 0 18.24-4.125 24.36-11.25L495.2 114.4zM304 480h-64C231.2 480 224 487.2 224 496S231.2 512 240 512h64c8.836 0 16-7.164 16-16S312.8 480 304 480zM432 480h-64c-8.836 0-16 7.164-16 16s7.164 16 16 16h64c8.836 0 16-7.164 16-16S440.8 480 432 480zM560 480h-64c-8.836 0-16 7.164-16 16s7.164 16 16 16h64c8.836 0 16-7.164 16-16S568.8 480 560 480z"/><path class="fa-secondary" d="M288 320v8c0 38.38-15.72 76.63-47.81 102.4c-.2559 .125-.3828 .25-.6387 .5C174.1 482.9 88.97 512.1 0 512l179.1-192H288z"/></svg>