<svg xmlns="http://www.w3.org/2000/svg" viewBox="0 0 576 512"><!--! Font Awesome Pro 6.1.1 by @fontawesome - https://fontawesome.com License - https://fontawesome.com/license (Commercial License) Copyright 2022 Fonticons, Inc. --><defs><style>.fa-secondary{opacity:.4}</style></defs><path class="fa-primary" d="M47.98 287.1L551.7 288c-.3887-.2207-.6725-.5628-1.069-.7738L79.06 35.74c-15.59-8.25-35-2.407-43.3 13.19c-8.312 15.59-2.422 34.97 13.17 43.31l367.1 195.8L47.98 287.1C47.97 287.1 47.99 287.1 47.98 287.1zM111.1 351.1H80.01c-8.801 0-16 7.199-16 16v31.99c0 8.801 7.199 16 16 16h31.99c8.801 0 16-7.199 16-16v-31.99C127.1 359.2 120.8 351.1 111.1 351.1z"/><path class="fa-secondary" d="M551.7 288L47.98 287.1C21.49 288 0 309.5 0 335.1v96C0 458.5 21.49 480 48 480H528c26.51 0 48-21.49 48-48v-102.4C576 312.3 566.6 296.5 551.7 288zM127.1 399.1c0 8.801-7.199 16-16 16H80.01c-8.801 0-16-7.199-16-16v-31.99c0-8.803 7.199-16 16-16h31.99c8.801 0 16 7.199 16 16V399.1zM223.1 399.1c0 8.801-7.199 16-16 16H176c-8.801 0-16-7.199-16-16v-31.99c0-8.803 7.199-16 16-16h31.99c8.801 0 16 7.198 16 16V399.1z"/></svg>