<svg xmlns="http://www.w3.org/2000/svg" viewBox="0 0 512 512"><!--! Font Awesome Pro 6.0.0-beta3 by @fontawesome - https://fontawesome.com License - https://fontawesome.com/license (Commercial License) Copyright 2021 Fonticons, Inc. --><defs><style>.fa-secondary{opacity:.4}</style></defs><path class="fa-primary" d="M288 112c8.836 0 16-7.164 16-16s-7.164-16-16-16S272 87.16 272 96S279.2 112 288 112zM224 96c8.836 0 16-7.164 16-16s-7.164-16-16-16S208 71.16 208 80S215.2 96 224 96zM477.8 186.3L451.3 160l18.36-18.26c3.148-3.1 3.13-8.209 .0303-11.36c-1.525-1.549-3.597-2.406-5.771-2.382L346.5 128c-17.69 49.98-72.55 76.16-122.5 58.47C196.6 176.8 175.1 155.3 165.5 128L48 128C43.58 127.1 39.96 131.5 39.91 135.9C39.89 138.1 40.71 140.2 42.26 141.7l18.49 18.26l-26.48 26.26c-3.115 3.121-3.115 8.237 0 11.36l26.48 26.38L42.38 242.3C39.24 245.4 39.23 250.5 42.33 253.6c1.525 1.549 3.622 2.413 5.794 2.39h106.1l-26 141.3c-1.416 8.721 4.469 16.98 13.19 18.4c3.297 .5352 6.722 .0672 9.714-1.417l32.64-24.21c4.961-3.702 11.63-4.163 17.09-1.256L248.8 414.2c4.461 2.4 9.871 2.4 14.33 0l47.92-25.49c5.471-2.916 12.1-2.472 17.06 1.238l32.67 24.24c7.852 3.971 17.46 .8074 21.43-7.044c1.541-3.047 2.097-6.572 1.521-9.935l-25.84-141.2h106.1c4.445-.0234 7.969-3.651 7.944-8.097c-.0117-2.1-.7311-4.149-2.206-5.643L451.3 224l26.36-26.26C480.8 194.7 480.8 189.5 477.8 186.3z"/><path class="fa-secondary" d="M248.8 414.2L223.1 401L223.1 496c0 8.836 7.164 16 16 16h32c8.836 0 16-7.164 16-16l-.001-95l-24.88 13.22C258.7 416.6 253.3 416.6 248.8 414.2zM256 0C202.1 0 160 42.98 160 96s42.98 96 95.1 96s96.01-42.98 96.01-96S309 0 256 0zM224 96c-8.836 0-16-7.164-16-16S215.2 64 224 64s16 7.164 16 16S232.8 96 224 96zM288 112c-8.836 0-16-7.164-16-16s7.165-16 16-16s16 7.164 16 16S296.8 112 288 112z"/></svg>