<svg xmlns="http://www.w3.org/2000/svg" viewBox="0 0 512 512"><!--! Font Awesome Pro 6.0.0-beta3 by @fontawesome - https://fontawesome.com License - https://fontawesome.com/license (Commercial License) Copyright 2021 Fonticons, Inc. --><defs><style>.fa-secondary{opacity:.4}</style></defs><path class="fa-primary" d="M214.3 100.9c36.88-8.624 68-3.625 84.38 .25l-19.5 19.37l109.8 109.6c46.63-51.75 20.38-105.4 13.25-117.4l-43.67-73.43c-4.25-7.124-9.917-13.25-16.79-17.1c-40.63-27.5-127.4-29.58-171.4 .1667c-6.875 4.75-12.5 10.75-16.75 17.1l-43.63 73.12C108.4 115.1 72.75 174.8 121.4 228.4l157.8 163.2l113-112.1L214.3 100.9z"/><path class="fa-secondary" d="M166 323.8l-118.4 118.1c-3.125 3.125-3.125 8.249 0 11.37l11.25 11.25c3.125 3.125 8.25 3.125 11.38 0l118.4-118.2L166 323.8zM120.8 278.6l-118.5 118.1c-2.1 3-2.1 8.125 0 11.25l11.38 11.25c3.127 3.125 8.126 3.125 11.25 0l118.4-118.1L120.8 278.6zM92.88 487.1c-3.125 3.125-3.125 8.125 0 11.25l11.38 11.37c3 3 8.125 3 11.25 0l118.4-118.2l-22.63-22.62L92.88 487.1zM301.8 368.9l-22.54 22.71l117.4 117.2c3.125 3 8.124 3 11.25 0l11.38-11.37c3-3.125 3-8.125 0-11.25L301.8 368.9zM509.8 395.8l-117.5-117.1l-22.5 22.62l117.3 116.1c3.125 3.123 8.25 3.123 11.25 0l11.38-11.25C512.8 403.9 512.8 398.9 509.8 395.8zM347 323.8l-22.63 22.5l117.4 117.2c3.125 3.125 8.25 3.125 11.38 0l11.25-11.25c3.125-3.125 3.125-8.249 0-11.37L347 323.8z"/></svg>