<svg xmlns="http://www.w3.org/2000/svg" viewBox="0 0 512 512"><!--! Font Awesome Pro 6.1.1 by @fontawesome - https://fontawesome.com License - https://fontawesome.com/license (Commercial License) Copyright 2022 Fonticons, Inc. --><defs><style>.fa-secondary{opacity:.4}</style></defs><path class="fa-primary" d="M224 400C224 461.9 173.9 512 112 512C50.14 512 0 461.9 0 400C0 338.1 50.14 288 112 288C126.3 288 139.9 290.7 152.5 295.5L396.8 51.2C425.1 22.92 470.9 22.92 499.2 51.2C506.3 58.27 506.3 69.73 499.2 76.8L216.5 359.5C221.3 372.1 224 385.7 224 400zM112 352C85.49 352 64 373.5 64 400C64 426.5 85.49 448 112 448C138.5 448 160 426.5 160 400C160 373.5 138.5 352 112 352z"/><path class="fa-secondary" d="M191.1 255.1L152.5 216.5C139.9 221.3 126.3 224 112 224C50.14 224 0 173.9 0 112C0 50.14 50.14 0 112 0C173.9 0 224 50.14 224 112C224 126.3 221.3 139.9 216.5 152.5L255.1 191.1L191.1 255.1zM63.1 111.1C63.1 138.5 85.49 159.1 111.1 159.1C138.5 159.1 159.1 138.5 159.1 111.1C159.1 85.49 138.5 63.1 111.1 63.1C85.49 63.1 63.1 85.49 63.1 111.1zM499.2 435.2C506.3 442.3 506.3 453.7 499.2 460.8C470.9 489.1 425.1 489.1 396.8 460.8L255.1 319.1L320 255.1L499.2 435.2z"/></svg>