<svg xmlns="http://www.w3.org/2000/svg" viewBox="0 0 512 512"><!--! Font Awesome Pro 6.0.0-beta3 by @fontawesome - https://fontawesome.com License - https://fontawesome.com/license (Commercial License) Copyright 2021 Fonticons, Inc. --><defs><style>.fa-secondary{opacity:.4}</style></defs><path class="fa-primary" d="M507.3 39.43c-31.24-31.24-81.9-31.24-113.1 0l-252.9 252.9C131.6 289.8 121.9 288 111.1 288c-28.66 0-57.33 10.93-79.2 32.8c-43.74 43.74-43.74 114.7 0 158.4C54.67 501.1 83.34 512 111.1 512s57.33-10.93 79.2-32.8c33.59-33.59 41.13-83.12 23.13-124.1l292.1-292.1C513.6 55.81 513.6 45.68 507.3 39.43zM112 448C85.49 448 64 426.5 64 400C64 373.5 85.46 352 112 352C138.5 352 160 373.5 160 400C160 426.5 138.5 448 112 448z"/><path class="fa-secondary" d="M214.3 156.1c18.01-41.03 10.47-90.55-23.13-124.1C169.3 10.93 140.7 0 111.1 0S54.67 10.93 32.8 32.8c-43.74 43.74-43.74 114.7 0 158.4C54.67 213.1 83.34 224 111.1 224c9.873 0 19.64-1.781 29.23-4.375L177.6 256l67.88-67.88L214.3 156.1zM112 160C85.46 160 64 138.5 64 112C64 85.45 85.49 64 112 64C138.5 64 160 85.48 160 112C160 138.5 138.5 160 112 160zM507.3 449.9L313.4 256l-67.88 67.88l148.7 148.7c31.24 31.24 81.9 31.24 113.1 0C513.6 466.3 513.6 456.2 507.3 449.9z"/></svg>