<svg xmlns="http://www.w3.org/2000/svg" viewBox="0 0 512 512"><!--! Font Awesome Pro 6.1.1 by @fontawesome - https://fontawesome.com License - https://fontawesome.com/license (Commercial License) Copyright 2022 Fonticons, Inc. --><defs><style>.fa-secondary{opacity:.4}</style></defs><path class="fa-primary" d="M384 278.6c-23.16-23.16-57.57-27.57-85.39-13.9L191.1 158L191.1 95.99l-127.1-95.99L0 63.1l96 127.1l62.04 .0077l106.7 106.6c-13.67 27.82-9.251 62.23 13.91 85.39l117 117.1c14.62 14.5 38.21 14.5 52.71-.0016l52.75-52.75c14.5-14.5 14.5-38.08-.0016-52.71L384 278.6z"/><path class="fa-secondary" d="M227.9 307L168.7 247.9l-148.9 148.9c-26.37 26.37-26.37 69.08 0 95.45C32.96 505.4 50.21 512 67.5 512s34.54-6.592 47.72-19.78l119.1-119.1C225.5 352.3 222.6 329.4 227.9 307zM64 472c-13.25 0-24-10.75-24-24c0-13.26 10.75-24 24-24S88 434.7 88 448C88 461.3 77.25 472 64 472zM507.7 109.3c-1.641-6.43-8.184-10.31-14.61-8.67c-2.094 .5352-4.006 1.623-5.533 3.152l-74.45 74.5l-67.96-11.32l-11.32-68.01l74.45-74.45c4.697-4.688 4.707-12.29 .0195-16.99c-1.564-1.568-3.531-2.674-5.686-3.193c-49.09-12.22-100.1 2.191-136.7 37.98C226.2 81.94 215.2 139.5 231.8 189.6L227.7 193.7l70.95 70.97c28.5-14.14 62.84-8.55 85.39 13.9l7.516 7.474c29.64-4.719 57.03-18.67 78.22-39.93C505.6 210.3 519.1 158.4 507.7 109.3z"/></svg>