<svg xmlns="http://www.w3.org/2000/svg" viewBox="0 0 576 512"><!--! Font Awesome Pro 6.0.0-beta3 by @fontawesome - https://fontawesome.com License - https://fontawesome.com/license (Commercial License) Copyright 2021 Fonticons, Inc. --><defs><style>.fa-secondary{opacity:.4}</style></defs><path class="fa-primary" d="M32.59 415.5c-17.65 0-31.96 14.31-31.96 31.96s14.31 31.95 31.96 31.95s31.96-14.3 31.96-31.95S50.24 415.5 32.59 415.5zM32.59 223.7c-17.67 0-31.96 14.29-31.96 31.95s14.3 31.95 31.96 31.95c88.12 0 159.8 71.68 159.8 159.8c0 17.66 14.3 31.95 31.96 31.95c17.67 0 31.97-14.29 31.97-31.95C256.3 324.1 155.1 223.7 32.59 223.7zM31.96 320.2C14.3 320.2 0 334.5 0 352.2c0 17.66 14.3 31.95 31.96 31.95c35.24 0 63.93 28.68 63.93 63.91C95.9 465.7 110.2 480 127.9 480s31.96-14.29 31.96-31.95C159.8 377.5 102.5 320.2 31.96 320.2z"/><path class="fa-secondary" d="M496.1 32H80.54C36.46 32 .625 67.82 .625 111.9v65.95c10.5-1.234 21.13-2.043 31.96-2.043S54.05 176.6 64.55 177.8V111.9c0-8.805 7.18-15.98 15.98-15.98h415.5c8.805 0 15.98 7.176 15.98 15.98v287.6c0 8.805-7.18 15.98-15.98 15.98h-193.8c1.232 10.5 2.041 21.13 2.041 31.96s-.8086 21.45-2.041 31.95h193.8C540.2 479.4 576 443.6 576 399.5V111.9C576 67.82 540.2 32 496.1 32z"/></svg>