<svg xmlns="http://www.w3.org/2000/svg" viewBox="0 0 512 512"><!--! Font Awesome Pro 6.0.0-beta3 by @fontawesome - https://fontawesome.com License - https://fontawesome.com/license (Commercial License) Copyright 2021 Fonticons, Inc. --><defs><style>.fa-secondary{opacity:.4}</style></defs><path class="fa-primary" d="M256 0C114.6 0 0 114.6 0 256s114.6 256 256 256s256-114.6 256-256S397.4 0 256 0zM256 320c-35.33 0-64-28.75-64-64s28.67-64 64-64s64 28.75 64 64S291.3 320 256 320z"/><path class="fa-secondary" d="M256 320c-35.33 0-64-28.75-64-64s28.67-64 64-64s64 28.75 64 64S291.3 320 256 320z"/></svg>