<svg xmlns="http://www.w3.org/2000/svg" viewBox="0 0 256 512"><!--! Font Awesome Pro 6.0.0-beta3 by @fontawesome - https://fontawesome.com License - https://fontawesome.com/license (Commercial License) Copyright 2021 Fonticons, Inc. --><defs><style>.fa-secondary{opacity:.4}</style></defs><path class="fa-primary" d="M254.3 281.5c-3.717 22.7-14.14 41.55-29.8 55.82c-20.25-17.14-47.07-27.4-71.27-35.1c16.81-2.969 34.64-10.83 37.93-31.04c4.529-27.53-7.682-37.06-72.39-56.62c0 0-14.88-4.562-15.81-4.852C98.08 208.2 92.67 206.5 86.97 204.5C86.69 204.4 86.39 204.3 86.11 204.2c-5.762-2.045-11.89-4.407-18.03-7.138c-.0469-.0215 .0469 .0195 0 0C55.52 191.5 42.6 184.2 31.47 174.7c-21.63-18.61-36.65-46.08-29.78-88.17c4.279-26.09 17.77-47.97 39.07-63.25c28.79-20.72 70.42-27.97 116.9-20.19c14.93 2.438 31.88 7.219 53.28 15.06c16.58 6.094 25.11 24.47 19.05 41.06c-6.059 16.62-24.45 25.06-41.04 19.06c-17.3-6.344-30.92-10.28-41.66-12.03C117.1 61.36 92.78 64.67 78.04 75.23C70.54 80.61 66.36 87.45 64.83 96.79C61.11 119.4 65.67 131.2 124.7 149.5l12.52 3.812C189.6 169.2 268.7 193.1 254.3 281.5z"/><path class="fa-secondary" d="M254.3 425.5c-5.496 33.38-26.07 59.69-58.02 74.12c-18.11 8.188-39.22 12.34-62.4 12.34c-11.4 0-23.33-1-35.54-3.032c-23.08-3.625-46.97-12.75-68.02-20.75l-9.463-3.594c-16.55-6.188-24.92-24.62-18.74-41.19c6.215-16.5 24.64-24.91 41.16-18.75l9.773 3.719c18.18 6.906 38.76 14.75 55.49 17.41c24.39 3.938 46.13 2.438 61.4-4.469c16.39-7.406 19.96-18.47 21.23-26.16c4.498-27.5-7.713-37.03-72.42-56.59l-12.99-3.967C67.36 342.7-12.59 317.9 1.686 230.5c3.721-22.71 14.18-41.5 29.78-55.83c22.29 19.18 51.51 28.89 71.45 35.1C86.05 212.7 68.13 220.5 64.83 240.8C61.11 263.4 65.67 275.2 124.7 293.5l12.52 3.812C189.6 313.2 268.7 337.1 254.3 425.5z"/></svg>