<svg xmlns="http://www.w3.org/2000/svg" viewBox="0 0 640 512"><!--! Font Awesome Pro 6.1.1 by @fontawesome - https://fontawesome.com License - https://fontawesome.com/license (Commercial License) Copyright 2022 Fonticons, Inc. --><defs><style>.fa-secondary{opacity:.4}</style></defs><path class="fa-primary" d="M79.1 96C71.12 96 63.1 103.1 63.1 112v160c0 8.875 7.125 16 15.1 16S95.1 280.9 95.1 272l-.0006-160C95.1 103.1 88.87 96 79.1 96zM143.1 96c-8.875 0-15.1 7.125-15.1 16l.001 160c0 8.875 7.124 16 15.1 16s16-7.125 16-16l-.001-160C159.1 103.1 152.9 96 143.1 96zM633.1 403.4l-140.9-244.1c-19.62-34.13-68.88-34.13-88.5 0l-140.9 244.1C243.2 437.4 267.9 480 307.1 480h281.7C628.1 480 652.7 437.4 633.1 403.4zM447.1 432c-13.25 0-24-10.75-24-24S434.7 384 447.1 384s23.1 10.75 23.1 24S461.2 432 447.1 432zM472 336c0 13.25-10.75 24-24 24s-24-10.75-24-24V256c0-13.25 10.75-24 24-24S472 242.8 472 256V336zM207.1 96C199.1 96 191.1 103.1 191.1 112l.0014 160c0 8.875 7.123 16 15.1 16s16-7.125 16-16l-.0015-160C223.1 103.1 216.9 96 207.1 96z"/><path class="fa-secondary" d="M383.1 32H63.1c-35.37 0-63.1 28.62-63.1 64v320c0 35.38 28.63 64 63.1 64h178.5c-2.5-3.125-5.249-5.1-7.249-9.5c-14.1-25.75-15.12-57.5 .0038-83.13l140.7-244.1c14.75-25.88 42.25-41.75 71.1-41.63L447.1 96C447.1 60.63 419.4 32 383.1 32zM95.1 272c0 8.875-7.126 16-16 16S63.1 280.9 63.1 272v-160c0-8.875 7.125-16 15.1-16s15.1 7.125 15.1 16L95.1 272zM159.1 272c0 8.875-7.126 16-16 16C135.1 288 127.1 280.9 127.1 272l-.001-160c0-8.875 7.125-16 15.1-16c8.875 0 15.1 7.125 15.1 16L159.1 272zM223.1 272c0 8.875-7.127 16-16 16S191.1 280.9 191.1 272l-.0014-160c0-8.875 7.125-16 15.1-16s15.1 7.125 15.1 16L223.1 272z"/></svg>