<svg xmlns="http://www.w3.org/2000/svg" viewBox="0 0 640 512"><!--! Font Awesome Pro 6.0.0-beta3 by @fontawesome - https://fontawesome.com License - https://fontawesome.com/license (Commercial License) Copyright 2021 Fonticons, Inc. --><defs><style>.fa-secondary{opacity:.4}</style></defs><path class="fa-primary" d="M572.6 321.2c8.75-22.12-.125-47.37-20.87-59.12c-20.75-11.62-46.1-6.375-61.5 12.5c-15.25-38.5-57.36-58.1-97.11-47.12s-63.88 52.12-55.51 92.62c-.5 0-1.125-.125-1.625-.125c-44.12 0-79.1 35.88-79.1 80s35.87 80 79.1 80h223.1c41.75 .125 76.5-31.88 79.75-73.5C643.1 364.9 613.9 327.7 572.6 321.2zM79.1 95.1c-8.875 0-15.1 7.125-15.1 16v160c0 8.875 7.125 16 15.1 16s16-7.125 16-16l-.001-160C95.1 103.1 88.87 95.1 79.1 95.1zM143.1 95.1c-8.875 0-15.1 7.125-15.1 16l.0013 160c0 8.875 7.124 16 15.1 16c8.875 0 16-7.125 16-16l-.0017-160C159.1 103.1 152.9 95.1 143.1 95.1zM207.1 95.1c-8.875 0-15.1 7.125-15.1 16l.002 160c0 8.875 7.123 16 15.1 16C216.9 288 223.1 280.9 223.1 272l-.0024-160C223.1 103.1 216.9 95.1 207.1 95.1z"/><path class="fa-secondary" d="M304.6 292.5c5.875-57.13 53.1-100.4 111.4-100.5c11.12 0 21.75 2.125 31.1 5.25l.006-101.2c0-35.38-28.63-64-63.1-64h-319.1c-35.37 0-63.1 28.62-63.1 64v320c0 35.38 28.63 64 63.1 64l193.9 0c-28.5-27.75-40.12-68.62-30.5-107.2C236.1 334.1 266.4 303.6 304.6 292.5zM95.1 272c0 8.875-7.126 16-16 16S63.1 280.9 63.1 272v-160c0-8.875 7.125-16 15.1-16s15.1 7.125 15.1 16L95.1 272zM159.1 272c0 8.875-7.127 16-16 16C135.1 288 127.1 280.9 127.1 272l-.0013-160c0-8.875 7.125-16 15.1-16c8.875 0 15.1 7.125 15.1 16L159.1 272zM207.1 288C199.1 288 191.1 280.9 191.1 272l-.002-160c0-8.875 7.125-16 15.1-16c8.875 0 15.1 7.125 15.1 16l.0024 160C223.1 280.9 216.9 288 207.1 288z"/></svg>