<svg xmlns="http://www.w3.org/2000/svg" viewBox="0 0 640 512"><!--! Font Awesome Pro 6.0.0-beta3 by @fontawesome - https://fontawesome.com License - https://fontawesome.com/license (Commercial License) Copyright 2021 Fonticons, Inc. --><defs><style>.fa-secondary{opacity:.4}</style></defs><path class="fa-primary" d="M208 96C199.1 96 192 103.1 192 112v160C192 280.9 199.1 288 208 288S224 280.9 224 272v-160C224 103.1 216.9 96 208 96zM144 96C135.1 96 128 103.1 128 112v160C128 280.9 135.1 288 144 288S160 280.9 160 272v-160C160 103.1 152.9 96 144 96zM80 96C71.13 96 64 103.1 64 112v160C64 280.9 71.13 288 80 288S96 280.9 96 272v-160C96 103.1 88.88 96 80 96zM616 232h-64c-13.25 0-24 10.75-24 24s10.75 24 24 24h64C629.3 280 640 269.3 640 256S629.3 232 616 232zM597.3 404l-48-32c-11-7.375-25.88-4.375-33.25 6.75c-7.375 11-4.375 25.87 6.75 33.25l48 32c11 7.375 25.88 4.375 33.25-6.75C611.4 426.2 608.4 411.4 597.3 404zM536 144c4.75 0 9.375-1.375 13.25-4l48-32c7.375-4.625 11.75-12.87 11.25-21.62s-5.625-16.5-13.5-20.37c-7.875-3.75-17.25-3-24.38 2.125l-48 32c-8.75 5.875-12.63 16.75-9.5 26.88C516.1 137.1 525.5 144 536 144z"/><path class="fa-secondary" d="M384 32H64C28.62 32 0 60.63 0 96v320c0 35.38 28.62 64 64 64h320c35.38 0 64-28.62 64-64V96C448 60.63 419.4 32 384 32zM96 272C96 280.9 88.88 288 80 288S64 280.9 64 272v-160C64 103.1 71.13 96 80 96S96 103.1 96 112V272zM160 272C160 280.9 152.9 288 144 288S128 280.9 128 272v-160C128 103.1 135.1 96 144 96S160 103.1 160 112V272zM224 272C224 280.9 216.9 288 208 288S192 280.9 192 272v-160C192 103.1 199.1 96 208 96S224 103.1 224 112V272z"/></svg>