<svg xmlns="http://www.w3.org/2000/svg" viewBox="0 0 512 512"><!--! Font Awesome Pro 6.0.0-beta3 by @fontawesome - https://fontawesome.com License - https://fontawesome.com/license (Commercial License) Copyright 2021 Fonticons, Inc. --><defs><style>.fa-secondary{opacity:.4}</style></defs><path class="fa-primary" d="M480 272h-160c-17.62 0-32 14.38-32 32v160c0 17.62 14.38 32 32 32h160c17.62 0 32-14.38 32-32v-160C512 286.4 497.6 272 480 272z"/><path class="fa-secondary" d="M128 256c-70.75 0-128 57.25-128 128s57.25 128 128 128s128-57.25 128-128S198.8 256 128 256zM411.6 175.1L316.6 15.97C310.6 6.125 299.7 0 288 0s-22.55 6.125-28.55 15.97L164.5 175.1C151.8 197.3 167.7 224 193 224h189.1C408.3 224 424.2 197.3 411.6 175.1z"/></svg>