<svg xmlns="http://www.w3.org/2000/svg" viewBox="0 0 512 512"><!--! Font Awesome Pro 6.1.1 by @fontawesome - https://fontawesome.com License - https://fontawesome.com/license (Commercial License) Copyright 2022 Fonticons, Inc. --><defs><style>.fa-secondary{opacity:.4}</style></defs><path class="fa-primary" d="M256-.0078L256 509.1C246.1 509.1 237.9 507.1 229.6 503.2C57.25 420.7 16.49 239.2 15.1 139.1C15.87 113.8 32.32 92.12 54.3 82.79L242.7 2.913C246.8 1.008 251.4-.0081 256-.0078C256.3-.0078 256.5-.0053 256.7 .0002L256-.0078z"/><path class="fa-secondary" d="M256 .0002C256.2-.0053 256.5-.0078 256.7-.0078C261.4-.0081 265.9 1.008 270.1 2.913L458.4 82.79C480.4 92.12 496.9 113.8 496.7 139.1C496.2 239.2 455.5 420.7 283.1 503.2C274.8 507.1 265.8 509.1 256.7 509.1L256.7-.0078L256 .0002z"/></svg>