<svg xmlns="http://www.w3.org/2000/svg" viewBox="0 0 640 512"><!--! Font Awesome Pro 6.0.0-beta3 by @fontawesome - https://fontawesome.com License - https://fontawesome.com/license (Commercial License) Copyright 2021 Fonticons, Inc. --><defs><style>.fa-secondary{opacity:.4}</style></defs><path class="fa-primary" d="M38.72 5.109C34.31 1.672 29.13 0 23.98 0C10.11 0 0 11.32 0 24c0 7.119 3.131 14.16 9.169 18.89L601.2 506.9C605.6 510.3 610.8 512 615.1 512C629.9 512 640 500.6 640 487.1c0-7.12-3.154-14.16-9.192-18.89L38.72 5.109z"/><path class="fa-secondary" d="M128 367.1l-103.1 .0024C10.75 367.1 0 378.7 0 391.1c0 13.26 10.75 24 24 24h104.1c-.2941-3.209-.9704-6.309-.9704-9.594L128 367.1zM0 280c0 6.861 5.369 24 24 24c6.156 0 12.28-2.344 16.97-7.031l23.03-23.03l23.03 23.03c4.687 4.688 10.81 7.031 16.97 7.031c18.79 0 23.1-17.2 23.1-24c0-6.141-2.343-12.28-7.032-16.97L97.94 239.1L120.1 216.1c4.66-4.658 6.814-10.73 6.814-16.83c0-.4883-.0137-.9785-.0412-1.469L99.85 176.8c-4.67 .8301-9.208 2.613-12.82 6.223L64 206.1L40.97 183C36.28 178.3 30.14 175.1 24 175.1C11.21 175.1 0 186.3 0 199.1c0 6.141 2.345 12.28 7.032 16.97L30.06 239.1L7.032 263C2.345 267.7 0 273.9 0 280zM616 367.1l-116.6 .0012l61.39 47.1h55.21C629.3 415.1 640 405.3 640 391.1C640 378.7 629.3 367.1 616 367.1zM616.1 255.1l-91.67 .0068l17.97-53.88c1.106-3.316 1.643-6.731 1.643-10.12c0-19.92-16.64-32-32.06-32c-3.054 0-6.13 .4375-9.129 1.336l-125.4 37.63c5.724-36.54 6.499-59.48 6.499-66.86C383.9 114.5 370.4 32 288.1 32C232.2 32 192.6 77.48 192.1 127.1l62.3 48.83c.892-2.512 1.604-5.127 1.604-7.943v-40c0-18.37 15.07-32.02 31.89-32.02c25.74 0 32.05 25.62 32.05 36.25c0 14.73-2.888 46.16-10.92 86.53l62.3 48.83l90.83-27.22l-12.52 37.5c-1.1 3.299-1.639 6.711-1.639 10.11c0 17.72 14.37 32.02 31.1 32.02l136-.0009C629.3 319.1 640 309.2 640 295.1v-16C640 266.7 629.3 255.1 616.1 255.1zM234.6 415.3c-5.052 0-10.63-3.379-10.63-8.893V318.9c0-4.219 2.813-8 6.828-9.188L258.8 301.4L198.7 254.3C175.3 266.1 160 291.5 160 318.9v84.05C160 416.7 170.7 480 233.6 480c50.78 0 73.99-42.01 102-118.4L282.3 319.8C277.7 333.5 249 415.3 234.6 415.3z"/></svg>