<svg xmlns="http://www.w3.org/2000/svg" viewBox="0 0 576 512"><!--! Font Awesome Pro 6.1.1 by @fontawesome - https://fontawesome.com License - https://fontawesome.com/license (Commercial License) Copyright 2022 Fonticons, Inc. --><defs><style>.fa-secondary{opacity:.4}</style></defs><path class="fa-primary" d="M208 256C181.6 256 160 277.6 160 303.1v160C160 490.4 181.6 512 207.1 512S256 490.4 256 464V303.1C256 277.6 234.4 256 208 256zM48 384C21.6 384 0 405.6 0 431.1v32C0 490.4 21.6 512 47.1 512S96 490.4 96 464v-32C96 405.6 74.4 384 48 384z"/><path class="fa-secondary" d="M368 128C341.6 128 320 149.6 320 175.1v288C320 490.4 341.6 512 367.1 512C394.4 512 416 490.4 416 464V175.1C416 149.6 394.4 128 368 128zM528 0C501.6 0 480 21.6 480 47.1v416C480 490.4 501.6 512 527.1 512S576 490.4 576 464V47.1C576 21.6 554.4 0 528 0z"/></svg>