<svg xmlns="http://www.w3.org/2000/svg" viewBox="0 0 384 512"><!--! Font Awesome Pro 6.1.1 by @fontawesome - https://fontawesome.com License - https://fontawesome.com/license (Commercial License) Copyright 2022 Fonticons, Inc. --><defs><style>.fa-secondary{opacity:.4}</style></defs><path class="fa-primary" d="M64 416c0 17.75 14.25 32 32 32h32v-64H64V416zM128 192H96C78.25 192 64 206.3 64 224v32h64V192zM224 192H160v64h64V192zM160 448h64v-64H160V448zM288 192h-32v64h64V224C320 206.3 305.8 192 288 192zM64 352h256V288H64V352zM256 448h32c17.75 0 32-14.25 32-32v-32h-64V448z"/><path class="fa-secondary" d="M256 0H64C28.75 0 0 28.75 0 64v384c0 35.25 28.75 64 64 64h256c35.25 0 64-28.75 64-64V128L256 0zM320 416c0 17.67-14.33 32-32 32H96c-17.67 0-32-14.33-32-32V224c0-17.67 14.33-32 32-32h192c17.67 0 32 14.33 32 32V416z"/></svg>