<svg xmlns="http://www.w3.org/2000/svg" viewBox="0 0 512 512"><!--! Font Awesome Pro 6.0.0-beta3 by @fontawesome - https://fontawesome.com License - https://fontawesome.com/license (Commercial License) Copyright 2021 Fonticons, Inc. --><defs><style>.fa-secondary{opacity:.4}</style></defs><path class="fa-primary" d="M256 256c-44.18 0-80 35.82-80 80S211.8 416 256 416c44.18 0 80-35.82 80-80S300.2 256 256 256zM256 368c-17.64 0-32-14.36-32-32s14.36-32 32-32s32 14.36 32 32S273.6 368 256 368zM416 128c-44.18 0-80 35.82-80 80S371.8 288 416 288c44.18 0 80-35.82 80-80S460.2 128 416 128zM416 240c-17.64 0-32-14.36-32-32s14.36-32 32-32s32 14.36 32 32S433.6 240 416 240zM96 64C51.82 64 16 99.82 16 144S51.82 224 96 224c44.18 0 80-35.82 80-80S140.2 64 96 64zM96 176c-17.64 0-32-14.36-32-32s14.36-32 32-32s32 14.36 32 32S113.6 176 96 176z"/><path class="fa-secondary" d="M64 217.2V480c0 8.836 3.582 16.84 9.373 22.63S87.16 512 96 512c17.67 0 32-14.33 32-32V217.2C118.2 221.5 107.4 224 96 224S73.81 221.5 64 217.2zM96 0C78.33 0 64 14.33 64 32v38.75C73.81 66.46 84.61 64 96 64s22.19 2.461 32 6.754V32C128 14.33 113.7 0 96 0zM224 409.2V480c0 8.836 3.582 16.84 9.373 22.63S247.2 512 256 512c17.67 0 32-14.33 32-32v-70.75C278.2 413.5 267.4 416 256 416S233.8 413.5 224 409.2zM256 0C238.3 0 224 14.33 224 32v230.8C233.8 258.5 244.6 256 256 256s22.19 2.461 32 6.754V32C288 14.33 273.7 0 256 0zM416 0c-17.67 0-32 14.33-32 32v102.8C393.8 130.5 404.6 128 416 128s22.19 2.461 32 6.754V32C448 14.33 433.7 0 416 0zM384 281.2V480c0 8.836 3.582 16.84 9.373 22.63S407.2 512 416 512c17.67 0 32-14.33 32-32V281.2C438.2 285.5 427.4 288 416 288S393.8 285.5 384 281.2z"/></svg>