<svg xmlns="http://www.w3.org/2000/svg" viewBox="0 0 448 512"><!--! Font Awesome Pro 6.0.0-beta3 by @fontawesome - https://fontawesome.com License - https://fontawesome.com/license (Commercial License) Copyright 2021 Fonticons, Inc. --><defs><style>.fa-secondary{opacity:.4}</style></defs><path class="fa-primary" d="M192 223.1L39.1 224C26.75 224 15.1 234.8 15.1 248L16 296C16 309.3 26.75 320 40 320h50.5l-82.38 92.63C2.875 418.5 0 426.1 0 433.9V480c0 17.62 14.38 32 32 32h151.1c13.25 0 24-10.75 24-24L208 440C208 426.8 197.3 416 184 416H133.5l82.38-92.63C221.1 317.5 224 309.9 224 302.1V255.1C224 238.4 209.6 223.1 192 223.1z"/><path class="fa-secondary" d="M303.1 176v-32c0-8.875-7.125-16-16-16h-34.75l57.38-57.38C316.6 64.63 320 56.5 320 48V32c0-17.62-14.38-32-32-32H184C175.1 0 168 7.125 168 16v32c0 8.875 7.125 16 16 16h42.75L169.4 121.4C163.4 127.4 160 135.5 160 144V160c0 17.62 14.38 32 32 32h96C296.9 192 303.1 184.9 303.1 176zM448 272V256c0-17.62-14.38-32-32-32h-96c-8.875 0-16 7.125-16 16v32C303.1 280.9 311.1 288 320 288h34.75l-57.38 57.38C291.4 351.4 288 359.5 288 368V384c0 17.62 14.38 32 32 32h104c8.875 0 16-7.125 16-16v-32c0-8.875-7.125-16-16-16h-42.75l57.38-57.38C444.6 288.6 448 280.5 448 272z"/></svg>