<svg xmlns="http://www.w3.org/2000/svg" viewBox="0 0 640 512"><!--! Font Awesome Pro 6.1.1 by @fontawesome - https://fontawesome.com License - https://fontawesome.com/license (Commercial License) Copyright 2022 Fonticons, Inc. --><defs><style>.fa-secondary{opacity:.4}</style></defs><path class="fa-primary" d="M344 159c-6.609-11.47-21.34-15.41-32.78-8.781L294.1 160.1l.6816-2.545c2.859-10.69-3.469-21.66-14.14-24.5C270 130.2 259.1 136.5 256.2 147.2L245.2 188.4L200 214.4V156.3l30.14-30.13c7.812-7.812 7.812-20.5 0-28.31s-20.47-7.812-28.28 0L200 99.71V88C200 74.75 189.3 64 176 64S152 74.75 152 88v11.71L150.1 97.84c-7.812-7.812-20.47-7.812-28.28 0s-7.812 20.5 0 28.31L152 156.3v58.15L101.6 185.4L90.61 144.2C87.75 133.5 76.83 127.2 66.13 130c-10.67 2.844-17 13.81-14.14 24.5l.6855 2.559L42.5 151.2C31.06 144.6 16.33 148.5 9.72 160C3.095 171.5 7.016 186.2 18.5 192.8l10.18 5.875L26.11 199.3c-10.66 2.844-16.98 13.81-14.12 24.5c2.391 8.938 10.47 14.81 19.3 14.81c1.719 0 3.469-.2187 5.203-.6875l41.15-11.04L128 255.1L79.37 284.1L38.22 273C27.66 270.2 16.58 276.5 13.72 287.2c-2.859 10.69 3.469 21.66 14.12 24.5l2.566 .6875L20.23 318.2c-11.48 6.625-15.41 21.31-8.781 32.78c4.438 7.688 12.52 12 20.8 12c4.078 0 8.203-1.031 11.98-3.219l10.17-5.871l-.6855 2.559c-2.859 10.69 3.469 21.66 14.14 24.5c1.734 .4687 3.469 .6875 5.188 .6875c8.828 0 16.91-5.875 19.3-14.81l11.04-41.21L152 297.6v50.15l-30.14 30.13c-7.812 7.812-7.812 20.5 0 28.31s20.47 7.812 28.28 0L152 404.3V424C152 437.3 162.8 448 176 448s24-10.75 24-24v-19.71l1.859 1.861C205.8 410.1 210.9 412 216 412s10.23-1.938 14.14-5.844c7.812-7.812 7.812-20.5 0-28.31L200 347.7V297.6l43.43 25.07l11.04 41.21c2.391 8.938 10.47 14.81 19.3 14.81c1.719 0 3.453-.2187 5.188-.6875c10.67-2.844 17-13.81 14.14-24.5l-.6836-2.555l17.09 9.867C313.3 362.1 317.4 364 321.5 364c8.281 0 16.36-4.312 20.8-12c6.625-11.47 2.704-26.16-8.78-32.78L316.4 309.3l2.572-.6895c10.66-2.844 16.98-13.81 14.12-24.5c-2.859-10.66-13.78-17-24.5-14.12L267.4 281.1L223.1 255.1l45.17-26.08l41.17 11.05c1.734 .4687 3.484 .6875 5.203 .6875c8.828 0 16.91-5.875 19.3-14.81c2.859-10.69-3.469-21.66-14.12-24.5L318.1 201.7l17.1-9.871C346.7 185.2 350.6 170.5 344 159z"/><path class="fa-secondary" d="M416 240h136C600.5 240 640 200.5 640 152S600.5 64 552 64H544c-17.67 0-32 14.31-32 32s14.33 32 32 32h8C565.2 128 576 138.8 576 152S565.2 176 552 176H416c-17.67 0-32 14.31-32 32S398.3 240 416 240zM552 272H416c-17.67 0-32 14.31-32 32s14.33 32 32 32h136c13.23 0 24 10.78 24 24S565.2 384 552 384H544c-17.67 0-32 14.31-32 32s14.33 32 32 32h8c48.53 0 88-39.47 88-88S600.5 272 552 272z"/></svg>