<svg xmlns="http://www.w3.org/2000/svg" viewBox="0 0 512 512"><!--! Font Awesome Pro 6.1.1 by @fontawesome - https://fontawesome.com License - https://fontawesome.com/license (Commercial License) Copyright 2022 Fonticons, Inc. --><defs><style>.fa-secondary{opacity:.4}</style></defs><path class="fa-primary" d="M360.5 263.7c4.705-12.37 7.534-25.69 7.534-39.71c0-29.89-11.9-56.87-30.98-76.95c9.35-14.81 14.98-32.23 14.98-51.04C351.1 42.98 309 0 255.1 0S160 42.98 160 95.1c0 18.81 5.626 36.23 14.98 51.04c-19.08 20.08-30.98 47.07-30.98 76.95c0 14.02 2.829 27.34 7.534 39.71c-33.78 29.34-55.53 72.04-55.53 120.3c0 52.59 25.71 98.84 64.88 128h190.2c39.17-29.17 64.88-75.42 64.88-128C415.1 335.7 394.2 293 360.5 263.7zM224 95.1c-8.75 0-15.1-7.25-15.1-15.1s7.25-15.1 15.1-15.1s15.1 7.25 15.1 15.1S232.8 95.1 224 95.1zM256 367.1c-8.75 0-15.1-7.25-15.1-15.1S247.3 335.1 256 335.1s15.1 7.25 15.1 15.1S264.8 367.1 256 367.1zM256 303.1c-8.75 0-15.1-7.25-15.1-15.1S247.3 271.1 256 271.1s15.1 7.25 15.1 15.1S264.8 303.1 256 303.1zM256 239.1c-8.75 0-15.1-7.25-15.1-15.1S247.3 207.1 256 207.1s15.1 7.25 15.1 15.1S264.8 239.1 256 239.1zM256 152c0 0-15.1-23.25-15.1-32S247.3 104 256 104s15.1 7.25 15.1 16S256 152 256 152zM287.1 95.1c-8.75 0-15.1-7.25-15.1-15.1s7.25-15.1 15.1-15.1s15.1 7.25 15.1 15.1S296.7 95.1 287.1 95.1z"/><path class="fa-secondary" d="M152.8 180.7L103.8 160c0-.5 .25-1 .25-1.5V111.6C104 103 96.76 96 88.01 96h-16c-8.75 0-16 7-16 15.62v29l-28.25-11.5c-8.125-3.25-17.5 .625-20.75 8.625l-5.875 14.5C-2.119 160.4 1.881 169.5 10.01 172.6L144.4 228.4c-.0664-1.5-.4428-2.915-.4428-4.432C144 208.6 147.2 193.1 152.8 180.7zM510.9 152.3l-5.875-14.5c-3.25-8-12.62-11.88-20.75-8.625l-28.25 11.5v-29C455.1 103 448.7 96 439.1 96h-16c-8.75 0-16 7-16 15.62V158.5c0 .5 .25 1 .25 1.5l-48.98 20.6c5.684 13.33 8.74 27.98 8.74 43.4c0 1.518-.3764 2.932-.4428 4.432l134.4-55.8C510.1 169.5 514.1 160.4 510.9 152.3zM256 335.1c-8.75 0-15.1 7.25-15.1 15.1S247.3 367.1 256 367.1s15.1-7.25 15.1-15.1S264.8 335.1 256 335.1zM256 207.1c-8.75 0-15.1 7.25-15.1 15.1S247.3 239.1 256 239.1s15.1-7.25 15.1-15.1S264.8 207.1 256 207.1zM256 271.1c-8.75 0-15.1 7.25-15.1 15.1S247.3 303.1 256 303.1s15.1-7.25 15.1-15.1S264.8 271.1 256 271.1z"/></svg>