<svg xmlns="http://www.w3.org/2000/svg" viewBox="0 0 384 512"><!--! Font Awesome Pro 6.1.1 by @fontawesome - https://fontawesome.com License - https://fontawesome.com/license (Commercial License) Copyright 2022 Fonticons, Inc. --><defs><style>.fa-secondary{opacity:.4}</style></defs><path class="fa-primary" d="M336 352C336 369.7 321.7 384 304 384H302.2L291.2 483.5C289.4 499.7 275.7 512 259.4 512H124.6C108.3 512 94.64 499.7 92.84 483.5L81.78 384H80C62.33 384 48 369.7 48 352V320H336L336 352z"/><path class="fa-secondary" d="M368 224C368 259.3 339.3 288 304 288H80C44.65 288 16 259.3 16 224C16 191.1 40.84 163.1 72.8 160.4C67.21 150.9 64 139.8 64 128C64 92.65 92.65 64 128 64H174.1C192.8 64 208 48.8 208 30.06C208 21.06 204.4 12.42 198.1 6.059L192 0C262.7 0 320 57.31 320 128C320 139.8 316.8 150.9 311.2 160.4C343.2 163.1 368 191.1 368 224z"/></svg>