<svg xmlns="http://www.w3.org/2000/svg" viewBox="0 0 640 512"><!--! Font Awesome Pro 6.0.0-beta3 by @fontawesome - https://fontawesome.com License - https://fontawesome.com/license (Commercial License) Copyright 2021 Fonticons, Inc. --><defs><style>.fa-secondary{opacity:.4}</style></defs><path class="fa-primary" d="M536.1 160l-19.2-96h-98.1l10.67 96H536.1zM447.9 320h120.9l-25.48-128h-109.5L447.9 320zM387.5 64H252.5l-10.67 96h156.2L387.5 64zM206.1 192H96.7l-25.54 128h120.9L206.1 192zM400.2 448h-48.28v-64H287.1v64.25H239.8c-26.26 0-47.75 21.49-47.75 47.75c0 8.844 7.168 16.01 16.01 16l223.1-.1667c8.828-.0098 15.99-7.17 15.99-16C447.1 469.5 426.6 448 400.2 448zM220.3 64H122.2L103.1 160h106.6L220.3 64zM401.7 192H238.3l-14.22 128h191.8L401.7 192z"/><path class="fa-secondary" d="M575.4 25.72C572.4 10.78 559.2 0 543.1 0H96c-15.25 0-28.39 10.78-31.38 25.72l-63.1 320c-1.891 9.406 .5469 19.16 6.625 26.56S22.41 384 32 384h575.1c9.594 0 18.67-4.312 24.75-11.72s8.516-17.16 6.625-26.56L575.4 25.72zM71.16 320l51.08-256h395.5l51.08 256H71.16z"/></svg>