<svg xmlns="http://www.w3.org/2000/svg" viewBox="0 0 512 512"><!--! Font Awesome Pro 6.1.1 by @fontawesome - https://fontawesome.com License - https://fontawesome.com/license (Commercial License) Copyright 2022 Fonticons, Inc. --><defs><style>.fa-secondary{opacity:.4}</style></defs><path class="fa-primary" d="M272 160C272 204.2 236.2 240 192 240C147.8 240 112 204.2 112 160C112 115.8 147.8 80 192 80C236.2 80 272 115.8 272 160zM192 128C174.3 128 160 142.3 160 160C160 177.7 174.3 192 192 192C209.7 192 224 177.7 224 160C224 142.3 209.7 128 192 128zM6.794 314.8C4.059 303.2 2.116 291.3 1.027 279.1C73.15 304.7 160.8 320 256 320C351.2 320 438.8 304.7 510.1 279.1C509.9 291.3 507.9 303.2 505.2 314.8C432.6 338.4 347.3 352 256 352C164.7 352 79.44 338.4 6.794 314.8V314.8z"/><path class="fa-secondary" d="M256 320C160.8 320 73.15 304.7 1.027 279.1C.3472 271.5 0 263.8 0 256C0 114.6 114.6 0 256 0C316.5 0 372.2 21.02 416 56.15V96H368V160H448V224H510C511.3 234.5 512 245.2 512 256C512 263.8 511.7 271.5 510.1 279.1C438.8 304.7 351.2 320 256 320zM192 80C147.8 80 112 115.8 112 160C112 204.2 147.8 240 192 240C236.2 240 272 204.2 272 160C272 115.8 236.2 80 192 80zM256 352C300.3 352 343.3 348.8 384 342.8V384H448V425.3C401.1 478.5 332.5 512 256 512C134.9 512 33.38 427.9 6.794 314.8C79.44 338.4 164.7 352 256 352z"/></svg>