<svg xmlns="http://www.w3.org/2000/svg" viewBox="0 0 512 512"><!--! Font Awesome Pro 6.0.0-beta3 by @fontawesome - https://fontawesome.com License - https://fontawesome.com/license (Commercial License) Copyright 2021 Fonticons, Inc. --><defs><style>.fa-secondary{opacity:.4}</style></defs><path class="fa-primary" d="M352 485C352 499.9 339.9 512 325 512H186.1C172.1 512 160 499.9 160 485c0-12.37 8.418-23.15 20.42-26.15l23.17-5.793C215.6 450.1 224 439.3 224 426.1V272C224 263.2 231.2 256 240 256h32C280.8 256 288 263.2 288 272v154.1c0 12.37 8.418 23.15 20.42 26.15l23.17 5.793C343.6 461.9 352 472.7 352 485z"/><path class="fa-secondary" d="M512 293.5C512 361 457 416 389.5 416h-11C342.5 416 310.4 400.1 288 375.3V272C288 263.2 280.8 256 272 256h-32C231.2 256 224 263.2 224 272v103.3C201.6 400.1 169.5 416 133.5 416h-11C54.97 416 0 361 0 293.5c0-32.72 12.75-63.5 35.88-86.63l197.5-197.5c12.5-12.5 32.75-12.5 45.25 0l197.5 197.5C499.3 230 512 260.8 512 293.5z"/></svg>