<svg xmlns="http://www.w3.org/2000/svg" viewBox="0 0 512 512"><!--! Font Awesome Pro 6.0.0-beta3 by @fontawesome - https://fontawesome.com License - https://fontawesome.com/license (Commercial License) Copyright 2021 Fonticons, Inc. --><defs><style>.fa-secondary{opacity:.4}</style></defs><path class="fa-primary" d="M384 255.6c0-6-3.375-11.62-8.875-14.38l-112.5-56.31L206.3 72.19c-5.375-10.88-23.13-10.88-28.5 0L121.4 184.9L8.875 241.2C3.375 244 0 249.6 0 255.6c0 6.125 3.375 11.62 8.875 14.38l112.5 56.37l56.38 112.7C180.4 444.4 185.1 447.9 192 447.9c5.999 0 11.62-3.512 14.25-8.887l56.38-112.7l112.5-56.37C380.6 267.2 384 261.8 384 255.6z"/><path class="fa-secondary" d="M324.4 103.1L384 128l24.88 59.63C410.3 190.3 413 192 416 192s5.75-1.75 7.125-4.375L448 128l59.63-24.88C510.3 101.8 512 99 512 96s-1.75-5.75-4.375-7.125L448 64l-24.88-59.62C421.8 1.75 419 0 416 0s-5.75 1.75-7.125 4.375L384 64l-59.63 24.88C321.8 90.25 320 93 320 96S321.8 101.8 324.4 103.1zM507.6 408.9L448 384l-24.88-59.63C421.8 321.8 419 320 416 320s-5.75 1.75-7.125 4.375L384 384l-59.63 24.88C321.8 410.3 320 413 320 416s1.75 5.75 4.375 7.125L384 448l24.88 59.63C410.3 510.3 413 512 416 512s5.75-1.75 7.125-4.375L448 448l59.63-24.88C510.3 421.8 512 419 512 416S510.3 410.3 507.6 408.9z"/></svg>