<svg xmlns="http://www.w3.org/2000/svg" viewBox="0 0 384 512"><!--! Font Awesome Pro 6.0.0-beta3 by @fontawesome - https://fontawesome.com License - https://fontawesome.com/license (Commercial License) Copyright 2021 Fonticons, Inc. --><defs><style>.fa-secondary{opacity:.4}</style></defs><path class="fa-primary" d="M192 160c26.5 0 48-21.5 48-48S218.5 64 192 64S144 85.5 144 112S165.5 160 192 160zM192 224c-61.81 0-112 50.17-112 112S130.2 448 192 448s112-50.17 112-112S253.8 224 192 224zM192 400c-35.31 0-64-28.67-64-64s28.69-64 64-64s64 28.67 64 64S227.3 400 192 400z"/><path class="fa-secondary" d="M336 0h-288C21.5 0 0 21.5 0 48v416C0 490.5 21.5 512 48 512h288c26.5 0 48-21.5 48-48v-416C384 21.5 362.5 0 336 0zM192 64c26.5 0 48 21.5 48 48S218.5 160 192 160S144 138.5 144 112S165.5 64 192 64zM192 448c-61.81 0-112-50.17-112-112S130.2 224 192 224s112 50.17 112 112S253.8 448 192 448z"/></svg>