<svg xmlns="http://www.w3.org/2000/svg" viewBox="0 0 576 512"><!--! Font Awesome Pro 6.0.0-beta3 by @fontawesome - https://fontawesome.com License - https://fontawesome.com/license (Commercial License) Copyright 2021 Fonticons, Inc. --><defs><style>.fa-secondary{opacity:.4}</style></defs><path class="fa-primary" d="M370.1 113.4c-5.467-3.293-12.02-4.271-18.21-2.721c-41.98 10.46-85.88 10.46-127.9 0C211.2 107.5 198.2 115.3 195 128.2c-10.37 41.41-31.8 79.23-61.1 109.4L131.5 239.1C122.1 248.5 122.1 263.7 131.5 273.1L133 274.7c30.16 30.13 51.57 67.89 61.96 109.2c3.215 12.86 16.24 20.68 29.1 17.46c41.98-10.46 85.88-10.46 127.9 0c12.84 3.176 25.82-4.635 29.04-17.46c10.35-41.36 31.74-79.14 61.88-109.3l1.559-1.57c9.389-9.357 9.387-24.59 .0293-33.98L442.1 237.6c-30.17-30.17-51.58-67.98-61.94-109.4C379.5 121.1 375.6 116.7 370.1 113.4zM340.1 350c-35.07-6.025-70.92-6.025-105.1 0C223.3 315.6 205.1 283.7 181.3 256.1C205.1 228.4 223.3 196.5 235 161.1c35.07 6.021 70.92 6.021 105.1 0c11.68 34.52 29.91 66.46 53.68 94.08C370.9 283.7 352.7 315.6 340.1 350zM566.6 233.5C566.6 233.5 566.6 233.5 566.6 233.5l-2.802-2.804c-56.89-56.94-97.25-128.3-116.8-206.3c-4.301-17.14-21.68-27.67-38.83-23.37c0 .002 .002 0 0 0c-78.95 19.67-161.6 19.66-240.6-.012C150.5-3.302 133.3 7.113 129 24.22c-19.54 78.1-59.92 149.5-116.8 206.5L9.384 233.5C-3.118 245.1-3.117 266.3 9.371 278.8c.0098 .0078-.0078-.0078 0 0l2.884 2.884c56.86 56.88 97.21 128.1 116.8 206.2c4.305 17.11 21.64 27.51 38.76 23.24c78.95-19.68 161.6-19.68 240.6 .0051c17.12 4.262 34.32-6.14 38.63-23.25c19.54-78.02 59.9-149.3 116.8-206.2l2.869-2.871C579.1 266.3 579.1 246 566.6 233.5zM393.4 442.3c-69.67-13.29-141.2-13.29-210.9 0c-21.81-68.9-58.06-132.4-106.3-186.1c48.3-53.85 84.56-117.4 106.4-186.4c69.65 13.3 141.2 13.3 210.8 0c21.79 68.99 58.05 132.5 106.4 186.4C451.5 309.9 415.3 373.4 393.4 442.3z"/><path class="fa-secondary" d="M195 128.2C198.2 115.3 211.2 107.5 224.1 110.6c3.133 .7813 6.338 1.094 9.49 1.758l-22-38.53c-9.668-1.328-19.37-2.295-28.98-4.129C179.3 80.05 175.1 89.97 171.2 100l20.1 36.78C193.1 133.9 194.3 131.1 195 128.2zM131.5 273.1C122.1 263.7 122.1 248.5 131.5 239.1l1.52-1.52C134.7 235.9 136.1 233.9 137.8 232.1H95.54C89.17 240.2 83.1 248.5 76.23 256.1c6.889 7.676 12.96 15.97 19.36 24.02h42.24C136.2 278.4 134.8 276.4 133 274.7L131.5 273.1zM195 383.9c-.7305-2.906-1.924-5.643-2.762-8.514l-21 36.78c3.873 9.988 8.072 19.84 11.31 30.08c9.664-1.844 19.43-2.818 29.16-4.15l21.99-38.51c-3.191 .6699-6.432 .9863-9.604 1.777C211.2 404.6 198.2 396.8 195 383.9zM380.1 383.9c-3.217 12.83-16.2 20.64-29.04 17.46c-3.193-.7949-6.457-1.117-9.672-1.791l22 38.53c9.729 1.332 19.49 2.307 29.16 4.15c3.242-10.24 7.439-20.1 11.31-30.08l-21.01-36.79C382.9 378.3 381.7 381 380.1 383.9zM480.4 232.1h-42.21c1.656 1.762 3.045 3.736 4.758 5.449l1.469 1.51c9.357 9.391 9.359 24.62-.0293 33.98l-1.559 1.57c-1.734 1.734-3.141 3.734-4.816 5.52h42.36c6.391-8.057 12.47-16.35 19.36-24.02C492.9 248.4 486.8 240.2 480.4 232.1zM364.4 73.87l-22 38.53c3.154-.6641 6.357-.9766 9.492-1.758c6.189-1.551 12.74-.5723 18.21 2.721c5.461 3.299 9.391 8.635 10.92 14.83c.7305 2.92 1.926 5.668 2.766 8.551l20.96-36.71c-3.896-10.05-8.113-19.97-11.37-30.29C383.8 71.57 374.1 72.54 364.4 73.87zM329.4 280l46.93 .0231c5.732-8.307 11.69-16.32 18.3-23.99c-6.58-7.646-12.55-15.75-18.26-24.02l-47-.0169l23.42-41.02c-4.418-9.461-8.467-19.1-11.83-29.03c-9.578 1.645-19.22 2.744-28.88 3.49L287.1 207.8L263.9 165.5C254.2 164.7 244.6 163.6 235 161.1C231.6 171.9 227.6 181.6 223.2 191l23.38 41.01L199.6 232.1C193.9 240.3 187.9 248.4 181.3 256.1c6.611 7.68 12.56 15.69 18.29 24l46.92-.0231l-23.32 41.1c4.396 9.412 8.428 19 11.78 28.88c9.623-1.652 19.31-2.752 29.01-3.498l23.98-42.26l23.98 42.26c9.707 .7461 19.39 1.846 29.02 3.498c3.352-9.873 7.381-19.46 11.78-28.87L329.4 280z"/></svg>