<svg xmlns="http://www.w3.org/2000/svg" viewBox="0 0 512 512"><!--! Font Awesome Pro 6.0.0-beta3 by @fontawesome - https://fontawesome.com License - https://fontawesome.com/license (Commercial License) Copyright 2021 Fonticons, Inc. --><defs><style>.fa-secondary{opacity:.4}</style></defs><path class="fa-primary" d="M283.2 65.92C267.6 63.69 256 50.32 256 34.52c0-19.38 17.19-34.69 36.38-31.95C416.4 20.29 512 127.2 512 256c0 33.38-6.544 65.26-18.27 94.49c-7.162 17.86-28.85 24.87-45.56 15.32c-13.74-7.854-19.62-24.53-13.75-39.23C443.2 304.7 448 280.9 448 256C448 159.4 376.3 79.18 283.2 65.92z"/><path class="fa-secondary" d="M493.7 350.5C456 444.9 363.7 512 256 512c-141.2 0-256-114.8-256-256s114.8-256 256-256c11.91 0 23.54 1.104 35.03 2.686C272.4 .8672 256 15.62 256 34.52c0 15.8 11.58 29.17 27.23 31.4c.9648 .1367 1.844 .5116 2.805 .6639C276.2 65.04 266.2 64 256 64C150.1 64 64 150.1 64 256s86.13 192 192 192c81.67 0 151.4-51.34 179.1-123.4c-.248 .6406-.4215 1.317-.6754 1.954c-5.869 14.7 .0045 31.38 13.75 39.23C464.8 375.3 486.5 368.2 493.7 350.5z"/></svg>