<svg xmlns="http://www.w3.org/2000/svg" viewBox="0 0 512 512"><!--! Font Awesome Pro 6.1.1 by @fontawesome - https://fontawesome.com License - https://fontawesome.com/license (Commercial License) Copyright 2022 Fonticons, Inc. --><defs><style>.fa-secondary{opacity:.4}</style></defs><path class="fa-primary" d="M504.1 129l-79.99 79.97c-15.13 15.12-40.1 4.406-40.1-16.98V144h-49.59L215.9 277.3C209.8 284.1 201.1 288 192 288H32C14.31 288 0 273.7 0 256s14.31-32 32-32h145.6l118.5-133.3C302.2 83.91 310.9 80 320 80h63.97V32.06c0-21.39 25.86-32.11 40.99-16.98l80 79.98C514.3 104.4 514.3 119.7 504.1 129z"/><path class="fa-secondary" d="M504.1 416.9l-80 79.98c-15.13 15.12-40.99 4.406-40.99-16.98V432H320c-9.125 0-17.84-3.906-23.91-10.75L177.6 288H192c9.125 0 17.84-3.906 23.91-10.75L234.8 256l99.58 112h49.59V319.1c0-21.39 25.87-32.11 40.1-16.98l79.99 79.97C514.3 392.3 514.3 407.6 504.1 416.9z"/></svg>