<svg xmlns="http://www.w3.org/2000/svg" viewBox="0 0 512 512"><!--! Font Awesome Pro 6.1.1 by @fontawesome - https://fontawesome.com License - https://fontawesome.com/license (Commercial License) Copyright 2022 Fonticons, Inc. --><defs><style>.fa-secondary{opacity:.4}</style></defs><path class="fa-primary" d="M398.3 256L288 255.1v-160c0-17.67-14.33-31.1-32-31.1S224 78.33 224 95.1v160L113.8 256C107.1 256 100.9 259.8 97.88 265.9c-3 6-2.375 13.12 1.75 18.62l67.5 78.13L192 387.5V512h128v-124.5l24.88-24.88l67.5-78.13c4.125-5.5 4.75-12.62 1.75-18.62C411.1 259.8 404.9 256 398.3 256z"/><path class="fa-secondary" d="M152 104C138.8 104 128 114.8 128 128s10.75 24 24 24S176 141.3 176 128S165.3 104 152 104zM88 48C74.75 48 64 58.75 64 72S74.75 96 88 96S112 85.25 112 72S101.3 48 88 48zM88 160C74.75 160 64 170.8 64 184S74.75 208 88 208S112 197.3 112 184S101.3 160 88 160zM24 104C10.75 104 0 114.8 0 128s10.75 24 24 24S48 141.3 48 128S37.25 104 24 104zM24 0C10.75 0 0 10.75 0 24S10.75 48 24 48S48 37.25 48 24S37.25 0 24 0zM24 208C10.75 208 0 218.8 0 232S10.75 256 24 256S48 245.3 48 232S37.25 208 24 208zM360 104c-13.25 0-24 10.75-24 24s10.75 24 24 24S384 141.3 384 128S373.3 104 360 104zM424 160c-13.25 0-24 10.75-24 24s10.75 24 24 24S448 197.3 448 184S437.3 160 424 160zM424 48c-13.25 0-24 10.75-24 24S410.8 96 424 96S448 85.25 448 72S437.3 48 424 48zM488 104c-13.25 0-24 10.75-24 24s10.75 24 24 24S512 141.3 512 128S501.3 104 488 104zM488 208c-13.25 0-24 10.75-24 24S474.8 256 488 256S512 245.3 512 232S501.3 208 488 208zM488 48C501.3 48 512 37.25 512 24S501.3 0 488 0S464 10.75 464 24S474.8 48 488 48z"/></svg>