<svg xmlns="http://www.w3.org/2000/svg" viewBox="0 0 384 512"><!--! Font Awesome Pro 6.1.1 by @fontawesome - https://fontawesome.com License - https://fontawesome.com/license (Commercial License) Copyright 2022 Fonticons, Inc. --><defs><style>.fa-secondary{opacity:.4}</style></defs><path class="fa-primary" d="M128 82.56L64 69.76V0H0v96c0 15.26 10.75 28.38 25.73 31.39L128 147.8V82.56zM320 0v69.76l-64 12.8v65.28l102.3-20.45C373.2 124.4 384 111.3 384 96V0H320zM288 192h-64V64c0-17.66-14.34-32-32-32S160 46.34 160 64v128H96C78.34 192 64 206.3 64 224s14.34 32 32 32h192c17.66 0 32-14.34 32-32S305.7 192 288 192z"/><path class="fa-secondary" d="M24 448C10.75 448 0 458.8 0 472s10.82 24 24 24s24-10.79 24-24C48 458.8 37.25 448 24 448zM88 384C74.75 384 64 394.8 64 408c0 13.21 10.82 24 24 24s24-10.69 24-24C112 394.8 101.2 384 88 384zM136 448c-13.25 0-24 10.75-24 24s10.82 24 24 24S160 485.2 160 472C160 458.8 149.2 448 136 448zM248 368c13.25 0 24-10.79 24-24c0-13.25-10.75-24-24-24S224 330.8 224 344C224 357.2 234.8 368 248 368zM296 384c-13.25 0-24 10.78-24 24c0 13.31 10.75 24 24 24S320 421.3 320 408S309.2 384 296 384zM248 448C234.8 448 224 458.8 224 472c0 13.21 10.75 24 24 24s24-10.79 24-24C272 458.8 261.2 448 248 448zM136 320c-13.25 0-24 10.75-24 24s10.82 24 24 24S160 357.2 160 344C160 330.8 149.2 320 136 320zM360 448c-13.25 0-24 10.78-24 24c0 13.21 10.75 24 24 24S384 485.2 384 472C384 458.8 373.2 448 360 448zM192 384c-13.25 0-24 10.75-24 24S178.8 432 192 432s24-10.69 24-24C216 394.8 205.2 384 192 384z"/></svg>