<svg xmlns="http://www.w3.org/2000/svg" viewBox="0 0 448 512"><!--! Font Awesome Pro 6.1.1 by @fontawesome - https://fontawesome.com License - https://fontawesome.com/license (Commercial License) Copyright 2022 Fonticons, Inc. --><defs><style>.fa-secondary{opacity:.4}</style></defs><path class="fa-primary" d="M123.9 256L184.1 310.2C193.9 319 194.7 334.2 185.8 344.1C176.1 353.9 161.8 354.7 151.9 345.8L71.94 273.8C66.89 269.3 64 262.8 64 256C64 249.2 66.89 242.7 71.94 238.2L151.9 166.2C161.8 157.3 176.1 158.1 185.8 167.9C194.7 177.8 193.9 192.1 184.1 201.8L123.9 256zM263.9 201.8C254.1 192.1 253.3 177.8 262.2 167.9C271 158.1 286.2 157.3 296.1 166.2L376.1 238.2C381.1 242.7 384 249.2 384 256C384 262.8 381.1 269.3 376.1 273.8L296.1 345.8C286.2 354.7 271 353.9 262.2 344.1C253.3 334.2 254.1 319 263.9 310.2L324.1 256L263.9 201.8z"/><path class="fa-secondary" d="M0 96C0 60.65 28.65 32 64 32H384C419.3 32 448 60.65 448 96V416C448 451.3 419.3 480 384 480H64C28.65 480 0 451.3 0 416V96zM262.2 167.9C253.3 177.8 254.1 192.1 263.9 201.8L324.1 256L263.9 310.2C254.1 319 253.3 334.2 262.2 344.1C271 353.9 286.2 354.7 296.1 345.8L376.1 273.8C381.1 269.3 384 262.8 384 256C384 249.2 381.1 242.7 376.1 238.2L296.1 166.2C286.2 157.3 271 158.1 262.2 167.9V167.9zM184.1 201.8C193.9 192.1 194.7 177.8 185.8 167.9C176.1 158.1 161.8 157.3 151.9 166.2L71.94 238.2C66.89 242.7 64 249.2 64 256C64 262.8 66.89 269.3 71.94 273.8L151.9 345.8C161.8 354.7 176.1 353.9 185.8 344.1C194.7 334.2 193.9 319 184.1 310.2L123.9 256L184.1 201.8z"/></svg>