<svg xmlns="http://www.w3.org/2000/svg" viewBox="0 0 448 512"><!--! Font Awesome Pro 6.1.1 by @fontawesome - https://fontawesome.com License - https://fontawesome.com/license (Commercial License) Copyright 2022 Fonticons, Inc. --><defs><style>.fa-secondary{opacity:.4}</style></defs><path class="fa-primary" d="M192 224C192 241.7 177.7 256 160 256C142.3 256 128 241.7 128 224V128C128 110.3 142.3 96 160 96C177.7 96 192 110.3 192 128V224zM320 384C320 401.7 305.7 416 288 416C270.3 416 256 401.7 256 384V288C256 270.3 270.3 256 288 256C305.7 256 320 270.3 320 288V384z"/><path class="fa-secondary" d="M64 480C28.65 480 0 451.3 0 416V96C0 60.65 28.65 32 64 32H384C419.3 32 448 60.65 448 96V416C448 451.3 419.3 480 384 480H64zM384 336C384 318.3 369.7 304 352 304H320V288C320 270.3 305.7 256 288 256C270.3 256 256 270.3 256 288V304H96C78.33 304 64 318.3 64 336C64 353.7 78.33 368 96 368H256V384C256 401.7 270.3 416 288 416C305.7 416 320 401.7 320 384V368H352C369.7 368 384 353.7 384 336zM192 144V128C192 110.3 177.7 96 160 96C142.3 96 128 110.3 128 128V144H96C78.33 144 64 158.3 64 176C64 193.7 78.33 208 96 208H128V224C128 241.7 142.3 256 160 256C177.7 256 192 241.7 192 224V208H352C369.7 208 384 193.7 384 176C384 158.3 369.7 144 352 144H192z"/></svg>