<svg xmlns="http://www.w3.org/2000/svg" viewBox="0 0 448 512"><!--! Font Awesome Pro 6.1.1 by @fontawesome - https://fontawesome.com License - https://fontawesome.com/license (Commercial License) Copyright 2022 Fonticons, Inc. --><defs><style>.fa-secondary{opacity:.4}</style></defs><path class="fa-primary" d="M296 336H197.8l117.9-170.3c5.094-7.328 5.688-16.89 1.531-24.8C313.1 132.1 304.9 128 296 128h-144C138.8 128 128 138.8 128 152S138.8 176 152 176h98.19l-117.9 170.3c-5.094 7.328-5.688 16.89-1.531 24.8C134.9 379 143.1 384 152 384h144c13.25 0 24-10.75 24-24S309.3 336 296 336z"/><path class="fa-secondary" d="M384 32H64C28.65 32 0 60.65 0 96v320c0 35.35 28.65 64 64 64h320c35.35 0 64-28.65 64-64V96C448 60.65 419.3 32 384 32zM296 384h-144c-8.938 0-17.12-4.953-21.25-12.86c-4.156-7.906-3.562-17.47 1.531-24.8L250.2 176H152C138.8 176 128 165.3 128 152S138.8 128 152 128h144c8.938 0 17.12 4.953 21.25 12.86c4.156 7.906 3.562 17.47-1.531 24.8L197.8 336H296c13.25 0 24 10.75 24 24S309.3 384 296 384z"/></svg>