<svg xmlns="http://www.w3.org/2000/svg" viewBox="0 0 448 512"><!--! Font Awesome Pro 6.0.0-beta3 by @fontawesome - https://fontawesome.com License - https://fontawesome.com/license (Commercial License) Copyright 2021 Fonticons, Inc. --><defs><style>.fa-secondary{opacity:.4}</style></defs><path class="fa-primary" d="M344 344c0 17.69-14.31 32-32 32h-144c-17.69 0-32-14.31-32-32s14.31-32 32-32h66.75L113.4 190.6c-12.5-12.5-12.5-32.75 0-45.25s32.75-12.5 45.25 0L280 266.8V200c0-17.69 14.31-32 32-32s32 14.31 32 32V344z"/><path class="fa-secondary" d="M384 32H64C28.65 32 0 60.66 0 96v320c0 35.34 28.65 64 64 64h320c35.35 0 64-28.66 64-64V96C448 60.66 419.3 32 384 32zM344 344c0 17.69-14.31 32-32 32h-144c-17.69 0-32-14.31-32-32s14.31-32 32-32h66.75L113.4 190.6c-12.5-12.5-12.5-32.75 0-45.25s32.75-12.5 45.25 0L280 266.8V200c0-17.69 14.31-32 32-32s32 14.31 32 32V344z"/></svg>