<svg xmlns="http://www.w3.org/2000/svg" viewBox="0 0 448 512"><!--! Font Awesome Pro 6.1.1 by @fontawesome - https://fontawesome.com License - https://fontawesome.com/license (Commercial License) Copyright 2022 Fonticons, Inc. --><defs><style>.fa-secondary{opacity:.4}</style></defs><path class="fa-primary" d="M269.2 139.7C284.8 124.1 310.1 124.1 325.8 139.7L340.1 154.1C355.8 169.7 355.8 195 340.1 210.7L318.7 232.1L247.8 161.1L269.2 139.7zM296.1 254.7L190.9 359.9C186.8 364 181.6 366.9 176 368.3L115.9 383.4C110.4 384.7 104.7 383.1 100.7 379.2C96.71 375.2 95.12 369.4 96.48 363.1L111.5 303.8C112.9 298.2 115.8 293.1 119.9 288.1L225.1 183.8L296.1 254.7z"/><path class="fa-secondary" d="M384 32C419.3 32 448 60.65 448 96V416C448 451.3 419.3 480 384 480H64C28.65 480 0 451.3 0 416V96C0 60.65 28.65 32 64 32H384zM325.8 139.7C310.1 124.1 284.8 124.1 269.2 139.7L247.8 161.1L318.7 232.1L340.1 210.7C355.8 195 355.8 169.7 340.1 154.1L325.8 139.7zM111.5 303.8L96.48 363.1C95.11 369.4 96.71 375.2 100.7 379.2C104.7 383.1 110.4 384.7 115.9 383.4L176 368.3C181.6 366.9 186.8 364 190.9 359.9L296.1 254.7L225.1 183.8L119.9 288.1C115.8 293.1 112.9 298.2 111.5 303.8z"/></svg>