<svg xmlns="http://www.w3.org/2000/svg" viewBox="0 0 448 512"><!--! Font Awesome Pro 6.0.0-beta3 by @fontawesome - https://fontawesome.com License - https://fontawesome.com/license (Commercial License) Copyright 2021 Fonticons, Inc. --><defs><style>.fa-secondary{opacity:.4}</style></defs><path class="fa-primary" d="M222.4 128H152C138.8 128 128 138.8 128 152v208C128 373.3 138.8 384 152 384h70.41C293.9 384 352 326.6 352 256C352 185.4 293.9 128 222.4 128zM222.4 336H176v-160h46.41C267.4 176 304 211.9 304 256C304 300.1 267.4 336 222.4 336z"/><path class="fa-secondary" d="M304 256c0 44.13-36.61 80-81.59 80H176v-160h46.41C267.4 176 304 211.9 304 256zM448 96v320c0 35.35-28.65 64-64 64H64c-35.35 0-64-28.65-64-64V96c0-35.35 28.65-64 64-64h320C419.3 32 448 60.65 448 96zM352 256c0-70.58-58.14-128-129.6-128H152C138.8 128 128 138.8 128 152v208C128 373.3 138.8 384 152 384h70.41C293.9 384 352 326.6 352 256z"/></svg>