<svg xmlns="http://www.w3.org/2000/svg" viewBox="0 0 448 512"><!--! Font Awesome Pro 6.0.0-beta3 by @fontawesome - https://fontawesome.com License - https://fontawesome.com/license (Commercial License) Copyright 2021 Fonticons, Inc. --><defs><style>.fa-secondary{opacity:.4}</style></defs><path class="fa-primary" d="M233.9 382.8C227.9 380.3 224 374.5 224 368v-64H128c-17.67 0-32-14.33-32-32v-32c0-17.67 14.33-32 32-32h96v-64c0-6.469 3.891-12.31 9.875-14.78c5.984-2.484 12.86-1.109 17.44 3.469l112 112c6.248 6.248 6.248 16.38 0 22.62l-112 112C246.7 383.9 239.9 385.3 233.9 382.8z"/><path class="fa-secondary" d="M448 416V96c0-35.35-28.65-64-64-64H64C28.65 32 0 60.65 0 96v320c0 35.35 28.65 64 64 64h320C419.3 480 448 451.3 448 416zM233.9 382.8C227.9 380.3 224 374.5 224 368v-64H128c-17.67 0-32-14.33-32-32v-32c0-17.67 14.33-32 32-32h96v-64c0-6.469 3.891-12.31 9.875-14.78c5.984-2.484 12.86-1.109 17.44 3.469l112 112c6.248 6.248 6.248 16.38 0 22.62l-112 112C246.7 383.9 239.9 385.3 233.9 382.8z"/></svg>