<svg xmlns="http://www.w3.org/2000/svg" viewBox="0 0 448 512"><!--! Font Awesome Pro 6.0.0-beta3 by @fontawesome - https://fontawesome.com License - https://fontawesome.com/license (Commercial License) Copyright 2021 Fonticons, Inc. --><defs><style>.fa-secondary{opacity:.4}</style></defs><path class="fa-primary" d="M224 300.2c-7.375 0-14.75-1.688-21.47-5.047L64 225.9V336c0 17.67 14.33 32 32 32h256c17.67 0 32-14.33 32-32V225.9l-138.5 69.27C238.8 298.5 231.4 300.2 224 300.2zM352 144H96c-17.67 0-32 14.33-32 32v14.11l152.8 76.42c4.5 2.25 9.812 2.25 14.31 0L384 190.1V176C384 158.3 369.7 144 352 144z"/><path class="fa-secondary" d="M384 32H64C28.63 32 0 60.63 0 96v320c0 35.38 28.62 64 64 64h320c35.38 0 64-28.62 64-64V96C448 60.63 419.4 32 384 32zM384 336c0 17.67-14.33 32-32 32H96c-17.67 0-32-14.33-32-32v-160c0-17.67 14.33-32 32-32h256c17.67 0 32 14.33 32 32V336z"/></svg>