<svg xmlns="http://www.w3.org/2000/svg" viewBox="0 0 448 512"><!--! Font Awesome Pro 6.0.0-beta3 by @fontawesome - https://fontawesome.com License - https://fontawesome.com/license (Commercial License) Copyright 2021 Fonticons, Inc. --><defs><style>.fa-secondary{opacity:.4}</style></defs><path class="fa-primary" d="M257.1 128h-52C167 128 136 159 136 198c0 13 11 24 24 24s24-11 24-24C184 186 193.1 176 205.1 176h52C269.1 176 280 186 280 198c0 8-4 15-11 19L212 251C204 256 200 264 200 272V288c0 13 11 24 24 24S248 301 248 288V286l45.1-28C315 245 328 222 328 198C328 159 297 128 257.1 128zM224 336c-18 0-32 14-32 32s13.1 32 32 32c17.1 0 32-14 32-32S241.1 336 224 336z"/><path class="fa-secondary" d="M384 32H64C28.65 32 0 60.65 0 96v320c0 35.35 28.65 64 64 64h320c35.35 0 64-28.65 64-64V96C448 60.65 419.3 32 384 32zM224 400c-18 0-32-14-32-32s13.1-32 32-32c17.1 0 32 14 32 32S241.1 400 224 400zM293.1 258L248 286V288c0 13-11 24-24 24S200 301 200 288V272c0-8 4-16 12-21l57-34C276 213 280 206 280 198c0-12-10-22-22-22h-52C193.1 176 184 186 184 198c0 13-11 24-24 24s-24-11-24-24C136 159 167 128 205.1 128h52C297 128 328 159 328 198C328 222 315 245 293.1 258z"/></svg>