<svg xmlns="http://www.w3.org/2000/svg" viewBox="0 0 448 512"><!--! Font Awesome Pro 6.0.0-beta3 by @fontawesome - https://fontawesome.com License - https://fontawesome.com/license (Commercial License) Copyright 2021 Fonticons, Inc. --><defs><style>.fa-secondary{opacity:.4}</style></defs><path class="fa-primary" d="M320 360c0 13.25-10.75 24-24 24h-144c-9.922 0-18.81-6.094-22.39-15.38c-3.578-9.25-1.078-19.75 6.266-26.41l108.4-98.31c7.047-6.938 11.31-17 11.31-27.66s-4.266-20.72-12-28.31C227.4 172 200.9 172 184.6 187.9L173.6 198.7C164.1 208.1 148.1 207.9 139.7 198.4C130.4 188.9 130.5 173.7 140 164.5l11-10.78c34.8-34.19 91.45-34.19 126.3 0c17 16.69 26.38 38.91 26.38 62.56s-9.375 45.88-26.38 62.56L214.2 336H296C309.3 336 320 346.8 320 360z"/><path class="fa-secondary" d="M384 32H64C28.65 32 0 60.65 0 96v320c0 35.35 28.65 64 64 64h320c35.35 0 64-28.65 64-64V96C448 60.65 419.3 32 384 32zM296 384h-144c-9.922 0-18.81-6.094-22.39-15.38c-3.578-9.25-1.078-19.75 6.266-26.41l108.4-98.31c7.047-6.938 11.31-17 11.31-27.66s-4.266-20.72-12-28.31C227.4 172 200.9 172 184.6 187.9L173.6 198.7C164.1 208.1 148.1 207.9 139.7 198.4C130.4 188.9 130.5 173.7 140 164.5l11-10.78c34.8-34.19 91.45-34.19 126.3 0c17 16.69 26.38 38.91 26.38 62.56s-9.375 45.88-26.38 62.56L214.2 336H296c13.25 0 24 10.75 24 24S309.3 384 296 384z"/></svg>