<svg xmlns="http://www.w3.org/2000/svg" viewBox="0 0 448 512"><!--! Font Awesome Pro 6.1.1 by @fontawesome - https://fontawesome.com License - https://fontawesome.com/license (Commercial License) Copyright 2022 Fonticons, Inc. --><defs><style>.fa-secondary{opacity:.4}</style></defs><path class="fa-primary" d="M320 300C320 346.3 282.3 384 236 384H191.4c-28.23 0-53.2-17.1-62.13-44.78c-4.188-12.59 2.609-26.19 15.19-30.38C157 304.8 170.6 311.5 174.8 324C177.2 331.2 183.8 336 191.4 336H236c19.84 0 36-16.16 36-36S255.8 264 236 264H184c-9.891 0-18.78-6.062-22.38-15.31C158 239.5 160.5 229 167.8 222.3L218.3 176H152C138.8 176 128 165.3 128 152S138.8 128 152 128h128c9.891 0 18.78 6.062 22.38 15.31c3.578 9.219 1.141 19.69-6.156 26.38L245.2 216.5C287.2 221.1 320 256.8 320 300z"/><path class="fa-secondary" d="M384 32H64C28.65 32 0 60.65 0 96v320c0 35.35 28.65 64 64 64h320c35.35 0 64-28.65 64-64V96C448 60.65 419.3 32 384 32zM236 384H191.4c-28.23 0-53.2-17.1-62.13-44.78c-4.188-12.59 2.609-26.19 15.19-30.38C157 304.8 170.6 311.5 174.8 324C177.2 331.2 183.8 336 191.4 336H236c19.84 0 36-16.16 36-36S255.8 264 236 264H184c-9.891 0-18.78-6.062-22.38-15.31C158 239.5 160.5 229 167.8 222.3L218.3 176H152C138.8 176 128 165.3 128 152S138.8 128 152 128h128c9.891 0 18.78 6.062 22.38 15.31c3.578 9.219 1.141 19.69-6.156 26.38L245.2 216.5C287.2 221.1 320 256.8 320 300C320 346.3 282.3 384 236 384z"/></svg>