<svg xmlns="http://www.w3.org/2000/svg" viewBox="0 0 448 512"><!--! Font Awesome Pro 6.0.0-beta3 by @fontawesome - https://fontawesome.com License - https://fontawesome.com/license (Commercial License) Copyright 2021 Fonticons, Inc. --><defs><style>.fa-secondary{opacity:.4}</style></defs><path class="fa-primary" d="M320 239.1h-71.25l47.44-105.4c3.062-6.781 1.031-14.81-4.906-19.31c-5.969-4.469-14.22-4.312-19.94 .4687L117.7 243.7C112.6 248 110.7 255.1 112.1 261.4C115.2 267.8 121.2 271.1 127.1 271.1h71.25l-47.44 105.4c-3.062 6.781-1.031 14.81 4.906 19.31C159.6 398.9 162.1 400 166.4 400c3.656 0 7.281-1.25 10.25-3.719l153.6-128c5.156-4.312 7.094-11.41 4.781-17.72C332.8 244.2 326.8 239.1 320 239.1z"/><path class="fa-secondary" d="M384 32H64C28.65 32 0 60.65 0 96v320c0 35.34 28.65 64 64 64h320c35.35 0 64-28.66 64-64V96C448 60.65 419.3 32 384 32zM330.3 268.3l-153.6 128C173.7 398.8 170.1 400 166.4 400c-3.406 0-6.812-1.094-9.687-3.25c-5.938-4.5-7.969-12.53-4.906-19.31l47.44-105.4H127.1c-6.752 0-12.75-4.219-15.03-10.56C110.7 255.1 112.6 248 117.7 243.7l153.6-128c5.719-4.781 13.97-4.938 19.94-.4687c5.938 4.5 7.969 12.53 4.906 19.31l-47.44 105.4h71.25c6.752 0 12.75 4.221 15.03 10.56C337.3 256.9 335.4 263.1 330.3 268.3z"/></svg>