<svg xmlns="http://www.w3.org/2000/svg" viewBox="0 0 448 512"><!--! Font Awesome Pro 6.0.0-beta3 by @fontawesome - https://fontawesome.com License - https://fontawesome.com/license (Commercial License) Copyright 2021 Fonticons, Inc. --><defs><style>.fa-secondary{opacity:.4}</style></defs><path class="fa-primary" d="M224 128C241.7 128 256 142.3 256 160C256 177.7 241.7 192 224 192H128C110.3 192 96 177.7 96 160C96 142.3 110.3 128 128 128H224zM320 224C337.7 224 352 238.3 352 256C352 273.7 337.7 288 320 288H128C110.3 288 96 273.7 96 256C96 238.3 110.3 224 128 224H320zM160 384H128C110.3 384 96 369.7 96 352C96 334.3 110.3 320 128 320H160C177.7 320 192 334.3 192 352C192 369.7 177.7 384 160 384z"/><path class="fa-secondary" d="M448 416C448 451.3 419.3 480 384 480H64C28.65 480 0 451.3 0 416V96C0 60.65 28.65 32 64 32H384C419.3 32 448 60.65 448 96V416zM256 160C256 142.3 241.7 128 224 128H128C110.3 128 96 142.3 96 160C96 177.7 110.3 192 128 192H224C241.7 192 256 177.7 256 160zM128 224C110.3 224 96 238.3 96 256C96 273.7 110.3 288 128 288H320C337.7 288 352 273.7 352 256C352 238.3 337.7 224 320 224H128zM192 352C192 334.3 177.7 320 160 320H128C110.3 320 96 334.3 96 352C96 369.7 110.3 384 128 384H160C177.7 384 192 369.7 192 352z"/></svg>