<svg xmlns="http://www.w3.org/2000/svg" viewBox="0 0 448 512"><!--! Font Awesome Pro 6.0.0-beta3 by @fontawesome - https://fontawesome.com License - https://fontawesome.com/license (Commercial License) Copyright 2021 Fonticons, Inc. --><defs><style>.fa-secondary{opacity:.4}</style></defs><path class="fa-primary" d="M320 296C320 309.3 309.3 320 296 320H288v40c0 13.25-10.75 24-24 24s-24-10.75-24-24V320H138c-8.078 0-15.61-4.062-20.05-10.81s-5.188-15.25-2-22.69l62-144c5.234-12.16 19.31-17.84 31.53-12.53c12.19 5.219 17.8 19.34 12.56 31.53L174.5 272H240V221.3c0-13.25 10.75-24 24-24s24 10.75 24 24V272h8C309.3 272 320 282.8 320 296z"/><path class="fa-secondary" d="M384 32H64C28.65 32 0 60.65 0 96v320c0 35.35 28.65 64 64 64h320c35.35 0 64-28.65 64-64V96C448 60.65 419.3 32 384 32zM296 320H288v40c0 13.25-10.75 24-24 24s-24-10.75-24-24V320H138c-8.078 0-15.61-4.062-20.05-10.81s-5.188-15.25-2-22.69l62-144c5.234-12.16 19.31-17.84 31.53-12.53c12.19 5.219 17.8 19.34 12.56 31.53L174.5 272H240V221.3c0-13.25 10.75-24 24-24s24 10.75 24 24V272h8C309.3 272 320 282.8 320 296S309.3 320 296 320z"/></svg>