<svg xmlns="http://www.w3.org/2000/svg" viewBox="0 0 448 512"><!--! Font Awesome Pro 6.0.0-beta3 by @fontawesome - https://fontawesome.com License - https://fontawesome.com/license (Commercial License) Copyright 2021 Fonticons, Inc. --><defs><style>.fa-secondary{opacity:.4}</style></defs><path class="fa-primary" d="M312 128C298.8 128 288 138.8 288 152v122.9C288 308.6 259.3 336 224 336S160 308.6 160 274.9V152C160 138.8 149.3 128 136 128S112 138.8 112 152v122.9C112 335.1 162.3 384 224 384s112-48.94 112-109.1V152C336 138.8 325.3 128 312 128z"/><path class="fa-secondary" d="M384 32H64C28.65 32 0 60.65 0 96v320c0 35.35 28.65 64 64 64h320c35.35 0 64-28.65 64-64V96C448 60.65 419.3 32 384 32zM336 274.9C336 335.1 285.8 384 224 384s-112-48.94-112-109.1V152C112 138.8 122.8 128 136 128S160 138.8 160 152v122.9C160 308.6 188.7 336 224 336s64-27.41 64-61.09V152C288 138.8 298.8 128 312 128s24 10.75 24 24V274.9z"/></svg>