<svg xmlns="http://www.w3.org/2000/svg" viewBox="0 0 448 512"><!--! Font Awesome Pro 6.1.1 by @fontawesome - https://fontawesome.com License - https://fontawesome.com/license (Commercial License) Copyright 2022 Fonticons, Inc. --><defs><style>.fa-secondary{opacity:.4}</style></defs><path class="fa-primary" d="M206.3 173L224 191L241.7 173C271.1 143.2 318.8 143.2 348.1 173C377.5 202.8 377.5 251.2 348.1 280.1L246.5 384.2C240.3 390.5 232.1 393.6 224 393.6C215.9 393.6 207.7 390.5 201.5 384.2L99.87 280.1C70.48 251.2 70.48 202.8 99.87 173C129.2 143.2 176.9 143.2 206.3 173H206.3z"/><path class="fa-secondary" d="M384 32C419.3 32 448 60.65 448 96V416C448 451.3 419.3 480 384 480H64C28.65 480 0 451.3 0 416V96C0 60.65 28.65 32 64 32H384zM201.5 384.2C207.7 390.5 215.9 393.6 224 393.6C232.1 393.6 240.3 390.5 246.5 384.2L348.1 280.1C377.5 251.2 377.5 202.8 348.1 173C318.8 143.2 271.1 143.2 241.7 173L224 191L206.3 173C176.9 143.2 129.2 143.2 99.87 173C70.48 202.8 70.48 251.2 99.87 280.1L201.5 384.2z"/></svg>