<svg xmlns="http://www.w3.org/2000/svg" viewBox="0 0 512 512"><!--! Font Awesome Pro 6.1.1 by @fontawesome - https://fontawesome.com License - https://fontawesome.com/license (Commercial License) Copyright 2022 Fonticons, Inc. --><defs><style>.fa-secondary{opacity:.4}</style></defs><path class="fa-primary" d="M463.9 448H448.9c18.25-18.38 30.1-42.13 30.1-64c0-26.5-22.12-52.75-47.87-61.13L432 224h47.88c20.36 0 35.62-18.85 31.4-38.77C500.9 136.4 466.8 96 415.9 96V64c-48 0-74.25 62.75-89.37 108.3L216 504.3C231.5 508.9 247.5 512 264.2 512h231.7c8.75 0 15.99-7.125 15.99-16C511.9 469.6 490.3 448 463.9 448zM415.1 160c0-8.875 7.12-16 15.1-16s15.98 7.125 15.98 16s-7.125 16-15.1 16S415.1 168.9 415.1 160z"/><path class="fa-secondary" d="M287.1 288.1l-71.95 216.3c-66.92-19.56-118.1-77.63-120-149.7C95.64 329.2 101.8 305.5 112 284.2C47.94 269.6 0 212.5 0 144C0 64.47 64.47 0 143.1 0s143.1 64.47 143.1 144V288.1z"/></svg>