<svg xmlns="http://www.w3.org/2000/svg" viewBox="0 0 512 512"><!--! Font Awesome Pro 6.0.0-beta3 by @fontawesome - https://fontawesome.com License - https://fontawesome.com/license (Commercial License) Copyright 2021 Fonticons, Inc. --><defs><style>.fa-secondary{opacity:.4}</style></defs><path class="fa-primary" d="M512 79.1v103.9c0 35.75-23.74 67.12-57.99 76.87L285.1 308.1c-13.12 3.75-24.1 10.76-34.62 20.38l-175.6 175.6c-9.375 9.375-24.5 9.375-33.87 0l-33.1-33.1c-9.375-9.373-9.375-24.5 0-33.87l175.6-175.6c21.12-21.13 47.33-36.48 76.08-44.73l157.3-45.01V95.1h-50.37l-11.5 23.12c-4 7.875-13.62 11.13-21.5 7.125L275.4 97.62c-7.873-3.875-11.12-13.5-7.123-21.37l16.01-32.02c13.5-27.12 41.23-44.23 71.48-44.23h76.25C476.1 0 512 35.88 512 79.1z"/><path class="fa-secondary" d="M96.02 303.1v44.12l60.12-60.12H112C103.1 287.1 96.02 295.1 96.02 303.1zM369.9 284.7l32.25 18.63c7.625 4.498 17.49 1.85 21.87-5.774l19.51-33.85L369.9 284.7z"/></svg>