<svg xmlns="http://www.w3.org/2000/svg" viewBox="0 0 576 512"><!--! Font Awesome Pro 6.0.0-beta3 by @fontawesome - https://fontawesome.com License - https://fontawesome.com/license (Commercial License) Copyright 2021 Fonticons, Inc. --><defs><style>.fa-secondary{opacity:.4}</style></defs><path class="fa-primary" d="M576 64c0 17.67-14.31 32-32 32h-96v96c0 17.67-14.31 32-32 32h-96v96c0 17.67-14.31 32-32 32H192v96c0 17.67-14.31 32-32 32H32c-17.69 0-32-14.33-32-32s14.31-32 32-32h96v-96c0-17.67 14.31-32 32-32h96V192c0-17.67 14.31-32 32-32h96V64c0-17.67 14.31-32 32-32h128C561.7 32 576 46.33 576 64z"/></svg>