<svg xmlns="http://www.w3.org/2000/svg" viewBox="0 0 512 512"><!--! Font Awesome Pro 6.0.0-beta3 by @fontawesome - https://fontawesome.com License - https://fontawesome.com/license (Commercial License) Copyright 2021 Fonticons, Inc. --><defs><style>.fa-secondary{opacity:.4}</style></defs><path class="fa-primary" d="M489.1 363.3l-24.03 41.59c-6.634 11.49-21.34 15.43-32.82 8.78l-177.1-102.4L78.87 413.7c-11.49 6.646-26.19 2.712-32.82-8.78l-24.03-41.59c-6.617-11.46-2.68-26.13 8.774-32.77l177.2-102.6L207.1 24c0-13.25 10.76-24 24.02-24h48.04c13.26 0 24.02 10.75 24.02 24l-.015 203.9l177.2 102.6C492.7 337.2 496.6 351.8 489.1 363.3z"/><path class="fa-secondary" d="M207.1 172.9L78.87 98.33c-11.49-6.645-26.19-2.711-32.82 8.781L22.02 148.7C15.4 160.2 19.34 174.8 30.8 181.5L159.5 256l48.43-28.07L207.1 172.9zM207.1 339.1V488c0 13.25 10.76 24 24.02 24h48.04c13.26 0 24.02-10.75 24.02-24v-148.9l-48.03-27.8L207.1 339.1zM489.1 148.7l-24.02-41.59c-6.634-11.49-21.34-15.43-32.82-8.78l-129.1 74.56l-.0154 55.05L352.5 256l128.8-74.53C492.7 174.8 496.6 160.2 489.1 148.7z"/></svg>