<svg xmlns="http://www.w3.org/2000/svg" viewBox="0 0 576 512"><!--! Font Awesome Pro 6.0.0-beta3 by @fontawesome - https://fontawesome.com License - https://fontawesome.com/license (Commercial License) Copyright 2021 Fonticons, Inc. --><defs><style>.fa-secondary{opacity:.4}</style></defs><path class="fa-primary" d="M288 403.1L144.3 508.4C140.9 510.9 137.2 512 133.7 512c-11.36 0-21.49-11.13-17.35-23.89l54.89-169.1L27.53 214.5C13.28 204.2 20.6 181.6 38.21 181.6h177.6l54.89-169.1C273.4 4.189 280.7 0 288 0V403.1z"/><path class="fa-secondary" d="M537.8 181.6h-177.6l-54.89-169.1C302.6 4.189 295.3 0 288 0v114.7l37.33 114.1h120.8l-97.72 71.06l37.33 114.1L288 344.6v59.33l143.7 104.5C435.1 510.9 438.8 512 442.3 512c11.36 0 21.49-11.13 17.35-23.89l-54.89-169.1l143.7-104.5C562.7 204.2 555.4 181.6 537.8 181.6z"/></svg>