<svg xmlns="http://www.w3.org/2000/svg" viewBox="0 0 512 512"><!--! Font Awesome Pro 6.0.0-beta3 by @fontawesome - https://fontawesome.com License - https://fontawesome.com/license (Commercial License) Copyright 2021 Fonticons, Inc. --><defs><style>.fa-secondary{opacity:.4}</style></defs><path class="fa-primary" d="M0 256C0 114.6 114.6 0 256 0C397.4 0 512 114.6 512 256C512 397.4 397.4 512 256 512C114.6 512 0 397.4 0 256zM256 448C362 448 448 362 448 256C448 149.1 362 64 256 64C149.1 64 64 149.1 64 256C64 362 149.1 448 256 448z"/><path class="fa-secondary" d="M288 445.3C277.6 447.1 266.9 448 256 448C245.1 448 234.4 447.1 224 445.3V358.9L168.9 288H66.65C64.91 277.6 64 266.9 64 256C64 245.1 64.91 234.4 66.65 224H160L167.2 209.7C172.6 198.8 183.7 192 195.8 192H316.2C328.3 192 339.4 198.8 344.8 209.7L352 224H445.3C447.1 234.4 448 245.1 448 256C448 266.9 447.1 277.6 445.3 288H343.1L288 358.9L288 445.3z"/></svg>