<svg xmlns="http://www.w3.org/2000/svg" viewBox="0 0 576 512"><!--! Font Awesome Pro 6.0.0-beta3 by @fontawesome - https://fontawesome.com License - https://fontawesome.com/license (Commercial License) Copyright 2021 Fonticons, Inc. --><defs><style>.fa-secondary{opacity:.4}</style></defs><path class="fa-primary" d="M490.3 13.13L547.6 103.8C577.3 150.7 551 215.8 495.5 223.2C491.6 223.7 487.6 224 483.4 224C457.4 224 434.2 212.6 418.3 195C402.4 212.6 379.2 224 353.1 224C327 224 303.8 212.6 287.9 195C272 212.6 248.9 224 222.7 224C196.7 224 173.5 212.6 157.6 195C141.7 212.6 118.5 224 92.36 224C88.3 224 84.21 223.7 80.24 223.2C24.92 215.8-1.255 150.6 28.33 103.8L85.66 13.13C90.76 4.979 99.87 0 109.6 0H466.4C476.1 0 485.2 4.978 490.3 13.13H490.3z"/><path class="fa-secondary" d="M80.23 223.2C84.21 223.7 88.3 224 92.36 224C105.1 224 117.2 221.3 128 216.5V384H448V216.5C458.8 221.3 470.8 224 483.4 224C487.6 224 491.6 223.7 495.5 223.2C501.4 222.4 506.9 221 512 219.1V448C512 483.3 483.3 512 448 512H128C92.65 512 64 483.3 64 448V219.1C69.08 221 74.5 222.4 80.24 223.2H80.23z"/></svg>