<svg xmlns="http://www.w3.org/2000/svg" viewBox="0 0 512 512"><!--! Font Awesome Pro 6.0.0-beta3 by @fontawesome - https://fontawesome.com License - https://fontawesome.com/license (Commercial License) Copyright 2021 Fonticons, Inc. --><defs><style>.fa-secondary{opacity:.4}</style></defs><path class="fa-primary" d="M170.5 392C154.5 392 136 410.7 136 426.5C136 431.9 138.8 440 149.5 440C165.5 440 184 421.4 184 405.5C184 394.8 175.1 392 170.5 392zM117.5 280C133.5 280 152 261.4 152 245.5C152 234.8 143.1 232 138.5 232C122.5 232 104 250.7 104 266.5C104 271.9 106.8 280 117.5 280zM106.5 328C90.5 328 72 346.7 72 362.5C72 367.9 74.8 376 85.46 376C101.5 376 120 357.4 120 341.5C120 330.8 111.1 328 106.5 328zM149.5 184C165.5 184 184 165.4 184 149.5C184 138.8 175.1 136 170.5 136C154.5 136 136 154.7 136 170.5C136 175.9 138.8 184 149.5 184zM213.5 248C229.5 248 248 229.4 248 213.5C248 202.8 239.1 200 234.5 200C218.5 200 200 218.7 200 234.5C200 239.9 202.8 248 213.5 248zM362.5 328C346.5 328 328 346.7 328 362.5C328 367.9 330.8 376 341.5 376C357.5 376 376 357.4 376 341.5C376 330.8 367.1 328 362.5 328zM298.5 264C282.5 264 264 282.7 264 298.5C264 303.9 266.8 312 277.5 312C293.5 312 312 293.4 312 277.5C312 266.8 303.1 264 298.5 264zM266.5 360C250.5 360 232 378.7 232 394.5C232 399.9 234.8 408 245.5 408C261.5 408 280 389.4 280 373.5C280 362.8 271.1 360 266.5 360zM202.5 296C186.5 296 168 314.7 168 330.5C168 335.9 170.8 344 181.5 344C197.5 344 216 325.4 216 309.5C216 298.8 207.1 296 202.5 296zM447.4 108.9c26.14-27.63 48.64-64.69 48.64-84.88c0-13.35-10.89-24.05-24.11-24.05c-32.46 0-16.75 44.21-66.63 82.54C403.6 43.24 373.6 0 360.3 0C347.8 0 320 38.39 320 78.36c0 9.305 .8223 10.95 1.404 15.79c.2773 .2813 .5684 .5137 .8457 .7969l94.97 94.98c.2344 .2305 .4297 .4727 .6621 .7031C422.6 191.2 424 192 433.5 192C471.1 192 512 164.9 512 151.6C512 139.8 477.1 115.4 447.4 108.9z"/><path class="fa-secondary" d="M447.1 322.3c0-45.81-26.67-83.47-53.4-109.7l-95.16-95.16c-26.28-26.73-63.94-53.4-109.8-53.4c-81.09 0-189.7 91.01-189.7 264.7c0 140.8 33.9 183.3 183.3 183.3C357.5 512 447.1 402.7 447.1 322.3zM199.1 234.5c0-16.02 18.64-34.54 34.54-34.54c5.431 0 13.46 2.823 13.46 13.46c0 16.03-18.65 34.54-34.54 34.54C202.8 247.1 199.1 239.1 199.1 234.5zM135.1 170.5c0-16.02 18.64-34.54 34.54-34.54c5.431 0 13.46 2.823 13.46 13.46c0 16.03-18.65 34.54-34.54 34.54C138.8 183.1 135.1 175.1 135.1 170.5zM103.1 266.5c0-16.02 18.64-34.54 34.54-34.54c5.431 0 13.46 2.823 13.46 13.46c0 16.03-18.65 34.54-34.54 34.54C106.8 279.1 103.1 271.1 103.1 266.5zM119.1 341.5c0 16.03-18.65 34.54-34.54 34.54c-10.66 0-13.46-8.049-13.46-13.46c0-16.02 18.64-34.54 34.54-34.54C111.1 327.1 119.1 330.8 119.1 341.5zM183.1 405.5c0 16.03-18.65 34.54-34.54 34.54c-10.66 0-13.46-8.049-13.46-13.46c0-16.02 18.64-34.54 34.54-34.54C175.1 391.1 183.1 394.8 183.1 405.5zM215.1 309.5c0 16.03-18.65 34.54-34.54 34.54c-10.66 0-13.46-8.049-13.46-13.46c0-16.02 18.64-34.54 34.54-34.54C207.1 295.1 215.1 298.8 215.1 309.5zM279.1 373.5c0 16.03-18.65 34.54-34.54 34.54c-10.66 0-13.46-8.049-13.46-13.46c0-16.02 18.64-34.54 34.54-34.54C271.1 359.1 279.1 362.8 279.1 373.5zM311.1 277.5c0 16.03-18.65 34.54-34.54 34.54c-10.66 0-13.46-8.049-13.46-13.46c0-16.02 18.64-34.54 34.54-34.54C303.1 263.1 311.1 266.8 311.1 277.5zM375.1 341.5c0 16.03-18.65 34.54-34.54 34.54c-10.66 0-13.46-8.049-13.46-13.46c0-16.02 18.64-34.54 34.54-34.54C367.1 327.1 375.1 330.8 375.1 341.5z"/></svg>