<svg xmlns="http://www.w3.org/2000/svg" viewBox="0 0 448 512"><!--! Font Awesome Pro 6.1.1 by @fontawesome - https://fontawesome.com License - https://fontawesome.com/license (Commercial License) Copyright 2022 Fonticons, Inc. --><defs><style>.fa-secondary{opacity:.4}</style></defs><path class="fa-primary" d="M368 128h-288C53.5 128 32 149.5 32 176v256C32 458.5 53.5 480 80 480h288c26.5 0 48-21.5 48-48v-256C416 149.5 394.5 128 368 128zM336 384h-224C103.2 384 96 376.8 96 368C96 359.2 103.2 352 112 352h224c8.801 0 16 7.199 16 16C352 376.8 344.8 384 336 384zM336 256h-224C103.2 256 96 248.8 96 240C96 231.2 103.2 224 112 224h224C344.8 224 352 231.2 352 240C352 248.8 344.8 256 336 256z"/><path class="fa-secondary" d="M176.1 48h96V128h47.97l.0123-80c0-26.5-21.5-48-48-48h-96c-26.5 0-48 21.5-48 48L128 128h48.03V48zM96 496C96 504.9 103.1 512 112 512h32C152.9 512 160 504.9 160 496L160.1 480H96.05L96 496zM288 496c0 8.875 7.125 16 16 16h32c8.875 0 16-7.125 16-16l.0492-16h-63.99L288 496zM336 352h-224C103.2 352 96 359.2 96 368C96 376.8 103.2 384 112 384h224c8.801 0 16-7.201 16-16C352 359.2 344.8 352 336 352zM112 256h224C344.8 256 352 248.8 352 240C352 231.2 344.8 224 336 224h-224C103.2 224 96 231.2 96 240C96 248.8 103.2 256 112 256z"/></svg>