<svg xmlns="http://www.w3.org/2000/svg" viewBox="0 0 512 512"><!--! Font Awesome Pro 6.0.0-beta3 by @fontawesome - https://fontawesome.com License - https://fontawesome.com/license (Commercial License) Copyright 2021 Fonticons, Inc. --><defs><style>.fa-secondary{opacity:.4}</style></defs><path class="fa-primary" d="M504.1 71.03l-64-64C436.3 2.344 430.1 0 424 0c-6.141 0-12.28 2.344-16.97 7.031c-9.375 9.375-9.375 24.56 0 33.94L422.1 56L384 94.06l-55.03-55.03c-9.375-9.375-24.56-9.375-33.94 0c-4.233 4.233-6.451 9.601-6.757 15.08c-.3062 5.483 1.297 11.08 4.71 15.78l149.1 149.1C446.3 222.1 451.1 224 456 224c6.141 0 12.28-2.344 16.97-7.031c9.375-9.375 9.375-24.56 0-33.94L417.9 128L456 89.94l15.03 15.03C475.7 109.7 481.9 112 488 112s12.28-2.344 16.97-7.031C509.7 100.3 511.1 94.14 512 88C512 81.86 509.7 75.72 504.1 71.03zM144.8 218.1L122.1 240.8l58.56 58.56C183.8 302.4 187.9 304 192 304s8.188-1.562 11.31-4.688c6.25-6.25 6.25-16.38 0-22.62L144.8 218.1zM208.8 154.1L186.1 176.8l58.56 58.56C247.8 238.4 251.9 240 256 240s8.188-1.562 11.31-4.688c6.25-6.25 6.25-16.38 0-22.62L208.8 154.1z"/><path class="fa-secondary" d="M208.8 154.1l58.56 58.56c6.25 6.25 6.25 16.38 0 22.62C264.2 238.4 260.1 240 256 240S247.8 238.4 244.7 235.3L186.1 176.8L144.8 218.1l58.56 58.56c6.25 6.25 6.25 16.38 0 22.62C200.2 302.4 196.1 304 192 304S183.8 302.4 180.7 299.3L122.1 240.8L82.75 280.1C70.74 292.1 64 308.4 64 325.4v88.68l-56.97 56.97C2.344 475.7 0 481.9 0 487.1c0 6.141 2.344 12.28 7.031 16.97C11.72 509.7 17.86 512 24 512s12.28-2.344 16.97-7.031L97.94 448h88.69c16.97 0 33.25-6.744 45.26-18.75l210.2-210.2L292.1 69.89L208.8 154.1z"/></svg>