<svg xmlns="http://www.w3.org/2000/svg" viewBox="0 0 448 512"><!--! Font Awesome Pro 6.0.0-beta3 by @fontawesome - https://fontawesome.com License - https://fontawesome.com/license (Commercial License) Copyright 2021 Fonticons, Inc. --><defs><style>.fa-secondary{opacity:.4}</style></defs><path class="fa-primary" d="M448 64v320H0V64c0-35.35 28.65-64 64-64h320C419.3 0 448 28.65 448 64z"/><path class="fa-secondary" d="M0 384v64c0 35.35 28.65 64 64 64h320c35.35 0 64-28.65 64-64v-64H0zM288 447.1C288 456.8 280.8 464 272 464H175.1C167.2 464 160 456.8 160 448S167.2 432 175.1 432h96C280.8 432 288 439.2 288 447.1z"/></svg>