<svg xmlns="http://www.w3.org/2000/svg" viewBox="0 0 512 512"><!--! Font Awesome Pro 6.1.1 by @fontawesome - https://fontawesome.com License - https://fontawesome.com/license (Commercial License) Copyright 2022 Fonticons, Inc. --><defs><style>.fa-secondary{opacity:.4}</style></defs><path class="fa-primary" d="M128 32V160H0V96C0 60.65 28.65 32 64 32H128zM414.8 246.1C412.3 252.1 406.5 256 400 256H384V304C384 330.5 362.5 352 336 352H288V368C288 374.5 284.1 380.3 278.1 382.8C272.1 385.3 265.3 383.9 260.7 379.3L228.7 347.3C222.4 341.1 222.4 330.9 228.7 324.7L260.7 292.7C265.3 288.1 272.1 286.7 278.1 289.2C284.1 291.7 288 297.5 288 303.1V319.1H336C344.8 319.1 352 312.8 352 303.1V255.1H336C329.5 255.1 323.7 252.1 321.2 246.1C318.7 240.1 320.1 233.3 324.7 228.7L356.7 196.7C362.9 190.4 373.1 190.4 379.3 196.7L411.3 228.7C415.9 233.3 417.3 240.1 414.8 246.1L414.8 246.1z"/><path class="fa-secondary" d="M128 192V416H448V160H160V32H448C483.3 32 512 60.65 512 96V416C512 451.3 483.3 480 448 480H64C28.65 480 0 451.3 0 416V192H128z"/></svg>