<svg xmlns="http://www.w3.org/2000/svg" viewBox="0 0 448 512"><!--! Font Awesome Pro 6.1.1 by @fontawesome - https://fontawesome.com License - https://fontawesome.com/license (Commercial License) Copyright 2022 Fonticons, Inc. --><defs><style>.fa-secondary{opacity:.4}</style></defs><path class="fa-primary" d="M416 32C433.7 32 448 46.33 448 64V448C448 465.7 433.7 480 416 480C398.3 480 384 465.7 384 448V64C384 46.33 398.3 32 416 32z"/><path class="fa-secondary" d="M32 32C49.67 32 64 46.33 64 64V448C64 465.7 49.67 480 32 480C14.33 480 0 465.7 0 448V64C0 46.33 14.33 32 32 32zM160 32C177.7 32 192 46.33 192 64V448C192 465.7 177.7 480 160 480C142.3 480 128 465.7 128 448V64C128 46.33 142.3 32 160 32zM320 448C320 465.7 305.7 480 288 480C270.3 480 256 465.7 256 448V64C256 46.33 270.3 32 288 32C305.7 32 320 46.33 320 64V448z"/></svg>