<svg xmlns="http://www.w3.org/2000/svg" viewBox="0 0 512 512"><!--! Font Awesome Pro 6.0.0-beta3 by @fontawesome - https://fontawesome.com License - https://fontawesome.com/license (Commercial License) Copyright 2021 Fonticons, Inc. --><defs><style>.fa-secondary{opacity:.4}</style></defs><path class="fa-primary" d="M231.4 144.8L208.9 167.5l51.81 51.81c3.125 3.126 7.218 4.688 11.31 4.688s8.187-1.563 11.31-4.688c6.249-6.252 6.249-16.38 0-22.63L231.4 144.8zM167.6 209.1L145.1 231.8l51.6 51.59c3.125 3.126 7.218 4.688 11.31 4.688s8.187-1.563 11.31-4.688c6.249-6.252 6.249-16.38 0-22.63L167.6 209.1zM347.3 132.7l-52.09-52.09l-22.55 22.7l52.02 52.02c3.125 3.126 7.218 4.688 11.31 4.688s8.187-1.563 11.31-4.688C353.5 149.1 353.5 138.1 347.3 132.7z"/><path class="fa-secondary" d="M483.1 162.6L229.8 415.9l-99.87-.0001l-88.99 89.02c-9.249 9.377-24.5 9.377-33.87 0c-9.374-9.252-9.374-24.51 0-33.88l88.99-89.02l.0003-100.9l49.05-49.39l51.6 51.59c3.125 3.126 7.218 4.688 11.31 4.688s8.187-1.563 11.31-4.688c6.249-6.252 6.249-16.38 0-22.63L167.6 209.1l41.24-41.52l51.81 51.81c3.125 3.126 7.218 4.688 11.31 4.688s8.187-1.563 11.31-4.688c6.249-6.252 6.249-16.38 0-22.63L231.4 144.8l41.24-41.52l52.02 52.02c3.125 3.126 7.218 4.688 11.31 4.688s8.187-1.563 11.31-4.688c6.249-6.252 6.249-16.38 0-22.63l-52.09-52.09l49.68-50.02c36.37-36.51 94.37-40.88 131.9-10.25C526.2 61.11 518.9 127.8 483.1 162.6z"/></svg>