<svg xmlns="http://www.w3.org/2000/svg" viewBox="0 0 512 512"><!--! Font Awesome Pro 6.1.1 by @fontawesome - https://fontawesome.com License - https://fontawesome.com/license (Commercial License) Copyright 2022 Fonticons, Inc. --><defs><style>.fa-secondary{opacity:.4}</style></defs><path class="fa-primary" d="M224 288C224 270.3 238.3 256 256 256C273.7 256 288 270.3 288 288C288 305.7 273.7 320 256 320C238.3 320 224 305.7 224 288zM0 288C0 146.6 114.6 32 256 32C397.4 32 512 146.6 512 288C512 335.3 499.2 379.7 476.8 417.7C497.1 423.3 512 441.9 512 464C512 490.5 490.5 512 464 512H48C21.49 512 0 490.5 0 464C0 441.9 14.93 423.3 35.25 417.7C12.85 379.7 0 335.3 0 288zM256 128C167.6 128 96 199.6 96 288C96 340.3 121.1 386.8 159.1 416C186.7 436.1 219.1 448 256 448C289.1 448 319.9 437.9 345.5 420.7C347.7 419.2 349.9 417.6 352 416C390.9 386.8 416 340.3 416 288C416 199.6 344.4 128 256 128z"/><path class="fa-secondary" d="M96 288C96 199.6 167.6 128 256 128C344.4 128 416 199.6 416 288C416 376.4 344.4 448 256 448C167.6 448 96 376.4 96 288zM202.1 322.4L140.2 342.6C158.5 381.4 195.7 409.5 239.1 415L239.9 349.1C224.1 345.9 210.6 335.9 202.1 322.4V322.4zM271.9 350L271.1 415C316.2 409.5 353.5 381.4 371.8 342.6L309.9 322.4C301.3 335.9 287.8 345.9 271.9 350L271.9 350zM319.9 292L381.7 312.2C383.2 304.3 384 296.3 384 287.1C384 251.2 368.5 218.1 343.7 194.7L305.5 247.4C314.5 258.4 320 272.6 320 287.1C320 289.4 319.1 290.7 319.9 292L319.9 292zM279.6 228.5L317.8 175.9C299.5 165.8 278.4 160 256 160C233.6 160 212.5 165.8 194.2 175.9L232.4 228.5C239.7 225.6 247.7 224 256 224C264.3 224 272.3 225.6 279.6 228.5zM206.5 247.4L168.3 194.7C143.5 218.1 128 251.2 128 287.1C128 296.3 128.8 304.3 130.3 312.2L192.1 292C192 290.7 191.1 289.4 191.1 288C191.1 272.6 197.5 258.4 206.5 247.4H206.5zM256 256C238.3 256 224 270.3 224 288C224 305.7 238.3 320 256 320C273.7 320 288 305.7 288 288C288 270.3 273.7 256 256 256z"/></svg>