<svg xmlns="http://www.w3.org/2000/svg" viewBox="0 0 576 512"><!--! Font Awesome Pro 6.1.1 by @fontawesome - https://fontawesome.com License - https://fontawesome.com/license (Commercial License) Copyright 2022 Fonticons, Inc. --><defs><style>.fa-secondary{opacity:.4}</style></defs><path class="fa-primary" d="M479.1 0c-53 0-96 86.06-96 192.1c0 .1035 0-.1035 0 0c0 0-.2085 185.6-.5835 191.9h96.59C532.1 383.1 576 297.1 576 192C576 86 532.1 0 479.1 0zM479.1 256c-17.63 0-32-28.62-32-64s14.37-64 32-64c17.62 0 32 28.62 32 64S497.6 256 479.1 256zM175.1 192C167.1 192 159.1 199.1 159.1 207.1S167.1 224 175.1 224s16-7.127 16-16S184.9 192 175.1 192zM111.1 192C103.1 192 95.99 199.1 95.99 208S103.1 224 111.1 224C120.9 224 127.1 216.9 127.1 207.1S120.9 192 111.1 192zM303.1 192c-8.877 0-16 7.127-16 16S295.1 224 303.1 224c8.875 0 16-7.125 16-16S312.9 192 303.1 192zM239.1 192c-8.875 0-16 7.123-16 15.1S231.1 224 239.1 224s16.01-7.123 16.01-15.1S248.9 192 239.1 192z"/><path class="fa-secondary" d="M479.1 0H127.1C74.98 0 31.98 86 31.98 192v172.1c0 41.13-9.75 62.75-31.13 126.9C-2.65 501.3 5.099 512 15.98 512h312.9c13.88 0 26-8.75 30.38-21.88C372.1 451.6 384 417.8 384 364.1l-.0063-172.1C383.1 86.06 426.1 0 479.1 0zM111.1 224C103.1 224 95.99 216.9 95.99 208S103.1 192 111.1 192C120.9 192 127.1 199.1 127.1 207.1S120.9 224 111.1 224zM175.1 224C167.1 224 159.1 216.9 159.1 207.1S167.1 192 175.1 192s16 7.123 16 15.1S184.9 224 175.1 224zM239.1 224c-8.875 0-16-7.127-16-16S231.1 192 239.1 192s16.01 7.127 16.01 16S248.9 224 239.1 224zM303.1 224c-8.877 0-16-7.123-16-15.1S295.1 192 303.1 192c8.875 0 16 7.125 16 16S312.9 224 303.1 224z"/></svg>