<svg xmlns="http://www.w3.org/2000/svg" viewBox="0 0 576 512"><!--! Font Awesome Pro 6.1.1 by @fontawesome - https://fontawesome.com License - https://fontawesome.com/license (Commercial License) Copyright 2022 Fonticons, Inc. --><defs><style>.fa-secondary{opacity:.4}</style></defs><path class="fa-primary" d="M224 0C241.7 0 256 14.33 256 32V64H0V32C0 14.33 14.33 0 32 0H224zM544 0C561.7 0 576 14.33 576 32V64H320V32C320 14.33 334.3 0 352 0H544zM192 224C200.8 224 208 231.2 208 240V304C208 312.8 200.8 320 192 320C183.2 320 176 312.8 176 304V240C176 231.2 183.2 224 192 224zM528 304C528 312.8 520.8 320 512 320C503.2 320 496 312.8 496 304V240C496 231.2 503.2 224 512 224C520.8 224 528 231.2 528 240V304z"/><path class="fa-secondary" d="M256 64V488C256 501.3 245.3 512 232 512C218.7 512 208 501.3 208 488V480H48V488C48 501.3 37.25 512 24 512C10.75 512 0 501.3 0 488V64H256zM176 240V304C176 312.8 183.2 320 192 320C200.8 320 208 312.8 208 304V240C208 231.2 200.8 224 192 224C183.2 224 176 231.2 176 240zM576 64V488C576 501.3 565.3 512 552 512C538.7 512 528 501.3 528 488V480H368V488C368 501.3 357.3 512 344 512C330.7 512 320 501.3 320 488V64H576zM496 240V304C496 312.8 503.2 320 512 320C520.8 320 528 312.8 528 304V240C528 231.2 520.8 224 512 224C503.2 224 496 231.2 496 240z"/></svg>