<svg xmlns="http://www.w3.org/2000/svg" viewBox="0 0 640 512"><!--! Font Awesome Pro 6.1.1 by @fontawesome - https://fontawesome.com License - https://fontawesome.com/license (Commercial License) Copyright 2022 Fonticons, Inc. --><defs><style>.fa-secondary{opacity:.4}</style></defs><path class="fa-primary" d="M266.3 0C292.5 0 316 15.93 325.8 40.23L373.7 160H480V126.2C480 101.4 485.8 76.88 496.9 54.66L499.4 49.69C507.3 33.88 526.5 27.47 542.3 35.38C558.1 43.28 564.5 62.5 556.6 78.31L554.1 83.28C547.5 96.61 544 111.3 544 126.2V160H600C622.1 160 640 177.9 640 200V245.4C640 261.9 631.5 277.3 617.4 286.1L574.1 313.2C559.9 307.3 544.3 304 528 304C488.7 304 453.9 322.9 431.1 352H352V320C352 302.3 337.7 288 320 288H311.8C310.1 283.2 308.2 278.5 305.1 273.9L311.8 268.1C324.3 255.6 324.3 235.4 311.8 222.9L289.1 200.2C276.6 187.7 256.4 187.7 243.9 200.2L238.1 206C233.5 203.8 228.8 201.9 224 200.2V192C224 174.3 209.7 160 192 160H304.7L266.3 64H160V160C142.3 160 128 174.3 128 192V200.2C123.2 201.9 118.5 203.8 113.9 206L108.1 200.2C104.6 196.7 100.4 194.2 96 192.6V64C96 28.65 124.7 .0006 160 .0006L266.3 0z"/><path class="fa-secondary" d="M128 192C128 174.3 142.3 160 160 160H192C209.7 160 224 174.3 224 192V200.2C228.8 201.9 233.5 203.8 238.1 206L243.9 200.2C256.4 187.7 276.6 187.7 289.1 200.2L311.8 222.9C324.3 235.4 324.3 255.6 311.8 268.1L305.1 273.9C308.2 278.5 310.1 283.2 311.8 288H320C337.7 288 352 302.3 352 320V352C352 369.7 337.7 384 320 384H311.8C310.1 388.8 308.2 393.5 305.1 398.1L311.8 403.9C324.3 416.4 324.3 436.6 311.8 449.1L289.1 471.8C276.6 484.3 256.4 484.3 243.9 471.8L238.1 465.1C233.5 468.2 228.8 470.1 224 471.8V480C224 497.7 209.7 512 192 512H160C142.3 512 128 497.7 128 480V471.8C123.2 470.1 118.5 468.2 113.9 465.1L108.1 471.8C95.62 484.3 75.36 484.3 62.86 471.8L40.24 449.1C27.74 436.6 27.74 416.4 40.24 403.9L46.03 398.1C43.85 393.5 41.9 388.8 40.19 384H32C14.33 384 0 369.7 0 352V320C0 302.3 14.33 288 32 288H40.19C41.9 283.2 43.85 278.5 46.03 273.9L40.24 268.1C27.74 255.6 27.74 235.4 40.24 222.9L62.86 200.2C75.36 187.7 95.62 187.7 108.1 200.2L113.9 206C118.5 203.8 123.2 201.9 128 200.2V192zM176 256C131.8 256 96 291.8 96 336C96 380.2 131.8 416 176 416C220.2 416 256 380.2 256 336C256 291.8 220.2 256 176 256zM616 424C616 472.6 576.6 512 528 512C479.4 512 440 472.6 440 424C440 375.4 479.4 336 528 336C576.6 336 616 375.4 616 424zM528 400C514.7 400 504 410.7 504 424C504 437.3 514.7 448 528 448C541.3 448 552 437.3 552 424C552 410.7 541.3 400 528 400z"/></svg>