<svg xmlns="http://www.w3.org/2000/svg" viewBox="0 0 640 512"><!--! Font Awesome Pro 6.1.1 by @fontawesome - https://fontawesome.com License - https://fontawesome.com/license (Commercial License) Copyright 2022 Fonticons, Inc. --><defs><style>.fa-secondary{opacity:.4}</style></defs><path class="fa-primary" d="M496 32C522.5 32 544 53.49 544 80V320H608C625.7 320 640 334.3 640 352C640 369.7 625.7 384 608 384H286.9C279.1 329.7 232.4 288 176 288C119.6 288 72.9 329.7 65.13 384H48C21.49 384 0 362.5 0 336V80C0 53.49 21.49 32 48 32H496zM64 112V264.2C73.83 256.1 84.55 249 96 243.2V112C96 103.2 88.84 96 80 96C71.16 96 64 103.2 64 112V112zM176 224C181.4 224 186.7 224.2 192 224.7V112C192 103.2 184.8 96 176 96C167.2 96 160 103.2 160 112V224.7C165.3 224.2 170.6 224 176 224zM256 243.2C267.4 249 278.2 256.1 288 264.2V112C288 103.2 280.8 96 272 96C263.2 96 256 103.2 256 112V243.2zM352 112V304C352 312.8 359.2 320 368 320C376.8 320 384 312.8 384 304V112C384 103.2 376.8 96 368 96C359.2 96 352 103.2 352 112zM480 112C480 103.2 472.8 96 464 96C455.2 96 448 103.2 448 112V304C448 312.8 455.2 320 464 320C472.8 320 480 312.8 480 304V112z"/><path class="fa-secondary" d="M80 96C88.84 96 96 103.2 96 112V243.2C84.55 249 73.83 256.1 64 264.2V112C64 103.2 71.16 96 80 96V96zM160 224.7V112C160 103.2 167.2 96 176 96C184.8 96 192 103.2 192 112V224.7C186.7 224.2 181.4 224 176 224C170.6 224 165.3 224.2 160 224.7zM256 112C256 103.2 263.2 96 272 96C280.8 96 288 103.2 288 112V264.2C278.2 256.1 267.4 249 256 243.2V112zM368 96C376.8 96 384 103.2 384 112V304C384 312.8 376.8 320 368 320C359.2 320 352 312.8 352 304V112C352 103.2 359.2 96 368 96zM480 304C480 312.8 472.8 320 464 320C455.2 320 448 312.8 448 304V112C448 103.2 455.2 96 464 96C472.8 96 480 103.2 480 112V304zM96 400C96 355.8 131.8 320 176 320C220.2 320 256 355.8 256 400C256 444.2 220.2 480 176 480C131.8 480 96 444.2 96 400z"/></svg>