<svg xmlns="http://www.w3.org/2000/svg" viewBox="0 0 512 512"><!--! Font Awesome Pro 6.0.0-beta3 by @fontawesome - https://fontawesome.com License - https://fontawesome.com/license (Commercial License) Copyright 2021 Fonticons, Inc. --><defs><style>.fa-secondary{opacity:.4}</style></defs><path class="fa-primary" d="M256 96c26.5 0 48-21.5 48-48S282.5 0 256 0S208 21.5 208 48S229.5 96 256 96zM152.6 276.5l31.38-37.75L184 288h144l.0065-49.25l31.38 37.75c11.38 13.5 31.5 15.38 45.13 4.125c13.5-11.38 15.38-31.5 4.125-45.13l-70.5-84.5C326 136.4 308 128 289 128h-66c-19 0-37 8.375-49.12 23l-70.5 84.5c-11.25 13.62-9.5 33.75 4.125 45.13C121.1 291.9 141.3 290 152.6 276.5zM384 448H128c-17.62 0-32 14.38-32 32v32h320v-32C416 462.4 401.6 448 384 448z"/><path class="fa-secondary" d="M93.75 364.4L64 352l-12.38-29.75C50.88 320.9 49.5 320 48 320s-2.875 .875-3.625 2.25L32 352l-29.75 12.38C.875 365.1 0 366.5 0 368s.875 2.875 2.25 3.625L32 384l12.38 29.75C45.13 415.1 46.5 416 48 416s2.875-.875 3.625-2.25L64 384l29.75-12.38C95.13 370.9 96 369.5 96 368S95.13 365.1 93.75 364.4zM509.8 172.4L480 160l-12.38-29.75C466.9 128.9 465.5 128 464 128s-2.875 .875-3.625 2.25L448 160l-29.75 12.38C416.9 173.1 416 174.5 416 176s.875 2.875 2.25 3.625L448 192l12.38 29.75C461.1 223.1 462.5 224 464 224s2.875-.875 3.625-2.25L480 192l29.75-12.38C511.1 178.9 512 177.5 512 176S511.1 173.1 509.8 172.4zM336 320h-160C167.2 320 160 327.2 160 336S167.2 352 176 352h160c8.844 0 16-7.156 16-16S344.8 320 336 320zM336 384h-160C167.2 384 160 391.2 160 400S167.2 416 176 416h160c8.844 0 16-7.156 16-16S344.8 384 336 384z"/></svg>