<svg xmlns="http://www.w3.org/2000/svg" viewBox="0 0 448 512"><!--! Font Awesome Pro 6.1.1 by @fontawesome - https://fontawesome.com License - https://fontawesome.com/license (Commercial License) Copyright 2022 Fonticons, Inc. --><defs><style>.fa-secondary{opacity:.4}</style></defs><path class="fa-primary" d="M135.2 17.69C140.6 6.848 151.7 0 163.8 0H284.2C296.3 0 307.4 6.848 312.8 17.69L320 32H416C433.7 32 448 46.33 448 64C448 81.67 433.7 96 416 96H32C14.33 96 0 81.67 0 64C0 46.33 14.33 32 32 32H128L135.2 17.69zM211.8 371.8C200.9 382.7 183.1 382.7 172.2 371.8L108.2 307.8C97.27 296.9 97.27 279.1 108.2 268.2C119.1 257.3 136.9 257.3 147.8 268.2L192 312.4L300.2 204.2C311.1 193.3 328.9 193.3 339.8 204.2C350.7 215.1 350.7 232.9 339.8 243.8L211.8 371.8z"/><path class="fa-secondary" d="M416 448C416 483.3 387.3 512 352 512H96C60.65 512 32 483.3 32 448V96H416V448zM339.8 243.8C350.7 232.9 350.7 215.1 339.8 204.2C328.9 193.3 311.1 193.3 300.2 204.2L192 312.4L147.8 268.2C136.9 257.3 119.1 257.3 108.2 268.2C97.27 279.1 97.27 296.9 108.2 307.8L172.2 371.8C183.1 382.7 200.9 382.7 211.8 371.8L339.8 243.8z"/></svg>