<svg xmlns="http://www.w3.org/2000/svg" viewBox="0 0 448 512"><!--! Font Awesome Pro 6.0.0-beta3 by @fontawesome - https://fontawesome.com License - https://fontawesome.com/license (Commercial License) Copyright 2021 Fonticons, Inc. --><defs><style>.fa-secondary{opacity:.4}</style></defs><path class="fa-primary" d="M432 32H320l-11.58-23.16C305.7 3.424 300.2 0 294.1 0H153.9C147.8 0 142.3 3.424 139.6 8.844L128 32H16C7.164 32 0 39.16 0 48v32C0 88.84 7.164 96 16 96h416C440.8 96 448 88.84 448 80v-32C448 39.16 440.8 32 432 32zM277.8 232.4l-79.13 92.34L168.1 295c-9.375-9.375-24.56-9.375-33.94 0s-9.375 24.56 0 33.94l48 48c4.5 4.5 10.62 7.031 16.97 7.031c.3125 0 .625 0 .9062-.0313c6.688-.25 12.97-3.281 17.31-8.344l96-112c8.625-10.06 7.469-25.22-2.594-33.84C301.6 221.2 286.4 222.3 277.8 232.4z"/><path class="fa-secondary" d="M32 96l21.21 371C54.77 491.8 76.23 512 101.1 512h245.8c24.88 0 46.33-20.16 47.9-45L416 96H32zM314.2 263.6l-96 112c-4.344 5.062-10.62 8.094-17.31 8.344C200.6 383.1 200.3 383.1 200 383.1c-6.344 0-12.47-2.531-16.97-7.031l-48-48c-9.375-9.375-9.375-24.56 0-33.94s24.56-9.375 33.94 0l29.69 29.69l79.13-92.34c8.656-10.06 23.81-11.19 33.84-2.594C321.7 238.4 322.8 253.5 314.2 263.6z"/></svg>