<svg xmlns="http://www.w3.org/2000/svg" viewBox="0 0 640 512"><!--! Font Awesome Pro 6.0.0-beta3 by @fontawesome - https://fontawesome.com License - https://fontawesome.com/license (Commercial License) Copyright 2021 Fonticons, Inc. --><defs><style>.fa-secondary{opacity:.4}</style></defs><path class="fa-primary" d="M24.03 0c5.156 0 10.37 1.672 14.78 5.109l591.1 463.1c10.44 8.172 12.25 23.27 4.062 33.7c-8.125 10.41-23.19 12.28-33.69 4.078L9.189 42.89c-10.44-8.172-12.25-23.26-4.062-33.7C9.845 3.156 16.91 0 24.03 0z"/><path class="fa-secondary" d="M416 448c-8.875 0-16-7.125-16-16v-21.81l-64-50.16V432c0 8.875-7.125 16-16 16s-16-7.125-16-16v-97.05l-64-50.16V432C240 440.9 232.9 448 224 448s-16-7.125-16-16V259.7L128 197V464C128 490.5 149.5 512 176 512h288c16.36 0 30.77-8.228 39.44-20.73l-72.01-56.44C430.1 442.3 423.9 448 416 448zM304 212.1V208C304 199.1 311.1 192 320 192s16 7.125 16 16v30.04l64 50.16V208C400 199.1 407.1 192 416 192s16 7.125 16 16v105.3l80 62.7V128H195.6L304 212.1zM528 32H416l-11.58-23.16C401.7 3.424 396.2 0 390.1 0H249.9C243.8 0 238.3 3.424 235.6 8.844L224 32H112C103.2 32 96 39.16 96 48v1.93L154.8 96H528C536.8 96 544 88.84 544 80v-32C544 39.16 536.8 32 528 32z"/></svg>