<svg xmlns="http://www.w3.org/2000/svg" viewBox="0 0 448 512"><!--! Font Awesome Pro 6.0.0-beta3 by @fontawesome - https://fontawesome.com License - https://fontawesome.com/license (Commercial License) Copyright 2021 Fonticons, Inc. --><defs><style>.fa-secondary{opacity:.4}</style></defs><path class="fa-primary" d="M304 280h-56V223.1C248 210.7 237.3 200 224 200S200 210.7 200 223.1V280H144c-13.26 0-24 10.74-24 23.1c0 13.26 10.73 23.1 24 23.1h56v56C200 397.3 210.7 408 224 408c13.26 0 24-10.74 24-23.1V327.1h56c13.26 0 24-10.74 24-23.1S317.3 280 304 280zM432 32H320l-11.58-23.16C305.7 3.424 300.2 0 294.1 0H153.9C147.8 0 142.3 3.424 139.6 8.844L128 32H16C7.164 32 0 39.16 0 48v32C0 88.84 7.164 96 16 96h416C440.8 96 448 88.84 448 80v-32C448 39.16 440.8 32 432 32z"/><path class="fa-secondary" d="M32 96v368C32 490.5 53.5 512 80 512h288c26.5 0 48-21.5 48-48V96H32zM304 327.1h-56v56C248 397.3 237.3 408 224 408c-13.27 0-24-10.74-24-23.1V327.1H144c-13.27 0-24-10.74-24-23.1c0-13.26 10.74-23.1 24-23.1h56V223.1C200 210.7 210.7 200 224 200s24 10.74 24 23.1V280h56c13.26 0 24 10.74 24 23.1S317.3 327.1 304 327.1z"/></svg>