<svg xmlns="http://www.w3.org/2000/svg" viewBox="0 0 448 512"><!--! Font Awesome Pro 6.0.0-beta3 by @fontawesome - https://fontawesome.com License - https://fontawesome.com/license (Commercial License) Copyright 2021 Fonticons, Inc. --><defs><style>.fa-secondary{opacity:.4}</style></defs><path class="fa-primary" d="M304.1 223c-9.375-9.375-24.56-9.375-33.94 0l-47.03 47.03L176.1 223c-9.375-9.375-24.56-9.375-33.94 0s-9.375 24.56 0 33.94L190.1 304l-47.03 47.03c-9.375 9.375-9.375 24.56 0 33.94c9.373 9.371 24.56 9.379 33.94 0l47.03-47.03l47.03 47.03c9.373 9.371 24.56 9.379 33.94 0c9.375-9.375 9.375-24.56 0-33.94L257.9 304l47.03-47.03C314.3 247.6 314.3 232.4 304.1 223zM432 32H320l-11.58-23.16C305.7 3.424 300.2 0 294.1 0H153.9C147.8 0 142.3 3.424 139.6 8.844L128 32H16C7.164 32 0 39.16 0 48v32C0 88.84 7.164 96 16 96h416C440.8 96 448 88.84 448 80v-32C448 39.16 440.8 32 432 32z"/><path class="fa-secondary" d="M32 96v368C32 490.5 53.5 512 80 512h288c26.5 0 48-21.5 48-48V96H32zM304.1 351c9.375 9.375 9.375 24.56 0 33.94c-9.381 9.379-24.56 9.371-33.94 0l-47.03-47.03l-47.03 47.03c-9.381 9.379-24.56 9.371-33.94 0c-9.375-9.375-9.375-24.56 0-33.94L190.1 304L143 256.1c-9.375-9.375-9.375-24.56 0-33.94s24.56-9.375 33.94 0l47.03 47.03l47.03-47.03c9.375-9.375 24.56-9.375 33.94 0s9.375 24.56 0 33.94L257.9 304L304.1 351z"/></svg>