<svg xmlns="http://www.w3.org/2000/svg" viewBox="0 0 576 512"><!--! Font Awesome Pro 6.0.0-beta3 by @fontawesome - https://fontawesome.com License - https://fontawesome.com/license (Commercial License) Copyright 2021 Fonticons, Inc. --><defs><style>.fa-secondary{opacity:.4}</style></defs><path class="fa-primary" d="M96 256h64V32H96V256zM96 480h64V288H96V480zM416 480h64V288h-64V480zM416 32v224h64V32H416zM336 192h-96C231.2 192 224 199.2 224 208v128C224 344.8 231.2 352 240 352h96c8.836 0 16-7.164 16-16v-128C352 199.2 344.8 192 336 192zM304 304c0 8.836-7.164 16-16 16S272 312.8 272 304v-64C272 231.2 279.2 224 288 224s16 7.162 16 16V304z"/><path class="fa-secondary" d="M352 336c0 8.836-7.164 16-16 16h-96C231.2 352 224 344.8 224 336V288H160v192h256V288h-64V336zM0 128v128h96V32C42.98 32 0 74.98 0 128zM0 448c0 17.67 14.33 32 32 32h64V288H0V448zM160 256h64V208C224 199.2 231.2 192 240 192h96C344.8 192 352 199.2 352 208V256h64V32H160V256zM480 32v224h96V128C576 74.98 533 32 480 32zM480 480h64c17.67 0 32-14.33 32-32V288h-96V480z"/></svg>