<svg xmlns="http://www.w3.org/2000/svg" viewBox="0 0 512 512"><!--! Font Awesome Pro 6.0.0-beta3 by @fontawesome - https://fontawesome.com License - https://fontawesome.com/license (Commercial License) Copyright 2021 Fonticons, Inc. --><defs><style>.fa-secondary{opacity:.4}</style></defs><path class="fa-primary" d="M200 240H223.1v-32c0-8.837 7.163-16 16-16h32c8.837 0 16 7.163 16 16V304h23.99c5.947 0 9.814 6.258 7.154 11.58L288 368V512H223.1V304L192.9 251.6C190.2 246.3 194.1 240 200 240z"/><path class="fa-secondary" d="M446.8 512H288v-144l31.14-52.42C321.8 310.3 317.9 304 311.1 304H288V208C288 199.2 280.8 192 272 192H239.1c-8.836 0-16 7.162-16 16v32H200c-5.947 0-9.814 6.258-7.154 11.58L223.1 304V512h-158.8c-28.5 0-43.75-34.5-24.75-56.38L130.3 352H94.29c-25.62 0-39.5-29.25-23.25-48.5L166 192H121.3C99.92 192 88.29 169.5 101.9 154.8l134.9-146.5c9.998-11 28.5-11 38.5 0l134.1 146.5C423.8 169.5 412.3 192 390.9 192h-44.75l94.87 111.5C457.3 322.8 443.4 352 417.8 352H381.8l89.87 103.6C490.5 477.4 475.4 512 446.8 512z"/></svg>