<svg xmlns="http://www.w3.org/2000/svg" viewBox="0 0 640 512"><!--! Font Awesome Pro 6.0.0-beta3 by @fontawesome - https://fontawesome.com License - https://fontawesome.com/license (Commercial License) Copyright 2021 Fonticons, Inc. --><defs><style>.fa-secondary{opacity:.4}</style></defs><path class="fa-primary" d="M448 191.1C465.7 191.1 480 206.3 480 223.1V287.1H512V175.1C512 168.7 514.5 161.7 519 156L583 76.01C594.1 62.21 614.2 59.97 627.1 71.01C641.8 82.05 644 102.2 632.1 115.1L576 187.2V356.8L632.1 428C644 441.8 641.8 461.9 627.1 472.1C614.2 484 594.1 481.8 583 467.1L519 387.1C514.5 382.3 512 375.3 512 368V352H453.2C435.2 314.2 396.7 288 352 288C307.3 288 268.8 314.2 250.8 352H229.2C211.2 314.2 172.7 288 128 288C83.48 288 45.02 313.1 26.97 351.6C11.68 349.2 0 335.1 0 320V224C0 206.3 14.33 192 32 192H128V80C128 53.49 149.5 32 176 32H269.9C292.4 32 313.2 43.8 324.8 63.07L402.1 192L448 191.1zM269.9 95.1H191.1V191.1H327.5L269.9 95.1z"/><path class="fa-secondary" d="M48 400C48 355.8 83.82 320 128 320C172.2 320 208 355.8 208 400C208 444.2 172.2 480 128 480C83.82 480 48 444.2 48 400zM272 400C272 355.8 307.8 320 352 320C396.2 320 432 355.8 432 400C432 444.2 396.2 480 352 480C307.8 480 272 444.2 272 400z"/></svg>