<svg xmlns="http://www.w3.org/2000/svg" viewBox="0 0 640 512"><!--! Font Awesome Pro 6.1.1 by @fontawesome - https://fontawesome.com License - https://fontawesome.com/license (Commercial License) Copyright 2022 Fonticons, Inc. --><defs><style>.fa-secondary{opacity:.4}</style></defs><path class="fa-primary" d="M32 96C32 60.65 60.65 32 96 32H320C343.7 32 364.4 44.87 375.4 64H427.2C452.5 64 475.4 78.9 485.7 102L538.5 220.8C538.1 221.9 539.4 222.9 539.8 223.1H544C579.3 223.1 608 252.7 608 287.1V319.1C625.7 319.1 640 334.3 640 352C640 369.7 625.7 384 608 384H574.9C567.1 329.7 520.4 287.1 464 287.1C407.6 287.1 360.9 329.7 353.1 384H286.9C279.1 329.7 232.4 287.1 176 287.1C119.6 287.1 72.9 329.7 65.13 384H32C14.33 384 0 369.7 0 352C0 334.3 14.33 319.1 32 319.1V287.1C14.33 287.1 0 273.7 0 255.1V159.1C0 142.3 14.33 127.1 32 127.1L32 96zM469.9 224L427.2 128H384V224H469.9z"/><path class="fa-secondary" d="M96 400C96 355.8 131.8 320 176 320C220.2 320 256 355.8 256 400C256 444.2 220.2 480 176 480C131.8 480 96 444.2 96 400zM384 400C384 355.8 419.8 320 464 320C508.2 320 544 355.8 544 400C544 444.2 508.2 480 464 480C419.8 480 384 444.2 384 400z"/></svg>