<svg xmlns="http://www.w3.org/2000/svg" viewBox="0 0 640 512"><!--! Font Awesome Pro 6.1.1 by @fontawesome - https://fontawesome.com License - https://fontawesome.com/license (Commercial License) Copyright 2022 Fonticons, Inc. --><defs><style>.fa-secondary{opacity:.4}</style></defs><path class="fa-primary" d="M48.41 502.9C31.36 507.5 13.77 497.5 9.126 480.4C4.48 463.4 14.54 445.8 31.59 441.1L352 353.8V64C352 28.65 380.7 0 416 0H640V331.3C616.5 304.8 582.2 288 544 288C477.9 288 423.4 338.2 416.7 402.5L48.41 502.9z"/><path class="fa-secondary" d="M294.5 209.2C303.2 206.8 311.9 207 320 209.3V334.8L33.98 411.5L13.27 334.2C6.412 308.6 21.61 282.3 47.21 275.4C72.82 268.5 99.14 283.7 106 309.3L110.1 324.8L264.7 283.4L260.6 267.9C253.7 242.3 268.9 216 294.5 209.2V209.2zM8.023 252.8C-1.125 218.6 19.14 183.5 53.28 174.4L238.7 124.7C272.9 115.6 307.1 135.8 317.1 169.1L318.8 176.4C308.3 174.8 297.2 175.3 286.2 178.2C248.8 188.3 224.8 223.2 227 260.4L131.2 286C114.6 252.7 76.32 234.5 38.93 244.5C27.94 247.4 18.1 252.5 9.745 259.2L8.023 252.8zM448 416C448 362.1 490.1 319.1 544 319.1C597 319.1 640 362.1 640 416C640 469 597 512 544 512C490.1 512 448 469 448 416z"/></svg>