<svg xmlns="http://www.w3.org/2000/svg" viewBox="0 0 640 512"><!--! Font Awesome Pro 6.1.1 by @fontawesome - https://fontawesome.com License - https://fontawesome.com/license (Commercial License) Copyright 2022 Fonticons, Inc. --><defs><style>.fa-secondary{opacity:.4}</style></defs><path class="fa-primary" d="M493.1 351.2L384.6 304.7c-12.78-5.531-27.8-1.813-36.48 8.969l-44.05 53.81c-69.25-34-125.5-90.28-159.5-159.5l53.83-44.09c10.75-8.781 14.42-23.66 8.984-36.44L160.8 18.93C154.7 5.026 139.7-2.599 124.1 .8073L24.22 24.06C9.969 27.31 0 39.84 0 54.49C0 306.8 205.2 512 457.5 512c14.67 0 27.2-9.969 30.47-24.22l23.25-100.8C514.6 372.4 507 357.2 493.1 351.2z"/><path class="fa-secondary" d="M444 96C437.4 96 432 101.4 432 108v40C432 154.6 437.4 160 444 160h40C490.6 160 496 154.6 496 148v-40C496 101.4 490.6 96 484 96H444zM492 64h39.1c6.625 0 11.1-5.375 11.1-12v-40c0-6.625-5.374-12-11.1-12h-39.1c-6.625 0-11.1 5.375-11.1 12v40C480 58.63 485.4 64 492 64zM588 64h39.1C634.6 64 640 58.63 640 52v-40C640 5.375 634.6 0 628 0H588c-6.625 0-11.1 5.375-11.1 12v40C576 58.63 581.4 64 588 64zM396 64h39.1c6.625 0 11.1-5.375 11.1-12v-40c0-6.625-5.374-12-11.1-12h-39.1c-6.625 0-11.1 5.375-11.1 12v40C384 58.63 389.4 64 396 64zM540 96C533.4 96 528 101.4 528 108v40C528 154.6 533.4 160 540 160h40C586.6 160 592 154.6 592 148v-40C592 101.4 586.6 96 580 96H540zM628 192h-40C581.4 192 576 197.4 576 204v40C576 250.6 581.4 256 588 256h40C634.6 256 640 250.6 640 244v-40C640 197.4 634.6 192 628 192zM532 192h-136C389.4 192 384 197.4 384 204v40C384 250.6 389.4 256 396 256h136C538.6 256 544 250.6 544 244v-40C544 197.4 538.6 192 532 192zM300 64h39.1c6.625 0 11.1-5.375 11.1-12v-40c0-6.625-5.374-12-11.1-12H300c-6.625 0-11.1 5.375-11.1 12v40C288 58.63 293.4 64 300 64zM348 96C341.4 96 336 101.4 336 108v40C336 154.6 341.4 160 348 160h40C394.6 160 400 154.6 400 148v-40C400 101.4 394.6 96 388 96H348zM340 192h-40C293.4 192 288 197.4 288 204v40C288 250.6 293.4 256 300 256h40C346.6 256 352 250.6 352 244v-40C352 197.4 346.6 192 340 192z"/></svg>