<svg xmlns="http://www.w3.org/2000/svg" viewBox="0 0 384 512"><!--! Font Awesome Pro 6.0.0-beta3 by @fontawesome - https://fontawesome.com License - https://fontawesome.com/license (Commercial License) Copyright 2021 Fonticons, Inc. --><defs><style>.fa-secondary{opacity:.4}</style></defs><path class="fa-primary" d="M0 64C0 46.33 14.33 32 32 32H352C369.7 32 384 46.33 384 64C384 81.67 369.7 96 352 96H224V448C224 465.7 209.7 480 192 480C174.3 480 160 465.7 160 448V96H32C14.33 96 0 81.67 0 64z"/><path class="fa-secondary" d="M159.1 264.1L71.76 287C54.62 291.3 37.24 280.9 32.96 263.8C28.67 246.6 39.09 229.2 56.24 224.1L160 199L159.1 264.1zM159.1 360.1L71.76 383C54.62 387.3 37.24 376.9 32.96 359.8C28.67 342.6 39.09 325.2 56.24 320.1L160 295L159.1 360.1zM224 344.1V279L312.2 256.1C329.4 252.7 346.8 263.1 351 280.2C355.3 297.4 344.9 314.8 327.8 319L224 344.1zM224 248.1V183L312.2 160.1C329.4 156.7 346.8 167.1 351 184.2C355.3 201.4 344.9 218.8 327.8 223L224 248.1z"/></svg>