<svg xmlns="http://www.w3.org/2000/svg" viewBox="0 0 640 512"><!--! Font Awesome Pro 6.1.1 by @fontawesome - https://fontawesome.com License - https://fontawesome.com/license (Commercial License) Copyright 2022 Fonticons, Inc. --><defs><style>.fa-secondary{opacity:.4}</style></defs><path class="fa-primary" d="M639.4 140.3c-7.152 45.32-51.3 51.79-83.76 35.38c-20.1-10.96-40.86-2.188-55.21 8.041c-12.11 8.623-24.38 21.21-36.5 37.4c-23.44 31.3-38.42 65.63-42.01 77.35c-29.52 96.37-146.2 111.4-202.8 44.45C172.7 288.8 184.4 193.3 266.2 163.4c44.7-16.61 61.14-.0449 129-21.75c31.16-9.971 55.5-23.91 68.54-39.26c10.19-12.03 13.65-24.81 10.47-39.11c-7.316-33.55 20.14-64.83 54.73-63.21c42.39 1.957 66.34 48.1 41.49 82.3C607.8 70.59 645.4 101.5 639.4 140.3z"/><path class="fa-secondary" d="M488.7 193.9c53.78 58.14 87.32 131.6 87.32 190.1C576 498.9 447.1 512 288 512S0 498.9 0 383.1c0-114.9 128.9-288 287.1-288c45.93 .002 89.2 14.74 127.7 38.05c-6.441 2.711-13.21 5.283-20.45 7.598C327.4 163.3 310.9 146.8 266.2 163.4c-81.84 29.89-93.58 125.4-47.2 179.6c56.68 66.91 173.3 51.92 202.8-44.45c3.586-11.72 18.57-46.05 42.01-77.35C472.1 210.2 480.4 201.5 488.7 193.9z"/></svg>