<svg xmlns="http://www.w3.org/2000/svg" viewBox="0 0 512 512"><!--! Font Awesome Pro 6.1.1 by @fontawesome - https://fontawesome.com License - https://fontawesome.com/license (Commercial License) Copyright 2022 Fonticons, Inc. --><defs><style>.fa-secondary{opacity:.4}</style></defs><path class="fa-primary" d="M392.3 409.6C385.3 416.1 375.2 417.8 366.4 414C357.7 410.2 352 401.5 352 392V183.1C352 174.5 357.7 165.8 366.4 161.1C375.2 158.2 385.3 159.9 392.3 166.4L504.3 270.4C514.6 279.9 514.6 296.1 504.3 305.6L392.3 409.6z"/><path class="fa-secondary" d="M352 319.1H80C35.87 319.1 0 284.1 0 239.1V64C0 46.33 14.31 32 32 32C49.69 32 64 46.33 64 64V239.1C64 248.8 71.19 255.1 80 255.1H352V319.1z"/></svg>