<svg xmlns="http://www.w3.org/2000/svg" viewBox="0 0 512 512"><!--! Font Awesome Pro 6.1.1 by @fontawesome - https://fontawesome.com License - https://fontawesome.com/license (Commercial License) Copyright 2022 Fonticons, Inc. --><defs><style>.fa-secondary{opacity:.4}</style></defs><path class="fa-primary" d="M119.7 409.6c6.984 6.484 17.17 8.219 25.92 4.406s14.41-12.45 14.41-22v-208c0-9.547-5.656-18.19-14.41-22S126.7 159.9 119.7 166.4l-112 104c-10.23 9.498-10.23 25.69 0 35.19L119.7 409.6z"/><path class="fa-secondary" d="M160 256h272C440.8 256 448 248.8 448 240V64c0-17.67 14.31-32 32-32s32 14.33 32 32V240c0 44.11-35.88 80-80 80H160V256z"/></svg>