<svg xmlns="http://www.w3.org/2000/svg" viewBox="0 0 512 512"><!--! Font Awesome Pro 6.1.1 by @fontawesome - https://fontawesome.com License - https://fontawesome.com/license (Commercial License) Copyright 2022 Fonticons, Inc. --><defs><style>.fa-secondary{opacity:.4}</style></defs><path class="fa-primary" d="M384.1 224v160c0 35.35-28.67 64-64.01 64L128.1 448c-35.35 0-64-28.65-64-64V224c0-35.35 28.65-64 64-64l191.1 .0011C355.4 160 384.1 188.7 384.1 224z"/><path class="fa-secondary" d="M448 96L322 96l55.03-55.03c9.375-9.375 9.375-24.56 0-33.94s-24.56-9.375-33.94 0l-87.05 86.95L169 7.031c-9.375-9.375-24.56-9.375-33.94 0s-9.375 24.56 0 33.94L190.1 96L64 96c-35.35 0-64 28.65-64 63.1v287.1C0 483.3 28.65 512 64 512h384c35.35 0 64-28.65 64-63.1V160C512 124.7 483.3 96 448 96zM384.1 384c0 35.35-28.67 64-64.01 64L128.1 448c-35.35 0-64-28.65-64-64V224c0-35.35 28.65-64 64-64l191.1 .0011c35.35 0 64.01 28.65 64.01 63.1V384zM448.1 336c-13.25 0-24-10.75-24-24c0-13.26 10.75-24 24-24s24 10.74 24 24C472.1 325.3 461.3 336 448.1 336zM448.1 256c-13.25 0-24-10.75-24-24c0-13.26 10.71-23.1 23.97-23.1S472.1 218.7 472.1 232C472.1 245.3 461.3 256 448.1 256z"/></svg>