<svg xmlns="http://www.w3.org/2000/svg" viewBox="0 0 576 512"><!--! Font Awesome Pro 6.1.1 by @fontawesome - https://fontawesome.com License - https://fontawesome.com/license (Commercial License) Copyright 2022 Fonticons, Inc. --><defs><style>.fa-secondary{opacity:.4}</style></defs><path class="fa-primary" d="M287.1 191.1C398.8 191.1 432 138.7 432 138.7C432 129.4 431 119.8 429.1 110.3C516.8 129.5 576 166.1 576 207.1C576 269.9 447.1 320 288 320C128.9 320 0 269.9 0 207.1C0 166.1 59.24 129.5 146.9 110.3C144.1 119.8 143.1 129.4 143.1 138.7C143.1 138.7 177.2 191.1 287.1 191.1zM96 183.1C82.75 183.1 72 194.7 72 207.1C72 221.3 82.75 231.1 96 231.1C109.3 231.1 120 221.3 120 207.1C120 194.7 109.3 183.1 96 183.1zM480 231.1C493.3 231.1 504 221.3 504 207.1C504 194.7 493.3 183.1 480 183.1C466.7 183.1 456 194.7 456 207.1C456 221.3 466.7 231.1 480 231.1zM288 231.1C274.7 231.1 264 242.7 264 256C264 269.3 274.7 280 288 280C301.3 280 312 269.3 312 256C312 242.7 301.3 231.1 288 231.1z"/><path class="fa-secondary" d="M144 138.7C144 74.67 190.1 0 288 0C385.9 0 432 74.67 432 138.7C432 138.7 398.8 192 288 192C177.2 192 144 138.7 144 138.7zM78.51 316.9C92.8 322.4 108.2 327.4 124.5 331.8L45.69 498.3C40.02 510.3 25.71 515.4 13.73 509.7C1.748 504-3.363 489.7 2.311 477.7L78.51 316.9zM451.5 331.8C467.8 327.4 483.2 322.4 497.5 316.9L573.7 477.7C579.4 489.7 574.3 504 562.3 509.7C550.3 515.4 535.1 510.3 530.3 498.3L451.5 331.8z"/></svg>