<svg xmlns="http://www.w3.org/2000/svg" viewBox="0 0 576 512"><!--! Font Awesome Pro 6.1.1 by @fontawesome - https://fontawesome.com License - https://fontawesome.com/license (Commercial License) Copyright 2022 Fonticons, Inc. --><defs><style>.fa-secondary{opacity:.4}</style></defs><path class="fa-primary" d="M575.7 280.9C547.1 144.5 437.3 62.61 320 49.91V32.01c0-17.69-14.31-32.01-32-32.01S255.1 14.31 255.1 32.01v17.91C138.3 62.61 29.48 144.5 .2949 280.9C-1.926 290.1 8.795 302.1 18.98 292.2c52-55.01 107.7-52.39 158.6 37.01c5.312 9.502 14.91 8.625 19.72 0C217.5 293.9 242.2 256 287.1 256c58.5 0 88.19 68.82 90.69 73.2c4.812 8.625 14.41 9.502 19.72 0c51-89.52 107.1-91.39 158.6-37.01C567.3 302.2 577.9 290.1 575.7 280.9z"/><path class="fa-secondary" d="M320 264v167.1C320 476.1 284.1 512 239.1 512c-33.81 0-64.19-21.41-75.41-53.32c-5.906-16.6 2.812-34.91 19.5-40.79c16.72-5.908 34.91 2.781 40.81 19.5c1.906 5.375 7.281 10.69 15.1 10.69c8.812 0 16-7.189 16-16V263.3C265.4 258.8 275.9 256 287.1 256C299.1 256 310.4 259.4 320 264z"/></svg>