<svg xmlns="http://www.w3.org/2000/svg" viewBox="0 0 512 512"><!--! Font Awesome Pro 6.0.0-beta3 by @fontawesome - https://fontawesome.com License - https://fontawesome.com/license (Commercial License) Copyright 2021 Fonticons, Inc. --><defs><style>.fa-secondary{opacity:.4}</style></defs><path class="fa-primary" d="M256 160c22.09 0 40-17.91 40-40S278.1 80 256 80S216 97.91 216 120S233.9 160 256 160zM391.1 185.4c-3.656-12.75-16.97-20.25-29.67-16.47l-59.25 16.94c-30.17 8.623-62.15 8.623-92.31 0L150.6 168.9C137.9 165.2 124.6 172.7 120.9 185.4s3.734 26.03 16.48 29.66l59.25 16.97C200.4 233.1 204.2 233.6 208 234.4v62.29l-30.64 87.34c-4.391 12.5 2.188 26.19 14.69 30.59C194.7 415.6 197.4 416 200 416c9.906 0 19.19-6.188 22.64-16.06l25.85-70.65c2.562-7.002 12.46-7.002 15.03 0l25.85 70.65C292.8 409.8 302.1 416 312 416c2.641 0 5.312-.4375 7.953-1.344c12.5-4.406 19.08-18.09 14.69-30.59L304 296.7V234.4C307.8 233.6 311.6 233.1 315.3 232l59.25-16.94C387.3 211.4 394.7 198.2 391.1 185.4z"/><path class="fa-secondary" d="M256 0C114.6 0 0 114.6 0 256c0 141.4 114.6 256 256 256s256-114.6 256-256C512 114.6 397.4 0 256 0zM256 80c22.09 0 40 17.91 40 40S278.1 160 256 160S216 142.1 216 120S233.9 80 256 80zM374.6 215.1L315.3 232C311.6 233.1 307.8 233.6 304 234.4v62.32l30.64 87.34c4.391 12.5-2.188 26.19-14.69 30.59C317.3 415.6 314.6 416 312 416c-9.906 0-19.19-6.188-22.64-16.06l-25.85-70.65c-2.562-7.002-12.46-7.002-15.03 0l-25.85 70.65C219.2 409.8 209.9 416 200 416c-2.641 0-5.312-.4375-7.953-1.344c-12.5-4.406-19.08-18.09-14.69-30.59L208 296.7V234.4C204.2 233.6 200.4 233.1 196.7 232L137.4 215.1C124.7 211.4 117.3 198.2 120.9 185.4S137.9 165.2 150.6 168.9l59.25 16.94c30.17 8.623 62.15 8.623 92.31 0l59.25-16.94c12.7-3.781 26.02 3.719 29.67 16.47C394.7 198.2 387.3 211.4 374.6 215.1z"/></svg>