<svg xmlns="http://www.w3.org/2000/svg" viewBox="0 0 448 512"><!--! Font Awesome Pro 6.0.0-beta3 by @fontawesome - https://fontawesome.com License - https://fontawesome.com/license (Commercial License) Copyright 2021 Fonticons, Inc. --><defs><style>.fa-secondary{opacity:.4}</style></defs><path class="fa-primary" d="M384 224H64c-35.35 0-64 28.65-64 64v160C0 483.3 28.65 512 64 512h320c35.35 0 64-28.66 64-63.1v-160C448 252.7 419.3 224 384 224zM256 384c0 17.67-14.33 32-32 32S192 401.7 192 384v-32c0-17.67 14.33-31.1 32-31.1S256 334.3 256 352V384z"/><path class="fa-secondary" d="M144 224h-64V144C80 64.59 144.6 0 224 0s144 64.59 144 144V160h-64V144C304 99.88 268.1 64 224 64S144 99.88 144 144V224z"/></svg>