<svg xmlns="http://www.w3.org/2000/svg" viewBox="0 0 384 512"><!--! Font Awesome Pro 6.0.0-beta3 by @fontawesome - https://fontawesome.com License - https://fontawesome.com/license (Commercial License) Copyright 2021 Fonticons, Inc. --><defs><style>.fa-secondary{opacity:.4}</style></defs><path class="fa-primary" d="M33.95 209.3c-3.781-8.803-1.984-19.03 4.594-26l136-144.1c9.062-9.601 25.84-9.601 34.91 0l136 144.1c6.578 6.974 8.375 17.2 4.594 26C346.3 218.1 337.6 223.8 328 223.8H256v128.1c0 17.69-14.33 32.04-32 32.04H160c-17.67 0-32-14.35-32-32.04V223.8H56C46.42 223.8 37.75 218.1 33.95 209.3z"/><path class="fa-secondary" d="M352 416H31.1C14.33 416 0 430.3 0 447.1S14.33 480 31.1 480H352C369.7 480 384 465.7 384 448S369.7 416 352 416z"/></svg>