<svg xmlns="http://www.w3.org/2000/svg" viewBox="0 0 448 512"><!--! Font Awesome Pro 6.0.0-beta3 by @fontawesome - https://fontawesome.com License - https://fontawesome.com/license (Commercial License) Copyright 2021 Fonticons, Inc. --><defs><style>.fa-secondary{opacity:.4}</style></defs><path class="fa-primary" d="M322.7 256C347.7 256 368 235.7 368 210.7c0-12-4.768-23.51-13.25-32C342.7 166.7 336 150.5 336 133.5V112C336 103.2 328.8 96 320 96v72c0 39.42-23.81 73.22-57.79 88H322.7zM125.3 256h60.54C151.8 241.2 128 207.4 128 168V96C119.2 96 112 103.2 112 112v21.49c0 16.97-6.742 33.25-18.75 45.25C84.77 187.2 80 198.7 80 210.7C80 235.7 100.3 256 125.3 256zM323.6 323.3C340.8 338 352 359.6 352 384v16c0 5.891-3.25 11.3-8.438 14.08C341.2 415.4 338.6 415.1 336 415.1c-3.094 0-6.188-.8906-8.844-2.656C326.7 413 282.1 384 224 384s-102.7 29.05-103.2 29.33c-4.875 3.266-11.22 3.547-16.41 .75C99.25 411.3 96 405.9 96 400V384c0-24.38 11.19-45.97 28.44-60.66C53.25 339.6 0 402.1 0 479.1c0 17.67 14.33 32 32 32h176.2C208.7 502.7 215.5 496 224 496s15.3 6.649 15.81 15.03H416c17.67 0 32-14.33 32-32C448 402.1 394.8 339.6 323.6 323.3zM224 463.1c-8.836 0-16-7.164-16-16s7.164-16 16-16s16 7.164 16 16S232.8 463.1 224 463.1zM264 144c8.836 0 16-7.164 16-16c0-8.838-7.164-16-16-16s-16 7.162-16 16C248 136.8 255.2 144 264 144zM212 240v32c0 6.625 5.375 12 12 12s12-5.375 12-12v-32c0-6.625-5.375-12-12-12S212 233.4 212 240zM184 144c8.836 0 16-7.164 16-16c0-8.838-7.164-16-16-16S168 119.2 168 128C168 136.8 175.2 144 184 144zM176 191.1C176 198.6 181.4 204 188 204c14.34 0 27.78-7.316 36-12.91C232.2 196.7 245.7 204 260 204c6.625 0 12-5.377 12-12.01c0-6.627-5.375-12-12-12c-10.91 0-23.94-9.379-28.06-12.99c-4.5-4-11.38-4-15.88 0C211.9 170.6 198.9 179.1 188 179.1C181.4 179.1 176 185.4 176 191.1z"/><path class="fa-secondary" d="M282.8 305.1C269.6 311.9 255.3 316.5 240 318.4v66.56c50 4.518 86.76 28.13 87.16 28.38c2.656 1.766 5.75 2.656 8.844 2.656c2.594 0 5.188-.625 7.562-1.906C348.8 411.3 352 405.9 352 400V384C352 343.6 321.8 310.4 282.8 305.1zM96 384v16c0 5.891 3.25 11.3 8.438 14.08c5.188 2.797 11.53 2.516 16.41-.75C121.2 413.1 157.1 389.5 208 384.9V318.4C192.7 316.5 178.4 311.9 165.2 305.1C126.2 310.4 96 343.6 96 384zM320 168V96c0-53.02-42.98-96-96-96S128 42.98 128 96v72c0 48.91 36.71 88.82 84 94.79V240c0-6.625 5.375-12 12-12s12 5.375 12 12v22.79C283.3 256.8 320 216.9 320 168zM264 112c8.836 0 16 7.162 16 16c0 8.836-7.164 16-16 16s-16-7.164-16-16C248 119.2 255.2 112 264 112zM168 128c0-8.838 7.164-16 16-16s16 7.162 16 16c0 8.836-7.164 16-16 16S168 136.8 168 128zM224 191.1C215.8 196.7 202.3 204 188 204C181.4 204 176 198.6 176 191.1c0-6.627 5.375-12 12-12c10.91 0 23.94-9.379 28.06-12.99c4.5-4 11.38-4 15.88 0C236.1 170.6 249.1 179.1 260 179.1c6.625 0 12 5.377 12 12C272 198.6 266.6 204 260 204C245.7 204 232.2 196.7 224 191.1z"/></svg>