<svg xmlns="http://www.w3.org/2000/svg" viewBox="0 0 448 512"><!--! Font Awesome Pro 6.1.1 by @fontawesome - https://fontawesome.com License - https://fontawesome.com/license (Commercial License) Copyright 2022 Fonticons, Inc. --><defs><style>.fa-secondary{opacity:.4}</style></defs><path class="fa-primary" d="M112 176h224c17.67 0 32-14.33 32-32v-64c0-17.67-14.33-32-32-32h-224c-17.67 0-32 14.33-32 32v64C80 161.7 94.33 176 112 176zM128 96h192v32H128V96zM274.7 304H173.3C77.61 304 0 381.6 0 477.3C0 496.5 15.52 512 34.66 512H413.3C432.5 512 448 496.5 448 477.3C448 381.6 370.4 304 274.7 304zM353.3 463.9C352.9 464 352.4 464 352 464c-1.25 0-2.5-.625-3.25-1.625c-12.25-17.25-17.62-23-19.88-25c-.5 0-.875 .125-1.375 .375c-3.25 1-12.25 5.5-37 24.75c-1.375 1-2.1 1.125-4.5 .375C284.6 462.1 283.9 460.5 284 459c3.875-36.5 15.88-66.5 35.75-89.5C320.5 368.6 321.6 368 322.9 368c1.25 .125 2.375 .625 3 1.625c18.88 24.62 29 55 30.12 90.25C356 461.8 355 463.3 353.3 463.9z"/><path class="fa-secondary" d="M224 0C183.8 0 148.3 18.95 124.8 48h198.3C299.7 18.95 264.3 0 224 0zM342.1 174.6C340.7 175.1 338.5 176 336 176h-224c-2.463 0-4.66-.8659-6.962-1.393C123.7 222.2 169.8 256 224 256S324.3 222.2 342.1 174.6zM325.9 369.6c-.625-1-1.75-1.5-3-1.625c-1.25 0-2.375 .625-3.125 1.5c-19.88 23-31.88 53-35.75 89.5c-.125 1.5 .6252 3.125 1.1 3.875c1.501 .75 3.125 .625 4.5-.375c24.75-19.25 33.75-23.75 37-24.75c.5-.25 .875-.375 1.375-.375c2.25 2 7.625 7.75 19.88 25C349.5 463.4 350.8 464 352 464c.375 0 .875 0 1.25-.125c1.75-.625 2.75-2.125 2.75-4C354.9 424.6 344.8 394.3 325.9 369.6z"/></svg>