<svg xmlns="http://www.w3.org/2000/svg" viewBox="0 0 640 512"><!--! Font Awesome Pro 6.0.0-beta3 by @fontawesome - https://fontawesome.com License - https://fontawesome.com/license (Commercial License) Copyright 2021 Fonticons, Inc. --><defs><style>.fa-secondary{opacity:.4}</style></defs><path class="fa-primary" d="M628 380h-48v-48c0-6.627-5.373-12-12-12h-48c-6.627 0-12 5.373-12 12v48h-48c-6.627 0-12 5.373-12 12v48c0 6.627 5.373 12 12 12h48v48c0 6.627 5.373 12 12 12h48c6.627 0 12-5.373 12-12v-48h48c6.627 0 12-5.373 12-12v-48C640 385.4 634.6 380 628 380z"/><path class="fa-secondary" d="M128 160c44.18 0 80-35.82 80-80S172.2 0 128 0C83.82 0 48 35.82 48 80S83.82 160 128 160zM319.9 320c57.41 0 103.1-46.56 103.1-104c0-57.44-46.54-104-103.1-104c-57.41 0-103.1 46.56-103.1 104C215.9 273.4 262.5 320 319.9 320zM512 160c44.18 0 80-35.82 80-80S556.2 0 512 0c-44.18 0-80 35.82-80 80S467.8 160 512 160zM476 484h-16c-24.26 0-44-19.74-44-44v-48c0-10.1 4.199-20.94 10.89-28.66C409.4 356.1 390.2 352 369.9 352H270.1C191.6 352 128 411.7 128 485.3C128 500.1 140.7 512 156.4 512h321.5C476.8 508.2 476 504.2 476 500V484zM551.9 192h-61.84c-12.8 0-24.88 3.037-35.86 8.24C454.8 205.5 455.8 210.6 455.8 216c0 33.71-12.78 64.21-33.16 88h63.7C494.4 294.3 506.4 288 520 288h48c13.57 0 25.58 6.309 33.65 16h20.73C632.1 304 640 295.6 640 285.3C640 233.8 600.6 192 551.9 192zM183.9 216c0-5.449 .9824-10.63 1.609-15.91C174.6 194.1 162.6 192 149.9 192H88.08C39.44 192 0 233.8 0 285.3C0 295.6 7.887 304 17.62 304h199.5C196.7 280.2 183.9 249.7 183.9 216z"/></svg>