<svg xmlns="http://www.w3.org/2000/svg" viewBox="0 0 448 512"><!--! Font Awesome Pro 6.1.1 by @fontawesome - https://fontawesome.com License - https://fontawesome.com/license (Commercial License) Copyright 2022 Fonticons, Inc. --><defs><style>.fa-secondary{opacity:.4}</style></defs><path class="fa-primary" d="M70.63 272C58.13 272 47.1 261.9 47.1 249.4C47.1 243.4 50.38 237.6 54.63 233.4L58.51 229.5C82.51 205.5 95.1 172.9 95.1 138.1V128C95.1 57.31 153.3 0 224 0C294.6 0 351.8 57.1 352 127.6V128.4L352 128.6V138.1C352 172.9 365.5 205.5 389.5 229.5L393.4 233.4C397.6 237.6 400 243.4 400 249.4C400 261.9 389.9 272 377.4 272H70.63zM127.1 112V160C127.1 213 170.1 256 223.1 256C277 256 319.1 213 319.1 160L320 96H312C289.2 96 269.2 84.09 257.9 66.16C240.1 93.66 210.6 112 176 112H127.1zM287.1 362C260.4 369.1 239.1 394.2 239.1 424V448C239.1 452.2 241.7 456.3 244.7 459.3L260.7 475.3C266.9 481.6 277.1 481.6 283.3 475.3C289.6 469.1 289.6 458.9 283.3 452.7L271.1 441.4V424C271.1 406.3 286.3 392 303.1 392C321.7 392 336 406.3 336 424V441.4L324.7 452.7C318.4 458.9 318.4 469.1 324.7 475.3C330.9 481.6 341.1 481.6 347.3 475.3L363.3 459.3C366.3 456.3 368 452.2 368 448V424C368 394.2 347.6 369.1 320 362V308.8C393.5 326.7 448 393 448 472V480C448 497.7 433.7 512 416 512H32C14.33 512 0 497.7 0 480V472C0 393 54.53 326.7 128 308.8V370.3C104.9 377.2 88 398.6 88 424C88 454.9 113.1 480 144 480C174.9 480 200 454.9 200 424C200 398.6 183.1 377.2 160 370.3V304.2C162.7 304.1 165.3 304 168 304H280C282.7 304 285.3 304.1 288 304.2L287.1 362zM167.1 424C167.1 437.3 157.3 448 143.1 448C130.7 448 119.1 437.3 119.1 424C119.1 410.7 130.7 400 143.1 400C157.3 400 167.1 410.7 167.1 424z"/><path class="fa-secondary" d="M312 96H320L320 160C320 213 277 256 224 256C170.1 256 128 213 128 160L128 112H176C210.6 112 240.1 93.66 257.9 66.16C269.2 84.1 289.2 96 312 96V96z"/></svg>