<svg xmlns="http://www.w3.org/2000/svg" viewBox="0 0 448 512"><!--! Font Awesome Pro 6.1.1 by @fontawesome - https://fontawesome.com License - https://fontawesome.com/license (Commercial License) Copyright 2022 Fonticons, Inc. --><defs><style>.fa-secondary{opacity:.4}</style></defs><path class="fa-primary" d="M97.66 107.4C107.5 46.48 160.3 0 224 0C283.6 0 333.8 40.79 347.1 96H312C289.2 96 269.2 84.09 257.9 66.16C240.1 93.66 210.6 112 176 112H120C112.1 112 104.5 110.3 97.66 107.4V107.4zM297.2 320.3C381.4 325.7 448 395.7 448 481.3C448 498.2 434.2 512 417.3 512H30.72C13.75 512 0 498.2 0 481.3C0 395.7 66.62 325.7 150.8 320.3L224 424L297.2 320.3z"/><path class="fa-secondary" d="M257.9 66.16C269.2 84.1 289.2 96 312 96H347.1C350.6 106.2 352 116.1 352 128C352 198.7 294.7 256 224 256C153.3 256 96 198.7 96 128C96 120.1 96.57 114.1 97.65 107.4C104.5 110.4 112.1 112 120 112H176C210.6 112 240.1 93.66 257.9 66.16V66.16z"/></svg>