<svg xmlns="http://www.w3.org/2000/svg" viewBox="0 0 448 512"><!--! Font Awesome Pro 6.0.0-beta3 by @fontawesome - https://fontawesome.com License - https://fontawesome.com/license (Commercial License) Copyright 2021 Fonticons, Inc. --><defs><style>.fa-secondary{opacity:.4}</style></defs><path class="fa-primary" d="M0 485.3C0 500.1 11.94 512 26.66 512H208l-79.7-159.5C57.05 355.2 0 413.4 0 485.3zM369.5 102.4l21.96-22.3c4.564-4.635 7.129-10.93 7.129-17.48c0-11.35-7.602-21.24-18.44-23.99l-148.3-37.67c-5.096-1.295-10.43-1.295-15.52 0l-148.3 37.67C57.06 41.39 49.46 51.28 49.46 62.62c0 6.555 2.564 12.85 7.129 17.48l21.96 22.3v44.04C119.1 164.9 169.4 176 224 176s104.9-11.08 145.5-29.55V102.4zM279.2 94.31l-48 24C228.9 119.4 226.4 120 224 120S219.1 119.4 216.8 118.3l-48-24C160.9 90.34 157.8 80.75 161.7 72.84c3.969-7.875 13.56-11.09 21.47-7.156L224 86.13l40.84-20.44c7.938-3.969 17.5-.75 21.47 7.156C290.3 80.75 287.1 90.34 279.2 94.31zM319.7 352.5L240 512h181.3C436.1 512 448 500.1 448 485.3C448 413.4 390.1 355.2 319.7 352.5zM368 448h-32c-8.836 0-16-7.164-16-16c0-8.838 7.164-16 16-16h32c8.836 0 16 7.162 16 16C384 440.8 376.8 448 368 448z"/><path class="fa-secondary" d="M346 155.5C310.1 168.3 268.7 176 224 176S137.9 168.3 101.1 155.5C98.49 167.1 96 179.2 96 192c0 70.75 57.25 128 127.1 128s127.1-57.25 127.1-128C351.1 179.2 349.5 167.1 346 155.5zM176 352l32 56l-16.64 70.71L208 512h32l16.64-33.29L240 408l32-56H176z"/></svg>