<svg xmlns="http://www.w3.org/2000/svg" viewBox="0 0 448 512"><!--! Font Awesome Pro 6.0.0-beta3 by @fontawesome - https://fontawesome.com License - https://fontawesome.com/license (Commercial License) Copyright 2021 Fonticons, Inc. --><defs><style>.fa-secondary{opacity:.4}</style></defs><path class="fa-primary" d="M116.8 38.04L212.8 2.037C220-.6791 227.1-.6791 235.2 2.037L331.2 38.04C343.7 42.72 352 54.66 352 68V136.8C352 170.8 365.5 203.3 389.5 227.3L393.4 231.2C397.6 235.4 400 241.2 400 247.2C400 259.7 389.9 269.8 377.4 269.8H70.63C58.13 269.8 48 259.7 48 247.2C48 241.2 50.38 235.4 54.63 231.2L58.51 227.3C82.51 203.3 96 170.8 96 136.8V68C96 54.66 104.3 42.72 116.8 38.04V38.04zM221.3 29.83C216.9 29.83 213.3 33.41 213.3 37.83V51.16H200C195.6 51.16 192 54.75 192 59.16V64.5C192 68.92 195.6 72.5 200 72.5H213.3V85.83C213.3 90.25 216.9 93.83 221.3 93.83H226.7C231.1 93.83 234.7 90.25 234.7 85.83V72.5H248C252.4 72.5 256 68.92 256 64.5V59.16C256 54.75 252.4 51.16 248 51.16H234.7V37.83C234.7 33.41 231.1 29.83 226.7 29.83H221.3zM128 144L128 160C128 213 170.1 256 224 256C277 256 320 213 320 160L320 128H312C289.2 128 269.2 116.1 257.9 98.16C240.1 125.7 210.6 144 176 144H128zM318.9 321C392.5 335.9 448 401 448 479.1C448 496.1 434.2 509.8 417.3 509.8H30.72C13.75 509.8 0 496.1 0 479.1C0 401 55.46 335.9 129.1 321L224 421.8L318.9 321z"/><path class="fa-secondary" d="M312 128H320L320 160C320 213 277 256 224 256C170.1 256 128 213 128 160L128 144H176C210.6 144 240.1 125.7 257.9 98.16C269.2 116.1 289.2 128 312 128V128z"/></svg>