<svg xmlns="http://www.w3.org/2000/svg" viewBox="0 0 512 512"><!--! Font Awesome Pro 6.1.1 by @fontawesome - https://fontawesome.com License - https://fontawesome.com/license (Commercial License) Copyright 2022 Fonticons, Inc. --><defs><style>.fa-secondary{opacity:.4}</style></defs><path class="fa-primary" d="M512 64v32c0 17.67-14.33 32-32 32h-192v384H224V128H32C14.33 128 0 113.7 0 96V64h224V16C224 7.162 231.2 0 240 0h32C280.8 0 288 7.162 288 16V64H512z"/><path class="fa-secondary" d="M128 55.1C128 42.74 117.3 32 104 32S80 42.74 80 55.1V64H128V55.1zM24 32C10.75 32 0 42.74 0 55.1V64h48V55.1C48 42.74 37.25 32 24 32zM83.16 128L224 221.9V183.4L140.8 128H83.16zM488 32c-13.25 0-24 10.74-24 23.1V64H512V55.1C512 42.74 501.3 32 488 32zM408 32C394.7 32 384 42.74 384 55.1V64h48V55.1C432 42.74 421.3 32 408 32zM288 183.4v38.46L428.8 128h-57.69L288 183.4z"/></svg>