<svg xmlns="http://www.w3.org/2000/svg" viewBox="0 0 512 512"><!--! Font Awesome Pro 6.1.1 by @fontawesome - https://fontawesome.com License - https://fontawesome.com/license (Commercial License) Copyright 2022 Fonticons, Inc. --><defs><style>.fa-secondary{opacity:.4}</style></defs><path class="fa-primary" d="M437 74.99C337-24.1 174.1-24.1 74.99 74.99C-24.99 174.1-24.99 337 74.99 437c99.99 99.99 262 99.99 362 .0027C536.1 337 536.1 174.1 437 74.99zM203.3 395.3c-3.125 3.125-7.219 4.688-11.31 4.688s-8.188-1.562-11.31-4.688l-64-64c-6.25-6.25-6.25-16.37 0-22.63c6.25-6.25 16.38-6.25 22.63 0l64 64C209.6 378.9 209.6 389.1 203.3 395.3zM283.3 379.3C280.2 382.4 276.1 383.1 272 383.1s-8.188-1.562-11.31-4.688L132.7 251.3c-6.25-6.25-6.25-16.37 0-22.63s16.37-6.25 22.62 0l128 128C289.6 362.9 289.6 373.1 283.3 379.3zM299.3 299.3C296.2 302.4 292.1 303.1 288 303.1c-4.094 0-8.188-1.562-11.31-4.687l-64-64c-6.25-6.25-6.25-16.38 0-22.63c6.25-6.25 16.38-6.25 22.63 0l64 64C305.6 282.9 305.6 293.1 299.3 299.3zM379.3 379.3c-3.125 3.125-7.219 4.688-11.31 4.688c-4.094 0-8.188-1.562-11.31-4.688c-6.25-6.25-6.25-16.38 0-22.63c27.47-27.47 42.84-63.31 43.31-100.9c.4687-38.13-14.44-74.31-41.98-101.8c-27.52-27.53-62.72-41.97-101.8-41.97c-37.58 .4688-73.41 15.84-100.9 43.31c-6.25 6.25-16.38 6.25-22.63 0c-6.25-6.25-6.25-16.38 0-22.63c33.41-33.41 77.12-52.13 123.1-52.69c45.98-1.094 91.14 17.66 124.8 51.34c33.69 33.69 51.92 78.03 51.36 124.8C431.4 302.2 412.7 345.9 379.3 379.3z"/><path class="fa-secondary" d="M139.3 308.7c-6.25-6.25-16.38-6.25-22.63 0C113.6 311.8 112 315.9 112 319.1c0 4.094 1.562 8.187 4.687 11.31l64 64c3.125 3.125 7.219 4.688 11.31 4.688s8.188-1.563 11.31-4.688c6.25-6.25 6.25-16.38 0-22.63L139.3 308.7zM155.3 228.7c-6.25-6.25-16.38-6.25-22.62 0s-6.25 16.38 0 22.63l128 128c3.125 3.125 7.219 4.688 11.31 4.688s8.188-1.563 11.31-4.688c6.25-6.25 6.25-16.38 0-22.63L155.3 228.7zM299.3 276.7l-64-64C232.2 209.6 228.1 208 224 208C219.9 207.1 215.8 209.6 212.7 212.7C206.4 218.9 206.4 229.1 212.7 235.3l64 64C279.8 302.4 283.9 303.1 288 303.1s8.188-1.563 11.31-4.688C302.4 296.2 303.1 292.1 304 288C304 283.9 302.4 279.8 299.3 276.7z"/></svg>