<svg xmlns="http://www.w3.org/2000/svg" viewBox="0 0 448 512"><!--! Font Awesome Pro 6.1.1 by @fontawesome - https://fontawesome.com License - https://fontawesome.com/license (Commercial License) Copyright 2022 Fonticons, Inc. --><defs><style>.fa-secondary{opacity:.4}</style></defs><path class="fa-primary" d="M416 32C433.7 32 448 46.33 448 64V128C448 145.7 433.7 160 416 160H352C334.3 160 320 145.7 320 128V64C320 46.33 334.3 32 352 32H416zM368 80V112H400V80H368zM0 384C0 366.3 14.33 352 32 352H96C113.7 352 128 366.3 128 384V448C128 465.7 113.7 480 96 480H32C14.33 480 0 465.7 0 448V384zM80 432V400H48V432H80zM320 384C320 366.3 334.3 352 352 352H416C433.7 352 448 366.3 448 384V448C448 465.7 433.7 480 416 480H352C334.3 480 320 465.7 320 448V384zM400 432V400H368V432H400zM0 64C0 46.33 14.33 32 32 32H96C113.7 32 128 46.33 128 64V128C128 145.7 113.7 160 96 160H32C14.33 160 0 145.7 0 128V64zM80 112V80H48V112H80z"/><path class="fa-secondary" d="M320 128H128V64H320V128zM320 448H128V384H320V448zM32 160H96V352H32V160zM416 352H352V160H416V352z"/></svg>