<svg xmlns="http://www.w3.org/2000/svg" viewBox="0 0 512 512"><!--! Font Awesome Pro 6.0.0-beta3 by @fontawesome - https://fontawesome.com License - https://fontawesome.com/license (Commercial License) Copyright 2021 Fonticons, Inc. --><defs><style>.fa-secondary{opacity:.4}</style></defs><path class="fa-primary" d="M80 400c0 17.67 14.33 32 32 32s32-14.33 32-32V256h-64V400zM368 256v144c0 17.67 14.33 32 32 32s32-14.33 32-32V256H368z"/><path class="fa-secondary" d="M200 32h-176C10.75 32 0 42.74 0 56C0 69.25 10.75 80 24 80H32v320C32 444.1 67.88 480 112 480S192 444.1 192 400v-320h8C213.3 80 224 69.25 224 56C224 42.74 213.3 32 200 32zM144 400c0 17.67-14.33 32-32 32s-32-14.33-32-32v-320h64V400zM488 32h-176C298.7 32 288 42.74 288 56c0 13.25 10.75 24 24 24H320v320c0 44.13 35.88 80 80 80s80-35.88 80-80v-320h8C501.3 80 512 69.25 512 56C512 42.74 501.3 32 488 32zM432 400c0 17.67-14.33 32-32 32s-32-14.33-32-32v-320h64V400z"/></svg>