<svg xmlns="http://www.w3.org/2000/svg" viewBox="0 0 576 512"><!--! Font Awesome Pro 6.0.0-beta3 by @fontawesome - https://fontawesome.com License - https://fontawesome.com/license (Commercial License) Copyright 2021 Fonticons, Inc. --><defs><style>.fa-secondary{opacity:.4}</style></defs><path class="fa-primary" d="M525.6 101.7L416 177.3v157.4l109.6 75.49C546.8 424.8 576 409.9 576 384.4V127.5C576 102.1 546.9 87.13 525.6 101.7zM272 232H215.1V175.1C215.1 162.7 205.3 152 192 152S168 162.7 168 175.1V232H111.1C98.74 232 88 242.7 88 256c0 13.26 10.73 23.1 23.1 23.1H168v56C168 349.3 178.7 360 192 360c13.26 0 23.1-10.74 23.1-23.1V279.1H272C285.3 279.1 296 269.3 296 256S285.3 232 272 232z"/><path class="fa-secondary" d="M336 64h-288C21.49 64 0 85.49 0 112v288C0 426.5 21.49 448 48 448h288c26.51 0 48-21.49 48-48v-288C384 85.49 362.5 64 336 64zM272 279.1H215.1v56C215.1 349.3 205.3 360 192 360c-13.27 0-23.1-10.74-23.1-23.1V279.1H111.1C98.73 279.1 88 269.3 88 256c0-13.26 10.74-23.1 23.1-23.1H168V175.1C168 162.7 178.7 152 192 152s23.1 10.74 23.1 23.1V232H272C285.3 232 296 242.7 296 256S285.3 279.1 272 279.1z"/></svg>