<svg xmlns="http://www.w3.org/2000/svg" viewBox="0 0 640 512"><!--! Font Awesome Pro 6.1.1 by @fontawesome - https://fontawesome.com License - https://fontawesome.com/license (Commercial License) Copyright 2022 Fonticons, Inc. --><defs><style>.fa-secondary{opacity:.4}</style></defs><path class="fa-primary" d="M630.8 469.1L38.81 5.111C34.41 1.673 29.19 0 24.03 0C16.91 0 9.84 3.158 5.121 9.189C-3.066 19.63-1.249 34.72 9.189 42.89l591.1 463.1c10.5 8.203 25.57 6.328 33.69-4.078C643.1 492.4 641.2 477.3 630.8 469.1z"/><path class="fa-secondary" d="M32 399.1c0 26.51 21.49 47.1 47.1 47.1h287.1c19.57 0 36.34-11.75 43.81-28.56L32 121.8L32 399.1zM557.6 101.7l-109.6 75.56l.0001 148.5l93.6 73.36l15.99 11.02c21.22 14.59 50.41-.2967 50.41-25.8V127.5C607.1 102.1 578.9 87.13 557.6 101.7zM367.1 63.1H113.9l302.1 236.7l.0001-188.7C415.1 85.49 394.5 63.1 367.1 63.1z"/></svg>