<svg xmlns="http://www.w3.org/2000/svg" viewBox="0 0 384 512"><!--! Font Awesome Pro 6.1.1 by @fontawesome - https://fontawesome.com License - https://fontawesome.com/license (Commercial License) Copyright 2022 Fonticons, Inc. --><defs><style>.fa-secondary{opacity:.4}</style></defs><path class="fa-primary" d="M271.7 0C298.4 0 320 21.63 320 48.32V65.6C314.8 64.55 309.5 64 304 64H80C74.52 64 69.17 64.55 64 65.6V48.32C64 21.63 85.63 0 112.3 0L271.7 0zM64 464V446.4C69.17 447.4 74.52 448 80 448H304C309.5 448 314.8 447.4 320 446.4V464C320 490.5 298.5 512 272 512H112C85.49 512 64 490.5 64 464zM64 272C64 258.7 74.75 248 88 248C101.3 248 112 258.7 112 272C112 285.3 101.3 296 88 296C74.75 296 64 285.3 64 272zM168 272C168 258.7 178.7 248 192 248C205.3 248 216 258.7 216 272C216 285.3 205.3 296 192 296C178.7 296 168 285.3 168 272zM320 272C320 285.3 309.3 296 296 296C282.7 296 272 285.3 272 272C272 258.7 282.7 248 296 248C309.3 248 320 258.7 320 272zM64 360C64 346.7 74.75 336 88 336C101.3 336 112 346.7 112 360C112 373.3 101.3 384 88 384C74.75 384 64 373.3 64 360zM216 360C216 373.3 205.3 384 192 384C178.7 384 168 373.3 168 360C168 346.7 178.7 336 192 336C205.3 336 216 346.7 216 360zM272 360C272 346.7 282.7 336 296 336C309.3 336 320 346.7 320 360C320 373.3 309.3 384 296 384C282.7 384 272 373.3 272 360z"/><path class="fa-secondary" d="M304 64C348.2 64 384 99.82 384 144V368C384 412.2 348.2 448 304 448H80C35.82 448 0 412.2 0 368V144C0 99.82 35.82 64 80 64H304zM80 128C71.16 128 64 135.2 64 144V176C64 184.8 71.16 192 80 192H304C312.8 192 320 184.8 320 176V144C320 135.2 312.8 128 304 128H80zM88 296C101.3 296 112 285.3 112 272C112 258.7 101.3 248 88 248C74.75 248 64 258.7 64 272C64 285.3 74.75 296 88 296zM192 248C178.7 248 168 258.7 168 272C168 285.3 178.7 296 192 296C205.3 296 216 285.3 216 272C216 258.7 205.3 248 192 248zM296 296C309.3 296 320 285.3 320 272C320 258.7 309.3 248 296 248C282.7 248 272 258.7 272 272C272 285.3 282.7 296 296 296zM88 336C74.75 336 64 346.7 64 360C64 373.3 74.75 384 88 384C101.3 384 112 373.3 112 360C112 346.7 101.3 336 88 336zM192 384C205.3 384 216 373.3 216 360C216 346.7 205.3 336 192 336C178.7 336 168 346.7 168 360C168 373.3 178.7 384 192 384zM296 336C282.7 336 272 346.7 272 360C272 373.3 282.7 384 296 384C309.3 384 320 373.3 320 360C320 346.7 309.3 336 296 336z"/></svg>