<svg xmlns="http://www.w3.org/2000/svg" viewBox="0 0 576 512"><!--! Font Awesome Pro 6.1.1 by @fontawesome - https://fontawesome.com License - https://fontawesome.com/license (Commercial License) Copyright 2022 Fonticons, Inc. --><defs><style>.fa-secondary{opacity:.4}</style></defs><path class="fa-primary" d="M37.78 156.4c25.33-4.625 44.72-13.31 58.19-21.25c19.5 11.53 51.47 24.68 96.04 24.68c44.55 0 76.49-13.12 96-24.65c19.52 11.53 51.45 24.59 96 24.59c44.58 0 76.55-13.09 96.05-24.62c13.47 7.938 32.86 16.62 58.19 21.25c17.56 3.375 34.06-8.344 37.25-25.72c3.172-17.38-8.344-34.03-25.72-37.22c-31.23-5.719-46.84-20.06-47.13-20.31c-12.22-12.19-32.31-12.12-44.91-.375c-1 .9375-25.14 23-73.73 23s-72.73-22.06-73.38-22.62c-12.22-12.25-32.3-12.12-44.89-.375c-1 .9375-25.14 23-73.73 23S119.3 73.76 118.6 73.2C106.4 60.95 86.35 61.04 73.74 72.85C73.09 73.45 57.48 87.79 26.24 93.51c-17.38 3.188-28.89 19.84-25.72 37.22C3.713 148.1 20.31 159.8 37.78 156.4zM549.8 381.7c-31.23-5.719-46.84-20.06-47.13-20.31c-12.22-12.19-32.31-12.12-44.91-.375C456.7 361.9 432.6 384 384 384s-72.73-22.06-73.38-22.62c-12.22-12.25-32.3-12.12-44.89-.375C264.7 361.9 240.6 384 192 384s-72.73-22.06-73.38-22.62c-12.22-12.25-32.28-12.16-44.89-.3438c-.6562 .5938-16.27 14.94-47.5 20.66c-17.38 3.188-28.89 19.84-25.72 37.22C3.713 436.3 20.31 448 37.78 444.6C63.1 440 82.49 431.3 95.96 423.4c19.5 11.53 51.51 24.62 96.08 24.62c44.55 0 76.45-13.06 95.96-24.59C307.5 434.9 339.5 448 384.1 448c44.58 0 76.5-13.09 95.1-24.62c13.47 7.938 32.86 16.62 58.19 21.25C555.8 448 572.3 436.3 575.5 418.9C578.7 401.5 567.2 384.9 549.8 381.7z"/><path class="fa-secondary" d="M384 303.8c-44.55 0-76.48-13.06-96-24.59c-19.52 11.53-51.46 24.65-96 24.65c-44.58 0-76.54-13.15-96.04-24.68C82.49 287.1 63.1 295.8 37.78 300.4C20.31 303.8 3.713 292.1 .5254 274.7C-2.646 257.4 8.869 240.7 26.24 237.5c31.23-5.719 46.84-20.06 47.5-20.66c12.61-11.81 32.67-11.91 44.89 .3438C119.3 217.8 143.4 239.8 192 239.8s72.73-22.06 73.73-23c12.59-11.75 32.67-11.88 44.89 .375c.6406 .5625 24.78 22.62 73.38 22.62s72.73-22.06 73.73-23c12.59-11.75 32.69-11.81 44.91 .375c.2813 .25 15.89 14.59 47.13 20.31c17.38 3.188 28.89 19.84 25.72 37.22c-3.188 17.38-19.69 29.09-37.25 25.72c-25.33-4.625-44.72-13.31-58.19-21.25C460.6 290.7 428.6 303.8 384 303.8z"/></svg>