<svg xmlns="http://www.w3.org/2000/svg" viewBox="0 0 640 512"><!--! Font Awesome Pro 6.0.0-beta3 by @fontawesome - https://fontawesome.com License - https://fontawesome.com/license (Commercial License) Copyright 2021 Fonticons, Inc. --><defs><style>.fa-secondary{opacity:.4}</style></defs><path class="fa-primary" d="M186.8 64.47c-17.44 2.906-29.22 19.4-26.31 36.81l64 383.1c2.594 15.66 16.09 26.7 31.47 26.7c1.75 0 3.562-.0833 5.344-.3958c17.44-2.906 29.22-19.4 26.31-36.81L223.6 90.76C220.7 73.32 204.1 61.41 186.8 64.47zM127.3 185.3c-3.719-17.25-20.59-28.5-38-24.56C72 164.4 61 181.5 64.72 198.7l47.99 223.1c3.219 14.1 16.48 25.28 31.26 25.28c2.219 0 4.469-.2187 6.75-.7187C168 443.6 179 426.6 175.3 409.3L127.3 185.3zM479.6 91.13c-2.594-17.47-18.54-29.07-36.38-26.76c-17.47 2.625-29.53 18.94-26.91 36.4l48.01 319.1c2.375 15.87 16.02 27.25 31.62 27.25c1.562 0 3.156-.125 4.781-.3437c17.47-2.625 29.53-18.94 26.91-36.4L479.6 91.13zM315.5 .3466c-17.5 2.5-29.66 18.72-27.16 36.22l64.01 447.1C354.6 500.5 368.2 512 383.9 512c1.5 0 3.125-.0937 4.656-.3124c17.5-2.5 29.66-18.72 27.16-36.22l-64-447.1C349.2 10 332.1-2.247 315.5 .3466z"/><path class="fa-secondary" d="M67.51 178.7C66.96 179.8 66.05 180.7 65.64 181.9L40.94 256H31.1C14.33 256 0 270.3 0 287.1c0 17.67 14.33 32.02 31.1 32.02H64c9.547 0 18.34-4.218 24.31-11.19L64.72 198.7C63.19 191.6 64.64 184.8 67.51 178.7zM160.8 89.74c-.0879 .4492-.3652 .7984-.4336 1.255L138.4 237.4l36.84 171.9c.8828 4.105 .8184 8.177 .1543 12.08c.0371-.2168 .1719-.3956 .2051-.6143l18.02-120.1L160.4 101.3C159.8 97.32 160.1 93.46 160.8 89.74zM608 256h-8.94l-24.18-72.54c-3.727-11.18-12.7-20.42-24.26-22.77c-17.89-3.632-34.32 7.829-37.93 24.59L501.6 237.3l26.09 173.9c.625 4.152 .3027 8.21-.6094 12.07c.0508-.2168 .2031-.3818 .25-.6006l24.39-113.9C557.7 315.8 566.5 320 576 320h32C625.7 320 640 305.7 640 287.1C640 270.3 625.7 256 608 256zM416.9 89.42c-.1016 .4746-.3966 .8423-.4767 1.325l-30 180l29.25 204.7c.5547 3.877 .1387 7.628-.6445 11.24c.1113-.5136 .4297-.9266 .5176-1.448l30.78-184.6l-29.1-199.9C415.8 96.87 416.1 93.08 416.9 89.42zM288.9 25.82C288.8 26.42 288.4 26.87 288.3 27.48L253.6 270.8l34 203.1c.6445 3.865 .3203 7.63-.3848 11.27c.1016-.5253 .418-.9539 .4941-1.489L319.1 258.3L288.3 36.56C287.8 32.86 288.2 29.29 288.9 25.82z"/></svg>