<svg xmlns="http://www.w3.org/2000/svg" viewBox="0 0 512 512"><!--! Font Awesome Pro 6.0.0-beta3 by @fontawesome - https://fontawesome.com License - https://fontawesome.com/license (Commercial License) Copyright 2021 Fonticons, Inc. --><defs><style>.fa-secondary{opacity:.4}</style></defs><path class="fa-primary" d="M448 32C483.3 32 512 60.65 512 96V224H0V96C0 60.65 28.65 32 64 32H448zM96 160C113.7 160 128 145.7 128 128C128 110.3 113.7 96 96 96C78.33 96 64 110.3 64 128C64 145.7 78.33 160 96 160zM192 96C174.3 96 160 110.3 160 128C160 145.7 174.3 160 192 160C209.7 160 224 145.7 224 128C224 110.3 209.7 96 192 96zM288 160C305.7 160 320 145.7 320 128C320 110.3 305.7 96 288 96C270.3 96 256 110.3 256 128C256 145.7 270.3 160 288 160z"/><path class="fa-secondary" d="M224 128C224 145.7 209.7 160 192 160C174.3 160 160 145.7 160 128C160 110.3 174.3 96 192 96C209.7 96 224 110.3 224 128zM512 416C512 451.3 483.3 480 448 480H64C28.65 480 0 451.3 0 416V224H512V416zM256 128C256 110.3 270.3 96 288 96C305.7 96 320 110.3 320 128C320 145.7 305.7 160 288 160C270.3 160 256 145.7 256 128z"/></svg>