<svg xmlns="http://www.w3.org/2000/svg" viewBox="0 0 512 512"><!--! Font Awesome Pro 6.1.1 by @fontawesome - https://fontawesome.com License - https://fontawesome.com/license (Commercial License) Copyright 2022 Fonticons, Inc. --><defs><style>.fa-secondary{opacity:.4}</style></defs><path class="fa-primary" d="M496 448H480V32c0-17.62-14.38-32-32-32H64C46.38 0 32 14.38 32 32v416H16C7.125 448 0 455.1 0 464v32C0 504.9 7.125 512 16 512h480c8.875 0 16-7.125 16-16v-32C512 455.1 504.9 448 496 448zM240 448H96V288h144V448zM240 224H96V64h144V224zM416 448h-144V288H416V448zM416 224h-144V64H416V224z"/><path class="fa-secondary" d="M272 64v160H416V64H272zM96 224h144V64H96V224zM96 448h144V288H96V448zM272 448H416V288h-144V448z"/></svg>