<svg xmlns="http://www.w3.org/2000/svg" viewBox="0 0 320 512"><!--! Font Awesome Pro 6.1.1 by @fontawesome - https://fontawesome.com License - https://fontawesome.com/license (Commercial License) Copyright 2022 Fonticons, Inc. --><defs><style>.fa-secondary{opacity:.4}</style></defs><path class="fa-primary" d="M252.3 160l3.332 37.18c4.278 48.01-27.5 91.93-74.46 102.8l-.7755 .1797c-13.65 3.16-27.84 3.148-41.48-.0371c-47.03-10.98-78.82-54.95-74.53-103L67.7 160H252.3z"/><path class="fa-secondary" d="M232 464h-40.01v-117.3c68.51-15.88 118-79.86 111.4-154.1L287.5 14.5C286.8 6.25 279.9 0 271.8 0H48.23C40.1 0 33.22 6.25 32.47 14.5L16.6 192.6c-6.626 74.25 42.88 138.2 111.4 154.2V464H87.98c-22.13 0-40.01 17.88-40.01 40c0 4.375 3.626 8 8.002 8h208c4.376 0 8.002-3.625 8.002-8C272 481.9 254.1 464 232 464zM180.4 300.2c-13.65 3.16-27.84 3.148-41.48-.0371c-47.03-10.98-78.82-54.95-74.53-103L77.72 48h164.6l13.35 149.2c4.278 48.01-27.5 91.93-74.46 102.8L180.4 300.2z"/></svg>