<svg xmlns="http://www.w3.org/2000/svg" viewBox="0 0 512 512"><!--! Font Awesome Pro 6.0.0-beta3 by @fontawesome - https://fontawesome.com License - https://fontawesome.com/license (Commercial License) Copyright 2021 Fonticons, Inc. --><defs><style>.fa-secondary{opacity:.4}</style></defs><path class="fa-primary" d="M507.4 198.7c-15.09 62.18-68.32 110.5-131.7 119.6c-106.9 15.34-197.3-75.1-181.1-181.1c9.088-63.33 57.42-116.6 119.6-131.7c27.13-6.582 53.4-5.89 77.37 .1745c11.99 3.033 15.94 18.27 7.197 27.02L320 109.7l-.0001 82.29L402.3 192l77.88-77.88c8.746-8.746 23.98-4.793 27.02 7.197C513.2 145.3 513.9 171.6 507.4 198.7z"/><path class="fa-secondary" d="M200.6 209.6l-179.5 179.5c-28.12 28.12-28.12 73.69 0 101.8C35.16 504.1 53.56 512 71.1 512s36.84-7.031 50.91-21.09l179.5-179.5C254.2 295.6 216.4 257.8 200.6 209.6zM80 456c-13.25 0-24-10.75-24-24c0-13.26 10.75-24 24-24s24 10.74 24 24C104 445.3 93.25 456 80 456z"/></svg>