<svg xmlns="http://www.w3.org/2000/svg" viewBox="0 0 320 512"><!--! Font Awesome Pro 6.1.1 by @fontawesome - https://fontawesome.com License - https://fontawesome.com/license (Commercial License) Copyright 2022 Fonticons, Inc. --><defs><style>.fa-secondary{opacity:.4}</style></defs><path class="fa-primary" d="M159.1 198.3L261.4 46.25C271.2 31.54 291 27.57 305.8 37.37C320.5 47.18 324.4 67.04 314.6 81.75L192 265.7V448C192 465.7 177.7 480 159.1 480C142.3 480 127.1 465.7 127.1 448V265.7L5.374 81.75C-4.429 67.04-.456 47.18 14.25 37.37C28.95 27.57 48.82 31.54 58.62 46.25L159.1 198.3z"/><path class="fa-secondary" d="M128 265.7V288H48C30.33 288 16 273.7 16 256C16 238.3 30.33 224 48 224H100.2L128 265.7zM192 288V265.7L219.8 224H272C289.7 224 304 238.3 304 256C304 273.7 289.7 288 272 288H192zM128 384H48C30.33 384 16 369.7 16 352C16 334.3 30.33 320 48 320H128V384zM192 384V320H272C289.7 320 304 334.3 304 352C304 369.7 289.7 384 272 384H192z"/></svg>